<svg width="16" height="16" viewBox="0 0 16 16" fill="none" xmlns="http://www.w3.org/2000/svg">
<path d="M7.99947 1.89286C7.57722 1.89286 7.23608 2.234 7.23608 2.65625V3.11429C5.49459 3.46735 4.18251 5.00845 4.18251 6.85491V7.3034C4.18251 8.42464 3.7698 9.5077 3.02549 10.3474L2.84896 10.5454C2.64857 10.7697 2.60086 11.0917 2.72252 11.3661C2.84419 11.6404 3.11853 11.817 3.41912 11.817H12.5798C12.8804 11.817 13.1524 11.6404 13.2764 11.3661C13.4005 11.0917 13.3504 10.7697 13.15 10.5454L12.9735 10.3474C12.2291 9.5077 11.8164 8.42702 11.8164 7.3034V6.85491C11.8164 5.00845 10.5044 3.46735 8.76287 3.11429V2.65625C8.76287 2.234 8.42173 1.89286 7.99947 1.89286ZM9.08015 13.661C9.36642 13.3748 9.52626 12.9859 9.52626 12.5804H7.99947H6.47269C6.47269 12.9859 6.63252 13.3748 6.9188 13.661C7.20507 13.9473 7.59392 14.1071 7.99947 14.1071C8.40503 14.1071 8.79388 13.9473 9.08015 13.661Z" fill="currentColor"/>
</svg>
