<svg width="16" height="16" viewBox="0 0 16 16" fill="none" xmlns="http://www.w3.org/2000/svg">
<path d="M4.69957 9.41422L3.28535 10.8285L5.17097 12.7141L12.7134 5.1716L10.8278 3.28598L9.41361 4.70019L10.3564 5.64301L9.41361 6.58581L8.47081 5.64301L7.52801 6.58581L8.47081 7.52862L7.52801 8.47142L6.58518 7.52862L5.64237 8.47142L6.58518 9.41422L5.64237 10.357L4.69957 9.41422ZM11.2992 1.87177L14.1277 4.70019C14.388 4.96055 14.388 5.38265 14.1277 5.64301L5.64237 14.1283C5.38202 14.3886 4.95991 14.3886 4.69957 14.1283L1.87113 11.2999C1.61079 11.0395 1.61079 10.6174 1.87113 10.357L10.3564 1.87177C10.6167 1.61142 11.0389 1.61142 11.2992 1.87177ZM9.41361 12.2424L10.3564 11.2996L11.8514 12.7946H12.7942V11.8518L11.2992 10.3568L12.242 9.41389L13.9991 11.171V14H11.1712L9.41361 12.2424ZM3.75666 6.58539L1.87104 4.69977C1.61069 4.43943 1.61069 4.01731 1.87104 3.75697L3.75666 1.87135C4.01701 1.611 4.43912 1.611 4.69947 1.87135L6.58509 3.75697L5.64228 4.69977L4.22807 3.28556L3.28525 4.22837L4.69947 5.64259L3.75666 6.58539Z" fill="#E6E6E6"/>
</svg>
