<svg width="34" height="25" viewBox="0 0 34 25" fill="none" xmlns="http://www.w3.org/2000/svg">
<path d="M28.8012 2.09374C26.6004 1.11562 24.2471 0.404768 21.7868 0C21.4846 0.518898 21.1316 1.21683 20.8882 1.77203C18.2729 1.39843 15.6816 1.39843 13.1143 1.77203C12.871 1.21683 12.51 0.518898 12.2051 0C9.74214 0.404768 7.38615 1.11824 5.18527 2.09892C0.746077 8.47087 -0.457316 14.6845 0.144382 20.81C3.08869 22.8985 5.94208 24.1672 8.74732 24.9974C9.43994 24.092 10.0577 23.1294 10.5898 22.115C9.57632 21.7492 8.60558 21.2978 7.68835 20.7737C7.93169 20.6024 8.16971 20.4234 8.39967 20.2392C13.9941 22.7247 20.0726 22.7247 25.6002 20.2392C25.8329 20.4234 26.0709 20.6024 26.3115 20.7737C25.3916 21.3003 24.4182 21.7518 23.4047 22.1176C23.9368 23.1294 24.5519 24.0946 25.2472 25C28.0551 24.1698 30.9112 22.9011 33.8555 20.81C34.5615 13.709 32.6494 7.55243 28.8012 2.09374ZM11.352 17.0429C9.67261 17.0429 8.29537 15.5537 8.29537 13.7402C8.29537 11.9267 9.6432 10.4349 11.352 10.4349C13.0608 10.4349 14.438 11.924 14.4086 13.7402C14.4113 15.5537 13.0608 17.0429 11.352 17.0429ZM22.6479 17.0429C20.9685 17.0429 19.5913 15.5537 19.5913 13.7402C19.5913 11.9267 20.939 10.4349 22.6479 10.4349C24.3567 10.4349 25.7339 11.924 25.7045 13.7402C25.7045 15.5537 24.3567 17.0429 22.6479 17.0429Z" fill="#5865F2"/>
</svg>
