<svg width="52" height="52" viewBox="0 0 52 52" fill="none" xmlns="http://www.w3.org/2000/svg">
<circle cx="26" cy="26" r="26" fill="white"/>
<path d="M37.8012 15.0937C35.6004 14.1156 33.2471 13.4048 30.7868 13C30.4846 13.5189 30.1316 14.2168 29.8882 14.772C27.2729 14.3984 24.6816 14.3984 22.1143 14.772C21.871 14.2168 21.51 13.5189 21.2051 13C18.7421 13.4048 16.3862 14.1182 14.1853 15.0989C9.74608 21.4709 8.54268 27.6845 9.14438 33.81C12.0887 35.8985 14.9421 37.1672 17.7473 37.9974C18.4399 37.092 19.0577 36.1294 19.5898 35.115C18.5763 34.7492 17.6056 34.2978 16.6884 33.7737C16.9317 33.6024 17.1697 33.4234 17.3997 33.2392C22.9941 35.7247 29.0726 35.7247 34.6002 33.2392C34.8329 33.4234 35.0709 33.6024 35.3115 33.7737C34.3916 34.3003 33.4182 34.7518 32.4047 35.1176C32.9368 36.1294 33.5519 37.0946 34.2472 38C37.0551 37.1698 39.9112 35.9011 42.8555 33.81C43.5615 26.709 41.6494 20.5524 37.8012 15.0937ZM20.352 30.0429C18.6726 30.0429 17.2954 28.5537 17.2954 26.7402C17.2954 24.9267 18.6432 23.4349 20.352 23.4349C22.0608 23.4349 23.438 24.924 23.4086 26.7402C23.4113 28.5537 22.0608 30.0429 20.352 30.0429ZM31.6479 30.0429C29.9685 30.0429 28.5913 28.5537 28.5913 26.7402C28.5913 24.9267 29.939 23.4349 31.6479 23.4349C33.3567 23.4349 34.7339 24.924 34.7045 26.7402C34.7045 28.5537 33.3567 30.0429 31.6479 30.0429Z" fill="#5865F2"/>
</svg>
