<svg width="52" height="52" viewBox="0 0 52 52" fill="none" xmlns="http://www.w3.org/2000/svg">
<circle cx="26" cy="26" r="26" fill="white"/>
<path d="M25.9987 42C17.1797 42 10 34.8208 10 26C10 17.1792 17.1797 10 25.9987 10C34.8178 10 42 17.1767 42 26C42.0005 26.9189 41.7557 27.8212 41.2908 28.6138C40.8258 29.4064 40.1577 30.0604 39.3553 30.5084C38.553 30.9564 37.6455 31.1819 36.7268 31.1619C35.8081 31.1418 34.9114 30.8768 34.1294 30.3942L34.0552 30.3483L34.0127 30.425C32.9353 32.3742 31.1839 33.8634 29.0869 34.6137C26.9898 35.3639 24.6911 35.3235 22.6217 34.5001C20.5523 33.6768 18.8543 32.1269 17.846 30.1411C16.8377 28.1554 16.5884 25.87 17.1448 23.7136C17.7012 21.5571 19.0252 19.6777 20.8684 18.4275C22.7116 17.1774 24.9476 16.6424 27.157 16.923C29.3665 17.2035 31.3978 18.2802 32.8701 19.9512C34.3425 21.6223 35.1546 23.7729 35.1545 26C35.1545 26.4456 35.3315 26.8729 35.6466 27.1879C35.9616 27.503 36.389 27.68 36.8346 27.68C37.2802 27.68 37.7075 27.503 38.0226 27.1879C38.3377 26.8729 38.5147 26.4456 38.5147 26C38.5147 19.0992 32.9001 13.485 25.9987 13.485C19.0974 13.485 13.4828 19.0992 13.4828 26C13.4828 32.9008 19.0965 38.515 25.9987 38.515C27.8127 38.5164 29.6053 38.1229 31.2519 37.3617C32.8984 36.6006 34.3595 35.4901 35.5337 34.1075L38.2005 36.3475C36.7001 38.1202 34.8311 39.5444 32.7237 40.5206C30.6163 41.4969 28.3213 42.0017 25.9987 42ZM25.9987 20.3333C24.8765 20.3332 23.7793 20.6659 22.8462 21.2893C21.9131 21.9128 21.1858 22.799 20.7565 23.8358C20.3272 24.8727 20.215 26.0135 20.4343 27.1141C20.6536 28.2147 21.1944 29.2255 21.9883 30.0187C22.7822 30.8118 23.7936 31.3517 24.8945 31.57C25.9953 31.7883 27.1362 31.6751 28.1727 31.2449C29.2092 30.8147 30.0949 30.0868 30.7176 29.1531C31.3403 28.2195 31.672 27.1222 31.6709 26C31.6691 24.4963 31.0709 23.0547 30.0076 21.9915C28.9442 20.9282 27.5025 20.3301 25.9987 20.3283V20.3333Z" fill="#F06B66"/>
</svg>
