<svg width="32" height="32" viewBox="0 0 32 32" fill="none" xmlns="http://www.w3.org/2000/svg">
<path d="M15.9987 32C7.17973 32 0 24.8208 0 16C0 7.17917 7.17973 0 15.9987 0C24.8178 0 32 7.17667 32 16C32.0005 16.9189 31.7557 17.8212 31.2908 18.6138C30.8258 19.4064 30.1577 20.0604 29.3553 20.5084C28.553 20.9564 27.6455 21.1819 26.7268 21.1619C25.8081 21.1418 24.9114 20.8768 24.1294 20.3942L24.0552 20.3483L24.0127 20.425C22.9353 22.3742 21.1839 23.8634 19.0869 24.6137C16.9898 25.3639 14.6911 25.3235 12.6217 24.5001C10.5523 23.6768 8.85427 22.1269 7.846 20.1411C6.83772 18.1554 6.58842 15.87 7.14483 13.7136C7.70124 11.5571 9.02516 9.67768 10.8684 8.42754C12.7116 7.17741 14.9476 6.64245 17.157 6.92295C19.3665 7.20346 21.3978 8.28017 22.8701 9.95123C24.3425 11.6223 25.1546 13.7729 25.1545 16C25.1545 16.4456 25.3315 16.8729 25.6466 17.1879C25.9616 17.503 26.389 17.68 26.8346 17.68C27.2802 17.68 27.7075 17.503 28.0226 17.1879C28.3377 16.8729 28.5147 16.4456 28.5147 16C28.5147 9.09917 22.9001 3.485 15.9987 3.485C9.09738 3.485 3.48277 9.09917 3.48277 16C3.48277 22.9008 9.09654 28.515 15.9987 28.515C17.8127 28.5164 19.6053 28.1229 21.2519 27.3617C22.8984 26.6006 24.3595 25.4901 25.5337 24.1075L28.2005 26.3475C26.7001 28.1202 24.8311 29.5444 22.7237 30.5206C20.6163 31.4969 18.3213 32.0017 15.9987 32ZM15.9987 10.3333C14.8765 10.3332 13.7793 10.6659 12.8462 11.2893C11.9131 11.9128 11.1858 12.799 10.7565 13.8358C10.3272 14.8727 10.215 16.0135 10.4343 17.1141C10.6536 18.2147 11.1944 19.2255 11.9883 20.0187C12.7822 20.8118 13.7936 21.3517 14.8945 21.57C15.9953 21.7883 17.1362 21.6751 18.1727 21.2449C19.2092 20.8147 20.0949 20.0868 20.7176 19.1531C21.3403 18.2195 21.672 17.1222 21.6709 16C21.6691 14.4963 21.0709 13.0547 20.0076 11.9915C18.9442 10.9282 17.5025 10.3301 15.9987 10.3283V10.3333Z" fill="#F06B66"/>
</svg>
