<svg width="36" height="33" viewBox="0 0 36 33" fill="none" xmlns="http://www.w3.org/2000/svg">
<g clip-path="url(#clip0_508_1601)">
<path d="M25.1107 12.375H34.4095C35.2881 12.375 36.0002 13.0768 36.0002 13.9425V22.289C36.0002 25.4707 33.3828 28.05 30.154 28.05H30.1264C26.8976 28.0504 24.2798 25.4715 24.2793 22.2898C24.2793 22.2896 24.2793 22.2893 24.2793 22.289V13.1942C24.2793 12.7418 24.6515 12.375 25.1107 12.375Z" fill="#5059C9"/>
<path d="M31.3963 10.7258C33.4771 10.7258 35.1638 9.06364 35.1638 7.01328C35.1638 4.96292 33.4771 3.30078 31.3963 3.30078C29.3156 3.30078 27.6289 4.96292 27.6289 7.01328C27.6289 9.06364 29.3156 10.7258 31.3963 10.7258Z" fill="#5059C9"/>
<path d="M19.6743 10.725C22.6797 10.725 25.1162 8.32414 25.1162 5.36251C25.1162 2.40088 22.6797 0 19.6743 0C16.6688 0 14.2324 2.40088 14.2324 5.36251C14.2324 8.32414 16.6688 10.725 19.6743 10.725Z" fill="#7B83EB"/>
<path d="M26.9296 12.375H11.5802C10.7121 12.3962 10.0254 13.1061 10.0456 13.9615V23.4812C9.92436 28.6145 14.0457 32.8744 19.2549 33C24.4641 32.8744 28.5854 28.6145 28.4642 23.4812V13.9615C28.4843 13.1061 27.7976 12.3962 26.9296 12.375Z" fill="#7B83EB"/>
<path opacity="0.1" d="M20.0938 12.375V25.7153C20.0897 26.327 19.7135 26.8766 19.1394 27.1095C18.9566 27.1857 18.7602 27.225 18.5617 27.225H10.7841C10.6752 26.9528 10.5748 26.6805 10.491 26.4C10.198 25.4533 10.0484 24.4692 10.0473 23.4795V13.959C10.0272 13.1049 10.7127 12.3962 11.5794 12.375H20.0938Z" fill="black"/>
<path opacity="0.2" d="M19.2566 12.375V26.5403C19.2566 26.7358 19.2167 26.9294 19.1394 27.1095C18.9031 27.6752 18.3453 28.0459 17.7245 28.05H11.1776C11.0352 27.7778 10.9013 27.5055 10.7841 27.225C10.6668 26.9445 10.5748 26.6805 10.491 26.4C10.198 25.4534 10.0484 24.4692 10.0473 23.4795V13.959C10.0272 13.1049 10.7127 12.3962 11.5794 12.375H19.2566Z" fill="black"/>
<path opacity="0.2" d="M19.2566 12.375V24.8903C19.2502 25.7215 18.568 26.3937 17.7245 26.4H10.491C10.198 25.4534 10.0484 24.4692 10.0473 23.4795V13.959C10.0272 13.1049 10.7127 12.3962 11.5794 12.375H19.2566Z" fill="black"/>
<path opacity="0.2" d="M18.4194 12.375V24.8903C18.413 25.7215 17.7308 26.3937 16.8873 26.4H10.491C10.198 25.4534 10.0484 24.4692 10.0473 23.4795V13.959C10.0272 13.1049 10.7127 12.3962 11.5794 12.375H18.4194Z" fill="black"/>
<path opacity="0.1" d="M20.0926 8.10934V10.7081C19.9503 10.7163 19.8163 10.7246 19.674 10.7246C19.5317 10.7246 19.3977 10.7164 19.2554 10.7081C18.9728 10.6896 18.6925 10.6454 18.4182 10.5761C16.7228 10.1805 15.3222 9.00883 14.6507 7.4246C14.5352 7.15856 14.4455 6.88232 14.3828 6.59961H18.5605C19.4053 6.60276 20.0894 7.27684 20.0926 8.10934Z" fill="black"/>
<path opacity="0.2" d="M19.257 8.93552V10.7093C18.9744 10.6908 18.6941 10.6466 18.4198 10.5773C16.7244 10.1816 15.3238 9.01 14.6523 7.42578H17.7249C18.5697 7.42893 19.2538 8.10302 19.257 8.93552Z" fill="black"/>
<path opacity="0.2" d="M19.257 8.93552V10.7093C18.9744 10.6908 18.6941 10.6466 18.4198 10.5773C16.7244 10.1816 15.3238 9.01 14.6523 7.42578H17.7249C18.5697 7.42893 19.2538 8.10302 19.257 8.93552Z" fill="black"/>
<path opacity="0.2" d="M18.4198 8.93553V10.5773C16.7244 10.1816 15.3238 9.01 14.6523 7.42578H16.8877C17.7325 7.42895 18.4166 8.10304 18.4198 8.93553Z" fill="black"/>
<path d="M1.5346 7.42578H16.884C17.7315 7.42578 18.4186 8.10283 18.4186 8.938V24.0635C18.4186 24.8987 17.7315 25.5758 16.884 25.5758H1.5346C0.687056 25.5758 0 24.8987 0 24.0635V8.938C0 8.10283 0.687072 7.42578 1.5346 7.42578Z" fill="url(#paint0_linear_508_1601)"/>
<path d="M13.2493 13.1812H10.1809V21.4147H8.22602V13.1812H5.17188V11.584H13.2493V13.1812Z" fill="white"/>
</g>
<defs>
<linearGradient id="paint0_linear_508_1601" x1="3.19969" y1="6.24416" x2="14.956" y2="26.907" gradientUnits="userSpaceOnUse">
<stop stop-color="#5A62C3"/>
<stop offset="0.5" stop-color="#4D55BD"/>
<stop offset="1" stop-color="#3940AB"/>
</linearGradient>
<clipPath id="clip0_508_1601">
<rect width="36" height="33" fill="white"/>
</clipPath>
</defs>
</svg>
