<svg width="52" height="52" viewBox="0 0 52 52" fill="none" xmlns="http://www.w3.org/2000/svg">
<circle cx="26" cy="26" r="26" fill="white"/>
<g clip-path="url(#clip0_2350_6337)">
<path d="M32.1107 21.375H41.4095C42.2881 21.375 43.0002 22.0768 43.0002 22.9425V31.289C43.0002 34.4707 40.3828 37.05 37.154 37.05H37.1264C33.8976 37.0504 31.2798 34.4715 31.2793 31.2898C31.2793 31.2896 31.2793 31.2893 31.2793 31.289V22.1942C31.2793 21.7418 31.6515 21.375 32.1107 21.375Z" fill="#5059C9"/>
<path d="M38.3963 19.7258C40.4771 19.7258 42.1638 18.0636 42.1638 16.0133C42.1638 13.9629 40.4771 12.3008 38.3963 12.3008C36.3156 12.3008 34.6289 13.9629 34.6289 16.0133C34.6289 18.0636 36.3156 19.7258 38.3963 19.7258Z" fill="#5059C9"/>
<path d="M26.6743 19.725C29.6797 19.725 32.1162 17.3241 32.1162 14.3625C32.1162 11.4009 29.6797 9 26.6743 9C23.6688 9 21.2324 11.4009 21.2324 14.3625C21.2324 17.3241 23.6688 19.725 26.6743 19.725Z" fill="#7B83EB"/>
<path d="M33.9296 21.375H18.5802C17.7121 21.3962 17.0254 22.1061 17.0456 22.9615V32.4812C16.9244 37.6145 21.0457 41.8744 26.2549 42C31.4641 41.8744 35.5854 37.6145 35.4642 32.4812V22.9615C35.4843 22.1061 34.7976 21.3962 33.9296 21.375Z" fill="#7B83EB"/>
<path opacity="0.1" d="M27.0938 21.375V34.7153C27.0897 35.327 26.7135 35.8766 26.1394 36.1095C25.9566 36.1857 25.7602 36.225 25.5617 36.225H17.7841C17.6752 35.9528 17.5748 35.6805 17.491 35.4C17.198 34.4533 17.0484 33.4692 17.0473 32.4795V22.959C17.0272 22.1049 17.7127 21.3962 18.5794 21.375H27.0938Z" fill="black"/>
<path opacity="0.2" d="M26.2566 21.375V35.5403C26.2566 35.7358 26.2167 35.9294 26.1394 36.1095C25.9031 36.6752 25.3453 37.0459 24.7245 37.05H18.1776C18.0352 36.7778 17.9013 36.5055 17.7841 36.225C17.6668 35.9445 17.5748 35.6805 17.491 35.4C17.198 34.4534 17.0484 33.4692 17.0473 32.4795V22.959C17.0272 22.1049 17.7127 21.3962 18.5794 21.375H26.2566Z" fill="black"/>
<path opacity="0.2" d="M26.2566 21.375V33.8903C26.2502 34.7215 25.568 35.3937 24.7245 35.4H17.491C17.198 34.4534 17.0484 33.4692 17.0473 32.4795V22.959C17.0272 22.1049 17.7127 21.3962 18.5794 21.375H26.2566Z" fill="black"/>
<path opacity="0.2" d="M25.4194 21.375V33.8903C25.413 34.7215 24.7308 35.3937 23.8873 35.4H17.491C17.198 34.4534 17.0484 33.4692 17.0473 32.4795V22.959C17.0272 22.1049 17.7127 21.3962 18.5794 21.375H25.4194Z" fill="black"/>
<path opacity="0.1" d="M27.0926 17.1093V19.7081C26.9503 19.7163 26.8163 19.7246 26.674 19.7246C26.5317 19.7246 26.3977 19.7164 26.2554 19.7081C25.9728 19.6896 25.6925 19.6454 25.4182 19.5761C23.7228 19.1805 22.3222 18.0088 21.6507 16.4246C21.5352 16.1586 21.4455 15.8823 21.3828 15.5996H25.5605C26.4053 15.6028 27.0894 16.2768 27.0926 17.1093Z" fill="black"/>
<path opacity="0.2" d="M26.257 17.9355V19.7093C25.9744 19.6908 25.6941 19.6466 25.4198 19.5773C23.7244 19.1816 22.3238 18.01 21.6523 16.4258H24.7249C25.5697 16.4289 26.2538 17.103 26.257 17.9355Z" fill="black"/>
<path opacity="0.2" d="M26.257 17.9355V19.7093C25.9744 19.6908 25.6941 19.6466 25.4198 19.5773C23.7244 19.1816 22.3238 18.01 21.6523 16.4258H24.7249C25.5697 16.4289 26.2538 17.103 26.257 17.9355Z" fill="black"/>
<path opacity="0.2" d="M25.4198 17.9355V19.5773C23.7244 19.1816 22.3238 18.01 21.6523 16.4258H23.8877C24.7325 16.4289 25.4166 17.103 25.4198 17.9355Z" fill="black"/>
<path d="M8.5346 16.4258H23.884C24.7315 16.4258 25.4186 17.1028 25.4186 17.938V33.0635C25.4186 33.8987 24.7315 34.5758 23.884 34.5758H8.5346C7.68706 34.5758 7 33.8987 7 33.0635V17.938C7 17.1028 7.68707 16.4258 8.5346 16.4258Z" fill="url(#paint0_linear_2350_6337)"/>
<path d="M20.2493 22.1812H17.1809V30.4147H15.226V22.1812H12.1719V20.584H20.2493V22.1812Z" fill="white"/>
</g>
<defs>
<linearGradient id="paint0_linear_2350_6337" x1="10.1997" y1="15.2442" x2="21.956" y2="35.907" gradientUnits="userSpaceOnUse">
<stop stop-color="#5A62C3"/>
<stop offset="0.5" stop-color="#4D55BD"/>
<stop offset="1" stop-color="#3940AB"/>
</linearGradient>
<clipPath id="clip0_2350_6337">
<rect width="36" height="33" fill="white" transform="translate(7 9)"/>
</clipPath>
</defs>
</svg>
