<svg width="52" height="52" viewBox="0 0 52 52" fill="none" xmlns="http://www.w3.org/2000/svg">
<circle cx="26" cy="26" r="26" fill="white"/>
<path fill-rule="evenodd" clip-rule="evenodd" d="M17.7832 13.7044C20.061 12.0138 22.8804 11.0105 25.9372 11.0001C28.9941 10.989 31.8207 11.9738 34.1087 13.648C36.3988 15.3232 38.1503 17.6878 39.0579 20.435C39.0949 20.5479 39.1494 20.6504 39.2213 20.7417C39.2922 20.832 39.3796 20.911 39.4793 20.9756C40.8926 21.8784 42.0592 23.132 42.8527 24.6143C43.6473 26.0977 44.0697 27.8088 43.9906 29.6266C43.8796 32.2569 42.6996 34.5948 40.8875 36.2793C39.0753 37.9617 36.6321 38.9906 33.9957 38.9999H26.0339H18.072C15.4346 39.009 12.9841 38.0109 11.1617 36.3531C9.33832 34.6964 8.14189 32.379 8.01238 29.7508C7.92193 27.933 8.33101 26.2188 9.11527 24.7313C9.8985 23.2428 11.0569 21.981 12.4651 21.0669C12.5627 21.0033 12.6491 20.9243 12.721 20.832C12.7909 20.7407 12.8464 20.6371 12.8824 20.5243C13.7705 17.7709 15.5065 15.394 17.7832 13.7044ZM32.0879 16.5183C30.3478 15.2319 28.2057 14.4851 25.9496 14.4932C23.6924 14.5005 21.5555 15.2617 19.8245 16.5604C18.0926 17.8591 16.7667 19.6964 16.1345 21.8558L15.9968 22.3226L15.8591 22.7904C15.8241 22.9114 15.7655 23.0243 15.6895 23.1227C15.6134 23.2212 15.5188 23.3053 15.4109 23.371L14.9926 23.6213L14.5732 23.8716C13.568 24.4717 12.7745 25.3068 12.2461 26.2844C11.7178 27.2631 11.4526 28.3812 11.5061 29.5507C11.5832 31.2475 12.3571 32.7473 13.5382 33.8213C14.7192 34.8964 16.3072 35.5448 18.0083 35.5387L26.0215 35.5119L34.0347 35.4832C35.7358 35.4781 37.3187 34.8184 38.4925 33.7362C39.6653 32.6539 40.4311 31.149 40.4958 29.4512C40.54 28.2817 40.2687 27.1646 39.7332 26.1911C39.1977 25.2165 38.399 24.3866 37.3907 23.7936L36.9693 23.5454L36.5489 23.2982C36.4399 23.2335 36.3443 23.1504 36.2683 23.052C36.1912 22.9535 36.1326 22.8427 36.0956 22.7216L35.9548 22.2549L35.815 21.7881C35.1664 19.6328 33.8291 17.8058 32.0879 16.5183ZM23.0082 23.4995C23.1428 23.3641 23.225 23.1774 23.225 22.9722L23.223 22.2223L23.2199 21.4714C23.2189 21.2662 23.1346 21.0805 22.9989 20.9461C22.8632 20.8128 22.6772 20.7287 22.4716 20.7287L21.7192 20.7317L20.9679 20.7338C20.7613 20.7348 20.5752 20.8189 20.4406 20.9544C20.3059 21.0898 20.2227 21.2765 20.2227 21.4816L20.2257 22.2326L20.2288 22.9835C20.2299 23.1887 20.3141 23.3743 20.4498 23.5077C20.5855 23.6421 20.7715 23.7252 20.9771 23.7252L21.7295 23.7221L22.4809 23.72C22.6875 23.719 22.8735 23.6349 23.0082 23.4995ZM27.2622 23.4995C27.3968 23.3641 27.4801 23.1774 27.4791 22.9722L27.477 22.2223L27.4739 21.4714C27.4729 21.2662 27.3886 21.0805 27.2529 20.9461C27.1172 20.8128 26.9312 20.7287 26.7256 20.7287L25.9732 20.7317L25.2219 20.7338C25.0163 20.7348 24.8292 20.8189 24.6946 20.9544C24.5599 21.0898 24.4767 21.2765 24.4777 21.4816L24.4797 22.2326L24.4828 22.9835C24.4839 23.1887 24.5681 23.3743 24.7038 23.5077C24.8395 23.6421 25.0255 23.7252 25.2311 23.7252L25.9835 23.7221L26.7349 23.72C26.9415 23.719 27.1275 23.6349 27.2622 23.4995ZM31.5161 23.5005C31.6507 23.3651 31.734 23.1784 31.734 22.9732L31.7401 22.2223L31.7473 21.4714V21.4642V21.456C31.7422 21.2498 31.6528 21.0662 31.514 20.9349C31.3752 20.8025 31.1861 20.7246 30.9795 20.7287L30.2271 20.7317L29.4758 20.7338C29.2692 20.7348 29.0831 20.8189 28.9485 20.9544C28.8138 21.0898 28.7306 21.2765 28.7316 21.4827L28.7336 22.2326L28.7367 22.9835C28.7367 23.1887 28.821 23.3754 28.9567 23.5087C29.0924 23.6431 29.2794 23.7262 29.485 23.7252L30.2374 23.7231L30.9888 23.7211C31.1954 23.72 31.3814 23.6359 31.5161 23.5005ZM23.0091 27.7441C23.1448 27.6087 23.227 27.422 23.227 27.2169L23.2249 26.467L23.2218 25.716C23.2208 25.5109 23.1365 25.3252 23.0009 25.1908C22.8652 25.0574 22.6791 24.9733 22.4736 24.9733L21.7212 24.9754L20.9688 24.9785C20.7632 24.9795 20.5772 25.0636 20.4425 25.199C20.3079 25.3344 20.2246 25.5211 20.2246 25.7263L20.2277 26.4762L20.2297 27.2281C20.2318 27.4333 20.3161 27.619 20.4518 27.7523C20.5874 27.8867 20.7735 27.9698 20.9791 27.9698L21.7315 27.9668L22.4828 27.9647C22.6894 27.9637 22.8744 27.8796 23.0091 27.7441ZM27.2641 27.7441C27.3988 27.6087 27.481 27.422 27.481 27.2169L27.4789 26.467L27.4759 25.716C27.4748 25.5109 27.3905 25.3252 27.2549 25.1908C27.1192 25.0574 26.9331 24.9733 26.7276 24.9733L25.9752 24.9754L25.2238 24.9785C25.0172 24.9795 24.8312 25.0636 24.6965 25.199C24.5619 25.3344 24.4786 25.5211 24.4786 25.7263L24.4817 26.4762L24.4848 27.2281C24.4858 27.4333 24.5701 27.619 24.7058 27.7523C24.8414 27.8867 25.0275 27.9698 25.2331 27.9698L25.9855 27.9668L26.7368 27.9647C26.9434 27.9637 27.1295 27.8796 27.2641 27.7441ZM31.5181 27.7441C31.6528 27.6087 31.735 27.422 31.735 27.2169L31.7329 26.467L31.7299 25.716C31.7288 25.5109 31.6445 25.3252 31.5089 25.1908C31.3732 25.0574 31.1872 24.9733 30.9816 24.9733L30.2292 24.9754L29.4778 24.9785C29.2712 24.9795 29.0852 25.0636 28.9505 25.199C28.8148 25.3344 28.7326 25.5211 28.7326 25.7263L28.7357 26.4762L28.7388 27.2281C28.7388 27.4333 28.8231 27.62 28.9587 27.7534C29.0944 27.8878 29.2815 27.9698 29.4871 27.9698L30.2395 27.9668L30.9908 27.9647C31.1974 27.9637 31.3835 27.8796 31.5181 27.7441ZM23.0122 31.9889C23.1468 31.8535 23.2301 31.6658 23.2291 31.4606L23.226 30.7107L23.2239 29.9598C23.2229 29.7546 23.1386 29.5679 23.0029 29.4335C22.8672 29.3002 22.6812 29.216 22.4756 29.217L21.7222 29.2191L20.9708 29.2222C20.7653 29.2232 20.5792 29.3073 20.4446 29.4427C20.3099 29.5782 20.2267 29.7649 20.2267 29.97L20.2297 30.7199L20.2318 31.4708C20.2328 31.677 20.3171 31.8627 20.4528 31.9961C20.5885 32.1305 20.7745 32.2136 20.9811 32.2126L21.7335 32.2105L22.4849 32.2084C22.6915 32.2084 22.8775 32.1233 23.0122 31.9889ZM27.2662 31.9889C27.4008 31.8535 27.4841 31.6658 27.4831 31.4606L27.481 30.7107L27.4779 29.9598C27.4769 29.7546 27.3926 29.5679 27.2569 29.4335C27.1212 29.3002 26.9352 29.216 26.7296 29.217L25.9772 29.2191L25.2248 29.2222C25.0193 29.2232 24.8332 29.3073 24.6986 29.4427C24.5639 29.5782 24.4807 29.7649 24.4807 29.97L24.4838 30.7199L24.4858 31.4708C24.4868 31.677 24.5711 31.8627 24.7068 31.9961C24.8425 32.1305 25.0285 32.2136 25.2351 32.2126L25.9875 32.2105L26.7389 32.2084C26.9455 32.2084 27.1315 32.1233 27.2662 31.9889ZM31.5201 31.9889C31.6547 31.8535 31.738 31.6658 31.737 31.4606L31.7349 30.7107L31.7318 29.9598C31.7308 29.7546 31.6465 29.5679 31.5108 29.4335C31.3751 29.3002 31.1891 29.216 30.9835 29.217L30.2311 29.2191L29.4798 29.2222C29.2732 29.2222 29.0861 29.3063 28.9515 29.4417C28.8168 29.5771 28.7346 29.7649 28.7346 29.97L28.7377 30.7199L28.7397 31.4708C28.7407 31.677 28.825 31.8627 28.9607 31.9961C29.0964 32.1305 29.2824 32.2136 29.489 32.2126L30.2414 32.2105L30.9928 32.2084C31.1994 32.2084 31.3854 32.1233 31.5201 31.9889Z" fill="#03A94A"/>
</svg>
