<svg width="52" height="52" viewBox="0 0 52 52" fill="none" xmlns="http://www.w3.org/2000/svg">
<circle cx="26" cy="26" r="26" fill="white"/>
<path fill-rule="evenodd" clip-rule="evenodd" d="M39.555 33.7671C38.6212 35.3668 37.0963 36.5475 35.2999 37.0616C35.5567 36.1915 35.6878 35.29 35.6893 34.3837C35.6893 29.8704 32.5386 26.085 28.3093 25.0542C29.186 24.2077 30.2685 23.5981 31.4528 23.2839C32.3663 23.0384 33.3201 22.9752 34.2585 23.0978C35.197 23.2205 36.1012 23.5266 36.9185 23.9982C40.3582 25.9703 41.5408 30.3522 39.555 33.7671V33.7671ZM26.0041 41.5345C24.1227 41.5345 22.3331 40.7926 21.0053 39.5257C21.8921 39.3107 22.7433 38.9719 23.5332 38.5196C27.4688 36.2637 29.1953 31.6641 27.9823 27.5133C30.9939 28.3699 33.207 31.1225 33.207 34.3837C33.207 38.326 29.9752 41.5345 26.0041 41.5345ZM12.4524 33.7671C11.5119 32.1494 11.2684 30.2435 11.708 28.4708C12.3388 29.1219 13.059 29.6824 13.8476 30.1359C15.313 30.9786 16.9787 31.4225 18.6746 31.4223C19.9832 31.4212 21.278 31.1586 22.481 30.6502C23.6841 30.1419 24.7704 29.3983 25.6745 28.4644C26.43 31.4804 25.1349 34.755 22.2922 36.3848C21.2025 37.0114 19.964 37.3414 18.7029 37.3412C17.4345 37.3417 16.1884 37.0115 15.0907 36.3839C13.993 35.7562 13.0828 34.8535 12.452 33.7671H12.4524ZM12.452 18.2322C13.3859 16.6324 14.911 15.4517 16.7075 14.9377C16.4502 15.8079 16.3188 16.7097 16.3174 17.6163C16.3174 22.1271 19.4667 25.9115 23.6938 26.9441C21.4406 29.1055 17.9331 29.6315 15.0889 28.0011C13.4223 27.0453 12.2308 25.5037 11.7327 23.6584C11.4853 22.7517 11.4214 21.8057 11.5448 20.8746C11.6683 19.9435 11.9766 19.0455 12.452 18.2322V18.2322ZM26.0041 10.4648C27.8862 10.4648 29.674 11.206 31.0007 12.4719C30.1147 12.6887 29.2641 13.028 28.4742 13.4796C26.2332 14.7646 24.6304 16.8379 23.9613 19.3193C23.5027 21.0145 23.5238 22.8014 24.0223 24.4857C21.0121 23.6283 18.8008 20.8761 18.8008 17.6163C18.8008 13.6729 22.0319 10.4648 26.0041 10.4648V10.4648ZM39.555 18.2322C40.4966 19.852 40.7405 21.76 40.298 23.5349C39.6688 22.8809 38.9491 22.3182 38.1602 21.8634C35.9192 20.5795 33.3092 20.2382 30.8096 20.903C29.0986 21.358 27.5485 22.2712 26.3304 23.5416C26.0317 22.3637 26.0418 21.1301 26.3598 19.9572C26.8571 18.1122 28.049 16.5699 29.7156 15.6145C31.3819 14.6598 33.3228 14.406 35.1812 14.9002C37.0397 15.3947 38.5926 16.5781 39.555 18.2322V18.2322ZM41.7054 17.0004C40.4116 14.7756 38.323 13.1844 35.8234 12.5196C35.2326 12.3633 34.6281 12.2623 34.018 12.2181C32.2252 9.60071 29.2158 8 26.0041 8C22.6776 8 19.7385 9.67398 17.9937 12.217C14.8121 12.4492 11.9088 14.2368 10.3024 16.9996C9.008 19.2241 8.66485 21.8159 9.33393 24.2973C9.49313 24.8833 9.70741 25.4534 9.97397 26C8.5874 28.8506 8.69568 32.2382 10.3017 35C11.9647 37.8595 14.8935 39.5476 17.9836 39.777C19.7765 42.3965 22.792 44 26.0037 44C29.3298 44 32.2689 42.3257 34.0134 39.7823C37.1949 39.5501 40.0983 37.7632 41.705 35C43.3684 32.1398 43.377 28.7759 42.0309 26.0046C43.4193 23.1526 43.3117 19.7635 41.705 17.0004" fill="#0092FF"/>
</svg>
