<svg width="28" height="28" viewBox="0 0 28 28" fill="none" xmlns="http://www.w3.org/2000/svg">
<path d="M10.2664 0C8.72001 0 7.46659 1.25375 7.46659 2.79988C7.46622 3.16719 7.53835 3.53099 7.67885 3.87048C7.81936 4.20998 8.02548 4.51854 8.28547 4.77853C8.54545 5.03852 8.85421 5.24486 9.19409 5.38577C9.53398 5.52667 9.89835 5.59939 10.2664 5.59976H13.0667V2.79988C13.0673 2.05801 12.7726 1.34626 12.2475 0.821199C11.7223 0.296134 11.0097 0.000744094 10.2664 0ZM10.2664 7.46634H2.7998C1.25342 7.46634 0 8.72009 0 10.2667C0 11.8128 1.25342 13.0666 2.7998 13.0666H10.2669C11.8128 13.0666 13.0667 11.8128 13.0667 10.2667C13.0667 8.72009 11.8128 7.46634 10.2664 7.46634Z" fill="#36C5F0"/>
<path d="M28.0002 10.2667C28.0002 8.72009 26.7464 7.46634 25.2 7.46634C23.6536 7.46634 22.4002 8.72009 22.4002 10.2667V13.0666H25.2C25.9433 13.0658 26.6559 12.7704 27.1811 12.2454C27.7062 11.7203 28.0009 11.0086 28.0002 10.2667ZM20.5337 10.2667V2.79988C20.5343 2.05801 20.2396 1.34626 19.7145 0.821199C19.1893 0.296134 18.4767 0.000744094 17.7334 0C16.187 0 14.9336 1.25375 14.9336 2.79988V10.2662C14.9336 11.8133 16.187 13.067 17.7334 13.067C18.4767 13.0663 19.1893 12.7709 19.7145 12.2458C20.2396 11.7208 20.5343 11.009 20.5337 10.2672" fill="#2EB67D"/>
<path d="M17.7334 27.9982C18.4767 27.9975 19.1893 27.7021 19.7145 27.177C20.2396 26.6519 20.5343 25.9402 20.5337 25.1983C20.5343 24.4565 20.2396 23.7447 19.7145 23.2196C19.1893 22.6946 18.4767 22.3992 17.7334 22.3984H14.9336V25.1983C14.9336 26.7445 16.187 27.9982 17.7334 27.9982ZM17.7334 20.5319H25.2005C26.7464 20.5319 28.0003 19.2781 28.0003 17.7315C28.0009 16.9896 27.7062 16.2779 27.1811 15.7528C26.6559 15.2278 25.9433 14.9324 25.2 14.9316H17.7334C16.187 14.9316 14.9336 16.1854 14.9336 17.7315C14.9332 18.0988 15.0054 18.4626 15.1459 18.8021C15.2864 19.1416 15.4925 19.4502 15.7525 19.7102C16.0125 19.9702 16.3212 20.1765 16.6611 20.3174C17.001 20.4583 17.3653 20.531 17.7334 20.5314" fill="#ECB22E"/>
<path d="M1.41271e-06 17.7315C-0.000368109 18.0988 0.0717577 18.4626 0.212261 18.8021C0.352764 19.1416 0.558892 19.4502 0.818878 19.7102C1.07886 19.9702 1.38761 20.1765 1.7275 20.3174C2.06739 20.4583 2.43175 20.531 2.7998 20.5314C3.54314 20.5307 4.25575 20.2353 4.78088 19.7102C5.30602 19.1851 5.60069 18.4734 5.60006 17.7315V14.9316H2.7998C1.25342 14.9316 1.41271e-06 16.1854 1.41271e-06 17.7315ZM7.4666 17.7315V25.1979C7.4666 26.7445 8.72001 27.9982 10.2664 27.9982C11.0097 27.9975 11.7223 27.7021 12.2475 27.177C12.7726 26.6519 13.0673 25.9402 13.0667 25.1983V17.7315C13.067 17.3642 12.9949 17.0003 12.8544 16.6608C12.7138 16.3213 12.5077 16.0127 12.2476 15.7527C11.9876 15.4927 11.6788 15.2864 11.3388 15.1455C10.9989 15.0046 10.6345 14.9319 10.2664 14.9316C8.72001 14.9316 7.4666 16.1854 7.4666 17.7315Z" fill="#E01E5A"/>
</svg>
