<svg width="36" height="36" viewBox="0 0 36 36" fill="none" xmlns="http://www.w3.org/2000/svg">
<path fill-rule="evenodd" clip-rule="evenodd" d="M18 0C8.064 0 0 8.064 0 18C0 27.936 8.064 36 18 36C27.936 36 36 27.936 36 18C36 8.064 27.936 0 18 0ZM18 31.248C10.656 31.248 4.752 25.344 4.752 18C4.752 10.656 10.656 4.752 18 4.752C25.344 4.752 31.248 10.656 31.248 18C31.248 25.344 25.344 31.248 18 31.248ZM22.4627 17.279C24.5305 17.279 26.2068 15.6028 26.2068 13.535C26.2068 11.4673 24.5305 9.79102 22.4627 9.79102C20.395 9.79102 18.7188 11.4673 18.7188 13.535C18.7188 15.6028 20.395 17.279 22.4627 17.279ZM26.2068 22.4647C26.2068 24.5325 24.5305 26.2087 22.4627 26.2087C20.395 26.2087 18.7188 24.5325 18.7188 22.4647C18.7188 20.3969 20.395 18.7207 22.4627 18.7207C24.5305 18.7207 26.2068 20.3969 26.2068 22.4647ZM13.537 26.2087C15.6047 26.2087 17.281 24.5325 17.281 22.4647C17.281 20.3969 15.6047 18.7207 13.537 18.7207C11.4692 18.7207 9.79297 20.3969 9.79297 22.4647C9.79297 24.5325 11.4692 26.2087 13.537 26.2087ZM17.281 13.535C17.281 15.6028 15.6047 17.279 13.537 17.279C11.4692 17.279 9.79297 15.6028 9.79297 13.535C9.79297 11.4673 11.4692 9.79102 13.537 9.79102C15.6047 9.79102 17.281 11.4673 17.281 13.535Z" fill="#F12E45"/>
</svg>
