<svg width="52" height="52" viewBox="0 0 52 52" fill="none" xmlns="http://www.w3.org/2000/svg">
<circle cx="26" cy="26" r="26" fill="white"/>
<path fill-rule="evenodd" clip-rule="evenodd" d="M26 8C16.064 8 8 16.064 8 26C8 35.936 16.064 44 26 44C35.936 44 44 35.936 44 26C44 16.064 35.936 8 26 8ZM26 39.248C18.656 39.248 12.752 33.344 12.752 26C12.752 18.656 18.656 12.752 26 12.752C33.344 12.752 39.248 18.656 39.248 26C39.248 33.344 33.344 39.248 26 39.248ZM30.4627 25.279C32.5305 25.279 34.2068 23.6028 34.2068 21.535C34.2068 19.4673 32.5305 17.791 30.4627 17.791C28.395 17.791 26.7188 19.4673 26.7188 21.535C26.7188 23.6028 28.395 25.279 30.4627 25.279ZM34.2068 30.4647C34.2068 32.5325 32.5305 34.2087 30.4627 34.2087C28.395 34.2087 26.7188 32.5325 26.7188 30.4647C26.7188 28.3969 28.395 26.7207 30.4627 26.7207C32.5305 26.7207 34.2068 28.3969 34.2068 30.4647ZM21.537 34.2087C23.6047 34.2087 25.281 32.5325 25.281 30.4647C25.281 28.3969 23.6047 26.7207 21.537 26.7207C19.4692 26.7207 17.793 28.3969 17.793 30.4647C17.793 32.5325 19.4692 34.2087 21.537 34.2087ZM25.281 21.535C25.281 23.6028 23.6047 25.279 21.537 25.279C19.4692 25.279 17.793 23.6028 17.793 21.535C17.793 19.4673 19.4692 17.791 21.537 17.791C23.6047 17.791 25.281 19.4673 25.281 21.535Z" fill="#F12E45"/>
</svg>
