<svg width="32" height="32" viewBox="0 0 32 32" fill="none" xmlns="http://www.w3.org/2000/svg">
<path d="M1.20894 10.1882C0.954371 10.2623 0.739634 10.4344 0.611933 10.6668C0.484232 10.8991 0.454019 11.1726 0.527937 11.4272L2.02194 16.5782C2.0585 16.7044 2.11956 16.8221 2.20161 16.9246C2.28367 17.0272 2.38512 17.1125 2.50018 17.1759C2.61523 17.2392 2.74163 17.2793 2.87217 17.2937C3.0027 17.3082 3.1348 17.2968 3.26094 17.2603L5.52694 16.6003L3.47494 9.53125L1.20894 10.1882Z" fill="black"/>
<path d="M31.554 9.40252L29.326 1.72452C29.2896 1.59788 29.2286 1.47969 29.1464 1.37672C29.0642 1.27375 28.9624 1.18804 28.847 1.12452C28.7321 1.0607 28.6056 1.0204 28.475 1.00598C28.3443 0.991555 28.2121 1.0033 28.086 1.04052L5.99501 7.45052C5.86887 7.48709 5.75117 7.54814 5.64863 7.6302C5.54609 7.71225 5.46072 7.81371 5.39739 7.92876C5.33405 8.04381 5.29401 8.17022 5.27953 8.30075C5.26505 8.43128 5.27643 8.56339 5.31301 8.68952L7.54201 16.3715C7.61587 16.626 7.78775 16.8408 8.01988 16.9687C8.25201 17.0966 8.52541 17.1271 8.78001 17.0535L11.209 16.3535C11.0772 15.915 11.0072 15.4603 11.001 15.0025C10.9975 13.8025 11.427 12.6414 12.2106 11.7325C12.9941 10.8235 14.0793 10.2277 15.2667 10.0544C16.4542 9.88101 17.6644 10.1418 18.6751 10.7887C19.6858 11.4357 20.4293 12.4256 20.769 13.5765L30.869 10.6465C30.996 10.6103 31.1145 10.5493 31.2178 10.467C31.321 10.3848 31.407 10.2829 31.4707 10.1672C31.5344 10.0516 31.5745 9.92446 31.5888 9.79321C31.6031 9.66196 31.5913 9.52917 31.554 9.40252Z" fill="black"/>
<path d="M24.8693 28.5019L18.2693 16.9459C18.7418 16.4002 19.0056 15.7048 19.014 14.9831C19.0224 14.2614 18.7748 13.56 18.3153 13.0035C17.8557 12.447 17.2138 12.0713 16.5035 11.9431C15.7932 11.8149 15.0605 11.9425 14.4353 12.3032C13.8102 12.6639 13.3331 13.2345 13.0886 13.9136C12.8442 14.5927 12.8482 15.3364 13.1001 16.0128C13.3519 16.6892 13.8353 17.2545 14.4643 17.6084C15.0934 17.9623 15.8275 18.0818 16.5363 17.9459L23.1363 29.4959C23.2232 29.6489 23.349 29.7762 23.5009 29.865C23.6527 29.9539 23.8254 30.0011 24.0013 30.0019C24.1751 30.0022 24.3458 29.9566 24.4963 29.8699C24.6109 29.8048 24.7115 29.7177 24.7923 29.6136C24.8731 29.5096 24.9325 29.3905 24.9672 29.2634C25.0019 29.1363 25.0111 29.0036 24.9943 28.8729C24.9775 28.7422 24.935 28.6161 24.8693 28.5019Z" fill="black"/>
<path d="M8.00038 30.0011C7.82495 30.0023 7.65238 29.9567 7.50038 29.8691C7.38623 29.8036 7.28613 29.7162 7.20582 29.612C7.1255 29.5077 7.06656 29.3886 7.03238 29.2615C6.99819 29.1344 6.98942 29.0018 7.00659 28.8713C7.02375 28.7409 7.0665 28.615 7.13238 28.5011L12.2754 19.5011C12.3388 19.3838 12.425 19.2804 12.5289 19.1969C12.6328 19.1134 12.7524 19.0516 12.8806 19.015C13.0088 18.9784 13.143 18.9678 13.2754 18.9838C13.4077 18.9998 13.5355 19.0422 13.6513 19.1083C13.767 19.1745 13.8684 19.2631 13.9494 19.369C14.0304 19.4748 14.0894 19.5959 14.1229 19.7249C14.1565 19.8539 14.1639 19.9883 14.1447 20.1203C14.1256 20.2522 14.0802 20.379 14.0114 20.4931L8.86838 29.4931C8.78147 29.6469 8.65536 29.7749 8.50289 29.8642C8.35043 29.9534 8.17704 30.0007 8.00038 30.0011Z" fill="black"/>
</svg>
