<svg width="32" height="32" viewBox="0 0 32 32" fill="none" xmlns="http://www.w3.org/2000/svg">
<path d="M29 1H3C1.346 1 0 2.346 0 4V23C0 24.654 1.346 26 3 26H12V29H9C8.448 29 8 29.448 8 30C8 30.552 8.448 31 9 31H23C23.552 31 24 30.552 24 30C24 29.448 23.552 29 23 29H20V26H29C30.654 26 32 24.654 32 23V4C32 2.346 30.654 1 29 1ZM30 20H2V4C2 3.449 2.449 3 3 3H29C29.551 3 30 3.449 30 4V20Z" fill="black"/>
<path d="M4.99997 17L9.94245 11.7308C10.3208 11.3274 10.9547 11.3077 11.3573 11.6869L16.2591 16.3024C16.6661 16.6857 17.3084 16.6607 17.6845 16.247L27 6" stroke="black" stroke-width="2" stroke-linecap="round"/>
</svg>
