<svg width="32" height="32" viewBox="0 0 32 32" fill="none" xmlns="http://www.w3.org/2000/svg">
<path d="M15 16.5742L3 9.57422V23.0002C3.00036 23.1754 3.04673 23.3474 3.13448 23.4991C3.22223 23.6507 3.34828 23.7766 3.5 23.8642L15 30.5752V16.5742Z" fill="black"/>
<path d="M16 14.8433L28 7.8433L16.5 1.1363C16.347 1.04704 16.1731 1 15.996 1C15.8189 1 15.645 1.04704 15.492 1.1363L4 7.8423L16 14.8433Z" fill="black"/>
<path d="M17 16.5752V30.5752L28.5 23.8642C28.6516 23.7767 28.7775 23.6509 28.8653 23.4995C28.953 23.348 28.9995 23.1762 29 23.0012V9.57617L17 16.5752Z" fill="black"/>
</svg>
