<svg width="54" height="17" viewBox="0 0 54 17" fill="none" xmlns="http://www.w3.org/2000/svg">
<path d="M3.17188 0.484375V16.4844H0.757813V0.484375H3.17188ZM8.17594 9.35937V16.4844H5.84V4.48437H8.08219V6.4375H8.23063C8.50667 5.80208 8.93896 5.29167 9.5275 4.90625C10.1213 4.52083 10.8686 4.32813 11.7697 4.32813C12.5874 4.32813 13.3035 4.5 13.9181 4.84375C14.5327 5.18229 15.0093 5.6875 15.3478 6.35937C15.6864 7.03125 15.8556 7.86198 15.8556 8.85156V16.4844H13.5197V9.13281C13.5197 8.26302 13.2931 7.58333 12.84 7.09375C12.3869 6.59896 11.7645 6.35156 10.9728 6.35156C10.4311 6.35156 9.94938 6.46875 9.5275 6.70312C9.11083 6.9375 8.7801 7.28125 8.53531 7.73437C8.29573 8.18229 8.17594 8.72396 8.17594 9.35937ZM18.5159 16.4844V0.484375H20.8519V6.42969H20.9925C21.1279 6.17969 21.3232 5.89062 21.5784 5.5625C21.8336 5.23437 22.1878 4.94792 22.6409 4.70312C23.0941 4.45312 23.693 4.32813 24.4378 4.32813C25.4066 4.32813 26.2711 4.57292 27.0316 5.0625C27.792 5.55208 28.3883 6.25781 28.8206 7.17969C29.2581 8.10156 29.4769 9.21094 29.4769 10.5078C29.4769 11.8047 29.2607 12.9167 28.8284 13.8437C28.3961 14.7656 27.8024 15.4766 27.0472 15.9766C26.292 16.4714 25.43 16.7188 24.4613 16.7188C23.7321 16.7188 23.1357 16.5964 22.6722 16.3516C22.2139 16.1068 21.8545 15.8203 21.5941 15.4922C21.3336 15.1641 21.1331 14.8724 20.9925 14.6172H20.7972V16.4844H18.5159ZM20.805 10.4844C20.805 11.3281 20.9274 12.0677 21.1722 12.7031C21.417 13.3385 21.7711 13.8359 22.2347 14.1953C22.6982 14.5495 23.2659 14.7266 23.9378 14.7266C24.6357 14.7266 25.2191 14.5417 25.6878 14.1719C26.1566 13.7969 26.5107 13.2891 26.7503 12.6484C26.9951 12.0078 27.1175 11.2865 27.1175 10.4844C27.1175 9.69271 26.9977 8.98177 26.7581 8.35156C26.5238 7.72135 26.1696 7.22396 25.6956 6.85938C25.2269 6.49479 24.6409 6.3125 23.9378 6.3125C23.2607 6.3125 22.6878 6.48698 22.2191 6.83594C21.7555 7.1849 21.404 7.67187 21.1644 8.29687C20.9248 8.92187 20.805 9.65104 20.805 10.4844ZM36.4946 16.7266C35.3696 16.7266 34.3878 16.4688 33.5493 15.9531C32.7108 15.4375 32.0597 14.7161 31.5962 13.7891C31.1326 12.862 30.9009 11.7786 30.9009 10.5391C30.9009 9.29427 31.1326 8.20573 31.5962 7.27344C32.0597 6.34115 32.7108 5.61719 33.5493 5.10156C34.3878 4.58594 35.3696 4.32813 36.4946 4.32813C37.6196 4.32813 38.6014 4.58594 39.4399 5.10156C40.2785 5.61719 40.9295 6.34115 41.393 7.27344C41.8566 8.20573 42.0884 9.29427 42.0884 10.5391C42.0884 11.7786 41.8566 12.862 41.393 13.7891C40.9295 14.7161 40.2785 15.4375 39.4399 15.9531C38.6014 16.4688 37.6196 16.7266 36.4946 16.7266ZM36.5024 14.7656C37.2316 14.7656 37.8358 14.5729 38.3149 14.1875C38.7941 13.8021 39.1483 13.2891 39.3774 12.6484C39.6118 12.0078 39.729 11.3021 39.729 10.5312C39.729 9.76562 39.6118 9.0625 39.3774 8.42187C39.1483 7.77604 38.7941 7.25781 38.3149 6.86719C37.8358 6.47656 37.2316 6.28125 36.5024 6.28125C35.768 6.28125 35.1587 6.47656 34.6743 6.86719C34.1951 7.25781 33.8384 7.77604 33.604 8.42187C33.3748 9.0625 33.2602 9.76562 33.2602 10.5312C33.2602 11.3021 33.3748 12.0078 33.604 12.6484C33.8384 13.2891 34.1951 13.8021 34.6743 14.1875C35.1587 14.5729 35.768 14.7656 36.5024 14.7656ZM45.4069 4.48437L48.0553 9.15625L50.7272 4.48437H53.2819L49.5397 10.4844L53.3131 16.4844H50.7584L48.0553 12L45.36 16.4844H42.7975L46.5319 10.4844L42.8444 4.48437H45.4069Z" fill="currentColor"/>
</svg>
