<svg xmlns="http://www.w3.org/2000/svg" width="20" height="21" viewBox="0 0 20 21" fill="none">
  <path fill-rule="evenodd" clip-rule="evenodd" d="M4.5 10.4844C4.5 11.5889 3.60457 12.4844 2.5 12.4844C1.39543 12.4844 0.5 11.5889 0.5 10.4844C0.5 9.37981 1.39543 8.48438 2.5 8.48438C3.60457 8.48438 4.5 9.37981 4.5 10.4844ZM12 10.4844C12 11.5889 11.1046 12.4844 10 12.4844C8.89543 12.4844 8 11.5889 8 10.4844C8 9.37981 8.89543 8.48438 10 8.48438C11.1046 8.48438 12 9.37981 12 10.4844ZM17.5 12.4844C18.6046 12.4844 19.5 11.5889 19.5 10.4844C19.5 9.37981 18.6046 8.48438 17.5 8.48438C16.3954 8.48438 15.5 9.37981 15.5 10.4844C15.5 11.5889 16.3954 12.4844 17.5 12.4844Z" fill="url(#gradient)"/>
  <defs>
    <linearGradient id="gradient" x1="10" y1="8.48438" x2="10" y2="12.4844" gradientUnits="userSpaceOnUse">
      <stop stop-color="currentColor"/>
      <stop offset="1" stop-color="currentColor" stop-opacity="0.6"/>
    </linearGradient>
  </defs>
</svg>
