<svg width="26" height="26" viewBox="0 0 26 26" fill="currentColor" xmlns="http://www.w3.org/2000/svg">
<g clip-path="url(#clip0_28530_862)">
<path d="M6.16078 11.0463C5.08622 11.0463 4.20703 11.9255 4.20703 13C4.20703 14.0746 5.08622 14.9538 6.16078 14.9538C7.23535 14.9538 8.11453 14.0746 8.11453 13C8.11453 11.9255 7.23535 11.0463 6.16078 11.0463ZM19.837 11.0463C18.7625 11.0463 17.8833 11.9255 17.8833 13C17.8833 14.0746 18.7625 14.9538 19.837 14.9538C20.9116 14.9538 21.7908 14.0746 21.7908 13C21.7908 11.9255 20.9116 11.0463 19.837 11.0463ZM12.9989 11.0463C11.9243 11.0463 11.0452 11.9255 11.0452 13C11.0452 14.0746 11.9243 14.9538 12.9989 14.9538C14.0735 14.9538 14.9527 14.0746 14.9527 13C14.9527 11.9255 14.0735 11.0463 12.9989 11.0463Z" fill="currentColor"/>
</g>
<defs>
<clipPath id="clip0_28530_862">
<rect width="26" height="26" fill="white"/>
</clipPath>
</defs>
</svg>
