<svg width="28" height="28" viewBox="0 0 28 28" fill="none" xmlns="http://www.w3.org/2000/svg">
<path d="M13.9991 3.25439L23.2794 8.62721V19.3728L13.9991 24.7457L4.71875 19.3728V8.62721L13.9991 3.25439ZM13.9991 5.51195L6.6725 9.75355V18.2465L13.9991 22.4881L21.3256 18.2465V9.75355L13.9991 5.51195ZM13.9991 17.9075C12.9627 17.9075 11.9688 17.4958 11.236 16.763C10.5032 16.0302 10.0916 15.0364 10.0916 14C10.0916 12.9637 10.5032 11.9698 11.236 11.237C11.9688 10.5042 12.9627 10.0925 13.9991 10.0925C15.0354 10.0925 16.0293 10.5042 16.7621 11.237C17.4949 11.9698 17.9066 12.9637 17.9066 14C17.9066 15.0364 17.4949 16.0302 16.7621 16.763C16.0293 17.4958 15.0354 17.9075 13.9991 17.9075ZM13.9991 15.9538C14.5172 15.9538 15.0142 15.7479 15.3806 15.3815C15.747 15.0151 15.9528 14.5182 15.9528 14C15.9528 13.4819 15.747 12.9849 15.3806 12.6185C15.0142 12.2521 14.5172 12.0463 13.9991 12.0463C13.4809 12.0463 12.984 12.2521 12.6176 12.6185C12.2512 12.9849 12.0453 13.4819 12.0453 14C12.0453 14.5182 12.2512 15.0151 12.6176 15.3815C12.984 15.7479 13.4809 15.9538 13.9991 15.9538Z" fill="currentColor"/>
</svg>
