<svg width="120" height="64" viewBox="0 0 120 64" fill="none" xmlns="http://www.w3.org/2000/svg">
<circle cx="32" cy="32" r="31.5" fill="#1A1A1A" stroke="white" stroke-dasharray="3 3"/>
<circle cx="40" cy="22" r="8" fill="#4D4D4D"/>
<path d="M17 15L24.1399 21.2474C24.5952 21.6458 24.5952 22.3542 24.1399 22.7526L17 29" stroke="#FFFF33" stroke-width="4" stroke-linecap="round"/>
<rect x="14" y="37" width="30" height="4" rx="2" fill="white"/>
<rect x="14" y="45" width="22" height="4" rx="2" fill="url(#paint0_linear_505_2749)"/>
<circle cx="88" cy="32" r="32" fill="white"/>
<path d="M101 17H75C73.346 17 72 18.346 72 20V39C72 40.654 73.346 42 75 42H84V45H81C80.448 45 80 45.448 80 46C80 46.552 80.448 47 81 47H95C95.552 47 96 46.552 96 46C96 45.448 95.552 45 95 45H92V42H101C102.654 42 104 40.654 104 39V20C104 18.346 102.654 17 101 17ZM102 36H74V20C74 19.449 74.449 19 75 19H101C101.551 19 102 19.449 102 20V36Z" fill="black"/>
<path d="M77 33L81.9425 27.7308C82.3208 27.3274 82.9547 27.3077 83.3574 27.6869L88.2591 32.3024C88.6662 32.6857 89.3084 32.6607 89.6846 32.247L99 22" stroke="black" stroke-width="2" stroke-linecap="round"/>
<defs>
<linearGradient id="paint0_linear_505_2749" x1="36" y1="45" x2="13.8201" y2="46.9061" gradientUnits="userSpaceOnUse">
<stop stop-color="#33FFFF"/>
<stop offset="0.462772" stop-color="white"/>
<stop offset="1" stop-color="#FF33BB"/>
</linearGradient>
</defs>
</svg>
