<svg width="120" height="64" viewBox="0 0 120 64" fill="none" xmlns="http://www.w3.org/2000/svg">
<circle cx="32" cy="32" r="31.5" fill="#1A1A1A" stroke="white" stroke-dasharray="3 3"/>
<rect x="14" y="16" width="36" height="2" rx="1" fill="#4D4D4D"/>
<circle cx="38" cy="17" r="4" fill="#FFE14D"/>
<rect x="14" y="26" width="36" height="2" rx="1" fill="#4D4D4D"/>
<circle cx="26" cy="27" r="4" fill="white"/>
<rect x="14" y="36" width="36" height="2" rx="1" fill="#4D4D4D"/>
<circle cx="38" cy="37" r="4" fill="url(#paint0_linear_505_2787)"/>
<circle cx="38" cy="37" r="4" fill="url(#paint1_linear_505_2787)"/>
<rect x="14" y="46" width="36" height="2" rx="1" fill="#4D4D4D"/>
<circle cx="26" cy="47" r="4" fill="#4D4D4D"/>
<circle cx="88" cy="32" r="32" fill="white"/>
<circle cx="87.9941" cy="26" r="7" fill="black" stroke="black" stroke-width="2"/>
<path d="M74.5 41.0579C74.5 40.681 74.6398 40.3575 74.8867 40.1574C76.2092 39.0856 80.2017 36.5 88 36.5C95.7983 36.5 99.7908 39.0856 101.113 40.1574C101.36 40.3575 101.5 40.681 101.5 41.0579V44C101.5 44.8284 100.828 45.5 100 45.5H76C75.1716 45.5 74.5 44.8284 74.5 44V41.0579Z" fill="black" stroke="black"/>
<defs>
<linearGradient id="paint0_linear_505_2787" x1="42" y1="33" x2="34" y2="41" gradientUnits="userSpaceOnUse">
<stop offset="0.210937" stop-color="#FFBB33"/>
<stop offset="0.539062" stop-color="#E300BD"/>
<stop offset="0.789062" stop-color="#FF006A"/>
</linearGradient>
<linearGradient id="paint1_linear_505_2787" x1="38" y1="33" x2="38" y2="41" gradientUnits="userSpaceOnUse">
<stop offset="0.546667" stop-opacity="0"/>
<stop offset="1" stop-opacity="0.3"/>
</linearGradient>
</defs>
</svg>
