<svg width="120" height="64" viewBox="0 0 120 64" fill="none" xmlns="http://www.w3.org/2000/svg">
<circle cx="32" cy="32" r="31.5" fill="#1A1A1A" stroke="white" stroke-dasharray="3 3"/>
<path d="M21 21H42C42.5523 21 43 21.4477 43 22V42C43 42.5523 42.5523 43 42 43H21" stroke="#4D4D4D" stroke-width="2" stroke-linecap="round"/>
<rect x="37" y="15" width="12" height="12" rx="1" fill="white"/>
<rect x="37" y="37" width="12" height="12" rx="1" fill="url(#paint0_linear_505_2813)"/>
<rect x="15" y="37" width="12" height="12" rx="1" fill="#4D4D4D"/>
<path d="M16 13V15.8889H19.2742V29H23V13H16Z" fill="#FFFF33"/>
<circle cx="88" cy="32" r="32" fill="white"/>
<circle cx="88" cy="32" r="18" fill="black"/>
<path d="M81 32.6774L84.8205 37.8535C85.2321 38.4113 86.0726 38.3911 86.4571 37.8144L95 25" stroke="white" stroke-width="3" stroke-linecap="round"/>
<defs>
<linearGradient id="paint0_linear_505_2813" x1="49" y1="37" x2="37" y2="49" gradientUnits="userSpaceOnUse">
<stop stop-color="#33FFFF"/>
<stop offset="0.462772" stop-color="white"/>
<stop offset="1" stop-color="#FF33BB"/>
</linearGradient>
</defs>
</svg>
