<svg width="120" height="64" viewBox="0 0 120 64" fill="none" xmlns="http://www.w3.org/2000/svg">
<circle cx="32" cy="32" r="31.5" fill="#1A1A1A" stroke="white" stroke-dasharray="3 3"/>
<path d="M30 22.452H23.0909L30 12H18.5594V14.548H24.9091L18 25H30V22.452Z" fill="#FFE14D"/>
<path d="M48 30.452H41.0909L48 20H36.5594V22.548H42.9091L36 33H48V30.452Z" fill="white"/>
<path d="M24 41.452H17.0909L24 31H12.5594V33.548H18.9091L12 44H24V41.452Z" fill="#4D4D4D"/>
<path d="M44 49.452H37.0909L44 39H32.5594V41.548H38.9091L32 52H44V49.452Z" fill="url(#paint0_linear_505_2731)"/>
<path d="M44 49.452H37.0909L44 39H32.5594V41.548H38.9091L32 52H44V49.452Z" fill="url(#paint1_linear_505_2731)"/>
<circle cx="88" cy="32" r="32" fill="white"/>
<circle cx="88" cy="32" r="18" fill="black"/>
<path d="M88 19V32.2664C88 32.5443 87.8844 32.8096 87.6809 32.9988L78 42" stroke="white" stroke-width="3" stroke-linecap="round"/>
<path d="M88 33L102 33" stroke="white" stroke-linecap="round"/>
<circle cx="88" cy="33" r="3.5" fill="black" stroke="white"/>
<defs>
<linearGradient id="paint0_linear_505_2731" x1="44" y1="39" x2="31.0415" y2="50.9617" gradientUnits="userSpaceOnUse">
<stop offset="0.242811" stop-color="#FFBB33"/>
<stop offset="0.740016" stop-color="#E300BD"/>
<stop offset="0.925719" stop-color="#FF006A"/>
</linearGradient>
<linearGradient id="paint1_linear_505_2731" x1="38" y1="39" x2="38" y2="52" gradientUnits="userSpaceOnUse">
<stop offset="0.653846" stop-opacity="0"/>
<stop offset="1" stop-opacity="0.3"/>
</linearGradient>
</defs>
</svg>
