<svg width="80" height="80" viewBox="0 0 80 80" fill="none" xmlns="http://www.w3.org/2000/svg">
<circle cx="40" cy="40" r="40" fill="#262626"/>
<g clip-path="url(#clip0_19903_30401)">
<path d="M47.211 25.4578C46.7679 23.8868 45.8239 22.5035 44.5224 21.5183C43.2209 20.5331 41.6333 20 40.001 20C38.3687 20 36.7811 20.5331 35.4796 21.5183C34.1782 22.5035 33.2341 23.8868 32.791 25.4578C35.0284 24.3342 37.4974 23.749 40.001 23.749C42.5047 23.749 44.9737 24.3342 47.211 25.4578Z" fill="#00D5FF"/>
<path d="M53.75 43.7507H58.75C59.0815 43.7507 59.3995 43.619 59.6339 43.3846C59.8683 43.1502 60 42.8322 60 42.5007C60 42.1692 59.8683 41.8513 59.6339 41.6168C59.3995 41.3824 59.0815 41.2507 58.75 41.2507H53.75V40.0007C53.7471 38.732 53.5675 37.4699 53.2163 36.2507H53.75C55.407 36.2487 56.9956 35.5896 58.1672 34.418C59.3389 33.2463 59.998 31.6577 60 30.0007C60 29.6692 59.8683 29.3513 59.6339 29.1168C59.3995 28.8824 59.0815 28.7507 58.75 28.7507C58.4185 28.7507 58.1005 28.8824 57.8661 29.1168C57.6317 29.3513 57.5 29.6692 57.5 30.0007C57.5 30.9953 57.1049 31.9491 56.4016 32.6524C55.6984 33.3556 54.7446 33.7507 53.75 33.7507H52.2325C51.084 31.4936 49.3335 29.5983 47.1745 28.2745C45.0156 26.9507 42.5325 26.25 40 26.25C37.4675 26.25 34.9844 26.9507 32.8255 28.2745C30.6665 29.5983 28.916 31.4936 27.7675 33.7507H26.25C25.2554 33.7507 24.3016 33.3556 23.5983 32.6524C22.8951 31.9491 22.5 30.9953 22.5 30.0007C22.5 29.6692 22.3683 29.3513 22.1339 29.1168C21.8995 28.8824 21.5815 28.7507 21.25 28.7507C20.9185 28.7507 20.6005 28.8824 20.3661 29.1168C20.1317 29.3513 20 29.6692 20 30.0007C20.002 31.6577 20.6611 33.2463 21.8328 34.418C23.0044 35.5896 24.593 36.2487 26.25 36.2507H26.7825C26.4323 37.4701 26.2531 38.7321 26.25 40.0007V41.2507H21.25C20.9185 41.2507 20.6005 41.3824 20.3661 41.6168C20.1317 41.8513 20 42.1692 20 42.5007C20 42.8322 20.1317 43.1502 20.3661 43.3846C20.6005 43.619 20.9185 43.7507 21.25 43.7507H26.25V46.2507C26.2531 47.0896 26.333 47.9264 26.4887 48.7507H26.25C24.593 48.7527 23.0044 49.4118 21.8328 50.5835C20.6611 51.7552 20.002 53.3437 20 55.0007C20 55.3322 20.1317 55.6502 20.3661 55.8846C20.6005 56.119 20.9185 56.2507 21.25 56.2507C21.5815 56.2507 21.8995 56.119 22.1339 55.8846C22.3683 55.6502 22.5 55.3322 22.5 55.0007C22.5 54.0062 22.8951 53.0523 23.5983 52.3491C24.3016 51.6458 25.2554 51.2507 26.25 51.2507H27.205C28.2082 53.8283 29.9665 56.0427 32.2496 57.604C34.5327 59.1653 37.2341 60.0007 40 60.0007C42.7659 60.0007 45.4673 59.1653 47.7504 57.604C50.0335 56.0427 51.7918 53.8283 52.795 51.2507H53.75C54.7446 51.2507 55.6984 51.6458 56.4016 52.3491C57.1049 53.0523 57.5 54.0062 57.5 55.0007C57.5 55.3322 57.6317 55.6502 57.8661 55.8846C58.1005 56.119 58.4185 56.2507 58.75 56.2507C59.0815 56.2507 59.3995 56.119 59.6339 55.8846C59.8683 55.6502 60 55.3322 60 55.0007C59.998 53.3437 59.3389 51.7552 58.1672 50.5835C56.9956 49.4118 55.407 48.7527 53.75 48.7507H53.5112C53.667 47.9264 53.7469 47.0896 53.75 46.2507V43.7507Z" fill="#00D5FF"/>
</g>
<defs>
<clipPath id="clip0_19903_30401">
<rect width="40" height="40" fill="white" transform="translate(20 20)"/>
</clipPath>
</defs>
</svg>
