<svg width="80" height="80" viewBox="0 0 80 80" fill="none" xmlns="http://www.w3.org/2000/svg">
<circle cx="40" cy="40" r="40" fill="#262626"/>
<path d="M36.0938 42.0977H43.4844C43.9943 42.0977 44.4082 42.5115 44.4082 43.0215V59.6503C44.4082 60.1603 43.9943 60.5742 43.4844 60.5742H36.0938C35.5838 60.5742 35.17 60.1603 35.17 59.6503V43.0215C35.17 42.5115 35.5838 42.0977 36.0938 42.0977Z" fill="#F53DD6"/>
<path d="M51.8028 51.332H59.1934C59.7033 51.332 60.1172 51.7459 60.1172 52.2559V59.6465C60.1172 60.1564 59.7033 60.5703 59.1934 60.5703H51.8028C51.2928 60.5703 50.8789 60.1564 50.8789 59.6465V52.2559C50.8789 51.7459 51.2928 51.332 51.8028 51.332Z" fill="#F53DD6"/>
<path d="M20.3926 32.8594H27.7832C28.2932 32.8594 28.707 33.2732 28.707 33.7832V59.6503C28.707 60.1603 28.2932 60.5741 27.7832 60.5741H20.3926C19.8827 60.5741 19.4688 60.1603 19.4688 59.6503V33.7832C19.4688 33.2732 19.8827 32.8594 20.3926 32.8594Z" fill="#F53DD6"/>
<path d="M44.7887 22.5989L56.1452 33.9554V27.8711C56.1452 27.3612 56.5591 26.9473 57.0691 26.9473C57.579 26.9473 57.9929 27.3612 57.9929 27.8711V36.1855C57.9929 36.6955 57.579 37.1094 57.0691 37.1094H48.7546C48.2447 37.1094 47.8308 36.6955 47.8308 36.1855C47.8308 35.6756 48.2447 35.2617 48.7546 35.2617H54.839L44.1355 24.5583L37.3981 31.2957C37.0368 31.657 36.453 31.657 36.0918 31.2957L26.8535 22.0575L28.1598 20.7512L36.7449 29.3363L43.4824 22.5989C43.8436 22.2376 44.4274 22.2376 44.7887 22.5989Z" fill="#F53DD6"/>
</svg>
