<svg width="15" height="14" viewBox="0 0 15 14" fill="none" xmlns="http://www.w3.org/2000/svg">
<path d="M13.6562 7C13.6562 10.2619 11.0119 12.9062 7.75 12.9062C4.48806 12.9062 1.84375 10.2619 1.84375 7C1.84375 3.73806 4.48806 1.09375 7.75 1.09375C11.0119 1.09375 13.6562 3.73806 13.6562 7ZM7.06683 10.1273L11.4489 5.74526C11.5977 5.59646 11.5977 5.35518 11.4489 5.20638L10.91 4.66751C10.7612 4.51868 10.5199 4.51868 10.3711 4.66751L6.79738 8.24122L5.12889 6.57273C4.98009 6.42393 4.73881 6.42393 4.58999 6.57273L4.05112 7.1116C3.90232 7.2604 3.90232 7.50167 4.05112 7.65047L6.52793 10.1273C6.67675 10.2761 6.918 10.2761 7.06683 10.1273Z" fill="currentColor"/>
</svg>
