<svg width="80" height="80" viewBox="0 0 80 80" fill="none" xmlns="http://www.w3.org/2000/svg">
<mask id="mask0_25353_1841" style="mask-type:alpha" maskUnits="userSpaceOnUse" x="0" y="-1" width="80" height="81">
<path fill-rule="evenodd" clip-rule="evenodd" d="M40.1274 62.1377V77.7824C35.4734 75.7764 11 64.6229 11 48.655V14.3922L40.1274 2.99805V13.679L40.1243 13.6699L39.3219 16.3179H36.5938L38.7603 17.9227L37.9578 20.4904L40.1243 18.8856L40.1274 18.8877V38.1194C40.0768 37.7745 39.9994 37.4378 39.8872 37.1011C39.6465 36.3789 39.3255 35.8172 38.8441 35.2555C38.2824 34.6938 37.7207 34.2926 36.9183 33.9717C36.1961 33.6507 35.2332 33.4902 34.1099 33.4902V33.5705H30.9805V45.6066H33.9494C34.7518 45.6066 35.3937 45.5263 36.0356 45.3659C36.6776 45.2054 37.159 44.9647 37.6405 44.7239C38.1219 44.4832 38.5231 44.1622 38.8441 43.761C39.165 43.3598 39.4057 42.9586 39.6465 42.4772C39.8069 41.9958 39.9674 41.4341 40.0477 40.9526C40.0753 40.7866 40.103 40.6111 40.1274 40.4293V56.929L40.1243 56.9199L39.3219 59.5679H36.5938L38.7603 61.1727L37.9578 63.7404L40.1243 62.1356L40.1274 62.1377ZM40.1289 62.1388V77.7824C44.7829 75.7764 69.2563 64.6229 69.2563 48.655V14.3922L40.1289 2.99805V13.6836L41.007 16.3179H43.7352L41.5687 17.9227L42.3711 20.4904L40.1289 18.8888V38.1298C40.1857 38.5213 40.2082 38.9233 40.2082 39.3478C40.2082 39.7118 40.1745 40.0757 40.1289 40.4179V56.9336L41.007 59.5679H43.7352L41.5687 61.1727L42.3711 63.7404L40.1289 62.1388ZM28.9748 44.8045C28.734 44.965 28.4131 45.1255 28.0921 45.2057C27.7711 45.3662 27.4502 45.4464 27.1292 45.5267C26.8083 45.6069 26.4071 45.6871 25.9256 45.7674C25.5244 45.8476 24.9627 45.8476 24.4813 45.8476C23.8393 45.8476 23.3579 45.7674 22.7962 45.6069C22.3148 45.4464 21.8333 45.2057 21.5124 44.965C21.1914 44.7243 20.7902 44.3231 20.5495 43.9219C20.2945 43.6032 20.1408 43.2845 19.9677 42.9255L19.9677 42.9254C19.9229 42.8325 19.8768 42.737 19.8273 42.638C19.5866 42.1566 19.5063 41.6751 19.4261 41.1937C19.3459 40.7122 19.2656 40.1505 19.2656 39.6691C19.2656 39.1074 19.3459 38.5457 19.4261 38.0643C19.5063 37.5026 19.6668 37.0212 19.9076 36.5397C20.1483 36.0583 20.389 35.6571 20.71 35.2559C21.0309 34.8547 21.3519 34.5337 21.7531 34.2127C22.1543 33.8918 22.6357 33.7313 23.1172 33.5708C23.5986 33.4103 24.1603 33.3301 24.722 33.3301H25.5244C25.6569 33.3301 25.7894 33.3544 25.9086 33.3763C26.0058 33.3941 26.0942 33.4103 26.1663 33.4103C26.407 33.4103 26.5675 33.4906 26.728 33.5708C26.8083 33.6109 26.9086 33.651 27.0089 33.6912C27.1092 33.7313 27.2095 33.7714 27.2897 33.8115C27.4502 33.8918 27.6909 34.0522 27.8514 34.2127C28.0119 34.3732 28.2526 34.5337 28.4933 34.6942L27.3699 36.2188L27.3699 36.2187C27.1292 35.978 26.8885 35.7373 26.6478 35.5768C26.4071 35.4163 26.1663 35.2559 26.0058 35.1756C25.7651 35.0954 25.5244 35.0151 25.2837 35.0151C25.172 35.0151 25.0603 34.9979 24.9405 34.9793L24.9405 34.9793C24.8022 34.9579 24.6533 34.9349 24.4813 34.9349C23.9998 34.9349 23.5184 35.0151 23.1172 35.2559C22.716 35.4966 22.395 35.8175 22.1543 36.2188C21.9136 36.62 21.6728 37.1014 21.5124 37.5828C21.3519 38.0643 21.2716 38.7062 21.2716 39.3481C21.2716 39.9901 21.3519 40.632 21.4321 41.1937C21.5124 41.7554 21.7531 42.317 21.9938 42.7182C22.2345 43.1194 22.5555 43.5206 23.0369 43.7614C23.4381 44.0021 23.9196 44.1626 24.5615 44.1626H25.043C25.2034 44.1626 25.4442 44.1626 25.6046 44.0823C25.6849 44.0823 25.7852 44.0623 25.8855 44.0422C25.9858 44.0222 26.0861 44.0021 26.1663 44.0021C26.2466 44.0021 26.3268 43.982 26.4071 43.962L26.4071 43.962C26.4873 43.9419 26.5676 43.9219 26.6478 43.9219V39.8296H28.734V44.8045H28.9748ZM33.2272 35.095V44.0018H33.8691C34.4308 44.0018 34.9925 43.9215 35.5542 43.6808C36.0356 43.5203 36.5171 43.1994 36.838 42.7982C37.2392 42.397 37.48 41.9155 37.7207 41.3538C37.9614 40.7921 38.0417 40.07 38.0417 39.2676C38.0417 38.7059 37.9614 38.2244 37.8009 37.6628C37.6404 37.1813 37.3997 36.6999 37.0788 36.2987C36.7578 35.8975 36.3566 35.5765 35.8752 35.3358C35.3937 35.095 34.7518 34.9346 34.0296 34.9346H33.2272V35.095ZM44.4613 45.6084V40.9544V40.8742H45.4241C46.1463 40.8742 46.708 40.8742 47.1894 40.7137C47.6709 40.5532 48.0721 40.3927 48.4733 40.152C48.8745 39.9113 49.1152 39.6706 49.3559 39.4298C49.5967 39.1891 49.7571 38.9484 49.9176 38.6274C49.9577 38.5071 49.9979 38.3667 50.038 38.2262C50.0781 38.0858 50.1182 37.9454 50.1583 37.825C50.2386 37.5041 50.2386 37.2633 50.2386 37.1029C50.2386 36.5412 50.1584 36.0597 49.9979 35.6585C49.8374 35.2573 49.5967 34.8561 49.1955 34.5352C48.8745 34.2142 48.3931 33.9735 47.8314 33.813C47.2697 33.6525 46.6278 33.5723 45.8253 33.5723H42.375V45.6084H44.4613ZM45.5044 39.3496H44.4613V35.0166H45.5044C45.9858 35.0166 46.387 35.0968 46.708 35.1771C47.029 35.3376 47.3499 35.498 47.5104 35.6585C47.6709 35.819 47.8314 36.0597 47.9116 36.3005C47.9919 36.5412 48.0721 36.7819 48.0721 37.1029C48.0721 37.5041 48.0721 37.825 47.9116 38.0657C47.7511 38.3867 47.5906 38.6274 47.3499 38.7879C47.1092 38.9484 46.8685 39.1089 46.5475 39.1891C46.2266 39.2694 45.9056 39.3496 45.5044 39.3496ZM54.1722 45.6084H52.0859V33.5723H55.5363C56.3387 33.5723 56.9806 33.6525 57.5423 33.813C58.104 33.9735 58.5854 34.2142 58.9064 34.4549C59.3076 34.7759 59.5483 35.0968 59.7088 35.498C59.8693 35.8992 59.9495 36.3807 59.9495 36.8621C59.9495 37.1831 59.8693 37.5843 59.789 37.9053C59.7088 38.2262 59.5483 38.6274 59.3076 38.9484L59.3076 38.9484C59.0669 39.2694 58.8261 39.5903 58.425 39.831C58.0238 40.0718 57.6225 40.3125 57.0609 40.473L60.7519 45.6084H58.3447L55.1351 40.7137H54.7339C54.5734 40.7137 54.4129 40.7137 54.1722 40.6335V45.6084ZM54.2524 39.0286H54.6536H55.1351C55.5363 39.0286 55.9375 38.9484 56.2585 38.8682C56.5794 38.7879 56.9004 38.6274 57.1411 38.4669C57.3817 38.3066 57.5421 38.0659 57.7025 37.8253L57.7025 37.8253L57.7026 37.8253L57.7026 37.8252L57.7026 37.8252L57.7026 37.8252L57.7027 37.8252L57.7027 37.8251L57.7027 37.8251L57.7027 37.8251L57.7027 37.8251L57.7028 37.8251L57.7028 37.825C57.8633 37.5843 57.8633 37.2633 57.8633 36.9424C57.8633 36.6214 57.783 36.3004 57.7028 36.0597C57.6226 35.819 57.4621 35.6585 57.3016 35.4981L57.3016 35.498C57.1411 35.3376 56.8201 35.2573 56.4992 35.1771C56.1782 35.0968 55.6968 35.0968 55.2153 35.0968H54.2524V39.0286ZM49.5132 16.2363L50.3958 18.804H53.124L50.8773 20.4088L51.7599 23.0568L49.5132 21.452L47.3467 23.0568L48.1491 20.4088L45.9023 18.804H48.7108L49.5132 16.2363ZM58.1007 25.6243L57.2983 23.0566L56.4157 25.6243H53.6875L55.9342 27.2292L55.0516 29.8771L57.2983 28.2723L59.4648 29.8771L58.6624 27.2292L60.8289 25.6243H58.1007ZM50.3958 57.2415L49.5132 54.6738L48.7108 57.2415H45.9023L48.1491 58.8463L47.3467 61.4943L49.5132 59.8895L51.7599 61.4943L50.8773 58.8463L53.124 57.2415H50.3958ZM57.2983 49.0566L58.1007 51.7046H60.8289L58.6624 53.3094L59.4648 55.8771L57.2983 54.2723L55.0516 55.8771L55.9342 53.3094L53.6875 51.7046H56.4157L57.2983 49.0566ZM29.9352 18.804L30.8179 16.2363L31.6203 18.804H34.3485L32.182 20.4088L32.9844 23.0568L30.8179 21.452L28.5711 23.0568L29.4538 20.4088L27.207 18.804H29.9352ZM23.0345 23.0566L22.2321 25.6243H19.5039L21.6704 27.2292L20.868 29.8771L23.0345 28.2723L25.2812 29.8771L24.3986 27.2292L26.6453 25.6243H23.9171L23.0345 23.0566ZM29.9352 57.2415L30.8179 54.6738L31.6203 57.2415H34.3485L32.182 58.8463L32.9844 61.4943L30.8179 59.8895L28.5711 61.4943L29.4538 58.8463L27.207 57.2415H29.9352ZM23.0345 49.0566L22.2321 51.7046H19.5039L21.6704 53.3094L20.868 55.8771L23.0345 54.2723L25.2812 55.8771L24.3986 53.3094L26.6453 51.7046H23.9171L23.0345 49.0566Z" fill="url(#paint0_linear_25353_1841)"/>
</mask>
<g mask="url(#mask0_25353_1841)">
<rect x="-566" width="636" height="79" fill="url(#paint1_linear_25353_1841)"/>
<g filter="url(#filter0_f_25353_1841)">
<ellipse cx="31.2711" cy="130.703" rx="220" ry="76.5" transform="rotate(-6.85284 31.2711 130.703)" fill="#DB75F5" fill-opacity="0.7"/>
</g>
</g>
<defs>
<filter id="filter0_f_25353_1841" x="-487.352" y="-249.68" width="1037.25" height="760.766" filterUnits="userSpaceOnUse" color-interpolation-filters="sRGB">
<feFlood flood-opacity="0" result="BackgroundImageFix"/>
<feBlend mode="normal" in="SourceGraphic" in2="BackgroundImageFix" result="shape"/>
<feGaussianBlur stdDeviation="150" result="effect1_foregroundBlur_25353_1841"/>
</filter>
<linearGradient id="paint0_linear_25353_1841" x1="25.5637" y1="2.99805" x2="25.5637" y2="77.7824" gradientUnits="userSpaceOnUse">
<stop stop-color="white"/>
<stop offset="1" stop-color="white" stop-opacity="0.6"/>
</linearGradient>
<linearGradient id="paint1_linear_25353_1841" x1="-248" y1="0" x2="-248" y2="79" gradientUnits="userSpaceOnUse">
<stop stop-color="white"/>
<stop offset="1" stop-color="white" stop-opacity="0.4"/>
</linearGradient>
</defs>
</svg>
