<svg width="80" height="80" viewBox="0 0 80 80" fill="none" xmlns="http://www.w3.org/2000/svg">
<g clip-path="url(#clip0_24448_18460)">
<path fill-rule="evenodd" clip-rule="evenodd" d="M64.7299 22.4304H67.0979C57.4019 7.19843 37.1859 2.70243 21.9459 12.4064C17.9139 14.9744 14.4899 18.3984 11.9219 22.4304H14.2899C15.7939 20.2864 17.5619 18.3344 19.5619 16.6304C22.8979 17.5344 26.2979 18.1744 29.7379 18.5504C29.3299 19.7744 28.9539 21.0784 28.6259 22.4304H30.6339C30.9699 21.1184 31.3379 19.8864 31.7379 18.7504C34.3379 18.9824 37.0179 19.1104 39.7299 19.1104C42.3299 19.1104 44.8659 18.9984 47.3299 18.7984C47.7219 19.9184 48.0819 21.1424 48.4179 22.4304H50.4019C50.0739 21.0944 49.7059 19.8144 49.3059 18.6064C52.7699 18.2464 56.1939 17.6144 59.5619 16.7184C61.5139 18.4064 63.2499 20.3184 64.7299 22.4304ZM30.4179 16.6624C27.4099 16.3504 24.4259 15.8304 21.4819 15.1184C25.4179 12.2384 29.9619 10.3184 34.7619 9.49442C33.2019 11.0784 31.6179 13.5984 30.4179 16.6624ZM39.7139 17.1584C37.2499 17.1584 34.8179 17.0544 32.4499 16.8544C34.4659 12.0224 37.0259 9.11042 39.5059 9.11042C41.9939 9.11042 44.5619 12.0304 46.5779 16.8864C44.3379 17.0624 42.0339 17.1584 39.7139 17.1584ZM48.6179 16.7024C47.4099 13.6224 45.8259 11.0864 44.2579 9.49442C49.1059 10.3264 53.6899 12.2784 57.6419 15.1904C54.6739 15.8944 51.6579 16.3984 48.6179 16.7024ZM46.605 34.2701V25.7501H39.757C37.653 25.4541 35.541 25.2861 33.413 25.2461C25.525 25.2461 20.125 28.1341 20.125 34.5101C20.125 42.2984 27.0888 43.1475 32.3746 43.792C35.6077 44.1862 38.213 44.5039 38.213 46.2861C38.213 47.7261 36.773 48.5341 33.213 48.5341C30.525 48.5341 28.181 47.9661 27.173 47.4301V45.6141H20.325V54.1341H27.173C29.397 54.4301 31.637 54.5981 33.885 54.6381C44.253 54.6381 47.709 50.4141 47.709 45.2461C47.709 37.6035 40.8627 36.7922 35.5553 36.1633C32.1959 35.7652 29.453 35.4402 29.453 33.5021C29.453 32.2941 30.693 31.3581 33.885 31.3581C36.365 31.3581 38.749 31.9261 39.757 32.4621V34.2781L46.605 34.2701ZM48.3939 57.5665C48.0579 58.8785 47.6899 60.1105 47.2899 61.2465C44.6899 61.0145 42.0099 60.8865 39.3059 60.8865C36.7059 60.8865 34.1699 60.9985 31.7059 61.1985C31.3139 60.0785 30.9539 58.8545 30.6179 57.5665H28.6099C28.9379 58.9025 29.3059 60.1825 29.7059 61.3905C26.2419 61.7505 22.8099 62.3825 19.4499 63.2785C17.4979 61.5985 15.7619 59.6785 14.2819 57.5665H11.9219C21.6179 72.7985 41.8339 77.2945 57.0739 67.5905C61.1139 65.0225 64.5379 61.5985 67.1059 57.5585H64.7379C63.2339 59.7025 61.4659 61.6545 59.4659 63.3585C56.1299 62.4545 52.7299 61.8145 49.2899 61.4385C49.6979 60.2145 50.0739 58.9105 50.4019 57.5585L48.3939 57.5665ZM21.3779 64.8065C24.3459 64.1025 27.3619 63.5985 30.4019 63.2945C31.6099 66.3745 33.1939 68.9105 34.7619 70.5025C29.9219 69.6705 25.3379 67.7265 21.3779 64.8065ZM39.5139 70.8865C37.0259 70.8865 34.4579 67.9665 32.4419 63.1105C34.6899 62.9345 36.9939 62.8385 39.3139 62.8385C41.7779 62.8385 44.2099 62.9425 46.5779 63.1425C44.5539 67.9745 41.9859 70.8865 39.5139 70.8865ZM57.5379 64.8785C53.6019 67.7585 49.0579 69.6785 44.2579 70.5025C45.8179 68.9185 47.4019 66.3985 48.6019 63.3345C51.6179 63.6465 54.6019 64.1665 57.5379 64.8785ZM0 54.1887V47.1407H4.592V32.8527H0V25.8047H18.288V32.8527H13.688V47.1407H18.288V54.1887H0ZM48.9297 39.9421C48.9297 30.5101 55.4017 25.2461 64.4657 25.2461C73.5217 25.2461 80.0017 30.5181 80.0017 39.9421C80.0017 49.3661 73.5217 54.6381 64.4657 54.6381C55.4097 54.6381 48.9297 49.3741 48.9297 39.9421ZM58.5937 39.9421C58.5937 45.6781 60.8737 47.9581 64.4657 47.9581C68.0577 47.9581 70.3377 45.6781 70.3377 39.9421C70.3377 34.2061 68.0577 31.9261 64.4657 31.9261C60.8737 31.9261 58.5937 34.2061 58.5937 39.9421Z" fill="url(#paint0_linear_24448_18460)"/>
</g>
<defs>
<linearGradient id="paint0_linear_24448_18460" x1="40.0008" y1="7.28516" x2="40.0008" y2="72.7117" gradientUnits="userSpaceOnUse">
<stop stop-color="white"/>
<stop offset="1" stop-color="white" stop-opacity="0.6"/>
</linearGradient>
<clipPath id="clip0_24448_18460">
<rect width="80" height="80" fill="white"/>
</clipPath>
</defs>
</svg>
