<svg width="40" height="40" viewBox="0 0 40 40" fill="none" xmlns="http://www.w3.org/2000/svg">
<circle cx="20" cy="20" r="20" fill="url(#paint0_linear_18141_15334)"/>
<path d="M30.2571 13.0485L27.5112 15.7944L24.2071 12.4899L26.9539 9.74411C26.2903 9.5472 25.5971 9.46842 24.9062 9.5114C24.1444 9.585 23.4087 9.82746 22.7524 10.2212C22.0961 10.6148 21.5358 11.1499 21.1123 11.7873C20.6888 12.4247 20.4127 13.1485 20.3041 13.9061C20.1954 14.6636 20.257 15.4359 20.4844 16.1666L11.5481 24.0786C11.2308 24.3585 10.9742 24.7004 10.7942 25.0832C10.6142 25.4661 10.5146 25.8818 10.5015 26.3047C10.4884 26.7276 10.5621 27.1486 10.7181 27.5419C10.8742 27.9351 11.1091 28.2923 11.4085 28.5912C11.7076 28.8907 12.0648 29.1257 12.4583 29.2818C12.8517 29.4378 13.2729 29.5116 13.696 29.4985C14.119 29.4854 14.5349 29.3858 14.918 29.2057C15.301 29.0257 15.6431 28.769 15.923 28.4516L23.8348 19.5174C24.679 19.7761 25.5738 19.824 26.4408 19.6569C27.3576 19.4739 28.2068 19.0431 28.896 18.4113C29.5852 17.7796 30.088 16.971 30.3498 16.0734C30.5777 15.0738 30.5458 14.0324 30.2571 13.0485Z" fill="black"/>
<defs>
<linearGradient id="paint0_linear_18141_15334" x1="20" y1="0" x2="20" y2="40" gradientUnits="userSpaceOnUse">
<stop stop-color="white"/>
<stop offset="1" stop-color="white" stop-opacity="0.6"/>
</linearGradient>
</defs>
</svg>
