<svg width="40" height="40" viewBox="0 0 40 40" fill="none" xmlns="http://www.w3.org/2000/svg">
<circle cx="20" cy="20" r="20" fill="url(#paint0_linear_18141_15321)"/>
<path fill-rule="evenodd" clip-rule="evenodd" d="M20 26.25C22.8116 26.25 25.0909 23.8016 25.0909 20.7812V13.9688C25.0909 10.9484 22.8116 8.5 20 8.5C17.1884 8.5 14.9091 10.9484 14.9091 13.9688V20.7812C14.9091 23.8016 17.1884 26.25 20 26.25ZM27.8118 23.187C27.9321 22.7517 27.5875 22.3438 27.136 22.3438C26.7917 22.3438 26.4984 22.5861 26.3986 22.9156C25.5388 25.7547 22.9214 27.8125 20 27.8125C17.0786 27.8125 14.4612 25.7547 13.6014 22.9156C13.5016 22.5861 13.2083 22.3438 12.864 22.3438C12.4125 22.3438 12.0679 22.7517 12.1882 23.187C13.1096 26.5208 15.9563 29.0187 19.2727 29.3398V30.9375H18.5455C18.144 30.9375 17.8182 31.2875 17.8182 31.7188C17.8182 32.1508 18.144 32.5 18.5455 32.5H21.4545C21.856 32.5 22.1818 32.1508 22.1818 31.7188C22.1818 31.2875 21.856 30.9375 21.4545 30.9375H20.7273V29.3398C24.0437 29.0187 26.8904 26.5208 27.8118 23.187Z" fill="black"/>
<defs>
<linearGradient id="paint0_linear_18141_15321" x1="20" y1="0" x2="20" y2="40" gradientUnits="userSpaceOnUse">
<stop stop-color="white"/>
<stop offset="1" stop-color="white" stop-opacity="0.6"/>
</linearGradient>
</defs>
</svg>
