<svg width="40" height="40" viewBox="0 0 40 40" fill="none" xmlns="http://www.w3.org/2000/svg">
<circle cx="20" cy="20" r="20" fill="url(#paint0_linear_18141_15294)"/>
<path d="M29.9859 28.7431C29.9859 28.7431 29.9749 28.6757 29.9543 28.5448C29.9351 28.4148 29.8972 28.2192 29.8329 27.9628C29.6938 27.4656 29.4517 26.6431 28.6757 25.8402C28.2946 25.4466 27.7795 25.0998 27.2036 24.8732C26.6271 24.6418 25.9979 24.5208 25.3585 24.4819C24.0748 24.4035 22.7366 24.6207 21.3587 24.9592C21.266 24.9818 21.1711 25.0101 21.0776 25.0342C21.2674 24.8461 21.4562 24.6591 21.6497 24.4672C22.2612 23.8569 22.886 23.2384 23.5184 22.5319C23.8371 22.164 24.1487 21.8243 24.4942 21.2683C24.578 21.1334 24.6733 20.9581 24.7653 20.7262L24.8349 20.511L24.865 20.4017C24.8761 20.3602 24.8967 20.2286 24.9026 20.1412C24.9184 19.9452 24.904 19.7401 24.8661 19.555L24.8371 19.4318L24.8319 19.4114C24.8731 19.4985 24.5703 18.7781 24.6237 18.9651C24.5254 18.8169 24.3819 18.6658 24.2627 18.5761C24.1597 18.4988 24.0453 18.4302 23.9272 18.3767C23.7874 18.3133 23.7565 18.3122 23.6678 18.2854C23.5957 18.2658 23.5063 18.2477 23.4463 18.2394L23.2995 18.2259C23.1902 18.2183 23.1192 18.2206 23.0559 18.2236C22.78 18.2383 22.6225 18.2749 22.4636 18.3084C21.8675 18.4505 21.4389 18.6149 20.9856 18.7823C20.5415 18.9504 20.1136 19.1242 19.6898 19.3006C18.8564 19.6542 18.0198 20.0097 17.1835 20.3647C15.9075 20.9053 14.6301 21.444 13.3927 21.8888C14.0108 21.2917 14.6602 20.7108 15.2846 20.1653C16.4355 19.1683 17.5632 18.2496 18.6151 17.4131C20.7211 15.7405 22.5251 14.3921 23.7897 13.4562C25.056 12.533 25.7798 12.0064 25.7798 12.0064L25.8199 11.9774C25.8394 11.9634 25.8585 11.9487 25.8773 11.9337C26.8148 11.1944 26.9896 9.81631 26.2688 8.85612C25.5473 7.89525 24.2022 7.71653 23.265 8.45579C23.265 8.45579 22.542 9.02651 21.2752 10.0247C20.021 11.0289 18.2387 12.4697 16.1389 14.2708C15.0892 15.1729 13.9616 16.1643 12.7879 17.2608C12.2014 17.81 11.6039 18.386 11.0008 19.0035C10.3978 19.6266 9.79064 20.2731 9.18246 21.0636C8.87928 21.4749 8.57059 21.8752 8.26006 22.5776C8.18464 22.7623 8.1059 22.9704 8.04924 23.2655C8.02238 23.4167 7.99809 23.5671 8.00067 23.7868C7.99441 23.9663 8.03231 24.2407 8.10148 24.4808C8.09927 24.485 8.22952 24.8314 8.17801 24.6912L8.2034 24.7477L8.24313 24.8322C8.28103 24.9091 8.32371 24.9845 8.37007 25.058C8.58274 25.387 8.72734 25.4964 8.91387 25.6539C9.27407 25.9231 9.59748 26.0264 9.86792 26.0938C10.3944 26.2058 10.7403 26.1738 11.064 26.1477C11.383 26.1153 11.6542 26.0603 11.9169 26.0007C12.4397 25.8797 12.9044 25.7282 13.3618 25.5699C15.1661 24.9241 16.8155 24.1389 18.4671 23.3662C18.6735 23.2689 18.8792 23.172 19.086 23.0748C18.7008 23.486 18.3144 23.8947 17.9355 24.3139C17.65 24.632 17.3677 24.9528 17.0852 25.3068C16.9439 25.4828 16.8004 25.6747 16.6521 25.8967C16.5734 26.0241 16.4998 26.1334 16.4104 26.3242C16.3876 26.3732 16.3729 26.3962 16.3456 26.4678C16.3191 26.5375 16.2956 26.6084 16.2743 26.68C16.2364 26.7562 16.1771 27.1433 16.2183 27.4038C16.3556 27.9447 16.2599 27.5636 16.2927 27.6892L16.2989 27.7065C16.2809 27.6628 16.357 27.8577 16.4155 27.9443C16.481 28.0529 16.5627 28.1551 16.6525 28.2414C16.7518 28.3364 16.8398 28.3948 16.8688 28.411C16.9163 28.44 16.9652 28.4679 17.016 28.4921C17.0668 28.5166 17.1179 28.5384 17.1694 28.5569C17.2202 28.5754 17.2371 28.578 17.2728 28.5882C17.3361 28.6044 17.3998 28.618 17.4641 28.6278C17.5274 28.6368 17.5513 28.6364 17.5966 28.6402C17.6831 28.6455 17.7581 28.6444 17.8056 28.6406C18.0381 28.627 18.1669 28.5957 18.2979 28.5682C18.5499 28.5105 18.7501 28.4483 18.9462 28.3865C19.3126 28.2629 19.6739 28.1407 20.029 28.0205C20.7141 27.7834 21.3586 27.567 21.9776 27.3895C23.209 27.0321 24.3408 26.8248 25.2543 26.8485C26.1797 26.8632 26.7952 27.1301 27.1474 27.4663C27.5112 27.8018 27.6827 28.2429 27.7809 28.5595C27.8748 28.8811 27.9024 29.0741 27.9024 29.0741C27.9027 29.0778 27.9046 29.088 27.9049 29.0925C27.9988 29.6817 28.5403 30.0813 29.1155 29.9859C29.6898 29.8879 30.0801 29.3323 29.9859 28.7431ZM17.7017 25.974H17.7164C17.691 25.9774 17.6774 25.9778 17.7017 25.974Z" fill="black"/>
<defs>
<linearGradient id="paint0_linear_18141_15294" x1="20" y1="0" x2="20" y2="40" gradientUnits="userSpaceOnUse">
<stop stop-color="white"/>
<stop offset="1" stop-color="white" stop-opacity="0.6"/>
</linearGradient>
</defs>
</svg>
