<svg width="77" height="26" viewBox="0 0 77 26" fill="none" xmlns="http://www.w3.org/2000/svg">
<path fill-rule="evenodd" clip-rule="evenodd" d="M74.3558 5.21555C75.7949 5.21555 76.9615 4.04801 76.9615 2.60778C76.9615 1.16754 75.7949 0 74.3558 0C72.9166 0 71.75 1.16754 71.75 2.60778C71.75 4.04801 72.9166 5.21555 74.3558 5.21555ZM16.7515 7.03708C14.9268 7.03708 13.2706 7.759 12.0525 8.93301C10.8343 7.75878 9.17798 7.0367 7.35308 7.0367C3.61279 7.0367 0.580419 10.07 0.578125 13.8127V13.8169V13.8183V21.1144H4.74733V13.8127H4.7422C4.7456 12.3753 5.91093 11.2112 7.34794 11.2112C8.78682 11.2112 9.9533 12.3784 9.95369 13.8183H9.96875V21.1147H14.161V13.8129H14.1406C14.1436 12.3752 15.3091 11.2106 16.7464 11.2106C18.1852 11.2106 19.3517 12.3776 19.3521 13.8175H19.3672V21.1035H23.5364V13.8017H23.5265C23.518 10.0643 20.488 7.03708 16.7515 7.03708ZM32.6187 21.125C36.3576 21.125 39.3891 18.094 39.3937 14.3532H39.4192V7.05145H35.25V14.3429H35.2193V14.3438C35.2193 15.784 34.0527 16.9515 32.6136 16.9515C31.1776 16.9515 30.0129 15.7891 30.0078 14.3532H30.0286V7.05145H25.8594V14.3429H25.8438V14.3448C25.8438 18.0894 28.877 21.125 32.6187 21.125ZM48.5718 7.03902C52.3133 7.03902 55.3464 10.0743 55.3468 13.8186H51.1724C51.1715 12.3791 50.0052 11.2125 48.5667 11.2125C47.1281 11.2125 45.9619 12.3791 45.9609 13.8186H41.7969C41.7972 10.0743 44.8303 7.03902 48.5718 7.03902ZM51.1719 13.8198H55.3411V21.1215H51.1719V13.8198ZM41.7891 13.8198H45.9583V21.1215H41.7891V13.8198ZM64.7266 11.3734V11.3731C66.1566 11.3842 67.3125 12.5924 67.3125 14.0811C67.3125 15.5753 66.1481 16.7868 64.7109 16.7892V16.7895H57.4182V21.1224H64.7109V21.1226C68.4483 21.1174 71.4766 17.967 71.4766 14.0816C71.4766 10.2016 68.4568 7.05464 64.7266 7.04066V7.04044H57.4086L57.4086 11.3734L64.7266 11.3734ZM72.2656 7.04167H76.4348V21.1237H72.2656V7.04167Z" fill="url(#paint0_linear_14628_15178)"/>
<defs>
<linearGradient id="paint0_linear_14628_15178" x1="38.7698" y1="0" x2="38.7698" y2="21.125" gradientUnits="userSpaceOnUse">
<stop stop-color="white"/>
<stop offset="1" stop-color="white" stop-opacity="0.8"/>
</linearGradient>
</defs>
</svg>
