<svg width="120" height="64" viewBox="0 0 120 64" fill="none" xmlns="http://www.w3.org/2000/svg">
<circle cx="32" cy="32" r="31.5" fill="#1A1A1A" stroke="white" stroke-dasharray="3 3"/>
<circle cx="40" cy="22" r="8" fill="#4D4D4D"/>
<path d="M17 15L24.1399 21.2474C24.5952 21.6458 24.5952 22.3542 24.1399 22.7526L17 29" stroke="#FFE27D" stroke-width="4" stroke-linecap="round"/>
<rect x="14" y="37" width="30" height="4" rx="2" fill="white"/>
<rect x="14" y="45" width="22" height="4" rx="2" fill="url(#paint0_linear_7036_14346)"/>
<circle cx="88" cy="32" r="32" fill="white"/>
<g clip-path="url(#clip0_7036_14346)">
<path d="M102 34.2885C102 33.9911 101.759 33.75 101.462 33.75H96.2118C96.0058 33.75 95.8178 33.6324 95.7276 33.4471L92.8412 27.5138C92.7679 27.3633 92.7705 27.1879 92.8382 27.0347C93.1127 26.4127 93.25 25.775 93.25 25C93.25 22.8589 92.01 21.0278 90.1134 20.2362C89.8996 20.1469 89.75 19.9437 89.75 19.7119V18.5385C89.75 18.2411 89.5089 18 89.2115 18H86.7885C86.4911 18 86.25 18.2411 86.25 18.5385V19.7119C86.25 19.9437 86.1004 20.1469 85.8866 20.2362C83.99 21.0278 82.75 22.8589 82.75 25C82.75 25.775 82.8873 26.4127 83.1618 27.0347C83.2295 27.1879 83.2321 27.3633 83.1588 27.5138L80.2724 33.4471C80.1822 33.6324 79.9942 33.75 79.7882 33.75H74.5385C74.2411 33.75 74 33.9911 74 34.2885V36.7115C74 37.0089 74.2411 37.25 74.5385 37.25H77.5038C77.904 37.25 78.1644 37.6712 77.9854 38.0293L74.5814 44.8373C74.3668 45.2664 74.7782 45.7406 75.2333 45.5889L79.0384 44.3205C79.1739 44.2754 79.2859 44.1782 79.3497 44.0505L82.6012 37.5477C82.6924 37.3652 82.8788 37.25 83.0828 37.25H92.9172C93.1212 37.25 93.3076 37.3652 93.3988 37.5477L96.6503 44.0505C96.7141 44.1782 96.8261 44.2754 96.9616 44.3205L100.767 45.5889C101.222 45.7406 101.633 45.2664 101.419 44.8373L98.0146 38.0293C97.8356 37.6712 98.096 37.25 98.4962 37.25H101.462C101.759 37.25 102 37.0089 102 36.7115V34.2885ZM85.3712 33.75C84.971 33.75 84.7106 33.3288 84.8896 32.9707L86.2161 30.3177C86.336 30.078 86.613 29.9655 86.8692 30.0441C87.2461 30.1598 87.6231 30.25 88 30.25C88.3769 30.25 88.7539 30.1598 89.1308 30.0441C89.387 29.9655 89.664 30.078 89.7839 30.3177L91.1104 32.9707C91.2894 33.3288 91.029 33.75 90.6287 33.75H85.3712Z" fill="black"/>
</g>
<defs>
<linearGradient id="paint0_linear_7036_14346" x1="17.1169" y1="45.5567" x2="18.133" y2="51.1452" gradientUnits="userSpaceOnUse">
<stop stop-color="#FFE27D"/>
<stop offset="0.505208" stop-color="#64E3FF"/>
<stop offset="1" stop-color="#9192FF"/>
</linearGradient>
<clipPath id="clip0_7036_14346">
<rect width="28" height="28" fill="white" transform="translate(74 18)"/>
</clipPath>
</defs>
</svg>
