<svg width="120" height="64" viewBox="0 0 120 64" fill="none" xmlns="http://www.w3.org/2000/svg">
<circle cx="32" cy="32" r="31.5" fill="#1A1A1A" stroke="white" stroke-dasharray="3 3"/>
<path d="M21 21H42C42.5523 21 43 21.4477 43 22V42C43 42.5523 42.5523 43 42 43H21" stroke="#4D4D4D" stroke-width="2" stroke-linecap="round"/>
<rect x="37" y="15" width="12" height="12" rx="1" fill="white"/>
<rect x="37" y="37" width="12" height="12" rx="1" fill="url(#paint0_linear_7036_14386)"/>
<rect x="15" y="37" width="12" height="12" rx="1" fill="#4D4D4D"/>
<path d="M16 13V15.8889H19.2742V29H23V13H16Z" fill="#FFE27D"/>
<circle cx="88" cy="32" r="32" fill="white"/>
<path d="M99.6719 19.168H76.3385C76.0291 19.168 75.7324 19.2909 75.5136 19.5097C75.2948 19.7285 75.1719 20.0252 75.1719 20.3346V43.668C75.1719 43.9774 75.2948 44.2741 75.5136 44.4929C75.7324 44.7117 76.0291 44.8346 76.3385 44.8346H99.6719C99.9813 44.8346 100.278 44.7117 100.497 44.4929C100.716 44.2741 100.839 43.9774 100.839 43.668V20.3346C100.839 20.0252 100.716 19.7285 100.497 19.5097C100.278 19.2909 99.9813 19.168 99.6719 19.168ZM83.3385 21.5013H86.8385V23.8346H83.3385V21.5013ZM91.5052 32.0013L85.6719 35.5013V28.5013L91.5052 32.0013ZM81.0052 42.5013H77.5052V40.168H81.0052V42.5013ZM81.0052 23.8346H77.5052V21.5013H81.0052V23.8346ZM86.8385 42.5013H83.3385V40.168H86.8385V42.5013ZM92.6719 42.5013H89.1719V40.168H92.6719V42.5013ZM92.6719 23.8346H89.1719V21.5013H92.6719V23.8346ZM98.5052 42.5013H95.0052V40.168H98.5052V42.5013ZM98.5052 23.8346H95.0052V21.5013H98.5052V23.8346Z" fill="black"/>
<defs>
<linearGradient id="paint0_linear_7036_14386" x1="38.7001" y1="38.6701" x2="47.3599" y2="47.3299" gradientUnits="userSpaceOnUse">
<stop stop-color="#FFE27D"/>
<stop offset="0.505208" stop-color="#64E3FF"/>
<stop offset="1" stop-color="#9192FF"/>
</linearGradient>
</defs>
</svg>
