<svg width="16" height="16" viewBox="0 0 16 16" fill="none" xmlns="http://www.w3.org/2000/svg">
<path fill-rule="evenodd" clip-rule="evenodd" d="M5.39042 0.305483C6.03262 0.0415736 6.73166 -0.0536627 7.42106 0.0288319C8.30972 0.130826 9.10171 0.508805 9.79703 1.1621C9.8064 1.17097 9.81782 1.17738 9.83027 1.18075C9.84271 1.18413 9.8558 1.18436 9.86837 1.18143C10.807 0.95078 11.7097 1.03211 12.5757 1.42542L12.6177 1.44542L12.7203 1.49608C13.625 1.96472 14.2737 2.67602 14.6656 3.62796C14.851 4.0806 14.9443 4.55324 14.9463 5.04522C14.9594 5.41155 14.919 5.77782 14.8263 6.13249C14.8217 6.15057 14.8218 6.1695 14.8265 6.18755C14.8311 6.20561 14.8402 6.2222 14.853 6.23581C15.3771 6.76713 15.7416 7.43485 15.905 8.16304C16.1616 9.4303 15.8983 10.5729 15.1163 11.5895L14.995 11.7362C14.4771 12.3292 13.7973 12.7581 13.039 12.9701C13.0224 12.9749 13.0073 12.9835 12.9947 12.9954C12.9822 13.0072 12.9727 13.0218 12.967 13.0381C12.797 13.5287 12.6263 13.9474 12.309 14.366C11.5097 15.4206 10.3344 16.0073 9.01038 15.9999C7.95505 15.9946 7.01973 15.6086 6.20374 14.8427C6.19137 14.8313 6.17627 14.8234 6.1599 14.8196C6.14354 14.8159 6.12648 14.8165 6.11041 14.8213C5.76508 14.9327 5.41708 14.9487 5.04109 14.9447C4.44039 14.9398 3.84872 14.798 3.31111 14.53C2.74838 14.2509 2.25851 13.8444 1.88045 13.3427C1.74512 13.1634 1.61112 12.9948 1.51313 12.7954C1.37797 12.5207 1.26753 12.2345 1.18313 11.9402C1.00592 11.2713 1.00202 10.5684 1.1718 9.89761C1.17729 9.88178 1.17911 9.86491 1.17713 9.84828C1.17383 9.83173 1.16516 9.81673 1.15246 9.80561C0.741521 9.38996 0.427386 8.88873 0.232473 8.3377C0.103425 7.99842 0.0285118 7.64096 0.0104756 7.27842C-0.0217636 6.80104 0.0205201 6.32155 0.135808 5.85717C0.435804 4.86789 1.00846 4.09194 1.85379 3.52863C2.04179 3.40331 2.22045 3.30598 2.38845 3.23665C2.57911 3.15666 2.77044 3.08999 2.96244 3.034C2.97618 3.02992 2.98867 3.02249 2.9988 3.01236C3.00893 3.00223 3.01637 2.98973 3.02044 2.976C3.16604 2.45268 3.41643 1.96439 3.75643 1.54075C4.20976 0.976778 4.75442 0.564802 5.39042 0.305483ZM4.85442 5.53852C4.77998 5.40831 4.65687 5.31299 4.51215 5.27355C4.36744 5.23411 4.21298 5.25377 4.08276 5.3282C3.95254 5.40263 3.85723 5.52574 3.81778 5.67045C3.77834 5.81516 3.798 5.96961 3.87243 6.09982L5.00175 8.07638L3.87643 9.97494C3.80744 10.1036 3.79082 10.2539 3.83006 10.3945C3.86929 10.5351 3.96134 10.6551 4.08697 10.7295C4.21261 10.8038 4.36211 10.8268 4.50426 10.7935C4.6464 10.7602 4.77018 10.6733 4.84975 10.5509L6.14307 8.36969C6.19408 8.28367 6.22139 8.18568 6.22221 8.08567C6.22302 7.98567 6.19733 7.88724 6.14774 7.80039L4.85442 5.53852ZM8.48505 9.69829C8.34101 9.70686 8.20569 9.77012 8.10674 9.87513C8.00779 9.98014 7.95268 10.119 7.95268 10.2633C7.95268 10.4075 8.00779 10.5464 8.10674 10.6514C8.20569 10.7564 8.34101 10.8197 8.48505 10.8282H11.717C11.8622 10.8212 11.9991 10.7585 12.0994 10.6533C12.1996 10.548 12.2555 10.4083 12.2555 10.2629C12.2555 10.1176 12.1996 9.97779 12.0994 9.87255C11.9991 9.76731 11.8622 9.70467 11.717 9.69762H8.48505V9.69829Z" fill="currentColor"/>
</svg>
