<svg width="16" height="16" viewBox="0 0 16 16" fill="none" xmlns="http://www.w3.org/2000/svg">
<path d="M8 0.188071C12.42 0.188071 16 3.76807 16 8.18807C15.9989 11.6252 13.8063 14.6789 10.5503 15.7778C10.1503 15.8578 10 15.6075 10 15.3978C10 15.1275 10.0103 14.2675 10.0103 13.1978C10.0103 12.4481 9.76057 11.9681 9.47029 11.7178C11.2503 11.5178 13.1206 10.8378 13.1206 7.76807C13.1206 6.88807 12.8103 6.17778 12.3006 5.61836C12.3806 5.41836 12.6606 4.59836 12.2206 3.49836C12.2206 3.49836 11.5503 3.27836 10.0206 4.31836C9.38057 4.13836 8.70057 4.04864 8.02057 4.04864C7.34057 4.04864 6.66057 4.13836 6.02057 4.31836C4.49086 3.28864 3.82057 3.49836 3.82057 3.49836C3.38057 4.59836 3.66057 5.41836 3.74057 5.61836C3.23086 6.17836 2.92057 6.89836 2.92057 7.76807C2.92057 10.8281 4.78057 11.5184 6.56057 11.7184C6.33029 11.9184 6.12057 12.2686 6.05029 12.7881C5.59029 12.9984 4.44 13.3384 3.72057 12.1281C3.57029 11.8881 3.12057 11.2984 2.49086 11.3081C1.82057 11.3184 2.22114 11.6881 2.50057 11.8378C2.84057 12.0275 3.23029 12.7378 3.32057 12.9681C3.48057 13.4178 4.00057 14.2784 6.01029 13.9081C6.01029 14.5784 6.02057 15.2081 6.02057 15.3978C6.02057 15.6081 5.87029 15.8475 5.47029 15.7778C2.20229 14.6898 -0.00171329 11.6321 9.99327e-07 8.1875C9.99327e-07 3.7675 3.58 0.188071 8 0.188071Z" fill="currentColor"/>
</svg>
