<svg width="24" height="24" viewBox="0 0 24 24" fill="none" xmlns="http://www.w3.org/2000/svg">
<path d="M8.52818 1.4936C8.57084 1.35106 8.65937 1.22592 8.78051 1.13694C8.90164 1.04796 9.04887 0.999913 9.20014 1H14.7998C14.9106 1.00008 15.0199 1.02602 15.1185 1.07568C15.2172 1.12534 15.3024 1.1973 15.3672 1.28564C15.432 1.37398 15.4745 1.47616 15.4912 1.58379C15.5079 1.69142 15.4984 1.8014 15.4633 1.9047L12.9715 9.24951H18.2996C18.4306 9.24942 18.5591 9.28548 18.6703 9.35359C18.7816 9.4217 18.8711 9.51911 18.9287 9.63474C18.9864 9.75037 19.0098 9.87957 18.9963 10.0076C18.9828 10.1357 18.933 10.2575 18.8525 10.3591L9.05315 22.7333C8.95276 22.8607 8.81002 22.9494 8.64984 22.984C8.48965 23.0185 8.3222 22.9968 8.17669 22.9225C8.03119 22.8481 7.91687 22.726 7.8537 22.5773C7.79052 22.4287 7.7825 22.263 7.83103 22.1091L10.3523 14.0617H5.70037C5.59154 14.0618 5.4842 14.0369 5.38687 13.9891C5.28954 13.9413 5.2049 13.8719 5.13968 13.7863C5.07445 13.7008 5.03043 13.6015 5.01111 13.4963C4.9918 13.3911 4.99772 13.2829 5.02841 13.1804L8.52818 1.4936Z" fill="url(#paint0_linear_9957_29713)"/>
<defs>
<linearGradient id="paint0_linear_9957_29713" x1="12" y1="1" x2="12" y2="23" gradientUnits="userSpaceOnUse">
<stop stop-color="#FF80EA"/>
<stop offset="1" stop-color="#E300BD" stop-opacity="0.4"/>
</linearGradient>
</defs>
</svg>
