<svg width="24" height="24" viewBox="0 0 24 24" fill="none" xmlns="http://www.w3.org/2000/svg">
<path fill-rule="evenodd" clip-rule="evenodd" d="M13.6339 20.7936C13.8527 20.9503 14.1177 21.035 14.3899 21.0352V21.0341C14.7285 21.0341 15.0533 20.9039 15.2927 20.6721C15.5321 20.4403 15.6667 20.1259 15.6667 19.7981V5.77192C15.6668 5.54323 15.6014 5.319 15.4777 5.12415C15.3541 4.92931 15.177 4.77149 14.9662 4.66826C14.7555 4.56503 14.5192 4.52043 14.2838 4.53943C14.0484 4.55843 13.8231 4.64027 13.6329 4.77586L13.5977 4.80213L8.73212 8.6648H5.02679C4.68816 8.6648 4.36341 8.79503 4.12396 9.02684C3.88452 9.25864 3.75 9.57304 3.75 9.90086V15.6686C3.75 15.9964 3.88452 16.3108 4.12396 16.5426C4.36341 16.7744 4.68816 16.9047 5.02679 16.9047H8.73319L13.5988 20.7673L13.6339 20.7936ZM18.3484 16.8052C18.4622 16.874 18.5903 16.9101 18.7206 16.9102C18.8623 16.9102 19.0012 16.8676 19.1218 16.7871C19.2424 16.7067 19.3399 16.5916 19.4035 16.4546C19.9622 15.2461 20.2487 14.0092 20.2487 12.7785C20.2487 11.5116 19.9717 10.3077 19.4016 9.09765C19.3074 8.90657 19.1476 8.76312 18.9565 8.69818C18.7655 8.63325 18.5586 8.652 18.3802 8.75042C18.2019 8.84883 18.0664 9.01904 18.0029 9.22441C17.9394 9.42979 17.9529 9.65392 18.0407 9.84858C18.4986 10.82 18.7211 11.7786 18.7211 12.7785C18.7211 13.7504 18.4914 14.7369 18.0383 15.713C17.9798 15.8389 17.9521 15.979 17.9578 16.1198C17.9634 16.2606 18.0023 16.3975 18.0707 16.5175C18.1391 16.6374 18.2347 16.7365 18.3484 16.8052Z" fill="url(#paint0_linear_9957_29733)"/>
<defs>
<linearGradient id="paint0_linear_9957_29733" x1="12.9159" y1="4.53516" x2="12.9159" y2="19.2018" gradientUnits="userSpaceOnUse">
<stop stop-color="white"/>
<stop offset="1" stop-color="white" stop-opacity="0.3"/>
</linearGradient>
</defs>
</svg>
