<svg width="464" height="224" viewBox="0 0 464 224" fill="none" xmlns="http://www.w3.org/2000/svg">
<circle cx="74" cy="156" r="41.5" fill="#0D0D0D" stroke="white" stroke-dasharray="3 3"/>
<circle cx="74" cy="156" r="32" fill="white"/>
<path fill-rule="evenodd" clip-rule="evenodd" d="M56 156.002C56 165.926 64.0773 174.003 73.9988 174.003C76.6117 174.005 79.1936 173.437 81.5644 172.339C83.9352 171.24 86.0379 169.638 87.7259 167.644L84.7257 165.123C83.4047 166.679 81.761 167.928 79.9086 168.785C78.0562 169.641 76.0395 170.084 73.9988 170.082C66.2337 170.082 59.9182 163.766 59.9182 156.002C59.9182 148.237 66.2347 141.921 73.9988 141.921C81.7629 141.921 88.0794 148.237 88.0794 156.002C88.0794 156.503 87.8802 156.984 87.5258 157.338C87.1713 157.693 86.6905 157.892 86.1892 157.892C85.6879 157.892 85.2071 157.693 84.8527 157.338C84.4982 156.984 84.2991 156.503 84.2991 156.002C84.2993 153.496 83.3855 151.076 81.7292 149.196C80.0728 147.316 77.7876 146.105 75.3019 145.789C72.8162 145.473 70.3007 146.075 68.2271 147.482C66.1534 148.888 64.664 151.003 64.038 153.429C63.412 155.855 63.6925 158.427 64.8268 160.661C65.9612 162.895 67.8714 164.639 70.1996 165.565C72.5277 166.491 75.1138 166.537 77.473 165.693C79.8322 164.849 81.8025 163.173 83.0146 160.98L83.0624 160.894L83.1458 160.945C84.0256 161.488 85.0344 161.787 86.068 161.809C87.1015 161.832 88.1224 161.578 89.025 161.074C89.9277 160.57 90.6794 159.834 91.2025 158.942C91.7255 158.051 92.001 157.035 92.0004 156.002C92.0004 146.074 83.9203 138 73.9988 138C64.0773 138 56 146.077 56 156.002ZM70.4521 150.702C71.5019 150 72.7362 149.626 73.9988 149.626V149.62C75.6906 149.622 77.3125 150.295 78.5088 151.492C79.705 152.688 80.378 154.31 80.38 156.002C80.3813 157.264 80.008 158.499 79.3075 159.549C78.607 160.6 77.6106 161.419 76.4445 161.903C75.2784 162.387 73.9949 162.514 72.7564 162.268C71.518 162.023 70.3802 161.415 69.487 160.523C68.5938 159.631 67.9854 158.493 67.7387 157.255C67.492 156.017 67.6182 154.733 68.1012 153.567C68.5842 152.4 69.4023 151.403 70.4521 150.702ZM72.3334 158.494C72.8267 158.824 73.4067 159 74 159C74.7955 158.999 75.558 158.682 76.1204 158.12C76.6828 157.557 76.9991 156.794 77 155.999C76.9998 155.406 76.8237 154.826 76.4939 154.332C76.1641 153.839 75.6955 153.455 75.1473 153.228C74.5991 153.001 73.9959 152.942 73.4141 153.058C72.8322 153.174 72.2977 153.459 71.8783 153.879C71.4588 154.299 71.1732 154.833 71.0576 155.415C70.9419 155.997 71.0014 156.6 71.2285 157.148C71.4556 157.696 71.8401 158.165 72.3334 158.494Z" fill="black"/>
<circle cx="390" cy="68" r="41.5" fill="#0D0D0D" stroke="white" stroke-dasharray="3 3"/>
<circle cx="390" cy="68" r="32" fill="white"/>
<path d="M390 50.0078C399.96 50.0078 408 58.0478 408 68.0078C408 77.9678 399.96 86.0078 390 86.0078C380.04 86.0078 372 77.9678 372 68.0078C372 58.0478 380.04 50.0078 390 50.0078ZM390 54.8078C382.68 54.8078 376.8 60.6878 376.8 68.0078C376.8 75.3279 382.68 81.2078 390 81.2078C397.32 81.2078 403.2 75.3279 403.2 68.0078C403.2 60.6878 397.32 54.8078 390 54.8078ZM385.56 68.7278C387.6 68.7278 389.28 70.4078 389.28 72.4478C389.28 74.4878 387.6 76.1678 385.56 76.1678C383.52 76.1678 381.84 74.4878 381.84 72.4478C381.84 70.4078 383.52 68.7278 385.56 68.7278ZM394.44 68.7278C396.48 68.7278 398.16 70.4078 398.16 72.4478C398.16 74.4878 396.48 76.1678 394.44 76.1678C392.4 76.1678 390.72 74.4878 390.72 72.4478C390.72 70.4078 392.4 68.7278 394.44 68.7278ZM394.44 59.8478C396.48 59.8478 398.16 61.5278 398.16 63.5678C398.16 65.6078 396.48 67.2878 394.44 67.2878C392.4 67.2878 390.72 65.6078 390.72 63.5678C390.72 61.5278 392.4 59.8478 394.44 59.8478ZM385.56 59.8478C387.6 59.8478 389.28 61.5278 389.28 63.5678C389.28 65.6078 387.6 67.2878 385.56 67.2878C383.52 67.2878 381.84 65.6078 381.84 63.5678C381.84 61.5278 383.52 59.8478 385.56 59.8478Z" fill="black"/>
<circle cx="232" cy="112" r="85.5" fill="#0D0D0D" stroke="white" stroke-dasharray="3 3"/>
<circle cx="175" cy="177" r="5" fill="url(#paint0_linear_272_446)"/>
<circle cx="175" cy="177" r="5" fill="url(#paint1_linear_272_446)"/>
<circle cx="289" cy="47" r="5" fill="url(#paint2_linear_272_446)"/>
<circle cx="289" cy="47" r="5" fill="url(#paint3_linear_272_446)"/>
<rect x="56" y="54" width="160" height="10" rx="5" fill="#333333"/>
<rect x="226" y="54" width="24" height="10" rx="5" fill="#333333"/>
<rect x="214" y="160" width="24" height="10" rx="5" fill="#333333"/>
<rect x="248" y="160" width="160" height="10" rx="5" fill="#333333"/>
<rect x="175" y="88" width="114" height="48" rx="24" fill="#FFE14D"/>
<path d="M194.94 121H197.58L198.86 118.14H204.74L206.02 121H208.66L201.84 106.38H201.76L194.94 121ZM199.68 116.26C200.46 114.5 201.2 112.66 201.82 111.16C202.42 112.8 203.1 114.42 203.92 116.26H199.68ZM215.694 115.74C218.894 115.74 220.914 114.1 220.914 111.18C220.914 108.24 218.894 106.6 215.694 106.6H211.134V121H213.654V115.74H215.694ZM215.714 108.72C217.334 108.72 218.374 109.58 218.374 111.18C218.374 112.76 217.374 113.62 215.814 113.62H213.654V108.72H215.714ZM226.486 121V106.6H223.966V121H226.486ZM237.638 106.6H235.118V121H237.638V116.76L239.978 114.18L244.098 121H246.958L241.678 112.5L246.878 106.6H243.858L237.638 113.84V106.6ZM252.519 110.74C249.699 110.74 247.519 112.98 247.519 116C247.519 119.08 249.659 121.26 252.979 121.26C254.659 121.26 255.999 120.86 256.699 120.48V118.34C256.019 118.76 254.559 119.18 253.159 119.18C251.319 119.18 250.119 118.18 250.059 116.5H257.039C257.039 116.32 257.099 115.88 257.099 115.42C257.099 112.94 255.519 110.74 252.519 110.74ZM254.739 115.08H250.059C250.179 113.82 251.039 112.7 252.479 112.7C253.979 112.7 254.759 113.82 254.739 115.08ZM257.972 125.46C258.172 125.54 258.612 125.62 259.092 125.62C259.492 125.64 259.892 125.62 260.312 125.56C262.272 125.18 263.512 123.58 264.652 120.74L268.552 111H265.892L264.632 114.54C264.252 115.54 263.552 117.74 263.192 118.58C262.752 117.24 262.252 115.88 261.752 114.54L260.472 111H257.812L261.952 120.94C261.292 122.42 260.552 123.52 259.112 123.52C258.572 123.52 258.172 123.42 257.972 123.36V125.46Z" fill="black"/>
<defs>
<linearGradient id="paint0_linear_272_446" x1="180" y1="172" x2="170" y2="182" gradientUnits="userSpaceOnUse">
<stop offset="0.210937" stop-color="#FFBB33"/>
<stop offset="0.539062" stop-color="#E300BD"/>
<stop offset="0.789062" stop-color="#FF006A"/>
</linearGradient>
<linearGradient id="paint1_linear_272_446" x1="175" y1="172" x2="175" y2="182" gradientUnits="userSpaceOnUse">
<stop offset="0.546667" stop-opacity="0"/>
<stop offset="1" stop-opacity="0.3"/>
</linearGradient>
<linearGradient id="paint2_linear_272_446" x1="294" y1="42" x2="284" y2="52" gradientUnits="userSpaceOnUse">
<stop offset="0.210937" stop-color="#FFBB33"/>
<stop offset="0.539062" stop-color="#E300BD"/>
<stop offset="0.789062" stop-color="#FF006A"/>
</linearGradient>
<linearGradient id="paint3_linear_272_446" x1="289" y1="42" x2="289" y2="52" gradientUnits="userSpaceOnUse">
<stop offset="0.546667" stop-opacity="0"/>
<stop offset="1" stop-opacity="0.3"/>
</linearGradient>
</defs>
</svg>
