<svg width="464" height="224" viewBox="0 0 464 224" fill="none" xmlns="http://www.w3.org/2000/svg">
<rect x="32" y="32" width="400" height="10" rx="5" fill="#333333"/>
<rect x="132" y="60" width="150" height="10" rx="5" fill="#333333"/>
<rect x="32" y="60" width="80" height="10" rx="5" fill="#333333"/>
<rect x="32" y="154" width="180" height="10" rx="5" fill="#333333"/>
<rect x="232" y="154" width="140" height="10" rx="5" fill="#333333"/>
<rect x="32" y="182" width="150" height="10" rx="5" fill="#333333"/>
<rect x="202" y="182" width="80" height="10" rx="5" fill="url(#paint0_linear_272_418)"/>
<rect x="202" y="182" width="80" height="10" rx="5" fill="url(#paint1_linear_272_418)"/>
<rect x="32.5" y="88.5" width="166" height="47" rx="23.5" fill="#0D0D0D"/>
<path d="M54.48 119.08C54.48 121.12 55.64 122.34 57.58 122.34H58.26V120.72H57.84C56.92 120.72 56.38 120.04 56.38 118.88V116.4C56.38 115.06 55.78 114.12 54.8 113.82V113.78C55.78 113.48 56.38 112.54 56.38 111.2V108.72C56.38 107.56 56.92 106.88 57.84 106.88H58.26V105.26H57.58C55.64 105.26 54.48 106.48 54.48 108.52V111C54.48 112.22 53.88 113 52.9 113.08V114.52C53.88 114.6 54.48 115.38 54.48 116.6V119.08ZM62.0386 119.08C62.0386 121.12 63.1986 122.34 65.1386 122.34H65.8186V120.72H65.3986C64.4786 120.72 63.9386 120.04 63.9386 118.88V116.4C63.9386 115.06 63.3386 114.12 62.3586 113.82V113.78C63.3386 113.48 63.9386 112.54 63.9386 111.2V108.72C63.9386 107.56 64.4786 106.88 65.3986 106.88H65.8186V105.26H65.1386C63.1986 105.26 62.0386 106.48 62.0386 108.52V111C62.0386 112.22 61.4386 113 60.4586 113.08V114.52C61.4386 114.6 62.0386 115.38 62.0386 116.6V119.08ZM67.0172 106.6L72.2172 115.28V121H74.1372V115.28L79.3372 106.6H77.1972L73.1772 113.44L69.1572 106.6H67.0172ZM83.5692 110.76C80.6092 110.76 78.4292 112.98 78.4292 116C78.4292 119.02 80.6092 121.24 83.5692 121.24C86.5492 121.24 88.7292 119.02 88.7292 116C88.7292 112.98 86.5492 110.76 83.5692 110.76ZM83.5692 119.62C81.6492 119.62 80.2292 118.12 80.2292 116C80.2292 113.88 81.6492 112.38 83.5692 112.38C85.5092 112.38 86.9292 113.88 86.9292 116C86.9292 118.12 85.5092 119.62 83.5692 119.62ZM100.115 121V111H98.2548V115.92C98.2548 117.96 96.8948 119.52 94.9948 119.52C93.3348 119.52 93.0948 118.28 93.0948 116.9V111H91.2348V117.28C91.2348 119.78 92.1948 121.24 94.6548 121.24C96.7148 121.24 97.9948 119.74 98.3748 118.84H98.4148C98.4148 118.88 98.3348 119.18 98.3348 119.6L98.3748 121H100.115ZM103.621 121H105.481V116.64C105.481 114.7 106.601 112.56 108.541 112.56C108.801 112.56 108.981 112.6 109.061 112.62V110.82C108.981 110.8 108.741 110.76 108.461 110.76C107.021 110.76 105.961 111.72 105.381 113.14H105.361C105.341 113.08 105.401 112.78 105.381 112.4L105.361 111H103.621V121ZM111.359 111V121H113.219V116.08C113.219 114.04 114.619 112.48 116.579 112.48C118.239 112.48 118.479 113.72 118.479 115.1V121H120.339V114.72C120.339 112.22 119.379 110.76 116.919 110.76C114.799 110.76 113.479 112.26 113.099 113.16H113.059C113.079 113.12 113.139 112.82 113.139 112.4L113.099 111H111.359ZM127.497 111V112.52H129.137V118.26C129.137 120.5 130.657 121.24 132.097 121.24C133.077 121.24 133.897 121.02 134.337 120.78V119.16C133.777 119.42 133.077 119.6 132.457 119.6C131.617 119.6 130.977 119.12 130.977 117.7V112.52H133.997V111H130.977V108H129.157V111H127.497ZM140.458 110.76C137.698 110.76 135.558 112.98 135.558 116C135.558 119.1 137.698 121.24 140.858 121.24C142.478 121.24 143.818 120.82 144.598 120.38V118.68C143.758 119.22 142.338 119.62 140.978 119.62C138.878 119.62 137.558 118.38 137.498 116.42V116.4H144.938C144.938 116.2 144.978 115.82 144.978 115.42C144.978 112.96 143.398 110.76 140.458 110.76ZM143.138 115.08H137.518C137.678 113.64 138.718 112.32 140.438 112.32C142.218 112.32 143.158 113.64 143.138 115.08ZM155.922 111H153.762L151.282 114.68L148.822 111H146.702L150.182 115.96L146.562 121H148.662L151.322 117.2L154.002 121H156.102L152.422 115.84L155.922 111ZM157.301 111V112.52H158.941V118.26C158.941 120.5 160.461 121.24 161.901 121.24C162.881 121.24 163.701 121.02 164.141 120.78V119.16C163.581 119.42 162.881 119.6 162.261 119.6C161.421 119.6 160.781 119.12 160.781 117.7V112.52H163.801V111H160.781V108H158.961V111H157.301ZM168.663 108.52C168.663 106.48 167.503 105.26 165.563 105.26H164.883V106.88H165.303C166.223 106.88 166.763 107.56 166.763 108.72V111.2C166.763 112.54 167.363 113.48 168.343 113.78V113.82C167.363 114.12 166.763 115.06 166.763 116.4V118.88C166.763 120.04 166.223 120.72 165.303 120.72H164.883V122.34H165.563C167.503 122.34 168.663 121.12 168.663 119.08V116.6C168.663 115.38 169.263 114.6 170.243 114.52V113.08C169.263 113 168.663 112.22 168.663 111V108.52ZM176.221 108.52C176.221 106.48 175.061 105.26 173.121 105.26H172.441V106.88H172.861C173.781 106.88 174.321 107.56 174.321 108.72V111.2C174.321 112.54 174.921 113.48 175.901 113.78V113.82C174.921 114.12 174.321 115.06 174.321 116.4V118.88C174.321 120.04 173.781 120.72 172.861 120.72H172.441V122.34H173.121C175.061 122.34 176.221 121.12 176.221 119.08V116.6C176.221 115.38 176.821 114.6 177.801 114.52V113.08C176.821 113 176.221 112.22 176.221 111V108.52Z" fill="#FFE14D"/>
<rect x="32.5" y="88.5" width="166" height="47" rx="23.5" stroke="white" stroke-dasharray="3 3"/>
<rect x="190" y="88" width="194" height="48" rx="24" fill="white"/>
<path d="M229.496 105.235L226.765 102.504C226.442 102.181 226.004 102 225.547 102C225.091 102 224.653 102.181 224.33 102.504L222 104.834L227.166 110L229.496 107.67C229.819 107.347 230 106.909 230 106.453C230 105.996 229.819 105.558 229.496 105.235V105.235Z" fill="black"/>
<path d="M221.024 106L211.659 115.365L210 122L216.635 120.341L226 110.976L221.024 106Z" fill="black"/>
<path d="M250.1 121V118.88H244.24V106.6H241.72V121H250.1ZM256.528 110.74C253.508 110.74 251.288 112.98 251.288 116C251.288 119.02 253.508 121.26 256.528 121.26C259.568 121.26 261.768 119.02 261.768 116C261.768 112.98 259.568 110.74 256.528 110.74ZM256.528 119.18C254.868 119.18 253.608 117.88 253.608 116C253.608 114.12 254.868 112.82 256.528 112.82C258.208 112.82 259.448 114.12 259.448 116C259.448 117.88 258.208 119.18 256.528 119.18ZM264.059 121H266.499V116.7C266.499 114.82 267.679 113.08 269.399 113.08C269.719 113.08 269.939 113.16 269.999 113.16V110.8C269.939 110.78 269.679 110.74 269.379 110.74C267.999 110.74 266.959 111.66 266.339 112.88C266.319 112.8 266.339 112.52 266.339 112.18C266.339 111.8 266.319 111.4 266.299 111H264.059V121ZM276.191 110.74C273.371 110.74 271.191 112.98 271.191 116C271.191 119.08 273.331 121.26 276.651 121.26C278.331 121.26 279.671 120.86 280.371 120.48V118.34C279.691 118.76 278.231 119.18 276.831 119.18C274.991 119.18 273.791 118.18 273.731 116.5H280.711C280.711 116.32 280.771 115.88 280.771 115.42C280.771 112.94 279.191 110.74 276.191 110.74ZM278.411 115.08H273.731C273.851 113.82 274.711 112.7 276.151 112.7C277.651 112.7 278.431 113.82 278.411 115.08ZM283.123 111V121H285.563V116.5C285.563 114.72 286.303 112.96 288.183 112.96C289.483 112.96 289.723 113.98 289.723 115.12V121H292.163V116.5C292.163 114.74 292.823 112.96 294.743 112.96C295.983 112.96 296.323 113.94 296.323 115.12V121H298.763V114.74C298.763 112.14 297.623 110.74 295.283 110.74C293.823 110.74 292.563 111.7 291.863 112.88C291.543 111.76 290.703 111.08 289.643 110.86C289.323 110.78 288.983 110.76 288.643 110.78C287.163 110.86 285.883 111.8 285.403 113H285.363C285.363 112.92 285.443 112.66 285.443 112.28L285.383 111H283.123ZM306.893 111V121H309.333V111H306.893ZM306.693 108.12C306.693 108.94 307.253 109.48 308.113 109.48C308.953 109.48 309.533 108.94 309.533 108.12C309.533 107.28 308.953 106.74 308.113 106.74C307.253 106.74 306.693 107.28 306.693 108.12ZM312.577 125.4H315.017V120.34C315.017 119.8 314.957 119.52 314.957 119.52H314.997C315.517 120.44 316.757 121.26 318.297 121.26C320.857 121.26 322.897 119.22 322.897 116C322.897 112.82 320.857 110.74 318.237 110.74C316.697 110.74 315.337 111.64 314.857 112.64H314.817C314.797 112.64 314.877 112.36 314.857 111.94L314.817 111H312.577V125.4ZM317.837 119.18C316.497 119.18 315.077 118.16 315.077 116C315.077 113.84 316.497 112.82 317.837 112.82C319.457 112.82 320.577 114.14 320.577 116C320.577 117.88 319.457 119.18 317.837 119.18ZM329.631 118.26C329.631 119.02 328.811 119.3 327.931 119.3C326.971 119.3 325.611 118.92 324.651 118.42V120.6C325.411 120.94 326.571 121.26 327.991 121.26C330.331 121.26 331.871 120.2 331.871 118.32C331.871 116.58 330.811 115.8 328.611 115.12C327.391 114.76 326.791 114.42 326.791 113.78C326.791 113.26 327.211 112.98 327.711 112.84C328.011 112.78 328.351 112.76 328.691 112.76C329.591 112.8 330.591 113.12 331.271 113.48V111.34C330.631 111.06 329.511 110.74 328.251 110.74C326.031 110.74 324.551 111.92 324.551 113.68C324.551 115.56 325.831 116.32 327.651 116.88C328.951 117.28 329.631 117.56 329.631 118.26ZM343.237 121V111H340.817V115.96C340.817 117.72 339.657 119.04 338.037 119.04C336.677 119.04 336.417 118.02 336.417 116.84V111H333.977V117.26C333.977 119.84 335.077 121.26 337.417 121.26C339.277 121.26 340.577 119.92 340.977 119H341.017C340.997 119.08 340.937 119.34 340.937 119.74L340.997 121H343.237ZM346.463 111V121H348.903V116.5C348.903 114.72 349.643 112.96 351.523 112.96C352.823 112.96 353.063 113.98 353.063 115.12V121H355.503V116.5C355.503 114.74 356.163 112.96 358.083 112.96C359.323 112.96 359.663 113.94 359.663 115.12V121H362.103V114.74C362.103 112.14 360.963 110.74 358.623 110.74C357.163 110.74 355.903 111.7 355.203 112.88C354.883 111.76 354.043 111.08 352.983 110.86C352.663 110.78 352.323 110.76 351.983 110.78C350.503 110.86 349.223 111.8 348.743 113H348.703C348.703 112.92 348.783 112.66 348.783 112.28L348.723 111H346.463Z" fill="black"/>
<defs>
<linearGradient id="paint0_linear_272_418" x1="282" y1="182" x2="201.795" y2="189.922" gradientUnits="userSpaceOnUse">
<stop offset="0.210937" stop-color="#FFBB33"/>
<stop offset="0.551829" stop-color="#E300BD"/>
<stop offset="0.926448" stop-color="#FF006A"/>
</linearGradient>
<linearGradient id="paint1_linear_272_418" x1="242" y1="182" x2="242" y2="192" gradientUnits="userSpaceOnUse">
<stop offset="0.546667" stop-opacity="0"/>
<stop offset="1" stop-opacity="0.3"/>
</linearGradient>
</defs>
</svg>
