<svg width="464" height="224" viewBox="0 0 464 224" fill="none" xmlns="http://www.w3.org/2000/svg">
<rect x="32" y="32" width="60" height="10" rx="5" fill="url(#paint0_linear_272_481)"/>
<rect x="32" y="32" width="60" height="10" rx="5" fill="url(#paint1_linear_272_481)"/>
<rect x="112" y="32" width="320" height="10" rx="5" fill="#333333"/>
<rect x="172" y="60" width="150" height="10" rx="5" fill="#333333"/>
<rect x="72" y="60" width="80" height="10" rx="5" fill="#333333"/>
<rect x="72" y="154" width="180" height="10" rx="5" fill="#333333"/>
<rect x="272" y="154" width="140" height="10" rx="5" fill="#333333"/>
<rect x="32" y="182" width="80" height="10" rx="5" fill="#333333"/>
<rect x="132" y="182" width="180" height="10" rx="5" fill="#333333"/>
<rect x="72.5" y="88.5" width="187" height="47" rx="23.5" fill="#0D0D0D"/>
<path d="M93.68 121H95.54V116.64C95.54 114.7 96.66 112.56 98.6 112.56C98.86 112.56 99.04 112.6 99.12 112.62V110.82C99.04 110.8 98.8 110.76 98.52 110.76C97.08 110.76 96.02 111.72 95.44 113.14H95.42C95.4 113.08 95.46 112.78 95.44 112.4L95.42 111H93.68V121ZM105.478 110.76C102.718 110.76 100.578 112.98 100.578 116C100.578 119.1 102.718 121.24 105.878 121.24C107.498 121.24 108.838 120.82 109.618 120.38V118.68C108.778 119.22 107.358 119.62 105.998 119.62C103.898 119.62 102.578 118.38 102.518 116.42V116.4H109.958C109.958 116.2 109.998 115.82 109.998 115.42C109.998 112.96 108.418 110.76 105.478 110.76ZM108.158 115.08H102.538C102.698 113.64 103.738 112.32 105.458 112.32C107.238 112.32 108.178 113.64 108.158 115.08ZM112.746 106.6V121H114.606V106.6H112.746ZM117.954 113.22C118.554 112.86 119.834 112.38 121.214 112.38C122.794 112.38 123.834 112.98 123.834 114.72V115.22C119.654 114.64 117.314 115.86 117.314 118.3C117.314 120.14 118.634 121.24 120.474 121.24C122.734 121.24 123.834 119.3 123.954 119.02H123.994C123.994 119.02 123.914 119.34 123.934 119.82L123.954 121H125.674V114.62C125.674 112.12 124.294 110.76 121.474 110.76C119.834 110.76 118.514 111.2 117.954 111.5V113.22ZM120.794 119.74C119.794 119.74 119.154 119.12 119.154 118.24C119.154 116.88 120.534 116 123.794 116.52C123.794 118.08 122.494 119.74 120.794 119.74ZM127.117 125.46C127.337 125.56 127.877 125.64 128.397 125.64C131.037 125.64 132.157 123.82 133.517 120.54L137.457 111H135.397L134.017 114.62C133.537 115.86 132.817 117.86 132.317 119C131.797 117.54 131.197 116.08 130.637 114.62L129.237 111H127.177L131.357 120.88C130.597 122.7 129.797 124.04 128.197 124.04C127.697 124.04 127.337 123.98 127.117 123.92V125.46ZM143.368 110.76C140.608 110.76 138.468 112.98 138.468 116C138.468 119.1 140.608 121.24 143.768 121.24C145.388 121.24 146.728 120.82 147.508 120.38V118.68C146.668 119.22 145.248 119.62 143.888 119.62C141.788 119.62 140.468 118.38 140.408 116.42V116.4H147.848C147.848 116.2 147.888 115.82 147.888 115.42C147.888 112.96 146.308 110.76 143.368 110.76ZM146.048 115.08H140.428C140.588 113.64 141.628 112.32 143.348 112.32C145.128 112.32 146.068 113.64 146.048 115.08ZM159.814 106.6H157.954V111.76C157.954 112.28 158.014 112.58 158.014 112.58H157.974C157.434 111.64 156.114 110.76 154.494 110.76C151.894 110.76 149.894 112.86 149.894 116C149.894 119.1 151.894 121.24 154.534 121.24C156.154 121.24 157.554 120.2 158.074 119.08H158.114C158.114 119.08 158.054 119.38 158.054 119.82L158.094 121H159.814V106.6ZM154.794 112.38C156.294 112.38 157.934 113.5 157.934 116C157.934 118.5 156.294 119.62 154.794 119.62C152.934 119.62 151.694 118.08 151.694 116C151.694 113.88 152.934 112.38 154.794 112.38ZM162.548 120.12C162.548 120.78 163.008 121.24 163.708 121.24C164.388 121.24 164.868 120.78 164.868 120.12C164.868 119.44 164.388 118.98 163.708 118.98C163.008 118.98 162.548 119.44 162.548 120.12ZM166.13 111V112.52H167.77V118.26C167.77 120.5 169.29 121.24 170.73 121.24C171.71 121.24 172.53 121.02 172.97 120.78V119.16C172.41 119.42 171.71 119.6 171.09 119.6C170.25 119.6 169.61 119.12 169.61 117.7V112.52H172.63V111H169.61V108H167.79V111H166.13ZM174.891 121H176.751V116.64C176.751 114.7 177.871 112.56 179.811 112.56C180.071 112.56 180.251 112.6 180.331 112.62V110.82C180.251 110.8 180.011 110.76 179.731 110.76C178.291 110.76 177.231 111.72 176.651 113.14H176.631C176.611 113.08 176.671 112.78 176.651 112.4L176.631 111H174.891V121ZM182.629 111V121H184.489V111H182.629ZM182.389 108.1C182.389 108.76 182.849 109.22 183.549 109.22C184.229 109.22 184.709 108.76 184.709 108.1C184.709 107.42 184.229 106.96 183.549 106.96C182.849 106.96 182.389 107.42 182.389 108.1ZM190.156 118.58C190.156 118.2 190.876 117.86 191.776 117.78H191.796C193.896 117.66 195.456 116.26 195.456 114.3C195.456 113.5 195.116 112.8 194.576 112.3L194.696 112.32C194.696 112.32 194.996 112.4 195.256 112.4H196.636V111H192.996C192.536 110.84 191.976 110.76 191.416 110.76C189.136 110.76 187.356 112.2 187.356 114.3C187.356 115.82 188.296 117.02 189.716 117.54C188.856 117.82 188.336 118.36 188.336 118.94C188.336 119.62 188.916 120.1 189.876 120.22C188.336 120.52 187.116 121.5 187.116 122.68C187.116 124.46 188.976 125.38 191.696 125.38C194.536 125.38 196.496 124.22 196.496 122.3C196.496 120.48 195.056 119.72 192.516 119.44C190.796 119.24 190.156 119.08 190.156 118.58ZM191.416 116.48C190.056 116.48 189.096 115.58 189.096 114.34C189.096 113.1 190.056 112.18 191.416 112.18C192.816 112.18 193.756 113.1 193.756 114.34C193.756 115.58 192.816 116.48 191.416 116.48ZM191.716 124.06C190.076 124.06 188.916 123.52 188.916 122.46C188.916 121.56 190.016 120.78 191.576 120.78C193.836 120.78 194.636 121.5 194.636 122.42C194.636 123.4 193.516 124.06 191.716 124.06ZM200.957 118.58C200.957 118.2 201.677 117.86 202.577 117.78H202.597C204.697 117.66 206.257 116.26 206.257 114.3C206.257 113.5 205.917 112.8 205.377 112.3L205.497 112.32C205.497 112.32 205.797 112.4 206.057 112.4H207.437V111H203.797C203.337 110.84 202.777 110.76 202.217 110.76C199.937 110.76 198.157 112.2 198.157 114.3C198.157 115.82 199.097 117.02 200.517 117.54C199.657 117.82 199.137 118.36 199.137 118.94C199.137 119.62 199.717 120.1 200.677 120.22C199.137 120.52 197.917 121.5 197.917 122.68C197.917 124.46 199.777 125.38 202.497 125.38C205.337 125.38 207.297 124.22 207.297 122.3C207.297 120.48 205.857 119.72 203.317 119.44C201.597 119.24 200.957 119.08 200.957 118.58ZM202.217 116.48C200.857 116.48 199.897 115.58 199.897 114.34C199.897 113.1 200.857 112.18 202.217 112.18C203.617 112.18 204.557 113.1 204.557 114.34C204.557 115.58 203.617 116.48 202.217 116.48ZM202.517 124.06C200.877 124.06 199.717 123.52 199.717 122.46C199.717 121.56 200.817 120.78 202.377 120.78C204.637 120.78 205.437 121.5 205.437 122.42C205.437 123.4 204.317 124.06 202.517 124.06ZM213.7 110.76C210.94 110.76 208.8 112.98 208.8 116C208.8 119.1 210.94 121.24 214.1 121.24C215.72 121.24 217.06 120.82 217.84 120.38V118.68C217 119.22 215.58 119.62 214.22 119.62C212.12 119.62 210.8 118.38 210.74 116.42V116.4H218.18C218.18 116.2 218.22 115.82 218.22 115.42C218.22 112.96 216.64 110.76 213.7 110.76ZM216.38 115.08H210.76C210.92 113.64 211.96 112.32 213.68 112.32C215.46 112.32 216.4 113.64 216.38 115.08ZM220.828 121H222.688V116.64C222.688 114.7 223.808 112.56 225.748 112.56C226.008 112.56 226.188 112.6 226.268 112.62V110.82C226.188 110.8 225.948 110.76 225.668 110.76C224.228 110.76 223.168 111.72 222.588 113.14H222.568C222.548 113.08 222.608 112.78 222.588 112.4L222.568 111H220.828V121ZM230.346 122.34H232.286C230.846 119.92 230.026 116.82 230.026 113.8C230.026 110.78 230.846 107.68 232.286 105.26H230.346C228.946 107.58 228.146 110.6 228.146 113.8C228.146 117 228.946 120.02 230.346 122.34ZM236.022 105.26H234.082C235.522 107.68 236.342 110.78 236.342 113.8C236.342 116.82 235.522 119.92 234.082 122.34H236.022C237.422 120.02 238.222 117 238.222 113.8C238.222 110.6 237.422 107.58 236.022 105.26Z" fill="#FFE14D"/>
<rect x="72.5" y="88.5" width="187" height="47" rx="23.5" stroke="white" stroke-dasharray="3 3"/>
<rect x="256" y="88" width="124" height="48" rx="24" fill="white"/>
<path d="M301.069 99.9315C300.958 99.8198 300.791 99.7832 300.643 99.8368L277.08 108.368C276.927 108.424 276.821 108.566 276.813 108.73C276.805 108.893 276.895 109.045 277.043 109.116L285.528 113.189L293.192 107.524C293.38 107.385 293.615 107.621 293.476 107.808L287.811 115.472L291.884 123.957C291.952 124.098 292.095 124.187 292.25 124.187C292.257 124.187 292.264 124.187 292.27 124.187C292.434 124.179 292.576 124.073 292.632 123.92L301.164 100.357C301.217 100.209 301.18 100.043 301.069 99.9315Z" fill="black"/>
<path d="M317.1 121.26C320.32 121.26 322.24 119.74 322.24 117.22C322.24 114.94 320.8 113.82 318.16 112.84C315.96 112.04 315.2 111.36 315.2 110.34C315.2 109.24 316.3 108.56 317.94 108.56C319.24 108.56 320.62 108.96 321.44 109.42V107.06C320.58 106.7 319.2 106.34 317.76 106.34C314.84 106.34 312.74 107.86 312.74 110.38C312.74 112.72 314.14 113.84 316.78 114.78C318.98 115.56 319.8 116.18 319.8 117.32C319.8 118.1 319.18 118.62 318.16 118.86C317.74 118.98 317.24 119.02 316.72 119.02C315.28 118.98 313.9 118.5 312.88 117.98V120.44C313.88 120.86 315.44 121.26 317.1 121.26ZM328.659 110.74C325.839 110.74 323.659 112.98 323.659 116C323.659 119.08 325.799 121.26 329.119 121.26C330.799 121.26 332.139 120.86 332.839 120.48V118.34C332.159 118.76 330.699 119.18 329.299 119.18C327.459 119.18 326.259 118.18 326.199 116.5H333.179C333.179 116.32 333.239 115.88 333.239 115.42C333.239 112.94 331.659 110.74 328.659 110.74ZM330.879 115.08H326.199C326.319 113.82 327.179 112.7 328.619 112.7C330.119 112.7 330.899 113.82 330.879 115.08ZM335.592 111V121H338.032V116.04C338.032 114.28 339.212 112.96 340.872 112.96C342.232 112.96 342.512 114 342.512 115.16V121H344.952V114.74C344.952 112.16 343.852 110.74 341.492 110.74C339.592 110.74 338.272 112.08 337.872 113H337.832C337.832 112.92 337.912 112.66 337.912 112.28L337.852 111H335.592ZM357.417 106.6H354.977V111.56C354.977 112.1 355.037 112.38 355.037 112.38H354.997C354.457 111.52 353.237 110.74 351.697 110.74C349.137 110.74 347.097 112.78 347.097 116C347.097 119.18 349.137 121.26 351.757 121.26C353.297 121.26 354.657 120.32 355.137 119.26H355.177C355.177 119.26 355.117 119.54 355.137 119.96L355.177 121H357.417V106.6ZM352.157 112.82C353.497 112.82 354.917 113.84 354.917 116C354.917 118.16 353.497 119.18 352.157 119.18C350.537 119.18 349.417 117.86 349.417 116C349.417 114.12 350.537 112.82 352.157 112.82Z" fill="black"/>
<defs>
<linearGradient id="paint0_linear_272_481" x1="92" y1="32" x2="31.5907" y2="36.4748" gradientUnits="userSpaceOnUse">
<stop offset="0.210937" stop-color="#FFBB33"/>
<stop offset="0.551829" stop-color="#E300BD"/>
<stop offset="0.926448" stop-color="#FF006A"/>
</linearGradient>
<linearGradient id="paint1_linear_272_481" x1="62" y1="32" x2="62" y2="42" gradientUnits="userSpaceOnUse">
<stop offset="0.546667" stop-opacity="0"/>
<stop offset="1" stop-opacity="0.3"/>
</linearGradient>
</defs>
</svg>
