<svg width="464" height="224" viewBox="0 0 464 224" fill="none" xmlns="http://www.w3.org/2000/svg">
<rect x="32" y="32" width="60" height="10" rx="5" fill="url(#paint0_linear_505_1859)"/>
<rect x="32" y="32" width="60" height="10" rx="5" fill="url(#paint1_linear_505_1859)"/>
<rect x="112" y="32" width="320" height="10" rx="5" fill="#333333"/>
<rect x="172" y="60" width="150" height="10" rx="5" fill="#333333"/>
<rect x="72" y="60" width="80" height="10" rx="5" fill="#333333"/>
<rect x="72" y="154" width="180" height="10" rx="5" fill="#333333"/>
<rect x="272" y="154" width="140" height="10" rx="5" fill="#333333"/>
<rect x="32" y="182" width="80" height="10" rx="5" fill="#333333"/>
<rect x="132" y="182" width="180" height="10" rx="5" fill="#333333"/>
<rect x="72.5" y="88.5" width="164" height="47" rx="23.5" fill="#0D0D0D"/>
<path d="M93.82 111V121H95.68V116.08C95.68 114.04 97.08 112.48 99.04 112.48C100.7 112.48 100.94 113.72 100.94 115.1V121H102.8V114.72C102.8 112.22 101.84 110.76 99.38 110.76C97.26 110.76 95.94 112.26 95.56 113.16H95.52C95.54 113.12 95.6 112.82 95.6 112.4L95.56 111H93.82ZM110.444 110.76C107.484 110.76 105.304 112.98 105.304 116C105.304 119.02 107.484 121.24 110.444 121.24C113.424 121.24 115.604 119.02 115.604 116C115.604 112.98 113.424 110.76 110.444 110.76ZM110.444 119.62C108.524 119.62 107.104 118.12 107.104 116C107.104 113.88 108.524 112.38 110.444 112.38C112.384 112.38 113.804 113.88 113.804 116C113.804 118.12 112.384 119.62 110.444 119.62ZM124.53 111C123.51 113.44 122.41 116.06 121.53 118.3C120.65 116.06 119.55 113.44 118.53 111H116.55L121.03 121.24H122.03L126.51 111H124.53ZM136.873 121V111H135.013V115.92C135.013 117.96 133.653 119.52 131.753 119.52C130.093 119.52 129.853 118.28 129.853 116.9V111H127.993V117.28C127.993 119.78 128.953 121.24 131.413 121.24C133.473 121.24 134.753 119.74 135.133 118.84H135.173C135.173 118.88 135.093 119.18 135.093 119.6L135.133 121H136.873ZM139.599 120.12C139.599 120.78 140.059 121.24 140.759 121.24C141.439 121.24 141.919 120.78 141.919 120.12C141.919 119.44 141.439 118.98 140.759 118.98C140.059 118.98 139.599 119.44 139.599 120.12ZM143.18 111V112.52H144.82V118.26C144.82 120.5 146.34 121.24 147.78 121.24C148.76 121.24 149.58 121.02 150.02 120.78V119.16C149.46 119.42 148.76 119.6 148.14 119.6C147.3 119.6 146.66 119.12 146.66 117.7V112.52H149.68V111H146.66V108H144.84V111H143.18ZM151.942 121H153.802V116.64C153.802 114.7 154.922 112.56 156.862 112.56C157.122 112.56 157.302 112.6 157.382 112.62V110.82C157.302 110.8 157.062 110.76 156.782 110.76C155.342 110.76 154.282 111.72 153.702 113.14H153.682C153.662 113.08 153.722 112.78 153.702 112.4L153.682 111H151.942V121ZM159.679 111V121H161.539V111H159.679ZM159.439 108.1C159.439 108.76 159.899 109.22 160.599 109.22C161.279 109.22 161.759 108.76 161.759 108.1C161.759 107.42 161.279 106.96 160.599 106.96C159.899 106.96 159.439 107.42 159.439 108.1ZM167.207 118.58C167.207 118.2 167.927 117.86 168.827 117.78H168.847C170.947 117.66 172.507 116.26 172.507 114.3C172.507 113.5 172.167 112.8 171.627 112.3L171.747 112.32C171.747 112.32 172.047 112.4 172.307 112.4H173.687V111H170.047C169.587 110.84 169.027 110.76 168.467 110.76C166.187 110.76 164.407 112.2 164.407 114.3C164.407 115.82 165.347 117.02 166.767 117.54C165.907 117.82 165.387 118.36 165.387 118.94C165.387 119.62 165.967 120.1 166.927 120.22C165.387 120.52 164.167 121.5 164.167 122.68C164.167 124.46 166.027 125.38 168.747 125.38C171.587 125.38 173.547 124.22 173.547 122.3C173.547 120.48 172.107 119.72 169.567 119.44C167.847 119.24 167.207 119.08 167.207 118.58ZM168.467 116.48C167.107 116.48 166.147 115.58 166.147 114.34C166.147 113.1 167.107 112.18 168.467 112.18C169.867 112.18 170.807 113.1 170.807 114.34C170.807 115.58 169.867 116.48 168.467 116.48ZM168.767 124.06C167.127 124.06 165.967 123.52 165.967 122.46C165.967 121.56 167.067 120.78 168.627 120.78C170.887 120.78 171.687 121.5 171.687 122.42C171.687 123.4 170.567 124.06 168.767 124.06ZM178.008 118.58C178.008 118.2 178.728 117.86 179.628 117.78H179.648C181.748 117.66 183.308 116.26 183.308 114.3C183.308 113.5 182.968 112.8 182.428 112.3L182.548 112.32C182.548 112.32 182.848 112.4 183.108 112.4H184.488V111H180.848C180.388 110.84 179.828 110.76 179.268 110.76C176.988 110.76 175.208 112.2 175.208 114.3C175.208 115.82 176.148 117.02 177.568 117.54C176.708 117.82 176.188 118.36 176.188 118.94C176.188 119.62 176.768 120.1 177.728 120.22C176.188 120.52 174.968 121.5 174.968 122.68C174.968 124.46 176.828 125.38 179.548 125.38C182.388 125.38 184.348 124.22 184.348 122.3C184.348 120.48 182.908 119.72 180.368 119.44C178.648 119.24 178.008 119.08 178.008 118.58ZM179.268 116.48C177.908 116.48 176.948 115.58 176.948 114.34C176.948 113.1 177.908 112.18 179.268 112.18C180.668 112.18 181.608 113.1 181.608 114.34C181.608 115.58 180.668 116.48 179.268 116.48ZM179.568 124.06C177.928 124.06 176.768 123.52 176.768 122.46C176.768 121.56 177.868 120.78 179.428 120.78C181.688 120.78 182.488 121.5 182.488 122.42C182.488 123.4 181.368 124.06 179.568 124.06ZM190.751 110.76C187.991 110.76 185.851 112.98 185.851 116C185.851 119.1 187.991 121.24 191.151 121.24C192.771 121.24 194.111 120.82 194.891 120.38V118.68C194.051 119.22 192.631 119.62 191.271 119.62C189.171 119.62 187.851 118.38 187.791 116.42V116.4H195.231C195.231 116.2 195.271 115.82 195.271 115.42C195.271 112.96 193.691 110.76 190.751 110.76ZM193.431 115.08H187.811C187.971 113.64 189.011 112.32 190.731 112.32C192.511 112.32 193.451 113.64 193.431 115.08ZM197.879 121H199.739V116.64C199.739 114.7 200.859 112.56 202.799 112.56C203.059 112.56 203.239 112.6 203.319 112.62V110.82C203.239 110.8 202.999 110.76 202.719 110.76C201.279 110.76 200.219 111.72 199.639 113.14H199.619C199.599 113.08 199.659 112.78 199.639 112.4L199.619 111H197.879V121ZM207.397 122.34H209.337C207.897 119.92 207.077 116.82 207.077 113.8C207.077 110.78 207.897 107.68 209.337 105.26H207.397C205.997 107.58 205.197 110.6 205.197 113.8C205.197 117 205.997 120.02 207.397 122.34ZM213.073 105.26H211.133C212.573 107.68 213.393 110.78 213.393 113.8C213.393 116.82 212.573 119.92 211.133 122.34H213.073C214.473 120.02 215.273 117 215.273 113.8C215.273 110.6 214.473 107.58 213.073 105.26Z" fill="#FFE14D"/>
<rect x="72.5" y="88.5" width="164" height="47" rx="23.5" stroke="white" stroke-dasharray="3 3"/>
<rect x="228" y="88" width="124" height="48" rx="24" fill="white"/>
<path d="M273.069 99.9315C272.958 99.8198 272.791 99.7832 272.643 99.8368L249.08 108.368C248.927 108.424 248.821 108.566 248.813 108.73C248.805 108.893 248.895 109.045 249.043 109.116L257.528 113.189L265.192 107.524C265.38 107.385 265.615 107.621 265.476 107.808L259.811 115.472L263.884 123.957C263.952 124.098 264.095 124.187 264.25 124.187C264.257 124.187 264.264 124.187 264.27 124.187C264.434 124.179 264.576 124.073 264.632 123.92L273.164 100.357C273.217 100.209 273.18 100.043 273.069 99.9315Z" fill="black"/>
<path d="M289.1 121.26C292.32 121.26 294.24 119.74 294.24 117.22C294.24 114.94 292.8 113.82 290.16 112.84C287.96 112.04 287.2 111.36 287.2 110.34C287.2 109.24 288.3 108.56 289.94 108.56C291.24 108.56 292.62 108.96 293.44 109.42V107.06C292.58 106.7 291.2 106.34 289.76 106.34C286.84 106.34 284.74 107.86 284.74 110.38C284.74 112.72 286.14 113.84 288.78 114.78C290.98 115.56 291.8 116.18 291.8 117.32C291.8 118.1 291.18 118.62 290.16 118.86C289.74 118.98 289.24 119.02 288.72 119.02C287.28 118.98 285.9 118.5 284.88 117.98V120.44C285.88 120.86 287.44 121.26 289.1 121.26ZM300.659 110.74C297.839 110.74 295.659 112.98 295.659 116C295.659 119.08 297.799 121.26 301.119 121.26C302.799 121.26 304.139 120.86 304.839 120.48V118.34C304.159 118.76 302.699 119.18 301.299 119.18C299.459 119.18 298.259 118.18 298.199 116.5H305.179C305.179 116.32 305.239 115.88 305.239 115.42C305.239 112.94 303.659 110.74 300.659 110.74ZM302.879 115.08H298.199C298.319 113.82 299.179 112.7 300.619 112.7C302.119 112.7 302.899 113.82 302.879 115.08ZM307.592 111V121H310.032V116.04C310.032 114.28 311.212 112.96 312.872 112.96C314.232 112.96 314.512 114 314.512 115.16V121H316.952V114.74C316.952 112.16 315.852 110.74 313.492 110.74C311.592 110.74 310.272 112.08 309.872 113H309.832C309.832 112.92 309.912 112.66 309.912 112.28L309.852 111H307.592ZM329.417 106.6H326.977V111.56C326.977 112.1 327.037 112.38 327.037 112.38H326.997C326.457 111.52 325.237 110.74 323.697 110.74C321.137 110.74 319.097 112.78 319.097 116C319.097 119.18 321.137 121.26 323.757 121.26C325.297 121.26 326.657 120.32 327.137 119.26H327.177C327.177 119.26 327.117 119.54 327.137 119.96L327.177 121H329.417V106.6ZM324.157 112.82C325.497 112.82 326.917 113.84 326.917 116C326.917 118.16 325.497 119.18 324.157 119.18C322.537 119.18 321.417 117.86 321.417 116C321.417 114.12 322.537 112.82 324.157 112.82Z" fill="black"/>
<defs>
<linearGradient id="paint0_linear_505_1859" x1="92" y1="32" x2="31.5907" y2="36.4748" gradientUnits="userSpaceOnUse">
<stop offset="0.210937" stop-color="#FFBB33"/>
<stop offset="0.551829" stop-color="#E300BD"/>
<stop offset="0.926448" stop-color="#FF006A"/>
</linearGradient>
<linearGradient id="paint1_linear_505_1859" x1="62" y1="32" x2="62" y2="42" gradientUnits="userSpaceOnUse">
<stop offset="0.546667" stop-opacity="0"/>
<stop offset="1" stop-opacity="0.3"/>
</linearGradient>
</defs>
</svg>
