<svg width="80" height="80" viewBox="0 0 80 80" fill="none" xmlns="http://www.w3.org/2000/svg">
<circle cx="40" cy="40" r="40" fill="#262626"/>
<path d="M52.4583 41.9167C57.7511 41.9167 62.0417 37.6261 62.0417 32.3333C62.0417 27.0406 57.7511 22.75 52.4583 22.75C47.1656 22.75 42.875 27.0406 42.875 32.3333C42.875 37.6261 47.1656 41.9167 52.4583 41.9167Z" fill="#00D5FF"/>
<path d="M42.8737 42.875H27.5404C27.0111 42.875 26.582 43.3041 26.582 43.8333V59.1667C26.582 59.6959 27.0111 60.125 27.5404 60.125H42.8737C43.403 60.125 43.832 59.6959 43.832 59.1667V43.8333C43.832 43.3041 43.403 42.875 42.8737 42.875Z" fill="#00D5FF"/>
<path d="M20.8332 37.1261H38.0832C38.2528 37.1261 38.4193 37.081 38.5659 36.9955C38.7124 36.9101 38.8336 36.7872 38.9171 36.6396C39.0006 36.492 39.0434 36.3248 39.0412 36.1552C39.039 35.9856 38.9918 35.8196 38.9044 35.6742L30.2794 21.2992C30.1879 21.166 30.0652 21.057 29.9221 20.9818C29.7791 20.9065 29.6198 20.8672 29.4582 20.8672C29.2965 20.8672 29.1372 20.9065 28.9942 20.9818C28.8511 21.057 28.7285 21.166 28.6369 21.2992L20.0119 35.6742C19.9245 35.8196 19.8773 35.9856 19.8751 36.1552C19.8729 36.3248 19.9157 36.492 19.9992 36.6396C20.0827 36.7872 20.2039 36.9101 20.3504 36.9955C20.497 37.081 20.6635 37.1261 20.8332 37.1261Z" fill="#00D5FF"/>
</svg>
