<svg width="80" height="80" viewBox="0 0 80 80" fill="none" xmlns="http://www.w3.org/2000/svg">
<circle cx="40" cy="40" r="40" fill="#262626"/>
<path d="M60.7203 31.0273L48.9794 19.2864C48.8913 19.1965 48.7864 19.125 48.6706 19.0758C48.5547 19.0267 48.4304 19.0009 48.3045 19H31.6955C31.4423 19.0001 31.1996 19.1007 31.0206 19.2797L19.2797 31.0273C19.1023 31.2046 19.0018 31.4446 19 31.6955V48.3045C19.0001 48.5577 19.1007 48.8004 19.2797 48.9794L31.0206 60.7203C31.1996 60.8993 31.4423 60.9999 31.6955 61H48.3045C48.5577 60.9999 48.8004 60.8993 48.9794 60.7203L60.7203 48.9794C60.8993 48.8004 60.9999 48.5577 61 48.3045V31.6955C60.9982 31.4446 60.8977 31.2046 60.7203 31.0273ZM50.5 44.7727C50.5 46.798 49.6955 48.7404 48.2634 50.1724C46.8313 51.6045 44.8889 52.4091 42.8636 52.4091H37.8456C36.4751 52.409 35.1298 52.0402 33.951 51.3412C32.7721 50.6422 31.8031 49.6388 31.1456 48.4363L26.8273 40.545H26.833C26.7031 40.3059 26.6343 40.0383 26.6325 39.7661C26.6305 39.4201 26.7362 39.082 26.9351 38.7988C27.1341 38.5156 27.4162 38.3014 27.7425 38.1859C28.0687 38.0705 28.4228 38.0595 28.7555 38.1545C29.0883 38.2495 29.3832 38.4458 29.5993 38.7161H29.605L33.3182 42.6546V29.0227C33.3182 28.643 33.469 28.2788 33.7376 28.0103C34.0061 27.7418 34.3703 27.5909 34.75 27.5909C35.1297 27.5909 35.4939 27.7418 35.7624 28.0103C36.031 28.2788 36.1818 28.643 36.1818 29.0227V37.1364C36.1818 37.3895 36.2824 37.6323 36.4614 37.8113C36.6404 37.9903 36.8832 38.0909 37.1364 38.0909C37.3895 38.0909 37.6323 37.9903 37.8113 37.8113C37.9903 37.6323 38.0909 37.3895 38.0909 37.1364V28.0682C38.0909 27.6884 38.2418 27.3243 38.5103 27.0557C38.7788 26.7872 39.143 26.6364 39.5227 26.6364C39.9025 26.6364 40.2667 26.7872 40.5352 27.0557C40.8037 27.3243 40.9545 27.6884 40.9545 28.0682V37.1364C40.9545 37.3895 41.0551 37.6323 41.2341 37.8113C41.4131 37.9903 41.6559 38.0909 41.9091 38.0909C42.1623 38.0909 42.405 37.9903 42.5841 37.8113C42.7631 37.6323 42.8636 37.3895 42.8636 37.1364V29.0227C42.8636 28.643 43.0145 28.2788 43.283 28.0103C43.5515 27.7418 43.9157 27.5909 44.2955 27.5909C44.6752 27.5909 45.0394 27.7418 45.3079 28.0103C45.5764 28.2788 45.7273 28.643 45.7273 29.0227V38.0909C45.7273 38.3441 45.8278 38.5869 46.0069 38.7659C46.1859 38.9449 46.4287 39.0455 46.6818 39.0455C46.935 39.0455 47.1778 38.9449 47.3568 38.7659C47.5358 38.5869 47.6364 38.3441 47.6364 38.0909V32.3636C47.6364 31.9839 47.7872 31.6197 48.0557 31.3512C48.3242 31.0827 48.6884 30.9318 49.0682 30.9318C49.4479 30.9318 49.8121 31.0827 50.0806 31.3512C50.3491 31.6197 50.5 31.9839 50.5 32.3636V44.7727Z" fill="#FFE14D"/>
</svg>
