<svg width="36" height="36" viewBox="0 0 36 36" fill="none" xmlns="http://www.w3.org/2000/svg">
<path fill-rule="evenodd" clip-rule="evenodd" d="M35.2878 31.2027C34.9379 32.0915 34.1304 33.3431 32.9853 34.2247C32.3242 34.7339 31.5349 35.2206 30.4508 35.5418C29.2951 35.8843 27.8716 36 26.0998 36H9.90003C8.12844 36 6.70493 35.8843 5.5491 35.5418C4.46495 35.2206 3.6758 34.7339 3.01455 34.2247C1.86959 33.343 1.06198 32.0915 0.712039 31.2027C0.00715291 29.4118 0 27.3798 0 26.1V9.89997C0 8.62023 0.00715291 6.58824 0.712039 4.79733C1.06198 3.90845 1.86944 2.6569 3.01455 1.77532C3.67565 1.26614 4.46495 0.77943 5.5491 0.458244C6.70479 0.115741 8.1283 0 9.90003 0H26.1C27.8716 0 29.2951 0.115741 30.4509 0.458244C31.5351 0.77943 32.3242 1.26629 32.9855 1.77532C34.1304 2.65704 34.938 3.90845 35.288 4.79733C35.9928 6.58824 36 8.62023 36 9.89997V26.1C35.9999 27.3796 35.9927 29.4116 35.2878 31.2027Z" fill="white"/>
<path d="M20.6016 20.6943C20.0614 20.1244 19.1126 19.759 17.9926 19.759C16.8723 19.759 15.9235 20.1244 15.3833 20.6943C15.1015 20.9918 14.9524 21.2966 14.9055 21.731C14.8145 22.5721 14.8656 23.2963 14.9641 24.4541C15.058 25.5575 15.2362 27.0288 15.4689 28.5273C15.6344 29.5937 15.7689 30.1692 15.8913 30.5814C16.0899 31.2494 16.832 31.8335 17.9926 31.8335C19.153 31.8335 19.895 31.2493 20.0936 30.5814C20.2161 30.1692 20.3506 29.5937 20.5161 28.5273C20.7487 27.0288 20.927 25.5575 21.0208 24.4541C21.1194 23.2962 21.1705 22.572 21.0795 21.731C21.0326 21.2968 20.8835 20.9918 20.6016 20.6943ZM15.0491 15.6193C15.0491 17.2464 16.3682 18.5655 17.9953 18.5655C19.6225 18.5655 20.9416 17.2464 20.9416 15.6193C20.9416 13.9921 19.6225 12.673 17.9953 12.673C16.3682 12.673 15.0491 13.9921 15.0491 15.6193ZM17.9588 3.99224C11.0683 4.01184 5.4222 9.60191 5.33693 16.492C5.26769 22.0735 8.8306 26.8479 13.8057 28.5979C13.9265 28.6404 14.0491 28.5401 14.0301 28.4135C13.9648 27.9802 13.9033 27.5447 13.8468 27.1165C13.8268 26.9651 13.7303 26.8346 13.5906 26.7735C9.65824 25.0556 6.91237 21.1118 6.95644 16.5435C7.01424 10.5484 11.9097 5.66098 17.9047 5.61248C24.0335 5.56297 29.0352 10.5343 29.0352 16.6518C29.0352 21.1743 26.3014 25.0698 22.3997 26.774C22.2599 26.8351 22.1641 26.966 22.1442 27.1172C22.0877 27.5453 22.0262 27.9806 21.9611 28.4135C21.9419 28.5401 22.0645 28.6404 22.1852 28.5981C27.1129 26.8648 30.655 22.1646 30.655 16.652C30.6548 9.65899 24.956 3.97221 17.9588 3.99224ZM17.73 9.80005C21.6362 9.64883 24.862 12.7826 24.862 16.6557C24.862 18.6254 24.0275 20.4038 22.6937 21.6562C22.5805 21.7623 22.5197 21.9131 22.5285 22.0681C22.5551 22.5392 22.5453 22.997 22.514 23.514C22.5056 23.6518 22.6601 23.7398 22.7741 23.6621C25.0108 22.1336 26.4819 19.5634 26.4819 16.6557C26.4819 11.8681 22.4941 7.99426 17.6658 8.18139C13.1787 8.35536 9.57869 12.0549 9.52118 16.5452C9.48341 19.4984 10.9636 22.1147 13.229 23.6624C13.3428 23.7401 13.4968 23.652 13.4884 23.5143C13.4569 22.997 13.4473 22.5392 13.4738 22.0681C13.4825 21.9133 13.4219 21.7625 13.309 21.6565C11.9336 20.3651 11.0889 18.5146 11.1427 16.4716C11.2374 12.8763 14.1361 9.93926 17.73 9.80005Z" fill="#1A1A1A"/>
</svg>
