<svg width="16" height="16" viewBox="0 0 16 16" fill="none" xmlns="http://www.w3.org/2000/svg">
<path fill-rule="evenodd" clip-rule="evenodd" d="M2.54201 4.33333C3.45512 4.33333 4.19534 3.58714 4.19534 2.66667C4.19534 1.74619 3.45512 1 2.54201 1C1.62889 1 0.888672 1.74619 0.888672 2.66667C0.888672 3.58714 1.62889 4.33333 2.54201 4.33333ZM3.88879 5.66636H1.22212C1.03803 5.66636 0.888787 5.8156 0.888787 5.99969V14.6664C0.888787 14.8505 1.03803 14.9997 1.22212 14.9997H3.88879C4.07288 14.9997 4.22212 14.8505 4.22212 14.6664V5.99969C4.22212 5.8156 4.07288 5.66636 3.88879 5.66636ZM13.8889 15.0003H11.8889C11.8005 15.0003 11.7157 14.9652 11.6532 14.9027C11.5907 14.8402 11.5556 14.7554 11.5556 14.667V9.66701C11.5556 9.22498 11.38 8.80106 11.0675 8.4885C10.7549 8.17594 10.331 8.00034 9.88894 8.00034C9.44691 8.00034 9.02299 8.17594 8.71043 8.4885C8.39787 8.80106 8.22227 9.22498 8.22227 9.66701V14.667C8.22227 14.7554 8.18715 14.8402 8.12464 14.9027C8.06213 14.9652 7.97735 15.0003 7.88894 15.0003H5.88894C5.80053 15.0003 5.71575 14.9652 5.65324 14.9027C5.59073 14.8402 5.55561 14.7554 5.55561 14.667V6.00034C5.55561 5.91194 5.59073 5.82715 5.65324 5.76464C5.71575 5.70213 5.80053 5.66701 5.88894 5.66701H7.88894C7.97735 5.66701 8.06213 5.70213 8.12464 5.76464C8.18715 5.82715 8.22227 5.91194 8.22227 6.00034C8.22205 6.05617 8.23892 6.11074 8.27063 6.15669C8.30233 6.20264 8.34735 6.23779 8.39963 6.25739C8.45191 6.27699 8.50893 6.28012 8.56304 6.26635C8.61715 6.25257 8.66573 6.22256 8.70227 6.18034C8.97584 5.89942 9.30524 5.67894 9.66924 5.53311C10.0332 5.38728 10.4237 5.31934 10.8156 5.33368C12.8023 5.33368 14.2223 6.55368 14.2223 9.06701V14.667C14.2223 14.7554 14.1872 14.8402 14.1246 14.9027C14.0621 14.9652 13.9773 15.0003 13.8889 15.0003Z" fill="#0B0C0F"/>
</svg>
