<svg width="40" height="40" viewBox="0 0 40 40" fill="none" xmlns="http://www.w3.org/2000/svg">
<path fill-rule="evenodd" clip-rule="evenodd" d="M30.8 16.0322C30.8 17.1076 29.4944 17.6401 28.7423 16.8714L13.3446 1.13406C15.4266 0.399587 17.6666 0 20 0C23.9781 0 27.685 1.16147 30.8 3.16379V16.0322ZM36.4 8.5497V16.0322C36.4 22.1262 29.0013 25.1436 24.7395 20.7878L8.18109 3.86409C3.22045 7.50372 0 13.3758 0 20C0 24.2588 1.33112 28.2067 3.6 31.4503V24.0078C3.6 17.9138 10.9987 14.8964 15.2605 19.2522L31.7961 36.1526C36.7697 32.5143 40 26.6344 40 20C40 15.7412 38.6689 11.7933 36.4 8.5497ZM11.2577 23.1686L26.6263 38.8762C24.5525 39.6041 22.3225 40 20 40C16.0219 40 12.315 38.8385 9.2 36.8362V24.0078C9.2 22.9324 10.5056 22.3999 11.2577 23.1686Z" fill="url(#paint0_linear_18141_14808)"/>
<defs>
<linearGradient id="paint0_linear_18141_14808" x1="20" y1="0" x2="20" y2="40" gradientUnits="userSpaceOnUse">
<stop stop-color="white"/>
<stop offset="1" stop-color="white" stop-opacity="0.6"/>
</linearGradient>
</defs>
</svg>
