<svg width="20" height="20" viewBox="0 0 20 20" fill="none" xmlns="http://www.w3.org/2000/svg">
  <g clip-path="url(#clip0_57892_8830)">
    <path
      d="M11.3461 7.00195H8.49609V10.002H11.3461C12.1961 10.002 12.8461 9.35195 12.8461 8.50195C12.8461 7.65195 12.1461 7.00195 11.3461 7.00195Z"
      fill="#FF6154"
    />
    <path
      d="M10 0C4.5 0 0 4.5 0 10C0 15.5 4.5 20 10 20C15.5 20 20 15.5 20 10C20 4.5 15.5 0 10 0ZM11.35 12H8.5V15H6.5V5H11.35C13.3 5 14.85 6.55 14.85 8.5C14.85 10.45 13.25 12 11.35 12Z"
      fill="#FF6154"
    />
  </g>
  <defs>
    <clipPath id="clip0_57892_8830">
      <rect width="20" height="20" fill="white" />
    </clipPath>
  </defs>
</svg>
