<svg width="20" height="20" viewBox="0 0 20 20" fill="none" xmlns="http://www.w3.org/2000/svg">
<g clip-path="url(#clip0_8058_15332)">
<path d="M9.9987 19.1673C15.0613 19.1673 19.1654 15.0633 19.1654 10.0007C19.1654 4.93804 15.0613 0.833984 9.9987 0.833984C4.93609 0.833984 0.832031 4.93804 0.832031 10.0007C0.832031 15.0633 4.93609 19.1673 9.9987 19.1673Z" stroke="white" stroke-width="1.4" stroke-linecap="round" stroke-linejoin="round"/>
<path d="M9.99922 14C9.84099 14 9.68632 14.0469 9.55476 14.1348C9.4232 14.2227 9.32067 14.3477 9.26012 14.4939C9.19957 14.64 9.18372 14.8009 9.21459 14.9561C9.24546 15.1113 9.32165 15.2538 9.43353 15.3657C9.54541 15.4776 9.68796 15.5538 9.84315 15.5846C9.99833 15.6155 10.1592 15.5997 10.3054 15.5391C10.4515 15.4786 10.5765 15.376 10.6644 15.2445C10.7523 15.1129 10.7992 14.9582 10.7992 14.8C10.7992 14.5878 10.7149 14.3843 10.5649 14.2343C10.4149 14.0843 10.2114 14 9.99922 14Z" fill="white"/>
<path d="M7.5 8.33751C7.50007 7.8868 7.62198 7.4445 7.85283 7.0574C8.08368 6.6703 8.41489 6.35281 8.8114 6.13852C9.20791 5.92424 9.65497 5.82113 10.1053 5.84011C10.5556 5.85909 10.9924 5.99945 11.3695 6.24634C11.7465 6.49324 12.0499 6.83747 12.2473 7.24263C12.4448 7.64778 12.529 8.09878 12.4912 8.54789C12.4533 8.99701 12.2947 9.42754 12.0322 9.79391C11.7697 10.1603 11.4131 10.4489 11 10.6292C10.7028 10.7589 10.4499 10.9725 10.2722 11.2438C10.0946 11.5151 10 11.8324 10 12.1567V12.5" stroke="white" stroke-width="1.4" stroke-linecap="round" stroke-linejoin="round"/>
</g>
<defs>
<clipPath id="clip0_8058_15332">
<rect width="20" height="20" fill="white"/>
</clipPath>
</defs>
</svg>
