<svg width="14" height="15" viewBox="0 0 14 15" fill="none" xmlns="http://www.w3.org/2000/svg">
<path d="M5.64332 3.41406H2.74609" stroke="#999999" stroke-linecap="round" stroke-linejoin="round"/>
<path d="M8.36328 3.41406H11.2605" stroke="#999999" stroke-linecap="round" stroke-linejoin="round"/>
<path d="M0.605382 7.69531C0.59916 7.75987 0.585938 7.82287 0.585938 7.88976C0.585938 9.0712 1.54338 10.0286 2.72483 10.0286C3.90627 10.0286 4.86372 9.0712 4.86372 7.88976C4.86372 7.82287 4.84971 7.75987 4.84427 7.69531H0.605382Z" stroke="#999999" stroke-linecap="round" stroke-linejoin="round"/>
<path d="M13.399 7.69531C13.4052 7.75987 13.4184 7.82287 13.4184 7.88976C13.4184 9.0712 12.461 10.0286 11.2795 10.0286C10.0981 10.0286 9.14062 9.0712 9.14062 7.88976C9.14062 7.82287 9.15462 7.75987 9.16007 7.69531H13.399Z" stroke="#999999" stroke-linecap="round" stroke-linejoin="round"/>
<path d="M4.84436 7.69184L2.74436 3.41406L0.605469 7.69184" stroke="#999999" stroke-linecap="round" stroke-linejoin="round"/>
<path d="M9.16016 7.69184L11.2602 3.41406L13.399 7.69184" stroke="#999999" stroke-linecap="round" stroke-linejoin="round"/>
<path d="M7.00174 4.77691C7.75346 4.77691 8.36285 4.16752 8.36285 3.4158C8.36285 2.66408 7.75346 2.05469 7.00174 2.05469C6.25002 2.05469 5.64062 2.66408 5.64062 3.4158C5.64062 4.16752 6.25002 4.77691 7.00174 4.77691Z" stroke="#999999" stroke-linecap="round" stroke-linejoin="round"/>
<path d="M7 4.78125V12.7535" stroke="#999999" stroke-linecap="round" stroke-linejoin="round"/>
<path d="M10.3064 12.75H3.69531" stroke="#999999" stroke-linecap="round" stroke-linejoin="round"/>
</svg>
