<svg width="36" height="36" viewBox="0 0 36 36" fill="none" xmlns="http://www.w3.org/2000/svg">
<path fill-rule="evenodd" clip-rule="evenodd" d="M28.4851 15.9563C28.6738 16.0698 28.8831 16.1447 29.1009 16.1766C29.3187 16.2085 29.5406 16.1968 29.7539 16.1422C29.9671 16.0875 30.1674 15.9911 30.343 15.8584C30.5187 15.7257 30.6662 15.5594 30.777 15.3692C31.0049 14.9862 31.0715 14.5284 30.9622 14.0963C30.853 13.6642 30.5768 13.2931 30.1943 13.0643C23.5492 9.09815 13.0423 8.71545 6.71037 10.655C6.29889 10.7973 5.95855 11.0935 5.76083 11.4814C5.56312 11.8693 5.52342 12.3187 5.65008 12.7353C5.77673 13.1518 6.05988 13.5031 6.44005 13.7153C6.82023 13.9275 7.26783 13.9841 7.68886 13.8732C13.1989 12.1945 22.7142 12.512 28.4851 15.9563ZM28.2938 21.0619C28.4877 20.7449 28.5485 20.3641 28.463 20.0025C28.3775 19.6408 28.1525 19.3276 27.8372 19.131C22.3098 15.7171 14.2296 14.743 7.728 16.7391C7.38238 16.8558 7.09571 17.1024 6.92867 17.4267C6.76162 17.7511 6.72729 18.1276 6.83294 18.4768C6.9386 18.826 7.17595 19.1203 7.49477 19.2976C7.8136 19.4749 8.18889 19.5212 8.54124 19.4267C14.2296 17.6872 21.5878 18.557 26.3716 21.5229C26.5278 21.6196 26.7017 21.6845 26.8832 21.7137C27.0646 21.7429 27.25 21.7358 27.4288 21.693C27.6075 21.6501 27.7759 21.5723 27.9244 21.464C28.0729 21.3557 28.1984 21.219 28.2938 21.0619V21.0619ZM26.1194 25.9631C26.274 25.7091 26.322 25.4042 26.2527 25.115C26.1835 24.8257 26.0027 24.5756 25.7497 24.4192C21.0312 21.5185 15.182 20.8445 8.35424 22.4144C8.09351 22.5052 7.87541 22.6889 7.74165 22.9304C7.60789 23.1719 7.56787 23.4543 7.62924 23.7234C7.69061 23.9926 7.84906 24.2297 8.07429 24.3894C8.29952 24.549 8.5757 24.6201 8.85001 24.5888C15.0819 23.1537 20.3745 23.7191 24.5755 26.3284C24.827 26.4828 25.1295 26.5311 25.4165 26.4626C25.7036 26.3941 25.9517 26.2144 26.1063 25.9631H26.1194ZM17.8957 0.000302739C21.4601 -0.020366 24.9504 1.01772 27.9242 2.98298C30.898 4.94824 33.2213 7.75217 34.5997 11.0394C35.9781 14.3266 36.3495 17.949 35.6668 21.4475C34.9841 24.946 33.278 28.1631 30.7649 30.6909C28.2517 33.2186 25.0447 34.9434 21.5502 35.6464C18.0557 36.3494 14.4312 35.9991 11.1361 34.6399C7.84091 33.2806 5.02352 30.9736 3.041 28.0113C1.05849 25.049 0.000123989 21.5648 6.40649e-05 18.0003C-0.0126428 13.2406 1.86537 8.67065 5.2212 5.29524C8.57703 1.91984 13.136 0.0152752 17.8957 0.000302739V0.000302739Z" fill="white"/>
</svg>
