<svg width="142" height="38" viewBox="0 0 142 38" fill="none" xmlns="http://www.w3.org/2000/svg">
    <path fill-rule="evenodd" clip-rule="evenodd"
        d="M46.3801 11.7745C46.3801 14.0639 45.1317 15.9159 41.7639 17.2866C45.5817 18.3365 47.9044 20.4072 47.8899 23.8777C47.8899 28.4128 44.914 30.5418 40.7623 31.2709C39.7026 31.4604 38.2945 31.5479 36.7122 31.5479H27.0442C27.741 30.4834 28.2926 29.2877 28.2926 27.9316V20.8884L27.6897 21.0073C25.4058 21.4575 23.2642 21.8796 21.2086 22.3758C21.9576 24.4294 22.605 26.2251 23.0371 27.4237C23.3168 28.1996 23.5063 28.7252 23.5748 28.9086C23.5748 28.9377 23.9522 30.0606 25.0554 31.5625H17.7391C18.102 30.3814 17.4198 28.5586 17.4198 28.5586L15.7359 23.7173C14.1391 24.1985 10.7567 25.263 8.8115 26.1525C7.3163 26.8233 5.90821 27.8587 5.38561 29.4189C5.21142 29.9731 5.08077 30.8772 5.18238 31.5625H0C0.972604 30.3085 1.43713 28.9086 1.43713 28.9086L8.52117 9.07684C8.9857 7.80819 9.0728 6.87493 8.97118 6H15.3004C15.3004 6 17.8262 12.9849 20.0908 19.2552C22.1923 18.7456 24.4044 18.3067 26.8105 17.8293C27.2964 17.7329 27.7902 17.6349 28.2926 17.5345V9.60179C28.2926 8.02692 27.6829 6.977 27.0442 6H37.2202C42.9107 6 46.3801 7.77902 46.3801 11.7745ZM7.22921 23.7902C7.67922 23.3382 8.46311 22.857 9.0728 22.5653C10.568 21.8508 13.0503 21.0634 14.6616 20.5967L11.468 11.4391C10.539 14.0931 8.62279 19.7072 7.22921 23.7902ZM35.9573 9.13516C35.3041 9.13516 34.9412 9.13516 33.9395 9.19349V16.4992C35.275 16.2658 36.6251 15.9888 37.438 15.7409C39.3687 15.1576 40.53 14.0639 40.53 12.2995C40.53 10.4476 39.0784 9.13516 35.9573 9.13516ZM33.954 28.3836H36.2912C39.5574 28.3836 42.0107 27.392 42.0252 24.0235C42.0252 21.1363 39.9494 19.9697 37.1332 19.3135C36.2186 19.4156 34.825 19.6635 33.954 19.8676V28.3836ZM51.766 27.9462C51.766 27.9754 51.766 29.6815 50.5176 31.5626H58.6904C57.4419 29.6815 57.4419 27.9754 57.4419 27.9462V9.63102C57.4419 9.60186 57.4419 7.91033 58.6904 6.01465H50.5176C51.766 7.91033 51.766 9.60186 51.766 9.63102V27.9462ZM141.999 13.5684H136.527C136.991 14.3266 136.802 15.537 136.323 16.7619L132.781 26.2548L129.109 16.7619C128.615 15.537 128.441 14.3266 128.905 13.5684H121.836C122.809 14.6037 123.418 15.9307 123.767 16.7619L129.849 31.5627H134.581C134.581 31.5627 134.698 30.3524 135.235 28.9963L140.127 16.7619C140.461 15.9161 141.157 14.4579 141.999 13.5684ZM113.606 12.7803C121.88 12.7803 122.911 19.3277 122.562 23.0899C121.851 23.4398 119.659 23.6002 116.959 23.5856H109.613C110.063 26.9687 112.154 28.1644 115.551 28.1644C117.51 28.1644 119.267 27.5228 120.704 26.7937L122.228 30.1768C120.748 31.0809 118.251 31.9996 115.159 31.9996C107.552 31.9996 104.373 27.9749 104.373 22.1129C104.373 17.5049 106.855 12.7803 113.606 12.7803ZM113.606 16.1196C111.254 16.1196 109.962 17.5924 109.628 20.4942H114.883C116.277 20.4942 117.351 20.4651 117.351 20.4651C117.249 18.0153 116.044 16.1196 113.606 16.1196ZM72.6702 31.5621H79.9139C78.8107 29.8997 78.8107 28.3832 78.8107 28.3686V18.7589C78.8107 15.3175 76.9671 13.2031 73.0767 13.2031C70.5943 13.2031 68.5475 14.326 67.0378 15.6967V13.5677H60.8828C61.9861 15.2446 61.9861 16.7466 61.9861 16.7612V28.354C61.9861 28.3832 61.9861 29.8851 60.8828 31.5475H68.1411C67.0378 29.8851 67.0378 28.3686 67.0378 28.354V18.7589C67.9669 17.7965 69.2879 17.0966 70.7395 17.0966C72.9605 17.0966 73.7734 18.336 73.7734 20.2609V28.354C73.7734 28.3832 73.7734 29.8851 72.6702 31.5621ZM96.9686 24.0819C96.9686 21.253 95.0088 19.5031 91.4378 19.5031H88.8974V28.4712H91.3507C95.4588 28.4712 96.9686 26.6192 96.9686 24.0819ZM95.4734 12.6349C95.4734 10.331 94.0217 9.10606 90.9007 9.10606H88.8974V16.2951C89.331 16.3052 89.9747 16.3013 90.5221 16.2979C90.7627 16.2964 90.9846 16.2951 91.162 16.2951C94.1669 16.2951 95.4734 14.9243 95.4734 12.6349ZM95.6621 31.2855C94.6024 31.4751 93.1362 31.5626 91.5539 31.5626H82.3359C83.0327 30.396 83.2505 29.1419 83.2505 27.9462V9.63102C83.2505 8.55194 83.0182 7.04998 82.3359 6.01465H92.091C97.9266 6.01465 101.164 8.05615 101.164 12.0517C101.164 14.3702 100.075 16.1492 96.8234 17.3887C100.453 18.4386 102.761 20.3197 102.761 23.9507C102.761 28.4712 99.7412 30.571 95.6621 31.2855Z"
        fill="white" />
</svg>