<svg width="1920" height="1000" viewBox="0 0 1920 1000" fill="none" xmlns="http://www.w3.org/2000/svg">
<mask id="mask0_2092_3784" style="mask-type:alpha" maskUnits="userSpaceOnUse" x="0" y="0" width="1920" height="1000">
<rect width="1920" height="1000" fill="#C4C4C4"/>
</mask>
<g mask="url(#mask0_2092_3784)">
<rect opacity="0.07" x="-894" y="-140" width="160" height="1600" transform="rotate(-30 -894 -140)" fill="url(#paint0_linear_2092_3784)"/>
<rect opacity="0.07" x="-709.436" y="-140" width="160" height="1600" transform="rotate(-30 -709.436 -140)" fill="url(#paint1_linear_2092_3784)"/>
<rect opacity="0.07" x="-524.871" y="-140" width="160" height="1600" transform="rotate(-30 -524.871 -140)" fill="url(#paint2_linear_2092_3784)"/>
<rect opacity="0.07" x="-340.307" y="-140" width="160" height="1600" transform="rotate(-30 -340.307 -140)" fill="url(#paint3_linear_2092_3784)"/>
<rect opacity="0.07" x="-155.742" y="-140" width="160" height="1600" transform="rotate(-30 -155.742 -140)" fill="url(#paint4_linear_2092_3784)"/>
<rect opacity="0.07" x="28.8223" y="-140" width="160" height="1600" transform="rotate(-30 28.8223 -140)" fill="url(#paint5_linear_2092_3784)"/>
<rect opacity="0.07" x="213.387" y="-140" width="160" height="1600" transform="rotate(-30 213.387 -140)" fill="url(#paint6_linear_2092_3784)"/>
<rect opacity="0.07" x="397.951" y="-140" width="160" height="1600" transform="rotate(-30 397.951 -140)" fill="url(#paint7_linear_2092_3784)"/>
<rect opacity="0.07" x="582.516" y="-140" width="160" height="1600" transform="rotate(-30 582.516 -140)" fill="url(#paint8_linear_2092_3784)"/>
<rect opacity="0.07" x="767.08" y="-140" width="160" height="1600" transform="rotate(-30 767.08 -140)" fill="url(#paint9_linear_2092_3784)"/>
<rect opacity="0.07" x="951.645" y="-140" width="160" height="1600" transform="rotate(-30 951.645 -140)" fill="url(#paint10_linear_2092_3784)"/>
<rect opacity="0.07" x="1136.21" y="-140" width="160" height="1600" transform="rotate(-30 1136.21 -140)" fill="url(#paint11_linear_2092_3784)"/>
<rect opacity="0.07" x="1320.77" y="-140" width="160" height="1600" transform="rotate(-30 1320.77 -140)" fill="url(#paint12_linear_2092_3784)"/>
<rect opacity="0.07" x="1505.34" y="-140" width="160" height="1600" transform="rotate(-30 1505.34 -140)" fill="url(#paint13_linear_2092_3784)"/>
<rect opacity="0.07" x="1689.9" y="-140" width="160" height="1600" transform="rotate(-30 1689.9 -140)" fill="url(#paint14_linear_2092_3784)"/>
<rect opacity="0.07" x="1874.47" y="-140" width="160" height="1600" transform="rotate(-30 1874.47 -140)" fill="url(#paint15_linear_2092_3784)"/>
</g>
<rect width="1920" height="1000" fill="url(#paint16_radial_2092_3784)"/>
<defs>
<linearGradient id="paint0_linear_2092_3784" x1="-894" y1="572" x2="-814" y2="572" gradientUnits="userSpaceOnUse">
<stop stop-color="white"/>
<stop offset="1" stop-color="white" stop-opacity="0"/>
</linearGradient>
<linearGradient id="paint1_linear_2092_3784" x1="-709.436" y1="572" x2="-629.436" y2="572" gradientUnits="userSpaceOnUse">
<stop stop-color="white"/>
<stop offset="1" stop-color="white" stop-opacity="0"/>
</linearGradient>
<linearGradient id="paint2_linear_2092_3784" x1="-524.871" y1="572" x2="-444.871" y2="572" gradientUnits="userSpaceOnUse">
<stop stop-color="white"/>
<stop offset="1" stop-color="white" stop-opacity="0"/>
</linearGradient>
<linearGradient id="paint3_linear_2092_3784" x1="-340.307" y1="572" x2="-260.307" y2="572" gradientUnits="userSpaceOnUse">
<stop stop-color="white"/>
<stop offset="1" stop-color="white" stop-opacity="0"/>
</linearGradient>
<linearGradient id="paint4_linear_2092_3784" x1="-155.742" y1="572" x2="-75.7422" y2="572" gradientUnits="userSpaceOnUse">
<stop stop-color="white"/>
<stop offset="1" stop-color="white" stop-opacity="0"/>
</linearGradient>
<linearGradient id="paint5_linear_2092_3784" x1="28.8223" y1="572" x2="108.822" y2="572" gradientUnits="userSpaceOnUse">
<stop stop-color="white"/>
<stop offset="1" stop-color="white" stop-opacity="0"/>
</linearGradient>
<linearGradient id="paint6_linear_2092_3784" x1="213.387" y1="572" x2="293.387" y2="572" gradientUnits="userSpaceOnUse">
<stop stop-color="white"/>
<stop offset="1" stop-color="white" stop-opacity="0"/>
</linearGradient>
<linearGradient id="paint7_linear_2092_3784" x1="397.951" y1="572" x2="477.951" y2="572" gradientUnits="userSpaceOnUse">
<stop stop-color="white"/>
<stop offset="1" stop-color="white" stop-opacity="0"/>
</linearGradient>
<linearGradient id="paint8_linear_2092_3784" x1="582.516" y1="572" x2="662.516" y2="572" gradientUnits="userSpaceOnUse">
<stop stop-color="white"/>
<stop offset="1" stop-color="white" stop-opacity="0"/>
</linearGradient>
<linearGradient id="paint9_linear_2092_3784" x1="767.08" y1="572" x2="847.08" y2="572" gradientUnits="userSpaceOnUse">
<stop stop-color="white"/>
<stop offset="1" stop-color="white" stop-opacity="0"/>
</linearGradient>
<linearGradient id="paint10_linear_2092_3784" x1="951.645" y1="572" x2="1031.64" y2="572" gradientUnits="userSpaceOnUse">
<stop stop-color="white"/>
<stop offset="1" stop-color="white" stop-opacity="0"/>
</linearGradient>
<linearGradient id="paint11_linear_2092_3784" x1="1136.21" y1="572" x2="1216.21" y2="572" gradientUnits="userSpaceOnUse">
<stop stop-color="white"/>
<stop offset="1" stop-color="white" stop-opacity="0"/>
</linearGradient>
<linearGradient id="paint12_linear_2092_3784" x1="1320.77" y1="572" x2="1400.77" y2="572" gradientUnits="userSpaceOnUse">
<stop stop-color="white"/>
<stop offset="1" stop-color="white" stop-opacity="0"/>
</linearGradient>
<linearGradient id="paint13_linear_2092_3784" x1="1505.34" y1="572" x2="1585.34" y2="572" gradientUnits="userSpaceOnUse">
<stop stop-color="white"/>
<stop offset="1" stop-color="white" stop-opacity="0"/>
</linearGradient>
<linearGradient id="paint14_linear_2092_3784" x1="1689.9" y1="572" x2="1769.9" y2="572" gradientUnits="userSpaceOnUse">
<stop stop-color="white"/>
<stop offset="1" stop-color="white" stop-opacity="0"/>
</linearGradient>
<linearGradient id="paint15_linear_2092_3784" x1="1874.47" y1="572" x2="1954.47" y2="572" gradientUnits="userSpaceOnUse">
<stop stop-color="white"/>
<stop offset="1" stop-color="white" stop-opacity="0"/>
</linearGradient>
<radialGradient id="paint16_radial_2092_3784" cx="0" cy="0" r="1" gradientUnits="userSpaceOnUse" gradientTransform="translate(960 341) rotate(90) scale(692 960)">
<stop offset="0.106936" stop-opacity="0"/>
<stop offset="0.760116"/>
</radialGradient>
</defs>
</svg>
