<svg width="145" height="38" viewBox="0 0 145 38" fill="none" xmlns="http://www.w3.org/2000/svg">
    <path
        d="M14.3496 19.344C15.4797 19.4318 16.4622 19.9121 17.3017 20.7803C18.1365 21.6531 18.5563 22.8491 18.5563 24.3731C18.5563 26.2434 17.9382 27.735 16.6974 28.848C15.4566 29.9563 13.6762 30.5151 11.3469 30.5151H0V8.63479H11.3192C13.321 8.63479 14.9216 9.17972 16.1301 10.2696C17.3386 11.3594 17.9382 12.8049 17.9382 14.6105C17.9382 15.9821 17.56 17.072 16.7989 17.8755C16.0378 18.679 15.2214 19.127 14.3542 19.2147V19.344H14.3496ZM5.38284 17.6769H10.0784C10.881 17.6769 11.5221 17.4553 12.0018 17.0073C12.4816 16.5594 12.7214 15.9683 12.7214 15.2294C12.7214 14.5551 12.4862 14.0102 12.0203 13.5946C11.5544 13.1789 10.9732 12.9758 10.2768 12.9758H5.38284V17.6769ZM10.4059 26.1695C11.2546 26.1695 11.9096 25.9525 12.3801 25.5184C12.8459 25.0843 13.0812 24.4839 13.0812 23.722C13.0812 23.0015 12.8413 22.4335 12.3616 22.0087C11.8819 21.5838 11.2638 21.3714 10.5028 21.3714H5.38284V26.1695H10.4059ZM37.2417 30.5105H32.0249V28.945C30.7196 30.3165 29.0452 31 27.0018 31C25.0876 31 23.5517 30.3719 22.3847 29.1205C21.2223 27.869 20.6411 26.2203 20.6411 24.1745V14.121H25.8256V23.0662C25.8256 24.0221 26.0886 24.8026 26.6098 25.4029C27.131 26.0033 27.8044 26.2988 28.6301 26.2988C29.6956 26.2988 30.5258 25.9248 31.1255 25.172C31.7251 24.4193 32.0203 23.274 32.0203 21.727V14.121H37.2371V30.5105H37.2417ZM53.3118 30.5105H39.4972V29.5268L45.9917 18.268H39.6587V14.121H53.2334V15.1047L46.7389 26.3635H53.3118V30.5105ZM69.3819 30.5105H55.5673V29.5268L62.0618 18.268H55.7242V14.121H69.2989V15.1047L62.8044 26.3635H69.3773V30.5105H69.3819ZM77.1402 17.9725H86.5775V22.6737H77.1402V30.5105H71.7574V8.63479H87.4447V13.3683H77.1402V17.9725ZM124.811 23.6527H112.809C113.118 25.6846 114.636 26.8207 116.933 26.8207C118.741 26.8207 120.526 26.1095 121.863 25.0797L123.865 28.5524C122.034 30.1272 119.659 31 116.933 31C111.444 31 107.689 27.6519 107.689 22.3134C107.689 19.7874 108.529 17.7093 110.198 16.0745C111.873 14.4397 113.925 13.6269 116.361 13.6269C118.732 13.6269 120.72 14.4212 122.329 16.0098C123.939 17.5984 124.765 19.6996 124.806 22.3134V23.6527H124.811ZM114.244 18.559C113.593 19.0162 113.146 19.6488 112.906 20.4524H119.659C119.419 19.6027 119.008 18.9607 118.418 18.5266C117.832 18.0926 117.145 17.8755 116.365 17.8755C115.604 17.8755 114.899 18.1018 114.244 18.559ZM105.729 23.6527H93.7269C94.036 25.6846 95.5535 26.8207 97.8506 26.8207C99.6587 26.8207 101.444 26.1095 102.781 25.0797L104.783 28.5524C102.952 30.1272 100.577 31 97.8506 31C92.3616 31 88.607 27.6519 88.607 22.3134C88.607 19.7874 89.4465 17.7093 91.1162 16.0745C92.7906 14.4397 94.8432 13.6269 97.2786 13.6269C99.6494 13.6269 101.637 14.4212 103.247 16.0098C104.857 17.5984 105.683 19.6996 105.724 22.3134V23.6527H105.729ZM95.1614 18.559C94.5111 19.0162 94.0637 19.6488 93.8238 20.4524H100.577C100.337 19.6027 99.9262 18.9607 99.3358 18.5266C98.75 18.0926 98.0627 17.8755 97.2832 17.8755C96.5175 17.8755 95.8118 18.1018 95.1614 18.559ZM145 30.5105H139.783V29.2036C138.455 30.3997 136.762 31 134.696 31C132.477 31 130.59 30.1872 129.036 28.5663C127.482 26.9454 126.702 24.858 126.702 22.3134C126.702 19.7874 127.482 17.7093 129.036 16.0745C130.59 14.4397 132.477 13.6269 134.696 13.6269C136.762 13.6269 138.459 14.2272 139.783 15.4233V7H145V30.5105ZM138.593 25.3706C139.387 24.5763 139.783 23.5603 139.783 22.3181C139.783 21.0989 139.387 20.0876 138.593 19.2794C137.8 18.4759 136.859 18.0695 135.77 18.0695C134.617 18.0695 133.672 18.4666 132.934 19.2609C132.196 20.0552 131.827 21.0712 131.827 22.3134C131.827 23.5742 132.196 24.5994 132.934 25.3845C133.672 26.1695 134.617 26.5621 135.77 26.5621C136.859 26.5621 137.8 26.1649 138.593 25.3706Z"
        fill="white" />
</svg>