<svg width="126" height="38" viewBox="0 0 126 38" fill="none" xmlns="http://www.w3.org/2000/svg">
    <path
        d="M81.3932 24.3964C78.7693 24.3964 77.4316 22.2582 77.4316 19.6109C77.4316 16.9636 78.7693 14.9782 81.3932 14.9782C84.0686 14.9782 85.3548 17.1164 85.3548 19.6109C85.3548 22.3091 84.0171 24.3964 81.3932 24.3964ZM55.7199 14.9782C57.2634 14.9782 57.8808 15.8436 57.8808 16.6073C57.8808 18.4909 55.9771 19.2545 51.9641 19.4073C52.0155 17.1164 53.3018 14.9782 55.7199 14.9782ZM38.6901 24.3964C36.2205 24.3964 35.1915 22.4109 35.1915 19.6109C35.1915 16.8618 36.2719 14.9782 38.6901 14.9782C41.2111 14.9782 42.3944 16.9636 42.3944 19.6109C42.3944 22.4109 41.1597 24.3964 38.6901 24.3964ZM17.6987 12.2291H13.8399L20.2711 26.84C19.0363 29.5382 18.3675 30.2 17.5443 30.2C16.6697 30.2 15.795 29.4873 15.1776 28.8764L13.4798 31.1164C14.6631 32.3382 16.2066 33 17.853 33C19.911 33 21.4545 31.8291 22.3291 29.7418L29.7379 12.2291H25.9306L22.0719 22.6655L17.6987 12.2291ZM120.392 14.9782C122.296 14.9782 122.656 16.2509 122.656 19.2545V27.1455H126V17.1673C126 13.6036 123.53 12.0255 121.215 12.0255C119.157 12.0255 117.305 13.2982 116.276 15.5891C115.71 13.3491 113.806 12.0255 111.594 12.0255C109.69 12.0255 107.787 13.2473 106.706 15.4873V12.2291H103.362V27.0945H106.706V20.7309C106.706 17.5236 108.404 14.9273 110.719 14.9273C112.623 14.9273 112.983 16.2 112.983 19.2036V27.0945H116.327V20.7309C116.379 17.5236 118.077 14.9782 120.392 14.9782ZM93.5353 12.2291H91.9404V27.0945H95.2846V21.3927C95.2846 17.7782 96.8795 15.3345 99.2977 15.3345C99.9151 15.3345 100.43 15.3345 100.995 15.5891L101.51 12.0764C101.098 12.0255 100.687 11.9745 100.327 11.9745C97.96 11.9745 96.2621 13.5527 95.2846 15.64V12.1782L93.5353 12.2291ZM81.3932 12.0255C76.9686 12.0255 73.933 15.3855 73.933 19.6109C73.933 23.9891 76.9686 27.2982 81.3932 27.2982C85.8693 27.2982 88.9049 23.9382 88.9049 19.6109C88.9049 15.3345 85.8179 12.0255 81.3932 12.0255ZM55.9257 24.3964C54.1764 24.3964 52.8902 23.5309 52.3242 21.7491C56.7489 21.5455 61.1221 20.4764 61.1221 16.6073C61.1221 14.3673 58.9098 12.0764 55.7199 12.0764C51.3981 12.0764 48.5169 15.5382 48.5169 19.6618C48.5169 23.9382 51.3981 27.3491 55.6684 27.3491C58.6525 27.3491 60.5561 26.1782 62.0482 24.4473L60.4018 22.2582C58.6525 23.9382 57.5721 24.3964 55.9257 24.3964ZM39.3589 12.0255C37.6611 12.0255 35.9632 12.9927 35.2944 14.52V12.2291H31.9502V32.8982H35.2944V25.5164C36.0147 26.5855 37.6096 27.2982 39.1017 27.2982C43.5778 27.2982 45.9445 24.04 45.9445 19.6109C45.893 15.2327 43.5778 12.0255 39.3589 12.0255ZM15.8465 6.32364H0V9.53091H6.17395V27.0945H9.67252V9.53091H15.795L15.8465 6.32364ZM65.7525 12.2291H63.746V15.1818H65.7525V27.0436H69.0968V15.2327H72.3381V12.28H69.0968V9.93818C69.0968 8.46182 69.7142 7.95273 71.1033 7.95273C71.6178 7.95273 72.0808 8.10545 72.7497 8.30909L73.5214 5.50909C72.904 5.15273 71.6693 5 70.8975 5C67.7076 5 65.804 6.88364 65.804 10.1927L65.7525 12.2291Z"
        fill="white" />
</svg>