<svg width="72" height="72" viewBox="0 0 72 72" fill="none" xmlns="http://www.w3.org/2000/svg">
<circle cx="36" cy="36" r="36" fill="#262626"/>
<path fill-rule="evenodd" clip-rule="evenodd" d="M52.51 47.487C52.47 47.4312 48.4989 41.8053 48.4989 37.1392V28.807C48.4989 25.4922 47.1821 22.3132 44.8382 19.9693C42.4943 17.6254 39.3153 16.3086 36.0005 16.3086C32.6857 16.3086 29.5067 17.6254 27.1628 19.9693C24.8189 22.3132 23.5021 25.4922 23.5021 28.807V37.1392C23.5021 41.8053 19.531 47.4312 19.491 47.487C19.4021 47.6116 19.3492 47.7583 19.3381 47.911C19.3271 48.0637 19.3583 48.2165 19.4284 48.3526C19.4984 48.4887 19.6046 48.6028 19.7353 48.6825C19.866 48.7622 20.0162 48.8044 20.1692 48.8044H51.8318C51.9849 48.8044 52.135 48.7622 52.2657 48.6825C52.3964 48.6028 52.5026 48.4887 52.5727 48.3526C52.6427 48.2165 52.674 48.0637 52.6629 47.911C52.6519 47.7583 52.599 47.6116 52.51 47.487ZM36.0007 54.6378C37.181 54.6356 38.3226 54.2163 39.2237 53.454C40.1248 52.6916 40.7274 51.6353 40.9251 50.4717H31.0764C31.2741 51.6353 31.8767 52.6916 32.7778 53.454C33.6789 54.2163 34.8204 54.6356 36.0007 54.6378ZM33.79 35.3467V36.6427H36.679V35.7517C36.679 35.1577 36.841 34.5997 37.165 34.0777C37.507 33.5557 37.912 33.0877 38.38 32.6737C38.848 32.2597 39.316 31.8277 39.784 31.3777C40.252 30.9277 40.648 30.3517 40.972 29.6497C41.314 28.9477 41.485 28.1647 41.485 27.3007C41.485 25.7887 40.945 24.5827 39.865 23.6827C38.803 22.7647 37.453 22.3057 35.815 22.3057C34.267 22.3057 32.836 22.6927 31.522 23.4667V26.4907C32.89 25.6447 34.24 25.2217 35.572 25.2217C36.382 25.2217 37.021 25.4557 37.489 25.9237C37.975 26.3737 38.218 26.9587 38.218 27.6787C38.218 28.2187 38.065 28.7317 37.759 29.2177C37.453 29.6857 37.084 30.1087 36.652 30.4867C36.22 30.8647 35.788 31.2607 35.356 31.6747C34.924 32.0887 34.555 32.6107 34.249 33.2407C33.943 33.8707 33.79 34.5727 33.79 35.3467ZM33.358 40.6117C33.358 41.1697 33.529 41.6197 33.871 41.9617C34.231 42.2857 34.699 42.4477 35.275 42.4477C35.851 42.4477 36.31 42.2857 36.652 41.9617C36.994 41.6197 37.165 41.1697 37.165 40.6117C37.165 40.0537 36.994 39.6037 36.652 39.2617C36.31 38.9197 35.851 38.7487 35.275 38.7487C34.699 38.7487 34.231 38.9197 33.871 39.2617C33.529 39.6037 33.358 40.0537 33.358 40.6117Z" fill="#F53DD6"/>
</svg>
