<svg width="32" height="32" viewBox="0 0 32 32" fill="none" xmlns="http://www.w3.org/2000/svg">
<g clip-path="url(#clip0_19897_1153)">
<path d="M27.9996 19.1633V12.8373C28.5082 12.6852 28.9754 12.4191 29.3657 12.0592C29.756 11.6993 30.0591 11.2552 30.2519 10.7606C30.4447 10.266 30.5221 9.73387 30.4783 9.20481C30.4345 8.67574 30.2706 8.16363 29.9992 7.70743C29.7277 7.25124 29.3557 6.86296 28.9116 6.57215C28.4674 6.28134 27.9628 6.09565 27.4361 6.02921C26.9094 5.96277 26.3745 6.01732 25.8721 6.18873C25.3696 6.36013 24.9129 6.64387 24.5366 7.01835L19.4216 4.22735C19.5316 3.71686 19.5259 3.18823 19.4051 2.68021C19.2842 2.17218 19.0512 1.69764 18.7232 1.29136C18.3951 0.885081 17.9803 0.557362 17.5091 0.332224C17.0379 0.107086 16.5223 -0.00976562 16.0001 -0.00976562C15.4779 -0.00976563 14.9623 0.107086 14.4912 0.332224C14.02 0.557362 13.6051 0.885081 13.2771 1.29136C12.949 1.69764 12.716 2.17218 12.5951 2.68021C12.4743 3.18823 12.4686 3.71686 12.5786 4.22735L7.46261 7.01835C7.08649 6.64232 6.62948 6.35715 6.12641 6.18458C5.62334 6.01201 5.0875 5.95659 4.55976 6.02255C4.03202 6.08852 3.52632 6.27412 3.0812 6.56522C2.63609 6.85631 2.26332 7.2452 1.99133 7.70223C1.71934 8.15927 1.55531 8.67238 1.51174 9.20244C1.46817 9.7325 1.54622 10.2655 1.73993 10.7608C1.93364 11.2561 2.2379 11.7007 2.62951 12.0605C3.02112 12.4204 3.48973 12.6861 3.99961 12.8373V19.1633C3.49101 19.3155 3.02379 19.5816 2.63351 19.9415C2.24323 20.3013 1.94017 20.7455 1.74737 21.2401C1.55458 21.7347 1.47713 22.2668 1.52092 22.7959C1.56471 23.325 1.72858 23.8371 2.00007 24.2933C2.27157 24.7495 2.64353 25.1377 3.08766 25.4285C3.5318 25.7194 4.0364 25.905 4.5631 25.9715C5.0898 26.0379 5.62472 25.9834 6.12716 25.812C6.6296 25.6406 7.08633 25.3568 7.46261 24.9823L12.5776 27.7733C12.4676 28.2838 12.4733 28.8125 12.5941 29.3205C12.715 29.8285 12.948 30.3031 13.2761 30.7093C13.6041 31.1156 14.019 31.4433 14.4902 31.6685C14.9613 31.8936 15.4769 32.0105 15.9991 32.0105C16.5213 32.0105 17.0369 31.8936 17.5081 31.6685C17.9793 31.4433 18.3941 31.1156 18.7222 30.7093C19.0502 30.3031 19.2832 29.8285 19.4041 29.3205C19.5249 28.8125 19.5306 28.2838 19.4206 27.7733L24.5366 24.9823C24.9127 25.3584 25.3698 25.6435 25.8728 25.8161C26.3759 25.9887 26.9117 26.0441 27.4395 25.9781C27.9672 25.9122 28.4729 25.7266 28.918 25.4355C29.3631 25.1444 29.7359 24.7555 30.0079 24.2985C30.2799 23.8414 30.4439 23.3283 30.4875 22.7983C30.5311 22.2682 30.453 21.7352 30.2593 21.2399C30.0656 20.7446 29.7613 20.3 29.3697 19.9402C28.9781 19.5803 28.5095 19.3146 27.9996 19.1633ZM7.36761 12.0633L12.6136 15.1633C12.4616 15.7124 12.4616 16.2923 12.6136 16.8413L7.36761 19.9413C6.97694 19.581 6.509 19.3149 5.99961 19.1633V12.8373C6.50881 12.6864 6.97674 12.4209 7.36761 12.0613V12.0633ZM23.6126 10.3413L18.3676 13.4413C17.9769 13.081 17.509 12.8149 16.9996 12.6633V6.83735C17.55 6.67704 18.0524 6.38375 18.4626 5.98335L23.5776 8.77335C23.4628 9.29053 23.4748 9.82781 23.6126 10.3393V10.3413ZM14.9996 6.83735V12.6633C14.4908 12.8146 14.0233 13.08 13.6326 13.4393L8.38661 10.3393C8.52438 9.82781 8.53639 9.29053 8.42161 8.77335L13.5366 5.98235C13.9472 6.38249 14.4495 6.67603 14.9996 6.83735ZM8.38661 21.6613L13.6326 18.5613C14.0233 18.9207 14.4908 19.1861 14.9996 19.3373V25.1633C14.4493 25.3237 13.9468 25.617 13.5366 26.0173L8.42161 23.2273C8.53639 22.7102 8.52438 22.1729 8.38661 21.6613ZM16.9996 19.3373C17.5088 19.1864 17.9767 18.9209 18.3676 18.5613L23.6126 21.6613C23.4748 22.1729 23.4628 22.7102 23.5776 23.2273L18.4626 26.0183C18.0522 25.6182 17.5499 25.3249 16.9996 25.1643V19.3373ZM19.3866 16.8373C19.5373 16.2875 19.5373 15.7072 19.3866 15.1573L24.6316 12.0573C25.0221 12.4184 25.49 12.6852 25.9996 12.8373V19.1633C25.4904 19.3143 25.0225 19.5798 24.6316 19.9393L19.3866 16.8373Z" fill="black"/>
</g>
<defs>
<clipPath id="clip0_19897_1153">
<rect width="32" height="32" fill="white"/>
</clipPath>
</defs>
</svg>
