<svg width="32" height="32" viewBox="0 0 32 32" fill="none" xmlns="http://www.w3.org/2000/svg">
<g clip-path="url(#clip0_19894_17439)">
<path d="M24.9997 20.0007C24.1001 20.0008 23.2121 20.2038 22.4017 20.5943C21.5913 20.9849 20.8794 21.5531 20.3187 22.2567L12.6517 18.0007C13.1156 16.7104 13.1156 15.2989 12.6517 14.0087L20.3187 9.74866C21.2645 10.9347 22.6214 11.7219 24.1204 11.9543C25.6195 12.1866 27.1511 11.8471 28.4115 11.003C29.6719 10.1589 30.569 8.87195 30.9249 7.39736C31.2808 5.92278 31.0694 4.36829 30.3328 3.04222C29.5962 1.71615 28.3881 0.715367 26.9481 0.238375C25.5081 -0.238617 23.9415 -0.156977 22.5589 0.467101C21.1763 1.09118 20.0787 2.21211 19.4839 3.60756C18.8891 5.00301 18.8405 6.57105 19.3477 8.00066L11.6807 12.2607C10.9046 11.2888 9.84569 10.5821 8.65038 10.2383C7.45507 9.89461 6.18248 9.93083 5.00866 10.342C3.83485 10.7532 2.81781 11.519 2.09826 12.5334C1.3787 13.5479 0.992187 14.7609 0.992188 16.0047C0.992187 17.2484 1.3787 18.4614 2.09826 19.4759C2.81781 20.4904 3.83485 21.2561 5.00866 21.6673C6.18248 22.0785 7.45507 22.1147 8.65038 21.771C9.84569 21.4272 10.9046 20.7206 11.6807 19.7487L19.3477 24.0007C18.9231 25.2017 18.8918 26.5067 19.2582 27.7267C19.6247 28.9467 20.3699 30.0184 21.386 30.7867C22.4021 31.5549 23.6364 31.9799 24.9101 31.9999C26.1838 32.02 27.4309 31.6341 28.4707 30.8982C29.5105 30.1623 30.2891 29.1146 30.6938 27.9067C31.0985 26.6989 31.1082 25.3935 30.7216 24.1798C30.335 22.966 29.5721 21.9067 28.5434 21.1554C27.5147 20.4041 26.2736 19.9996 24.9997 20.0007Z" fill="black"/>
</g>
<defs>
<clipPath id="clip0_19894_17439">
<rect width="32" height="32" fill="white"/>
</clipPath>
</defs>
</svg>
