<svg width="80" height="80" viewBox="0 0 80 80" fill="none" xmlns="http://www.w3.org/2000/svg">
<circle cx="40" cy="40" r="40" fill="#262626"/>
<path d="M52.25 25.1328H27.75C27.5179 25.1328 27.2954 25.225 27.1313 25.3891C26.9672 25.5532 26.875 25.7757 26.875 26.0078V28.6328H47C47.6962 28.6328 48.3639 28.9094 48.8562 29.4017C49.3484 29.8939 49.625 30.5616 49.625 31.2578V54.8828H52.25C52.4821 54.8828 52.7046 54.7906 52.8687 54.6265C53.0328 54.4624 53.125 54.2399 53.125 54.0078V26.0078C53.125 25.7757 53.0328 25.5532 52.8687 25.3891C52.7046 25.225 52.4821 25.1328 52.25 25.1328Z" fill="#00D5FF"/>
<path d="M57.5 19.8828H33C32.7679 19.8828 32.5454 19.975 32.3813 20.1391C32.2172 20.3032 32.125 20.5257 32.125 20.7578V23.3828H52.25C52.9462 23.3828 53.6139 23.6594 54.1062 24.1517C54.5984 24.6439 54.875 25.3116 54.875 26.0078V49.6328H57.5C57.7321 49.6328 57.9546 49.5406 58.1187 49.3765C58.2828 49.2124 58.375 48.9899 58.375 48.7578V20.7578C58.375 20.5257 58.2828 20.3032 58.1187 20.1391C57.9546 19.975 57.7321 19.8828 57.5 19.8828Z" fill="#00D5FF"/>
<path d="M47 30.3828H22.5C22.0168 30.3828 21.625 30.7746 21.625 31.2578V59.2578C21.625 59.7411 22.0168 60.1328 22.5 60.1328H47C47.4832 60.1328 47.875 59.7411 47.875 59.2578V31.2578C47.875 30.7746 47.4832 30.3828 47 30.3828Z" fill="#00D5FF"/>
</svg>
