<svg width="80" height="80" viewBox="0 0 80 80" fill="none" xmlns="http://www.w3.org/2000/svg">
<circle cx="40" cy="40" r="40" fill="#262626"/>
<path d="M55.3333 19.875H24.6667C22.0207 19.875 19.875 22.0207 19.875 24.6667V55.3333C19.875 57.9793 22.0207 60.125 24.6667 60.125H55.3333C57.9793 60.125 60.125 57.9793 60.125 55.3333V24.6667C60.125 22.0207 57.9793 19.875 55.3333 19.875ZM26.5833 29.4583H39.0417C39.5707 29.4583 40 29.8877 40 30.4167C40 30.9457 39.5707 31.375 39.0417 31.375H26.5833C26.0543 31.375 25.625 30.9457 25.625 30.4167C25.625 29.8877 26.0543 29.4583 26.5833 29.4583ZM26.5833 39.0417H30.5518C31.0808 36.9918 33.1719 35.7594 35.2217 36.2884C37.2716 36.8174 38.504 38.9085 37.975 40.9583C37.446 43.0082 35.355 44.2406 33.3051 43.7116C31.9548 43.3628 30.9006 42.3086 30.5518 40.9583H26.5833C26.0543 40.9583 25.625 40.529 25.625 40C25.625 39.471 26.0543 39.0417 26.5833 39.0417ZM39.0417 50.5417H26.5833C26.0543 50.5417 25.625 50.1123 25.625 49.5833C25.625 49.0543 26.0543 48.625 26.5833 48.625H39.0417C39.5707 48.625 40 49.0543 40 49.5833C40 50.1123 39.5707 50.5417 39.0417 50.5417ZM53.4167 50.5417H49.4482C48.9192 52.5915 46.8281 53.824 44.7782 53.295C42.7284 52.766 41.496 50.6749 42.025 48.625C42.554 46.5751 44.645 45.3427 46.6949 45.8717C48.0452 46.2205 49.0994 47.2747 49.4482 48.625H53.4167C53.9457 48.625 54.375 49.0543 54.375 49.5833C54.375 50.1123 53.9457 50.5417 53.4167 50.5417ZM53.4167 40.9583H40.9583C40.4293 40.9583 40 40.529 40 40C40 39.471 40.4293 39.0417 40.9583 39.0417H53.4167C53.9457 39.0417 54.375 39.471 54.375 40C54.375 40.529 53.9457 40.9583 53.4167 40.9583ZM53.4167 31.375H49.4482C48.9192 33.4249 46.8281 34.6573 44.7782 34.1283C42.7284 33.5993 41.496 31.5082 42.025 29.4583C42.554 27.4085 44.645 26.176 46.6949 26.705C48.0452 27.0539 49.0994 28.108 49.4482 29.4583H53.4167C53.9457 29.4583 54.375 29.8877 54.375 30.4167C54.375 30.9457 53.9457 31.375 53.4167 31.375Z" fill="#FFE14D"/>
</svg>
