<svg width="80" height="80" viewBox="0 0 80 80" fill="none" xmlns="http://www.w3.org/2000/svg">
<circle cx="40" cy="40" r="40" fill="#262626"/>
<path d="M61 38.0001C60.4696 38.0001 59.9609 38.2109 59.5858 38.5859C59.2107 38.961 59 39.4697 59 40.0001C59.0071 44.2246 57.6084 48.3314 55.0244 51.6734C52.4404 55.0154 48.8179 57.4027 44.7276 58.4592C40.6374 59.5156 36.3119 59.1812 32.4326 57.5086C28.5534 55.836 25.3409 52.9202 23.3012 49.2207C21.2616 45.5213 20.5108 41.2483 21.1671 37.0751C21.8235 32.9019 23.8496 29.0657 26.9263 26.1709C30.003 23.276 33.9554 21.4871 38.1608 21.0859C42.3662 20.6848 46.5855 21.6942 50.154 23.9551L47.125 26.5241C46.9865 26.6414 46.8824 26.7942 46.824 26.966C46.7657 27.1379 46.7552 27.3225 46.7938 27.4999C46.8323 27.6772 46.9184 27.8408 47.0428 27.973C47.1672 28.1051 47.3253 28.201 47.5 28.2501L58.367 31.2781C58.4542 31.3028 58.5444 31.3153 58.635 31.3151C58.7769 31.3151 58.9171 31.2849 59.0464 31.2265C59.1757 31.1681 59.2911 31.0829 59.3849 30.9765C59.4788 30.8701 59.5489 30.745 59.5906 30.6094C59.6323 30.4738 59.6448 30.3309 59.627 30.1901L58.24 19.1231C58.2177 18.9442 58.1474 18.7746 58.0365 18.6323C57.9256 18.4901 57.7784 18.3805 57.6103 18.3151C57.4422 18.2497 57.2596 18.231 57.0817 18.2609C56.9039 18.2908 56.7374 18.3683 56.6 18.4851L53.332 21.2581C49.1303 18.2692 44.0461 16.779 38.8957 17.0265C33.7453 17.2741 28.8274 19.2452 24.9318 22.6234C21.0361 26.0015 18.3886 30.5907 17.4143 35.6542C16.44 40.7177 17.1955 45.9617 19.5594 50.5442C21.9233 55.1268 25.7585 58.7821 30.4493 60.9233C35.1401 63.0645 40.4143 63.5673 45.4252 62.351C50.436 61.1348 54.8928 58.27 58.0801 54.2166C61.2673 50.1633 63 45.1565 63 40.0001C63 39.4697 62.7893 38.961 62.4142 38.5859C62.0392 38.2109 61.5305 38.0001 61 38.0001Z" fill="#F53DD6"/>
<path d="M40 52C41.1046 52 42 51.1046 42 50C42 48.8954 41.1046 48 40 48C38.8954 48 38 48.8954 38 50C38 51.1046 38.8954 52 40 52Z" fill="#F53DD6"/>
<path d="M41.1423 28H38.8566C38.541 28 38.2852 28.2558 38.2852 28.5714V45.1429C38.2852 45.4584 38.541 45.7143 38.8566 45.7143H41.1423C41.4579 45.7143 41.7137 45.4584 41.7137 45.1429V28.5714C41.7137 28.2558 41.4579 28 41.1423 28Z" fill="#F53DD6"/>
</svg>
