<svg width="24" height="24" viewBox="0 0 24 24" fill="none" xmlns="http://www.w3.org/2000/svg">
<path d="M19.9998 9.53118C19.9998 5.37166 16.4191 2 12.0012 2C7.58259 2 4.00153 5.37166 4.00153 9.53118C3.97951 10.5179 4.19574 11.4446 4.57847 12.3311C4.60016 12.382 4.61784 12.4332 4.64053 12.4828C4.73129 12.6829 4.83473 12.8796 4.94251 13.0744C4.95186 13.0907 4.95886 13.1077 4.96854 13.124C6.17279 15.2749 8.35239 17.1959 10.6304 19.13C10.6304 19.13 10.9121 19.3546 10.6301 19.8529L9.84294 21.2445C9.83393 21.2605 9.5096 21.9142 10.1369 22H14.1528C14.4 21.9607 14.7834 21.82 14.4617 21.3014L14.4601 21.3004L13.5181 19.7784C13.5181 19.7784 13.2488 19.3754 13.5168 19.1608C14.2345 18.591 15.3617 17.6853 15.7774 17.2983C17.2743 15.8517 18.861 13.9671 19.5897 11.9523C19.6385 11.7886 19.6828 11.6299 19.7205 11.4788C19.8507 11.0186 19.9361 10.5424 19.9721 10.052C20.0038 9.72186 19.9998 9.53118 19.9998 9.53118ZM12.7737 5.16527C12.7396 5.43292 12.5608 5.46621 12.4887 5.46841C12.4814 5.46841 12.4727 5.46841 12.4647 5.46936C12.4613 5.46841 12.4577 5.46841 12.4577 5.46841C12.1807 5.48129 11.9011 5.51585 11.6211 5.57648C9.38146 6.06308 7.88891 7.97713 7.97266 10.0621C7.97233 10.0662 7.97033 10.0684 7.97033 10.0724C7.97133 10.4001 7.85854 10.6225 7.44812 10.7202C7.17116 10.7862 7.01166 10.5779 6.93559 10.4343C6.89321 10.3109 6.85083 10.1874 6.8188 10.0583C6.23419 7.67084 7.81583 5.28935 10.3518 4.7393C11.1209 4.57249 11.8857 4.59888 12.5988 4.77574C12.7109 4.81752 12.8047 4.95699 12.7737 5.16527Z" fill="url(#paint0_linear_518_6688)"/>
<defs>
<linearGradient id="paint0_linear_518_6688" x1="12" y1="2" x2="12" y2="22" gradientUnits="userSpaceOnUse">
<stop stop-color="#22C358"/>
<stop offset="1" stop-color="#22C358" stop-opacity="0.4"/>
</linearGradient>
</defs>
</svg>
