<svg width="24" height="24" viewBox="0 0 24 24" fill="none" xmlns="http://www.w3.org/2000/svg">
<path fill-rule="evenodd" clip-rule="evenodd" d="M18 9C19.6569 9 21 7.65685 21 6C21 4.34315 19.6569 3 18 3C16.3431 3 15 4.34315 15 6C15 7.65685 16.3431 9 18 9ZM18 11C18.7111 11 19.3875 10.8516 20 10.584V19C20 20.1046 19.1046 21 18 21H5C3.89543 21 3 20.1046 3 19V6C3 4.89543 3.89543 4 5 4H13.416C13.1484 4.61246 13 5.2889 13 6C13 8.76142 15.2386 11 18 11Z" fill="url(#paint0_linear_9957_29722)"/>
<defs>
<linearGradient id="paint0_linear_9957_29722" x1="13" y1="3" x2="13" y2="19" gradientUnits="userSpaceOnUse">
<stop stop-color="white"/>
<stop offset="1" stop-color="white" stop-opacity="0.3"/>
</linearGradient>
</defs>
</svg>
