<svg width="24" height="24" viewBox="0 0 24 24" fill="none" xmlns="http://www.w3.org/2000/svg">
<path d="M15.3 4.06051C15.3 3.72217 15.0284 3 14.2034 3C13.7229 3 13.2798 3.30122 13.1416 3.76965L8.74159 18.6446C8.71271 18.7421 8.69893 18.8403 8.69893 18.9369C8.66906 19.2795 8.975 20 9.8 20C10.2785 20 10.7188 19.696 10.857 19.229L15.257 4.35402C15.2863 4.25541 15.3 4.15713 15.3 4.06051ZM7.05 7.75137C7.05 7.14441 6.53609 6.68887 5.95 6.68887C5.66854 6.68887 5.38694 6.79263 5.17244 7.00018L1.32244 10.7189C1.10742 10.9555 1 11.2277 1 11.4701C1 11.7125 1.10742 12.0445 1.32227 12.2504L5.17227 15.9691C5.38625 16.1783 5.66813 16.2514 5.95 16.2514C6.53609 16.2514 7.05 15.7955 7.05 15.1889C7.05 14.917 6.94258 14.645 6.72773 14.4375L3.65547 11.4701L6.72791 8.50242C6.94344 8.32246 7.05 8.05352 7.05 7.75137ZM23 11.4701C23 11.1982 22.8926 10.9262 22.6777 10.7187L18.8277 6.99998C18.6138 6.82168 18.3319 6.68887 18.05 6.68887C17.4639 6.68887 16.95 7.14475 16.95 7.75137C16.95 8.02323 17.0574 8.29523 17.2723 8.50275L20.3447 11.4704L17.2723 14.4381C17.0566 14.6742 16.95 14.9465 16.95 15.1889C16.95 15.7958 17.4639 16.2514 18.05 16.2514C18.3315 16.2514 18.6131 16.1476 18.8276 15.9401L22.6776 12.2213C22.8934 12.0445 23 11.7723 23 11.4701Z" fill="url(#paint0_linear_9957_29768)"/>
<defs>
<linearGradient id="paint0_linear_9957_29768" x1="13.2222" y1="3" x2="13.2222" y2="18.1111" gradientUnits="userSpaceOnUse">
<stop stop-color="white"/>
<stop offset="1" stop-color="white" stop-opacity="0.3"/>
</linearGradient>
</defs>
</svg>
