<svg width="24" height="24" viewBox="0 0 24 24" fill="none" xmlns="http://www.w3.org/2000/svg">
<path d="M9.23736 20.9999C9.16968 20.9999 9.09455 20.9927 9.01147 20.9773L9.04537 20.5988L9.38016 20.5987C9.43575 20.583 9.47989 20.5579 9.51406 20.5266C9.57257 20.4729 9.60635 20.3986 9.6202 20.3217C9.62484 20.2959 9.62707 20.2675 9.62707 20.2375C9.62707 20.032 9.62526 19.84 9.62287 19.5825C9.62016 19.2932 9.61678 18.9338 9.61398 18.5217C6.56206 19.0841 5.84957 16.9086 5.82032 16.815C5.3347 15.5692 4.66686 15.2515 4.66493 15.2506L4.63987 15.2364C3.10165 14.1694 4.81945 14.1916 4.82432 14.1916H4.83612C6.0392 14.2775 6.67994 15.4034 6.71486 15.4663L6.71499 15.4662C7.08069 16.1021 7.53063 16.4157 7.9777 16.5453C8.6262 16.7332 9.28016 16.5431 9.66645 16.381C9.72003 16.0596 9.8083 15.7816 9.91846 15.5462C9.99268 15.3875 10.0771 15.2476 10.1679 15.1262C9.00243 14.9583 7.83447 14.6156 6.92208 13.8361C5.90974 12.9711 5.22362 11.5817 5.22362 9.32229H5.22436C5.22445 8.69047 5.3322 8.11489 5.52883 7.5948C5.72372 7.07931 6.00615 6.61747 6.35786 6.20859C6.29057 6.01452 6.19712 5.67631 6.16762 5.22856C6.13155 4.68096 6.19041 3.96647 6.50963 3.1473L6.517 3.13234C6.5172 3.13195 6.65578 3.01215 6.85169 3.00209C6.98091 2.99546 7.17595 3.00234 7.43918 3.05636C7.95183 3.16156 8.73708 3.45009 9.82117 4.18466C10.2495 4.06779 10.6915 3.97898 11.1399 3.91777C11.6251 3.85156 12.1191 3.81759 12.6125 3.81535H12.6139C13.1067 3.81759 13.6002 3.85157 14.0851 3.91774C14.5337 3.97898 14.9761 4.06787 15.4052 4.18473C17.5844 2.70771 18.5887 3.03347 18.5916 3.03435L18.6794 3.06077L18.7132 3.1473C19.0337 3.96755 19.0931 4.68136 19.0574 5.2278C19.0281 5.67545 18.935 6.01353 18.868 6.20775C19.2195 6.61561 19.501 7.07687 19.6955 7.59216C19.8925 8.11434 20 8.6909 20 9.32229C20 11.588 19.3129 12.9767 18.2985 13.8386C17.3855 14.6144 16.2161 14.9527 15.0482 15.1177C15.1848 15.2989 15.3075 15.522 15.4034 15.7876C15.5324 16.1451 15.6133 16.5806 15.6133 17.0954C15.6133 18.014 15.6066 18.9697 15.6022 19.6025C15.6005 19.8347 15.5993 20.0082 15.5993 20.2375H15.5986C15.5986 20.2661 15.6015 20.2968 15.6076 20.3288C15.6221 20.4053 15.6555 20.4785 15.7125 20.5304C15.7438 20.5589 15.7834 20.5821 15.8327 20.5975L16.1865 20.5974L16.2219 20.9759C16.1381 20.9923 16.0588 21 15.9841 21C15.9118 21 15.8452 20.9927 15.784 20.979L9.43147 20.9803C9.37186 20.993 9.30724 20.9999 9.23735 20.9999L9.23736 20.9999Z" fill="url(#paint0_linear_9957_29707)"/>
<defs>
<linearGradient id="paint0_linear_9957_29707" x1="12" y1="3" x2="12" y2="21" gradientUnits="userSpaceOnUse">
<stop stop-color="#E4C18B"/>
<stop offset="1" stop-color="#D0AE03"/>
</linearGradient>
</defs>
</svg>
