<svg width="24" height="24" viewBox="0 0 24 24" fill="none" xmlns="http://www.w3.org/2000/svg">
<path d="M10.3997 5.27523L6.92427 8.74987H2.93751C2.41954 8.74987 2 9.16941 2 9.68738V15.3124C2 15.83 2.41954 16.2499 2.93751 16.2499H6.92427L10.3997 19.7246C10.9868 20.3117 12.0001 19.8992 12.0001 19.0617V5.93813C12.0001 5.09984 10.986 4.6889 10.3997 5.27523ZM20.033 12.4999L21.8158 10.7171C22.0619 10.471 22.0619 10.0718 21.8158 9.82566L20.9244 8.93425C20.6783 8.68815 20.2791 8.68815 20.033 8.93425L18.2502 10.7171L16.4673 8.93425C16.2212 8.68815 15.822 8.68815 15.5759 8.93425L14.6845 9.82566C14.4384 10.0718 14.4384 10.471 14.6845 10.7171L16.4673 12.4999L14.6849 14.2823C14.4388 14.5284 14.4388 14.9277 14.6849 15.1738L15.5763 16.0652C15.8224 16.3113 16.2216 16.3113 16.4677 16.0652L18.2502 14.2827L20.033 16.0656C20.2791 16.3117 20.6783 16.3117 20.9244 16.0656L21.8158 15.1742C22.0619 14.9281 22.0619 14.5288 21.8158 14.2827L20.033 12.4999Z" fill="url(#paint0_linear_10147_28638)"/>
<defs>
<linearGradient id="paint0_linear_10147_28638" x1="13.1113" y1="5" x2="13.1113" y2="18.3333" gradientUnits="userSpaceOnUse">
<stop stop-color="white"/>
<stop offset="1" stop-color="white" stop-opacity="0.3"/>
</linearGradient>
</defs>
</svg>
