<svg width="24" height="24" viewBox="0 0 24 24" fill="none" xmlns="http://www.w3.org/2000/svg">
<path d="M21.6522 11.5791C14.7035 10.2456 13.7546 9.29668 12.421 2.3478C12.4022 2.24993 12.3499 2.16167 12.2731 2.0982C12.1962 2.03472 12.0997 2 12 2C11.9003 2 11.8038 2.03472 11.7269 2.0982C11.6501 2.16167 11.5978 2.24993 11.579 2.3478C10.2457 9.29668 9.29689 10.2456 2.34779 11.5791C2.24992 11.598 2.16166 11.6503 2.09819 11.7271C2.03472 11.804 2 11.9005 2 12.0002C2 12.0998 2.03472 12.1964 2.09819 12.2732C2.16166 12.3501 2.24992 12.4024 2.34779 12.4212C9.29689 13.7548 10.2457 14.7037 11.579 21.6526C11.5979 21.7504 11.6502 21.8385 11.7271 21.9019C11.8039 21.9653 11.9004 22 12 22C12.0996 22 12.1961 21.9653 12.2729 21.9019C12.3498 21.8385 12.4021 21.7504 12.421 21.6526C13.7546 14.7037 14.7035 13.7548 21.6522 12.4212C21.7501 12.4024 21.8383 12.3501 21.9018 12.2732C21.9653 12.1964 22 12.0998 22 12.0002C22 11.9005 21.9653 11.804 21.9018 11.7271C21.8383 11.6503 21.7501 11.598 21.6522 11.5791Z" fill="url(#paint0_linear_9957_29811)"/>
<defs>
<linearGradient id="paint0_linear_9957_29811" x1="12" y1="2" x2="12" y2="22" gradientUnits="userSpaceOnUse">
<stop stop-color="#FF80EA"/>
<stop offset="1" stop-color="#E300BD" stop-opacity="0.4"/>
</linearGradient>
</defs>
</svg>
