<svg width="24" height="24" viewBox="0 0 24 24" fill="none" xmlns="http://www.w3.org/2000/svg">
<path d="M20.956 10.6464L17.0856 5.7997C17.0505 5.7547 16.9943 5.727 16.9381 5.71662C16.6045 5.28042 16.053 5 15.3963 5H14.3426C14.1319 6.08704 13.1625 6.90752 12 6.90752C10.8375 6.90752 9.86811 6.08704 9.65738 5H8.57563C7.89427 5 7.29369 5.30465 6.94598 5.77201C6.93545 5.78239 6.92491 5.78932 6.91437 5.7997L3.04396 10.6464C3.00532 10.6949 2.99128 10.7606 3.00532 10.8195C3.01937 10.8783 3.06152 10.9303 3.12123 10.9614L6.62638 12.7789L6.62989 19H17.2788L17.2823 12.8309L20.8788 10.9614C20.9385 10.9303 20.9806 10.8783 20.9947 10.8195C21.0087 10.7606 20.9947 10.6949 20.956 10.6464Z" fill="url(#paint0_linear_9957_29784)"/>
<defs>
<linearGradient id="paint0_linear_9957_29784" x1="12" y1="5" x2="12" y2="19" gradientUnits="userSpaceOnUse">
<stop stop-color="#22C358"/>
<stop offset="1" stop-color="#22C358" stop-opacity="0.4"/>
</linearGradient>
</defs>
</svg>
