<svg width="24" height="24" viewBox="0 0 24 24" fill="none" xmlns="http://www.w3.org/2000/svg">
<path d="M18.8901 6.37621C19.6981 5.86665 20.233 5.17115 20.495 4.28662C19.7091 4.71502 18.9261 5.00884 18.1442 5.17115C17.4412 4.39449 16.5512 4 15.4843 4C14.4414 4 13.5604 4.376 12.8415 5.10746C12.1265 5.84405 11.7655 6.73885 11.7655 7.78365C11.7655 8.10109 11.8045 8.38463 11.8825 8.62503C8.80668 8.51716 6.26082 7.20629 4.25493 4.68317C3.91495 5.3006 3.74496 5.92932 3.74496 6.57962C3.74496 7.91617 4.29393 8.97534 5.38987 9.75303C4.7649 9.69858 4.21393 9.53627 3.74496 9.27019C3.74496 10.2246 4.01794 11.0218 4.56491 11.7234C5.11388 12.4179 5.81884 12.8607 6.6798 13.0497C6.36781 13.1319 6.03883 13.1709 5.70085 13.1709C5.38887 13.1709 5.16788 13.1442 5.03689 13.0857C5.26687 13.8634 5.70085 14.4941 6.32782 14.977C6.95278 15.4619 7.67174 15.7177 8.4797 15.7403C7.14777 16.8139 5.62485 17.345 3.90195 17.345C3.47997 17.345 3.18099 17.3388 3 17.3059C4.69691 18.4381 6.5858 19 8.67568 19C10.8146 19 12.7045 18.4432 14.3494 17.3296C15.9943 16.2221 17.2082 14.8558 17.9882 13.247C18.7721 11.6402 19.1601 9.96774 19.1601 8.22129V7.7405C19.9181 7.15492 20.531 6.49538 21 5.767C20.32 6.06801 19.6171 6.27245 18.8901 6.37621Z" fill="url(#paint0_linear_9957_29762)"/>
<defs>
<linearGradient id="paint0_linear_9957_29762" x1="13" y1="4" x2="13" y2="17.3333" gradientUnits="userSpaceOnUse">
<stop stop-color="white"/>
<stop offset="1" stop-color="white" stop-opacity="0.3"/>
</linearGradient>
</defs>
</svg>
