<svg width="24" height="24" viewBox="0 0 24 24" fill="none" xmlns="http://www.w3.org/2000/svg">
<path d="M12 11C14.2091 11 16 9.20914 16 7C16 4.79086 14.2091 3 12 3C9.79086 3 8 4.79086 8 7C8 9.20914 9.79086 11 12 11Z" fill="url(#paint0_linear_9957_29698)" fill-opacity="0.88"/>
<path fill-rule="evenodd" clip-rule="evenodd" d="M15.1285 12.1211C14.272 12.6714 13.184 13.0007 12 13.0007C10.816 13.0007 9.72804 12.6714 8.8715 12.1211C7.70008 12.3735 6.61285 13.0153 5.75736 13.9777C4.63214 15.2436 4 16.9604 4 18.7507V19.8757C4 20.174 4.10536 20.4602 4.29289 20.6712C4.48043 20.8821 4.73478 21.0007 5 21.0007H19C19.2652 21.0007 19.5196 20.8821 19.7071 20.6712C19.8946 20.4602 20 20.174 20 19.8757V18.7507C20 16.9604 19.3679 15.2436 18.2426 13.9777C17.3871 13.0153 16.2999 12.3735 15.1285 12.1211Z" fill="url(#paint1_linear_9957_29698)" fill-opacity="0.88"/>
<defs>
<linearGradient id="paint0_linear_9957_29698" x1="12" y1="3" x2="12" y2="11" gradientUnits="userSpaceOnUse">
<stop stop-color="#26AFEA"/>
<stop offset="1" stop-color="#0A06C5"/>
</linearGradient>
<linearGradient id="paint1_linear_9957_29698" x1="12" y1="12.1211" x2="12" y2="21.0007" gradientUnits="userSpaceOnUse">
<stop stop-color="#26AFEA"/>
<stop offset="1" stop-color="#0A06C5"/>
</linearGradient>
</defs>
</svg>
