<svg width="128" height="44" viewBox="0 0 128 44" fill="none" xmlns="http://www.w3.org/2000/svg">
<path fill-rule="evenodd" clip-rule="evenodd" d="M5.86719 28.9627C5.86719 28.9627 9.98982 26.9474 14.124 26.9474L17.241 17.2676C17.3577 16.7995 17.6985 16.4814 18.083 16.4814C18.4677 16.4814 18.8085 16.7995 18.9252 17.2676L22.0422 26.9474C26.9385 26.9474 30.299 28.9627 30.299 28.9627C30.299 28.9627 23.2964 9.82041 23.2827 9.78201C23.0817 9.21606 22.7424 8.85156 22.285 8.85156H13.8819C13.4245 8.85156 13.0989 9.21606 12.8842 9.78201C12.8691 9.81969 5.86719 28.9627 5.86719 28.9627ZM13.8143 35.1913L13.8131 35.1902C13.8194 35.1665 13.8257 35.144 13.8318 35.1222C13.8443 35.0776 13.8559 35.0362 13.8648 34.9944C14.0391 34.1828 14.6963 33.6674 15.5271 33.6917C16.3367 33.7154 16.7663 34.1267 16.8914 35.0452C16.9377 35.386 16.9422 35.7342 16.9465 36.0804L16.948 36.1896C16.9586 36.9749 17.1608 37.7007 17.5859 38.3568C17.9884 38.9784 18.5164 39.4512 19.2395 39.7759L19.222 39.716L19.222 39.7159C19.2056 39.6597 19.1967 39.6292 19.187 39.5987C18.6549 37.9604 19.038 36.8343 20.4541 35.8738C20.5982 35.7761 20.7433 35.68 20.8885 35.584C21.2078 35.3727 21.5269 35.1614 21.8337 34.9336C22.95 34.105 23.6518 33.012 23.8167 31.5969C23.8845 31.016 23.834 30.445 23.6397 29.8796C23.5576 29.9296 23.4795 29.9794 23.4036 30.0278L23.4032 30.0281L23.4031 30.0282L23.4027 30.0284L23.4026 30.0285L23.4026 30.0285C23.2396 30.1325 23.0867 30.2301 22.9254 30.3098C20.8553 31.3318 18.6668 31.4583 16.4385 31.1201C14.995 30.9009 13.6014 30.5127 12.5957 29.2871C12.0158 31.2304 12.4218 33.9127 13.8131 35.1902L13.813 35.1906L13.8143 35.1913ZM44.3187 25.514C47.2301 25.514 49.3327 24.5009 49.3327 22.8047V22.7576C47.6459 22.5455 46.1904 22.522 44.4805 22.522C42.5858 22.522 41.7539 23.0167 41.7539 24.0534C41.7539 25.0428 42.424 25.514 44.3187 25.514ZM44.8733 20.331C46.7448 20.331 48.3161 20.4724 49.3558 20.7079V20.1189C49.3558 18.6348 48.4778 17.9044 45.2891 17.9044C42.9786 17.9044 39.9978 18.3285 37.8952 19.318C37.7335 18.0458 37.4099 16.0904 37.1789 15.1245C39.605 14.3942 42.7937 13.8994 45.6589 13.8994C52.3134 13.8994 54.4392 16.1611 54.4392 19.7185C54.4392 20.5929 54.4217 21.3547 54.4043 22.1139V22.114V22.1142V22.1143V22.1145V22.1147V22.1148V22.1149V22.115C54.3871 22.8691 54.3698 23.6206 54.3698 24.4773C54.3698 26.0794 54.5085 27.9405 54.7396 28.6002H50.4881C49.5869 28.6002 49.402 28.506 49.402 27.3987C49.402 27.0004 49.4249 26.4857 49.4479 25.9703L49.4479 25.9701L49.4483 25.9616H49.3096C48.4547 28.1054 46.121 28.9772 42.6781 28.9772C38.6115 28.9772 36.8555 27.7757 36.8555 24.6423C36.8555 21.6268 39.4202 20.331 44.8733 20.331ZM61.0214 23.794C60.4437 23.8647 59.658 23.8647 58.8494 23.8647C57.9944 23.8647 57.2089 23.8412 56.6774 23.7705C56.6774 23.8647 56.6716 23.9647 56.6658 24.0648V24.0648V24.0649V24.0649L56.6658 24.0651C56.6601 24.1652 56.6543 24.2653 56.6543 24.3595C56.6543 27.3044 58.5721 29.0242 65.3191 29.0242C71.6733 29.0242 73.7297 27.3279 73.7297 24.3359C73.7297 21.5088 72.3664 20.1188 66.3357 19.8126C61.6452 19.6005 61.2293 19.0823 61.2293 18.4933C61.2293 17.8101 61.83 17.4567 64.9725 17.4567C68.2304 17.4567 69.1085 17.9043 69.1085 18.8467V19.0587C69.5706 19.0351 70.4024 19.0116 71.2574 19.0116C72.066 19.0116 72.9441 19.0351 73.4525 19.0823C73.4525 18.9696 73.459 18.8636 73.4651 18.7642L73.4651 18.7639C73.4705 18.6764 73.4755 18.594 73.4755 18.5168C73.4755 15.0537 70.6103 13.9229 65.0649 13.9229C58.8263 13.9229 56.7236 15.4542 56.7236 18.4462C56.7236 21.1319 58.4104 22.8045 64.3948 23.0637C68.8081 23.2051 69.2933 23.6998 69.2933 24.383C69.2933 25.1133 68.577 25.4432 65.4808 25.4432C61.9225 25.4432 61.0214 24.9484 61.0214 23.9354V23.794ZM74.957 14.9599C76.6438 14.5358 79.6708 12.9574 81.3574 11.3789H81.5192C81.4961 12.3684 81.473 13.3579 81.4499 14.3945C83.5294 14.3945 86.048 14.3709 88.2893 14.3238C88.22 15.5017 88.1738 17.2686 88.1969 18.4937C86.6487 18.4466 84.0146 18.3995 81.3805 18.3759C81.3574 19.6009 81.3574 20.9203 81.3574 22.3338C81.3574 23.9594 82.1893 24.5249 84.2457 24.5249C85.7245 24.5249 87.0647 24.3363 88.1275 23.983C88.1969 25.3258 88.4048 27.0928 88.5897 28.2472C86.8105 28.624 85.378 28.8597 83.2291 28.8597C78.1226 28.8597 76.4821 26.5038 76.4821 23.3705C76.4821 22.0275 76.5052 20.0015 76.5283 18.3288L74.9802 18.3052C74.9802 17.4336 74.9802 15.8316 74.957 14.9599ZM95.1572 17.5985C95.1803 16.3734 95.2034 15.3368 95.2265 14.3238H90.5821C90.6515 16.3499 90.6515 18.423 90.6515 21.4622C90.6515 24.5013 90.6284 26.598 90.5821 28.6005H95.8966C95.8041 27.187 95.781 24.8075 95.781 22.7815C95.781 19.5774 97.075 18.6586 100.009 18.6586C101.373 18.6586 102.343 18.8235 103.198 19.1298C103.221 17.9283 103.452 15.596 103.591 14.5594C102.713 14.3002 101.742 14.1353 100.564 14.1353C98.0455 14.1118 96.197 15.1483 95.342 17.622L95.1572 17.5985ZM113.532 25.1373C116.443 25.1373 118.292 23.9358 118.292 21.3679C118.292 18.7999 116.421 17.7398 113.532 17.7398C110.667 17.7398 108.795 18.7292 108.795 21.3679C108.795 24.0064 110.644 25.1373 113.532 25.1373ZM113.532 13.8525C119.147 13.8525 123.121 16.1378 123.121 21.2501C123.121 26.3388 119.424 29.0716 113.509 29.0716C107.64 29.0716 104.059 26.3388 104.059 21.2501C104.059 16.1378 107.894 13.8525 113.532 13.8525Z" fill="url(#paint0_linear_18765_22599)"/>
<defs>
<linearGradient id="paint0_linear_18765_22599" x1="64.572" y1="8.85156" x2="64.572" y2="39.8508" gradientUnits="userSpaceOnUse">
<stop stop-color="white"/>
<stop offset="1" stop-color="white" stop-opacity="0.6"/>
</linearGradient>
</defs>
</svg>
