<svg width="128" height="44" viewBox="0 0 128 44" fill="none" xmlns="http://www.w3.org/2000/svg">
<path d="M48.0073 34.3501V16.0526H48.9998V18.9308C49.1169 18.8032 49.2252 18.6676 49.3237 18.5251C50.1526 16.8053 51.901 15.7199 53.8098 15.7413C56.0726 15.6738 57.9115 16.5115 58.9921 18.5251C59.6798 19.776 60.0582 21.1732 60.0958 22.6002C60.1333 24.0272 59.829 25.4424 59.2081 26.7278C58.2013 28.9843 55.7145 30.1062 53.0523 29.6941C52.2238 29.6237 51.4261 29.3469 50.7321 28.8889C50.038 28.4309 49.4698 27.8064 49.0791 27.0724V34.3493L48.0073 34.3501ZM48.9998 22.5252L49.2221 24.6737C49.6143 27.1192 51.0602 28.5643 53.3302 28.8358C54.3962 29.0111 55.49 28.8112 56.4252 28.2703C57.3603 27.7294 58.079 26.8809 58.4586 25.8695C59.3415 23.7654 59.2764 21.3834 58.2839 19.3286C57.8788 18.4219 57.1895 17.6717 56.3203 17.1914C55.4511 16.7112 54.4492 16.5268 53.466 16.6663C52.543 16.7335 51.664 17.0864 50.9508 17.676C50.2377 18.2657 49.7258 19.0628 49.4865 19.9566C49.2751 20.8025 49.1126 21.6598 48.9998 22.5244V22.5252ZM80.3608 25.012C80.2103 26.3003 79.597 27.4901 78.635 28.3601C77.673 29.2301 76.4277 29.7211 75.1308 29.7418C70.9687 29.9514 69.0155 27.1875 68.705 23.998C68.4891 22.266 68.7703 20.5083 69.5157 18.93C70.0345 17.8473 70.8845 16.9579 71.9426 16.3906C73.0007 15.8233 74.2119 15.6076 75.4008 15.7747C76.531 15.8707 77.6024 16.3198 78.4633 17.0584C79.3243 17.7969 79.9311 18.7875 80.1981 19.8899C80.4095 20.8942 80.5651 21.9094 80.6641 22.9309H69.7332C69.5308 25.8226 71.0846 28.1474 73.2872 28.708C76.0304 29.3829 78.3751 28.1943 79.2262 25.586C79.4152 24.9167 79.7598 24.8222 80.368 25.012H80.3608ZM69.7253 22.0051H79.5025C79.4414 18.9244 77.5231 16.6854 74.9212 16.66C71.9834 16.6123 69.8531 18.7617 69.7253 22.0051ZM82.3815 25.0795H83.3399C83.3751 25.7855 83.6044 26.4681 84.0025 27.0523C84.4006 27.6364 84.9521 28.0995 85.5964 28.3904C86.4054 28.7545 87.286 28.9314 88.1728 28.908C89.0597 28.8847 89.9298 28.6616 90.7184 28.2554C91.1484 28.0619 91.5085 27.741 91.7502 27.3361C91.9918 26.9313 92.1034 26.462 92.0698 25.9918C92.0946 25.5382 91.9707 25.089 91.7171 24.7121C91.4635 24.3353 91.0939 24.0514 90.6645 23.9036C89.61 23.5113 88.4889 23.2954 87.4146 22.9508C86.2968 22.6325 85.2037 22.2329 84.1442 21.755C82.4133 20.9102 82.3061 17.6199 84.2657 16.5782C85.2691 16.012 86.3982 15.7061 87.5502 15.6883C88.7021 15.6706 89.8402 15.9416 90.8606 16.4766C92.1262 17.1753 92.8257 18.5862 92.6177 20.0178H91.7959C91.7959 19.9781 91.7213 19.9431 91.7213 19.9026C91.6196 17.2825 89.4171 16.4631 87.0526 16.6933C86.338 16.7727 85.6607 16.9887 85.0255 17.3079C84.6437 17.4823 84.3255 17.771 84.115 18.1342C83.9044 18.4973 83.812 18.9169 83.8504 19.3349C83.8512 19.7533 83.9816 20.1611 84.2236 20.5023C84.4655 20.8435 84.8073 21.1014 85.2018 21.2405C86.234 21.6192 87.3297 21.8622 88.3976 22.1592L90.9781 22.8341C91.5646 23.0266 92.0788 23.3926 92.4529 23.8837C92.8269 24.3748 93.043 24.9679 93.0726 25.5844C93.2791 26.97 92.5724 28.3316 91.3227 28.9629C89.0661 30.2396 85.3495 29.9022 83.694 28.288C82.8468 27.436 82.3744 26.2792 82.3839 25.0787L82.3815 25.0795ZM105.233 20.0186H104.334C104.334 19.8971 104.286 19.7804 104.273 19.6875C104.258 19.0137 104.013 18.3654 103.577 17.8512C103.142 17.337 102.543 16.9882 101.88 16.8632C100.631 16.505 99.2988 16.5692 98.0899 17.0459C97.6118 17.1827 97.191 17.4705 96.8901 17.8664C96.5893 18.2622 96.4247 18.7448 96.4209 19.242C96.4038 19.7302 96.5558 20.2093 96.8512 20.5984C97.1466 20.9874 97.5674 21.2625 98.0422 21.3771L102.15 22.4315C102.595 22.5381 103.032 22.6711 103.46 22.8301C104.771 23.3065 105.66 24.5229 105.699 25.9132C105.719 26.5937 105.532 27.2642 105.164 27.8367C104.796 28.4092 104.263 28.8569 103.635 29.1209C102.682 29.554 101.648 29.7832 100.601 29.7937C99.5538 29.8042 98.5159 29.5959 97.5539 29.182C96.7628 28.8409 96.0951 28.2655 95.6409 27.5335C95.1866 26.8014 94.9676 25.9477 95.0131 25.0874H95.8913C96.2216 26.6794 97.3149 28.0053 98.8148 28.6326C100.315 29.2598 102.027 29.1058 103.391 28.2229C103.801 28.01 104.14 27.6844 104.37 27.2845C104.6 26.8846 104.711 26.4271 104.689 25.9664C104.709 25.5125 104.581 25.0644 104.324 24.6899C104.066 24.3155 103.694 24.0353 103.263 23.8917C102.208 23.4994 101.087 23.2906 100.013 22.9389C98.8888 22.6255 97.7891 22.2304 96.7226 21.7566C95.033 20.9253 94.898 17.662 96.8242 16.6211C97.84 16.0311 98.9912 15.7142 100.166 15.7011C101.34 15.688 102.498 15.9793 103.527 16.5464C104.115 16.8976 104.589 17.4122 104.89 18.0277C105.191 18.6432 105.307 19.333 105.223 20.013L105.233 20.0186ZM46.374 29.4115C46.0202 29.5453 45.6297 29.5449 45.2761 29.4105C44.9226 29.276 44.6305 29.0168 44.4549 28.6818L40.9614 23.8504L40.4548 23.1755L36.4007 28.6889C36.2355 29.0096 35.9591 29.2591 35.6234 29.3909C35.2876 29.5227 34.9153 29.5278 34.5761 29.4051L39.799 22.3982L34.9398 16.0669C35.6607 15.8064 36.4642 16.0891 36.8652 16.7418L40.4858 21.6327L44.1278 16.7608C44.2943 16.4457 44.5708 16.2027 44.9047 16.0781C45.2386 15.9535 45.6067 15.956 45.9389 16.0851L44.0532 18.587L41.4989 21.9114C41.428 21.9747 41.3713 22.0523 41.3325 22.1391C41.2936 22.2258 41.2736 22.3198 41.2736 22.4148C41.2736 22.5099 41.2936 22.6038 41.3325 22.6906C41.3713 22.7773 41.428 22.8549 41.4989 22.9182L46.3637 29.4115H46.374ZM68.5502 15.9994V16.9522C67.8668 16.9073 67.1816 17.0063 66.5388 17.2427C65.896 17.4791 65.3099 17.8476 64.8183 18.3245C64.3268 18.8014 63.9407 19.376 63.685 20.0114C63.4292 20.6467 63.3096 21.3286 63.3337 22.0131C63.3337 24.2384 63.3337 26.4637 63.3337 28.6889V29.4456H62.3674V16.0589H63.3202V18.8022C64.4889 16.8013 66.2929 16.0589 68.5566 16.0049L68.5502 15.9994ZM22.0699 22.3108L22.4955 20.2091C23.6643 16.0534 28.4282 14.3241 31.7058 16.8982C33.6249 18.4052 34.1037 20.5402 34.01 22.946H23.1982C23.0235 27.2431 26.1241 29.8379 30.0901 28.5135C31.397 28.0371 32.3807 26.9509 32.7047 25.6011C32.9143 24.9262 33.2605 24.8103 33.8941 25.0056C33.7884 25.8283 33.4976 26.6163 33.0435 27.3104C32.5894 28.0045 31.9838 28.5866 31.2723 29.0129C30.0968 29.6557 28.7482 29.9104 27.4193 29.7406C26.0903 29.5708 24.8491 28.9851 23.8731 28.0673C22.9076 26.9819 22.3248 25.6098 22.2113 24.1608C22.2113 23.9226 22.1319 23.7003 22.0763 23.4859C22.071 23.0852 22.0684 22.6935 22.0684 22.3108H22.0699ZM23.2117 22.0202H32.9889C32.9278 18.9054 30.9619 16.6957 28.3401 16.6751C25.4214 16.6354 23.3332 18.7966 23.2046 22.0067L23.2117 22.0202Z" fill="url(#paint0_linear_18765_22595)"/>
<defs>
<linearGradient id="paint0_linear_18765_22595" x1="63.9403" y1="15.6875" x2="63.9403" y2="34.3953" gradientUnits="userSpaceOnUse">
<stop stop-color="white"/>
<stop offset="1" stop-color="white" stop-opacity="0.6"/>
</linearGradient>
</defs>
</svg>
