<svg width="128" height="44" viewBox="0 0 128 44" fill="none" xmlns="http://www.w3.org/2000/svg">
<path fill-rule="evenodd" clip-rule="evenodd" d="M45.3496 14.2852H49.4041V22.2412H57.8957V14.2852H62.0268V35.1698H57.8957V25.7603H49.4041V35.1698H45.3496V14.2852ZM80.8468 27.5201C80.8887 23.0409 78.2458 19.1807 72.9673 19.258C67.6888 19.3353 65.1995 23.1026 65.2407 27.5201C65.2815 31.894 67.6123 35.5508 72.9673 35.6291C78.3223 35.7075 80.8054 31.9563 80.8468 27.5201ZM76.8686 27.5669C76.8891 24.8045 75.5936 22.4237 73.0063 22.4714C70.419 22.5191 69.1988 24.8425 69.219 27.5669C69.239 30.2645 70.3815 32.5197 73.0063 32.5681C75.6311 32.6164 76.8483 30.3029 76.8686 27.5669ZM108.77 19.258C114.049 19.1807 116.691 23.0409 116.65 27.5201C116.608 31.9563 114.125 35.7075 108.77 35.6291C103.415 35.5508 101.084 31.894 101.043 27.5201C101.002 23.1026 103.492 19.3353 108.77 19.258ZM108.809 22.4724C111.396 22.4247 112.692 24.8055 112.671 27.5679C112.651 30.3039 111.434 32.6173 108.809 32.569C106.184 32.5207 105.042 30.2655 105.022 27.5679C105.002 24.8435 106.222 22.5201 108.809 22.4724ZM84.0586 19.7927H87.8836V22.3172C87.8836 22.3172 88.7251 19.4102 92.7032 19.4102C97.8287 19.4102 97.8287 23.6177 97.8287 23.6177V35.0928H94.0037V24.9182C94.0037 24.9182 94.0037 22.4702 91.2497 22.4702C87.6541 22.4702 87.8836 26.1422 87.8836 26.1422V35.0928H84.0586V19.7927Z" fill="url(#paint0_linear_18765_22608)"/>
<path d="M39.7626 26.6026C39.7626 17.958 26.528 2.73438 26.528 2.73438C22.746 7.51993 21.1043 10.2421 18.5719 15.1275L15.9709 11.838C15.9709 11.838 11.8399 16.9635 11.8398 25.0726C11.8398 32.8062 18.4134 38.923 26.1455 38.7662C33.2745 38.6216 39.7626 33.4111 39.7626 26.6026Z" fill="url(#paint1_linear_18765_22608)"/>
<path d="M35.4025 26.2207C35.4025 21.1717 26.2224 10.3086 26.2224 10.3086C26.2224 10.3086 16.7363 21.0187 16.7363 26.2207C16.7363 31.1933 20.8402 34.4021 25.6104 34.6358C30.6465 34.8825 35.4025 31.2629 35.4025 26.2207Z" fill="url(#paint2_linear_18765_22608)"/>
<defs>
<linearGradient id="paint0_linear_18765_22608" x1="81.0473" y1="14.2852" x2="81.0473" y2="35.6821" gradientUnits="userSpaceOnUse">
<stop stop-color="white"/>
<stop offset="1" stop-color="white" stop-opacity="0.6"/>
</linearGradient>
<linearGradient id="paint1_linear_18765_22608" x1="25.8198" y1="2.73438" x2="25.8198" y2="38.8565" gradientUnits="userSpaceOnUse">
<stop stop-color="white"/>
<stop offset="1" stop-color="white" stop-opacity="0.6"/>
</linearGradient>
<linearGradient id="paint2_linear_18765_22608" x1="26.0818" y1="10.3086" x2="26.0818" y2="34.7067" gradientUnits="userSpaceOnUse">
<stop stop-color="#9D9D9F"/>
<stop offset="1" stop-color="white"/>
</linearGradient>
</defs>
</svg>
