<svg width="128" height="44" viewBox="0 0 128 44" fill="none" xmlns="http://www.w3.org/2000/svg">
<g clip-path="url(#clip0_18765_22623)">
<path d="M34.5361 2.36328V25.0879L44.5735 13.7706H45.0308L37.5904 22.1678L47.3977 36.5804H44.1985L35.7553 24.1576L34.5244 25.5746V36.5814H31.3398V2.36328H34.5361ZM60.7508 36.7694C57.5389 36.7694 54.9275 35.8571 52.9168 34.0324C50.9126 32.2077 49.9065 29.394 49.8987 25.5912C49.8987 21.7891 50.94 18.8415 53.0225 16.7486C55.1051 14.6562 57.7536 13.6019 60.9682 13.5856C64.1802 13.5856 66.7915 14.4989 68.8023 16.3255C70.8065 18.1522 71.8112 20.9665 71.8164 24.7687C71.8164 28.5747 70.7751 31.5265 68.6926 33.6241C66.61 35.721 63.9621 36.7701 60.7489 36.7714L60.7508 36.7694ZM61.0475 13.9508C58.7365 13.9508 56.8204 14.9781 55.2993 17.0325C53.7782 19.087 53.017 21.9487 53.0157 25.6177C53.0157 29.2834 53.7152 31.9982 55.1142 33.7621C56.5133 35.5261 58.368 36.4081 60.6784 36.4081C62.9894 36.4081 64.9055 35.3809 66.4266 33.3264C67.949 31.2719 68.7102 28.4125 68.7102 24.7481C68.7102 21.0824 68.0107 18.3676 66.6117 16.6036C65.2126 14.8397 63.3566 13.9564 61.0436 13.9538L61.0475 13.9508ZM94.3129 36.5795C92.2434 36.5795 90.829 36.1845 90.0697 35.3946C89.3693 34.7261 89.019 34.145 89.019 33.6515V32.6918C87.5286 35.3998 85.1415 36.7538 81.8577 36.7538C78.0216 36.7538 75.8457 35.0198 75.33 31.552C75.2686 31.1824 75.2381 30.8083 75.2389 30.4337C75.2452 30.009 75.3067 29.587 75.422 29.1782C75.5428 28.7213 75.8931 28.2199 76.4728 27.6741C77.6348 26.5773 80.1809 25.9075 84.111 25.6647C85.0837 25.5733 85.98 25.5276 86.8 25.5276C87.6193 25.5276 88.3645 25.557 89.0356 25.6157V18.0559C88.9749 18.0265 88.9749 17.8812 89.0356 17.6201C89.0848 17.2775 89.0295 16.928 88.877 16.6173C88.7037 16.1909 88.4844 15.7847 88.2229 15.406C87.9467 15.011 87.4604 14.6696 86.7638 14.3817C85.8878 14.0625 84.9586 13.9145 84.0268 13.9459C82.6828 13.9784 81.3489 14.1881 80.0598 14.5697C78.5563 14.981 77.4543 15.3841 76.7538 15.7791L76.5707 15.4589C79.1544 14.2397 81.9738 13.6013 84.8307 13.5885C87.9617 13.5885 90.0299 14.1516 91.0353 15.2777C91.8252 16.159 92.2202 17.0867 92.2202 18.0608V33.3371C92.2202 34.2204 92.3965 34.8974 92.749 35.3681C93.1015 35.8382 93.459 36.0889 93.8213 36.1202L94.3227 36.2113H95.7396V36.5707L94.3129 36.5795ZM82.5872 36.3963C84.1958 36.3985 85.7483 35.8055 86.9459 34.7316C88.2385 33.6218 88.9305 32.5495 89.0219 31.5148V26.0015C88.1981 25.935 87.3683 25.9017 86.5327 25.9017C85.7027 25.9016 84.8733 25.9474 84.0483 26.0388C81.7353 26.3149 80.2285 26.8323 79.5281 27.5909C78.8276 28.3495 78.4789 29.3992 78.4822 30.7402C78.4831 31.0146 78.4978 31.2888 78.5263 31.5618C78.7992 34.7913 80.1525 36.4061 82.5863 36.4061L82.5872 36.3963Z" fill="url(#paint0_linear_18765_22623)"/>
</g>
<defs>
<linearGradient id="paint0_linear_18765_22623" x1="63.5826" y1="2.36328" x2="63.5826" y2="36.8548" gradientUnits="userSpaceOnUse">
<stop stop-color="white"/>
<stop offset="1" stop-color="white" stop-opacity="0.6"/>
</linearGradient>
<clipPath id="clip0_18765_22623">
<rect width="117.511" height="34.9356" fill="white" transform="translate(5.13672 2.36328)"/>
</clipPath>
</defs>
</svg>
