<svg width="128" height="44" viewBox="0 0 128 44" fill="none" xmlns="http://www.w3.org/2000/svg">
<g clip-path="url(#clip0_18765_22642)">
<mask id="mask0_18765_22642" style="mask-type:luminance" maskUnits="userSpaceOnUse" x="5" y="11" width="119" height="20">
<path d="M5.77148 11.8906H123.282V30.9464H5.77148V11.8906Z" fill="white"/>
</mask>
<g mask="url(#mask0_18765_22642)">
<path d="M12.7995 26.761V24.9515H7.71342V16.0762H5.77148V26.761H12.7995ZM17.6853 26.4243C18.1056 26.0877 18.4257 25.6462 18.6464 25.0991V26.761H20.5085V21.608C20.5085 21.0609 20.3888 20.5559 20.1281 20.1359C19.8675 19.7159 19.4871 19.3784 19.0073 19.1474C18.5274 18.9163 17.9459 18.7901 17.2853 18.7901C16.9245 18.7901 16.5644 18.8322 16.2239 18.8949C15.8947 18.9579 15.5726 19.0566 15.2627 19.1895C14.9755 19.3067 14.7003 19.4546 14.4417 19.6309L14.5019 21.4611C14.9622 21.1459 15.4028 20.914 15.8435 20.7457C16.2842 20.5774 16.7648 20.4932 17.3049 20.4932C17.7252 20.4932 18.0657 20.5988 18.306 20.8084C18.5463 21.018 18.666 21.292 18.666 21.6286V22.1542H16.984C15.9829 22.1542 15.2017 22.3646 14.6217 22.8061C14.0417 23.2476 13.7607 23.8581 13.7607 24.6363C13.7584 25.0474 13.8548 25.4524 14.0409 25.8137C14.2307 26.1675 14.5167 26.4532 14.862 26.6339C15.2221 26.8443 15.6431 26.9285 16.1034 26.9285C16.7444 26.9285 17.2649 26.761 17.6853 26.4243ZM16.0032 25.0991C15.8028 24.9308 15.6831 24.6998 15.6831 24.4052C15.6762 24.2387 15.7139 24.0735 15.7918 23.9285C15.8697 23.7835 15.9847 23.6645 16.1237 23.585C16.4039 23.3952 16.8446 23.2904 17.405 23.2904H18.6065V23.585C18.6065 23.8375 18.5463 24.09 18.4061 24.3631C18.2598 24.6472 18.0459 24.8863 17.7854 25.0571C17.5052 25.246 17.1851 25.3516 16.8243 25.3516C16.4838 25.3516 16.2036 25.2675 16.0032 25.0991ZM26.4345 26.4029C26.8752 26.0035 27.1953 25.4564 27.3957 24.7831V26.7602H29.2781V19.0203H27.3965V22.6378C27.3965 23.1634 27.3166 23.6263 27.1562 24.0257C26.9957 24.425 26.7758 24.7617 26.4752 24.9721C26.1747 25.2032 25.8342 25.3088 25.4538 25.3088C25.0335 25.3088 24.7133 25.1825 24.473 24.93C24.2531 24.6775 24.1325 24.2988 24.1325 23.8153V19.0203H22.2501V23.8581C22.2501 24.8681 22.4701 25.6248 22.9311 26.1718C23.3921 26.7189 23.9924 26.992 24.7728 26.992C25.4538 26.992 25.9939 26.8031 26.4345 26.4029ZM33.2223 26.7602V23.1428C33.2223 22.6171 33.3021 22.1542 33.4626 21.7549C33.623 21.3555 33.843 21.0188 34.1232 20.8084C34.4034 20.5774 34.7439 20.4718 35.1243 20.4718C35.5446 20.4718 35.8648 20.598 36.1051 20.8505C36.325 21.103 36.4456 21.4817 36.4456 21.9653V26.7816H38.3476V21.9438C38.3476 20.9347 38.1276 20.1772 37.6666 19.6301C37.2056 19.0831 36.6052 18.8099 35.8249 18.8099C35.1642 18.8099 34.6234 19.0203 34.1827 19.3991C33.7624 19.7985 33.4422 20.3455 33.2215 21.0188V19.0418H31.3399V26.7816H33.2223V26.7602ZM44.715 26.9285C44.945 26.8869 45.1724 26.8307 45.396 26.7602C45.6159 26.6975 45.7967 26.6125 45.9963 26.5498L46.0166 24.6775C45.7161 24.8459 45.396 24.9507 45.0555 25.0348C44.7208 25.1183 44.378 25.1607 44.034 25.1611C43.5331 25.1611 43.0932 25.0563 42.7527 24.8665C42.4201 24.6892 42.1526 24.4008 41.9919 24.0463C41.8315 23.7097 41.7516 23.3103 41.7516 22.8895C41.748 22.4897 41.8301 22.0942 41.9919 21.7326C42.1524 21.396 42.4122 21.1228 42.7527 20.9124C43.0932 20.702 43.5135 20.6179 43.9941 20.6179C44.3514 20.6159 44.7076 20.6582 45.0555 20.7441C45.396 20.8283 45.6965 20.9545 45.9963 21.1014L45.976 19.1664C45.756 19.0823 45.5556 18.9981 45.3553 18.956C45.1549 18.8933 44.9349 18.8512 44.6743 18.8298C44.434 18.7877 44.1734 18.7671 43.8932 18.7671C43.0525 18.7671 42.3316 18.956 41.7109 19.3141C41.1117 19.6567 40.6131 20.1658 40.2692 20.7862C39.9287 21.4174 39.769 22.1114 39.769 22.9109C39.769 23.689 39.949 24.4044 40.2895 25.0142C40.6296 25.6271 41.1302 26.1236 41.7313 26.4442C42.352 26.7808 43.0729 26.9698 43.8939 26.9698C44.1945 26.9904 44.4747 26.9698 44.715 26.9277V26.9285ZM49.5804 26.7602V23.1428C49.5804 22.6171 49.6602 22.1542 49.8207 21.7549C49.9811 21.3555 50.2011 21.0188 50.5016 20.8084C50.7906 20.582 51.1428 20.4636 51.5027 20.4718C51.9434 20.4718 52.2635 20.598 52.4835 20.8505C52.7035 21.103 52.824 21.4817 52.824 21.9653V26.7816H54.7064V21.9438C54.7064 20.9347 54.4865 20.1772 54.0255 19.6301C53.5645 19.0831 52.9641 18.8099 52.1837 18.8099C51.5231 18.8099 50.9626 19.0203 50.5416 19.3991C50.1009 19.7985 49.7808 20.3455 49.5804 21.0188V16.0762H47.7183V26.761L49.5804 26.7602ZM60.7929 26.7602C61.8738 26.7602 62.7951 26.5498 63.5559 26.1083C64.2991 25.6888 64.9059 25.0441 65.2982 24.2575C65.6989 23.4588 65.8986 22.5115 65.8986 21.4388C65.8986 20.3662 65.6982 19.4197 65.2982 18.6202C64.8982 17.8206 64.3174 17.1902 63.5566 16.7479C62.7958 16.3057 61.8746 16.0961 60.7936 16.0961H56.8887V26.7808H60.7929V26.7602ZM58.8306 24.9515V17.8849H60.7725C61.7533 17.8849 62.5149 18.2002 63.055 18.8107C63.6154 19.442 63.876 20.3042 63.876 21.419C63.876 22.5338 63.5958 23.4175 63.055 24.0273C62.4945 24.637 61.7337 24.9523 60.7725 24.9523L58.8306 24.9515ZM70.8242 26.4235C71.2504 26.0794 71.5821 25.6221 71.7854 25.0984V26.7602H73.6475V21.6072C73.6475 21.0601 73.5277 20.5551 73.2671 20.1351C73.0065 19.7151 72.626 19.3776 72.1455 19.1466C71.6649 18.9155 71.0841 18.7893 70.4235 18.7893C70.0634 18.7893 69.7026 18.8314 69.3621 18.8941C69.0329 18.9571 68.7108 19.0558 68.4009 19.1887C68.1004 19.3149 67.8202 19.4618 67.5799 19.6301L67.6401 21.4603C68.1004 21.1451 68.541 20.9132 68.9817 20.7449C69.4224 20.5766 69.903 20.4924 70.4431 20.4924C70.8634 20.4924 71.2039 20.598 71.4442 20.8076C71.6845 21.0172 71.8042 21.2912 71.8042 21.6278V22.1534H70.1621C69.161 22.1534 68.3798 22.3638 67.7998 22.8053C67.2198 23.2468 66.9388 23.8573 66.9388 24.6355C66.9365 25.0466 67.0329 25.4516 67.219 25.8129C67.4088 26.1667 67.6948 26.4524 68.0401 26.6331C68.4002 26.8435 68.8213 26.9277 69.2815 26.9277C69.9022 26.9277 70.4031 26.7594 70.8235 26.4227L70.8242 26.4235ZM69.1422 25.0984C68.9418 24.93 68.822 24.699 68.822 24.4044C68.8152 24.2379 68.8529 24.0727 68.9308 23.9277C69.0087 23.7827 69.1237 23.6637 69.2627 23.5842C69.5429 23.3944 69.9836 23.2896 70.544 23.2896H71.7455V23.5842C71.7455 23.8367 71.6852 24.0892 71.5451 24.3623C71.3987 24.6464 71.1848 24.8855 70.9244 25.0563C70.6442 25.2452 70.3436 25.3294 69.9836 25.3294C69.6431 25.3508 69.3621 25.2667 69.1422 25.0984ZM77.4515 26.7602V23.4588C77.4515 22.5965 77.6316 21.9446 77.972 21.5024C78.3125 21.0601 78.7931 20.8291 79.3739 20.8291C79.639 20.8266 79.9028 20.8692 80.155 20.9553V19.0418C80.0353 18.9997 79.9147 18.9791 79.795 18.9576C79.6752 18.9362 79.5343 18.937 79.3942 18.937C78.934 18.937 78.5332 19.1053 78.2131 19.442C77.8929 19.7786 77.6323 20.2622 77.4726 20.8513V18.9997H75.5902V26.7395H77.4523L77.4515 26.7602ZM83.2374 26.7602V24.2575L83.9184 23.5842L86.1209 26.7602H88.3634L85.22 22.2384L88.3032 19.0203H85.9409L83.2578 21.7549V16.0762H81.3957V26.761L83.2374 26.7602ZM91.3871 26.7602V16.0762H89.5047V26.761L91.3871 26.7602ZM94.2699 29.6416C94.9704 29.6416 95.5316 29.4947 95.9715 29.2001C96.4114 28.9055 96.773 28.3799 97.0728 27.6439L100.457 19.0203H98.5146L96.5327 24.4258L94.4898 19.0203H92.5479L95.5715 26.7395L95.4111 27.1389C95.3109 27.3914 95.1911 27.6018 95.0111 27.7066C94.8506 27.8329 94.59 27.8956 94.2495 27.8956H92.688V29.6416H94.2699ZM114.312 30.9461C114.238 30.9443 114.166 30.9219 114.103 30.8814C114.04 30.8408 113.988 30.7835 113.952 30.715C113.892 30.5682 113.892 30.4205 113.992 30.2942L118.257 24.1313L110.788 27.3287C110.728 27.3501 110.688 27.3708 110.629 27.3708C110.448 27.3708 110.288 27.2445 110.248 27.0762C110.188 26.9079 110.268 26.7189 110.408 26.6133L116.976 22.5536L105.423 21.8597C105.183 21.8382 105.042 21.6493 105.042 21.4388C105.04 21.33 105.079 21.2247 105.15 21.1459C105.222 21.0671 105.32 21.0212 105.423 21.018L116.976 20.3241L110.408 16.2644C110.268 16.1596 110.188 15.9698 110.248 15.8015C110.309 15.6332 110.448 15.5069 110.629 15.5069C110.688 15.5069 110.728 15.5276 110.788 15.549L118.257 18.7456L113.992 12.562C113.912 12.4358 113.892 12.2675 113.952 12.1412C114.012 11.9943 114.153 11.9102 114.312 11.9102C114.412 11.9102 114.513 11.9522 114.592 12.0364L123.083 20.9331C123.202 21.0593 123.263 21.2483 123.263 21.4166C123.263 21.5849 123.202 21.7533 123.083 21.9002L114.592 30.8183C114.513 30.9024 114.412 30.9445 114.312 30.9445V30.9461Z" fill="url(#paint0_linear_18765_22642)"/>
</g>
</g>
<defs>
<linearGradient id="paint0_linear_18765_22642" x1="64.5953" y1="11.9102" x2="64.5953" y2="30.9922" gradientUnits="userSpaceOnUse">
<stop stop-color="white"/>
<stop offset="1" stop-color="white" stop-opacity="0.6"/>
</linearGradient>
<clipPath id="clip0_18765_22642">
<rect width="117.511" height="19.0558" fill="white" transform="translate(5.77344 11.8906)"/>
</clipPath>
</defs>
</svg>
