<svg width="128" height="44" viewBox="0 0 128 44" fill="none" xmlns="http://www.w3.org/2000/svg">
<path fill-rule="evenodd" clip-rule="evenodd" d="M34.9431 1.83554C35.1837 1.75042 35.4539 1.6875 35.7389 1.6875V1.6986C36.1659 1.69814 36.5842 1.81877 36.9454 2.04651C37.4007 2.37591 37.9854 2.80894 37.9558 3.54917C37.8376 3.78682 37.5657 3.98818 37.2515 4.22085C36.504 4.77447 35.517 5.50537 35.7907 7.32431C35.7421 7.25356 35.7012 7.17788 35.6685 7.09855C35.4849 6.79977 35.3758 6.46115 35.3507 6.11133C35.3256 5.76151 35.3851 5.41079 35.5242 5.08883C35.5813 4.93369 35.6447 4.81429 35.7049 4.7008C35.8516 4.42442 35.9798 4.18302 35.9535 3.54546C35.9535 3.50678 35.9479 3.4723 35.9419 3.43513C35.9381 3.41184 35.9342 3.3875 35.9313 3.36041C35.9273 3.32188 35.9199 3.29001 35.9122 3.2569C35.9059 3.22958 35.8993 3.20141 35.8943 3.16795C35.75 2.64239 35.4613 2.18345 34.9431 1.83554ZM38.9647 2.47915C38.9631 2.44605 38.9615 2.41484 38.9847 2.26858L39.0033 2.31299C39.3178 2.41662 39.6398 2.52765 39.9729 2.74232C40.017 2.76086 40.0567 2.78231 40.0984 2.80484C40.1232 2.81828 40.1488 2.83212 40.1765 2.84595L41.594 3.84526L41.8605 4.10433L42.3306 4.62249L42.7007 5.18506L43.0486 5.78835C43.1485 5.98821 43.2521 6.20287 43.3336 6.41754L43.5556 7.07264L43.7037 7.75735L43.7851 8.44205L43.8036 8.9306L43.7666 9.62641L43.663 10.3111C43.6549 10.3457 43.6469 10.3804 43.6389 10.4152C43.5956 10.6042 43.5515 10.7961 43.489 10.9773L43.2447 11.6324L42.9375 12.2542L42.6415 12.7428C42.6271 12.7592 42.6161 12.7801 42.6054 12.8006C42.5969 12.8171 42.5884 12.8332 42.5785 12.8464L42.1492 13.4016C41.9994 13.578 41.8387 13.7449 41.6681 13.9012C41.5038 14.0649 41.3295 14.2181 41.1462 14.3602L40.5762 14.7303C40.3771 14.8525 40.172 14.9649 39.9618 15.0671C39.762 15.167 39.5399 15.2706 39.3178 15.3521L38.6516 15.5667L37.9669 15.7148L37.2933 15.7962H37.3044C37.5302 15.8665 37.756 15.9331 37.9891 15.9701C38.2185 16.0194 38.451 16.0528 38.685 16.0701C38.7372 16.0735 38.79 16.0773 38.8432 16.0812C39.0201 16.094 39.2015 16.1071 39.3808 16.1071L39.8693 16.0849C40.0951 16.0664 40.332 16.0405 40.5651 16.0035L41.2498 15.8554C41.474 15.7946 41.6951 15.723 41.9123 15.6407L42.5563 15.3558L43.1596 15.0079C43.3576 14.8863 43.5479 14.7529 43.7296 14.6081L43.9628 14.4046L44.2588 14.1455C44.282 14.1223 44.3054 14.0991 44.3288 14.0758C44.4698 13.9358 44.613 13.7934 44.74 13.6347L45.1582 13.0796L45.5283 12.4985L45.8355 11.8767L46.0798 11.2216L46.2538 10.548L46.3574 9.86329C46.3648 9.73745 46.3796 9.61901 46.4166 9.54499C49.2517 12.3541 56.0099 23.0134 48.6373 33.2951C48.7853 31.6518 48.6891 29.9863 48.3412 28.3726C47.8378 31.6296 46.3352 34.6608 44.0479 37.0518C43.2188 37.9104 42.3121 38.6617 41.3202 39.3168C42.7081 37.3552 43.6482 35.1087 44.0664 32.751C41.9938 36.4781 38.5332 39.2465 34.4176 40.4605C33.2811 40.7835 32.1137 40.9857 30.9348 41.0638C33.4528 39.903 35.6344 38.1213 37.2748 35.8859C36.3158 36.292 35.3257 36.6199 34.3139 36.8667L34.1289 36.9185L33.9142 36.9555L33.7662 36.9851C33.6921 37.0073 33.6181 37.0258 33.5441 37.037L32.7483 37.185H32.7372L32.3079 37.2479H32.2968L32.2672 37.185L32.4893 37.037C32.5004 37.0259 32.5133 37.0185 32.5263 37.0111C32.5392 37.0036 32.5522 36.9962 32.5633 36.9851C32.6447 36.9222 32.7261 36.863 32.8076 36.8112C34.0277 35.8988 35.0176 34.7137 35.6981 33.3506C35.7022 33.3386 35.7072 33.3266 35.7128 33.3134C35.7176 33.3022 35.7227 33.2902 35.7278 33.2766L35.8758 32.9916L35.9979 32.6955L36.22 32.1034L36.3236 31.7776L36.4865 31.1485L36.5494 30.8413L36.6123 30.5563V30.5378L36.6493 30.2417C36.6604 30.2121 36.6604 30.1788 36.6604 30.1492L36.69 29.916C36.69 29.8864 36.69 29.8531 36.7012 29.8235L36.7123 29.6014C36.7234 29.5496 36.7234 29.5052 36.7234 29.4681C36.7234 29.4334 36.7261 29.4014 36.7288 29.369C36.7316 29.3358 36.7345 29.3021 36.7345 29.2646V29.1165C36.7345 29.0836 36.7375 29.0485 36.7404 29.0152C36.7431 28.985 36.7456 28.9561 36.7456 28.9315C36.7456 28.9056 36.7428 28.8778 36.74 28.8501C36.7372 28.8223 36.7345 28.7945 36.7345 28.7686V28.6058L36.7123 28.2727L36.69 27.9655L36.689 27.9538C36.6819 27.8756 36.6742 27.7903 36.653 27.6916L36.5605 27.1216L36.4976 26.8552C35.824 31.389 32.1155 34.8274 27.5927 35.1457C26.7305 35.1991 25.865 35.1343 25.0204 34.9532L23.366 34.4647C22.8849 34.2352 22.4259 34.0094 22.0077 33.7244C22.1779 33.5912 22.7997 33.458 23.4141 33.3469C21.7856 32.2884 20.3681 28.6613 22.7479 27.1068L22.9404 27.0032L23.1439 26.9107L23.3586 26.8366L23.5733 26.7996C23.6473 26.7811 23.7139 26.77 23.7953 26.77C23.8167 26.77 23.8397 26.7675 23.8637 26.7648C23.8896 26.7619 23.9165 26.7589 23.9434 26.7589C24.019 26.7612 24.0945 26.7686 24.1691 26.7811C24.2417 26.7809 24.314 26.7909 24.3838 26.8107L24.5985 26.8626L24.6799 26.8922C24.7123 26.8981 24.754 26.911 24.7884 26.9216C24.7972 26.9243 24.8056 26.9269 24.8131 26.9292C24.8739 26.9548 24.9264 26.9859 24.9802 27.0178C24.9886 27.0228 24.9971 27.0278 25.0056 27.0328C25.3276 27.266 25.3276 27.6657 25.1536 28.1542C25.1055 28.2209 25.0685 28.2949 25.0315 28.3689L25.0315 28.3689L24.9575 28.5836C24.9353 28.6502 24.9168 28.7242 24.9057 28.7982V28.9463V28.9463C24.9057 29.0203 24.9057 29.1017 24.9168 29.1684C24.9279 29.235 24.9501 29.309 24.9797 29.383L25.087 29.6347C25.0989 29.651 25.1083 29.6708 25.1178 29.6907C25.132 29.7204 25.1462 29.7502 25.1684 29.7679C25.4547 30.1391 25.828 30.4339 26.2554 30.6263C26.6828 30.8187 27.151 30.9027 27.6186 30.8709C28.2182 30.1121 28.6623 29.2387 28.8844 28.2986C29.0257 28.97 29.0607 29.6594 28.988 30.3416C29.8282 29.7346 30.3463 28.7649 30.6535 28.0099C31.2716 27.8582 32.6299 28.4688 32.7632 29.5718C32.0599 22.51 25.4571 17.5061 18.2177 19.179C17.6848 20.0599 17.063 20.8445 16.9593 20.6003C16.8557 20.356 16.8964 19.5639 16.9593 18.8237C16.5078 19.538 16.06 20.1598 15.9674 19.9563C15.8934 19.8082 15.9008 19.253 15.9304 18.6979C15.9085 18.6899 15.88 18.6819 15.8475 18.6727C15.8197 18.6649 15.7889 18.6563 15.7565 18.6461C15.6862 18.6238 15.6158 18.6016 15.5529 18.572C15.4903 18.5502 15.4336 18.5204 15.3786 18.4914C15.3588 18.4811 15.3393 18.4708 15.3198 18.461C15.241 18.4227 15.1655 18.3782 15.094 18.3278L14.8904 18.1797C14.8689 18.1604 14.8483 18.1425 14.8284 18.1252C14.7834 18.0859 14.7416 18.0494 14.698 18.0058L14.524 17.8133L14.376 17.5986L14.2279 17.3248L14.1465 17.1397C14.1169 17.0694 14.0836 16.9805 14.0651 16.8954C14.0466 16.8103 14.0244 16.7363 13.9725 16.5882C13.9522 16.5781 13.9328 16.5688 13.9139 16.5598C13.8778 16.5425 13.8437 16.5263 13.8097 16.5068C13.5293 16.3649 13.4488 16.2937 13.2616 16.1278C13.2388 16.1076 13.2144 16.086 13.1879 16.0627C13.1176 16.0109 13.0584 15.9627 12.9954 15.8998L12.8215 15.737L12.6882 15.5519C12.6797 15.5382 12.6707 15.5244 12.6616 15.5105C12.6314 15.4644 12.6 15.4163 12.5772 15.3595L12.5032 15.1744C12.4884 15.1152 12.4773 15.056 12.4662 14.9819C12.4551 14.9412 12.4551 14.8857 12.4551 14.8487C12.4551 14.7994 12.4624 14.7501 12.4693 14.7033C12.4722 14.6834 12.4751 14.6639 12.4773 14.6451C12.4793 14.6277 12.4808 14.6056 12.4825 14.5803C12.487 14.5144 12.4929 14.4262 12.5143 14.3379L12.5661 14.0937L12.6586 13.8272L12.7697 13.5607C12.7899 13.5219 12.8148 13.4877 12.8394 13.4539C12.8687 13.4136 12.8976 13.3738 12.9177 13.3275C12.9423 13.271 12.9766 13.2227 13.0121 13.1728C13.0301 13.1475 13.0483 13.1218 13.0658 13.0944L13.2397 12.8908C13.2952 12.8279 13.3693 12.7576 13.4433 12.7058C13.5064 12.6424 13.5744 12.5842 13.6468 12.5318C13.6586 12.523 13.6702 12.5141 13.6817 12.5054C13.7425 12.4591 13.8004 12.4149 13.8689 12.3838C13.896 12.3714 13.9232 12.3583 13.9503 12.3451C14.0046 12.3188 14.0589 12.2925 14.1132 12.2727L14.3575 12.1802L14.6165 12.1173C14.6506 12.1143 14.6858 12.109 14.7211 12.1037C14.7739 12.0957 14.8268 12.0877 14.8756 12.0877C15.1113 12.0694 15.3682 11.9959 15.6315 11.9206C15.7941 11.8741 15.959 11.8269 16.1229 11.7916C16.345 11.7213 16.5744 11.6398 16.7891 11.5473C17.0095 11.4573 17.2245 11.3547 17.4331 11.2401L18.0475 10.8515C18.2466 10.7142 18.437 10.5646 18.6175 10.4037L19.1726 9.87439L19.4465 9.5783C19.5094 9.51538 19.5686 9.45616 19.6205 9.39324C19.633 9.37867 19.6478 9.3676 19.6623 9.35676C19.6736 9.34833 19.6848 9.34004 19.6945 9.33032L19.8684 9.14527L20.072 8.95281L20.2941 8.73814C20.3118 8.72418 20.3296 8.70891 20.3498 8.69159C20.3884 8.65841 20.4358 8.61769 20.5087 8.56419L20.6827 8.41615L20.9047 8.2533L21.1083 8.10525L21.1194 8.09823C21.1872 8.05542 21.2649 8.00632 21.3526 7.95721L21.6191 7.80916C21.6276 7.80231 21.6418 7.79545 21.6574 7.78787C21.6755 7.77906 21.6957 7.76927 21.7116 7.75735C21.7247 7.75036 21.7388 7.74254 21.7538 7.73429C21.8021 7.70759 21.8586 7.67633 21.9152 7.65371L22.2335 7.49086C22.2455 7.48686 22.2575 7.48176 22.2707 7.47617C22.2819 7.47144 22.2939 7.46635 22.3075 7.46126L22.6406 7.29841L22.9737 7.15036L23.4178 6.9579L23.8768 6.83576L24.7946 6.6322L25.2536 6.55078C25.8726 6.44537 26.4963 6.37002 27.1226 6.32501L28.455 6.27319C29.0832 6.2734 29.7109 6.308 30.3352 6.37683C30.9587 6.43736 31.5788 6.52876 32.1932 6.65071L32.8372 6.79875L34.0215 7.10595L36.368 8.01643C36.3609 8.00213 36.353 7.98708 36.3448 7.9715C36.3276 7.93867 36.3091 7.90352 36.294 7.86838L36.2126 7.62411C36.1944 7.55724 36.1836 7.50035 36.1701 7.42885C36.1672 7.41329 36.1641 7.39703 36.1608 7.37983C36.1423 7.2836 36.1312 7.20218 36.1312 7.12075C36.1223 7.05948 36.1186 6.99758 36.1201 6.9357L36.1312 6.67662C36.1367 6.65626 36.1395 6.6359 36.1423 6.61554C36.1451 6.59519 36.1478 6.57483 36.1534 6.55448C36.1588 6.53446 36.1616 6.51087 36.1643 6.48766C36.1672 6.46365 36.1699 6.44005 36.1756 6.42124L36.2496 6.16216L36.331 5.92899L36.4421 5.69582L36.5901 5.48115C36.6271 5.41083 36.6752 5.34791 36.7382 5.27759C36.8011 5.20729 36.864 5.14438 36.9232 5.08517L36.9232 5.08513C36.9533 5.05505 36.9882 5.02783 37.0225 5.00104C37.0557 4.97511 37.0884 4.94959 37.1157 4.92228C37.155 4.88297 37.2036 4.85107 37.2549 4.8174C37.276 4.80353 37.2976 4.78936 37.3192 4.77424C37.4211 4.70244 37.5267 4.63817 37.6317 4.5743C37.7594 4.4966 37.8861 4.41948 38.0039 4.3301C38.0376 4.30533 38.0661 4.27633 38.0948 4.24714C38.1262 4.21528 38.1578 4.18319 38.1964 4.15615C38.2456 4.12172 38.2833 4.07912 38.3216 4.03595C38.3409 4.01415 38.3604 3.99221 38.3815 3.97109L38.5295 3.76753L38.5924 3.675C38.6057 3.6568 38.6174 3.63786 38.629 3.61917C38.6434 3.59606 38.6575 3.57333 38.6739 3.55287L38.7849 3.3197C38.8166 3.23986 38.8438 3.15831 38.8663 3.07542L38.9403 2.83115L38.9625 2.56467C38.9667 2.51914 38.9657 2.49881 38.9647 2.47915ZM60.1658 28.0468C59.9086 28.0988 59.6588 28.1821 59.4219 28.2948L59.4515 28.3022L59.4367 28.7981C59.4351 28.9098 59.4565 29.0207 59.4996 29.1238L63.1008 29.0128L64.8107 29.0276C65.1503 29.0787 65.4927 29.1096 65.8359 29.1201L66.6576 29.1053C66.6641 29.078 66.6705 29.0515 66.6767 29.0258C66.73 28.8047 66.7686 28.6444 66.7686 28.5316L66.7205 28.143C65.8174 27.8802 65.3067 27.6471 65.166 27.4287C65.0254 27.2103 64.9625 26.248 64.9625 24.5566L64.9921 24.168L64.9292 21.6697L64.944 20.6334L64.9143 19.6563L64.944 19.3972C65.5174 18.8503 66.1715 18.3946 66.8833 18.0463C67.4431 17.7638 68.0589 17.6095 68.6858 17.5948C69.4778 17.5948 70.0996 17.9871 70.4697 18.7792C70.714 19.3047 70.8399 20.6704 70.8399 22.8763L70.825 24.6788L70.8547 26.6959C70.8547 27.1955 70.8028 27.5212 70.7288 27.7063C70.6992 27.784 70.5771 27.8802 70.3735 27.9542C70.3296 27.9646 70.2872 27.975 70.2462 27.9851C70.0972 28.0216 69.9662 28.0537 69.8442 28.0653C69.6402 28.0941 69.462 28.1182 69.3107 28.1387C69.0339 28.1763 68.847 28.2016 68.7561 28.2207L68.7265 28.8277V28.8278C68.7265 28.9055 68.7265 28.998 68.7413 29.1386H69.2706L71.3358 28.9832H72.0501L72.9495 28.9536L76.0066 29.1756L76.0214 28.6649C76.0269 28.489 75.9778 28.3157 75.8808 28.1689L75.1184 28.0283C74.8174 27.9998 74.5234 27.9209 74.2486 27.7951C74.1623 27.6111 74.1193 27.4098 74.1227 27.2066L74.1857 22.1139C74.1857 20.2041 74.1042 18.9087 73.8452 18.2795C73.5861 17.6503 73.0901 17.0951 72.3647 16.614C71.5976 16.1204 70.7008 15.8665 69.7887 15.8849C68.8831 15.8975 67.9894 16.0926 67.1609 16.4586C66.4466 16.7546 65.6694 17.2728 64.7996 18.013L64.7848 17.2987C64.7848 17.1914 64.7848 17.0507 64.7996 16.8805L64.8292 15.1261L64.0076 15.1891C63.6835 15.6116 63.3081 15.992 62.8898 16.3216C62.7437 16.4159 62.604 16.5198 62.4716 16.6325L62.2125 16.7731L61.1096 17.2062C60.9386 17.2496 60.7848 17.2889 60.648 17.3238C60.2012 17.438 59.9362 17.5057 59.8512 17.5171L59.4959 17.5911L59.5107 18.3313C60.2435 18.5349 60.6877 18.731 60.9837 18.9531C61.2021 19.1086 61.3428 19.264 61.3724 19.4195C61.4797 19.8229 61.5278 20.3669 61.5278 21.0183V21.9917L61.5759 23.6387L61.5611 24.7417V26.0926C61.5611 26.8069 61.5315 27.251 61.4686 27.4731C61.4168 27.5915 61.3131 27.7211 61.1577 27.8136C61.0652 27.8765 60.7395 27.9543 60.1658 28.0468ZM78.4864 19.116C78.268 19.3972 78.0348 19.982 77.7573 20.8703L77.6906 20.8925C77.5348 21.701 77.4604 22.523 77.4686 23.3463C77.4686 23.8127 77.6092 24.4493 77.8572 25.2413C78.057 25.8446 78.3272 26.4553 78.7714 27.0105C79.1909 27.5578 79.6899 28.0393 80.2518 28.4391C80.8257 28.8275 81.4615 29.1153 82.132 29.2904C82.6575 29.4495 83.3274 29.5124 84.1491 29.5124C85.4001 29.5124 86.503 29.3274 87.4801 28.8462C88.4572 28.3651 89.4232 27.6174 90.3374 26.6255L89.3899 25.8853C88.9584 26.209 88.496 26.4892 88.0094 26.7218C87.5874 26.8895 87.1514 27.0195 86.7066 27.1104L85.0929 27.1844L84.1935 26.8883C83.7716 26.7329 83.32 26.4997 82.9499 26.1592C82.5453 25.8292 82.203 25.4293 81.9395 24.9785C81.673 24.5122 81.4621 24.0014 81.3325 23.3797C81.203 22.7579 81.129 22.1805 81.129 21.6253L81.1586 21.2552H82.5095L84.1861 21.2404L85.4297 21.3033C86.4784 21.3729 87.5286 21.4198 88.5793 21.444L90.3189 21.4736C90.3096 20.7787 90.178 20.0909 89.9303 19.4417C89.7297 18.9063 89.4407 18.4083 89.0753 17.9686C88.6591 17.5077 88.1909 17.0966 87.68 16.7435C87.2175 16.4375 86.7014 16.2215 86.1588 16.1069C85.3846 15.9306 84.5913 15.8522 83.7975 15.8738C83.2277 15.8951 82.6635 15.9948 82.1209 16.1699C81.5953 16.3253 80.992 16.5992 80.3369 17.1174C79.6818 17.6355 79.0601 18.2647 78.4864 19.116ZM86.4845 18.5275C86.6992 19.0715 86.8102 19.6119 86.825 20.2041L86.8213 20.2004L86.4031 20.1856L85.7517 20.2337L84.7894 20.2818L81.2363 20.267C81.314 19.2492 81.6101 18.372 82.1838 17.7688C82.7575 17.1655 83.3385 16.8546 84.0788 16.8546C84.5733 16.8661 85.0535 17.0232 85.4593 17.3061C85.9293 17.5948 86.2698 17.9834 86.4845 18.5275ZM93.4315 24.6343C93.201 24.6448 92.9718 24.6758 92.7468 24.7269L92.906 24.738L93.165 27.0216C93.2576 27.7951 93.339 28.2318 93.3686 28.3244C93.4351 28.4147 93.5195 28.4903 93.6166 28.5464C93.9923 28.7136 94.3751 28.8642 94.7639 28.998C95.3524 29.1534 95.8669 29.2607 96.2999 29.3089C96.8923 29.3842 97.4874 29.4361 98.0838 29.4643C99.8382 29.4643 101.145 29.0757 102.059 28.2688C102.973 27.462 103.439 26.4516 103.439 25.2413C103.439 24.4641 103.24 23.7831 102.866 23.1909C102.492 22.5987 101.826 22.0695 100.893 21.6364C100.256 21.344 99.2497 21.0331 97.8803 20.7371C96.9772 20.552 96.3554 20.267 95.9853 19.9154C95.6152 19.5638 95.4301 19.2196 95.4301 18.8791C95.419 18.6453 95.4609 18.4121 95.5525 18.1968C95.6442 17.9814 95.7832 17.7896 95.9594 17.6355C96.4405 17.2358 97.029 17.0137 97.7618 17.0137C98.4947 17.0137 99.0868 17.2173 99.6124 17.5874C100.138 17.9575 100.652 18.6089 101.148 19.5416C101.262 19.764 101.386 19.9813 101.518 20.193C101.574 20.197 101.626 20.2011 101.675 20.2049C101.803 20.2148 101.903 20.2226 101.97 20.2226C102.203 20.2108 102.433 20.1685 102.655 20.0968C102.688 20.019 102.703 19.9376 102.703 19.8636L102.533 18.3276C102.41 17.4727 102.329 16.9138 102.255 16.6806C101.655 16.389 101.017 16.1846 100.36 16.0736C99.4983 15.9265 98.6249 15.8584 97.7507 15.8701C97.083 15.8667 96.4204 15.9872 95.7965 16.2254C95.1859 16.4623 94.7417 16.7213 94.4456 17.0174C94.0363 17.3952 93.7045 17.849 93.4685 18.3535C93.2539 18.8643 93.128 19.5009 93.128 20.2929C93.128 20.6704 93.2391 21.1812 93.4981 21.7734C93.7075 22.2064 94.0036 22.5919 94.3679 22.9059C94.7516 23.2416 95.193 23.5049 95.6707 23.6832L97.4768 24.1939C98.5354 24.453 99.1905 24.638 99.4495 24.7491C99.9751 25.023 100.338 25.2598 100.504 25.4893C100.671 25.7188 100.763 26.0001 100.763 26.3258C100.763 26.818 100.49 27.2732 100.023 27.7063C99.565 28.1213 98.9646 28.3439 98.3466 28.3281C97.971 28.3312 97.5977 28.2686 97.2437 28.143C96.7329 27.9728 96.3591 27.7877 96.1259 27.6323C95.7299 27.3695 95.3709 27.0253 95.0156 26.607L93.8979 24.8046L93.7572 24.6491L93.4315 24.6343ZM105.548 17.2688C105.544 17.2701 105.541 17.2715 105.538 17.2728L105.549 17.2321L105.548 17.2688ZM105.548 17.2688L105.519 17.9723C105.522 18.0663 105.554 18.157 105.612 18.2314L105.815 18.2795L106.948 18.2647L107.429 18.2795V22.7246L107.366 25.456C107.366 26.744 107.659 27.71 108.266 28.3133C108.873 28.9165 109.65 29.2274 110.627 29.2274C111.371 29.2274 112.07 29.072 112.722 28.7463C113.354 28.4482 113.891 27.9805 114.273 27.3954L114.21 27.2103C114.029 26.9877 113.82 26.7898 113.588 26.6218C113.538 26.6599 113.491 26.6927 113.449 26.7224C113.384 26.7678 113.33 26.8059 113.292 26.8439C112.977 27.0919 112.748 27.251 112.607 27.2955C112.466 27.3399 112.263 27.3695 111.985 27.3695C111.712 27.3719 111.441 27.3138 111.193 27.1992C111.013 26.9544 110.885 26.6745 110.819 26.3776L110.756 24.2198L110.786 18.298L111.526 18.2684L111.808 18.2832H112.614C112.862 18.3128 113.036 18.3128 113.11 18.3128C113.371 18.3093 113.63 18.2883 113.888 18.2499C113.965 17.9427 114.013 17.6614 114.013 17.4134C114.004 17.1624 113.968 16.9131 113.906 16.6695L112.74 16.6991L111.282 16.762L110.927 16.7472L110.912 16.3919L110.96 15.4778L110.975 14.2046C110.975 13.9138 110.927 13.625 110.834 13.3496H109.946C109.324 14.4711 108.736 15.3371 108.192 15.7924C107.649 16.2464 106.764 16.7593 105.548 17.2688Z" fill="url(#paint0_linear_18765_22591)"/>
<defs>
<linearGradient id="paint0_linear_18765_22591" x1="63.4316" y1="1.6875" x2="63.4316" y2="41.1592" gradientUnits="userSpaceOnUse">
<stop stop-color="white"/>
<stop offset="1" stop-color="white" stop-opacity="0.6"/>
</linearGradient>
</defs>
</svg>
