<svg width="128" height="44" viewBox="0 0 128 44" fill="none" xmlns="http://www.w3.org/2000/svg">
<g clip-path="url(#clip0_18765_22649)">
<path fill-rule="evenodd" clip-rule="evenodd" d="M49.5224 9.913L51.8007 17.9903H51.7823C51.816 18.1051 51.8971 18.1525 52.0271 18.1525H55.1424C55.2572 18.1525 55.3046 18.1051 55.3383 17.9903L56.3695 14.1758L57.3702 17.9903C57.4023 18.1051 57.4513 18.1525 57.5661 18.1525H60.6813C60.8114 18.1525 60.8925 18.1051 60.9246 17.9903L63.1035 9.913V17.949C63.1035 18.0638 63.1861 18.1449 63.2993 18.1449H66.7328C66.846 18.1449 66.9271 18.0638 66.9271 17.949V9.55343C66.9271 9.4402 66.846 9.35911 66.7328 9.35911H60.054C59.9408 9.35911 59.8765 9.40654 59.8428 9.53813L59.087 13.4184L58.3219 9.53813C58.3066 9.4249 58.224 9.35911 58.1108 9.35911H54.7201C54.6053 9.35911 54.5243 9.4249 54.5089 9.53813L53.7684 13.4184L53.0278 9.53813C52.9942 9.40654 52.9299 9.35911 52.8167 9.35911H47.7567V6.50244C47.7567 6.35708 47.6603 6.29128 47.4966 6.34025L44.317 7.3654C44.2038 7.39907 44.138 7.49546 44.138 7.61022V8.96129C44.138 9.29485 43.959 9.4402 43.6254 9.4402H42.8038C42.6906 9.4402 42.6095 9.5213 42.6095 9.63606V12.0352C42.6095 12.15 42.6906 12.2311 42.8038 12.2311H44.0324V15.152C44.0324 17.2176 44.8449 18.3897 47.3267 18.3897C48.2861 18.3897 49.0741 18.2673 49.4903 18.0714C49.6111 18.0148 49.6601 17.9337 49.6601 17.8037V15.5345C49.6601 15.4045 49.5377 15.3387 49.3755 15.4198C49.1644 15.5162 48.9272 15.5345 48.6854 15.5345C48.0413 15.5345 47.8378 15.2974 47.8378 14.4926V12.2387H49.3342C49.449 12.2387 49.5224 12.1653 49.5224 12.0505V9.913ZM63.2993 8.6109C63.1861 8.6109 63.1035 8.52827 63.1035 8.41505V6.5208C63.1035 6.40604 63.1861 6.32495 63.2993 6.32495H66.7328C66.846 6.32495 66.9271 6.40604 66.9271 6.5208V8.41505C66.9271 8.52827 66.846 8.6109 66.7328 8.6109H63.2993ZM67.8789 18.1525C67.7641 18.1525 67.683 18.0714 67.683 17.9567V6.5208C67.683 6.40604 67.7641 6.32495 67.8789 6.32495H71.3108C71.4241 6.32495 71.5052 6.40604 71.5052 6.5208V17.9567C71.5052 18.0714 71.4241 18.1525 71.3108 18.1525H67.8789ZM72.4569 18.1525C72.3452 18.1525 72.2641 18.0714 72.2641 17.9567V9.57026C72.2641 9.45704 72.3452 9.37594 72.4569 9.37594H75.8827C75.996 9.37594 76.0771 9.45704 76.0771 9.57026V17.9567C76.0771 18.0714 75.996 18.1525 75.8827 18.1525H72.4569ZM72.4569 8.6109C72.3452 8.6109 72.2641 8.52827 72.2641 8.41505V6.5208C72.2641 6.40604 72.3452 6.32495 72.4569 6.32495H75.8827C75.996 6.32495 76.0771 6.40604 76.0771 6.5208V8.41505C76.0771 8.52827 75.996 8.6109 75.8827 8.6109H72.4569ZM86.5291 13.8423V13.6311C86.5291 11.0193 84.5369 9.10664 81.6068 9.10664C78.6797 9.10664 76.6723 11.0193 76.6723 13.6311V13.8423C76.6723 16.4526 78.6721 18.4218 81.6068 18.4218C84.5446 18.4218 86.5291 16.4526 86.5291 13.8423ZM81.6068 12.0123C82.3152 12.0123 82.8691 12.4835 82.8691 13.6862V13.8423C82.8691 15.0296 82.3152 15.5269 81.6068 15.5269C80.8999 15.5269 80.3475 15.0296 80.3475 13.8423V13.6862C80.3475 12.4835 80.8999 12.0123 81.6068 12.0123ZM23.2104 12.101C22.3979 11.8561 21.5028 11.6939 20.6077 11.6939C16.6233 11.6939 13.2877 14.0533 11.7424 17.47C11.5802 17.877 11.1732 18.0392 10.7662 17.877L9.22077 17.3078C8.73267 17.1441 8.57048 16.5749 8.73267 16.1679C10.7662 11.6129 15.3197 8.43945 20.6077 8.43945C21.8272 8.43945 23.0466 8.60164 24.1866 9.00865C24.6731 9.17236 24.9179 9.66046 24.7557 10.0659L24.1866 11.6129C24.0244 12.0199 23.6174 12.182 23.2104 12.101ZM29.5553 12.5079C29.5553 13.4015 28.8239 14.1344 27.9288 14.1344C27.0337 14.1344 26.3008 13.4015 26.3008 12.5079C26.3008 11.6128 27.0337 10.8799 27.9288 10.8799C28.8239 10.8799 29.5553 11.6128 29.5553 12.5079ZM19.1027 19.8299H31.882C32.3609 19.8299 32.7679 19.4382 32.849 18.9592V17.4536C32.849 16.9824 32.4497 16.583 31.9631 16.583H19.1027C18.6238 16.583 18.2168 16.9747 18.2168 17.4536V18.9592C18.2168 19.4305 18.6161 19.8299 19.1027 19.8299ZM8.44922 25.4424C8.44922 25.929 8.85622 26.336 9.34432 26.336H22.1619C22.6515 26.336 23.057 25.929 23.1381 25.5235V23.9766C23.1381 23.4885 22.7326 23.083 22.2445 23.083H9.34432C8.85622 23.083 8.44922 23.4885 8.44922 23.8955V25.4424ZM13.2882 32.0318C14.1833 32.0318 14.9147 31.2989 14.9147 30.4054C14.9147 29.5103 14.1833 28.7773 13.2882 28.7773C12.3931 28.7773 11.6602 29.5103 11.6602 30.4054C11.6602 31.2989 12.3931 32.0318 13.2882 32.0318ZM20.6082 31.218C19.7131 31.218 18.8196 31.0573 18.0056 30.8125C17.5986 30.7314 17.1915 30.8936 17.0309 31.2991L16.4602 32.846C16.298 33.253 16.5413 33.7411 17.0309 33.9033C18.1677 34.3103 19.3872 34.4725 20.6082 34.4725C25.8947 34.4725 30.4498 31.2991 32.4832 26.744C32.6454 26.337 32.4832 25.7693 31.9936 25.6056L30.4498 25.0364C30.0428 24.8727 29.6373 25.0364 29.4736 25.4434C27.9282 28.8586 24.5926 31.218 20.6082 31.218ZM43.0235 32.0393V30.3073C44.3578 31.6247 45.894 32.3163 47.5373 32.3163C48.9266 32.3163 49.7253 31.6492 49.7253 30.601C49.7253 29.2821 48.4553 29.1352 47.0002 28.973C45.1213 28.7542 42.8613 28.4681 42.8613 26.0108C42.8613 23.9543 44.5444 22.7578 46.7631 22.7578C48.9847 22.7578 50.2853 23.4984 51.1712 24.1808V25.8991C50.0344 24.7026 48.5364 24.1073 46.8212 24.092C45.2666 24.092 44.5108 24.8173 44.5108 25.8654C44.5108 27.0772 45.8297 27.2578 47.2925 27.4185C49.1882 27.6388 51.416 27.9647 51.416 30.4695C51.416 32.4065 49.9365 33.6826 47.6184 33.6826C45.3003 33.6826 44.0961 32.9604 43.0312 32.0393H43.0235ZM57.7139 22.748C54.8587 22.748 52.8008 24.7907 52.8008 28.1018V28.3619C52.8008 31.7388 54.9551 33.6897 58.4927 33.6897C60.4864 33.6897 61.5513 33.0807 62.1297 32.6263V31.1039C61.4045 31.6975 60.3808 32.2759 58.788 32.2759C56.395 32.2759 54.6476 31.2416 54.4992 28.6389H62.3409V27.8249C62.3409 24.3914 60.4053 22.748 57.7139 22.748ZM60.6409 27.3781H54.5175C54.7532 25.1579 55.9482 24.0915 57.6971 24.0915C59.4444 24.0915 60.5354 25.1732 60.6409 27.3781ZM63.3556 35.4407C63.3556 34.2686 64.2583 33.4148 66.3745 33.2679C66.3898 33.2679 66.4066 33.2526 66.4066 33.2358C66.4066 33.2205 66.3898 33.2022 66.3745 33.2022C64.5108 33.2022 63.8284 32.7492 63.8284 31.845C63.8284 31.0157 64.699 30.2338 66.8136 30.2169C66.8289 30.2169 66.8457 30.2016 66.8457 30.1848C66.8457 30.1695 66.8289 30.1527 66.8136 30.1527C64.9668 29.8834 63.885 28.5828 63.885 26.6136C63.885 24.3032 65.6584 22.7654 68.2595 22.7654C68.9333 22.7654 69.4113 22.8208 69.8357 22.8699L69.8357 22.8699C70.1746 22.9092 70.4794 22.9444 70.8224 22.9444H73.6209V24.3185H71.4742C72.1567 24.8066 72.5958 25.743 72.5958 26.7758C72.5958 28.8016 71.0259 30.4281 68.3498 30.4281H67.6995C66.252 30.4281 65.4962 30.7387 65.4962 31.2758C65.4962 31.8526 65.9996 31.9429 67.9183 31.9429H69.8554C72.3265 31.9429 73.5796 32.5763 73.5796 34.3834C73.5796 36.1889 72.0266 37.6195 68.1218 37.6195H67.8709C64.4221 37.6195 63.3724 36.7504 63.3724 35.4483L63.3556 35.4407ZM71.9195 34.6267C71.9195 33.6505 71.1238 33.398 69.4974 33.398H67.7806C65.7226 33.398 65.0157 34.1386 65.0157 34.9939C65.0157 35.7742 65.7961 36.3113 68.0162 36.3113H68.2121C70.9203 36.3113 71.9118 35.661 71.9118 34.6267H71.9195ZM70.9601 26.6549C70.9601 25.1325 70.0008 23.9451 68.2519 23.9451C66.5045 23.9451 65.5283 24.9948 65.5283 26.6549C65.5283 28.1024 66.4877 29.201 68.2519 29.201C70.0176 29.201 70.9601 28.1024 70.9601 26.6549ZM76.695 22.9368H75.0348L75.0195 22.9292V33.5051H76.7026V27.8668C76.7026 25.4095 77.9466 24.141 79.5578 24.141C81.4536 24.141 82.266 25.4584 82.266 27.3955V33.5051H83.9507V27.6633C83.9338 25.4095 85.1457 24.141 86.789 24.141C88.7 24.141 89.4972 25.4997 89.4972 27.5256V33.5051H91.1803V27.1997C91.1803 24.418 89.9348 22.7578 87.4377 22.7578C85.3966 22.7578 84.2108 23.962 83.9002 26.3872C83.7058 24.092 82.5108 22.7578 80.2172 22.7578C78.1761 22.7578 77.0041 23.913 76.695 26.5172V22.9368ZM92.9062 28.1018C92.9062 24.7907 94.9627 22.748 97.8194 22.748C100.511 22.748 102.446 24.3914 102.446 27.8249V28.6389H94.6062C94.7515 31.2416 96.5004 32.2759 98.892 32.2759C100.486 32.2759 101.511 31.6975 102.235 31.1039V32.6263C101.657 33.0807 100.592 33.6897 98.5997 33.6897C95.0621 33.6897 92.9062 31.7388 92.9062 28.3619V28.1018ZM94.6215 27.3781H100.746C100.641 25.1732 99.5514 24.0915 97.8025 24.0915C96.0552 24.0915 94.8586 25.1579 94.6215 27.3781ZM105.887 26.4989V22.9368H104.219V33.5128H105.902V28.0534C105.902 25.4829 107.236 24.1487 108.993 24.1487C111.09 24.1487 111.937 25.5074 111.937 27.6541V33.5128H113.621V27.3129C113.621 24.4409 112.321 22.7578 109.612 22.7578C107.602 22.7578 106.245 23.8228 105.887 26.4989ZM116.459 30.2986V24.3038H114.547V23.0919L115.125 23.0751C116.224 23.0185 116.573 22.6038 116.663 21.2696L116.718 20.4893H118.143V22.9297H121.737V24.3038H118.143V30.2512C118.143 31.6252 118.778 32.2357 120.022 32.2357C120.673 32.2357 121.322 32.0904 121.737 31.8211V33.1385C121.322 33.4063 120.582 33.6434 119.55 33.6434C117.419 33.6434 116.459 32.6106 116.459 30.2986Z" fill="url(#paint0_linear_18765_22649)"/>
</g>
<defs>
<linearGradient id="paint0_linear_18765_22649" x1="65.1684" y1="6.32422" x2="65.1684" y2="37.6954" gradientUnits="userSpaceOnUse">
<stop stop-color="white"/>
<stop offset="1" stop-color="white" stop-opacity="0.6"/>
</linearGradient>
<clipPath id="clip0_18765_22649">
<rect width="117.511" height="31.7279" fill="white" transform="translate(5 6)"/>
</clipPath>
</defs>
</svg>
