<svg width="128" height="44" viewBox="0 0 128 44" fill="none" xmlns="http://www.w3.org/2000/svg">
<path fill-rule="evenodd" clip-rule="evenodd" d="M24.3619 29.7174C25.1302 28.9491 25.275 27.9099 25.1903 27.0124C25.1044 26.1033 24.7706 25.1162 24.2965 24.1316C23.8693 23.2443 23.2997 22.3006 22.6103 21.3383C23.2997 20.376 23.8693 19.4322 24.2965 18.545C24.7706 17.5604 25.1044 16.5733 25.1903 15.6642C25.275 14.7666 25.1302 13.7275 24.3619 12.9592C23.5936 12.1909 22.5545 12.0461 21.6568 12.1308C20.7479 12.2166 19.7608 12.5505 18.7761 13.0246C17.8888 13.4518 16.945 14.0214 15.9828 14.7107C15.0205 14.0214 14.0768 13.4518 13.1894 13.0246C12.2048 12.5505 11.2177 12.2166 10.3088 12.1308C9.41117 12.0461 8.37199 12.1909 7.60372 12.9592C6.83544 13.7275 6.69061 14.7666 6.77533 15.6642C6.86115 16.5733 7.19504 17.5604 7.66911 18.545C8.09633 19.4322 8.66589 20.376 9.35522 21.3383C8.66589 22.3006 8.09633 23.2443 7.66911 24.1316C7.19504 25.1162 6.86115 26.1033 6.77533 27.0124C6.69061 27.9099 6.83544 28.9491 7.60372 29.7174C8.37199 30.4856 9.41117 30.6305 10.3088 30.5458C11.2177 30.46 12.2048 30.126 13.1894 29.652C14.0768 29.2247 15.0205 28.6551 15.9828 27.9659C16.945 28.6551 17.8888 29.2247 18.7761 29.652C19.7608 30.126 20.7479 30.46 21.6568 30.5458C22.5545 30.6305 23.5936 30.4856 24.3619 29.7174ZM15.9828 26.2244C16.8413 25.5533 17.7143 24.782 18.5704 23.926C19.4266 23.0698 20.1978 22.1967 20.8689 21.3383C20.1978 20.4799 19.4266 19.6067 18.5704 18.7506C17.7143 17.8945 16.8413 17.1233 15.9828 16.4522C15.1243 17.1233 14.2513 17.8945 13.3951 18.7506C12.539 19.6067 11.7678 20.4799 11.0967 21.3383C11.7678 22.1967 12.539 23.0698 13.3951 23.926C14.2513 24.782 15.1243 25.5533 15.9828 26.2244ZM17.1473 27.08C17.9552 26.4296 18.7655 25.7025 19.5563 24.9117C20.3469 24.121 21.0741 23.3107 21.7246 22.5027C23.634 25.2802 24.3687 27.7391 23.3761 28.7316C22.3835 29.7242 19.9248 28.9895 17.1473 27.08ZM10.241 22.5027C10.8916 23.3107 11.6187 24.121 12.4093 24.9117C13.2001 25.7025 14.0103 26.4296 14.8184 27.08C12.0408 28.9895 9.58207 29.7242 8.58949 28.7316C7.59691 27.7391 8.33159 25.2802 10.241 22.5027ZM10.241 20.1738C10.8916 19.3659 11.6187 18.5555 12.4093 17.7649C13.2001 16.9741 14.0103 16.247 14.8184 15.5965C12.0408 13.6871 9.58207 12.9524 8.58949 13.945C7.59691 14.9375 8.33159 17.3963 10.241 20.1738ZM17.1473 15.5965C17.9552 16.247 18.7655 16.9741 19.5563 17.7649C20.3469 18.5555 21.0741 19.3659 21.7246 20.1738C23.634 17.3963 24.3687 14.9375 23.3761 13.945C22.3835 12.9524 19.9248 13.6871 17.1473 15.5965Z" fill="url(#paint0_linear_18765_22626)" stroke="url(#paint1_linear_18765_22626)" stroke-width="0.396996"/>
<path d="M35.7637 27.4378V19.1113H37.6754L37.707 21.7657L37.4384 21.1653C37.5543 20.7439 37.7544 20.3647 38.0388 20.0277C38.3232 19.6907 38.6498 19.4273 39.0184 19.2377C39.3976 19.0375 39.7926 18.9375 40.2034 18.9375C40.3824 18.9375 40.551 18.9533 40.709 18.9849C40.8776 19.0165 41.0144 19.0533 41.1198 19.0955L40.5984 21.2285C40.4826 21.1653 40.3404 21.1126 40.1718 21.0705C40.0032 21.0283 39.8348 21.0073 39.6662 21.0073C39.4029 21.0073 39.1501 21.0599 38.9078 21.1653C38.6761 21.2601 38.4707 21.397 38.2916 21.5761C38.1126 21.7551 37.9704 21.9658 37.865 22.2081C37.7702 22.4398 37.7228 22.7031 37.7228 22.998V27.4378H35.7637Z" fill="url(#paint2_linear_18765_22626)"/>
<path d="M45.5473 27.5959C44.6731 27.5959 43.8989 27.4116 43.2248 27.043C42.5612 26.6743 42.0398 26.174 41.6606 25.542C41.292 24.8994 41.1076 24.1674 41.1076 23.3458C41.1076 22.6928 41.213 22.0976 41.4236 21.5604C41.6342 21.0232 41.924 20.5598 42.2926 20.1701C42.6718 19.7698 43.1194 19.4643 43.6356 19.2537C44.1622 19.0325 44.7363 18.9219 45.3577 18.9219C45.9055 18.9219 46.4163 19.0272 46.8903 19.2379C47.3643 19.4485 47.7751 19.7382 48.1227 20.1069C48.4703 20.465 48.7337 20.8968 48.9127 21.4024C49.1023 21.8975 49.1919 22.44 49.1813 23.0298L49.1655 23.7092H42.419L42.0556 22.382H47.5381L47.2853 22.6506V22.303C47.2537 21.9765 47.1483 21.6921 46.9693 21.4498C46.7903 21.197 46.5585 21.0022 46.2741 20.8652C46.0003 20.7178 45.6948 20.644 45.3577 20.644C44.8416 20.644 44.4045 20.7441 44.0464 20.9442C43.6988 21.1444 43.4354 21.434 43.2564 21.8132C43.0773 22.1819 42.9878 22.6454 42.9878 23.2036C42.9878 23.7408 43.0984 24.2096 43.3196 24.6098C43.5513 25.01 43.8726 25.3208 44.2834 25.542C44.7047 25.7526 45.1945 25.858 45.7527 25.858C46.1425 25.858 46.5006 25.7948 46.8271 25.6684C47.1537 25.542 47.5065 25.3155 47.8857 24.989L48.8495 26.332C48.5651 26.5953 48.2385 26.8218 47.8699 27.0114C47.5117 27.1904 47.1325 27.3326 46.7323 27.4379C46.3321 27.5433 45.9371 27.5959 45.5473 27.5959Z" fill="url(#paint3_linear_18765_22626)"/>
<path d="M53.6309 27.5958C52.9463 27.5958 52.3248 27.4062 51.7665 27.027C51.2083 26.6478 50.7606 26.1316 50.4236 25.4786C50.0865 24.8256 49.918 24.083 49.918 23.2508C49.918 22.4187 50.0865 21.6761 50.4236 21.0231C50.7606 20.37 51.2188 19.8591 51.7981 19.4905C52.3775 19.1219 53.0305 18.9375 53.7573 18.9375C54.1787 18.9375 54.5631 19.0007 54.9107 19.1271C55.2583 19.2429 55.5637 19.4115 55.8271 19.6327C56.0904 19.8539 56.3063 20.1067 56.4749 20.3911C56.6539 20.6755 56.7751 20.9809 56.8383 21.3075L56.4117 21.1969V19.1113H58.3708V27.4378H56.3959V25.447L56.8541 25.368C56.7803 25.6524 56.6434 25.9316 56.4433 26.2054C56.2537 26.4688 56.0114 26.7058 55.7165 26.9164C55.4321 27.1165 55.1109 27.2798 54.7527 27.4062C54.4051 27.5326 54.0311 27.5958 53.6309 27.5958ZM54.1681 25.8736C54.6211 25.8736 55.0213 25.763 55.3689 25.5418C55.7165 25.3206 55.9851 25.0152 56.1747 24.6254C56.3748 24.2252 56.4749 23.767 56.4749 23.2508C56.4749 22.7452 56.3748 22.2976 56.1747 21.9079C55.9851 21.5181 55.7165 21.2127 55.3689 20.9915C55.0213 20.7703 54.6211 20.6597 54.1681 20.6597C53.7151 20.6597 53.3149 20.7703 52.9673 20.9915C52.6303 21.2127 52.3669 21.5181 52.1773 21.9079C51.9877 22.2976 51.8929 22.7452 51.8929 23.2508C51.8929 23.767 51.9877 24.2252 52.1773 24.6254C52.3669 25.0152 52.6303 25.3206 52.9673 25.5418C53.3149 25.763 53.7151 25.8736 54.1681 25.8736Z" fill="url(#paint4_linear_18765_22626)"/>
<path d="M63.7798 27.5958C63.0004 27.5958 62.3 27.4062 61.6784 27.027C61.057 26.6478 60.5672 26.1316 60.2091 25.4786C59.851 24.8256 59.6719 24.0882 59.6719 23.2666C59.6719 22.445 59.851 21.7077 60.2091 21.0547C60.5672 20.4016 61.057 19.8855 61.6784 19.5063C62.3 19.1271 63.0004 18.9375 63.7798 18.9375C64.5277 18.9375 65.2071 19.0797 65.818 19.3641C66.4289 19.6485 66.9029 20.0435 67.24 20.5491L66.1656 21.8447C66.0076 21.6235 65.8075 21.4233 65.5652 21.2443C65.323 21.0652 65.0649 20.923 64.791 20.8177C64.5172 20.7123 64.2433 20.6597 63.9694 20.6597C63.506 20.6597 63.09 20.7755 62.7212 21.0073C62.3632 21.2285 62.0788 21.5392 61.868 21.9395C61.6574 22.3292 61.552 22.7716 61.552 23.2666C61.552 23.7617 61.6574 24.2041 61.868 24.5938C62.0892 24.9836 62.3842 25.2942 62.7528 25.526C63.1216 25.7578 63.5323 25.8736 63.9852 25.8736C64.2591 25.8736 64.5224 25.8314 64.7752 25.7472C65.0386 25.6524 65.2861 25.5208 65.5178 25.3522C65.7495 25.1836 65.9655 24.973 66.1656 24.7202L67.24 26.0316C66.8819 26.495 66.3868 26.8742 65.7548 27.1692C65.1334 27.4536 64.475 27.5958 63.7798 27.5958Z" fill="url(#paint5_linear_18765_22626)"/>
<path d="M69.2135 27.4358V16.9922H71.1569V27.4358H69.2135ZM67.5703 20.9105V19.1094H72.9738V20.9105H67.5703Z" fill="url(#paint6_linear_18765_22626)"/>
<path d="M82.1702 27.5959C81.296 27.5959 80.5218 27.4116 79.8476 27.043C79.1841 26.6743 78.6627 26.174 78.2835 25.542C77.9148 24.8994 77.7305 24.1674 77.7305 23.3458C77.7305 22.6928 77.8358 22.0976 78.0465 21.5604C78.2571 21.0232 78.5468 20.5598 78.9155 20.1701C79.2946 19.7698 79.7423 19.4643 80.2584 19.2537C80.7851 19.0325 81.3592 18.9219 81.9806 18.9219C82.5284 18.9219 83.0392 19.0272 83.5132 19.2379C83.9872 19.4485 84.398 19.7382 84.7456 20.1069C85.0932 20.465 85.3565 20.8968 85.5356 21.4024C85.7251 21.8975 85.8147 22.44 85.8041 23.0298L85.7884 23.7092H79.0419L78.6785 22.382H84.161L83.9082 22.6506V22.303C83.8766 21.9765 83.7712 21.6921 83.5922 21.4498C83.4132 21.197 83.1814 21.0022 82.897 20.8652C82.6232 20.7178 82.3176 20.644 81.9806 20.644C81.4644 20.644 81.0274 20.7441 80.6692 20.9442C80.3216 21.1444 80.0583 21.434 79.8792 21.8132C79.7002 22.1819 79.6106 22.6454 79.6106 23.2036C79.6106 23.7408 79.7212 24.2096 79.9424 24.6098C80.1742 25.01 80.4954 25.3208 80.9062 25.542C81.3276 25.7526 81.8174 25.858 82.3756 25.858C82.7654 25.858 83.1234 25.7948 83.45 25.6684C83.7765 25.542 84.1294 25.3155 84.5086 24.989L85.4724 26.332C85.188 26.5953 84.8614 26.8218 84.4928 27.0114C84.1346 27.1904 83.7554 27.3326 83.3552 27.4379C82.955 27.5433 82.56 27.5959 82.1702 27.5959Z" fill="url(#paint7_linear_18765_22626)"/>
<path d="M87.0781 27.4374V19.1109H88.9899L89.0215 20.7857L88.7055 20.9121C88.8003 20.6383 88.9425 20.3855 89.1321 20.1537C89.3217 19.9115 89.5481 19.7061 89.8115 19.5375C90.0748 19.3585 90.3539 19.2215 90.6489 19.1267C90.9438 19.0214 91.244 18.9688 91.5495 18.9688C92.0024 18.9688 92.4026 19.0425 92.7502 19.1899C93.1084 19.3269 93.4033 19.5481 93.635 19.8535C93.8773 20.159 94.0564 20.5487 94.1722 21.0227L93.872 20.9595L93.9984 20.7067C94.1143 20.4539 94.2776 20.2275 94.4882 20.0273C94.6988 19.8167 94.9358 19.6323 95.1992 19.4743C95.4626 19.3058 95.7364 19.1794 96.0208 19.0951C96.3158 19.0109 96.6054 18.9688 96.8898 18.9688C97.5218 18.9688 98.0484 19.0951 98.4698 19.3479C98.8911 19.6007 99.2069 19.9852 99.4182 20.5013C99.6286 21.0175 99.7342 21.6547 99.7342 22.4131V27.4374H97.7746V22.5395C97.7746 22.1181 97.7166 21.7705 97.6008 21.4967C97.4954 21.2229 97.3269 21.0227 97.0952 20.8963C96.874 20.7594 96.5948 20.6909 96.2578 20.6909C95.9944 20.6909 95.7416 20.7383 95.4994 20.8331C95.2676 20.9174 95.0676 21.0438 94.899 21.2123C94.7304 21.3703 94.5988 21.5547 94.504 21.7653C94.4092 21.9759 94.3618 22.2077 94.3618 22.4605V27.4374H92.4026V22.5237C92.4026 22.1235 92.3447 21.7917 92.2289 21.5283C92.113 21.2545 91.9445 21.0491 91.7233 20.9121C91.5021 20.7647 91.2335 20.6909 90.9175 20.6909C90.6541 20.6909 90.4066 20.7383 90.1749 20.8331C89.9431 20.9174 89.7431 21.0385 89.5745 21.1965C89.4059 21.3545 89.2743 21.5389 89.1795 21.7495C89.0847 21.9601 89.0373 22.1919 89.0373 22.4447V27.4374H87.0781Z" fill="url(#paint8_linear_18765_22626)"/>
<path d="M104.621 27.5958C103.937 27.5958 103.316 27.4062 102.757 27.027C102.199 26.6478 101.752 26.1316 101.414 25.4786C101.077 24.8256 100.908 24.083 100.908 23.2508C100.908 22.4187 101.077 21.6761 101.414 21.0231C101.752 20.37 102.21 19.8591 102.788 19.4905C103.368 19.1219 104.021 18.9375 104.748 18.9375C105.169 18.9375 105.553 19.0007 105.901 19.1271C106.249 19.2429 106.555 19.4115 106.817 19.6327C107.081 19.8539 107.297 20.1067 107.465 20.3911C107.645 20.6755 107.765 20.9809 107.828 21.3075L107.402 21.1969V19.1113H109.361V27.4378H107.386V25.447L107.844 25.368C107.771 25.6524 107.634 25.9316 107.434 26.2054C107.244 26.4688 107.002 26.7058 106.707 26.9164C106.422 27.1165 106.101 27.2798 105.743 27.4062C105.395 27.5326 105.022 27.5958 104.621 27.5958ZM105.158 25.8736C105.612 25.8736 106.012 25.763 106.359 25.5418C106.707 25.3206 106.975 25.0152 107.165 24.6254C107.365 24.2252 107.465 23.767 107.465 23.2508C107.465 22.7452 107.365 22.2976 107.165 21.9079C106.975 21.5181 106.707 21.2127 106.359 20.9915C106.012 20.7703 105.612 20.6597 105.158 20.6597C104.706 20.6597 104.305 20.7703 103.958 20.9915C103.621 21.2127 103.357 21.5181 103.168 21.9079C102.978 22.2976 102.883 22.7452 102.883 23.2508C102.883 23.767 102.978 24.2252 103.168 24.6254C103.357 25.0152 103.621 25.3206 103.958 25.5418C104.305 25.763 104.706 25.8736 105.158 25.8736Z" fill="url(#paint9_linear_18765_22626)"/>
<path d="M111.421 27.4374V19.111H113.364V27.4374H111.421ZM112.369 17.3414C111.979 17.3414 111.674 17.2466 111.453 17.057C111.242 16.8568 111.137 16.5778 111.137 16.2196C111.137 15.8826 111.247 15.6087 111.469 15.398C111.69 15.1874 111.99 15.082 112.369 15.082C112.769 15.082 113.075 15.1821 113.285 15.3822C113.507 15.5718 113.617 15.851 113.617 16.2196C113.617 16.5462 113.507 16.8148 113.285 17.0254C113.064 17.236 112.759 17.3414 112.369 17.3414Z" fill="url(#paint10_linear_18765_22626)"/>
<path d="M115.43 27.4379V15.7461H117.389V27.4379H115.43Z" fill="url(#paint11_linear_18765_22626)"/>
<defs>
<linearGradient id="paint0_linear_18765_22626" x1="15.9951" y1="12.1094" x2="15.9951" y2="30.612" gradientUnits="userSpaceOnUse">
<stop stop-color="white"/>
<stop offset="1" stop-color="white" stop-opacity="0.6"/>
</linearGradient>
<linearGradient id="paint1_linear_18765_22626" x1="15.9828" y1="12.1094" x2="15.9828" y2="30.5672" gradientUnits="userSpaceOnUse">
<stop stop-color="white"/>
<stop offset="1" stop-color="#999999"/>
</linearGradient>
<linearGradient id="paint2_linear_18765_22626" x1="38.4453" y1="18.9375" x2="38.4453" y2="27.4584" gradientUnits="userSpaceOnUse">
<stop stop-color="white"/>
<stop offset="1" stop-color="white" stop-opacity="0.6"/>
</linearGradient>
<linearGradient id="paint3_linear_18765_22626" x1="45.1502" y1="18.9219" x2="45.1502" y2="27.617" gradientUnits="userSpaceOnUse">
<stop stop-color="white"/>
<stop offset="1" stop-color="white" stop-opacity="0.6"/>
</linearGradient>
<linearGradient id="paint4_linear_18765_22626" x1="54.15" y1="18.9375" x2="54.15" y2="27.6168" gradientUnits="userSpaceOnUse">
<stop stop-color="white"/>
<stop offset="1" stop-color="white" stop-opacity="0.6"/>
</linearGradient>
<linearGradient id="paint5_linear_18765_22626" x1="63.461" y1="18.9375" x2="63.461" y2="27.6168" gradientUnits="userSpaceOnUse">
<stop stop-color="white"/>
<stop offset="1" stop-color="white" stop-opacity="0.6"/>
</linearGradient>
<linearGradient id="paint6_linear_18765_22626" x1="70.2757" y1="16.9922" x2="70.2757" y2="27.4611" gradientUnits="userSpaceOnUse">
<stop stop-color="white"/>
<stop offset="1" stop-color="white" stop-opacity="0.6"/>
</linearGradient>
<linearGradient id="paint7_linear_18765_22626" x1="81.7731" y1="18.9219" x2="81.7731" y2="27.617" gradientUnits="userSpaceOnUse">
<stop stop-color="white"/>
<stop offset="1" stop-color="white" stop-opacity="0.6"/>
</linearGradient>
<linearGradient id="paint8_linear_18765_22626" x1="93.4146" y1="18.9688" x2="93.4146" y2="27.458" gradientUnits="userSpaceOnUse">
<stop stop-color="white"/>
<stop offset="1" stop-color="white" stop-opacity="0.6"/>
</linearGradient>
<linearGradient id="paint9_linear_18765_22626" x1="105.14" y1="18.9375" x2="105.14" y2="27.6168" gradientUnits="userSpaceOnUse">
<stop stop-color="white"/>
<stop offset="1" stop-color="white" stop-opacity="0.6"/>
</linearGradient>
<linearGradient id="paint10_linear_18765_22626" x1="112.379" y1="15.082" x2="112.379" y2="27.4674" gradientUnits="userSpaceOnUse">
<stop stop-color="white"/>
<stop offset="1" stop-color="white" stop-opacity="0.6"/>
</linearGradient>
<linearGradient id="paint11_linear_18765_22626" x1="116.411" y1="15.7461" x2="116.411" y2="27.4663" gradientUnits="userSpaceOnUse">
<stop stop-color="white"/>
<stop offset="1" stop-color="white" stop-opacity="0.6"/>
</linearGradient>
</defs>
</svg>
