<svg width="164" height="50" viewBox="0 0 164 50" fill="none" xmlns="http://www.w3.org/2000/svg">
<path fill-rule="evenodd" clip-rule="evenodd" d="M0.288632 24.9847C0.288632 13.9397 9.27772 5 20.3837 5C31.3269 5 40.2148 13.6796 40.473 24.5004C40.7307 35.3009 31.845 44.6429 20.9865 44.9607C16.473 45.0928 12.2439 43.736 8.82366 41.3198C8.57045 41.1409 8.22604 41.1641 8.00642 41.3825L5.22803 44.1457C4.64512 44.7254 3.90881 45 3.1725 45C2.4362 45 1.66921 44.7254 1.11698 44.1457C-0.0181596 43.0168 -0.0181596 41.1861 1.11698 40.0572L3.89498 37.2945C4.11047 37.0802 4.14424 36.741 3.96749 36.4941C1.6409 33.2444 0.288632 29.2827 0.288632 24.9847ZM5.38142 24.9847C5.38142 33.2227 12.6407 39.9047 20.3837 39.9047C28.7879 39.9047 35.5814 33.0266 35.3817 24.6236C35.1935 16.7101 28.704 10.2562 20.7468 10.0691C12.2975 9.87043 5.38142 16.6267 5.38142 24.9847ZM54.9741 21.7219H64.2964V12.8538H68.9576V35.2255H64.2964V26.1559H54.9741V35.2255H50.5156V12.8538H54.9741V21.7219ZM74.3825 21.3577C75.8197 19.9172 77.7195 19.1237 79.7346 19.1237C84.5721 19.1237 87.4609 22.1364 87.4609 27.1816C87.4609 27.6323 87.4255 28.1024 87.4083 28.3288C87.4028 28.3974 87.3992 28.4434 87.3992 28.4588L87.3983 28.5734L87.283 28.5743H76.3822C76.5319 30.4402 78.1269 31.8315 80.1419 31.8315C81.8485 31.8315 82.9916 31.0714 83.5406 29.5722L83.5778 29.4698L87.2704 30.5607L87.2377 30.6712C86.5309 33.06 84.2881 35.6131 80.1102 35.6131C77.9418 35.6131 75.9376 34.8353 74.4669 33.4236C72.8783 31.8992 72.0391 29.7838 72.0391 27.3061C72.0391 24.9859 72.871 22.8727 74.3825 21.3577ZM79.7949 22.7603C77.817 22.7603 76.6294 24.176 76.4761 25.5511H83.1155C83.0121 24.1796 82.093 22.7603 79.7949 22.7603ZM108.553 19.2345C106.396 19.2345 104.85 20.0113 103.704 21.6752C102.883 20.121 101.231 19.2345 99.1379 19.2345C97.6819 19.2345 95.7635 19.871 94.7636 21.2601V19.7067H90.5078V35.2258H94.9663V26.1406C94.9663 24.4019 96.098 23.2343 97.7821 23.2343C99.4699 23.2343 100.438 24.248 100.438 26.0161V35.2258H104.694V26.1406C104.694 24.4294 105.803 23.2343 107.391 23.2343C109.628 23.2343 109.963 24.9771 109.963 26.0161V35.2258H114.219V25.1752C114.219 23.2488 113.614 21.6792 112.47 20.6357C111.479 19.7321 110.088 19.2345 108.553 19.2345ZM122.646 21.2953C123.71 19.8056 125.527 19.2642 126.937 19.2642C130.415 19.2642 132.576 21.6355 132.576 25.454V35.224H128.118V26.1699C128.118 24.3031 127.127 23.2325 125.398 23.2325C123.752 23.2325 122.646 24.4632 122.646 26.2944V35.224H118.188V19.7049H122.646V21.2953ZM143.249 19.1237C141.234 19.1237 139.333 19.9172 137.897 21.3577C136.387 22.8727 135.555 24.9854 135.555 27.3061C135.555 29.7838 136.394 31.8992 137.983 33.4236C139.453 34.8353 141.457 35.6131 143.626 35.6131C147.803 35.6131 150.046 33.06 150.752 30.6712L150.785 30.5607L147.093 29.4698L147.056 29.5722C146.506 31.0714 145.363 31.8315 143.657 31.8315C141.642 31.8315 140.047 30.4402 139.897 28.5743H150.798L150.913 28.5734L150.914 28.4588C150.914 28.4434 150.918 28.3974 150.923 28.3288C150.94 28.1024 150.976 27.6323 150.976 27.1816C150.976 22.1364 148.087 19.1237 143.249 19.1237ZM139.902 25.5511C140.057 24.176 141.244 22.7603 143.22 22.7603C145.52 22.7603 146.439 24.1796 146.543 25.5511H139.902ZM163.265 19.7083V23.5377L160.225 23.5377V29.7136C160.225 30.8847 160.693 31.3411 161.893 31.3411C162.377 31.3411 162.918 31.28 163.12 31.2234L163.265 31.1819V34.9918L163.193 35.0212C162.849 35.1642 162.077 35.4042 160.79 35.4042C157.691 35.4042 155.767 33.5455 155.767 30.5544V23.5377H152.93V19.7083H153.851C155.305 19.7083 156.172 18.8601 156.172 17.4396V15.0728H160.225V19.7083H163.265ZM29.0454 31.5857V20.7189C29.0454 20.5131 28.9435 20.3206 28.773 20.2041L20.5853 14.7096C20.3711 14.5633 20.0883 14.5633 19.8741 14.7096L11.6865 20.2041C11.5159 20.3206 11.4141 20.5131 11.4141 20.7189V31.5766C11.4141 31.9215 11.6952 32.2011 12.0421 32.2011H17.0685C17.4153 32.2011 17.6965 31.9215 17.6965 31.5766V26.3762C17.6965 26.0312 17.9776 25.7516 18.3245 25.7516H22.135C22.4818 25.7516 22.763 26.0312 22.763 26.3762V31.5857C22.763 31.9256 23.04 32.2011 23.3818 32.2011H28.4265C28.7683 32.2011 29.0454 31.9256 29.0454 31.5857Z" fill="url(#paint0_linear_14628_15146)"/>
<defs>
<linearGradient id="paint0_linear_14628_15146" x1="81.7655" y1="5" x2="81.7655" y2="45" gradientUnits="userSpaceOnUse">
<stop stop-color="white"/>
<stop offset="1" stop-color="white" stop-opacity="0.8"/>
</linearGradient>
</defs>
</svg>
