<svg width="126" height="40" viewBox="0 0 126 40" fill="none" xmlns="http://www.w3.org/2000/svg">
<path d="M116.91 35.79L118.087 31.999H119.014L116.981 37.8496C116.934 37.9744 116.872 38.1084 116.794 38.252C116.719 38.3987 116.622 38.5377 116.503 38.6689C116.385 38.8001 116.241 38.9062 116.072 38.9873C115.906 39.0716 115.709 39.1143 115.478 39.1143C115.409 39.1142 115.321 39.1047 115.215 39.0859C115.109 39.0672 115.034 39.0515 114.99 39.0391L114.985 38.3369C115.01 38.34 115.05 38.3426 115.103 38.3457C115.159 38.352 115.199 38.3555 115.22 38.3555C115.416 38.3555 115.585 38.3284 115.722 38.2754C115.859 38.2255 115.974 38.14 116.067 38.0186C116.164 37.8999 116.247 37.7356 116.316 37.5264L116.504 37.0127L114.695 31.999H115.642L116.91 35.79ZM24.3252 31.9053C24.6436 31.9053 24.9219 31.9618 25.1592 32.0742C25.3995 32.1834 25.6022 32.3444 25.7676 32.5566C25.7697 32.5593 25.7713 32.5627 25.7734 32.5654L25.8145 31.999H26.6016V36.96C26.6015 37.4063 26.5111 37.7873 26.3301 38.1025C26.149 38.4179 25.8959 38.6569 25.5713 38.8193C25.2497 38.9848 24.8776 39.0674 24.4561 39.0674C24.2812 39.0674 24.0751 39.0396 23.8379 38.9834C23.6037 38.9304 23.3724 38.8382 23.1445 38.707C22.9197 38.5791 22.7311 38.4051 22.5781 38.1865L23.0322 37.6719C23.2445 37.9277 23.4664 38.1051 23.6973 38.2051C23.9314 38.3049 24.1627 38.3555 24.3906 38.3555C24.6654 38.3555 24.9028 38.3041 25.1025 38.2012C25.3024 38.0982 25.4572 37.9449 25.5664 37.7422C25.6788 37.5423 25.7353 37.2954 25.7354 37.002V36.5508C25.5757 36.7417 25.3849 36.8915 25.1592 36.9971C24.9188 37.1063 24.6371 37.1611 24.3154 37.1611C24.0127 37.1611 23.7379 37.0968 23.4912 36.9688C23.2477 36.8407 23.0381 36.6617 22.8633 36.4307C22.6884 36.1996 22.5547 35.9275 22.4609 35.6152C22.3704 35.2999 22.3252 34.9581 22.3252 34.5898V34.4912C22.3252 34.104 22.3704 33.7528 22.4609 33.4375C22.5547 33.1189 22.6876 32.8451 22.8594 32.6172C23.0341 32.3894 23.2447 32.2144 23.4912 32.0928C23.7379 31.9679 24.016 31.9053 24.3252 31.9053ZM53.5615 31.9053C53.88 31.9053 54.1582 31.9618 54.3955 32.0742C54.636 32.1835 54.8394 32.3443 55.0049 32.5566C55.0068 32.559 55.0079 32.5621 55.0098 32.5645L55.0508 31.999H55.8379V36.96C55.8378 37.4063 55.7475 37.7873 55.5664 38.1025C55.3853 38.4179 55.1324 38.657 54.8076 38.8193C54.4861 38.9847 54.1147 39.0673 53.6934 39.0674C53.5185 39.0674 53.3115 39.0396 53.0742 38.9834C52.8403 38.9304 52.6095 38.838 52.3818 38.707C52.157 38.5791 51.9675 38.4051 51.8145 38.1865L52.2686 37.6719C52.4809 37.9279 52.7035 38.1051 52.9346 38.2051C53.1685 38.3048 53.3992 38.3554 53.627 38.3555C53.9016 38.3555 54.1391 38.304 54.3389 38.2012C54.5387 38.0982 54.6935 37.9449 54.8027 37.7422C54.9151 37.5423 54.9717 37.2954 54.9717 37.002V36.5518C54.8121 36.7424 54.6211 36.8916 54.3955 36.9971C54.1552 37.1063 53.8742 37.1611 53.5527 37.1611C53.2499 37.1611 52.9743 37.0968 52.7275 36.9688C52.4843 36.8408 52.2752 36.6615 52.1006 36.4307C51.9257 36.1996 51.791 35.9275 51.6973 35.6152C51.6068 35.3 51.5616 34.9581 51.5615 34.5898V34.4912C51.5615 34.104 51.6068 33.7528 51.6973 33.4375C51.791 33.1189 51.9239 32.8451 52.0957 32.6172C52.2705 32.3894 52.4811 32.2144 52.7275 32.0928C52.9742 31.9679 53.2525 31.9053 53.5615 31.9053ZM85.8057 31.9053C86.1241 31.9053 86.4024 31.9618 86.6396 32.0742C86.88 32.1835 87.0826 32.3444 87.248 32.5566C87.2502 32.5593 87.2517 32.5627 87.2539 32.5654L87.2949 31.999H88.082V36.96C88.082 37.4063 87.9916 37.7873 87.8105 38.1025C87.6295 38.4179 87.3764 38.6569 87.0518 38.8193C86.7301 38.9848 86.358 39.0674 85.9365 39.0674C85.7617 39.0674 85.5556 39.0396 85.3184 38.9834C85.0841 38.9304 84.8529 38.8381 84.625 38.707C84.4002 38.5791 84.2116 38.4051 84.0586 38.1865L84.5127 37.6719C84.7249 37.9277 84.9468 38.1051 85.1777 38.2051C85.4119 38.3049 85.6432 38.3555 85.8711 38.3555C86.1458 38.3555 86.3832 38.3041 86.583 38.2012C86.7828 38.0982 86.9376 37.945 87.0469 37.7422C87.1593 37.5423 87.2158 37.2954 87.2158 37.002V36.5508C87.0561 36.7417 86.8654 36.8915 86.6396 36.9971C86.3993 37.1063 86.1175 37.1611 85.7959 37.1611C85.4931 37.1611 85.2183 37.0968 84.9717 36.9688C84.7282 36.8407 84.5186 36.6617 84.3438 36.4307C84.1689 36.1996 84.0351 35.9275 83.9414 35.6152C83.8509 35.2999 83.8057 34.9581 83.8057 34.5898V34.4912C83.8057 34.104 83.8509 33.7528 83.9414 33.4375C84.0351 33.1189 84.1681 32.8451 84.3398 32.6172C84.5146 32.3894 84.7252 32.2144 84.9717 32.0928C85.2184 31.9679 85.4965 31.9053 85.8057 31.9053ZM11.4961 31.9053C11.852 31.9053 12.172 31.9713 12.4561 32.1025C12.7432 32.2304 12.9868 32.4114 13.1865 32.6455C13.3895 32.8765 13.5443 33.1504 13.6504 33.4658C13.7565 33.7779 13.8095 34.1164 13.8096 34.4814V34.5898C13.8095 34.955 13.7565 35.2934 13.6504 35.6055C13.5443 35.9177 13.3895 36.1915 13.1865 36.4258C12.9868 36.6567 12.7449 36.8377 12.4609 36.9688C12.1799 37.0968 11.8609 37.1611 11.5049 37.1611C11.1491 37.1611 10.829 37.0968 10.5449 36.9688C10.2609 36.8376 10.0174 36.6568 9.81445 36.4258C9.61463 36.1915 9.46164 35.9177 9.35547 35.6055C9.24944 35.2934 9.19632 34.9549 9.19629 34.5898V34.4814C9.19632 34.1164 9.24942 33.7779 9.35547 33.4658C9.46164 33.1504 9.61463 32.8765 9.81445 32.6455C10.0143 32.4113 10.2568 32.2305 10.541 32.1025C10.8251 31.9714 11.1434 31.9053 11.4961 31.9053ZM31.4727 31.999H32.4189V32.6641H31.4727V35.8115C31.4727 35.9833 31.4996 36.1138 31.5527 36.2012C31.6057 36.2884 31.6746 36.346 31.7588 36.374C31.843 36.4021 31.9336 36.416 32.0303 36.416C32.1021 36.416 32.1769 36.4099 32.2549 36.3975C32.336 36.3818 32.3969 36.3697 32.4375 36.3604L32.4424 37.0674C32.3738 37.0892 32.2832 37.1092 32.1709 37.1279C32.0617 37.1498 31.9286 37.1611 31.7725 37.1611C31.5602 37.1611 31.3645 37.1184 31.1865 37.0342C31.0088 36.9499 30.8667 36.8097 30.7607 36.6133C30.6576 36.4135 30.6065 36.1447 30.6064 35.8076V32.6641H29.6787V31.999H30.6064V30.7676H31.4727V31.999ZM40.709 31.9053C41.0712 31.9053 41.3842 31.9679 41.6465 32.0928C41.9116 32.2176 42.1283 32.3926 42.2969 32.6172C42.4655 32.8388 42.5907 33.1014 42.6719 33.4043C42.7531 33.7039 42.7939 34.0319 42.7939 34.3877V34.7773H39.3672C39.3727 34.9933 39.4034 35.1978 39.4629 35.3906C39.5316 35.5998 39.6308 35.784 39.7588 35.9434C39.89 36.1025 40.0473 36.2279 40.2314 36.3184C40.4187 36.4088 40.6311 36.4541 40.8682 36.4541C41.1742 36.4541 41.4342 36.3915 41.6465 36.2666C41.8586 36.1418 42.044 35.9746 42.2031 35.7656L42.7275 36.1816C42.6183 36.3471 42.4801 36.5055 42.3115 36.6553C42.1429 36.8052 41.935 36.9268 41.6885 37.0205C41.4449 37.1142 41.1554 37.1611 40.8213 37.1611C40.4686 37.1611 40.1484 37.102 39.8613 36.9834C39.5771 36.8617 39.332 36.6913 39.126 36.4727C38.9231 36.2542 38.7675 35.9949 38.6582 35.6953C38.5488 35.3955 38.4941 35.0669 38.4941 34.7109V34.5146C38.4941 34.1025 38.555 33.7357 38.6768 33.4141C38.7985 33.0895 38.9637 32.8146 39.1729 32.5898C39.382 32.365 39.6194 32.1947 39.8848 32.0791C40.1501 31.9637 40.4249 31.9053 40.709 31.9053ZM63.6133 31.999H64.5596V32.6641H63.6133V35.8115C63.6133 35.9833 63.6403 36.1138 63.6934 36.2012C63.7465 36.2884 63.8152 36.346 63.8994 36.374C63.9836 36.4021 64.0741 36.416 64.1709 36.416C64.2426 36.416 64.3176 36.4099 64.3955 36.3975C64.4766 36.3819 64.5375 36.3697 64.5781 36.3604L64.583 37.0674C64.5144 37.0892 64.4238 37.1092 64.3115 37.1279C64.2023 37.1498 64.0693 37.1611 63.9131 37.1611C63.7008 37.1611 63.506 37.1183 63.3281 37.0342C63.1502 36.9499 63.0075 36.8099 62.9014 36.6133C62.7984 36.4135 62.7471 36.1447 62.7471 35.8076V32.6641H61.8193V31.999H62.7471V30.7676H63.6133V31.999ZM69.1309 31.999H70.0771V32.6641H69.1309V35.8115C69.1309 35.9833 69.1578 36.1138 69.2109 36.2012C69.2639 36.2884 69.3328 36.346 69.417 36.374C69.5012 36.4021 69.5918 36.416 69.6885 36.416C69.7603 36.416 69.8351 36.4099 69.9131 36.3975C69.9941 36.3818 70.0551 36.3697 70.0957 36.3604L70.1006 37.0674C70.032 37.0892 69.9414 37.1092 69.8291 37.1279C69.7198 37.1498 69.5867 37.1611 69.4307 37.1611C69.2184 37.1611 69.0237 37.1183 68.8457 37.0342C68.6678 36.9499 68.525 36.8099 68.4189 36.6133C68.3158 36.4135 68.2647 36.1447 68.2646 35.8076V32.6641H67.3369V31.999H68.2646V30.7676H69.1309V31.999ZM112.082 31.9053C112.45 31.9053 112.776 31.9679 113.056 32.0928C113.341 32.2177 113.562 32.4072 113.722 32.6602C113.884 32.9099 113.965 33.2239 113.965 33.6016V35.9619C113.965 36.1306 113.979 36.3105 114.008 36.501C114.038 36.6912 114.083 36.855 114.143 36.9922V37.0674H113.239C113.195 36.9675 113.162 36.8344 113.136 36.6689C113.129 36.6211 113.124 36.5741 113.119 36.5283C113.077 36.5723 113.033 36.6172 112.985 36.6602C112.826 36.8037 112.636 36.9238 112.415 37.0205C112.196 37.1142 111.95 37.1611 111.675 37.1611C111.331 37.1611 111.03 37.0943 110.771 36.96C110.514 36.8258 110.314 36.6457 110.171 36.4209C110.03 36.193 109.96 35.9382 109.96 35.6572C109.96 35.3857 110.013 35.1465 110.119 34.9404C110.226 34.7313 110.379 34.5583 110.578 34.4209C110.779 34.2805 111.019 34.1744 111.3 34.1025C111.581 34.0308 111.895 33.9951 112.241 33.9951H113.098V33.5918C113.098 33.3922 113.058 33.2189 112.977 33.0723C112.899 32.9223 112.779 32.8067 112.62 32.7256C112.461 32.6443 112.264 32.6035 112.03 32.6035C111.812 32.6035 111.62 32.641 111.455 32.7158C111.292 32.7907 111.164 32.8891 111.07 33.0107C110.98 33.1325 110.935 33.2639 110.935 33.4043H110.067C110.067 33.2233 110.115 33.044 110.209 32.8662C110.302 32.6883 110.436 32.5274 110.611 32.3838C110.789 32.2371 111.002 32.1214 111.248 32.0371C111.497 31.9496 111.776 31.9053 112.082 31.9053ZM121.633 31.9053C122.038 31.9053 122.384 31.9776 122.672 32.1211C122.959 32.2647 123.18 32.4568 123.332 32.6973C123.486 32.9346 123.562 33.1988 123.562 33.4893H122.695C122.695 33.3487 122.653 33.2122 122.568 33.0811C122.488 32.947 122.368 32.8363 122.208 32.749C122.053 32.6616 121.861 32.6172 121.633 32.6172C121.392 32.6172 121.197 32.6556 121.047 32.7305C120.9 32.8023 120.792 32.8946 120.724 33.0068C120.658 33.1191 120.625 33.2376 120.625 33.3623C120.625 33.4559 120.64 33.5404 120.672 33.6152C120.706 33.687 120.766 33.754 120.85 33.8164C120.934 33.8757 121.054 33.9323 121.207 33.9854C121.359 34.0384 121.555 34.0914 121.792 34.1445C122.207 34.2381 122.549 34.3503 122.817 34.4814C123.086 34.6125 123.287 34.7734 123.417 34.9639C123.548 35.1542 123.613 35.3857 123.613 35.6572C123.613 35.8789 123.568 36.0823 123.474 36.2666C123.383 36.4508 123.25 36.6099 123.075 36.7441C122.903 36.8753 122.697 36.9788 122.456 37.0537C122.219 37.1255 121.952 37.1611 121.655 37.1611C121.209 37.1611 120.831 37.0811 120.522 36.9219C120.213 36.7627 119.979 36.5566 119.819 36.3037C119.66 36.0509 119.581 35.7838 119.581 35.5029H120.451C120.464 35.7402 120.534 35.9288 120.658 36.0693C120.783 36.2066 120.936 36.305 121.117 36.3643C121.298 36.4204 121.478 36.4492 121.655 36.4492C121.893 36.4492 122.091 36.4179 122.25 36.3555C122.413 36.293 122.536 36.2069 122.62 36.0977C122.705 35.9884 122.747 35.8632 122.747 35.7227C122.747 35.5979 122.72 35.482 122.663 35.376C122.61 35.2668 122.499 35.1685 122.33 35.0811C122.165 34.9905 121.915 34.9132 121.581 34.8477C121.3 34.7883 121.046 34.7178 120.817 34.6367C120.593 34.5555 120.4 34.4564 120.241 34.3408C120.085 34.2254 119.965 34.0896 119.881 33.9336C119.796 33.7776 119.754 33.5949 119.754 33.3857C119.754 33.186 119.798 32.9973 119.886 32.8193C119.976 32.6414 120.103 32.4831 120.265 32.3457C120.431 32.2083 120.628 32.1005 120.859 32.0225C121.091 31.9445 121.349 31.9053 121.633 31.9053ZM89.9512 36.084C90.1258 36.0841 90.2582 36.1354 90.3486 36.2383C90.4424 36.3381 90.4893 36.4616 90.4893 36.6084C90.4892 36.752 90.4423 36.8737 90.3486 36.9736C90.2582 37.0733 90.1258 37.123 89.9512 37.123C89.7763 37.123 89.6416 37.0735 89.5479 36.9736C89.4573 36.8737 89.4121 36.752 89.4121 36.6084C89.4121 36.4616 89.4573 36.3381 89.5479 36.2383C89.6416 36.1353 89.7763 36.084 89.9512 36.084ZM125.305 36.084C125.479 36.084 125.612 36.1354 125.702 36.2383C125.796 36.3381 125.844 36.4616 125.844 36.6084C125.844 36.752 125.796 36.8737 125.702 36.9736C125.612 37.0733 125.479 37.123 125.305 37.123C125.13 37.123 124.995 37.0735 124.901 36.9736C124.811 36.8737 124.767 36.752 124.767 36.6084C124.767 36.4617 124.811 36.3381 124.901 36.2383C124.995 36.1353 125.13 36.084 125.305 36.084ZM5.19141 30.248C5.63794 30.248 6.04559 30.3228 6.41406 30.4727C6.78247 30.6194 7.09985 30.8332 7.36523 31.1143C7.63365 31.3921 7.8398 31.7295 7.9834 32.126C8.12699 32.5193 8.19824 32.9628 8.19824 33.4561V33.8633C8.19824 34.3565 8.12697 34.8018 7.9834 35.1982C7.83981 35.5915 7.63187 35.9272 7.36035 36.2051C7.09181 36.483 6.7667 36.6968 6.38574 36.8467C6.00797 36.9934 5.58197 37.0674 5.10742 37.0674H3.26172V30.248H5.19141ZM15.8379 37.0674H14.9668V31.999H15.8379V37.0674ZM19.5898 31.9053C19.8397 31.9053 20.0648 31.9401 20.2646 32.0088C20.4642 32.0744 20.634 32.1806 20.7744 32.3271C20.918 32.4739 21.0276 32.6644 21.1025 32.8984C21.1774 33.1294 21.2148 33.4121 21.2148 33.7461V37.0674H20.3438V33.7373C20.3438 33.4719 20.3046 33.2588 20.2266 33.0996C20.1485 32.9374 20.0345 32.8208 19.8848 32.749C19.7348 32.6741 19.5506 32.6367 19.332 32.6367C19.1166 32.6367 18.9201 32.6819 18.7422 32.7725C18.5673 32.863 18.4152 32.9873 18.2871 33.1465C18.2136 33.2402 18.1508 33.3431 18.0957 33.4531V37.0674H17.2295V31.999H18.0488L18.0762 32.6309C18.0858 32.6187 18.0946 32.6057 18.1045 32.5938C18.2856 32.3753 18.5012 32.2065 18.751 32.0879C19.0039 31.9662 19.2838 31.9053 19.5898 31.9053ZM34.3018 32.6064C34.305 32.6025 34.3083 32.5977 34.3115 32.5938C34.4925 32.3755 34.7074 32.2065 34.957 32.0879C35.2099 31.9662 35.4899 31.9053 35.7959 31.9053C36.0457 31.9053 36.2709 31.9401 36.4707 32.0088C36.6703 32.0744 36.8401 32.1806 36.9805 32.3271C37.1241 32.4739 37.2337 32.6644 37.3086 32.8984C37.3836 33.1294 37.4209 33.4121 37.4209 33.7461V37.0674H36.5498V33.7373C36.5498 33.4719 36.5107 33.2588 36.4326 33.0996C36.3546 32.9375 36.2405 32.8208 36.0908 32.749C35.9409 32.6741 35.7567 32.6367 35.5381 32.6367C35.3227 32.6367 35.1261 32.6819 34.9482 32.7725C34.7735 32.8629 34.622 32.9874 34.4941 33.1465C34.4206 33.2403 34.3569 33.3431 34.3018 33.4531V37.0674H33.4355V29.873H34.3018V32.6064ZM48.25 31.9053C48.3124 31.9053 48.3847 31.9131 48.4658 31.9287C48.547 31.9412 48.6035 31.9561 48.6348 31.9717L48.6299 32.7773C48.5581 32.7617 48.4894 32.7521 48.4238 32.749C48.3614 32.7428 48.2893 32.7393 48.208 32.7393C48.0082 32.7393 47.8317 32.7706 47.6787 32.833C47.5258 32.8955 47.3962 32.9833 47.29 33.0957C47.1912 33.2004 47.1117 33.3242 47.0508 33.4668V37.0674H46.1846V31.999H47.0273L47.0449 32.5801C47.0469 32.5769 47.0488 32.5735 47.0508 32.5703C47.1787 32.3613 47.3415 32.1995 47.5381 32.084C47.7378 31.9654 47.9753 31.9053 48.25 31.9053ZM50.377 37.0674H49.5059V31.999H50.377V37.0674ZM58.0205 32.6064C58.0238 32.6024 58.027 32.5978 58.0303 32.5938C58.2113 32.3754 58.4271 32.2065 58.6768 32.0879C58.9295 31.9663 59.2089 31.9053 59.5146 31.9053C59.7645 31.9053 59.9895 31.9401 60.1895 32.0088C60.3893 32.0744 60.5597 32.1804 60.7002 32.3271C60.8438 32.4739 60.9534 32.6643 61.0283 32.8984C61.1032 33.1294 61.1406 33.4121 61.1406 33.7461V37.0674H60.2695V33.7373C60.2695 33.4719 60.2304 33.2588 60.1523 33.0996C60.0743 32.9375 59.9601 32.8209 59.8105 32.749C59.6607 32.6742 59.4762 32.6368 59.2578 32.6367C59.0424 32.6367 58.8449 32.6819 58.667 32.7725C58.4923 32.8629 58.3408 32.9875 58.2129 33.1465C58.1393 33.2403 58.0757 33.343 58.0205 33.4531V37.0674H57.1543V29.873H58.0205V32.6064ZM71.96 32.6064C71.9632 32.6025 71.9664 32.5977 71.9697 32.5938C72.1508 32.3754 72.3666 32.2065 72.6162 32.0879C72.8689 31.9663 73.1483 31.9053 73.4541 31.9053C73.7039 31.9053 73.9291 31.9401 74.1289 32.0088C74.3286 32.0744 74.4984 32.1806 74.6387 32.3271C74.7823 32.4739 74.8919 32.6644 74.9668 32.8984C75.0418 33.1294 75.0791 33.4121 75.0791 33.7461V37.0674H74.208V33.7373C74.208 33.4719 74.1688 33.2588 74.0908 33.0996C74.0127 32.9375 73.8988 32.8208 73.749 32.749C73.5992 32.6741 73.4149 32.6367 73.1963 32.6367C72.9809 32.6367 72.7844 32.6819 72.6064 32.7725C72.4317 32.8629 72.2802 32.9874 72.1523 33.1465C72.0788 33.2403 72.0151 33.3431 71.96 33.4531V37.0674H71.0938V29.873H71.96V32.6064ZM77.3184 37.0674H76.4473V31.999H77.3184V37.0674ZM81.0703 31.9053C81.3199 31.9053 81.5444 31.9402 81.7441 32.0088C81.9439 32.0744 82.1144 32.1805 82.2549 32.3271C82.3984 32.4739 82.5081 32.6644 82.583 32.8984C82.6579 33.1294 82.6953 33.4121 82.6953 33.7461V37.0674H81.8242V33.7373C81.8242 33.4719 81.7851 33.2588 81.707 33.0996C81.629 32.9375 81.5149 32.8208 81.3652 32.749C81.2153 32.6741 81.0311 32.6367 80.8125 32.6367C80.5971 32.6367 80.4006 32.6819 80.2227 32.7725C80.0478 32.863 79.8956 32.9873 79.7676 33.1465C79.694 33.2402 79.6313 33.3431 79.5762 33.4531V37.0674H78.709V31.999H79.5293L79.5566 32.6309C79.5663 32.6187 79.5751 32.6057 79.585 32.5938C79.7661 32.3753 79.9817 32.2065 80.2314 32.0879C80.4844 31.9662 80.7643 31.9053 81.0703 31.9053ZM99.7822 37.0674H98.8545L98.2051 35.2832H95.3525L94.7051 37.0674H93.7822L96.3818 30.248H97.1738L99.7822 37.0674ZM101.505 37.0674H100.635V29.873H101.505V37.0674ZM104.301 35.7822L105.482 31.999H106.181L107.381 35.8574L108.358 31.999H109.22L107.749 37.0674H107.047L105.815 33.2305L104.616 37.0674H103.908L102.438 31.999H103.304L104.301 35.7822ZM11.4961 32.6172C11.2589 32.6172 11.0493 32.6676 10.8682 32.7676C10.6903 32.8675 10.5407 33.0049 10.4189 33.1797C10.3003 33.3514 10.2106 33.5496 10.1514 33.7744C10.092 33.996 10.0625 34.2318 10.0625 34.4814V34.5898C10.0625 34.8427 10.092 35.0819 10.1514 35.3066C10.2106 35.5282 10.3003 35.7249 10.4189 35.8965C10.5407 36.0682 10.692 36.2039 10.873 36.3037C11.054 36.4004 11.2647 36.4492 11.5049 36.4492C11.7421 36.4492 11.95 36.4004 12.1279 36.3037C12.309 36.2039 12.4595 36.0683 12.5781 35.8965C12.6967 35.7249 12.7854 35.5281 12.8447 35.3066C12.9071 35.0819 12.9384 34.8427 12.9385 34.5898V34.4814C12.9384 34.2318 12.9071 33.996 12.8447 33.7744C12.7854 33.5496 12.6949 33.3514 12.5732 33.1797C12.4547 33.0049 12.305 32.8675 12.124 32.7676C11.9461 32.6676 11.7365 32.6172 11.4961 32.6172ZM24.5361 32.6367C24.2988 32.6367 24.0936 32.6863 23.9219 32.7861C23.7534 32.883 23.615 33.0178 23.5059 33.1895C23.3997 33.358 23.3196 33.5545 23.2666 33.7793C23.2166 34.001 23.1914 34.2383 23.1914 34.4912V34.5898C23.1914 34.8427 23.2166 35.0802 23.2666 35.3018C23.3196 35.5233 23.3997 35.7182 23.5059 35.8867C23.615 36.0552 23.7534 36.1884 23.9219 36.2852C24.0904 36.3789 24.2923 36.4258 24.5264 36.4258C24.8136 36.4258 25.051 36.3648 25.2383 36.2432C25.4256 36.1214 25.5743 35.9606 25.6836 35.7607C25.702 35.728 25.7183 35.6938 25.7354 35.6602V33.376C25.6747 33.2574 25.6013 33.15 25.5146 33.0537C25.4054 32.9257 25.2697 32.8239 25.1074 32.749C24.9451 32.6741 24.7546 32.6367 24.5361 32.6367ZM53.7725 32.6367C53.5353 32.6367 53.3308 32.6863 53.1592 32.7861C52.9905 32.883 52.8514 33.0177 52.7422 33.1895C52.6361 33.3579 52.556 33.5545 52.5029 33.7793C52.453 34.0009 52.4287 34.2383 52.4287 34.4912V34.5898C52.4287 34.8427 52.453 35.0802 52.5029 35.3018C52.556 35.5233 52.6361 35.7182 52.7422 35.8867C52.8514 36.0553 52.9905 36.1884 53.1592 36.2852C53.3276 36.3788 53.5288 36.4257 53.7627 36.4258C54.0498 36.4258 54.2873 36.3647 54.4746 36.2432C54.6619 36.1214 54.8107 35.9605 54.9199 35.7607C54.9382 35.7283 54.9547 35.6945 54.9717 35.6611V33.374C54.9112 33.2561 54.8373 33.1496 54.751 33.0537C54.6417 32.9257 54.5062 32.8239 54.3438 32.749C54.1814 32.6741 53.991 32.6367 53.7725 32.6367ZM86.0166 32.6367C85.7793 32.6367 85.5742 32.6863 85.4023 32.7861C85.2339 32.883 85.0955 33.0177 84.9863 33.1895C84.8801 33.358 84.8001 33.5545 84.7471 33.7793C84.6971 34.001 84.6719 34.2383 84.6719 34.4912V34.5898C84.6719 34.8427 84.6971 35.0802 84.7471 35.3018C84.8001 35.5233 84.8802 35.7182 84.9863 35.8867C85.0955 36.0552 85.2339 36.1884 85.4023 36.2852C85.571 36.3789 85.7727 36.4258 86.0068 36.4258C86.2941 36.4258 86.5314 36.3648 86.7188 36.2432C86.9061 36.1214 87.0548 35.9606 87.1641 35.7607C87.1825 35.728 87.1987 35.6938 87.2158 35.6602V33.376C87.1552 33.2574 87.0818 33.15 86.9951 33.0537C86.8859 32.9257 86.7502 32.8239 86.5879 32.749C86.4256 32.6741 86.2351 32.6368 86.0166 32.6367ZM112.382 34.6035C112.135 34.6035 111.915 34.6234 111.722 34.6641C111.528 34.7015 111.366 34.7598 111.234 34.8379C111.103 34.916 111.003 35.0142 110.935 35.1328C110.866 35.2483 110.831 35.3841 110.831 35.54C110.831 35.6992 110.868 35.8445 110.938 35.9756C111.01 36.1068 111.119 36.212 111.262 36.29C111.408 36.3649 111.589 36.4023 111.801 36.4023C112.066 36.4023 112.301 36.3458 112.503 36.2334C112.706 36.121 112.867 35.9836 112.985 35.8213C113.031 35.7601 113.068 35.6986 113.098 35.6387V34.6035H112.382ZM4.16602 36.332H5.10742C5.59446 36.332 6.0005 36.2303 6.3252 36.0273C6.64977 35.8214 6.89332 35.5342 7.05566 35.166C7.22116 34.7944 7.30371 34.3598 7.30371 33.8633V33.4463C7.30368 33.0562 7.25667 32.71 7.16309 32.4072C7.06941 32.1012 6.93208 31.843 6.75098 31.6338C6.56991 31.4216 6.34812 31.2607 6.08594 31.1514C5.82682 31.0422 5.52855 30.9873 5.19141 30.9873H4.16602V36.332ZM95.6221 34.543H97.9355L96.7764 31.3604L95.6221 34.543ZM40.709 32.6172C40.5124 32.6172 40.3315 32.6599 40.166 32.7441C40.0005 32.8253 39.8579 32.947 39.7393 33.1094C39.6207 33.2716 39.5285 33.47 39.4629 33.7041C39.4312 33.8173 39.408 33.9393 39.3916 34.0693H41.9268V34.0039C41.9143 33.7792 41.8672 33.5608 41.7861 33.3486C41.708 33.1363 41.5838 32.9606 41.4121 32.8232C41.2403 32.6859 41.0055 32.6172 40.709 32.6172ZM15.4121 30.1543C15.5773 30.1544 15.7036 30.2023 15.791 30.2988C15.8816 30.3956 15.9268 30.5147 15.9268 30.6553C15.9267 30.7894 15.8815 30.9052 15.791 31.002C15.7036 31.0954 15.5773 31.1425 15.4121 31.1426C15.2435 31.1426 15.1147 31.0956 15.0273 31.002C14.9431 30.9052 14.9014 30.7894 14.9014 30.6553C14.9014 30.5147 14.943 30.3956 15.0273 30.2988C15.1147 30.2021 15.2435 30.1543 15.4121 30.1543ZM49.9502 30.1543C50.1157 30.1543 50.2427 30.2021 50.3301 30.2988C50.4206 30.3956 50.4658 30.5147 50.4658 30.6553C50.4658 30.7894 50.4206 30.9052 50.3301 31.002C50.2427 31.0956 50.1157 31.1426 49.9502 31.1426C49.7819 31.1425 49.6538 31.0954 49.5664 31.002C49.4822 30.9052 49.4405 30.7894 49.4404 30.6553C49.4404 30.5147 49.4822 30.3956 49.5664 30.2988C49.6538 30.2022 49.7819 30.1544 49.9502 30.1543ZM76.8926 30.1543C77.0577 30.1544 77.1841 30.2023 77.2715 30.2988C77.362 30.3956 77.4072 30.5147 77.4072 30.6553C77.4072 30.7894 77.362 30.9052 77.2715 31.002C77.1841 31.0954 77.0577 31.1425 76.8926 31.1426C76.724 31.1426 76.5952 31.0956 76.5078 31.002C76.4235 30.9052 76.3819 30.7894 76.3818 30.6553C76.3818 30.5147 76.4235 30.3956 76.5078 30.2988C76.5952 30.2021 76.724 30.1543 76.8926 30.1543ZM23.5107 0.885742C24.0469 0.873499 24.577 1.00453 25.0459 1.26465C25.5147 1.52476 25.9063 1.90504 26.1797 2.36621C26.4529 2.82744 26.5984 3.35354 26.6016 3.88965C26.6046 4.42574 26.4643 4.95269 26.1963 5.41699L16.0664 22.5176C15.7865 22.9793 15.3923 23.3619 14.9219 23.627C14.4514 23.8919 13.9198 24.0312 13.3799 24.0312C12.8401 24.0312 12.3092 23.8918 11.8389 23.627C11.3684 23.3619 10.9742 22.9794 10.6943 22.5176L4.69824 12.3975L4.51562 12.0898C4.96624 12.3479 5.50082 12.4162 6.00195 12.2803C6.503 12.1443 6.9301 11.8155 7.18848 11.3652L13.3965 0.885742H23.5107ZM48.418 12.7441C48.9763 12.7336 49.5311 12.8365 50.0488 13.0459C50.5047 13.2345 50.9133 13.5214 51.2451 13.8867C51.5793 14.2646 51.8291 14.7095 51.9785 15.1914C52.1486 15.7355 52.2326 16.3031 52.2266 16.873L52.2207 23.8555H51.3701C51.2142 23.8621 51.0586 23.832 50.916 23.7686C50.8524 23.7293 50.799 23.6759 50.7598 23.6123C50.7205 23.5487 50.696 23.4768 50.6895 23.4023L50.4746 22.3896C50.187 22.6453 49.9071 22.8772 49.6348 23.085C49.3658 23.2866 49.0764 23.4601 48.7715 23.6016C48.4631 23.744 48.1392 23.8508 47.8066 23.9199C47.4326 23.9952 47.0514 24.0316 46.6699 24.0283C46.266 24.0312 45.8638 23.9705 45.4785 23.8496C45.1237 23.7384 44.7944 23.556 44.5127 23.3135C44.231 23.0643 44.0081 22.7549 43.8604 22.4092C43.6901 22.0004 43.6077 21.56 43.6182 21.1172C43.6212 20.677 43.7439 20.2457 43.9736 19.8701C44.2608 19.4232 44.6572 19.0566 45.125 18.8047C45.775 18.4493 46.4746 18.1926 47.2002 18.043C48.231 17.8274 49.2829 17.728 50.3359 17.7461V16.8896C50.3851 16.2006 50.1925 15.5152 49.791 14.9531C49.5906 14.7279 49.3407 14.5522 49.0615 14.4385C48.7824 14.3248 48.4812 14.2758 48.1807 14.2969C47.7799 14.2861 47.3797 14.3468 47 14.4756C46.7104 14.5791 46.4328 14.713 46.1709 14.874C45.9369 15.0211 45.7352 15.1535 45.5664 15.2725C45.4221 15.3827 45.2468 15.4453 45.0654 15.4512C44.9442 15.4534 44.8251 15.4177 44.7256 15.3486C44.6305 15.2825 44.5519 15.1956 44.4951 15.0947L44.1504 14.4805C44.7118 13.9258 45.3737 13.483 46.1006 13.1758C46.837 12.8805 47.6246 12.7339 48.418 12.7441ZM62.3057 19.9014C62.2629 20.5888 62.4667 21.269 62.8809 21.8193C63.0986 22.0557 63.3679 22.2397 63.667 22.3574C63.9659 22.4749 64.2881 22.5237 64.6084 22.499C65.1612 22.5009 65.7054 22.3632 66.1914 22.0996C66.7104 21.8148 67.1745 21.4392 67.5605 20.9902V12.9395H69.4795V23.8564H68.3369C68.2168 23.8656 68.0974 23.8293 68.002 23.7559C67.9065 23.6824 67.8412 23.5765 67.8193 23.458L67.6689 22.2832C67.2132 22.7931 66.6732 23.2208 66.0732 23.5488C65.4492 23.8766 64.7526 24.0415 64.0479 24.0283C63.5067 24.0387 62.9692 23.9383 62.4688 23.7324C62.026 23.546 61.6318 23.2597 61.3174 22.8965C60.9968 22.5156 60.7598 22.0712 60.6221 21.5928C60.4625 21.0434 60.3842 20.4735 60.3906 19.9014V12.9395H62.3057V19.9014ZM99.2217 12.7441C99.7799 12.7336 100.335 12.8356 100.853 13.0449C101.309 13.2336 101.717 13.5214 102.049 13.8867C102.383 14.2648 102.633 14.7096 102.781 15.1914C102.952 15.7355 103.036 16.3031 103.029 16.873L103.025 23.8555H102.175C102.019 23.8621 101.864 23.832 101.721 23.7686C101.657 23.7294 101.604 23.676 101.564 23.6123C101.525 23.5487 101.501 23.4768 101.494 23.4023L101.279 22.3896C100.992 22.6454 100.712 22.8772 100.438 23.085C100.17 23.2866 99.88 23.4593 99.5752 23.6006C99.2673 23.7431 98.9422 23.8509 98.6094 23.9199C98.2354 23.9953 97.8543 24.0316 97.4727 24.0283C97.0689 24.0311 96.6667 23.9705 96.2812 23.8496C95.9268 23.7383 95.5982 23.5559 95.3164 23.3135C95.0353 23.0642 94.8127 22.7547 94.665 22.4092C94.4947 22.0004 94.4124 21.56 94.4229 21.1172C94.4259 20.677 94.5485 20.2457 94.7783 19.8701C95.0655 19.4232 95.4619 19.0567 95.9297 18.8047C96.5799 18.4495 97.2787 18.1927 98.0039 18.043C99.035 17.8273 100.088 17.7281 101.141 17.7461V16.8896C101.191 16.2006 100.998 15.5153 100.596 14.9531C100.395 14.7279 100.145 14.5522 99.8662 14.4385C99.5871 14.3247 99.2856 14.2758 98.9844 14.2969C98.5836 14.2862 98.1844 14.3469 97.8047 14.4756C97.5151 14.5791 97.2374 14.713 96.9756 14.874C96.7417 15.0217 96.5399 15.1536 96.3711 15.2725C96.2272 15.3827 96.0515 15.4454 95.8701 15.4512C95.749 15.4535 95.6298 15.4178 95.5303 15.3486C95.4352 15.2826 95.3566 15.1956 95.2998 15.0947L94.9551 14.4805C95.5164 13.9257 96.1782 13.4829 96.9053 13.1758C97.6419 12.8806 98.4285 12.7339 99.2217 12.7441ZM121.236 12.7607C121.897 12.7504 122.554 12.8659 123.171 13.1006C123.721 13.3133 124.225 13.63 124.653 14.0332L124.224 14.7383C124.188 14.8121 124.13 14.8741 124.06 14.916C123.989 14.9581 123.907 14.9783 123.824 14.9746C123.695 14.9677 123.569 14.9269 123.459 14.8564C123.323 14.7778 123.155 14.6896 122.957 14.5928C122.73 14.4837 122.494 14.3935 122.251 14.3232C121.936 14.2346 121.609 14.1922 121.281 14.1982C120.986 14.1943 120.691 14.2367 120.408 14.3232C120.17 14.3958 119.945 14.5112 119.746 14.6631C119.572 14.7975 119.428 14.9686 119.325 15.1641C119.228 15.3559 119.179 15.5682 119.18 15.7832C119.171 16.0384 119.259 16.2874 119.423 16.4824C119.603 16.6839 119.821 16.8487 120.063 16.9678C120.355 17.1145 120.657 17.2363 120.969 17.3301C121.306 17.4343 121.654 17.5448 122.009 17.6631C122.365 17.7814 122.711 17.9128 123.049 18.0566C123.375 18.1932 123.68 18.3748 123.954 18.5957C124.221 18.8122 124.439 19.0828 124.595 19.3887C124.765 19.7391 124.848 20.1254 124.837 20.5146C124.842 20.9929 124.75 21.4672 124.566 21.9092C124.389 22.335 124.117 22.7146 123.77 23.0195C123.391 23.3476 122.951 23.5991 122.476 23.7588C121.907 23.9475 121.309 24.0386 120.709 24.0283C120.002 24.0383 119.3 23.912 118.64 23.6562C118.063 23.4338 117.531 23.1104 117.066 22.7021L117.52 21.9697C117.57 21.883 117.64 21.809 117.724 21.7539C117.82 21.7001 117.928 21.6738 118.036 21.6787C118.186 21.6854 118.329 21.7379 118.446 21.8291C118.589 21.9302 118.764 22.0416 118.969 22.1631C119.205 22.2991 119.454 22.4112 119.712 22.4971C120.066 22.607 120.435 22.6576 120.806 22.6475C121.139 22.6538 121.471 22.6049 121.786 22.502C122.044 22.4183 122.282 22.2844 122.487 22.1084C122.668 21.9507 122.809 21.754 122.901 21.5332C122.991 21.3146 123.038 21.0802 123.036 20.8438C123.047 20.5733 122.961 20.3078 122.793 20.0947C122.616 19.8842 122.398 19.7113 122.152 19.5869C121.861 19.4368 121.556 19.3146 121.241 19.2217C120.9 19.1168 120.551 19.0071 120.196 18.8926C119.842 18.7782 119.494 18.6467 119.151 18.499C118.822 18.3595 118.515 18.172 118.239 17.9434C117.971 17.7168 117.752 17.4357 117.599 17.1191C117.428 16.7464 117.346 16.3387 117.357 15.9287C117.357 15.5144 117.446 15.1048 117.616 14.7275C117.792 14.3391 118.049 13.9928 118.37 13.7139C118.729 13.4072 119.141 13.1714 119.587 13.0195C120.118 12.8389 120.676 12.7515 121.236 12.7607ZM76.957 12.7666C77.5758 12.7604 78.1906 12.8721 78.7676 13.0957C79.3073 13.3056 79.7958 13.6286 80.2002 14.043C80.619 14.4826 80.9407 15.006 81.1436 15.5781C81.3798 16.2439 81.4951 16.947 81.4834 17.6533C81.502 17.8592 81.4692 18.0669 81.3877 18.2568C81.3449 18.3116 81.2878 18.3543 81.2236 18.3809C81.1596 18.4072 81.0893 18.4166 81.0205 18.4082H73.7578C73.7596 19.0187 73.8532 19.6259 74.0371 20.208C74.1868 20.6767 74.4291 21.1106 74.749 21.4844C75.0433 21.8211 75.4127 22.0842 75.8271 22.252C76.2734 22.4264 76.7495 22.5121 77.2285 22.5049C77.6503 22.5138 78.0712 22.4571 78.4756 22.3369C78.7849 22.2417 79.0865 22.1213 79.376 21.9766C79.5924 21.8672 79.803 21.7466 80.0068 21.6152C80.1335 21.5191 80.285 21.4611 80.4434 21.4482C80.5147 21.4452 80.5856 21.4603 80.6494 21.4922C80.7133 21.5243 80.7683 21.5719 80.8086 21.6309L81.3477 22.3301C81.1048 22.6229 80.8176 22.8766 80.4961 23.0801C80.1633 23.2935 79.8075 23.4687 79.4355 23.6025C79.0555 23.7401 78.6632 23.8428 78.2646 23.9102C77.8695 23.9773 77.4692 24.0111 77.0684 24.0117C76.3555 24.0191 75.648 23.8886 74.9844 23.6279C74.359 23.3799 73.7956 22.9973 73.335 22.5068C72.8511 21.9814 72.482 21.3608 72.252 20.6846C71.982 19.8794 71.8521 19.0337 71.8682 18.1846C71.8622 17.4586 71.9814 16.7366 72.2197 16.0508C72.4373 15.4167 72.7796 14.8325 73.2266 14.333C73.6738 13.8415 74.2221 13.4517 74.833 13.1904C75.5041 12.9038 76.2274 12.7595 76.957 12.7666ZM107.932 14.5117C108.37 13.9989 108.898 13.5694 109.49 13.2451C110.11 12.9168 110.802 12.7517 111.504 12.7656C112.094 12.7569 112.679 12.8786 113.217 13.1211C113.732 13.3624 114.18 13.7269 114.521 14.1826C114.906 14.7062 115.188 15.2987 115.351 15.9277C115.555 16.7104 115.652 17.5174 115.639 18.3262C115.644 19.0869 115.536 19.8441 115.316 20.5723C115.121 21.2252 114.804 21.8359 114.384 22.3721C113.97 22.8925 113.443 23.3109 112.843 23.5938C112.241 23.8766 111.583 24.0167 110.919 24.0029C110.296 24.0222 109.676 23.8806 109.124 23.5928C108.619 23.3079 108.179 22.9182 107.837 22.4502L107.741 23.4414C107.728 23.5607 107.668 23.6706 107.576 23.7471C107.483 23.8235 107.364 23.8613 107.245 23.8516L106.004 23.8574V7.98145H107.932V14.5117ZM30.9873 8.41406C31.1499 8.4061 31.3105 8.45489 31.4404 8.55273C31.5558 8.64719 31.6448 8.77033 31.6992 8.90918L36.0635 19.8037C36.1693 20.064 36.2611 20.3302 36.3379 20.6006C36.4204 20.8884 36.5014 21.1872 36.5801 21.4961C36.6441 21.1872 36.7143 20.8884 36.791 20.6006C36.861 20.3295 36.949 20.0631 37.0547 19.8037L41.3975 8.90918C41.4556 8.77709 41.5443 8.66035 41.6562 8.56934C41.7827 8.4639 41.9439 8.40872 42.1084 8.41406H43.79L37.4961 23.8574H35.6094L29.3164 8.41406H30.9873ZM57.2705 23.8574H55.3516V7.98145H57.2705V23.8574ZM86.3203 22.0986H93.0029V23.8555H84.2305V8.41113H86.3213L86.3203 22.0986ZM50.335 18.9658C49.5806 18.9557 48.8263 19.0124 48.082 19.1348C47.5625 19.2177 47.0551 19.3653 46.5723 19.5742C46.2406 19.7113 45.9498 19.9312 45.7275 20.2129C45.5533 20.452 45.4609 20.7412 45.4639 21.0371C45.4574 21.2934 45.5044 21.5484 45.6025 21.7852C45.6875 21.9832 45.8168 22.1595 45.9805 22.2998C46.1438 22.4369 46.3353 22.5365 46.541 22.5928C46.7695 22.6546 47.0054 22.6849 47.2422 22.6816C47.5543 22.6847 47.8659 22.6493 48.1699 22.5781C48.4438 22.5133 48.7094 22.4173 48.9609 22.291C49.2127 22.163 49.4511 22.0092 49.6719 21.833C49.9073 21.6447 50.1292 21.4401 50.335 21.2197V18.9658ZM101.14 18.9658C100.386 18.9557 99.6311 19.0124 98.8867 19.1348C98.3679 19.2177 97.8604 19.3654 97.3779 19.5742C97.0462 19.7114 96.7547 19.9313 96.5322 20.2129C96.3586 20.4521 96.2657 20.7413 96.2686 21.0371C96.2619 21.2935 96.3094 21.5484 96.4072 21.7852C96.4926 21.9831 96.6221 22.1594 96.7852 22.2998C96.9492 22.4368 97.1405 22.5365 97.3457 22.5928C97.574 22.6546 97.81 22.684 98.0469 22.6807C98.3595 22.6837 98.6706 22.6493 98.9746 22.5781C99.2488 22.5133 99.5145 22.4173 99.7656 22.291C100.018 22.1631 100.256 22.0093 100.477 21.833C100.712 21.6446 100.934 21.4391 101.14 21.2188V18.9658ZM110.875 14.2988C110.298 14.2863 109.727 14.4355 109.231 14.7295C108.725 15.0501 108.285 15.464 107.933 15.9482V21.2236C108.223 21.6511 108.62 21.9968 109.084 22.2266C109.526 22.424 110.007 22.5216 110.491 22.5137C110.941 22.5378 111.391 22.4516 111.801 22.2617C112.21 22.0717 112.566 21.7836 112.84 21.4238C113.44 20.5052 113.728 19.4168 113.659 18.3213C113.668 17.7053 113.603 17.0901 113.467 16.4893C113.367 16.0397 113.183 15.6132 112.923 15.2334C112.702 14.9197 112.4 14.6718 112.05 14.5166C111.678 14.3627 111.277 14.2878 110.875 14.2969V14.2988ZM77.001 14.1787C76.601 14.1567 76.2003 14.2166 75.8242 14.3545C75.448 14.4925 75.1034 14.7059 74.8125 14.9814C74.2452 15.5933 73.8965 16.376 73.8213 17.207H79.7588C79.7638 16.7921 79.7018 16.379 79.5762 15.9834C79.4631 15.6306 79.2797 15.3035 79.0371 15.0234C78.7994 14.7539 78.5043 14.5409 78.1738 14.3994C77.8019 14.246 77.4023 14.1708 77 14.1787H77.001ZM6.04004 10.1318C5.90011 10.3627 5.70302 10.554 5.46777 10.6865C5.23258 10.8189 4.96719 10.8887 4.69727 10.8887C4.42733 10.8887 4.16196 10.8189 3.92676 10.6865C3.69152 10.554 3.49442 10.3627 3.35449 10.1318L0.560547 5.41699C0.292693 4.95279 0.153222 4.42558 0.15625 3.88965C0.159337 3.35354 0.304832 2.82744 0.578125 2.36621C0.851482 1.90502 1.24313 1.52476 1.71191 1.26465C2.18084 1.00453 2.71096 0.873499 3.24707 0.885742H11.5186L6.04004 10.1318Z" fill="black"/>
<path d="M116.91 35.79L118.087 31.999H119.014L116.981 37.8496C116.934 37.9744 116.872 38.1084 116.794 38.252C116.719 38.3987 116.622 38.5377 116.503 38.6689C116.385 38.8001 116.241 38.9062 116.072 38.9873C115.906 39.0716 115.709 39.1143 115.478 39.1143C115.409 39.1142 115.321 39.1047 115.215 39.0859C115.109 39.0672 115.034 39.0515 114.99 39.0391L114.985 38.3369C115.01 38.34 115.05 38.3426 115.103 38.3457C115.159 38.352 115.199 38.3555 115.22 38.3555C115.416 38.3555 115.585 38.3284 115.722 38.2754C115.859 38.2255 115.974 38.14 116.067 38.0186C116.164 37.8999 116.247 37.7356 116.316 37.5264L116.504 37.0127L114.695 31.999H115.642L116.91 35.79ZM24.3252 31.9053C24.6436 31.9053 24.9219 31.9618 25.1592 32.0742C25.3995 32.1834 25.6022 32.3444 25.7676 32.5566C25.7697 32.5593 25.7713 32.5627 25.7734 32.5654L25.8145 31.999H26.6016V36.96C26.6015 37.4063 26.5111 37.7873 26.3301 38.1025C26.149 38.4179 25.8959 38.6569 25.5713 38.8193C25.2497 38.9848 24.8776 39.0674 24.4561 39.0674C24.2812 39.0674 24.0751 39.0396 23.8379 38.9834C23.6037 38.9304 23.3724 38.8382 23.1445 38.707C22.9197 38.5791 22.7311 38.4051 22.5781 38.1865L23.0322 37.6719C23.2445 37.9277 23.4664 38.1051 23.6973 38.2051C23.9314 38.3049 24.1627 38.3555 24.3906 38.3555C24.6654 38.3555 24.9028 38.3041 25.1025 38.2012C25.3024 38.0982 25.4572 37.9449 25.5664 37.7422C25.6788 37.5423 25.7353 37.2954 25.7354 37.002V36.5508C25.5757 36.7417 25.3849 36.8915 25.1592 36.9971C24.9188 37.1063 24.6371 37.1611 24.3154 37.1611C24.0127 37.1611 23.7379 37.0968 23.4912 36.9688C23.2477 36.8407 23.0381 36.6617 22.8633 36.4307C22.6884 36.1996 22.5547 35.9275 22.4609 35.6152C22.3704 35.2999 22.3252 34.9581 22.3252 34.5898V34.4912C22.3252 34.104 22.3704 33.7528 22.4609 33.4375C22.5547 33.1189 22.6876 32.8451 22.8594 32.6172C23.0341 32.3894 23.2447 32.2144 23.4912 32.0928C23.7379 31.9679 24.016 31.9053 24.3252 31.9053ZM53.5615 31.9053C53.88 31.9053 54.1582 31.9618 54.3955 32.0742C54.636 32.1835 54.8394 32.3443 55.0049 32.5566C55.0068 32.559 55.0079 32.5621 55.0098 32.5645L55.0508 31.999H55.8379V36.96C55.8378 37.4063 55.7475 37.7873 55.5664 38.1025C55.3853 38.4179 55.1324 38.657 54.8076 38.8193C54.4861 38.9847 54.1147 39.0673 53.6934 39.0674C53.5185 39.0674 53.3115 39.0396 53.0742 38.9834C52.8403 38.9304 52.6095 38.838 52.3818 38.707C52.157 38.5791 51.9675 38.4051 51.8145 38.1865L52.2686 37.6719C52.4809 37.9279 52.7035 38.1051 52.9346 38.2051C53.1685 38.3048 53.3992 38.3554 53.627 38.3555C53.9016 38.3555 54.1391 38.304 54.3389 38.2012C54.5387 38.0982 54.6935 37.9449 54.8027 37.7422C54.9151 37.5423 54.9717 37.2954 54.9717 37.002V36.5518C54.8121 36.7424 54.6211 36.8916 54.3955 36.9971C54.1552 37.1063 53.8742 37.1611 53.5527 37.1611C53.2499 37.1611 52.9743 37.0968 52.7275 36.9688C52.4843 36.8408 52.2752 36.6615 52.1006 36.4307C51.9257 36.1996 51.791 35.9275 51.6973 35.6152C51.6068 35.3 51.5616 34.9581 51.5615 34.5898V34.4912C51.5615 34.104 51.6068 33.7528 51.6973 33.4375C51.791 33.1189 51.9239 32.8451 52.0957 32.6172C52.2705 32.3894 52.4811 32.2144 52.7275 32.0928C52.9742 31.9679 53.2525 31.9053 53.5615 31.9053ZM85.8057 31.9053C86.1241 31.9053 86.4024 31.9618 86.6396 32.0742C86.88 32.1835 87.0826 32.3444 87.248 32.5566C87.2502 32.5593 87.2517 32.5627 87.2539 32.5654L87.2949 31.999H88.082V36.96C88.082 37.4063 87.9916 37.7873 87.8105 38.1025C87.6295 38.4179 87.3764 38.6569 87.0518 38.8193C86.7301 38.9848 86.358 39.0674 85.9365 39.0674C85.7617 39.0674 85.5556 39.0396 85.3184 38.9834C85.0841 38.9304 84.8529 38.8381 84.625 38.707C84.4002 38.5791 84.2116 38.4051 84.0586 38.1865L84.5127 37.6719C84.7249 37.9277 84.9468 38.1051 85.1777 38.2051C85.4119 38.3049 85.6432 38.3555 85.8711 38.3555C86.1458 38.3555 86.3832 38.3041 86.583 38.2012C86.7828 38.0982 86.9376 37.945 87.0469 37.7422C87.1593 37.5423 87.2158 37.2954 87.2158 37.002V36.5508C87.0561 36.7417 86.8654 36.8915 86.6396 36.9971C86.3993 37.1063 86.1175 37.1611 85.7959 37.1611C85.4931 37.1611 85.2183 37.0968 84.9717 36.9688C84.7282 36.8407 84.5186 36.6617 84.3438 36.4307C84.1689 36.1996 84.0351 35.9275 83.9414 35.6152C83.8509 35.2999 83.8057 34.9581 83.8057 34.5898V34.4912C83.8057 34.104 83.8509 33.7528 83.9414 33.4375C84.0351 33.1189 84.1681 32.8451 84.3398 32.6172C84.5146 32.3894 84.7252 32.2144 84.9717 32.0928C85.2184 31.9679 85.4965 31.9053 85.8057 31.9053ZM11.4961 31.9053C11.852 31.9053 12.172 31.9713 12.4561 32.1025C12.7432 32.2304 12.9868 32.4114 13.1865 32.6455C13.3895 32.8765 13.5443 33.1504 13.6504 33.4658C13.7565 33.7779 13.8095 34.1164 13.8096 34.4814V34.5898C13.8095 34.955 13.7565 35.2934 13.6504 35.6055C13.5443 35.9177 13.3895 36.1915 13.1865 36.4258C12.9868 36.6567 12.7449 36.8377 12.4609 36.9688C12.1799 37.0968 11.8609 37.1611 11.5049 37.1611C11.1491 37.1611 10.829 37.0968 10.5449 36.9688C10.2609 36.8376 10.0174 36.6568 9.81445 36.4258C9.61463 36.1915 9.46164 35.9177 9.35547 35.6055C9.24944 35.2934 9.19632 34.9549 9.19629 34.5898V34.4814C9.19632 34.1164 9.24942 33.7779 9.35547 33.4658C9.46164 33.1504 9.61463 32.8765 9.81445 32.6455C10.0143 32.4113 10.2568 32.2305 10.541 32.1025C10.8251 31.9714 11.1434 31.9053 11.4961 31.9053ZM31.4727 31.999H32.4189V32.6641H31.4727V35.8115C31.4727 35.9833 31.4996 36.1138 31.5527 36.2012C31.6057 36.2884 31.6746 36.346 31.7588 36.374C31.843 36.4021 31.9336 36.416 32.0303 36.416C32.1021 36.416 32.1769 36.4099 32.2549 36.3975C32.336 36.3818 32.3969 36.3697 32.4375 36.3604L32.4424 37.0674C32.3738 37.0892 32.2832 37.1092 32.1709 37.1279C32.0617 37.1498 31.9286 37.1611 31.7725 37.1611C31.5602 37.1611 31.3645 37.1184 31.1865 37.0342C31.0088 36.9499 30.8667 36.8097 30.7607 36.6133C30.6576 36.4135 30.6065 36.1447 30.6064 35.8076V32.6641H29.6787V31.999H30.6064V30.7676H31.4727V31.999ZM40.709 31.9053C41.0712 31.9053 41.3842 31.9679 41.6465 32.0928C41.9116 32.2176 42.1283 32.3926 42.2969 32.6172C42.4655 32.8388 42.5907 33.1014 42.6719 33.4043C42.7531 33.7039 42.7939 34.0319 42.7939 34.3877V34.7773H39.3672C39.3727 34.9933 39.4034 35.1978 39.4629 35.3906C39.5316 35.5998 39.6308 35.784 39.7588 35.9434C39.89 36.1025 40.0473 36.2279 40.2314 36.3184C40.4187 36.4088 40.6311 36.4541 40.8682 36.4541C41.1742 36.4541 41.4342 36.3915 41.6465 36.2666C41.8586 36.1418 42.044 35.9746 42.2031 35.7656L42.7275 36.1816C42.6183 36.3471 42.4801 36.5055 42.3115 36.6553C42.1429 36.8052 41.935 36.9268 41.6885 37.0205C41.4449 37.1142 41.1554 37.1611 40.8213 37.1611C40.4686 37.1611 40.1484 37.102 39.8613 36.9834C39.5771 36.8617 39.332 36.6913 39.126 36.4727C38.9231 36.2542 38.7675 35.9949 38.6582 35.6953C38.5488 35.3955 38.4941 35.0669 38.4941 34.7109V34.5146C38.4941 34.1025 38.555 33.7357 38.6768 33.4141C38.7985 33.0895 38.9637 32.8146 39.1729 32.5898C39.382 32.365 39.6194 32.1947 39.8848 32.0791C40.1501 31.9637 40.4249 31.9053 40.709 31.9053ZM63.6133 31.999H64.5596V32.6641H63.6133V35.8115C63.6133 35.9833 63.6403 36.1138 63.6934 36.2012C63.7465 36.2884 63.8152 36.346 63.8994 36.374C63.9836 36.4021 64.0741 36.416 64.1709 36.416C64.2426 36.416 64.3176 36.4099 64.3955 36.3975C64.4766 36.3819 64.5375 36.3697 64.5781 36.3604L64.583 37.0674C64.5144 37.0892 64.4238 37.1092 64.3115 37.1279C64.2023 37.1498 64.0693 37.1611 63.9131 37.1611C63.7008 37.1611 63.506 37.1183 63.3281 37.0342C63.1502 36.9499 63.0075 36.8099 62.9014 36.6133C62.7984 36.4135 62.7471 36.1447 62.7471 35.8076V32.6641H61.8193V31.999H62.7471V30.7676H63.6133V31.999ZM69.1309 31.999H70.0771V32.6641H69.1309V35.8115C69.1309 35.9833 69.1578 36.1138 69.2109 36.2012C69.2639 36.2884 69.3328 36.346 69.417 36.374C69.5012 36.4021 69.5918 36.416 69.6885 36.416C69.7603 36.416 69.8351 36.4099 69.9131 36.3975C69.9941 36.3818 70.0551 36.3697 70.0957 36.3604L70.1006 37.0674C70.032 37.0892 69.9414 37.1092 69.8291 37.1279C69.7198 37.1498 69.5867 37.1611 69.4307 37.1611C69.2184 37.1611 69.0237 37.1183 68.8457 37.0342C68.6678 36.9499 68.525 36.8099 68.4189 36.6133C68.3158 36.4135 68.2647 36.1447 68.2646 35.8076V32.6641H67.3369V31.999H68.2646V30.7676H69.1309V31.999ZM112.082 31.9053C112.45 31.9053 112.776 31.9679 113.056 32.0928C113.341 32.2177 113.562 32.4072 113.722 32.6602C113.884 32.9099 113.965 33.2239 113.965 33.6016V35.9619C113.965 36.1306 113.979 36.3105 114.008 36.501C114.038 36.6912 114.083 36.855 114.143 36.9922V37.0674H113.239C113.195 36.9675 113.162 36.8344 113.136 36.6689C113.129 36.6211 113.124 36.5741 113.119 36.5283C113.077 36.5723 113.033 36.6172 112.985 36.6602C112.826 36.8037 112.636 36.9238 112.415 37.0205C112.196 37.1142 111.95 37.1611 111.675 37.1611C111.331 37.1611 111.03 37.0943 110.771 36.96C110.514 36.8258 110.314 36.6457 110.171 36.4209C110.03 36.193 109.96 35.9382 109.96 35.6572C109.96 35.3857 110.013 35.1465 110.119 34.9404C110.226 34.7313 110.379 34.5583 110.578 34.4209C110.779 34.2805 111.019 34.1744 111.3 34.1025C111.581 34.0308 111.895 33.9951 112.241 33.9951H113.098V33.5918C113.098 33.3922 113.058 33.2189 112.977 33.0723C112.899 32.9223 112.779 32.8067 112.62 32.7256C112.461 32.6443 112.264 32.6035 112.03 32.6035C111.812 32.6035 111.62 32.641 111.455 32.7158C111.292 32.7907 111.164 32.8891 111.07 33.0107C110.98 33.1325 110.935 33.2639 110.935 33.4043H110.067C110.067 33.2233 110.115 33.044 110.209 32.8662C110.302 32.6883 110.436 32.5274 110.611 32.3838C110.789 32.2371 111.002 32.1214 111.248 32.0371C111.497 31.9496 111.776 31.9053 112.082 31.9053ZM121.633 31.9053C122.038 31.9053 122.384 31.9776 122.672 32.1211C122.959 32.2647 123.18 32.4568 123.332 32.6973C123.486 32.9346 123.562 33.1988 123.562 33.4893H122.695C122.695 33.3487 122.653 33.2122 122.568 33.0811C122.488 32.947 122.368 32.8363 122.208 32.749C122.053 32.6616 121.861 32.6172 121.633 32.6172C121.392 32.6172 121.197 32.6556 121.047 32.7305C120.9 32.8023 120.792 32.8946 120.724 33.0068C120.658 33.1191 120.625 33.2376 120.625 33.3623C120.625 33.4559 120.64 33.5404 120.672 33.6152C120.706 33.687 120.766 33.754 120.85 33.8164C120.934 33.8757 121.054 33.9323 121.207 33.9854C121.359 34.0384 121.555 34.0914 121.792 34.1445C122.207 34.2381 122.549 34.3503 122.817 34.4814C123.086 34.6125 123.287 34.7734 123.417 34.9639C123.548 35.1542 123.613 35.3857 123.613 35.6572C123.613 35.8789 123.568 36.0823 123.474 36.2666C123.383 36.4508 123.25 36.6099 123.075 36.7441C122.903 36.8753 122.697 36.9788 122.456 37.0537C122.219 37.1255 121.952 37.1611 121.655 37.1611C121.209 37.1611 120.831 37.0811 120.522 36.9219C120.213 36.7627 119.979 36.5566 119.819 36.3037C119.66 36.0509 119.581 35.7838 119.581 35.5029H120.451C120.464 35.7402 120.534 35.9288 120.658 36.0693C120.783 36.2066 120.936 36.305 121.117 36.3643C121.298 36.4204 121.478 36.4492 121.655 36.4492C121.893 36.4492 122.091 36.4179 122.25 36.3555C122.413 36.293 122.536 36.2069 122.62 36.0977C122.705 35.9884 122.747 35.8632 122.747 35.7227C122.747 35.5979 122.72 35.482 122.663 35.376C122.61 35.2668 122.499 35.1685 122.33 35.0811C122.165 34.9905 121.915 34.9132 121.581 34.8477C121.3 34.7883 121.046 34.7178 120.817 34.6367C120.593 34.5555 120.4 34.4564 120.241 34.3408C120.085 34.2254 119.965 34.0896 119.881 33.9336C119.796 33.7776 119.754 33.5949 119.754 33.3857C119.754 33.186 119.798 32.9973 119.886 32.8193C119.976 32.6414 120.103 32.4831 120.265 32.3457C120.431 32.2083 120.628 32.1005 120.859 32.0225C121.091 31.9445 121.349 31.9053 121.633 31.9053ZM89.9512 36.084C90.1258 36.0841 90.2582 36.1354 90.3486 36.2383C90.4424 36.3381 90.4893 36.4616 90.4893 36.6084C90.4892 36.752 90.4423 36.8737 90.3486 36.9736C90.2582 37.0733 90.1258 37.123 89.9512 37.123C89.7763 37.123 89.6416 37.0735 89.5479 36.9736C89.4573 36.8737 89.4121 36.752 89.4121 36.6084C89.4121 36.4616 89.4573 36.3381 89.5479 36.2383C89.6416 36.1353 89.7763 36.084 89.9512 36.084ZM125.305 36.084C125.479 36.084 125.612 36.1354 125.702 36.2383C125.796 36.3381 125.844 36.4616 125.844 36.6084C125.844 36.752 125.796 36.8737 125.702 36.9736C125.612 37.0733 125.479 37.123 125.305 37.123C125.13 37.123 124.995 37.0735 124.901 36.9736C124.811 36.8737 124.767 36.752 124.767 36.6084C124.767 36.4617 124.811 36.3381 124.901 36.2383C124.995 36.1353 125.13 36.084 125.305 36.084ZM5.19141 30.248C5.63794 30.248 6.04559 30.3228 6.41406 30.4727C6.78247 30.6194 7.09985 30.8332 7.36523 31.1143C7.63365 31.3921 7.8398 31.7295 7.9834 32.126C8.12699 32.5193 8.19824 32.9628 8.19824 33.4561V33.8633C8.19824 34.3565 8.12697 34.8018 7.9834 35.1982C7.83981 35.5915 7.63187 35.9272 7.36035 36.2051C7.09181 36.483 6.7667 36.6968 6.38574 36.8467C6.00797 36.9934 5.58197 37.0674 5.10742 37.0674H3.26172V30.248H5.19141ZM15.8379 37.0674H14.9668V31.999H15.8379V37.0674ZM19.5898 31.9053C19.8397 31.9053 20.0648 31.9401 20.2646 32.0088C20.4642 32.0744 20.634 32.1806 20.7744 32.3271C20.918 32.4739 21.0276 32.6644 21.1025 32.8984C21.1774 33.1294 21.2148 33.4121 21.2148 33.7461V37.0674H20.3438V33.7373C20.3438 33.4719 20.3046 33.2588 20.2266 33.0996C20.1485 32.9374 20.0345 32.8208 19.8848 32.749C19.7348 32.6741 19.5506 32.6367 19.332 32.6367C19.1166 32.6367 18.9201 32.6819 18.7422 32.7725C18.5673 32.863 18.4152 32.9873 18.2871 33.1465C18.2136 33.2402 18.1508 33.3431 18.0957 33.4531V37.0674H17.2295V31.999H18.0488L18.0762 32.6309C18.0858 32.6187 18.0946 32.6057 18.1045 32.5938C18.2856 32.3753 18.5012 32.2065 18.751 32.0879C19.0039 31.9662 19.2838 31.9053 19.5898 31.9053ZM34.3018 32.6064C34.305 32.6025 34.3083 32.5977 34.3115 32.5938C34.4925 32.3755 34.7074 32.2065 34.957 32.0879C35.2099 31.9662 35.4899 31.9053 35.7959 31.9053C36.0457 31.9053 36.2709 31.9401 36.4707 32.0088C36.6703 32.0744 36.8401 32.1806 36.9805 32.3271C37.1241 32.4739 37.2337 32.6644 37.3086 32.8984C37.3836 33.1294 37.4209 33.4121 37.4209 33.7461V37.0674H36.5498V33.7373C36.5498 33.4719 36.5107 33.2588 36.4326 33.0996C36.3546 32.9375 36.2405 32.8208 36.0908 32.749C35.9409 32.6741 35.7567 32.6367 35.5381 32.6367C35.3227 32.6367 35.1261 32.6819 34.9482 32.7725C34.7735 32.8629 34.622 32.9874 34.4941 33.1465C34.4206 33.2403 34.3569 33.3431 34.3018 33.4531V37.0674H33.4355V29.873H34.3018V32.6064ZM48.25 31.9053C48.3124 31.9053 48.3847 31.9131 48.4658 31.9287C48.547 31.9412 48.6035 31.9561 48.6348 31.9717L48.6299 32.7773C48.5581 32.7617 48.4894 32.7521 48.4238 32.749C48.3614 32.7428 48.2893 32.7393 48.208 32.7393C48.0082 32.7393 47.8317 32.7706 47.6787 32.833C47.5258 32.8955 47.3962 32.9833 47.29 33.0957C47.1912 33.2004 47.1117 33.3242 47.0508 33.4668V37.0674H46.1846V31.999H47.0273L47.0449 32.5801C47.0469 32.5769 47.0488 32.5735 47.0508 32.5703C47.1787 32.3613 47.3415 32.1995 47.5381 32.084C47.7378 31.9654 47.9753 31.9053 48.25 31.9053ZM50.377 37.0674H49.5059V31.999H50.377V37.0674ZM58.0205 32.6064C58.0238 32.6024 58.027 32.5978 58.0303 32.5938C58.2113 32.3754 58.4271 32.2065 58.6768 32.0879C58.9295 31.9663 59.2089 31.9053 59.5146 31.9053C59.7645 31.9053 59.9895 31.9401 60.1895 32.0088C60.3893 32.0744 60.5597 32.1804 60.7002 32.3271C60.8438 32.4739 60.9534 32.6643 61.0283 32.8984C61.1032 33.1294 61.1406 33.4121 61.1406 33.7461V37.0674H60.2695V33.7373C60.2695 33.4719 60.2304 33.2588 60.1523 33.0996C60.0743 32.9375 59.9601 32.8209 59.8105 32.749C59.6607 32.6742 59.4762 32.6368 59.2578 32.6367C59.0424 32.6367 58.8449 32.6819 58.667 32.7725C58.4923 32.8629 58.3408 32.9875 58.2129 33.1465C58.1393 33.2403 58.0757 33.343 58.0205 33.4531V37.0674H57.1543V29.873H58.0205V32.6064ZM71.96 32.6064C71.9632 32.6025 71.9664 32.5977 71.9697 32.5938C72.1508 32.3754 72.3666 32.2065 72.6162 32.0879C72.8689 31.9663 73.1483 31.9053 73.4541 31.9053C73.7039 31.9053 73.9291 31.9401 74.1289 32.0088C74.3286 32.0744 74.4984 32.1806 74.6387 32.3271C74.7823 32.4739 74.8919 32.6644 74.9668 32.8984C75.0418 33.1294 75.0791 33.4121 75.0791 33.7461V37.0674H74.208V33.7373C74.208 33.4719 74.1688 33.2588 74.0908 33.0996C74.0127 32.9375 73.8988 32.8208 73.749 32.749C73.5992 32.6741 73.4149 32.6367 73.1963 32.6367C72.9809 32.6367 72.7844 32.6819 72.6064 32.7725C72.4317 32.8629 72.2802 32.9874 72.1523 33.1465C72.0788 33.2403 72.0151 33.3431 71.96 33.4531V37.0674H71.0938V29.873H71.96V32.6064ZM77.3184 37.0674H76.4473V31.999H77.3184V37.0674ZM81.0703 31.9053C81.3199 31.9053 81.5444 31.9402 81.7441 32.0088C81.9439 32.0744 82.1144 32.1805 82.2549 32.3271C82.3984 32.4739 82.5081 32.6644 82.583 32.8984C82.6579 33.1294 82.6953 33.4121 82.6953 33.7461V37.0674H81.8242V33.7373C81.8242 33.4719 81.7851 33.2588 81.707 33.0996C81.629 32.9375 81.5149 32.8208 81.3652 32.749C81.2153 32.6741 81.0311 32.6367 80.8125 32.6367C80.5971 32.6367 80.4006 32.6819 80.2227 32.7725C80.0478 32.863 79.8956 32.9873 79.7676 33.1465C79.694 33.2402 79.6313 33.3431 79.5762 33.4531V37.0674H78.709V31.999H79.5293L79.5566 32.6309C79.5663 32.6187 79.5751 32.6057 79.585 32.5938C79.7661 32.3753 79.9817 32.2065 80.2314 32.0879C80.4844 31.9662 80.7643 31.9053 81.0703 31.9053ZM99.7822 37.0674H98.8545L98.2051 35.2832H95.3525L94.7051 37.0674H93.7822L96.3818 30.248H97.1738L99.7822 37.0674ZM101.505 37.0674H100.635V29.873H101.505V37.0674ZM104.301 35.7822L105.482 31.999H106.181L107.381 35.8574L108.358 31.999H109.22L107.749 37.0674H107.047L105.815 33.2305L104.616 37.0674H103.908L102.438 31.999H103.304L104.301 35.7822ZM11.4961 32.6172C11.2589 32.6172 11.0493 32.6676 10.8682 32.7676C10.6903 32.8675 10.5407 33.0049 10.4189 33.1797C10.3003 33.3514 10.2106 33.5496 10.1514 33.7744C10.092 33.996 10.0625 34.2318 10.0625 34.4814V34.5898C10.0625 34.8427 10.092 35.0819 10.1514 35.3066C10.2106 35.5282 10.3003 35.7249 10.4189 35.8965C10.5407 36.0682 10.692 36.2039 10.873 36.3037C11.054 36.4004 11.2647 36.4492 11.5049 36.4492C11.7421 36.4492 11.95 36.4004 12.1279 36.3037C12.309 36.2039 12.4595 36.0683 12.5781 35.8965C12.6967 35.7249 12.7854 35.5281 12.8447 35.3066C12.9071 35.0819 12.9384 34.8427 12.9385 34.5898V34.4814C12.9384 34.2318 12.9071 33.996 12.8447 33.7744C12.7854 33.5496 12.6949 33.3514 12.5732 33.1797C12.4547 33.0049 12.305 32.8675 12.124 32.7676C11.9461 32.6676 11.7365 32.6172 11.4961 32.6172ZM24.5361 32.6367C24.2988 32.6367 24.0936 32.6863 23.9219 32.7861C23.7534 32.883 23.615 33.0178 23.5059 33.1895C23.3997 33.358 23.3196 33.5545 23.2666 33.7793C23.2166 34.001 23.1914 34.2383 23.1914 34.4912V34.5898C23.1914 34.8427 23.2166 35.0802 23.2666 35.3018C23.3196 35.5233 23.3997 35.7182 23.5059 35.8867C23.615 36.0552 23.7534 36.1884 23.9219 36.2852C24.0904 36.3789 24.2923 36.4258 24.5264 36.4258C24.8136 36.4258 25.051 36.3648 25.2383 36.2432C25.4256 36.1214 25.5743 35.9606 25.6836 35.7607C25.702 35.728 25.7183 35.6938 25.7354 35.6602V33.376C25.6747 33.2574 25.6013 33.15 25.5146 33.0537C25.4054 32.9257 25.2697 32.8239 25.1074 32.749C24.9451 32.6741 24.7546 32.6367 24.5361 32.6367ZM53.7725 32.6367C53.5353 32.6367 53.3308 32.6863 53.1592 32.7861C52.9905 32.883 52.8514 33.0177 52.7422 33.1895C52.6361 33.3579 52.556 33.5545 52.5029 33.7793C52.453 34.0009 52.4287 34.2383 52.4287 34.4912V34.5898C52.4287 34.8427 52.453 35.0802 52.5029 35.3018C52.556 35.5233 52.6361 35.7182 52.7422 35.8867C52.8514 36.0553 52.9905 36.1884 53.1592 36.2852C53.3276 36.3788 53.5288 36.4257 53.7627 36.4258C54.0498 36.4258 54.2873 36.3647 54.4746 36.2432C54.6619 36.1214 54.8107 35.9605 54.9199 35.7607C54.9382 35.7283 54.9547 35.6945 54.9717 35.6611V33.374C54.9112 33.2561 54.8373 33.1496 54.751 33.0537C54.6417 32.9257 54.5062 32.8239 54.3438 32.749C54.1814 32.6741 53.991 32.6367 53.7725 32.6367ZM86.0166 32.6367C85.7793 32.6367 85.5742 32.6863 85.4023 32.7861C85.2339 32.883 85.0955 33.0177 84.9863 33.1895C84.8801 33.358 84.8001 33.5545 84.7471 33.7793C84.6971 34.001 84.6719 34.2383 84.6719 34.4912V34.5898C84.6719 34.8427 84.6971 35.0802 84.7471 35.3018C84.8001 35.5233 84.8802 35.7182 84.9863 35.8867C85.0955 36.0552 85.2339 36.1884 85.4023 36.2852C85.571 36.3789 85.7727 36.4258 86.0068 36.4258C86.2941 36.4258 86.5314 36.3648 86.7188 36.2432C86.9061 36.1214 87.0548 35.9606 87.1641 35.7607C87.1825 35.728 87.1987 35.6938 87.2158 35.6602V33.376C87.1552 33.2574 87.0818 33.15 86.9951 33.0537C86.8859 32.9257 86.7502 32.8239 86.5879 32.749C86.4256 32.6741 86.2351 32.6368 86.0166 32.6367ZM112.382 34.6035C112.135 34.6035 111.915 34.6234 111.722 34.6641C111.528 34.7015 111.366 34.7598 111.234 34.8379C111.103 34.916 111.003 35.0142 110.935 35.1328C110.866 35.2483 110.831 35.3841 110.831 35.54C110.831 35.6992 110.868 35.8445 110.938 35.9756C111.01 36.1068 111.119 36.212 111.262 36.29C111.408 36.3649 111.589 36.4023 111.801 36.4023C112.066 36.4023 112.301 36.3458 112.503 36.2334C112.706 36.121 112.867 35.9836 112.985 35.8213C113.031 35.7601 113.068 35.6986 113.098 35.6387V34.6035H112.382ZM4.16602 36.332H5.10742C5.59446 36.332 6.0005 36.2303 6.3252 36.0273C6.64977 35.8214 6.89332 35.5342 7.05566 35.166C7.22116 34.7944 7.30371 34.3598 7.30371 33.8633V33.4463C7.30368 33.0562 7.25667 32.71 7.16309 32.4072C7.06941 32.1012 6.93208 31.843 6.75098 31.6338C6.56991 31.4216 6.34812 31.2607 6.08594 31.1514C5.82682 31.0422 5.52855 30.9873 5.19141 30.9873H4.16602V36.332ZM95.6221 34.543H97.9355L96.7764 31.3604L95.6221 34.543ZM40.709 32.6172C40.5124 32.6172 40.3315 32.6599 40.166 32.7441C40.0005 32.8253 39.8579 32.947 39.7393 33.1094C39.6207 33.2716 39.5285 33.47 39.4629 33.7041C39.4312 33.8173 39.408 33.9393 39.3916 34.0693H41.9268V34.0039C41.9143 33.7792 41.8672 33.5608 41.7861 33.3486C41.708 33.1363 41.5838 32.9606 41.4121 32.8232C41.2403 32.6859 41.0055 32.6172 40.709 32.6172ZM15.4121 30.1543C15.5773 30.1544 15.7036 30.2023 15.791 30.2988C15.8816 30.3956 15.9268 30.5147 15.9268 30.6553C15.9267 30.7894 15.8815 30.9052 15.791 31.002C15.7036 31.0954 15.5773 31.1425 15.4121 31.1426C15.2435 31.1426 15.1147 31.0956 15.0273 31.002C14.9431 30.9052 14.9014 30.7894 14.9014 30.6553C14.9014 30.5147 14.943 30.3956 15.0273 30.2988C15.1147 30.2021 15.2435 30.1543 15.4121 30.1543ZM49.9502 30.1543C50.1157 30.1543 50.2427 30.2021 50.3301 30.2988C50.4206 30.3956 50.4658 30.5147 50.4658 30.6553C50.4658 30.7894 50.4206 30.9052 50.3301 31.002C50.2427 31.0956 50.1157 31.1426 49.9502 31.1426C49.7819 31.1425 49.6538 31.0954 49.5664 31.002C49.4822 30.9052 49.4405 30.7894 49.4404 30.6553C49.4404 30.5147 49.4822 30.3956 49.5664 30.2988C49.6538 30.2022 49.7819 30.1544 49.9502 30.1543ZM76.8926 30.1543C77.0577 30.1544 77.1841 30.2023 77.2715 30.2988C77.362 30.3956 77.4072 30.5147 77.4072 30.6553C77.4072 30.7894 77.362 30.9052 77.2715 31.002C77.1841 31.0954 77.0577 31.1425 76.8926 31.1426C76.724 31.1426 76.5952 31.0956 76.5078 31.002C76.4235 30.9052 76.3819 30.7894 76.3818 30.6553C76.3818 30.5147 76.4235 30.3956 76.5078 30.2988C76.5952 30.2021 76.724 30.1543 76.8926 30.1543ZM23.5107 0.885742C24.0469 0.873499 24.577 1.00453 25.0459 1.26465C25.5147 1.52476 25.9063 1.90504 26.1797 2.36621C26.4529 2.82744 26.5984 3.35354 26.6016 3.88965C26.6046 4.42574 26.4643 4.95269 26.1963 5.41699L16.0664 22.5176C15.7865 22.9793 15.3923 23.3619 14.9219 23.627C14.4514 23.8919 13.9198 24.0312 13.3799 24.0312C12.8401 24.0312 12.3092 23.8918 11.8389 23.627C11.3684 23.3619 10.9742 22.9794 10.6943 22.5176L4.69824 12.3975L4.51562 12.0898C4.96624 12.3479 5.50082 12.4162 6.00195 12.2803C6.503 12.1443 6.9301 11.8155 7.18848 11.3652L13.3965 0.885742H23.5107ZM48.418 12.7441C48.9763 12.7336 49.5311 12.8365 50.0488 13.0459C50.5047 13.2345 50.9133 13.5214 51.2451 13.8867C51.5793 14.2646 51.8291 14.7095 51.9785 15.1914C52.1486 15.7355 52.2326 16.3031 52.2266 16.873L52.2207 23.8555H51.3701C51.2142 23.8621 51.0586 23.832 50.916 23.7686C50.8524 23.7293 50.799 23.6759 50.7598 23.6123C50.7205 23.5487 50.696 23.4768 50.6895 23.4023L50.4746 22.3896C50.187 22.6453 49.9071 22.8772 49.6348 23.085C49.3658 23.2866 49.0764 23.4601 48.7715 23.6016C48.4631 23.744 48.1392 23.8508 47.8066 23.9199C47.4326 23.9952 47.0514 24.0316 46.6699 24.0283C46.266 24.0312 45.8638 23.9705 45.4785 23.8496C45.1237 23.7384 44.7944 23.556 44.5127 23.3135C44.231 23.0643 44.0081 22.7549 43.8604 22.4092C43.6901 22.0004 43.6077 21.56 43.6182 21.1172C43.6212 20.677 43.7439 20.2457 43.9736 19.8701C44.2608 19.4232 44.6572 19.0566 45.125 18.8047C45.775 18.4493 46.4746 18.1926 47.2002 18.043C48.231 17.8274 49.2829 17.728 50.3359 17.7461V16.8896C50.3851 16.2006 50.1925 15.5152 49.791 14.9531C49.5906 14.7279 49.3407 14.5522 49.0615 14.4385C48.7824 14.3248 48.4812 14.2758 48.1807 14.2969C47.7799 14.2861 47.3797 14.3468 47 14.4756C46.7104 14.5791 46.4328 14.713 46.1709 14.874C45.9369 15.0211 45.7352 15.1535 45.5664 15.2725C45.4221 15.3827 45.2468 15.4453 45.0654 15.4512C44.9442 15.4534 44.8251 15.4177 44.7256 15.3486C44.6305 15.2825 44.5519 15.1956 44.4951 15.0947L44.1504 14.4805C44.7118 13.9258 45.3737 13.483 46.1006 13.1758C46.837 12.8805 47.6246 12.7339 48.418 12.7441ZM62.3057 19.9014C62.2629 20.5888 62.4667 21.269 62.8809 21.8193C63.0986 22.0557 63.3679 22.2397 63.667 22.3574C63.9659 22.4749 64.2881 22.5237 64.6084 22.499C65.1612 22.5009 65.7054 22.3632 66.1914 22.0996C66.7104 21.8148 67.1745 21.4392 67.5605 20.9902V12.9395H69.4795V23.8564H68.3369C68.2168 23.8656 68.0974 23.8293 68.002 23.7559C67.9065 23.6824 67.8412 23.5765 67.8193 23.458L67.6689 22.2832C67.2132 22.7931 66.6732 23.2208 66.0732 23.5488C65.4492 23.8766 64.7526 24.0415 64.0479 24.0283C63.5067 24.0387 62.9692 23.9383 62.4688 23.7324C62.026 23.546 61.6318 23.2597 61.3174 22.8965C60.9968 22.5156 60.7598 22.0712 60.6221 21.5928C60.4625 21.0434 60.3842 20.4735 60.3906 19.9014V12.9395H62.3057V19.9014ZM99.2217 12.7441C99.7799 12.7336 100.335 12.8356 100.853 13.0449C101.309 13.2336 101.717 13.5214 102.049 13.8867C102.383 14.2648 102.633 14.7096 102.781 15.1914C102.952 15.7355 103.036 16.3031 103.029 16.873L103.025 23.8555H102.175C102.019 23.8621 101.864 23.832 101.721 23.7686C101.657 23.7294 101.604 23.676 101.564 23.6123C101.525 23.5487 101.501 23.4768 101.494 23.4023L101.279 22.3896C100.992 22.6454 100.712 22.8772 100.438 23.085C100.17 23.2866 99.88 23.4593 99.5752 23.6006C99.2673 23.7431 98.9422 23.8509 98.6094 23.9199C98.2354 23.9953 97.8543 24.0316 97.4727 24.0283C97.0689 24.0311 96.6667 23.9705 96.2812 23.8496C95.9268 23.7383 95.5982 23.5559 95.3164 23.3135C95.0353 23.0642 94.8127 22.7547 94.665 22.4092C94.4947 22.0004 94.4124 21.56 94.4229 21.1172C94.4259 20.677 94.5485 20.2457 94.7783 19.8701C95.0655 19.4232 95.4619 19.0567 95.9297 18.8047C96.5799 18.4495 97.2787 18.1927 98.0039 18.043C99.035 17.8273 100.088 17.7281 101.141 17.7461V16.8896C101.191 16.2006 100.998 15.5153 100.596 14.9531C100.395 14.7279 100.145 14.5522 99.8662 14.4385C99.5871 14.3247 99.2856 14.2758 98.9844 14.2969C98.5836 14.2862 98.1844 14.3469 97.8047 14.4756C97.5151 14.5791 97.2374 14.713 96.9756 14.874C96.7417 15.0217 96.5399 15.1536 96.3711 15.2725C96.2272 15.3827 96.0515 15.4454 95.8701 15.4512C95.749 15.4535 95.6298 15.4178 95.5303 15.3486C95.4352 15.2826 95.3566 15.1956 95.2998 15.0947L94.9551 14.4805C95.5164 13.9257 96.1782 13.4829 96.9053 13.1758C97.6419 12.8806 98.4285 12.7339 99.2217 12.7441ZM121.236 12.7607C121.897 12.7504 122.554 12.8659 123.171 13.1006C123.721 13.3133 124.225 13.63 124.653 14.0332L124.224 14.7383C124.188 14.8121 124.13 14.8741 124.06 14.916C123.989 14.9581 123.907 14.9783 123.824 14.9746C123.695 14.9677 123.569 14.9269 123.459 14.8564C123.323 14.7778 123.155 14.6896 122.957 14.5928C122.73 14.4837 122.494 14.3935 122.251 14.3232C121.936 14.2346 121.609 14.1922 121.281 14.1982C120.986 14.1943 120.691 14.2367 120.408 14.3232C120.17 14.3958 119.945 14.5112 119.746 14.6631C119.572 14.7975 119.428 14.9686 119.325 15.1641C119.228 15.3559 119.179 15.5682 119.18 15.7832C119.171 16.0384 119.259 16.2874 119.423 16.4824C119.603 16.6839 119.821 16.8487 120.063 16.9678C120.355 17.1145 120.657 17.2363 120.969 17.3301C121.306 17.4343 121.654 17.5448 122.009 17.6631C122.365 17.7814 122.711 17.9128 123.049 18.0566C123.375 18.1932 123.68 18.3748 123.954 18.5957C124.221 18.8122 124.439 19.0828 124.595 19.3887C124.765 19.7391 124.848 20.1254 124.837 20.5146C124.842 20.9929 124.75 21.4672 124.566 21.9092C124.389 22.335 124.117 22.7146 123.77 23.0195C123.391 23.3476 122.951 23.5991 122.476 23.7588C121.907 23.9475 121.309 24.0386 120.709 24.0283C120.002 24.0383 119.3 23.912 118.64 23.6562C118.063 23.4338 117.531 23.1104 117.066 22.7021L117.52 21.9697C117.57 21.883 117.64 21.809 117.724 21.7539C117.82 21.7001 117.928 21.6738 118.036 21.6787C118.186 21.6854 118.329 21.7379 118.446 21.8291C118.589 21.9302 118.764 22.0416 118.969 22.1631C119.205 22.2991 119.454 22.4112 119.712 22.4971C120.066 22.607 120.435 22.6576 120.806 22.6475C121.139 22.6538 121.471 22.6049 121.786 22.502C122.044 22.4183 122.282 22.2844 122.487 22.1084C122.668 21.9507 122.809 21.754 122.901 21.5332C122.991 21.3146 123.038 21.0802 123.036 20.8438C123.047 20.5733 122.961 20.3078 122.793 20.0947C122.616 19.8842 122.398 19.7113 122.152 19.5869C121.861 19.4368 121.556 19.3146 121.241 19.2217C120.9 19.1168 120.551 19.0071 120.196 18.8926C119.842 18.7782 119.494 18.6467 119.151 18.499C118.822 18.3595 118.515 18.172 118.239 17.9434C117.971 17.7168 117.752 17.4357 117.599 17.1191C117.428 16.7464 117.346 16.3387 117.357 15.9287C117.357 15.5144 117.446 15.1048 117.616 14.7275C117.792 14.3391 118.049 13.9928 118.37 13.7139C118.729 13.4072 119.141 13.1714 119.587 13.0195C120.118 12.8389 120.676 12.7515 121.236 12.7607ZM76.957 12.7666C77.5758 12.7604 78.1906 12.8721 78.7676 13.0957C79.3073 13.3056 79.7958 13.6286 80.2002 14.043C80.619 14.4826 80.9407 15.006 81.1436 15.5781C81.3798 16.2439 81.4951 16.947 81.4834 17.6533C81.502 17.8592 81.4692 18.0669 81.3877 18.2568C81.3449 18.3116 81.2878 18.3543 81.2236 18.3809C81.1596 18.4072 81.0893 18.4166 81.0205 18.4082H73.7578C73.7596 19.0187 73.8532 19.6259 74.0371 20.208C74.1868 20.6767 74.4291 21.1106 74.749 21.4844C75.0433 21.8211 75.4127 22.0842 75.8271 22.252C76.2734 22.4264 76.7495 22.5121 77.2285 22.5049C77.6503 22.5138 78.0712 22.4571 78.4756 22.3369C78.7849 22.2417 79.0865 22.1213 79.376 21.9766C79.5924 21.8672 79.803 21.7466 80.0068 21.6152C80.1335 21.5191 80.285 21.4611 80.4434 21.4482C80.5147 21.4452 80.5856 21.4603 80.6494 21.4922C80.7133 21.5243 80.7683 21.5719 80.8086 21.6309L81.3477 22.3301C81.1048 22.6229 80.8176 22.8766 80.4961 23.0801C80.1633 23.2935 79.8075 23.4687 79.4355 23.6025C79.0555 23.7401 78.6632 23.8428 78.2646 23.9102C77.8695 23.9773 77.4692 24.0111 77.0684 24.0117C76.3555 24.0191 75.648 23.8886 74.9844 23.6279C74.359 23.3799 73.7956 22.9973 73.335 22.5068C72.8511 21.9814 72.482 21.3608 72.252 20.6846C71.982 19.8794 71.8521 19.0337 71.8682 18.1846C71.8622 17.4586 71.9814 16.7366 72.2197 16.0508C72.4373 15.4167 72.7796 14.8325 73.2266 14.333C73.6738 13.8415 74.2221 13.4517 74.833 13.1904C75.5041 12.9038 76.2274 12.7595 76.957 12.7666ZM107.932 14.5117C108.37 13.9989 108.898 13.5694 109.49 13.2451C110.11 12.9168 110.802 12.7517 111.504 12.7656C112.094 12.7569 112.679 12.8786 113.217 13.1211C113.732 13.3624 114.18 13.7269 114.521 14.1826C114.906 14.7062 115.188 15.2987 115.351 15.9277C115.555 16.7104 115.652 17.5174 115.639 18.3262C115.644 19.0869 115.536 19.8441 115.316 20.5723C115.121 21.2252 114.804 21.8359 114.384 22.3721C113.97 22.8925 113.443 23.3109 112.843 23.5938C112.241 23.8766 111.583 24.0167 110.919 24.0029C110.296 24.0222 109.676 23.8806 109.124 23.5928C108.619 23.3079 108.179 22.9182 107.837 22.4502L107.741 23.4414C107.728 23.5607 107.668 23.6706 107.576 23.7471C107.483 23.8235 107.364 23.8613 107.245 23.8516L106.004 23.8574V7.98145H107.932V14.5117ZM30.9873 8.41406C31.1499 8.4061 31.3105 8.45489 31.4404 8.55273C31.5558 8.64719 31.6448 8.77033 31.6992 8.90918L36.0635 19.8037C36.1693 20.064 36.2611 20.3302 36.3379 20.6006C36.4204 20.8884 36.5014 21.1872 36.5801 21.4961C36.6441 21.1872 36.7143 20.8884 36.791 20.6006C36.861 20.3295 36.949 20.0631 37.0547 19.8037L41.3975 8.90918C41.4556 8.77709 41.5443 8.66035 41.6562 8.56934C41.7827 8.4639 41.9439 8.40872 42.1084 8.41406H43.79L37.4961 23.8574H35.6094L29.3164 8.41406H30.9873ZM57.2705 23.8574H55.3516V7.98145H57.2705V23.8574ZM86.3203 22.0986H93.0029V23.8555H84.2305V8.41113H86.3213L86.3203 22.0986ZM50.335 18.9658C49.5806 18.9557 48.8263 19.0124 48.082 19.1348C47.5625 19.2177 47.0551 19.3653 46.5723 19.5742C46.2406 19.7113 45.9498 19.9312 45.7275 20.2129C45.5533 20.452 45.4609 20.7412 45.4639 21.0371C45.4574 21.2934 45.5044 21.5484 45.6025 21.7852C45.6875 21.9832 45.8168 22.1595 45.9805 22.2998C46.1438 22.4369 46.3353 22.5365 46.541 22.5928C46.7695 22.6546 47.0054 22.6849 47.2422 22.6816C47.5543 22.6847 47.8659 22.6493 48.1699 22.5781C48.4438 22.5133 48.7094 22.4173 48.9609 22.291C49.2127 22.163 49.4511 22.0092 49.6719 21.833C49.9073 21.6447 50.1292 21.4401 50.335 21.2197V18.9658ZM101.14 18.9658C100.386 18.9557 99.6311 19.0124 98.8867 19.1348C98.3679 19.2177 97.8604 19.3654 97.3779 19.5742C97.0462 19.7114 96.7547 19.9313 96.5322 20.2129C96.3586 20.4521 96.2657 20.7413 96.2686 21.0371C96.2619 21.2935 96.3094 21.5484 96.4072 21.7852C96.4926 21.9831 96.6221 22.1594 96.7852 22.2998C96.9492 22.4368 97.1405 22.5365 97.3457 22.5928C97.574 22.6546 97.81 22.684 98.0469 22.6807C98.3595 22.6837 98.6706 22.6493 98.9746 22.5781C99.2488 22.5133 99.5145 22.4173 99.7656 22.291C100.018 22.1631 100.256 22.0093 100.477 21.833C100.712 21.6446 100.934 21.4391 101.14 21.2188V18.9658ZM110.875 14.2988C110.298 14.2863 109.727 14.4355 109.231 14.7295C108.725 15.0501 108.285 15.464 107.933 15.9482V21.2236C108.223 21.6511 108.62 21.9968 109.084 22.2266C109.526 22.424 110.007 22.5216 110.491 22.5137C110.941 22.5378 111.391 22.4516 111.801 22.2617C112.21 22.0717 112.566 21.7836 112.84 21.4238C113.44 20.5052 113.728 19.4168 113.659 18.3213C113.668 17.7053 113.603 17.0901 113.467 16.4893C113.367 16.0397 113.183 15.6132 112.923 15.2334C112.702 14.9197 112.4 14.6718 112.05 14.5166C111.678 14.3627 111.277 14.2878 110.875 14.2969V14.2988ZM77.001 14.1787C76.601 14.1567 76.2003 14.2166 75.8242 14.3545C75.448 14.4925 75.1034 14.7059 74.8125 14.9814C74.2452 15.5933 73.8965 16.376 73.8213 17.207H79.7588C79.7638 16.7921 79.7018 16.379 79.5762 15.9834C79.4631 15.6306 79.2797 15.3035 79.0371 15.0234C78.7994 14.7539 78.5043 14.5409 78.1738 14.3994C77.8019 14.246 77.4023 14.1708 77 14.1787H77.001ZM6.04004 10.1318C5.90011 10.3627 5.70302 10.554 5.46777 10.6865C5.23258 10.8189 4.96719 10.8887 4.69727 10.8887C4.42733 10.8887 4.16196 10.8189 3.92676 10.6865C3.69152 10.554 3.49442 10.3627 3.35449 10.1318L0.560547 5.41699C0.292693 4.95279 0.153222 4.42558 0.15625 3.88965C0.159337 3.35354 0.304832 2.82744 0.578125 2.36621C0.851482 1.90502 1.24313 1.52476 1.71191 1.26465C2.18084 1.00453 2.71096 0.873499 3.24707 0.885742H11.5186L6.04004 10.1318Z" fill="url(#paint0_linear_32727_81137)"/>
<defs>
<linearGradient id="paint0_linear_32727_81137" x1="63.083" y1="0.884766" x2="63.083" y2="39.2067" gradientUnits="userSpaceOnUse">
<stop stop-color="white"/>
<stop offset="1" stop-color="white" stop-opacity="0.6"/>
</linearGradient>
</defs>
</svg>
