<svg width="98" height="34" viewBox="0 0 98 34" fill="none" xmlns="http://www.w3.org/2000/svg">
<path d="M19.7213 1.9262L18.061 11.3381H12.2978C6.921 11.3381 1.79608 15.6927 0.846198 21.0673L0.444129 23.355C-0.501303 28.7298 3.0862 33.0844 8.46286 33.0844H13.2698C17.1885 33.0844 20.9217 29.9134 21.611 25.9962L26.0379 0.911133L19.7213 1.9262ZM15.6319 25.1084C15.4199 26.3185 14.3301 27.3034 13.1196 27.3034H10.1992C7.78251 27.3034 6.16549 25.3425 6.58964 22.9222L6.84153 21.4958C7.27 19.08 9.57626 17.1148 11.9928 17.1148H17.0421L15.6319 25.1084ZM64.1063 33.084L67.8881 11.6379H73.8701L70.0883 33.084H64.1063ZM64.7534 11.8852C64.4535 13.5863 64.1523 15.2874 63.8525 16.9885C61.0185 16.1081 58.0945 16.3884 57.1962 16.5676C56.2261 22.0743 55.2547 27.5825 54.2833 33.0893H48.2973C49.1101 28.4816 51.8873 12.7458 51.8873 12.7458C53.8342 11.9399 58.6152 10.3043 64.7534 11.8852ZM40.499 11.3345H35.8426C31.3052 11.3345 26.9801 15.009 26.1803 19.5445L25.2393 24.8751C24.4396 29.4107 27.4661 33.0852 32.0035 33.0852H41.9086L42.9248 27.3218H33.6158C32.1049 27.3218 31.0932 26.0984 31.3627 24.5836L31.3937 24.4026H46.4017L47.2587 19.5445C48.0583 15.009 45.0321 11.3345 40.4947 11.3345H40.499ZM41.2545 19.0853L41.2192 19.3944H32.2949L32.3436 19.1206C32.613 17.6101 33.9914 16.2808 35.5066 16.2808H38.9926C40.4904 16.2808 41.5021 17.5881 41.2545 19.0853ZM91.2241 11.6379H97.2104C95.1713 17.0576 90.4978 26.2767 85.9708 33.084H79.9845C77.9066 26.6051 76.5647 17.578 76.3087 11.6379H82.2953C82.4033 13.5757 83.271 20.7627 84.2613 25.7835C86.9774 20.899 89.9719 14.4903 91.2195 11.6379H91.2241Z" fill="url(#paint0_linear_32727_81324)"/>
<defs>
<linearGradient id="paint0_linear_32727_81324" x1="48.8157" y1="0.911133" x2="48.8157" y2="33.1673" gradientUnits="userSpaceOnUse">
<stop stop-color="white"/>
<stop offset="1" stop-color="white" stop-opacity="0.6"/>
</linearGradient>
</defs>
</svg>
