<svg width="146" height="36" viewBox="0 0 146 36" fill="none" xmlns="http://www.w3.org/2000/svg">
<path d="M18.4873 0.115723C23.1548 0.119062 27.6367 1.94609 30.9756 5.20752C34.3145 8.46895 36.2465 12.9067 36.3594 17.5728C36.4105 22.2791 34.6283 26.8207 31.3906 30.2368C28.1529 33.653 23.7131 35.6763 19.0107 35.8774C15.1457 35.9898 11.3485 34.8438 8.19043 32.6128C8.0848 32.5313 7.9524 32.4916 7.81934 32.5015C7.68616 32.5115 7.56111 32.571 7.46875 32.6675L4.99805 35.1372C4.50105 35.5607 3.86238 35.7814 3.20996 35.7554C2.55775 35.7293 1.93912 35.4591 1.47754 34.9976C1.01584 34.5359 0.744769 33.9166 0.71875 33.2642C0.692826 32.612 0.91368 31.9739 1.33691 31.4771L3.80762 29.0239C3.90678 28.9339 3.9691 28.8105 3.98242 28.6772C3.99571 28.5441 3.95913 28.411 3.87988 28.3032C1.73188 25.3005 0.583506 21.6973 0.597656 18.0054V17.9878C0.597655 15.6393 1.0607 13.3135 1.95996 11.144C2.85921 8.97462 4.17746 7.00399 5.83887 5.34424C7.50026 3.68453 9.4723 2.36826 11.6426 1.47119C13.8129 0.57414 16.1389 0.113376 18.4873 0.115723ZM21.0908 4.9165C18.5023 4.40165 15.8192 4.66632 13.3809 5.67627C10.9424 6.68632 8.85798 8.39674 7.3916 10.5913C5.92523 12.7859 5.14259 15.366 5.14258 18.0054C5.14258 25.3632 11.5984 31.35 18.4873 31.3501C21.1267 31.3501 23.7068 30.5675 25.9014 29.1011C28.0958 27.6348 29.8063 25.5511 30.8164 23.1128C31.8265 20.6743 32.0911 17.9906 31.5762 15.4019C31.0612 12.8132 29.7902 10.4352 27.9238 8.56885C26.0575 6.70256 23.6795 5.43142 21.0908 4.9165ZM71.29 12.7573C75.6001 12.7573 78.1791 15.4443 78.1973 19.9526C78.1973 20.3494 78.1606 20.7826 78.1426 20.981V21.1978H68.333C68.4595 22.8747 69.8838 24.1187 71.6689 24.1187C73.1837 24.1186 74.2113 23.4335 74.6982 22.0991L74.7344 22.0093L78.0166 22.9829L77.9805 23.0913C77.3491 25.2192 75.3475 27.5093 71.6328 27.5093C69.7644 27.5304 67.9608 26.8256 66.6016 25.5435C65.177 24.191 64.4376 22.2976 64.4375 20.0796C64.4177 19.0986 64.5921 18.1226 64.9512 17.2095C65.3102 16.2965 65.8467 15.4639 66.5293 14.7593C67.15 14.126 67.8906 13.6225 68.708 13.2788C69.5254 12.9351 70.4033 12.7579 71.29 12.7573ZM127.809 12.7573C132.119 12.7573 134.698 15.4444 134.716 19.9526C134.716 20.3494 134.679 20.7826 134.661 20.981V21.1978H124.851C124.977 22.8747 126.402 24.1187 128.188 24.1187C129.702 24.1186 130.73 23.4335 131.217 22.0991L131.253 22.0093L134.535 22.9829L134.499 23.0913C133.868 25.2192 131.866 27.5092 128.151 27.5093C126.289 27.5258 124.492 26.8213 123.138 25.5435C121.713 24.191 120.974 22.2976 120.974 20.0796C120.951 19.1 121.124 18.1254 121.479 17.2124C121.835 16.2994 122.368 15.4655 123.048 14.7593C123.669 14.126 124.409 13.6225 125.227 13.2788C126.044 12.9351 126.922 12.7579 127.809 12.7573ZM142.921 13.2808H145.626V16.7065H142.957V22.2251C142.957 23.271 143.372 23.6859 144.436 23.686C144.796 23.686 145.157 23.6497 145.518 23.5776L145.645 23.5415V26.9858L145.572 27.0044C145.266 27.1306 144.58 27.3472 143.426 27.3472C140.667 27.3471 138.953 25.6695 138.953 23.0005V16.7251H136.429V13.2983H137.24C138.539 13.2983 139.314 12.5226 139.314 11.2603V9.13232H142.921V13.2808ZM49.2705 15.0835H57.5664V7.14893H61.7139V27.1665H57.5664V19.0513H49.2705V27.1665H45.2852V7.14893H49.2705V15.0835ZM96.9521 12.8472C98.3227 12.8472 99.5495 13.2983 100.451 14.1099C101.461 15.0476 102.002 16.4363 102.002 18.1675V27.1665H98.2148V18.9253C98.2148 17.9876 97.9083 16.4362 95.9248 16.436C94.5182 16.436 93.5264 17.5008 93.5264 19.0337V27.1665H89.7393V18.9253C89.7393 17.3383 88.8728 16.436 87.376 16.436C85.8794 16.4362 84.8701 17.4829 84.8701 19.0337V27.1489H80.9023V13.2622H84.6895V14.6509C85.1663 14.0827 85.7625 13.6266 86.4355 13.3149C87.1088 13.0032 87.8431 12.8431 88.585 12.8472C90.4423 12.8472 91.9212 13.6412 92.6426 15.0298C93.1037 14.3173 93.7457 13.7403 94.5029 13.3569C95.26 12.9736 96.105 12.7972 96.9521 12.8472ZM113.291 12.8833C116.393 12.8833 118.305 14.994 118.305 18.4204V27.1665H114.337V19.0688C114.337 17.3921 113.453 16.4361 111.921 16.436C110.46 16.436 109.468 17.5363 109.468 19.1772V27.1665H105.501V13.2808H109.468V14.7056C110.424 13.3711 112.029 12.8834 113.291 12.8833ZM18.3359 8.6958C18.4479 8.69584 18.5576 8.72832 18.6514 8.78955L25.9375 13.7134C26.0815 13.8216 26.1719 14.002 26.1719 14.1821V23.9019L26.1895 23.9204C26.1713 24.2268 25.9372 24.4607 25.6309 24.4429H21.1396C20.9964 24.4428 20.8592 24.386 20.7578 24.2847C20.6564 24.1832 20.5986 24.0453 20.5986 23.9019V19.2495C20.5986 18.943 20.3466 18.69 20.04 18.6899H16.6494C16.3429 18.69 16.0908 18.943 16.0908 19.2495V23.9019C16.0908 24.2084 15.8378 24.4614 15.5312 24.4614H11.0586C10.7522 24.4612 10.5 24.2083 10.5 23.9019V14.1821C10.5 13.9839 10.5902 13.8216 10.7344 13.7134L18.0205 8.78955C18.1143 8.72839 18.224 8.6958 18.3359 8.6958ZM71.3447 16.022C70.6312 15.9974 69.933 16.2381 69.3867 16.6978C68.8407 17.1574 68.4844 17.8032 68.3867 18.5103H74.3018C74.2116 17.284 73.3822 16.0222 71.3447 16.022ZM127.791 16.022C127.077 15.9974 126.379 16.2381 125.833 16.6978C125.287 17.1574 124.931 17.8032 124.833 18.5103H130.748C130.658 17.284 129.829 16.0222 127.791 16.022Z" fill="url(#paint0_linear_32727_81208)"/>
<defs>
<linearGradient id="paint0_linear_32727_81208" x1="135.559" y1="0.115723" x2="135.559" y2="24.9245" gradientUnits="userSpaceOnUse">
<stop stop-color="white"/>
<stop offset="1" stop-color="white" stop-opacity="0.6"/>
</linearGradient>
</defs>
</svg>
