<svg width="163" height="30" viewBox="0 0 163 30" fill="none" xmlns="http://www.w3.org/2000/svg">
<path d="M30.3066 15.564C29.9889 23.267 23.8102 29.4405 16.1221 29.7495V28.1694C22.9572 27.8602 28.4183 22.3991 28.7275 15.564H30.3066ZM16.1455 0.262207C23.8395 0.554296 30.0225 6.73716 30.3145 14.4312H28.7344C28.4252 7.16643 22.2936 1.51557 15.0117 1.82471C7.74702 2.13387 2.09711 8.28266 2.40625 15.5474C2.69838 22.3826 8.17649 27.8608 15.0117 28.1528V29.7329C6.87128 29.4238 0.533888 22.5715 0.842773 14.4312C1.15191 6.29054 8.0049 -0.04693 16.1455 0.262207ZM67.6152 9.021C71.7026 9.02101 75.6357 9.91419 75.6357 14.7915V22.3315C75.6357 23.7912 75.636 25.388 76.3057 26.7446H70.6377C70.466 26.2125 70.3459 25.6803 70.3115 25.1138C68.8517 26.6422 66.6872 27.2427 64.6436 27.2427C61.3636 27.2425 58.7707 25.5771 58.7705 22.0396C58.7705 16.4407 64.8675 16.8702 68.7832 16.063C69.7449 15.8569 70.2773 15.5301 70.2773 14.4653C70.2773 13.1773 68.7141 12.6792 67.5635 12.6792C66.0007 12.6792 65.0047 13.3835 64.7471 14.8433H59.457C59.5601 12.5934 60.6254 11.1334 62.1367 10.2231C63.6652 9.36452 65.6575 9.021 67.6152 9.021ZM146.308 9.021C150.395 9.021 154.328 9.91415 154.328 14.7915V22.3315C154.328 23.7912 154.328 25.388 154.998 26.7446H149.33C149.158 26.2125 149.038 25.6803 149.004 25.1138C147.544 26.642 145.38 27.2426 143.337 27.2427C140.057 27.2427 137.463 25.5772 137.463 22.0396C137.463 16.4408 143.56 16.8702 147.476 16.063C148.437 15.8569 148.97 15.5301 148.97 14.4653C148.97 13.1773 147.407 12.6792 146.256 12.6792C144.693 12.6793 143.697 13.3835 143.439 14.8433H138.15C138.253 12.5934 139.318 11.1334 140.829 10.2231C142.358 9.36447 144.35 9.021 146.308 9.021ZM27.5186 15.5464C27.2094 21.7118 22.2806 26.6242 16.1152 26.9507V25.3706C21.4047 25.0613 25.6122 20.8359 25.9385 15.5464H27.5186ZM3.61914 14.4302C3.92831 7.83528 9.52717 2.7519 16.1221 3.06104C22.2875 3.33596 27.2168 8.26472 27.5088 14.4302H25.9287C25.6196 8.71129 20.7247 4.31463 15.0059 4.62354C9.28687 4.93267 4.89017 9.82742 5.19922 15.5464C5.49118 20.8361 9.71618 25.0782 15.0059 25.353V26.9331C8.41093 26.624 3.31 21.0251 3.61914 14.4302ZM99.1475 9.03857C104.626 9.03875 105.21 13.1777 105.21 16.4751V26.7622H99.5762V16.6294C99.5762 14.7746 98.6834 13.6753 97.2236 13.6753C94.8022 13.6753 94.5615 15.53 94.5615 18.312V26.7446H88.9287V16.9556C88.9287 14.929 88.3273 13.6753 86.7988 13.6753C84.7723 13.6753 83.9131 14.8436 83.9131 18.3472V26.7446H78.2803L78.2627 9.53662H83.7422V11.8892H83.8105C84.841 10.1202 86.7131 9.03857 88.7568 9.03857C90.9207 9.03861 92.8441 9.74277 93.7715 11.8208C95.1283 10.0003 96.8289 9.03857 99.1475 9.03857ZM113.729 26.7622H108.095V9.53662H113.729V26.7622ZM127.536 9.21045C127.983 9.21045 128.429 9.24417 128.858 9.34717V14.4829C128.154 14.2768 127.433 14.1558 126.694 14.1558C123.912 14.1559 122.452 16.0798 122.452 18.2437V26.7622H116.819V9.53662H122.298V12.5591H122.367C123.192 10.3608 125.115 9.21047 127.536 9.21045ZM135.488 26.7622H129.854V9.53662H135.488V26.7622ZM50.9385 17.6597H51.0078V3.06201H56.8125V26.7446H50.4756L42.249 11.9751H42.1797V26.7446H36.375V3.06201H42.7129L50.9385 17.6597ZM162.795 26.7446H157.162V3.06201H162.795V26.7446ZM24.7402 15.5474C24.4654 20.1844 20.7728 23.8771 16.1357 24.1519V22.5718C19.8969 22.297 22.8853 19.3085 23.1602 15.5474H24.7402ZM16.166 5.84326C20.7515 6.11805 24.4443 9.81036 24.7363 14.4302H23.1562C22.847 10.257 19.2063 7.11444 15.0332 7.42334C10.8599 7.73247 7.71642 11.3732 8.02539 15.5464C8.30018 19.3075 11.2887 22.2794 15.0498 22.5542V24.1343C10.0006 23.8251 6.15376 19.4794 6.46289 14.4302C6.7721 9.3811 11.1169 5.53428 16.166 5.84326ZM70.208 18.6733C69.4179 19.1712 67.958 19.2738 66.7217 19.6001C65.4681 19.8921 64.4033 20.4251 64.4033 21.7817C64.4034 23.1899 65.5032 23.7563 66.7568 23.7563C69.4356 23.7562 70.3453 22.228 70.208 18.6733ZM148.901 18.6733C148.111 19.1713 146.651 19.2739 145.415 19.6001C144.161 19.8921 143.096 20.425 143.096 21.7817C143.096 23.1899 144.196 23.7563 145.449 23.7563C148.128 23.7563 149.039 22.2281 148.901 18.6733ZM21.9297 15.5483C21.6547 18.6223 19.1991 21.0611 16.125 21.353V19.7729C18.3403 19.5154 20.0918 17.7636 20.3496 15.5483H21.9297ZM9.23242 14.4312C9.54154 10.9278 12.6324 8.3342 16.1357 8.64307C19.2271 8.91786 21.6666 11.357 21.9414 14.4312H20.3613C20.0522 11.8035 17.6647 9.91406 15.0371 10.2231C12.4094 10.5323 10.52 12.9197 10.8291 15.5474C11.0867 17.7457 12.8216 19.4978 15.0371 19.7554V21.3354C11.5164 21.0435 8.92336 17.9518 9.23242 14.4312ZM15.5771 11.9751C17.2465 11.9751 18.6006 13.3282 18.6006 14.9976C18.6005 16.6669 17.2465 18.02 15.5771 18.02C13.908 18.0198 12.5548 16.6668 12.5547 14.9976C12.5547 13.3283 13.9079 11.9753 15.5771 11.9751ZM113.729 7.37256H108.095V3.06201H113.729V7.37256ZM135.505 7.37256H129.872V3.06201H135.505V7.37256Z" fill="url(#paint0_linear_32727_81269)"/>
<defs>
<linearGradient id="paint0_linear_32727_81269" x1="81.9205" y1="0.251465" x2="81.9205" y2="29.8211" gradientUnits="userSpaceOnUse">
<stop stop-color="white"/>
<stop offset="1" stop-color="white" stop-opacity="0.6"/>
</linearGradient>
</defs>
</svg>
