<svg width="101" height="36" viewBox="0 0 101 36" fill="none" xmlns="http://www.w3.org/2000/svg">
<path d="M80.5439 8.27783H87.2705V11.1782H84.3389L88.6816 25.5747L93.7842 11.1782H90.8525V8.27783H100.08V11.1782H97.584L90.9609 29.7651C89.2239 34.3854 86.1839 35.5669 81.4072 35.5669H80.5391V32.6665H81.4072C84.1211 32.6665 86.4019 32.1287 87.3789 29.4429L88.3555 26.7573H85.5332L80.5391 11.1782V11.1763H77.5039V8.27588H80.5439V8.27783ZM49.0596 21.062C49.0596 23.1033 49.8191 24.393 51.9902 24.3931C54.2697 24.3931 56.3325 23.4263 57.9609 22.0298V11.1782H54.7041V8.27783H61.7607V23.856H67.8408V11.1782H64.8008V8.27783H71.3145V11.6079C72.5088 9.78162 74.3543 8.27784 77.5029 8.27783V11.1782C74.7886 11.1782 72.7266 12.5757 71.5322 13.9722L71.5332 23.856H76.2002V26.7573H58.1787V24.3931C56.2249 26.2195 53.7271 27.2944 50.9043 27.2944C47.539 27.2943 45.3682 25.3602 45.3682 21.3853V11.1782H42.3281V8.27783H49.0596V21.062ZM28.207 9.56592C29.7266 8.59909 31.5728 7.84619 33.8525 7.84619C39.0632 7.84642 41.9941 11.5 41.9941 17.1938C41.994 22.8875 39.0631 27.2922 33.8525 27.2925C31.6809 27.2925 29.7266 26.3256 28.207 25.144V26.8628H24.5156V3.3335H21.5898V6.34229H18.6592V3.3335H7.80273V11.1763H18.5508V14.1851H7.80273V23.855H18.6592V20.9536H21.5898V26.8628H0.746094V23.855H4.00293V3.3335H0.746094V0.433105H28.207V9.56592ZM32.9834 10.6392C31.1376 10.6392 29.5093 11.392 28.207 12.2515V22.2427C29.7265 23.5319 31.789 24.392 33.0918 24.3921C37.1084 24.3921 38.1943 20.8468 38.1943 17.1938C38.1943 13.5408 36.6747 10.6392 32.9834 10.6392Z" fill="url(#paint0_linear_32727_80715)"/>
<defs>
<linearGradient id="paint0_linear_32727_80715" x1="50.4787" y1="0.433106" x2="50.4787" y2="35.6521" gradientUnits="userSpaceOnUse">
<stop stop-color="white"/>
<stop offset="1" stop-color="white" stop-opacity="0.6"/>
</linearGradient>
</defs>
</svg>
