<svg width="123" height="34" viewBox="0 0 123 34" fill="none" xmlns="http://www.w3.org/2000/svg">
<path d="M63.4219 14.8901C67.1148 14.8901 70.2244 17.8702 70.2246 22.23C70.2246 26.6172 67.1149 29.5728 63.4219 29.5728C61.6173 29.5727 60.1739 29.0207 59.0908 28.0542V33.1499H54.6484V15.3032H59.0908V16.4067C60.1739 15.4414 61.6173 14.8902 63.4219 14.8901ZM80.1484 14.8901C83.841 14.8901 86.951 17.8702 86.9512 22.23C86.9512 26.6172 83.8411 29.5728 80.1484 29.5728C78.3438 29.5727 76.9005 29.0207 75.8174 28.0542V33.1499H71.375V15.3032H75.8174V16.4067C76.9005 15.4414 78.3438 14.8902 80.1484 14.8901ZM94.8926 14.8901C96.697 14.8902 98.1409 15.4413 99.2236 16.4067V15.3032H103.666V29.1577H99.2236V28.0542C98.1409 29.0208 96.697 29.5727 94.8926 29.5728C91.1999 29.5728 88.0898 26.6184 88.0898 22.23C88.0901 17.8702 91.2001 14.8901 94.8926 14.8901ZM45.8281 14.8901C49.9646 14.8901 53.4639 17.8162 53.4639 22.1763C53.4638 26.5646 49.9646 29.4897 45.8281 29.4897C41.6073 29.4896 38.1095 26.5645 38.1094 22.1763C38.1094 17.8163 41.6073 14.8903 45.8281 14.8901ZM6.63574 22.6772L9.27441 15.2251H12.4111L15.0488 22.7046L17.3262 15.2251H21.6846L17.2139 29.1079H13.3545L10.8564 21.6001L8.33008 29.1079H4.4707L0 15.2251H4.3584L6.63574 22.6772ZM27.3379 16.519C28.4198 15.4152 29.8644 14.7798 31.6406 14.7798C34.8616 14.7798 37.0284 17.0712 37.0225 20.5483V29.0503H32.6074V21.4868C32.6074 19.8581 31.6349 18.7534 30.1914 18.7534C28.4757 18.7534 27.3379 19.9405 27.3379 22.6187V29.0483H22.8945V9.87646H27.3379V16.519ZM109.413 16.519C110.496 15.4152 111.934 14.7799 113.717 14.7798C116.937 14.7798 119.104 17.0712 119.095 20.5483V29.0503H114.681V21.4868C114.681 19.8582 113.709 18.7535 112.265 18.7534C110.549 18.7534 109.411 19.9405 109.411 22.6187V29.0483H104.969V9.87646H109.413V16.519ZM62.5088 18.6431C60.7041 18.6431 59.094 20.1029 59.0938 22.23C59.0938 24.3834 60.7039 25.8188 62.5088 25.8188C64.4492 25.8188 65.8655 24.3835 65.8691 22.23C65.8689 20.1052 64.4526 18.6431 62.5088 18.6431ZM79.2305 18.6431C77.4258 18.6432 75.8147 20.1029 75.8145 22.23C75.8145 24.3834 77.4256 25.8188 79.2305 25.8188C81.1755 25.8188 82.5923 24.3835 82.5898 22.23C82.5896 20.1052 81.173 18.6431 79.2305 18.6431ZM95.8096 18.6431C93.8653 18.6431 92.4484 20.1028 92.4482 22.23C92.4482 24.3835 93.8651 25.8188 95.8096 25.8188C97.6126 25.8188 99.2236 24.3834 99.2236 22.23C99.2234 20.1052 97.6125 18.6431 95.8096 18.6431ZM45.8281 18.5874C44.0186 18.5875 42.3799 20.0232 42.3799 22.1753C42.3801 24.3556 44.0234 25.763 45.8281 25.7632V25.7642C47.5497 25.7642 49.1883 24.3581 49.1885 22.1753C49.1885 20.0231 47.5498 18.5874 45.8281 18.5874ZM120.896 10.0796C121.908 10.0796 122.737 10.8523 122.737 11.9292C122.737 12.9971 121.908 13.771 120.896 13.771C119.883 13.7709 119.055 12.997 119.055 11.9292C119.055 10.8524 119.883 10.0797 120.896 10.0796ZM120.896 10.4292C120.095 10.4293 119.432 11.0641 119.432 11.9292C119.432 12.7761 120.095 13.4115 120.896 13.4116C121.705 13.4116 122.368 12.7762 122.368 11.9292C122.368 11.064 121.705 10.4292 120.896 10.4292ZM121.007 11.0269C121.421 11.027 121.697 11.2481 121.697 11.5884C121.697 11.8553 121.53 12.0583 121.264 12.1411L121.789 12.7212H121.347L120.868 12.1782H120.592V12.7212H120.224V11.0269H121.007ZM120.592 11.8462H121.007C121.2 11.846 121.328 11.7452 121.328 11.5981C121.328 11.451 121.2 11.359 121.007 11.3589H120.592V11.8462ZM70.7754 3.93311C71.1013 3.93853 71.4121 4.06934 71.6426 4.29834C71.8732 4.52755 72.0053 4.83752 72.0107 5.16162C72.016 5.48557 71.8946 5.79907 71.6719 6.03564L71.6543 6.05127L71.6338 6.07373C71.5878 6.1171 71.5381 6.15678 71.4854 6.19189L66.6943 10.3657C66.5353 10.5029 66.3296 10.5752 66.1191 10.5679C65.9087 10.5604 65.7085 10.4738 65.5596 10.3257C65.4109 10.1776 65.3247 9.97905 65.3174 9.77002C65.31 9.56083 65.3825 9.35672 65.5205 9.19873L69.8848 4.25928L69.8955 4.27002C70.1336 4.04855 70.4493 3.92772 70.7754 3.93311ZM53.7715 3.92432C54.0973 3.91903 54.4124 4.04002 54.6504 4.26123L54.6621 4.25049L59.0234 9.19873C59.1625 9.35657 59.2364 9.56129 59.2295 9.771C59.2225 9.9807 59.1354 10.1802 58.9863 10.3286C58.8362 10.475 58.636 10.5594 58.4258 10.5649C58.2154 10.5704 58.0102 10.4965 57.8525 10.3579L53.0615 6.18311C53.0094 6.14765 52.96 6.10808 52.9141 6.06494C52.9058 6.05787 52.8997 6.04956 52.8926 6.04248L52.874 6.02783C52.6512 5.79115 52.5297 5.47694 52.5352 5.15283C52.5406 4.82886 52.6728 4.51967 52.9033 4.29053C53.1339 4.06132 53.4454 3.92969 53.7715 3.92432ZM62.3115 0.850098C62.6355 0.850186 62.9467 0.974995 63.1807 1.19775C63.4148 1.4206 63.5533 1.72446 63.5674 2.04639V2.1001C63.5667 2.16424 63.5611 2.22917 63.5508 2.29248L63.1328 8.61182C63.1189 8.82164 63.0247 9.01807 62.8701 9.16162C62.7156 9.30511 62.5122 9.3847 62.3008 9.38428C62.0892 9.38476 61.8851 9.30519 61.7305 9.16162C61.576 9.01808 61.4817 8.82158 61.4678 8.61182L61.0391 2.04639H61.0547C61.0688 1.72452 61.2074 1.42059 61.4414 1.19775C61.6756 0.974908 61.9874 0.850098 62.3115 0.850098Z" fill="url(#paint0_linear_32727_81226)"/>
<defs>
<linearGradient id="paint0_linear_32727_81226" x1="114.203" y1="0.850098" x2="114.203" y2="23.2525" gradientUnits="userSpaceOnUse">
<stop stop-color="white"/>
<stop offset="1" stop-color="white" stop-opacity="0.6"/>
</linearGradient>
</defs>
</svg>
