<svg width="172" height="24" viewBox="0 0 172 24" fill="none" xmlns="http://www.w3.org/2000/svg">
<path d="M1.23145 10C3.11173 9.99615 4.99374 9.96904 6.87402 10.0088C8.44782 10.0421 9.80933 10.673 10.9971 11.6914C12.3413 12.842 13.1563 14.3025 13.5244 16.1572C13.9759 14.0203 14.9989 12.3908 16.6855 11.2158C17.6975 10.5117 18.825 10.0336 20.0742 10.0117C22.0405 9.97709 24.0073 10 25.9736 10C26.0788 10 26.1844 10.0234 26.3652 10.0439C26.4755 11.229 26.398 12.4128 26.4121 13.6748C26.148 13.6953 25.9246 13.7285 25.7002 13.7285C23.9481 13.7336 22.1944 13.7274 20.4424 13.7363C20.1552 13.7377 19.8678 13.7969 19.4678 13.8418C21.2276 15.6735 22.8916 17.4054 24.5938 19.1768C23.7459 20.063 22.9566 20.8865 22.1113 21.7715C21.2237 20.9583 20.4364 20.123 19.6348 19.3047C18.8319 18.4864 18.0471 17.6497 17.1172 16.8545C17.1005 17.0738 17.0684 17.2934 17.0684 17.5127C17.0645 19.2007 17.0683 20.8901 17.0645 22.5781C17.0644 22.8063 17.0415 23.0345 17.0273 23.3037H10.0273C10.012 23.0383 9.98926 22.8112 9.98926 22.583C9.98669 20.7873 9.99299 18.9917 9.98145 17.1973C9.98016 16.8869 9.9097 16.5776 9.8584 16.1621C8.1076 17.9565 6.44226 19.6622 4.78125 21.3643C4.37079 21.1693 2.81297 19.6574 2.17676 18.8262C3.7673 17.1689 5.36873 15.5026 7.06445 13.7363L7.06152 13.7373H0.69043C0.577601 12.4881 0.644529 11.3056 0.644531 10.0615C0.866208 10.0372 1.04948 10.0013 1.23145 10ZM53.2266 9.22461C54.427 8.82708 55.6698 8.82149 56.8984 9.06641C58.7864 9.44349 59.8539 10.6782 60.2695 12.5059C60.3772 12.979 60.4086 13.4782 60.415 13.9668C60.433 15.3983 60.4203 16.8319 60.4229 18.2646C60.4229 18.4967 60.4413 18.7292 60.4541 19.0215H60.4521C60.7957 19.092 61.0612 19.1459 61.374 19.21C61.5188 19.8421 61.445 20.4677 61.4258 21.0742C60.0058 21.5976 58.9379 21.1595 58.0195 19.6934C57.3833 20.6128 56.4508 21.1025 55.4209 21.3359C53.8881 21.6822 52.3823 21.5208 51.0791 20.5703C50.4468 20.1085 50.0608 19.4186 50.0146 18.6016C49.9736 17.8756 49.9672 17.1587 50.3545 16.4854C50.7444 15.8068 51.2733 15.2755 51.9941 15.0254C52.9176 14.7061 53.871 14.4619 54.8252 14.2451C55.7985 14.0246 56.7872 13.8762 57.7451 13.6992C58.0017 12.4383 57.3285 11.4259 56.1689 11.1514C55.4956 10.9924 54.8467 11.0392 54.2119 11.2354C53.7362 11.3828 53.3461 11.6929 53.1152 12.1621C52.9845 12.4275 52.8446 12.6883 52.6895 12.9883C51.8917 12.9562 51.105 13.0578 50.2598 12.791C50.2957 12.5576 50.2989 12.3276 50.3682 12.1211C50.8453 10.691 51.7938 9.69791 53.2266 9.22461ZM133.396 5.22754C134.231 5.10184 135.001 5.09423 135.814 5.23145V21.1572H133.552C133.521 20.6737 133.493 20.2163 133.466 19.7969C133.035 20.1445 132.622 20.5398 132.152 20.8477C130.536 21.9097 127.795 21.6293 126.392 20.0645C125.401 18.9615 124.897 17.6734 124.81 16.2383C124.751 15.2648 124.802 14.2705 124.937 13.3047C125.106 12.0977 125.639 11.0246 126.521 10.1562C127.336 9.35598 128.322 8.95941 129.464 8.94141C130.171 8.93114 130.867 8.94469 131.546 9.20508C132.261 9.47952 132.825 9.94476 133.396 10.6436V5.22754ZM142.932 8.92383C144.312 8.93409 145.552 9.20854 146.612 10.127C147.325 10.7438 147.791 11.521 148.148 12.3789C148.544 13.3255 148.559 14.3344 148.644 15.3311C148.658 15.4926 148.6 15.6592 148.569 15.8682C147.846 15.9912 147.143 15.9127 146.448 15.9268C145.743 15.9409 145.037 15.9297 144.331 15.9297H140.188C140 17.2097 140.739 18.6051 141.826 19.0195C142.602 19.3146 143.405 19.3354 144.218 19.125C145.092 18.898 145.516 18.2162 145.929 17.4512C146.765 17.5153 147.544 17.5752 148.376 17.6406C148.349 17.8471 148.361 17.9976 148.311 18.1221C147.487 20.1331 145.966 21.212 143.825 21.4365C143.038 21.5186 142.258 21.481 141.482 21.2578C139.325 20.6395 138.116 19.157 137.653 17.0342C137.363 15.7079 137.389 14.3675 137.725 13.0361C138.342 10.594 140.432 8.90477 142.932 8.92383ZM117.852 8.95215C118.552 8.94702 119.269 8.95049 119.948 9.09277C121.804 9.48143 122.837 10.7303 123.238 12.5273C123.349 13.0211 123.375 13.5417 123.382 14.0508C123.401 15.4605 123.387 16.8706 123.39 18.2803C123.39 18.5109 123.412 18.7416 123.425 19.0234L123.427 19.0225C123.779 19.0955 124.044 19.1507 124.355 19.2148C124.468 19.8549 124.438 20.4798 124.384 21.084C122.906 21.5968 121.82 21.1466 121.026 19.7002C120.931 19.781 120.834 19.8461 120.757 19.9307C119.658 21.1505 118.261 21.549 116.665 21.458C115.768 21.4067 114.925 21.2014 114.197 20.6807C113.211 19.9752 112.828 18.9735 112.946 17.7793C113.09 16.3301 113.906 15.4169 115.234 14.8936C116.296 14.4754 117.415 14.3129 118.524 14.1025C119.256 13.964 119.989 13.831 120.699 13.7002C121.003 12.5857 120.337 11.4062 119.28 11.1895C118.826 11.0971 118.345 11.0431 117.888 11.0879C116.956 11.1777 116.223 11.6009 115.894 12.5488C115.846 12.686 115.749 12.8068 115.646 12.9824C114.862 12.9529 114.059 13.0773 113.239 12.7979C113.217 12.1373 113.467 11.587 113.789 11.0996C114.743 9.65401 116.135 8.96369 117.852 8.95215ZM75.5869 6.38477C76.4053 6.23084 77.1985 6.28994 78.0361 6.34766C78.226 7.29294 78.0257 8.21534 78.1719 9.19141H81.1494C81.2815 9.89047 81.2147 10.5194 81.207 11.1787C80.6837 11.3839 80.1679 11.2646 79.6689 11.2852C79.1841 11.3057 78.6979 11.2891 78.1631 11.2891C78.1451 11.5724 78.1211 11.7789 78.1211 11.9854C78.1185 13.9093 78.1191 15.8319 78.1191 17.7559C78.1191 17.8199 78.1198 17.8842 78.1211 17.9482C78.1467 18.7088 78.4516 19.044 79.207 19.0928C79.6328 19.1197 80.0612 19.0981 80.4883 19.1045C80.6974 19.1071 80.9056 19.1246 81.166 19.1387C81.2712 19.8068 81.2199 20.4341 81.207 21.0176C81.1224 21.0881 81.09 21.1374 81.0566 21.1387C79.8856 21.2067 78.7055 21.3118 77.5537 21.0283C76.5378 20.7782 75.875 20.112 75.6787 19.0615C75.5928 18.6038 75.5517 18.1308 75.5479 17.6641C75.5337 15.8042 75.541 13.9449 75.541 12.085V11.3008H73.8096C73.7493 10.9437 73.7336 10.6079 73.7344 10.2695L73.7598 9.22266H75.4902C75.6147 8.2632 75.4689 7.3455 75.5869 6.38477ZM92.5791 5.14258C93.3474 5.15541 94.1174 5.1466 94.8857 5.1543C94.9867 5.15433 95.0879 5.20028 95.251 5.24121C97.1481 10.49 99.0522 15.7553 100.953 21.0156C100.503 21.2196 99.506 21.2615 98.3184 21.1436C97.7181 19.8725 97.4027 18.4488 96.8037 17.1162H90.459C89.9882 18.4528 89.5151 19.7924 89.0264 21.1777C88.1221 21.2034 87.2614 21.1983 86.2969 21.1777C86.447 20.7942 86.5614 20.5255 86.6602 20.251C87.608 17.6011 88.5521 14.9487 89.5 12.2988C90.2824 10.1106 91.0698 7.9243 91.8535 5.7373C91.9779 5.39117 92.1548 5.13626 92.5791 5.14258ZM37.4365 5.21094C38.1882 5.08523 38.9812 5.11981 39.8662 5.20703C39.8765 5.84196 39.8894 6.43273 39.8945 7.02148V12.584C40.4396 11.9902 40.9013 11.5001 41.3477 10.9961C42.4648 9.73273 43.5758 8.46576 44.6865 7.19727C45.1508 6.66756 45.6127 6.13634 46.0654 5.59766C46.2809 5.34113 46.5181 5.14553 46.8721 5.14551C47.5994 5.14679 48.3254 5.143 49.0527 5.14941C49.1489 5.14942 49.2453 5.19979 49.4531 5.25879C48.4731 6.49915 47.4416 7.59107 46.4668 8.72754C45.483 9.87546 44.4695 10.9975 43.4229 12.1826C45.5855 15.17 47.7176 18.1155 49.9443 21.1914H49.0322C48.5191 21.1914 48.0047 21.1684 47.4941 21.1992C47.0788 21.2235 46.8171 21.0476 46.5889 20.7246C45.7256 19.5048 44.8542 18.2897 43.9756 17.0801C43.2483 16.0796 42.5071 15.0876 41.7285 14.0332C41.5362 14.2216 41.3529 14.3873 41.1875 14.5693C40.8861 14.9003 40.6169 15.2628 40.2949 15.5732C39.9949 15.863 39.8804 16.1781 39.8867 16.5947C39.9098 17.8556 39.8955 19.117 39.8955 20.3779V21.1523H37.4688C37.4175 21.1049 37.4008 21.0906 37.3867 21.0752C37.3727 21.0599 37.3554 21.0436 37.3516 21.0244C37.3336 20.9411 37.3067 20.8577 37.3066 20.7744C37.3041 15.7296 37.3047 10.6855 37.3047 5.64062C37.3047 5.55607 37.317 5.46999 37.335 5.38672C37.3427 5.34703 37.3763 5.3134 37.4365 5.21094ZM152.49 10.8877C154.422 7.90174 158.214 8.61174 159.275 11.0947C159.369 10.9576 159.453 10.8514 159.521 10.7373C160.217 9.55991 161.213 8.92758 162.615 8.93262C163.579 8.93647 164.488 9.04713 165.262 9.68848C165.764 10.1066 166.15 10.608 166.376 11.2236C166.629 11.9097 166.762 12.6174 166.761 13.3535C166.754 15.7252 166.762 18.099 166.758 20.4707C166.758 20.6783 166.732 20.8859 166.716 21.1396H164.33C164.311 20.8962 164.279 20.6718 164.279 20.4463C164.275 18.5864 164.287 16.7271 164.271 14.8672C164.266 14.2287 164.228 13.5875 164.151 12.9541C163.951 11.3046 162.248 10.4911 160.838 11.376C160.316 11.703 159.974 12.2095 159.85 12.8174C159.761 13.2535 159.711 13.7046 159.708 14.1484C159.694 16.221 159.701 18.2936 159.701 20.3662V21.0332C159.209 21.2166 158.129 21.2492 157.303 21.1133C157.286 20.885 157.254 20.6369 157.254 20.3906C157.25 18.2755 157.27 16.159 157.24 14.0439C157.233 13.4758 157.123 12.8985 156.984 12.3457C156.788 11.5685 156.217 11.1207 155.421 11.0527C154.016 10.9347 153.105 11.6364 152.803 13.2627C152.737 13.6154 152.761 13.9876 152.761 14.3506C152.757 16.3593 152.761 18.368 152.756 20.3779C152.756 20.6242 152.706 20.8705 152.677 21.1514H150.351C150.317 21.1142 150.301 21.0974 150.287 21.082C150.273 21.0655 150.255 21.0501 150.25 21.0322C150.232 20.9708 150.207 20.9093 150.207 20.8467C150.203 17.1706 150.201 13.4954 150.199 9.81934C150.199 9.69235 150.21 9.56351 150.225 9.43652C150.229 9.39681 150.259 9.36069 150.318 9.24023L150.315 9.23926H152.49V10.8877ZM68.1436 8.94922C68.6733 8.95563 69.219 8.9559 69.7295 9.0752C71.0505 9.38179 71.8538 10.2944 72.3027 11.5244C72.4682 11.9785 72.5896 12.4764 72.5947 12.9561C72.6242 15.5188 72.6126 18.0828 72.6113 20.6455C72.6113 20.7904 72.5797 20.9358 72.5527 21.1641C71.7831 21.2167 71.0258 21.1887 70.1934 21.1797C70.1703 20.9167 70.1351 20.6932 70.1338 20.4688C70.1287 18.9526 70.1439 17.435 70.126 15.9189C70.1144 14.9814 70.112 14.037 70.0068 13.1084C69.8156 11.4193 68.7658 10.7974 67.2344 11.1104C65.8774 11.3875 65.2504 12.2458 65.1709 13.8799C65.1145 15.0303 65.1575 16.1859 65.1562 17.3389C65.1562 18.3637 65.1591 19.3902 65.1553 20.415C65.1553 20.6433 65.1309 20.8716 65.1143 21.1436H62.6348C62.5463 19.8173 62.6063 18.501 62.5947 17.1875C62.5845 15.8844 62.5928 14.5814 62.5928 13.2783V9.24023H64.8271C65.0361 9.78646 64.8754 10.3431 64.9561 10.8867C65.2292 10.5366 65.4491 10.1601 65.7568 9.88184C66.425 9.2765 67.2292 8.93779 68.1436 8.94922ZM101.868 5.18262C102.676 5.12237 103.447 5.10704 104.272 5.20703V14.749C104.324 14.7683 104.375 14.7877 104.427 14.8057V14.8066C105.128 14.0371 105.832 13.2702 106.529 12.498C107.431 11.5002 108.321 10.4928 109.231 9.50391C109.364 9.36029 109.586 9.22418 109.771 9.21777C110.645 9.19341 111.522 9.21465 112.396 9.22363C112.431 9.22398 112.466 9.26472 112.577 9.33496C111.064 10.964 109.561 12.5805 108.016 14.2441C109.6 16.5067 111.171 18.7515 112.729 20.9756C112.665 21.0677 112.642 21.1292 112.618 21.1309C111.81 21.1514 111.001 21.1729 110.193 21.1768C109.886 21.1779 109.784 20.8988 109.645 20.6924C108.634 19.2135 107.628 17.7305 106.62 16.249C106.55 16.1451 106.468 16.047 106.359 15.9033C106.213 16.0174 106.072 16.1034 105.962 16.2188C105.507 16.6985 105.074 17.202 104.604 17.6689C104.352 17.9203 104.284 18.1973 104.292 18.5332C104.306 19.1733 104.299 19.8147 104.295 20.4561C104.294 20.6651 104.274 20.8731 104.26 21.1348H101.875C101.852 20.9604 101.808 20.7794 101.808 20.5986C101.804 15.6423 101.804 10.6868 101.808 5.73047C101.808 5.56633 101.844 5.40189 101.868 5.18262ZM171.507 9.24609C171.666 9.8015 171.672 20.5484 171.513 21.1436H169.203C169.174 21.1115 169.16 21.0958 169.146 21.0791C169.131 21.0625 169.114 21.0484 169.107 21.0293C169.089 20.9677 169.064 20.9043 169.064 20.8428C169.061 17.1681 169.059 13.4934 169.059 9.81738C169.059 9.6904 169.07 9.56156 169.084 9.43457C169.088 9.3949 169.118 9.35875 169.175 9.24609H171.507ZM120.748 15.6455C119.64 15.8507 118.527 16.0402 117.423 16.2686C117.03 16.3494 116.639 16.488 116.277 16.6611C115.645 16.9651 115.519 17.5331 115.58 18.1768C115.635 18.7552 115.947 19.0866 116.494 19.2803C117.572 19.6599 118.574 19.4377 119.507 18.9004C120.548 18.3001 120.993 17.0422 120.748 15.6455ZM57.5078 15.6914C56.5241 15.8684 55.5366 16.0286 54.5605 16.2402C54.1078 16.339 53.6482 16.4864 53.2441 16.707C52.671 17.0187 52.5467 17.5908 52.6172 18.2012C52.6787 18.7321 52.9622 19.0746 53.4854 19.2734C54.3434 19.5992 55.1477 19.4246 55.9814 19.1758C57.1474 18.8282 58.1933 17.3138 57.7471 15.7041V15.7031C57.6714 15.6993 57.5861 15.6773 57.5078 15.6914ZM131.66 11.3662C130.326 10.8724 128.679 11.0634 127.929 12.6152C127.151 14.2237 127.166 15.8804 127.812 17.5107C128.153 18.3738 128.792 18.9942 129.774 19.1738C131.216 19.438 132.451 18.9406 132.982 17.4375C133.231 16.7333 133.417 16.0069 133.358 15.2373C133.425 14.4194 133.237 13.6286 132.971 12.8633C132.74 12.2027 132.335 11.6164 131.66 11.3662ZM93.6494 7.78809C92.8362 10.1611 92.0731 12.3872 91.3086 14.6152C91.8268 14.7575 95.1758 14.7881 96.0088 14.665C95.2353 12.4127 94.4678 10.1716 93.6494 7.78711V7.78809ZM143.07 11.0635C141.512 11.0841 140.323 11.9449 140.188 13.915C140.975 14.0497 145.472 14.0095 145.9 13.8633C145.807 11.8969 144.58 11.043 143.07 11.0635ZM12.9102 1.11035C13.2667 0.438893 13.7499 0.426005 14.1396 1.09375C14.418 1.57086 14.6462 2.07793 14.8848 2.57812C15.1477 3.13091 15.4864 3.58549 16.084 3.83691C16.5727 4.04215 17.0244 4.33972 17.4951 4.58984C17.8042 4.75398 18.0595 4.96264 18.207 5.32031C17.9941 5.83339 17.5567 5.99941 17.1758 6.21875C16.6769 6.50602 16.1519 6.74726 15.6543 7.03711C15.4864 7.1359 15.3299 7.30023 15.2363 7.4707C14.858 8.16192 14.5211 8.87513 14.1377 9.5625C14.0107 9.79082 13.7908 9.96826 13.6484 10.1299C13.1804 10.0606 13.0277 9.77426 12.8828 9.48828C12.5544 8.8418 12.2312 8.1936 11.9131 7.54199C11.7977 7.30479 11.6472 7.14227 11.3945 7.0166C10.7276 6.68696 10.0814 6.313 9.4375 5.93848C9.2247 5.8141 9.04527 5.6308 8.87988 5.5C8.86456 5.07171 9.10165 4.88675 9.36328 4.73926C9.97502 4.39299 10.582 4.03447 11.2168 3.73438C11.5694 3.56767 11.8042 3.35322 11.9658 3.00195C12.2608 2.36189 12.5792 1.73246 12.9102 1.11035ZM169.049 5.25977C169.511 5.07377 170.817 5.04103 171.593 5.19238L171.594 5.19336V7.53809H169.068C169.012 6.75441 169.042 5.99855 169.049 5.25977Z" fill="url(#paint0_linear_32727_81082)"/>
<defs>
<linearGradient id="paint0_linear_32727_81082" x1="159.738" y1="0.599609" x2="159.738" y2="16.3465" gradientUnits="userSpaceOnUse">
<stop stop-color="white"/>
<stop offset="1" stop-color="white" stop-opacity="0.6"/>
</linearGradient>
</defs>
</svg>
