<svg width="117" height="32" viewBox="0 0 117 32" fill="none" xmlns="http://www.w3.org/2000/svg">
<path d="M39.7119 31.397H36L44.333 0.64502H48.0449L39.7119 31.397ZM3.85645 10.9683C4.88046 9.32795 6.96065 8.54062 8.84863 8.54053C12.7847 8.54053 16.1776 11.6567 16.1777 16.5776C16.1777 21.4659 12.7534 24.6487 8.81738 24.6489C7.02532 24.6489 4.88052 23.8285 3.85645 22.188V24.2554H0.144531V0.601074H3.85645V10.9683ZM26.1133 8.53955C28.1612 8.53969 30.1448 9.45848 31.1367 11.0659V8.93311H34.8496V24.2544H31.1367V21.8599C30.1446 23.5329 28.1606 24.6479 26.0166 24.6479C22.0165 24.6479 18.8165 21.3346 18.8164 16.5776C18.8164 11.9517 21.8891 8.53955 26.1133 8.53955ZM54.7881 8.53955C56.8362 8.53955 58.8205 9.45832 59.8125 11.0659V8.93311H63.5254V24.2544H59.8125V21.8599C58.8204 23.5329 56.8364 24.6479 54.6924 24.6479C50.6923 24.6479 47.4923 21.3347 47.4922 16.5776C47.4922 11.9518 50.5641 8.53975 54.7881 8.53955ZM92.9873 8.53955C95.5794 8.53955 97.6923 9.72102 99.0684 11.4927L96.4443 13.6245C95.6762 12.6732 94.3958 12.0825 93.0518 12.0825C90.4596 12.0825 88.6035 13.9858 88.6035 16.5776C88.6036 19.1365 90.4596 21.105 93.0518 21.105C94.3958 21.105 95.6762 20.5143 96.4443 19.563L99.0684 21.6958C97.6923 23.4673 95.5794 24.6479 92.9873 24.6479C88.6673 24.6477 84.8595 21.4329 84.8594 16.5776C84.8594 11.7222 88.6673 8.53979 92.9873 8.53955ZM108.493 8.53955C112.749 8.53978 116.109 11.6563 116.109 16.4458C116.109 16.8722 116.077 17.3647 116.045 17.9224H104.461C104.877 20.0549 106.477 21.2036 108.717 21.2036C110.317 21.2036 111.885 20.4815 112.749 19.2349L115.245 21.1704C113.869 23.4011 111.213 24.6478 108.493 24.6479C104.045 24.6479 100.652 21.3674 100.652 16.5776C100.652 11.6893 104.205 8.53955 108.493 8.53955ZM76.001 8.53955C79.8411 8.53962 81.9853 11.1971 81.9854 15.6587V24.2544H78.2734V15.9214C78.2734 13.4609 76.8329 12.149 75.1689 12.1489C73.4729 12.1489 71.3604 13.1659 71.3604 16.1187V24.2544H67.6484V8.93311H71.3604V11.3608C72.1284 9.4253 74.4649 8.53955 76.001 8.53955ZM8.24121 12.0835C6.09706 12.0835 3.9209 13.8551 3.9209 16.5454C3.921 19.2356 5.96912 21.105 8.24121 21.105C10.5452 21.1048 12.4647 19.1043 12.4648 16.5454C12.4648 13.9865 10.5452 12.0836 8.24121 12.0835ZM26.7529 12.0825C24.3528 12.0825 22.5283 14.117 22.5283 16.5776C22.5284 19.0381 24.353 21.105 26.7852 21.105C29.0891 21.1048 31.0732 19.1364 31.0732 16.5776C31.0732 13.9531 28.961 12.0826 26.7529 12.0825ZM55.4287 12.0825C53.0287 12.0825 51.2041 14.117 51.2041 16.5776C51.2042 19.0381 53.0289 21.105 55.4609 21.105C57.7648 21.1047 59.7489 19.1364 59.749 16.5776C59.749 13.9531 57.6369 12.0827 55.4287 12.0825ZM108.524 11.9185C106.54 11.9185 104.909 12.936 104.461 15.2651H112.429C112.205 13.1655 110.604 11.9185 108.524 11.9185Z" fill="url(#paint0_linear_32727_80958)"/>
<defs>
<linearGradient id="paint0_linear_32727_80958" x1="108.046" y1="0.600098" x2="108.046" y2="21.9601" gradientUnits="userSpaceOnUse">
<stop stop-color="white"/>
<stop offset="1" stop-color="white" stop-opacity="0.6"/>
</linearGradient>
</defs>
</svg>
