<svg width="137" height="30" viewBox="0 0 137 30" fill="none" xmlns="http://www.w3.org/2000/svg">
<path d="M27.7715 0.75C35.6349 0.776611 42.0088 7.15023 42.0088 15.0137C42.0086 22.8769 35.6348 29.25 27.7715 29.25C25.5021 29.2499 23.3522 28.72 21.4531 27.7666C21.4485 27.7689 21.4441 27.7721 21.4395 27.7744C21.4322 27.7708 21.4252 27.7663 21.418 27.7627C19.5172 28.7183 17.3649 29.2499 15.0928 29.25C7.22933 29.25 0.855469 22.8761 0.855469 15.0127C0.855688 7.14944 7.22946 0.776367 15.0928 0.776367C17.3678 0.776432 19.5236 1.30831 21.4395 2.25293C18.9913 3.47702 16.9547 5.36688 15.5576 7.69531C15.3983 7.68205 15.2521 7.68164 15.0928 7.68164C11.0481 7.68164 7.76096 10.9681 7.76074 15.0127C7.76074 19.0575 11.048 22.3447 15.0928 22.3447C15.2521 22.3447 15.4115 22.3443 15.5576 22.3311C15.575 22.3599 15.5937 22.3883 15.6113 22.417C15.594 22.3886 15.5757 22.3606 15.5586 22.332C18.0732 22.1724 20.2419 20.7623 21.4395 18.7002C22.6354 20.7464 24.8002 22.1683 27.3105 22.3311C27.3132 22.3267 27.3167 22.3228 27.3193 22.3184C27.4657 22.3317 27.6255 22.3311 27.7852 22.3311C31.83 22.3311 35.1162 19.0448 35.1162 15C35.1162 10.9552 31.83 7.66895 27.7852 7.66895C27.6255 7.66895 27.479 7.66834 27.3193 7.68164C25.9223 5.35338 23.8865 3.46426 21.4385 2.24023C23.341 1.29561 25.4964 0.750059 27.7715 0.75ZM109.399 7.76172C110.623 7.76175 111.701 8.00182 112.565 8.4541C113.43 8.91979 114.136 9.51857 114.668 10.2637C115.187 10.9954 115.573 11.8334 115.799 12.7646C116.025 13.6827 116.145 14.628 116.145 15.5859V16.3037H106.286C106.313 16.6496 106.406 16.969 106.565 17.2617C106.765 17.6343 107.031 17.9409 107.351 18.207C107.67 18.4729 108.042 18.6854 108.454 18.8184C108.866 18.9647 109.292 19.0312 109.691 19.0312C110.317 19.0312 110.863 18.9781 111.315 18.8584C111.781 18.7387 112.18 18.5926 112.499 18.4463C112.818 18.2866 113.085 18.1265 113.284 17.9668C113.324 17.927 113.351 17.9006 113.391 17.874L116.065 19.7764L115.439 20.4023C115.173 20.6683 114.788 20.9477 114.296 21.2402C113.804 21.5329 113.165 21.7992 112.406 22.0254C111.635 22.2516 110.716 22.3711 109.665 22.3711C108.587 22.3711 107.59 22.185 106.698 21.8125C105.807 21.4533 105.035 20.9342 104.409 20.2822C103.771 19.6303 103.279 18.8314 102.946 17.9268C102.614 17.0222 102.44 15.998 102.44 14.9072C102.44 13.9093 102.614 12.9644 102.946 12.0996C103.292 11.2349 103.771 10.4765 104.383 9.83789C104.995 9.19925 105.74 8.69286 106.578 8.32031C107.43 7.94776 108.375 7.76172 109.399 7.76172ZM21.4395 2.25488C23.8743 3.46566 25.9233 5.36793 27.3203 7.69629C24.8057 7.84271 22.6369 9.26683 21.4395 11.3291C21.0023 10.5763 20.4351 9.90898 19.7695 9.35742C20.4346 9.90881 21.0016 10.5757 21.4385 11.3281C20.7999 12.4058 20.4404 13.67 20.4404 15.0137C20.4405 16.3574 20.8132 17.6216 21.4385 18.6992C20.241 20.7614 18.0722 22.1714 15.5576 22.3311C14.2671 20.189 13.5352 17.6879 13.5352 15.0137C13.5352 12.3393 14.2803 9.83747 15.5576 7.69531H15.5586C16.9556 5.36729 18.9916 3.47885 21.4395 2.25488ZM72.4102 7.66895C76.455 7.66895 79.7412 10.9552 79.7412 15C79.7412 19.0448 76.455 22.3311 72.4102 22.3311C68.3654 22.331 65.0791 19.0448 65.0791 15C65.0791 10.9553 68.3654 7.66905 72.4102 7.66895ZM58.4795 7.65527C60.7547 7.65527 62.9108 8.73369 64.2812 10.5166L61.3672 12.5654C60.662 11.7139 59.6104 11.208 58.4795 11.208C56.4039 11.2081 54.7139 12.8981 54.7139 14.9736C54.714 17.0491 56.404 18.7392 58.4795 18.7393C59.6104 18.7393 60.6487 18.2334 61.3672 17.3818L64.2939 19.4307C62.9102 21.2535 60.7813 22.3184 58.4795 22.3184C54.4348 22.3183 51.1484 19.0311 51.1484 14.9863C51.1487 10.9418 54.4349 7.65537 58.4795 7.65527ZM130.954 7.74902C131.832 7.74905 132.63 7.86808 133.335 8.10742C134.053 8.36018 134.679 8.70654 135.185 9.14551C135.703 9.59789 136.103 10.1305 136.383 10.7559C136.662 11.3678 136.795 12.06 136.795 12.7783V21.999H133.216L133.149 20.9609C132.79 21.267 132.351 21.5333 131.818 21.7861C131.06 22.1453 130.195 22.3184 129.264 22.3184C128.705 22.3183 128.133 22.2247 127.574 22.0518C127.016 21.8788 126.497 21.5994 126.031 21.2402C125.552 20.8677 125.179 20.3885 124.887 19.8164C124.594 19.2443 124.447 18.5656 124.447 17.7939C124.447 17.0091 124.607 16.3039 124.899 15.6787C125.192 15.0535 125.618 14.5214 126.15 14.0957C126.683 13.67 127.321 13.3506 128.066 13.1377C128.798 12.9248 129.623 12.8184 130.501 12.8184C130.767 12.8184 131.061 12.8177 131.38 12.8311C131.712 12.8444 132.018 12.8578 132.324 12.8711C132.577 12.8844 132.843 12.8978 133.109 12.9111V12.8574C133.109 12.2722 132.883 11.8335 132.417 11.501C131.938 11.1551 131.286 10.9814 130.501 10.9814C129.596 10.9815 128.878 11.102 128.346 11.3281C127.787 11.5675 127.295 11.8336 126.883 12.0996L126.683 12.2324L124.887 9.58496L125.086 9.45215C125.352 9.26591 125.658 9.06576 126.004 8.86621C126.35 8.65333 126.763 8.46728 127.229 8.30762C127.694 8.14801 128.239 8.01462 128.838 7.9082C129.45 7.80176 130.156 7.74902 130.954 7.74902ZM89.2412 7.77539C89.5737 7.77539 89.8668 7.78824 90.1328 7.82812C90.3855 7.86802 90.6651 7.93466 90.9443 8.04102L91.1445 8.10742L90.3594 11.7402L90.0928 11.6338C89.88 11.554 89.6669 11.4872 89.4541 11.4473C89.228 11.4074 88.9621 11.3945 88.6562 11.3945C88.2305 11.3945 87.8312 11.4611 87.4453 11.6074C87.0595 11.7405 86.727 11.94 86.4609 12.2061C86.1815 12.4589 85.9689 12.7785 85.7959 13.1377C85.6363 13.4969 85.5557 13.909 85.5557 14.3613V22.0254H81.7373V8.02832H85.3965L85.4629 9.33203C85.5294 9.26554 85.5956 9.19871 85.6621 9.14551C85.9149 8.90601 86.2084 8.69372 86.541 8.49414C86.8736 8.2946 87.2729 8.13462 87.7119 7.98828C88.1508 7.85532 88.6694 7.77542 89.2412 7.77539ZM100.325 7.77539C100.658 7.7754 100.951 7.78822 101.217 7.82812C101.47 7.86805 101.749 7.93462 102.028 8.04102L102.228 8.10742L101.442 11.7402L101.177 11.6338C100.964 11.554 100.751 11.4872 100.538 11.4473C100.312 11.4073 100.045 11.3945 99.7393 11.3945C99.3136 11.3946 98.9141 11.4611 98.5283 11.6074C98.1426 11.7405 97.81 11.94 97.5439 12.2061C97.2646 12.4588 97.0518 12.7785 96.8789 13.1377C96.7193 13.4969 96.6397 13.9091 96.6396 14.3613V22.0254H92.8203V8.02832H96.4795L96.5459 9.33203C96.6124 9.2655 96.6796 9.19873 96.7461 9.14551C96.9988 8.90614 97.2915 8.69363 97.624 8.49414C97.9567 8.29456 98.3558 8.13464 98.7949 7.98828C99.234 7.85524 99.7531 7.77539 100.325 7.77539ZM122.119 22.0117H118.446V2.71973H122.119V22.0117ZM130.448 15.8252C129.437 15.8252 128.745 16.0113 128.359 16.3838C127.974 16.7563 127.787 17.1821 127.787 17.6611C127.787 18.1533 127.96 18.5259 128.306 18.792C128.665 19.0714 129.211 19.2177 129.942 19.2178C130.315 19.2178 130.674 19.151 131.007 19.0312C131.353 18.9115 131.646 18.7519 131.912 18.5391C132.178 18.3395 132.391 18.0996 132.551 17.8203C132.71 17.5544 132.79 17.275 132.79 16.9824V15.918C132.537 15.9047 132.285 15.8912 132.019 15.8779C131.752 15.8646 131.486 15.8512 131.193 15.8379C130.901 15.8246 130.648 15.8252 130.448 15.8252ZM72.4102 11.2344C70.3346 11.2345 68.6446 12.9245 68.6445 15C68.6445 17.0756 70.3346 18.7655 72.4102 18.7656C74.4858 18.7656 76.1758 17.0756 76.1758 15C76.1758 12.9244 74.4858 11.2344 72.4102 11.2344ZM109.306 10.9424C107.643 10.9425 106.578 12.1263 106.272 13.7627H112.273C112.034 12.1528 110.982 10.9424 109.306 10.9424Z" fill="url(#paint0_linear_32727_80749)"/>
<defs>
<linearGradient id="paint0_linear_32727_80749" x1="127.342" y1="0.75" x2="127.342" y2="20.5169" gradientUnits="userSpaceOnUse">
<stop stop-color="white"/>
<stop offset="1" stop-color="white" stop-opacity="0.6"/>
</linearGradient>
</defs>
</svg>
