<svg width="138" height="36" viewBox="0 0 138 36" fill="none" xmlns="http://www.w3.org/2000/svg">
<path d="M16.3569 35.3391C16.6785 35.3316 16.9929 35.2419 17.27 35.0785L30.8264 27.2576C31.104 27.1104 31.3311 26.8833 31.4783 26.6057L16.2266 17.7417V35.3391H16.3569Z" fill="#B3B3B3"/>
<path d="M31.6036 8.87737C31.4564 8.59979 31.2293 8.37274 30.9518 8.22553L17.3953 0.404579C17.1052 0.213289 16.7653 0.111328 16.4177 0.111328C16.0702 0.111328 15.7303 0.213289 15.4402 0.404579L1.88369 8.22553C1.54709 8.33092 1.26589 8.56527 1.10156 8.87737L16.3526 17.7414L31.6036 8.87737Z" fill="white"/>
<path d="M31.6036 8.87744L16.3526 17.7415L31.6036 26.6051C31.7664 26.2811 31.8554 25.925 31.8642 25.5624V9.92016C31.8554 9.55761 31.7664 9.20151 31.6036 8.87744ZM1.10156 26.6051C1.24875 26.8827 1.47581 27.1098 1.7534 27.257L15.3099 35.0772C15.594 35.2236 15.9044 35.3122 16.223 35.3378V17.7415L1.10156 26.6051Z" fill="#E3E3E3"/>
<path d="M1.10434 8.87744C0.941547 9.20151 0.852551 9.55761 0.84375 9.92016L0.84375 25.6927C0.852551 26.0553 0.941547 26.4114 1.10434 26.7354L16.3554 17.8718L1.10434 8.87744Z" fill="white" fill-opacity="0.97"/>
<path d="M137.186 5.74987C136.834 5.41519 136.368 5.22852 135.882 5.22852C135.397 5.22852 134.93 5.41519 134.579 5.74987C134.403 5.91654 134.265 6.11955 134.175 6.34484C134.085 6.57013 134.045 6.81231 134.057 7.05459V14.2227C132.665 13.301 131.035 12.8029 129.365 12.7887C127.018 12.7887 125.063 13.7018 123.368 15.3957C122.561 16.1949 121.925 17.1504 121.499 18.2037C121.073 19.2571 120.867 20.3862 120.892 21.5221C120.867 22.658 121.073 23.7871 121.499 24.8404C121.925 25.8938 122.561 26.8492 123.368 27.6485C125.063 29.343 127.018 30.2555 129.365 30.2555C131.035 30.2412 132.665 29.7432 134.057 28.8215C134.145 29.2351 134.376 29.6045 134.709 29.8642C135.052 30.1091 135.461 30.2453 135.882 30.2551C136.124 30.2612 136.364 30.2181 136.588 30.1285C136.813 30.0388 137.016 29.9045 137.187 29.7337C137.358 29.5629 137.492 29.3592 137.582 29.1348C137.671 28.9105 137.715 28.6703 137.708 28.4288V7.18348C137.674 6.66569 137.493 6.16844 137.186 5.74987ZM132.493 25.0418C132.079 25.4937 131.576 25.8545 131.015 26.1014C130.454 26.3482 129.848 26.4757 129.235 26.4757C128.622 26.4757 128.015 26.3482 127.454 26.1014C126.893 25.8545 126.39 25.4937 125.976 25.0418C125.523 24.6013 125.162 24.0744 124.916 23.4923C124.67 22.9103 124.542 22.2848 124.542 21.6527C124.519 21.029 124.622 20.4071 124.846 19.8246C125.071 19.2421 125.41 18.711 125.846 18.2636C126.26 17.8117 126.763 17.4509 127.324 17.2041C127.885 16.9572 128.491 16.8298 129.104 16.8298C129.717 16.8298 130.323 16.9572 130.884 17.2041C131.445 17.4509 131.949 17.8117 132.363 18.2636C132.798 18.711 133.138 19.2421 133.362 19.8246C133.586 20.4071 133.69 21.029 133.667 21.6527C133.927 22.8257 133.406 23.9988 132.493 25.0418ZM64.059 12.7887C62.7695 12.7943 61.5066 13.1556 60.4093 13.8328C60.2529 13.5175 60.011 13.2524 59.7113 13.0678C59.4116 12.8831 59.066 12.7865 58.714 12.7887C58.4725 12.7826 58.2323 12.8257 58.008 12.9153C57.7837 13.005 57.5799 13.1393 57.4091 13.3101C57.2383 13.4809 57.104 13.6846 57.0144 13.9089C56.9247 14.1333 56.8817 14.3735 56.8877 14.615V28.3003C56.8913 28.6612 57.0006 29.013 57.2022 29.3123C57.4039 29.6116 57.6889 29.8451 58.022 29.9839C58.3551 30.1228 58.7217 30.1607 59.0762 30.0932C59.4307 30.0257 59.7575 29.8555 60.0163 29.604C60.2093 29.4437 60.367 29.2451 60.4792 29.0206C60.5914 28.7962 60.6557 28.5509 60.6681 28.3003V19.9578C60.6789 19.0278 61.0532 18.1389 61.7109 17.4812C62.3686 16.8235 63.2575 16.4493 64.1875 16.4384C64.6501 16.431 65.1091 16.5199 65.5355 16.6994C65.9618 16.8789 66.3462 17.1451 66.6642 17.4811C67.3219 18.1388 67.6961 19.0278 67.7069 19.9578V28.3003C67.6973 28.546 67.7373 28.7911 67.8247 29.0209C67.9121 29.2507 68.0449 29.4605 68.2153 29.6377C68.3857 29.8149 68.5902 29.9559 68.8164 30.0522C69.0426 30.1485 69.2859 30.1982 69.5318 30.1982C69.7776 30.1982 70.021 30.1485 70.2472 30.0522C70.4734 29.9559 70.6778 29.8149 70.8482 29.6377C71.0186 29.4605 71.1515 29.2507 71.2388 29.0209C71.3262 28.7911 71.3663 28.546 71.3566 28.3003V19.9578C71.3765 19.0127 71.2016 18.0736 70.8428 17.199C70.484 16.3244 69.9491 15.533 69.2712 14.8741C67.855 13.5517 65.9948 12.8077 64.0572 12.7887H64.059ZM76.5727 12.919C76.3294 12.8939 76.0837 12.9282 75.8566 13.019C75.6295 13.1099 75.4279 13.2545 75.269 13.4405C75.0812 13.6259 74.937 13.8508 74.8468 14.0988C74.7566 14.3468 74.7227 14.6118 74.7475 14.8745V28.431C74.7379 28.6766 74.7779 28.9217 74.8653 29.1515C74.9526 29.3813 75.0855 29.5911 75.2559 29.7684C75.4263 29.9456 75.6307 30.0866 75.857 30.1829C76.0832 30.2792 76.3265 30.3288 76.5723 30.3288C76.8182 30.3288 77.0615 30.2792 77.2877 30.1829C77.5139 30.0866 77.7184 29.9456 77.8888 29.7684C78.0592 29.5911 78.1921 29.3813 78.2794 29.1515C78.3668 28.9217 78.4068 28.6766 78.3972 28.431V14.7438C78.4105 14.4821 78.3712 14.2203 78.2817 13.974C78.1921 13.7277 78.054 13.5019 77.8757 13.3099C77.5024 13.0273 77.0398 12.8888 76.5727 12.9197V12.919ZM51.9358 12.7887C51.6943 12.7826 51.4541 12.8257 51.2298 12.9153C51.0054 13.005 50.8017 13.1393 50.6309 13.3101C50.4601 13.4809 50.3258 13.6846 50.2361 13.9089C50.1465 14.1333 50.1034 14.3735 50.1095 14.615V22.956C50.1169 23.4186 50.028 23.8776 49.8485 24.304C49.669 24.7304 49.4028 25.1147 49.0668 25.4327C48.7232 25.7704 48.316 26.0365 47.8688 26.2156C47.4216 26.3948 46.9432 26.4833 46.4616 26.4761C45.999 26.4835 45.54 26.3947 45.1136 26.2152C44.6872 26.0357 44.3028 25.7694 43.9849 25.4334C43.3272 24.7757 42.9529 23.8868 42.9421 22.9567V14.6135C42.9482 14.3721 42.9051 14.1319 42.8155 13.9075C42.7259 13.6832 42.5916 13.4795 42.4208 13.3087C42.25 13.1379 42.0462 13.0036 41.8219 12.9139C41.5976 12.8243 41.3574 12.7812 41.1159 12.7873C40.8744 12.7812 40.6342 12.8243 40.4099 12.9139C40.1856 13.0036 39.9818 13.1379 39.811 13.3087C39.6402 13.4795 39.5059 13.6832 39.4163 13.9075C39.3266 14.1319 39.2836 14.3721 39.2896 14.6135V22.956C39.2832 23.8995 39.4644 24.8349 39.8226 25.7078C40.1808 26.5807 40.7088 27.3737 41.3761 28.0408C42.0434 28.7078 42.8366 29.2356 43.7096 29.5935C44.5826 29.9514 45.5181 30.1322 46.4616 30.1255C47.4067 30.1454 48.3458 29.9705 49.2204 29.6117C50.095 29.2529 50.8863 28.7179 51.5452 28.0401C52.2408 27.3877 52.7961 26.6005 53.1773 25.7264C53.5584 24.8523 53.7574 23.9096 53.762 22.956V14.6135C53.7747 14.3714 53.7346 14.1295 53.6446 13.9044C53.5545 13.6793 53.4167 13.4764 53.2405 13.3099C52.87 13.0052 52.4141 12.8231 51.9358 12.7887ZM97.5571 12.919C97.3138 12.8939 97.0681 12.9282 96.841 13.019C96.6139 13.1099 96.4123 13.2545 96.2534 13.4405C96.0657 13.6259 95.9215 13.8508 95.8313 14.0988C95.7411 14.3468 95.7071 14.6118 95.7319 14.8745V28.431C95.7223 28.6766 95.7623 28.9217 95.8497 29.1515C95.9371 29.3813 96.0699 29.5911 96.2403 29.7684C96.4107 29.9456 96.6152 30.0866 96.8414 30.1829C97.0676 30.2792 97.3109 30.3288 97.5568 30.3288C97.8026 30.3288 98.0459 30.2792 98.2722 30.1829C98.4984 30.0866 98.7028 29.9456 98.8732 29.7684C99.0436 29.5911 99.1765 29.3813 99.2638 29.1515C99.3512 28.9217 99.3913 28.6766 99.3816 28.431V14.7438C99.3949 14.4821 99.3557 14.2203 99.2661 13.974C99.1765 13.7277 99.0384 13.5019 98.8601 13.3099C98.4867 13.0269 98.0238 12.8881 97.5564 12.919H97.5571ZM91.5631 9.13898C91.8249 9.15232 92.0866 9.11303 92.3329 9.02345C92.5792 8.93387 92.8051 8.79582 92.9971 8.61745C93.1732 8.45086 93.311 8.24801 93.401 8.02291C93.491 7.79782 93.531 7.55586 93.5183 7.31378C93.531 7.07167 93.4909 6.8297 93.4008 6.6046C93.3108 6.37951 93.1729 6.17666 92.9967 6.01011C92.5588 5.64684 92.0008 5.46077 91.4325 5.48857C84.6542 5.48857 85.0451 13.0489 85.0451 13.0489H82.829C82.5673 13.0356 82.3055 13.0749 82.0592 13.1645C81.8129 13.254 81.5871 13.3921 81.3951 13.5705C81.2189 13.737 81.081 13.9399 80.991 14.165C80.9009 14.3901 80.8608 14.632 80.8735 14.8741C80.8484 15.1174 80.8827 15.3632 80.9736 15.5903C81.0644 15.8174 81.2091 16.019 81.3951 16.1778C81.5805 16.3656 81.8053 16.5098 82.0533 16.6C82.3014 16.6902 82.5663 16.7241 82.829 16.6993H85.0451V28.3003C85.02 28.5436 85.0543 28.7893 85.1452 29.0164C85.236 29.2435 85.3807 29.4451 85.5667 29.604C85.7332 29.7801 85.9361 29.918 86.1612 30.0081C86.3863 30.0981 86.6282 30.1382 86.8703 30.1255C87.1136 30.1506 87.3594 30.1163 87.5865 30.0255C87.8136 29.9346 88.0152 29.79 88.174 29.604C88.3502 29.4374 88.4881 29.2346 88.5781 29.0095C88.6682 28.7844 88.7082 28.5424 88.6955 28.3003V16.6993H91.4328C91.6761 16.7245 91.9219 16.6901 92.149 16.5993C92.376 16.5085 92.5777 16.3638 92.7365 16.1778C92.9127 16.0113 93.0505 15.8084 93.1406 15.5833C93.2306 15.3582 93.2707 15.1162 93.258 14.8741C93.2641 14.6327 93.221 14.3925 93.1314 14.1681C93.0418 13.9438 92.9075 13.7401 92.7367 13.5693C92.5658 13.3984 92.3621 13.2641 92.1378 13.1745C91.9135 13.0849 91.6733 13.0418 91.4318 13.0479H88.6945C88.8248 12.9176 88.5642 9.13723 91.5621 9.13723L91.5631 9.13898ZM116.33 15.1351C114.765 13.5708 112.81 12.919 110.465 12.919C109.357 12.9067 108.26 13.1333 107.248 13.5831C106.236 14.033 105.332 14.6956 104.599 15.526C103.792 16.3252 103.156 17.2807 102.73 18.334C102.304 19.3874 102.098 20.5165 102.123 21.6524C102.132 23.9365 103.019 26.1297 104.599 27.7788C105.384 28.6141 106.334 29.2772 107.389 29.726C108.443 30.1748 109.58 30.3994 110.726 30.3857C112.523 30.4091 114.289 29.9111 115.81 28.9518C116.193 28.691 116.543 28.3843 116.852 28.0387L116.983 27.9084C116.982 27.8912 116.985 27.8741 116.992 27.8581C116.998 27.8421 117.008 27.8276 117.02 27.8155C117.032 27.8033 117.047 27.7937 117.063 27.7873C117.079 27.7809 117.096 27.7777 117.113 27.7781V27.6478C117.219 27.4015 117.264 27.1331 117.243 26.8656C117.277 26.6398 117.231 26.4092 117.113 26.2138C116.91 25.8536 116.587 25.5765 116.2 25.4317C115.865 25.3002 115.492 25.3002 115.157 25.4317C115.027 25.4317 114.896 25.562 114.766 25.562C114.505 25.6923 114.375 25.8226 114.114 25.9529C113.072 26.735 111.898 26.9956 110.465 26.866C109.844 26.8396 109.235 26.6874 108.675 26.4185C108.114 26.1496 107.615 25.7696 107.206 25.3017C106.611 24.6391 106.206 23.8286 106.033 22.9553H117.112C117.356 22.9805 117.602 22.9461 117.829 22.8553C118.056 22.7644 118.257 22.6198 118.416 22.4338C118.589 22.2932 118.727 22.1137 118.818 21.9098C118.908 21.706 118.949 21.4836 118.938 21.2608V21.1305C118.898 18.8652 117.96 16.7083 116.331 15.1344L116.33 15.1351ZM105.902 19.8275C106.032 18.9144 106.554 18.133 107.336 17.3508C108.118 16.5687 109.162 16.1778 110.594 16.0472C111.883 16.0609 113.127 16.5217 114.114 17.3508C114.884 17.9618 115.471 18.7739 115.808 19.6972H105.902V19.8275Z" fill="url(#paint0_linear_32727_80817)"/>
<defs>
<linearGradient id="paint0_linear_32727_80817" x1="88.564" y1="5.22852" x2="88.564" y2="30.4475" gradientUnits="userSpaceOnUse">
<stop stop-color="white"/>
<stop offset="1" stop-color="white" stop-opacity="0.6"/>
</linearGradient>
</defs>
</svg>
