<svg width="74" height="40" viewBox="0 0 74 40" fill="none" xmlns="http://www.w3.org/2000/svg">
<path fill-rule="evenodd" clip-rule="evenodd" d="M17.0324 39.665H57.0683L73.3045 20L57.0683 0.334961H17.0324L0.695312 20L17.0324 39.665ZM56.1607 37.648H17.8392L3.31731 19.8991L17.94 2.35188H56.1607L70.7834 20.1008L56.1607 37.5472V37.648ZM17.8392 19.5966V26.555H15.6205V11.2263H19.9569C21.1671 11.2263 21.9738 11.5289 22.7806 12.2348C23.3857 13.0416 23.7891 13.9492 23.7891 15.2602C23.8069 16.0428 23.5967 16.8136 23.184 17.4788C22.8815 18.0839 22.3772 18.4873 21.7722 18.7898C22.0747 18.8907 22.3772 19.1932 22.6798 19.4957L23.0832 21.0084L23.6882 26.555H21.4696L20.9654 21.2101C20.8645 20.7059 20.7637 20.3025 20.4612 20.1008C20.2595 19.8991 19.9569 19.6974 19.4527 19.6974H17.8392V19.5966ZM17.8392 13.1424V17.5797H19.8561C20.3603 17.5797 20.8645 17.4788 21.0662 17.0754C21.4696 16.672 21.5705 16.067 21.5705 15.361C21.5705 14.5543 21.3688 14.05 21.0662 13.6467C20.8645 13.3441 20.3603 13.1424 19.8561 13.1424H17.8392ZM30.9492 26.2524C30.4449 26.555 29.739 26.7567 28.9322 26.7567C28.1255 26.7567 27.5204 26.555 26.9153 26.1516C26.3102 25.849 25.806 25.244 25.5035 24.538C25.1001 23.933 24.9992 23.0253 24.9992 22.1177V20.1008C24.9992 19.0923 25.1001 18.2856 25.5035 17.5797C25.8123 16.9355 26.2995 16.3935 26.9073 16.0181C27.5152 15.6426 28.2179 15.4496 28.9322 15.4619C29.739 15.4619 30.3441 15.6636 30.9492 16.067C31.5542 16.4703 32.0585 16.9746 32.361 17.6805C32.7644 18.3864 32.8652 19.1932 32.8652 20.1008V22.2186C32.8652 23.227 32.7644 24.0338 32.361 24.6389C32.0585 25.3448 31.5542 25.9499 30.9492 26.2524ZM27.5204 24.1347C27.9238 24.538 28.3272 24.7397 28.9322 24.7397C29.5373 24.7397 29.9407 24.538 30.3441 24.1347C30.6466 23.6304 30.8483 23.0253 30.8483 22.1177V19.8991C30.9001 19.2219 30.7225 18.547 30.3441 17.983C29.9407 17.5797 29.5373 17.378 28.9322 17.378C28.3272 17.378 27.9238 17.5797 27.5204 17.983C27.142 18.547 26.9644 19.2219 27.0162 19.8991V22.2186C27.0162 23.0253 27.2178 23.6304 27.5204 24.1347ZM41.1346 25.849C40.5295 26.4541 39.6219 26.8575 38.6135 26.8575C37.4033 26.8575 36.3948 26.3533 35.6889 25.5465C34.9454 24.565 34.5867 23.3454 34.6805 22.1177V20.1008C34.5867 18.8731 34.9454 17.6535 35.6889 16.672C36.4957 15.7644 37.4033 15.361 38.7143 15.361C39.7228 15.361 40.6304 15.6636 41.2355 16.3695C41.8405 16.8737 42.2439 17.7813 42.4456 18.8907L40.4287 19.3949C40.227 17.983 39.6219 17.378 38.6135 17.378C38.0084 17.378 37.605 17.5797 37.2016 17.983C36.8991 18.4873 36.6974 19.0923 36.6974 19.8991V22.2186C36.6974 23.0253 36.8991 23.6304 37.2016 24.1347C37.605 24.538 38.0084 24.7397 38.6135 24.7397C39.1177 24.7397 39.5211 24.6389 39.8236 24.2355C40.1262 23.933 40.3279 23.4287 40.4287 22.7228L42.4456 23.227C42.2439 24.3363 41.8405 25.244 41.1346 25.849ZM46.0761 19.294V26.555H44.0592V11.2263H46.0761V16.4703C46.2778 16.1678 46.5803 15.9661 47.0845 15.6636C47.5238 15.4503 48.0083 15.3465 48.4964 15.361C49.5048 15.361 50.2108 15.6636 50.715 16.3695C51.2192 16.8737 51.5218 17.7813 51.5218 18.8907V26.555H49.5048V19.294C49.5048 18.689 49.3032 18.1847 49.0006 17.7813C48.6981 17.4788 48.2947 17.2771 47.7905 17.2771C47.2862 17.2771 46.782 17.4788 46.5803 17.7813C46.3702 18.0092 46.2154 18.2823 46.128 18.5796C46.0405 18.877 46.0228 19.1904 46.0761 19.4957V19.294ZM59.7912 16.5712C60.3962 17.378 60.7996 18.5881 60.7996 19.8991V21.5127H55.1522V22.4203C55.1522 23.227 55.3539 23.8321 55.6565 24.3363C56.0598 24.7397 56.4632 24.9414 56.9675 24.9414C57.4717 24.9414 57.8751 24.8406 58.1776 24.4372C58.4802 24.1347 58.6818 23.7313 58.7827 23.1262L60.5979 23.5296C60.4971 24.538 60.0937 25.3448 59.4886 25.9499C58.7827 26.555 57.9759 26.8575 56.9675 26.8575C55.7573 26.8575 54.9505 26.4541 54.1438 25.5465C53.4378 24.7397 53.1353 23.5296 53.1353 22.1177V20.1008C53.1353 19.0923 53.2362 18.3864 53.6395 17.5797C53.9421 16.9746 54.4463 16.3695 54.9505 15.9661C55.5556 15.6636 56.2615 15.4619 56.9675 15.4619C58.1776 15.4619 58.9844 15.8653 59.7912 16.672V16.5712ZM58.3793 17.8822C57.9759 17.378 57.5725 17.1763 56.9675 17.1763C56.4632 17.1763 55.959 17.378 55.7573 17.8822C55.3539 18.2856 55.2531 18.8907 55.2531 19.6974V20H58.7827V19.5966C58.8212 18.9978 58.6808 18.401 58.3793 17.8822Z" fill="white"/>
</svg>
