<svg width="165" height="20" viewBox="0 0 165 20" fill="none" xmlns="http://www.w3.org/2000/svg">
<path d="M158.58 4.69678C160.134 4.69678 161.696 5.20552 162.75 6.13623C163.905 7.15631 164.479 8.66758 164.479 10.1812C164.478 11.6701 163.872 13.1645 162.75 14.1187C161.691 15.0193 160.162 15.4224 158.58 15.4224C157.422 15.4224 156.342 15.1258 155.431 14.6138C155.071 14.4116 154.738 14.176 154.436 13.9116V19.105H150.926V4.93896H154.436V6.13623C155.501 5.14239 156.966 4.69678 158.58 4.69678ZM17.2412 18.0337H8.75781V9.46533H17.2412V18.0337ZM61.0977 4.4751C62.2712 4.4751 63.3071 4.6229 64.2051 4.91943C65.1029 5.21596 65.8559 5.61009 66.4639 6.10205C67.0718 6.59401 67.5317 7.1671 67.8428 7.8208C68.1538 8.47444 68.3086 9.16531 68.3086 9.89307C68.3086 10.823 68.1143 11.6415 67.7256 12.3491C67.3368 13.0567 66.81 13.6539 66.1455 14.1392C65.481 14.6243 64.7031 14.9884 63.8125 15.231C62.9217 15.4735 61.9744 15.5942 60.9707 15.5942C59.8678 15.5942 58.8638 15.4635 57.959 15.2007C57.0542 14.9379 56.28 14.5668 55.6367 14.0884C54.9934 13.6098 54.4914 13.0297 54.1309 12.3491C53.7705 11.6686 53.5899 10.9041 53.5898 10.0552C53.5898 9.1927 53.7805 8.41729 54.1621 7.72998C54.5438 7.04271 55.0708 6.45636 55.7422 5.97119C56.4139 5.48596 57.2062 5.11497 58.1182 4.85889C59.03 4.60283 60.0232 4.47511 61.0977 4.4751ZM98.8262 4.53467C99.1938 4.53467 99.6152 4.55781 100.089 4.60498C100.562 4.65217 101.05 4.74672 101.552 4.88818C102.054 5.0297 102.552 5.22879 103.047 5.48486C103.542 5.74096 103.994 6.07777 104.404 6.49561C104.758 6.85947 105.034 7.22657 105.231 7.59717C105.429 7.96774 105.575 8.33488 105.667 8.69873C105.759 9.06265 105.815 9.41049 105.836 9.74072C105.857 10.0707 105.868 10.3637 105.868 10.6196H95.2207C95.2631 10.7813 95.3346 10.9976 95.4336 11.2671C95.5326 11.5365 95.6811 11.779 95.8789 11.9946C96.2465 12.4258 96.7055 12.7297 97.2568 12.9048C97.8083 13.08 98.3744 13.1675 98.9541 13.1675C99.5196 13.1675 100.001 13.1101 100.396 12.9956C100.792 12.8811 101.124 12.7492 101.393 12.6011C101.661 12.4528 101.87 12.298 102.019 12.1362C102.167 11.9747 102.283 11.8467 102.368 11.7524L105.995 12.0952C105.203 13.3352 104.182 14.2249 102.931 14.7642C101.679 15.3033 100.297 15.5728 98.7842 15.5728C97.8652 15.5728 96.9601 15.4753 96.0693 15.2798C95.1786 15.0843 94.3725 14.7033 93.6514 14.1372C92.9305 13.5847 92.4145 12.931 92.1035 12.1763C91.7925 11.4216 91.6367 10.6804 91.6367 9.95264C91.6367 9.00913 91.8309 8.19678 92.2197 7.51611C92.6085 6.83559 93.1355 6.27336 93.7998 5.82861C94.4644 5.38381 95.2283 5.05608 96.0908 4.84717C96.9531 4.63832 97.865 4.5347 98.8262 4.53467ZM122.397 4.43213C122.665 4.43213 122.995 4.44218 123.384 4.4624C123.772 4.48263 124.186 4.53391 124.625 4.61475C125.063 4.69562 125.505 4.81329 125.95 4.96826C126.396 5.12325 126.817 5.33549 127.212 5.60498C127.749 5.98233 128.113 6.36347 128.304 6.74756C128.494 7.13149 128.626 7.44446 128.696 7.68701L125.07 7.90967C124.914 7.54593 124.607 7.24606 124.147 7.01025C123.688 6.77438 123.034 6.65674 122.186 6.65674C121.464 6.65676 120.878 6.74424 120.425 6.91943C119.973 7.09466 119.747 7.34402 119.747 7.66748C119.747 7.88303 119.838 8.04504 120.022 8.15283C120.207 8.2605 120.419 8.34115 120.658 8.39502C120.813 8.43543 120.969 8.46963 121.125 8.49658C121.28 8.52353 121.493 8.55372 121.762 8.5874C122.029 8.6211 122.391 8.6583 122.843 8.69873C123.296 8.73916 123.904 8.79249 124.667 8.85986C125.077 8.90029 125.495 8.95157 125.919 9.01221C126.343 9.07287 126.738 9.19055 127.105 9.36572C127.629 9.59486 128.032 9.92865 128.314 10.3667C128.597 10.8047 128.739 11.2996 128.739 11.8521C128.739 12.2834 128.647 12.6985 128.464 13.0962C128.28 13.4936 128.025 13.8337 127.7 14.1167C127.502 14.2918 127.255 14.4639 126.958 14.6323C126.661 14.8008 126.3 14.9526 125.876 15.0874C125.452 15.2221 124.954 15.3298 124.381 15.4106C123.808 15.4915 123.14 15.5317 122.376 15.5317C121.145 15.5317 120.12 15.4312 119.301 15.229C118.48 15.0269 117.812 14.7604 117.297 14.4302C116.781 14.1 116.392 13.7189 116.131 13.2876C115.868 12.8563 115.674 12.4118 115.547 11.9536L119.301 11.6909C119.399 12.0278 119.556 12.2974 119.768 12.4995C119.98 12.7016 120.231 12.8597 120.521 12.9741C120.811 13.0887 121.125 13.1661 121.464 13.2065C121.803 13.2469 122.143 13.2681 122.482 13.2681C122.807 13.2681 123.122 13.258 123.426 13.2378C123.73 13.2175 124.03 13.1532 124.327 13.0454C124.37 13.0319 124.433 13.0078 124.519 12.9741C124.603 12.9405 124.691 12.8902 124.783 12.8228C124.875 12.7555 124.953 12.6748 125.017 12.5806C125.08 12.4863 125.112 12.3646 125.112 12.2163C125.112 11.8658 124.903 11.6296 124.486 11.5083C124.07 11.387 123.458 11.2723 122.651 11.1646C122.227 11.1106 121.803 11.0704 121.379 11.0435C120.955 11.0166 120.531 10.9762 120.106 10.9224C119.824 10.8954 119.459 10.8411 119.014 10.7603C118.569 10.6794 118.135 10.5384 117.711 10.3364C117.287 10.1343 116.918 9.8476 116.607 9.47705C116.297 9.10638 116.141 8.61075 116.141 7.99072C116.141 7.38423 116.297 6.85533 116.607 6.40381C116.918 5.95228 117.353 5.5813 117.912 5.2915C118.47 5.00178 119.131 4.78652 119.895 4.64502C120.658 4.50351 121.493 4.43215 122.397 4.43213ZM73.7061 4.93896H76.1025V6.92041H73.7061V11.5503C73.7061 12.049 73.8087 12.3757 74.0137 12.5308C74.2187 12.6857 74.5687 12.7632 75.0635 12.7632C75.3036 12.7632 75.4944 12.7602 75.6357 12.7534C75.7771 12.7467 75.9402 12.7296 76.124 12.7026V15.0884C75.6999 15.1288 75.2749 15.166 74.8506 15.1997C74.4265 15.2333 74.0022 15.2505 73.5781 15.2505C73.2106 15.2505 72.8467 15.2264 72.4863 15.1792C72.1258 15.1321 71.7969 15.0345 71.5 14.8862C71.1889 14.7245 70.948 14.5425 70.7783 14.3403C70.6088 14.1382 70.4822 13.9258 70.3975 13.7036C70.3126 13.4812 70.2632 13.255 70.249 13.0259C70.2349 12.797 70.2275 12.5883 70.2275 12.3999V6.92041H68.4883V4.93896H70.2275V2.20947H73.7061V4.93896ZM25.7207 15.1772H18.6514V8.03564H7.33984V15.1772H0.269531V0.89502H25.7207V15.1772ZM80.9141 6.23291C80.9847 6.16553 81.0837 6.074 81.2109 5.95947C81.3381 5.84501 81.5005 5.72714 81.6982 5.60596C82.2355 5.25551 82.8227 5.01321 83.459 4.87842C84.0952 4.74368 84.7457 4.67627 85.4102 4.67627C85.7353 4.67628 86.0891 4.69639 86.4707 4.73682C86.8522 4.77725 87.2374 4.85075 87.626 4.9585C88.0147 5.06627 88.3859 5.21124 88.7393 5.39307C89.0927 5.57503 89.4116 5.80825 89.6943 6.09131C89.9204 6.32032 90.0974 6.55586 90.2246 6.79834C90.3519 7.04096 90.4434 7.28424 90.5 7.52686C90.5565 7.76937 90.5923 8.00885 90.6064 8.24463C90.6206 8.48039 90.627 8.71991 90.627 8.9624V15.1694H87.1064V9.60889C87.1064 9.32586 87.0891 9.02922 87.0537 8.71924C87.0183 8.40928 86.88 8.11964 86.6396 7.8501L86.4492 7.66846C86.3502 7.5741 86.2019 7.47559 86.0039 7.37451C85.806 7.27344 85.5549 7.18291 85.251 7.10205C84.9471 7.02121 84.5759 6.98098 84.1377 6.98096C83.5863 6.98096 83.1017 7.04131 82.6846 7.1626C82.2675 7.2839 81.9102 7.45887 81.6133 7.68799C81.2881 7.95757 81.0902 8.21392 81.0195 8.45654C80.9488 8.69915 80.9141 8.97564 80.9141 9.28564V15.1694H77.4141V0.89502H80.9141V6.23291ZM115.306 7.60791C115.15 7.59445 115.006 7.58437 114.871 7.57764C114.737 7.5709 114.579 7.5669 114.395 7.56689C114.324 7.56689 114.199 7.5709 114.022 7.57764C113.846 7.58437 113.648 7.60048 113.429 7.62744C113.209 7.6544 112.98 7.69864 112.74 7.75928C112.499 7.81991 112.274 7.90443 112.062 8.01221C111.524 8.28177 111.181 8.60856 111.033 8.99268C110.884 9.37676 110.811 9.79111 110.811 10.2358V15.1694H107.289V4.93896H110.811V6.69775C110.937 6.50913 111.097 6.2968 111.287 6.06104C111.478 5.82522 111.744 5.59892 112.083 5.3833C112.422 5.16778 112.85 4.9856 113.366 4.8374C113.881 4.68922 114.528 4.60869 115.306 4.59521V7.60791ZM133.512 6.23291C133.582 6.16554 133.681 6.074 133.809 5.95947C133.936 5.84497 134.098 5.72719 134.296 5.60596C134.834 5.25551 135.421 5.01321 136.058 4.87842C136.694 4.74368 137.344 4.67627 138.008 4.67627C138.333 4.67627 138.687 4.69638 139.068 4.73682C139.451 4.77724 139.835 4.85074 140.224 4.9585C140.612 5.06631 140.984 5.21115 141.338 5.39307C141.691 5.57503 142.009 5.80826 142.292 6.09131C142.518 6.32033 142.695 6.55585 142.822 6.79834C142.95 7.04096 143.042 7.28424 143.098 7.52686C143.154 7.76938 143.19 8.00885 143.204 8.24463C143.219 8.48039 143.226 8.71991 143.226 8.9624V15.1694H139.704V9.60889C139.704 9.32586 139.688 9.02922 139.652 8.71924C139.617 8.40927 139.478 8.11964 139.238 7.8501L139.048 7.66846C138.948 7.57412 138.801 7.47558 138.603 7.37451C138.404 7.27346 138.154 7.1829 137.85 7.10205C137.545 7.02119 137.173 6.98096 136.735 6.98096C136.184 6.98096 135.7 7.04137 135.283 7.1626C134.867 7.28386 134.509 7.45898 134.212 7.68799C133.886 7.95757 133.689 8.21392 133.618 8.45654C133.547 8.69915 133.512 8.97564 133.512 9.28564V15.1694H130.012V0.89502H133.512V6.23291ZM148.825 15.1694H145.348V4.93896H148.825V15.1694ZM41.3887 9.62939C41.4876 9.8585 41.5729 10.0606 41.6436 10.2358C41.7142 10.4109 41.7775 10.576 41.834 10.731C41.8905 10.886 41.9437 11.0448 41.9932 11.2065C42.0427 11.3682 42.0958 11.5503 42.1523 11.7524C42.1947 11.6041 42.2342 11.4624 42.2695 11.3276C42.3049 11.1928 42.347 11.0542 42.3965 10.9126C42.4459 10.7712 42.5066 10.6099 42.5771 10.4282C42.6478 10.2463 42.7394 10.0332 42.8525 9.79053L46.7549 0.89502H52.1211V15.1685H48.5791V5.18115C48.5791 4.9655 48.5928 4.75637 48.6211 4.5542C48.6494 4.35214 48.6852 4.11651 48.7275 3.84717C48.6569 4.06268 48.5963 4.23481 48.5469 4.36279C48.4974 4.49084 48.4167 4.68319 48.3037 4.93896L43.8281 15.1685H40.4131L35.9385 5.14111C35.882 5.0065 35.8361 4.89164 35.8008 4.79736L35.6943 4.51416C35.659 4.41988 35.6269 4.3222 35.5986 4.22119C35.5704 4.1202 35.5355 3.99526 35.4932 3.84717C35.5073 3.99526 35.521 4.1202 35.5352 4.22119C35.5492 4.32199 35.5603 4.41603 35.5674 4.50342C35.5745 4.59103 35.5818 4.68251 35.5889 4.77686C35.5959 4.8712 35.606 4.98586 35.6201 5.12061V15.1685H32.0781V0.89502H37.4863L41.3887 9.62939ZM157.375 6.85889C156.805 6.8589 156.31 6.95155 155.891 7.13721C155.472 7.32294 155.126 7.5693 154.856 7.87646C154.587 8.18363 154.385 8.53074 154.25 8.9165C154.115 9.30225 154.047 9.69519 154.047 10.0952C154.047 10.6523 154.145 11.1344 154.34 11.5415C154.535 11.9487 154.793 12.285 155.115 12.5493C155.437 12.8133 155.808 13.0096 156.228 13.1382C156.647 13.2667 157.09 13.3315 157.554 13.3315C158.139 13.3315 158.642 13.2415 159.062 13.063C159.48 12.8843 159.825 12.6451 160.095 12.3452C160.365 12.0453 160.567 11.6989 160.702 11.3062C160.837 10.9133 160.904 10.5023 160.904 10.0737C160.904 9.80226 160.863 9.48037 160.78 9.10889C160.698 8.73751 160.529 8.38401 160.274 8.04834C160.02 7.71267 159.664 7.43022 159.207 7.20166C158.75 6.97306 158.139 6.85889 157.375 6.85889ZM60.7793 6.92139C60.1432 6.94838 59.5988 7.05597 59.1465 7.24463C58.6941 7.43332 58.3267 7.67265 58.0439 7.9624C57.7612 8.25215 57.5523 8.58205 57.418 8.95264C57.2836 9.3233 57.2168 9.70434 57.2168 10.0952C57.2168 10.2435 57.2489 10.4827 57.3125 10.813C57.3761 11.1431 57.531 11.4801 57.7783 11.8237C58.0257 12.1674 58.4005 12.4711 58.9023 12.7339C59.4043 12.9967 60.1014 13.1284 60.9922 13.1284C61.7131 13.1284 62.3106 13.0298 62.7842 12.8345C63.2577 12.639 63.6399 12.3866 63.9297 12.0767C64.2195 11.7666 64.4211 11.4228 64.5342 11.0454C64.6473 10.6681 64.7031 10.304 64.7031 9.95361C64.7031 9.49537 64.6152 9.07406 64.4385 8.68994C64.2617 8.30581 64.0035 7.97904 63.6641 7.70947C63.3248 7.44 62.9114 7.23478 62.4238 7.09326C61.936 6.95174 61.3873 6.89444 60.7793 6.92139ZM98.3682 6.87939C97.9581 6.87939 97.5367 6.92665 97.1055 7.021C96.6744 7.11536 96.2959 7.2632 95.9707 7.46533C95.6597 7.65402 95.437 7.86014 95.3027 8.08252C95.1685 8.30485 95.0447 8.53726 94.9316 8.77979H101.612C101.584 8.59117 101.51 8.36569 101.39 8.10303C101.269 7.84019 101.026 7.60696 100.658 7.40479C100.404 7.25659 100.075 7.13181 99.6719 7.03076C99.2691 6.92974 98.8345 6.87943 98.3682 6.87939ZM148.825 3.15967H145.348V0.89502H148.825V3.15967Z" fill="url(#paint0_linear_32727_80724)"/>
<defs>
<linearGradient id="paint0_linear_32727_80724" x1="153.06" y1="0.89502" x2="153.06" y2="13.525" gradientUnits="userSpaceOnUse">
<stop stop-color="white"/>
<stop offset="1" stop-color="white" stop-opacity="0.6"/>
</linearGradient>
</defs>
</svg>
