<svg width="128" height="20" viewBox="0 0 128 20" fill="none" xmlns="http://www.w3.org/2000/svg">
<path d="M33.4014 13.9614C33.4014 15.3963 34.4428 16.2222 37.1094 16.2222C39.7758 16.2221 40.8174 15.3963 40.8174 13.9614V1.08057H45.7695V14.3325C45.7695 17.0194 43.8137 19.3403 37.1348 19.3403C30.4556 19.3403 28.5 17.0194 28.5 14.3325V1.08057H33.4014V13.9614ZM4.06543 17.6313C7.26767 18.9694 8.84501 15.9427 11.542 16.8442L11.5566 16.8472C14.274 15.9431 15.8489 18.9701 19.0488 17.6343L19.2012 17.8374C15.9505 20.8442 14.2739 16.6791 12.0645 17.0601C12.8517 17.4766 13.538 18.0255 14.1221 18.6782L13.4873 19.3384C12.7762 18.1575 12.1408 17.517 11.5566 17.23C10.97 17.517 10.3429 18.1575 9.63184 19.3384C9.35258 19.054 9.25083 18.932 8.99707 18.6782C9.58118 18.0255 10.2748 17.4766 11.0469 17.0601C8.83744 16.6791 7.16115 20.8436 3.91309 17.8345L4.06543 17.6313ZM81.5273 0.658691C87.6299 0.65874 90.0752 2.38152 90.0752 5.33252V14.5454C90.0752 17.4964 87.6273 19.2182 81.5273 19.2183C75.4272 19.2183 72.9785 17.4965 72.9785 14.5454V5.3374C72.9785 2.38636 75.4323 0.658691 81.5273 0.658691ZM120.69 0.740723C122.697 0.740723 124.704 0.930482 126.659 1.31396L126.404 3.28271C124.551 2.95261 122.671 2.78252 120.767 2.7749C116.907 2.77492 116.195 3.33386 116.195 5.3833C116.195 7.83105 116.196 8.01367 120.894 8.88721C127.166 10.0631 127.497 10.8331 127.497 14.2896C127.497 17.3624 126.303 19.1401 119.802 19.1401L119.769 19.1421C117.534 19.1497 115.312 18.8377 113.166 18.2104L113.674 16.3491C115.693 16.8468 117.762 17.0952 119.845 17.0952C123.641 17.0952 124.416 16.3744 124.416 14.353C124.416 11.9607 124.381 11.6686 119.515 10.8433C113.813 9.88585 113.141 8.98155 113.141 5.31201C113.141 2.2264 114.842 0.740752 120.69 0.740723ZM102.781 1.08057C107.86 1.08058 109.612 2.73154 109.612 5.44385V8.07764C109.612 10.8203 107.835 12.4663 102.756 12.4663H97.2705V18.8149H94.2227V1.08545L94.2305 1.08057H102.781ZM63.6045 13.7104V1.08545H68.2598V18.8022H62.1299L54.6836 6.72412V18.7974H50.0234V1.08057H56.1182L63.6045 13.7104ZM4.26074 13.3296C6.36327 14.6248 6.0132 16.5796 8.62891 16.4272L8.53711 16.6567H8.56055V16.6821C6.75742 17.698 3.73491 18.5355 1.27148 14.3706L1.5 14.2437C3.02372 15.8943 3.96361 15.4877 5.4873 16.478L5.63965 16.2749C4.5554 15.0814 4.61826 14.4977 4.04688 13.4819L4.26074 13.3296ZM19.0332 13.4536C18.4567 14.4695 18.5385 15.054 17.4414 16.2476L17.5986 16.4507V16.4526H17.6143C19.1377 15.4626 20.0779 15.8688 21.627 14.2183L21.8477 14.3452C19.3893 18.5356 16.359 17.698 14.5635 16.6567C14.5635 16.6567 14.5152 16.5161 14.4746 16.4146C17.0904 16.5517 16.7353 14.5965 18.8203 13.3013C18.8944 13.3581 19.0261 13.4487 19.0332 13.4536ZM81.5322 2.70361C77.8092 2.70361 76.0313 3.22671 76.0312 5.41064V14.4692C76.0312 16.6508 77.8091 17.1772 81.5322 17.1772C85.2553 17.1772 87.0332 16.6533 87.0332 14.4692V5.41064C87.0331 3.22926 85.2552 2.70362 81.5322 2.70361ZM11.5439 0.658691C15.8206 0.658691 19.2899 4.12817 19.29 8.40479C19.29 12.6815 15.8232 16.1509 11.5439 16.1509C7.26479 16.1508 3.79785 12.6814 3.79785 8.40479C3.79798 4.12825 7.26487 0.658814 11.5439 0.658691ZM7.7168 12.6001L6.625 13.6997C7.89735 14.8857 9.55587 15.572 11.293 15.6304V14.0815C9.96475 14.0231 8.70002 13.4991 7.71973 12.6001H7.7168ZM15.3818 12.6001C15.2652 12.7065 15.1437 12.8071 15.0195 12.9028L15.1543 13.019L14.5195 14.2642L13.9346 14.6958H13.7061L12.8203 13.9429C12.4898 14.0186 12.1516 14.0664 11.8086 14.0815V15.6274C13.5456 15.569 15.2039 14.8837 16.4736 13.6978L15.3818 12.6001ZM0.265625 9.7915C0.641463 11.1806 1.98203 11.8818 2.64746 13.1362L2.87598 13.0171C2.36045 11.3562 2.8184 11.0511 2.64062 9.96924L2.89453 9.92334C4.39289 12.5213 2.84898 12.4707 4.48438 15.2261L4.30664 15.4038H4.30371V15.4097C4.13864 15.3335 0.00665798 14.1141 0.0117188 9.82471L0.265625 9.7915ZM23.0869 9.80908C23.0869 14.101 18.9727 15.3335 18.7949 15.397L18.6172 15.2192C20.2425 12.469 18.7188 12.5243 20.1914 9.9292V9.93115L20.4707 9.95654C20.2929 11.0486 20.7247 11.3536 20.2168 13.0044L20.4453 13.1235C21.131 11.869 22.4521 11.1654 22.833 9.77881L23.0869 9.80908ZM11.8008 13.563C12.034 13.5515 12.2648 13.5232 12.4922 13.481L12.5889 13.1216L12.1445 13.1724L11.8008 12.9741V13.563ZM8.5332 11.7661L9.0791 12.4097L8.97754 12.562L8.59668 12.5112L8.48242 12.5581C9.29495 13.1453 10.2676 13.4883 11.2852 13.5532V12.6782L10.8164 12.4097L10.6387 11.978L10.6797 11.9028C10.1268 11.767 9.61073 11.5016 9.17676 11.1274V11.1147L8.5332 11.7661ZM17.2178 8.66455C17.1686 9.82977 16.7557 10.9475 16.0479 11.8667L16.1289 11.9351L16.2559 12.4175L16.1377 12.6372L16.8369 13.3423V13.3267C18.0227 12.057 18.7081 10.4014 18.7666 8.66455H17.2178ZM4.34473 8.66943C4.42209 10.4045 5.10745 12.0582 6.27441 13.3267L7.13184 12.4683L6.68457 12.1558L6.49121 11.7749L5.90723 11.4956L5.65332 11.1021L5.54688 11.3003L5.08984 10.9956L4.92188 10.4878L5.04395 10.0249H5.20605L5.29785 10.1265L5.39941 10.0962L5.4502 9.95459L5.6123 9.90381L6.15039 10.1499C5.99357 9.6742 5.89729 9.17671 5.86816 8.66943H4.34473ZM14.5449 11.978L14.5703 12.2319L14.915 12.3149C14.9459 12.2882 14.9775 12.2624 15.0078 12.2349L14.6758 11.8999L14.5449 11.978ZM15.3008 8.67139L15.5449 9.0376L15.7734 9.18994L15.9512 9.59619L15.2656 9.79932L15.1133 9.69775L15.0625 9.90576L14.9355 9.94873L14.8887 9.78662C14.8293 9.93096 14.7582 10.0699 14.6807 10.2056L14.8418 10.3374L14.5771 11.0737L14.6982 11.1978L14.71 11.1753L14.8115 10.8354H14.9609L15.0371 11.2417L15.0029 11.5093L15.3613 11.8765C16.1485 10.9978 16.6308 9.86493 16.707 8.67139H15.3008ZM0.80957 5.52979C0.631801 7.71381 1.11418 7.35866 1.49512 8.93311L1.74902 8.91846C1.96489 7.39469 2.34562 7.47043 2.75195 6.37842L3.00586 6.43701C3.38672 9.06027 2.04606 9.01485 2.21875 11.4478L1.96484 11.5239H1.9541C1.49665 11.1096 -0.863842 8.55224 0.555664 5.46436L0.80957 5.52979ZM22.5303 5.45166C23.9523 8.5498 21.5962 11.0891 21.1338 11.521L20.8799 11.4448C21.0525 9.01459 19.7119 9.06278 20.0928 6.43701L20.3467 6.37842C20.753 7.46277 21.1308 7.39471 21.3467 8.91846L21.6016 8.93311V8.88037C21.9622 7.33124 22.4414 7.68632 22.2764 5.50244L22.5303 5.45166ZM10.6377 9.67529L9.5459 10.7671C9.97293 11.1299 10.4906 11.3683 11.04 11.4575L11.2852 11.2983V9.9292C11.0567 9.89366 10.8408 9.80723 10.6504 9.67529H10.6377ZM13.7559 11.2476L14.0742 11.4302L14.1807 11.4019L13.9082 11.1274C13.8592 11.1699 13.8069 11.2079 13.7559 11.2476ZM13.1602 10.7593L13.0205 10.6069L12.9189 10.7339V10.8608L12.6904 10.9116L12.2588 10.7085L11.7949 11.0288L11.7939 11.1929L11.9082 11.2163L12.0605 11.1147H12.3145L12.4922 11.2925L12.5879 11.3149C12.9318 11.1906 13.2536 11.0077 13.5352 10.7671L13.3643 10.5972L13.1602 10.7593ZM7.80469 8.93311L7.85547 9.3501L8.24121 10.2388L8.18262 10.7876L8.41992 11.1694L8.81934 10.772C8.34993 10.2302 8.05245 9.56136 7.96777 8.85107L7.80469 8.93311ZM11.7979 10.689L11.8779 10.6831L11.7979 10.5854V10.689ZM12.752 10.2563V10.4595L12.9805 10.4849L13.1387 10.3726L13.001 10.2358L12.8789 10.1802L12.752 10.2563ZM97.2803 10.4194H102.683C105.593 10.4194 106.715 9.80427 106.715 7.76514V5.78369C106.702 3.83879 105.582 3.13045 102.683 3.13037H97.2803V10.4194ZM8.55469 9.22021C8.67197 9.64886 8.88117 10.05 9.16699 10.3931L9.89746 9.66064L9.6582 9.42041L9.68359 9.30908L8.5918 9.11084L8.55469 9.22021ZM11.7998 10.3335L11.8096 10.3276L11.7998 10.3179V10.3335ZM13.2852 9.72021L13.3115 9.7876L13.626 10.1089L13.7168 9.98193L13.6406 9.77881L13.4883 9.58643L13.2852 9.72021ZM11.8027 9.9292L11.8018 10.0649L11.8916 9.90967C11.8622 9.91604 11.8326 9.92455 11.8027 9.9292ZM16.4287 9.32471V9.44092L16.3193 9.55811L16.0811 9.3501V9.18701L16.2256 9.1792L16.4287 9.32471ZM11.6143 7.50635L11.1816 7.58252V7.8667L10.9023 7.97803L10.9277 8.4458L10.8008 8.47119L10.5215 8.28076L10.5205 8.27979C10.516 8.31839 10.5127 8.35746 10.5127 8.39697C10.5127 8.54024 10.5438 8.67878 10.5986 8.80518L10.8516 8.73779V8.59521L11.0039 8.55225L11.0293 8.69482L10.8115 9.12354C10.8372 9.14998 10.8643 9.17507 10.8926 9.19873L11.1084 8.96924L11.21 8.69482L11.6367 8.6792L11.6875 8.72998V8.73291L11.5527 9.18994L11.2412 9.39014C11.3378 9.42102 11.4404 9.43896 11.5469 9.43896C12.0979 9.43888 12.5459 9.00852 12.5771 8.46533L12.4697 8.34619L12.5635 8.2251C12.5539 8.15994 12.5372 8.09723 12.5156 8.03662L12.4951 8.02393L12.5 7.99463C12.4805 7.94684 12.4579 7.90084 12.4316 7.85693H12.3252L12.0205 7.50049L11.8936 7.60205L11.7334 7.37354C11.6769 7.36328 11.6189 7.35668 11.5596 7.35596L11.6143 7.50635ZM6.39355 8.66455C6.40466 8.90077 6.43257 9.13463 6.47559 9.36475L6.8291 8.98193L7.00195 8.95654L7.57324 9.41357L7.54004 8.82959L7.66211 8.66455H6.39355ZM9.99121 8.65381L9.81055 9.01709L10.0928 8.94092C10.0583 8.84806 10.031 8.75241 10.0156 8.65381H9.99121ZM8.45605 8.6665C8.46271 8.74974 8.4728 8.83256 8.48633 8.91455L8.76953 8.93311L8.75781 8.66357L8.45605 8.6665ZM6.25195 3.48096C5.06595 4.75077 4.37736 6.40889 4.31641 8.146H5.86523C5.93126 6.82043 6.45463 5.55829 7.35352 4.58057L6.25391 3.48877H6.25195V3.48096ZM7.71484 4.94092C6.91486 5.82217 6.44415 6.95237 6.38574 8.146H7.94824C7.99903 7.369 8.30374 6.63026 8.81152 6.03857L7.71484 4.94092ZM16.29 4.0249L16.6826 4.43311L16.6445 4.7251L16.9238 4.89502V4.89795L17.4014 5.76123L17.376 5.97217L16.9697 6.14014L16.6191 5.53271L16.4785 5.59326C16.9211 6.36823 17.178 7.24168 17.2178 8.146H18.7666C18.7082 6.40889 18.0229 4.75272 16.8369 3.48291L16.29 4.0249ZM15.0674 5.26221L15.1641 5.35498L15.1387 5.50732L15.291 5.53271L15.5449 5.96436L15.748 5.86279L15.7988 5.93896L15.7227 6.09131L15.9004 6.14209L15.8242 6.396L16.0527 6.44678L16.1543 6.77686L15.9766 7.66553L15.7988 7.92041L15.5957 7.99658L15.5264 8.146H16.0957L16.0811 7.96826L16.2539 7.60205L16.292 7.39893L16.4697 7.30811V7.60791L16.3682 7.68896H16.3652L16.4668 7.8667L16.4863 8.146H16.7119C16.6633 7.00976 16.2411 5.92323 15.4912 5.05908L15.4717 5.05029L15.4688 5.03369C15.4431 5.00453 15.418 4.97444 15.3916 4.9458L15.0674 5.26221ZM8.54102 7.73975L8.48633 7.8833C8.47263 7.96672 8.46276 8.05139 8.45605 8.13623H8.73535L8.71875 7.73975H8.54102ZM14.2744 6.03857C14.4565 6.24774 14.6107 6.4769 14.7383 6.71924L14.7832 6.72607L15.0371 7.05615L14.9609 7.23389L15.0371 7.31006L15.2656 7.13232L15.6211 7.4624L15.4688 7.92041L15.6719 7.86963L15.8242 7.56396L15.6973 6.9292L15.2402 6.62451V6.16748L14.7559 5.56689L14.2744 6.03857ZM2.86133 2.34521C1.88357 3.57185 2.16312 4.30108 2.01074 5.13916L2.26465 5.21533C2.7421 4.54493 3.45808 4.33604 4.13867 3.23389L4.34961 3.37939C3.78071 5.95685 2.46498 5.29185 1.7666 7.55713L1.50781 7.52588C1.19536 6.9664 0.436155 3.44727 2.65039 2.19287L2.86133 2.34521ZM20.4688 2.1958C22.6777 3.44032 21.9161 6.96479 21.6113 7.52881L21.3574 7.5542C20.6463 5.29141 19.3507 5.95164 18.7666 3.37646L18.9697 3.23389C19.6554 4.33354 20.3671 4.54233 20.8242 5.21533V5.21826L21.1289 5.14209C20.9765 4.30407 21.2558 3.5797 20.2656 2.34814L20.4688 2.1958ZM11.8027 6.47217L12.2715 6.60986L12.6885 6.27979L12.7793 6.39404L12.6807 6.71631L12.2744 6.94482L12.2393 7.02002C12.3078 7.05367 12.3751 7.09129 12.4385 7.13525L13.5352 6.03857C13.0475 5.62462 12.4376 5.3757 11.8027 5.31982V6.47217ZM13.6514 6.67725L13.793 7.03076L14.0664 6.63232C14.0165 6.5606 13.9642 6.48963 13.9082 6.42139L13.6514 6.67725ZM9.17676 6.39404C9.0224 6.5767 8.88984 6.77481 8.78223 6.98486L9.42969 6.6499L9.17676 6.39404ZM11.29 5.31201C10.6476 5.36538 10.0379 5.61628 9.54785 6.03271L10.2002 6.68506L10.9639 6.88428L11.0449 6.49561L11.2861 6.35986L11.29 5.31201ZM11.8008 4.82178C12.5778 4.87259 13.3165 5.17727 13.9082 5.68506L14.4307 5.16455L14.0723 4.72021L13.9707 4.33936L14.0215 4.26318L14.6934 4.90479L15.0078 4.59326C14.1241 3.80606 12.9943 3.34817 11.8008 3.27197V4.82178ZM11.2822 3.23682C10.0914 3.2953 8.95887 3.76513 8.0752 4.56494L9.17676 5.66455C9.76595 5.15409 10.508 4.84933 11.2852 4.79346H11.2822V3.23682ZM11.2852 1.19482C9.54805 1.25324 7.88993 1.93948 6.62012 3.12549L7.71191 4.21729C8.69475 3.3208 9.95693 2.79523 11.2852 2.73682V1.19482ZM5.1543 1.31396C4.05718 2.27902 4.36715 2.93207 2.72656 4.10791L2.51367 3.99854C2.79302 3.0133 3.14824 2.13927 5.00195 1.12354L5.1543 1.31396ZM20.3672 4.10791V4.10498H20.373L20.3672 4.10791ZM20.3926 4.10498H20.373L20.3848 4.09912C20.3874 4.10102 20.3899 4.10307 20.3926 4.10498ZM18.1064 1.12158C19.9858 2.12727 20.3163 3.01121 20.5957 3.99658L20.3848 4.09912C18.7429 2.90911 19.0444 2.25016 17.9541 1.31201L18.1064 1.12158ZM11.8027 2.729C12.9325 2.77869 14.0146 3.167 14.916 3.8335L14.9482 3.60303L14.5771 3.32373L14.6592 2.9751L15.4766 3.17822L15.9307 3.65088L16.4707 3.10986C15.1984 1.92398 13.5397 1.23858 11.8027 1.18018V2.729ZM15.5449 2.65283L15.7354 2.94971L15.7227 2.93701L15.6973 2.9624L15.2402 2.78467V2.63232L15.5449 2.65283ZM13 1.66748L13.4248 1.87842V1.94189L13.1963 2.12744L12.9424 2.04541L12.5107 2.18799V2.17529H12.4541L12.1748 1.94678L12.2363 1.87061L12.3779 1.92139L12.8857 1.66748H13Z" fill="url(#paint0_linear_32727_81278)"/>
<defs>
<linearGradient id="paint0_linear_32727_81278" x1="63.8386" y1="0.659668" x2="63.8386" y2="19.3856" gradientUnits="userSpaceOnUse">
<stop stop-color="white"/>
<stop offset="1" stop-color="white" stop-opacity="0.6"/>
</linearGradient>
</defs>
</svg>
