<svg width="100" height="36" viewBox="0 0 100 36" fill="none" xmlns="http://www.w3.org/2000/svg">
<g clip-path="url(#clip0_32727_81130)">
<path d="M41.4219 19.5694V9.39493H45.7165V19.7191C45.7165 21.4398 46.6207 22.5619 48.7303 22.5619C50.6893 22.5619 51.6688 21.3649 51.6688 19.6443V9.39493H55.9634V19.5694C55.9634 23.5345 53.5524 25.9285 48.7303 25.9285C43.8329 26.0033 41.4219 23.6093 41.4219 19.5694ZM57.9224 13.2852H61.765V15.0059H61.8403C62.7445 13.6592 63.95 12.9859 65.6829 12.9859C68.3953 12.9859 69.9776 14.9311 69.9776 17.6991V25.7041H65.9843V18.4473C65.9843 17.1754 65.3062 16.2777 64.0253 16.2777C62.7445 16.2777 61.8403 17.3999 61.8403 18.8961V25.7041H57.8471V13.2852H57.9224ZM72.0119 8.42236H76.0052V11.6393H72.0119V8.42236ZM72.0119 13.2852H76.0052V25.6293H72.0119V13.2852ZM79.0943 22.4123V16.5021H77.4367V13.2852H79.0943V9.39493H82.9369V13.2852H85.1972V16.5021H82.9369V21.5894C82.9369 22.5619 83.4643 22.7864 84.2931 22.7864H85.1972V25.6293C84.8205 25.7041 84.0671 25.8537 83.0122 25.8537C80.7519 25.8537 79.0943 25.1056 79.0943 22.4123ZM87.6836 26.6766H89.0398C90.17 26.6766 90.6974 26.2278 90.6974 25.4048C90.6974 24.8811 90.4714 24.133 89.944 22.8612L86.2521 13.36H90.396L92.0536 18.5969C92.4303 19.7939 92.8071 21.4398 92.8071 21.4398H92.8824C92.8824 21.4398 93.2591 19.7939 93.6359 18.5969L95.2934 13.36H99.2867L94.9921 25.8537C94.0126 28.7714 92.8071 29.7439 90.3207 29.7439H87.759L87.6836 26.6766Z" fill="url(#paint0_linear_32727_81130)"/>
<path d="M32.9825 25.182V8.42393L18.3656 0.0449219V6.47881L24.0918 9.77056C24.3178 9.92018 24.3178 10.2194 24.0918 10.2942L17.3108 14.1845C17.0847 14.3341 16.8587 14.2593 16.708 14.1845L9.92697 10.2942C9.70094 10.2194 9.70094 9.84537 9.92697 9.77056L15.6532 6.47881V0.0449219L0.960938 8.42393V25.182L6.53646 21.965V15.3815C6.53646 15.1571 6.83784 15.0074 6.98853 15.0823L13.7696 18.9725C13.9956 19.1221 14.0709 19.2718 14.0709 19.4962V27.2767C14.0709 27.5011 13.7696 27.6508 13.6189 27.576L7.89266 24.2842L2.31714 27.5011L16.934 35.955L31.5509 27.576L25.9754 24.359L20.2492 27.6508C20.0232 27.8004 19.7971 27.6508 19.7971 27.3515V19.571C19.7971 19.3466 19.9478 19.1221 20.0985 19.0473L26.8796 15.1571C27.1056 15.0074 27.3316 15.1571 27.3316 15.4563V22.0398L32.9825 25.182Z" fill="url(#paint1_linear_32727_81130)"/>
</g>
<defs>
<linearGradient id="paint0_linear_32727_81130" x1="70.3928" y1="8.42236" x2="70.3928" y2="29.7956" gradientUnits="userSpaceOnUse">
<stop stop-color="white"/>
<stop offset="1" stop-color="white" stop-opacity="0.6"/>
</linearGradient>
<linearGradient id="paint1_linear_32727_81130" x1="16.993" y1="0.044922" x2="16.993" y2="36.042" gradientUnits="userSpaceOnUse">
<stop stop-color="white"/>
<stop offset="1" stop-color="white" stop-opacity="0.6"/>
</linearGradient>
<clipPath id="clip0_32727_81130">
<rect width="98.325" height="35.91" fill="white" transform="translate(0.960938 0.0449219)"/>
</clipPath>
</defs>
</svg>
