<svg width="117" height="38" viewBox="0 0 117 38" fill="none" xmlns="http://www.w3.org/2000/svg">
<path d="M29.3916 1.26318C30.2438 0.141744 31.4147 -0.202686 32.7373 0.109863C34.0269 0.414212 34.7946 1.28862 35.0371 2.604C35.7036 6.21297 36.3706 9.82121 37.0381 13.4302C38.0079 18.6733 38.9763 23.9176 39.9502 29.1597C40.2824 30.9465 40.6232 32.7313 40.9678 34.5161C41.364 36.5734 39.4568 38.1696 37.6348 37.9653C36.563 37.8445 35.8129 37.2736 35.1826 36.437C30.5389 30.2778 25.8815 24.128 21.2275 17.9771C21.146 17.8698 21.0525 17.771 20.9111 17.6069C20.4541 18.2043 20.0162 18.7709 19.585 19.3403C15.2229 25.1107 10.8609 30.8813 6.50195 36.6548C5.70135 37.7154 4.63251 38.157 3.34082 37.9517C2.12549 37.7587 1.22329 37.0493 0.901367 35.8608C0.720816 35.1954 0.741538 34.425 0.863281 33.7358C1.54007 29.8866 2.2617 26.0445 2.99316 22.2046C3.84432 17.7404 4.72435 13.2809 5.58789 8.81982C5.99538 6.71529 6.365 4.6036 6.80859 2.50732C7.03351 1.44259 7.67317 0.627012 8.72656 0.251465C9.82627 -0.140464 10.9323 -0.0877458 11.834 0.705566C12.4189 1.22037 12.8788 1.88397 13.3555 2.51123C15.7562 5.67236 18.1436 8.84293 20.5371 12.0103C20.6382 12.1444 20.7529 12.2683 20.918 12.4663V12.4653C22.0466 10.9766 23.1261 9.55506 24.2021 8.13135C25.9323 5.84204 27.6553 3.54733 29.3916 1.26318ZM83.625 9.27979C84.0821 9.32415 84.4075 9.64515 84.457 10.1177C84.4766 10.3053 84.4697 10.4954 84.4697 10.6841C84.4697 13.5893 84.4697 16.4947 84.4707 19.3999C84.4707 20.0878 84.4859 20.101 85.1533 20.103C86.1159 20.1061 87.0795 20.0902 88.041 20.1118C88.8002 20.1283 89.1593 20.4333 89.1904 21.0181C89.2245 21.6649 88.9079 22.0291 88.2529 22.0405C87.2905 22.057 86.3277 22.0463 85.3652 22.0474C84.7689 22.0474 84.4707 22.3535 84.4707 22.9663V33.3843C84.4707 34.7698 84.9965 35.4973 86.3613 35.7026C87.0123 35.8007 87.7352 35.7006 88.377 35.52C89.1525 35.3022 89.5355 34.6628 89.6211 33.8511C89.6974 33.1371 90.0544 32.8138 90.6631 32.854C91.2365 32.8923 91.5532 33.2788 91.5449 33.9565C91.5252 35.5122 90.7427 36.5926 89.3799 37.2456C87.6818 38.0604 85.9817 37.9818 84.3486 37.0503C83.0601 36.3147 82.5345 35.1293 82.5293 33.687C82.5221 31.8651 82.5273 30.0421 82.5273 28.2202C82.5273 26.3807 82.5145 24.5402 82.5361 22.7007C82.5422 22.2173 82.3996 22.0015 81.8945 22.0405C81.5015 22.0715 81.104 22.0537 80.709 22.0444C80.0796 22.0279 79.7506 21.728 79.7207 21.1616C79.6919 20.6057 79.9865 20.2313 80.5889 20.1519C81.0119 20.0961 81.449 20.0798 81.874 20.1128C82.4111 20.1549 82.5412 19.9346 82.5381 19.4282C82.5185 16.5055 82.5271 13.5834 82.5322 10.6606C82.5322 10.406 82.5397 10.1369 82.6211 9.90088C82.7779 9.43981 83.1341 9.23143 83.625 9.27979ZM93.8818 9.42529C94.4832 9.04267 95.2748 9.39075 95.3721 10.0981C95.3999 10.3013 95.3936 10.5101 95.3936 10.7163C95.3946 13.6041 95.3945 16.4926 95.3955 19.3804C95.3955 20.094 95.4058 20.102 96.1104 20.103C96.9697 20.1051 97.8292 20.0987 98.6885 20.106C98.9102 20.108 99.136 20.124 99.3525 20.1704C99.8787 20.2829 100.155 20.6883 100.101 21.231C100.052 21.7096 99.7201 22.0302 99.1992 22.0386C98.1685 22.0551 97.1362 22.0443 96.1045 22.0474C95.4033 22.0494 95.3955 22.0568 95.3955 22.7778C95.3955 26.3361 95.3934 29.8944 95.3955 33.4526C95.3955 34.7897 95.9098 35.4821 97.2354 35.6978C97.8389 35.7958 98.5039 35.7239 99.1064 35.5815C99.9595 35.3803 100.413 34.7485 100.507 33.8706C100.582 33.169 100.945 32.8085 101.535 32.8374C102.129 32.8675 102.487 33.3254 102.463 34.0278C102.409 35.6474 101.404 36.9184 99.6396 37.5054C98.0704 38.0284 96.5476 37.8642 95.1445 36.978C94.0571 36.292 93.4506 35.2913 93.4443 33.979C93.4361 32.1229 93.4424 30.2657 93.4414 28.4097L93.4443 28.4116C93.4443 26.5041 93.4284 24.5955 93.4531 22.688C93.4593 22.1824 93.2808 22.0095 92.7959 22.0415C92.3679 22.0693 91.9368 22.0602 91.5078 22.0396C90.9672 22.0127 90.6355 21.6879 90.5859 21.1772C90.5406 20.7006 90.8415 20.2668 91.3594 20.1802C91.7956 20.108 92.2479 20.1132 92.6924 20.106C93.441 20.0946 93.4434 20.1018 93.4434 19.3735C93.4434 16.3827 93.4456 13.3918 93.4395 10.4009C93.4395 9.99852 93.5156 9.65845 93.8818 9.42529ZM47.1436 9.24951C47.5862 9.29697 47.8529 9.56257 47.9922 9.97217C49.0197 12.9929 50.0456 16.0149 51.0752 19.0356C52.6578 23.6804 54.2424 28.3255 55.8281 32.9692C55.8859 33.1372 55.9743 33.2944 56.1104 33.5933C56.3847 32.8269 56.6156 32.2076 56.8281 31.5825C58.582 26.4157 60.3321 21.2474 62.084 16.0806C62.767 14.0656 63.4486 12.0505 64.1357 10.0376C64.3421 9.43405 64.7419 9.17462 65.2959 9.26025C65.8127 9.33975 66.0801 9.70041 66.0801 10.3472C66.0811 19.1157 66.0811 27.8833 66.0801 36.6519C66.0801 37.3461 65.7354 37.7639 65.1641 37.7847C64.5677 37.8063 64.177 37.3908 64.1367 36.6831C64.1243 36.4603 64.1299 36.2361 64.1299 36.0122V16.8101C64.0742 16.8008 64.0196 16.791 63.9639 16.7827V16.7778C63.8886 16.9737 63.8063 17.1678 63.7393 17.3657C62.591 20.7445 61.4421 24.1246 60.2969 27.5044C59.2394 30.6233 58.1917 33.746 57.127 36.8618C56.8339 37.7201 56.1687 38.0352 55.5693 37.605C55.3766 37.4677 55.217 37.2244 55.1387 36.9966C53.4797 32.1609 51.8363 27.3188 50.1855 22.48C49.5934 20.7426 48.993 19.0082 48.3936 17.2729C48.3306 17.0904 48.2499 16.9152 48.1777 16.7368C48.1232 16.7461 48.0682 16.7548 48.0137 16.7651V36.2251C48.0137 36.4138 48.0192 36.6037 48.0078 36.7925C47.9758 37.3484 47.5905 37.7568 47.082 37.7817C46.5765 37.8065 46.0848 37.3841 46.0156 36.8569C46.0003 36.7385 46.0107 36.617 46.0107 36.4966C46.0107 27.8313 46.0094 19.1667 46.0166 10.5015C46.0166 10.2529 46.06 9.98307 46.1631 9.76025C46.3477 9.35998 46.7082 9.20312 47.1436 9.24951ZM67.998 30.3647C67.9672 28.6205 68.2522 26.9434 69.2568 25.4673C70.564 23.5452 72.4544 22.8145 74.6963 22.9868C76.8885 23.1551 78.5531 24.2494 79.4609 26.2632C80.6887 28.9869 80.6656 31.7697 79.4482 34.4985C78.4743 36.6796 76.1228 37.9625 73.624 37.7778C71.1675 37.5962 69.1401 35.9274 68.4014 33.4585C68.2394 32.917 68.089 32.3641 68.0127 31.8062C67.9487 31.3337 67.998 30.8465 67.998 30.3647ZM114.999 22.9946C115.514 22.8605 115.844 23.0518 116.256 23.7173C116.273 23.7451 116.306 23.763 116.333 23.7847V36.9907H116.331C116.252 37.0969 116.167 37.1998 116.093 37.3091C115.835 37.6908 115.473 37.8783 115.029 37.7534C114.582 37.6275 114.297 37.3183 114.286 36.8169C114.283 36.6673 114.266 36.5166 114.247 36.27C114.062 36.3886 113.938 36.4589 113.824 36.5425C110.154 39.2456 105.132 37.3328 104.203 32.8706C104.112 32.4364 104.052 31.9878 104.05 31.5464C104.035 29.0362 104.032 26.5253 104.057 24.0151C104.06 23.7388 104.188 23.337 104.389 23.2212C104.674 23.0571 105.107 23.0081 105.434 23.0854C105.82 23.1764 105.988 23.545 105.987 23.9741C105.979 26.2954 105.98 28.6157 105.986 30.937C105.989 31.9253 106.105 32.8973 106.616 33.769C107.521 35.3104 109.181 36.0729 110.869 35.7407C112.621 35.3962 113.904 34.0707 114.176 32.2964C114.245 31.8404 114.28 31.3737 114.282 30.9126C114.293 28.6945 114.286 26.4773 114.287 24.2593C114.287 23.4773 114.485 23.1288 114.999 22.9946ZM74.5234 24.9194C72.5994 24.7978 71.1932 25.6479 70.4287 27.4771C69.7417 29.1215 69.7536 30.8315 70.1797 32.5327C70.7028 34.6207 72.1482 35.7825 74.1279 35.7866H74.1289C75.9806 35.7896 77.3973 34.766 77.9658 32.937C78.4827 31.276 78.4908 29.5867 78.0049 27.9175C77.4983 26.1759 76.1216 25.0205 74.5234 24.9194ZM9.81348 2.96631C7.7552 13.7209 5.73034 24.2992 3.70508 34.8774C3.75651 34.897 3.80794 34.9165 3.85938 34.9351C3.97905 34.7958 4.1064 34.6636 4.2168 34.5171C9.03281 28.1638 13.8425 21.8064 18.6709 15.4624C18.9452 15.1014 18.9168 14.8816 18.6602 14.5444C15.8559 10.8705 13.0664 7.1846 10.2715 3.50342C10.1622 3.36015 10.0381 3.22819 9.81445 2.96533L9.81348 2.96631ZM32.0254 3.02002C31.8329 3.232 31.7487 3.31215 31.6797 3.40283C28.8312 7.14995 25.9887 10.9022 23.1309 14.6421C22.8792 14.9712 22.9281 15.1885 23.1582 15.4907C25.4661 18.5259 27.7598 21.5734 30.0625 24.6138C32.5623 27.9142 35.0672 31.211 37.5732 34.5063C37.6455 34.6012 37.7502 34.6709 37.8398 34.7534C37.8727 34.7339 37.9056 34.7143 37.9385 34.6948C35.9751 24.1785 34.0125 13.6622 32.0254 3.02002Z" fill="url(#paint0_linear_32727_80739)"/>
<defs>
<linearGradient id="paint0_linear_32727_80739" x1="79.5062" y1="22.9623" x2="79.5062" y2="33.2498" gradientUnits="userSpaceOnUse">
<stop stop-color="white"/>
<stop offset="1" stop-color="white" stop-opacity="0.6"/>
</linearGradient>
</defs>
</svg>
