<svg width="126" height="40" viewBox="0 0 126 40" fill="none" xmlns="http://www.w3.org/2000/svg">
<path d="M25.5068 0.898438C31.6731 0.898546 37.0829 5.22166 38.6387 11.2793V11.2783C45.5459 11.9773 50.8594 17.9342 50.8594 25.1543C50.8594 32.8441 44.766 39.1005 37.2764 39.1006H13.7598C6.26946 39.1006 0.175781 32.8445 0.175781 25.1533C0.175951 17.9477 5.47826 11.9929 12.375 11.2803C13.9301 5.22323 19.3405 0.898438 25.5068 0.898438ZM39 13.2617C39.0526 13.7355 39.0816 14.2118 39.0869 14.6885C41.3164 15.0922 43.3581 16.2355 44.9072 17.9678C46.6658 19.9325 47.6347 22.4845 47.6348 25.1533C47.6348 31.0147 42.9876 35.7841 37.2764 35.7842H13.7598C8.04785 35.7842 3.40137 31.0154 3.40137 25.1533C3.40145 22.4886 4.36598 19.9396 6.11914 17.9756C7.66436 16.2453 9.70146 15.1008 11.9277 14.6924C11.9323 14.2155 11.961 13.7382 12.0137 13.2646C6.36246 14.1321 2.09098 19.1373 2.09082 25.1533C2.09082 31.7834 7.3253 37.1777 13.7598 37.1777H37.2764C43.7101 37.1777 48.9453 31.7834 48.9453 25.1533C48.9451 19.1248 44.6637 14.118 39 13.2617ZM38.9785 16.627C38.9159 17.1282 38.8301 17.6262 38.7148 18.1162C41.9218 18.7921 44.2891 21.6793 44.2891 25.1543C44.2891 29.118 41.1435 32.3425 37.2773 32.3428H13.7598C9.89288 32.3426 6.74707 29.118 6.74707 25.1543C6.74708 21.6911 9.10728 18.8051 12.3018 18.1201C12.1865 17.6307 12.1007 17.1337 12.0381 16.6318C10.3197 16.9987 8.75055 17.9096 7.5459 19.2598C6.10814 20.8701 5.31649 22.9634 5.31641 25.1533C5.31641 29.9542 9.1038 33.8602 13.7598 33.8604H37.2764C41.933 33.8603 45.7207 29.9543 45.7207 25.1533C45.7206 22.9601 44.9261 20.8639 43.4844 19.2529C42.2745 17.9017 40.7006 16.9905 38.9785 16.627ZM63.3467 28.9717C64.5033 28.9717 65.5645 29.7026 65.5645 31.4072C65.5644 33.1444 64.5101 33.8416 63.334 33.8418C62.1577 33.8418 61.1183 33.1446 61.1182 31.4072C61.1182 29.7026 62.1703 28.9717 63.3467 28.9717ZM106.461 28.9717C107.618 28.9717 108.679 29.7026 108.679 31.4072C108.679 33.1445 107.625 33.8417 106.449 33.8418C105.273 33.8418 104.233 33.1446 104.233 31.4072C104.233 29.7028 105.285 28.9719 106.461 28.9717ZM58.6582 28.9658C59.4354 28.9658 60.076 29.2159 60.3711 29.6875C60.608 30.0667 60.5051 30.3422 60.1152 30.4238L60.0117 30.4453C59.6081 30.5289 59.4742 30.3463 59.2734 30.1758C59.1192 30.0358 58.9182 29.958 58.71 29.959C58.3873 29.959 58.1808 30.1107 58.1807 30.3457C58.1807 31.1795 60.6043 30.6437 60.6045 32.375C60.6045 33.2655 59.8154 33.8398 58.7227 33.8398C57.9588 33.8398 57.2406 33.5363 56.9316 33.0273C56.7301 32.6954 56.8456 32.4237 57.1934 32.3262L57.2969 32.2979C57.5866 32.2169 57.7646 32.3137 57.9424 32.502C58.1537 32.7258 58.4105 32.8456 58.7119 32.8457C59.0648 32.8457 59.285 32.6909 59.2852 32.4395C59.2852 31.715 56.8967 32.1407 56.8965 30.3975C56.8965 29.5294 57.615 28.9659 58.6582 28.9658ZM110.154 29.0088C110.505 29.0088 110.696 29.2045 110.696 29.5654V31.5791C110.696 32.3458 110.897 32.6641 111.4 32.6641C111.907 32.6639 112.108 32.3459 112.108 31.5859V29.5654C112.108 29.2045 112.299 29.0088 112.65 29.0088H112.881C113.232 29.0088 113.422 29.2045 113.422 29.5654V31.5957C113.422 33.1248 112.754 33.8397 111.4 33.8398C110.047 33.8398 109.392 33.1358 109.392 31.5859V29.5654C109.392 29.2045 109.583 29.0088 109.934 29.0088H110.154ZM96.9619 28.9658C97.7839 28.9658 98.3891 29.1839 98.7422 29.7188C98.9621 30.0513 98.8409 30.2726 98.4551 30.374L98.2559 30.4258C97.9629 30.5021 97.7832 30.4156 97.6074 30.2676C97.4414 30.1263 97.2287 30.0511 97.0107 30.0566C96.4232 30.0566 96.0449 30.5872 96.0449 31.4033C96.045 32.2252 96.4125 32.7305 97.002 32.7305C97.4516 32.7304 97.7588 32.457 97.8057 31.9541H97.3359C97.0204 31.9541 96.8428 31.7796 96.8428 31.4688V31.4619C96.8429 31.1572 97.0358 30.9863 97.3848 30.9863H98.6123C98.9547 30.9864 99.163 31.0704 99.1631 31.3574V31.459C99.1631 32.9508 98.3257 33.8358 96.9434 33.8359C95.5978 33.8359 94.7326 32.8806 94.7324 31.3877C94.7324 29.9275 95.6362 28.966 96.9619 28.9658ZM68.7246 29.0088C69.0757 29.0088 69.2666 29.2045 69.2666 29.5654V29.623C69.2666 29.9847 69.0757 30.1807 68.7246 30.1807H67.6348V31.0635H68.6045C68.9556 31.0635 69.1465 31.2552 69.1465 31.5938V31.5996C69.1465 31.9454 68.9556 32.1367 68.6045 32.1367H67.6348V33.2344C67.6348 33.596 67.4432 33.792 67.0928 33.792H66.876C66.5243 33.792 66.334 33.596 66.334 33.2344V29.5664C66.334 29.2048 66.5249 29.0088 66.876 29.0088H68.7246ZM72.3525 29.0088C72.7036 29.0088 72.8936 29.2045 72.8936 29.5654V29.6348C72.8935 29.9962 72.7035 30.1914 72.3525 30.1914H71.8965V33.2344C71.8965 33.596 71.7058 33.792 71.3555 33.792H71.1377C70.7868 33.7919 70.5967 33.5959 70.5967 33.2344V30.1914H70.1338C69.7831 30.1912 69.5928 29.9961 69.5928 29.6348V29.5654C69.5928 29.2046 69.7837 29.009 70.1338 29.0088H72.3525ZM73.9531 29.0107C74.2759 29.0107 74.4727 29.1705 74.5557 29.4893L75.1904 31.9199L75.7998 29.4912C75.8801 29.1706 76.0779 29.0109 76.4004 29.0107H76.4697C76.792 29.0109 76.9906 29.1768 77.0703 29.4951L77.6777 31.9199L78.3203 29.4893C78.4053 29.1698 78.5982 29.0107 78.9209 29.0107H79.2031C79.5931 29.0107 79.7774 29.2536 79.6562 29.6416L78.5039 33.332C78.4064 33.642 78.2018 33.792 77.8877 33.792H77.6348C77.3117 33.7919 77.1149 33.6307 77.0332 33.3076L76.4326 30.9141L75.835 33.3076C75.7532 33.6328 75.556 33.792 75.2334 33.792H74.9844C74.6702 33.792 74.4656 33.6406 74.3701 33.333L73.2236 29.6396C73.1052 29.2578 73.2852 29.0109 73.6748 29.0107H73.9531ZM82.0508 29.0088C82.3623 29.0088 82.5615 29.1524 82.6729 29.4561L84.0244 33.1514C84.1639 33.5332 83.988 33.7918 83.5938 33.792H83.3633C83.0472 33.792 82.8517 33.6419 82.7549 33.3271L82.6777 33.0762H81.0205L80.9453 33.3262C80.8492 33.6422 80.6526 33.7919 80.3359 33.792H80.1055C79.7096 33.792 79.5329 33.5327 79.6719 33.1514L81.0205 29.4551C81.1312 29.1523 81.3305 29.0088 81.6426 29.0088H82.0508ZM86.4023 29.0088C87.9753 29.0089 88.413 29.6193 88.4131 30.6465C88.4131 31.2293 88.1994 31.7386 87.6885 32.043L88.2627 33.1338C88.4864 33.559 88.3692 33.792 87.8721 33.792H87.6289C87.3194 33.792 87.1376 33.6537 87.0059 33.3613L86.5352 32.3398C86.4827 32.3418 86.4303 32.3428 86.376 32.3428H85.9873V33.2354C85.9873 33.5963 85.7973 33.7919 85.4463 33.792H85.2178C84.8667 33.792 84.6758 33.5963 84.6758 33.2354V29.5654C84.6758 29.2045 84.8674 29.0088 85.2178 29.0088H86.4023ZM91.7822 29.0088C92.1333 29.0088 92.3242 29.2045 92.3242 29.5654V29.6348C92.3241 29.9962 92.1326 30.1914 91.7822 30.1914H90.499V30.9014H91.667C92.0181 30.9014 92.209 31.0749 92.209 31.3857V31.3916C92.209 31.7076 92.0178 31.8788 91.667 31.8789H90.499V32.6133H91.7822C92.1332 32.6133 92.3241 32.8092 92.3242 33.1699V33.2344C92.3242 33.596 92.1326 33.792 91.7822 33.792H89.7402C89.3894 33.7918 89.1992 33.5958 89.1992 33.2344V29.5664C89.1992 29.2049 89.3894 29.0089 89.7402 29.0088H91.7822ZM101.66 29.0088C103.234 29.0089 103.672 29.6193 103.672 30.6465C103.672 31.2293 103.458 31.7387 102.946 32.043L103.521 33.1338C103.745 33.559 103.628 33.7919 103.131 33.792H102.888C102.578 33.792 102.395 33.6538 102.264 33.3613L101.794 32.3398C101.741 32.3418 101.689 32.3428 101.634 32.3428H101.246V33.2354C101.246 33.5963 101.055 33.792 100.704 33.792H100.477C100.125 33.792 99.9346 33.5963 99.9346 33.2354V29.5654C99.9346 29.2045 100.125 29.0088 100.477 29.0088H101.66ZM115.769 29.0088C117.498 29.0088 118.059 29.6194 118.059 30.8662C118.059 32.1131 117.498 32.6904 115.783 32.6904H115.611V33.2344C115.611 33.5953 115.42 33.792 115.069 33.792H114.848C114.497 33.792 114.306 33.596 114.306 33.2344V29.5664C114.306 29.2048 114.497 29.0088 114.848 29.0088H115.769ZM63.3379 30.1387C62.7729 30.1388 62.4014 30.5917 62.4014 31.4023C62.4014 32.2467 62.7675 32.6816 63.334 32.6816C63.8851 32.6814 64.2637 32.2465 64.2637 31.4023C64.2637 30.5935 63.8833 30.1387 63.3379 30.1387ZM106.453 30.1387C105.889 30.1387 105.518 30.5916 105.518 31.4023C105.518 32.2467 105.883 32.6816 106.449 32.6816C107 32.6815 107.378 32.2466 107.378 31.4023C107.378 30.5937 106.998 30.1388 106.453 30.1387ZM81.3154 32.1396H82.3809L81.8467 30.457L81.3154 32.1396ZM115.611 31.5459H115.996C116.538 31.5459 116.728 31.2811 116.728 30.8438C116.728 30.4124 116.537 30.1562 115.996 30.1562H115.611V31.5459ZM85.9805 31.3984H86.3691C86.9104 31.3984 87.1016 31.1744 87.1016 30.7568C87.1015 30.3486 86.9104 30.1231 86.3691 30.123H85.9805V31.3984ZM101.239 31.3984H101.628C102.168 31.3983 102.36 31.1743 102.36 30.7568C102.36 30.3486 102.168 30.1232 101.628 30.123H101.239V31.3984ZM25.5068 9.58008C23.0836 9.58008 20.9811 11.3574 20.5088 13.8057L20.2627 15.083L19.1191 14.4717C18.4889 14.135 17.8278 13.8587 17.1455 13.6465C17.051 14.3292 17.0371 15.0211 17.1045 15.707L17.2432 17.0938L15.9033 16.7314C15.2658 16.5596 14.6072 16.4686 13.9434 16.4541C14.0388 17.1941 14.2019 17.9237 14.4307 18.6338L14.8223 19.8418L13.5586 19.8926C10.8127 20.0019 8.66228 22.3127 8.66211 25.1533C8.66211 28.0573 10.9487 30.4198 13.7598 30.4199H37.2754C40.0866 30.4199 42.374 28.0574 42.374 25.1533C42.3738 22.3034 40.2147 19.9914 37.459 19.8926L36.1904 19.8467L36.583 18.6338C36.8122 17.9228 36.9758 17.1921 37.0713 16.4512C36.4015 16.467 35.7475 16.5628 35.1152 16.7373L33.7783 17.1045L33.9082 15.7197C33.9742 15.0317 33.9614 14.3383 33.8691 13.6533C33.1876 13.8664 32.5277 14.1438 31.8984 14.4814L30.752 15.0977L30.5059 13.8145C30.0368 11.3605 27.9345 9.58019 25.5068 9.58008ZM82.4062 11.9736C85.604 11.9736 88.7568 14.0229 88.7568 18.6631C88.7568 23.3474 85.6255 25.3974 82.4277 25.3975C79.2089 25.3975 76.0771 23.3475 76.0771 18.6631V18.6621C76.0773 14.0229 79.2086 11.9737 82.4062 11.9736ZM116.659 8.03223C117.359 8.03223 117.754 8.43763 117.754 9.1582V23.9551C117.754 24.6762 117.36 25.0819 116.659 25.082H116.396C115.696 25.082 115.301 24.6763 115.301 23.9551V22.6494C114.601 24.3837 112.826 25.3975 110.877 25.3975C107.767 25.3974 105.117 23.1222 105.117 18.6631V18.6621C105.117 14.2258 107.745 11.9737 110.854 11.9736C112.826 11.9736 114.601 12.9643 115.301 14.7432V9.1582C115.301 8.43763 115.696 8.03223 116.396 8.03223H116.659ZM62.7832 11.9736C65.411 11.9737 67.1856 12.9644 68.1709 14.8789C68.543 15.5994 68.2366 16.1172 67.5576 16.2529L67.3828 16.2979C66.7696 16.4329 66.3526 16.1852 65.9805 15.6221C65.2797 14.6085 64.25 14.1133 62.8926 14.1133C60.6151 14.1135 59.0381 15.9601 59.0381 18.6631C59.0381 21.3431 60.6151 23.1902 62.8926 23.1904C64.2066 23.1904 65.2367 22.6714 65.9375 21.7031C66.3095 21.1403 66.7034 20.9148 67.3164 21.0273L67.4043 21.0498C68.1709 21.2079 68.4993 21.6816 68.1924 22.335C67.2287 24.2712 65.367 25.3525 62.7832 25.3525C59.2352 25.3523 56.585 22.6265 56.585 18.6621C56.5852 14.7664 59.1699 11.9736 62.7832 11.9736ZM101.459 12.2207C102.16 12.2207 102.555 12.6264 102.555 13.3467V23.9785C102.555 24.6991 102.16 25.1045 101.459 25.1045H101.196C100.495 25.1045 100.102 24.6991 100.102 23.9785V22.6973C99.5312 24.191 98.1091 25.33 96.0068 25.3301C92.5462 25.3301 90.9473 23.2802 90.9473 19.2031V13.3477C90.9473 12.6265 91.3412 12.2217 92.042 12.2217H92.3047C93.0055 12.2217 93.4003 12.6265 93.4004 13.3477V19C93.4004 21.8158 94.4514 23.1445 96.7725 23.1445C99.1377 23.1445 100.102 21.5462 100.102 18.708V13.3467C100.102 12.6266 100.496 12.2209 101.196 12.2207H101.459ZM72.5283 8.03223C73.2298 8.03223 73.624 8.43763 73.624 9.1582V23.9775C73.624 24.6988 73.2298 25.1045 72.5283 25.1045H72.2441C71.5433 25.1045 71.1494 24.6988 71.1494 23.9775V9.1582C71.1494 8.43763 71.5433 8.03223 72.2441 8.03223H72.5283ZM82.4062 14.1133C80.0845 14.1133 78.5293 15.825 78.5293 18.6631C78.5293 21.5228 80.0838 23.2351 82.4277 23.2354C84.7489 23.2354 86.3047 21.5006 86.3047 18.6631V18.6621C86.3045 15.8474 84.7277 14.1135 82.4062 14.1133ZM111.447 14.1133C109.147 14.1133 107.57 15.825 107.57 18.6631C107.57 21.523 109.147 23.2353 111.49 23.2354C113.812 23.2354 115.366 21.5006 115.366 18.6631V18.6621C115.366 15.8474 113.79 14.1135 111.447 14.1133ZM37.0547 13.1318C36.6154 13.1397 36.1771 13.1761 35.7432 13.2354C35.8128 13.6948 35.8527 14.1584 35.8633 14.623C36.2955 14.5634 36.7317 14.5318 37.168 14.5283C37.1561 14.0607 37.1192 13.5942 37.0547 13.1318ZM13.959 13.1357C13.8951 13.5968 13.8585 14.0617 13.8467 14.5273C14.2819 14.5313 14.7214 14.5609 15.1514 14.6201C15.1618 14.1566 15.2016 13.6938 15.2705 13.2354C14.8357 13.177 14.3976 13.1437 13.959 13.1357ZM25.5068 6.13965C21.9543 6.13983 18.826 8.41581 17.6035 11.7773C18.0641 11.9154 18.5172 12.0791 18.96 12.2666C19.9822 9.53513 22.5725 7.65527 25.5068 7.65527C28.4456 7.65537 31.0357 9.53819 32.0566 12.2734C32.4986 12.0844 32.952 11.9228 33.4111 11.7832C32.1912 8.41825 29.0615 6.13965 25.5068 6.13965ZM25.5068 2.82129C20.3986 2.82148 15.8919 6.29094 14.3809 11.2227C14.8298 11.2431 15.2767 11.2877 15.7197 11.3535C17.1517 7.10976 21.0589 4.2168 25.5068 4.2168C29.9573 4.2169 33.864 7.11085 35.2939 11.3564C35.7371 11.2893 36.1847 11.2454 36.6338 11.2236C35.1228 6.29091 30.6154 2.82129 25.5068 2.82129ZM122.263 6.22266C122.45 6.22266 122.576 6.31369 122.645 6.49219L123.34 8.30859L124.043 6.49219C124.113 6.31173 124.244 6.22365 124.432 6.22363H124.525C124.725 6.22369 124.845 6.32646 124.886 6.52637L125.308 8.63867C125.356 8.8797 125.275 9.01753 125.094 9.01758C124.9 9.01758 124.78 8.91438 124.739 8.71484L124.384 6.9873L123.715 8.75C123.645 8.93418 123.528 9.01758 123.347 9.01758C123.16 9.01752 123.042 8.93427 122.972 8.75L122.303 6.9873L121.955 8.71484C121.915 8.91503 121.795 9.01758 121.601 9.01758C121.42 9.01748 121.324 8.879 121.373 8.63867L121.801 6.52637C121.841 6.32685 121.962 6.22272 122.163 6.22266H122.263ZM120.951 6.22266C121.165 6.22266 121.286 6.31976 121.286 6.49805C121.286 6.6772 121.165 6.77441 120.951 6.77441H120.423V8.66699C120.423 8.88739 120.322 9.01066 120.135 9.01074C119.947 9.01074 119.84 8.88746 119.84 8.66699V6.77441H119.298C119.084 6.77434 118.964 6.67714 118.964 6.49805C118.964 6.31983 119.084 6.22273 119.298 6.22266H120.951Z" fill="black"/>
<path d="M25.5068 0.898438C31.6731 0.898546 37.0829 5.22166 38.6387 11.2793V11.2783C45.5459 11.9773 50.8594 17.9342 50.8594 25.1543C50.8594 32.8441 44.766 39.1005 37.2764 39.1006H13.7598C6.26946 39.1006 0.175781 32.8445 0.175781 25.1533C0.175951 17.9477 5.47826 11.9929 12.375 11.2803C13.9301 5.22323 19.3405 0.898438 25.5068 0.898438ZM39 13.2617C39.0526 13.7355 39.0816 14.2118 39.0869 14.6885C41.3164 15.0922 43.3581 16.2355 44.9072 17.9678C46.6658 19.9325 47.6347 22.4845 47.6348 25.1533C47.6348 31.0147 42.9876 35.7841 37.2764 35.7842H13.7598C8.04785 35.7842 3.40137 31.0154 3.40137 25.1533C3.40145 22.4886 4.36598 19.9396 6.11914 17.9756C7.66436 16.2453 9.70146 15.1008 11.9277 14.6924C11.9323 14.2155 11.961 13.7382 12.0137 13.2646C6.36246 14.1321 2.09098 19.1373 2.09082 25.1533C2.09082 31.7834 7.3253 37.1777 13.7598 37.1777H37.2764C43.7101 37.1777 48.9453 31.7834 48.9453 25.1533C48.9451 19.1248 44.6637 14.118 39 13.2617ZM38.9785 16.627C38.9159 17.1282 38.8301 17.6262 38.7148 18.1162C41.9218 18.7921 44.2891 21.6793 44.2891 25.1543C44.2891 29.118 41.1435 32.3425 37.2773 32.3428H13.7598C9.89288 32.3426 6.74707 29.118 6.74707 25.1543C6.74708 21.6911 9.10728 18.8051 12.3018 18.1201C12.1865 17.6307 12.1007 17.1337 12.0381 16.6318C10.3197 16.9987 8.75055 17.9096 7.5459 19.2598C6.10814 20.8701 5.31649 22.9634 5.31641 25.1533C5.31641 29.9542 9.1038 33.8602 13.7598 33.8604H37.2764C41.933 33.8603 45.7207 29.9543 45.7207 25.1533C45.7206 22.9601 44.9261 20.8639 43.4844 19.2529C42.2745 17.9017 40.7006 16.9905 38.9785 16.627ZM63.3467 28.9717C64.5033 28.9717 65.5645 29.7026 65.5645 31.4072C65.5644 33.1444 64.5101 33.8416 63.334 33.8418C62.1577 33.8418 61.1183 33.1446 61.1182 31.4072C61.1182 29.7026 62.1703 28.9717 63.3467 28.9717ZM106.461 28.9717C107.618 28.9717 108.679 29.7026 108.679 31.4072C108.679 33.1445 107.625 33.8417 106.449 33.8418C105.273 33.8418 104.233 33.1446 104.233 31.4072C104.233 29.7028 105.285 28.9719 106.461 28.9717ZM58.6582 28.9658C59.4354 28.9658 60.076 29.2159 60.3711 29.6875C60.608 30.0667 60.5051 30.3422 60.1152 30.4238L60.0117 30.4453C59.6081 30.5289 59.4742 30.3463 59.2734 30.1758C59.1192 30.0358 58.9182 29.958 58.71 29.959C58.3873 29.959 58.1808 30.1107 58.1807 30.3457C58.1807 31.1795 60.6043 30.6437 60.6045 32.375C60.6045 33.2655 59.8154 33.8398 58.7227 33.8398C57.9588 33.8398 57.2406 33.5363 56.9316 33.0273C56.7301 32.6954 56.8456 32.4237 57.1934 32.3262L57.2969 32.2979C57.5866 32.2169 57.7646 32.3137 57.9424 32.502C58.1537 32.7258 58.4105 32.8456 58.7119 32.8457C59.0648 32.8457 59.285 32.6909 59.2852 32.4395C59.2852 31.715 56.8967 32.1407 56.8965 30.3975C56.8965 29.5294 57.615 28.9659 58.6582 28.9658ZM110.154 29.0088C110.505 29.0088 110.696 29.2045 110.696 29.5654V31.5791C110.696 32.3458 110.897 32.6641 111.4 32.6641C111.907 32.6639 112.108 32.3459 112.108 31.5859V29.5654C112.108 29.2045 112.299 29.0088 112.65 29.0088H112.881C113.232 29.0088 113.422 29.2045 113.422 29.5654V31.5957C113.422 33.1248 112.754 33.8397 111.4 33.8398C110.047 33.8398 109.392 33.1358 109.392 31.5859V29.5654C109.392 29.2045 109.583 29.0088 109.934 29.0088H110.154ZM96.9619 28.9658C97.7839 28.9658 98.3891 29.1839 98.7422 29.7188C98.9621 30.0513 98.8409 30.2726 98.4551 30.374L98.2559 30.4258C97.9629 30.5021 97.7832 30.4156 97.6074 30.2676C97.4414 30.1263 97.2287 30.0511 97.0107 30.0566C96.4232 30.0566 96.0449 30.5872 96.0449 31.4033C96.045 32.2252 96.4125 32.7305 97.002 32.7305C97.4516 32.7304 97.7588 32.457 97.8057 31.9541H97.3359C97.0204 31.9541 96.8428 31.7796 96.8428 31.4688V31.4619C96.8429 31.1572 97.0358 30.9863 97.3848 30.9863H98.6123C98.9547 30.9864 99.163 31.0704 99.1631 31.3574V31.459C99.1631 32.9508 98.3257 33.8358 96.9434 33.8359C95.5978 33.8359 94.7326 32.8806 94.7324 31.3877C94.7324 29.9275 95.6362 28.966 96.9619 28.9658ZM68.7246 29.0088C69.0757 29.0088 69.2666 29.2045 69.2666 29.5654V29.623C69.2666 29.9847 69.0757 30.1807 68.7246 30.1807H67.6348V31.0635H68.6045C68.9556 31.0635 69.1465 31.2552 69.1465 31.5938V31.5996C69.1465 31.9454 68.9556 32.1367 68.6045 32.1367H67.6348V33.2344C67.6348 33.596 67.4432 33.792 67.0928 33.792H66.876C66.5243 33.792 66.334 33.596 66.334 33.2344V29.5664C66.334 29.2048 66.5249 29.0088 66.876 29.0088H68.7246ZM72.3525 29.0088C72.7036 29.0088 72.8936 29.2045 72.8936 29.5654V29.6348C72.8935 29.9962 72.7035 30.1914 72.3525 30.1914H71.8965V33.2344C71.8965 33.596 71.7058 33.792 71.3555 33.792H71.1377C70.7868 33.7919 70.5967 33.5959 70.5967 33.2344V30.1914H70.1338C69.7831 30.1912 69.5928 29.9961 69.5928 29.6348V29.5654C69.5928 29.2046 69.7837 29.009 70.1338 29.0088H72.3525ZM73.9531 29.0107C74.2759 29.0107 74.4727 29.1705 74.5557 29.4893L75.1904 31.9199L75.7998 29.4912C75.8801 29.1706 76.0779 29.0109 76.4004 29.0107H76.4697C76.792 29.0109 76.9906 29.1768 77.0703 29.4951L77.6777 31.9199L78.3203 29.4893C78.4053 29.1698 78.5982 29.0107 78.9209 29.0107H79.2031C79.5931 29.0107 79.7774 29.2536 79.6562 29.6416L78.5039 33.332C78.4064 33.642 78.2018 33.792 77.8877 33.792H77.6348C77.3117 33.7919 77.1149 33.6307 77.0332 33.3076L76.4326 30.9141L75.835 33.3076C75.7532 33.6328 75.556 33.792 75.2334 33.792H74.9844C74.6702 33.792 74.4656 33.6406 74.3701 33.333L73.2236 29.6396C73.1052 29.2578 73.2852 29.0109 73.6748 29.0107H73.9531ZM82.0508 29.0088C82.3623 29.0088 82.5615 29.1524 82.6729 29.4561L84.0244 33.1514C84.1639 33.5332 83.988 33.7918 83.5938 33.792H83.3633C83.0472 33.792 82.8517 33.6419 82.7549 33.3271L82.6777 33.0762H81.0205L80.9453 33.3262C80.8492 33.6422 80.6526 33.7919 80.3359 33.792H80.1055C79.7096 33.792 79.5329 33.5327 79.6719 33.1514L81.0205 29.4551C81.1312 29.1523 81.3305 29.0088 81.6426 29.0088H82.0508ZM86.4023 29.0088C87.9753 29.0089 88.413 29.6193 88.4131 30.6465C88.4131 31.2293 88.1994 31.7386 87.6885 32.043L88.2627 33.1338C88.4864 33.559 88.3692 33.792 87.8721 33.792H87.6289C87.3194 33.792 87.1376 33.6537 87.0059 33.3613L86.5352 32.3398C86.4827 32.3418 86.4303 32.3428 86.376 32.3428H85.9873V33.2354C85.9873 33.5963 85.7973 33.7919 85.4463 33.792H85.2178C84.8667 33.792 84.6758 33.5963 84.6758 33.2354V29.5654C84.6758 29.2045 84.8674 29.0088 85.2178 29.0088H86.4023ZM91.7822 29.0088C92.1333 29.0088 92.3242 29.2045 92.3242 29.5654V29.6348C92.3241 29.9962 92.1326 30.1914 91.7822 30.1914H90.499V30.9014H91.667C92.0181 30.9014 92.209 31.0749 92.209 31.3857V31.3916C92.209 31.7076 92.0178 31.8788 91.667 31.8789H90.499V32.6133H91.7822C92.1332 32.6133 92.3241 32.8092 92.3242 33.1699V33.2344C92.3242 33.596 92.1326 33.792 91.7822 33.792H89.7402C89.3894 33.7918 89.1992 33.5958 89.1992 33.2344V29.5664C89.1992 29.2049 89.3894 29.0089 89.7402 29.0088H91.7822ZM101.66 29.0088C103.234 29.0089 103.672 29.6193 103.672 30.6465C103.672 31.2293 103.458 31.7387 102.946 32.043L103.521 33.1338C103.745 33.559 103.628 33.7919 103.131 33.792H102.888C102.578 33.792 102.395 33.6538 102.264 33.3613L101.794 32.3398C101.741 32.3418 101.689 32.3428 101.634 32.3428H101.246V33.2354C101.246 33.5963 101.055 33.792 100.704 33.792H100.477C100.125 33.792 99.9346 33.5963 99.9346 33.2354V29.5654C99.9346 29.2045 100.125 29.0088 100.477 29.0088H101.66ZM115.769 29.0088C117.498 29.0088 118.059 29.6194 118.059 30.8662C118.059 32.1131 117.498 32.6904 115.783 32.6904H115.611V33.2344C115.611 33.5953 115.42 33.792 115.069 33.792H114.848C114.497 33.792 114.306 33.596 114.306 33.2344V29.5664C114.306 29.2048 114.497 29.0088 114.848 29.0088H115.769ZM63.3379 30.1387C62.7729 30.1388 62.4014 30.5917 62.4014 31.4023C62.4014 32.2467 62.7675 32.6816 63.334 32.6816C63.8851 32.6814 64.2637 32.2465 64.2637 31.4023C64.2637 30.5935 63.8833 30.1387 63.3379 30.1387ZM106.453 30.1387C105.889 30.1387 105.518 30.5916 105.518 31.4023C105.518 32.2467 105.883 32.6816 106.449 32.6816C107 32.6815 107.378 32.2466 107.378 31.4023C107.378 30.5937 106.998 30.1388 106.453 30.1387ZM81.3154 32.1396H82.3809L81.8467 30.457L81.3154 32.1396ZM115.611 31.5459H115.996C116.538 31.5459 116.728 31.2811 116.728 30.8438C116.728 30.4124 116.537 30.1562 115.996 30.1562H115.611V31.5459ZM85.9805 31.3984H86.3691C86.9104 31.3984 87.1016 31.1744 87.1016 30.7568C87.1015 30.3486 86.9104 30.1231 86.3691 30.123H85.9805V31.3984ZM101.239 31.3984H101.628C102.168 31.3983 102.36 31.1743 102.36 30.7568C102.36 30.3486 102.168 30.1232 101.628 30.123H101.239V31.3984ZM25.5068 9.58008C23.0836 9.58008 20.9811 11.3574 20.5088 13.8057L20.2627 15.083L19.1191 14.4717C18.4889 14.135 17.8278 13.8587 17.1455 13.6465C17.051 14.3292 17.0371 15.0211 17.1045 15.707L17.2432 17.0938L15.9033 16.7314C15.2658 16.5596 14.6072 16.4686 13.9434 16.4541C14.0388 17.1941 14.2019 17.9237 14.4307 18.6338L14.8223 19.8418L13.5586 19.8926C10.8127 20.0019 8.66228 22.3127 8.66211 25.1533C8.66211 28.0573 10.9487 30.4198 13.7598 30.4199H37.2754C40.0866 30.4199 42.374 28.0574 42.374 25.1533C42.3738 22.3034 40.2147 19.9914 37.459 19.8926L36.1904 19.8467L36.583 18.6338C36.8122 17.9228 36.9758 17.1921 37.0713 16.4512C36.4015 16.467 35.7475 16.5628 35.1152 16.7373L33.7783 17.1045L33.9082 15.7197C33.9742 15.0317 33.9614 14.3383 33.8691 13.6533C33.1876 13.8664 32.5277 14.1438 31.8984 14.4814L30.752 15.0977L30.5059 13.8145C30.0368 11.3605 27.9345 9.58019 25.5068 9.58008ZM82.4062 11.9736C85.604 11.9736 88.7568 14.0229 88.7568 18.6631C88.7568 23.3474 85.6255 25.3974 82.4277 25.3975C79.2089 25.3975 76.0771 23.3475 76.0771 18.6631V18.6621C76.0773 14.0229 79.2086 11.9737 82.4062 11.9736ZM116.659 8.03223C117.359 8.03223 117.754 8.43763 117.754 9.1582V23.9551C117.754 24.6762 117.36 25.0819 116.659 25.082H116.396C115.696 25.082 115.301 24.6763 115.301 23.9551V22.6494C114.601 24.3837 112.826 25.3975 110.877 25.3975C107.767 25.3974 105.117 23.1222 105.117 18.6631V18.6621C105.117 14.2258 107.745 11.9737 110.854 11.9736C112.826 11.9736 114.601 12.9643 115.301 14.7432V9.1582C115.301 8.43763 115.696 8.03223 116.396 8.03223H116.659ZM62.7832 11.9736C65.411 11.9737 67.1856 12.9644 68.1709 14.8789C68.543 15.5994 68.2366 16.1172 67.5576 16.2529L67.3828 16.2979C66.7696 16.4329 66.3526 16.1852 65.9805 15.6221C65.2797 14.6085 64.25 14.1133 62.8926 14.1133C60.6151 14.1135 59.0381 15.9601 59.0381 18.6631C59.0381 21.3431 60.6151 23.1902 62.8926 23.1904C64.2066 23.1904 65.2367 22.6714 65.9375 21.7031C66.3095 21.1403 66.7034 20.9148 67.3164 21.0273L67.4043 21.0498C68.1709 21.2079 68.4993 21.6816 68.1924 22.335C67.2287 24.2712 65.367 25.3525 62.7832 25.3525C59.2352 25.3523 56.585 22.6265 56.585 18.6621C56.5852 14.7664 59.1699 11.9736 62.7832 11.9736ZM101.459 12.2207C102.16 12.2207 102.555 12.6264 102.555 13.3467V23.9785C102.555 24.6991 102.16 25.1045 101.459 25.1045H101.196C100.495 25.1045 100.102 24.6991 100.102 23.9785V22.6973C99.5312 24.191 98.1091 25.33 96.0068 25.3301C92.5462 25.3301 90.9473 23.2802 90.9473 19.2031V13.3477C90.9473 12.6265 91.3412 12.2217 92.042 12.2217H92.3047C93.0055 12.2217 93.4003 12.6265 93.4004 13.3477V19C93.4004 21.8158 94.4514 23.1445 96.7725 23.1445C99.1377 23.1445 100.102 21.5462 100.102 18.708V13.3467C100.102 12.6266 100.496 12.2209 101.196 12.2207H101.459ZM72.5283 8.03223C73.2298 8.03223 73.624 8.43763 73.624 9.1582V23.9775C73.624 24.6988 73.2298 25.1045 72.5283 25.1045H72.2441C71.5433 25.1045 71.1494 24.6988 71.1494 23.9775V9.1582C71.1494 8.43763 71.5433 8.03223 72.2441 8.03223H72.5283ZM82.4062 14.1133C80.0845 14.1133 78.5293 15.825 78.5293 18.6631C78.5293 21.5228 80.0838 23.2351 82.4277 23.2354C84.7489 23.2354 86.3047 21.5006 86.3047 18.6631V18.6621C86.3045 15.8474 84.7277 14.1135 82.4062 14.1133ZM111.447 14.1133C109.147 14.1133 107.57 15.825 107.57 18.6631C107.57 21.523 109.147 23.2353 111.49 23.2354C113.812 23.2354 115.366 21.5006 115.366 18.6631V18.6621C115.366 15.8474 113.79 14.1135 111.447 14.1133ZM37.0547 13.1318C36.6154 13.1397 36.1771 13.1761 35.7432 13.2354C35.8128 13.6948 35.8527 14.1584 35.8633 14.623C36.2955 14.5634 36.7317 14.5318 37.168 14.5283C37.1561 14.0607 37.1192 13.5942 37.0547 13.1318ZM13.959 13.1357C13.8951 13.5968 13.8585 14.0617 13.8467 14.5273C14.2819 14.5313 14.7214 14.5609 15.1514 14.6201C15.1618 14.1566 15.2016 13.6938 15.2705 13.2354C14.8357 13.177 14.3976 13.1437 13.959 13.1357ZM25.5068 6.13965C21.9543 6.13983 18.826 8.41581 17.6035 11.7773C18.0641 11.9154 18.5172 12.0791 18.96 12.2666C19.9822 9.53513 22.5725 7.65527 25.5068 7.65527C28.4456 7.65537 31.0357 9.53819 32.0566 12.2734C32.4986 12.0844 32.952 11.9228 33.4111 11.7832C32.1912 8.41825 29.0615 6.13965 25.5068 6.13965ZM25.5068 2.82129C20.3986 2.82148 15.8919 6.29094 14.3809 11.2227C14.8298 11.2431 15.2767 11.2877 15.7197 11.3535C17.1517 7.10976 21.0589 4.2168 25.5068 4.2168C29.9573 4.2169 33.864 7.11085 35.2939 11.3564C35.7371 11.2893 36.1847 11.2454 36.6338 11.2236C35.1228 6.29091 30.6154 2.82129 25.5068 2.82129ZM122.263 6.22266C122.45 6.22266 122.576 6.31369 122.645 6.49219L123.34 8.30859L124.043 6.49219C124.113 6.31173 124.244 6.22365 124.432 6.22363H124.525C124.725 6.22369 124.845 6.32646 124.886 6.52637L125.308 8.63867C125.356 8.8797 125.275 9.01753 125.094 9.01758C124.9 9.01758 124.78 8.91438 124.739 8.71484L124.384 6.9873L123.715 8.75C123.645 8.93418 123.528 9.01758 123.347 9.01758C123.16 9.01752 123.042 8.93427 122.972 8.75L122.303 6.9873L121.955 8.71484C121.915 8.91503 121.795 9.01758 121.601 9.01758C121.42 9.01748 121.324 8.879 121.373 8.63867L121.801 6.52637C121.841 6.32685 121.962 6.22272 122.163 6.22266H122.263ZM120.951 6.22266C121.165 6.22266 121.286 6.31976 121.286 6.49805C121.286 6.6772 121.165 6.77441 120.951 6.77441H120.423V8.66699C120.423 8.88739 120.322 9.01066 120.135 9.01074C119.947 9.01074 119.84 8.88746 119.84 8.66699V6.77441H119.298C119.084 6.77434 118.964 6.67714 118.964 6.49805C118.964 6.31983 119.084 6.22273 119.298 6.22266H120.951Z" fill="url(#paint0_linear_32727_80701)"/>
<defs>
<linearGradient id="paint0_linear_32727_80701" x1="62.8312" y1="0.898438" x2="62.8312" y2="39.1932" gradientUnits="userSpaceOnUse">
<stop stop-color="white"/>
<stop offset="1" stop-color="white" stop-opacity="0.6"/>
</linearGradient>
</defs>
</svg>
