<svg width="155" height="36" viewBox="0 0 155 36" fill="none" xmlns="http://www.w3.org/2000/svg">
<path d="M7.49707 1.40576C8.3615 0.871477 9.31255 0.783342 10.2842 1.03174C11.9569 1.46055 13.3459 2.34485 14.418 3.70947C14.9081 4.33403 15.3867 4.96764 15.9023 5.57178C16.9608 6.81223 18.3203 7.42302 19.9521 7.36182C21.3306 7.31076 22.1068 6.44099 21.9502 5.07275C21.8906 4.55552 21.6895 4.02143 21.4258 3.56885C21.048 2.92059 20.4137 2.70239 19.665 2.84521C18.6235 3.04262 17.7792 3.5962 17.0117 4.29053C16.845 4.44023 16.6853 4.59862 16.4658 4.80615C16.0778 4.31604 15.7164 3.85807 15.3369 3.37646C15.7675 2.7417 16.3414 2.31426 16.9473 1.979C17.633 1.59957 18.3683 1.26084 19.1221 1.06006C20.9956 0.564979 22.6858 1.41924 23.4277 3.18896C23.974 4.49418 24.0624 5.84059 23.4873 7.15771C23.2678 7.66307 22.893 8.10204 22.5391 8.6499C22.7365 8.7401 22.946 8.8558 23.1689 8.93408C26.8873 10.2598 29.2523 13.5497 29.2812 17.4858C29.3017 20.2359 29.2784 22.988 29.292 25.7397C29.3039 28.0744 28.5891 30.1404 27.0645 31.9136C25.6384 33.5711 23.8139 34.5687 21.6748 34.8989C20.9466 35.0112 20.1501 34.8338 19.4082 34.6772C16.7211 34.114 14.3635 32.8238 12.1699 31.2241C9.88123 29.5548 7.91401 27.5708 6.41992 25.146C5.62178 23.8509 5.02797 22.4752 4.88672 20.9487C4.65708 18.4797 5.36109 16.4035 7.5459 15.0132C9.45524 13.7964 11.9502 13.8886 13.7881 15.2261C14.0824 15.4404 14.3684 15.6686 14.6865 15.9136C14.9469 15.7179 15.191 15.5324 15.4395 15.3521C17.2978 13.989 19.309 13.7389 21.3682 14.7583C23.417 15.7725 24.4962 17.4909 24.5371 19.8052C24.5711 21.7655 23.8172 23.4538 22.6602 24.9819C21.1796 26.9373 19.261 28.3738 17.1797 29.5854L17.1787 29.5806C16.2359 29.1602 15.3333 28.5459 14.8262 27.9604C15.0966 27.8006 15.3574 27.6443 15.6211 27.4946C17.3569 26.5093 18.9669 25.3617 20.2705 23.8267C21.0907 22.8601 21.7053 21.7915 21.9248 20.522C22.2873 18.4221 20.7183 16.6133 18.6406 16.7476C17.8697 16.7969 17.2394 17.1589 16.6846 17.6763C16.043 18.2736 15.3964 18.8643 14.6953 19.5093C14.4436 19.2814 14.2177 19.0803 13.9932 18.8745C13.4282 18.3589 12.8966 17.7959 12.2891 17.3364C11.3565 16.6302 10.298 16.5093 9.24121 17.0317C8.18277 17.5559 7.55434 18.3983 7.47266 19.6372C7.37741 21.0836 7.74524 22.3924 8.5127 23.5972C10.8884 27.3241 14.1459 30.0097 18.2354 31.6587C19.1168 32.0143 20.089 32.174 21.0352 32.3306C21.4588 32.4002 21.9504 32.3218 22.3604 32.1704C24.9998 31.1953 26.8425 28.651 26.7881 25.9214C26.7626 24.6486 26.8974 23.3739 26.8906 22.1011C26.8838 20.3739 26.8373 18.645 26.7607 16.9194C26.645 14.2868 24.4977 11.8135 21.7578 11.1362C21.2679 11.0155 20.7523 10.9495 20.2471 10.9478C16.561 10.9324 12.8726 10.9659 9.18652 10.9302C5.95665 10.898 2.63321 13.6621 2.5957 17.4858C2.56677 20.2937 2.56167 23.1016 2.5957 25.9077C2.64165 29.6057 5.59955 32.5641 9.28223 32.5386C10.6538 32.5301 11.8773 32.6966 13.0039 33.5815C13.7476 34.1653 14.6682 34.5264 15.6416 35.0591C15.3183 35.0761 15.1158 35.0942 14.915 35.0942C13.3835 35.0908 11.8502 35.1204 10.3203 35.0659C9.22103 35.0268 8.08753 35.0215 7.03418 34.7476C3.34129 33.7878 1.10202 31.3435 0.285156 27.6421C0.0741494 26.6857 0.0924634 25.6699 0.0771484 24.6812C0.0482198 22.7242 0.0341402 20.7672 0.0800781 18.812C0.107305 17.6838 0.136855 16.5297 0.388672 15.439C1.12895 12.2464 3.11478 10.0967 6.17969 8.94287C6.41618 8.8544 6.6529 8.76301 6.8877 8.66943C6.90471 8.66263 6.90807 8.62301 6.93359 8.56006C6.74647 8.34743 6.53212 8.12972 6.34668 7.88818C5.00056 6.13023 5.32218 2.74847 7.49707 1.40576ZM148.987 30.0962V30.0981H147.663C148.102 29.0125 148.502 28.0239 148.933 26.9604C147.573 23.6947 146.194 20.3862 144.773 16.9741H146.092C147.222 19.702 148.357 22.4417 149.574 25.3755C150.874 22.4775 151.931 19.6676 153.147 16.9517H154.442C152.599 21.3932 150.793 25.7466 148.987 30.0962ZM95.9961 17.1362C97.5889 16.3688 99.2265 16.3292 100.812 17.1919C101.738 17.6956 102.155 18.4837 102.052 19.4399H101.09C100.23 17.8252 98.3741 17.2556 96.7422 18.0962C95.7347 18.6152 95.6067 19.8625 96.5273 20.5347C96.8354 20.7593 97.2303 20.9073 97.6064 20.9907C98.5169 21.1949 99.4479 21.3085 100.358 21.5161C101.727 21.8276 102.4 22.5721 102.506 23.7974C102.644 25.4002 102.121 26.4109 100.792 26.9673C99.1992 27.6343 97.5806 27.6784 96.0303 26.8667C94.9686 26.3102 94.3443 25.4147 94.3477 24.0942L94.3496 24.0962H95.3789C95.4266 24.1541 95.4822 24.1921 95.4941 24.2397C95.7954 25.487 96.6692 26.0549 97.8672 26.2183C98.6686 26.3271 99.4549 26.2405 100.193 25.9019C100.974 25.5445 101.34 24.9457 101.294 24.1597C101.251 23.4313 100.839 22.9065 99.9902 22.6802C99.1991 22.4692 98.3839 22.3533 97.5791 22.1968C97.2747 22.1373 96.9651 22.0931 96.6641 22.0132C95.3588 21.666 94.6927 20.7762 94.6553 19.4165C94.6264 18.3633 95.0893 17.5736 95.9961 17.1362ZM107.91 16.6323C109.026 16.4877 110.121 16.5925 111.148 17.0825C112.229 17.5965 112.949 18.4647 112.986 19.6509C113.063 22.0844 113.011 24.5213 113.011 27.0688L113.009 27.0669H111.863C111.838 26.5888 111.816 26.146 111.785 25.5913C111.586 25.7681 111.44 25.8757 111.324 26.0083C109.954 27.5722 107.478 27.8411 105.689 26.9272C104.1 26.1155 103.404 24.2798 104.104 22.7466C104.714 21.4056 105.897 20.9055 107.277 20.8442C108.465 20.7915 109.658 20.8306 110.848 20.8306H111.663C112.029 19.5236 111.586 18.5308 110.436 18.0747C109.341 17.6408 108.215 17.6496 107.108 18.0308C106.321 18.3014 105.88 18.909 105.671 19.7632H104.569C104.452 18.7984 104.903 18.1179 105.568 17.5513C106.237 16.9812 107.058 16.7429 107.91 16.6323ZM58.8857 20.5103C59.5699 17.7194 62.6697 16.0108 65.6768 16.8276C68.493 17.5919 70.1353 20.3337 69.458 23.0581H68.5811C66.4828 23.0581 64.3844 23.0528 62.2861 23.063C61.9697 23.063 61.6529 23.1397 61.2207 23.1958C61.9831 24.6355 62.9417 25.3386 64.3916 25.2671C65.0841 25.233 65.6522 24.9419 66.1133 24.4536C66.3923 24.1592 66.6973 24.0523 67.0938 24.0659C67.7335 24.088 68.3768 24.0708 69.0488 24.0708C68.2523 26.5637 65.2933 27.9885 62.5195 27.1479C59.6809 26.2868 58.1063 23.6892 58.8857 20.5103ZM34.8203 21.2642C35.2714 17.7775 38.4055 16.2396 41.3086 16.687C43.4936 17.024 44.9132 18.2045 45.5361 20.3315C45.5582 20.4094 45.5534 20.496 45.5752 20.7183H43.1963C42.5905 19.7006 41.8791 18.7692 40.4922 18.7437C39.626 18.7266 38.877 18.9327 38.2559 19.564C36.8842 20.9526 36.9766 23.395 38.4775 24.6509C39.2824 25.3229 40.2299 25.4284 41.2031 25.1528C42.1662 24.8789 42.7009 24.0897 43.1943 23.2729H45.541C45.5375 24.0743 45.2124 24.7245 44.7803 25.3081C44.069 26.2694 43.1468 26.9466 41.9473 27.1968C40.4684 27.5048 39.0268 27.4522 37.6416 26.7886C35.5841 25.8015 34.5327 23.4918 34.8203 21.2642ZM74.2061 17.1187C76.3129 16.1316 79.3683 16.5058 80.8506 18.3403C81.3883 19.0057 81.8037 19.7292 81.9092 20.6616C81.1179 20.8829 80.3652 20.7484 79.5586 20.7671C79.4173 20.5373 79.2799 20.2969 79.125 20.0688C78.3422 18.9152 77.1117 18.47 75.7793 18.8511C74.5625 19.1999 73.7177 20.3009 73.7041 21.647C73.699 22.205 73.7347 22.7902 73.9014 23.3159C74.2451 24.4017 75.0322 25.0756 76.1689 25.2407C77.3583 25.4125 78.3448 25.0263 79.0459 24.0122C79.2059 23.7808 79.3599 23.5438 79.5352 23.2817L79.5312 23.2808H81.8525C81.8339 23.5153 81.8527 23.7092 81.8018 23.8843C81.2708 25.746 79.686 27.0654 77.7646 27.2935C77.0874 27.3734 76.4255 27.3888 75.7432 27.3071C73.1275 26.9957 71.228 24.9019 71.1514 22.2505C71.0817 19.8769 72.0691 18.121 74.2061 17.1187ZM86.0117 13.9351C86.1938 14.7042 86.0846 15.4668 86.1016 16.2173C86.1203 17.0103 86.1055 17.8051 86.1055 18.5981V21.0112C86.8865 20.4259 87.395 19.7909 87.9531 19.2056C88.559 18.5708 89.1411 17.9105 89.7656 17.2944C89.9477 17.114 90.2411 16.9606 90.4912 16.9487C91.3657 16.9079 92.2437 16.9341 93.3037 16.9341C91.7569 18.5762 90.3185 20.1045 88.8516 21.6616C90.3252 23.4467 91.7618 25.1858 93.3154 27.0679C92.2674 27.1155 91.3811 27.1237 90.498 27.0659C90.294 27.0523 90.0709 26.82 89.916 26.6362C89.0958 25.6611 88.2934 24.6706 87.4834 23.687C87.4154 23.6037 87.3272 23.5387 87.2422 23.4604C86.427 23.9897 85.9467 24.6417 86.0947 25.6509C86.1542 26.0643 86.1055 26.495 86.1055 27.0054C85.275 27.1653 84.5023 27.097 83.6719 27.0562V13.9351H86.0117ZM47.5605 13.9302H49.8369C49.973 15.2847 49.8063 16.6562 49.9424 18.1655C50.1585 17.9596 50.2545 17.8727 50.3447 17.7808C51.4202 16.6834 52.7189 16.3633 54.1602 16.8091C55.5435 17.238 56.3938 18.2203 56.6797 19.6479C56.7784 20.1449 56.8318 20.6572 56.8369 21.1626C56.8556 22.8065 56.8438 24.4506 56.8438 26.0962V26.9214C56.2159 27.1273 55.5588 27.1524 54.4375 27.0112C54.4137 26.7408 54.366 26.4449 54.3643 26.1489C54.3557 24.505 54.3569 22.8593 54.3604 21.2153C54.3604 20.7184 54.2687 20.2639 53.9453 19.8657C53.3191 19.0932 52.4036 18.7817 51.5273 19.0571C50.6135 19.3447 49.9172 20.2248 49.8984 21.2271C49.8695 22.8421 49.8884 24.459 49.8867 26.0757V27.0386H47.5586V13.9282L47.5605 13.9302ZM116.365 17.896C118.462 15.8029 120.38 16.4532 121.959 18.1021C122.158 17.9132 122.354 17.7214 122.559 17.5376C124.56 15.7405 127.616 16.5981 128.253 19.1372C128.314 19.382 128.343 19.6405 128.345 19.8921C128.352 22.1044 128.351 24.3175 128.348 26.5298C128.348 26.6931 128.311 26.8567 128.285 27.0659H127.192C127.177 26.7307 127.153 26.4274 127.153 26.1245C127.15 24.1386 127.163 22.1544 127.146 20.1685C127.135 18.8274 126.173 17.8539 124.89 17.7671C123.544 17.677 122.327 18.9655 122.354 20.0972C122.402 22.0813 122.366 24.0674 122.364 26.0532V27.0454H121.218C121.199 26.7697 121.163 26.4731 121.163 26.1753C121.158 24.3885 121.168 22.6017 121.154 20.8149C121.151 20.3929 121.118 19.9607 121.021 19.5522C120.792 18.584 119.945 17.8759 118.968 17.7788C117.996 17.6818 116.995 18.2042 116.61 19.1128C116.418 19.5689 116.32 20.0954 116.31 20.5923C116.276 22.4063 116.296 24.2219 116.296 26.0376V27.0688L116.299 27.0708H115.267C115.062 26.4871 115.012 17.9839 115.215 16.9604H116.219C116.268 17.2785 116.314 17.566 116.365 17.896ZM131.643 27.0679V27.0659H131.645L131.643 27.0679ZM138.469 17.1274C139.594 16.4145 140.779 16.389 141.943 17.0083C143.092 17.6209 143.654 18.635 143.662 19.9282C143.677 22.1387 143.668 24.3496 143.666 26.5601C143.666 26.6979 143.637 26.8378 143.613 27.0454H142.5C142.485 26.7425 142.461 26.4666 142.459 26.1909C142.456 24.2067 142.461 22.224 142.456 20.2397C142.453 18.7781 141.513 17.8131 140.121 17.7671C138.772 17.7228 137.633 19.0063 137.669 20.2759C137.723 22.2022 137.683 24.1308 137.683 26.0571V27.0474H136.469V20.4048C136.469 19.4281 136.122 18.6388 135.266 18.1147C133.76 17.1941 131.76 18.2233 131.716 19.9897C131.665 22.0012 131.704 24.0127 131.697 26.0259C131.697 26.3573 131.663 26.6888 131.643 27.0659H130.463C130.376 23.6948 130.445 20.344 130.423 16.9507H131.607C131.648 17.2586 131.687 17.5534 131.741 17.9702C132.487 17.0531 133.351 16.4915 134.517 16.5884C135.657 16.682 136.538 17.2533 137.234 18.1177C137.68 17.7552 138.047 17.3963 138.469 17.1274ZM107.252 22.0483C106.975 22.0517 106.69 22.1337 106.423 22.2222C105.24 22.6153 104.76 23.9073 105.405 24.9692C105.739 25.5187 106.208 25.9187 106.843 26.0923C108.194 26.4616 109.435 26.2061 110.534 25.3638C111.594 24.5504 111.94 23.4409 111.765 22.0405H111.767C110.194 22.0405 108.722 22.0313 107.252 22.0483ZM64.334 18.6626C63.1138 18.5758 61.442 19.5985 61.4199 20.9429H66.8643C66.8421 19.7568 65.7259 18.7615 64.334 18.6626ZM9.79102 2.87744C8.97937 2.68857 8.35815 2.95088 7.90039 3.64502C7.52262 4.21848 7.45619 4.85515 7.4834 5.51709C7.53956 6.82407 8.39587 7.55241 9.69434 7.30225C10.7663 7.09634 11.8178 6.78316 12.9629 6.49561C13.2658 6.85296 13.6475 7.30209 14.0508 7.77686C13.8295 7.95384 13.6269 8.11633 13.375 8.31885C14.4233 8.46008 15.5261 8.43274 16.2188 8.23193C14.7042 7.35381 13.8468 5.93551 12.7764 4.71533C11.9731 3.79977 10.9908 3.15654 9.79102 2.87744Z" fill="url(#paint0_linear_32727_80755)"/>
<defs>
<linearGradient id="paint0_linear_32727_80755" x1="105.242" y1="21.5647" x2="105.242" y2="30.8231" gradientUnits="userSpaceOnUse">
<stop stop-color="white"/>
<stop offset="1" stop-color="white" stop-opacity="0.6"/>
</linearGradient>
</defs>
</svg>
