<svg width="154" height="38" viewBox="0 0 154 38" fill="none" xmlns="http://www.w3.org/2000/svg">
<path d="M16.707 28.8838C17.1936 28.868 17.5836 29.0436 17.9102 29.3701C18.8676 30.3276 19.8274 31.2824 20.7822 32.2432C21.4733 32.9382 21.4762 33.9216 20.7832 34.6338C20.2232 35.2097 19.649 35.7722 19.0811 36.3408C18.7075 36.7144 18.3272 37.0821 17.9609 37.4629C17.1932 38.2611 16.0814 38.101 15.4678 37.4463C14.5798 36.4988 13.6385 35.6017 12.7207 34.6826C11.9736 33.9341 11.9661 32.9439 12.7119 32.1914C13.6337 31.261 14.5631 30.3363 15.4902 29.4111C15.7883 29.1137 16.1282 28.9096 16.5303 28.8838H16.707ZM140.637 32.3613C141.061 31.993 141.846 31.8437 142.485 32.542C142.501 32.4008 142.514 32.2774 142.528 32.1494C142.699 32.0742 142.787 32.1213 142.79 32.3037C142.793 32.4796 142.792 32.6561 142.792 32.832C142.792 33.3709 142.801 33.9104 142.79 34.4492C142.779 34.9908 142.453 35.3978 141.943 35.54C141.374 35.6987 140.732 35.507 140.458 35.0938C140.441 35.068 140.437 35.0326 140.416 34.9658H140.417C140.488 34.9263 140.543 34.895 140.61 34.8574C141.003 35.3368 141.495 35.4218 142.036 35.1943C142.496 35.0005 142.512 34.5816 142.503 34.0771C142.212 34.448 141.876 34.6333 141.466 34.626C141.061 34.6187 140.72 34.4541 140.47 34.125C140.056 33.5808 140.133 32.7984 140.637 32.3613ZM86.7686 32.5146C87.4238 31.9356 88.1608 31.8986 88.6699 32.4189C89.1414 32.901 89.173 33.6562 88.7432 34.1641C88.2499 34.7471 87.5406 34.7563 86.7393 34.1533H86.7383V35.1572C86.7383 35.2345 86.7532 35.3173 86.7295 35.3867C86.709 35.4449 86.641 35.4872 86.5947 35.5361C86.5511 35.4834 86.4909 35.4366 86.4678 35.376C86.4456 35.3185 86.46 35.2456 86.46 35.1797C86.46 34.2765 86.4563 33.3732 86.4629 32.4707C86.4635 32.3451 86.3854 32.1313 86.5977 32.126C86.8204 32.121 86.7067 32.3409 86.7422 32.4619C86.7475 32.4803 86.7593 32.4969 86.7686 32.5146ZM60.1182 32.0566C60.4435 32.089 60.7112 32.2265 60.9248 32.4619C61.3934 32.9784 61.381 33.7406 60.9062 34.2285C60.3865 34.7628 59.6923 34.7481 58.9609 34.1377V34.7471C58.9609 34.9236 58.9649 35.0999 58.959 35.2764C58.9558 35.3789 58.9928 35.5289 58.8311 35.5322C58.6453 35.5368 58.6955 35.3718 58.6816 35.2607C58.6777 35.2283 58.6807 35.1942 58.6807 35.1611C58.6807 34.2468 58.6806 33.3326 58.6826 32.4189C58.6826 32.2754 58.654 32.0973 58.9277 32.1211C58.9456 32.2605 58.9619 32.3879 58.9824 32.5498C59.2905 32.1928 59.6542 32.0112 60.1182 32.0566ZM109.966 35.0908C109.933 35.2132 109.857 35.2804 109.672 35.1865C109.729 34.8752 109.788 34.55 109.851 34.2109H110.189C110.11 34.5249 110.042 34.8092 109.966 35.0908ZM91.3135 32.0596C91.9873 32.1059 92.4857 32.7364 92.376 33.4658H90.2393C90.3081 33.8901 90.4982 34.1568 90.8545 34.2666C91.3121 34.4081 91.7254 34.3249 92.0732 33.917V33.918C92.1478 33.9621 92.2022 33.9934 92.2471 34.0205C92.2861 34.2605 91.7622 34.5869 91.3066 34.624C90.5542 34.6862 89.941 34.1149 89.9375 33.3486C89.9342 32.5459 90.5121 32.0048 91.3135 32.0596ZM97.0332 32.5068C97.3889 32.0639 98.0485 31.9166 98.5576 32.167C99.0138 32.3918 99.2926 32.9409 99.1836 33.4619H97.0723C97.102 33.8565 97.2809 34.111 97.5928 34.2354C98.0767 34.4277 98.5216 34.3419 98.8926 33.9248C98.958 33.9631 99.0189 33.9986 99.1055 34.0488C98.9679 34.2802 98.788 34.4286 98.5605 34.5225C97.9899 34.7584 97.3413 34.5865 96.9902 34.1084C96.6537 33.6502 96.6729 32.9552 97.0332 32.5068ZM119.813 32.4033C120.307 31.9199 120.97 31.9419 121.676 32.4814C121.696 32.354 121.71 32.2573 121.727 32.1523C121.91 32.0664 122.006 32.122 122.012 32.3154C122.019 32.5799 122.016 32.8449 122.016 33.1094V34.2002C122.016 34.2769 122.028 34.3632 122 34.4287C121.976 34.4855 121.904 34.5421 121.845 34.5547C121.809 34.5619 121.736 34.4926 121.715 34.4424C121.688 34.3743 121.695 34.2916 121.683 34.168C121.362 34.445 121.038 34.663 120.619 34.624C120.213 34.5856 119.884 34.4056 119.647 34.0693C119.292 33.5622 119.364 32.8431 119.813 32.4033ZM128.07 32.9893C128.251 32.3174 128.885 31.9331 129.574 32.0771C130.16 32.2001 130.572 32.8045 130.473 33.4756H128.339C128.402 33.8757 128.58 34.1381 128.919 34.2559C129.304 34.3901 129.681 34.3617 130.005 34.084C130.115 33.9894 130.203 33.8533 130.346 34.0371C130.138 34.5281 129.458 34.7604 128.852 34.5469C128.235 34.3293 127.893 33.6479 128.07 32.9893ZM104.06 32.1465C104.594 31.9283 105.395 32.0811 105.627 32.6807C105.577 32.719 105.522 32.7624 105.471 32.8027C104.863 32.2481 104.262 32.1951 103.846 32.6465C103.489 33.034 103.502 33.691 103.875 34.0547C104.304 34.4726 104.932 34.4062 105.469 33.8613V33.8604C105.533 33.8933 105.589 33.9222 105.634 33.9453C105.671 34.1489 105.285 34.4831 104.932 34.5771C104.259 34.7564 103.577 34.407 103.36 33.7715C103.139 33.1216 103.448 32.3959 104.06 32.1465ZM81.5664 32.0625C82.2184 32.1253 82.7093 32.7759 82.5811 33.4609V33.46H80.459C80.5006 33.85 80.6702 34.11 80.9814 34.2344C81.4642 34.4268 81.9109 34.347 82.2812 33.9277C82.346 33.9621 82.4087 33.9963 82.459 34.0234C82.4972 34.2641 81.9624 34.5861 81.5088 34.6191C80.7338 34.6753 80.1386 34.1014 80.1484 33.3066C80.1584 32.5197 80.7676 31.9851 81.5664 32.0625ZM70.9258 32.0615C71.5785 32.125 72.0684 32.7755 71.9395 33.46H69.8184C69.8594 33.8508 70.0294 34.1101 70.3408 34.2344C70.8234 34.4267 71.2694 34.3475 71.6396 33.9277C71.7044 33.9627 71.7672 33.9963 71.8174 34.0234C71.8552 34.2641 71.32 34.5858 70.8672 34.6182C70.0924 34.6742 69.4973 34.1003 69.5078 33.3057C69.5177 32.5187 70.1276 31.9842 70.9258 32.0615ZM53.498 32.8955C53.7235 32.2588 54.3444 31.9251 55.0029 32.085C55.5749 32.2245 55.9663 32.8147 55.8711 33.4746H53.7373C53.8008 33.8892 53.9925 34.1552 54.3477 34.2656C54.8037 34.4076 55.2178 34.3268 55.5596 33.9258C55.6283 33.9661 55.6966 34.0043 55.7607 34.042C55.5313 34.5842 54.6814 34.7674 54.1279 34.4971C53.5533 34.216 53.2766 33.5191 53.498 32.8955ZM106.535 32.9004C106.759 32.2629 107.376 31.9256 108.037 32.083C108.609 32.2193 108.999 32.8015 108.914 33.4707H106.782C106.832 33.8734 107.018 34.1236 107.35 34.2559C107.773 34.4242 108.154 34.3251 108.624 33.9346C108.656 33.9491 108.698 33.9625 108.732 33.9863C108.757 34.0035 108.773 34.0336 108.791 34.0547C108.588 34.5684 107.757 34.7612 107.202 34.5127C106.608 34.2469 106.312 33.5365 106.535 32.9004ZM62.4775 32.4102C62.9748 31.9163 63.6717 31.9359 64.3389 32.4834C64.3633 32.3619 64.3851 32.2529 64.4082 32.1406C64.5827 32.0811 64.6829 32.1249 64.6836 32.3047C64.6876 32.9878 64.6899 33.672 64.6787 34.3545C64.6771 34.4253 64.5907 34.5421 64.5273 34.5547C64.3996 34.5807 64.378 34.4621 64.3721 34.3564C64.3694 34.3036 64.3608 34.2512 64.3535 34.1904L64.2002 34.29C63.4426 34.7544 62.839 34.7078 62.3857 34.1572C61.9632 33.6441 62.0034 32.8817 62.4775 32.4102ZM66.498 32.1006H66.9424C67.1109 32.0999 67.1884 32.167 67.123 32.3691C66.9319 32.385 66.7383 32.4017 66.5068 32.4209C66.4956 32.526 66.4753 32.6299 66.4746 32.7344C66.4706 33.108 66.4703 33.4816 66.4736 33.8545C66.4769 34.24 66.528 34.2906 66.9043 34.3145C66.9782 34.3191 67.0515 34.3335 67.1162 34.3428L67.1152 34.3438C67.1906 34.5064 67.1136 34.5582 66.9854 34.5859C66.5247 34.6856 66.1801 34.4285 66.1602 33.9434C66.1443 33.5599 66.1562 33.1742 66.1562 32.79V32.4346C66.0147 32.4167 65.8952 32.4162 65.7861 32.3818C65.7287 32.364 65.6882 32.2889 65.6406 32.2393C65.6915 32.193 65.7367 32.1197 65.7949 32.1064C65.8961 32.0847 66.006 32.1006 66.0801 32.1006C66.2467 31.8831 66.0045 31.5084 66.4443 31.4375C66.4628 31.6715 66.4802 31.8725 66.498 32.1006ZM76.8076 32.0459C76.9941 32.2277 77.3612 31.9425 77.5205 32.3545C77.249 32.3822 77.0487 32.4023 76.8135 32.4268C76.8036 32.559 76.7865 32.6865 76.7852 32.8135C76.7812 33.1645 76.7812 33.5165 76.7852 33.8682C76.7891 34.2461 76.8411 34.2943 77.2275 34.3154C77.2917 34.3187 77.356 34.3287 77.4268 34.3359C77.5017 34.4995 77.4351 34.5611 77.2871 34.5889C76.8317 34.6753 76.4984 34.4323 76.4746 33.9648C76.4555 33.5814 76.4684 33.1963 76.4678 32.8115V32.4248C76.3231 32.4109 76.2369 32.4015 76.1504 32.3936C76.0459 32.3843 75.9308 32.3627 75.9619 32.2305C75.9752 32.1757 76.079 32.1257 76.1504 32.1064C76.2304 32.0853 76.3211 32.1016 76.3779 32.1016C76.5851 31.9104 76.2886 31.5104 76.75 31.4463C76.7705 31.6592 76.7898 31.8588 76.8076 32.0459ZM147.77 32.0225L147.81 32.0566C148.022 32.1992 148.351 31.9406 148.453 32.3564C148.213 32.3809 148.012 32.4013 147.777 32.4258C147.767 32.558 147.751 32.6855 147.75 32.8125C147.746 33.1642 147.746 33.5155 147.75 33.8672C147.754 34.2453 147.806 34.294 148.192 34.3145C148.236 34.3164 148.28 34.3176 148.323 34.3242C148.344 34.3269 148.363 34.3406 148.4 34.3564C148.466 34.4985 148.399 34.5604 148.251 34.5889C147.795 34.6754 147.462 34.4316 147.438 33.9648C147.419 33.5813 147.432 33.1964 147.432 32.8115V32.4336C147.303 32.4171 147.209 32.4028 147.114 32.3936C147.01 32.383 146.896 32.3617 146.928 32.2295C146.941 32.1747 147.045 32.1246 147.116 32.1055C147.196 32.0845 147.286 32.1006 147.345 32.1006C147.545 31.9075 147.261 31.5136 147.714 31.4395C147.735 31.6583 147.754 31.8591 147.77 32.0225ZM137.507 31.002C137.73 30.9914 137.65 31.21 137.65 31.333C137.657 32.2997 137.655 33.2657 137.653 34.2324C137.653 34.3283 137.642 34.4256 137.636 34.5215C137.608 34.542 137.58 34.5625 137.552 34.583L137.459 34.502C137.429 34.4749 137.403 34.446 137.388 34.4121C137.359 34.3475 137.374 34.262 137.374 34.1855C137.374 33.2406 137.37 32.2956 137.377 31.3506C137.378 31.2243 137.299 31.0119 137.507 31.002ZM50.4854 31.1572C50.6877 31.1513 50.6217 31.3455 50.625 31.4619C50.6342 31.7692 50.6289 32.0765 50.6289 32.4287C50.716 32.3621 50.7737 32.3219 50.8271 32.2764C51.1472 32.0014 51.5169 31.9897 51.8818 32.1279C52.2592 32.2708 52.4327 32.5911 52.4453 32.9844C52.4592 33.4241 52.4502 33.8649 52.4502 34.3047C52.4502 34.3265 52.4486 34.3493 52.4473 34.3711C52.4413 34.4801 52.4048 34.5861 52.2773 34.5537C52.2186 34.5387 52.1465 34.4364 52.1426 34.3711C52.1267 34.0968 52.1344 33.8218 52.1338 33.5469C52.1338 33.3816 52.1361 33.217 52.1328 33.0518C52.1242 32.6279 51.9462 32.3966 51.5918 32.3457C51.1594 32.2837 50.7948 32.4949 50.6982 32.8916C50.6493 33.0919 50.6375 33.3041 50.6309 33.5117C50.6203 33.849 50.6289 34.1872 50.6289 34.5244L50.5537 34.5713V34.5723C50.489 34.5287 50.4062 34.4979 50.3652 34.4385C50.3335 34.3922 50.3496 34.3103 50.3496 34.2441C50.3489 33.3198 50.3469 32.3961 50.3516 31.4717C50.3516 31.3534 50.2954 31.1634 50.4854 31.1572ZM134.614 32.123C134.626 32.1535 134.644 32.1775 134.64 32.1934C134.412 32.9279 134.184 33.664 133.944 34.3945C133.92 34.4671 133.812 34.5582 133.744 34.5566C133.675 34.5547 133.572 34.4614 133.545 34.3867C133.396 33.9729 133.265 33.5525 133.127 33.1348C133.079 32.9913 133.028 32.848 132.919 32.6973C132.882 32.7925 132.841 32.8868 132.809 32.9834C132.659 33.4316 132.51 33.8803 132.361 34.3291C132.323 34.4448 132.296 34.5702 132.136 34.5703C131.975 34.5703 131.947 34.4454 131.91 34.3291C131.7 33.6685 131.488 33.008 131.279 32.3467C131.26 32.286 131.261 32.2195 131.25 32.1416H131.251C131.485 32.0643 131.54 32.1854 131.586 32.3359C131.745 32.8623 131.908 33.388 132.07 33.9131C132.083 33.9547 132.097 33.9958 132.139 34.1191C132.195 33.9619 132.23 33.8692 132.261 33.7754C132.417 33.2941 132.566 32.8101 132.732 32.332C132.763 32.2441 132.85 32.1318 132.93 32.1133C133.075 32.079 133.123 32.2124 133.161 32.3359C133.309 32.8081 133.462 33.2798 133.615 33.75C133.648 33.8511 133.687 33.95 133.75 34.125C133.932 33.5319 134.093 33.0119 134.252 32.4922C134.278 32.4083 134.299 32.3221 134.33 32.2402C134.384 32.0984 134.486 32.0717 134.614 32.123ZM83.3818 32.1768C83.5543 32.0519 83.6681 32.1037 83.7666 32.2266C83.9173 32.4155 84.0639 32.6082 84.2139 32.7979C84.274 32.8745 84.3385 32.9483 84.4297 33.0586C84.6439 32.7835 84.841 32.5247 85.0439 32.2715C85.1853 32.0951 85.1891 32.0985 85.4727 32.1494C85.1798 32.5388 84.8996 32.9114 84.6094 33.2969C84.9161 33.6988 85.215 34.0902 85.5264 34.498C85.3465 34.6244 85.2288 34.5564 85.125 34.4248C84.9002 34.1411 84.6778 33.8563 84.4199 33.5283C84.1839 33.8325 83.9669 34.1162 83.7441 34.3965C83.5856 34.5967 83.5737 34.5958 83.333 34.4805C83.636 34.0877 83.9365 33.6982 84.2441 33.2988C83.9533 32.9207 83.674 32.5569 83.3818 32.1768ZM73.4385 32.2803C73.7571 32.0041 74.1257 31.9931 74.4912 32.1279C74.8562 32.2622 75.0391 32.5693 75.0557 32.9482C75.0762 33.4092 75.0628 33.8714 75.0615 34.333C75.0615 34.4454 75.0535 34.5708 74.8955 34.5615C74.7391 34.5522 74.7497 34.4218 74.749 34.3135C74.7464 33.9068 74.7497 33.4995 74.7471 33.0928C74.7437 32.6234 74.5635 32.3884 74.1807 32.3447C73.7172 32.2912 73.3809 32.5249 73.293 32.9805C73.2579 33.1623 73.2481 33.3513 73.2441 33.5371C73.2369 33.8638 73.2422 34.1905 73.2422 34.5303C72.9831 34.5933 72.9645 34.4639 72.9639 34.3213C72.9619 33.9258 72.9629 33.5292 72.9629 33.1338C72.9629 32.8918 72.9569 32.6495 72.9648 32.4082C72.9687 32.2978 72.92 32.1273 73.0957 32.1279C73.1624 32.1281 73.2289 32.2758 73.3135 32.377C73.3293 32.3651 73.3869 32.3252 73.4385 32.2803ZM115.686 32.0508C116.214 32.0633 116.613 32.3656 116.652 32.8887C116.69 33.3806 116.665 33.8775 116.664 34.3721C116.664 34.4809 116.623 34.5868 116.496 34.5547C116.437 34.5402 116.364 34.4369 116.361 34.3721C116.348 33.9548 116.354 33.5361 116.352 33.1182C116.349 32.6226 116.172 32.3852 115.779 32.3428C115.305 32.2912 114.963 32.5319 114.895 33.0186C114.846 33.3644 114.859 33.7192 114.848 34.0703C114.843 34.2206 114.848 34.3708 114.848 34.5381C114.552 34.5856 114.571 34.4207 114.569 34.2812C114.567 33.7754 114.567 33.2696 114.567 32.7637C114.567 32.621 114.553 32.4753 114.575 32.3359C114.588 32.2566 114.652 32.1347 114.709 32.124C114.848 32.0989 114.841 32.2312 114.85 32.3291C114.852 32.3502 114.861 32.3706 114.874 32.418C115.111 32.2085 115.353 32.0429 115.686 32.0508ZM126.104 32.0508C126.599 32.072 126.984 32.3651 127.025 32.8623C127.068 33.3641 127.045 33.8728 127.038 34.3779C127.037 34.4408 126.957 34.5441 126.898 34.5566C126.771 34.584 126.735 34.4763 126.734 34.3682C126.732 33.9502 126.733 33.5322 126.73 33.1143C126.727 32.6213 126.548 32.3842 126.153 32.3438C125.69 32.2968 125.345 32.5303 125.279 32.9932C125.228 33.3495 125.24 33.7155 125.228 34.0771C125.222 34.227 125.227 34.3776 125.227 34.5195V34.5176C125.026 34.5956 124.956 34.5291 124.95 34.375C124.945 34.2322 124.946 34.0891 124.946 33.9463V32.4961C124.946 32.43 124.931 32.3567 124.954 32.2998C124.983 32.2311 125.044 32.1757 125.092 32.1143C125.136 32.1657 125.187 32.2132 125.222 32.2705C125.242 32.3042 125.235 32.3542 125.244 32.4355C125.497 32.1902 125.759 32.0362 126.104 32.0508ZM101.343 32.0508C101.858 32.0628 102.251 32.3543 102.295 32.8633C102.338 33.3652 102.316 33.8737 102.308 34.3789C102.306 34.441 102.224 34.5431 102.166 34.5547C102.038 34.5798 102.005 34.471 102.004 34.3633C102.002 33.9455 102.003 33.5282 102 33.1104C101.997 32.6191 101.816 32.3805 101.42 32.3408C100.956 32.2952 100.633 32.5316 100.544 32.9932C100.514 33.1537 100.501 33.3195 100.498 33.4834C100.491 33.8233 100.496 34.1638 100.496 34.5195H100.497C100.293 34.5949 100.224 34.5246 100.22 34.3721C100.214 34.2074 100.216 34.0416 100.216 33.877V32.4912C100.216 32.4252 100.201 32.352 100.224 32.2959C100.253 32.2272 100.315 32.1731 100.363 32.1123C100.407 32.1652 100.457 32.2143 100.491 32.2725C100.511 32.3062 100.505 32.3545 100.518 32.4482C100.757 32.1878 101.01 32.0428 101.343 32.0508ZM144.062 31.1572C144.263 31.1599 144.191 31.3543 144.195 31.4707C144.206 31.7759 144.198 32.0818 144.198 32.3877H144.2C144.471 32.177 144.722 32.0488 145.043 32.0527C145.582 32.0594 145.978 32.3874 146.011 32.9268C146.04 33.3983 146.025 33.8729 146.013 34.3457C146.011 34.4198 145.929 34.5431 145.869 34.5537C145.717 34.5799 145.707 34.4441 145.706 34.3311C145.704 33.9131 145.707 33.4948 145.703 33.0762C145.698 32.6148 145.509 32.3785 145.121 32.3408C144.682 32.2981 144.33 32.5158 144.264 32.9307C144.206 33.2969 144.216 33.6741 144.2 34.0469C144.194 34.1996 144.198 34.3533 144.198 34.4941C144.059 34.592 143.969 34.5817 143.93 34.4336C143.913 34.3714 143.919 34.3025 143.919 34.2363C143.918 33.3125 143.916 32.3876 143.921 31.4639C143.921 31.3455 143.869 31.1548 144.062 31.1572ZM48.9893 31.1338C49.0666 31.1338 49.1494 31.1168 49.2188 31.1406C49.2888 31.1644 49.3454 31.2278 49.4082 31.2734C49.3495 31.323 49.2967 31.4052 49.2314 31.416C49.0921 31.4385 48.9464 31.4252 48.8037 31.4258H48.3643V34.1914C48.3643 34.268 48.3789 34.3526 48.3525 34.4199C48.3294 34.4781 48.2583 34.5517 48.2061 34.5537C48.1539 34.5556 48.0714 34.4881 48.0508 34.4326C48.0217 34.3539 48.0352 34.2589 48.0352 34.1709C48.0345 33.3893 48.0345 32.6077 48.0332 31.8262C48.0332 31.7085 48.0226 31.5903 48.0146 31.4258H47.4053C47.3173 31.4258 47.2239 31.4395 47.1426 31.415C47.0838 31.3971 47.0417 31.3262 46.9922 31.2793C47.0417 31.2324 47.0859 31.1519 47.1406 31.1445C47.2921 31.1247 47.4485 31.1338 47.6025 31.1338H48.9893ZM138.863 32.1221C139.137 32.1036 139.112 32.2572 139.112 32.3828C139.115 32.8436 139.113 33.3039 139.113 33.7646V34.5127C138.908 34.6 138.838 34.5267 138.836 34.3574C138.833 34.0507 138.834 33.7433 138.833 33.4365C138.833 33.1072 138.83 32.7785 138.834 32.4492C138.835 32.3435 138.852 32.2384 138.863 32.1221ZM68.3516 32.1201C68.3826 32.1155 68.428 32.1542 68.4531 32.1846C68.4714 32.2065 68.4756 32.2467 68.4756 32.2783C68.4769 33.0222 68.4756 33.7667 68.4756 34.5225H68.4766C68.2612 34.5951 68.2052 34.5093 68.2031 34.3633C68.1992 34.1219 68.1992 33.88 68.1992 33.6387C68.1992 33.2441 68.1982 32.8496 68.2002 32.4551C68.2002 32.3685 68.2024 32.2773 68.2275 32.1953C68.2389 32.159 68.306 32.1261 68.3516 32.1201ZM94.2666 32.0869C94.4251 32.0283 94.5152 32.1107 94.4756 32.3096C94.4149 32.3287 94.3544 32.3507 94.293 32.3652C93.9553 32.4466 93.7546 32.663 93.7168 33.002C93.6844 33.2949 93.6879 33.5921 93.6807 33.8877C93.6754 34.0945 93.6797 34.3012 93.6797 34.5205C93.4665 34.5949 93.4069 34.5142 93.4043 34.3662C93.4003 34.158 93.4001 33.9494 93.3994 33.7412C93.3994 33.3135 93.3988 32.8857 93.3994 32.458C93.3994 32.3813 93.3915 32.2992 93.416 32.2305C93.4339 32.1822 93.4973 32.1333 93.5488 32.1201C93.5793 32.113 93.6433 32.1671 93.6631 32.208C93.6895 32.2634 93.6871 32.332 93.6943 32.3789C93.886 32.2784 94.0683 32.1603 94.2666 32.0869ZM95.6055 32.1152C95.6478 32.1694 95.7259 32.2231 95.7266 32.2773C95.7345 33.0211 95.7314 33.7656 95.7314 34.5146L95.666 34.5381C95.5257 34.5781 95.4696 34.5183 95.4609 34.3975C95.451 34.2667 95.4541 34.1344 95.4541 34.0029V32.5215C95.454 32.445 95.4379 32.3612 95.4629 32.2939C95.488 32.2258 95.5565 32.1741 95.6055 32.1152ZM113.239 32.1152C113.288 32.1734 113.379 32.2315 113.38 32.291C113.39 33.0334 113.387 33.7764 113.387 34.5293H113.386C113.12 34.5954 113.111 34.4556 113.11 34.3174C113.108 33.8459 113.108 33.3745 113.108 32.9023C113.108 32.7046 113.099 32.5063 113.116 32.3105C113.122 32.2426 113.196 32.1799 113.239 32.1152ZM59.9404 32.3369C59.4526 32.3404 58.9818 32.6936 58.9717 33.3359C58.9624 33.9119 59.4097 34.3276 59.9844 34.3223C60.5617 34.317 60.9813 33.8868 60.9707 33.3115C60.9599 32.7489 60.515 32.3329 59.9404 32.3369ZM63.4111 32.3389C62.8288 32.3285 62.4028 32.7383 62.3955 33.3154C62.3883 33.9037 62.7911 34.3197 63.3721 34.3232C63.9633 34.3265 64.3681 33.9268 64.3701 33.3369C64.372 32.7696 63.9679 32.3488 63.4111 32.3389ZM87.7217 32.3369C87.2383 32.3396 86.7616 32.6856 86.749 33.335C86.7378 33.9103 87.1864 34.3272 87.7598 34.3232H87.7607C88.3379 34.3184 88.7589 33.889 88.749 33.3145C88.7397 32.7505 88.2962 32.3338 87.7217 32.3369ZM120.725 32.3389C120.144 32.3356 119.725 32.7502 119.724 33.3301C119.722 33.916 120.131 34.3252 120.716 34.3232C121.303 34.3213 121.702 33.9131 121.698 33.3213C121.694 32.7575 121.283 32.3422 120.725 32.3389ZM141.488 32.3398C140.918 32.3412 140.484 32.7791 140.49 33.3477C140.496 33.9057 140.917 34.3205 141.479 34.3232C142.062 34.3265 142.494 33.9086 142.497 33.3398C142.5 32.7838 142.051 32.3385 141.488 32.3398ZM98.0137 32.3369C97.5151 32.3343 97.1847 32.6143 97.0703 33.1797C97.7005 33.1956 98.3068 33.1908 98.9238 33.1855C98.8087 32.6143 98.4964 32.3402 98.0137 32.3369ZM54.6543 32.3379C54.1533 32.3493 53.7999 32.6796 53.7734 33.1748H55.5801L55.5674 33.0771C55.4855 32.6033 55.141 32.3267 54.6543 32.3379ZM91.1592 32.3389C90.6582 32.3503 90.3049 32.6798 90.2783 33.1748H92.085L92.0723 33.0781C91.9905 32.6041 91.646 32.3277 91.1592 32.3389ZM70.7021 32.3398C70.2189 32.3617 69.8859 32.6778 69.8428 33.1729H71.6719C71.5594 32.5945 71.2198 32.3167 70.7021 32.3398ZM129.194 32.3408C128.729 32.3759 128.408 32.6955 128.371 33.1729H130.199C130.081 32.5825 129.725 32.3012 129.194 32.3408ZM107.707 32.3379C107.206 32.3438 106.866 32.6498 106.802 33.1709H108.63C108.536 32.6188 108.207 32.332 107.707 32.3379ZM81.3281 32.3408C80.8448 32.3687 80.4954 32.717 80.5 33.168H82.3018C82.227 32.6125 81.8611 32.3097 81.3281 32.3408ZM138.984 31.1592C139.029 31.1473 139.159 31.2673 139.16 31.3301C139.162 31.41 139.073 31.4922 138.987 31.6328C138.887 31.5007 138.777 31.4183 138.785 31.3496C138.793 31.2756 138.902 31.1818 138.984 31.1592ZM22.5947 21.3809C23.3644 20.6318 24.5446 20.6608 25.3037 21.415C26.453 22.5571 27.5989 23.7026 28.7402 24.8525C29.5205 25.6382 29.5193 26.8211 28.7363 27.6094C27.6109 28.7434 26.477 29.87 25.3477 31C24.947 31.4012 24.4674 31.6132 23.9102 31.6133C23.3403 31.5934 22.8784 31.3692 22.4883 30.9766C21.6577 30.14 20.8205 29.3075 19.9873 28.4736C19.7071 28.1935 19.4217 27.9179 19.1475 27.6318C18.3599 26.8099 18.3383 25.6565 19.1338 24.8398C20.2719 23.672 21.4256 22.5183 22.5947 21.3809ZM95.5693 31.1602C95.6474 31.1542 95.7331 31.2412 95.8779 31.3232C95.7486 31.4282 95.6702 31.538 95.6016 31.5332C95.5269 31.5273 95.4265 31.4238 95.4033 31.3438C95.3901 31.2981 95.5052 31.1648 95.5693 31.1602ZM113.23 31.1602C113.308 31.1562 113.391 31.2453 113.532 31.3311C113.4 31.432 113.32 31.5405 113.251 31.5332C113.177 31.5251 113.08 31.4185 113.06 31.3379C113.048 31.2921 113.166 31.1637 113.23 31.1602ZM68.3301 31.0615C68.4271 31.1928 68.5223 31.2662 68.5273 31.3447C68.5306 31.4081 68.416 31.5388 68.3701 31.5322C68.2868 31.519 68.1679 31.4344 68.1533 31.3623C68.1403 31.2935 68.2415 31.2029 68.3301 31.0615ZM8.78418 23.4854C9.20799 23.0782 9.82323 23.075 10.249 23.4814C10.9407 24.1427 11.6196 24.8197 12.2803 25.5127C12.6734 25.9253 12.6806 26.535 12.2861 26.9521C11.6288 27.6471 10.9522 28.3265 10.252 28.9785C9.76923 29.4275 9.19033 29.3971 8.71289 28.9355C8.08015 28.324 7.46424 27.6941 6.84473 27.0693C6.61989 26.8425 6.48035 26.5728 6.48828 26.2422C6.49294 25.9579 6.57078 25.6958 6.77441 25.4902C7.44026 24.8178 8.1018 24.1406 8.78418 23.4854ZM121.581 14.8027C123.034 14.7743 124.387 15.1619 125.666 15.8291C126.056 16.0321 126.091 16.1762 125.863 16.5635C125.629 16.9622 125.393 17.3604 125.155 17.7578C124.87 18.2342 124.775 18.263 124.286 18.0225C123.341 17.5569 122.344 17.2986 121.289 17.3369C120.909 17.3508 120.529 17.4457 120.155 17.5283C120.01 17.5608 119.871 17.6475 119.745 17.7334C119.088 18.1818 119.088 19.0856 119.771 19.4863C120.097 19.6773 120.474 19.8026 120.844 19.8945C121.644 20.0936 122.457 20.2376 123.259 20.4326C123.892 20.5867 124.496 20.8279 125.041 21.1982C126.159 21.9587 126.56 23.046 126.438 24.3467C126.263 26.2048 125.127 27.2697 123.418 27.7227C120.916 28.3864 118.572 27.9508 116.429 26.4863C116.105 26.2648 116.088 26.1693 116.281 25.8301C116.548 25.3614 116.821 24.8951 117.096 24.4316C117.313 24.0642 117.429 24.0344 117.777 24.2754C118.568 24.8229 119.432 25.1905 120.38 25.3564C121.036 25.4715 121.693 25.488 122.344 25.3135C122.666 25.2268 122.957 25.0859 123.212 24.8584C123.638 24.4787 123.725 23.6366 123.096 23.2637C122.752 23.06 122.357 22.9235 121.969 22.8184C121.108 22.5863 120.231 22.4171 119.374 22.1758C118.724 21.9926 118.132 21.666 117.609 21.2275C116.683 20.45 116.312 19.4445 116.425 18.2598C116.553 16.9063 117.305 15.9904 118.502 15.4131C119.306 15.0256 120.164 14.8411 121.054 14.8047C121.229 14.7974 121.405 14.8037 121.581 14.8037V14.8027ZM51.3271 10.3184C53.9266 9.66902 56.349 10.1324 58.5967 11.5674C58.9609 11.8001 58.9879 11.9579 58.7373 12.3262C58.4028 12.8181 58.0628 13.306 57.7217 13.7939C57.5266 14.0736 57.3862 14.0988 57.082 13.9209C56.8923 13.8098 56.7065 13.6887 56.5107 13.5889C55.2417 12.9428 53.8996 12.7206 52.499 12.9766C50.905 13.2683 49.9429 14.3909 49.8945 16.0107C49.8648 17.0126 49.8896 18.017 49.8896 19.0195H49.8916C49.8916 20.055 49.8683 21.0921 49.8994 22.127C49.9246 22.9719 50.2376 23.718 50.877 24.2959C51.4278 24.7932 52.0955 25.0411 52.8223 25.1211C54.5315 25.3082 56.0981 24.9023 57.5264 23.9502C57.822 23.7531 57.9164 23.7705 58.1221 24.0654C58.4818 24.5806 58.8403 25.0968 59.1914 25.6172C59.4028 25.9304 59.3701 26.09 59.0693 26.3135C57.9392 27.1519 56.6642 27.6397 55.2842 27.8691C53.7368 28.1264 52.2056 28.0777 50.7197 27.54C48.5409 26.7524 47.2828 25.2002 46.9541 22.9043C46.9118 22.6108 46.8884 22.3127 46.8877 22.0166C46.8817 20.0327 46.8814 18.0483 46.8867 16.0645C46.8901 14.8473 47.1798 13.7061 47.8594 12.6846C48.6939 11.4308 49.8895 10.6774 51.3271 10.3184ZM63.6465 10.3223C63.9737 10.3269 64.0984 10.4646 64.1104 10.791C64.1137 10.8789 64.1104 10.9671 64.1104 11.0557C64.1104 15.1312 64.1093 19.2067 64.1152 23.2822C64.1153 23.5882 64.1445 23.8995 64.21 24.1982C64.405 25.0896 64.9123 25.392 65.8506 25.3662C66.0925 25.3596 66.3339 25.3265 66.5752 25.3252C66.8364 25.3245 66.9807 25.4394 66.9873 25.6973C67.0038 26.3134 67.0025 26.9307 66.9873 27.5469C66.9806 27.7958 66.8618 27.9211 66.624 27.9443C65.7571 28.0277 64.8893 28.0876 64.0322 27.8516C62.8637 27.5289 62.0818 26.7816 61.6367 25.668C61.3512 24.9533 61.2354 24.2056 61.2354 23.4395V11.0146C61.2354 10.9268 61.2327 10.8379 61.2373 10.75C61.2525 10.4504 61.3632 10.3262 61.6641 10.3223C62.3247 10.313 62.9859 10.313 63.6465 10.3223ZM71.0605 15.0449C72.3987 14.7574 73.7428 14.6786 75.085 15.0098C76.9299 15.4654 78.1291 16.8474 78.3262 18.7373C78.3685 19.1412 78.3912 19.5492 78.3926 19.9551C78.3985 22.1802 78.3962 24.4057 78.3955 26.6309C78.3955 27.1169 78.3151 27.2305 77.8535 27.3574C76.5747 27.7085 75.2733 27.9145 73.9482 27.9932C72.9841 28.05 72.0325 27.9899 71.0928 27.7783C70.388 27.6196 69.724 27.3549 69.1514 26.9014C68.0458 26.0253 67.6892 24.8446 67.8174 23.4912C67.9807 21.7668 69.1568 20.7535 70.7773 20.3018C71.951 19.9751 73.1482 19.9757 74.3496 20.0742C74.7198 20.1046 75.0905 20.1417 75.4951 20.1787H75.4971C75.5519 19.5778 75.5232 19.0443 75.3408 18.5273C75.1543 18.001 74.7824 17.6671 74.2461 17.5156C73.5638 17.3233 72.8715 17.3551 72.1807 17.4443C71.4427 17.5402 70.7389 17.7521 70.0869 18.1211C69.8014 18.283 69.6728 18.2541 69.4785 17.9688C69.1684 17.5138 68.8679 17.0518 68.5723 16.5869C68.3899 16.3001 68.4217 16.1818 68.7148 15.9922C69.4356 15.5273 70.226 15.2248 71.0605 15.0449ZM98.3047 12.0381C98.6783 12.0421 98.7996 12.141 98.834 12.5166C98.9061 13.2942 98.9606 14.0736 99.0215 14.8525C99.0307 14.9713 99.0351 15.0908 99.043 15.2451C99.1751 15.2537 99.2916 15.2669 99.4072 15.2676C100.101 15.2696 100.795 15.2669 101.489 15.2695C101.896 15.2709 102 15.3725 102.004 15.7744C102.009 16.281 102.009 16.7884 102.004 17.2949C102.001 17.6666 101.883 17.7854 101.504 17.7881C100.832 17.794 100.16 17.79 99.4873 17.79H99.0967V17.792C99.0894 17.9518 99.0807 18.05 99.0801 18.1484C99.0794 19.8557 99.0684 21.5639 99.0889 23.2705C99.0929 23.6368 99.1642 24.0175 99.2852 24.3633C99.4842 24.9307 99.9352 25.2533 100.526 25.3154C100.938 25.359 101.358 25.3272 101.774 25.3213C102.261 25.3147 102.383 25.4277 102.386 25.9131C102.388 26.409 102.391 26.9045 102.385 27.4004C102.379 27.816 102.243 27.9445 101.831 27.9717C100.961 28.0279 100.093 28.0581 99.2363 27.8398C97.9827 27.5204 97.0591 26.8078 96.5645 25.5918C96.3337 25.0251 96.2175 24.431 96.2148 23.8193C96.2082 22.1668 96.2087 20.5139 96.208 18.8613C96.2067 16.7791 96.2073 14.6975 96.208 12.6152C96.208 12.124 96.2931 12.0391 96.7842 12.0371C97.2907 12.0358 97.7982 12.0328 98.3047 12.0381ZM107.094 14.9785C108.218 14.7736 109.346 14.7183 110.476 14.9385C111.476 15.1336 112.355 15.5546 113.031 16.3428C113.626 17.0351 113.924 17.8561 114.034 18.7461C114.09 19.1922 114.104 19.6456 114.105 20.0957C114.112 22.2667 114.109 24.4384 114.108 26.6094C114.108 27.1229 114.041 27.216 113.551 27.3535C112.241 27.7219 110.906 27.928 109.546 27.9941C108.39 28.051 107.256 27.9657 106.157 27.5869C105.315 27.2966 104.584 26.8403 104.09 26.0732C102.724 23.9585 103.655 21.2907 106.058 20.4355C106.778 20.179 107.526 20.0502 108.29 20.0283C109.139 20.0045 109.986 20.0267 110.828 20.1523C110.944 20.1695 111.066 20.1554 111.222 20.1553C111.247 19.4304 111.235 18.7341 110.828 18.1104C110.605 17.7685 110.261 17.5973 109.879 17.4961C109.272 17.3354 108.653 17.3547 108.039 17.4229C107.244 17.5108 106.484 17.7273 105.782 18.126C105.503 18.2847 105.376 18.2559 105.199 17.9941C104.892 17.5372 104.589 17.0765 104.293 16.6123C104.088 16.291 104.119 16.1865 104.451 15.9736C105.261 15.4558 106.154 15.1498 107.094 14.9785ZM152.037 15.1904C152.362 15.207 152.69 15.2005 152.983 15.2031C153.112 15.4219 152.988 15.5293 152.908 15.6396C152.056 16.832 151.2 18.0212 150.347 19.2129C149.847 19.9105 149.349 20.6106 148.847 21.3154C148.891 21.3935 148.922 21.4633 148.967 21.5234C150.42 23.5052 151.873 25.4857 153.327 27.4668C153.34 27.484 153.359 27.4965 153.375 27.5117V27.5781L153.373 27.5762C152.893 27.8207 152.392 27.7071 151.901 27.6396C151.804 27.6263 151.72 27.459 151.644 27.3525C150.532 25.8045 149.422 24.2538 148.312 22.7051C148.229 22.5902 148.142 22.4778 148.025 22.3213C147.92 22.4555 147.832 22.5611 147.751 22.6729C146.636 24.2189 145.514 25.7604 144.414 27.3164C144.212 27.6021 143.992 27.7375 143.646 27.7051C143.439 27.6853 143.227 27.7055 143.019 27.7002C142.915 27.6968 142.811 27.6745 142.633 27.6514C142.735 27.4695 142.795 27.3342 142.88 27.2178C143.94 25.7692 145.005 24.3233 146.067 22.876C146.438 22.3701 146.808 21.8625 147.188 21.3408C146.808 20.8072 146.433 20.2793 146.056 19.7529C145.074 18.3827 144.092 17.0137 143.11 15.6436C143.065 15.5808 143.016 15.5193 142.986 15.4492C142.931 15.3217 142.977 15.2141 143.115 15.21C143.5 15.1994 143.888 15.1919 144.271 15.2236C144.371 15.2325 144.476 15.3742 144.55 15.4766C145.657 17.0285 146.758 18.5848 147.861 20.1387C147.905 20.2002 147.955 20.2577 148.025 20.3477C148.103 20.2465 148.169 20.1651 148.229 20.0791C149.308 18.5484 150.391 17.0195 151.46 15.4814C151.612 15.2627 151.781 15.1779 152.037 15.1904ZM84.6904 14.8643C85.8495 14.7459 86.9987 14.8123 88.1445 14.998C88.4771 15.0516 88.566 15.1521 88.5693 15.4727C88.5753 16.0016 88.5753 16.5307 88.5693 17.0596C88.566 17.3929 88.4561 17.4836 88.1201 17.4697C87.4053 17.4406 86.6904 17.4022 85.9756 17.3916C85.3441 17.3817 84.7248 17.4782 84.082 17.7109V27.0488C84.082 27.148 84.0873 27.2482 84.0801 27.3467C84.0628 27.5765 83.9627 27.7001 83.7314 27.7041C83.0153 27.716 82.2991 27.7153 81.583 27.7061C81.3484 27.7034 81.2483 27.5938 81.2178 27.3613C81.2045 27.2635 81.208 27.1627 81.208 27.0635C81.208 23.5264 81.2138 19.9892 81.1992 16.4521C81.1973 16.0105 81.3506 15.7685 81.7559 15.6025C82.7008 15.2157 83.6747 14.9681 84.6904 14.8643ZM92.8213 15.0967C93.1909 15.102 93.2812 15.2044 93.2812 15.582C93.2832 17.5313 93.2822 19.4804 93.2822 21.4297V27.0781C93.2822 27.1773 93.2876 27.2772 93.2783 27.375C93.2578 27.5919 93.1622 27.7024 92.9434 27.7051C92.2279 27.7143 91.5114 27.7143 90.7959 27.7051C90.5581 27.7017 90.4438 27.5723 90.416 27.3311C90.4061 27.2438 90.4111 27.1552 90.4111 27.0674V15.7686C90.4111 15.7025 90.4098 15.6364 90.4131 15.5703C90.4283 15.2357 90.5464 15.1013 90.873 15.0967C91.5222 15.0874 92.1721 15.0874 92.8213 15.0967ZM135.08 10.3281C135.861 10.3361 136.639 10.4197 137.393 10.6523C138.625 11.0326 139.644 11.6965 140.306 12.8379C140.665 13.4587 140.858 14.1351 140.922 14.8418C141.01 15.8078 140.924 16.7577 140.517 17.6543C139.9 19.0117 138.807 19.8066 137.416 20.2266C136.976 20.3595 136.518 20.4325 136.014 20.5449C136.113 20.6778 136.206 20.8054 136.301 20.9297C137.884 23.0047 139.468 25.0793 141.052 27.1543C141.119 27.2415 141.195 27.3257 141.242 27.4229C141.308 27.5577 141.262 27.6808 141.104 27.6855C140.687 27.6981 140.266 27.7085 139.851 27.6768C139.738 27.6682 139.615 27.5257 139.533 27.418C138.615 26.2071 137.705 24.9898 136.79 23.7764C136.055 22.8005 135.316 21.8268 134.58 20.8516C134.478 20.7153 134.371 20.6162 134.175 20.6182C133.139 20.6274 132.104 20.622 131.068 20.624C131.004 20.624 130.94 20.6413 130.816 20.6592V27.123C130.816 27.2109 130.816 27.2999 130.814 27.3877C130.81 27.5853 130.717 27.6971 130.511 27.6973H129.685C129.506 27.6973 129.425 27.6011 129.424 27.4287C129.424 27.3408 129.422 27.2519 129.422 27.1641V10.9033C129.422 10.3342 129.432 10.3232 129.99 10.3232C131.687 10.3232 133.383 10.3116 135.08 10.3281ZM75.4111 22.5215C74.4393 22.3886 73.4641 22.2757 72.4844 22.3848C72.1293 22.4244 71.7681 22.5274 71.4395 22.6689C70.4629 23.0895 70.4912 24.5774 71.2793 25.0146C71.5637 25.1727 71.8743 25.3128 72.1904 25.3789C73.0295 25.5548 73.8767 25.4854 74.7178 25.3545C74.9756 25.3142 75.2314 25.2608 75.4951 25.2119H75.4941V22.5693C75.4492 22.5429 75.431 22.5241 75.4111 22.5215ZM111.09 22.5186C110.128 22.389 109.163 22.278 108.193 22.3838C107.859 22.4202 107.524 22.5174 107.208 22.6377C106.818 22.7858 106.535 23.0796 106.456 23.498C106.322 24.2043 106.452 24.8027 107.266 25.1816C107.463 25.2735 107.679 25.365 107.892 25.3789C108.526 25.4212 109.165 25.459 109.8 25.4346C110.266 25.4161 110.729 25.2968 111.205 25.2207V22.5703C111.15 22.5452 111.121 22.5232 111.09 22.5186ZM29.7021 14.2637C30.5665 13.4093 31.723 13.4086 32.582 14.2637C33.691 15.3674 34.7937 16.4774 35.9033 17.5811C36.306 17.9817 36.5206 18.4567 36.5332 19.0352C36.516 19.5291 36.359 19.9821 36.002 20.3418C34.8381 21.5155 33.6738 22.6888 32.4941 23.8467C31.7165 24.6091 30.5374 24.5859 29.7598 23.8135C28.6336 22.6953 27.5294 21.5544 26.3867 20.4541C25.6002 19.6962 25.571 18.3731 26.3809 17.5811C27.0031 16.9727 27.6135 16.351 28.2285 15.7354C28.7192 15.2447 29.2082 14.7517 29.7021 14.2637ZM16.249 14.501C16.8646 14.2881 17.4249 14.4596 17.8857 14.9131C18.4822 15.5003 19.0668 16.1002 19.6572 16.6934C20.0223 17.0604 20.3912 17.4246 20.7549 17.793C21.0861 18.1289 21.272 18.5278 21.2627 18.9385L21.2617 18.9395C21.2591 19.4744 21.0812 19.8647 20.7559 20.1914C20.3982 20.5504 20.038 20.907 19.6816 21.2666C19.1083 21.8459 18.5375 22.4279 17.9648 23.0078C17.5992 23.3773 17.1676 23.581 16.6348 23.5586C16.1514 23.5381 15.7727 23.316 15.4453 22.9854C14.7642 22.2963 14.099 21.5898 13.4014 20.918C13.0635 20.5927 12.6887 20.2916 12.29 20.0449C11.562 19.5952 10.8601 19.7094 10.249 20.3145C10.0693 20.4928 9.89427 20.6758 9.70996 20.8496C9.36412 21.1743 8.92357 21.1981 8.58301 20.8701C8.11482 20.4204 7.66304 19.9514 7.22461 19.4727C6.93475 19.1567 6.93591 18.7295 7.22461 18.4248C7.68685 17.9374 8.16239 17.4613 8.64844 16.9971C8.94666 16.7123 9.35103 16.7239 9.66309 17.0068C9.89974 17.221 10.118 17.4549 10.3447 17.6797C11.2525 18.5816 11.8434 18.5962 12.7656 17.6973C13.6802 16.8052 14.5659 15.8823 15.4824 14.9922C15.6973 14.7839 15.9693 14.5982 16.249 14.501ZM1.74121 17.1074C2.08695 16.7729 2.51094 16.7683 2.85938 17.1025C3.31958 17.5442 3.77054 17.9965 4.21289 18.4561C4.54155 18.7973 4.56001 19.2049 4.2373 19.5508C3.78775 20.0327 3.32018 20.5 2.83691 20.9482C2.49705 21.2636 2.06888 21.2373 1.74023 20.916C1.29188 20.4782 0.842578 20.0396 0.414062 19.582C0.279935 19.4386 0.211739 19.2331 0.113281 19.0566C0.16155 18.7961 0.248175 18.5982 0.410156 18.4355C0.851793 17.9913 1.29098 17.5431 1.74121 17.1074ZM131.188 11.6318C131.073 11.6318 130.957 11.6509 130.839 11.6621V19.3086H131.277C132.589 19.3086 133.9 19.3286 135.21 19.2988C135.766 19.2863 136.335 19.2267 136.873 19.0898C138.103 18.777 139.01 18.0605 139.374 16.793C139.61 15.9723 139.608 15.1375 139.402 14.3096C139.191 13.4612 138.725 12.7878 137.973 12.3242C137.159 11.8225 136.253 11.6503 135.319 11.6357C133.943 11.6139 132.565 11.6299 131.188 11.6318ZM22.5547 7.01562C23.3634 6.21625 24.5282 6.21764 25.335 7.01562C26.4702 8.13967 27.5999 9.26967 28.7246 10.4043C29.5274 11.2144 29.5475 12.3748 28.752 13.1875C27.6185 14.3447 26.474 15.491 25.3154 16.623C24.5042 17.4157 23.3393 17.3873 22.5332 16.585C21.409 15.4654 20.2892 14.3393 19.165 13.2197C18.7784 12.8343 18.5771 12.3759 18.5791 11.7822L18.584 11.5918C18.6192 11.1514 18.8221 10.7475 19.1641 10.4043C20.2922 9.27283 21.4186 8.13915 22.5547 7.01562ZM8.74121 9.09863C9.18022 8.66756 9.8108 8.64534 10.2578 9.07227C10.9343 9.71967 11.5897 10.3907 12.2471 11.0586C12.4472 11.2622 12.5551 11.5133 12.5273 11.7988L12.5293 11.915C12.5187 12.1788 12.4023 12.3944 12.2178 12.5801C11.5803 13.2209 10.9459 13.8652 10.2998 14.4961C9.8363 14.9488 9.19095 14.9505 8.73145 14.501C8.08537 13.8688 7.44466 13.2304 6.81445 12.583C6.36379 12.1195 6.37145 11.4758 6.82422 11.0156C7.45767 10.3716 8.09652 9.73208 8.74121 9.09863ZM91.8945 10.2373C92.8348 10.238 93.481 10.8946 93.4805 11.8467C93.4791 12.7824 92.7822 13.4841 91.8564 13.4814C90.9757 13.4786 90.2637 12.7467 90.2617 11.8428C90.2605 10.8965 90.9317 10.2366 91.8945 10.2373ZM16.752 0.000976562C16.8259 0.0194879 16.8991 0.0480725 16.9736 0.0546875C17.3174 0.0870803 17.6076 0.230448 17.8496 0.47168C18.8402 1.4603 19.836 2.44352 20.8174 3.44141C21.468 4.10257 21.4626 5.06676 20.8096 5.75977C20.3712 6.22463 19.9093 6.6675 19.457 7.11914C18.9585 7.61766 18.4624 8.11873 17.96 8.61328C17.5162 9.05105 16.9948 9.2553 16.3652 9.12305C16.0531 9.05758 15.7896 8.9123 15.5654 8.6875C14.5847 7.70549 13.5988 6.72754 12.6221 5.74023C12.0278 5.13976 11.9767 4.12756 12.5605 3.5166C13.565 2.46516 14.6064 1.44917 15.6367 0.422852C15.8879 0.17436 16.2262 0.0961424 16.5527 0.000976562H16.752Z" fill="url(#paint0_linear_32727_81023)"/>
<defs>
<linearGradient id="paint0_linear_32727_81023" x1="142.718" y1="0.000976618" x2="142.718" y2="26.3572" gradientUnits="userSpaceOnUse">
<stop stop-color="white"/>
<stop offset="1" stop-color="white" stop-opacity="0.6"/>
</linearGradient>
</defs>
</svg>
