<svg width="79" height="38" viewBox="0 0 79 38" fill="none" xmlns="http://www.w3.org/2000/svg">
<path fill-rule="evenodd" clip-rule="evenodd" d="M43.8571 3.58819e-05C46.8835 -0.0108065 49.347 2.4369 49.3582 5.46636C49.3692 8.49388 46.9243 10.9586 43.8979 10.9691C40.8698 10.9796 38.4089 8.53186 38.3975 5.50435C38.3861 2.47521 40.829 0.0105586 43.8571 3.58819e-05ZM55.9911 3.58819e-05C59.0174 -0.0108065 61.4808 2.4369 61.4921 5.46636C61.5031 8.49388 59.0581 10.9586 56.0317 10.9691C53.0037 10.9796 50.5428 8.53186 50.5314 5.50435C50.52 2.47521 52.9629 0.0105586 55.9911 3.58819e-05ZM29.7641 27.0309C32.7907 27.0202 35.2539 29.4678 35.2649 32.4973C35.2761 35.5248 32.8311 37.9892 29.8046 37.9999C26.7766 38.0103 24.3157 35.5627 24.3043 32.5353C24.2929 29.506 26.7359 27.0414 29.7641 27.0309ZM5.88555 27.0309C8.91216 27.0202 11.3755 29.4678 11.3865 32.4973C11.3977 35.5248 8.95258 37.9892 5.92614 37.9999C2.89817 38.0103 0.437209 35.5627 0.42582 32.5353C0.414569 29.506 2.85735 27.0414 5.88555 27.0309ZM18.0226 27.0309C21.0491 27.0202 23.5123 29.4678 23.5235 32.4973C23.5346 35.5248 21.0895 37.9892 18.0631 37.9999C15.0352 38.0103 12.5743 35.5627 12.5629 32.5353C12.5515 29.506 14.9944 27.0414 18.0226 27.0309ZM28.2858 22.3307L29.9459 22.3248C30.8098 22.3212 31.4615 21.9721 31.902 21.2727C32.341 20.5756 32.6188 19.7051 32.7417 18.6603C32.8646 17.619 32.9217 16.3617 32.9166 14.8836L32.8994 9.92447C32.8946 8.5614 32.829 7.39677 32.6947 6.43535C32.5598 5.47533 32.2756 4.68117 31.8422 4.05717C31.4073 3.44129 30.776 3.13172 29.9428 3.13478L28.2195 3.14108L28.2858 22.3307ZM25.8692 0.79842L30.0774 0.783061C31.2231 0.779111 32.1505 1.13773 32.8609 1.8646C33.575 2.58939 34.0998 3.53057 34.438 4.69075C34.7713 5.85733 34.9963 7.07178 35.0981 8.3453C35.2038 9.61555 35.2576 11.0724 35.2636 12.7071C35.2693 14.3519 35.2259 15.8131 35.1294 17.0864C35.037 18.358 34.8206 19.5741 34.4819 20.729C34.1472 21.8879 33.621 22.8225 32.9147 23.5515C32.198 24.2774 31.2627 24.6483 30.1076 24.665L25.9548 24.68L25.8692 0.79842ZM16.6427 0.806904L23.0977 0.783319L23.9145 3.18913L18.9082 3.20668L18.9421 12.6896L23.6829 12.672L23.6913 15.0829L19.0161 15.0998L19.0418 22.2638L23.7171 22.2468L23.7256 24.6551L16.728 24.6803L16.6939 15.1081L14.911 15.1145L15.7057 12.7632L16.6855 12.7598L16.6427 0.806904ZM7.28781 23.7848L5.10028 7.69586L2.55777 25.0723L0.425781 24.6411L4.04554 2.06757L5.92996 0.0800045L7.43273 13.1398L8.96197 1.98752L10.903 1.11444e-10L14.1267 24.5273L12.0919 24.9705L10.0128 7.61117L7.28781 23.7848ZM70.3275 12.9277L73.4053 31.7898L76.2003 12.963L78.3258 13.3564L74.2304 38L72.2997 36.0273L68.1479 13.3933L70.3275 12.9277ZM59.308 13.3434L65.7623 13.3202L66.5802 15.7271L61.5735 15.7455L61.607 25.2267L66.3467 25.2097L66.3555 27.6178L61.6811 27.6347L61.7068 34.7975L66.3807 34.7806L66.3897 37.1922L59.3929 37.2173L59.359 27.6433L57.5767 27.6498L58.3708 25.2985L59.3506 25.2953L59.308 13.3434ZM54.0472 27.1744L53.7568 27.3652L56.7945 36.8564L54.9291 37.609L51.1233 25.1773L51.6187 25.1757C52.1874 25.1735 52.6545 25.0596 53.0175 24.8356C53.3771 24.6125 53.6607 24.1542 53.864 23.4631C54.0693 22.7739 54.1683 21.7541 54.1636 20.4106C54.136 19.1823 54.0313 18.2342 53.8429 17.5569C53.6604 16.8833 53.3672 16.4067 52.9691 16.1331C52.5698 15.8586 52.0184 15.7213 51.3228 15.7237L50.7406 15.7259L50.8157 37.1257L48.6573 37.1334L48.574 13.331L51.4952 13.3203C52.6262 13.316 53.5523 13.5142 54.263 13.9082C54.9731 14.306 55.511 15.0201 55.8795 16.0474C56.2523 17.0697 56.4476 18.5239 56.4737 20.4022C56.4789 21.8164 56.3848 22.9749 56.1887 23.8774C55.9991 24.7732 55.7602 25.4416 55.4863 25.8803C55.2059 26.3255 54.9248 26.6347 54.634 26.8102C54.3472 26.9905 54.1486 27.1101 54.0472 27.1744ZM40.7789 25.464L41.2642 25.4625C42.0396 25.4593 42.637 25.3415 43.0613 25.1049C43.4796 24.8696 43.7858 24.4171 43.9842 23.7344C44.177 23.0572 44.2725 22.0406 44.2678 20.6928C44.2633 19.4791 44.1643 18.542 43.968 17.8727C43.7764 17.2075 43.4644 16.7363 43.039 16.4664C42.6187 16.1951 42.0329 16.0594 41.2854 16.0619L40.7449 16.0638L40.7789 25.464ZM41.0269 37.2097L38.8734 37.2179L38.79 13.3315L41.7015 13.3209C42.8279 13.3165 43.7419 13.5155 44.4452 13.9149C45.1528 14.3155 45.6873 15.0352 46.0546 16.0729C46.4221 17.1084 46.6124 18.5595 46.6189 20.4244C46.6241 21.9613 46.5311 23.2011 46.3451 24.1369C46.155 25.0723 45.871 25.7847 45.4844 26.2829C45.1014 26.7791 44.6221 27.1182 44.0551 27.2951C43.489 27.4739 42.7699 27.5632 41.8977 27.5667L40.9931 27.5701L41.0269 37.2097ZM67.7356 3.58819e-05C70.7621 -0.0108065 73.2255 2.4369 73.2366 5.46636C73.2478 8.49388 70.8027 10.9586 67.7763 10.9691C64.7483 10.9796 62.2875 8.53186 62.276 5.50435C62.2647 2.47521 64.7073 0.0105586 67.7356 3.58819e-05Z" fill="url(#paint0_linear_32727_80897)"/>
<defs>
<linearGradient id="paint0_linear_32727_80897" x1="72.9089" y1="5.50637e-08" x2="72.9089" y2="26.3559" gradientUnits="userSpaceOnUse">
<stop stop-color="white"/>
<stop offset="1" stop-color="white" stop-opacity="0.6"/>
</linearGradient>
</defs>
</svg>
