<svg width="172" height="26" viewBox="0 0 172 26" fill="none" xmlns="http://www.w3.org/2000/svg">
<path d="M23.9336 21.6509L23.9297 21.6548V24.2759C23.9297 24.5562 23.8357 24.9296 23.6494 25.1177L23.6523 25.1196C23.3711 25.4009 22.9961 25.6821 22.6211 25.6821C21.8712 25.682 21.3086 25.1196 21.2148 24.3696L22.0566 23.5278H22.0557L21.2148 24.3687V21.2759H23.9336V21.6509ZM31.9062 19.772C32.4687 20.3344 32.4686 21.1782 31.9062 21.7407C31.3437 22.2095 30.4062 22.2095 29.9375 21.7407L29.5625 21.3657L31.5312 19.397L31.9062 19.772ZM31.5312 19.396L29.5625 21.3657L27.7812 19.4897L29.75 17.6147L31.5312 19.396ZM84.8789 7.77686C85.5352 7.77686 86.0977 8.0581 86.5664 8.52686C87.0351 8.99557 87.3164 9.55818 87.3164 10.2144V18.0894C87.3163 18.7455 87.0351 19.3082 86.5664 19.7769C86.0977 20.2455 85.5351 20.5269 84.8789 20.5269C84.2227 20.5269 83.6601 20.2455 83.1914 19.7769C82.7227 19.3082 82.4415 18.7455 82.4414 18.0894V10.2144C82.4414 9.55818 82.7228 8.99557 83.1914 8.52686C83.6602 8.05811 84.2227 7.77686 84.8789 7.77686ZM98.2852 1.12061C98.9414 1.12061 99.5039 1.4019 99.9727 1.87061C100.441 2.33933 100.723 2.90191 100.723 3.55811V5.99561H103.066C105.035 5.99561 106.723 6.65191 108.129 8.05811C109.535 9.55807 110.285 11.2457 110.285 13.3081C110.285 15.2768 109.629 16.9644 108.223 18.3706C106.816 19.7769 105.129 20.5269 103.16 20.5269C101.191 20.5268 99.5039 19.7769 98.0039 18.3706C96.5977 16.9644 95.8477 15.2768 95.8477 13.3081V3.55811C95.8477 2.90191 96.1289 2.33933 96.5977 1.87061C97.0664 1.40189 97.6289 1.12061 98.2852 1.12061ZM61.2578 6.18213C63.2266 6.18213 64.9141 6.83837 66.4141 8.24463C67.8202 9.65085 68.5703 11.3384 68.5703 13.3071V18.0884C68.5702 18.7445 68.289 19.3072 67.8203 19.7759C67.3516 20.2445 66.789 20.5259 66.1328 20.5259H61.2578C59.2891 20.5259 57.6015 19.7758 56.1953 18.3696C54.7891 16.9635 54.0392 15.2757 54.0391 13.3071C54.0391 11.3385 54.7892 9.65085 56.1953 8.24463C57.6016 6.83838 59.2891 6.18214 61.2578 6.18213ZM91.6289 1.21338C92.2852 1.21338 92.8477 1.49463 93.3164 1.96338C93.785 2.43209 94.0664 2.99471 94.0664 3.65088V18.0884C94.0663 18.7445 93.7851 19.3072 93.3164 19.7759C92.8477 20.2445 92.2851 20.5259 91.6289 20.5259C90.9727 20.5259 90.4101 20.2445 89.9414 19.7759C89.4727 19.3072 89.1915 18.7445 89.1914 18.0884V3.65088C89.1914 2.99471 89.4728 2.43209 89.9414 1.96338C90.4102 1.49463 90.9727 1.21338 91.6289 1.21338ZM113.941 5.99463C114.598 5.99463 115.16 6.27596 115.629 6.74463C116.098 7.21334 116.379 7.77595 116.379 8.43213V13.2134C116.379 13.8696 116.66 14.4322 117.129 14.9009C117.598 15.3696 118.16 15.6508 118.816 15.6509C119.473 15.6509 120.035 15.4634 120.504 14.9946C120.973 14.5259 121.16 13.9634 121.16 13.3071V8.52588C121.16 7.8697 121.441 7.30709 121.91 6.83838C122.379 6.36967 122.941 6.08841 123.598 6.08838C124.254 6.08838 124.816 6.36972 125.285 6.83838C125.754 7.30709 126.035 7.8697 126.035 8.52588L125.941 13.3071C125.941 15.2759 125.191 16.9634 123.785 18.3696C122.379 19.7759 120.691 20.5259 118.723 20.5259C116.754 20.5259 115.066 19.7759 113.66 18.3696C112.254 16.9634 111.504 15.2758 111.504 13.3071V8.43213C111.504 7.77595 111.785 7.21334 112.254 6.74463C112.723 6.27592 113.285 5.99465 113.941 5.99463ZM139.254 1.30713C139.91 1.30713 140.473 1.58843 141.035 2.05713C141.504 2.52585 141.785 3.08843 141.785 3.74463V13.3071C141.785 15.2759 141.035 16.9634 139.629 18.3696C138.223 19.7759 136.535 20.5259 134.566 20.5259C132.598 20.5259 130.91 19.7759 129.41 18.3696C128.004 16.9634 127.254 15.2758 127.254 13.3071C127.254 11.3384 128.004 9.65084 129.41 8.24463C130.816 6.83843 132.504 6.18214 134.473 6.18213H136.816V3.74463C136.816 3.08843 137.098 2.52585 137.566 2.05713C138.035 1.58841 138.598 1.30714 139.254 1.30713ZM145.629 5.99463C146.285 5.99463 146.848 6.27592 147.316 6.74463C147.785 7.21335 148.066 7.77593 148.066 8.43213V13.2134C148.066 13.8696 148.348 14.4321 148.816 14.9009C149.285 15.3696 149.848 15.6509 150.504 15.6509C151.16 15.6509 151.723 15.4634 152.191 14.9946C152.66 14.5259 152.848 13.9634 152.848 13.3071V8.52588C152.848 7.86968 153.129 7.3071 153.598 6.83838C154.066 6.36966 154.629 6.08839 155.285 6.08838C155.941 6.08838 156.504 6.36968 156.973 6.83838C157.441 7.3071 157.723 7.86968 157.723 8.52588V13.3071H157.629C157.629 15.2759 156.879 16.9634 155.473 18.3696C154.066 19.7759 152.379 20.5259 150.41 20.5259C148.441 20.5259 146.754 19.7759 145.348 18.3696C143.941 16.9634 143.191 15.2758 143.191 13.3071V8.43213C143.191 7.77593 143.473 7.21335 143.941 6.74463C144.41 6.27592 144.973 5.99463 145.629 5.99463ZM169.344 5.99463C170 5.99465 170.563 6.27593 171.031 6.74463C171.594 7.21334 171.875 7.77595 171.875 8.43213C171.875 9.08832 171.594 9.6509 171.125 10.1196C170.656 10.5884 170.094 10.8696 169.438 10.8696H165.875C165.219 10.8696 164.656 11.0572 164.188 11.5259C163.719 11.9946 163.438 12.5572 163.438 13.2134V17.9946C163.438 18.6508 163.156 19.2134 162.688 19.6821C162.219 20.1509 161.656 20.4321 161 20.4321C160.344 20.4321 159.781 20.1509 159.312 19.6821C158.844 19.2134 158.562 18.6509 158.562 17.9946V13.2134C158.563 11.2447 159.313 9.55709 160.719 8.15088C162.125 6.74472 163.813 5.99463 165.781 5.99463H169.344ZM17.8008 1.0249C18.457 1.02491 19.0196 1.30621 19.4883 1.7749C19.957 2.2436 20.2382 2.80624 20.2383 3.4624V5.8999H22.582C24.5507 5.89991 26.2383 6.55623 27.6445 7.9624C29.0507 9.46235 29.8007 11.15 29.8008 13.2124C29.8008 15.1811 29.1444 16.8687 27.7383 18.2749C26.332 19.6812 24.6445 20.4311 22.6758 20.4312C20.707 20.4312 19.0195 19.6812 17.5195 18.2749C16.1134 16.8687 15.3633 15.1811 15.3633 13.2124V3.4624C15.3633 2.80624 15.6446 2.2436 16.1133 1.7749C16.582 1.30623 17.1446 1.0249 17.8008 1.0249ZM6.5 1.07275C7.15625 1.07275 7.71875 1.354 8.1875 1.82275C8.65612 2.29146 8.9375 2.8541 8.9375 3.51025V6.0415H11.9375C12.5938 6.0415 13.1562 6.32275 13.625 6.7915C14.0936 7.26021 14.375 7.82285 14.375 8.479C14.3749 9.13507 14.0936 9.69786 13.625 10.1665C13.1563 10.6351 12.5936 10.9165 11.9375 10.9165H8.9375V13.1665C8.93762 13.8226 9.21885 14.3854 9.6875 14.854C10.1562 15.3226 10.7189 15.604 11.375 15.604H11.9375C12.5938 15.604 13.25 15.8853 13.625 16.2603C14.0936 16.729 14.375 17.2916 14.375 17.9478C14.3749 18.6038 14.0937 19.1666 13.625 19.6353C13.1563 20.1039 12.5936 20.3853 11.9375 20.3853H11.375C9.3126 20.3852 7.62496 19.6351 6.21875 18.229C4.8126 16.8229 4.06261 15.1351 4.0625 13.1665V10.9165H3.3125C2.65635 10.9165 2.09371 10.6351 1.625 10.1665C1.15635 9.69786 0.875127 9.13507 0.875 8.479C0.875 7.82286 1.15638 7.26021 1.625 6.7915C2.09375 6.32275 2.65625 6.04151 3.3125 6.0415H4.0625V3.51025C4.0625 2.85411 4.34389 2.29146 4.8125 1.82275C5.28125 1.35401 5.84376 1.07276 6.5 1.07275ZM46.2578 1.02686C46.914 1.02686 47.4766 1.30815 47.9453 1.77686C48.414 2.24558 48.6953 2.80816 48.6953 3.46436V5.99561H51.6953C52.3515 5.99561 52.9141 6.27691 53.3828 6.74561C53.8515 7.21432 54.1328 7.77692 54.1328 8.43311C54.1328 9.08933 53.8515 9.65187 53.3828 10.1206C52.9141 10.5894 52.3516 10.8706 51.6953 10.8706H48.6953V13.1206C48.6953 13.7768 48.9766 14.3394 49.4453 14.8081C49.9141 15.2768 50.4766 15.5581 51.1328 15.5581H51.6953C52.3515 15.5581 53.0078 15.8394 53.3828 16.2144C53.8515 16.6831 54.1328 17.2457 54.1328 17.9019C54.1328 18.5581 53.8515 19.1206 53.3828 19.5894C52.9141 20.0581 52.3516 20.3394 51.6953 20.3394H51.1328C49.0703 20.3393 47.3828 19.5894 45.9766 18.1831C44.5704 16.7769 43.8203 15.0893 43.8203 13.1206V10.8706H43.0703C42.4141 10.8706 41.8516 10.5894 41.3828 10.1206C40.9141 9.65187 40.6328 9.08932 40.6328 8.43311C40.6329 7.77692 40.9141 7.21432 41.3828 6.74561C41.8515 6.2769 42.4141 5.99561 43.0703 5.99561H43.8203V3.46436C43.8204 2.80816 44.1016 2.24558 44.5703 1.77686C45.039 1.30814 45.6016 1.02686 46.2578 1.02686ZM73.4414 1.02686C74.0976 1.02686 74.6602 1.30815 75.1289 1.77686C75.5976 2.24558 75.8789 2.80816 75.8789 3.46436V5.99561H78.8789C79.5351 5.99561 80.0977 6.27691 80.5664 6.74561C81.0351 7.21432 81.3164 7.77692 81.3164 8.43311C81.3164 9.08933 81.0351 9.65187 80.5664 10.1206C80.0977 10.5894 79.5352 10.8706 78.8789 10.8706H75.8789V13.1206C75.8789 13.7768 76.1602 14.3394 76.6289 14.8081C77.0976 15.2768 77.6602 15.5581 78.3164 15.5581H78.8789C79.5351 15.5581 80.0977 15.8394 80.5664 16.2144C81.0351 16.6831 81.3164 17.2457 81.3164 17.9019C81.3164 18.5581 81.0351 19.1206 80.5664 19.5894C80.0977 20.0581 79.5352 20.3394 78.8789 20.3394H78.3164C76.2539 20.3393 74.5664 19.5894 73.1602 18.1831C71.754 16.7769 71.0039 15.0893 71.0039 13.1206V10.8706H70.2539C69.5977 10.8706 69.0352 10.5894 68.5664 10.1206C68.0977 9.65187 67.8164 9.08932 67.8164 8.43311C67.8164 7.77692 68.0977 7.21432 68.5664 6.74561C69.0351 6.2769 69.5977 5.99561 70.2539 5.99561H71.0039V3.46436C71.0039 2.80816 71.2852 2.24558 71.7539 1.77686C72.2226 1.30814 72.7852 1.02686 73.4414 1.02686ZM100.629 13.3081C100.629 13.9643 100.91 14.5269 101.379 14.9956C101.848 15.4644 102.41 15.7456 103.066 15.7456C103.723 15.7456 104.285 15.5581 104.754 15.0894C105.223 14.5269 105.41 13.9643 105.41 13.3081C105.41 12.6519 105.223 12.0893 104.754 11.6206C104.285 11.1519 103.723 10.9644 103.066 10.9644H100.629V13.3081ZM61.3516 10.9634C60.6953 10.9634 60.1328 11.1509 59.6641 11.6196C59.1954 12.0883 59.0078 12.651 59.0078 13.3071C59.0079 13.9632 59.1954 14.526 59.6641 14.9946C60.1328 15.4633 60.6954 15.6509 61.3516 15.6509H63.6953V13.3071C63.6953 12.651 63.5077 12.0883 63.0391 11.6196C62.5703 11.1509 62.0078 10.9634 61.3516 10.9634ZM134.566 10.8696C133.91 10.8696 133.348 11.0572 132.879 11.5259C132.41 11.9946 132.129 12.5572 132.129 13.2134C132.129 13.8696 132.41 14.4321 132.879 14.9009C133.348 15.3696 133.91 15.6509 134.566 15.6509C135.223 15.6509 135.785 15.4634 136.254 14.9946C136.723 14.5259 136.91 13.9634 136.91 13.3071V10.8696H134.566ZM20.1445 13.2124C20.1445 13.8686 20.4259 14.4312 20.8945 14.8999C21.3633 15.3687 21.9258 15.6499 22.582 15.6499C23.2383 15.6499 23.8008 15.4624 24.2695 14.9937C24.7382 14.4312 24.9258 13.8686 24.9258 13.2124C24.9257 12.5563 24.7382 11.9936 24.2695 11.5249C23.8008 11.0562 23.2382 10.8687 22.582 10.8687H20.1445V13.2124ZM32.8438 12.7085L34.4375 14.3022C34.2499 14.4896 33.8749 14.5835 33.5938 14.5835H30.9697L30.9688 14.5845H30.5938V11.8657H32L32.8438 12.7085ZM33.6953 11.8657C34.4434 11.9609 35.0039 12.5233 35.0039 13.272C35.0037 13.6468 34.7226 14.0221 34.4414 14.3032L32.8477 12.7095L32.8496 12.7075L32.0078 11.8657H33.6953ZM29.9375 4.68311C30.4063 4.21435 31.3437 4.21435 31.9062 4.68311C32.4683 5.24561 32.4686 6.08949 31.9062 6.65186L29.75 8.80811L27.7812 6.93311L29.5625 5.05811L29.9375 4.68311ZM84.8789 1.12061C85.5352 1.12061 86.0977 1.40185 86.5664 1.87061C87.035 2.33932 87.3164 2.90193 87.3164 3.55811C87.3163 4.2142 87.0351 4.77694 86.5664 5.24561C86.0977 5.71425 85.5351 5.99561 84.8789 5.99561C84.2227 5.9956 83.6601 5.71425 83.1914 5.24561C82.7227 4.77694 82.4415 4.2142 82.4414 3.55811C82.4414 2.90194 82.7228 2.33932 83.1914 1.87061C83.6602 1.40186 84.2227 1.12061 84.8789 1.12061ZM22.6211 0.650879C22.996 0.650879 23.3711 0.932186 23.6523 1.21338L23.6494 1.21533C23.8358 1.40338 23.9297 1.7767 23.9297 2.05713V4.6792L23.9336 4.68311V5.05811H21.2148V1.96436L22.0557 2.80518H22.0566L21.2148 1.96338C21.3086 1.2135 21.8712 0.650989 22.6211 0.650879Z" fill="url(#paint0_linear_32727_80980)"/>
<defs>
<linearGradient id="paint0_linear_32727_80980" x1="159.984" y1="0.650879" x2="159.984" y2="18.012" gradientUnits="userSpaceOnUse">
<stop stop-color="white"/>
<stop offset="1" stop-color="white" stop-opacity="0.6"/>
</linearGradient>
</defs>
</svg>
