<svg width="126" height="28" viewBox="0 0 126 28" fill="none" xmlns="http://www.w3.org/2000/svg">
<path d="M53.8311 7.18359C59.6908 7.1837 63.0303 9.85146 63.0303 16.1943V18.2734C63.0303 24.5954 59.6908 27.2841 53.8311 27.2842C48.0341 27.2842 44.6943 24.6165 44.6943 18.2734V16.1943C44.6944 9.87234 48.0341 7.18359 53.8311 7.18359ZM73.5107 7.20508C76.5562 7.20508 79.0349 7.66738 79.875 7.94043V13.2959H76.2627L75.9688 11.8252C75.5067 11.7832 74.8551 11.7627 74.498 11.7627C72.0827 11.7627 70.8223 12.4983 70.8223 16.1738V18.2734C70.8223 21.9911 72.1041 22.7471 74.6035 22.7471C75.7376 22.747 77.3757 22.6426 79.8955 22.4746V26.5488C78.7612 26.8429 76.5559 27.2842 73.5107 27.2842C67.6509 27.2841 64.9834 24.2384 64.9834 18.2734V16.1738C64.9834 10.1459 67.6509 7.20514 73.5107 7.20508ZM90.6074 7.20508C96.5724 7.20508 98.7783 9.11632 98.7783 14.3672V22.3906L100.29 22.5586V26.8008H93.4639V25.583C92.1827 26.4231 89.9776 27.2841 87.4365 27.2842C83.8659 27.2842 81.8496 25.4778 81.8496 21.8232V21.0459C81.8498 15.9633 85.7355 15.3965 91.1543 15.3965H92.918V14.3672C92.918 12.0568 92.4137 11.5947 89.4102 11.5947C88.7172 11.5947 88.066 11.6362 87.3311 11.6572L86.9951 13.1279H83.2568V8.33887C84.3283 7.96078 87.4153 7.20513 90.6074 7.20508ZM110.078 7.18359C112.892 7.18361 115.958 7.58292 117.177 7.96094V12.582H113.396L113.061 11.2168C112.284 11.1748 111.297 11.1533 110.688 11.1533C108.755 11.1533 107.936 11.3849 107.936 12.498C107.936 13.4639 108.398 13.8002 110.435 14.5771L112.115 15.207C116.295 16.8033 117.766 18.2948 117.766 21.4033C117.787 25.3519 115.098 27.2842 109.385 27.2842C106.717 27.2842 103.63 26.8219 102.559 26.5488V21.6553H106.382L106.676 23.2305C107.474 23.2725 108.272 23.2939 109.091 23.2939C111.401 23.2939 112.031 22.7685 112.031 21.6553C112.031 20.5842 111.569 20.2898 109.154 19.3027L107.747 18.7354C104.176 17.3701 102.223 15.8161 102.223 12.6445C102.223 8.40206 105.226 7.18359 110.078 7.18359ZM122.844 20.8779C123.264 20.8779 123.663 20.9624 124.041 21.1094C124.419 21.2564 124.755 21.4877 125.028 21.7607C125.301 22.0338 125.533 22.37 125.68 22.748C125.827 23.126 125.91 23.5254 125.91 23.9453C125.91 24.3652 125.827 24.7646 125.68 25.1426C125.533 25.5204 125.301 25.856 125.028 26.1289C124.755 26.402 124.419 26.6332 124.041 26.7803C123.663 26.9273 123.264 27.0117 122.844 27.0117C122.424 27.0117 122.025 26.9273 121.646 26.7803C121.269 26.6332 120.932 26.4019 120.659 26.1289C120.386 25.8561 120.156 25.5203 120.009 25.1426C119.862 24.7646 119.777 24.3652 119.777 23.9453C119.777 23.5253 119.862 23.1261 120.009 22.748C120.156 22.3701 120.386 22.0337 120.659 21.7607C120.932 21.4877 121.268 21.2564 121.646 21.1094C122.025 20.9624 122.424 20.8779 122.844 20.8779ZM10.375 1.66016C16.8648 1.66022 22.0526 2.85734 22.0527 9.78809V10.082C22.0527 17.1182 16.8644 18.3789 10.9834 18.3789C10.0804 18.3789 9.28238 18.3369 8.23242 18.3369V22.3271L9.80762 22.4951V26.8223H0.628906V22.4746L2.2041 22.3486V6.42773L0.628906 6.25977V1.9541C3.77943 1.72306 7.11946 1.66016 10.375 1.66016ZM30.1602 8.50684C31.6094 7.77182 33.7309 7.20508 35.873 7.20508C41.1656 7.2052 42.3203 10.3135 42.3203 14.7031V22.3906L43.8545 22.5586V26.8008H36.5029V14.7666C36.5029 12.3512 35.8727 11.6787 34.0244 11.6787C32.5542 11.6787 31.0418 12.141 30.1807 12.54V22.3691L31.7139 22.5371V26.7803H22.8086V22.5586L24.3418 22.3906V5.12598L22.8086 4.95801V0.714844H30.1602V8.50684ZM91.2383 18.4209C88.5708 18.4209 87.415 18.7151 87.415 20.8574V21.6348C87.4152 23.1046 88.3185 23.5039 89.5996 23.5039C91.1116 23.5039 92.5817 22.9786 93.1699 22.6426V18.4209H91.2383ZM53.8311 11.7412C51.4787 11.7412 50.4912 12.8763 50.4912 16.2158V18.2949C50.4912 21.6343 51.4997 22.7686 53.8311 22.7686C56.2041 22.7684 57.2119 21.6342 57.2119 18.2949V16.2158C57.2119 12.8764 56.2042 11.7413 53.8311 11.7412ZM10.7949 6.40723C9.93378 6.40723 9.03007 6.44922 8.21094 6.44922V13.5059C9.03007 13.5269 9.93376 13.5273 10.8369 13.5273C14.2813 13.5273 15.9824 12.8544 15.9824 10.082V9.78809C15.9823 6.95293 14.2812 6.40726 10.7949 6.40723Z" fill="url(#paint0_linear_32727_80916)"/>
<defs>
<linearGradient id="paint0_linear_32727_80916" x1="117.199" y1="0.714844" x2="117.199" y2="19.1427" gradientUnits="userSpaceOnUse">
<stop stop-color="white"/>
<stop offset="1" stop-color="white" stop-opacity="0.6"/>
</linearGradient>
</defs>
</svg>
