<svg width="100" height="33" viewBox="0 0 100 33" fill="none" xmlns="http://www.w3.org/2000/svg">
<path d="M30.3135 18.6597C30.4275 18.5458 30.5417 18.6599 30.542 18.7739C29.6279 22.3161 27.2286 25.5159 23.8008 27.4585C23.2296 27.8012 22.5439 28.144 21.9727 28.3726C21.8616 28.3726 21.8585 28.4808 21.8584 28.4868C21.2871 30.8864 19.1154 32.7153 16.4873 32.7153C13.8592 32.7153 11.6885 30.8864 11.1172 28.4868L11.0029 28.3726C10.3173 28.144 9.51666 27.8013 8.83105 27.3442C7.80282 24.7164 7.57434 21.8598 8.14551 19.2319C8.25977 19.1177 8.37402 19.1177 8.37402 19.2319C9.74522 20.7174 11.3456 21.8598 13.1738 22.6597H13.2881C14.2022 21.9741 15.2304 21.6314 16.4873 21.6313C18.2012 21.6313 19.8007 22.5454 20.8291 23.8022H20.9434C22.8859 23.5737 24.7147 23.0025 26.4287 21.9741C27.9142 21.06 29.2851 19.9166 30.3135 18.6597ZM62.0771 22.0884C62.0773 23.2307 62.6486 23.688 63.791 23.688C64.3622 23.688 64.8193 23.5738 65.1621 23.5737V11.0044H71.4473V27.4585C69.7333 28.2584 66.6477 28.8296 63.791 28.8296C58.4207 28.8296 55.7922 26.8872 55.792 22.0884V11.0044H62.0771V22.0884ZM90.3008 27.5728C88.8153 28.2583 86.1875 28.8296 83.1025 28.8296C77.1607 28.8296 73.9609 25.6299 73.9609 19.688C73.9611 14.3176 76.7038 10.8901 82.1885 10.8901C82.7598 10.8902 83.5596 11.0044 84.0166 11.1187V3.11963H90.3008V27.5728ZM43.6807 11.3472C44.5947 11.0044 45.6231 10.7759 46.7656 10.7759C50.9933 10.776 53.164 12.9466 53.1641 16.7173V28.3726H46.8799V17.4028C46.8798 16.2604 46.3084 15.5748 44.9375 15.5747C44.4806 15.5747 44.0233 15.689 43.5664 15.8032V28.3726H37.2812V3.11963H43.6807V11.3472ZM99.7852 28.3726H93.501V3.11963H99.7852V28.3726ZM9.51855 1.97607C12.2607 2.43316 14.7744 3.69003 16.8311 5.40381C16.9453 5.40381 16.9453 5.6333 16.7168 5.6333C14.7744 6.09038 12.9463 6.89011 11.3467 8.03271V8.14697C11.4609 9.2895 11.3466 10.4322 10.7754 11.5747C9.86126 13.1744 8.26087 14.0884 6.66113 14.3169C6.5501 14.3171 6.54695 14.4257 6.54688 14.4312C5.86127 16.1452 5.4043 17.974 5.4043 20.0308C5.40434 21.8588 5.7471 23.4585 6.31836 25.0581C6.31836 25.1724 6.20411 25.2866 6.08984 25.1724C3.46182 22.43 1.8623 18.8874 1.8623 14.8882C1.8623 14.2027 1.86231 13.5171 1.97656 12.8315V12.7173C0.262663 11.0034 -0.308463 8.14709 1.0625 5.86182C2.31935 3.69089 4.9472 2.66183 7.34668 3.34717H7.46094C8.14654 2.77583 8.83295 2.31887 9.51855 1.97607ZM82.874 15.4604C81.1601 15.4604 80.2452 17.06 80.2451 19.5737C80.2451 22.5447 81.16 23.9165 82.9883 23.9165C83.4452 23.9165 83.7881 23.9165 84.0166 23.8022V15.689C83.7881 15.5747 83.331 15.4605 82.874 15.4604ZM12.7188 0.721191C16.261 -0.192884 20.2605 0.264039 23.6885 2.20654C24.2597 2.54928 24.8311 2.89213 25.4023 3.34912H25.5166C27.9161 2.66365 30.6581 3.57772 31.915 5.86279C33.2862 8.03386 32.8292 10.891 31.001 12.605V12.7192C31.1152 13.519 31.1152 14.3189 31.1152 15.1187C29.4013 17.2895 27.002 18.8891 24.4883 19.8032C24.374 19.8032 24.374 19.8032 24.2598 19.689C24.831 17.7466 25.0595 15.8042 24.8311 13.8618C24.8311 13.7508 24.7229 13.7476 24.7168 13.7476C23.6885 13.2906 22.7745 12.4906 22.2031 11.4624C21.289 9.86267 21.288 8.03381 21.8594 6.54834V6.43408C20.7167 4.94878 19.2314 3.69189 17.5176 2.66357C15.918 1.86378 14.3184 1.29251 12.7188 0.949707C12.6045 0.949707 12.6045 0.721191 12.7188 0.721191Z" fill="url(#paint0_linear_32727_81318)"/>
<defs>
<linearGradient id="paint0_linear_32727_81318" x1="50.1067" y1="0.268066" x2="50.1067" y2="32.7938" gradientUnits="userSpaceOnUse">
<stop stop-color="white"/>
<stop offset="1" stop-color="white" stop-opacity="0.6"/>
</linearGradient>
</defs>
</svg>
