<svg width="136" height="26" viewBox="0 0 136 26" fill="none" xmlns="http://www.w3.org/2000/svg">
<path d="M106.436 9.22472H103.238V20.1307H106.436V9.22472ZM106.436 5.63037H103.238V8.04184H106.436V5.63037ZM36.6867 5.63037H33.3438V20.1307H43.5516V17.3506H36.6867V5.63037ZM50.158 8.31749C46.5998 8.31749 43.7833 10.9817 43.7833 14.339C43.7833 17.6964 46.5998 20.3676 50.158 20.3676C53.7162 20.3676 56.5562 17.7035 56.5562 14.3443C56.5562 10.9851 53.738 8.31749 50.158 8.31749ZM50.158 17.4894C48.3671 17.4894 47.0303 16.1696 47.0303 14.3302C47.0303 12.491 48.3671 11.1818 50.158 11.1818C51.9488 11.1818 53.2856 12.5242 53.2856 14.3303C53.2856 16.1363 51.9488 17.4894 50.158 17.4894ZM69.9697 17.6754C69.3962 17.6754 68.8952 17.3508 68.8952 16.3557V11.7239H71.9451V9.22472H68.8952V6.08136H65.6969V9.22455H61.4966V6.08136H58.2982V9.22455H56.5562V11.7239H58.2982V16.401C58.2982 19.0179 59.5882 20.3622 61.9741 20.3622C63.0515 20.3644 64.1058 20.0592 65.0059 19.4847L64.1013 17.1926C63.6485 17.4897 63.1191 17.658 62.5729 17.6787C61.9994 17.6787 61.4983 17.3541 61.4983 16.359V11.724H65.6987V16.4011C65.6987 19.0181 66.9867 20.3624 69.3746 20.3624C70.452 20.3642 71.5062 20.059 72.4064 19.4848L71.5019 17.1928C71.0478 17.4897 70.5169 17.6569 69.9697 17.6754ZM90.1902 13.5231C89.7019 10.2673 86.7767 7.96465 83.5621 8.41925C82.7537 8.52626 81.9755 8.78882 81.2731 9.19151C80.5707 9.59421 79.9582 10.1289 79.4716 10.7644C78.985 11.3998 78.6341 12.1231 78.4394 12.8918C78.2447 13.6606 78.2102 14.4593 78.3379 15.2412C78.9042 19.0233 82.2561 20.7749 85.7039 20.287C87.2655 20.0739 88.7281 19.4203 89.9098 18.4073L88.3976 16.3731C87.5343 17.097 86.474 17.5639 85.344 17.7175C83.7848 17.937 82.3249 17.3665 81.7099 15.8431L90.2843 14.632C90.2742 14.2609 90.2428 13.8908 90.1902 13.5231ZM81.3553 13.809C81.4457 12.3225 82.484 11.1922 83.8533 11.001C84.5492 10.896 85.2606 11.0407 85.8543 11.408C86.4481 11.7753 86.8835 12.34 87.0789 12.9964L81.3553 13.809ZM124.909 13.5231C124.421 10.2673 121.494 7.96465 118.282 8.41925C117.064 8.58012 115.924 9.09265 115.01 9.89024C114.097 10.6878 113.451 11.7336 113.158 12.8917C112.964 13.6605 112.929 14.4593 113.057 15.2412C113.623 19.0233 116.974 20.7749 120.423 20.287C121.984 20.0739 123.446 19.4203 124.627 18.4073L123.117 16.3731C122.253 17.0971 121.192 17.5639 120.062 17.7175C118.502 17.937 117.042 17.3665 116.427 15.8431L125.004 14.632C124.992 14.261 124.961 13.8909 124.909 13.5231ZM116.075 13.809C116.165 12.3225 117.202 11.1922 118.573 11.001C119.268 10.8956 119.978 11.0402 120.571 11.4077C121.164 11.7752 121.598 12.3402 121.791 12.9964L116.075 13.809ZM111.688 5.63037H108.49V20.129H111.688V5.63037ZM131.532 12.8807C130.434 12.649 129.432 12.44 129.432 11.7925C129.432 11.3063 130.125 10.9817 130.865 10.9817C132.02 10.9995 133.156 11.277 134.182 11.7925L135.257 9.47578C133.922 8.68359 132.38 8.28144 130.816 8.31749C128.573 8.31749 126.185 9.56886 126.185 11.931C126.185 14.1548 128.119 14.9147 130.483 15.5201C131.509 15.7992 132.536 15.9608 132.536 16.6558C132.536 17.3506 131.319 17.6281 130.577 17.6281C129.226 17.6535 127.909 17.2188 126.854 16.3995L125.707 18.7882C126.377 19.3901 128.023 20.3676 130.577 20.3676C132.798 20.3676 135.781 19.4181 135.781 16.5679C135.781 14.2004 133.569 13.3474 131.532 12.8807ZM76.8908 9.22472H73.6925V20.1307H76.8908V9.22472ZM76.8908 5.63037H73.6925V8.04184H76.8908V5.63037ZM91.5523 20.1307H94.8882V14.2056H100.545V11.4554H94.8882V8.40516H101.76V5.63037H91.5523V20.1307Z" fill="url(#paint0_linear_32727_80777)"/>
<path d="M20.4375 0.217773C24.1188 0.217773 27.1033 3.11287 27.1035 6.68457V19.3105C27.1035 22.8823 24.1189 25.7783 20.4375 25.7783H7.42383C3.74227 25.7783 0.757812 22.8823 0.757812 19.3105V6.68457C0.758046 3.11289 3.74241 0.217813 7.42383 0.217773H20.4375ZM20.7842 5.94629C16.2492 5.94629 14.5681 9.0876 13.2168 11.6113L12.334 13.2256C10.9033 15.902 9.83401 17.5293 7.0791 17.5293C6.90821 17.5292 6.73895 17.5616 6.58105 17.625C6.423 17.6885 6.27912 17.782 6.1582 17.8994C6.0375 18.0166 5.94133 18.1555 5.87598 18.3086C5.81057 18.4619 5.7773 18.6271 5.77734 18.793C5.77745 18.9587 5.81152 19.1233 5.87695 19.2764C5.94244 19.4294 6.03835 19.5684 6.15918 19.6855C6.40329 19.9223 6.73394 20.056 7.0791 20.0566C11.6158 20.0566 13.2972 16.9151 14.6484 14.3916L15.5293 12.7764C16.9618 10.0998 18.0311 8.47266 20.7842 8.47266C20.9553 8.47292 21.125 8.44034 21.2832 8.37695C21.4413 8.31356 21.585 8.22082 21.7061 8.10352C21.8272 7.98616 21.9237 7.84678 21.9893 7.69336C22.0548 7.53995 22.0879 7.37506 22.0879 7.20898C22.0871 6.8739 21.9495 6.55319 21.7051 6.31641C21.4606 6.07959 21.1296 5.94647 20.7842 5.94629Z" fill="url(#paint1_linear_32727_80777)"/>
<defs>
<linearGradient id="paint0_linear_32727_80777" x1="128.658" y1="5.63037" x2="128.658" y2="15.8518" gradientUnits="userSpaceOnUse">
<stop stop-color="white"/>
<stop offset="1" stop-color="white" stop-opacity="0.6"/>
</linearGradient>
<linearGradient id="paint1_linear_32727_80777" x1="25.2714" y1="0.217773" x2="25.2714" y2="17.9461" gradientUnits="userSpaceOnUse">
<stop stop-color="white"/>
<stop offset="1" stop-color="white" stop-opacity="0.6"/>
</linearGradient>
</defs>
</svg>
