<svg width="170" height="38" viewBox="0 0 170 38" fill="none" xmlns="http://www.w3.org/2000/svg">
<path d="M16.0332 7.27344C19.1698 7.27344 22.137 8.18294 24.5107 9.83594C24.1717 10.1665 23.8324 10.5799 23.5781 10.9932C22.3066 13.2248 22.7307 15.9527 24.5107 17.6885L20.1025 23.4746C18.7461 22.7308 17.1353 22.9785 16.0332 23.8877L12.3877 21.1602L13.4902 19.6729L9.4209 16.6143L6.36914 20.6641L10.4385 23.7227L11.54 22.2344L15.1006 24.8799C15.0159 25.045 14.847 25.2927 14.8467 25.458V25.624C14.762 25.7893 14.7617 25.9546 14.7617 26.2852V26.9463C14.8465 27.1943 14.8467 27.3601 14.8467 27.5254V27.6904C14.9314 27.8556 15.0156 27.9383 15.0156 28.1035V28.2686C15.1004 28.4338 15.1857 28.5994 15.2705 28.7646C15.3518 28.8439 15.3553 28.9233 15.3555 28.9297C15.4402 29.0123 15.5246 29.1781 15.6094 29.2607C15.6933 29.3426 15.7777 29.4242 15.7793 29.4258C15.9489 29.5911 16.1185 29.7562 16.2881 29.8389C18.0684 30.9961 20.3569 30.5005 21.459 28.7646C21.8829 28.1034 22.0527 27.3591 22.0527 26.6152C21.9679 25.7888 21.7135 25.0449 21.1201 24.3838L25.5283 18.5156C27.1391 19.3422 29.0892 19.4246 30.6152 18.6807V18.7627C30.8695 19.8371 31.039 20.9947 31.0391 22.2344C30.9543 30.5 24.1723 37.1131 15.8643 37.1133C7.47134 37.1133 0.773543 30.4181 0.773438 22.1523C0.773438 13.8866 7.55554 7.19089 16.0332 7.27344ZM129.89 19.0088C133.704 19.0088 136.503 21.8189 136.503 25.373C136.503 28.9273 133.705 31.8203 129.89 31.8203C126.075 31.8201 123.277 29.0102 123.277 25.4561C123.277 21.9019 126.075 19.009 129.89 19.0088ZM46.8877 19.0088C50.7022 19.0088 50.6178 19.753 51.8047 20.9102L50.0244 22.8936C49.0919 22.067 48.0743 21.4884 46.8027 21.4883C44.6833 21.4883 43.1572 23.2246 43.1572 25.291C43.1573 27.44 44.5986 29.1758 46.8027 29.1758C49.0065 29.1757 49.0913 28.597 50.1084 27.7705L51.8887 29.5068C50.6172 30.8291 49.1761 31.7382 46.8027 31.7383C43.1573 31.7383 40.4443 28.9273 40.4443 25.373L40.3594 25.4561C40.3594 21.9018 43.0727 19.0088 46.8877 19.0088ZM85.8955 19.0088C89.7101 19.0088 89.6257 19.753 90.8125 20.9102L89.0322 22.8936C88.0997 22.067 87.0821 21.4884 85.8105 21.4883C83.6911 21.4883 82.165 23.2246 82.165 25.291C82.1651 27.44 83.6064 29.1758 85.8105 29.1758C88.0144 29.1757 88.0991 28.597 89.1162 27.7705L90.8965 29.5068C89.625 30.8291 88.1839 31.7382 85.8105 31.7383C82.1651 31.7383 79.4521 28.9273 79.4521 25.373L79.3672 25.4561C79.3672 21.9018 82.0805 19.0088 85.8955 19.0088ZM116.75 19.2578C119.717 19.258 121.497 20.9936 121.497 23.5557C121.497 26.4487 119.293 27.9365 116.41 27.9365H114.291V31.6562H111.578V19.3408L111.663 19.2578H116.75ZM56.8105 24.1348H61.8975V19.2578H64.6104V31.5742H61.8975V26.6143H56.8105V31.5742H54.0977V19.2578H56.8105V24.1348ZM95.7246 24.6309L100.812 19.2578H104.117L99.0312 24.4648L104.372 31.5742H101.065L97.166 26.2842L95.7246 27.7715V31.5742H93.0117V19.2578H95.7246V24.6309ZM141.932 31.5742H139.219V19.2578H141.932V31.5742ZM153.795 26.8623V19.2578H156.508V31.5742H154.135L148.115 23.7217V31.5742H145.402V19.2578H147.945L153.795 26.8623ZM169.222 21.7373H165.407V31.5742H162.694V21.7373H158.879V19.2578H169.222V21.7373ZM77.332 21.6543H70.6348V24.1338H76.4844V26.5312H70.6348V29.0938H77.417V31.4902H67.9219V19.2568H77.332V21.6543ZM129.89 21.5713C127.601 21.5715 126.16 23.3069 126.16 25.373C126.16 27.5221 127.686 29.2587 129.975 29.2588C132.264 29.2588 133.705 27.5225 133.705 25.4561C133.705 23.307 132.179 21.5713 129.89 21.5713ZM114.461 25.457H116.58C117.936 25.457 118.784 24.6302 118.784 23.5557C118.784 22.316 117.936 21.6553 116.58 21.6553H114.461V25.457ZM29.4307 2.97559C31.3805 0.578503 34.9418 0.165621 37.4004 2.14941C39.8586 4.05061 40.1978 7.60498 38.248 10.002C36.2982 12.3988 32.7378 12.8116 30.2793 10.8281C27.8208 8.92704 27.481 5.37267 29.4307 2.97559Z" fill="url(#paint0_linear_32727_80674)"/>
<defs>
<linearGradient id="paint0_linear_32727_80674" x1="85.1088" y1="0.886719" x2="85.1088" y2="37.2008" gradientUnits="userSpaceOnUse">
<stop stop-color="white"/>
<stop offset="1" stop-color="white" stop-opacity="0.6"/>
</linearGradient>
</defs>
</svg>
