<svg width="85" height="38" viewBox="0 0 85 38" fill="none" xmlns="http://www.w3.org/2000/svg">
<path d="M20.2803 34.6436C20.283 35.3594 20.262 36.0761 20.2871 36.792C20.3068 37.3467 20.0387 37.6864 19.5781 37.9238C19.5398 37.9435 19.5064 37.9741 19.4707 38H18.7549C18.4888 37.8477 18.1627 37.7647 18.0596 37.4189C18.0175 37.2783 17.953 37.1347 17.9512 36.9922C17.9413 36.1266 17.9464 35.2611 17.9482 34.3955C17.9482 34.3382 17.9695 34.2807 17.9883 34.1895H18.4609C18.5209 35.2145 18.4585 36.2105 18.4971 37.1836C18.8355 37.6016 18.9808 37.6294 19.5576 37.3965C19.7333 37.2235 19.7392 37.002 19.7383 36.7744C19.7347 36.088 19.7356 35.4013 19.7383 34.7148C19.7383 34.5554 19.758 34.3959 19.7705 34.1953C19.9423 34.1819 20.0783 34.1716 20.251 34.1582C20.2626 34.3536 20.2794 34.4993 20.2803 34.6436ZM30.6455 34.374C31.3883 33.9002 32.2992 34.1346 32.6191 34.9453C32.9498 35.7832 32.9364 36.6294 32.4785 37.4404C32.3109 37.737 31.999 37.8235 31.749 38H31.0322C30.1208 37.4964 29.7438 36.5943 30.001 35.501C30.1031 35.0664 30.2271 34.641 30.6455 34.374ZM56.6436 34.8135C57.114 33.9675 58.2613 33.9442 58.6816 34.5625C58.6092 34.643 58.5319 34.7278 58.4541 34.8154C58.3979 34.7959 58.3506 34.7915 58.3193 34.7676C58.1303 34.6242 57.9176 34.579 57.6865 34.5986C57.4455 34.6192 57.2701 34.7233 57.1562 34.9482C56.8328 35.5862 56.8556 36.2531 57.042 36.9072C57.2132 37.5076 57.6566 37.6654 58.2266 37.3975C58.2938 37.3661 58.3611 37.336 58.4561 37.293C58.5385 37.3602 58.6245 37.4318 58.7061 37.498C58.6308 37.8538 58.2904 37.8333 58.0986 37.999H57.3818L57.3799 38C56.9337 37.7527 56.564 37.4228 56.4707 36.9033C56.3435 36.1972 56.2699 35.4838 56.6436 34.8135ZM21.5254 34.4219C22.0989 34.0044 22.6219 34.021 23.2178 34.4941C23.1569 34.5961 23.0922 34.7033 23.0215 34.8223C22.9052 34.7722 22.8108 34.7317 22.7168 34.6914C22.1847 34.4641 21.7366 34.6811 21.5762 35.2373C21.4256 35.7633 21.4085 36.2915 21.5537 36.8193C21.6648 37.2225 21.8819 37.5202 22.4248 37.5391C22.5745 37.4781 22.7929 37.3879 23.0527 37.2812C23.1288 37.3484 23.2207 37.4293 23.3496 37.543C23.1051 37.7149 22.9027 37.8565 22.7012 37.998H21.9844L21.9854 37.999C21.0731 37.4927 20.6968 36.5886 20.9531 35.4971C21.049 35.0903 21.1625 34.6862 21.5254 34.4219ZM38.4912 34.1904C39.0145 34.0489 39.4877 34.1593 39.9053 34.5742C39.831 34.6709 39.7629 34.7585 39.6904 34.8516C39.3213 34.7405 39.0039 34.4696 38.5381 34.6729C38.4817 34.7561 38.3844 34.8992 38.3047 35.0156C38.3405 35.3427 38.5039 35.5195 38.7539 35.6279C38.9447 35.7103 39.1436 35.7772 39.3281 35.873C39.6999 36.0657 39.9763 36.3215 40.0068 36.7891C40.0391 37.2881 39.8122 37.6093 39.4092 37.8477C39.3331 37.8924 39.2639 37.948 39.1914 37.999H38.3848C38.1518 37.8288 37.8389 37.763 37.6758 37.4512C37.7545 37.367 37.83 37.2856 37.915 37.1943C38.3478 37.4613 38.7687 37.6987 39.2803 37.3916C39.4918 37.1792 39.4791 36.9022 39.4307 36.6172C39.2586 36.3573 38.9794 36.2875 38.7178 36.1836C38.2393 35.9936 37.8631 35.7031 37.7627 35.1592C37.8174 34.6915 38.0118 34.3204 38.4912 34.1904ZM50.4609 34.4697C50.9637 33.9984 51.7048 34.0173 52.2129 34.5371C52.1969 34.5728 52.1858 34.618 52.1592 34.6484C52.1117 34.704 52.0543 34.7521 51.9951 34.8086C51.9495 34.7961 51.9075 34.7867 51.8682 34.7715C51.7167 34.7141 51.5701 34.6233 51.415 34.6045C50.994 34.5517 50.7168 34.7196 50.5859 35.1201C50.4014 35.6837 50.3988 36.2689 50.5322 36.8379C50.681 37.4724 51.1674 37.6747 51.7598 37.4014C51.8395 37.3647 51.9216 37.3319 52.0264 37.2871C52.107 37.3749 52.1812 37.4566 52.2959 37.582C52.055 37.7352 51.8475 37.8674 51.6406 37.999H50.9229L50.4863 37.6953C50.0438 37.3773 49.9369 36.8886 49.876 36.3994C49.7864 35.6789 49.891 35.0038 50.4609 34.4697ZM69.2549 34.1484C69.2629 34.3133 69.2704 34.4485 69.2803 34.6475C68.8574 34.6699 68.4809 34.6885 68.0732 34.71V35.7344C68.4011 35.7523 68.7069 35.7682 69.042 35.7861C69.0653 35.9196 69.0836 36.0257 69.1113 36.1807C68.7486 36.1995 68.4287 36.2156 68.0498 36.2354H68.0508V37.4541H69.3301C69.348 37.6099 69.3603 37.7196 69.3701 37.8047C69.2175 37.9423 68.0554 37.9628 67.4941 37.8652C67.3831 37.5221 67.3777 34.6284 67.5039 34.1807C68.055 34.1117 68.6285 34.1601 69.2549 34.1484ZM15.3906 34.1514C15.671 34.1738 15.9562 34.1923 16.2285 34.2559C16.5726 34.3374 16.8808 34.5298 17.0322 34.8506C17.4291 35.6938 17.4528 36.5367 16.9395 37.3584C16.7316 37.6907 16.4087 37.8463 16.0566 37.8975C15.708 37.9476 15.3452 37.9082 15.002 37.9082C14.872 37.5739 14.8478 34.6783 14.9688 34.1729C15.1014 34.1648 15.2472 34.1397 15.3906 34.1514ZM52.7725 34.2627C53.0592 34.1274 53.9214 34.0936 54.5586 34.2012V34.6582C54.1303 34.6734 53.735 34.688 53.2852 34.7041V35.7275C53.6373 35.7481 53.9725 35.7676 54.3398 35.7891C54.3685 35.9082 54.3942 36.0137 54.4336 36.1758C54.0375 36.1964 53.6873 36.2156 53.3154 36.2354C53.2214 36.6304 53.2518 37.0085 53.293 37.4375C53.7311 37.4527 54.1561 37.4683 54.6094 37.4844C54.6372 37.6161 54.6595 37.7228 54.6963 37.8984C54.0297 37.9253 53.4133 37.9168 52.8086 37.9043C52.7002 37.5376 52.682 34.7207 52.7725 34.2627ZM14.1055 34.1484C14.1306 34.2936 14.1544 34.4289 14.1777 34.5615C13.7854 34.8012 13.3761 34.5966 12.9561 34.7461L12.9551 34.7451V35.7256C13.2875 35.7462 13.6058 35.7667 13.957 35.7891C13.9696 35.9117 13.981 36.0201 13.998 36.1777C13.6441 36.1983 13.325 36.2176 12.9863 36.2373C12.8915 36.6323 12.9209 37.0095 12.9648 37.4502H14.2305C14.2421 37.6204 14.2491 37.7289 14.2607 37.8955C13.6388 37.9287 13.0521 37.9116 12.4795 37.9062C12.372 37.5442 12.3507 34.7223 12.4502 34.1641C12.978 34.13 13.523 34.1547 14.1055 34.1484ZM33.9912 34.1406C34.3246 34.3772 34.37 34.7419 34.5098 35.043C34.783 35.6326 35.0227 36.2372 35.3516 36.8232V34.2021H35.7861C35.8909 34.5505 35.9172 37.2939 35.8213 37.8799C35.634 37.8897 35.4348 37.9015 35.1982 37.9141C34.8183 37.0287 34.4462 36.1616 34.0752 35.2959C34.0439 35.303 34.0126 35.3102 33.9805 35.3174V37.876H33.4805V34.209C33.6695 34.1839 33.838 34.1612 33.9912 34.1406ZM26.123 37.8721C25.9333 37.8882 25.7954 37.8997 25.6289 37.9131C25.5223 37.614 25.4231 37.3383 25.3174 37.041H24.165C24.0818 37.3007 23.9966 37.5648 23.8945 37.8809C23.7521 37.8889 23.5845 37.8986 23.3516 37.9111C23.7235 36.644 24.077 35.4351 24.4453 34.1787H25.0645C25.4139 35.3992 25.761 36.6077 26.123 37.8721ZM29.2432 34.1875C29.3489 34.5522 29.3757 37.2556 29.2861 37.873C29.1598 37.8847 29.0207 37.8966 28.8926 37.9082C28.7709 37.561 28.7488 34.6827 28.8633 34.1631C28.9905 34.1711 29.1249 34.1803 29.2432 34.1875ZM70.3457 34.1514C70.7149 34.1774 71.0918 34.182 71.4512 34.2617C72.1382 34.4135 72.4245 35.3871 71.9541 35.9238C71.8377 36.0563 71.6975 36.1688 71.5381 36.3184H71.5391C71.8069 36.8388 72.0634 37.3351 72.3438 37.8779H71.7568C71.5274 37.4281 71.2793 36.9413 71.0176 36.4287C70.8896 36.4171 70.7629 36.4056 70.5723 36.3877V37.873C70.3762 37.8874 70.2374 37.8983 70.1084 37.9072C69.9991 37.5631 69.9703 34.794 70.0635 34.2031C70.1513 34.1861 70.2499 34.1451 70.3457 34.1514ZM64.0674 34.165C64.243 34.5961 64.2245 37.2627 64.0488 37.8721H63.4531C63.0679 36.9788 62.6752 36.0683 62.2676 35.123C62.1172 35.6005 62.3283 36.0349 62.3096 36.4766C62.2908 36.9219 62.3047 37.3684 62.3047 37.8711C62.1265 37.8809 61.9778 37.8876 61.7969 37.8975V34.1797H62.3984C62.7999 35.1072 63.1936 36.0172 63.5879 36.9268C63.6085 36.9223 63.6288 36.9185 63.6494 36.9141V34.1875C63.8132 34.1786 63.9483 34.1713 64.0674 34.165ZM43.4219 34.1543C43.861 34.2045 44.3107 34.2256 44.7363 34.334C45.3499 34.4902 45.6216 35.4693 45.0088 36.0186C44.9103 36.1072 44.7963 36.1798 44.6494 36.2891C44.7946 36.5507 44.9419 36.8036 45.0771 37.0625C45.2071 37.3098 45.3251 37.5628 45.4766 37.8711H44.9062C44.667 37.4015 44.4188 36.9138 44.167 36.4209H43.6797V37.874C43.4871 37.883 43.3381 37.8884 43.1572 37.8965V34.2197C43.2825 34.1867 43.355 34.1473 43.4219 34.1543ZM40.6729 34.1738C41.2579 34.1398 41.8523 34.1073 42.5225 34.2041C42.44 34.3977 42.3855 34.5239 42.3281 34.6592H41.1963V35.7852H42.2002V36.1836C41.8607 36.2006 41.541 36.2164 41.1943 36.2334V37.4355C41.6056 37.4499 42.0141 37.4643 42.4531 37.4795C42.4701 37.6067 42.4844 37.7164 42.5068 37.8857H40.71C40.6006 37.5709 40.5689 34.8092 40.6729 34.1738ZM49.1201 34.1689C49.2491 34.5438 49.2692 37.3895 49.1572 37.8779H48.7188V34.2051C48.8701 34.1916 49.0019 34.1797 49.1201 34.1689ZM59.2939 34.1572C59.9011 34.1393 60.4726 34.1379 61.1094 34.1621C61.0637 34.3566 61.0318 34.4892 60.9941 34.6514C60.5982 34.6711 60.2327 34.6893 59.835 34.709V35.7744H60.8301C60.8426 35.9114 60.8509 36.0209 60.8652 36.1768C60.5114 36.1965 60.1913 36.2136 59.8535 36.2324C59.7693 36.6356 59.7845 37.0131 59.8428 37.4414H61.0928C61.108 37.6051 61.1205 37.7232 61.1348 37.8779H59.2939V34.1572ZM64.5781 34.2422C65.0585 34.0961 66.6823 34.1152 67.0264 34.2666C66.9977 34.3839 66.9685 34.5075 66.9336 34.6533C66.655 34.6739 66.393 34.6936 66.0732 34.7178V37.8779H65.5332V34.7158C65.3299 34.7033 65.1853 34.6944 65.041 34.6846C64.9103 34.6756 64.7795 34.6647 64.5986 34.6504C64.5906 34.4929 64.5844 34.3604 64.5781 34.2422ZM46.0361 34.1484C46.4367 35.1063 46.5435 36.1376 46.918 37.1465C47.2423 36.1367 47.398 35.1322 47.7627 34.1797H48.2471C47.9271 35.4388 47.5745 36.6435 47.1973 37.8721H46.6025C46.2513 36.6381 45.9075 35.4288 45.5518 34.1787C45.7419 34.1662 45.8699 34.1592 46.0361 34.1484ZM25.9648 34.168C26.7489 34.1438 27.5116 34.1198 28.3467 34.1816C28.2956 34.3842 28.2634 34.5159 28.2275 34.6602C27.9417 34.6772 27.692 34.6921 27.3828 34.7109C27.3138 35.7513 27.3882 36.789 27.3389 37.8652H26.8105V34.7178C26.5042 34.6963 26.2569 34.6798 25.9648 34.6592V34.168ZM31.4092 34.5986C31.0697 34.5907 30.7701 34.7848 30.668 35.1279C30.5758 35.4386 30.5289 35.7619 30.46 36.0859L30.5605 36.5723C30.594 36.7326 30.6299 36.891 30.6777 37.0459C30.7754 37.3631 31.0719 37.5478 31.3945 37.5469C31.7169 37.5459 31.9964 37.3571 32.1084 37.041C32.3342 36.403 32.341 35.76 32.1143 35.1201C32.0013 34.8004 31.7308 34.6067 31.4092 34.5986ZM15.458 37.3936C16.1874 37.6256 16.632 37.2109 16.6885 36.5361C16.7145 36.2289 16.7385 35.9296 16.709 35.6143C16.6696 35.1958 16.4975 34.9169 16.1436 34.6875H15.458V37.3936ZM24.2734 36.5361H25.1973C25.0512 35.977 24.9729 35.4422 24.7256 34.875C24.5634 35.4707 24.4213 35.9923 24.2734 36.5361ZM84.0615 36.1299C83.7228 36.2249 76.4749 36.2515 75.8789 36.1602V35.7812H84.0615V36.1299ZM8.88184 36.1865H0.708984C0.684803 36.1061 0.65291 36.0397 0.648438 35.9717C0.644896 35.9179 0.674876 35.861 0.697266 35.7822H8.85645C8.86451 35.9148 8.87199 36.0236 8.88184 36.1865ZM70.5645 34.7109C70.5662 35.1492 70.5174 35.5286 70.6133 35.9668C70.9268 35.9139 71.1969 35.8679 71.4092 35.833C71.6572 35.5463 71.6499 35.2834 71.5898 34.9385C71.5316 34.8731 71.4342 34.7647 71.3867 34.7109H70.5645ZM43.6797 34.6504C43.6761 35.1001 43.6236 35.4952 43.7158 35.8965C44.1191 35.9727 44.4647 35.9403 44.7139 35.623V34.9121C44.4191 34.5878 44.0506 34.7255 43.6797 34.6504ZM30.2764 6.62988C31.2225 6.46504 32.1831 6.45348 33.1221 6.6416C34.4564 6.90865 35.5699 7.54827 36.3057 8.75C36.7993 9.55645 37.0288 10.4314 37.1426 11.3633C37.2608 12.3328 37.1805 13.3008 37.2109 14.2676C37.2127 14.3248 37.1916 14.3829 37.1826 14.4365C36.8779 14.5476 34.4 14.5857 33.6562 14.4854C33.6446 14.3564 33.6211 14.2147 33.6201 14.0732C33.6156 13.4317 33.6311 12.789 33.6123 12.1475C33.6033 11.8375 33.5669 11.52 33.4863 11.2217C33.2533 10.3632 32.7941 10.0624 31.9902 9.97461C31.6731 9.93971 31.3314 9.98911 31.0205 10.0742C30.4077 10.241 30.0996 10.7161 29.9805 11.3057C29.907 11.6677 29.8759 12.044 29.875 12.4141C29.8678 16.6393 29.8645 20.8656 29.8779 25.0908C29.8788 25.4859 29.9601 25.8918 30.0703 26.2734C30.2504 26.8954 30.7183 27.2457 31.3447 27.3066C31.7371 27.3442 32.1607 27.322 32.5352 27.2109C33.0486 27.0577 33.3768 26.6507 33.4951 26.1211C33.5658 25.8041 33.6087 25.4745 33.6123 25.1494C33.6249 23.7909 33.6182 22.4308 33.6182 21.0723V20.5459L33.6172 20.5439H31.8496C31.7161 20.1818 31.6963 17.632 31.8047 17.1768C32.1676 17.0845 36.7581 17.0822 37.1807 17.1816C37.1905 17.2999 37.2119 17.4297 37.2119 17.5596C37.2137 20.1575 37.2483 22.7566 37.1973 25.3545C37.1713 26.6799 36.8484 27.9479 35.9756 29.0215C35.3797 29.7545 34.6301 30.2363 33.7402 30.5078C33.0244 30.7255 32.2845 30.8546 31.54 30.8232C30.4172 30.7757 29.3235 30.5922 28.3467 29.9541C27.4847 29.3904 26.9191 28.6083 26.5508 27.6729C26.2309 26.8619 26.0899 26.0105 26.0898 25.1377C26.0898 20.7627 26.0771 16.3876 26.0986 12.0127C26.104 10.8049 26.3893 9.65058 27.0684 8.62012C27.8328 7.4623 28.9447 6.86198 30.2764 6.62988ZM49.4365 6.73633C50.7001 6.4182 51.984 6.40597 53.2422 6.74023C55.2618 7.27705 56.4152 8.64969 56.8418 10.6631C56.9807 11.32 57.033 11.9863 57.0312 12.6602C57.0223 16.8109 57.0383 20.9616 57.0186 25.1123C57.0132 26.2719 56.773 27.3984 56.1699 28.4102C55.626 29.3223 54.8524 29.9852 53.8623 30.375C53.0343 30.7012 52.1565 30.8334 51.2783 30.8164C49.9154 30.7904 48.6234 30.483 47.5293 29.5869C46.9101 29.0797 46.4966 28.4341 46.1973 27.7109C45.8702 26.9187 45.7161 26.0887 45.7197 25.2266L45.7227 18.6436C45.7227 16.3594 45.7105 14.0742 45.7275 11.79C45.7356 10.7263 46.0273 9.71948 46.582 8.81348C47.2406 7.73837 48.2162 7.04462 49.4365 6.73633ZM43.2227 6.83789C43.3266 7.1694 43.3635 29.7382 43.2686 30.3867C42.9718 30.4951 40.3449 30.5341 39.5859 30.4355C39.5689 30.3371 39.5361 30.2252 39.5352 30.1143C39.5289 29.6518 39.5322 29.188 39.5322 28.7256V6.83789H43.2227ZM23.9023 6.81543C24.0178 6.81547 24.1332 6.83829 24.2871 6.85352H24.2881V10.3057C23.5641 10.3218 22.8671 10.3127 22.1709 10.3145H18.0322C17.9302 10.7344 17.9252 15.9392 18.0273 16.4023H22.9287C23.0757 16.7671 23.1102 19.2443 22.9893 19.8447C22.837 19.8626 22.6673 19.8985 22.4971 19.8994C21.1681 19.9039 19.8397 19.9014 18.5107 19.9014H18.041C17.9344 20.2661 17.9121 26.4068 18.0098 26.9463C18.5134 27.0153 19.0336 26.9675 19.5498 26.9756C20.0722 26.9836 20.5948 26.9775 21.1172 26.9775H24.2236C24.3383 27.3503 24.357 29.9372 24.2646 30.4023C23.9448 30.4954 14.8201 30.525 14.2549 30.4336C14.2477 30.4255 14.2385 30.414 14.2295 30.4023C14.2206 30.3908 14.2088 30.3795 14.2061 30.3662C14.1944 30.308 14.1758 30.2496 14.1758 30.1914C14.1749 22.4883 14.1749 14.7851 14.1758 7.08105C14.1758 7.02281 14.1939 6.96414 14.2109 6.8584C14.3328 6.84406 14.4606 6.81543 14.5869 6.81543C17.692 6.81274 20.7973 6.81274 23.9023 6.81543ZM59.4805 6.89453C59.8236 6.78353 63.7021 6.77563 64.1455 6.89746C64.8705 9.72736 65.6008 12.5797 66.332 15.4355L66.3311 15.4365C65.3892 15.6821 64.4892 15.917 63.5312 16.167C63.2902 15.2547 63.0436 14.3153 62.7676 13.2695V16.6514C61.7623 17.9748 61.7591 18.3785 62.7373 19.415V30.3975C62.3722 30.4942 59.9561 30.509 59.5117 30.4248C59.4149 30.1156 59.3846 7.43759 59.4805 6.89453ZM1.08496 6.81445C2.8314 6.81176 4.57965 6.7821 6.3252 6.82422C7.33604 6.84841 8.34348 6.9772 9.27637 7.44141C10.5568 8.07947 11.2115 9.1604 11.501 10.5117C11.7312 11.5861 11.6815 12.6767 11.6797 13.7637C11.6788 14.6327 11.5577 15.4803 11.2559 16.3027C10.9189 17.2177 10.3101 17.8761 9.45605 18.3232C9.41765 18.343 9.38441 18.3726 9.31738 18.4199C10.0415 18.695 10.5879 19.1631 10.9795 19.7939C11.3469 20.3863 11.534 21.053 11.5869 21.7412C11.6496 22.5565 11.67 23.3773 11.6816 24.1953C11.6969 25.3297 11.6908 26.4652 11.6846 27.5996C11.6792 28.5126 11.7504 29.4143 12.0469 30.2861C12.0603 30.3265 12.0531 30.3747 12.0566 30.4473H8.26855C8.213 30.2985 8.12959 30.1531 8.10449 29.999C8.02744 29.5152 7.92329 29.0285 7.91699 28.542C7.89459 26.661 7.91114 24.7785 7.90039 22.8975C7.89766 22.36 7.8072 21.8335 7.59766 21.3301C7.38706 20.8229 6.97751 20.5433 6.47656 20.4707C5.86097 20.382 5.231 20.3919 4.60645 20.3623C4.56612 20.3605 4.52395 20.3889 4.4209 20.4238C4.41911 23.7422 4.42074 27.0771 4.41895 30.3945H4.41992C3.99611 30.4994 1.11004 30.5038 0.714844 30.416C0.623525 30.0588 0.610444 7.31349 0.708984 6.84766C0.826379 6.8369 0.955916 6.81445 1.08496 6.81445ZM70.3105 18.4023C70.5668 18.2635 70.8121 18.2235 71.0674 18.4395V30.4492L71.0684 30.4502H67.2129C66.3033 26.9248 65.3978 23.4141 64.4766 19.8447C65.007 19.8179 65.4805 19.8158 65.9482 19.7656C66.4033 19.7172 66.8544 19.6212 67.3633 19.5361C67.4538 19.8675 67.5401 20.1893 67.6279 20.5117C67.6441 20.5099 67.6606 20.5086 67.6768 20.5068V19.5156C67.8075 19.4529 67.9192 19.3823 68.041 19.3438C68.826 19.0982 69.5865 18.794 70.3105 18.4023ZM81.8447 0.00292969C82.0257 0.062055 82.2104 0.113569 82.3887 0.181641C82.7964 0.336673 82.9916 0.645863 83.0176 1.07422C83.0471 1.55709 82.969 2.02389 82.8311 2.48438C82.5506 3.42084 82.0828 4.27449 81.6016 5.11328C80.8676 6.39294 80.0894 7.64834 79.3232 8.90918C79.1145 9.25236 78.881 9.58151 78.6328 9.95605C78.5719 10.6997 78.522 11.4864 78.4414 12.2695C78.2873 13.758 78.3801 15.251 78.3496 16.7412C78.3478 16.8451 78.3382 16.9482 78.3311 17.0771C79.9602 17.5261 81.5935 17.9772 83.2012 18.4199C83.5596 19.3016 83.845 20.1386 84.1191 21.083C83.0878 20.8428 82.1895 20.4886 81.2656 20.2314C80.3339 19.9725 79.404 19.7073 78.4141 19.4287C78.5592 23.1674 79.0729 26.8052 79.8525 30.4453H77.7275C77.5071 29.9838 77.1578 27.8607 76.8164 24.7314C76.6085 22.8254 76.4327 20.9165 76.2383 18.9629C74.3549 18.5131 72.4312 18.1594 70.5576 17.9883C69.7592 18.3225 69.0409 18.6541 68.2998 18.9238C67.5014 19.2142 66.6743 19.3894 65.8213 19.4736C65.1188 19.5435 64.4251 19.5939 63.7334 19.4443C63.0336 19.2929 62.4869 18.9477 62.3281 18.1836C62.4356 17.2795 63.1153 16.8883 63.8223 16.5469C64.5114 16.2144 65.2582 16.0546 66.0137 15.9453C66.6607 15.8512 67.3162 15.8018 67.9561 15.6719C68.4488 15.5715 68.9374 15.4112 69.4023 15.2168C71.4929 14.3413 73.218 12.9548 74.7109 11.2773C75.4753 10.4189 76.1644 9.48706 76.5273 8.37598C76.7066 7.82843 76.7955 7.2489 76.9111 6.68164C77.153 5.49983 77.3518 4.30547 77.7891 3.17383C78.2111 2.08053 78.8252 1.12918 79.8486 0.490234C80.1979 0.272689 80.5696 0.142811 80.9717 0.0800781C81.0559 0.066636 81.1373 0.0277804 81.2197 0H81.8467L81.8447 0.00292969ZM52.2148 10.1152C51.7928 9.94049 51.3528 9.92057 50.8984 10.0039C50.1771 10.1357 49.7798 10.5934 49.6006 11.2637C49.5325 11.519 49.5048 11.7924 49.5039 12.0576C49.4967 14.2522 49.5001 16.447 49.501 18.6416L49.498 21.9541C49.498 23.0588 49.5008 24.1636 49.5098 25.2686C49.5125 25.6333 49.5941 26.0099 49.707 26.3594C49.8352 26.7562 50.1392 27.0462 50.5244 27.2021C50.9474 27.3733 51.4068 27.392 51.8477 27.2988C52.4947 27.1626 52.9631 26.7936 53.085 26.1045C53.1593 25.6816 53.2423 25.2516 53.2432 24.8252C53.2548 20.8096 53.2523 16.793 53.2451 12.7773C53.2451 12.3474 53.216 11.9138 53.1533 11.4883C53.0655 10.8879 52.8197 10.3644 52.2148 10.1152ZM68.748 17.8486C68.2445 17.8683 67.739 17.8857 67.2373 17.9287C66.706 17.9744 66.1726 18.0242 65.6484 18.1191C65.0776 18.2231 64.5346 18.4224 64.0391 18.8418C64.1175 18.8801 64.1433 18.8963 64.1709 18.9053C64.7919 19.1195 65.4189 18.9485 66.0273 18.875C67.0614 18.7504 68.0641 18.4564 69.0273 18.0479C69.0722 18.029 69.1061 17.9858 69.2217 17.8926C69.0015 17.8711 68.8734 17.8433 68.748 17.8486ZM4.45312 10.3135V16.9121C5.19506 16.9336 5.90923 17.0073 6.60547 16.8066C6.88583 16.726 7.16362 16.5998 7.35449 16.3438C7.61975 15.9871 7.79213 15.5941 7.81543 15.1514C7.85575 14.379 7.9017 13.6044 7.89453 12.832C7.89002 12.3751 7.82357 11.911 7.71875 11.4648C7.58435 10.8888 7.23232 10.4728 6.61426 10.375C6.30778 10.3266 5.99252 10.3226 5.68066 10.3154C5.28286 10.3056 4.88416 10.3125 4.4541 10.3125L4.45312 10.3135ZM73.3154 16.1006C74.2597 16.2717 75.1926 16.4397 76.1709 16.6162C76.2014 15.4132 76.2301 14.2586 76.2588 13.1201C75.2748 14.1166 74.2994 15.1032 73.3154 16.1006ZM67.7451 6.89648C68.0973 6.79522 70.5351 6.77538 71.0137 6.8623C71.114 7.16857 71.1471 13.2744 71.0459 13.8926C70.0566 14.5593 68.978 15.068 67.8076 15.3145C67.7639 15.2832 67.7511 15.2755 67.7412 15.2656C67.7305 15.2558 67.7158 15.2439 67.7139 15.2314C67.7013 15.1284 67.6836 15.0249 67.6836 14.9219C67.6854 12.2962 67.6899 9.66961 67.6953 7.04395C67.6953 7.00192 67.7218 6.96077 67.7441 6.89648H67.7451ZM82.2451 0.771484C82.0131 0.853896 81.7987 0.9817 81.6553 1.2002C81.321 1.71008 80.9654 2.20876 80.667 2.73926C79.8928 4.11737 79.4365 5.61361 79.0986 7.14941C79.0073 7.56685 78.9463 7.99109 78.8711 8.41211V8.41309C78.8961 8.42202 78.9223 8.43141 78.9473 8.43945C79.0288 8.31945 79.116 8.20269 79.1895 8.0791C79.8508 6.96341 80.5303 5.85741 81.1621 4.72559C81.5393 4.04995 81.8771 3.34552 82.1611 2.62598C82.3332 2.19048 82.3774 1.70213 82.459 1.23438C82.4894 1.05889 82.4669 0.870996 82.2451 0.771484Z" fill="url(#paint0_linear_32727_81151)"/>
<defs>
<linearGradient id="paint0_linear_32727_81151" x1="78.3144" y1="5.50637e-08" x2="78.3144" y2="26.3559" gradientUnits="userSpaceOnUse">
<stop stop-color="white"/>
<stop offset="1" stop-color="white" stop-opacity="0.6"/>
</linearGradient>
</defs>
</svg>
