<svg width="149" height="24" viewBox="0 0 149 24" fill="none" xmlns="http://www.w3.org/2000/svg">
<path d="M42.6748 20.1431V23.3999H32.7891C34.2461 22.4805 35.5864 21.3862 36.7793 20.1431H42.6748ZM6.22754 20.1431C7.42079 21.3862 8.7613 22.4796 10.2188 23.3989H0.332031V20.1431H6.22754ZM0.332031 7.11377C1.46279 7.11236 2.58151 7.34713 3.61621 7.80322C4.65088 8.25932 5.57906 8.92658 6.34082 9.76221C7.59712 11.0598 8.73737 12.7966 9.51953 13.9126C10.0758 14.7079 10.5669 15.2451 10.5781 15.2573C13.2621 18.2551 17.1624 20.1421 21.5039 20.1421C23.5662 20.144 25.6056 19.7094 27.4883 18.8677C29.371 18.0259 31.0549 16.7955 32.4287 15.2573C32.8081 14.8309 33.1611 14.3817 33.4863 13.9126C34.2685 12.7966 35.4096 11.0599 36.666 9.76221C37.4279 8.92683 38.356 8.26009 39.3906 7.8042C40.4253 7.34831 41.5441 7.11318 42.6748 7.11475V10.3706C41.9873 10.3697 41.3073 10.5149 40.6797 10.7954C40.052 11.076 39.491 11.4866 39.0332 11.9995C39.0332 11.9995 38.4267 12.6837 37.9111 13.4741C37.3955 14.267 35.5432 16.8659 34.3057 18.0161C31.0543 21.3383 26.519 23.3989 21.5039 23.3989C19.1186 23.402 16.7565 22.927 14.5576 22.0024C12.3589 21.0779 10.3675 19.7227 8.70117 18.0161C7.46371 16.8659 5.61164 14.2672 5.09473 13.4741C4.58295 12.6877 3.9797 12.0064 3.97363 11.9995C3.51582 11.4865 2.95484 11.076 2.32715 10.7954C1.69947 10.5148 1.01957 10.3697 0.332031 10.3706V7.11377ZM87.3428 3.97803C91.84 3.97803 95.2354 7.34839 95.2354 12.0474C95.2352 16.7155 91.8401 20.1167 87.3418 20.1167C82.8458 20.1167 79.4494 16.7155 79.4492 12.0474C79.4492 7.34846 82.8456 3.97812 87.3428 3.97803ZM102.519 20.1167H98.4492V3.97803H102.519V20.1167ZM111.62 3.97803C115.904 3.9781 117.34 6.72902 117.524 8.36768L117.519 8.36963H113.896C113.568 7.69846 112.889 7.1001 111.65 7.1001C110.579 7.10019 109.723 7.74907 109.723 8.61475C109.723 9.35678 110.274 9.82053 111.1 9.9751L113.241 10.439C116.209 11.0572 117.707 12.8822 117.707 15.1069C117.707 17.5809 115.812 20.1167 111.865 20.1167C107.336 20.1167 105.777 17.1484 105.594 15.4165H109.258C109.606 16.286 110.451 16.9634 111.835 16.9634C113.179 16.9633 113.822 16.2519 113.822 15.4487C113.822 14.768 113.363 14.2121 112.201 13.9644L110.214 13.5005C107.307 12.8505 105.99 11.0893 105.99 8.95654C105.99 6.23485 108.377 3.97803 111.62 3.97803ZM127.188 3.97803C131.839 3.97809 134.623 6.97661 134.623 11.8618C134.623 12.304 134.589 12.7629 134.571 12.9907V12.9927L134.566 13.0493L134.562 13.1294H123.793C123.885 15.1395 125.567 16.5932 127.587 16.5933C128.889 16.5933 129.787 16.1397 130.382 15.4165H134.372C133.57 17.9895 131.201 20.1165 127.556 20.1167C123.427 20.1167 119.785 17.1178 119.785 11.9858C119.785 7.13117 123.334 3.97803 127.188 3.97803ZM142.892 3.97803C147.175 3.97803 148.614 6.72899 148.797 8.36768L148.789 8.36963H145.168C144.841 7.69841 144.163 7.10021 142.923 7.1001C141.853 7.1001 140.995 7.74901 140.995 8.61475C140.995 9.35784 141.546 9.82046 142.371 9.9751L144.514 10.439C147.481 11.0583 148.98 12.8815 148.98 15.1089C148.98 17.5815 147.082 20.1167 143.136 20.1167C138.608 20.1166 137.048 17.1481 136.864 15.4175L136.869 15.4165H140.53C140.878 16.2859 141.722 16.9634 143.105 16.9634C144.452 16.9633 145.094 16.2519 145.095 15.4487C145.095 14.7681 144.636 14.2121 143.473 13.9644L141.484 13.5005C138.577 12.8516 137.262 11.0888 137.262 8.95459C137.262 6.23428 139.649 3.97813 142.892 3.97803ZM71.0156 4.0083C73.7998 4.00833 76.4609 5.70904 76.4609 9.78857V20.0952H72.5146V10.6235C72.5145 8.98627 71.7186 7.74863 69.8525 7.74854C68.1089 7.74854 67.0684 9.10897 67.0684 10.7476V20.0952H63.0293V10.6235C63.0292 8.98621 62.2037 7.74854 60.3682 7.74854C58.5939 7.74858 57.5538 9.07833 57.5537 10.7476V20.0952H53.4844V4.44092H55.5146C56.5399 4.44092 57.3691 5.27138 57.3691 6.29541C58.1949 4.81137 60.1238 4.0084 61.7754 4.0083C63.8246 4.0083 65.4777 4.90457 66.2422 6.54443C67.4349 4.68868 69.0266 4.0083 71.0156 4.0083ZM42.6738 16.8853H39.3467C39.6025 16.494 39.8713 16.1113 40.1523 15.7378C40.5936 15.1456 41.061 14.3873 41.7217 13.939C41.7997 13.8823 41.882 13.8317 41.9688 13.7896L41.9902 13.7778V13.7808C42.1991 13.684 42.4308 13.6284 42.6738 13.6284V16.8853ZM0.332031 13.6284C0.568292 13.6292 0.801941 13.6801 1.0166 13.7788L1.03711 13.7905C1.12373 13.8323 1.20711 13.8818 1.28516 13.938C1.947 14.3863 2.41465 15.1469 2.85352 15.7368C3.13495 16.1103 3.40399 16.493 3.66016 16.8843H0.332031V13.6284ZM42.6748 3.85596C40.8354 3.85422 39.0224 4.29799 37.3916 5.14893C35.7609 5.99986 34.3603 7.23292 33.3096 8.74268C32.8342 9.37972 32.0637 10.6052 31.2061 11.687C30.3849 12.7228 29.6348 13.4751 29.6348 13.4751C28.575 14.5566 27.3095 15.415 25.9131 16.0005C24.5166 16.586 23.0172 16.8866 21.5029 16.8843C19.9887 16.8859 18.4892 16.585 17.0928 15.9995C15.6966 15.4141 14.4312 14.5559 13.3711 13.4751C12.8175 12.9061 12.2922 12.3088 11.7988 11.687C10.9425 10.6065 10.1707 9.37965 9.69531 8.74268C8.64471 7.23315 7.24473 5.9998 5.61426 5.14893C3.9837 4.29802 2.17126 3.85441 0.332031 3.85596V0.600098C2.66726 0.598559 4.96885 1.1559 7.04492 2.2251C9.12104 3.29435 10.9117 4.84451 12.2666 6.74658C12.7217 7.36483 13.1683 7.98927 13.6064 8.61963C14.5443 9.96335 15.6803 11.1983 16.6182 12.0005C18.026 13.0596 19.7412 13.631 21.5029 13.6284C23.2656 13.6311 24.9813 13.0585 26.3896 11.9985C27.3263 11.1963 28.4614 9.96319 29.4004 8.61963C30.0243 7.72799 30.4512 7.13583 30.7402 6.74658C32.0952 4.84474 33.8858 3.29316 35.9619 2.22412C38.0379 1.15518 40.3397 0.598426 42.6748 0.600098V3.85596ZM87.3428 7.71826C85.3538 7.71835 83.5186 9.17239 83.5186 12.0474C83.5187 14.8915 85.3538 16.3754 87.3428 16.3755C89.3306 16.3755 91.1679 14.9222 91.168 12.0483C91.168 9.17209 89.3318 7.71826 87.3428 7.71826ZM127.25 7.31689C125.14 7.31689 123.977 8.9241 123.885 10.3149H130.615C130.554 8.80035 129.575 7.31703 127.25 7.31689Z" fill="url(#paint0_linear_32727_81260)"/>
<defs>
<linearGradient id="paint0_linear_32727_81260" x1="138.644" y1="0.600098" x2="138.644" y2="16.4135" gradientUnits="userSpaceOnUse">
<stop stop-color="white"/>
<stop offset="1" stop-color="white" stop-opacity="0.6"/>
</linearGradient>
</defs>
</svg>
