<svg width="163" height="30" viewBox="0 0 163 30" fill="none" xmlns="http://www.w3.org/2000/svg">
<path d="M149.244 9.62988C149.652 9.63217 150.059 9.66824 150.461 9.73828C150.903 9.81552 151.334 9.94484 151.746 10.1221C152.725 10.5459 153.571 11.226 154.194 12.0908H154.249V9.96387H156.054V22.6533C156.047 23.399 155.96 24.1423 155.794 24.8691C155.62 25.6551 155.274 26.3933 154.782 27.0303C154.222 27.7329 153.506 28.2944 152.689 28.6699C151.586 29.1495 150.389 29.3737 149.187 29.3262C148.017 29.3461 146.855 29.1328 145.769 28.6982C144.73 28.2524 143.798 27.5903 143.035 26.7559L144.375 25.333C144.919 26.057 145.626 26.6426 146.439 27.042C147.318 27.4781 148.289 27.6988 149.271 27.6855C150.064 27.706 150.853 27.571 151.595 27.2881C152.188 27.0553 152.718 26.6849 153.142 26.208C153.538 25.7432 153.827 25.1972 153.989 24.6084C154.166 23.9715 154.253 23.3132 154.249 22.6523V20.3545H154.194C153.68 21.1693 152.939 21.8158 152.062 22.2139C151.225 22.5777 150.322 22.7636 149.409 22.7598C148.515 22.7667 147.627 22.6003 146.796 22.2686C146.01 21.9562 145.291 21.4961 144.677 20.9141C144.068 20.3292 143.583 19.6263 143.254 18.8486C142.904 18.0277 142.727 17.1434 142.734 16.251C142.727 15.361 142.894 14.4779 143.227 13.6523C143.541 12.8711 144.001 12.1564 144.581 11.5459C145.161 10.9401 145.859 10.46 146.632 10.1357C147.459 9.7918 148.348 9.61944 149.244 9.62988ZM30.2979 29.3262H16.2031V0.667969H30.2979V29.3262ZM14.3213 28H6.80469V1.99805H14.3213V28ZM5.23633 26.6709H0.851562V3.3252H5.23633V26.6709ZM43.459 9.63477C44.0662 9.63282 44.67 9.72539 45.249 9.9082C45.7997 10.0771 46.3083 10.3612 46.7402 10.7422C47.174 11.1351 47.5192 11.6158 47.7529 12.1523C47.9889 12.7124 48.1181 13.311 48.1348 13.917V19.8926C48.1348 20.3845 48.1583 20.9002 48.2041 21.4395C48.2499 21.9787 48.2999 22.4214 48.3545 22.7666H46.6055C46.5504 22.4568 46.5097 22.1183 46.4814 21.7539C46.4533 21.3897 46.4414 21.034 46.4414 20.6875H46.3867C45.9424 21.4622 45.2946 22.1009 44.5137 22.5342C43.6917 22.93 42.7859 23.1222 41.874 23.0947C41.3184 23.096 40.765 23.0175 40.2314 22.8623C39.7219 22.7162 39.2441 22.475 38.8242 22.1514C38.4156 21.8343 38.0798 21.4327 37.8398 20.9746C37.5844 20.4711 37.4576 19.9121 37.4707 19.3477C37.4193 18.4589 37.7079 17.5837 38.2773 16.8994C38.8315 16.2967 39.5262 15.8403 40.2998 15.5723C41.1382 15.2759 42.0126 15.0923 42.8994 15.0264C43.8194 14.9539 44.6632 14.9176 45.4297 14.917L46.332 14.9141V14.5859C46.3319 12.3802 45.2376 11.2764 43.0498 11.2754C41.601 11.2573 40.2002 11.7962 39.1367 12.7803L38.0449 11.4951C39.2482 10.2555 41.0528 9.63538 43.459 9.63477ZM60.2227 9.63184C61.1175 9.61767 62.0054 9.79632 62.8252 10.1553C63.5565 10.4771 64.213 10.9472 64.7529 11.5361C65.2803 12.1238 65.6842 12.8117 65.9404 13.5586C66.2173 14.3543 66.3555 15.1917 66.3496 16.0342V16.8525L55.6846 16.8564C55.7351 17.4802 55.893 18.0907 56.1504 18.6611C56.6322 19.7551 57.5114 20.6255 58.6104 21.0957C59.1722 21.3355 59.7779 21.4563 60.3887 21.4512C61.27 21.4741 62.1397 21.2416 62.8916 20.7812C63.5335 20.3918 64.0797 19.863 64.4902 19.2344L65.8867 20.3828C65.2215 21.2675 64.3543 21.9807 63.3574 22.4619C62.425 22.8833 61.4119 23.0979 60.3887 23.0908C59.4843 23.099 58.5873 22.9268 57.75 22.585C56.9627 22.264 56.2502 21.784 55.6572 21.1748C55.0643 20.5589 54.5954 19.8347 54.2754 19.042C53.9324 18.1905 53.7599 17.2793 53.7695 16.3613C53.7606 15.4449 53.928 14.5352 54.2617 13.6816C54.5722 12.888 55.0364 12.1633 55.627 11.5488C56.2098 10.9466 56.9068 10.4663 57.6777 10.1377C58.4821 9.79617 59.3488 9.62432 60.2227 9.63184ZM79.7441 9.96289H83.4365V11.6035H79.7441V19.1523C79.7337 19.5445 79.7799 19.9364 79.8809 20.3154C79.9492 20.5756 80.0802 20.8151 80.2627 21.0127C80.4258 21.176 80.629 21.2936 80.8516 21.3545C81.0966 21.4204 81.3498 21.453 81.6035 21.4502C81.9276 21.4485 82.2499 21.4023 82.5615 21.3135C82.8744 21.2283 83.1771 21.1084 83.4639 20.957L83.5459 22.626C82.7774 22.9546 81.9468 23.1128 81.1113 23.0908C80.7472 23.0884 80.3846 23.0433 80.0312 22.9551C79.6541 22.8622 79.3028 22.6839 79.0049 22.4346C78.6739 22.151 78.4122 21.7956 78.2393 21.3955C78.0186 20.8491 77.9161 20.2617 77.9385 19.6729V11.6035H76.2188V9.96289H77.9395V5.36523H79.7441V9.96289ZM98.2891 22.7637H96.4834V20.6299H96.4297C96.1465 21.0579 95.7951 21.4374 95.3896 21.752C95.0011 22.0545 94.5782 22.3107 94.1309 22.5166C93.6986 22.7157 93.2444 22.8635 92.7773 22.9551C92.3406 23.0434 91.8958 23.0884 91.4502 23.0908C90.5101 23.1023 89.5764 22.9308 88.7021 22.585C87.8999 22.2674 87.1709 21.7895 86.5596 21.1807C85.9482 20.5717 85.4673 19.844 85.1465 19.043C84.8036 18.1916 84.6313 17.2811 84.6406 16.3633C84.6312 15.4453 84.8034 14.5341 85.1465 13.6826C85.467 12.8815 85.9482 12.1538 86.5596 11.5449C87.1709 10.9362 87.8999 10.4588 88.7021 10.1416C89.5764 9.79572 90.5101 9.62327 91.4502 9.63477C91.8958 9.6372 92.3406 9.68314 92.7773 9.77148C93.2442 9.86327 93.6985 10.0104 94.1309 10.209C94.5781 10.4155 95.0009 10.672 95.3896 10.9746C95.7951 11.2892 96.1465 11.6687 96.4297 12.0967H96.4834V5.04883H98.2891V22.7637ZM51.9336 22.7637H50.1289V5.04883H51.9336V22.7637ZM73.7871 9.63477C74.1577 9.62634 74.5272 9.68103 74.8789 9.79785L74.7686 11.5762C74.433 11.4712 74.0818 11.4247 73.7305 11.4395C73.1141 11.4218 72.5028 11.5585 71.9521 11.8359C71.4785 12.0866 71.0604 12.4308 70.7236 12.8477C70.404 13.2423 70.1584 13.6916 69.999 14.1738C69.8496 14.6145 69.7709 15.0767 69.7666 15.542V22.7637H67.9629V13.9561C67.9629 13.391 67.9492 12.8163 67.9219 12.2324C67.8946 11.6485 67.8725 10.8923 67.8555 9.96387H69.6299V12.3438H69.6846C69.8176 11.9866 70.0015 11.6504 70.2305 11.3457C70.4751 11.0188 70.7656 10.7286 71.0928 10.4844C71.4496 10.2177 71.8463 10.0085 72.2686 9.86621C72.7581 9.70489 73.2717 9.62702 73.7871 9.63477ZM106.138 9.63574C106.508 9.6272 106.878 9.6829 107.229 9.7998L107.121 11.5771C106.869 11.4984 106.609 11.4531 106.346 11.4414H105.852C105.314 11.4593 104.786 11.5941 104.305 11.8369C103.83 12.0872 103.411 12.4314 103.073 12.8486C102.754 13.2436 102.508 13.6935 102.349 14.1758C102.199 14.6163 102.121 15.0778 102.116 15.543V22.7637H100.311L100.312 13.9551C100.312 13.3902 100.299 12.816 100.271 12.2324C100.244 11.6486 100.222 10.8922 100.203 9.96387H101.981V12.3428H102.036C102.169 11.9855 102.353 11.6492 102.582 11.3447C102.826 11.018 103.117 10.7279 103.443 10.4834C103.801 10.2173 104.198 10.0092 104.62 9.86719C105.109 9.70585 105.622 9.62796 106.138 9.63574ZM110.552 22.7637H108.746V9.96289H110.552V22.7637ZM118.183 20.7402H118.237L122.312 9.96289H124.363L119.168 22.7637H117.145L111.949 9.96289H114.083L118.183 20.7402ZM127.81 22.7637H126.004V9.96289H127.81V22.7637ZM136.206 9.63867C137.847 9.63874 139.06 10.0716 139.846 10.9375C140.631 11.8034 141.023 13.0389 141.021 14.6436V22.7637H139.216V15.6797C139.216 14.2572 138.97 13.1676 138.478 12.4111C137.985 11.6548 137.073 11.2753 135.742 11.2734C135.485 11.2957 135.23 11.333 134.978 11.3838C134.496 11.4839 134.043 11.6894 133.65 11.9854C133.13 12.3784 132.704 12.8825 132.405 13.4619C131.999 14.3137 131.811 15.2537 131.859 16.1963V22.7637H130.055V12.7793C130.055 12.4336 130.041 11.9958 130.013 11.4668C129.987 10.9652 129.956 10.4637 129.918 9.96289L131.772 9.96484C131.809 10.311 131.831 10.6528 131.841 10.9902C131.85 11.3278 131.855 11.6702 131.854 12.0166H131.909C132.116 11.6622 132.375 11.3397 132.676 11.0605C132.988 10.7668 133.337 10.5142 133.714 10.3086C134.1 10.0985 134.508 9.93272 134.932 9.81543C135.346 9.69903 135.775 9.64002 136.206 9.63867ZM45.4014 16.3906C44.9465 16.3906 44.3768 16.4142 43.6924 16.46C43.0264 16.5023 42.3664 16.6123 41.7227 16.7881C41.1348 16.9413 40.5854 17.2161 40.1104 17.5947C39.8894 17.7761 39.714 18.0065 39.5977 18.2676C39.4814 18.5286 39.4275 18.8131 39.4404 19.0986C39.43 19.4756 39.52 19.849 39.7012 20.1797C39.8714 20.4777 40.11 20.7314 40.3975 20.9189C40.6945 21.1118 41.0236 21.2503 41.3691 21.3281C41.7232 21.4102 42.0858 21.4513 42.4492 21.4512C43.0361 21.4648 43.619 21.3529 44.1592 21.123C44.6234 20.9196 45.0377 20.6174 45.373 20.2373C45.7084 19.857 45.9567 19.4072 46.1006 18.9209C46.2578 18.4024 46.3364 17.8631 46.333 17.3213V16.3906H45.4014ZM91.4502 11.2754C90.7598 11.2641 90.0748 11.3992 89.4404 11.6719C88.8654 11.9235 88.3478 12.2919 87.9219 12.7529C87.4949 13.2213 87.1649 13.7696 86.9512 14.3662C86.7196 15.006 86.6038 15.6829 86.6094 16.3633C86.6038 17.0438 86.7196 17.7205 86.9512 18.3604C87.1648 18.957 87.4948 19.5054 87.9219 19.9736C88.3478 20.4347 88.8654 20.8031 89.4404 21.0547C90.0748 21.3274 90.7598 21.4625 91.4502 21.4512C92.1491 21.457 92.8426 21.3223 93.4883 21.0547C94.0963 20.8044 94.6494 20.4368 95.1162 19.9736C95.5752 19.512 95.9381 18.9637 96.1826 18.3604C96.6933 17.0782 96.6933 15.6483 96.1826 14.3662C95.938 13.763 95.5751 13.2147 95.1162 12.7529C94.6494 12.2898 94.0963 11.9222 93.4883 11.6719C92.8426 11.4043 92.1491 11.2695 91.4502 11.2754ZM149.464 11.2725C148.818 11.2664 148.178 11.4023 147.59 11.6689C147.025 11.9276 146.513 12.2909 146.083 12.7393C145.652 13.1915 145.308 13.7207 145.071 14.2988C144.824 14.9015 144.699 15.5476 144.703 16.1992L144.707 16.4424C144.731 17.0108 144.854 17.5713 145.071 18.0986C145.308 18.6769 145.651 19.2056 146.083 19.6572C146.512 20.1053 147.023 20.4678 147.588 20.7246C148.176 20.9923 148.816 21.1276 149.462 21.1211C150.741 21.1253 151.973 20.6413 152.907 19.7676C153.366 19.3345 153.726 18.8065 153.961 18.2207C154.214 17.5771 154.331 16.8874 154.303 16.1963C154.307 15.5482 154.196 14.904 153.975 14.2949C153.764 13.7163 153.438 13.1858 153.019 12.7354C152.586 12.2796 152.064 11.9169 151.486 11.6689C150.847 11.3978 150.158 11.2623 149.464 11.2725ZM160.216 17.0986C160.543 17.0072 160.889 17.0046 161.218 17.0908C161.546 17.177 161.847 17.3495 162.087 17.5898C162.327 17.8301 162.499 18.1304 162.585 18.459C162.671 18.7875 162.668 19.1328 162.577 19.46C162.491 19.7763 162.324 20.0651 162.092 20.2969C161.86 20.5287 161.571 20.696 161.255 20.7822C160.928 20.8732 160.582 20.8753 160.254 20.7891C159.926 20.7028 159.626 20.531 159.386 20.291C159.146 20.0509 158.973 19.7512 158.887 19.4229C158.8 19.0945 158.804 18.749 158.895 18.4219C158.98 18.1052 159.147 17.816 159.379 17.584C159.611 17.352 159.899 17.1845 160.216 17.0986ZM161.146 17.4824C160.888 17.4104 160.614 17.4083 160.354 17.4766C160.094 17.5449 159.857 17.681 159.667 17.8711C159.477 18.0611 159.341 18.2987 159.272 18.5586C159.204 18.8184 159.206 19.0918 159.278 19.3506C159.346 19.6009 159.479 19.8292 159.662 20.0127C159.846 20.1963 160.075 20.3294 160.325 20.3975C160.584 20.4694 160.857 20.4706 161.117 20.4023C161.377 20.334 161.615 20.1979 161.805 20.0078C161.995 19.8178 162.131 19.581 162.199 19.3213C162.268 19.0613 162.265 18.7873 162.193 18.5283C162.125 18.2781 161.992 18.0497 161.809 17.8662C161.625 17.6829 161.397 17.5508 161.146 17.4824ZM160.91 17.8906C160.998 17.8853 161.086 17.8981 161.168 17.9277C161.25 17.9574 161.326 18.0028 161.39 18.0625C161.454 18.1223 161.504 18.1952 161.539 18.2754C161.574 18.3555 161.592 18.4419 161.593 18.5293C161.596 18.681 161.543 18.8293 161.444 18.9443C161.345 19.0593 161.207 19.1339 161.057 19.1533L161.619 19.9922H161.255L160.713 19.1611H160.349V19.9922H160.055V17.8906H160.91ZM160.349 18.8936H160.91C160.96 18.8953 161.01 18.887 161.057 18.8691C161.103 18.8512 161.146 18.8237 161.182 18.7891C161.218 18.7544 161.246 18.7129 161.266 18.667C161.285 18.621 161.296 18.5715 161.296 18.5215C161.296 18.4716 161.285 18.4219 161.266 18.376C161.246 18.3301 161.217 18.2885 161.182 18.2539C161.146 18.2193 161.103 18.1917 161.057 18.1738C161.01 18.156 160.96 18.1477 160.91 18.1494H160.349V18.8936ZM60.2246 11.2734C59.6426 11.2734 59.0667 11.3904 58.5303 11.6162C58 11.8338 57.5123 12.1446 57.0918 12.5342C56.6876 12.9094 56.3541 13.3544 56.1074 13.8477C55.8657 14.3219 55.7393 14.8466 55.7383 15.3789L64.3828 15.3779C64.4061 14.8358 64.3215 14.2943 64.1338 13.7852C63.9459 13.2758 63.658 12.8086 63.2881 12.4111C62.8842 12.0196 62.4033 11.7163 61.876 11.5205C61.3487 11.3248 60.7861 11.2404 60.2246 11.2734ZM110.552 7.16699H108.746V5.22852H110.552V7.16699ZM127.81 7.16699H126.004V5.22852H127.81V7.16699Z" fill="url(#paint0_linear_32727_81187)"/>
<defs>
<linearGradient id="paint0_linear_32727_81187" x1="151.397" y1="0.667969" x2="151.397" y2="20.549" gradientUnits="userSpaceOnUse">
<stop stop-color="white"/>
<stop offset="1" stop-color="white" stop-opacity="0.6"/>
</linearGradient>
</defs>
</svg>
