<svg width="168" height="19" viewBox="0 0 168 19" fill="none" xmlns="http://www.w3.org/2000/svg">
<path fill-rule="evenodd" clip-rule="evenodd" d="M54.2918 6.87861V17.1703H50.8077V6.87861H45.332V4.01514H59.7776V6.87861H54.2918ZM62.0781 17.1703V4.01514H75.1416V6.82082H65.6553V8.99449H74.6528V11.7989H65.6565V14.3659H75.2735V17.1703H62.0781ZM90.8259 17.1703L82.1187 8.13256V17.1703H78.6345V4.01514H82.4202L91.1347 13.0918V4.01514H94.6003V17.1703H90.8259ZM114.445 10.5839C114.445 11.4257 114.354 12.1746 114.172 12.8292C113.992 13.4826 113.736 14.053 113.407 14.538C113.086 15.0147 112.686 15.4324 112.224 15.7731C111.764 16.1111 111.252 16.3825 110.688 16.586C110.125 16.7908 109.517 16.9391 108.866 17.0321C108.191 17.1261 107.51 17.1722 106.829 17.1703H98.6401V4.01514H106.811C107.518 4.01514 108.198 4.06163 108.848 4.15335C109.471 4.23915 110.084 4.38862 110.675 4.5994C111.241 4.8042 111.756 5.07308 112.221 5.40855C112.683 5.74403 113.08 6.15615 113.409 6.64366C113.738 7.13242 113.992 7.7016 114.175 8.35244C114.356 9.00329 114.445 9.74708 114.445 10.5839ZM110.933 10.5839C110.933 9.9519 110.852 9.40282 110.693 8.93796C110.546 8.4898 110.28 8.09016 109.923 7.78201C109.569 7.48046 109.106 7.2543 108.537 7.10352C107.968 6.95275 107.273 6.87736 106.453 6.87736H102.123V14.3081H106.453C107.273 14.3081 107.968 14.2327 108.538 14.082C109.108 13.9324 109.569 13.7037 109.923 13.3933C110.276 13.0843 110.534 12.6961 110.693 12.2299C110.852 11.765 110.933 11.216 110.933 10.5839ZM117.619 17.1703V4.01514H130.683V6.82082H121.197V8.99449H130.195V11.7989H121.199V14.3659H130.814V17.1703H117.619ZM137.661 17.1703H134.176V4.01514H142.912C143.849 4.01514 144.647 4.11565 145.301 4.31292C145.956 4.51019 146.487 4.79038 146.897 5.15475C147.308 5.51912 147.605 5.95763 147.79 6.47152C147.975 6.98541 148.066 7.55836 148.066 8.19036C148.066 8.74572 147.99 9.23073 147.836 9.64533C147.683 10.06 147.476 10.4155 147.217 10.7133C146.957 11.0103 146.651 11.2639 146.31 11.4647C145.965 11.6695 145.6 11.8395 145.221 11.9723L149.447 17.1703H145.371L141.464 12.3266H137.661V17.1703ZM144.545 8.17026C144.545 7.9152 144.512 7.69908 144.447 7.51941C144.381 7.34208 144.261 7.18998 144.103 7.08467C143.905 6.95903 143.682 6.87563 143.45 6.83967C143.113 6.78387 142.773 6.75864 142.431 6.76428H137.661V9.57871H142.431C142.838 9.57871 143.179 9.55358 143.45 9.50209C143.723 9.4506 143.941 9.36893 144.103 9.2571C144.261 9.15172 144.38 8.99965 144.447 8.82236C144.512 8.64269 144.545 8.42658 144.545 8.17026ZM167.751 10.5826C167.751 11.4257 167.661 12.1746 167.479 12.8292C167.298 13.4826 167.043 14.053 166.713 14.538C166.393 15.0144 165.992 15.4322 165.53 15.7731C165.07 16.1111 164.557 16.3825 163.995 16.586C163.432 16.7908 162.824 16.9391 162.173 17.0321C161.498 17.1261 160.817 17.1722 160.135 17.1703H151.945V4.01514H160.116C160.824 4.01514 161.503 4.06163 162.154 4.15335C162.776 4.2392 163.388 4.38866 163.981 4.5994C164.532 4.79497 165.051 5.06739 165.525 5.40855C165.989 5.74403 166.384 6.15615 166.713 6.64366C167.043 7.13242 167.298 7.7016 167.479 8.35244C167.661 9.00329 167.751 9.74584 167.751 10.5826ZM164.239 10.5826C164.239 9.9519 164.159 9.40158 164 8.9367C163.852 8.48956 163.586 8.0909 163.229 7.78327C162.875 7.48046 162.414 7.25304 161.844 7.10352C161.275 6.95275 160.579 6.87736 159.759 6.87736H155.429V14.3081H159.759C160.579 14.3081 161.275 14.2327 161.844 14.082C162.414 13.9324 162.875 13.7037 163.229 13.3933C163.582 13.0843 163.841 12.6961 164 12.2299C164.159 11.765 164.239 11.2146 164.239 10.5826Z" fill="url(#paint0_linear_859_1430)"/>
<path fill-rule="evenodd" clip-rule="evenodd" d="M27.7004 10.2278H31.0677V18.607C31.0676 18.6567 31.0772 18.7058 31.0961 18.7517C31.1149 18.7976 31.1427 18.8393 31.1777 18.8744C31.2127 18.9095 31.2543 18.9374 31.3001 18.9564C31.3459 18.9755 31.395 18.9853 31.4447 18.9853H38.6618C38.7368 18.9837 38.8096 18.96 38.8712 18.9171C38.9329 18.8742 38.9804 18.8141 39.0079 18.7443C39.0354 18.6745 39.0417 18.5981 39.026 18.5247C39.0102 18.4513 38.9732 18.3843 38.9194 18.3319C37.6792 17.1508 36.4278 15.633 35.1651 13.776C33.6925 11.6098 32.8846 8.16587 32.74 3.44283C32.7375 3.34483 32.6968 3.25171 32.6266 3.18321C32.5565 3.11471 32.4624 3.07623 32.3644 3.07594H31.4434C31.3939 3.07611 31.3449 3.08602 31.2993 3.10512C31.2535 3.12421 31.2121 3.15212 31.1773 3.18724C31.1423 3.22235 31.1147 3.264 31.096 3.30979C31.0771 3.3556 31.0676 3.40464 31.0677 3.45414V8.55035H27.6502C27.5558 8.1356 27.3237 7.76507 26.9917 7.49922C26.6596 7.23338 26.2473 7.08791 25.822 7.08657H16.342C16.3463 7.00769 16.3395 6.92861 16.3219 6.85161L15.0717 1.386C15.0524 1.30159 15.0202 1.22065 14.9762 1.14602C14.916 0.989757 14.8101 0.855302 14.6722 0.76025C14.5343 0.665198 14.3709 0.613975 14.2035 0.613281H4.76999C4.66033 0.613775 4.55183 0.635886 4.45072 0.678348C4.3496 0.72081 4.25785 0.782792 4.18072 0.860746C4.10357 0.938701 4.04256 1.0311 4.00117 1.13266C3.95977 1.23421 3.93881 1.34293 3.93947 1.4526V7.08657H3.70451C3.4568 7.08756 3.2117 7.13737 2.98326 7.23316C2.75481 7.32894 2.54749 7.46882 2.37315 7.6448C2.1988 7.82078 2.06086 8.02939 1.96721 8.25872C1.87356 8.48806 1.82604 8.7336 1.82736 8.98131V11.1651C1.82736 11.2354 1.83113 11.3033 1.83992 11.3724C2.3802 11.0583 3.00843 10.8774 3.67938 10.8774H26.2957C26.7932 10.8774 27.2669 10.9753 27.6991 11.155L27.7004 10.2278ZM13.574 2.29945L14.6684 7.08657H5.60051V2.30196H13.574V2.29945ZM26.1813 11.7442H3.89424C1.92913 11.7442 0.335938 13.3651 0.335938 15.3641C0.335938 17.3644 1.92913 18.9853 3.89424 18.9853H26.1813C28.1465 18.9853 29.7396 17.3644 29.7396 15.3641C29.7396 13.3664 28.1465 11.7442 26.1813 11.7442ZM7.48143 15.5262C7.48143 16.8404 6.43354 17.9072 5.14064 17.9072C3.84775 17.9072 2.79986 16.8404 2.79986 15.525C2.79986 14.2094 3.84775 13.144 5.14064 13.144C6.4348 13.144 7.48143 14.2107 7.48143 15.5262ZM14.2826 15.5262C14.2826 16.8404 13.2335 17.9072 11.9406 17.9072C10.6477 17.9072 9.5998 16.8404 9.5998 15.525C9.5998 14.2094 10.6477 13.144 11.9406 13.144C13.2347 13.144 14.2826 14.2107 14.2826 15.5262ZM27.6175 15.5262C27.6175 16.8404 26.5696 17.9072 25.2767 17.9072C23.9825 17.9072 22.9346 16.8404 22.9346 15.525C22.9346 14.2094 23.9838 13.144 25.2767 13.144C26.5696 13.144 27.6175 14.2107 27.6175 15.5262ZM20.9495 15.5262C20.9495 16.8404 19.9016 17.9072 18.6087 17.9072C17.3145 17.9072 16.2679 16.8404 16.2679 15.525C16.2679 14.2094 17.3158 13.144 18.6087 13.144C19.9016 13.144 20.9495 14.2107 20.9495 15.5262Z" fill="url(#paint1_linear_859_1430)"/>
<defs>
<linearGradient id="paint0_linear_859_1430" x1="84.1542" y1="0.613554" x2="84.1542" y2="19.0301" gradientUnits="userSpaceOnUse">
<stop stop-color="white"/>
<stop offset="1" stop-color="white" stop-opacity="0.6"/>
</linearGradient>
<linearGradient id="paint1_linear_859_1430" x1="84.1564" y1="0.613282" x2="84.1564" y2="19.0298" gradientUnits="userSpaceOnUse">
<stop stop-color="white"/>
<stop offset="1" stop-color="white" stop-opacity="0.6"/>
</linearGradient>
</defs>
</svg>
