<svg width="111" height="38" viewBox="0 0 111 38" fill="none" xmlns="http://www.w3.org/2000/svg">
<path d="M19.8945 0.0126953C24.521 0.126245 28.9351 1.9789 32.2559 5.20215C35.2027 7.9693 37.1842 11.6091 37.9092 15.5859C38.1824 16.9255 38.2924 18.2932 38.2373 19.6592C38.1535 21.3066 37.8613 22.9369 37.3672 24.5107C37.3182 24.6478 37.2795 24.7888 37.252 24.9316C37.1959 25.3192 36.9098 25.634 36.5293 25.7266C36.0782 25.8956 35.581 25.8956 35.1299 25.7266C34.9523 25.6671 34.7936 25.5615 34.6699 25.4209C33.6717 24.2335 32.2518 23.4796 30.709 23.3184C27.457 22.9209 25.0322 25.0697 24.1387 26.9717C23.0467 29.3064 23.4542 32.0673 25.1738 33.9873C26.1221 35.0908 27.4272 35.8275 28.8623 36.0674C30.4788 36.3867 32.1555 36.0222 33.4941 35.0615C33.7054 34.9003 33.9741 34.8331 34.2363 34.876C34.4984 34.9189 34.731 35.0682 34.8799 35.2881C35.1399 35.7251 35.0079 36.29 34.5811 36.5664C33.3592 37.429 31.9143 37.921 30.4199 37.9824C28.8931 38.0852 27.3704 37.725 26.0508 36.9502C25.9206 36.8663 25.7572 36.8511 25.6133 36.9082C24.3197 37.3708 22.9793 37.6899 21.6162 37.8604C20.556 37.9889 19.4863 38.0245 18.4199 37.9658C13.8234 37.7351 9.46015 35.8712 6.11523 32.71C3.28501 30.0458 1.36381 26.5588 0.623047 22.7432C0.381674 21.512 0.25891 20.2605 0.257812 19.0059C0.356358 14.0786 1.96266 9.69928 5.34277 6.0498C8.0186 3.1641 11.5341 1.19234 15.3916 0.413086C16.8696 0.0899233 18.3827 -0.0444109 19.8945 0.0126953ZM68.1016 25.4189C68.5016 25.3985 68.867 25.6449 68.998 26.0234L71.5996 32.3398L74.2012 26.0234C74.3322 25.6449 74.6977 25.3985 75.0977 25.4189H75.3604C75.9483 25.4189 76.1981 25.7899 75.9648 26.3154L71.5371 36.5508C71.4184 36.8837 71.1167 37.1099 70.7734 37.1387H70.3281C69.7732 37.1549 69.5403 36.7675 69.7734 36.2256L70.6699 34.2119L67.2344 26.3154C67.0012 25.7899 67.2341 25.4189 67.8057 25.4189H68.1016ZM30.8066 6.48047C26.7663 2.74242 21.9574 1.3164 16.5342 2.14746C12.7359 2.72421 9.254 4.59745 6.67969 7.44922C3.50002 10.8753 2.05802 14.942 2.19922 19.5801C2.32263 23.8864 4.08545 27.9831 7.12695 31.0342C10.4741 34.3715 14.5502 35.9815 19.2539 36.0801V36.0869C20.7439 36.0838 22.2278 35.8903 23.6689 35.5117C23.958 35.4362 23.9676 35.4037 23.7705 35.1836C23.2467 34.5777 22.8112 33.9005 22.4766 33.1729C21.6948 31.4319 21.3603 29.6253 21.8398 27.7432C22.3889 25.4457 23.8873 23.4891 25.9629 22.3613C28.0384 21.2337 30.4955 21.0406 32.7217 21.8301C33.6923 22.1659 34.5903 22.6845 35.3662 23.3574C35.6486 23.607 35.6626 23.6011 35.7578 23.2236L35.876 22.7539C36.1745 21.5453 36.3353 20.3063 36.3555 19.0615C36.3625 18.1635 36.2818 17.2663 36.1152 16.3838C35.5158 12.5776 33.6444 9.08692 30.8066 6.48047ZM78.3887 22.5273C78.6005 22.5042 78.8122 22.5778 78.9629 22.7285C79.1136 22.8792 79.1872 23.0909 79.1641 23.3027V27.1357C79.6567 25.9303 80.8984 25.2472 82.291 25.2471C84.4721 25.2471 86.3613 26.7974 86.3613 29.8457C86.3613 32.894 84.4727 34.4746 82.3047 34.4746C80.9119 34.4746 79.6568 33.7774 79.1641 32.585V33.4854C79.1872 33.6971 79.1134 33.9079 78.9629 34.0586C78.8122 34.2093 78.6005 34.2839 78.3887 34.2607H78.2021C77.9909 34.2828 77.7808 34.2081 77.6309 34.0576C77.4809 33.9071 77.4067 33.6966 77.4297 33.4854V23.3027C77.4067 23.0915 77.4809 22.881 77.6309 22.7305C77.7808 22.5799 77.9908 22.5052 78.2021 22.5273H78.3887ZM61.1768 22.9229C63.0031 22.9229 65.0005 23.7277 65.8809 25.958C66.0843 26.4703 65.8209 26.825 65.3086 26.917L65.0625 26.9629C64.583 27.0581 64.3494 26.8548 64.1162 26.4082C63.5877 25.268 62.433 24.5497 61.1768 24.5811C59.1172 24.5811 57.7373 26.1581 57.7373 28.6973C57.7373 31.2365 59.0843 32.7871 61.1768 32.7871C62.4589 32.816 63.6295 32.0615 64.1328 30.8818C64.3496 30.4318 64.613 30.2247 65.0762 30.3232L65.3223 30.3691C65.8346 30.4645 66.0673 30.9114 65.7881 31.5781C64.8913 33.6836 62.9405 34.459 61.1602 34.459C58.4961 34.459 55.8945 32.7869 55.8945 28.6973C55.8946 24.7194 58.4963 22.9229 61.1768 22.9229ZM92.2549 25.248C94.8234 25.2482 96.4657 26.9655 96.5742 29.5176C96.6027 29.7306 96.5299 29.9447 96.3779 30.0967C96.2259 30.2487 96.0119 30.3215 95.7988 30.293H89.5049C89.5673 32.0109 90.6352 32.9863 92.3564 32.9863C93.1339 33.0344 93.8982 32.7669 94.4756 32.2441C94.8039 31.9486 95.034 31.7022 95.4609 31.8105L95.6475 31.8564C96.1893 31.9944 96.3049 32.2902 96.0029 32.7236C95.2278 33.87 93.976 34.4413 92.3174 34.4414C89.5746 34.4447 87.7775 32.6189 87.7773 29.8467C87.7773 27.1235 89.6073 25.248 92.2549 25.248ZM102.339 25.3105C102.557 25.2902 102.772 25.3767 102.915 25.543C103.058 25.7094 103.112 25.9356 103.059 26.1484L103.042 26.2695C102.996 26.7654 102.713 26.953 102.191 26.9531C100.736 26.9827 100.039 28.0369 100.039 29.9092V33.5225C100.062 33.7341 99.9883 33.945 99.8379 34.0957C99.6872 34.2464 99.4755 34.321 99.2637 34.2979H99.0801C98.8682 34.321 98.6575 34.2464 98.5068 34.0957C98.3562 33.945 98.2815 33.7342 98.3047 33.5225V26.1943C98.2815 25.9825 98.3562 25.7718 98.5068 25.6211C98.6575 25.4704 98.8682 25.3958 99.0801 25.4189H99.2637C99.4706 25.3911 99.6792 25.4592 99.8301 25.6035C99.9809 25.748 100.058 25.9532 100.039 26.1611V26.9072C100.363 25.921 101.302 25.2691 102.339 25.3105ZM81.8574 26.7188C80.2021 26.719 79.1153 27.8947 79.1152 29.8457C79.1152 31.7969 80.2321 32.9893 81.8877 32.9893C83.5431 32.9891 84.627 31.7968 84.627 29.8457C84.6269 27.911 83.513 26.7188 81.8574 26.7188ZM92.2842 26.6436C90.7994 26.6436 89.7613 27.4159 89.5576 28.9434H94.9316C94.8068 27.5342 93.8478 26.6436 92.2842 26.6436ZM53.1621 6.47363C55.9641 6.47363 58.4414 8.22115 58.4414 12.2188L58.4365 12.5234C58.336 15.6537 56.6951 17.297 54.6172 17.7998L55.3633 18.9463C55.7968 19.6031 55.9052 19.8886 55.0547 19.8887H54.4961C54.1096 19.9337 53.7355 19.7366 53.5537 19.3926L52.8701 17.9707C50.1765 17.8689 47.8672 16.1606 47.8672 12.2188C47.8672 8.22127 50.3603 6.47374 53.1621 6.47363ZM74.5947 8.77539C76.8547 8.77539 79.0859 10.1845 79.0859 13.374C79.0859 16.5636 76.8547 18.0029 74.5947 18.0029C72.3349 18.0028 70.1211 16.593 70.1211 13.374C70.1212 10.1847 72.3349 8.77553 74.5947 8.77539ZM67.5244 8.94629C67.7362 8.92316 67.947 8.99776 68.0977 9.14844C68.2483 9.29911 68.3229 9.50986 68.2998 9.72168V17.0273C68.3229 17.2392 68.2483 17.4499 68.0977 17.6006C67.947 17.7513 67.7362 17.8259 67.5244 17.8027H67.3408C67.129 17.8259 66.9173 17.7513 66.7666 17.6006C66.6161 17.4499 66.5423 17.2391 66.5654 17.0273V16.1465C66.1614 17.1746 65.1557 17.957 63.6709 17.957C61.224 17.9569 60.0938 16.5477 60.0938 13.7461V9.72168C60.0708 9.51049 60.145 9.29995 60.2949 9.14941C60.4448 8.99902 60.655 8.9242 60.8662 8.94629H61.0527C61.2646 8.92311 61.4762 8.99773 61.627 9.14844C61.7775 9.29911 61.8513 9.50995 61.8281 9.72168V13.6074C61.8281 15.5421 62.5707 16.4589 64.2129 16.459C65.8553 16.459 66.5684 15.3584 66.5684 13.4072V9.72168C66.5452 9.50985 66.6198 9.29912 66.7705 9.14844C66.9212 8.9978 67.1319 8.92312 67.3438 8.94629H67.5244ZM94.0586 8.94629C94.2698 8.9242 94.48 8.99902 94.6299 9.14941C94.7798 9.29995 94.854 9.51049 94.8311 9.72168V17.0273C94.854 17.2385 94.7798 17.4491 94.6299 17.5996C94.48 17.75 94.2698 17.8248 94.0586 17.8027H93.8721C93.6602 17.8259 93.4485 17.7513 93.2979 17.6006C93.1473 17.4499 93.0735 17.2391 93.0967 17.0273V16.1465C92.6959 17.1746 91.6902 17.957 90.2021 17.957C87.7553 17.9569 86.6251 16.5477 86.625 13.7461V9.72168C86.6019 9.50986 86.6765 9.29911 86.8271 9.14844C86.9778 8.99777 87.1886 8.92316 87.4004 8.94629H87.5879C87.7991 8.92426 88.0093 8.99892 88.1592 9.14941C88.3091 9.29996 88.3823 9.51047 88.3594 9.72168V13.6074C88.3594 15.5421 89.1019 16.4559 90.7441 16.4561C92.3865 16.4561 93.0966 15.3554 93.0967 13.4043V9.72168C93.0735 9.50995 93.1473 9.29911 93.2979 9.14844C93.4485 8.99773 93.6602 8.92311 93.8721 8.94629H94.0586ZM84.832 8.83887C85.0519 8.81419 85.27 8.89825 85.416 9.06445C85.562 9.23071 85.6173 9.45804 85.5645 9.67285V9.79785C85.5152 10.2937 85.2362 10.4813 84.7109 10.4814C83.2557 10.511 82.5586 11.5651 82.5586 13.4375V17.0508C82.5816 17.262 82.5083 17.4725 82.3584 17.623C82.2085 17.7736 81.9984 17.8482 81.7871 17.8262H81.5996C81.3878 17.8493 81.177 17.7747 81.0264 17.624C80.8757 17.4733 80.801 17.2626 80.8242 17.0508V9.72266C80.801 9.51079 80.8757 9.29914 81.0264 9.14844C81.177 8.99794 81.3879 8.92413 81.5996 8.94727H81.7871C81.9934 8.9206 82.2006 8.98875 82.3506 9.13281C82.5007 9.27715 82.5773 9.48207 82.5586 9.68945V10.4316C82.864 9.50912 83.7074 8.88036 84.665 8.83887H84.832ZM107.34 8.77539C109.559 8.77943 110.486 10.0941 110.486 13.2949V17.0273C110.509 17.2384 110.435 17.4482 110.285 17.5986C110.135 17.7491 109.926 17.8237 109.715 17.8018H109.527C109.316 17.8249 109.105 17.7511 108.954 17.6006C108.803 17.45 108.729 17.2391 108.752 17.0273V13.4365C108.752 11.1766 108.164 10.2764 106.695 10.2764C105.227 10.2765 104.541 11.2062 104.541 13.4033V17.0166C104.564 17.2278 104.49 17.4383 104.34 17.5889C104.19 17.7394 103.98 17.8141 103.769 17.792H103.582C103.37 17.8152 103.159 17.7415 103.008 17.5908C102.857 17.4401 102.783 17.2285 102.807 17.0166V13.4531C102.807 11.1307 102.28 10.293 100.835 10.293C99.3341 10.2932 98.6836 11.2987 98.6836 13.5781V17.0273C98.7066 17.239 98.633 17.45 98.4824 17.6006C98.3317 17.7513 98.1201 17.8249 97.9082 17.8018H97.7217C97.5104 17.8239 97.3003 17.7492 97.1504 17.5986C97.0006 17.4482 96.9264 17.2384 96.9492 17.0273V9.72168C96.9262 9.51045 97.0005 9.29998 97.1504 9.14941C97.3003 8.99891 97.5104 8.92419 97.7217 8.94629H97.9082C98.1237 8.91539 98.3418 8.98603 98.498 9.1377C98.6543 9.28942 98.7316 9.5053 98.707 9.72168V10.6182C99.106 9.48363 100.199 8.74268 101.4 8.79199C102.885 8.79199 103.614 9.35031 104.094 10.8975C104.51 9.70654 105.684 8.77769 107.34 8.77539ZM74.5918 10.2471C72.9494 10.2471 71.8526 11.4229 71.8525 13.374C71.8525 15.3252 72.9495 16.5176 74.6084 16.5176C76.2671 16.5175 77.3477 15.3251 77.3477 13.374C77.3476 11.4393 76.2342 10.2471 74.5918 10.2471ZM53.1621 8.09668C51.0435 8.09681 49.6309 9.61432 49.6309 12.2158C49.6309 14.8173 50.9455 16.3477 53.1299 16.3477C55.314 16.3475 56.661 14.8631 56.6611 12.2158H56.6445C56.6445 9.62736 55.2808 8.09668 53.1621 8.09668Z" fill="url(#paint0_linear_32727_80803)"/>
<defs>
<linearGradient id="paint0_linear_32727_80803" x1="102.825" y1="5.50633e-08" x2="102.825" y2="26.3557" gradientUnits="userSpaceOnUse">
<stop stop-color="white"/>
<stop offset="1" stop-color="white" stop-opacity="0.6"/>
</linearGradient>
</defs>
</svg>
