<svg width="148" height="36" viewBox="0 0 148 36" fill="none" xmlns="http://www.w3.org/2000/svg">
<path d="M17.7217 5.34033C18.2796 5.1377 18.8956 5.16458 19.4336 5.41553C19.9718 5.66676 20.3888 6.122 20.5918 6.68018C20.6353 6.80003 20.6678 6.92367 20.6895 7.04932C27.5696 5.56313 34.8059 9.16814 37.2803 15.9771C39.986 23.409 36.39 31.8204 28.9492 34.522C22.1893 36.9827 14.4283 34.0052 11.1172 27.8462C11.0014 27.914 10.8786 27.9706 10.752 28.0151C10.1937 28.2181 9.57733 28.1911 9.03906 27.9399C8.50079 27.6887 8.08484 27.2335 7.88184 26.6753C7.67889 26.117 7.70584 25.5007 7.95703 24.9624C8.20829 24.4246 8.66283 24.0081 9.2207 23.8052C9.3585 23.7578 9.5003 23.7204 9.64355 23.6938C10.2742 23.3662 10.7646 22.82 11.0225 22.1577C11.2803 21.4953 11.289 20.7612 11.0459 20.0933C10.7969 19.4061 10.2933 18.8402 9.63965 18.5132C9.16839 18.3363 8.74054 18.0597 8.38574 17.7026C8.031 17.3455 7.75684 16.9162 7.58301 16.4438C7.33858 15.7826 7.30087 15.0626 7.47461 14.3794C7.64842 13.6961 8.02594 13.0818 8.55664 12.6177C9.08736 12.1537 9.74699 11.8609 10.4473 11.7798C11.1473 11.6988 11.856 11.8323 12.4785 12.1626C12.5731 12.2023 12.6635 12.2532 12.7461 12.314C13.2255 12.6345 13.7938 12.7956 14.3701 12.7739C14.9464 12.7521 15.5012 12.5486 15.9551 12.1929C16.4089 11.8371 16.7396 11.3469 16.8984 10.7925C17.0571 10.2381 17.0365 9.64703 16.8398 9.10498C16.8053 9.00806 16.765 8.9132 16.7197 8.8208C16.5938 8.62515 16.4812 8.42083 16.3818 8.21045C16.179 7.65234 16.206 7.03668 16.457 6.49854C16.7083 5.96037 17.1635 5.54331 17.7217 5.34033ZM98.7148 29.979C99.5737 29.979 100.117 30.4733 100.117 31.7993C100.117 33.1255 99.3958 33.6421 98.6348 33.6421C98.4056 33.646 98.1781 33.602 97.9668 33.5132C97.7553 33.4243 97.5648 33.2921 97.4072 33.1255V34.7856H96.7344V30.0327L97.416 30.0679V30.5132C97.7763 30.1937 98.234 30.0051 98.7148 29.979ZM142.262 29.979C143.254 29.979 143.811 30.5936 143.833 31.6929C143.835 31.7956 143.828 31.8982 143.811 31.9995H141.189C141.252 32.8004 141.675 33.1077 142.262 33.1079C142.727 33.1055 143.178 32.9439 143.539 32.6499L143.562 32.6763L143.811 33.1216C143.379 33.4933 142.822 33.6875 142.253 33.6646C141.287 33.6644 140.566 33.1207 140.566 31.8569C140.567 30.5935 141.27 29.9792 142.262 29.979ZM63.2637 29.9927C64.2515 29.9927 64.5674 30.4382 64.5674 31.4751V33.5933H63.8955V33.1479C63.5639 33.4624 63.1286 33.6444 62.6719 33.6597C61.8798 33.6597 61.4747 33.3528 61.4746 32.5874C61.4746 31.8219 61.9642 31.4565 62.9521 31.4565H63.8955C63.8955 30.7715 63.7529 30.5669 63.1523 30.5669C62.7415 30.5805 62.3335 30.6429 61.9375 30.7534L61.9414 30.7808L61.8262 30.2329C62.292 30.0872 62.7758 30.0064 63.2637 29.9927ZM43.8193 28.938C44.387 28.9452 44.9482 29.0628 45.4707 29.2847L45.2617 29.8374C44.8019 29.6399 44.307 29.5369 43.8066 29.5347C43.3262 29.5347 43.0588 29.8145 43.0586 30.0903C43.0586 30.6288 43.4372 30.6961 44.2783 30.981C45.1193 31.2657 45.6133 31.5149 45.6133 32.3159C45.6132 33.2057 44.9414 33.6507 44.1406 33.6509C43.436 33.6219 42.7476 33.427 42.1328 33.0815L42.4043 32.5425C42.9339 32.8163 43.5146 32.9787 44.1094 33.019C44.5898 33.0189 44.9013 32.8186 44.9014 32.436C44.9014 31.942 44.6473 31.7863 43.6904 31.5015C42.9652 31.2834 42.3556 31.0563 42.3555 30.1665C42.3555 29.4412 42.9161 28.9381 43.8193 28.938ZM88.0967 29.979C89.0757 29.979 89.6457 30.5937 89.668 31.6929C89.6704 31.7955 89.6627 31.8983 89.6455 31.9995H87.0283C87.0862 32.8006 87.5137 33.1079 88.0967 33.1079C88.5636 33.1061 89.0158 32.9445 89.3779 32.6499L89.4004 32.6626L89.6455 33.1079C89.2151 33.4817 88.6574 33.6761 88.0879 33.6509C87.1222 33.6509 86.4053 33.108 86.4053 31.8442C86.4053 30.5803 87.1176 29.979 88.0967 29.979ZM94.0469 29.979C94.5179 30.0022 94.9619 30.2059 95.2871 30.5474C95.6124 30.8891 95.7939 31.3432 95.7939 31.8149C95.7939 32.2868 95.6124 32.7408 95.2871 33.0825C94.9619 33.424 94.5179 33.6276 94.0469 33.6509C93.8067 33.6642 93.5661 33.6265 93.3418 33.5396C93.1174 33.4525 92.9136 33.3179 92.7451 33.146C92.5767 32.9742 92.4468 32.7685 92.3643 32.5425C92.2817 32.3165 92.2485 32.0754 92.2666 31.8354C92.2469 31.5933 92.279 31.3495 92.3604 31.1206C92.4418 30.8916 92.571 30.6818 92.7393 30.5063C92.9074 30.3312 93.1108 30.1939 93.3359 30.103C93.5614 30.0121 93.804 29.9694 94.0469 29.979ZM145.942 29.9751C146.402 29.9832 146.855 30.0844 147.273 30.2729L147.296 30.2866L147.117 30.7935C146.751 30.6359 146.362 30.5402 145.965 30.5093C145.582 30.5093 145.373 30.669 145.373 30.9536C145.373 31.2384 145.694 31.3189 146.161 31.4702C147.02 31.7461 147.402 31.9154 147.402 32.6362C147.402 33.2681 146.909 33.6508 146.13 33.6509C145.572 33.6496 145.028 33.4682 144.581 33.1343L144.83 32.6499C145.182 32.9429 145.627 33.1001 146.085 33.0942C146.476 33.0942 146.734 32.9479 146.734 32.6499C146.734 32.2049 146.428 32.2049 145.765 31.978C145.102 31.7511 144.71 31.5326 144.71 30.981C144.71 30.3357 145.155 29.9752 145.942 29.9751ZM69.9883 29.979C70.9672 29.9791 71.5363 30.5937 71.5586 31.6929C71.561 31.7955 71.5543 31.8983 71.5371 31.9995H68.915C68.9773 32.8006 69.4053 33.1079 69.9883 33.1079C70.454 33.1069 70.9055 32.9453 71.2656 32.6499L71.5146 33.0942C71.0842 33.468 70.5266 33.6624 69.957 33.6372C68.9913 33.6372 68.2744 33.0945 68.2744 31.8306C68.2745 30.5667 69.0092 29.979 69.9883 29.979ZM80.2998 29.979C81.2965 29.9791 81.8479 30.5937 81.8701 31.6929C81.8726 31.7955 81.8658 31.8983 81.8486 31.9995H79.2266C79.2889 32.8006 79.7124 33.1079 80.2998 33.1079C80.7608 33.1031 81.2066 32.9417 81.5635 32.6499H81.5771L81.8262 33.0942C81.3946 33.4661 80.8377 33.6601 80.2686 33.6372C79.3028 33.6372 78.5859 33.0945 78.5859 31.8306C78.586 30.5667 79.303 29.979 80.2998 29.979ZM109.014 29.979C109.993 29.9791 110.562 30.5937 110.584 31.6929C110.586 31.7955 110.58 31.8983 110.562 31.9995H107.94C108.003 32.8006 108.431 33.1079 109.014 33.1079C109.479 33.1061 109.931 32.9447 110.291 32.6499L110.54 33.0942C110.11 33.468 109.552 33.6624 108.982 33.6372C108.017 33.6372 107.3 33.0945 107.3 31.8306C107.3 30.5667 108.035 29.979 109.014 29.979ZM125.528 29.979C126.507 29.979 127.077 30.5936 127.1 31.6929C127.102 31.7956 127.094 31.8982 127.077 31.9995H124.456C124.518 32.8004 124.946 33.1078 125.528 33.1079C125.994 33.1062 126.445 32.9445 126.806 32.6499L127.056 33.0942C126.625 33.468 126.067 33.6623 125.498 33.6372C124.532 33.6372 123.815 33.0945 123.815 31.8306C123.815 30.5669 124.549 29.9792 125.528 29.979ZM138.511 29.979C138.962 29.9801 139.405 30.0983 139.797 30.3218L139.565 30.7671C139.238 30.6144 138.881 30.5354 138.52 30.5356C137.87 30.5356 137.434 31.0519 137.434 31.8218C137.434 32.5917 137.852 33.059 138.497 33.0591C138.925 33.0672 139.343 32.9325 139.686 32.6763H139.708L139.957 33.1216C139.532 33.4802 138.986 33.6631 138.431 33.6333C137.447 33.6333 136.788 32.9028 136.788 31.8169C136.77 31.5807 136.801 31.3432 136.879 31.1196C136.957 30.896 137.082 30.691 137.244 30.5181C137.406 30.3452 137.602 30.2075 137.82 30.1147C138.038 30.022 138.274 29.9758 138.511 29.979ZM77.6289 33.5708L76.9443 33.5532V33.0942C76.7902 33.2676 76.5995 33.4053 76.3867 33.4976C76.1738 33.5898 75.9429 33.6345 75.7109 33.6284C74.9456 33.6283 74.2295 33.1118 74.2295 31.7769C74.2296 30.4421 74.7856 29.979 75.6133 29.979C76.1096 29.9738 76.5884 30.1625 76.9482 30.5044V28.6753H77.6289V33.5708ZM54.2246 30.0327H55.2754V30.6021H54.2207V32.3823C54.2207 32.8628 54.3982 32.9702 54.8252 32.9702C55.0008 32.9757 55.1769 32.9651 55.3506 32.939L55.3555 32.9653L55.4307 33.4595C55.1675 33.5605 54.8892 33.6166 54.6074 33.6245C53.8598 33.6245 53.5527 33.2722 53.5527 32.4399V30.6021H53.0186V30.0327H53.5527V29.1431H54.2246V30.0327ZM121.652 29.9526C122.106 29.97 122.552 30.0777 122.964 30.27L122.787 30.7622C122.421 30.6046 122.032 30.5089 121.635 30.478C121.257 30.478 121.047 30.6378 121.047 30.9224C121.047 31.2071 121.367 31.2877 121.83 31.439C122.693 31.7149 123.072 31.8841 123.072 32.605C123.072 33.2368 122.578 33.6195 121.8 33.6196C121.242 33.6174 120.699 33.4361 120.251 33.103L120.535 32.6274C120.889 32.9198 121.336 33.0778 121.795 33.0728C122.182 33.0727 122.444 32.9255 122.444 32.6274C122.444 32.1824 122.137 32.1825 121.47 31.9556C120.802 31.7286 120.415 31.5102 120.415 30.9585C120.415 30.3132 120.86 29.9527 121.652 29.9526ZM57.2646 32.3911C57.3092 32.5647 57.3448 32.7168 57.376 32.8726C57.4116 32.7301 57.4515 32.5736 57.5049 32.3911L58.168 30.0327H58.8135L59.4717 32.3911C59.5162 32.5513 59.5522 32.7168 59.5967 32.8726C59.6278 32.7301 59.6678 32.578 59.7168 32.3911L60.4912 30.0327H61.1631L60.041 33.5933H59.2178L58.4922 31.1499L57.7891 33.5659H56.957L55.8359 30.0327H56.4854L57.2646 32.3911ZM67.4512 29.979C67.5998 29.9772 67.7487 29.9849 67.8965 30.0015L67.8516 30.6646H67.4072C67.1602 30.6751 66.9236 30.7688 66.7363 30.9302C66.549 31.0917 66.4209 31.3123 66.374 31.5552V33.5884H65.7021V30.0327L66.4014 30.0591V30.7495C66.4794 30.5311 66.6206 30.3408 66.8076 30.2036C66.9948 30.0664 67.2192 29.9877 67.4512 29.979ZM102.93 29.979C103.155 29.9511 103.382 30.0047 103.571 30.1294C103.761 30.2542 103.899 30.4428 103.962 30.6606C104.116 30.4604 104.312 30.2958 104.535 30.1782C104.759 30.0607 105.005 29.9923 105.257 29.979C106.005 29.979 106.379 30.4247 106.379 31.3638V33.5884H105.707V31.5239C105.707 30.8964 105.6 30.6021 105.142 30.6021C104.93 30.6283 104.725 30.6973 104.54 30.8042C104.355 30.9112 104.193 31.0544 104.064 31.2251V33.5659H103.393V31.5239C103.393 30.8964 103.272 30.6021 102.818 30.6021C102.605 30.6252 102.398 30.693 102.212 30.8003C102.026 30.9075 101.864 31.0522 101.737 31.2251V33.5659H101.065V30.0327L101.746 30.0679V30.5581C101.895 30.3883 102.077 30.2492 102.28 30.1499C102.483 30.0507 102.704 29.9925 102.93 29.979ZM113.508 29.979C114.309 29.979 114.684 30.4247 114.684 31.3638V33.5884H114.011V31.5239C114.011 30.8787 113.922 30.6021 113.384 30.6021C113.155 30.6148 112.931 30.6782 112.729 30.7866C112.526 30.895 112.35 31.0464 112.213 31.23V33.5659H111.541V30.0327L112.213 30.019V30.5356C112.555 30.1876 113.02 29.9875 113.508 29.979ZM129.788 29.979C129.937 29.9771 130.085 29.9847 130.232 30.0015L130.188 30.6646H129.743C129.496 30.6757 129.259 30.7698 129.071 30.9312C128.883 31.0925 128.755 31.3123 128.706 31.5552V33.5884H128.034V30.0327L128.729 30.019V30.7095C128.814 30.4973 128.96 30.3148 129.148 30.1851C129.337 30.0553 129.559 29.9834 129.788 29.979ZM116.664 30.0327H117.683V30.6021H116.637V32.3823C116.637 32.863 116.815 32.9702 117.242 32.9702C117.421 32.9762 117.6 32.9657 117.776 32.939V32.9253L117.852 33.4194C117.588 33.52 117.31 33.5761 117.028 33.5845C116.281 33.5844 115.974 33.2321 115.974 32.3999V30.6021H115.458V30.0327H115.991V29.1431H116.664V30.0327ZM52.0576 28.5327C52.2895 28.5274 52.5212 28.5514 52.7471 28.604L52.752 28.6313L52.707 29.1118H52.1816C51.7058 29.1119 51.5635 29.3341 51.5635 29.7788V30.0552H52.6494V30.6021H51.5498V33.5659H50.874V30.6021H50.3838V30.0327H50.874V29.7563C50.8742 28.9333 51.2211 28.5327 52.0576 28.5327ZM91.3369 33.5659H90.6641V28.6714H91.3369V33.5659ZM135.787 33.5659H135.115V30.0327H135.787V33.5659ZM83.9443 32.2896C84.0154 32.4674 84.0686 32.663 84.1309 32.8452C84.1799 32.6553 84.2441 32.4695 84.3223 32.2896L85.3193 30.019H86.0098L84.5049 33.5532H83.7529L82.2529 30.019H82.9385L83.9443 32.2896ZM132.307 32.2896C132.382 32.4674 132.435 32.663 132.493 32.8452C132.544 32.6551 132.61 32.4694 132.689 32.2896L133.687 30.019H134.372L132.867 33.5532H132.12L130.615 30.019H131.306L132.307 32.2896ZM48.0078 29.9663C48.2505 29.9567 48.4925 29.9985 48.7178 30.0894C48.9432 30.1803 49.1472 30.3182 49.3154 30.4937C49.4836 30.669 49.6129 30.8781 49.6943 31.1069C49.7757 31.3359 49.8078 31.5796 49.7881 31.8218C49.7733 32.1703 49.6556 32.5069 49.4512 32.7896C49.2468 33.072 48.9639 33.2885 48.6377 33.4116C48.3115 33.5347 47.9563 33.5589 47.6162 33.4819C47.276 33.4049 46.966 33.2297 46.7246 32.978C46.4833 32.7264 46.3206 32.4098 46.2578 32.0669C46.195 31.7238 46.2344 31.3692 46.3711 31.0483C46.5077 30.7276 46.7356 30.4537 47.0264 30.2612C47.3172 30.0688 47.659 29.9666 48.0078 29.9663ZM63.0322 31.9468C62.4047 31.9468 62.0977 32.0666 62.0977 32.5249C62.0977 32.9832 62.36 33.1616 62.8672 33.1616C63.066 33.1456 63.2599 33.0891 63.4365 32.9966C63.613 32.9041 63.7693 32.7768 63.8955 32.6226V31.9468H63.0322ZM75.8486 30.5356C75.2881 30.5358 74.9014 30.8568 74.9014 31.7866C74.9015 32.7164 75.3596 33.0942 75.8936 33.0942C76.102 33.0765 76.3038 33.012 76.4834 32.9048C76.663 32.7976 76.816 32.651 76.9307 32.4761L76.9443 32.4624V31.1274C76.8184 30.9528 76.6542 30.809 76.4648 30.7065C76.2752 30.604 76.0639 30.5453 75.8486 30.5356ZM94.0557 30.5806C93.3882 30.5806 92.9387 31.0873 92.9385 31.8569C92.9263 32.0091 92.9456 32.1627 92.9951 32.3071C93.0447 32.4517 93.1234 32.585 93.2266 32.6978C93.3297 32.8104 93.4552 32.9002 93.5947 32.9624C93.7343 33.0246 93.8853 33.0577 94.0381 33.0591L94.0469 33.0942C94.2044 33.0958 94.3605 33.0645 94.5049 33.0015C94.6494 32.9382 94.7798 32.8449 94.8857 32.728C94.9916 32.6112 95.0714 32.4727 95.1201 32.3228C95.1688 32.1728 95.1849 32.0137 95.168 31.8569C95.1678 31.0873 94.7231 30.5806 94.0557 30.5806ZM98.582 30.5581C98.1325 30.5923 97.7125 30.7958 97.4072 31.1274L97.416 31.1636V32.4985C97.5461 32.6703 97.711 32.8128 97.9004 32.9155C98.0899 33.0183 98.2996 33.0789 98.5146 33.0942C99.0442 33.0942 99.4492 32.7515 99.4492 31.8169C99.4491 30.8829 99.1425 30.5582 98.582 30.5581ZM48.0293 30.5444C47.3576 30.5447 46.917 31.0521 46.917 31.8218C46.8996 31.9758 46.9146 32.1319 46.9609 32.2798C47.0073 32.4275 47.0844 32.5638 47.1865 32.6802C47.2887 32.7966 47.4142 32.8904 47.5547 32.9556C47.6953 33.0207 47.848 33.0563 48.0029 33.0591L48.0078 33.0815C48.169 33.086 48.3292 33.055 48.4775 32.9917C48.6259 32.9283 48.759 32.8339 48.8672 32.7144C48.9755 32.5947 49.0562 32.4524 49.1045 32.2983C49.1527 32.1443 49.1671 31.9818 49.1465 31.8218C49.1465 31.0519 48.7013 30.5444 48.0293 30.5444ZM142.284 30.5269C142.151 30.5147 142.017 30.5298 141.89 30.5708C141.762 30.6119 141.645 30.6784 141.544 30.7661C141.443 30.8538 141.36 30.9604 141.302 31.0806C141.243 31.2007 141.21 31.3319 141.203 31.4653L141.226 31.479H143.255C143.264 31.35 143.246 31.2202 143.2 31.0991C143.155 30.978 143.083 30.8685 142.99 30.7778C142.898 30.6872 142.787 30.618 142.665 30.5747C142.543 30.5314 142.413 30.5149 142.284 30.5269ZM80.2998 30.5132C80.1663 30.5016 80.0315 30.5178 79.9043 30.5601C79.7772 30.6023 79.6596 30.6701 79.5596 30.7593C79.4597 30.8484 79.3787 30.9572 79.3223 31.0786C79.2659 31.1999 79.2352 31.3316 79.2314 31.4653L79.2451 31.4526H81.2695C81.2771 31.3246 81.2574 31.1961 81.2109 31.0767C81.1644 30.9572 81.0921 30.8494 81 30.7603C80.9079 30.6711 80.7977 30.6026 80.6768 30.5601C80.5559 30.5175 80.4273 30.5015 80.2998 30.5132ZM88.1191 30.5132C87.9851 30.501 87.8496 30.5162 87.7217 30.5581C87.5938 30.6 87.4759 30.6681 87.375 30.7573C87.2742 30.8465 87.192 30.9549 87.1348 31.0767C87.0776 31.1984 87.0463 31.3309 87.042 31.4653H89.0938C89.0996 31.337 89.0783 31.2089 89.0312 31.0894C88.9841 30.9696 88.9114 30.8609 88.8193 30.771C88.7274 30.6812 88.6177 30.6113 88.4971 30.5669C88.3764 30.5225 88.2474 30.5043 88.1191 30.5132ZM69.9795 30.5005C69.8468 30.4927 69.713 30.5114 69.5879 30.5562C69.463 30.6009 69.3484 30.6703 69.251 30.7603C69.1534 30.8503 69.0751 30.9595 69.0205 31.0806C68.9678 31.1978 68.9389 31.3243 68.9346 31.4526H70.9541C70.9594 31.3243 70.9371 31.1961 70.8896 31.0767C70.8423 30.9573 70.7705 30.849 70.6787 30.7593C70.5868 30.6695 70.4769 30.5998 70.3564 30.5552C70.2361 30.5106 70.1076 30.4923 69.9795 30.5005ZM109.014 30.5005C108.88 30.4914 108.746 30.5091 108.62 30.5532C108.494 30.5974 108.378 30.667 108.279 30.7573C108.181 30.8476 108.101 30.9568 108.046 31.0786C107.993 31.1964 107.964 31.3236 107.96 31.4526H109.983C109.993 31.3236 109.974 31.1939 109.929 31.0728C109.883 30.9518 109.812 30.8421 109.72 30.7515C109.627 30.6609 109.516 30.5907 109.395 30.5474C109.273 30.504 109.142 30.4885 109.014 30.5005ZM125.528 30.5005C125.395 30.4915 125.262 30.5092 125.136 30.5532C125.01 30.5974 124.894 30.6671 124.795 30.7573C124.696 30.8476 124.617 30.9568 124.562 31.0786C124.508 31.1964 124.479 31.3235 124.475 31.4526H126.499C126.509 31.3236 126.49 31.1938 126.444 31.0728C126.399 30.9516 126.327 30.8421 126.234 30.7515C126.142 30.6608 126.031 30.5907 125.909 30.5474C125.787 30.5041 125.657 30.4885 125.528 30.5005ZM23.5898 13.0796C19.9229 13.0796 17.8576 15.1404 17.8574 17.9751C17.8574 20.81 19.6471 22.2921 22.709 23.1821C26.0414 24.1743 26.6473 24.5621 26.6475 25.6343C26.6475 26.5732 25.9035 27.098 24.6621 27.0981C22.9978 27.0981 20.9997 26.5195 18.5479 25.2202L17.1104 28.1978C19.4758 29.553 22.1343 30.317 24.8584 30.4233C28.4671 30.4231 30.7811 28.5493 30.7812 25.4077C30.7812 22.5419 29.3789 21.3526 26.126 20.2534C22.6867 19.1233 21.7961 18.8209 21.7959 17.6597C21.796 16.8365 22.6822 16.2261 23.8926 16.2261C25.4633 16.2262 26.9235 16.5294 29.3486 17.4683L30.4609 14.6021C28.3068 13.6063 25.9629 13.0867 23.5898 13.0796ZM122.97 30.2729C122.968 30.272 122.966 30.2709 122.964 30.27L122.97 30.2554V30.2729ZM135.442 28.6421C135.542 28.6422 135.639 28.6797 135.713 28.7466C135.787 28.8134 135.834 28.9051 135.845 29.0044C135.834 29.1039 135.787 29.1962 135.713 29.2632C135.639 29.33 135.542 29.3676 135.442 29.3677C135.342 29.3677 135.245 29.3301 135.171 29.2632C135.097 29.1962 135.05 29.1039 135.039 29.0044C135.05 28.9051 135.097 28.8134 135.171 28.7466C135.245 28.6796 135.342 28.6421 135.442 28.6421ZM47.0205 10.3179C48.9066 10.3264 50.7687 10.7408 52.4805 11.5327L51.5908 13.8071C49.6595 13.064 48.4758 12.8238 47.2432 12.8237C46.2774 12.8237 45.5742 13.3043 45.5742 13.9585C45.5743 14.8796 46.3 15.1197 49.0234 16.0142C51.6132 16.9042 52.7343 17.8302 52.7344 20.104C52.7344 22.5962 50.8876 24.0874 48.0127 24.0874C45.8423 23.9968 43.7252 23.3862 41.8398 22.3071L42.9795 19.9438C44.9376 20.9719 46.5399 21.4302 47.875 21.4302C48.8628 21.4301 49.4589 21.0166 49.459 20.269C49.459 19.419 48.9742 19.1114 46.3174 18.3237C43.8787 17.6028 42.4503 16.4417 42.4502 14.1899C42.4502 11.938 44.0966 10.3179 47.0205 10.3179ZM61.2881 10.3267C65.4402 10.3267 67.9637 12.801 67.9639 17.2378C67.9639 21.6748 65.4625 24.0874 61.2881 24.0874C57.1137 24.0873 54.6123 21.6125 54.6123 17.2378C54.6125 12.8634 57.1138 10.3267 61.2881 10.3267ZM79.6729 13.3267H73.3047V16.5396H78.7959V19.2095H73.3047V23.8872H70.251V10.5757H79.6729V13.3267ZM92.3701 13.3267H88.0439V23.8872H84.9912V13.3267H80.6826V10.5757H92.3701V13.3267ZM103.798 13.3267H97.2695V15.9478H102.891V18.6177H97.2695V21.1548H103.989V23.8872H94.1992V10.5757H103.798V13.3267ZM111.894 10.5757C115.605 10.5757 117.679 12.2984 117.679 15.4048C117.722 16.2991 117.476 17.1835 116.978 17.9272C116.479 18.6709 115.755 19.2347 114.911 19.5347L118.049 23.647V23.8872H114.777L111.854 20.0151H109.593V23.8872H106.553V10.5757H111.894ZM127.207 18.5864C127.341 18.8904 127.452 19.2048 127.537 19.5259C127.604 19.2856 127.715 18.938 127.849 18.5864L131.302 10.5757H134.782L135.315 23.8872L132.219 23.8823L132.019 16.2056V15.5562L128.507 23.8872H126.549L123.077 15.5562V16.1479L122.837 23.8872H119.762L120.27 10.5757H123.763L127.207 18.5864ZM141.351 23.8823H138.235V10.5757H141.351V23.8823ZM147.581 23.8823H144.466V10.5757H147.581V23.8823ZM7.21582 18.8628C8.38326 18.8629 9.33008 19.811 9.33008 20.981C9.32993 22.1507 8.38317 23.0991 7.21582 23.0991C6.04842 23.0991 5.10171 22.1508 5.10156 20.981C5.10156 19.811 6.04833 18.8628 7.21582 18.8628ZM61.2881 13.0864C59.0275 13.0865 57.7501 14.4833 57.75 17.2378C57.75 19.9925 59.0452 21.3276 61.2881 21.3276C63.5133 21.3276 64.8486 19.9303 64.8486 17.2378C64.8485 14.5456 63.5488 13.0864 61.2881 13.0864ZM2.14062 18.5288C2.41019 18.5374 2.67175 18.6255 2.8916 18.7817C3.11146 18.9381 3.28127 19.1559 3.37793 19.4077C3.44256 19.5779 3.47279 19.7599 3.4668 19.9419C3.46077 20.1237 3.41837 20.3028 3.34277 20.4683C3.26708 20.6337 3.15901 20.7832 3.02539 20.9067C2.8918 21.0301 2.73429 21.1256 2.56348 21.188C2.30967 21.2796 2.03359 21.2941 1.77148 21.23C1.50946 21.1657 1.2716 21.0261 1.08887 20.8276C0.906072 20.629 0.786476 20.3803 0.744141 20.1138C0.701876 19.8473 0.7393 19.574 0.851562 19.3286C0.963859 19.0834 1.14582 18.8761 1.375 18.7339C1.60425 18.5918 1.87105 18.5204 2.14062 18.5288ZM109.593 17.519H111.92C113.656 17.519 114.622 16.7528 114.622 15.3999C114.622 14.0472 113.655 13.2104 111.92 13.2104H109.593V17.519ZM0.954102 13.5952C1.13119 13.6048 1.30192 13.6669 1.44336 13.7739C1.58487 13.8811 1.69173 14.0288 1.74902 14.1968C1.8225 14.415 1.8084 14.6537 1.70996 14.8618C1.61124 15.07 1.43434 15.2326 1.21875 15.314H1.22852C1.06302 15.3781 0.881068 15.3915 0.708008 15.3521C0.535117 15.3126 0.378093 15.2217 0.256836 15.0923C0.135478 14.9626 0.0552949 14.7989 0.0273438 14.6235C-0.000468425 14.4483 0.0246699 14.2687 0.0996094 14.1079C0.174659 13.9471 0.296042 13.8115 0.448242 13.7202C0.600416 13.629 0.776954 13.5857 0.954102 13.5952ZM5.46289 10.4429C6.3551 10.4429 7.0791 11.1659 7.0791 12.0581C7.07898 12.9502 6.35502 13.6733 5.46289 13.6733C4.57097 13.6731 3.84778 12.9501 3.84766 12.0581C3.84766 11.166 4.57089 10.4431 5.46289 10.4429ZM13.4502 7.06006C13.8686 7.07824 14.2725 7.21982 14.6104 7.46729C14.9483 7.71496 15.2062 8.05799 15.3496 8.45166C15.4469 8.71233 15.4916 8.99001 15.4814 9.26807C15.4713 9.54616 15.4061 9.81983 15.29 10.0728C15.174 10.3256 15.0088 10.5537 14.8047 10.7427C14.6003 10.9317 14.3598 11.0792 14.0986 11.1753L14.085 11.1655C13.6915 11.3092 13.2643 11.3329 12.8574 11.2339C12.4504 11.1347 12.0812 10.9175 11.7979 10.6089C11.5145 10.3002 11.3297 9.91364 11.2656 9.49951C11.2017 9.08551 11.2617 8.66151 11.4385 8.28174C11.6154 7.90214 11.9009 7.58317 12.2588 7.36572C12.6168 7.14831 13.0317 7.04195 13.4502 7.06006ZM1.72852 7.74756C1.90565 7.75718 2.07631 7.81923 2.21777 7.92627C2.35928 8.03346 2.46615 8.1811 2.52344 8.34912C2.59739 8.56633 2.58416 8.8042 2.4873 9.01221C2.39036 9.2201 2.21672 9.3832 2.00293 9.46631C1.83744 9.53048 1.65548 9.54284 1.48242 9.50342C1.30963 9.46392 1.15246 9.37394 1.03125 9.24463C0.909892 9.11495 0.829709 8.95127 0.801758 8.77588C0.773913 8.60066 0.7991 8.42107 0.874023 8.26025C0.949073 8.09942 1.07046 7.96387 1.22266 7.87256C1.37485 7.78136 1.55134 7.73802 1.72852 7.74756ZM139.835 3.92236C140.889 3.92236 141.744 4.77245 141.744 5.82178C141.744 6.87129 140.889 7.72217 139.835 7.72217C138.781 7.72204 137.926 6.87121 137.926 5.82178C137.926 4.77253 138.781 3.92249 139.835 3.92236ZM146.073 3.92236C147.128 3.92236 147.982 4.77245 147.982 5.82178C147.982 6.87129 147.128 7.72217 146.073 7.72217C145.019 7.72203 144.164 6.87121 144.164 5.82178C144.164 4.77254 145.019 3.9225 146.073 3.92236ZM9.61035 5.40674C9.78749 5.41639 9.95816 5.47836 10.0996 5.58545C10.2411 5.69264 10.347 5.84028 10.4043 6.0083C10.4439 6.11568 10.4627 6.22988 10.458 6.34424C10.4533 6.4586 10.4253 6.57153 10.377 6.67529C10.3286 6.77888 10.2602 6.8726 10.1758 6.94971C10.0913 7.0268 9.99141 7.08675 9.88379 7.12549C9.71841 7.18952 9.53717 7.20198 9.36426 7.1626C9.19123 7.12309 9.03341 7.03336 8.91211 6.90381C8.79075 6.77413 8.71154 6.61046 8.68359 6.43506C8.65572 6.2598 8.68092 6.08029 8.75586 5.91943C8.83091 5.7586 8.95229 5.62305 9.10449 5.53174C9.25667 5.44058 9.43321 5.39719 9.61035 5.40674ZM6.1709 3.2124C6.34767 3.22336 6.51769 3.2872 6.6582 3.39502C6.79867 3.5029 6.9037 3.6509 6.95996 3.81885C7.03318 4.03774 7.01841 4.27659 6.91895 4.48486C6.81935 4.69319 6.64219 4.85455 6.42578 4.93506C6.25989 4.99664 6.07924 5.00778 5.90723 4.96631C5.73501 4.92463 5.57853 4.83244 5.45898 4.70166C5.33949 4.57085 5.26139 4.40718 5.23535 4.23193C5.2094 4.05662 5.23704 3.87717 5.31348 3.71729C5.38995 3.5575 5.51235 3.42331 5.66504 3.3335C5.81768 3.24388 5.99421 3.20154 6.1709 3.2124ZM16.3164 2.01318C17.0019 2.01336 17.5574 2.56896 17.5576 3.25439C17.5576 3.94004 17.002 4.49641 16.3164 4.49658C15.6307 4.49658 15.0742 3.94014 15.0742 3.25439C15.0745 2.56885 15.6308 2.01318 16.3164 2.01318ZM11.8721 0.61377C12.0484 0.625995 12.2179 0.690861 12.3574 0.799316C12.497 0.907874 12.6009 1.05616 12.6562 1.22412C12.7291 1.4442 12.7136 1.68454 12.6123 1.89307C12.5109 2.10145 12.3312 2.26257 12.1133 2.34131H12.1094C11.9429 2.40046 11.762 2.40843 11.5908 2.36475C11.4195 2.32089 11.2642 2.22624 11.1465 2.09424C11.029 1.96238 10.9538 1.79846 10.9297 1.62354C10.9057 1.44844 10.934 1.26958 11.0117 1.11084C11.0896 0.95216 11.2131 0.819295 11.3662 0.730957C11.5193 0.642776 11.6958 0.601703 11.8721 0.61377Z" fill="url(#paint0_linear_32727_80967)"/>
<defs>
<linearGradient id="paint0_linear_32727_80967" x1="137.694" y1="0.611816" x2="137.694" y2="24.7299" gradientUnits="userSpaceOnUse">
<stop stop-color="white"/>
<stop offset="1" stop-color="white" stop-opacity="0.6"/>
</linearGradient>
</defs>
</svg>
