<svg width="135" height="36" viewBox="0 0 135 36" fill="none" xmlns="http://www.w3.org/2000/svg">
<path d="M125.011 20.9395L126.52 25.1377L128.204 20.9395L130.952 14.2861H134.499L125.335 35.6289H121.73L124.687 28.8008L118.922 14.2861H122.47L125.011 20.9395ZM14.6074 0.858398C15.5799 0.201017 16.8589 0.209415 17.8223 0.878906L30.6309 9.80664C31.3912 10.3368 31.8457 11.2068 31.8457 12.1338V31.8213H28.4307V13.0059C28.4306 12.6456 28.2556 12.3095 27.959 12.1035L16.8135 4.33887C16.4409 4.07834 15.944 4.07561 15.5684 4.33008L4.04395 12.124C3.74107 12.33 3.55962 12.6696 3.55957 13.0361V27.5869C3.55975 28.0442 3.92939 28.4141 4.38672 28.4141H20.3818C20.8392 28.4141 21.2088 28.0442 21.209 27.5869V16.5625C21.209 16.1899 21.0181 15.8416 20.7061 15.6387L16.9219 13.1904C16.4736 12.903 15.9014 12.8972 15.4502 13.1758L11.4482 15.6602C11.1242 15.8601 10.9268 16.2141 10.9268 16.5957V24.1875H7.5127V15.6631C7.5127 14.6816 8.01935 13.769 8.85547 13.251L14.6992 9.625C15.6322 9.04663 16.8135 9.05866 17.7373 9.65234L23.3262 13.2666C24.135 13.7906 24.623 14.6871 24.623 15.6504V28.9893C24.623 30.5554 23.3534 31.8281 21.7842 31.8281H2.9873C1.42111 31.8281 0.148463 30.5585 0.148438 28.9893V12.1484C0.148507 11.2064 0.614993 10.3249 1.39648 9.79785L14.6074 0.858398ZM49.6816 7.78027C52.6382 7.78032 55.3284 8.87336 57.3672 10.9727L55.1494 13.1904C53.759 11.8 51.6628 10.9727 49.6514 10.9727C45.2467 10.9727 42.2023 14.0173 42.2021 18.54C42.2021 23.063 45.0405 26.1074 49.4453 26.1074C51.5142 26.1074 53.1985 25.5748 54.6768 24.4238V20.167H48.8848V17.123H57.8701V25.9023C55.5648 28.2076 52.8442 29.3007 49.4453 29.3008H49.4424C42.9988 29.3008 38.7422 25.0442 38.7422 18.54C38.7423 12.0361 43.2079 7.78027 49.6816 7.78027ZM83.7314 13.9873C88.8754 13.9873 91.7138 17.356 91.2412 22.8271H79.5664C79.8332 24.9566 81.605 26.3134 84.1768 26.3135C85.8308 26.3135 87.4884 25.7226 88.376 24.8047L90.3867 26.7559C88.9386 28.322 86.6031 29.2979 84.0918 29.2979L84.0859 29.3008C79.2663 29.3008 76.1642 26.2562 76.1641 21.585C76.1641 16.9136 79.2086 13.9874 83.7314 13.9873ZM99.2441 13.9395C101.462 13.9395 103.412 14.5002 105.036 15.624L103.589 17.9902C102.289 17.1632 100.898 16.748 99.3896 16.748C97.2903 16.7481 96.166 17.339 96.166 18.4023C96.1663 19.3472 97.0241 19.8497 99.1533 20.0859C103.47 20.5585 105.36 21.9496 105.36 24.6973C105.36 27.4448 102.849 29.25 99.0654 29.25L99.0684 29.2441C96.6146 29.2441 94.4275 28.5349 92.4766 27.0869L94.0127 24.6943C95.3123 25.7302 97.2358 26.3203 99.1562 26.3203C101.077 26.3203 102.083 25.7302 102.083 24.667C102.083 23.6037 101.137 23.1308 98.8896 22.8945C95.076 22.5401 92.9192 20.9437 92.9189 18.4023C92.9189 15.8607 95.4605 13.9395 99.2441 13.9395ZM63.5225 22.1484C63.5226 24.7202 64.8217 26.1981 66.9512 26.1982C69.3746 26.1982 71.0019 24.4264 71.002 21.9727V14.2871H74.3125V28.8887H71.3564L71.3262 26.9951C70.0841 28.4432 68.3689 29.1826 66.3604 29.1826C62.6375 29.1825 60.2111 26.5227 60.2109 22.3545V14.2842H63.5225V22.1484ZM112.845 14.2832H117.044V17.0918H112.845V23.8623C112.845 25.3407 113.524 26.168 114.884 26.168C115.475 26.168 116.156 25.9891 116.717 25.7256L117.635 28.3857C116.511 28.8886 115.565 29.0947 114.354 29.0947C111.339 29.0947 109.564 27.3491 109.564 23.8623V17.0918H106.816V14.2832H109.564V10.4697L112.845 10.1152V14.2832ZM83.8193 16.8555C81.3958 16.8555 80.0057 18.098 79.5938 20.2549H88.0762C87.8399 18.1858 86.2429 16.8555 83.8193 16.8555Z" fill="url(#paint0_linear_32727_80783)"/>
<defs>
<linearGradient id="paint0_linear_32727_80783" x1="67.4125" y1="0.371094" x2="67.4125" y2="35.7144" gradientUnits="userSpaceOnUse">
<stop stop-color="white"/>
<stop offset="1" stop-color="white" stop-opacity="0.6"/>
</linearGradient>
</defs>
</svg>
