<svg width="169" height="20" viewBox="0 0 169 20" fill="none" xmlns="http://www.w3.org/2000/svg">
<path d="M62.4463 6.47705C64.8705 6.47705 66.1699 8.28112 66.1699 11.3452V11.4419C66.1699 14.3896 64.8703 16.5034 62.1553 16.5034C61.2052 16.5033 60.2743 16.135 59.7119 15.7085V19.8589H57.5596V6.76123H59.3818L59.499 7.78467H59.5332C60.1657 7.01954 61.2247 6.47714 62.4463 6.47705ZM165.24 6.47705C167.664 6.47707 168.964 8.28012 168.964 11.3442V11.4409C168.964 14.3887 167.664 16.5024 164.949 16.5024C163.999 16.5024 163.068 16.134 162.506 15.7075V19.8579H160.354V6.76025H162.175L162.292 7.78467H162.327C162.96 7.01947 164.018 6.47705 165.24 6.47705ZM17.7812 16.7944L14.6699 19.0552L11.5488 15.4272C12.0269 14.2552 13.3723 12.6152 14.7441 11.769L17.7812 16.7944ZM20.3945 8.78857C14.5252 9.94467 9.62704 13.819 7.0625 19.0493L2.78027 16.2944C6.02259 10.2342 12.0814 5.91879 19.2021 5.11475L20.3945 8.78857ZM42.916 6.47705C45.9019 6.47705 47.3564 8.28046 47.3564 11.4409V11.5376C47.3564 14.6981 45.9019 16.5015 42.916 16.5015C39.9109 16.5013 38.457 14.6979 38.457 11.5376V11.4409C38.457 8.28054 39.9109 6.4772 42.916 6.47705ZM105.688 6.47705C108.402 6.47705 109.662 8.04807 109.662 11.3442C109.662 11.6932 109.638 12.175 109.601 12.5298H103.607C103.762 13.8616 104.539 14.6576 106.132 14.6577C107.14 14.6577 108.088 14.5627 108.966 14.4478V16.2544C107.979 16.4092 107.142 16.5015 106.075 16.5015C102.973 16.5013 101.345 14.9498 101.345 11.5181V11.48C101.345 8.57164 102.76 6.47719 105.688 6.47705ZM128.485 2.69385C129.866 2.69385 131.655 2.90341 132.41 3.02295V5.07373C131.44 4.9593 129.721 4.81396 128.676 4.81396C125.887 4.81409 124.438 6.56882 124.429 9.59717C124.438 12.6256 125.891 14.3802 128.676 14.3804C129.084 14.3804 129.844 14.3604 130.33 14.3286V11.063H128.202V9.07764H132.6V16.1265C131.782 16.273 129.867 16.5004 128.486 16.5005C124.476 16.5005 122.018 14.2029 122.008 9.59717C122.018 4.99174 124.476 2.69402 128.485 2.69385ZM144.813 6.47705C147.799 6.47705 149.254 8.2797 149.254 11.4399V11.5376C149.254 14.6978 147.799 16.5005 144.813 16.5005C141.808 16.5005 140.355 14.6977 140.354 11.5376V11.4399C140.355 8.27966 141.808 6.47707 144.813 6.47705ZM152.899 12.2104C152.899 14.2518 153.645 14.6567 154.763 14.6567C155.88 14.6566 156.625 14.2515 156.625 12.2104V6.76025H158.776L158.781 11.8726C158.781 15.135 157.612 16.5004 154.763 16.5005C151.913 16.5005 150.743 15.1351 150.743 11.8726L150.748 6.76025H152.899V12.2104ZM53.3818 6.5249C54.3515 6.52492 55.2968 6.64695 55.8672 6.76123V8.5083C55.1727 8.41496 54.4071 8.3208 53.6543 8.3208C51.8728 8.32091 50.9776 9.42373 50.9717 11.4897C50.9778 13.5554 51.8729 14.6576 53.6543 14.6577C54.4071 14.6577 55.1727 14.5636 55.8672 14.4702V16.2173C55.2968 16.3315 54.3515 16.4536 53.3818 16.4536C50.7249 16.4536 48.726 14.9917 48.7178 11.4897C48.7258 7.98742 50.7248 6.5249 53.3818 6.5249ZM75.7344 6.47705C78.0468 6.47717 79.4268 7.37174 79.4268 9.89795V16.2173H77.4863L77.3906 15.272H77.3652C76.7002 15.9885 75.734 16.4066 74.4971 16.4067C72.8583 16.4067 71.5557 15.345 71.5557 13.2417C71.5559 11.2857 73.1874 9.46424 77.2695 10.3306V9.76123C77.2694 8.6343 76.6084 8.31987 75.3066 8.31982C74.5075 8.31982 73.8295 8.37326 72.7988 8.46143V6.57764C73.7359 6.50012 74.7528 6.47705 75.7344 6.47705ZM30.3398 2.97803C34.9732 2.9781 37.1299 4.3701 37.1299 9.59814C37.1298 14.826 34.9732 16.2172 30.3398 16.2173H27.0146V2.97803H30.3398ZM69.9297 16.2173H67.7734V3.22803L69.9297 2.97803V16.2173ZM86.2568 6.47705C88.4872 6.47705 89.5947 7.66486 89.5947 10.0737V16.2173H87.4375V10.5181C87.4374 8.98076 86.8452 8.37868 85.6826 8.46045C84.6289 8.53468 83.4534 9.7382 83.4531 11.2437V16.2173H81.2959V6.76123H83.1738C83.1758 6.78251 83.2609 7.70362 83.2988 8.0376H83.3242C83.8442 7.22244 84.9363 6.47708 86.2568 6.47705ZM96.4229 6.47705C98.6533 6.47705 99.7607 7.66486 99.7607 10.0737V16.2173H97.6035V10.5181C97.6034 8.98074 97.0113 8.37866 95.8486 8.46045C94.7949 8.53468 93.6194 9.7382 93.6191 11.2437V16.2173H91.4619V6.76123H93.3398C93.3418 6.78241 93.4269 7.7036 93.4648 8.0376H93.4902C94.0102 7.22245 95.1024 6.47709 96.4229 6.47705ZM116.31 8.60498C114.337 8.99053 113.432 10.2987 113.432 11.4858V16.2173H111.274V6.76123H113.143L113.295 8.28369H113.314C113.792 7.5867 114.955 6.69351 116.31 6.61865V8.60498ZM139.716 8.604C137.743 8.98946 136.837 10.2986 136.837 11.4858V16.2173H134.68V6.76025H136.548L136.701 8.28271H136.721C137.198 7.58569 138.361 6.69335 139.716 6.61865V8.604ZM42.9111 8.27393C41.3841 8.27403 40.6797 9.31029 40.6797 11.4751C40.6797 13.64 41.384 14.6576 42.9111 14.6577C44.4384 14.6577 45.124 13.6434 45.124 11.4751C45.124 9.30696 44.4384 8.27393 42.9111 8.27393ZM144.809 8.27295C143.281 8.27295 142.576 9.31006 142.576 11.4751C142.576 13.6398 143.281 14.6567 144.809 14.6567C146.336 14.6567 147.021 13.6429 147.021 11.4751C147.021 9.30698 146.336 8.27298 144.809 8.27295ZM77.2695 11.8276C75.5399 11.3876 73.8096 11.9283 73.8096 13.2651C73.8098 14.1516 74.3991 14.6723 75.2764 14.6333C75.9678 14.6025 76.7292 14.2954 77.2695 13.8169V11.8276ZM61.8652 8.48193C61.012 8.48193 60.1863 8.98468 59.7119 9.53076V13.8853C60.158 14.2343 60.8761 14.5444 61.5742 14.5444C63.3969 14.5443 63.9208 13.1291 63.9209 11.4614C63.9209 9.94893 63.6297 8.48216 61.8652 8.48193ZM164.658 8.48193C163.805 8.482 162.98 8.98371 162.506 9.52979V13.8853C162.952 14.2342 163.669 14.5443 164.367 14.5444C166.19 14.5444 166.714 13.1283 166.714 11.4604C166.714 9.94788 166.423 8.48193 164.658 8.48193ZM29.375 14.0767H30.8555C34.0486 14.0766 34.6523 12.5745 34.6523 9.59814C34.6523 6.62165 34.0487 5.11966 30.8555 5.11963H29.375V14.0767ZM105.63 8.27393C104.118 8.27393 103.613 9.51975 103.574 10.9214H107.472C107.472 9.44201 107.084 8.27409 105.63 8.27393ZM12.874 5.96045C10.6668 6.71747 9.36808 7.3216 7.88086 8.23584C6.78304 8.90913 5.78486 9.69755 4.8916 10.6011L0.535156 8.76123L1.72266 5.09814L7.99707 6.57568L8.53809 0.141113H12.3848L12.874 5.96045Z" fill="url(#paint0_linear_32727_81126)"/>
<defs>
<linearGradient id="paint0_linear_32727_81126" x1="84.8608" y1="0.141113" x2="84.8608" y2="19.9067" gradientUnits="userSpaceOnUse">
<stop stop-color="white"/>
<stop offset="1" stop-color="white" stop-opacity="0.6"/>
</linearGradient>
</defs>
</svg>
