<svg width="152" height="20" viewBox="0 0 152 20" fill="none" xmlns="http://www.w3.org/2000/svg">
<path d="M13.6348 7.6123H8.86719L5.56055 20.0088H0.464844L5.80566 -0.00976562H15.6699L13.6348 7.6123ZM20.5146 20.0088H10.6562L12.6914 12.3867H17.4541L20.7656 -0.00976562H25.8623L20.5146 20.0088ZM56.6709 20.0029H53.9375V5.42969H56.6709V20.0029ZM89.3877 13.3799L95.2041 -0.00976562H102.93V20.0029H97.6318V6.625L91.8105 20.0029H86.8945L81.0518 6.625V20.0029H75.7266V-0.00976562H83.5889L89.3877 13.3799ZM126.003 4.61719H111.899V7.60156H124.415V12.1191H111.899V15.377H126.003V20.0029H106.547V-0.00976562H126.003V4.61719ZM134.651 -0.00976562L139.692 6.625L144.738 -0.00976562H151.51L143.32 9.99707L151.537 20.0029H144.651L139.638 13.3799L134.618 20.0029H127.82L136.01 9.99707L127.793 -0.00976562H134.651ZM43.6641 -0.00976562C47.8705 -0.00973524 50.2979 1.85659 50.2979 5.20117C50.2977 7.7652 48.5691 9.04788 47.0361 9.57715C49.3218 10.1884 50.9637 11.9447 50.9639 14.4814C50.9639 17.9678 48.2907 19.9979 44.248 19.998H31.0117V-0.00976562H43.6641ZM65.4062 5.38086H72.0947V7.50879H65.4062V15.082C65.4063 17.128 66.6234 17.7607 68.8057 17.7607C70.0222 17.7607 71.1239 17.4821 72.1768 17.0947L73.126 19.0488C72.0184 19.4907 69.8855 19.998 68.418 19.998C65.3791 19.998 62.9453 18.7808 62.9453 15.2998V7.50879H59.4375V5.38086H62.9453V-0.00976562H65.4062V5.38086ZM33.5762 17.7441H44.1387C46.7848 17.7441 48.4053 16.3531 48.4053 14.2852C48.4052 12.2502 46.7901 10.8584 44.1387 10.8584H33.5762V17.7441ZM33.5762 8.58398H43.4404V8.57812C46.1137 8.57808 47.7617 7.54662 47.7617 5.42969C47.7616 3.28569 46.1191 2.25493 43.4404 2.25488H33.5762V8.58398ZM56.6709 2.89258H53.9375V-0.00976562H56.6709V2.89258Z" fill="url(#paint0_linear_32727_80792)"/>
<defs>
<linearGradient id="paint0_linear_32727_80792" x1="141.032" y1="-0.0097656" x2="141.032" y2="13.8746" gradientUnits="userSpaceOnUse">
<stop stop-color="white"/>
<stop offset="1" stop-color="white" stop-opacity="0.6"/>
</linearGradient>
</defs>
</svg>
