<svg width="78" height="40" viewBox="0 0 78 40" fill="none" xmlns="http://www.w3.org/2000/svg">
<path fill-rule="evenodd" clip-rule="evenodd" d="M26.5294 13.8795C26.3371 14.4667 24.2186 20.8886 23.6758 22.605C23.133 24.3213 23.2938 25.171 23.2938 26.0804C23.2938 26.9947 23.3818 28.4082 21.7971 29.3806C21.1833 29.757 20.7342 30.051 20.3659 30.349C20.2787 30.3474 20.1898 30.345 20.1018 30.345C18.6415 30.345 17.3702 29.7772 16.7095 28.9348C16.4163 28.5794 16.2507 28.1037 16.2507 27.5843C16.2507 27.5843 16.1344 26.3486 17.5107 25.6572C18.992 24.9133 19.152 23.8019 19.152 23.8019V23.5241C19.0736 22.886 18.6326 19.2409 18.7877 16.3276C19.2561 15.8204 19.8651 15.5821 20.2528 15.4796C20.3053 15.4634 20.3611 15.4513 20.4184 15.44C20.5509 15.4093 20.6365 15.3996 20.6365 15.3996C21.6784 15.2736 22.747 15.2098 23.6241 14.1881C24.3421 13.361 24.246 12.7318 24.246 12.7318H24.2476H19.6769C19.3652 12.7318 19.0938 12.8853 18.9234 13.1211C18.8628 13.2201 18.8115 13.3245 18.7699 13.4329L18.7626 13.4571H18.7602C17.6981 16.2889 18.6003 23.1938 18.6625 23.6703C18.0777 23.8254 17.0285 24.0523 15.8437 24.0523C14.658 24.0523 13.6104 23.8254 13.0232 23.6703C13.0887 23.1938 13.9884 16.288 12.9263 13.4563H12.9239C12.9215 13.4482 12.9166 13.4402 12.9158 13.4321C12.8593 13.2875 12.8068 13.1898 12.7648 13.1211C12.6787 13.0011 12.5653 12.9033 12.434 12.8356C12.3028 12.7679 12.1573 12.7323 12.0096 12.7318H7.43809H7.44052C7.44052 12.7318 7.34359 13.361 8.06243 14.1881C8.93958 15.2098 10.0073 15.2736 11.0501 15.3996C11.0501 15.3996 11.1349 15.4093 11.2681 15.44C11.3247 15.4513 11.3812 15.4642 11.4337 15.4796C11.8214 15.5821 12.4288 15.8204 12.8989 16.3276C13.0531 19.2409 12.6129 22.886 12.5338 23.5241H12.5354V23.8019C12.5354 23.8019 12.6937 24.9133 14.1766 25.6572C15.5513 26.3494 15.4366 27.5843 15.4366 27.5843C15.4366 28.1037 15.2718 28.5778 14.9778 28.9332V28.9348C14.318 29.7772 13.0467 30.345 11.5856 30.345C11.4959 30.345 11.4079 30.3482 11.3198 30.349H11.3182C10.9515 30.0502 10.5 29.757 9.88861 29.3806C8.30393 28.4082 8.39197 26.9947 8.39197 26.0804C8.39197 25.171 8.55351 24.3213 8.00993 22.6058C7.46798 20.8886 5.34861 14.4659 5.15638 13.8795C4.96496 13.2948 4.91892 12.1729 5.88976 11.5308L10.2537 8.6425C12.302 7.2872 13.5531 7.80493 14.1572 8.08843C14.7606 8.37112 15.8437 8.37112 15.8437 8.37112C15.8437 8.37112 16.926 8.37112 17.5293 8.08843C18.1335 7.80493 19.3846 7.2872 21.432 8.6425C23.4771 9.99699 24.8259 10.8879 25.7968 11.5308C26.7676 12.1729 26.72 13.2948 26.5294 13.8795ZM18.8975 32.1865C18.1545 33.4788 16.9486 33.3133 15.8445 33.3246C14.738 33.3133 13.5321 33.4796 12.7874 32.1857C12.5209 31.7221 12.285 31.3651 12.0387 31.063C12.8867 30.9952 13.9634 30.6891 15.3332 29.9662C15.4891 29.9 15.6628 29.8636 15.8445 29.8636C16.0238 29.8636 16.1991 29.9 16.3557 29.9662C17.7223 30.6891 18.8014 30.9944 19.6471 31.0622C19.3991 31.3651 19.1657 31.7221 18.8975 32.1865ZM28.2764 6.37129H28.089C22.0394 6.37129 21.3594 1.82806 21.3319 1.62533C21.2961 1.34727 21.1606 1.09165 20.9505 0.905965C20.7405 0.720278 20.4702 0.617145 20.1898 0.615723L11.4967 0.615723C10.916 0.615723 10.4306 1.05187 10.3546 1.62533C10.3272 1.82725 9.64711 6.3721 3.59836 6.3721H3.41016C3.19221 6.36562 2.97705 6.42244 2.7907 6.53568C2.60436 6.64892 2.45482 6.81373 2.36017 7.01017C2.25517 7.21532 -0.123459 12.1067 0.275538 18.5536C0.643035 24.5127 3.54505 32.9385 15.2985 39.2489C15.4681 39.3378 15.6555 39.383 15.8453 39.3846C16.0327 39.383 16.2209 39.337 16.3905 39.2489C28.1423 32.9385 31.0459 24.5127 31.4134 18.5536C31.8108 12.1059 29.4322 7.21532 29.3272 7.01098C29.2329 6.81411 29.0835 6.64885 28.8971 6.53529C28.7107 6.42173 28.4954 6.36475 28.2772 6.37129H28.2764ZM71.2695 19.6997H70.3552V15.0168H71.3381C73.0771 15.0168 73.9696 15.7776 73.9696 17.3009C73.9696 18.9389 73.0084 19.6997 71.2695 19.6997ZM71.5667 12.0404H66.488V27.9599H70.4004V22.6768H71.4068C75.2271 22.6768 77.7673 20.8305 77.7673 17.2314C77.7673 13.7705 75.4113 12.0404 71.5667 12.0404ZM56.992 19.6997H56.0769V15.0168H57.0607C58.7988 15.0168 59.6921 15.7776 59.6921 17.3009C59.6921 18.9389 58.731 19.6997 56.992 19.6997ZM57.2892 12.0404H52.2105V27.9599H56.1221V22.6768H57.1293C60.9497 22.6768 63.489 20.8305 63.489 17.2314C63.489 13.7705 61.133 12.0404 57.2892 12.0404ZM42.7598 25.1209H41.3189V21.0146H42.7137C44.3614 21.0146 45.2539 21.7302 45.2539 23.1138C45.2539 24.4529 44.3388 25.1209 42.7598 25.1209ZM41.3189 14.8794H42.7137C44.2241 14.8794 44.8646 15.5482 44.8646 16.6095C44.8646 17.7629 44.0868 18.4785 42.6225 18.4785H41.3189V14.8794ZM46.077 19.5398C47.3579 18.9631 48.3425 17.901 48.3425 16.1717C48.3425 13.5871 46.5809 12.0412 42.9884 12.0412H37.6116V27.9607H42.8745C46.6488 27.9607 48.937 26.4374 48.937 23.3698C48.937 21.2004 47.7917 20.0931 46.077 19.5398Z" fill="black"/>
<path fill-rule="evenodd" clip-rule="evenodd" d="M26.5294 13.8795C26.3371 14.4667 24.2186 20.8886 23.6758 22.605C23.133 24.3213 23.2938 25.171 23.2938 26.0804C23.2938 26.9947 23.3818 28.4082 21.7971 29.3806C21.1833 29.757 20.7342 30.051 20.3659 30.349C20.2787 30.3474 20.1898 30.345 20.1018 30.345C18.6415 30.345 17.3702 29.7772 16.7095 28.9348C16.4163 28.5794 16.2507 28.1037 16.2507 27.5843C16.2507 27.5843 16.1344 26.3486 17.5107 25.6572C18.992 24.9133 19.152 23.8019 19.152 23.8019V23.5241C19.0736 22.886 18.6326 19.2409 18.7877 16.3276C19.2561 15.8204 19.8651 15.5821 20.2528 15.4796C20.3053 15.4634 20.3611 15.4513 20.4184 15.44C20.5509 15.4093 20.6365 15.3996 20.6365 15.3996C21.6784 15.2736 22.747 15.2098 23.6241 14.1881C24.3421 13.361 24.246 12.7318 24.246 12.7318H24.2476H19.6769C19.3652 12.7318 19.0938 12.8853 18.9234 13.1211C18.8628 13.2201 18.8115 13.3245 18.7699 13.4329L18.7626 13.4571H18.7602C17.6981 16.2889 18.6003 23.1938 18.6625 23.6703C18.0777 23.8254 17.0285 24.0523 15.8437 24.0523C14.658 24.0523 13.6104 23.8254 13.0232 23.6703C13.0887 23.1938 13.9884 16.288 12.9263 13.4563H12.9239C12.9215 13.4482 12.9166 13.4402 12.9158 13.4321C12.8593 13.2875 12.8068 13.1898 12.7648 13.1211C12.6787 13.0011 12.5653 12.9033 12.434 12.8356C12.3028 12.7679 12.1573 12.7323 12.0096 12.7318H7.43809H7.44052C7.44052 12.7318 7.34359 13.361 8.06243 14.1881C8.93958 15.2098 10.0073 15.2736 11.0501 15.3996C11.0501 15.3996 11.1349 15.4093 11.2681 15.44C11.3247 15.4513 11.3812 15.4642 11.4337 15.4796C11.8214 15.5821 12.4288 15.8204 12.8989 16.3276C13.0531 19.2409 12.6129 22.886 12.5338 23.5241H12.5354V23.8019C12.5354 23.8019 12.6937 24.9133 14.1766 25.6572C15.5513 26.3494 15.4366 27.5843 15.4366 27.5843C15.4366 28.1037 15.2718 28.5778 14.9778 28.9332V28.9348C14.318 29.7772 13.0467 30.345 11.5856 30.345C11.4959 30.345 11.4079 30.3482 11.3198 30.349H11.3182C10.9515 30.0502 10.5 29.757 9.88861 29.3806C8.30393 28.4082 8.39197 26.9947 8.39197 26.0804C8.39197 25.171 8.55351 24.3213 8.00993 22.6058C7.46798 20.8886 5.34861 14.4659 5.15638 13.8795C4.96496 13.2948 4.91892 12.1729 5.88976 11.5308L10.2537 8.6425C12.302 7.2872 13.5531 7.80493 14.1572 8.08843C14.7606 8.37112 15.8437 8.37112 15.8437 8.37112C15.8437 8.37112 16.926 8.37112 17.5293 8.08843C18.1335 7.80493 19.3846 7.2872 21.432 8.6425C23.4771 9.99699 24.8259 10.8879 25.7968 11.5308C26.7676 12.1729 26.72 13.2948 26.5294 13.8795ZM18.8975 32.1865C18.1545 33.4788 16.9486 33.3133 15.8445 33.3246C14.738 33.3133 13.5321 33.4796 12.7874 32.1857C12.5209 31.7221 12.285 31.3651 12.0387 31.063C12.8867 30.9952 13.9634 30.6891 15.3332 29.9662C15.4891 29.9 15.6628 29.8636 15.8445 29.8636C16.0238 29.8636 16.1991 29.9 16.3557 29.9662C17.7223 30.6891 18.8014 30.9944 19.6471 31.0622C19.3991 31.3651 19.1657 31.7221 18.8975 32.1865ZM28.2764 6.37129H28.089C22.0394 6.37129 21.3594 1.82806 21.3319 1.62533C21.2961 1.34727 21.1606 1.09165 20.9505 0.905965C20.7405 0.720278 20.4702 0.617145 20.1898 0.615723L11.4967 0.615723C10.916 0.615723 10.4306 1.05187 10.3546 1.62533C10.3272 1.82725 9.64711 6.3721 3.59836 6.3721H3.41016C3.19221 6.36562 2.97705 6.42244 2.7907 6.53568C2.60436 6.64892 2.45482 6.81373 2.36017 7.01017C2.25517 7.21532 -0.123459 12.1067 0.275538 18.5536C0.643035 24.5127 3.54505 32.9385 15.2985 39.2489C15.4681 39.3378 15.6555 39.383 15.8453 39.3846C16.0327 39.383 16.2209 39.337 16.3905 39.2489C28.1423 32.9385 31.0459 24.5127 31.4134 18.5536C31.8108 12.1059 29.4322 7.21532 29.3272 7.01098C29.2329 6.81411 29.0835 6.64885 28.8971 6.53529C28.7107 6.42173 28.4954 6.36475 28.2772 6.37129H28.2764ZM71.2695 19.6997H70.3552V15.0168H71.3381C73.0771 15.0168 73.9696 15.7776 73.9696 17.3009C73.9696 18.9389 73.0084 19.6997 71.2695 19.6997ZM71.5667 12.0404H66.488V27.9599H70.4004V22.6768H71.4068C75.2271 22.6768 77.7673 20.8305 77.7673 17.2314C77.7673 13.7705 75.4113 12.0404 71.5667 12.0404ZM56.992 19.6997H56.0769V15.0168H57.0607C58.7988 15.0168 59.6921 15.7776 59.6921 17.3009C59.6921 18.9389 58.731 19.6997 56.992 19.6997ZM57.2892 12.0404H52.2105V27.9599H56.1221V22.6768H57.1293C60.9497 22.6768 63.489 20.8305 63.489 17.2314C63.489 13.7705 61.133 12.0404 57.2892 12.0404ZM42.7598 25.1209H41.3189V21.0146H42.7137C44.3614 21.0146 45.2539 21.7302 45.2539 23.1138C45.2539 24.4529 44.3388 25.1209 42.7598 25.1209ZM41.3189 14.8794H42.7137C44.2241 14.8794 44.8646 15.5482 44.8646 16.6095C44.8646 17.7629 44.0868 18.4785 42.6225 18.4785H41.3189V14.8794ZM46.077 19.5398C47.3579 18.9631 48.3425 17.901 48.3425 16.1717C48.3425 13.5871 46.5809 12.0412 42.9884 12.0412H37.6116V27.9607H42.8745C46.6488 27.9607 48.937 26.4374 48.937 23.3698C48.937 21.2004 47.7917 20.0931 46.077 19.5398Z" fill="url(#paint0_linear_32727_80895)"/>
<defs>
<linearGradient id="paint0_linear_32727_80895" x1="39.0501" y1="0.615723" x2="39.0501" y2="39.4786" gradientUnits="userSpaceOnUse">
<stop stop-color="white"/>
<stop offset="1" stop-color="white" stop-opacity="0.6"/>
</linearGradient>
</defs>
</svg>
