<svg width="127" height="36" viewBox="0 0 127 36" fill="none" xmlns="http://www.w3.org/2000/svg">
<path d="M111.397 7.2666C111.478 7.26662 111.552 7.31783 111.579 7.39453L116.708 21.4316C116.77 21.6007 117.007 21.6017 117.07 21.4336L122.399 7.3916C122.428 7.31628 122.5 7.26668 122.58 7.2666H126.233C126.371 7.26688 126.464 7.4086 126.411 7.53711L114.897 35.4043C114.868 35.4767 114.797 35.5243 114.72 35.5244H111.062C110.925 35.5242 110.832 35.3825 110.885 35.2539L114.61 26.249C114.63 26.2018 114.631 26.1482 114.612 26.1006L107.252 7.53418C107.201 7.406 107.295 7.2666 107.432 7.2666H111.397ZM39.5527 27.5547C39.7238 27.3879 39.9811 27.3406 40.2021 27.4443L41.835 28.2109C42.1867 28.3763 42.2877 28.8457 42.0127 29.1396C41.0155 30.2026 39.837 31.0911 38.4951 31.79L38.4824 31.7969L38.4727 31.8018L38.4717 31.8027C36.3692 32.8835 34.0784 33.3955 31.6924 33.3955C29.3175 33.3955 27.036 32.8787 24.9531 31.7734L24.9287 31.7607L24.9043 31.7471C23.6247 31.0486 22.5047 30.1723 21.5586 29.1348C21.2903 28.8401 21.3925 28.3773 21.7402 28.2129L23.3633 27.4463C23.5878 27.3403 23.8495 27.3904 24.0205 27.5625C24.6889 28.2356 25.4606 28.8132 26.332 29.2891L26.3408 29.2939L26.3506 29.2988C27.9687 30.1574 29.7628 30.5732 31.6924 30.5732C33.6395 30.5732 35.4572 30.1592 37.1094 29.3096L37.1152 29.3066L37.1182 29.3047C38.0352 28.8269 38.8477 28.242 39.5527 27.5547ZM31.7725 6.95312C33.5915 6.95319 35.2383 7.35988 36.7119 8.17383C38.1855 8.98783 39.3483 10.1515 40.2002 11.6631C41.0519 13.1746 41.4775 14.9071 41.4775 16.8604C41.4775 18.814 41.0402 20.5469 40.165 22.0586C39.2901 23.5704 38.0928 24.7448 36.5732 25.582C35.0766 26.396 33.4187 26.8027 31.5996 26.8027C29.8035 26.8027 28.1802 26.396 26.7295 25.582C25.2788 24.7448 24.1385 23.5822 23.3096 22.0938C22.4805 20.5821 22.0664 18.8372 22.0664 16.8604C22.0665 14.907 22.4929 13.1747 23.3447 11.6631C24.1967 10.1514 25.3593 8.98784 26.833 8.17383C28.3066 7.35988 29.9536 6.95312 31.7725 6.95312ZM72.9414 6.95312C74.438 6.95314 75.7393 7.25567 76.8447 7.86035C77.7784 8.34147 78.5547 8.92612 79.1729 9.61426C79.2972 9.75225 79.5389 9.66705 79.5391 9.48047V7.46191C79.5393 7.35428 79.6258 7.26758 79.7324 7.26758H83.3174C83.424 7.26769 83.5105 7.35435 83.5107 7.46191V26.2939C83.5107 26.4017 83.4241 26.4891 83.3174 26.4893H79.7324C79.6256 26.4893 79.5391 26.4018 79.5391 26.2939V24.2188C79.5391 24.0307 79.2935 23.9454 79.1699 24.0859C78.5484 24.7926 77.7616 25.3965 76.8096 25.8965C75.6582 26.5011 74.3456 26.8027 72.8721 26.8027C71.2372 26.8027 69.7405 26.3841 68.3818 25.5469C67.0237 24.6864 65.9414 23.5006 65.1357 21.9893C64.3528 20.4543 63.9609 18.7213 63.9609 16.791C63.9609 14.8606 64.3529 13.1516 65.1357 11.6631C65.9415 10.1747 67.0234 9.02294 68.3818 8.20898C69.7635 7.37169 71.2835 6.95312 72.9414 6.95312ZM96.6973 6.95312C98.9999 6.95312 100.899 7.51164 102.396 8.62793C103.855 9.67713 104.858 11.1651 105.404 13.0928C105.44 13.2158 105.346 13.3369 105.22 13.3369H101.356C101.276 13.3367 101.204 13.2859 101.174 13.21C100.826 12.3174 100.289 11.6153 99.5635 11.1045C98.8033 10.5697 97.8484 10.3018 96.6973 10.3018C95.0849 10.3018 93.7949 10.8841 92.8281 12.0469C91.8844 13.1864 91.4122 14.7909 91.4121 16.8604C91.4121 18.9301 91.8842 20.547 92.8281 21.71C93.7949 22.8727 95.0849 23.4541 96.6973 23.4541C98.9285 23.4541 100.421 22.4851 101.174 20.5469C101.203 20.4708 101.275 20.4191 101.356 20.4189H105.214C105.343 20.419 105.435 20.5433 105.396 20.667C104.828 22.5048 103.817 23.9806 102.361 25.0938C100.842 26.2334 98.9536 26.8027 96.6973 26.8027C94.8777 26.8027 93.2663 26.396 91.8613 25.582C90.4571 24.7448 89.3515 23.5822 88.5449 22.0938C87.7627 20.5821 87.3711 18.8372 87.3711 16.8604C87.3711 14.8838 87.7629 13.1514 88.5449 11.6631C89.3515 10.1514 90.4571 8.98784 91.8613 8.17383C93.2663 7.35996 94.8777 6.95313 96.6973 6.95312ZM10.5166 6.95312C12.013 6.95317 13.3483 7.26682 14.5225 7.89453C15.7197 8.52238 16.6525 9.45312 17.3203 10.6855C17.988 11.9182 18.3223 13.4071 18.3223 15.1514V26.2939C18.3222 26.4017 18.2357 26.4893 18.1289 26.4893H14.6123C14.5058 26.4891 14.419 26.4016 14.4189 26.2939V15.7441C14.4189 14.0232 13.9936 12.7087 13.1416 11.8018C12.2896 10.8716 11.126 10.4072 9.65234 10.4072C8.17902 10.4073 7.00477 10.8718 6.12988 11.8018C5.27793 12.7087 4.8516 14.0232 4.85156 15.7441V26.2939C4.85152 26.4017 4.76495 26.4893 4.6582 26.4893H1.10742C1.00072 26.4892 0.914109 26.4017 0.914062 26.2939V7.46191C0.914258 7.35427 1.00081 7.26664 1.10742 7.2666H4.6582C4.76485 7.2666 4.85137 7.35424 4.85156 7.46191V8.9209C4.85182 9.10384 5.08512 9.19042 5.21191 9.05957C5.79242 8.46053 6.48979 7.97953 7.30371 7.61621C8.31688 7.17432 9.38826 6.95312 10.5166 6.95312ZM47.2041 7.2666C47.2864 7.2666 47.3606 7.319 47.3877 7.39746L52.5479 22.3994C52.6079 22.5743 52.853 22.5743 52.9131 22.3994L58.0732 7.39746C58.1003 7.31914 58.1737 7.26674 58.2559 7.2666H62.0176C62.1528 7.26673 62.2464 7.40357 62.1982 7.53125L55.0918 26.3633C55.063 26.4388 54.9913 26.4883 54.9111 26.4883H50.4805C50.4001 26.4882 50.3282 26.4381 50.2998 26.3623L43.2275 7.53125C43.1796 7.40353 43.273 7.2667 43.4082 7.2666H47.2041ZM31.7031 10.4072C30.69 10.4072 29.7462 10.6513 28.8711 11.1396C28.0192 11.628 27.3395 12.3602 26.833 13.3369C26.3265 14.2903 26.0733 15.4651 26.0732 16.8604C26.0732 18.9301 26.5909 20.5353 27.627 21.6748C28.6862 22.7911 30.0107 23.3496 31.5996 23.3496C32.6126 23.3496 33.5566 23.1054 34.4316 22.6172C35.3296 22.1289 36.0548 21.3958 36.6074 20.4189C37.1599 19.4421 37.4365 18.2558 37.4365 16.8604C37.4365 15.4651 37.1722 14.2903 36.6426 13.3369C36.113 12.3601 35.4101 11.628 34.5352 11.1396C33.66 10.6513 32.7163 10.4072 31.7031 10.4072ZM73.7705 10.4072C72.7575 10.4072 71.8133 10.6624 70.9385 11.1738C70.0634 11.6622 69.3496 12.3953 68.7969 13.3721C68.2674 14.3256 68.002 15.4653 68.002 16.791C68.002 18.1166 68.2674 19.2794 68.7969 20.2793C69.3496 21.2793 70.0634 22.0473 70.9385 22.582C71.8364 23.0937 72.7805 23.3496 73.7705 23.3496C74.7836 23.3496 75.7277 23.0938 76.6025 22.582C77.4775 22.0705 78.1803 21.3263 78.71 20.3496C79.2625 19.3495 79.5391 18.186 79.5391 16.8604C79.539 15.535 79.2623 14.3839 78.71 13.4072C78.1803 12.4304 77.4775 11.6855 76.6025 11.1738C75.7277 10.6624 74.7835 10.4073 73.7705 10.4072ZM96.2627 0.362305C98.6486 0.362305 100.94 0.87403 103.042 1.95508H103.044L103.053 1.95996L103.065 1.9668C104.408 2.66577 105.585 3.55417 106.582 4.61719C106.858 4.91093 106.757 5.38048 106.405 5.5459L104.773 6.31348C104.552 6.4173 104.294 6.3689 104.123 6.20215C103.418 5.5149 102.606 4.92981 101.688 4.45215L101.686 4.4502L101.684 4.44922L101.681 4.44824C100.028 3.59839 98.2104 3.18359 96.2627 3.18359C94.3332 3.18361 92.5387 3.59943 90.9209 4.45801L90.9111 4.46289L90.9023 4.46875C90.0307 4.94442 89.2601 5.52141 88.5918 6.19434C88.4207 6.36658 88.1581 6.41736 87.9336 6.31152L86.3105 5.54395C85.9628 5.37948 85.8607 4.91672 86.1289 4.62207C87.0752 3.58445 88.1945 2.70818 89.4746 2.00977L89.498 1.99609L89.5225 1.9834H89.5234C91.6062 0.878186 93.8878 0.362316 96.2627 0.362305Z" fill="url(#paint0_linear_32727_80948)"/>
<defs>
<linearGradient id="paint0_linear_32727_80948" x1="117.698" y1="0.362305" x2="117.698" y2="24.7499" gradientUnits="userSpaceOnUse">
<stop stop-color="white"/>
<stop offset="1" stop-color="white" stop-opacity="0.6"/>
</linearGradient>
</defs>
</svg>
