<svg width="89" height="38" viewBox="0 0 89 38" fill="none" xmlns="http://www.w3.org/2000/svg">
<path d="M11.8691 14.3364C12.4999 14.3364 12.5024 14.3387 12.5039 14.9575C12.5062 16.0558 12.5039 17.1532 12.5039 18.2515C12.5039 22.3156 12.5083 26.3807 12.5 30.4448C12.4977 31.3667 12.4127 32.2787 12.1143 33.1665C11.4643 35.0994 10.1381 36.3224 8.18164 36.7808C6.09164 37.2701 4.02463 37.1493 2.1543 35.979C1.44909 35.5382 0.860321 34.911 0.21875 34.3687V34.0649H0.220703C0.95854 33.2574 1.69111 32.4448 2.43652 31.644C2.80287 31.2505 2.82136 31.2527 3.21289 31.6245C3.82864 32.2092 4.45173 32.7701 5.31055 32.9868C6.80062 33.3626 7.9415 32.5812 8.10059 31.0532C8.13542 30.7155 8.15527 30.3739 8.15527 30.0347C8.1583 24.9857 8.1582 19.9362 8.1582 14.8872C8.1582 14.3399 8.15784 14.3372 8.72656 14.3364C9.77423 14.3349 10.8222 14.3357 11.8691 14.3364ZM32.1152 19.1499C32.4931 19.1446 32.6862 19.2616 32.8135 19.6509C33.6596 22.2507 34.5364 24.8408 35.4053 27.4331C35.4363 27.5255 35.4781 27.6146 35.5508 27.7964C35.7484 27.1845 35.9202 26.6558 36.0898 26.1265C36.7906 23.9425 37.4939 21.7598 38.1855 19.5728C38.2727 19.2963 38.3963 19.1537 38.7061 19.1567C39.8414 19.1673 40.9769 19.1499 42.1123 19.1636C42.5948 19.1696 42.6601 19.2867 42.4844 19.7563C41.5307 22.3046 40.5718 24.8514 39.6143 27.3989C38.8211 29.5087 38.0349 31.6216 37.2266 33.7261C36.8993 34.5782 36.4608 35.3723 35.792 36.0161C35.1959 36.5902 34.4748 36.8997 33.6621 36.98C32.2365 37.1209 30.8684 36.924 29.6064 36.2007C29.489 36.1333 29.3822 36.0477 29.252 35.9575C29.6898 35.019 30.1185 34.1095 30.5381 33.1968C30.6736 32.9023 30.874 32.9876 31.0693 33.0913C31.5222 33.3314 31.9913 33.4806 32.5146 33.4663C32.8752 33.4565 33.1623 33.3338 33.3418 33.0308C33.4114 32.9126 33.4483 32.7179 33.4014 32.5952C32.5075 30.2666 31.5999 27.9427 30.6924 25.6187C29.9546 23.7302 29.2124 21.8431 28.4746 19.9546C28.1913 19.2304 28.2434 19.1565 29.0107 19.1558C30.0455 19.1558 31.0805 19.1651 32.1152 19.1499ZM21.4746 18.9272C24.6413 19.0352 27.2369 20.7708 28.2725 23.4097C29.8034 27.3109 27.8398 31.5317 23.8887 32.8257C21.2601 33.6862 18.7743 33.355 16.5586 31.6362C14.8058 30.2758 13.9401 28.4388 13.918 26.2271C13.8892 23.3008 15.2379 21.1625 17.7754 19.7739C18.9238 19.1459 20.1951 18.9282 21.167 18.9214L21.4746 18.9272ZM81.6787 18.9263C83.3921 18.8619 84.9498 19.3167 86.2588 20.4673C87.2056 21.2998 87.7802 22.3723 88.1445 23.5601C88.5073 24.7417 88.6095 25.9529 88.5186 27.186C88.4898 27.576 88.282 27.6252 87.9678 27.6245C85.2407 27.62 82.5141 27.6216 79.7871 27.6216H79.3115L79.3125 27.6235C79.5285 28.74 80.4987 29.5991 81.625 29.7612C82.9589 29.9535 84.1321 29.6089 85.1191 28.7007C85.4273 28.4176 85.625 28.4468 85.9082 28.7134C86.4414 29.214 87.0049 29.6812 87.5547 30.1636C87.978 30.5354 87.9773 30.5502 87.6133 30.9634C86.5815 32.1338 85.2919 32.8525 83.7617 33.1245C81.7626 33.4798 79.8641 33.1938 78.124 32.1128C76.4053 31.0454 75.5056 29.4241 75.1436 27.4849C74.7361 25.3018 75.1993 23.2959 76.5234 21.5112C77.8014 19.7887 79.5758 19.0058 81.6787 18.9263ZM73.292 14.3315C73.6333 14.3278 73.6755 14.5029 73.6748 14.7837C73.6687 17.4979 73.6709 20.213 73.6709 22.9272V32.4331C73.6709 32.7674 73.5027 32.9354 73.167 32.937C72.0695 32.9385 70.9725 32.9312 69.875 32.9448C69.5835 32.9486 69.5023 32.8332 69.5166 32.563C69.5348 32.2297 69.5215 31.895 69.5215 31.4692L69.5205 31.4683C69.1919 31.7552 68.953 31.9897 68.6895 32.1919C67.1229 33.3926 65.3805 33.4556 63.5859 32.8882C61.3295 32.1754 60.0611 30.4963 59.5088 28.2974C58.9717 26.1597 59.0948 24.0211 60.1885 22.0493C61.2695 20.1009 62.9857 19.0941 65.1992 18.9448C66.7028 18.8434 68.0438 19.2526 69.168 20.2896C69.249 20.3645 69.3466 20.4222 69.501 20.5356C69.5101 20.345 69.5205 20.2159 69.5205 20.0864C69.522 18.3064 69.5303 16.5259 69.5137 14.7466C69.5107 14.4227 69.6258 14.3312 69.9219 14.3335C71.0452 14.3403 72.1687 14.3437 73.292 14.3315ZM48.0654 21.0864C49.5441 19.285 50.6175 18.7526 52.2744 18.979C52.2888 19.1661 52.3147 19.3631 52.3154 19.5601C52.32 20.6335 52.3181 21.7064 52.3174 22.7798C52.3174 23.2802 52.3056 23.2848 51.8125 23.2954C50.3997 23.325 49.2511 23.8399 48.583 25.1489C48.2292 25.8421 48.0677 26.5974 48.0654 27.3784C48.0601 29.07 48.0569 30.762 48.0713 32.4536C48.0743 32.7829 47.9941 32.9381 47.6367 32.9351C46.5143 32.926 45.3919 32.9301 44.2695 32.9468C43.9552 32.9513 43.8486 32.8302 43.8486 32.5249C43.8539 28.2078 43.8537 23.8896 43.8477 19.5718C43.8477 19.2713 43.9642 19.1738 44.252 19.1753C45.3881 19.1836 46.524 19.1842 47.6602 19.1743C47.9515 19.1721 48.0727 19.2825 48.0674 19.5718C48.0591 20.048 48.0654 20.5251 48.0654 21.0864ZM53.6865 26.0308C53.6865 23.8979 53.6933 21.7642 53.6797 19.6313C53.6774 19.2913 53.7636 19.1653 54.1211 19.1714C55.2315 19.1911 56.342 19.1842 57.4531 19.1743C57.7348 19.1721 57.8513 19.2466 57.8506 19.5571C57.8415 23.8742 57.8426 28.1922 57.8486 32.5093C57.8486 32.804 57.7753 32.9445 57.4473 32.9399C56.3376 32.9256 55.2268 32.9256 54.1172 32.9399C53.7638 32.9444 53.6774 32.8062 53.6797 32.4692C53.6933 30.3232 53.6865 28.1768 53.6865 26.0308ZM24.5518 25.2837C24.2184 23.5012 22.4699 22.3142 20.6973 22.6528C19.065 22.9651 18.0481 24.2772 18.0117 26.0747L18.1006 26.6519C18.1307 26.8443 18.1651 27.036 18.2158 27.2231C18.8402 29.5316 21.8994 30.4019 23.6016 28.7397C24.5742 27.7891 24.7949 26.5858 24.5518 25.2837ZM68.8818 23.7983C67.6917 22.1296 65.2871 22.118 64.1152 23.7837C63.6448 24.4526 63.4179 25.2051 63.4414 26.0278C63.4083 26.0369 63.3752 26.0452 63.3428 26.0542C63.4942 26.6336 63.5692 27.2471 63.8115 27.7856C64.7826 29.9429 67.5469 30.2286 68.8916 28.3374C69.7764 27.0928 69.7727 25.0475 68.8818 23.7983ZM81.8105 22.355C80.5607 22.3376 79.2949 23.536 79.2637 24.7798H84.3701C84.3684 23.4786 83.1776 22.3749 81.8105 22.355ZM56.5752 0.95166C57.2077 1.10996 57.8547 1.22556 58.4697 1.43311C61.4461 2.43911 63.5877 5.38889 63.7051 8.51221C63.7921 10.8338 63.0573 12.8283 61.4561 14.4917C60.0698 15.9325 58.355 16.7421 56.3574 16.8345C54.7705 16.9072 53.179 16.8768 51.5898 16.8813C49.3051 16.8874 47.021 16.8823 44.7363 16.8823H44.2227C44.4279 16.3249 44.6047 15.8313 44.791 15.3413C45.9576 12.2665 47.0964 9.17953 48.3047 6.12061C49.3547 3.46275 51.2975 1.78191 54.0986 1.12744C54.3918 1.05926 54.6889 1.00999 54.9844 0.95166H56.5752ZM55.8232 3.45752C55.724 3.45752 55.5769 3.56368 55.5322 3.66064C55.4444 3.85226 55.4254 4.07466 55.3564 4.27686C55.1193 4.97055 54.4406 5.15866 53.8809 4.68604C53.6695 4.50728 53.4769 4.30749 53.2451 4.08936L53.2461 4.09033C52.956 4.1585 52.8409 4.32472 52.9727 4.63525C53.0317 4.77313 53.0694 4.92189 53.1035 5.06885C53.2777 5.8217 52.7133 6.3783 51.9658 6.18994C51.8069 6.14983 51.6505 6.09795 51.4961 6.04346C51.3113 5.97755 51.1227 5.95758 51.0674 6.18408C51.041 6.29316 51.1097 6.45004 51.1816 6.55225C51.2657 6.67258 51.4067 6.75333 51.5127 6.86084C51.7769 7.12893 51.9146 7.4449 51.8086 7.82275C51.7063 8.18693 51.4389 8.37995 51.083 8.46631C50.8998 8.51098 50.7073 8.53649 50.5361 8.60986C50.4439 8.64919 50.3232 8.77962 50.3311 8.85693C50.3416 8.96363 50.4417 9.1043 50.54 9.1499C50.7203 9.23247 50.9291 9.25042 51.123 9.3042C51.841 9.50262 52.0661 10.2651 51.5674 10.8188C51.4325 10.9681 51.2597 11.0871 51.1377 11.2446C51.0726 11.3295 51.019 11.5122 51.0645 11.5728C51.1313 11.6618 51.292 11.7274 51.4092 11.7222C51.5804 11.7146 51.75 11.6367 51.9189 11.5845C52.274 11.4756 52.596 11.5312 52.8633 11.7954C53.1337 12.0628 53.1696 12.3903 53.0674 12.7417C53.0219 12.8993 52.9469 13.0545 52.9355 13.2144C52.9274 13.3387 52.9692 13.553 53.0381 13.5757C53.1539 13.6142 53.331 13.5641 53.4424 13.4907C53.5856 13.396 53.6835 13.2342 53.8115 13.1138C54.3638 12.5919 55.1633 12.8217 55.3496 13.5542C55.3965 13.7374 55.408 13.934 55.4844 14.1021C55.529 14.2012 55.6681 14.317 55.7666 14.3179C55.862 14.3194 56.0013 14.2042 56.0469 14.105C56.1249 13.9369 56.142 13.7406 56.1904 13.5581C56.3798 12.8498 57.1684 12.6188 57.707 13.1157C57.8274 13.2263 57.9314 13.3551 58.0449 13.4731C58.1736 13.6064 58.2791 13.7732 58.5176 13.6294C58.7406 13.4954 58.6447 13.3327 58.6016 13.1685C58.5629 13.0223 58.5086 12.88 58.4707 12.7339C58.2813 12.0021 58.8756 11.4112 59.6006 11.6089C59.8073 11.6657 60.011 11.7528 60.2207 11.7681C60.3221 11.7749 60.4618 11.6672 60.5293 11.5718C60.5656 11.5203 60.5132 11.3636 60.4541 11.2954C60.3064 11.1242 60.1184 10.9871 59.9707 10.8159C59.5197 10.2933 59.7245 9.57312 60.3818 9.36182C60.5976 9.29218 60.8271 9.26441 61.0361 9.18115C61.1263 9.14479 61.2427 9.00994 61.2344 8.93115C61.2236 8.82514 61.1259 8.6838 61.0283 8.63916C60.8482 8.55672 60.6393 8.54083 60.4463 8.48486C59.7374 8.27887 59.5189 7.56078 60.001 6.99951C60.1396 6.83816 60.3331 6.71857 60.4551 6.54736C60.5216 6.45423 60.5403 6.26967 60.4912 6.17041C60.4533 6.09466 60.2695 6.04469 60.1611 6.05908C59.9513 6.08788 59.7518 6.1882 59.542 6.22607C58.8672 6.34939 58.3662 5.85474 58.4844 5.18213C58.5192 4.98531 58.5762 4.78957 58.6436 4.60107C58.7109 4.41102 58.7213 4.22722 58.501 4.17725C58.3814 4.15026 58.2112 4.21797 58.1045 4.29736C57.9553 4.40795 57.8572 4.58436 57.7148 4.70557C57.2081 5.13432 56.5441 4.98018 56.2881 4.36963C56.1965 4.15079 56.1699 3.90468 56.0791 3.68506C56.0375 3.58599 55.9118 3.45869 55.8232 3.45752Z" fill="url(#paint0_linear_32727_81215)"/>
<defs>
<linearGradient id="paint0_linear_32727_81215" x1="82.4076" y1="0.95166" x2="82.9125" y2="37.0516" gradientUnits="userSpaceOnUse">
<stop stop-color="white"/>
<stop offset="1" stop-color="white" stop-opacity="0.6"/>
</linearGradient>
</defs>
</svg>
