<svg width="172" height="24" viewBox="0 0 172 24" fill="none" xmlns="http://www.w3.org/2000/svg">
<path d="M31.9658 0.602539C31.9319 0.792542 31.9157 0.937216 31.8789 1.07715C30.5965 5.85017 29.3137 10.622 28.0283 15.3936C27.2839 18.1559 26.5349 20.9188 25.7891 23.6797H0.875C0.907398 23.438 0.914674 23.1889 0.976562 22.9561C2.92385 15.6755 4.87542 8.39777 6.83008 1.12012C6.87872 0.937327 6.96154 0.761743 7.02051 0.602539H31.9658ZM171.871 0.599609C171.821 0.836928 171.791 1.0257 171.741 1.20996C170.176 7.04887 168.611 12.8882 167.038 18.7256C166.593 20.3795 166.128 22.0278 165.674 23.6787V23.6797H27.8477C27.8919 23.4645 27.923 23.2464 27.9805 23.0342C29.9175 15.7992 31.856 8.56404 33.7959 1.3291C33.8637 1.07567 33.959 0.830945 34.0371 0.599609H171.871ZM10.6973 10.749C10.429 11.7381 10.1084 12.646 9.95215 13.582C9.84159 14.2439 9.83302 14.9696 9.98633 15.6182C10.4094 17.4121 12.0886 18.4103 13.5332 18.3926C15.6426 18.366 17.7534 18.3882 19.8643 18.3838C20.0308 18.3838 20.1961 18.3483 20.3906 18.3262C20.625 17.374 20.9728 16.4732 21.1025 15.4443H12.5664C12.988 13.8449 13.389 12.3219 13.8047 10.749H10.6973ZM104.072 6.93652C102.566 6.29833 101.009 6.25565 99.4805 6.83789C97.1042 7.74152 95.6719 9.47983 95.2871 11.9902C94.957 14.1555 95.832 16.2634 98.0605 17.2217C98.8006 17.5386 99.5604 17.6659 100.354 17.6113L100.354 17.6094C100.698 17.6094 101.041 17.6128 101.385 17.6084C101.482 17.6084 101.581 17.589 101.676 17.5654C104.195 16.9507 105.89 15.4424 106.621 12.9336C107.363 10.3878 106.292 7.87701 104.072 6.93652ZM117.084 17.459C118.108 17.4781 119.076 17.4826 120.025 17.4619C120.385 16.1411 120.719 14.9158 121.069 13.626V13.625C122.842 13.5867 124.527 13.6429 126.206 13.5928C126.432 12.7467 126.632 11.9945 126.857 11.1514H121.735C121.92 10.4526 122.077 9.84928 122.248 9.20215H127.931C128.166 8.33116 128.388 7.51635 128.618 6.66895H119.984C119.019 10.2627 118.06 13.8283 117.084 17.459ZM106.924 17.4482H109.856V17.4473C110.215 16.1502 110.56 14.906 110.921 13.5986H116.05C116.266 12.763 116.465 11.9962 116.679 11.168C115.76 11.168 114.927 11.1749 114.095 11.166C113.275 11.1572 112.451 11.2085 111.562 11.126C111.754 10.4392 111.916 9.8569 112.092 9.22754H117.761C117.995 8.36076 118.216 7.54112 118.452 6.66992H109.821C108.86 10.2459 107.898 13.8251 106.924 17.4482ZM51.834 6.66016C51.1985 8.48579 49.0224 16.7908 49.0156 17.4365H57.6055C57.8221 16.6481 58.0386 15.8612 58.2803 14.9814H52.4531C52.6344 14.3343 52.788 13.7822 52.959 13.1689H58.1436C58.3514 12.3775 58.5382 11.6578 58.752 10.8428H53.583C53.692 10.4259 53.7695 10.1 53.8623 9.77734C54.0554 9.10367 54.0591 9.09963 54.7607 9.09668H59.752C59.8876 8.63528 60.0013 8.26164 60.1045 7.88574C60.212 7.49526 60.3079 7.1032 60.4229 6.6582H51.834V6.66016ZM59.3203 17.4355H67.4766C67.6991 16.5909 67.915 15.7712 68.1494 14.8838C67.243 14.8838 66.4133 14.8926 65.582 14.8809C64.736 14.8691 63.8839 14.9307 62.9893 14.8379C63.6688 12.0624 64.4823 9.40768 65.1309 6.65723H62.2178V6.65527C61.2478 10.2624 60.2888 13.8299 59.3203 17.4355ZM86.5381 6.62891C85.944 6.61859 85.941 6.63474 85.7715 7.25977C85.3647 8.74704 84.9566 10.2344 84.5557 11.7246C84.0471 13.6143 83.5457 15.5056 83.0312 17.4336H85.959C86.2597 16.3591 86.5543 15.3063 86.8506 14.2451C87.104 14.226 87.2987 14.2277 87.4873 14.1953C88.068 14.0966 88.3732 14.3418 88.5811 14.8916C88.9068 15.7568 89.317 16.591 89.6914 17.4355H92.9248C92.3809 16.2356 91.8577 15.0813 91.3447 13.9521C91.4188 13.8675 91.4447 13.8187 91.4854 13.7998C91.6399 13.7262 91.7961 13.6575 91.958 13.5986C93.547 13.0149 94.4466 11.8855 94.5439 10.1934C94.597 9.26762 94.383 8.38995 93.6504 7.7207C92.968 7.09738 92.1382 6.7982 91.2422 6.75391C89.6768 6.67726 88.1065 6.65839 86.5381 6.62891ZM141.947 6.62891C141.49 6.64659 141.021 6.54158 140.562 6.72852C139.605 10.287 138.653 13.8329 137.686 17.4297H140.595C141.149 15.388 141.696 13.374 142.243 11.3604C142.296 11.3604 142.348 11.3608 142.4 11.3594C143.357 13.3891 144.314 15.4187 145.256 17.4189H147.888C148.853 13.8208 149.808 10.2637 150.773 6.66699H147.873C147.681 7.3554 147.497 8.0144 147.315 8.6748C147.134 9.33667 146.978 10.0062 146.771 10.6592C146.573 11.2856 146.533 11.971 146.138 12.6387C145.171 10.572 144.249 8.60564 143.322 6.62598C142.827 6.62598 142.388 6.61272 141.947 6.62891ZM75.4492 6.6748V6.67578C74.4881 10.2474 73.5261 13.8222 72.5547 17.4277H75.4941C75.7816 16.393 76.0612 15.3892 76.3486 14.3574C76.8204 14.3574 77.2114 14.3737 77.6006 14.3545C78.2594 14.3221 78.9242 14.3106 79.5742 14.2148C81.6954 13.9038 83.1233 12.5665 83.4609 10.8389C83.8309 8.94611 82.9394 7.38239 81.0791 6.90625C80.5617 6.7736 80.018 6.69785 79.4844 6.68457C78.1665 6.65361 76.8452 6.6748 75.4492 6.6748ZM127.257 17.4268H135.993C136.201 16.6189 136.4 15.8474 136.612 15.0264C134.662 14.9497 132.784 15.0587 130.832 14.96C131 14.3234 131.14 13.7854 131.302 13.1709L131.304 13.1719H136.48C136.71 12.4055 136.95 11.7024 137.072 10.8623H131.955C132.054 10.4365 132.12 10.102 132.21 9.77344C132.378 9.15284 132.43 9.10648 133.065 9.10059C134.169 9.09174 135.275 9.09766 136.379 9.09766C136.821 9.09766 137.263 9.09767 137.704 9.09473C137.936 9.09473 138.148 9.06116 138.221 8.78711C138.406 8.08985 138.594 7.39224 138.789 6.66992H130.149C129.182 10.2638 128.224 13.8285 127.257 17.4268ZM99.7627 9.63574C100.414 9.13602 101.179 8.93536 101.983 9.12109C103.229 9.40712 103.871 10.3582 103.812 11.6064C103.774 12.7739 103.3 13.721 102.389 14.458C101.686 15.0269 100.873 15.1194 100.027 14.9854C99.1695 14.8498 98.4184 14.0659 98.3047 13.1904C98.1175 11.7385 98.5953 10.532 99.7627 9.63574ZM15.0928 13.3564C16.4947 13.3535 17.8275 13.3688 19.1748 13.3467C19.418 12.4388 19.6358 11.622 19.8701 10.751H15.7949C15.5665 11.5999 15.3404 12.4383 15.0928 13.3564ZM66.751 12.9883H71.7705C72.0019 12.1893 72.2652 11.4417 72.3359 10.6045H67.4072C67.1891 11.3976 66.9824 12.148 66.751 12.9883ZM77.7236 9.15039C78.3236 9.05457 78.8769 9.03239 79.4297 9.16211C79.9647 9.28739 80.3919 9.55904 80.4951 10.1367C80.6027 10.744 80.3924 11.265 79.875 11.5996C79.5743 11.7942 79.22 11.9778 78.8721 12.0176C78.2751 12.0853 77.665 12.0371 76.9648 12.0371V12.0352C77.2287 11.03 77.4745 10.0981 77.7236 9.15039ZM88.2627 9.21289C88.9909 9.21289 89.6987 9.18975 90.4033 9.2207C90.9324 9.24436 91.3374 9.51529 91.4922 10.0488C91.6455 10.581 91.4228 11.0037 91.0352 11.3516C90.6563 11.6906 90.1847 11.8514 89.6953 11.8809C89.0174 11.9206 88.3351 11.8916 87.6631 11.8916C87.5555 11.3919 87.7866 10.3656 88.2627 9.21289ZM11.2715 8.59277H23.0029C23.1415 8.09895 23.279 7.63235 23.4043 7.16211C23.5281 6.70091 23.6399 6.23818 23.7637 5.75488H12.0459C11.7894 6.69534 11.5398 7.61252 11.2715 8.59277Z" fill="url(#paint0_linear_32727_80632)"/>
<defs>
<linearGradient id="paint0_linear_32727_80632" x1="117.379" y1="14.5459" x2="117.379" y2="20.794" gradientUnits="userSpaceOnUse">
<stop stop-color="white"/>
<stop offset="1" stop-color="white" stop-opacity="0.6"/>
</linearGradient>
</defs>
</svg>
