<svg width="144" height="22" viewBox="0 0 144 22" fill="none" xmlns="http://www.w3.org/2000/svg">
<path d="M32.2256 6.26367C36.832 6.26367 39.9785 9.70208 39.9785 14.0166C39.9784 18.3308 36.8319 21.8018 32.2256 21.8018C27.6194 21.8017 24.4728 18.3308 24.4727 14.0166C24.4727 9.70213 27.6193 6.26376 32.2256 6.26367ZM84.584 6.26367C86.8869 6.2638 88.574 7.23654 89.6445 8.69629V6.58789H92.4014V21.4775H89.6445V19.3691C88.574 20.8289 86.8868 21.8016 84.584 21.8018C80.1398 21.8018 77.1875 18.2658 77.1875 14.0488C77.1875 9.79916 80.1398 6.26367 84.584 6.26367ZM136.24 6.26367C140.717 6.26371 143.507 9.67 143.507 13.5303C143.507 13.9193 143.506 14.3089 143.474 14.7305H131.764C132.023 17.3254 133.71 19.2715 136.402 19.2715C138.316 19.2714 140.003 18.2333 140.847 16.7412L143.149 18.1357C141.69 20.439 139.354 21.8017 136.402 21.8018C131.731 21.8018 128.844 18.3308 128.844 14.0166C128.844 9.70208 131.699 6.26367 136.24 6.26367ZM50.5537 9.15137H45.4287V21.4785H42.5742V6.58887H50.5537V9.15137ZM100.178 6.58887H104.881V9.15137H100.178V18.916H104.881V21.4785H97.3232V9.15137H94.6953V6.58887H97.3232V0.198242H100.178V6.58887ZM120.896 19.2402L125.534 6.58887H128.422L122.81 21.4785H118.917L113.305 6.58887H116.257L120.896 19.2402ZM69.6309 6.26367C72.68 6.26367 74.7559 8.14526 74.7559 11.9082V21.4775H71.9014V12.4268C71.9013 9.89668 70.4418 8.92383 68.8848 8.92383C67.0033 8.92383 65.2843 10.2858 65.2842 12.751V21.4775H62.4287V12.4268C62.4287 9.89668 60.9693 8.92383 59.4121 8.92383C57.5307 8.92391 55.8116 10.2859 55.8115 12.751V21.4775H52.957V6.58789H55.6172V8.76074C56.6553 7.00946 58.3096 6.26377 60.1582 6.26367C62.2342 6.26367 63.9536 7.17164 64.7324 9.02051C65.7706 7.10669 67.6522 6.26367 69.6309 6.26367ZM110.854 21.4766H108V6.58691H110.854V21.4766ZM13.4238 10.8945L18.8984 16.9844V0.233398H21.7129V21.4619H10.293V19.0439H17.0938L11.2725 12.8164L3.41699 4.21289V21.4619H0.484375V0.233398H3.71191L13.4238 10.8945ZM32.2256 8.82617C29.3062 8.82626 27.3926 11.1297 27.3926 14.0166C27.3927 16.9034 29.3063 19.2392 32.2256 19.2393C35.145 19.2393 37.0595 16.9035 37.0596 14.0166C37.0596 11.1296 35.1451 8.82617 32.2256 8.82617ZM85.0049 8.82617C82.0533 8.82637 80.1064 11.1297 80.1064 14.0166C80.1066 16.9034 82.0533 19.2391 85.0049 19.2393C87.9243 19.2393 89.8065 16.9035 89.8066 14.0166C89.8066 11.1296 87.9244 8.82617 85.0049 8.82617ZM136.272 8.76074C134.067 8.76075 132.282 9.99409 131.828 12.3945H140.717C140.328 10.0589 138.543 8.76074 136.272 8.76074ZM110.854 3.11816H108V0.198242H110.854V3.11816Z" fill="url(#paint0_linear_32727_80837)"/>
<defs>
<linearGradient id="paint0_linear_32727_80837" x1="133.562" y1="0.198242" x2="133.562" y2="15.1819" gradientUnits="userSpaceOnUse">
<stop stop-color="white"/>
<stop offset="1" stop-color="white" stop-opacity="0.6"/>
</linearGradient>
</defs>
</svg>
