<svg width="165" height="24" viewBox="0 0 165 24" fill="none" xmlns="http://www.w3.org/2000/svg">
<mask id="mask0_32727_81295" style="mask-type:luminance" maskUnits="userSpaceOnUse" x="0" y="0" width="165" height="24">
<path d="M164.282 0.0107422H0.796875V23.9886H164.282V0.0107422Z" fill="white"/>
</mask>
<g mask="url(#mask0_32727_81295)">
<mask id="mask1_32727_81295" style="mask-type:luminance" maskUnits="userSpaceOnUse" x="0" y="0" width="165" height="24">
<path d="M164.298 0.0107422H0.8125V23.9886H164.298V0.0107422Z" fill="white"/>
</mask>
<g mask="url(#mask1_32727_81295)">
<path d="M20.4864 0.109375C12.8179 0.109375 10.2915 7.0734 8.75 12.7801C10.1903 14.5512 11.1674 16.7273 11.3698 19.0046C12.086 14.1542 14.2893 6.37662 17.0998 4.44974C18.7309 3.33641 20.4864 3.42205 20.4864 3.42205C20.4359 3.42205 20.5371 0.109375 20.4864 0.109375Z" fill="white"/>
<path d="M11.4491 21.8071H6.92578V23.9481H11.4491V21.8071Z" fill="#B3B3B3"/>
<path d="M3.91109 9.19861C3.87995 9.18694 3.8488 9.17526 3.82156 9.16359C3.66195 9.1052 3.49846 9.05458 3.33887 9.00399C3.21819 8.96506 3.09751 8.93002 2.97295 8.89888C2.81724 8.85995 2.65764 8.82103 2.49803 8.78599C2.38515 8.76264 2.26836 8.74317 2.15159 8.7276C1.98031 8.70035 1.80903 8.6731 1.63775 8.65364C1.36526 8.62639 1.09277 8.60693 0.8125 8.60693V12.1843C2.95737 12.1843 4.89205 13.609 5.95475 15.6176C6.47249 16.6804 6.7761 17.856 6.81504 19.0082H11.3851C10.9958 14.66 7.80379 10.6623 3.91887 9.20251" fill="#E3E3E3"/>
<path d="M103.531 3.80371C107.404 3.80377 110.328 6.09286 111.169 9.47168H108.108C107.408 7.68108 105.73 6.50103 103.531 6.50098C100.581 6.50098 98.5869 8.60777 98.5869 11.5117C98.5871 14.4154 100.585 16.5449 103.531 16.5449C105.73 16.5449 107.404 15.3414 108.108 13.5508H111.169C110.332 16.9295 107.408 19.2187 103.531 19.2188C98.9068 19.2188 95.6409 15.9531 95.6406 11.5117C95.6406 7.07016 98.9067 3.80371 103.531 3.80371ZM145.565 7.43262C148.606 7.43277 150.824 9.26933 151.369 11.9199H148.648C148.174 10.7174 147.041 9.9474 145.565 9.94727C143.596 9.94727 142.257 11.3518 142.257 13.3252C142.257 15.2988 143.593 16.7041 145.565 16.7041C147.041 16.704 148.174 15.9332 148.648 14.7305H151.369C150.824 17.3813 148.602 19.2186 145.565 19.2188C142.027 19.2188 139.535 16.7235 139.535 13.3252C139.535 9.92712 142.032 7.43262 145.565 7.43262ZM43.4004 7.42773C46.9154 7.42773 49.3642 9.80561 49.3643 13.4102V18.918H46.8926V16.7188C46.2114 18.377 44.6931 19.2139 42.9258 19.2139C40.2047 19.2138 37.3477 17.264 37.3477 13.4336C37.3477 9.87586 39.8427 7.42794 43.4004 7.42773ZM87.8066 7.42773C91.3218 7.42773 93.7704 9.80561 93.7705 13.4102V18.918H91.2988V16.7188C90.6176 18.377 89.0994 19.2139 87.332 19.2139C84.6111 19.2139 81.7539 17.264 81.7539 13.4336C81.7539 9.87581 84.249 7.42788 87.8066 7.42773ZM132.229 7.42383C135.763 7.42383 138.213 9.91444 138.213 13.3164V14.2705H129.033C129.395 15.9053 130.641 16.7655 132.229 16.7656C133.428 16.7656 134.312 16.4232 134.88 15.6992H137.761C136.92 17.8324 134.879 19.2139 132.229 19.2139C128.694 19.2137 126.199 16.7223 126.199 13.3203C126.199 10.0247 128.541 7.58404 131.9 7.43457L132.229 7.42383ZM28.1338 10.3477L33.6309 3.63281H37.4102L30.8906 11.1611L31.3457 11.3438C34.2924 12.605 36.6749 15.6924 36.9746 19.04H33.3271C33.3271 16.1829 31.1279 13.6133 28.5586 13.5977L28.1338 13.6055V18.9893H25.1289V3.63281H28.1338V10.3477ZM156.205 2.82617V12.6201L160.65 7.72363H164.095L158.836 13.208L164.298 18.9229H160.787L156.205 13.8662V18.9229H153.508V2.82617H156.205ZM116.064 9.28809C116.765 8.1603 117.826 7.51114 119.133 7.43457L119.397 7.42383C121.982 7.424 124.431 9.10129 124.431 13.0908V18.9189H121.732V13.0908C121.732 10.9618 120.553 9.94238 118.898 9.94238C117.244 9.9425 116.065 11.0047 116.064 13.0908V18.9189H113.367V2.82617H116.064V9.28809ZM56.5059 7.42773C59.4292 7.42773 61.4033 9.03926 61.4033 12.4609V12.5264H58.7295V12.4141C58.7295 10.6001 57.8216 9.94238 56.5059 9.94238C55.1905 9.94253 54.2832 10.6003 54.2832 12.4141V18.918H51.5859V12.4141C51.5859 9.03927 53.5827 7.4279 56.5059 7.42773ZM75.2891 7.42773C77.9397 7.42789 79.9794 9.01554 79.9795 12.5264V18.918H77.2822V12.5264C77.2821 10.6894 76.3087 9.94254 75.0166 9.94238C73.7243 9.94238 72.7706 10.7126 72.7705 12.5264V18.918H70.0723V12.5264C70.0722 10.7126 69.1184 9.94238 67.8066 9.94238C66.495 9.94248 65.5411 10.6894 65.541 12.5264V18.918H62.8438V12.5264C62.8439 9.01548 64.8835 7.42783 67.5342 7.42773C69.2118 7.42773 70.5937 8.12791 71.4111 9.44336C72.2053 8.13153 73.588 7.42773 75.2891 7.42773ZM43.377 9.94238C41.4076 9.9426 40.0686 11.3471 40.0684 13.3203C40.0684 15.2937 41.4037 16.699 43.377 16.6992C45.3467 16.6992 46.6631 15.2939 46.6631 13.3203C46.6629 11.347 45.3465 9.94238 43.377 9.94238ZM87.7832 9.94238C85.8139 9.9426 84.4748 11.3471 84.4746 13.3203C84.4746 15.2937 85.8098 16.699 87.7832 16.6992C89.7529 16.6992 91.0693 15.2939 91.0693 13.3203C91.0691 11.347 89.7528 9.94238 87.7832 9.94238ZM132.229 9.87988C130.707 9.88003 129.532 10.6508 129.1 12.1221H135.354C134.926 10.6273 133.751 9.87988 132.229 9.87988Z" fill="url(#paint0_linear_32727_81295)"/>
</g>
</g>
<defs>
<linearGradient id="paint0_linear_32727_81295" x1="94.8053" y1="2.82617" x2="94.8053" y2="19.2585" gradientUnits="userSpaceOnUse">
<stop stop-color="white"/>
<stop offset="1" stop-color="white" stop-opacity="0.6"/>
</linearGradient>
</defs>
</svg>
