<svg width="146" height="38" viewBox="0 0 146 38" fill="none" xmlns="http://www.w3.org/2000/svg">
<path d="M37.8398 6.19824C38.116 6.86358 37.9487 7.55535 37.9531 8.23535C37.956 8.6538 37.876 9.07374 37.876 9.49219C37.8715 18.3249 37.8721 27.1566 37.8721 35.9893V37.0078C37.473 37.0242 37.1584 37.0479 36.8457 37.0479C25.7801 37.0493 14.7145 37.0508 3.65039 37.0479C2.63305 37.0479 1.61695 37.0328 0.599609 37.0254C0.59812 35.0412 0.597656 33.054 0.597656 31.0684C1.40952 30.8494 2.25122 30.7063 3.02734 30.3965C4.9223 29.6412 6.68946 28.6372 8.3252 27.4111C8.67229 27.1504 9.01186 26.879 9.35449 26.6123C9.39022 26.782 9.33472 26.8773 9.29004 26.9785C8.77761 28.133 8.24632 29.2789 7.76367 30.4453C7.45682 31.1901 7.3936 31.9917 7.48145 32.7871C7.62595 34.104 8.32957 34.9073 9.87891 34.4932C10.1633 34.4172 10.4448 34.3116 10.7129 34.1895C11.854 33.6666 12.8302 32.8891 13.7598 32.0742C16.5724 29.6042 19.3918 27.1379 22.127 24.583C24.4107 22.4512 26.5941 20.2094 28.7959 17.9912C30.3332 16.4419 31.8423 14.861 33.3379 13.2715C34.4089 12.1349 35.4427 10.9642 36.4824 9.79785C36.9263 9.2989 37.507 8.8339 37.7246 8.24414C37.9512 7.63088 37.8179 6.88622 37.8398 6.19824ZM141.337 26.8389C141.967 26.6542 142.607 26.6793 143.244 26.8477C143.502 26.9162 143.636 27.066 143.607 27.3252C143.566 27.699 143.73 28.1133 143.392 28.499C143.176 27.9374 142.959 27.4458 142.344 27.2969C141.855 27.1778 141.375 27.3148 141.094 27.7051C140.838 28.061 140.883 28.5001 141.258 28.9199C141.471 29.1582 141.733 29.3524 141.97 29.5713C142.405 29.9749 142.881 30.3461 143.263 30.7959C144.302 32.0248 143.689 33.8179 142.127 34.1816C141.54 34.3187 140.944 34.2696 140.358 34.1758C139.852 34.0938 139.717 33.9033 139.722 33.3477C139.725 32.9708 139.618 32.5657 139.937 32.1055H139.938C140.049 32.4704 140.11 32.7091 140.192 32.9385C140.35 33.3734 140.688 33.6126 141.121 33.7109C141.693 33.8405 142.236 33.6397 142.51 33.2256C142.833 32.7371 142.734 32.2384 142.397 31.8467C142.016 31.4012 141.523 31.0518 141.099 30.6406C140.799 30.3502 140.482 30.0584 140.259 29.7129C139.493 28.5285 139.984 27.2351 141.337 26.8389ZM57.3496 26.875C57.7324 26.7245 57.8414 26.9776 57.9814 27.1221C59.3653 28.5432 60.7402 29.9733 62.1211 31.4004C62.3251 31.6104 62.5383 31.8119 62.8525 32.1201V27.7148C62.8525 27.4304 62.7234 27.2488 62.4404 27.1758C62.2811 27.1341 62.1263 27.0712 61.9863 26.9238H64.374C63.8958 27.0892 63.7334 27.4158 63.7334 27.8955C63.7334 28.4137 63.652 28.9305 63.6445 29.4502C63.6281 30.791 63.6354 32.1309 63.625 33.4717C63.6235 33.704 63.5801 33.9348 63.5488 34.252C62.8398 33.9749 62.5058 33.4316 62.0664 33.0264C61.6105 32.6063 61.1841 32.1533 60.7461 31.7139C60.326 31.2923 59.897 30.8773 59.4873 30.4453C59.0658 30 58.664 29.535 58.165 28.9824C58.1367 29.2669 58.1079 29.4237 58.1094 29.5801C58.1094 30.5722 58.1171 31.5664 58.123 32.5586C58.123 32.6821 58.1185 32.8072 58.1289 32.9307C58.1825 33.6561 58.3094 33.799 59.1719 33.9941C58.9218 34.0909 58.7892 34.1829 58.6553 34.1875C58.0416 34.2024 57.4276 34.1964 56.8125 34.1875C56.7231 34.1875 56.6347 34.1374 56.4023 34.0674C56.6154 33.9691 56.7049 33.9021 56.8018 33.8887C57.0699 33.8499 57.1846 33.6932 57.21 33.4385C57.2487 33.0453 57.3285 32.652 57.333 32.2588C57.3509 30.7199 57.3466 29.1805 57.3496 27.6416V26.875ZM124.531 26.7822C125.184 26.6542 125.86 26.6577 126.53 27.0107C126.508 27.4768 126.484 27.9489 126.462 28.4209C126.417 28.4269 126.374 28.4345 126.329 28.4404C126.271 28.293 126.216 28.144 126.156 27.998C125.936 27.4528 125.344 27.1367 124.771 27.2559C123.959 27.4243 123.653 28.1634 124.164 28.8262C124.417 29.1539 124.772 29.4015 125.082 29.6846C125.429 30.0003 125.81 30.2863 126.12 30.6348C126.695 31.2858 126.971 32.0384 126.607 32.8936C126.256 33.7172 125.612 34.183 124.714 34.2158C124.203 34.2337 123.688 34.1792 123.179 34.1211C122.87 34.0853 122.708 33.881 122.729 33.5488C122.755 33.0989 122.69 32.6397 122.797 32.2002C122.852 32.1973 122.908 32.1962 122.965 32.1934C123.005 32.3666 123.041 32.5411 123.087 32.7129C123.278 33.4101 123.809 33.7896 124.525 33.7256C124.96 33.6868 125.336 33.5557 125.542 33.1045C125.753 32.6398 125.668 32.2124 125.373 31.8594C125.075 31.502 124.686 31.2221 124.35 30.8945C123.997 30.5519 123.602 30.2308 123.323 29.833C122.404 28.525 122.971 27.0861 124.531 26.7822ZM135.242 28.1631L135.114 28.1943C135.049 28.0871 135.005 27.9559 134.914 27.877C134.756 27.7385 134.579 27.5507 134.395 27.5312C133.936 27.4821 133.467 27.5156 132.958 27.5156V29.96C133.675 30.0225 134.394 30.1194 135.104 29.75V31.2812C134.987 31.2634 134.905 31.2615 134.902 31.248C134.829 30.7314 134.467 30.5703 134.018 30.542C133.679 30.5211 133.34 30.5381 132.926 30.5381C132.926 31.3693 132.905 32.1559 132.942 32.9395C132.951 33.1242 133.121 33.4009 133.28 33.459C133.848 33.6675 134.462 33.7123 134.998 33.3936C135.211 33.2668 135.297 32.9302 135.515 32.5654C135.617 33.0913 135.646 33.4998 135.43 33.8633C135.336 34.0211 135.097 34.1642 134.911 34.1836C134.47 34.2297 134.021 34.2082 133.575 34.1963C132.838 34.1754 132.104 34.0014 131.362 34.1787C131.228 34.2111 131.062 34.1086 130.91 34.0684H130.907C131.579 33.8821 131.677 33.4056 131.676 32.8516C131.673 31.2411 131.67 29.629 131.679 28.0186C131.683 27.2604 131.544 27.2215 130.984 27.0859C130.919 27.0695 130.861 27.025 130.809 26.9014H135.322C135.297 27.308 135.269 27.7356 135.242 28.1631ZM106.531 26.8789C107.251 26.8789 107.972 26.8519 108.689 26.8906C109.077 26.9115 109.481 26.9907 109.837 27.1396C110.601 27.4585 110.98 28.3214 110.732 29.1035C110.637 29.4074 110.501 29.7085 110.328 29.9736C110.154 30.2387 109.91 30.4594 109.616 30.79V30.791C109.869 31.1128 110.095 31.4024 110.321 31.6885C110.644 32.0965 110.956 32.5116 111.294 32.9062C111.735 33.4217 112.241 33.8531 113.123 33.9365C112.873 34.0719 112.772 34.168 112.66 34.1816C111.513 34.3068 110.555 34.0057 109.911 32.9658C109.664 32.5668 109.348 32.2111 109.098 31.8135C108.765 31.2861 108.334 31.0792 107.717 31.2803C107.717 31.9192 107.705 32.5569 107.72 33.1943C107.733 33.7603 107.748 33.757 108.343 33.8955C108.41 33.9105 108.469 33.957 108.596 34.0195C108.088 34.3576 107.614 34.1253 107.152 34.082C106.683 34.0388 106.197 34.3593 105.685 34.0449C105.924 33.8945 106.179 33.8168 106.288 33.6455C106.394 33.4772 106.369 33.2161 106.37 32.9941C106.378 31.381 106.379 29.7694 106.378 28.1562C106.378 27.3086 106.373 27.308 105.613 26.8789H106.531ZM89.8525 26.8828C90.073 26.8843 90.3056 26.893 90.5127 26.957C91.8965 27.392 92.4253 28.6645 91.417 30.0156C91.3142 30.1542 91.1753 30.2645 91.0576 30.3926C90.9578 30.4998 90.8655 30.6131 90.7256 30.7725C91.0727 31.2298 91.4077 31.6845 91.7578 32.127C92.0185 32.4577 92.3002 32.7719 92.5684 33.0967C92.9631 33.5734 93.4878 33.8299 94.2461 33.9863C93.9826 34.0965 93.8705 34.1785 93.7529 34.1875C92.6193 34.2694 91.6404 34.0188 91.0117 32.9492C90.7614 32.5246 90.4242 32.1503 90.1367 31.748C89.7154 31.1586 89.7179 31.1555 88.8184 31.3223C88.8184 32.0165 88.8123 32.7274 88.8213 33.4395C88.8243 33.6986 88.9722 33.8441 89.2344 33.8799C89.367 33.8978 89.4953 33.9444 89.6309 34.0889C89.5281 34.1216 89.4231 34.1861 89.3203 34.1846C88.4936 34.1697 87.6665 34.1425 86.8398 34.1201C86.8116 34.0621 86.7851 34.0053 86.7568 33.9473H86.7539C87.3304 33.9249 87.4896 33.5913 87.4971 33.1191C87.5015 32.8243 87.5732 32.5293 87.5762 32.2344C87.5851 30.9428 87.5836 29.652 87.5791 28.3604C87.5761 27.3805 87.5493 27.3432 86.6094 26.9365C86.8833 26.9127 87.0635 26.8843 87.2451 26.8828C88.1136 26.8783 88.984 26.8754 89.8525 26.8828ZM52.4258 26.8857C52.4645 27.3088 52.511 27.7379 52.2266 28.2012C51.7797 27.0899 50.9051 27.6127 50.126 27.498V29.9561C50.8499 30.0514 51.5305 30.0554 52.2246 29.7754C52.378 30.3071 52.2857 30.7722 52.0996 31.2949C51.7077 30.2869 50.9031 30.5461 50.0898 30.5059C50.0898 31.4056 50.0688 32.2415 50.0986 33.0742C50.1121 33.4377 50.4432 33.5405 50.7471 33.5703C51.5038 33.6433 52.2476 33.6567 52.5977 32.6006C52.7942 33.2142 52.6329 33.6273 52.4824 34.0205C52.4417 34.1246 52.1855 34.1958 52.0293 34.1943C51.313 34.1869 50.5952 34.1424 49.8789 34.126C49.5601 34.1185 49.2392 34.1329 48.9219 34.1582C48.633 34.1806 48.3426 34.254 48.0283 34.041C48.2652 33.898 48.5331 33.8261 48.627 33.6562C48.7371 33.4596 48.7124 33.1769 48.7139 32.9326C48.7228 31.3446 48.7241 29.756 48.7227 28.168C48.7227 27.3149 48.7163 27.315 48 26.8906V26.8857H52.4258ZM82.3535 28.168C82.3103 28.1784 82.2658 28.1878 82.2227 28.1982C82.1706 28.109 82.0962 28.0254 82.0723 27.9287C82.0008 27.6337 81.7856 27.5275 81.5234 27.5186C81.0588 27.5037 80.5924 27.5146 80.0771 27.5146V29.9561C80.8399 30.038 81.5611 30.0867 82.3193 29.7217C82.2717 30.3012 82.2297 30.7935 82.1895 31.2852C81.7291 30.2587 80.8816 30.5532 80.0488 30.4951C80.0146 31.3428 79.979 32.1295 80.0684 32.9102C80.125 33.4001 80.3172 33.537 80.8086 33.5742C81.0306 33.5906 81.256 33.5821 81.4795 33.5791C81.9769 33.5731 82.3523 33.4087 82.4238 32.8457C82.4315 32.7877 82.5074 32.7371 82.5996 32.624C82.7634 32.9711 82.7128 33.2842 82.6592 33.5791C82.5713 34.0616 82.4055 34.2018 81.8916 34.1943C81.1751 34.1839 80.4587 34.1259 79.7422 34.1035C79.4979 34.0961 79.2517 34.132 79.0059 34.1514C78.6741 34.1782 78.3335 34.2755 77.9141 33.9697C78.7412 33.8731 78.7935 33.3528 78.792 32.7832C78.786 31.3188 78.792 29.856 78.792 28.3916C78.792 27.7024 78.4471 27.2053 77.7578 26.9004H82.4385C82.4117 27.3115 82.3833 27.7405 82.3535 28.168ZM74.2891 26.8379C74.3933 27.2997 74.3763 27.738 74.2676 28.3682C73.6658 27.1229 72.7259 27.6265 71.8857 27.5029C71.8589 27.7486 71.8262 27.9157 71.8262 28.0811C71.8232 29.669 71.8202 31.2558 71.8262 32.8438C71.8307 33.6687 71.914 33.7612 72.833 34.001C72.6961 34.0829 72.6097 34.1806 72.5264 34.1777C71.7146 34.1569 70.9041 34.0394 70.0908 34.1719C70.0119 34.1853 69.9192 34.1098 69.7881 34.0576C70.0294 33.8863 70.2965 33.7844 70.4053 33.5938C70.5165 33.3972 70.4708 33.1117 70.499 32.8662C70.6942 31.1144 70.5371 29.3621 70.5996 27.5254C69.9279 27.5254 69.3347 27.4699 68.7598 27.5488C68.4858 27.5863 68.2476 27.8815 68.0078 28.0498C67.9164 27.6873 67.9713 27.2819 68.1719 26.835H74.2891V26.8379ZM99.8555 26.8818C100.791 26.9176 101.53 27.3971 101.724 28.0928C101.971 28.9791 101.53 30.0906 100.733 30.542C100.245 30.8191 99.741 31.0858 98.9648 30.7715C99.7424 30.6121 100.301 30.3244 100.465 29.6943C100.572 29.2832 100.56 28.796 100.451 28.3818C100.253 27.6222 99.6638 27.3186 98.8193 27.457C98.8029 27.6356 98.7696 27.8276 98.7695 28.0195C98.768 29.6806 98.7694 31.3438 98.7754 33.0049C98.7784 33.7746 98.7878 33.7732 99.583 33.9072C99.62 33.9131 99.6497 33.9648 99.7188 34.0283C99.6314 34.082 99.5541 34.1675 99.4785 34.1689C98.5775 34.1779 97.6749 34.1758 96.6846 34.1758C96.7874 34.0208 96.8182 33.9239 96.8555 33.9209C97.3143 33.8926 97.4205 33.6122 97.416 33.21C97.4056 32.3416 97.4184 31.4748 97.4199 30.6064C97.4199 29.7886 97.4204 28.9683 97.4189 28.1504C97.4168 27.5965 97.1323 27.1983 96.5664 26.9561C96.8091 26.9218 96.9566 26.8863 97.1025 26.8848C97.9949 26.8788 98.8889 26.8818 99.7812 26.8818H99.8555ZM115.602 27.0537C116.236 26.8482 117.408 26.8197 118.335 26.9492C118.272 27.0073 118.229 27.0847 118.173 27.0967C117.736 27.189 117.68 27.4921 117.683 27.875C117.695 29.2111 117.685 30.5487 117.685 31.8848C117.685 32.3047 117.681 32.7265 117.693 33.1465C117.711 33.7571 117.716 33.756 118.344 33.8975C118.39 33.9079 118.433 33.9337 118.474 33.959C118.492 33.9694 118.499 33.9947 118.589 34.1348H115.621C115.892 33.8949 116.165 33.7532 116.271 33.5312C116.379 33.3049 116.335 32.9996 116.335 32.7285C116.339 31.1688 116.326 29.6086 116.344 28.0488C116.35 27.5618 116.314 27.1416 115.602 27.0537ZM37.7148 0.949219C37.9099 1.55258 37.9658 4.42649 37.8408 6.19336L37.8398 6.19434C37.8398 6.19564 37.8399 6.19694 37.8398 6.19824C37.8395 6.19729 37.8393 6.19626 37.8389 6.19531C37.6769 6.34354 37.5059 6.48283 37.3574 6.64453C36.4517 7.63066 35.5696 8.64065 34.6445 9.60742C32.7585 11.5813 30.884 13.569 28.9414 15.4863C26.0812 18.3093 23.163 21.0759 20.2715 23.8691C18.5047 25.5764 16.7609 27.3088 14.9688 28.9893C13.9022 29.9888 12.7731 30.9215 11.6455 31.8525C11.3074 32.1326 10.9023 32.3622 10.4912 32.5156C9.80897 32.7689 9.2575 32.4157 9.13379 31.6992C9.10103 31.5101 9.12359 31.3059 9.15039 31.1123C9.28296 30.1426 9.66987 29.2559 10.0557 28.3682C11.1044 25.9548 12.5918 23.8304 14.3154 21.8564C14.7876 21.3157 15.2122 20.7333 15.6338 20.1523C15.8319 19.8782 15.8972 19.5306 15.6797 19.2461C15.4547 18.9498 15.1073 18.9994 14.7871 19.0947C14.6457 19.1364 14.5029 19.1945 14.3809 19.2764C13.9504 19.5668 13.511 19.8467 13.1074 20.1729C10.3887 22.3687 7.68766 24.5886 4.95703 26.7695C4.1839 27.3877 3.34053 27.9197 2.50781 28.459C2.13092 28.7033 1.73427 28.9866 1.21289 28.8809C1.13691 28.4175 1.34596 28.0672 1.53516 27.7305C1.81372 27.2329 2.10274 26.7366 2.44238 26.2793C4.51306 23.4936 6.56566 20.6928 8.68848 17.9473C11.4028 14.4359 14.1798 10.9753 16.9209 7.48633C17.3961 6.88149 17.8508 6.25973 18.2754 5.61914C18.4824 5.308 18.7529 4.964 18.4912 4.52344C18.0041 4.48023 17.6715 4.7649 17.3721 5.04199C15.6054 6.67906 13.9073 8.38612 12.373 10.2451C11.0308 11.8689 9.72818 13.5254 8.40234 15.1641C5.85935 18.3059 3.32578 21.4559 1.1582 24.8809C1.00181 25.1266 0.785313 25.3347 0.597656 25.5596C0.599146 17.3631 0.599609 9.17105 0.599609 0.977539C0.921241 0.967109 1.24478 0.949219 1.56641 0.949219H37.7148ZM122.968 32.1934H122.965V32.1904L122.968 32.1934ZM90.1533 27.7354C89.7719 27.4404 89.3549 27.2765 88.832 27.4463V30.6104L88.834 30.6113C89.1853 30.6113 89.4532 30.6044 89.7197 30.6133C90.0234 30.6237 90.2335 30.4689 90.4062 30.2441C90.8219 29.7049 90.9116 28.3208 90.1533 27.7354ZM109.344 28.0869C109.019 27.4957 108.432 27.2906 107.688 27.4902V30.5674H107.69C108.03 30.5823 108.343 30.601 108.657 30.6084C108.995 30.6172 109.208 30.4275 109.355 30.1445C109.717 29.4563 109.718 28.7647 109.344 28.0869ZM46.3359 4.54199C47.7749 4.53454 49.2154 4.53757 50.6543 4.53906C50.8033 4.53906 50.9591 4.53055 51.0977 4.57227C51.1987 4.60224 51.2763 4.70598 51.4561 4.84863C51.2104 4.92308 51.063 4.98294 50.9111 5.00977C50.4032 5.09914 50.3317 5.16933 50.3555 5.68457C50.3644 5.87965 50.4015 6.07943 50.4551 6.26855C51.0748 8.43603 51.6951 10.6021 52.3252 12.7666C52.6157 13.7662 52.9266 14.7588 53.2305 15.7539C53.2781 15.9103 53.3434 16.061 53.4551 16.3633C53.7649 15.5604 54.0291 14.9006 54.2764 14.2363C55.2894 11.5191 56.299 8.79981 57.3105 6.08105C57.4401 5.7325 57.5523 5.37361 57.7236 5.0459C57.965 4.5811 58.2897 4.58275 58.5117 5.06543C58.8945 5.89798 59.2403 6.74826 59.5918 7.5957C60.7553 10.4128 61.9123 13.2319 63.1279 16.1846C63.2456 15.8866 63.3374 15.7015 63.3955 15.5078C64.2237 12.7312 65.0529 9.95295 65.8662 7.17188C65.9973 6.72507 66.0931 6.25714 66.1289 5.79395C66.1736 5.20853 66.0528 5.10495 65.4854 5.01855C65.2813 4.98728 65.0788 4.94425 64.8584 4.7627C64.9655 4.69265 65.0725 4.56501 65.1797 4.56348C66.5949 4.55007 68.0086 4.55068 69.4238 4.55664C69.5058 4.55664 69.5867 4.63417 69.6582 4.66992C69.6314 4.98562 69.4197 5.01774 69.2246 5.00586C68.5528 4.96713 68.238 5.39111 68.0205 5.92285C67.8134 6.42638 67.6304 6.94256 67.4561 7.45801C66.0677 11.5681 64.6849 15.6814 63.292 19.79C63.1536 20.1996 63.1045 20.6822 62.6133 20.9102C62.2409 20.8223 62.1738 20.472 62.0547 20.1904C61.4276 18.7068 60.8149 17.2157 60.1982 15.7275C59.3342 13.6449 58.4701 11.5617 57.5449 9.33301H57.54C57.1587 10.3042 56.8253 11.1534 56.4932 12.0039C55.5725 14.3591 54.6591 16.7161 53.7295 19.0684C53.5478 19.5286 53.3203 19.9728 53.085 20.4092C52.9762 20.6103 52.7939 20.773 52.6494 20.9473C52.2339 20.7447 52.1857 20.4127 52.0859 20.1133C50.6081 15.6932 49.1341 11.2711 47.6533 6.85254C47.5282 6.47715 47.3651 6.11506 47.2236 5.74414C47.0315 5.24391 46.6712 5.01043 46.1367 5.00586C45.9818 5.00586 45.828 4.92328 45.6328 4.86816C45.7893 4.46324 46.0902 4.54347 46.3359 4.54199ZM115.872 4.39453C117.605 4.08765 119.322 4.17517 121.012 4.68164C124.383 5.69317 126.36 8.48068 126.347 11.8877V12.2363L126.348 12.2383C126.434 13.9528 125.971 15.5903 125.032 17.0605C123.647 19.2308 121.624 20.43 119.078 20.8203C117.576 21.0497 116.113 20.9502 114.679 20.5107C111.83 19.6392 110.063 17.693 109.318 14.8477C108.575 12.0083 109.111 9.40848 110.986 7.1084C112.258 5.54893 113.937 4.73716 115.872 4.39453ZM130.05 4.71387C130.118 4.24026 130.406 4.11354 130.756 4.42773C131.088 4.72568 131.391 5.05661 131.699 5.37988C132.727 6.45542 133.746 7.54031 134.781 8.6084C136.716 10.603 138.665 12.583 140.597 14.5791C141.163 15.163 141.698 15.7781 142.246 16.3799C142.315 16.362 142.382 16.3431 142.45 16.3252L142.455 16.3232C142.404 14.8158 142.343 13.3083 142.305 11.8008C142.276 10.7088 142.285 9.61681 142.255 8.52637C142.233 7.7116 142.217 6.89228 142.119 6.08496C142.022 5.28646 141.707 5.06283 140.88 5.01367C140.625 4.99876 140.372 4.95859 140.055 4.92285C140.226 4.46726 140.527 4.54534 140.772 4.54395C142.212 4.5365 143.651 4.53953 145.092 4.54102C145.215 4.54101 145.345 4.53413 145.461 4.56836C145.541 4.5922 145.674 4.70509 145.662 4.7334C145.625 4.8301 145.551 4.94903 145.463 4.98047C145.327 5.02814 145.169 5.00314 145.021 5.01953C144.408 5.09256 144.126 5.35801 144.083 5.96875C144.019 6.88182 143.955 7.79833 143.941 8.71289C143.915 10.5734 143.938 12.4354 143.913 14.2959C143.886 16.2281 143.825 18.1606 143.779 20.0928C143.776 20.2164 143.782 20.3447 143.754 20.4639C143.664 20.8405 143.415 20.9458 143.094 20.7402C142.949 20.6479 142.821 20.5244 142.699 20.4023C139.997 17.7 137.286 15.0064 134.6 12.2861C133.73 11.4058 132.928 10.4587 132.102 9.53516C131.923 9.33553 131.767 9.11291 131.602 8.90137C131.542 8.93559 131.482 8.97164 131.423 9.00586C131.423 9.41552 131.414 9.82523 131.425 10.2334C131.468 11.7931 131.512 13.3544 131.564 14.9141C131.606 16.152 131.66 17.389 131.715 18.627C131.721 18.7729 131.77 18.9176 131.794 19.0635C131.935 19.9331 132.365 20.0522 133.062 20.1729C133.315 20.2161 133.615 20.082 133.859 20.4053C133.743 20.4872 133.646 20.5797 133.531 20.6289C133.445 20.6661 133.336 20.6514 133.236 20.6514C131.703 20.6543 130.172 20.5839 128.639 20.6465C128.402 20.6569 128.128 20.6971 127.98 20.292C128.167 20.2518 128.337 20.1936 128.51 20.1816C129.549 20.1175 129.748 19.7539 129.762 18.9883C129.786 17.6776 129.865 16.3669 129.889 15.0547C129.915 13.5666 129.892 12.0765 129.914 10.5869C129.944 8.70391 129.999 6.82051 130.042 4.9375C130.043 4.86301 130.038 4.78686 130.05 4.71387ZM74.8291 4.32031C75.0064 4.04024 75.2183 4.03993 75.418 4.30957C75.5475 4.48524 75.6451 4.69253 75.7285 4.89648C77.0082 8.06964 78.2794 11.2463 79.5605 14.418C80.0804 15.705 80.6181 16.9845 81.1484 18.2686C81.1767 18.3371 81.2094 18.4046 81.2422 18.4717C81.9692 19.9434 83.0376 20.4687 84.6465 20.1484C85.2185 20.0337 85.4361 19.8341 85.4912 19.2725C85.5627 18.5337 85.6386 17.792 85.6416 17.0518C85.658 13.6745 85.6495 10.2981 85.6465 6.9209C85.6465 6.62468 85.6376 6.32393 85.5811 6.03516C85.4365 5.28879 85.2063 5.10203 84.4346 5.01562C84.18 4.98751 83.8823 5.0977 83.6426 4.77344H83.6396C84.0836 4.51274 85.937 4.44865 89.7061 4.54102C89.9398 4.54688 90.2171 4.46477 90.3779 4.81152C90.2573 4.87558 90.1432 4.97128 90.0166 4.99512C89.8232 5.02925 89.6208 5.00218 89.4229 5.02148C88.8314 5.07958 88.5969 5.28887 88.4941 5.88477C88.4316 6.24961 88.3697 6.62046 88.3682 6.98828C88.3577 10.1912 88.3542 13.3947 88.3691 16.5977C88.3722 17.1889 88.4483 17.7833 88.5332 18.3701C88.5987 18.8258 88.8951 19.1457 89.3447 19.2441C90.5946 19.5183 91.8586 19.5474 93.1055 19.2539C93.8116 19.087 94.1064 18.4948 94.2822 17.8408C94.3358 17.6428 94.4011 17.4476 94.5127 17.083C94.6587 17.3497 94.7504 17.4437 94.7578 17.542C94.8174 18.3642 94.711 19.1748 94.5039 19.9688C94.3535 20.545 94.2086 20.6543 93.6113 20.6543C91.724 20.6558 89.835 20.7018 87.9521 20.6064C87.0062 20.5588 86.0781 20.6751 85.1396 20.6572C83.2358 20.62 81.3302 20.6496 79.4248 20.6377C79.0912 20.6362 78.7575 20.5628 78.3613 20.5137C78.5341 20.195 78.7395 19.9821 78.7471 19.7617C78.7545 19.5086 78.592 19.2478 78.4951 18.9932C78.0721 17.8804 77.6287 16.776 77.2324 15.6543C77.0909 15.2552 76.8777 15.124 76.4697 15.1299C75.1796 15.1492 73.8873 15.1478 72.5957 15.1299C72.213 15.1255 72.0001 15.2716 71.875 15.623C71.516 16.627 71.1394 17.6235 70.7744 18.626C70.7148 18.7884 70.6625 18.9571 70.6387 19.127C70.53 19.8925 70.713 20.1126 71.4756 20.1797C71.6558 20.1961 71.8317 20.2489 72.1758 20.3174C71.9258 20.49 71.829 20.5887 71.7129 20.6289C71.6012 20.6676 71.4664 20.6475 71.3428 20.6475C69.9574 20.6475 68.5719 20.6519 67.1865 20.6475C66.9304 20.6475 66.6311 20.7133 66.4688 20.3057C66.643 20.2595 66.7934 20.1871 66.9453 20.1826C67.8868 20.1558 68.5487 19.7364 68.9062 18.8516C69.52 17.335 70.1436 15.8223 70.7529 14.3027C71.9715 11.2652 73.1818 8.22308 74.4004 5.18555C74.5195 4.88773 74.6579 4.59133 74.8291 4.32031ZM94.4951 4.29883C96.5584 4.76213 98.6652 4.50867 100.76 4.5459C102.842 4.58314 104.927 4.54861 107.011 4.53223C107.35 4.52925 107.689 4.45429 108.02 4.41406C108.163 4.80884 108.258 6.79376 108.149 7.30176C108.123 7.42838 108.013 7.53903 107.887 7.74609C107.79 7.53766 107.704 7.42095 107.685 7.2959C107.567 6.52425 107.103 6.12194 106.353 6.01465C106.061 5.97294 105.767 5.92562 105.474 5.90625C104.635 5.8556 103.794 5.81459 102.954 5.77734C102.836 5.77144 102.717 5.80049 102.552 5.81836L102.557 5.82129C102.542 6.09076 102.519 6.33203 102.518 6.57324C102.518 10.0458 102.508 13.5186 102.526 16.9912C102.529 17.7315 102.6 18.4751 102.685 19.2109C102.735 19.6563 102.958 20.0046 103.475 20.0537C103.768 20.082 104.062 20.1316 104.354 20.1777C104.511 20.2031 104.668 20.2418 104.95 20.2998C104.754 20.4606 104.664 20.584 104.55 20.6152C104.388 20.6614 104.206 20.6465 104.033 20.6465C102.304 20.6465 100.574 20.5592 98.8428 20.6426C98.5672 20.656 98.2397 20.7315 98.0684 20.377C98.1995 20.0899 98.4552 20.2011 98.6562 20.1699C99.3981 20.0537 99.6012 19.8659 99.6533 19.124C99.7204 18.1617 99.7899 17.1976 99.7959 16.2354C99.8138 13.0356 99.8037 9.83741 99.8037 6.6377V5.82227C98.9471 5.85057 98.187 5.87907 97.4258 5.89844C96.979 5.91035 96.5322 5.89077 96.0869 5.91309C95.2899 5.95182 94.6387 6.21874 94.3721 7.06641C94.3244 7.21683 94.2023 7.34504 94.043 7.59375C93.9476 7.33156 93.8611 7.1866 93.8477 7.03613C93.8002 6.52046 94.2136 4.79852 94.4951 4.29883ZM120.458 6.38184C118.766 5.21096 116.924 4.99212 115.021 5.76367C113.552 6.35807 112.759 7.57935 112.365 9.05566C111.92 10.7301 111.873 12.4405 112.235 14.1328C112.623 15.9428 113.387 17.5668 114.948 18.6855C116.286 19.6449 117.808 19.9534 119.403 19.6719C121.085 19.3753 122.153 18.2875 122.738 16.71C123.175 15.5361 123.347 14.3174 123.388 13.0615L123.387 13.0645C123.318 12.4269 123.284 11.7819 123.177 11.1504C122.849 9.2362 122.117 7.52894 120.458 6.38184ZM72.5527 13.8799H76.5547C75.9096 12.1041 75.2897 10.3953 74.6699 8.68652C74.6148 8.68057 74.558 8.6749 74.5029 8.66895C73.8594 10.3866 73.2171 12.1042 72.5527 13.8799Z" fill="url(#paint0_linear_32727_81239)"/>
<defs>
<linearGradient id="paint0_linear_32727_81239" x1="135.576" y1="0.949219" x2="135.576" y2="25.9876" gradientUnits="userSpaceOnUse">
<stop stop-color="white"/>
<stop offset="1" stop-color="white" stop-opacity="0.6"/>
</linearGradient>
</defs>
</svg>
