<svg width="121" height="28" viewBox="0 0 121 28" fill="none" xmlns="http://www.w3.org/2000/svg">
<path d="M87.3574 8.60059C90.845 6.77051 94.4663 6.73766 97.9746 8.48145C99.9742 9.47546 100.992 11.3526 101.18 13.5732C101.303 15.0233 101.261 16.4882 101.267 17.9463C101.278 20.6345 101.259 23.3216 101.279 26.0098C101.284 26.5557 101.107 26.7714 100.552 26.7461C99.8056 26.7116 99.0549 26.7188 98.3076 26.7441C97.8147 26.7614 97.6269 26.5757 97.6211 26.0771C97.6073 24.619 97.5551 23.1603 97.5205 21.7021C97.5148 21.4449 97.5205 21.1864 97.5205 20.7646C97.254 21.6672 97.1059 22.4254 96.8115 23.1201C95.7173 25.7001 93.6069 26.9324 90.9395 27.2158C89.3214 27.3886 87.6821 27.3441 86.1504 26.583C84.2902 25.6604 83.3693 24.1554 83.3555 22.1133C83.3406 20.0367 84.2321 18.4517 86.1094 17.4854C87.5317 16.7529 89.0753 16.6172 90.6416 16.5918C91.7727 16.5734 92.9054 16.557 94.0342 16.4971C94.5663 16.4683 95.1122 16.4026 95.6201 16.2471C97.4663 15.6838 98.0882 13.8264 96.9941 12.2197C96.5035 11.4988 95.8553 10.987 95.0078 10.7324C93.6717 10.3316 92.3121 10.2791 90.9668 10.5947C88.8832 11.0831 87.7649 12.5329 87.3398 14.5508C87.2189 15.1242 86.9828 15.3138 86.4199 15.2852C85.654 15.2448 84.8831 15.2496 84.1172 15.2842C83.5667 15.3095 83.4019 15.0899 83.4629 14.5693C83.7727 11.9305 84.9985 9.83993 87.3574 8.60059ZM28.7227 7.58496C30.8166 7.10006 32.9269 7.11617 34.9414 7.97656C38.3482 9.43241 40.0458 12.1207 40.3926 15.7383C40.4398 16.2334 40.4381 16.7358 40.4404 17.2344C40.4427 17.9957 40.4146 18.0184 39.6719 18.0195H32.9922C30.7279 18.0195 28.4635 18.0318 26.1992 18.0088C25.6844 18.003 25.555 18.1439 25.5977 18.668C25.9664 23.0884 30.203 25.5654 34.0684 23.582C35.2855 22.9578 36.087 21.9424 36.4844 20.6377C36.6157 20.2081 36.8244 20.0534 37.2607 20.0684C38.0463 20.0949 38.8356 20.0972 39.6211 20.0684C40.1336 20.0488 40.2567 20.2514 40.1611 20.7236C39.7143 22.9315 38.5097 24.5992 36.6543 25.8535C33.3855 28.0627 27.0483 27.8474 24.1445 24.4082C23.2749 23.3785 22.6259 22.2327 22.3057 20.9277C21.5996 18.0438 21.5836 15.1803 22.7939 12.4092C23.9365 9.79227 25.9825 8.21846 28.7227 7.58496ZM109.982 7.37207C112.232 7.17742 114.441 7.31045 116.49 8.37695C118.492 9.41929 119.649 11.054 119.842 13.3379C119.883 13.8285 119.741 14.0456 119.218 14.0283C118.355 14.0007 117.49 14.0102 116.627 14.0332C116.291 14.0423 116.158 13.9222 116.088 13.5977C115.65 11.5774 114.629 10.6775 112.568 10.416C111.251 10.249 109.963 10.3028 108.726 10.8223C108.067 11.0987 107.526 11.522 107.295 12.2314C106.946 13.306 107.422 14.4127 108.602 14.8262C109.879 15.2742 111.23 15.5129 112.544 15.8584C114.025 16.2489 115.534 16.5652 116.971 17.0801C118.634 17.6767 119.81 18.7851 120.001 20.6982C120.234 23.0214 119.488 24.8515 117.434 26.0586C115.719 27.0664 113.84 27.3388 111.914 27.2432L111.916 27.2451C109.938 27.3303 108.058 27.0566 106.319 26.1133C104.371 25.0559 103.3 23.4014 102.996 21.2188C102.929 20.7431 103.076 20.5442 103.57 20.5557C104.453 20.5775 105.336 20.5709 106.219 20.5605C106.555 20.556 106.782 20.6617 106.841 21.0117C107.17 22.9904 108.53 23.8386 110.34 24.1357C111.637 24.3488 112.942 24.3538 114.216 23.96C114.559 23.854 114.897 23.6952 115.201 23.5029C116.01 22.9927 116.348 22.2368 116.235 21.29C116.121 20.3355 115.475 19.8314 114.628 19.6172C112.695 19.13 110.747 18.6979 108.804 18.251C107.387 17.925 106.045 17.4489 104.936 16.4551C102.899 14.6283 102.907 11.2359 104.949 9.38379C106.38 8.08586 108.105 7.53448 109.982 7.37207ZM57.4033 0.719727C58.266 0.743915 59.1314 0.739933 59.9941 0.722656C60.3706 0.714664 60.4951 0.84736 60.4824 1.22852C60.4525 2.0887 60.4446 2.95117 60.4688 3.8125C60.4814 4.25464 60.2912 4.39042 59.8906 4.38477C59.1236 4.3744 58.3549 4.37953 57.5879 4.38184C57.4416 4.38184 57.2953 4.39491 57.0938 4.40527L57.0889 4.40332C58.145 5.48598 59.1508 6.48598 60.1113 7.52832C60.3313 7.7679 60.5135 8.15183 60.5146 8.46973C60.5388 14.3255 60.5272 20.1804 60.541 26.0361C60.5421 26.5496 60.4038 26.7703 59.8604 26.7461C59.0564 26.7115 58.2486 26.7247 57.4424 26.7432C56.9877 26.7535 56.7908 26.6025 56.793 26.1133C56.8137 18.7797 56.8207 11.4459 56.8311 4.1123C56.8322 3.17128 56.8429 2.23107 56.8291 1.29004C56.8223 0.874497 56.9751 0.70825 57.4033 0.719727ZM3.67383 0.700195C4.16094 0.68177 4.40303 0.857901 4.56543 1.29883C5.28641 3.26251 6.02692 5.21963 6.76172 7.17871C8.42032 11.5994 10.0803 16.0208 11.7412 20.4414C12.4368 22.2921 13.1381 24.1394 13.8291 25.9912C14.0837 26.6708 14.0345 26.7329 13.2881 26.7363C12.3667 26.7409 11.4449 26.7234 10.5234 26.7441C10.1114 26.7532 9.89731 26.5824 9.75684 26.2061C6.71837 18.0801 3.674 9.95732 0.624023 1.83594C0.538818 1.60795 0.393657 1.40183 0.277344 1.18652V0.725586C1.40951 0.720979 2.54282 0.742802 3.67383 0.700195ZM53.9502 7.59863C54.2622 7.59288 54.4112 7.732 54.4102 8.04395C54.4079 8.85017 54.4039 9.65667 54.4131 10.4629C54.4177 10.8625 54.1568 10.9089 53.8516 10.9619C52.9082 11.1232 51.9484 11.2359 51.0293 11.4893C48.4932 12.1873 47.1075 13.9637 46.7217 16.4941C46.5052 17.9096 46.4506 19.3562 46.4092 20.79C46.3585 22.5546 46.3842 24.3231 46.4072 26.0889C46.4129 26.5515 46.2921 26.759 45.8008 26.7441C44.9381 26.7188 44.0727 26.7238 43.21 26.7422C42.7654 26.7514 42.6121 26.5856 42.6133 26.1318C42.6248 20.2382 42.6236 14.3429 42.6133 8.44922C42.6134 8.03142 42.7509 7.85344 43.1758 7.86035C44.0003 7.87532 44.8259 7.87912 45.6504 7.8584C46.1272 7.84573 46.2799 8.03983 46.2822 8.50977C46.2914 10.333 46.3349 12.1563 46.3672 13.9795C46.3695 14.1315 46.3824 14.2835 46.3916 14.4355C46.4133 14.439 46.4363 14.4409 46.458 14.4443V14.4434C46.7367 13.5335 46.964 12.6026 47.3037 11.7158C48.52 8.54534 50.9178 7.65628 53.9502 7.59863ZM70.9551 4.2998C74.6017 4.27447 77.6218 5.56953 79.8701 8.49512C81.0253 9.99935 81.568 11.7443 81.7627 13.6113C82.0311 16.181 81.7749 18.689 80.6934 21.0479C79.2962 24.0987 76.8406 25.8502 73.5869 26.4883C72.7265 26.6564 71.8349 26.7152 70.9561 26.7256C68.4993 26.7567 66.0425 26.7398 63.5869 26.7363C62.8924 26.7363 62.8545 26.6935 62.8545 25.9668C62.8522 22.4723 62.8547 18.9777 62.8535 15.4844H62.8525C62.8525 12.0291 62.8514 8.57245 62.8525 5.11719C62.8525 4.30631 62.8592 4.30371 63.6436 4.30371C66.0807 4.30371 68.5179 4.31708 70.9551 4.2998ZM97.4404 16.041C96.9279 17.7929 95.5349 18.316 93.9766 18.582C93.2221 18.711 92.4536 18.7525 91.6934 18.8516C90.7847 18.9702 89.849 19.0078 88.9795 19.2646C87.8406 19.6022 87.2411 20.6266 87.2871 21.7979C87.3355 22.9991 87.9892 23.8782 89.1719 24.1904C92.1643 24.9806 95.3671 23.7052 96.876 20.9121C97.712 19.3642 97.4473 17.7055 97.4404 16.04V16.041ZM72.1426 8.08105C70.1557 7.95436 68.1569 8.02083 66.1631 8.00586C65.213 7.99895 64.2628 8.00391 63.1445 8.00391L63.1465 8.00586C63.393 8.27423 63.5226 8.42704 63.6631 8.56641C64.4935 9.38992 65.316 10.2228 66.166 11.0244C66.5022 11.3423 66.6257 11.6846 66.6211 12.1406C66.6015 14.0019 66.6112 15.8633 66.6123 17.7246C66.6135 19.2979 66.6232 20.8711 66.6221 22.4443C66.6221 22.7404 66.6463 22.9845 67.0391 22.9707C68.9533 22.9039 70.8847 22.9774 72.7793 22.7471C75.2879 22.443 76.9551 20.9773 77.6992 18.5137C78.1795 16.9231 78.2759 15.3058 78.0605 13.6738C77.6229 10.3555 75.492 8.29299 72.1426 8.08105ZM24.4912 0.717773V0.71875C24.1607 1.65396 23.8814 2.46251 23.5889 3.26758C21.5859 8.78692 19.5739 14.3042 17.5859 19.8281C17.4201 20.29 17.1872 20.4595 16.708 20.4434C15.8075 20.4134 14.9046 20.438 14.0029 20.4346C13.7979 20.4346 13.5927 20.4078 13.2656 20.3848C13.5409 19.5924 13.7803 18.8747 14.0371 18.1641C15.7959 13.3115 17.5571 8.45979 19.3193 3.6084C19.6211 2.7792 19.9187 1.94774 20.248 1.12891C20.3148 0.964346 20.5125 0.740145 20.6553 0.736328C21.8785 0.705229 23.1033 0.717773 24.4912 0.717773ZM32.6201 10.5781C29.3169 9.87798 26.2725 11.3653 25.6689 14.832C25.5492 15.522 25.6131 15.6025 26.3076 15.6025C29.5314 15.6037 32.7557 15.6025 35.9795 15.6025C36.1498 15.6025 36.3195 15.5885 36.5381 15.5781V15.5801C36.5577 15.4419 36.5786 15.3667 36.5752 15.293C36.4496 12.9755 34.8972 11.0607 32.6201 10.5781Z" fill="url(#paint0_linear_32727_80826)"/>
<defs>
<linearGradient id="paint0_linear_32727_80826" x1="111.714" y1="0.699219" x2="111.714" y2="19.1484" gradientUnits="userSpaceOnUse">
<stop stop-color="white"/>
<stop offset="1" stop-color="white" stop-opacity="0.6"/>
</linearGradient>
</defs>
</svg>
