<svg width="140" height="38" viewBox="0 0 140 38" fill="none" xmlns="http://www.w3.org/2000/svg">
<path d="M122.902 32.52C124.198 32.5203 125.192 33.5713 125.192 34.8804C125.192 36.2188 124.197 37.2688 122.902 37.269C121.621 37.269 120.598 36.219 120.598 34.8804C120.598 33.5709 121.621 32.52 122.902 32.52ZM122.902 32.9946C121.907 32.9949 121.17 33.844 121.17 34.8804C121.17 35.931 121.907 36.7651 122.916 36.7651C123.897 36.7649 124.62 35.93 124.62 34.894C124.62 33.8433 123.897 32.9949 122.902 32.9946ZM122.888 33.6851C123.31 33.6851 123.502 33.7575 123.665 33.8579C123.788 33.9585 123.884 34.1462 123.884 34.3765C123.884 34.6355 123.692 34.837 123.42 34.9233V34.9517C123.638 35.038 123.761 35.2112 123.829 35.5278C123.897 35.8873 123.938 36.0311 123.992 36.1177H123.434C123.365 36.0311 123.324 35.8155 123.256 35.5425C123.215 35.2831 123.078 35.1675 122.792 35.1675H122.547V36.1177H122.029V33.7573C122.234 33.7141 122.52 33.6851 122.888 33.6851ZM122.848 34.0737C122.711 34.0737 122.615 34.0886 122.561 34.103V34.7798H122.807C123.093 34.7798 123.324 34.6789 123.324 34.4341C123.324 34.2186 123.175 34.0738 122.848 34.0737ZM17.1914 19.1118C18.9665 19.1119 20.4269 19.6482 21.5713 20.7222C22.7155 21.7963 23.287 23.1501 23.2871 24.7837C23.2871 25.5272 23.1359 26.053 22.833 26.3589C22.5301 26.6652 22.0162 26.8179 21.293 26.8179H14.9941V27.2964C15.0111 28.0803 15.2742 28.7074 15.7832 29.1772C16.2921 29.6465 16.9929 29.8813 17.8848 29.8813C18.7763 29.8813 19.4919 29.6896 20.0303 29.3062C20.0808 29.2731 20.1721 29.2159 20.3027 29.1343C20.4328 29.0528 20.5185 28.9988 20.5605 28.9741C20.6025 28.9497 20.6746 28.9136 20.7754 28.8647C20.8763 28.8158 20.9567 28.7824 21.0156 28.7661C21.0743 28.7498 21.1521 28.7334 21.249 28.7173C21.3456 28.7008 21.4447 28.6929 21.5459 28.6929C21.9579 28.6929 22.2879 28.8134 22.5361 29.0542C22.7842 29.2951 22.9092 29.6238 22.9092 30.0405C22.9092 30.7348 22.5049 31.3272 21.6973 31.8179C20.7126 32.4956 19.3449 32.8345 17.5947 32.8345C15.508 32.8345 13.8653 32.291 12.666 31.2046C11.4672 30.1193 10.8672 28.6195 10.8672 26.7085V25.2622C10.8672 23.4163 11.4458 21.9296 12.6025 20.8022C13.7596 19.6752 15.2894 19.1118 17.1914 19.1118ZM66.9199 19.1118C68.5271 19.1118 69.8527 19.4621 70.8965 20.1646C71.317 20.4425 71.6519 20.7614 71.9004 21.1206C72.1482 21.4804 72.2725 21.8522 72.2725 22.2358C72.2724 22.6764 72.1253 23.0442 71.8311 23.3384C71.5362 23.6321 71.1573 23.7798 70.6943 23.7798C70.4841 23.7797 70.2781 23.7392 70.0762 23.6577C69.8745 23.5761 69.729 23.5023 69.6406 23.437C69.5524 23.3717 69.4115 23.2611 69.2178 23.106C68.6453 22.5345 67.9683 22.2476 67.1855 22.2476C66.3776 22.2476 65.7676 22.5225 65.3555 23.0698C64.943 23.6171 64.7373 24.3643 64.7373 25.311V26.4634C64.7374 28.6197 65.5659 29.6978 67.2236 29.6978C68.0144 29.6977 68.7294 29.3959 69.3691 28.7915C69.3773 28.7829 69.4177 28.7507 69.4893 28.6938C69.5604 28.637 69.6068 28.6014 69.6279 28.5894C69.6488 28.5772 69.6931 28.5465 69.7607 28.4976C69.8276 28.4487 69.8758 28.4155 69.9053 28.3989C69.9347 28.383 69.9818 28.3567 70.0449 28.3198C70.1079 28.2831 70.1647 28.2587 70.2148 28.2466C70.2653 28.2343 70.322 28.2195 70.3848 28.2026C70.4481 28.1871 70.5138 28.1753 70.5811 28.1665C70.648 28.1584 70.7195 28.1538 70.7949 28.1538C71.2575 28.1538 71.6268 28.2891 71.9004 28.5581C72.1736 28.8279 72.3105 29.1919 72.3105 29.6489C72.3105 30.0575 72.1668 30.4597 71.8809 30.856C71.5946 31.2523 71.2078 31.5971 70.7197 31.8911C69.6847 32.5201 68.4179 32.8345 66.9199 32.8345C64.934 32.8345 63.3774 32.2954 62.25 31.2173C61.1224 30.1393 60.5586 28.6194 60.5586 26.6587V25.103C60.5586 23.2981 61.1181 21.8482 62.2373 20.7534C63.3563 19.6587 64.9173 19.1119 66.9199 19.1118ZM80.2227 19.1118C82.1833 19.1118 83.7525 19.6668 84.9307 20.7778C86.1088 21.8886 86.6982 23.3916 86.6982 25.2866V26.561C86.6982 28.53 86.1112 30.0674 84.9375 31.1743C83.7637 32.2818 82.1917 32.8345 80.2227 32.8345C78.245 32.8345 76.6689 32.2827 75.4951 31.1802C74.3213 30.0775 73.7344 28.5415 73.7344 26.5728V25.311C73.7344 23.3997 74.3238 21.8887 75.502 20.7778C76.6801 19.667 78.2534 19.1118 80.2227 19.1118ZM103.98 19.1118C105.756 19.1119 107.216 19.6483 108.36 20.7222C109.505 21.7963 110.077 23.1501 110.077 24.7837C110.077 25.5272 109.925 26.053 109.622 26.3589C109.319 26.6652 108.806 26.8179 108.082 26.8179H101.784V27.2964C101.801 28.0803 102.063 28.7074 102.572 29.1772C103.081 29.6466 103.783 29.8813 104.675 29.8813C105.566 29.8813 106.282 29.6898 106.82 29.3062C106.871 29.2731 106.961 29.2159 107.092 29.1343C107.222 29.0526 107.309 28.9988 107.351 28.9741C107.393 28.9497 107.464 28.9134 107.564 28.8647C107.665 28.8158 107.746 28.7824 107.805 28.7661C107.863 28.7498 107.942 28.7334 108.038 28.7173C108.135 28.7008 108.234 28.6929 108.335 28.6929C108.747 28.6929 109.078 28.8133 109.326 29.0542C109.574 29.2951 109.698 29.6239 109.698 30.0405C109.698 30.7348 109.294 31.3272 108.486 31.8179C107.502 32.4956 106.134 32.8345 104.384 32.8345C102.297 32.8344 100.654 32.291 99.4551 31.2046C98.2561 30.1193 97.6563 28.6195 97.6562 26.7085V25.2622C97.6562 23.4164 98.2346 21.9296 99.3916 20.8022C100.548 19.6752 102.079 19.1118 103.98 19.1118ZM4.99023 16.0708C5.62104 16.0708 6.10472 16.2503 6.44141 16.6089C6.77787 16.9688 6.94624 17.4879 6.94629 18.1655V19.5874H8.00684C8.54509 19.5874 8.95971 19.7177 9.25 19.979C9.54031 20.2402 9.68555 20.6084 9.68555 21.0825C9.6855 21.5557 9.54046 21.9239 9.25 22.1851C8.9597 22.4462 8.54511 22.5767 8.00684 22.5767H6.99707V28.397C6.99707 28.9284 7.08325 29.3016 7.25586 29.5181C7.4281 29.7347 7.72911 29.8433 8.1582 29.8433C8.27587 29.8433 8.43002 29.8323 8.61914 29.812C8.80836 29.7919 8.96226 29.7827 9.08008 29.7827C9.39965 29.7828 9.65784 29.8825 9.85547 30.0825C10.0534 30.283 10.1523 30.5539 10.1523 30.897C10.1523 31.469 9.89581 31.9222 9.38281 32.2573C8.82733 32.633 8.0404 32.8208 7.02246 32.8208C5.61709 32.8208 4.58352 32.5149 3.92285 31.9019C3.26249 31.289 2.93262 30.3204 2.93262 28.9976V22.5767H2.44043C1.90175 22.5767 1.48756 22.4464 1.19727 22.1851C0.907004 21.9239 0.76177 21.5557 0.761719 21.0825C0.761719 20.6084 0.906953 20.2402 1.19727 19.979C1.48756 19.7179 1.90178 19.5874 2.44043 19.5874H3.0332V18.1655C3.03325 17.496 3.20408 16.9791 3.54492 16.6157C3.88561 16.2524 4.36722 16.0708 4.99023 16.0708ZM30.6982 19.2339C32.5492 19.2339 33.9818 19.6362 34.9961 20.4409C36.01 21.2459 36.5176 22.3869 36.5176 23.8657V30.5562C36.5175 31.2259 36.3467 31.7403 36.0059 32.1001C35.6652 32.4594 35.1788 32.6392 34.5479 32.6392C34.0264 32.6391 33.5993 32.5104 33.2676 32.2534C32.9351 31.9964 32.7266 31.6344 32.6426 31.1685V30.9116H32.4531C32.1333 31.4668 31.6615 31.8976 31.0391 32.2036C30.4161 32.51 29.7054 32.6636 28.9062 32.6636C27.5851 32.6636 26.518 32.2997 25.7061 31.5728C24.894 30.8463 24.4884 29.8905 24.4883 28.7065C24.4883 27.4897 24.9324 26.5287 25.8203 25.8267C26.7077 25.1245 27.9297 24.7691 29.4863 24.7603H32.4658V23.8169C32.4658 23.2697 32.2887 22.8507 31.9355 22.561C31.582 22.2714 31.0813 22.1265 30.4336 22.1265C29.7098 22.1265 28.9317 22.4166 28.0986 22.9966C27.661 23.2658 27.1722 23.3999 26.6338 23.3999C26.2046 23.3999 25.8638 23.2759 25.6113 23.0269C25.3589 22.7778 25.2334 22.4606 25.2334 22.0767C25.2335 21.1863 25.8349 20.4636 27.0381 19.9077C28.0057 19.4584 29.2258 19.2339 30.6982 19.2339ZM54.4229 19.2349C55.7525 19.2349 56.7982 19.6074 57.5596 20.355C58.3212 21.1026 58.7021 22.1299 58.7021 23.437V30.4819C58.7021 31.1847 58.5267 31.7194 58.1777 32.0874C57.8285 32.4545 57.326 32.6391 56.6699 32.6392C56.0136 32.6392 55.5126 32.4546 55.168 32.0874C54.8229 31.7192 54.6504 31.1848 54.6504 30.4819V24.6743C54.6504 23.9556 54.4775 23.3979 54.1328 23.0015C53.7876 22.6053 53.3034 22.4077 52.6807 22.4077C52.0581 22.4078 51.5617 22.6224 51.1914 23.0513C50.8212 23.4799 50.6357 24.058 50.6357 24.7847V30.4819C50.6357 31.1847 50.4718 31.7194 50.1436 32.0874C49.8156 32.4545 49.336 32.6391 48.7051 32.6392C48.0655 32.6392 47.5813 32.4546 47.2529 32.0874C46.9248 31.7192 46.7607 31.1846 46.7607 30.4819V24.6987C46.7607 23.9801 46.5838 23.4185 46.2305 23.0142C45.8771 22.61 45.3893 22.4078 44.7666 22.4077C44.1438 22.4077 43.6511 22.6195 43.2891 23.0444C42.9271 23.4693 42.7471 24.0498 42.7471 24.7847V30.4819C42.7471 31.1847 42.5742 31.7194 42.2295 32.0874C41.8843 32.4545 41.3836 32.6381 40.7275 32.6382C40.0714 32.6382 39.5678 32.4546 39.2188 32.0874C38.8696 31.7192 38.6953 31.1847 38.6953 30.4819V21.4146C38.6954 20.7698 38.872 20.2592 39.2256 19.8833C39.5788 19.5079 40.0628 19.3198 40.6768 19.3198C41.2576 19.3198 41.7202 19.4935 42.0654 19.8403C42.4104 20.1877 42.5999 20.6714 42.6338 21.2925V21.6597H42.835C43.0453 20.9246 43.4857 20.3362 44.1543 19.895C44.8235 19.4543 45.6171 19.2349 46.5342 19.2349C47.485 19.2349 48.2821 19.4535 48.9258 19.8901C49.5695 20.327 50.0007 20.9336 50.2197 21.7095H50.4092C50.67 20.9584 51.1605 20.3569 51.8799 19.9077C52.5992 19.4585 53.447 19.2349 54.4229 19.2349ZM95.3242 19.2339C95.8798 19.2339 96.3177 19.3812 96.6377 19.6753C96.9742 19.9775 97.1426 20.4031 97.1426 20.9497C97.1425 21.4805 96.9784 21.8804 96.6504 22.1499C96.3476 22.3948 95.8887 22.5297 95.2744 22.5542C93.4569 22.6113 92.5479 23.5798 92.5479 25.4585V30.4819C92.5478 31.168 92.3666 31.699 92.0049 32.0747C91.6431 32.4504 91.134 32.6382 90.4775 32.6382C89.8216 32.6382 89.3272 32.453 88.9951 32.0815C88.6626 31.71 88.4961 31.1764 88.4961 30.4819V21.4761C88.4961 20.7824 88.6662 20.2492 89.0068 19.8774C89.3477 19.5059 89.8422 19.3199 90.4902 19.3198C91.6849 19.3198 92.3291 19.9286 92.4219 21.146V21.3296H92.6113C92.8385 20.6515 93.1853 20.1327 93.6523 19.7739C94.1192 19.4144 94.6769 19.234 95.3242 19.2339ZM30.3955 26.9419C29.798 26.9419 29.3289 27.0751 28.9883 27.3403C28.6475 27.6057 28.4766 27.967 28.4766 28.4243C28.4766 28.8818 28.6518 29.2557 29.001 29.5454C29.3497 29.8352 29.798 29.9799 30.3447 29.98C30.9421 29.98 31.4452 29.8111 31.8535 29.4722C32.2612 29.1333 32.4658 28.7144 32.4658 28.2163V26.9419H30.3955ZM80.2227 22.0522C79.4987 22.0522 78.9322 22.3357 78.5244 22.9028C78.1163 23.4711 77.9121 24.2657 77.9121 25.2866V26.647C77.9121 27.6678 78.1165 28.4645 78.5244 29.0356C78.9324 29.6077 79.4989 29.894 80.2227 29.894C80.9461 29.894 81.5075 29.61 81.9072 29.0425C82.3066 28.4746 82.5068 27.6766 82.5068 26.647V25.2876C82.5068 24.2661 82.3069 23.4709 81.9072 22.9028C81.5075 22.3357 80.9459 22.0523 80.2227 22.0522ZM118.772 7.229C120.607 2.78461 125.526 -0.137543 130.961 0.964355C134.691 1.72052 138.397 5.38997 139.115 9.02197C140.38 15.411 135.582 21.0223 129.325 21.395L121.183 21.4165L115.969 25.5981L115.569 21.3306C111.459 20.7971 108.398 16.7457 109.339 12.4829C109.957 9.68497 112.297 7.50676 115.2 7.00732C116.46 6.7907 117.672 6.88856 118.772 7.229ZM17.2793 22.0522C16.5727 22.0523 16.0146 22.2788 15.6064 22.7319C15.1985 23.1853 14.9941 23.7842 14.9941 24.5269V24.564H19.4629V24.5269C19.4629 23.7762 19.2651 23.175 18.8701 22.7261C18.4747 22.2771 17.9439 22.0522 17.2793 22.0522ZM104.068 22.0522C103.362 22.0523 102.804 22.2788 102.396 22.7319C101.988 23.1853 101.784 23.784 101.784 24.5269V24.564H106.252V24.5269C106.252 23.7762 106.055 23.175 105.659 22.7261C105.264 22.2771 104.733 22.0522 104.068 22.0522Z" fill="url(#paint0_linear_32727_80616)"/>
<defs>
<linearGradient id="paint0_linear_32727_80616" x1="129.684" y1="0.730957" x2="129.684" y2="26.0728" gradientUnits="userSpaceOnUse">
<stop stop-color="white"/>
<stop offset="1" stop-color="white" stop-opacity="0.6"/>
</linearGradient>
</defs>
</svg>
