<svg width="145" height="30" viewBox="0 0 145 30" fill="none" xmlns="http://www.w3.org/2000/svg">
<path d="M18.4072 3.62061C18.9161 3.45789 19.4628 3.49301 19.9473 3.71924L19.9785 3.73486L25.3232 6.7915L30.5703 3.74463L30.5859 3.73779C31.0653 3.5083 31.6099 3.46781 32.1182 3.62354C32.6271 3.7803 33.0548 4.11886 33.3232 4.57666C33.5927 5.03461 33.679 5.57383 33.5674 6.09326C33.4546 6.61257 33.154 7.06722 32.7207 7.37451L32.6885 7.39502L16.4775 16.7544L16.5879 15.9175C16.6463 15.475 16.7392 15.0332 16.8643 14.603L14.7227 13.3784C11.7464 11.6849 9.55193 11.9441 8.2334 12.4595C7.25505 12.8222 6.42989 13.4626 5.84082 14.3149C5.25089 15.1673 4.94405 16.1651 4.9502 17.2007C4.95532 18.2365 5.27567 19.2305 5.875 20.0757C6.47322 20.9208 7.30509 21.5516 8.28125 21.8999C9.61203 22.403 11.812 22.636 14.7686 20.9058L33.7715 9.78076C35.9093 8.53003 38.1662 7.86253 40.2959 7.84912C41.518 7.83684 42.72 8.0479 43.8652 8.47607C45.6458 9.1225 47.1667 10.2853 48.2588 11.8374C49.3509 13.3895 49.9311 15.2133 49.9424 17.1138H49.9395C49.9568 19.0101 49.3978 20.8413 48.3252 22.4058C47.2515 23.9711 45.7451 25.1509 43.9688 25.8188C40.9138 27.0112 37.3202 26.5901 33.8555 24.6323L31.7129 23.3979C31.1996 23.944 30.6194 24.425 29.9873 24.8276L29.9736 24.8354L21.5586 29.7495V24.8618L34.1855 17.4692L34.0859 18.3003C34.0285 18.7838 33.9311 19.2657 33.7949 19.7349L35.9346 20.9585C38.9118 22.6511 41.1092 22.3937 42.4277 21.8794C43.1314 21.611 43.7766 21.1838 44.2959 20.644C44.8163 20.1042 45.2184 19.4438 45.458 18.7329C45.6219 18.2196 45.7042 17.6784 45.7021 17.1323C45.7002 16.0957 45.3843 15.1016 44.7861 14.2554C44.1867 13.4101 43.3543 12.7813 42.3779 12.4351C41.045 11.933 38.8443 11.6999 35.8887 13.4292L16.9287 24.5308L16.8955 24.5513C14.7552 25.8043 12.498 26.4735 10.3701 26.4868C9.14906 26.4991 7.94511 26.2881 6.79883 25.8599C4.54206 25.03 2.71634 23.3818 1.66113 21.2192C0.605967 19.0567 0.430599 16.6037 1.16602 14.312C1.60041 13.0048 2.33261 11.7901 3.28027 10.7964C4.22791 9.80269 5.40595 9.01576 6.6875 8.521C9.76099 7.32028 13.3552 7.74149 16.8057 9.70654L18.9453 10.9399C19.4596 10.394 20.0406 9.9129 20.6748 9.51025L20.6846 9.50439L21.1318 9.24072L17.8711 7.39307C17.4275 7.09494 17.115 6.64296 16.9922 6.12354C16.8682 5.60316 16.9458 5.06029 17.209 4.59521C17.4723 4.13009 17.898 3.7835 18.4072 3.62061ZM69.6055 7.82471C72.7823 7.82474 74.9798 8.68188 76.9346 11.1294L73.0869 13.3296C72.3555 12.0592 71.2538 11.4371 69.666 11.437C68.0165 11.437 67.1016 12.1695 67.1016 13.1479C67.1019 14.2012 68.4679 14.5271 70.4131 14.9907C70.7207 15.0641 71.0435 15.1404 71.377 15.2241C74.7372 16.0785 77.3036 17.2398 77.3047 20.6001C77.3046 24.0823 73.8837 26.4633 69.6064 26.4634C66.0638 26.4583 63.375 25.4827 61.6641 22.6714L65.6982 20.3511C66.4912 21.9398 67.8344 22.734 69.7285 22.7319C71.5069 22.7318 72.5996 21.9386 72.5996 20.7769C72.5994 19.6152 71.074 19.2519 68.4443 18.7007C64.8402 17.9056 62.5195 16.4413 62.5195 13.3862C62.5196 10.0822 65.8793 7.82471 69.6055 7.82471ZM116.505 7.82764C119.924 7.82778 122.977 9.60566 124.443 12.3481L120.535 14.6714C120.151 13.9204 119.563 13.2932 118.84 12.8608C118.116 12.4285 117.286 12.2078 116.443 12.2251C113.755 12.2251 111.738 14.2411 111.738 17.1128C111.739 19.9239 113.632 22.061 116.443 22.061C118.275 22.0609 119.864 21.1438 120.596 19.6177L124.505 21.8794C123.699 23.2861 122.534 24.4521 121.127 25.2563C119.72 26.0605 118.125 26.474 116.505 26.4536C111.081 26.4587 107.102 22.5496 107.102 17.1138C107.102 11.6777 111.01 7.82764 116.505 7.82764ZM96.0586 7.82666C101.142 7.82681 104.672 11.7988 104.672 16.4429V25.9702H100.097V16.7476C100.097 13.9365 98.3868 12.2876 96.0664 12.2876C93.5606 12.2877 92.0333 14.0667 92.0332 16.7476V25.9702L87.4453 25.9761V16.4429C87.4453 11.5549 91.0488 7.82666 96.0586 7.82666ZM84.2598 25.9692L79.7383 25.9751V10.4722L84.2598 7.82666V25.9692ZM131.482 9.17041C132.724 8.31905 134.188 7.85232 135.696 7.82666C140.704 7.82666 144.188 11.2476 144.188 16.3169V25.9751H139.611V16.7466C139.611 13.9356 137.902 12.2866 135.581 12.2866C133.075 12.2867 131.548 14.0657 131.548 16.7466V25.9692H126.953V2.88037L131.482 0.252441V9.17041Z" fill="url(#paint0_linear_32727_80769)"/>
<defs>
<linearGradient id="paint0_linear_32727_80769" x1="72.548" y1="0.252441" x2="72.548" y2="29.821" gradientUnits="userSpaceOnUse">
<stop stop-color="white"/>
<stop offset="1" stop-color="white" stop-opacity="0.6"/>
</linearGradient>
</defs>
</svg>
