<svg width="139" height="38" viewBox="0 0 139 38" fill="none" xmlns="http://www.w3.org/2000/svg">
<path d="M18.1045 0.950195C28.0773 0.950195 36.1542 9.02723 36.1543 19C36.1543 28.9729 28.0774 37.0498 18.1045 37.0498C8.13172 37.0497 0.0546875 28.9728 0.0546875 19C0.0547924 9.02729 8.13264 0.9503 18.1045 0.950195ZM6.52344 18.9551L14.6006 27.0322L17.1572 24.4756L11.6367 18.9551L17.1572 13.4346L14.6006 10.8779L6.52344 18.9551ZM19.0078 13.4346L24.5283 18.9551L19.0078 24.4756L21.5645 27.0322L29.6416 18.9551L21.5645 10.8779L19.0078 13.4346ZM86.2578 15.7061C87.7165 15.7061 88.8599 16.1726 89.7021 17.1055C90.5288 18.0383 90.9501 19.3311 90.9502 20.9854V21.6934H90.9346L90.9355 21.6924H83.2949C83.46 23.9633 84.5885 25.0918 86.709 25.0918C88.8296 25.0918 89.0708 24.6856 90.0781 23.8887L90.7695 25.4531C90.2737 25.8745 89.642 26.2199 88.9053 26.4609C88.1682 26.7166 87.4163 26.8369 86.6484 26.8369C84.9187 26.8369 83.565 26.3414 82.5723 25.3633C81.5795 24.3859 81.083 23.0307 81.083 21.3018C81.083 19.5733 81.3089 19.2259 81.7295 18.3838C82.1655 17.5417 82.7823 16.8801 83.5645 16.4141C84.3469 15.948 85.2497 15.7061 86.2578 15.7061ZM109.709 15.6777V15.6758C111.153 15.6758 112.236 16.0363 112.928 16.7588C113.635 17.4804 113.98 18.5641 113.98 20.0381V26.6719H111.83V24.8965C111.544 25.5284 111.138 26.0099 110.581 26.3408C110.024 26.6717 109.378 26.8369 108.641 26.8369C107.904 26.8369 107.287 26.7022 106.686 26.4014C106.099 26.1158 105.633 25.724 105.302 25.1982C104.971 24.6869 104.806 24.1145 104.806 23.4834C104.806 22.8524 105.017 22.0999 105.423 21.6484C105.829 21.1971 106.506 20.8813 107.438 20.6855C108.37 20.4897 109.664 20.4004 111.304 20.4004H111.815V19.7686C111.815 18.9417 111.634 18.354 111.288 17.9932C110.942 17.6324 110.371 17.4366 109.589 17.4365C108.356 17.4365 107.137 17.8128 105.903 18.5498L105.241 16.9854C105.812 16.5946 106.52 16.2781 107.332 16.0225C108.144 15.7823 108.941 15.6621 109.693 15.6621L109.709 15.6777ZM75.835 15.7061C76.9328 15.7061 77.3095 15.8264 78.0166 16.082C78.7235 16.3376 79.2945 16.6685 79.7305 17.0898L79.0391 18.6689C78.0618 17.8721 77.0536 17.4805 76.0156 17.4805C74.9776 17.4805 74.1803 17.8118 73.5938 18.4736C73.0072 19.1355 72.7217 20.083 72.7217 21.2861C72.7217 22.4891 73.0071 23.4065 73.5791 24.0537C74.1503 24.7002 74.9631 25.0312 76.0166 25.0312C77.0699 25.0311 78.0773 24.6405 79.04 23.8428L79.7314 25.4375C79.2654 25.859 78.6632 26.1894 77.9561 26.4297C77.2489 26.6699 76.5121 26.791 75.7451 26.791L75.7295 26.8213H75.7285C74.6307 26.8212 73.6834 26.596 72.8857 26.1445C72.0879 25.693 71.4566 25.0465 71.0205 24.2188C70.5845 23.3911 70.374 22.4287 70.374 21.3154C70.3741 20.2023 70.6003 19.225 71.0518 18.3828C71.5032 17.5406 72.1351 16.8791 72.9619 16.4131C73.7742 15.9471 74.737 15.7061 75.835 15.7061ZM119.29 17.7061C119.621 17.0597 120.087 16.5622 120.704 16.2168C121.321 15.8705 122.044 15.6904 122.855 15.6904C123.667 15.6905 124.63 15.9159 125.352 16.3672C126.073 16.8187 126.646 17.4654 127.052 18.3076C127.458 19.1499 127.654 20.1132 127.654 21.2266C127.654 22.3397 127.458 23.3024 127.052 24.1445C126.646 24.9868 126.074 25.6482 125.352 26.1143C124.615 26.5802 123.788 26.8212 122.855 26.8213C121.923 26.8213 121.321 26.6569 120.704 26.3105C120.088 25.9642 119.606 25.4676 119.29 24.8213V26.6719H117.049V11.1797H119.29V17.7061ZM134.135 15.6777L134.136 15.6758C134.903 15.6758 135.64 15.7959 136.332 16.0361C137.024 16.2764 137.626 16.6235 138.122 17.0596L137.43 18.623C136.362 17.781 135.264 17.3751 134.121 17.375C132.978 17.375 132.902 17.51 132.512 17.7656C132.121 18.0366 131.925 18.3819 131.925 18.8486C131.925 19.3155 132.046 19.5106 132.286 19.7363C132.526 19.962 132.918 20.1429 133.443 20.248L135.278 20.6689C136.331 20.9092 137.099 21.2715 137.58 21.7529C138.061 22.2488 138.316 22.8811 138.316 23.6787C138.316 24.4765 137.926 25.4084 137.128 25.9795C136.331 26.5361 135.277 26.8213 133.924 26.8213C132.57 26.8212 130.555 26.3703 129.427 25.4531L130.118 23.8438C131.231 24.686 132.526 25.1221 133.999 25.1221C135.472 25.122 135.277 25.001 135.669 24.7607C136.059 24.5205 136.239 24.1742 136.239 23.7383C136.239 23.3022 136.104 23.0608 135.849 22.8359C135.593 22.6103 135.141 22.4297 134.51 22.2793L132.72 21.8887C131.757 21.663 131.036 21.3176 130.555 20.8057C130.073 20.3097 129.817 19.6772 129.817 18.9102C129.818 18.1432 130.208 17.1655 131.006 16.5645C131.803 15.9625 132.841 15.6621 134.119 15.6621L134.135 15.6777ZM49.8428 11.1934C51.4974 11.1934 52.7759 11.5995 53.6934 12.3965C54.6108 13.1934 55.0625 14.3367 55.0625 15.8262C55.0625 17.3157 54.6108 18.4281 53.6934 19.2559C52.7759 20.0682 51.4974 20.4893 49.8428 20.4893H45.6611V26.6709H43.375V11.1934H49.8428ZM67.8779 26.6709H65.6367V15.9609H67.8779V26.6709ZM95.6143 24.7754H103.196V26.6709H93.3281V11.1777H95.6143V24.7754ZM64.1172 17.54V17.5557L62.7637 17.6914C61.6957 17.7966 60.9434 18.113 60.4766 18.6543C60.0107 19.1955 59.7852 19.8872 59.7852 20.7148V26.6562H57.5439V15.9463H59.71V17.8105C60.2812 16.547 61.4554 15.8548 63.2295 15.7197L63.9668 15.6748L64.1172 17.54ZM111.424 21.6621C110.266 21.6621 109.378 21.7073 108.761 21.8125C108.144 21.9177 107.693 22.084 107.438 22.3242C107.166 22.5645 107.031 22.9108 107.031 23.3623C107.031 23.8137 107.227 24.3098 107.603 24.6406C107.979 24.9866 108.46 25.1513 109.046 25.1514C109.632 25.1514 110.52 24.8808 111.047 24.3252C111.558 23.7685 111.83 23.0763 111.83 22.2041V21.6328H111.424V21.6621ZM122.328 17.4658C121.351 17.4659 120.598 17.7962 120.087 18.458C119.56 19.1198 119.305 20.0529 119.305 21.2705C119.305 22.4881 119.56 23.4212 120.087 24.083C120.614 24.7448 121.365 25.0751 122.328 25.0752C123.291 25.0752 124.043 24.7446 124.585 24.0674C125.126 23.3902 125.397 22.4431 125.397 21.2402C125.397 20.0371 125.126 19.1189 124.601 18.457C124.074 17.8106 123.322 17.4795 122.344 17.4795L122.328 17.4648V17.4658ZM86.2881 17.3145C85.4305 17.3145 84.7545 17.5865 84.2432 18.1123C83.7319 18.639 83.4304 19.4058 83.3252 20.3984H89.0107C88.9654 19.4059 88.71 18.639 88.2441 18.1123C87.7781 17.5856 87.1303 17.3145 86.2881 17.3145ZM45.6465 18.6553H49.5869V18.6543C51.7682 18.6543 52.8662 17.7065 52.8662 15.8262C52.8662 13.9459 51.7682 13.0137 49.5869 13.0137H45.6465V18.6553ZM68.043 13.4795H65.4707V11.1777H68.043V13.4795Z" fill="url(#paint0_linear_32727_80856)"/>
<defs>
<linearGradient id="paint0_linear_32727_80856" x1="128.702" y1="0.950195" x2="128.702" y2="25.9881" gradientUnits="userSpaceOnUse">
<stop stop-color="white"/>
<stop offset="1" stop-color="white" stop-opacity="0.6"/>
</linearGradient>
</defs>
</svg>
