<svg width="73" height="38" viewBox="0 0 73 38" fill="none" xmlns="http://www.w3.org/2000/svg">
<path d="M23.6094 19.0757C25.0471 19.0757 26.4604 18.9994 27.8584 19.1245C28.246 19.1611 28.7044 19.7409 28.9121 20.1743C30.6308 23.7888 32.2972 27.4313 33.9854 31.061C34.2326 31.5922 34.499 32.1117 35.0332 32.5757V19.1763H38.415V37.9722C36.9713 37.9722 35.552 38.0609 34.1602 37.9175C33.7328 37.8747 33.2258 37.2579 33.0029 36.7847C31.3209 33.2069 29.7029 29.6015 28.0605 26.0054C27.8347 25.5139 27.5872 25.0286 27.0713 24.5737V37.8989H23.6094V19.0757ZM21.0977 37.9136C17.5961 38.2463 14.3906 37.5685 11.1211 35.978C14.4546 30.9869 17.6939 26.1365 21.0977 21.0386V37.9136ZM58.3789 19.1821C61.2332 19.1821 64.0388 18.9406 66.7832 19.2397C70.6389 19.661 72.5471 21.9509 72.3945 25.3364C72.2388 28.7739 69.9121 30.996 66.1113 31.2524C64.8599 31.3379 63.5993 31.2652 62.1738 31.2651V37.8804H58.3789V19.1821ZM54.5 37.8716H42.1914V34.4985H54.5V37.8716ZM10.3965 35.5767C7.30776 33.8644 4.93601 31.5356 3.15332 28.3618C8.70274 26.0633 14.0724 23.8386 19.8232 21.4546C16.5569 26.348 13.5041 30.9213 10.3965 35.5767ZM54.5508 29.9829H42.2266V26.7446H54.5508V29.9829ZM67.916 23.4194C66.5637 21.4046 64.3044 22.1951 62.2529 22.0913V28.3374L62.2559 28.3403C64.4264 28.0961 66.8227 28.9872 68.0469 26.6763C68.4985 25.8215 68.447 24.2101 67.916 23.4194ZM18.4229 21.1206C13.0073 23.3735 7.95165 25.4745 2.73145 27.645C1.16231 24.3999 0.413963 21.1697 0.707031 17.604C6.55924 18.7641 12.2623 19.8964 18.4229 21.1206ZM55.2959 19.2075C55.1403 20.1048 55.0304 20.9991 54.8076 21.8628C54.7405 22.1223 54.3582 22.4857 54.1201 22.4888C50.1729 22.5285 46.2227 22.5161 42.1992 22.5161V19.2075H55.2959ZM17.1338 20.0249C11.7029 18.9442 6.39101 17.8877 0.859375 16.7856C1.14947 13.2355 2.52048 10.1893 4.58398 7.46338C8.7692 11.6517 12.8875 15.7756 17.1338 20.0249ZM17.123 18.0864C13.3254 14.2888 9.45393 10.4182 5.46094 6.42822H5.46387C7.50915 4.01662 10.2201 2.15751 13.7031 0.976074C14.8662 6.80066 16.0119 12.5305 17.123 18.0864ZM14.5273 0.786621C18.096 -0.248266 20.9993 -0.25812 24.7236 0.730957C22.4799 6.1557 20.2487 11.5534 17.834 17.3872C16.677 11.5779 15.608 6.21739 14.5273 0.786621ZM19.0264 16.6577H19.0234C19.0248 16.6568 19.026 16.6557 19.0273 16.6548L19.0264 16.6577ZM25.5264 0.981934C28.9147 2.0138 31.6374 3.87585 34.0459 6.60791C29.0895 9.92538 24.2307 13.1757 19.0273 16.6548C21.2921 11.1914 23.3806 6.15855 25.5264 0.981934ZM34.5771 7.25537C36.7294 10.009 38.0792 13.0194 38.4639 16.5698H20.6445C25.4679 13.3431 29.9706 10.3356 34.5771 7.25537Z" fill="url(#paint0_linear_32727_80899)"/>
<defs>
<linearGradient id="paint0_linear_32727_80899" x1="67.4132" y1="-0.000488226" x2="67.4132" y2="26.3552" gradientUnits="userSpaceOnUse">
<stop stop-color="white"/>
<stop offset="1" stop-color="white" stop-opacity="0.6"/>
</linearGradient>
</defs>
</svg>
