<svg width="157" height="29" viewBox="0 0 157 29" fill="none" xmlns="http://www.w3.org/2000/svg">
<path d="M7.85254 20.2539C9.31468 20.313 10.7471 20.6879 12.0508 21.3525C14.0063 22.4165 15.8557 23.6649 17.5742 25.0801C16.1533 26.1524 13.9907 27.5071 12.998 28.1172L12.4648 28.4385C11.247 27.748 8.24942 25.7376 8.24023 25.7314C6.62482 24.6006 5.16636 23.2605 3.90234 21.7471C5.02263 20.8349 6.40895 20.3107 7.85254 20.2539ZM140.856 9.78809C142.43 8.69371 144.28 8.07163 146.189 7.99023L146.572 7.97949C149.115 7.97949 151.554 8.98991 153.353 10.7881C155.151 12.5863 156.161 15.0254 156.161 17.5684C156.161 20.1113 155.151 22.5505 153.353 24.3486C151.554 26.1467 149.115 27.1562 146.572 27.1562C144.528 27.1465 142.535 26.5168 140.856 25.3496V26.8379H136.789V0.154297H140.856V9.78809ZM71.1777 7.97949C73.7144 7.97949 76.1477 8.98663 77.9414 10.7803C79.7352 12.574 80.7432 15.0072 80.7432 17.5439C80.7435 18.2275 80.6706 18.9092 80.5254 19.5771H66.0713C66.4467 21.6443 68.4823 23.4578 71.4932 23.458C72.5166 23.474 73.5292 23.2396 74.4414 22.7754C75.3535 22.3112 76.1381 21.6306 76.7275 20.7939L79.8418 22.8926C78.9111 24.2219 77.6673 25.3019 76.2207 26.0371C74.774 26.7723 73.1684 27.1402 71.5459 27.1084C65.7843 27.1084 61.8661 23.082 61.627 18.0352L61.6133 17.5439C61.6133 15.0072 62.6213 12.574 64.415 10.7803C66.2087 8.98677 68.6413 7.97961 71.1777 7.97949ZM125.648 7.98047C128.185 7.98047 130.618 8.98846 132.412 10.7822C134.206 12.5759 135.214 15.0083 135.214 17.5449C135.214 18.2287 135.141 18.911 134.996 19.5791H120.542C120.916 21.6463 122.953 23.4588 125.963 23.459C126.986 23.475 127.999 23.2406 128.911 22.7764C129.823 22.3122 130.608 21.6325 131.197 20.7959L134.309 22.8916C133.378 24.221 132.134 25.3009 130.688 26.0361C129.241 26.7714 127.635 27.1392 126.013 27.1074C120.251 27.1074 116.333 23.0818 116.094 18.0352L116.084 17.5449C116.084 15.0083 117.092 12.5759 118.886 10.7822C120.679 8.98856 123.112 7.98058 125.648 7.98047ZM34.9619 7.7041C36.3997 7.66272 37.8286 7.94334 39.1436 8.52637C40.4585 9.1094 41.6259 9.97993 42.5605 11.0732L39.1689 13.4609C38.6881 12.7921 38.0569 12.2455 37.3262 11.8652C36.5954 11.485 35.7856 11.2814 34.9619 11.2715C33.4631 11.2715 31.7042 11.989 31.7041 13.3398C31.7041 13.8782 32.1866 14.6506 34.79 15.1406L35.3379 15.2344C37.2391 15.5292 42.4286 16.1428 42.7666 20.623C42.8407 21.3873 42.7466 22.1584 42.4922 22.8828C42.2376 23.6073 41.8279 24.2683 41.292 24.8184C40.4445 25.5818 39.4542 26.17 38.3779 26.5479C37.3015 26.9258 36.1604 27.0857 35.0215 27.0195H35.0098C32.1983 27.0195 28.5919 26.0903 26.8828 23.4824L30.4463 21.3369C31.0162 21.9821 31.7209 22.4947 32.5107 22.8369C33.3006 23.179 34.1562 23.3429 35.0166 23.3174C37.9125 23.3174 38.8343 21.926 38.6807 21.0215C38.5232 20.0978 37.3036 19.453 34.6631 19.042C29.7652 18.2786 27.355 16.301 27.499 13.1641C27.646 9.95139 30.7111 7.70412 34.9531 7.7041H34.9619ZM48.8408 8.9248C49.9222 8.34179 51.1238 8.01989 52.3496 7.9834L52.5947 7.98047C53.6062 7.9607 54.6119 8.14611 55.5498 8.52539C56.4875 8.90465 57.3385 9.47031 58.0518 10.1875C58.7651 10.9048 59.3261 11.7593 59.7002 12.6992C60.0275 13.5216 60.2059 14.3945 60.2285 15.2773V26.8389H56.1611V15.6562C56.1861 15.1795 56.1112 14.703 55.9414 14.2568C55.7716 13.8106 55.5104 13.4041 55.1748 13.0645C54.8392 12.725 54.4363 12.4592 53.9922 12.2842C53.548 12.1092 53.0718 12.0285 52.5947 12.0479C52.1103 12.0338 51.6279 12.1166 51.1758 12.291C50.7235 12.4655 50.3104 12.7286 49.9609 13.0645C49.6114 13.4004 49.332 13.803 49.1396 14.248C48.9474 14.6929 48.846 15.1717 48.8408 15.6562V26.8379H44.7734V0.154297H48.8408V8.9248ZM86.4707 11.2207C87.7051 9.84344 89.3417 8.88961 91.1484 8.49414L92.0596 12.0986C91.2485 12.1717 90.4608 12.4091 89.7441 12.7959C88.7564 13.2687 87.9235 14.0134 87.3438 14.9424C86.7642 15.8713 86.4614 16.9462 86.4707 18.041V26.8379H82.4023V8.27832H86.4707V11.2207ZM99.7871 19.3945L103.384 8.25684H105.762L109.463 19.3818L112.247 8.25684H116.43L111.835 26.8379H107.604L104.612 17.6074L101.708 26.8379H97.5566L92.8516 8.25684H96.8896L99.7871 19.3945ZM21.5273 10.9814C22.9523 12.8788 24.873 16.0928 24.873 16.0928C24.1756 17.3047 22.1585 20.2893 22.1494 20.3027C21.0111 21.9133 19.6649 23.3666 18.1455 24.624C17.236 23.5035 16.7161 22.1171 16.6641 20.6748C16.7274 19.2153 17.1071 17.7868 17.7764 16.4883C18.849 14.5377 20.1048 12.6936 21.5273 10.9814ZM146.572 12.0459C145.832 12.022 145.095 12.1474 144.404 12.4141C143.714 12.6807 143.084 13.0836 142.552 13.5986C142.02 14.1137 141.596 14.7304 141.308 15.4121C141.019 16.0939 140.87 16.827 140.87 17.5674C140.87 18.3078 141.019 19.0409 141.308 19.7227C141.596 20.4043 142.02 21.0211 142.552 21.5361C143.084 22.0511 143.714 22.454 144.404 22.7207C145.095 22.9874 145.832 23.1118 146.572 23.0879C148.036 23.0879 149.441 22.507 150.477 21.4717C151.512 20.4363 152.094 19.0316 152.094 17.5674C152.094 16.1031 151.512 14.6985 150.477 13.6631C149.441 12.6277 148.037 12.0459 146.572 12.0459ZM6.83984 7.5459C7.74775 8.66788 8.26624 10.0547 8.31738 11.4971C8.25115 12.9563 7.8696 14.3843 7.19824 15.6816C6.12398 17.6303 4.8655 19.4717 3.44043 21.1807C2.02793 19.2909 0.11686 16.093 0.101562 16.0674C0.802498 14.8537 2.83203 11.8604 2.83203 11.8604C3.97155 10.2515 5.31944 8.80097 6.83984 7.5459ZM71.1797 12.0459C70.0795 12.0459 69.0043 12.3766 68.0938 12.9941C67.1835 13.6116 66.4792 14.4879 66.0723 15.5098H76.2871C75.8802 14.4879 75.1759 13.6116 74.2656 12.9941C73.3551 12.3766 72.2798 12.0459 71.1797 12.0459ZM125.646 12.0459C124.546 12.0459 123.471 12.3756 122.561 12.9932C121.65 13.6107 120.946 14.4876 120.539 15.5098H130.754C130.347 14.4877 129.643 13.6107 128.732 12.9932C127.822 12.3756 126.747 12.0459 125.646 12.0459ZM12.5 3.72852C13.7195 4.41894 16.7246 6.43555 16.7246 6.43555C18.3403 7.56613 19.7993 8.9055 21.0635 10.4189C19.9429 11.3317 18.5564 11.8561 17.1123 11.9131C15.651 11.8532 14.2193 11.4783 12.916 10.8145C10.96 9.74992 9.10963 8.50168 7.39062 7.08594C8.81135 6.01445 10.9733 4.65921 11.9658 4.04883L12.5 3.72852Z" fill="url(#paint0_linear_32727_80882)"/>
<defs>
<linearGradient id="paint0_linear_32727_80882" x1="78.2344" y1="0.154297" x2="78.2344" y2="28.507" gradientUnits="userSpaceOnUse">
<stop stop-color="white"/>
<stop offset="1" stop-color="white" stop-opacity="0.6"/>
</linearGradient>
</defs>
</svg>
