<svg width="172" height="30" viewBox="0 0 172 30" fill="none" xmlns="http://www.w3.org/2000/svg">
<path d="M21.9004 9.42432L21.0156 9.58154C21.9675 11.1915 22.9642 12.8818 23.9385 14.521L23.8896 14.7808L21.877 22.0474L22.5557 22.0981C22.3965 22.9518 22.2402 23.7717 22.0967 24.5317C26.3555 24.7111 30.1276 24.7666 29.7979 24.2407C29.466 23.7113 26.8269 19.2885 23.9307 14.4224C24.8932 8.98262 25.6841 3.97927 25.4893 3.22607C25.4978 3.247 29.1052 12.1116 31.9004 19.1138L30.7773 24.2827L30.7783 24.2837C30.7854 24.2852 30.885 24.3037 31.0596 24.3384C31.5709 24.4406 32.7278 24.6648 34.1143 24.8804C33.5384 23.3869 32.7665 21.4174 31.918 19.2739L33.167 13.5259L32.3643 13.6577C32.3809 13.5978 34.698 5.24506 35.3066 3.68018L35.3965 3.26807C35.407 3.29647 38.3464 11.2506 40.4043 17.4966C39.9921 20.4886 39.6264 23.3614 39.374 25.3872C40.9543 25.4044 42.17 25.2029 42.3467 24.5737C42.3572 24.5365 42.362 24.4878 42.3633 24.4292C42.4119 23.6577 41.5485 20.7378 40.4131 17.2925C41.2552 11.2482 42.2804 4.74605 42.9023 3.90869L42.9775 4.10986C43.8486 5.41322 50.3769 20.8872 50.416 20.98L49.3281 21.0288C50.6863 24.7192 51.7316 27.6487 51.7744 28.0386C51.8896 29.0858 39.0511 28.0421 39.0195 28.0396C39.0195 28.0396 39.1319 27.0983 39.3203 25.5903C37.6241 25.5325 35.9335 25.3652 34.2588 25.0903C34.6951 26.2213 34.9949 27.0222 35.0869 27.3286C35.5553 28.8927 21.1035 29.4845 21.0938 29.4849C21.0972 29.4676 21.4801 27.5298 22.0186 24.7183C20.2654 24.6425 18.4334 24.5466 16.7715 24.4585L17.6045 26.4546C17.6045 26.4546 3.39253 25.7507 0.885742 26.2476C0.0314634 26.4159 0.691939 24.096 1.93164 20.9604L0.671875 20.9146C0.691735 20.8768 6.59645 9.66462 7.98828 7.62939C8.56859 6.44462 8.93751 5.71137 8.94336 5.69971L12.4209 14.0298C11.2077 19.3945 10.3224 24.1731 10.9062 24.0483C11.291 23.9654 13.6556 24.0866 16.5898 24.2388L12.418 14.1274C13.5778 8.93904 15.0384 3.20999 15.8096 0.749512L21.9004 9.42432Z" fill="url(#paint0_linear_32727_81099)"/>
<path d="M120.605 11.5024C120.915 12.2574 121.097 13.0588 121.144 13.8735C121.452 13.2177 121.928 12.6554 122.524 12.2437C123.121 11.8319 123.816 11.5854 124.539 11.5298C126.425 11.5299 127.019 12.7424 127.019 13.6313C127.038 13.8275 127.016 14.026 126.955 14.2134C126.894 14.4007 126.795 14.5735 126.663 14.7202C126.531 14.867 126.37 14.9847 126.19 15.0659C126.011 15.147 125.816 15.1901 125.619 15.1919C125.328 15.1969 125.044 15.0957 124.821 14.9077C124.598 14.7196 124.451 14.4568 124.407 14.1685C124.299 13.6292 124.057 13.2261 123.436 13.2261C122.627 13.2264 121.146 14.4115 121.146 16.9175V19.6392C121.146 22.334 121.523 22.7925 123.192 22.7925V23.5474H115.918V22.7905C117.562 22.7905 117.964 22.3325 117.964 19.6372V16.0278C117.964 13.65 117.712 13.0137 116.485 12.897C116.499 12.9782 116.509 13.0607 116.509 13.145C116.521 13.2984 116.502 13.4534 116.452 13.5991C116.403 13.7446 116.323 13.8781 116.22 13.9917C116.116 14.1055 115.99 14.1974 115.85 14.2603C115.709 14.3231 115.557 14.3563 115.403 14.3579C115.187 14.3636 114.975 14.2979 114.8 14.1714C114.625 14.0448 114.496 13.8637 114.434 13.6567C114.298 13.2797 114.163 12.9556 113.705 12.9556C113.381 13.0043 113.084 13.1667 112.869 13.4136C113.368 13.9888 113.637 14.7277 113.624 15.4888C113.624 17.5912 111.819 19.1803 109.07 19.4233C105.782 19.7468 105.378 19.9362 105.378 20.4214C105.378 20.7982 105.756 21.0406 108.208 21.0669C112.843 21.1478 114.46 22.6304 114.46 24.813C114.46 27.1025 112.062 28.9106 108.315 28.9106C104.543 28.9106 102.684 27.617 102.684 26.1069C102.684 25.1643 103.574 24.4093 104.544 24.2476L105.271 24.5972C105.013 24.6856 104.788 24.8535 104.629 25.0757C104.469 25.2979 104.383 25.5639 104.382 25.8374C104.382 26.8345 106.079 27.6166 108.315 27.6167C110.957 27.6167 112.332 26.646 112.332 25.6216C112.332 24.5974 111.468 24.0589 107.966 23.978C104.463 23.9244 103.277 22.7927 103.277 21.4448C103.277 20.2324 104.382 19.3708 105.972 19.02C104.462 18.4272 103.277 17.1874 103.277 15.4897C103.277 13.1457 105.542 11.5278 108.479 11.5278C109.804 11.4941 111.103 11.9021 112.171 12.687C112.805 12.0289 113.658 11.6256 114.568 11.5542C115.24 11.5542 115.753 11.7698 116.082 12.103L120.605 11.5024ZM59.9746 11.5278C63.2084 11.528 65.04 13.7383 65.04 15.9751C65.0394 16.3754 64.9855 16.7738 64.8789 17.1597H57.4404V17.8354C57.4941 20.4488 58.2202 22.3354 61.0518 22.3354C62.4099 22.3025 63.7073 21.7634 64.6895 20.8247L65.3896 21.7964C63.9257 23.1699 61.9816 23.9152 59.9746 23.8716C56.4445 23.8716 54.0724 21.1766 54.0723 17.646C54.0521 16.8552 54.1888 16.0678 54.4756 15.3306C54.7624 14.5933 55.1929 13.9203 55.7422 13.3511C56.2913 12.7819 56.9485 12.3281 57.6748 12.0151C58.4013 11.7021 59.1836 11.536 59.9746 11.5278ZM85.1182 11.5278C88.352 11.5279 90.1844 13.7373 90.1846 15.9741C90.1837 16.3746 90.1293 16.7735 90.0234 17.1597H82.584V17.8345C82.6376 20.4479 83.3637 22.3344 86.1963 22.3345C87.5544 22.301 88.8515 21.763 89.834 20.8247L90.5342 21.7954C89.0701 23.1693 87.1254 23.9143 85.1182 23.8706C81.5879 23.8706 79.2168 21.1758 79.2168 17.645C79.1965 16.8544 79.3335 16.0677 79.6201 15.3306C79.9068 14.5933 80.3376 13.9204 80.8867 13.3511C81.4359 12.7818 82.0929 12.3272 82.8193 12.0142C83.5457 11.7012 84.3273 11.536 85.1182 11.5278ZM133.326 11.5278C136.56 11.5279 138.392 13.7374 138.393 15.9741C138.392 16.3746 138.337 16.7735 138.231 17.1597H130.792V17.8345C130.847 20.4479 131.572 22.3344 134.403 22.3345C135.762 22.301 137.059 21.763 138.042 20.8247L138.742 21.7954C137.278 23.1691 135.333 23.9141 133.326 23.8706C129.796 23.8706 127.424 21.1758 127.424 17.645C127.404 16.8543 127.541 16.0677 127.828 15.3306C128.115 14.5935 128.545 13.9203 129.094 13.3511C129.643 12.7818 130.301 12.3272 131.027 12.0142C131.754 11.7013 132.535 11.536 133.326 11.5278ZM145.751 11.5278C148.985 11.5278 150.817 13.7373 150.817 15.9741C150.817 16.3746 150.762 16.7735 150.656 17.1597H143.218V17.8345C143.272 20.4479 143.998 22.3344 146.829 22.3345C148.187 22.301 149.485 21.763 150.468 20.8247L151.168 21.7954C149.704 23.1693 147.758 23.9143 145.751 23.8706C142.221 23.8705 139.85 21.1757 139.85 17.645C139.829 16.8545 139.966 16.0676 140.253 15.3306C140.54 14.5934 140.97 13.9203 141.52 13.3511C142.069 12.7818 142.726 12.3272 143.452 12.0142C144.179 11.7012 144.96 11.5361 145.751 11.5278ZM71.9697 12.6597C70.4598 12.6597 70.1377 13.2253 70.7305 14.519L73.2363 20.0972L75.7422 14.519C76.278 13.2525 76.0381 12.6587 74.583 12.6587V11.9048H79.7568V12.6597C78.6795 12.6598 77.8701 13.1986 77.2783 14.519L73.1279 23.6548H71.4844L67.3633 14.519C66.7432 13.1711 66.0429 12.6587 64.9922 12.6587V11.9048H71.9697V12.6597ZM96.2461 11.5024C96.5562 12.2574 96.7383 13.0588 96.7852 13.8735C97.0932 13.2177 97.5697 12.6554 98.166 12.2437C98.7623 11.8319 99.4571 11.5854 100.18 11.5298C102.066 11.5298 102.659 12.7423 102.659 13.6313C102.679 13.8275 102.658 14.0259 102.597 14.2134C102.535 14.4008 102.435 14.5734 102.304 14.7202C102.172 14.867 102.011 14.9848 101.831 15.0659C101.651 15.147 101.457 15.1902 101.26 15.1919C100.968 15.1969 100.685 15.0957 100.462 14.9077C100.239 14.7196 100.092 14.4568 100.048 14.1685C99.9407 13.6292 99.6973 13.2261 99.0762 13.2261C98.2679 13.2264 96.7871 14.4115 96.7871 16.9175V19.6392C96.7871 22.334 97.1641 22.7925 98.833 22.7925V23.5474H91.5586V22.7905C93.2027 22.7905 93.6045 22.3325 93.6045 19.6372V16.0278C93.6045 13.3336 93.2811 12.8745 91.583 12.8745V12.1226L96.2461 11.5024ZM156.879 11.5024C157.18 12.2596 157.362 13.0588 157.419 13.8716C157.89 13.1574 158.53 12.5704 159.282 12.1616C160.034 11.7529 160.875 11.5351 161.73 11.5278C164.507 11.5279 166.018 13.4142 166.018 16.1626V19.6392C166.018 22.3338 166.395 22.7925 168.066 22.7925V23.5464H160.947V22.7905C162.457 22.7905 162.834 22.3325 162.834 19.6372V16.4575C162.834 14.3018 162.105 13.2515 160.489 13.2515C158.926 13.2517 157.417 14.7618 157.417 16.7817V19.6382C157.417 22.333 157.795 22.7915 159.304 22.7915V23.5464H152.191V22.7905C153.835 22.7905 154.237 22.3325 154.237 19.6372V16.0278C154.237 13.3335 153.915 12.8745 152.216 12.8745V12.1226L156.879 11.5024ZM108.479 12.7134C107.267 12.7134 106.512 13.7112 106.512 15.4897C106.512 17.1879 107.267 18.2661 108.479 18.2661C109.692 18.2658 110.42 17.1881 110.42 15.4897C110.417 13.7115 109.69 12.7136 108.479 12.7134ZM60.082 12.8755C58.896 12.8756 57.9259 13.7922 57.5762 15.896H62.0225C62.0584 15.6549 62.0758 15.4112 62.0762 15.1675C62.0756 13.657 61.2672 12.8755 60.082 12.8755ZM85.2266 12.8755C84.0405 12.8755 83.0705 13.7915 82.7197 15.895H87.167C87.2021 15.6541 87.2201 15.411 87.2207 15.1675C87.2207 13.6571 86.4125 12.8757 85.2266 12.8755ZM133.433 12.8755C132.248 12.8757 131.278 13.7917 130.928 15.895H135.374C135.409 15.6541 135.428 15.411 135.429 15.1675C135.428 13.6569 134.619 12.8755 133.433 12.8755ZM145.858 12.8755C144.673 12.8755 143.702 13.7914 143.353 15.895H147.797C147.832 15.6541 147.851 15.411 147.852 15.1675C147.854 13.6569 147.045 12.8745 145.858 12.8745V12.8755Z" fill="url(#paint1_linear_32727_81099)"/>
<path d="M167.967 11.8245V14.0205H167.649V11.8245H166.918V11.5381H168.7V11.8245H167.967ZM171.182 14.0205L171.022 11.9517H171.003L170.293 14.022H170.05L169.337 11.9531H169.319L169.16 14.022H168.842L169.052 11.5376H169.497L170.165 13.511H170.179L170.847 11.5376H171.293L171.502 14.022L171.182 14.0205Z" fill="#CECECE"/>
<defs>
<linearGradient id="paint0_linear_32727_81099" x1="48.2096" y1="0.749512" x2="48.2096" y2="20.6797" gradientUnits="userSpaceOnUse">
<stop stop-color="white"/>
<stop offset="1" stop-color="white" stop-opacity="0.6"/>
</linearGradient>
<linearGradient id="paint1_linear_32727_81099" x1="160.14" y1="11.5024" x2="160.14" y2="23.5764" gradientUnits="userSpaceOnUse">
<stop stop-color="white"/>
<stop offset="1" stop-color="white" stop-opacity="0.6"/>
</linearGradient>
</defs>
</svg>
