<svg width="104" height="30" viewBox="0 0 104 30" fill="none" xmlns="http://www.w3.org/2000/svg">
<path d="M46.1328 19.3008H38.7363V22.0498H45.3525V24.668H38.7363V29.749H35.875V16.6562H46.1328V19.3008ZM59.0127 19.2832H51.5645V21.8408H58.2324V24.46H51.5645V27.1221H59.0996V29.749H48.7031V16.6562H59.0127V19.2832ZM96.3936 21.9365L100.148 16.6562H103.564L97.7725 24.6943L97.8242 29.749H94.9287V24.5557L89.1797 16.6562H92.6738L96.3936 21.9365ZM29.9346 29.748H0.4375V0.250977H29.9346V29.748ZM68.3857 16.6562C70.0331 16.6562 71.4464 17.142 72.3828 18.0264C73.0819 18.7011 73.4916 19.6195 73.54 20.6318L73.5449 20.8271C73.5448 22.6478 72.5213 24.0177 70.7266 24.668L74.7246 29.7402H71.1689L67.6406 25.2139H65.2646V29.7402H62.3945V16.6562H68.3857ZM83.1787 16.6562C84.8261 16.6562 86.2393 17.142 87.1758 18.0264C87.883 18.7011 88.2855 19.6195 88.333 20.6318L88.3379 20.8271C88.3378 22.6478 87.323 24.0177 85.5283 24.668L89.5254 29.7402H85.9707L82.4336 25.2139H80.0576V29.7402H77.1875V16.6562H83.1787ZM15.7852 25.4043H16.626V4.59473H15.7852V25.4043ZM3.64062 14.5566L9.91797 23.5654H15.0254V22.6807H13.5684L6.52734 12.6055L11.0713 7.30762H13.1172V6.43164H10.6807L3.64062 14.5566ZM65.2646 22.6045H68.5156C69.8596 22.5351 70.666 21.997 70.666 20.9219C70.6659 19.847 69.8686 19.3009 68.291 19.3008H65.2646V22.6045ZM80.0488 22.6045H83.3008C84.5606 22.5393 85.348 21.9787 85.4414 21.1016L85.4424 20.9219C85.4422 19.847 84.6442 19.3008 83.0664 19.3008H80.0488V22.6045ZM22.1475 11.332C21.948 13.5603 20.9419 14.4276 18.5664 14.4277H18.2539V15.3115H18.5664C21.8868 15.3117 22.0694 17.5315 22.1475 18.4766L22.1729 18.7627H22.9619V11.0459H22.1729L22.1475 11.332ZM55.4609 0.250977C59.4234 0.250977 62.4062 3.16424 62.4062 6.96191C62.4062 10.7596 59.3804 13.7333 55.418 13.7334C51.4555 13.7334 48.4727 10.8202 48.4727 7.02246C48.4728 3.22494 51.542 0.251105 55.4609 0.250977ZM38.7451 13.5342H35.875V0.450195H38.7451V13.5342ZM42.54 6.30273L48.5488 13.5342H44.9238L38.8633 6.2334L44.6904 0.450195H48.5488L42.54 6.30273ZM71.6318 0.450195C73.2791 0.450195 74.6925 0.935122 75.6289 1.81934C76.3832 2.53899 76.791 2.80812 76.791 4.62891C76.791 6.44974 75.7763 7.81943 73.9814 8.46973L77.9785 13.5342H74.4238L70.8867 9.00781H68.5107V13.5342H65.6406V0.450195H71.6318ZM89.416 8.45312V0.450195H92.2432V13.5342H90.041L83.2686 5.31348V13.5342H80.4336V0.450195H82.835L89.416 8.45312ZM18.2539 7.30957H20.5605C23.4389 7.30966 25.1818 8.88727 25.9102 12.1211L25.9619 12.3643H26.708L26.7168 12.3555V6.4248H18.2539V7.30957ZM55.4268 2.88672C53.1291 2.88672 51.3946 4.64692 51.3945 6.96191C51.3945 9.27689 53.1633 11.0975 55.4609 11.0977C57.7587 11.0977 59.4932 9.34619 59.4932 7.02246C59.493 4.66427 57.7243 2.88685 55.4268 2.88672ZM68.5107 6.39746H71.7617C73.1056 6.3281 73.912 5.79087 73.9121 4.71582C73.9121 3.64076 73.1149 3.09483 71.5371 3.09473H68.5107V6.39746Z" fill="url(#paint0_linear_32727_80920)"/>
<defs>
<linearGradient id="paint0_linear_32727_80920" x1="52.0691" y1="0.250977" x2="52.0691" y2="29.8205" gradientUnits="userSpaceOnUse">
<stop stop-color="white"/>
<stop offset="1" stop-color="white" stop-opacity="0.6"/>
</linearGradient>
</defs>
</svg>
