<svg width="129" height="38" viewBox="0 0 129 38" fill="none" xmlns="http://www.w3.org/2000/svg">
<path d="M49.2393 22.3154C48.4395 22.7682 47.6035 23.1673 46.8486 23.6846C45.0319 24.9283 43.2313 26.1971 41.4639 27.5107C39.4129 29.0353 37.6212 30.8554 35.8877 32.7207C34.6573 34.0443 33.5354 35.4692 32.375 36.8564C32.1113 37.1712 31.9089 37.5394 31.6318 37.8398C31.5249 37.9553 31.2657 38.0313 31.1152 37.9883C29.6581 37.5668 28.2132 37.1055 26.7578 36.6777C25.7159 36.3711 24.6582 36.1141 23.6172 35.8057C22.2784 35.4084 20.9504 34.9765 19.6143 34.5703C19.0306 34.3928 18.437 34.2485 17.8516 34.0781C17.153 33.8755 16.4593 33.6522 15.7598 33.4531C14.7428 33.1635 13.7219 32.8879 12.7031 32.6045C12.6244 32.5821 12.55 32.5425 12.4336 32.4941C12.5285 32.3884 12.5815 32.2934 12.6631 32.2441C15.7911 30.3537 19.0809 28.7821 22.4941 27.4961C31.1029 24.2526 39.9831 22.3443 49.2393 22.3154ZM82.2451 26.3037C82.2657 26.0079 82.2862 25.8546 82.2871 25.7021C82.2898 24.7157 82.2865 23.7287 82.29 22.7432C82.2899 22.5585 82.2351 22.3333 82.5469 22.3262C82.8525 22.3191 82.8242 22.531 82.8242 22.7256C82.8251 24.2501 82.825 25.7743 82.8232 27.2988C82.8232 27.3812 82.8014 27.4636 82.7764 27.6416L82.7754 27.6406C81.4464 26.2489 80.1784 24.9197 78.8145 23.4912V27.4639C78.6091 27.4764 78.4672 27.4853 78.2852 27.4961V22.1699C79.5962 23.5383 80.8714 24.8699 82.2451 26.3037ZM99.8389 22.292C100.434 22.0974 101.078 22.2709 101.465 22.7334C101.521 22.8004 101.57 22.8743 101.663 23C101.506 23.1081 101.388 23.1899 101.258 23.2803C100.929 22.8947 100.578 22.6133 100.05 22.7998C99.7333 22.911 99.4947 23.088 99.4561 23.4502C99.4166 23.8151 99.6149 24.0528 99.9062 24.207C100.221 24.3747 100.559 24.497 100.882 24.6494C101.699 25.0341 102.009 25.6195 101.821 26.4111C101.662 27.0837 101.008 27.574 100.258 27.583C99.4194 27.5928 98.8661 27.145 98.668 26.2617C98.815 26.2205 98.9657 26.1792 99.1396 26.1299C99.3405 26.6491 99.6173 27.0685 100.255 27.0479C100.734 27.0315 101.161 26.7318 101.263 26.3115C101.384 25.8094 101.22 25.4662 100.726 25.207C100.435 25.0555 100.141 24.906 99.8428 24.7715C99.1856 24.4756 98.8555 24.0532 98.876 23.5117C98.8975 22.9478 99.2669 22.4786 99.8389 22.292ZM63.165 27.4307C62.7958 27.5351 62.5198 27.5634 62.4355 27.1484C62.2436 26.2005 61.6944 25.8909 60.7285 25.9922C59.7487 26.0944 59.7403 26.0149 59.3574 26.917C59.2768 27.1069 59.1888 27.2949 59.1055 27.4795H58.5039C59.2912 25.6825 60.0588 23.9322 60.8721 22.0752C61.6637 23.9221 62.4083 25.6617 63.165 27.4307ZM66.6797 22.3203C67.0931 22.3616 67.5264 22.3138 67.9219 22.416C68.5442 22.5765 68.8679 23.0772 68.876 23.7148C68.8849 24.3695 68.547 24.8693 67.9443 25.0908C67.8627 25.1204 67.778 25.1445 67.6104 25.1992C68.1386 25.9543 68.6436 26.6754 69.1709 27.4287C68.7551 27.5568 68.4997 27.4947 68.2783 27.1328C67.9295 26.5607 67.5203 26.0243 67.1338 25.4746C67.0701 25.3849 66.9927 25.304 66.9219 25.2197C66.8815 25.235 66.8421 25.2504 66.8018 25.2656C66.8018 25.86 66.7844 26.4544 66.8086 27.0479C66.8247 27.4352 66.6988 27.5735 66.291 27.4473C66.2803 27.3208 66.2597 27.1906 66.2588 27.0605C66.2561 25.6258 66.2652 24.1906 66.25 22.7559C66.2465 22.4288 66.3373 22.2863 66.6797 22.3203ZM89.21 22.3271V22.8242C88.646 22.8242 88.0965 22.8382 87.5469 22.8193C87.2232 22.8086 87.0906 22.913 87.0986 23.252C87.1318 24.632 86.9174 24.3612 88.2236 24.3916C88.4477 24.397 88.6766 24.3668 88.8936 24.4053C88.9956 24.4241 89.1505 24.5707 89.1465 24.6533C89.142 24.75 88.9956 24.9151 88.9023 24.9209C88.4261 24.9496 87.9468 24.9453 87.4697 24.9336C87.2052 24.9273 87.0897 25.016 87.0996 25.2949C87.1158 25.7272 87.1149 26.1615 87.0996 26.5938C87.0907 26.8644 87.1912 26.968 87.4629 26.96C87.9102 26.9465 88.3593 26.9727 88.8057 26.9521C89.1904 26.9342 89.3373 27.0653 89.1885 27.4912V27.4902C88.3968 27.4902 87.5944 27.4981 86.792 27.4766C86.7122 27.4748 86.5702 27.2899 86.5693 27.1895C86.555 25.667 86.5543 24.1436 86.5723 22.6211C86.5732 22.5225 86.7531 22.3436 86.8535 22.3398C87.6264 22.3165 88.4012 22.3271 89.21 22.3271ZM93.0918 22.3213C93.4774 22.3563 93.8769 22.311 94.25 22.3926C94.8585 22.5264 95.2331 23.0441 95.2529 23.6572C95.2744 24.3494 94.9501 24.8582 94.3379 25.0869C94.2446 25.1219 94.1501 25.1554 93.9941 25.2119H93.9951C94.5233 25.9615 95.0256 26.6743 95.5537 27.4248C95.1708 27.536 94.9109 27.5392 94.6885 27.1787C94.3289 26.5958 93.9152 26.0447 93.5215 25.4824C93.457 25.391 93.3789 25.3084 93.2061 25.2412V27.4629C92.9945 27.4745 92.8533 27.4813 92.6758 27.4912C92.6605 27.3307 92.6377 27.2014 92.6377 27.0723C92.635 25.6375 92.6477 24.2024 92.6289 22.7686C92.6245 22.4064 92.7466 22.2899 93.0918 22.3213ZM53.6914 22.2861C54.3074 22.3372 54.9179 22.3241 55.4971 22.4531C56.0745 22.5823 56.4325 23.2948 56.3447 23.9082C56.2389 24.6444 55.7568 25.141 55.0889 25.2012C54.503 25.2538 54.2096 25.5799 54.209 26.1777C54.209 26.565 54.2067 26.9535 54.2031 27.3408C54.203 27.3684 54.1839 27.3955 54.1572 27.4648V27.4658H53.6914V22.2861ZM72.208 22.3389C73.0885 22.3218 73.9691 22.3179 74.8496 22.3457C74.9429 22.3484 75.0304 22.5744 75.1201 22.6973C75.0887 22.734 75.0578 22.7709 75.0264 22.8086H73.8125V27.4609H73.2188V26.4883C73.2188 25.4284 73.1998 24.3675 73.2285 23.3076C73.2393 22.9005 73.1026 22.7681 72.7188 22.8184C72.5575 22.8399 72.3845 22.8491 72.2295 22.8115C72.1335 22.7873 71.997 22.6648 71.9961 22.585C71.9956 22.4997 72.1301 22.3398 72.208 22.3389ZM37.75 22.2959C37.0605 22.3873 36.3676 22.4604 35.6826 22.5752C33.7428 22.8998 31.7955 23.1953 29.8701 23.5908C28.1367 23.9468 26.4209 24.3976 24.709 24.8496C23.6473 25.1294 22.6152 25.5276 21.5508 25.7939C21.1447 25.8953 20.6713 25.8389 20.249 25.752C16.9373 25.0704 13.6313 24.3612 10.3223 23.668C8.13588 23.2097 5.94705 22.7655 3.75977 22.3135C3.75197 22.3111 3.7483 22.2905 3.73242 22.2588H37.7451C37.7469 22.2711 37.7482 22.2835 37.75 22.2959ZM59.9805 25.4502H61.7188C61.4435 24.785 61.1871 24.1664 60.9307 23.5469H60.9316C60.8887 23.5397 60.8456 23.5325 60.8018 23.5254C60.5346 24.153 60.2665 24.7796 59.9805 25.4502ZM54.21 23.9004C54.21 24.8042 54.2671 24.8481 55.1357 24.6348C55.5598 24.5299 55.7476 24.2189 55.7979 23.8271C55.8481 23.4362 55.6904 23.097 55.3086 22.9678C54.9849 22.8575 54.6287 22.8423 54.2109 22.7715H54.21V23.9004ZM94.6768 23.501C94.5952 23.0697 94.0301 22.7476 93.458 22.8281C92.9648 22.8981 93.2626 23.2969 93.1846 23.5391C93.1676 23.5929 93.1826 23.6577 93.1826 23.7178H93.1846C93.1846 23.9563 93.1638 24.1977 93.1943 24.4326C93.208 24.5339 93.3097 24.6827 93.3984 24.7051C94.1498 24.8987 94.8199 24.2577 94.6768 23.501ZM67.1475 22.8203C66.5765 22.8347 66.878 23.2643 66.8076 23.5137C66.7843 23.5962 66.8037 23.6916 66.8037 23.7812H66.8027C66.8027 23.9596 66.7731 24.1451 66.8115 24.3154C66.8438 24.458 66.935 24.677 67.0381 24.7012C67.7733 24.874 68.3758 24.3173 68.2969 23.5713C68.2466 23.1024 67.7767 22.8052 67.1475 22.8203ZM39.1416 0.0136719C41.1879 0.0289105 43.2356 0.00443342 45.2793 0.0761719C46.9579 0.134542 48.4725 0.649129 49.5566 2.04883C51.2381 4.21907 51.2611 8.9484 46.8955 9.99316C46.579 10.0694 46.2626 10.1465 45.8564 10.2451L45.8584 10.2471C47.3766 12.3168 48.8415 14.3162 50.3848 16.4209C49.5672 16.4209 48.8804 16.3631 48.208 16.4375C47.4655 16.52 47.0452 16.2486 46.6309 15.6289C45.0884 13.3234 43.4751 11.0639 41.8896 8.78711C41.8656 8.75221 41.8542 8.70872 41.7988 8.58008C42.0221 8.58008 42.2056 8.57649 42.3877 8.58008C43.4961 8.60428 44.59 8.52354 45.667 8.22852C47.5431 7.71465 48.503 6.08684 47.9111 4.27441C47.5237 3.08919 46.5855 2.38667 45.4092 2.23145C44.0569 2.053 42.6729 2.10209 41.3027 2.0752C41.2122 2.0734 41.0826 2.25288 41.0342 2.37305C40.9877 2.48859 41.0224 2.63717 41.0225 2.77148V15.8184C41.0225 16.4174 41.0206 16.418 40.4395 16.4189C39.9167 16.4198 39.3938 16.4128 38.8711 16.4209C38.656 16.424 38.5397 16.3517 38.5254 16.165V0.611328C38.5254 0.0124226 38.5256 0.00918828 39.1416 0.0136719ZM14.7451 0.00292969C15.4383 0.0423887 16.1347 0.0136719 16.9131 0.0136719L16.9141 0.0146484C16.0989 1.84667 15.3357 3.55669 14.5762 5.26855C13.0023 8.81717 11.4239 12.3641 9.86523 15.9199C9.69489 16.3081 9.4761 16.4064 9.06738 16.4414C8.34815 16.5033 8.01021 16.2447 7.71875 15.5703C6.07582 11.7697 4.37055 7.99557 2.68457 4.21289C2.15728 3.03008 1.62487 1.84981 1.09668 0.666992C1.01239 0.479571 0.938425 0.286763 0.828125 0.0195312C1.71586 0.0195312 2.54441 0.00744679 3.37207 0.0361328C3.47341 0.03972 3.59901 0.249589 3.6582 0.387695C4.45091 2.2206 5.2331 4.05698 6.01953 5.89258C6.9235 8.00183 7.82862 10.1104 8.73438 12.2188C8.76307 12.2842 8.80314 12.3457 8.89551 12.5107C9.1367 11.9683 9.35083 11.5072 9.55078 11.04C11.0574 7.52014 12.5648 3.99899 14.0615 0.474609C14.1987 0.151865 14.3535 -0.0193609 14.7451 0.00292969ZM128.657 2.04199C128.486 2.05186 128.314 2.07227 128.141 2.07227C126.975 2.07496 125.809 2.08776 124.645 2.06445C124.242 2.05638 124.14 2.19926 124.141 2.58398C124.152 7.00876 124.14 11.4336 124.158 15.8584C124.16 16.3184 124.034 16.4682 123.582 16.4287C123.152 16.392 122.716 16.4209 122.283 16.4209C121.856 16.4209 121.642 16.2135 121.642 15.7998V9.79102C121.642 7.39926 121.631 5.00699 121.651 2.61523C121.655 2.17331 121.512 2.05467 121.089 2.06445C119.938 2.08867 118.787 2.06214 117.637 2.08008C117.301 2.08545 117.189 1.97777 117.204 1.64453C117.227 1.12439 117.211 0.602908 117.211 0.0361328H128.657V2.04199ZM75.3047 0.00683594C75.7186 0.00421646 75.8649 0.121099 75.8291 0.53418C75.7968 0.905373 75.8029 1.28221 75.8271 1.6543C75.8505 2.00046 75.7039 2.08464 75.3828 2.08105C74.2028 2.06671 73.0218 2.07536 71.8408 2.07715C71.7101 2.07716 71.5794 2.09398 71.3916 2.10742V2.65527C71.3916 7.06477 71.3852 11.4753 71.4014 15.8848C71.4032 16.3188 71.2828 16.4602 70.8506 16.4297C70.3449 16.3938 69.8346 16.4053 69.3271 16.4277C68.9954 16.4421 68.8833 16.3322 68.8887 15.9941C68.9066 14.8732 68.8955 13.7518 68.8955 12.6309C68.8955 9.29762 68.8899 5.9641 68.9043 2.63086C68.906 2.20882 68.798 2.05567 68.3555 2.06543C67.1457 2.09233 65.9334 2.06752 64.7236 2.08008C64.4198 2.0836 64.2895 1.99575 64.3057 1.6748C64.3272 1.25799 64.3263 0.837632 64.3057 0.419922C64.2904 0.102585 64.4153 0.00634174 64.7227 0.0107422C65.6643 0.0250905 66.6062 0.0156256 67.5479 0.015625C70.1333 0.015625 72.7192 0.0247719 75.3047 0.00683594ZM57.0117 0.0078125C57.5023 0.040994 57.9987 0.0374068 58.4893 0.0078125C58.8924 -0.0162924 59.026 0.10746 59.0225 0.53125C59.0027 3.09953 59.0127 5.66903 59.0127 8.2373L59.0098 12.0684C59.0098 13.3453 59.0126 14.6225 59.0225 15.8994C59.0251 16.3187 58.8978 16.4509 58.4902 16.4277C57.9692 16.3981 57.4438 16.4052 56.9219 16.4268C56.5743 16.441 56.449 16.3233 56.4561 15.9668C56.4767 15.0262 56.4629 14.0851 56.4629 13.1445C56.4629 8.94753 56.4693 4.74982 56.4531 0.553711C56.4514 0.113651 56.5859 -0.0208434 57.0117 0.0078125ZM22.4824 0.00585938C25.4123 0.0211049 28.3425 0.0202879 31.2715 0.00683594C31.6401 0.00504235 31.7835 0.108777 31.7539 0.486328C31.7252 0.843116 31.7234 1.20564 31.7539 1.56152C31.7879 1.95135 31.6622 2.07382 31.2588 2.06934C29.241 2.04871 27.2228 2.06055 25.2051 2.06055C24.7486 2.0607 24.5201 2.28272 24.5195 2.72559C24.5195 4.02574 24.5332 5.3268 24.5117 6.62695C24.5054 7.02334 24.6344 7.14039 25.0254 7.1377C27.1032 7.12155 29.1809 7.13992 31.2578 7.12109C31.6614 7.11751 31.7861 7.2445 31.7529 7.63281C31.7225 7.98873 31.7242 8.3521 31.7529 8.70801C31.7824 9.07368 31.6326 9.15992 31.291 9.15723C29.2285 9.14378 27.166 9.16133 25.1035 9.1416C24.6669 9.13712 24.4981 9.23588 24.5088 9.70898C24.5393 11.099 24.5306 12.4908 24.5127 13.8809C24.5083 14.2473 24.6111 14.3698 24.9893 14.3662C27.0813 14.3492 29.1745 14.3668 31.2666 14.3516C31.6361 14.3489 31.7797 14.4535 31.752 14.8301C31.7251 15.2022 31.7242 15.5789 31.752 15.9502C31.7806 16.3322 31.6267 16.4296 31.2627 16.4287C28.5876 16.4162 25.9114 16.4229 23.2363 16.4229C22.4264 16.4229 22.0216 16.0186 22.0215 15.21V8.21289L22.0225 8.21094C22.0225 5.63996 22.0291 3.06805 22.0156 0.49707C22.0138 0.139392 22.0954 0.00417572 22.4824 0.00585938ZM90.8984 0.00683594C91.2571 0.00504241 91.412 0.0949601 91.3887 0.481445C91.3582 0.983651 91.3818 1.48974 91.3818 2.0332L91.3809 2.03418C91.1576 2.04494 90.9825 2.05859 90.8086 2.05859C88.807 2.06039 86.8043 2.05957 84.8027 2.05957C84.3575 2.05967 84.1348 2.28997 84.1348 2.74902V7.11621H91.3779C91.3779 7.76182 91.3961 8.34033 91.3584 8.91602C91.3527 9.00301 91.0865 9.13786 90.9404 9.13965C88.9837 9.15489 87.0261 9.15039 85.0693 9.15039C84.447 9.15041 84.1357 9.46876 84.1357 10.1055V13.7363C84.1358 14.1492 84.3364 14.3558 84.7373 14.3564C86.7838 14.3564 88.8314 14.3657 90.8779 14.3486C91.2671 14.345 91.4236 14.4518 91.3887 14.8535C91.3582 15.2095 91.3635 15.5718 91.3877 15.9287C91.4119 16.2874 91.3026 16.4295 90.917 16.4277C87.974 16.4143 85.0309 16.416 82.0879 16.4268C81.7311 16.4277 81.6321 16.3065 81.6338 15.958C81.6463 13.1636 81.6406 10.3686 81.6406 7.57422C81.6406 5.21297 81.6481 2.85156 81.6328 0.491211C81.6302 0.118365 81.7423 0.00509795 82.1133 0.00683594C85.0413 0.0193909 87.9704 0.0184938 90.8984 0.00683594ZM112.593 0.0136719C112.327 0.400084 112.124 0.716396 111.899 1.01855C110.23 3.27399 108.564 5.53243 106.876 7.77441C106.635 8.09457 106.642 8.31268 106.872 8.62207C108.32 10.5761 109.754 12.5409 111.19 14.5039C111.63 15.1038 112.064 15.7076 112.547 16.3721C112.365 16.3927 112.243 16.4171 112.121 16.418C111.434 16.4216 110.746 16.4078 110.06 16.4248C109.758 16.4329 109.57 16.3304 109.393 16.0811C108.056 14.2105 106.704 12.3517 105.356 10.4893C105.269 10.3691 105.177 10.2523 105.046 10.0801C104.929 10.2225 104.825 10.3373 104.733 10.4609C103.36 12.3415 101.985 14.2215 100.622 16.1084C100.456 16.3386 100.279 16.4338 99.9912 16.4258C99.202 16.4052 98.4113 16.418 97.5459 16.418C97.6149 16.262 97.6423 16.1526 97.7041 16.0684C99.5478 13.553 101.392 11.0378 103.249 8.53223C103.436 8.2794 103.426 8.10173 103.249 7.86328C102.091 6.30644 100.942 4.74296 99.79 3.18164C99.1435 2.30469 98.4954 1.42854 97.8516 0.549805C97.7485 0.409063 97.6628 0.256538 97.5078 0.0136719L97.5098 0.015625C98.5121 0.0156237 99.3908 0.00657185 100.269 0.0253906C100.391 0.028081 100.55 0.137342 100.628 0.243164C101.632 1.61601 102.626 2.99783 103.621 4.37695C104.074 5.00367 104.527 5.63062 105.022 6.31738C105.262 6.01338 105.478 5.75715 105.675 5.48633C106.942 3.75024 108.202 2.01082 109.475 0.27832C109.561 0.160973 109.724 0.0292633 109.854 0.0253906C110.731 0.00297073 111.609 0.0136719 112.593 0.0136719Z" fill="url(#paint0_linear_32727_80861)"/>
<defs>
<linearGradient id="paint0_linear_32727_80861" x1="119.768" y1="0.000976618" x2="119.768" y2="26.3565" gradientUnits="userSpaceOnUse">
<stop stop-color="white"/>
<stop offset="1" stop-color="white" stop-opacity="0.6"/>
</linearGradient>
</defs>
</svg>
