<svg width="158" height="30" viewBox="0 0 158 30" fill="none" xmlns="http://www.w3.org/2000/svg">
<path d="M5.25781 5.50049V24.4976H14.8047V29.2485H5.25781V29.2495H0.507812V5.50049H5.25781ZM137.047 10.7817C137.967 10.7817 138.802 10.9426 139.552 11.2642C140.301 11.5688 140.941 12.009 141.469 12.5845C142.014 13.1431 142.431 13.8118 142.721 14.5903C143.01 15.3689 143.155 16.2239 143.155 17.1548C143.155 18.0178 143.019 18.8468 142.747 19.6421C142.491 20.4206 142.116 21.1148 141.622 21.7241C141.145 22.3334 140.557 22.8244 139.858 23.1968C139.16 23.5522 138.367 23.73 137.481 23.73C136.68 23.7299 135.931 23.6114 135.232 23.3745C134.551 23.1206 133.988 22.6973 133.546 22.105H133.494V29.2144H129.66V11.0864H133.188V12.7114H133.238C133.392 12.4913 133.589 12.2714 133.827 12.0513C134.083 11.8144 134.373 11.6027 134.696 11.4165C135.037 11.2304 135.403 11.078 135.795 10.9595C136.187 10.8411 136.604 10.7818 137.047 10.7817ZM19.6016 0.749512V24.4985H14.8525V5.50049H5.25977V0.750488L14.8525 0.749512H19.6016ZM46.8271 10.7827C47.713 10.7828 48.5139 10.9342 49.2295 11.2388C49.962 11.5433 50.5752 11.9837 51.0693 12.5591C51.5804 13.1175 51.9725 13.7949 52.2451 14.5903C52.5178 15.3858 52.6543 16.2747 52.6543 17.2563V18.4497H43.7598C43.9132 19.1775 44.2457 19.7616 44.7568 20.2017C45.2679 20.6246 45.898 20.8363 46.6475 20.8364C47.2779 20.8364 47.8065 20.7009 48.2324 20.4302C48.6754 20.1425 49.0591 19.7785 49.3828 19.3384L52.0664 21.2935C51.453 22.072 50.6773 22.6731 49.7402 23.0962C48.8033 23.5192 47.8322 23.7309 46.8271 23.731C45.873 23.731 44.9692 23.5786 44.1172 23.2739C43.2825 22.9694 42.5503 22.5374 41.9199 21.979C41.3065 21.4036 40.8207 20.7178 40.4629 19.9224C40.1051 19.1269 39.9258 18.2381 39.9258 17.2563C39.9258 16.2747 40.1051 15.3858 40.4629 14.5903C40.8207 13.7949 41.3066 13.1175 41.9199 12.5591C42.5503 11.9838 43.2826 11.5433 44.1172 11.2388C44.9692 10.9341 45.873 10.7827 46.8271 10.7827ZM81.4658 10.7817C82.5898 10.7818 83.51 10.9257 84.2256 11.2134C84.9585 11.4842 85.538 11.8906 85.9639 12.4321C86.4064 12.9738 86.7136 13.6425 86.8838 14.438C87.054 15.2165 87.1396 16.1224 87.1396 17.1548V23.4253H83.6123V21.8765H83.5605C83.1347 22.5366 82.5643 23.0106 81.8486 23.2983C81.1496 23.586 80.4087 23.73 79.625 23.73C79.0457 23.73 78.4827 23.6453 77.9375 23.4761C77.4094 23.3237 76.941 23.0866 76.5322 22.7651C76.1233 22.4436 75.7991 22.0456 75.5605 21.5718C75.3222 21.098 75.2031 20.5475 75.2031 19.9214C75.2032 19.2108 75.3315 18.6104 75.5869 18.1196C75.8596 17.6288 76.2171 17.2225 76.6602 16.9009C77.1201 16.5793 77.6396 16.3338 78.2188 16.1646C78.798 15.9784 79.3947 15.8429 80.0078 15.7583C80.6388 15.6737 81.2605 15.6229 81.874 15.606C82.5041 15.589 83.0835 15.5806 83.6123 15.5806C83.6123 14.9037 83.3649 14.3702 82.8711 13.981C82.3945 13.5748 81.8232 13.3716 81.1582 13.3716C80.5281 13.3716 79.9482 13.507 79.4199 13.7778C78.9089 14.0317 78.4489 14.3873 78.04 14.8442L75.9951 12.7622C76.7107 12.1022 77.5459 11.6112 78.5 11.2896C79.4543 10.951 80.443 10.7817 81.4658 10.7817ZM94.3262 10.7817C95.1438 10.7818 95.9704 10.9003 96.8047 11.1372C97.6398 11.3741 98.3464 11.7975 98.9258 12.4067L96.5752 14.7173C96.0124 14.0234 95.2713 13.6764 94.3516 13.6763C94.0278 13.6763 93.7124 13.7525 93.4053 13.9048C93.0989 14.0571 92.9453 14.3195 92.9453 14.6919C92.9454 14.9964 93.099 15.2252 93.4053 15.3774C93.729 15.5128 94.1293 15.6398 94.6064 15.7583C95.1004 15.8599 95.6206 15.9783 96.166 16.1138C96.7279 16.2323 97.2483 16.427 97.7256 16.6978C98.2194 16.9686 98.6195 17.3412 98.9258 17.8149C99.2495 18.2719 99.4111 18.8891 99.4111 19.6675C99.4111 20.4629 99.2327 21.1233 98.875 21.6479C98.5346 22.1557 98.0906 22.5705 97.5459 22.8921C97.0006 23.1967 96.3874 23.4083 95.7061 23.5269C95.0246 23.6622 94.3514 23.73 93.6865 23.73C92.8181 23.73 91.9396 23.6115 91.0537 23.3745C90.1679 23.1206 89.4182 22.6805 88.8047 22.0542L91.1309 19.4897C91.4887 19.9298 91.8807 20.2684 92.3066 20.5054C92.7499 20.7254 93.2604 20.8354 93.8398 20.8354C94.283 20.8354 94.6833 20.7761 95.041 20.6577C95.3988 20.5223 95.5781 20.2853 95.5781 19.9468C95.578 19.6254 95.4155 19.3882 95.0918 19.2358C94.7855 19.0667 94.3852 18.9311 93.8916 18.8296C93.4143 18.7111 92.8948 18.5926 92.332 18.4741C91.7874 18.3387 91.2665 18.145 90.7725 17.8911C90.2953 17.6373 89.8952 17.2814 89.5723 16.8247C89.2651 16.3508 89.1114 15.7242 89.1113 14.9458C89.1113 14.2179 89.2561 13.5915 89.5459 13.0669C89.8531 12.5422 90.2451 12.1105 90.7217 11.772C91.2164 11.4336 91.7782 11.188 92.4082 11.0356C93.0392 10.8664 93.6786 10.7817 94.3262 10.7817ZM107.89 10.7817C108.622 10.7818 109.389 10.9088 110.189 11.1626C111.007 11.3996 111.715 11.8229 112.311 12.4321L109.78 15.0728C109.593 14.802 109.329 14.5818 108.988 14.4126C108.647 14.2265 108.281 14.1334 107.89 14.1333C106.918 14.1333 106.16 14.4211 105.614 14.9966C105.086 15.572 104.821 16.3254 104.821 17.2563C104.821 18.1871 105.086 18.9398 105.614 19.5151C106.16 20.0906 106.918 20.3784 107.89 20.3784C108.315 20.3784 108.681 20.2853 108.988 20.0991C109.295 19.913 109.559 19.6928 109.78 19.439L112.311 22.0796C111.715 22.6888 111.007 23.1206 110.189 23.3745C109.389 23.6114 108.622 23.7299 107.89 23.73C106.935 23.73 106.032 23.5775 105.18 23.2729C104.345 22.9683 103.612 22.5366 102.981 21.978C102.368 21.4026 101.883 20.7168 101.525 19.9214C101.168 19.1261 100.988 18.2378 100.988 17.2563C100.988 16.2747 101.168 15.3858 101.525 14.5903C101.883 13.7949 102.368 13.1176 102.981 12.5591C103.612 11.9835 104.345 11.5434 105.18 11.2388C106.032 10.9342 106.935 10.7817 107.89 10.7817ZM120.144 10.7817C121.097 10.7818 121.992 10.9342 122.827 11.2388C123.679 11.5434 124.412 11.9836 125.024 12.5591C125.655 13.1176 126.15 13.7948 126.508 14.5903C126.866 15.3857 127.044 16.2748 127.044 17.2563C127.044 18.2377 126.865 19.1262 126.508 19.9214C126.15 20.7169 125.655 21.4026 125.024 21.978C124.412 22.5366 123.679 22.9683 122.827 23.2729C121.992 23.5775 121.097 23.7299 120.144 23.73C119.19 23.73 118.285 23.5776 117.434 23.2729C116.599 22.9683 115.865 22.5365 115.235 21.978C114.622 21.4026 114.137 20.7168 113.779 19.9214C113.422 19.1261 113.242 18.2378 113.242 17.2563C113.242 16.2747 113.421 15.3858 113.779 14.5903C114.137 13.7949 114.622 13.1176 115.235 12.5591C115.865 11.9836 116.599 11.5434 117.434 11.2388C118.285 10.9341 119.19 10.7817 120.144 10.7817ZM151.913 10.7817C152.799 10.7818 153.6 10.9342 154.315 11.2388C155.048 11.5434 155.661 11.9836 156.156 12.5591C156.667 13.1176 157.059 13.7949 157.332 14.5903C157.604 15.3857 157.74 16.2748 157.74 17.2563V18.4497H148.846C148.999 19.1773 149.331 19.7607 149.843 20.2007C150.354 20.6238 150.984 20.8354 151.733 20.8354C152.364 20.8354 152.892 20.7 153.318 20.4292C153.761 20.1415 154.145 19.7775 154.469 19.3374L157.152 21.2925C156.539 22.071 155.764 22.6721 154.827 23.0952C153.89 23.5183 152.918 23.7299 151.913 23.73C150.959 23.73 150.055 23.5776 149.203 23.2729C148.368 22.9683 147.636 22.5365 147.005 21.978C146.392 21.4026 145.907 20.7168 145.549 19.9214C145.191 19.1261 145.012 18.2378 145.012 17.2563C145.012 16.2747 145.191 15.3858 145.549 14.5903C145.907 13.7949 146.392 13.1176 147.005 12.5591C147.636 11.9836 148.368 11.5434 149.203 11.2388C150.055 10.9341 150.959 10.7817 151.913 10.7817ZM41.6221 8.95459H36.459V23.4263H32.4717V8.95459H27.3086V5.45068H41.6221V8.95459ZM72.8652 10.7827C73.0867 10.7827 73.3088 10.7912 73.5303 10.8081C73.7517 10.825 73.9562 10.8588 74.1436 10.9097V14.3872C73.8711 14.3026 73.5986 14.2434 73.3262 14.2095C73.0705 14.1587 72.7975 14.1333 72.5078 14.1333C71.7751 14.1333 71.1954 14.2349 70.7695 14.438C70.3437 14.641 70.012 14.9292 69.7734 15.3013C69.5519 15.6567 69.407 16.0885 69.3389 16.5962C69.2707 17.104 69.2363 17.6626 69.2363 18.272V23.4263H65.4023V11.0874H69.2363V13.0669H69.2871C69.6961 12.3053 70.1819 11.7381 70.7441 11.3657C71.3063 10.9766 72.0135 10.7828 72.8652 10.7827ZM62.4512 10.7817C62.6727 10.7817 62.8947 10.7902 63.1162 10.8071C63.3377 10.8241 63.5421 10.8579 63.7295 10.9087V14.3872C63.4568 14.3026 63.1838 14.2434 62.9111 14.2095C62.6557 14.1588 62.3833 14.1333 62.0938 14.1333C61.3611 14.1333 60.7815 14.2348 60.3555 14.438C59.9296 14.641 59.5979 14.929 59.3594 15.3013C59.1379 15.6567 58.993 16.0884 58.9248 16.5962C58.8567 17.1039 58.8223 17.6628 58.8223 18.272V23.4253H54.9883V11.0864H58.8223V13.0669H58.873C59.2819 12.3052 59.7678 11.7381 60.3301 11.3657C60.8923 10.9765 61.5994 10.7818 62.4512 10.7817ZM82.666 18.0181C82.3763 18.0181 82.0097 18.035 81.5674 18.0688C81.1416 18.0858 80.7238 18.1535 80.3154 18.272C79.9238 18.3903 79.5825 18.5674 79.293 18.8042C79.0204 19.0411 78.8839 19.3715 78.8838 19.7944C78.8838 20.2514 79.0797 20.59 79.4717 20.8101C79.8633 21.03 80.2724 21.1401 80.6982 21.1401C81.0734 21.1401 81.4303 21.0893 81.7715 20.9878C82.1293 20.8862 82.4446 20.7424 82.7178 20.5562C82.99 20.37 83.2029 20.1329 83.3564 19.8452C83.5265 19.5577 83.6122 19.2196 83.6123 18.8306V18.0181H82.666ZM120.144 14.1333C119.172 14.1333 118.414 14.4212 117.869 14.9966C117.34 15.572 117.076 16.3254 117.076 17.2563C117.076 18.1871 117.34 18.9398 117.869 19.5151C118.414 20.0906 119.172 20.3784 120.144 20.3784C121.115 20.3783 121.865 20.0905 122.393 19.5151C122.938 18.9398 123.21 18.1869 123.21 17.2563C123.21 16.3256 122.938 15.572 122.393 14.9966C121.865 14.4212 121.115 14.1334 120.144 14.1333ZM136.255 14.1333C135.284 14.1333 134.525 14.4211 133.98 14.9966C133.452 15.572 133.188 16.3254 133.188 17.2563C133.188 18.1871 133.452 18.9398 133.98 19.5151C134.525 20.0906 135.284 20.3784 136.255 20.3784C137.226 20.3784 137.976 20.0906 138.504 19.5151C139.049 18.9398 139.321 18.187 139.321 17.2563C139.321 16.3255 139.049 15.572 138.504 14.9966C137.976 14.4211 137.226 14.1333 136.255 14.1333ZM46.4688 13.5239C46.043 13.524 45.6684 13.5917 45.3447 13.7271C45.0211 13.8624 44.7395 14.0403 44.501 14.2603C44.2795 14.4633 44.1002 14.7088 43.9639 14.9966C43.8447 15.2674 43.7769 15.5552 43.7598 15.8599H48.8203C48.8374 15.2167 48.6246 14.6665 48.1816 14.2095C47.7386 13.7526 47.1674 13.5239 46.4688 13.5239ZM151.555 13.5239C151.129 13.5239 150.754 13.5916 150.431 13.7271C150.107 13.8624 149.826 14.0402 149.587 14.2603C149.365 14.4633 149.186 14.7088 149.05 14.9966C148.931 15.2673 148.862 15.5553 148.846 15.8599H153.906C153.924 15.2168 153.711 14.6664 153.268 14.2095C152.825 13.7525 152.254 13.5239 151.555 13.5239Z" fill="url(#paint0_linear_32727_81282)"/>
<defs>
<linearGradient id="paint0_linear_32727_81282" x1="146.807" y1="0.749512" x2="146.807" y2="20.5165" gradientUnits="userSpaceOnUse">
<stop stop-color="white"/>
<stop offset="1" stop-color="white" stop-opacity="0.6"/>
</linearGradient>
</defs>
</svg>
