<svg width="171" height="30" viewBox="0 0 171 30" fill="none" xmlns="http://www.w3.org/2000/svg">
<path d="M11.21 10.0718C12.8842 7.17833 15.5986 7.17823 17.2725 10.0718L20.5957 15.8149C20.6383 15.8895 20.6576 15.9753 20.6514 16.061C20.645 16.1467 20.6136 16.2289 20.5605 16.2964C20.5074 16.364 20.4352 16.4145 20.3535 16.4409C20.2716 16.4673 20.1833 16.4686 20.1006 16.4448C18.7955 16.0946 17.4156 16.7871 16.4102 18.5249L12.4971 25.2866C10.9385 27.9801 8.06273 29.4243 4.95117 29.4243H0.355469C0.308356 29.4243 0.26154 29.4127 0.220703 29.3892C0.179874 29.3657 0.145687 29.3313 0.12207 29.2905C0.0984614 29.2496 0.0859441 29.2029 0.0859375 29.1558C0.0859462 29.1085 0.0984317 29.0619 0.12207 29.021L0.124023 29.0171L11.21 10.0718ZM90.4932 19.3052C90.4933 21.2643 91.4171 22.1039 93.124 22.104C94.8467 22.104 95.7425 20.5049 95.7559 20.481V11.6353H99.1152V24.9038H95.9805V22.9722C95.9601 23.0086 94.6978 25.2397 92.0049 25.2397C89.4574 25.2395 87.1348 23.4194 87.1348 20.229V11.6353H90.4932V19.3052ZM108.24 11.2993C111.879 11.2993 114.931 14.1268 114.931 18.2134C114.931 18.465 114.931 18.9695 114.902 19.4731H104.993C105.245 20.6488 106.618 22.1597 108.717 22.1597C110.048 22.1813 111.339 21.7077 112.341 20.8306L112.355 20.8169L114.035 23.3354C112.531 24.558 110.654 25.2303 108.716 25.2397C104.685 25.2395 101.578 22.1598 101.578 18.269C101.578 14.3785 104.406 11.2995 108.24 11.2993ZM138.976 11.2993C140.006 11.2925 141.024 11.5088 141.962 11.9341C142.899 12.3594 143.733 12.9841 144.405 13.7632L142.082 15.8335C141.694 15.3925 141.215 15.0387 140.68 14.7974C140.144 14.5562 139.563 14.4326 138.976 14.4341C136.708 14.4341 135.252 16.1976 135.252 18.269C135.252 20.3404 136.708 22.104 138.976 22.104C139.612 22.12 140.244 21.9807 140.814 21.6978C141.385 21.4148 141.879 20.9966 142.252 20.48L144.463 22.7192C143.786 23.5123 142.944 24.1485 141.997 24.5835C141.168 24.9642 140.276 25.1836 139.367 25.23L138.976 25.2397C135.001 25.2397 131.837 22.1592 131.837 18.269C131.837 14.3498 135.001 11.2993 138.976 11.2993ZM152.411 11.2993C156.051 11.2993 159.102 14.1268 159.103 18.2134C159.103 18.465 159.103 18.9695 159.074 19.4731H149.165C149.418 20.6487 150.789 22.1596 152.888 22.1597C154.219 22.1813 155.512 21.7077 156.514 20.8306L156.527 20.8169L158.207 23.3354C156.704 24.5581 154.825 25.2302 152.888 25.2397C148.856 25.2396 145.75 22.1599 145.75 18.269C145.75 14.3784 148.577 11.2995 152.411 11.2993ZM41.5254 3.34717C41.5724 3.34723 41.6185 3.35991 41.6592 3.3833C41.7 3.40689 41.7342 3.44108 41.7578 3.48193C41.7815 3.52285 41.7939 3.56945 41.7939 3.6167C41.7939 3.66391 41.7813 3.71058 41.7578 3.75146L41.7559 3.75537L30.6689 22.9155C28.9946 25.8087 26.2806 25.8087 24.6064 22.9155L21.2832 17.1724C21.2405 17.0978 21.2213 17.012 21.2275 16.9263C21.2338 16.8407 21.2655 16.7584 21.3184 16.6909C21.3716 16.6233 21.4445 16.5727 21.5264 16.5464C21.6081 16.5201 21.6958 16.5186 21.7783 16.5425C23.0831 16.8931 24.4631 16.2002 25.4697 14.4624L29.3818 7.69971C30.1475 6.37636 31.2487 5.27799 32.5732 4.51416C33.8977 3.75041 35.3998 3.34814 36.9287 3.34814L41.5254 3.34717ZM51.332 24.9038H47.9727V11.7007H51.332V24.9038ZM62.585 11.3003C65.1602 11.3003 67.455 13.1196 67.4551 16.3101V24.9038H64.0957V17.1499C64.0956 15.2462 62.9204 14.4351 61.4648 14.4351C59.7394 14.4351 58.8442 16.1227 58.834 16.1421V24.9038H55.4746V11.6362H58.6094V13.5669C59.0154 12.8741 59.5964 12.2996 60.2939 11.9019C60.9916 11.5041 61.7818 11.2969 62.585 11.3003ZM77.8408 3.40479C80.9755 3.40487 83.3828 5.25209 83.3828 8.52783V24.9038H80.0234V8.80811C80.0234 7.18444 78.9609 6.4293 77.8408 6.4292C76.7207 6.4292 75.5449 7.18433 75.5449 8.80811V11.6353H78.2607V14.603H75.5449V24.9038H72.1855V14.603H69.583V11.6353H72.1855V8.52783C72.1856 5.25286 74.706 3.40479 77.8408 3.40479ZM124.505 11.3003C127.079 11.3004 129.374 13.1197 129.374 16.3101V24.9038H126.016V17.1499C126.016 15.2464 124.84 14.4352 123.385 14.4351C121.657 14.4351 120.762 16.1257 120.753 16.1421V24.9038H117.394V11.6362H120.529V13.5669C120.935 12.8741 121.516 12.2996 122.213 11.9019C122.911 11.5041 123.701 11.2969 124.505 11.3003ZM168.368 11.2983C169.151 11.3129 169.927 11.4551 170.665 11.7183L169.488 14.7417C168.985 14.5273 168.44 14.4221 167.894 14.4341C165.85 14.4341 164.927 16.2261 164.927 16.2261V24.9038H161.567V11.6353H164.758V13.5649C164.772 13.5367 165.921 11.2986 168.368 11.2983ZM108.24 14.3501C106.085 14.3501 105.105 15.8627 104.993 17.0386H111.572C111.517 15.8905 110.452 14.3501 108.24 14.3501ZM152.414 14.3501C150.259 14.3501 149.279 15.8627 149.166 17.0386H155.743C155.687 15.8905 154.626 14.3503 152.414 14.3501ZM48.8721 4.57861C49.2481 4.42286 49.6624 4.38202 50.0615 4.46143C50.4607 4.54087 50.8274 4.73712 51.1152 5.0249C51.403 5.31272 51.5993 5.67942 51.6787 6.07861C51.7581 6.47785 51.7173 6.89199 51.5615 7.26807C51.4057 7.64415 51.1413 7.96575 50.8027 8.19189C50.4644 8.41789 50.0662 8.53861 49.6592 8.53857C49.1136 8.53843 48.59 8.32187 48.2041 7.93604C47.8184 7.5502 47.6018 7.0266 47.6016 6.48096C47.6016 6.07402 47.7222 5.67581 47.9482 5.3374C48.1744 4.99892 48.496 4.73441 48.8721 4.57861ZM21.5215 0.786621C22.0284 0.576694 22.5859 0.521386 23.124 0.628418C23.6621 0.735468 24.1569 0.999237 24.5449 1.38721C24.9328 1.77518 25.1967 2.26997 25.3037 2.80811C25.4107 3.34621 25.3554 3.90376 25.1455 4.41064C24.9356 4.91756 24.5802 5.35091 24.124 5.65576C23.6678 5.96058 23.1317 6.1235 22.583 6.12354C21.8473 6.12349 21.1414 5.83131 20.6211 5.31104C20.1008 4.79075 19.8086 4.08492 19.8086 3.34912C19.8086 2.80048 19.9715 2.26428 20.2764 1.80811C20.5812 1.35191 21.0146 0.996576 21.5215 0.786621Z" fill="url(#paint0_linear_32727_80941)"/>
<defs>
<linearGradient id="paint0_linear_32727_80941" x1="158.804" y1="0.574707" x2="158.804" y2="20.5844" gradientUnits="userSpaceOnUse">
<stop stop-color="white"/>
<stop offset="1" stop-color="white" stop-opacity="0.6"/>
</linearGradient>
</defs>
</svg>
