<svg width="170" height="30" viewBox="0 0 170 30" fill="none" xmlns="http://www.w3.org/2000/svg">
<path d="M28.8994 15.4429C28.8994 15.4429 28.2864 16.156 28.2627 16.1802L27.6348 17.438C27.6348 17.438 28.0251 18.2625 27.9219 19.0718L28.2744 18.7153L28.4141 18.6548L28.3545 18.7798L27.7588 19.3804C27.7588 19.3804 26.7491 18.5394 26.5986 18.2759L26.2002 18.6606C26.2023 18.6799 26.2908 19.4842 26.1846 19.7261C26.1621 19.7219 25.7906 19.4141 25.4609 19.1099L14.6367 29.5356L24.9834 18.6294C24.6835 18.2988 24.3835 17.9289 24.3799 17.9067C24.6228 17.7983 25.4375 17.8911 25.4375 17.8911C25.4465 17.8816 25.809 17.5008 25.8184 17.4907C25.5584 17.3393 24.7347 16.3367 24.7217 16.3208L25.3174 15.7202L25.4414 15.6597L25.3818 15.8003L25.0283 16.1567C25.8314 16.0525 26.6494 16.4458 26.6494 16.4458L27.8975 15.812C27.9212 15.7884 28.6131 15.1851 28.6289 15.1714L29.042 15.0269L28.8994 15.4429ZM138.507 7.62549C139.728 7.62555 141.214 7.97607 141.214 7.97607L145.327 7.86865V10.2456L143.125 10.1099C143.47 10.569 143.842 11.2715 143.842 12.3247C143.842 15.9983 141.957 16.9985 138.427 16.9985C138.161 16.9985 137.498 16.9441 137.259 16.8901C137.254 16.901 136.888 17.8106 136.888 18.1597C136.888 19.024 137.179 19.1864 139.754 19.2134C143.947 19.2404 145.248 20.1315 145.248 23.2378C145.248 26.4251 142.674 27.6674 139.117 27.6675C135.109 27.6675 133.013 26.8572 133.013 23.7778C133.013 22.4004 133.676 21.5627 135.029 20.5093C134.472 20.131 134.153 19.3747 134.153 18.5376C134.154 17.9162 135.109 16.3765 135.109 16.3765C134.127 15.7822 133.198 14.7557 133.198 12.3247C133.198 8.9216 135.455 7.62549 138.507 7.62549ZM136.914 21.5903C136.171 22.2116 135.853 22.671 135.853 23.5083C135.853 24.7506 136.729 25.2642 139.144 25.2642C141.293 25.2642 142.355 24.7235 142.355 23.3999C142.355 21.9413 141.664 21.7795 139.515 21.7524C138.693 21.7524 136.92 21.5909 136.914 21.5903ZM27.5869 8.93115C27.5869 8.93115 26.9749 9.64459 26.9512 9.66846L26.3242 10.9263C26.3349 10.9491 26.7106 11.7625 26.6094 12.5601L26.9639 12.2036L27.1025 12.1431L27.043 12.2671L26.4463 12.8687C26.4375 12.8613 25.4369 12.0264 25.2871 11.7642C25.2796 11.7707 24.9029 12.1352 24.8896 12.1479C24.8896 12.1479 24.9802 12.9689 24.873 13.2134C24.8475 13.2069 24.4789 12.903 24.1514 12.6011L13.3281 23.0269L23.6748 12.1206C23.3756 11.791 23.0747 11.4207 23.0684 11.395C23.3101 11.2867 24.126 11.3784 24.126 11.3784C24.1362 11.3677 24.4987 10.9865 24.5068 10.978C24.2468 10.8273 23.4247 9.82685 23.4102 9.80908L24.0068 9.20752L24.1299 9.14795L24.0703 9.28857L23.7168 9.64404C24.5196 9.5405 25.3379 9.93311 25.3379 9.93311L26.5859 9.29932C26.6103 9.2752 27.3089 8.66703 27.3174 8.65967L27.7305 8.51514L27.5869 8.93115ZM72.8965 14.9722C72.8965 17.9703 73.0823 19.0776 75.1523 19.0776C76.7448 19.0776 78.1787 18.3755 78.1787 18.3755V7.89502H81.0449V21.4009H78.1787V20.564C78.1787 20.564 76.2403 21.6978 74.5947 21.6978C70.7997 21.6976 70.0039 19.6987 70.0039 14.9448V7.89502H72.8965V14.9722ZM88.8213 7.62549C90.7588 7.62549 93.8115 8.21924 93.8115 8.21924L93.7578 10.6772C93.7287 10.6732 90.6182 10.2456 89.0332 10.2456C87.441 10.2457 86.7246 10.6236 86.7246 11.731C86.7246 12.6223 87.2819 12.8655 89.8828 13.3247C93.0678 13.892 94.209 14.7026 94.209 17.4038C94.2088 20.5638 92.245 21.6977 88.9541 21.6978C87.1274 21.6978 84.0595 21.107 84.0439 21.104L84.1504 18.646C84.1881 18.6511 87.3429 19.0776 88.6885 19.0776C90.5992 19.0776 91.3426 18.673 91.3428 17.4849C91.3428 16.5395 90.8913 16.2422 88.2637 15.8101C85.3443 15.3239 83.8584 14.6751 83.8584 11.812C83.8584 8.75971 86.1937 7.6255 88.8213 7.62549ZM100.473 7.89502H104.136V10.4077H100.473V16.3501C100.473 18.3758 100.553 19.0776 101.933 19.0776C102.676 19.0776 104.109 18.9966 104.109 18.9966L104.242 21.3472C104.242 21.3472 102.463 21.6978 101.534 21.6978C98.5354 21.6977 97.6065 20.5636 97.6064 16.6743V10.4077H95.9082V7.89502H97.6064V3.979H100.473V7.89502ZM165.552 7.89502H169.215V10.4077H165.552V16.3501C165.552 18.3758 165.632 19.0776 167.012 19.0776C167.755 19.0776 169.188 18.9966 169.188 18.9966L169.321 21.3472C169.321 21.3472 167.542 21.6978 166.613 21.6978C163.615 21.6976 162.686 20.5636 162.686 16.6743V10.4077H160.987V7.89502H162.686V3.979H165.552V7.89502ZM58.458 5.57275H53.3359V21.4009H50.3633V5.57275H45.1875V2.89795H58.458V5.57275ZM67.9336 10.5425C65.5341 11.0255 63.475 11.9619 63.4482 11.9741V21.4009H60.5547V7.89502H63.4209V9.51611C63.4209 9.51611 65.6776 8.03033 67.9336 7.59814V10.5425ZM118.123 5.51807H109.789V11.7583H116.716V14.3784H109.789V21.4009H106.843V2.89795H118.123V5.51807ZM123.591 21.4009H120.697V2.27686H123.591V21.4009ZM130.146 21.4009H127.253V7.89502H130.146V21.4009ZM150.477 8.59717C150.493 8.58879 152.447 7.59834 154.112 7.59814C157.801 7.59814 158.704 9.73195 158.704 14.1616V21.4009H155.812V14.2427C155.811 11.5417 155.493 10.2183 153.449 10.2183C151.989 10.2183 150.477 10.813 150.477 10.813V21.4009H147.584V2.27686H150.477V8.59717ZM26.9668 2.82861C26.9502 2.84793 26.3547 3.54141 26.3311 3.56494L25.7031 4.82178C25.7072 4.83039 26.0925 5.65117 25.9893 6.45557L26.3428 6.09912L26.4824 6.03955L26.4229 6.16357L25.8262 6.76416C25.8047 6.74624 24.8147 5.92086 24.666 5.65967C24.6537 5.67146 24.2686 6.04443 24.2686 6.04443C24.2691 6.04895 24.3598 6.86607 24.2529 7.10986C24.2302 7.10624 23.8587 6.79954 23.5293 6.49561L12.707 16.9214L23.0527 6.01514C22.753 5.68494 22.4527 5.31483 22.4482 5.2915C22.6882 5.18369 23.4901 5.27323 23.5049 5.2749C23.5049 5.2749 23.8776 4.88431 23.8867 4.87451C23.6246 4.72244 22.7891 3.70459 22.7891 3.70459L23.3857 3.104L23.5088 3.04346L23.4502 3.18408L23.0957 3.54053C23.8995 3.4365 24.7178 3.82959 24.7178 3.82959L25.9658 3.1958C25.9923 3.16929 26.6973 2.55615 26.6973 2.55615L27.1104 2.41162L26.9668 2.82861ZM20.9092 2.20264C20.9012 2.21187 20.296 2.91526 20.2725 2.93896L19.6445 4.19678C19.6526 4.21396 20.0328 5.03044 19.9307 5.83057L20.2842 5.47412L20.4248 5.41455L20.3643 5.5376L19.7686 6.13916C19.7686 6.13916 18.758 5.29775 18.6074 5.03369C18.6037 5.03711 18.21 5.41846 18.21 5.41846C18.21 5.41846 18.3015 6.24003 18.1943 6.48389C18.172 6.48025 17.801 6.17428 17.4717 5.87061L6.64844 16.2964L16.9961 5.39014C16.6967 5.06037 16.3944 4.69085 16.3887 4.66553C16.6313 4.55721 17.4463 4.64893 17.4463 4.64893L17.8281 4.24756C17.5691 4.09751 16.7467 3.09822 16.7314 3.07959L17.3271 2.479L17.4512 2.41846L17.3916 2.55908L17.0381 2.91553C17.8409 2.81192 18.6602 3.20361 18.6602 3.20361L19.9072 2.5708C19.9307 2.54714 20.6265 1.94078 20.6387 1.93018L21.0518 1.78564L20.9092 2.20264ZM14.4463 0.880371C14.4463 0.880371 13.8333 1.5935 13.8096 1.61768L13.1816 2.87451C13.1816 2.87451 13.571 3.69967 13.4678 4.50928L13.8213 4.15283L13.9609 4.09229L13.9014 4.21631L13.3047 4.81787C13.285 4.80144 12.294 3.97417 12.1445 3.7124C12.1345 3.72168 11.758 4.08656 11.7471 4.09717C11.7479 4.10438 11.8379 4.91821 11.7305 5.16162C11.7076 5.15736 11.3374 4.85341 11.0088 4.55029L0.1875 14.9751L10.5332 4.06982C10.2321 3.7384 9.92897 3.36561 9.92578 3.34326C10.1687 3.23495 10.9834 3.32764 10.9834 3.32764C10.9834 3.32764 11.3535 2.93873 11.3643 2.92725C11.1023 2.77479 10.2686 1.75732 10.2686 1.75732L10.8643 1.15674L10.9883 1.09717L10.9277 1.23682L10.5742 1.59326C11.3704 1.49014 12.1811 1.87556 12.1953 1.88232L13.4443 1.24951C13.4683 1.22534 14.1758 0.60791 14.1758 0.60791L14.5889 0.464355L14.4463 0.880371ZM138.507 9.92139C136.808 9.92139 136.065 10.7043 136.064 12.3247C136.064 13.9724 136.808 14.729 138.507 14.729C140.285 14.7289 140.975 13.9723 140.975 12.3247C140.974 10.7044 140.285 9.92147 138.507 9.92139ZM130.146 5.59912H127.253V2.49268H130.146V5.59912Z" fill="url(#paint0_linear_32727_80640)"/>
<defs>
<linearGradient id="paint0_linear_32727_80640" x1="157.56" y1="0.464356" x2="157.56" y2="20.6275" gradientUnits="userSpaceOnUse">
<stop stop-color="white"/>
<stop offset="1" stop-color="white" stop-opacity="0.6"/>
</linearGradient>
</defs>
</svg>
