<svg width="79" height="17" viewBox="0 0 79 17" fill="none" xmlns="http://www.w3.org/2000/svg">
<path d="M21.583 5.73389C23.153 4.24142 25.0655 3.84909 27.1455 4.43408C29.1928 5.01159 30.4925 6.38137 31.085 8.40869C31.1975 8.79118 31.1348 9.22624 31.1523 9.63623C31.1523 9.79674 31.153 9.95228 31.124 10.1216H30.7148C28.0076 10.1416 25.3029 10.1617 22.5957 10.1792C22.1883 10.1817 21.7781 10.1792 21.3008 10.1792C21.4409 12.1388 22.1081 13.7083 23.9902 14.3433C26.4827 15.1832 28.3554 14.1585 29.7354 11.9761C30.1478 12.1936 30.5031 12.3785 30.9355 12.606C30.0131 14.4434 28.6503 15.6141 26.6729 15.9341C23.8406 16.3915 21.598 15.2363 20.3555 12.769C19.2155 10.5066 19.6881 7.53635 21.583 5.73389ZM45.1201 15.7466C44.7127 15.7716 44.0274 15.7191 43.5225 15.7466V14.0835C41.98 15.6035 40.25 16.2759 38.2275 15.9409C36.7701 15.6984 35.6271 14.9091 34.7021 13.7642C33.1697 11.8667 32.7528 8.47622 35.0928 5.98877C36.2226 4.7865 37.6648 4.15918 39.332 4.18408C40.9445 4.20908 42.2973 4.87684 43.3848 6.11182L43.6553 5.97412V0.241699H45.1201V15.7466ZM68.4414 4.17432C71.5813 4.14432 74.1687 6.86954 74.2363 10.1294C74.2988 13.2143 71.5614 16.1897 68.4189 15.9897H68.416C64.8614 16.1769 62.5391 12.9468 62.5391 10.1694C62.5391 6.85459 65.1266 4.20686 68.4414 4.17432ZM49.1094 0.563965C50.7418 4.36139 52.3718 8.15963 54.0918 12.1646C55.8218 8.21463 57.4694 4.44393 59.1494 0.604004H60.6074C60.5399 1.47396 54.9872 14.4155 54.0244 15.8862C51.762 10.8015 49.6772 5.76375 47.4648 0.666504C47.7998 0.621508 48.0278 0.579394 48.2578 0.566895C48.505 0.551946 48.7524 0.563955 49.1094 0.563965ZM78.123 15.7729H76.7432V15.27C76.7257 11.5626 76.7028 7.85731 76.6953 4.1499C76.6953 3.19242 76.7276 2.23727 76.7451 1.27979C76.7613 0.394493 76.7451 0.55775 76.7451 0.149902C77.1253 0.149854 77.7444 0.14995 78.123 0.149902V15.7729ZM15.4209 0.634277C15.8609 3.08423 16.1586 5.55702 16.4961 8.02197C16.8411 10.5294 17.2336 13.0294 17.6211 15.6343H16.0557C15.5882 12.2219 15.1153 8.78462 14.6104 5.09229C13.5031 6.97197 12.7409 8.78928 11.8535 10.5415C10.9785 12.2715 10.1261 14.017 9.28613 15.7095C9.11651 15.6945 9.07357 15.6969 9.03613 15.687C8.99626 15.677 8.94099 15.6645 8.92578 15.6372C7.17832 12.1973 5.43344 8.75444 3.68848 5.31201H3.48145L2.05566 15.6772H0.558594C1.23856 10.655 1.94816 5.6697 2.70312 0.689941C2.79812 0.672442 2.89621 0.654707 2.99121 0.637207L9.09863 12.8521C11.1536 8.68963 13.1486 4.64924 15.1436 0.611816C15.236 0.61931 15.3285 0.626783 15.4209 0.634277ZM39.3828 5.69092C36.608 5.54593 34.9201 8.20112 34.96 10.1011C35.0125 12.5984 36.8897 14.5959 39.3145 14.6187C41.8919 14.6412 43.7453 12.7262 43.7803 10.1138C43.8103 7.85894 41.92 5.5537 39.3828 5.69092ZM68.3789 5.70947H68.377C66.5146 5.57948 64.0915 7.09202 64.0713 10.0942C64.0513 12.9566 66.119 14.6169 68.4014 14.5845C70.8337 14.5495 72.6611 12.6572 72.7412 10.1948C72.8087 8.09736 70.8889 5.52948 68.3789 5.70947ZM25.708 5.6167C24.0406 5.5867 21.936 6.40382 21.5459 8.93115H29.5557C29.2182 6.99375 27.6654 5.65176 25.708 5.6167Z" fill="url(#paint0_linear_32727_80650)"/>
<defs>
<linearGradient id="paint0_linear_32727_80650" x1="72.7295" y1="0.149902" x2="72.7295" y2="11.1656" gradientUnits="userSpaceOnUse">
<stop stop-color="white"/>
<stop offset="1" stop-color="white" stop-opacity="0.6"/>
</linearGradient>
</defs>
</svg>
