<svg width="152" height="38" viewBox="0 0 152 38" fill="none" xmlns="http://www.w3.org/2000/svg">
<path d="M88.375 17.2227C89.158 17.2205 89.9367 17.3457 90.6797 17.5928H95.3955V18.9492L92.4482 18.6201C92.4475 18.6201 92.4336 18.6207 92.4336 18.6348C93.7782 19.5797 94.2715 21.4303 94.2715 22.4443C94.2765 23.3792 94.0047 24.2945 93.4902 25.0752C92.9688 25.8838 92.2418 26.5144 91.3369 26.9805C90.4321 27.4465 89.3902 27.6797 88.2383 27.6797C87.8276 27.6797 87.4568 27.652 87.1279 27.583C86.8127 27.5149 86.4556 27.4064 86.0723 27.2275L84.6455 29.1465C84.6333 29.1593 84.644 29.1833 84.6455 29.1865C84.6455 29.1865 84.6592 29.2011 84.6729 29.2012H90.1582C91.7625 29.2012 93.0518 29.5443 93.874 30.1885C94.8341 30.9553 95.2451 31.7502 95.2451 32.874C95.2451 33.9433 94.9019 34.8757 94.2305 35.6426C93.5718 36.4102 92.6805 36.9986 91.584 37.3965C90.5002 37.7935 89.3078 38 88.0596 38C86.2636 37.9999 84.8372 37.6292 83.8232 36.9033C82.795 36.1766 82.2735 35.2036 82.2734 34.0254C82.2734 33.3948 82.4516 32.7771 82.8086 32.1875C83.1094 31.6679 83.549 31.229 84.0977 30.8584H83.5352C83.3365 30.858 83.1417 30.8025 82.9727 30.6982C82.8037 30.5939 82.6666 30.4449 82.5771 30.2676C82.4877 30.0902 82.4492 29.8913 82.4658 29.6934C82.4824 29.4957 82.5534 29.3063 82.6709 29.1465L84.6318 26.4873C83.9919 26.0431 83.4583 25.4621 83.0693 24.7871C82.6715 24.0885 82.4795 23.3074 82.4795 22.458C82.476 21.5254 82.7427 20.6116 83.2471 19.8271C83.754 19.0187 84.4674 18.3879 85.3721 17.9219C86.2769 17.4558 87.2785 17.2227 88.375 17.2227ZM86.3047 30.8457C85.7842 31.1064 85.3865 31.4619 85.0576 31.9551C84.7288 32.4484 84.5635 33.0109 84.5635 33.6133C84.5635 34.5734 84.9198 35.3269 85.6191 35.8203C86.3179 36.3137 87.2786 36.5742 88.4307 36.5742C89.7462 36.5742 90.8164 36.2594 91.6113 35.6426C92.4062 35.0266 92.8046 34.2033 92.8047 33.2031C92.8047 32.518 92.5853 31.9282 92.1465 31.4902C91.7077 31.0506 91.049 30.8457 90.0205 30.8457H86.3047ZM8.74707 0.00488281C8.75517 0.00837397 8.76247 0.0141314 8.76855 0.0205078C9.71813 1.35755 10.7204 2.65705 11.7725 3.91504C24.4275 20.0553 9.77926 30.9336 9.76562 30.9336L9.64258 31.0293C9.53434 32.7111 9.26487 35.0925 9.26074 35.1289H8.16797C8.16373 35.0913 7.8952 32.6972 7.78613 31.0293L7.66406 30.9473C7.66406 30.9473 -6.98499 20.0552 5.66992 3.91504C6.72197 2.65704 7.72424 1.35754 8.67383 0.0205078C8.67993 0.0140878 8.68718 0.00839096 8.69531 0.00488281C8.70347 0.00139557 8.71281 0 8.72168 0C8.73036 5.22261e-05 8.73908 0.00149095 8.74707 0.00488281ZM30.0293 12.208L36.1328 27.0107L42.2363 12.167H46.8633V13.1621L46.0693 13.1758C45.6041 13.1894 45.2207 13.5717 45.2207 14.0488L45.2617 28.9453C45.2754 29.4088 45.6588 29.8047 46.124 29.8047H46.8623V30.7861H41.4434V29.8047H41.9365C42.4145 29.791 42.7979 29.4088 42.7979 28.9316L42.7031 15.2471L36.2021 30.7861C36.1059 31.0178 35.8876 31.1678 35.6406 31.168C35.3944 31.168 35.1754 31.0178 35.0791 30.7861L28.4277 14.8926V28.9316C28.431 29.1567 28.5205 29.3721 28.6787 29.5322C28.8369 29.6923 29.0514 29.7851 29.2764 29.791L29.7559 29.8047V30.7861H25.1289V29.8047L25.9092 29.791C26.3744 29.7774 26.7578 29.3952 26.7578 28.9316L26.8955 14.0352C26.8955 13.8034 26.8129 13.5845 26.6484 13.4209C26.4849 13.2574 26.2649 13.1622 26.0332 13.1621H25.2656V12.167H30.0146L30.0293 12.208ZM56.0791 17.2227C57.2959 17.2136 58.4954 17.5144 59.5645 18.0957C60.6123 18.6682 61.4422 19.4876 62.0557 20.5508C62.6683 21.6013 62.9814 22.8302 62.9814 24.1934C62.9814 25.5576 62.6683 26.7863 62.0557 27.8369C61.443 28.8865 60.6123 29.7195 59.5635 30.292C58.529 30.8782 57.3443 31.166 56.0781 31.166C54.8614 31.1747 53.6625 30.8735 52.5938 30.292C51.5449 29.7194 50.7134 28.8875 50.1016 27.8369C49.4881 26.7863 49.1758 25.5576 49.1758 24.1934C49.1758 22.8293 49.4898 21.6013 50.1016 20.5508C50.7142 19.5012 51.5458 18.6691 52.5938 18.0957C53.6281 17.5095 54.8122 17.2227 56.0791 17.2227ZM104.348 17.2227C105.565 17.2135 106.764 17.5143 107.833 18.0957C108.874 18.668 109.736 19.5182 110.324 20.5508C110.937 21.6013 111.251 22.8302 111.251 24.1934C111.251 25.5576 110.937 26.7863 110.324 27.8369C109.712 28.8865 108.882 29.7195 107.833 30.292C106.799 30.8782 105.614 31.166 104.348 31.166C103.131 31.1747 101.931 30.8736 100.862 30.292C99.8144 29.7195 98.9837 28.8873 98.3711 27.8369C97.7584 26.7863 97.4453 25.5576 97.4453 24.1934C97.4454 22.8293 97.7585 21.6013 98.3711 20.5508C98.9837 19.5012 99.8144 18.6691 100.862 18.0957C101.897 17.5095 103.082 17.2227 104.348 17.2227ZM119.967 12.167C121.641 12.167 123.193 12.5505 124.581 13.29C125.969 14.0288 127.085 15.125 127.915 16.5479C128.731 17.9579 129.153 19.6278 129.153 21.5439C129.153 23.4603 128.731 25.1444 127.915 26.541C127.099 27.9367 125.969 29.0327 124.581 29.7715C123.193 30.5111 121.641 30.8945 119.967 30.8945H113.434V29.8945H114.073C114.319 29.8945 114.549 29.7844 114.754 29.5791C114.957 29.3738 115.067 29.1425 115.067 28.8955V14.166C115.067 13.9198 114.958 13.6859 114.754 13.4814C114.536 13.2619 114.319 13.166 114.073 13.166H113.434V12.167H119.967ZM138.376 12.167C139.556 12.167 140.599 12.3725 141.491 12.7695C142.382 13.1666 143.082 13.7417 143.576 14.4531C144.07 15.1654 144.316 16.0004 144.316 16.9307C144.316 18.6417 143.344 19.9709 141.45 20.915C142.821 21.2303 143.987 21.8179 144.591 22.5166C145.318 23.3661 145.676 24.3774 145.689 25.583C145.689 26.7052 145.387 27.6767 144.784 28.4717C144.194 29.2641 143.37 29.8676 142.341 30.2783C141.312 30.6889 140.173 30.8945 138.952 30.8945H130.926V29.8945H131.571C131.818 29.8944 132.052 29.7843 132.257 29.5791C132.463 29.3739 132.573 29.1424 132.573 28.8955V14.166C132.573 13.9198 132.463 13.6859 132.257 13.4814C132.038 13.2618 131.818 13.1661 131.571 13.166H130.981V12.167H138.376ZM149.378 27.4746C149.717 27.4746 150.015 27.5558 150.287 27.7031C150.558 27.8514 150.762 28.0667 150.925 28.3223C151.074 28.5915 151.155 28.8743 151.155 29.1836C151.155 29.4936 151.074 29.7884 150.925 30.0439C150.776 30.314 150.558 30.5148 150.287 30.6631C150.009 30.8157 149.696 30.8949 149.378 30.8926C149.061 30.8931 148.749 30.8141 148.47 30.6631C148.208 30.515 147.988 30.3023 147.832 30.0449C147.682 29.7829 147.603 29.4856 147.602 29.1836C147.602 28.8736 147.683 28.5778 147.832 28.3223C147.981 28.053 148.199 27.8514 148.47 27.7031C148.748 27.5509 149.061 27.4721 149.378 27.4746ZM73.8838 17.2227C75.2829 17.2227 76.4083 17.6211 77.2178 18.4033C78.0417 19.1864 78.4531 20.2859 78.4531 21.6875V29.0508C78.4494 29.1621 78.4677 29.2731 78.5078 29.377C78.5479 29.4809 78.609 29.5753 78.6865 29.6553C78.7593 29.7305 78.8458 29.7899 78.9424 29.8301C79.0391 29.8702 79.1433 29.8902 79.248 29.8887H79.7969V30.8916H74.7754V29.8887H75.3252C75.4362 29.8922 75.5468 29.8741 75.6504 29.834C75.754 29.7939 75.848 29.7327 75.9277 29.6553C76.0785 29.5037 76.161 29.2987 76.1611 29.0518V21.9619C76.1611 21.0281 75.928 20.2446 75.4756 19.6396C75.0223 19.0357 74.2951 18.7334 73.335 18.7334C72.484 18.7334 71.7436 18.9531 71.126 19.4062C70.515 19.8557 70.0319 20.4575 69.7256 21.1514C69.4239 21.8654 69.2598 22.5946 69.2598 23.3223V29.0361C69.2559 29.1474 69.2745 29.2584 69.3145 29.3623C69.3544 29.4661 69.4149 29.5607 69.4922 29.6406C69.572 29.7182 69.6667 29.7792 69.7705 29.8193C69.8743 29.8595 69.9855 29.8788 70.0967 29.875H70.6455V30.8779H65.623V29.875H66.1719C66.283 29.8787 66.3943 29.8604 66.498 29.8203C66.6017 29.7802 66.6957 29.7191 66.7754 29.6416C66.9262 29.49 67.0097 29.2841 67.0098 29.0371V20.3682C67.0097 20.0804 66.9261 19.8743 66.7754 19.7363C66.6246 19.5993 66.4051 19.5303 66.1445 19.5303H65.582V18.8438L67.7637 17.5938H68.6143L69.1221 19.5586C69.1222 19.5992 69.1498 19.6259 69.1904 19.626C69.232 19.626 69.2733 19.613 69.2871 19.5859C70.3709 18.0198 71.9215 17.2227 73.8838 17.2227ZM8.75488 12.252C8.75488 12.1974 8.67383 12.1974 8.67383 12.252L7.88184 29.8271V29.8535C8.05924 30.1407 8.71387 30.7012 8.71387 30.7012C8.72108 30.695 9.3697 30.1391 9.54785 29.8535V29.8271L8.75488 12.252ZM149.378 27.6904C149.094 27.6905 148.85 27.7578 148.618 27.8779C148.389 27.9998 148.224 28.1878 148.09 28.4033C147.964 28.6391 147.898 28.9026 147.899 29.1699C147.899 29.452 147.968 29.7083 148.09 29.9375C148.213 30.1657 148.389 30.34 148.618 30.4609C148.85 30.5819 149.094 30.6494 149.378 30.6494C149.663 30.6494 149.921 30.5947 150.139 30.4609C150.368 30.34 150.532 30.1519 150.667 29.9375C150.789 29.7083 150.857 29.452 150.857 29.1699C150.857 28.8872 150.789 28.6316 150.667 28.4033C150.548 28.1787 150.364 27.9957 150.139 27.8789C149.905 27.7538 149.643 27.6889 149.378 27.6904ZM149.378 28.2686C149.581 28.2686 149.731 28.3089 149.853 28.4033C149.975 28.4971 150.029 28.6184 150.029 28.7803C150.032 28.8407 150.02 28.9013 149.997 28.957C149.974 29.0126 149.938 29.062 149.894 29.1025C149.804 29.1956 149.683 29.2533 149.555 29.2646L149.718 29.3174L150.029 29.8154C150.057 29.8563 150.084 29.8701 150.125 29.8701H150.205L150.219 29.8828V30.0039L150.205 30.0176H149.785L149.758 30.0049L149.323 29.2773H149.216V29.7617C149.216 29.7871 149.226 29.8117 149.243 29.8301C149.27 29.8555 149.284 29.8555 149.31 29.8555H149.392L149.42 29.8701V29.9912L149.392 30.0049H148.674L148.646 29.9912V29.8701L148.674 29.8564H148.755C148.78 29.8564 148.808 29.8426 148.821 29.8291C148.849 29.8027 148.85 29.789 148.85 29.7617V28.5107C148.849 28.4855 148.839 28.4613 148.821 28.4434C148.794 28.4164 148.78 28.416 148.755 28.416H148.674L148.646 28.4033V28.2822L148.674 28.2686H149.378ZM56.0781 18.6826C54.7168 18.6827 53.614 19.1867 52.8105 20.1689C51.9943 21.1513 51.586 22.5158 51.5859 24.1934C51.5859 25.8717 51.9936 27.2362 52.8105 28.2178C53.614 29.2001 54.7167 29.705 56.0781 29.7051C57.4398 29.7051 58.5432 29.2002 59.3467 28.2178C60.1627 27.2353 60.5713 25.8717 60.5713 24.1934C60.5712 22.5022 60.1638 21.1513 59.3467 20.1689C58.5432 19.1866 57.4397 18.6826 56.0781 18.6826ZM104.348 18.6826C102.986 18.6827 101.883 19.1867 101.08 20.1689C100.263 21.1513 99.8555 22.5022 99.8555 24.1934C99.8555 25.8717 100.263 27.2362 101.08 28.2178C101.884 29.2001 102.986 29.705 104.348 29.7051C105.709 29.7051 106.813 29.2002 107.616 28.2178C108.432 27.2353 108.841 25.8717 108.841 24.1934C108.841 22.5022 108.419 21.1513 107.616 20.1689C106.813 19.1866 105.709 18.6826 104.348 18.6826ZM118.524 13.5771C118.28 13.5771 118.047 13.6871 117.843 13.8916C117.626 14.1114 117.53 14.3301 117.53 14.5771V28.457C117.53 28.7032 117.639 28.9371 117.843 29.1416C118.061 29.3606 118.28 29.457 118.524 29.457H119.844C121.042 29.457 122.158 29.1689 123.165 28.5947C124.172 28.0196 124.989 27.1297 125.602 25.9385C126.214 24.7473 126.526 23.2685 126.526 21.5166C126.526 19.765 126.214 18.286 125.602 17.0957C124.989 15.9053 124.172 15.0146 123.165 14.4395C122.158 13.8644 121.042 13.5771 119.844 13.5771H118.524ZM135.069 28.4707C135.069 28.717 135.179 28.9508 135.385 29.1553C135.577 29.3468 135.769 29.4447 135.979 29.457H138.885C139.776 29.457 140.544 29.2653 141.162 28.8955C141.792 28.5266 142.26 28.0468 142.575 27.4443C142.878 26.8605 143.038 26.2124 143.041 25.5547C143.041 24.46 142.685 23.5707 141.971 22.8857C141.258 22.2016 140.228 21.8585 138.885 21.8584H135.069V28.4707ZM149.323 28.417C149.299 28.4174 149.275 28.4267 149.257 28.4434C149.23 28.4697 149.229 28.4836 149.229 28.5107V29.1162H149.337C149.447 29.1162 149.541 29.0897 149.596 29.0225C149.659 28.9524 149.693 28.8607 149.69 28.7666C149.695 28.6745 149.666 28.5836 149.609 28.5107C149.555 28.4434 149.473 28.417 149.378 28.417H149.323ZM88.375 18.6895C87.4566 18.6895 86.6478 19.018 85.9619 19.6621C85.276 20.3063 84.9336 21.2525 84.9336 22.459C84.9336 23.6637 85.276 24.6098 85.9619 25.2539C86.6478 25.898 87.4566 26.2265 88.375 26.2266C88.9497 26.2207 89.5147 26.0755 90.0205 25.8027C90.5578 25.5086 91.0037 25.0717 91.3096 24.541C91.6521 23.9923 91.8164 23.2938 91.8164 22.458C91.8164 21.6358 91.6384 20.9373 91.3096 20.375C90.967 19.8126 90.542 19.3877 90.0205 19.1133C89.4999 18.8253 88.9509 18.6895 88.375 18.6895ZM136.085 13.5771C135.838 13.5772 135.605 13.6872 135.398 13.8916C135.179 14.1114 135.083 14.33 135.083 14.5771V20.4492H138.28C139.405 20.4492 140.255 20.1336 140.818 19.5176C141.38 18.8879 141.669 18.053 141.669 17.0127C141.669 16.0005 141.366 15.1794 140.764 14.5361C140.16 13.9064 139.198 13.5771 137.896 13.5771H136.085Z" fill="url(#paint0_linear_32727_80690)"/>
<defs>
<linearGradient id="paint0_linear_32727_80690" x1="75.9368" y1="7.95812e-08" x2="75.9368" y2="38.0921" gradientUnits="userSpaceOnUse">
<stop stop-color="white"/>
<stop offset="1" stop-color="white" stop-opacity="0.6"/>
</linearGradient>
</defs>
</svg>
