<svg width="144" height="32" viewBox="0 0 144 32" fill="none" xmlns="http://www.w3.org/2000/svg">
<path d="M69.7686 7.021C72.001 7.06667 73.9098 7.86033 75.4561 9.77002V7.59229H79.2383C79.2506 7.71673 79.2688 7.81331 79.2676 7.91064C79.2614 12.8798 79.2999 17.849 79.2334 22.8169C79.1705 27.5211 76.2147 30.6516 71.54 31.1284C69.0489 31.3822 66.7201 30.9836 64.665 29.4634C63.3861 28.5171 62.2582 26.7339 62.1436 25.4722C63.4558 25.4722 64.765 25.4637 66.0723 25.4858C66.2065 25.4887 66.3851 25.6495 66.4639 25.7837C67.4508 27.4569 68.99 27.9536 70.8135 27.8452C74.2692 27.638 75.2632 25.3446 75.5244 22.5317C75.5576 22.166 75.5293 21.7954 75.5293 21.3706V21.3687C73.0392 24.2715 69.9528 24.6217 66.5693 23.5854C64.7213 23.0199 63.3326 21.7924 62.501 20.0552C61.0485 17.0206 61.0324 13.9256 62.6328 10.9575C64.136 8.16675 66.6402 6.95816 69.7686 7.021ZM98.3672 11.2808C100.197 7.96018 103.619 6.65129 107.037 7.00244C111.581 7.4683 113.936 10.8403 114.363 14.5278C114.462 15.378 114.469 16.24 114.523 17.1851H101.242C101.26 19.245 102.633 21.1801 104.528 21.8022C106.413 22.422 108.806 22.0248 109.956 20.2026C110.046 20.061 110.276 19.9298 110.443 19.9272C111.652 19.9038 112.861 19.9155 114.151 19.9155C113.843 21.0378 113.277 21.9448 112.542 22.7456C110.992 24.4335 109.027 25.2245 106.766 25.3687C104.502 25.5128 102.406 25.0484 100.566 23.6733C98.865 22.4019 97.8698 20.6705 97.4336 18.6167C96.8927 16.0688 97.0934 13.5933 98.3672 11.2808ZM11.2871 0.904785C14.4389 0.533915 17.367 1.12531 19.9668 3.01416C21.7777 4.33 23.0035 6.07579 23.7354 8.30322C22.4564 8.30322 21.2547 8.25945 20.0596 8.31982C19.3318 8.35668 18.9314 8.16901 18.541 7.48193C17.2054 5.12867 15.0171 4.25498 12.415 4.4126C7.49885 4.70954 5.62981 8.42944 5.2959 11.6157C5.01504 14.2955 5.38799 16.8176 7.04883 19.0181C8.3018 20.6788 10.018 21.6114 12.084 21.7212C13.2138 21.7816 14.3998 21.7252 15.4902 21.4468C18.0886 20.7839 19.6555 18.6965 19.9414 15.7261L19.9404 15.7241H11.8662V12.4224H23.7178V24.8032H19.9834V22.5024C19.5781 22.8498 19.2871 23.1233 18.9717 23.3647C17.3736 24.5931 15.5157 25.144 13.5469 25.2808C9.66819 25.5518 6.29503 24.4401 3.7002 21.4165C2.23408 19.7089 1.40481 17.6985 1.06348 15.4907C0.584179 12.3882 0.909342 9.38873 2.47168 6.61768C4.40486 3.18765 7.41349 1.3607 11.2871 0.904785ZM30.6084 7.47314C32.6279 6.79794 34.6884 6.78223 36.7227 7.38721C39.1176 8.10062 40.3593 9.87579 40.6465 12.2437C40.872 14.1091 40.8303 16.0082 40.8809 17.8921C40.9117 19.0404 40.8602 20.1923 40.9082 21.3394C40.9563 22.4851 41.0814 23.6275 41.1787 24.8472C40.0674 24.8472 38.925 24.8597 37.7842 24.8276C37.6783 24.8246 37.5154 24.5582 37.4893 24.397C37.4055 23.8573 37.3702 23.3084 37.3086 22.6714C36.2749 23.9466 34.9909 24.6924 33.4619 25.0054C31.7124 25.3638 29.9888 25.2823 28.3428 24.5542C25.5619 23.3246 24.5317 19.7883 26.2861 17.4966C27.3076 16.1634 28.7691 15.4622 30.3438 15.1147C32.4974 14.6379 34.688 14.3302 36.9082 13.9409C37.2138 12.4255 36.2742 10.6593 34.8623 10.271C32.4855 9.61674 30.9389 10.4686 30.0469 12.9341H26.3359C26.3852 10.4637 28.0383 8.33198 30.6084 7.47314ZM97.5674 7.56104L97.5664 7.56201C96.8567 9.40518 96.183 11.1586 95.5078 12.9106C94.0379 16.7277 92.5616 20.5415 91.1064 24.3647C90.9599 24.7489 90.7897 24.9061 90.3623 24.8901C89.4395 24.8532 88.5143 24.9012 87.5928 24.8618C87.3897 24.8532 87.0809 24.6726 87.0127 24.4966C84.8614 18.9274 82.7317 13.3488 80.6025 7.771C80.5892 7.73655 80.6049 7.6921 80.6123 7.57178C81.9713 7.57178 83.3345 7.55579 84.6973 7.59521C84.8402 7.59921 85.0351 7.89987 85.1016 8.09814C86.3607 11.8584 87.6025 15.6252 88.8506 19.3892C88.9183 19.5936 88.9973 19.7943 89.1191 20.1304C90.005 17.4568 90.847 14.9262 91.6836 12.3931C92.1654 10.9367 92.6267 9.47362 93.1318 8.02588C93.1985 7.83622 93.4574 7.58783 93.6348 7.58154C94.9049 7.54335 96.1765 7.56103 97.5674 7.56104ZM131.448 15.0552C132.232 14.1212 132.908 13.3215 133.576 12.5132C134.817 11.0114 136.058 9.50878 137.285 7.99463C137.551 7.66565 137.841 7.52383 138.277 7.53369C139.644 7.56325 141.011 7.54444 142.517 7.54443C140.094 10.2316 137.764 12.8147 135.365 15.4761C138.007 18.56 140.651 21.6471 143.396 24.853C141.865 24.853 140.479 24.8018 139.099 24.8745C138.368 24.9126 137.949 24.6379 137.525 24.0923C135.565 21.5653 133.567 19.0673 131.502 16.4565V24.8149H127.453V1.3374H131.448V15.0552ZM120.232 9.57275C121.651 7.51026 123.568 6.97657 125.833 7.16748V10.939C125.154 10.9389 124.475 10.8509 123.827 10.9556C122.002 11.2489 120.879 12.5617 120.644 14.6538C120.536 15.6085 120.514 16.5755 120.506 17.5376C120.486 19.7344 120.499 21.9316 120.499 24.1284V24.8306H116.48V7.57373H120.232V9.57275ZM48.7588 8.5376C51.0838 6.35796 55.5275 6.45806 57.6689 8.74365C58.817 9.96953 59.3354 11.5008 59.3662 13.1196C59.4401 16.9946 59.3916 20.8734 59.3916 24.8247H55.3857V24.1021C55.371 20.9416 55.3688 17.7808 55.3281 14.6216C55.3207 14.0352 55.2089 13.4366 55.0537 12.8687C54.7075 11.6008 53.9968 10.6274 52.6045 10.4204C51.036 10.1876 49.6594 10.5506 48.7402 11.9663C48.1415 12.8879 47.9439 13.9334 47.9414 15.0151C47.934 18.0522 47.9385 21.0894 47.9385 24.1265V24.8208H43.9258V7.56006H47.7061V9.65479C48.1001 9.23486 48.4091 8.86521 48.7588 8.5376ZM37.0732 16.8882C36.094 16.9966 35.2058 17.0145 34.3584 17.2065C33.1521 17.4801 31.9438 17.8071 30.793 18.2544C30.0332 18.5489 29.7071 19.2806 29.7637 20.1206C29.824 21.0139 30.2353 21.6898 31.0879 22.02C31.4649 22.1654 31.873 22.2763 32.2734 22.3071C34.5342 22.4857 36.4513 21.5872 36.8789 19.0259C36.9898 18.3631 37.005 17.684 37.0752 16.8882H37.0732ZM72.332 10.646C70.2473 9.9302 67.9965 10.4748 66.7139 12.0161C66.035 12.8318 65.7189 13.8027 65.6191 14.8364C65.1954 19.2313 68.2453 21.6053 72.0439 20.6245C74.1865 20.0713 75.4272 18.1717 75.4297 15.5806H75.4277C75.4277 15.3957 75.4327 15.2107 75.4277 15.0259C75.3722 12.9855 74.1617 11.2756 72.332 10.646ZM106.334 10.104C103.632 9.89107 101.626 11.5613 101.368 14.2729H110.378C110.479 12.2067 108.603 10.2827 106.334 10.104Z" fill="url(#paint0_linear_32727_80704)"/>
<defs>
<linearGradient id="paint0_linear_32727_80704" x1="133.485" y1="0.799316" x2="133.485" y2="21.8843" gradientUnits="userSpaceOnUse">
<stop stop-color="white"/>
<stop offset="1" stop-color="white" stop-opacity="0.6"/>
</linearGradient>
</defs>
</svg>
