<svg width="20" height="20" viewBox="0 0 20 20" fill="none" xmlns="http://www.w3.org/2000/svg">
<path d="M16.6328 11.3179C16.1263 11.0282 15.5412 10.9062 14.9611 10.9694C14.3811 11.0326 13.8359 11.2777 13.4037 11.6697C12.9715 12.0616 12.6744 12.5803 12.555 13.1514C12.4356 13.7225 12.5 14.3168 12.739 14.8491C11.8047 15.5448 10.6712 15.9212 9.5063 15.9226C9.09182 15.9193 8.67904 15.8693 8.2758 15.7734C7.94104 16.5057 7.4311 17.1444 6.79102 17.6329C8.06209 18.1167 9.43928 18.2524 10.7803 18.026C12.1214 17.7995 13.3777 17.2192 14.4195 16.3449C15.0676 16.5455 15.7669 16.5007 16.3842 16.219C17.0014 15.9374 17.4935 15.4385 17.7667 14.8174C18.0398 14.1963 18.075 13.4965 17.8655 12.8512C17.656 12.2058 17.2165 11.6601 16.6306 11.3179H16.6328Z" fill="url(#paint0_linear_24490_61460)"/>
<path d="M12.1971 3.14155C12.0547 2.52557 11.7055 1.97701 11.2076 1.58736C10.7098 1.1977 10.0934 0.990513 9.46123 1.00033C8.82909 1.01015 8.21942 1.23639 7.7339 1.64132C7.24838 2.04625 6.91635 2.6054 6.79319 3.2255C6.67003 3.84561 6.76318 4.4892 7.05711 5.04893C7.35104 5.60867 7.82798 6.05072 8.4084 6.30137C8.98881 6.55201 9.6376 6.5961 10.2466 6.42628C10.8556 6.25646 11.3879 5.88299 11.7549 5.36817C12.4681 5.69132 13.1049 6.16152 13.6237 6.74796C14.1425 7.3344 14.5316 8.02384 14.7654 8.77112C14.929 8.75167 15.0936 8.74059 15.2584 8.73795C15.9029 8.73814 16.5412 8.86355 17.1379 9.10721C16.9086 7.76735 16.3316 6.51116 15.4646 5.46425C14.5975 4.41734 13.4708 3.61641 12.1971 3.14155Z" fill="url(#paint1_linear_24490_61460)"/>
<path d="M6.15563 12.3305C5.93493 11.9487 5.6257 11.6254 5.25399 11.388C4.88227 11.1506 4.45895 11.0059 4.01966 10.9663C3.99539 10.777 3.98174 10.5866 3.97876 10.3958C3.98219 9.00237 4.5149 7.66229 5.46907 6.6468C4.9999 5.98675 4.70067 5.22122 4.59788 4.41797C3.71309 5.14279 3.00025 6.05499 2.51081 7.08875C2.02137 8.1225 1.76753 9.25203 1.76762 10.3958C1.77148 10.8282 1.81217 11.2594 1.88923 11.6849C1.50659 12.0381 1.23151 12.4922 1.09568 12.9949C0.959852 13.4976 0.968803 14.0285 1.1215 14.5263C1.2742 15.0242 1.56443 15.4688 1.95876 15.8089C2.3531 16.149 2.83548 16.3707 3.35036 16.4487C3.86523 16.5266 4.39165 16.4575 4.86895 16.2493C5.34626 16.0411 5.75505 15.7023 6.04822 15.2719C6.34139 14.8415 6.50701 14.3371 6.52602 13.8167C6.54502 13.2963 6.41663 12.7812 6.15563 12.3305Z" fill="url(#paint2_linear_24490_61460)"/>
<defs>
<linearGradient id="paint0_linear_24490_61460" x1="12.3958" y1="10.9531" x2="12.3958" y2="18.1326" gradientUnits="userSpaceOnUse">
<stop stop-color="#F5F5F5"/>
<stop offset="1" stop-color="#F5F5F5" stop-opacity="0.4"/>
</linearGradient>
<linearGradient id="paint1_linear_24490_61460" x1="11.9391" y1="1" x2="11.9391" y2="9.10721" gradientUnits="userSpaceOnUse">
<stop stop-color="#F5F5F5"/>
<stop offset="1" stop-color="#F5F5F5" stop-opacity="0.4"/>
</linearGradient>
<linearGradient id="paint2_linear_24490_61460" x1="3.76393" y1="4.41797" x2="3.76393" y2="16.4798" gradientUnits="userSpaceOnUse">
<stop stop-color="#F5F5F5"/>
<stop offset="1" stop-color="#F5F5F5" stop-opacity="0.4"/>
</linearGradient>
</defs>
</svg>
