<svg width="20" height="20" viewBox="0 0 20 20" fill="none" xmlns="http://www.w3.org/2000/svg">
<path d="M15.6667 2H3.66667C3.29867 2 3 2.29867 3 2.66667V17.3333C3 17.7013 3.29867 18 3.66667 18H15.6667C16.0347 18 16.3333 17.7013 16.3333 17.3333V2.66667C16.3333 2.29867 16.0347 2 15.6667 2ZM13.6667 15C13.6667 15.184 13.5173 15.3333 13.3333 15.3333H6C5.816 15.3333 5.66667 15.184 5.66667 15V14.3333C5.66667 14.1493 5.816 14 6 14H13.3333C13.5173 14 13.6667 14.1493 13.6667 14.3333V15ZM13.6667 11.6667C13.6667 11.8507 13.5173 12 13.3333 12H6C5.816 12 5.66667 11.8507 5.66667 11.6667V11C5.66667 10.816 5.816 10.6667 6 10.6667H13.3333C13.5173 10.6667 13.6667 10.816 13.6667 11V11.6667ZM13.6667 8.33333C13.6667 8.51733 13.5173 8.66667 13.3333 8.66667H6C5.816 8.66667 5.66667 8.51733 5.66667 8.33333V5C5.66667 4.816 5.816 4.66667 6 4.66667H13.3333C13.5173 4.66667 13.6667 4.816 13.6667 5V8.33333Z" fill="url(#paint0_linear_24490_65963)"/>
<defs>
<linearGradient id="paint0_linear_24490_65963" x1="9.66667" y1="2" x2="9.66667" y2="18" gradientUnits="userSpaceOnUse">
<stop stop-color="#F5F5F5"/>
<stop offset="1" stop-color="#F5F5F5" stop-opacity="0.4"/>
</linearGradient>
</defs>
</svg>
