<svg xmlns="http://www.w3.org/2000/svg" width="44" height="44" viewBox="0 0 44 44" fill="none">
  <g clip-path="url(#clip0_24490_56906)">
    <rect width="44" height="44" rx="4" fill="#0B0B0F"/>
    <rect x="0.5" y="0.5" width="43" height="43" rx="3.5" stroke="#333347" stroke-opacity="0.3"/>
    <mask id="mask0_24490_56906" style="mask-type:alpha" maskUnits="userSpaceOnUse" x="0" y="0" width="44" height="44">
      <rect x="0.5" y="0.5" width="43" height="43" rx="3.5" stroke="#333347" stroke-opacity="0.3"/>
    </mask>
    <g mask="url(#mask0_24490_56906)">
      <g opacity="0.25" filter="url(#filter0_f_24490_56906)">
        <circle cx="22" cy="22" r="15" fill="#F0B84C"/>
      </g>
    </g>
    <g opacity="0.1" filter="url(#filter1_f_24490_56906)">
      <circle cx="22" cy="22" r="19" fill="#F0B84C"/>
    </g>
    <g opacity="0.4" filter="url(#filter2_f_24490_56906)">
      <circle cx="21.9996" cy="21.9996" r="7.7027" fill="#F0B84C"/>
    </g>
    <path fill-rule="evenodd" clip-rule="evenodd" d="M18.683 15.1505C23.9152 14.8472 27.2683 13.8673 30.2545 12.682V26.0358C27.2683 24.8505 23.9152 23.8706 18.683 23.5673V15.1505ZM32.5259 26.9894C32.1286 26.8167 31.7317 26.6454 31.3315 26.477V12.2408C31.7317 12.0724 32.1286 11.9011 32.5259 11.7284C32.693 11.6557 32.8769 11.6236 33.0607 11.6351C33.2445 11.6466 33.4222 11.7014 33.5774 11.7943C33.7327 11.8872 33.8605 12.0153 33.949 12.1667C34.0376 12.3181 34.084 12.488 34.084 12.6607V26.0571C34.084 26.2298 34.0376 26.3997 33.949 26.5511C33.8605 26.7025 33.7327 26.8306 33.5774 26.9235C33.4222 27.0164 33.2445 27.0712 33.0607 27.0827C32.8769 27.0942 32.693 27.0621 32.5259 26.9894ZM17.606 15.2022C16.9175 15.2286 16.1979 15.2439 15.4441 15.2471H13.2035C12.3311 15.2471 11.4944 15.572 10.8775 16.1503C10.2606 16.7286 9.91406 17.513 9.91406 18.3309V20.3869C9.91406 21.2048 10.2606 21.9892 10.8775 22.5675C11.4944 23.1458 12.3311 23.4707 13.2035 23.4707H15.4441C16.1979 23.4739 16.9175 23.4892 17.606 23.5156V15.2022ZM17.5383 24.7852V30.2056C17.5383 31.2593 16.6841 32.1135 15.6305 32.1135C14.5768 32.1135 13.7227 31.2593 13.7227 30.2056V24.7852H17.5383Z" fill="#F0B84C"/>
    <path fill-rule="evenodd" clip-rule="evenodd" d="M18.683 15.1505C23.9152 14.8472 27.2683 13.8673 30.2545 12.682V26.0358C27.2683 24.8505 23.9152 23.8706 18.683 23.5673V15.1505ZM32.5259 26.9894C32.1286 26.8167 31.7317 26.6454 31.3315 26.477V12.2408C31.7317 12.0724 32.1286 11.9011 32.5259 11.7284C32.693 11.6557 32.8769 11.6236 33.0607 11.6351C33.2445 11.6466 33.4222 11.7014 33.5774 11.7943C33.7327 11.8872 33.8605 12.0153 33.949 12.1667C34.0376 12.3181 34.084 12.488 34.084 12.6607V26.0571C34.084 26.2298 34.0376 26.3997 33.949 26.5511C33.8605 26.7025 33.7327 26.8306 33.5774 26.9235C33.4222 27.0164 33.2445 27.0712 33.0607 27.0827C32.8769 27.0942 32.693 27.0621 32.5259 26.9894ZM17.606 15.2022C16.9175 15.2286 16.1979 15.2439 15.4441 15.2471H13.2035C12.3311 15.2471 11.4944 15.572 10.8775 16.1503C10.2606 16.7286 9.91406 17.513 9.91406 18.3309V20.3869C9.91406 21.2048 10.2606 21.9892 10.8775 22.5675C11.4944 23.1458 12.3311 23.4707 13.2035 23.4707H15.4441C16.1979 23.4739 16.9175 23.4892 17.606 23.5156V15.2022ZM17.5383 24.7852V30.2056C17.5383 31.2593 16.6841 32.1135 15.6305 32.1135C14.5768 32.1135 13.7227 31.2593 13.7227 30.2056V24.7852H17.5383Z" fill="url(#paint0_linear_24490_56906)" fill-opacity="0.1" style="mix-blend-mode:plus-lighter"/>
  </g>
  <defs>
    <filter id="filter0_f_24490_56906" x="-9" y="-9" width="62" height="62" filterUnits="userSpaceOnUse" color-interpolation-filters="sRGB">
      <feFlood flood-opacity="0" result="BackgroundImageFix"/>
      <feBlend mode="normal" in="SourceGraphic" in2="BackgroundImageFix" result="shape"/>
      <feGaussianBlur stdDeviation="8" result="effect1_foregroundBlur_24490_56906"/>
    </filter>
    <filter id="filter1_f_24490_56906" x="-27" y="-27" width="98" height="98" filterUnits="userSpaceOnUse" color-interpolation-filters="sRGB">
      <feFlood flood-opacity="0" result="BackgroundImageFix"/>
      <feBlend mode="normal" in="SourceGraphic" in2="BackgroundImageFix" result="shape"/>
      <feGaussianBlur stdDeviation="15" result="effect1_foregroundBlur_24490_56906"/>
    </filter>
    <filter id="filter2_f_24490_56906" x="-1.70312" y="-1.70312" width="47.4053" height="47.4062" filterUnits="userSpaceOnUse" color-interpolation-filters="sRGB">
      <feFlood flood-opacity="0" result="BackgroundImageFix"/>
      <feBlend mode="normal" in="SourceGraphic" in2="BackgroundImageFix" result="shape"/>
      <feGaussianBlur stdDeviation="8" result="effect1_foregroundBlur_24490_56906"/>
    </filter>
    <linearGradient id="paint0_linear_24490_56906" x1="28.0415" y1="32.6824" x2="17.7132" y2="10.7426" gradientUnits="userSpaceOnUse">
      <stop stop-color="white" stop-opacity="0"/>
      <stop offset="1" stop-color="white"/>
    </linearGradient>
    <clipPath id="clip0_24490_56906">
      <rect width="44" height="44" fill="white"/>
    </clipPath>
  </defs>
</svg>
