<svg width="20" height="20" viewBox="0 0 20 20" fill="none" xmlns="http://www.w3.org/2000/svg">
<path fill-rule="evenodd" clip-rule="evenodd" d="M1.67791 1.77344H13.837C14.0385 1.77344 14.2318 1.8535 14.3743 1.99602C14.5169 2.13854 14.5969 2.33183 14.5969 2.53338V10.8927C14.5969 11.0943 14.5169 11.2876 14.3743 11.4301C14.2318 11.5726 14.0385 11.6527 13.837 11.6527H9.57796C9.22707 11.6527 8.88728 11.7757 8.61771 12.0003L4.58089 15.3642C4.51283 15.4215 4.42665 15.4527 4.33771 15.4524C4.28205 15.4523 4.22709 15.4401 4.1766 15.4167C4.11116 15.386 4.05582 15.3374 4.01705 15.2764C3.97829 15.2154 3.95771 15.1447 3.95774 15.0724V11.6527H1.67791C1.47636 11.6527 1.28307 11.5726 1.14055 11.4301C0.998034 11.2876 0.917969 11.0943 0.917969 10.8927V2.53338C0.917969 2.33183 0.998034 2.13854 1.14055 1.99602C1.28307 1.8535 1.47636 1.77344 1.67791 1.77344ZM16.0437 5.30469H18.3236C18.5251 5.30469 18.7184 5.38475 18.8609 5.52727C19.0034 5.66979 19.0835 5.86308 19.0835 6.06463V14.424C19.0835 14.6255 19.0034 14.8188 18.8609 14.9613C18.7184 15.1039 18.5251 15.1839 18.3236 15.1839H16.0437V17.8437C16.0438 17.916 16.0232 17.9867 15.9844 18.0477C15.9457 18.1087 15.8903 18.1573 15.8249 18.188C15.7744 18.2114 15.7194 18.2236 15.6638 18.2237C15.5735 18.225 15.4858 18.1937 15.4168 18.1355L11.8747 15.1839H6.77246L9.36918 13.02C9.45904 12.9451 9.57231 12.9041 9.68927 12.9041H13.7639C14.3686 12.9041 14.9485 12.6639 15.376 12.2364C15.8036 11.8088 16.0437 11.2289 16.0437 10.6243V5.30469Z" fill="url(#paint0_linear_24490_56899)"/>
<defs>
<linearGradient id="paint0_linear_24490_56899" x1="10.8605" y1="2.04625" x2="10.8605" y2="18.7639" gradientUnits="userSpaceOnUse">
<stop stop-color="#F5F5F5"/>
<stop offset="1" stop-color="#F5F5F5" stop-opacity="0.4"/>
</linearGradient>
</defs>
</svg>
