<svg width="16" height="18" viewBox="0 0 16 18" fill="none" xmlns="http://www.w3.org/2000/svg">
<path fill-rule="evenodd" clip-rule="evenodd" d="M8.2728 8.14315L14.839 4.49527C14.9076 4.45717 14.9076 4.35854 14.839 4.32044L8.58993 0.848746C8.47808 0.786548 8.35222 0.753906 8.22424 0.753906C8.09626 0.753906 7.97039 0.786548 7.85854 0.848746L1.6095 4.32044C1.54092 4.35854 1.54092 4.45717 1.6095 4.49527L8.17567 8.14315C8.20587 8.15992 8.2426 8.15992 8.2728 8.14315ZM7.47228 9.53205C7.47228 9.49573 7.45259 9.46227 7.42085 9.44463L0.84876 5.79347C0.782106 5.75644 0.700195 5.80464 0.700195 5.88089V13.5455C0.70019 13.6796 0.736044 13.8113 0.804045 13.927C0.872047 14.0426 0.969722 14.1379 1.08696 14.2031L7.32372 17.6677C7.39038 17.7047 7.47228 17.6565 7.47228 17.5803V9.53205ZM8.97656 9.5313C8.97656 9.49498 8.99625 9.46152 9.02801 9.44388L15.6001 5.79345C15.6667 5.75643 15.7487 5.80463 15.7487 5.88087V13.5447C15.7487 13.6789 15.7128 13.8106 15.6448 13.9262C15.5768 14.0418 15.4791 14.1372 15.3619 14.2024L9.12512 17.6669C9.05847 17.704 8.97656 17.6558 8.97656 17.5795V9.5313Z" fill="url(#paint0_linear_24490_56792)"/>
<defs>
<linearGradient id="paint0_linear_24490_56792" x1="8.22442" y1="0.753906" x2="8.22442" y2="17.6804" gradientUnits="userSpaceOnUse">
<stop stop-color="#F5F5F5"/>
<stop offset="1" stop-color="#F5F5F5" stop-opacity="0.4"/>
</linearGradient>
</defs>
</svg>
