<svg width="20" height="20" viewBox="0 0 20 20" fill="none" xmlns="http://www.w3.org/2000/svg">
<path fill-rule="evenodd" clip-rule="evenodd" d="M16.71 13.1793V2.58152C16.71 2.39414 16.6356 2.21443 16.5031 2.08194C16.3706 1.94944 16.1909 1.875 16.0035 1.875H3.99265C3.80527 1.875 3.62557 1.94944 3.49307 2.08194C3.36057 2.21443 3.28613 2.39414 3.28613 2.58152V17.4185C3.28613 17.6059 3.36057 17.7856 3.49307 17.9181C3.62557 18.0506 3.80527 18.125 3.99265 18.125H11.7644V13.5326C11.7644 13.4389 11.8016 13.3491 11.8679 13.2828C11.9341 13.2166 12.024 13.1793 12.1177 13.1793H16.71ZM16.7097 14.4258H13.0127V18.1228L16.7097 14.4258ZM5 3.65625C4.72386 3.65625 4.5 3.88011 4.5 4.15625C4.5 4.43239 4.72386 4.65625 5 4.65625H11C11.2761 4.65625 11.5 4.43239 11.5 4.15625C11.5 3.88011 11.2761 3.65625 11 3.65625H5ZM5 6.65625C4.72386 6.65625 4.5 6.88011 4.5 7.15625C4.5 7.43239 4.72386 7.65625 5 7.65625H11C11.2761 7.65625 11.5 7.43239 11.5 7.15625C11.5 6.88011 11.2761 6.65625 11 6.65625H5ZM4.5 10.1562C4.5 9.88011 4.72386 9.65625 5 9.65625H7.5C7.77614 9.65625 8 9.88011 8 10.1562C8 10.4324 7.77614 10.6562 7.5 10.6562H5C4.72386 10.6562 4.5 10.4324 4.5 10.1562Z" fill="url(#paint0_linear_24490_56808)"/>
<defs>
<linearGradient id="paint0_linear_24490_56808" x1="9.99809" y1="1.875" x2="9.99809" y2="18.125" gradientUnits="userSpaceOnUse">
<stop stop-color="#F5F5F5"/>
<stop offset="1" stop-color="#F5F5F5" stop-opacity="0.4"/>
</linearGradient>
</defs>
</svg>
