<svg width="20" height="20" viewBox="0 0 20 20" fill="none" xmlns="http://www.w3.org/2000/svg">
<g clip-path="url(#clip0_24490_56928)">
<path d="M6.25031 16.2503C5.93031 16.2503 5.61031 16.1278 5.36656 15.8841L0.366562 10.8841C-0.122188 10.3953 -0.122188 9.60531 0.366562 9.11656L5.36656 4.11656C5.85531 3.62781 6.64531 3.62781 7.13406 4.11656C7.62281 4.60531 7.62281 5.39531 7.13406 5.88406L3.01781 10.0003L7.13406 14.1166C7.62281 14.6053 7.62281 15.3953 7.13406 15.8841C6.89031 16.1278 6.57031 16.2503 6.25031 16.2503Z" fill="url(#paint0_linear_24490_56928)"/>
<path d="M13.7503 16.2503C13.4303 16.2503 13.1103 16.1278 12.8666 15.8841C12.3778 15.3953 12.3778 14.6053 12.8666 14.1166L16.9828 10.0003L12.8666 5.88406C12.3778 5.39531 12.3778 4.60531 12.8666 4.11656C13.3553 3.62781 14.1453 3.62781 14.6341 4.11656L19.6341 9.11656C20.1228 9.60531 20.1228 10.3953 19.6341 10.8841L14.6341 15.8841C14.3903 16.1278 14.0703 16.2503 13.7503 16.2503Z" fill="url(#paint1_linear_24490_56928)"/>
</g>
<defs>
<linearGradient id="paint0_linear_24490_56928" x1="3.75031" y1="3.75" x2="3.75031" y2="16.2503" gradientUnits="userSpaceOnUse">
<stop stop-color="#F5F5F5"/>
<stop offset="1" stop-color="#F5F5F5" stop-opacity="0.4"/>
</linearGradient>
<linearGradient id="paint1_linear_24490_56928" x1="16.2503" y1="3.75" x2="16.2503" y2="16.2503" gradientUnits="userSpaceOnUse">
<stop stop-color="#F5F5F5"/>
<stop offset="1" stop-color="#F5F5F5" stop-opacity="0.4"/>
</linearGradient>
<clipPath id="clip0_24490_56928">
<rect width="20" height="20" fill="white"/>
</clipPath>
</defs>
</svg>
