<svg width="20" height="20" viewBox="0 0 20 20" fill="none" xmlns="http://www.w3.org/2000/svg">
<path d="M16.3214 4.08875C15.1506 3.58012 13.8987 3.21048 12.5899 3C12.4292 3.26983 12.2414 3.63275 12.1119 3.92145C10.7206 3.72718 9.34211 3.72718 7.97641 3.92145C7.84696 3.63275 7.65491 3.26983 7.49274 3C6.18252 3.21048 4.92921 3.58148 3.75841 4.09144C1.39689 7.40485 0.756722 10.636 1.07681 13.8212C2.64309 14.9072 4.161 15.567 5.6533 15.9987C6.02176 15.5278 6.35037 15.0273 6.63347 14.4998C6.09431 14.3096 5.57791 14.0748 5.08997 13.8023C5.21942 13.7133 5.34604 13.6202 5.46837 13.5244C8.44444 14.8168 11.678 14.8168 14.6185 13.5244C14.7423 13.6202 14.8689 13.7133 14.9969 13.8023C14.5076 14.0762 13.9897 14.3109 13.4506 14.5012C13.7337 15.0273 14.0609 15.5292 14.4307 16C15.9245 15.5683 17.4438 14.9086 19.0101 13.8212C19.3857 10.1287 18.3685 6.92726 16.3214 4.08875ZM7.03892 11.8623C6.14553 11.8623 5.41288 11.0879 5.41288 10.1449C5.41288 9.20186 6.12989 8.42612 7.03892 8.42612C7.94797 8.42612 8.6806 9.2005 8.66495 10.1449C8.66636 11.0879 7.94797 11.8623 7.03892 11.8623ZM13.048 11.8623C12.1546 11.8623 11.4219 11.0879 11.4219 10.1449C11.4219 9.20186 12.1389 8.42612 13.048 8.42612C13.957 8.42612 14.6897 9.2005 14.674 10.1449C14.674 11.0879 13.957 11.8623 13.048 11.8623Z" fill="url(#paint0_linear_24490_65977)"/>
<defs>
<linearGradient id="paint0_linear_24490_65977" x1="10.0435" y1="3" x2="10.0435" y2="16" gradientUnits="userSpaceOnUse">
<stop stop-color="#F5F5F5"/>
<stop offset="1" stop-color="#F5F5F5" stop-opacity="0.4"/>
</linearGradient>
</defs>
</svg>
