<svg width="20" height="20" viewBox="0 0 20 20" fill="none" xmlns="http://www.w3.org/2000/svg">
<path d="M17.5 6H9.768L7.916 3.223C7.87038 3.15445 7.80854 3.09823 7.73597 3.05932C7.6634 3.02042 7.58234 3.00004 7.5 3H2.5C2.36739 3 2.24021 3.05268 2.14645 3.14645C2.05268 3.24021 2 3.36739 2 3.5V15C2 15.5304 2.21071 16.0391 2.58579 16.4142C2.96086 16.7893 3.46957 17 4 17H16C16.5304 17 17.0391 16.7893 17.4142 16.4142C17.7893 16.0391 18 15.5304 18 15V6.5C18 6.36739 17.9473 6.24021 17.8536 6.14645C17.7598 6.05268 17.6326 6 17.5 6Z" fill="url(#paint0_linear_24490_61435)"/>
<defs>
<linearGradient id="paint0_linear_24490_61435" x1="10" y1="3" x2="10" y2="17" gradientUnits="userSpaceOnUse">
<stop stop-color="#F5F5F5"/>
<stop offset="1" stop-color="#F5F5F5" stop-opacity="0.4"/>
</linearGradient>
</defs>
</svg>
