<svg width="24" height="24" viewBox="0 0 24 24" fill="none" xmlns="http://www.w3.org/2000/svg">
<g clip-path="url(#clip0_19796_16215)">
<rect x="0.5" y="0.5" width="23" height="23" rx="2.16667" fill="#1A1A1A" stroke="#262626"/>
<mask id="mask0_19796_16215" style="mask-type:alpha" maskUnits="userSpaceOnUse" x="0" y="0" width="24" height="24">
<rect x="0.5" y="0.5" width="23" height="23" rx="2.16667" stroke="#262626"/>
</mask>
<g mask="url(#mask0_19796_16215)">
<g opacity="0.25" filter="url(#filter0_f_19796_16215)">
<circle cx="12" cy="12" r="10" fill="#3366FF"/>
</g>
</g>
<g opacity="0.1" filter="url(#filter1_f_19796_16215)">
<circle cx="12" cy="12" r="10" fill="#3366FF"/>
</g>
<g opacity="0.4" filter="url(#filter2_f_19796_16215)">
<circle cx="12" cy="12" r="4" fill="#3366FF"/>
</g>
<path d="M10.7464 8.2419C10.8572 8.24424 10.9661 8.27136 11.0652 8.32128C11.1643 8.37121 11.2512 8.4427 11.3196 8.53059L11.9695 9.4034C12.1015 9.5808 12.3097 9.68534 12.5309 9.68534H16.6576V6.38589C16.6605 6.33774 16.6532 6.28953 16.6362 6.24444C16.6192 6.19935 16.5929 6.1584 16.5591 6.12429C16.5252 6.09019 16.4846 6.06371 16.4398 6.0466C16.395 6.02949 16.3472 6.02213 16.2994 6.02503H7.70115C7.65336 6.02213 7.60549 6.02949 7.56073 6.0466C7.51596 6.06371 7.4753 6.09019 7.44145 6.12429C7.40759 6.1584 7.3813 6.19935 7.36431 6.24444C7.34732 6.28953 7.34002 6.33774 7.3429 6.38589V8.2419H10.7464Z" fill="#3366FF"/>
<path d="M18.1417 10.5825H12.4737C12.0629 10.5825 11.6763 10.3884 11.431 10.0589L10.8536 9.28344C10.8222 9.23653 10.7793 9.19859 10.7291 9.1733C10.6789 9.14801 10.623 9.13623 10.567 9.13909H5.85826C5.76324 9.13909 5.67212 9.17711 5.60493 9.24479C5.53775 9.31246 5.5 9.40425 5.5 9.49995V16.3563C5.5 16.7391 5.65098 17.1063 5.91973 17.377C6.18847 17.6476 6.55297 17.7997 6.93303 17.7997H17.067C17.447 17.7997 17.8115 17.6476 18.0803 17.377C18.349 17.1063 18.5 16.7391 18.5 16.3563V10.9434C18.5 10.8477 18.4623 10.7559 18.3951 10.6882C18.3279 10.6206 18.2368 10.5825 18.1417 10.5825Z" fill="#3366FF"/>
</g>
<defs>
<filter id="filter0_f_19796_16215" x="-8.66667" y="-8.66667" width="41.3333" height="41.3333" filterUnits="userSpaceOnUse" color-interpolation-filters="sRGB">
<feFlood flood-opacity="0" result="BackgroundImageFix"/>
<feBlend mode="normal" in="SourceGraphic" in2="BackgroundImageFix" result="shape"/>
<feGaussianBlur stdDeviation="5.33333" result="effect1_foregroundBlur_19796_16215"/>
</filter>
<filter id="filter1_f_19796_16215" x="-18" y="-18" width="60" height="60" filterUnits="userSpaceOnUse" color-interpolation-filters="sRGB">
<feFlood flood-opacity="0" result="BackgroundImageFix"/>
<feBlend mode="normal" in="SourceGraphic" in2="BackgroundImageFix" result="shape"/>
<feGaussianBlur stdDeviation="10" result="effect1_foregroundBlur_19796_16215"/>
</filter>
<filter id="filter2_f_19796_16215" x="-2.66667" y="-2.66667" width="29.3333" height="29.3333" filterUnits="userSpaceOnUse" color-interpolation-filters="sRGB">
<feFlood flood-opacity="0" result="BackgroundImageFix"/>
<feBlend mode="normal" in="SourceGraphic" in2="BackgroundImageFix" result="shape"/>
<feGaussianBlur stdDeviation="5.33333" result="effect1_foregroundBlur_19796_16215"/>
</filter>
<clipPath id="clip0_19796_16215">
<rect width="24" height="24" fill="white"/>
</clipPath>
</defs>
</svg>
