<svg width="20" height="20" viewBox="0 0 20 20" fill="none" xmlns="http://www.w3.org/2000/svg">
<path fill-rule="evenodd" clip-rule="evenodd" d="M3.90625 3.33594H16.0938C16.6325 3.33594 17.1491 3.54994 17.5301 3.93088C17.911 4.31181 18.125 4.82847 18.125 5.36719V5.875L10 10.3438L1.875 5.77344V5.36719C1.875 4.82847 2.08901 4.31181 2.46994 3.93088C2.85087 3.54994 3.36753 3.33594 3.90625 3.33594ZM1.875 7.21875L9.49219 11.4844C9.65225 11.5547 9.82517 11.591 10 11.591C10.1748 11.591 10.3478 11.5547 10.5078 11.4844L18.125 7.21875V14.6328C18.125 15.1715 17.911 15.6882 17.5301 16.0691C17.1491 16.4501 16.6325 16.6641 16.0938 16.6641H3.90625C3.36753 16.6641 2.85087 16.4501 2.46994 16.0691C2.08901 15.6882 1.875 15.1715 1.875 14.6328V7.21875Z" fill="url(#paint0_linear_24490_56884)"/>
<defs>
<linearGradient id="paint0_linear_24490_56884" x1="10" y1="3.23462" x2="10" y2="17.4531" gradientUnits="userSpaceOnUse">
<stop stop-color="#F5F5F5"/>
<stop offset="1" stop-color="#F5F5F5" stop-opacity="0.4"/>
</linearGradient>
</defs>
</svg>
