<svg width="20" height="20" viewBox="0 0 20 20" fill="none" xmlns="http://www.w3.org/2000/svg">
<path d="M6.92401 2.67969H3.64134C2.73485 2.67969 2 3.41454 2 4.32104V7.60373C2 8.51022 2.73485 9.24508 3.64134 9.24508H6.92401C7.83049 9.24508 8.56534 8.51022 8.56534 7.60373V4.32104C8.56534 3.41454 7.83049 2.67969 6.92401 2.67969Z" fill="url(#paint0_linear_24490_56839)"/>
<path d="M15.1982 2.48111C15.0458 2.32859 14.8648 2.20759 14.6656 2.12504C14.4664 2.04249 14.2529 2 14.0373 2C13.8216 2 13.6081 2.04249 13.4089 2.12504C13.2097 2.20759 13.0287 2.32859 12.8763 2.48111L10.5544 4.80198C10.4018 4.9544 10.2808 5.13539 10.1983 5.3346C10.1157 5.5338 10.0732 5.74732 10.0732 5.96296C10.0732 6.17859 10.1157 6.39211 10.1983 6.59132C10.2808 6.79052 10.4018 6.97151 10.5544 7.12394L12.8752 9.4448C13.0276 9.59733 13.2086 9.71832 13.4078 9.80088C13.607 9.88343 13.8205 9.92592 14.0362 9.92592C14.2518 9.92592 14.4653 9.88343 14.6645 9.80088C14.8637 9.71832 15.0447 9.59733 15.1971 9.4448L17.5191 7.12394C17.6716 6.97151 17.7926 6.79052 17.8752 6.59132C17.9577 6.39211 18.0002 6.17859 18.0002 5.96296C18.0002 5.74732 17.9577 5.5338 17.8752 5.3346C17.7926 5.13539 17.6716 4.9544 17.5191 4.80198L15.1982 2.48111Z" fill="url(#paint1_linear_24490_56839)"/>
<path d="M6.92401 11.4336H3.64134C2.73485 11.4336 2 12.1685 2 13.0749V16.3576C2 17.2641 2.73485 17.999 3.64134 17.999H6.92401C7.83049 17.999 8.56534 17.2641 8.56534 16.3576V13.0749C8.56534 12.1685 7.83049 11.4336 6.92401 11.4336Z" fill="url(#paint2_linear_24490_56839)"/>
<path d="M15.6779 11.4336H12.3952C11.4888 11.4336 10.7539 12.1685 10.7539 13.0749V16.3576C10.7539 17.2641 11.4888 17.999 12.3952 17.999H15.6779C16.5844 17.999 17.3192 17.2641 17.3192 16.3576V13.0749C17.3192 12.1685 16.5844 11.4336 15.6779 11.4336Z" fill="url(#paint3_linear_24490_56839)"/>
<defs>
<linearGradient id="paint0_linear_24490_56839" x1="5.28267" y1="2.67969" x2="5.1431" y2="12.0291" gradientUnits="userSpaceOnUse">
<stop stop-color="#F5F5F5"/>
<stop offset="1" stop-color="#F5F5F5" stop-opacity="0.4"/>
</linearGradient>
<linearGradient id="paint1_linear_24490_56839" x1="14.0367" y1="2" x2="13.8682" y2="13.2868" gradientUnits="userSpaceOnUse">
<stop stop-color="#F5F5F5"/>
<stop offset="1" stop-color="#F5F5F5" stop-opacity="0.4"/>
</linearGradient>
<linearGradient id="paint2_linear_24490_56839" x1="5.28267" y1="11.4336" x2="5.1431" y2="20.783" gradientUnits="userSpaceOnUse">
<stop stop-color="#F5F5F5"/>
<stop offset="1" stop-color="#F5F5F5" stop-opacity="0.4"/>
</linearGradient>
<linearGradient id="paint3_linear_24490_56839" x1="14.0366" y1="11.4336" x2="13.897" y2="20.783" gradientUnits="userSpaceOnUse">
<stop stop-color="#F5F5F5"/>
<stop offset="1" stop-color="#F5F5F5" stop-opacity="0.4"/>
</linearGradient>
</defs>
</svg>
