<svg width="36" height="36" viewBox="0 0 36 36" fill="none" xmlns="http://www.w3.org/2000/svg">
<g clip-path="url(#clip0_19547_30270)">
<rect x="0.5" y="0.5" width="35" height="35" rx="3.5" fill="#1A1A1A" stroke="#262626"/>
<mask id="mask0_19547_30270" style="mask-type:alpha" maskUnits="userSpaceOnUse" x="0" y="0" width="36" height="36">
<rect x="0.5" y="0.5" width="35" height="35" rx="3.5" stroke="#262626"/>
</mask>
<g mask="url(#mask0_19547_30270)">
<g opacity="0.25" filter="url(#filter0_f_19547_30270)">
<circle cx="18" cy="18" r="15" fill="#3366FF"/>
</g>
</g>
<g opacity="0.1" filter="url(#filter1_f_19547_30270)">
<circle cx="18" cy="18" r="15" fill="#3366FF"/>
</g>
<g opacity="0.4" filter="url(#filter2_f_19547_30270)">
<circle cx="18" cy="18" r="6" fill="#3366FF"/>
</g>
<path d="M26.9014 20.894L24.8145 19.2983C24.8944 18.8702 24.9349 18.4356 24.9354 18C24.9341 17.5643 24.8928 17.1297 24.812 16.7017L26.9002 15.1066C26.9614 15.06 27.0035 14.9924 27.0187 14.9165C27.0338 14.8407 27.0209 14.7619 26.9824 14.6949L25.3275 11.8041C25.2892 11.7373 25.228 11.6868 25.1555 11.6623C25.0829 11.6377 25.004 11.6407 24.9335 11.6708L22.5163 12.7012C21.8613 12.1318 21.1072 11.69 20.2922 11.3984L19.9673 8.7774C19.9578 8.70083 19.9209 8.63038 19.8636 8.5793C19.8063 8.52822 19.7324 8.50002 19.6559 8.5H16.3453C16.2688 8.50002 16.195 8.52822 16.1376 8.5793C16.0803 8.63038 16.0434 8.70083 16.0339 8.7774L15.709 11.3984C14.894 11.6897 14.1397 12.1312 13.4846 12.7006L11.0674 11.6701C10.9969 11.6401 10.918 11.6371 10.8454 11.6616C10.7729 11.6862 10.7117 11.7366 10.6735 11.8035L9.01754 14.6959C8.97903 14.7628 8.96613 14.8416 8.98129 14.9175C8.99644 14.9933 9.03859 15.0609 9.09979 15.1076L11.1886 16.7017C11.0273 17.5596 11.0273 18.4404 11.1886 19.2983L9.09979 20.8934C9.03859 20.94 8.99644 21.0076 8.98129 21.0835C8.96613 21.1593 8.97903 21.2381 9.01754 21.305L10.6725 24.1968C10.7108 24.2637 10.772 24.3141 10.8445 24.3387C10.917 24.3632 10.996 24.3602 11.0665 24.3302L13.4836 23.2997C14.139 23.8691 14.8936 24.3106 15.709 24.6015L16.0336 27.2226C16.0431 27.2992 16.08 27.3696 16.1373 27.4207C16.1947 27.4718 16.2685 27.5 16.345 27.5H19.6559C19.7324 27.5 19.8063 27.4718 19.8636 27.4207C19.9209 27.3696 19.9578 27.2992 19.9673 27.2226L20.2922 24.6015C21.1073 24.3103 21.8616 23.8688 22.5166 23.2994L24.9338 24.3298C25.0043 24.3599 25.0832 24.3629 25.1558 24.3384C25.2283 24.3138 25.2895 24.2634 25.3278 24.1965L26.9827 21.3047C27.0211 21.238 27.034 21.1595 27.019 21.0839C27.004 21.0083 26.9622 20.9408 26.9014 20.894ZM18.0006 21.4833C17.3177 21.4833 16.65 21.279 16.0822 20.8963C15.5143 20.5135 15.0717 19.9695 14.8104 19.333C14.549 18.6965 14.4806 17.9961 14.6139 17.3204C14.7471 16.6447 15.076 16.0241 15.5589 15.5369C16.0418 15.0498 16.6571 14.718 17.3269 14.5836C17.9968 14.4492 18.6911 14.5182 19.3221 14.7818C19.953 15.0455 20.4923 15.4919 20.8718 16.0648C21.2512 16.6376 21.4537 17.3111 21.4537 18C21.4537 18.9238 21.0899 19.8098 20.4423 20.4631C19.7947 21.1163 18.9164 21.4833 18.0006 21.4833Z" fill="#3366FF"/>
<path d="M26.9014 20.894L24.8145 19.2983C24.8944 18.8702 24.9349 18.4356 24.9354 18C24.9341 17.5643 24.8928 17.1297 24.812 16.7017L26.9002 15.1066C26.9614 15.06 27.0035 14.9924 27.0187 14.9165C27.0338 14.8407 27.0209 14.7619 26.9824 14.6949L25.3275 11.8041C25.2892 11.7373 25.228 11.6868 25.1555 11.6623C25.0829 11.6377 25.004 11.6407 24.9335 11.6708L22.5163 12.7012C21.8613 12.1318 21.1072 11.69 20.2922 11.3984L19.9673 8.7774C19.9578 8.70083 19.9209 8.63038 19.8636 8.5793C19.8063 8.52822 19.7324 8.50002 19.6559 8.5H16.3453C16.2688 8.50002 16.195 8.52822 16.1376 8.5793C16.0803 8.63038 16.0434 8.70083 16.0339 8.7774L15.709 11.3984C14.894 11.6897 14.1397 12.1312 13.4846 12.7006L11.0674 11.6701C10.9969 11.6401 10.918 11.6371 10.8454 11.6616C10.7729 11.6862 10.7117 11.7366 10.6735 11.8035L9.01754 14.6959C8.97903 14.7628 8.96613 14.8416 8.98129 14.9175C8.99644 14.9933 9.03859 15.0609 9.09979 15.1076L11.1886 16.7017C11.0273 17.5596 11.0273 18.4404 11.1886 19.2983L9.09979 20.8934C9.03859 20.94 8.99644 21.0076 8.98129 21.0835C8.96613 21.1593 8.97903 21.2381 9.01754 21.305L10.6725 24.1968C10.7108 24.2637 10.772 24.3141 10.8445 24.3387C10.917 24.3632 10.996 24.3602 11.0665 24.3302L13.4836 23.2997C14.139 23.8691 14.8936 24.3106 15.709 24.6015L16.0336 27.2226C16.0431 27.2992 16.08 27.3696 16.1373 27.4207C16.1947 27.4718 16.2685 27.5 16.345 27.5H19.6559C19.7324 27.5 19.8063 27.4718 19.8636 27.4207C19.9209 27.3696 19.9578 27.2992 19.9673 27.2226L20.2922 24.6015C21.1073 24.3103 21.8616 23.8688 22.5166 23.2994L24.9338 24.3298C25.0043 24.3599 25.0832 24.3629 25.1558 24.3384C25.2283 24.3138 25.2895 24.2634 25.3278 24.1965L26.9827 21.3047C27.0211 21.238 27.034 21.1595 27.019 21.0839C27.004 21.0083 26.9622 20.9408 26.9014 20.894ZM18.0006 21.4833C17.3177 21.4833 16.65 21.279 16.0822 20.8963C15.5143 20.5135 15.0717 19.9695 14.8104 19.333C14.549 18.6965 14.4806 17.9961 14.6139 17.3204C14.7471 16.6447 15.076 16.0241 15.5589 15.5369C16.0418 15.0498 16.6571 14.718 17.3269 14.5836C17.9968 14.4492 18.6911 14.5182 19.3221 14.7818C19.953 15.0455 20.4923 15.4919 20.8718 16.0648C21.2512 16.6376 21.4537 17.3111 21.4537 18C21.4537 18.9238 21.0899 19.8098 20.4423 20.4631C19.7947 21.1163 18.9164 21.4833 18.0006 21.4833Z" fill="url(#paint0_linear_19547_30270)" fill-opacity="0.1" style="mix-blend-mode:plus-lighter"/>
</g>
<defs>
<filter id="filter0_f_19547_30270" x="-13" y="-13" width="62" height="62" filterUnits="userSpaceOnUse" color-interpolation-filters="sRGB">
<feFlood flood-opacity="0" result="BackgroundImageFix"/>
<feBlend mode="normal" in="SourceGraphic" in2="BackgroundImageFix" result="shape"/>
<feGaussianBlur stdDeviation="8" result="effect1_foregroundBlur_19547_30270"/>
</filter>
<filter id="filter1_f_19547_30270" x="-27" y="-27" width="90" height="90" filterUnits="userSpaceOnUse" color-interpolation-filters="sRGB">
<feFlood flood-opacity="0" result="BackgroundImageFix"/>
<feBlend mode="normal" in="SourceGraphic" in2="BackgroundImageFix" result="shape"/>
<feGaussianBlur stdDeviation="15" result="effect1_foregroundBlur_19547_30270"/>
</filter>
<filter id="filter2_f_19547_30270" x="-4" y="-4" width="44" height="44" filterUnits="userSpaceOnUse" color-interpolation-filters="sRGB">
<feFlood flood-opacity="0" result="BackgroundImageFix"/>
<feBlend mode="normal" in="SourceGraphic" in2="BackgroundImageFix" result="shape"/>
<feGaussianBlur stdDeviation="8" result="effect1_foregroundBlur_19547_30270"/>
</filter>
<linearGradient id="paint0_linear_19547_30270" x1="22.5126" y1="28.0278" x2="11.6776" y2="9.49986" gradientUnits="userSpaceOnUse">
<stop stop-color="white" stop-opacity="0"/>
<stop offset="1" stop-color="white"/>
</linearGradient>
<clipPath id="clip0_19547_30270">
<rect width="36" height="36" fill="white"/>
</clipPath>
</defs>
</svg>
