<svg width="28" height="28" viewBox="0 0 28 28" fill="none" xmlns="http://www.w3.org/2000/svg">
<g clip-path="url(#clip0_19630_40540)">
<rect x="0.388889" y="0.388889" width="27.2222" height="27.2222" rx="2.72222" fill="#1A1A1A" stroke="#262626" stroke-width="0.777778"/>
<mask id="mask0_19630_40540" style="mask-type:alpha" maskUnits="userSpaceOnUse" x="0" y="0" width="28" height="28">
<rect x="0.388889" y="0.388889" width="27.2222" height="27.2222" rx="2.72222" stroke="#262626" stroke-width="0.777778"/>
</mask>
<g mask="url(#mask0_19630_40540)">
<g opacity="0.25" filter="url(#filter0_f_19630_40540)">
<circle cx="14.0002" cy="13.9997" r="11.6667" fill="#F0B84C"/>
</g>
</g>
<g opacity="0.1" filter="url(#filter1_f_19630_40540)">
<circle cx="14.0002" cy="13.9997" r="11.6667" fill="#F0B84C"/>
</g>
<g opacity="0.4" filter="url(#filter2_f_19630_40540)">
<circle cx="14.0002" cy="13.9997" r="4.66667" fill="#F0B84C"/>
</g>
<path d="M14 6C12.4178 6 10.871 6.46919 9.55544 7.34824C8.23985 8.22729 7.21447 9.47672 6.60897 10.9385C6.00347 12.4003 5.84504 14.0089 6.15372 15.5607C6.4624 17.1126 7.22433 18.538 8.34315 19.6569C9.46197 20.7757 10.8874 21.5376 12.4393 21.8463C13.9911 22.155 15.5997 21.9965 17.0615 21.391C18.5233 20.7855 19.7727 19.7602 20.6518 18.4446C21.5308 17.129 22 15.5822 22 14C21.9976 11.879 21.154 9.84555 19.6542 8.34578C18.1544 6.846 16.121 6.00238 14 6ZM13.5 8.5C13.5 8.22386 13.7239 8 14 8C14.2761 8 14.5 8.22386 14.5 8.5V12.5C14.5 12.7761 14.2761 13 14 13C13.7239 13 13.5 12.7761 13.5 12.5V8.5ZM14 19C12.9661 19 11.9576 18.6794 11.1134 18.0825C10.2693 17.4856 9.63089 16.6416 9.28621 15.6669C8.94153 14.6921 8.9075 13.6345 9.18881 12.6396C9.47012 11.6447 10.0529 10.7614 10.857 10.1115C11.0716 9.93796 11.3868 9.9709 11.5605 10.1854C11.7341 10.4 11.7011 10.7148 11.4865 10.8885C10.8428 11.4082 10.3761 12.1148 10.1506 12.9108C9.92518 13.7068 9.95211 14.5531 10.2277 15.3332C10.5033 16.1133 11.014 16.7887 11.6895 17.2665C12.3649 17.7442 13.1719 18.0007 13.9993 18.0007C14.8266 18.0007 15.6336 17.7442 16.309 17.2665C16.9845 16.7887 17.4952 16.1133 17.7708 15.3332C18.0464 14.5531 18.0733 13.7068 17.8479 12.9108C17.6224 12.1148 17.1557 11.4082 16.512 10.8885C16.2974 10.7152 16.2633 10.3999 16.4362 10.1849C16.6091 9.96976 16.9243 9.93545 17.139 10.109C17.9438 10.7585 18.5274 11.6415 18.8094 12.6365C19.0914 13.6315 19.058 14.6894 18.7137 15.6646C18.3694 16.6397 17.7312 17.4842 16.887 18.0815C16.0428 18.6789 15.0342 18.9998 14 19Z" fill="#F0B84C"/>
<path d="M14 6C12.4178 6 10.871 6.46919 9.55544 7.34824C8.23985 8.22729 7.21447 9.47672 6.60897 10.9385C6.00347 12.4003 5.84504 14.0089 6.15372 15.5607C6.4624 17.1126 7.22433 18.538 8.34315 19.6569C9.46197 20.7757 10.8874 21.5376 12.4393 21.8463C13.9911 22.155 15.5997 21.9965 17.0615 21.391C18.5233 20.7855 19.7727 19.7602 20.6518 18.4446C21.5308 17.129 22 15.5822 22 14C21.9976 11.879 21.154 9.84555 19.6542 8.34578C18.1544 6.846 16.121 6.00238 14 6ZM13.5 8.5C13.5 8.22386 13.7239 8 14 8C14.2761 8 14.5 8.22386 14.5 8.5V12.5C14.5 12.7761 14.2761 13 14 13C13.7239 13 13.5 12.7761 13.5 12.5V8.5ZM14 19C12.9661 19 11.9576 18.6794 11.1134 18.0825C10.2693 17.4856 9.63089 16.6416 9.28621 15.6669C8.94153 14.6921 8.9075 13.6345 9.18881 12.6396C9.47012 11.6447 10.0529 10.7614 10.857 10.1115C11.0716 9.93796 11.3868 9.9709 11.5605 10.1854C11.7341 10.4 11.7011 10.7148 11.4865 10.8885C10.8428 11.4082 10.3761 12.1148 10.1506 12.9108C9.92518 13.7068 9.95211 14.5531 10.2277 15.3332C10.5033 16.1133 11.014 16.7887 11.6895 17.2665C12.3649 17.7442 13.1719 18.0007 13.9993 18.0007C14.8266 18.0007 15.6336 17.7442 16.309 17.2665C16.9845 16.7887 17.4952 16.1133 17.7708 15.3332C18.0464 14.5531 18.0733 13.7068 17.8479 12.9108C17.6224 12.1148 17.1557 11.4082 16.512 10.8885C16.2974 10.7152 16.2633 10.3999 16.4362 10.1849C16.6091 9.96976 16.9243 9.93545 17.139 10.109C17.9438 10.7585 18.5274 11.6415 18.8094 12.6365C19.0914 13.6315 19.058 14.6894 18.7137 15.6646C18.3694 16.6397 17.7312 17.4842 16.887 18.0815C16.0428 18.6789 15.0342 18.9998 14 19Z" fill="url(#paint0_linear_19630_40540)" fill-opacity="0.1" style="mix-blend-mode:plus-lighter"/>
</g>
<defs>
<filter id="filter0_f_19630_40540" x="-10.1109" y="-10.1114" width="48.2224" height="48.2219" filterUnits="userSpaceOnUse" color-interpolation-filters="sRGB">
<feFlood flood-opacity="0" result="BackgroundImageFix"/>
<feBlend mode="normal" in="SourceGraphic" in2="BackgroundImageFix" result="shape"/>
<feGaussianBlur stdDeviation="6.22222" result="effect1_foregroundBlur_19630_40540"/>
</filter>
<filter id="filter1_f_19630_40540" x="-20.9998" y="-21.0003" width="70.0002" height="69.9997" filterUnits="userSpaceOnUse" color-interpolation-filters="sRGB">
<feFlood flood-opacity="0" result="BackgroundImageFix"/>
<feBlend mode="normal" in="SourceGraphic" in2="BackgroundImageFix" result="shape"/>
<feGaussianBlur stdDeviation="11.6667" result="effect1_foregroundBlur_19630_40540"/>
</filter>
<filter id="filter2_f_19630_40540" x="-3.11095" y="-3.11144" width="34.2224" height="34.2219" filterUnits="userSpaceOnUse" color-interpolation-filters="sRGB">
<feFlood flood-opacity="0" result="BackgroundImageFix"/>
<feBlend mode="normal" in="SourceGraphic" in2="BackgroundImageFix" result="shape"/>
<feGaussianBlur stdDeviation="6.22222" result="effect1_foregroundBlur_19630_40540"/>
</filter>
<linearGradient id="paint0_linear_19630_40540" x1="18" y1="22.4444" x2="9.11111" y2="6.44444" gradientUnits="userSpaceOnUse">
<stop stop-color="white" stop-opacity="0"/>
<stop offset="1" stop-color="white"/>
</linearGradient>
<clipPath id="clip0_19630_40540">
<rect width="28" height="28" fill="white"/>
</clipPath>
</defs>
</svg>
