<svg xmlns="http://www.w3.org/2000/svg" width="44" height="44" viewBox="0 0 44 44" fill="none">
  <g clip-path="url(#clip0_24490_61421)">
    <rect width="44" height="44" rx="3.11111" fill="#0B0B0F"/>
    <rect x="0.5" y="0.5" width="43" height="43" rx="2.61111" stroke="#333347" stroke-opacity="0.3"/>
    <mask id="mask0_24490_61421" style="mask-type:alpha" maskUnits="userSpaceOnUse" x="0" y="0" width="44" height="44">
      <rect x="0.388889" y="0.388889" width="43.2222" height="43.2222" rx="2.72222" stroke="#262626" stroke-width="0.777778"/>
    </mask>
    <g mask="url(#mask0_24490_61421)">
      <g opacity="0.25" filter="url(#filter0_f_24490_61421)">
        <circle cx="21.9987" cy="21.9987" r="11.6667" fill="#F0B84C"/>
      </g>
    </g>
    <g opacity="0.1" filter="url(#filter1_f_24490_61421)">
      <circle cx="22" cy="22" r="19" fill="#0055FF"/>
    </g>
    <g opacity="0.4" filter="url(#filter2_f_24490_61421)">
      <circle cx="22.0004" cy="21.9984" r="7.6" fill="#0055FF"/>
    </g>
    <path d="M22.5 9C20.0277 9 17.611 9.73311 15.5554 11.1066C13.4998 12.4801 11.8976 14.4324 10.9515 16.7165C10.0054 19.0005 9.75787 21.5139 10.2402 23.9386C10.7225 26.3634 11.913 28.5907 13.6612 30.3388C15.4093 32.087 17.6366 33.2775 20.0614 33.7598C22.4861 34.2421 24.9995 33.9946 27.2835 33.0485C29.5676 32.1024 31.5199 30.5002 32.8934 28.4446C34.2669 26.389 35 23.9723 35 21.5C34.9963 18.1859 33.6781 15.0087 31.3347 12.6653C28.9913 10.3219 25.8141 9.00372 22.5 9ZM21.7188 12.9062C21.7188 12.4748 22.0685 12.125 22.5 12.125C22.9315 12.125 23.2813 12.4748 23.2813 12.9062V19.1562C23.2813 19.5877 22.9315 19.9375 22.5 19.9375C22.0685 19.9375 21.7188 19.5877 21.7188 19.1562V12.9062ZM22.5 29.3125C20.8845 29.3124 19.3088 28.8116 17.9898 27.8789C16.6707 26.9462 15.6733 25.6276 15.1347 24.1045C14.5961 22.5814 14.543 20.9289 14.9825 19.3743C15.4221 17.8198 16.3327 16.4398 17.5891 15.4242C17.9244 15.1531 18.4168 15.2045 18.6882 15.5397C18.9596 15.875 18.9079 16.3669 18.5727 16.6383C17.5669 17.4503 16.8376 18.5543 16.4853 19.7981C16.1331 21.0419 16.1752 22.3643 16.6058 23.5832C17.0364 24.802 17.8344 25.8574 18.8898 26.6039C19.9452 27.3503 21.2061 27.7512 22.4988 27.7512C23.7915 27.7512 25.0524 27.3503 26.1078 26.6039C27.1633 25.8574 27.9612 24.802 28.3919 23.5832C28.8225 22.3643 28.8646 21.0419 28.5123 19.7981C28.1601 18.5543 27.4308 17.4503 26.425 16.6383C26.0896 16.3676 26.0365 15.8749 26.3065 15.5389C26.5767 15.2028 27.0693 15.1491 27.4047 15.4203C28.6622 16.4351 29.574 17.8149 30.0147 19.3695C30.4554 20.9241 30.4031 22.5772 29.8652 24.1009C29.3272 25.6246 28.33 26.944 27.011 27.8774C25.6919 28.8108 24.1159 29.3121 22.5 29.3125Z" fill="#4B73EC"/>
    <path d="M22.5 9C20.0277 9 17.611 9.73311 15.5554 11.1066C13.4998 12.4801 11.8976 14.4324 10.9515 16.7165C10.0054 19.0005 9.75787 21.5139 10.2402 23.9386C10.7225 26.3634 11.913 28.5907 13.6612 30.3388C15.4093 32.087 17.6366 33.2775 20.0614 33.7598C22.4861 34.2421 24.9995 33.9946 27.2835 33.0485C29.5676 32.1024 31.5199 30.5002 32.8934 28.4446C34.2669 26.389 35 23.9723 35 21.5C34.9963 18.1859 33.6781 15.0087 31.3347 12.6653C28.9913 10.3219 25.8141 9.00372 22.5 9ZM21.7188 12.9062C21.7188 12.4748 22.0685 12.125 22.5 12.125C22.9315 12.125 23.2813 12.4748 23.2813 12.9062V19.1562C23.2813 19.5877 22.9315 19.9375 22.5 19.9375C22.0685 19.9375 21.7188 19.5877 21.7188 19.1562V12.9062ZM22.5 29.3125C20.8845 29.3124 19.3088 28.8116 17.9898 27.8789C16.6707 26.9462 15.6733 25.6276 15.1347 24.1045C14.5961 22.5814 14.543 20.9289 14.9825 19.3743C15.4221 17.8198 16.3327 16.4398 17.5891 15.4242C17.9244 15.1531 18.4168 15.2045 18.6882 15.5397C18.9596 15.875 18.9079 16.3669 18.5727 16.6383C17.5669 17.4503 16.8376 18.5543 16.4853 19.7981C16.1331 21.0419 16.1752 22.3643 16.6058 23.5832C17.0364 24.802 17.8344 25.8574 18.8898 26.6039C19.9452 27.3503 21.2061 27.7512 22.4988 27.7512C23.7915 27.7512 25.0524 27.3503 26.1078 26.6039C27.1633 25.8574 27.9612 24.802 28.3919 23.5832C28.8225 22.3643 28.8646 21.0419 28.5123 19.7981C28.1601 18.5543 27.4308 17.4503 26.425 16.6383C26.0896 16.3676 26.0365 15.8749 26.3065 15.5389C26.5767 15.2028 27.0693 15.1491 27.4047 15.4203C28.6622 16.4351 29.574 17.8149 30.0147 19.3695C30.4554 20.9241 30.4031 22.5772 29.8652 24.1009C29.3272 25.6246 28.33 26.944 27.011 27.8774C25.6919 28.8108 24.1159 29.3121 22.5 29.3125Z" fill="url(#paint0_linear_24490_61421)" fill-opacity="0.1"/>
  </g>
  <defs>
    <filter id="filter0_f_24490_61421" x="-2.11241" y="-2.11241" width="48.2219" height="48.2209" filterUnits="userSpaceOnUse" color-interpolation-filters="sRGB">
      <feFlood flood-opacity="0" result="BackgroundImageFix"/>
      <feBlend mode="normal" in="SourceGraphic" in2="BackgroundImageFix" result="shape"/>
      <feGaussianBlur stdDeviation="6.22222" result="effect1_foregroundBlur_24490_61421"/>
    </filter>
    <filter id="filter1_f_24490_61421" x="-20.3333" y="-20.3333" width="84.6667" height="84.6667" filterUnits="userSpaceOnUse" color-interpolation-filters="sRGB">
      <feFlood flood-opacity="0" result="BackgroundImageFix"/>
      <feBlend mode="normal" in="SourceGraphic" in2="BackgroundImageFix" result="shape"/>
      <feGaussianBlur stdDeviation="11.6667" result="effect1_foregroundBlur_24490_61421"/>
    </filter>
    <filter id="filter2_f_24490_61421" x="1.95595" y="1.95399" width="40.0891" height="40.0881" filterUnits="userSpaceOnUse" color-interpolation-filters="sRGB">
      <feFlood flood-opacity="0" result="BackgroundImageFix"/>
      <feBlend mode="normal" in="SourceGraphic" in2="BackgroundImageFix" result="shape"/>
      <feGaussianBlur stdDeviation="6.22222" result="effect1_foregroundBlur_24490_61421"/>
    </filter>
    <linearGradient id="paint0_linear_24490_61421" x1="26.5875" y1="34" x2="19.0875" y2="9" gradientUnits="userSpaceOnUse">
      <stop stop-color="white" stop-opacity="0"/>
      <stop offset="1" stop-color="white"/>
    </linearGradient>
    <clipPath id="clip0_24490_61421">
      <rect width="44" height="44" fill="white"/>
    </clipPath>
  </defs>
</svg>
