<svg width="28" height="28" viewBox="0 0 28 28" fill="none" xmlns="http://www.w3.org/2000/svg">
<g clip-path="url(#clip0_19630_40557)">
<rect x="0.388889" y="0.388889" width="27.2222" height="27.2222" rx="2.72222" fill="#1A1A1A" stroke="#262626" stroke-width="0.777778"/>
<mask id="mask0_19630_40557" style="mask-type:alpha" maskUnits="userSpaceOnUse" x="0" y="0" width="28" height="28">
<rect x="0.388889" y="0.388889" width="27.2222" height="27.2222" rx="2.72222" stroke="#262626" stroke-width="0.777778"/>
</mask>
<g mask="url(#mask0_19630_40557)">
<g opacity="0.25" filter="url(#filter0_f_19630_40557)">
<circle cx="14.0002" cy="13.9997" r="11.6667" fill="#FF70A9"/>
</g>
</g>
<g opacity="0.1" filter="url(#filter1_f_19630_40557)">
<circle cx="14.0002" cy="13.9997" r="11.6667" fill="#FF70A9"/>
</g>
<g opacity="0.4" filter="url(#filter2_f_19630_40557)">
<circle cx="14.0002" cy="13.9997" r="4.66667" fill="#FF70A9"/>
</g>
<path fill-rule="evenodd" clip-rule="evenodd" d="M20.3896 8.06003V18.5315H8.90486C8.40561 18.5316 7.92416 18.7169 7.55371 19.0516V8.06003C7.55425 7.61226 7.73236 7.18299 8.04898 6.86636C8.3656 6.54974 8.79488 6.37163 9.24265 6.37109H10.5938V11.4379L12.6205 10.0868L14.6473 11.4379V6.37109H18.7007C19.1485 6.37163 19.5778 6.54974 19.8944 6.86636C20.211 7.18299 20.3891 7.61226 20.3896 8.06003ZM7.94945 22.0157C8.20284 22.2691 8.54651 22.4115 8.90486 22.4115H20.3896C20.1679 21.9956 20.0519 21.5316 20.0519 21.0603C20.0519 20.589 20.1679 20.125 20.3896 19.7092H8.90486C8.54651 19.7092 8.20284 19.8515 7.94945 20.1049C7.69606 20.3583 7.55371 20.702 7.55371 21.0603C7.55371 21.4187 7.69606 21.7623 7.94945 22.0157Z" fill="#FF70A9"/>
<path fill-rule="evenodd" clip-rule="evenodd" d="M20.3896 8.06003V18.5315H8.90486C8.40561 18.5316 7.92416 18.7169 7.55371 19.0516V8.06003C7.55425 7.61226 7.73236 7.18299 8.04898 6.86636C8.3656 6.54974 8.79488 6.37163 9.24265 6.37109H10.5938V11.4379L12.6205 10.0868L14.6473 11.4379V6.37109H18.7007C19.1485 6.37163 19.5778 6.54974 19.8944 6.86636C20.211 7.18299 20.3891 7.61226 20.3896 8.06003ZM7.94945 22.0157C8.20284 22.2691 8.54651 22.4115 8.90486 22.4115H20.3896C20.1679 21.9956 20.0519 21.5316 20.0519 21.0603C20.0519 20.589 20.1679 20.125 20.3896 19.7092H8.90486C8.54651 19.7092 8.20284 19.8515 7.94945 20.1049C7.69606 20.3583 7.55371 20.702 7.55371 21.0603C7.55371 21.4187 7.69606 21.7623 7.94945 22.0157Z" fill="url(#paint0_linear_19630_40557)" fill-opacity="0.1" style="mix-blend-mode:plus-lighter"/>
</g>
<defs>
<filter id="filter0_f_19630_40557" x="-10.1109" y="-10.1114" width="48.2224" height="48.2219" filterUnits="userSpaceOnUse" color-interpolation-filters="sRGB">
<feFlood flood-opacity="0" result="BackgroundImageFix"/>
<feBlend mode="normal" in="SourceGraphic" in2="BackgroundImageFix" result="shape"/>
<feGaussianBlur stdDeviation="6.22222" result="effect1_foregroundBlur_19630_40557"/>
</filter>
<filter id="filter1_f_19630_40557" x="-20.9998" y="-21.0003" width="70.0002" height="69.9997" filterUnits="userSpaceOnUse" color-interpolation-filters="sRGB">
<feFlood flood-opacity="0" result="BackgroundImageFix"/>
<feBlend mode="normal" in="SourceGraphic" in2="BackgroundImageFix" result="shape"/>
<feGaussianBlur stdDeviation="11.6667" result="effect1_foregroundBlur_19630_40557"/>
</filter>
<filter id="filter2_f_19630_40557" x="-3.11095" y="-3.11144" width="34.2224" height="34.2219" filterUnits="userSpaceOnUse" color-interpolation-filters="sRGB">
<feFlood flood-opacity="0" result="BackgroundImageFix"/>
<feBlend mode="normal" in="SourceGraphic" in2="BackgroundImageFix" result="shape"/>
<feGaussianBlur stdDeviation="6.22222" result="effect1_foregroundBlur_19630_40557"/>
</filter>
<linearGradient id="paint0_linear_19630_40557" x1="17.1807" y1="22.857" x2="7.34717" y2="8.6928" gradientUnits="userSpaceOnUse">
<stop stop-color="white" stop-opacity="0"/>
<stop offset="1" stop-color="white"/>
</linearGradient>
<clipPath id="clip0_19630_40557">
<rect width="28" height="28" fill="white"/>
</clipPath>
</defs>
</svg>
