<svg width="20" height="20" viewBox="0 0 20 20" fill="none" xmlns="http://www.w3.org/2000/svg">
<path fill-rule="evenodd" clip-rule="evenodd" d="M15.4991 10.2778C15.4991 12.5625 17.3984 14.8472 17.3984 14.8472C17.4544 14.9148 17.4888 14.9967 17.4977 15.083C17.5066 15.1693 17.4895 15.2563 17.4484 15.3333C17.4122 15.4202 17.3499 15.4945 17.2697 15.5465C17.1895 15.5986 17.095 15.6259 16.9986 15.625H3.00324C2.91311 15.6254 2.82437 15.6033 2.74558 15.5608C2.66679 15.5182 2.6006 15.4566 2.55339 15.3819C2.51109 15.2968 2.4934 15.202 2.5022 15.1078C2.51101 15.0136 2.54598 14.9235 2.60337 14.8472C2.65336 14.7986 4.50274 12.5625 4.50274 10.2778V7.84721C4.50274 6.42904 5.08201 5.06896 6.11312 4.06616C7.14422 3.06337 8.54271 2.5 10.0009 2.5C11.4591 2.5 12.8576 3.06337 13.8887 4.06616C14.9198 5.06896 15.4991 6.42904 15.4991 7.84721V10.2778ZM8.41828 18.2678C7.96513 17.9192 7.64183 17.4288 7.5 16.875H12.5C12.3494 17.424 12.0238 17.9088 11.5726 18.2559C11.1214 18.603 10.5692 18.7934 10 18.7981C9.42831 18.8031 8.87144 18.6163 8.41828 18.2678Z" fill="url(#paint0_linear_24490_56871)"/>
<defs>
<linearGradient id="paint0_linear_24490_56871" x1="10.0003" y1="2.79541" x2="10.0003" y2="18.7504" gradientUnits="userSpaceOnUse">
<stop stop-color="#F5F5F5"/>
<stop offset="1" stop-color="#F5F5F5" stop-opacity="0.4"/>
</linearGradient>
</defs>
</svg>
