<svg width="20" height="20" viewBox="0 0 20 20" fill="none" xmlns="http://www.w3.org/2000/svg">
<g clip-path="url(#clip0_24490_65981)">
<path fill-rule="evenodd" clip-rule="evenodd" d="M16.25 3.125C16.25 4.85089 14.8509 6.25 13.125 6.25C12.9144 6.25 12.7087 6.22917 12.5098 6.18947L11.3696 9.23009C12.6422 9.8831 13.553 11.1415 13.7217 12.625H16.3174C16.5362 11.8322 17.2626 11.25 18.125 11.25C19.1605 11.25 20 12.0895 20 13.125C20 14.1605 19.1605 15 18.125 15C17.2626 15 16.5362 14.4178 16.3174 13.625H13.7217C13.4736 15.8058 11.6222 17.5 9.375 17.5C8.03652 17.5 6.83842 16.8989 6.0359 15.952L3.65639 17.5383C3.71714 17.7229 3.75 17.9201 3.75 18.125C3.75 19.1605 2.91053 20 1.875 20C0.839466 20 0 19.1605 0 18.125C0 17.0895 0.839466 16.25 1.875 16.25C2.34386 16.25 2.77253 16.4221 3.10128 16.7066L5.48051 15.1204C5.17334 14.5221 5 13.8438 5 13.125C5 12.097 5.35454 11.1519 5.948 10.4051L4.0495 8.50661C3.77667 8.66153 3.46117 8.75 3.125 8.75C2.08947 8.75 1.25 7.91053 1.25 6.875C1.25 5.83947 2.08947 5 3.125 5C4.16053 5 5 5.83947 5 6.875C5 7.21117 4.91153 7.52667 4.75661 7.7995L6.65511 9.698C7.40186 9.10454 8.34703 8.75 9.375 8.75C9.73993 8.75 10.0944 8.79468 10.4333 8.87887L11.5735 5.83828C10.6334 5.29954 10 4.28623 10 3.125C10 1.39911 11.3991 0 13.125 0C14.8509 0 16.25 1.39911 16.25 3.125Z" fill="url(#paint0_linear_24490_65981)"/>
</g>
<defs>
<linearGradient id="paint0_linear_24490_65981" x1="9.65063" y1="0" x2="9.65063" y2="18.9515" gradientUnits="userSpaceOnUse">
<stop stop-color="#F5F5F5"/>
<stop offset="1" stop-color="#F5F5F5" stop-opacity="0.4"/>
</linearGradient>
<clipPath id="clip0_24490_65981">
<rect width="20" height="20" fill="white"/>
</clipPath>
</defs>
</svg>
