<svg width="36" height="36" viewBox="0 0 36 36" fill="none" xmlns="http://www.w3.org/2000/svg">
<g clip-path="url(#clip0_19547_30237)">
<rect x="0.5" y="0.5" width="35" height="35" rx="3.5" fill="#1A1A1A" stroke="#262626"/>
<mask id="mask0_19547_30237" style="mask-type:alpha" maskUnits="userSpaceOnUse" x="0" y="0" width="36" height="36">
<rect x="0.5" y="0.5" width="35" height="35" rx="3.5" stroke="#262626"/>
</mask>
<g mask="url(#mask0_19547_30237)">
<g opacity="0.25" filter="url(#filter0_f_19547_30237)">
<circle cx="18" cy="18" r="15" fill="#FF70A9"/>
</g>
</g>
<g opacity="0.1" filter="url(#filter1_f_19547_30237)">
<circle cx="18" cy="18" r="15" fill="#FF70A9"/>
</g>
<g opacity="0.4" filter="url(#filter2_f_19547_30237)">
<circle cx="18" cy="18" r="6" fill="#FF70A9"/>
</g>
<path d="M26.4965 9.80736C26.4947 9.79475 26.4921 9.78227 26.4887 9.77C26.4772 9.72446 26.4576 9.6813 26.431 9.64247L26.429 9.63841C26.4261 9.63394 26.4208 9.63191 26.4175 9.62785C26.4008 9.60521 26.3819 9.58427 26.3611 9.5653C26.35 9.55637 26.3369 9.55109 26.3254 9.54296C26.314 9.53484 26.3042 9.52875 26.2923 9.52225C26.2529 9.4998 26.21 9.48402 26.1654 9.47554C26.1597 9.47554 26.154 9.47554 26.1487 9.47554C26.1078 9.47072 26.0664 9.47195 26.0259 9.4792C26.0121 9.4817 25.9984 9.48496 25.985 9.48895C25.9735 9.49219 25.9616 9.4926 25.9502 9.49666L8.76285 15.995C8.69344 16.0212 8.63252 16.0656 8.58661 16.1235C8.5407 16.1814 8.51153 16.2507 8.50224 16.3238C8.49295 16.3969 8.50388 16.4712 8.53385 16.5386C8.56383 16.606 8.61173 16.6641 8.67241 16.7065L10.9029 18.2386L20.0084 14.1317L12.5924 19.8626V25.7152C12.5926 25.7918 12.6147 25.8668 12.656 25.9315C12.6974 25.9962 12.7563 26.0479 12.826 26.0808C12.8807 26.1073 12.9407 26.1212 13.0016 26.1214C13.096 26.1214 13.1875 26.0889 13.2606 26.0296L17.2984 22.7504L22.5852 26.454C22.6548 26.5025 22.7379 26.5281 22.8229 26.5275C22.9173 26.5276 23.0087 26.4952 23.0818 26.436C23.1549 26.3768 23.2051 26.2944 23.224 26.2026L26.4977 9.95682C26.498 9.95412 26.498 9.9514 26.4977 9.9487C26.4977 9.94017 26.4977 9.93164 26.4977 9.92311C26.503 9.88468 26.5026 9.84568 26.4965 9.80736Z" fill="#FF70A9"/>
<path d="M26.4965 9.80736C26.4947 9.79475 26.4921 9.78227 26.4887 9.77C26.4772 9.72446 26.4576 9.6813 26.431 9.64247L26.429 9.63841C26.4261 9.63394 26.4208 9.63191 26.4175 9.62785C26.4008 9.60521 26.3819 9.58427 26.3611 9.5653C26.35 9.55637 26.3369 9.55109 26.3254 9.54296C26.314 9.53484 26.3042 9.52875 26.2923 9.52225C26.2529 9.4998 26.21 9.48402 26.1654 9.47554C26.1597 9.47554 26.154 9.47554 26.1487 9.47554C26.1078 9.47072 26.0664 9.47195 26.0259 9.4792C26.0121 9.4817 25.9984 9.48496 25.985 9.48895C25.9735 9.49219 25.9616 9.4926 25.9502 9.49666L8.76285 15.995C8.69344 16.0212 8.63252 16.0656 8.58661 16.1235C8.5407 16.1814 8.51153 16.2507 8.50224 16.3238C8.49295 16.3969 8.50388 16.4712 8.53385 16.5386C8.56383 16.606 8.61173 16.6641 8.67241 16.7065L10.9029 18.2386L20.0084 14.1317L12.5924 19.8626V25.7152C12.5926 25.7918 12.6147 25.8668 12.656 25.9315C12.6974 25.9962 12.7563 26.0479 12.826 26.0808C12.8807 26.1073 12.9407 26.1212 13.0016 26.1214C13.096 26.1214 13.1875 26.0889 13.2606 26.0296L17.2984 22.7504L22.5852 26.454C22.6548 26.5025 22.7379 26.5281 22.8229 26.5275C22.9173 26.5276 23.0087 26.4952 23.0818 26.436C23.1549 26.3768 23.2051 26.2944 23.224 26.2026L26.4977 9.95682C26.498 9.95412 26.498 9.9514 26.4977 9.9487C26.4977 9.94017 26.4977 9.93164 26.4977 9.92311C26.503 9.88468 26.5026 9.84568 26.4965 9.80736Z" fill="url(#paint0_linear_19547_30237)" fill-opacity="0.1" style="mix-blend-mode:plus-lighter"/>
</g>
<defs>
<filter id="filter0_f_19547_30237" x="-13" y="-13" width="62" height="62" filterUnits="userSpaceOnUse" color-interpolation-filters="sRGB">
<feFlood flood-opacity="0" result="BackgroundImageFix"/>
<feBlend mode="normal" in="SourceGraphic" in2="BackgroundImageFix" result="shape"/>
<feGaussianBlur stdDeviation="8" result="effect1_foregroundBlur_19547_30237"/>
</filter>
<filter id="filter1_f_19547_30237" x="-27" y="-27" width="90" height="90" filterUnits="userSpaceOnUse" color-interpolation-filters="sRGB">
<feFlood flood-opacity="0" result="BackgroundImageFix"/>
<feBlend mode="normal" in="SourceGraphic" in2="BackgroundImageFix" result="shape"/>
<feGaussianBlur stdDeviation="15" result="effect1_foregroundBlur_19547_30237"/>
</filter>
<filter id="filter2_f_19547_30237" x="-4" y="-4" width="44" height="44" filterUnits="userSpaceOnUse" color-interpolation-filters="sRGB">
<feFlood flood-opacity="0" result="BackgroundImageFix"/>
<feBlend mode="normal" in="SourceGraphic" in2="BackgroundImageFix" result="shape"/>
<feGaussianBlur stdDeviation="8" result="effect1_foregroundBlur_19547_30237"/>
</filter>
<linearGradient id="paint0_linear_19547_30237" x1="22.0008" y1="27.0013" x2="12.8022" y2="9.52392" gradientUnits="userSpaceOnUse">
<stop stop-color="white" stop-opacity="0"/>
<stop offset="1" stop-color="white"/>
</linearGradient>
<clipPath id="clip0_19547_30237">
<rect width="36" height="36" fill="white"/>
</clipPath>
</defs>
</svg>
