<svg xmlns="http://www.w3.org/2000/svg" width="44" height="44" viewBox="0 0 44 44" fill="none">
  <g clip-path="url(#clip0_24490_56944)">
    <rect width="44" height="44" rx="4" fill="#0B0B0F"/>
    <rect x="0.5" y="0.5" width="43" height="43" rx="3.5" stroke="#333347" stroke-opacity="0.3"/>
    <g opacity="0.1" filter="url(#filter0_f_24490_56944)">
      <circle cx="22" cy="22" r="19" fill="#FF70A9"/>
    </g>
    <g opacity="0.4" filter="url(#filter1_f_24490_56944)">
      <circle cx="22.0004" cy="21.9984" r="7.6" fill="#FF70A9"/>
    </g>
    <path d="M32.3836 13.8074C32.3815 13.7948 32.3783 13.7823 32.3741 13.77C32.36 13.7245 32.3361 13.6813 32.3036 13.6425L32.3011 13.6384C32.2976 13.6339 32.2911 13.6319 32.2871 13.6278C32.2667 13.6052 32.2436 13.5843 32.2181 13.5653C32.2046 13.5564 32.1886 13.5511 32.1746 13.543C32.1606 13.5348 32.1486 13.5287 32.1341 13.5222C32.0859 13.4998 32.0335 13.484 31.979 13.4755C31.972 13.4755 31.965 13.4755 31.9585 13.4755C31.9085 13.4707 31.858 13.4719 31.8085 13.4792C31.7916 13.4817 31.7749 13.485 31.7584 13.4889C31.7444 13.4922 31.7299 13.4926 31.7159 13.4967L10.7092 19.995C10.6243 20.0212 10.5499 20.0656 10.4938 20.1235C10.4377 20.1814 10.402 20.2507 10.3907 20.3238C10.3793 20.3969 10.3926 20.4712 10.4293 20.5386C10.4659 20.606 10.5245 20.6641 10.5986 20.7065L13.3248 22.2386L24.4537 18.1317L15.3897 23.8626V29.7152C15.39 29.7918 15.417 29.8668 15.4675 29.9315C15.518 29.9962 15.5901 30.0479 15.6753 30.0808C15.7421 30.1073 15.8155 30.1212 15.8898 30.1214C16.0053 30.1214 16.1171 30.0889 16.2064 30.0296L21.1415 26.7504L27.6031 30.454C27.6882 30.5025 27.7898 30.5281 27.8937 30.5275C28.009 30.5276 28.1208 30.4952 28.2101 30.436C28.2994 30.3768 28.3608 30.2944 28.3839 30.2026L32.3851 13.9568C32.3854 13.9541 32.3854 13.9514 32.3851 13.9487C32.3851 13.9402 32.3851 13.9316 32.3851 13.9231C32.3916 13.8847 32.3911 13.8457 32.3836 13.8074Z" fill="#FF70A9"/>
    <path d="M32.3836 13.8074C32.3815 13.7948 32.3783 13.7823 32.3741 13.77C32.36 13.7245 32.3361 13.6813 32.3036 13.6425L32.3011 13.6384C32.2976 13.6339 32.2911 13.6319 32.2871 13.6278C32.2667 13.6052 32.2436 13.5843 32.2181 13.5653C32.2046 13.5564 32.1886 13.5511 32.1746 13.543C32.1606 13.5348 32.1486 13.5287 32.1341 13.5222C32.0859 13.4998 32.0335 13.484 31.979 13.4755C31.972 13.4755 31.965 13.4755 31.9585 13.4755C31.9085 13.4707 31.858 13.4719 31.8085 13.4792C31.7916 13.4817 31.7749 13.485 31.7584 13.4889C31.7444 13.4922 31.7299 13.4926 31.7159 13.4967L10.7092 19.995C10.6243 20.0212 10.5499 20.0656 10.4938 20.1235C10.4377 20.1814 10.402 20.2507 10.3907 20.3238C10.3793 20.3969 10.3926 20.4712 10.4293 20.5386C10.4659 20.606 10.5245 20.6641 10.5986 20.7065L13.3248 22.2386L24.4537 18.1317L15.3897 23.8626V29.7152C15.39 29.7918 15.417 29.8668 15.4675 29.9315C15.518 29.9962 15.5901 30.0479 15.6753 30.0808C15.7421 30.1073 15.8155 30.1212 15.8898 30.1214C16.0053 30.1214 16.1171 30.0889 16.2064 30.0296L21.1415 26.7504L27.6031 30.454C27.6882 30.5025 27.7898 30.5281 27.8937 30.5275C28.009 30.5276 28.1208 30.4952 28.2101 30.436C28.2994 30.3768 28.3608 30.2944 28.3839 30.2026L32.3851 13.9568C32.3854 13.9541 32.3854 13.9514 32.3851 13.9487C32.3851 13.9402 32.3851 13.9316 32.3851 13.9231C32.3916 13.8847 32.3911 13.8457 32.3836 13.8074Z" fill="url(#paint0_linear_24490_56944)" fill-opacity="0.1" style="mix-blend-mode:plus-lighter"/>
  </g>
  <defs>
    <filter id="filter0_f_24490_56944" x="-27" y="-27" width="98" height="98" filterUnits="userSpaceOnUse" color-interpolation-filters="sRGB">
      <feFlood flood-opacity="0" result="BackgroundImageFix"/>
      <feBlend mode="normal" in="SourceGraphic" in2="BackgroundImageFix" result="shape"/>
      <feGaussianBlur stdDeviation="15" result="effect1_foregroundBlur_24490_56944"/>
    </filter>
    <filter id="filter1_f_24490_56944" x="-1.59961" y="-1.60156" width="47.2002" height="47.1992" filterUnits="userSpaceOnUse" color-interpolation-filters="sRGB">
      <feFlood flood-opacity="0" result="BackgroundImageFix"/>
      <feBlend mode="normal" in="SourceGraphic" in2="BackgroundImageFix" result="shape"/>
      <feGaussianBlur stdDeviation="8" result="effect1_foregroundBlur_24490_56944"/>
    </filter>
    <linearGradient id="paint0_linear_24490_56944" x1="26.8889" y1="31.0013" x2="18.7814" y2="12.1738" gradientUnits="userSpaceOnUse">
      <stop stop-color="white" stop-opacity="0"/>
      <stop offset="1" stop-color="white"/>
    </linearGradient>
    <clipPath id="clip0_24490_56944">
      <rect width="44" height="44" fill="white"/>
    </clipPath>
  </defs>
</svg>
