<svg width="20" height="20" viewBox="0 0 20 20" fill="none" xmlns="http://www.w3.org/2000/svg">
<path fill-rule="evenodd" clip-rule="evenodd" d="M5 3.5C5 2.67157 5.67157 2 6.5 2H12.9961C13.8245 2 14.4961 2.67157 14.4961 3.5V16C14.4961 16.8284 13.8245 17.5 12.9961 17.5H6.5C5.67157 17.5 5 16.8284 5 16V3.5ZM6.25 5.15C6.25 4.92909 6.42909 4.75 6.65 4.75H12.85C13.0709 4.75 13.25 4.92909 13.25 5.15V6.35C13.25 6.57091 13.0709 6.75 12.85 6.75H6.65C6.42909 6.75 6.25 6.57091 6.25 6.35V5.15ZM9.75 16.0039C10.3023 16.0039 10.75 15.5562 10.75 15.0039C10.75 14.4516 10.3023 14.0039 9.75 14.0039C9.19772 14.0039 8.75 14.4516 8.75 15.0039C8.75 15.5562 9.19772 16.0039 9.75 16.0039Z" fill="url(#paint0_linear_24490_56877)"/>
<defs>
<linearGradient id="paint0_linear_24490_56877" x1="9.74805" y1="1.62838" x2="9.74805" y2="18.6972" gradientUnits="userSpaceOnUse">
<stop stop-color="#F5F5F5"/>
<stop offset="1" stop-color="#F5F5F5" stop-opacity="0.4"/>
</linearGradient>
</defs>
</svg>
