<svg width="20" height="20" viewBox="0 0 20 20" fill="none" xmlns="http://www.w3.org/2000/svg">
<path d="M14.375 7.75H12.125V5.5C12.125 4.90326 11.8879 4.33097 11.466 3.90901C11.044 3.48705 10.4717 3.25 9.875 3.25C9.27826 3.25 8.70597 3.48705 8.28401 3.90901C7.86205 4.33097 7.625 4.90326 7.625 5.5V7.75H5.375V5.5C5.375 4.30653 5.84911 3.16193 6.69302 2.31802C7.53693 1.47411 8.68153 1 9.875 1C11.0685 1 12.2131 1.47411 13.057 2.31802C13.9009 3.16193 14.375 4.30653 14.375 5.5V7.75Z" fill="url(#paint0_linear_24490_56847)"/>
<path d="M16.625 8.875H3.125C2.82663 8.875 2.54048 8.99353 2.3295 9.20451C2.11853 9.41548 2 9.70163 2 10V17.875C2 18.1734 2.11853 18.4595 2.3295 18.6705C2.54048 18.8815 2.82663 19 3.125 19H16.625C16.9234 19 17.2095 18.8815 17.4205 18.6705C17.6315 18.4595 17.75 18.1734 17.75 17.875V10C17.75 9.70163 17.6315 9.41548 17.4205 9.20451C17.2095 8.99353 16.9234 8.875 16.625 8.875ZM9.875 15.625C9.54124 15.625 9.21498 15.526 8.93748 15.3406C8.65997 15.1552 8.44368 14.8916 8.31595 14.5833C8.18823 14.2749 8.15481 13.9356 8.21992 13.6083C8.28504 13.2809 8.44576 12.9803 8.68176 12.7443C8.91776 12.5083 9.21844 12.3475 9.54578 12.2824C9.87313 12.2173 10.2124 12.2507 10.5208 12.3785C10.8291 12.5062 11.0927 12.7225 11.2781 13C11.4635 13.2775 11.5625 13.6037 11.5625 13.9375C11.5625 14.3851 11.3847 14.8143 11.0682 15.1307C10.7518 15.4472 10.3226 15.625 9.875 15.625Z" fill="url(#paint1_linear_24490_56847)"/>
<defs>
<linearGradient id="paint0_linear_24490_56847" x1="9.875" y1="1" x2="9.875" y2="7.75" gradientUnits="userSpaceOnUse">
<stop stop-color="#F5F5F5"/>
<stop offset="1" stop-color="#F5F5F5" stop-opacity="0.4"/>
</linearGradient>
<linearGradient id="paint1_linear_24490_56847" x1="9.875" y1="8.875" x2="9.875" y2="19" gradientUnits="userSpaceOnUse">
<stop stop-color="#F5F5F5"/>
<stop offset="1" stop-color="#F5F5F5" stop-opacity="0.4"/>
</linearGradient>
</defs>
</svg>
