<svg width="20" height="20" viewBox="0 0 20 20" fill="none" xmlns="http://www.w3.org/2000/svg">
<path fill-rule="evenodd" clip-rule="evenodd" d="M3.6 2H16.4C17.28 2 18 2.72 18 3.6V13.2C18 14.08 17.28 14.8 16.4 14.8H5.2L2 18L2.008 3.6C2.008 2.72 2.72 2 3.6 2ZM6.30935 9.47807C6.90411 9.47807 7.38627 8.99591 7.38627 8.40114C7.38627 7.80637 6.90411 7.32422 6.30935 7.32422C5.71458 7.32422 5.23242 7.80637 5.23242 8.40114C5.23242 8.99591 5.71458 9.47807 6.30935 9.47807ZM10.0027 9.47807C10.5975 9.47807 11.0796 8.99591 11.0796 8.40114C11.0796 7.80637 10.5975 7.32422 10.0027 7.32422C9.40794 7.32422 8.92578 7.80637 8.92578 8.40114C8.92578 8.99591 9.40794 9.47807 10.0027 9.47807ZM14.771 8.40114C14.771 8.99591 14.2889 9.47807 13.6941 9.47807C13.0993 9.47807 12.6172 8.99591 12.6172 8.40114C12.6172 7.80637 13.0993 7.32422 13.6941 7.32422C14.2889 7.32422 14.771 7.80637 14.771 8.40114Z" fill="url(#paint0_linear_24490_56890)"/>
<defs>
<linearGradient id="paint0_linear_24490_56890" x1="10" y1="2" x2="10" y2="18" gradientUnits="userSpaceOnUse">
<stop stop-color="#F5F5F5"/>
<stop offset="1" stop-color="#F5F5F5" stop-opacity="0.4"/>
</linearGradient>
</defs>
</svg>
