<svg width="20" height="20" viewBox="0 0 20 20" fill="none" xmlns="http://www.w3.org/2000/svg">
<path fill-rule="evenodd" clip-rule="evenodd" d="M3.07143 1C2.4797 1 2 1.4797 2 2.07143V15.5171C2 16.1089 2.4797 16.5886 3.07143 16.5886H7.47059C7.41058 16.3805 7.39257 16.1612 7.41923 15.9435C7.46209 15.5937 7.61806 15.2674 7.86339 15.0143L7.86469 15.013L8.40799 14.4513L7.86469 13.8896L7.86324 13.8881C7.618 13.635 7.46208 13.3088 7.41923 12.959C7.37637 12.6091 7.44895 12.2549 7.62592 11.9501L8.05311 11.2127L8.05403 11.2111C8.22984 10.9074 8.49966 10.6691 8.8228 10.5321C9.14643 10.395 9.50592 10.3669 9.84688 10.4523L10.6075 10.6427L10.8233 9.88784C10.9199 9.55004 11.1239 9.25271 11.4044 9.04112C11.6849 8.82953 12.0266 8.715 12.3779 8.71484H13.2333C13.5842 8.71483 13.9257 8.82889 14.206 9.03983C14.4865 9.25079 14.6907 9.54722 14.7879 9.88441L14.7887 9.88744L15.0043 10.642L15.1903 10.5954V2.07143C15.1903 1.4797 14.7106 1 14.1189 1H3.07143ZM4.99707 3.46038C4.7012 3.46038 4.46135 3.70023 4.46135 3.99609C4.46135 4.29196 4.7012 4.53181 4.99707 4.53181H12.1918C12.4877 4.53181 12.7275 4.29196 12.7275 3.99609C12.7275 3.70023 12.4877 3.46038 12.1918 3.46038H4.99707ZM4.99707 6.46038C4.7012 6.46038 4.46135 6.70023 4.46135 6.99609C4.46135 7.29196 4.7012 7.53181 4.99707 7.53181H12.1918C12.4877 7.53181 12.7275 7.29196 12.7275 6.99609C12.7275 6.70023 12.4877 6.46038 12.1918 6.46038H4.99707ZM4.46135 9.99219C4.46135 9.69632 4.7012 9.45647 4.99707 9.45647H7.39531C7.69118 9.45647 7.93103 9.69632 7.93103 9.99219C7.93103 10.2881 7.69118 10.5279 7.39531 10.5279H4.99707C4.7012 10.5279 4.46135 10.2881 4.46135 9.99219ZM16.1483 11.7611L14.7917 12.1008C14.5579 11.9155 14.2983 11.7652 14.0212 11.6548L13.6372 10.3106C13.6166 10.239 13.5733 10.1762 13.5138 10.1314C13.4544 10.0867 13.382 10.0625 13.3075 10.0625H12.4526C12.378 10.0625 12.3056 10.0868 12.2461 10.1317C12.1866 10.1766 12.1433 10.2396 12.1228 10.3112L11.7386 11.6555C11.4616 11.766 11.2021 11.9163 10.9684 12.1015L9.61145 11.7618C9.53912 11.7437 9.46286 11.7496 9.39421 11.7787C9.32555 11.8078 9.26825 11.8585 9.23096 11.9231L8.80245 12.6628C8.76477 12.7275 8.7493 12.8028 8.75841 12.8771C8.76751 12.9514 8.80069 13.0207 8.85288 13.0745L9.82622 14.0807C9.7791 14.3746 9.7791 14.6741 9.82622 14.968L8.85288 15.9742C8.80069 16.028 8.76751 16.0973 8.75841 16.1716C8.7493 16.2459 8.76477 16.3212 8.80245 16.3859L9.22959 17.1263C9.26688 17.1909 9.32418 17.2416 9.39283 17.2707C9.46149 17.2998 9.53775 17.3057 9.61008 17.2876L10.967 16.9479C11.2008 17.1331 11.4602 17.2834 11.7372 17.3939L12.1215 18.7381C12.142 18.8098 12.1852 18.8728 12.2447 18.9177C12.3042 18.9626 12.3767 18.9869 12.4512 18.9869H13.3062C13.3807 18.9869 13.4531 18.9626 13.5126 18.9177C13.5721 18.8728 13.6154 18.8098 13.6359 18.7381L14.0198 17.3939C14.2969 17.2835 14.5565 17.1332 14.7904 16.9479L16.1469 17.2876C16.2192 17.3057 16.2955 17.2998 16.3642 17.2707C16.4328 17.2416 16.4901 17.1909 16.5274 17.1263L16.9549 16.3859C16.9926 16.3212 17.008 16.2459 16.9989 16.1716C16.9898 16.0973 16.9566 16.028 16.9045 15.9742L15.9308 14.968C15.9783 14.6741 15.9783 14.3746 15.9308 14.0807L16.9045 13.0745C16.9566 13.0207 16.9898 12.9514 16.9989 12.8771C17.008 12.8028 16.9926 12.7275 16.9549 12.6628L16.5288 11.9224C16.4915 11.8578 16.4342 11.8071 16.3655 11.778C16.2969 11.7489 16.2206 11.743 16.1483 11.7611ZM14.075 14.5233C14.075 15.1856 13.5381 15.7225 12.8759 15.7225C12.2136 15.7225 11.6768 15.1856 11.6768 14.5233C11.6768 13.8611 12.2136 13.3242 12.8759 13.3242C13.5381 13.3242 14.075 13.8611 14.075 14.5233Z" fill="url(#paint0_linear_24490_56820)"/>
<defs>
<linearGradient id="paint0_linear_24490_56820" x1="9.72131" y1="1" x2="9.72131" y2="18.0443" gradientUnits="userSpaceOnUse">
<stop stop-color="#F5F5F5"/>
<stop offset="1" stop-color="#F5F5F5" stop-opacity="0.4"/>
</linearGradient>
</defs>
</svg>
