<svg width="20" height="20" viewBox="0 0 20 20" fill="none" xmlns="http://www.w3.org/2000/svg">
<path d="M12.9404 7C14.5973 7 15.9404 5.65685 15.9404 4C15.9404 2.34315 14.5973 1 12.9404 1C11.2836 1 9.94043 2.34315 9.94043 4C9.94043 5.65685 11.2836 7 12.9404 7Z" fill="url(#paint0_linear_24490_56934)"/>
<path d="M6.93945 11.5C8.59631 11.5 9.93945 10.1569 9.93945 8.5C9.93945 6.84315 8.59631 5.5 6.93945 5.5C5.2826 5.5 3.93945 6.84315 3.93945 8.5C3.93945 10.1569 5.2826 11.5 6.93945 11.5Z" fill="url(#paint1_linear_24490_56934)"/>
<path d="M12.9405 8.5C12.4208 8.5 11.9153 8.572 11.4308 8.6995C11.3708 10.0555 10.7115 11.2555 9.70801 12.0415C10.9823 12.5545 12.0915 13.4103 12.9165 14.5H18.132C18.3495 14.5 18.5558 14.4055 18.699 14.2413C18.8408 14.077 18.9053 13.8587 18.8745 13.6435C18.453 10.711 15.9015 8.5 12.9405 8.5Z" fill="url(#paint2_linear_24490_56934)"/>
<path d="M6.94077 13C3.97977 13 1.42902 15.211 1.00752 18.1435C0.976773 18.3587 1.04127 18.577 1.18302 18.7413C1.32552 18.9055 1.53252 19 1.75002 19H12.1315C12.349 19 12.5553 18.9055 12.6985 18.7413C12.8403 18.577 12.9048 18.3587 12.874 18.1435C12.4525 15.211 9.90177 13 6.94077 13Z" fill="url(#paint3_linear_24490_56934)"/>
<defs>
<linearGradient id="paint0_linear_24490_56934" x1="12.9404" y1="1" x2="12.9404" y2="7" gradientUnits="userSpaceOnUse">
<stop stop-color="#F5F5F5"/>
<stop offset="1" stop-color="#F5F5F5" stop-opacity="0.4"/>
</linearGradient>
<linearGradient id="paint1_linear_24490_56934" x1="6.93945" y1="5.5" x2="6.93945" y2="11.5" gradientUnits="userSpaceOnUse">
<stop stop-color="#F5F5F5"/>
<stop offset="1" stop-color="#F5F5F5" stop-opacity="0.4"/>
</linearGradient>
<linearGradient id="paint2_linear_24490_56934" x1="14.295" y1="8.5" x2="14.295" y2="14.5" gradientUnits="userSpaceOnUse">
<stop stop-color="#F5F5F5"/>
<stop offset="1" stop-color="#F5F5F5" stop-opacity="0.4"/>
</linearGradient>
<linearGradient id="paint3_linear_24490_56934" x1="6.94077" y1="13" x2="6.94077" y2="19" gradientUnits="userSpaceOnUse">
<stop stop-color="#F5F5F5"/>
<stop offset="1" stop-color="#F5F5F5" stop-opacity="0.4"/>
</linearGradient>
</defs>
</svg>
