<svg xmlns="http://www.w3.org/2000/svg" width="44" height="44" viewBox="0 0 44 44" fill="none">
  <g clip-path="url(#clip0_24574_39617)">
    <rect width="44" height="44" rx="4" fill="#0B0B0F"/>
    <rect x="0.5" y="0.5" width="43" height="43" rx="3.5" stroke="#333347" stroke-opacity="0.3"/>
    <g opacity="0.2" filter="url(#filter0_f_24574_39617)">
      <circle cx="22" cy="22" r="19" fill="#3366FF"/>
    </g>
    <g opacity="0.6" filter="url(#filter1_f_24574_39617)">
      <circle cx="22" cy="22" r="8" fill="#3366FF"/>
    </g>
    <path fill-rule="evenodd" clip-rule="evenodd" d="M29.006 22.4518C29.006 25.0677 31.2323 28.2218 31.2547 28.2531C31.3046 28.3229 31.3343 28.4052 31.3404 28.4908C31.3466 28.5764 31.3291 28.662 31.2899 28.7383C31.2506 28.8146 31.191 28.8786 31.1177 28.9233C31.0445 28.968 30.9603 28.9916 30.8745 28.9916H13.1234C13.0376 28.9916 12.9534 28.968 12.8802 28.9233C12.8069 28.8786 12.7474 28.8146 12.7081 28.7383C12.6688 28.662 12.6513 28.5764 12.6575 28.4908C12.6637 28.4052 12.6933 28.3229 12.7432 28.2531C12.7656 28.2218 14.992 25.0677 14.992 22.4518V17.7804C14.992 15.9221 15.7302 14.1398 17.0443 12.8257C18.3583 11.5117 20.1406 10.7734 21.999 10.7734C23.8573 10.7734 25.6396 11.5117 26.9537 12.8257C28.2677 14.1398 29.006 15.9221 29.006 17.7804V22.4518ZM24.2233 32.3527C23.6015 32.9131 22.8138 33.2214 21.9994 33.223C21.185 33.2214 20.3973 32.9131 19.7756 32.3527C19.1538 31.7922 18.738 31.0156 18.6016 30.1602H25.3973C25.2608 31.0156 24.845 31.7922 24.2233 32.3527Z" fill="#3366FF"/>
    <path fill-rule="evenodd" clip-rule="evenodd" d="M29.006 22.4518C29.006 25.0677 31.2323 28.2218 31.2547 28.2531C31.3046 28.3229 31.3343 28.4052 31.3404 28.4908C31.3466 28.5764 31.3291 28.662 31.2899 28.7383C31.2506 28.8146 31.191 28.8786 31.1177 28.9233C31.0445 28.968 30.9603 28.9916 30.8745 28.9916H13.1234C13.0376 28.9916 12.9534 28.968 12.8802 28.9233C12.8069 28.8786 12.7474 28.8146 12.7081 28.7383C12.6688 28.662 12.6513 28.5764 12.6575 28.4908C12.6637 28.4052 12.6933 28.3229 12.7432 28.2531C12.7656 28.2218 14.992 25.0677 14.992 22.4518V17.7804C14.992 15.9221 15.7302 14.1398 17.0443 12.8257C18.3583 11.5117 20.1406 10.7734 21.999 10.7734C23.8573 10.7734 25.6396 11.5117 26.9537 12.8257C28.2677 14.1398 29.006 15.9221 29.006 17.7804V22.4518ZM24.2233 32.3527C23.6015 32.9131 22.8138 33.2214 21.9994 33.223C21.185 33.2214 20.3973 32.9131 19.7756 32.3527C19.1538 31.7922 18.738 31.0156 18.6016 30.1602H25.3973C25.2608 31.0156 24.845 31.7922 24.2233 32.3527Z" fill="url(#paint0_linear_24574_39617)" fill-opacity="0.1"/>
  </g>
  <defs>
    <filter id="filter0_f_24574_39617" x="-27" y="-27" width="98" height="98" filterUnits="userSpaceOnUse" color-interpolation-filters="sRGB">
      <feFlood flood-opacity="0" result="BackgroundImageFix"/>
      <feBlend mode="normal" in="SourceGraphic" in2="BackgroundImageFix" result="shape"/>
      <feGaussianBlur stdDeviation="15" result="effect1_foregroundBlur_24574_39617"/>
    </filter>
    <filter id="filter1_f_24574_39617" x="-2" y="-2" width="48" height="48" filterUnits="userSpaceOnUse" color-interpolation-filters="sRGB">
      <feFlood flood-opacity="0" result="BackgroundImageFix"/>
      <feBlend mode="normal" in="SourceGraphic" in2="BackgroundImageFix" result="shape"/>
      <feGaussianBlur stdDeviation="8" result="effect1_foregroundBlur_24574_39617"/>
    </filter>
    <linearGradient id="paint0_linear_24574_39617" x1="25.9975" y1="32.9965" x2="17.9988" y2="11" gradientUnits="userSpaceOnUse">
      <stop stop-color="white" stop-opacity="0"/>
      <stop offset="1" stop-color="white"/>
    </linearGradient>
    <clipPath id="clip0_24574_39617">
      <rect width="44" height="44" fill="white"/>
    </clipPath>
  </defs>
</svg>
