<svg width="20" height="20" viewBox="0 0 20 20" fill="none" xmlns="http://www.w3.org/2000/svg">
<path fill-rule="evenodd" clip-rule="evenodd" d="M13.5443 6.25947C13.5443 8.19677 11.996 10.4486 9.99971 10.4486C8.00344 10.4486 6.45508 8.19677 6.45508 6.25947C6.45508 4.30509 8.04533 2.71484 9.99971 2.71484C11.9541 2.71484 13.5443 4.30509 13.5443 6.25947ZM7.76139 11.9375H12.2349C14.9072 11.9375 17.0813 14.1116 17.0813 16.7839V17.5294C17.0813 17.6916 16.9765 17.8351 16.8222 17.8847C16.7245 17.9157 14.3864 18.6478 9.99817 18.6478C5.60998 18.6478 3.27181 17.9157 3.17413 17.8847C3.01979 17.8351 2.91504 17.6916 2.91504 17.5294V16.7839C2.91504 14.1116 5.08919 11.9375 7.76139 11.9375Z" fill="url(#paint0_linear_24490_56798)"/>
<defs>
<linearGradient id="paint0_linear_24490_56798" x1="9.99817" y1="1.50157" x2="9.99817" y2="18.6483" gradientUnits="userSpaceOnUse">
<stop stop-color="#F5F5F5"/>
<stop offset="1" stop-color="#F5F5F5" stop-opacity="0.4"/>
</linearGradient>
</defs>
</svg>
