<svg width="328" height="332" viewBox="0 0 328 332" fill="none" xmlns="http://www.w3.org/2000/svg">
<g style="mix-blend-mode:plus-lighter" opacity="0.05" filter="url(#filter0_f_24117_69433)">
<ellipse cx="226.2" cy="144.153" rx="226.2" ry="144.153" transform="matrix(-0.84641 -0.532531 -0.302237 0.953233 420.57 31.8164)" fill="#667FCC"/>
<path d="M-5.49121 -71.4234C-17.4528 -33.6975 -6.99679 13.9302 19.7098 60.4974C46.4126 107.058 89.325 152.483 142.127 185.704C194.928 218.925 247.582 233.627 290.018 230.566C332.46 227.504 364.617 206.687 376.579 168.961C388.54 131.235 378.084 83.6078 351.378 37.0405C324.675 -9.52008 281.763 -54.9448 228.961 -88.1657C176.159 -121.387 123.506 -136.089 81.0699 -133.028C38.6277 -129.966 6.47037 -109.149 -5.49121 -71.4234Z" stroke="url(#paint0_radial_24117_69433)" stroke-opacity="0.6"/>
</g>
<g style="mix-blend-mode:plus-lighter" opacity="0.11" filter="url(#filter1_f_24117_69433)">
<ellipse cx="102.511" cy="61.6101" rx="102.511" ry="61.6101" transform="matrix(-0.880586 -0.473886 -0.261743 0.965138 366.51 16.0781)" fill="#E6ECFF"/>
<path d="M170.284 -21.3802C165.895 -5.19585 171.86 14.8989 185.219 34.3658C198.571 53.8224 219.257 72.5622 244.118 85.9412C268.98 99.3203 293.266 104.782 312.427 102.822C331.597 100.861 345.554 91.4877 349.943 75.3034C354.333 59.1191 348.367 39.0243 335.008 19.5574C321.656 0.100793 300.97 -18.639 276.109 -32.018C251.248 -45.3971 226.961 -50.8592 207.8 -48.8992C188.63 -46.9382 174.673 -37.5645 170.284 -21.3802Z" stroke="url(#paint1_radial_24117_69433)" stroke-opacity="0.6"/>
</g>
<g style="mix-blend-mode:plus-lighter" opacity="0.1" filter="url(#filter2_f_24117_69433)">
<ellipse cx="78.7131" cy="36.0651" rx="78.7131" ry="36.0651" transform="matrix(-0.992917 -0.11881 -0.0601915 0.998187 331.01 -38.2168)" fill="#C2D1FF"/>
<path d="M173.024 -20.8614C172.444 -11.2343 180.402 -1.34169 194.118 6.84498C207.792 15.0064 227.015 21.3558 248.543 23.9317C270.07 26.5076 289.778 24.8166 304.233 20.021C318.733 15.2107 327.762 7.35065 328.342 -2.27645C328.923 -11.9036 320.965 -21.7962 307.249 -29.9828C293.574 -38.1443 274.351 -44.4937 252.824 -47.0696C231.297 -49.6455 211.589 -47.9544 197.133 -43.1589C182.633 -38.3485 173.605 -30.4885 173.024 -20.8614Z" stroke="url(#paint2_radial_24117_69433)" stroke-opacity="0.6"/>
</g>
<g style="mix-blend-mode:plus-lighter" opacity="0.2" filter="url(#filter3_f_24117_69433)">
<path d="M260.601 34.0688L34.6306 7.61958L329.971 -70.4469L339.294 27.47L335.45 91.8658L326.956 77.3C312.857 53.1238 288.649 37.3517 260.601 34.0688Z" fill="url(#paint3_linear_24117_69433)"/>
<path d="M260.601 34.0688L34.6306 7.61958L329.971 -70.4469L339.294 27.47L335.45 91.8658L326.956 77.3C312.857 53.1238 288.649 37.3517 260.601 34.0688Z" stroke="url(#paint4_radial_24117_69433)" stroke-opacity="0.6"/>
</g>
<defs>
<filter id="filter0_f_24117_69433" x="-110.852" y="-233.969" width="592.792" height="565.475" filterUnits="userSpaceOnUse" color-interpolation-filters="sRGB">
<feFlood flood-opacity="0" result="BackgroundImageFix"/>
<feBlend mode="normal" in="SourceGraphic" in2="BackgroundImageFix" result="shape"/>
<feGaussianBlur stdDeviation="50" result="effect1_foregroundBlur_24117_69433"/>
</filter>
<filter id="filter1_f_24117_69433" x="78.3987" y="-139.824" width="363.43" height="333.571" filterUnits="userSpaceOnUse" color-interpolation-filters="sRGB">
<feFlood flood-opacity="0" result="BackgroundImageFix"/>
<feBlend mode="normal" in="SourceGraphic" in2="BackgroundImageFix" result="shape"/>
<feGaussianBlur stdDeviation="45" result="effect1_foregroundBlur_24117_69433"/>
</filter>
<filter id="filter2_f_24117_69433" x="82.4971" y="-138.773" width="336.373" height="254.407" filterUnits="userSpaceOnUse" color-interpolation-filters="sRGB">
<feFlood flood-opacity="0" result="BackgroundImageFix"/>
<feBlend mode="normal" in="SourceGraphic" in2="BackgroundImageFix" result="shape"/>
<feGaussianBlur stdDeviation="45" result="effect1_foregroundBlur_24117_69433"/>
</filter>
<filter id="filter3_f_24117_69433" x="-5.46716" y="-111.075" width="385.257" height="244.635" filterUnits="userSpaceOnUse" color-interpolation-filters="sRGB">
<feFlood flood-opacity="0" result="BackgroundImageFix"/>
<feBlend mode="normal" in="SourceGraphic" in2="BackgroundImageFix" result="shape"/>
<feGaussianBlur stdDeviation="20" result="effect1_foregroundBlur_24117_69433"/>
</filter>
<radialGradient id="paint0_radial_24117_69433" cx="0" cy="0" r="1" gradientUnits="userSpaceOnUse" gradientTransform="translate(362.05 -49.1884) rotate(133.077) scale(322.229 529.332)">
<stop offset="0.107419" stop-color="#D8D1FA" stop-opacity="0.8"/>
<stop offset="0.415285" stop-color="#5F527A" stop-opacity="0.3"/>
<stop offset="1" stop-color="#A894D1" stop-opacity="0.1"/>
</radialGradient>
<radialGradient id="paint1_radial_24117_69433" cx="0" cy="0" r="1" gradientUnits="userSpaceOnUse" gradientTransform="translate(337.734 -17.6745) rotate(132.005) scale(140.089 237.326)">
<stop offset="0.107419" stop-color="#D8D1FA" stop-opacity="0.8"/>
<stop offset="0.415285" stop-color="#5F527A" stop-opacity="0.3"/>
<stop offset="1" stop-color="#A894D1" stop-opacity="0.1"/>
</radialGradient>
<radialGradient id="paint2_radial_24117_69433" cx="0" cy="0" r="1" gradientUnits="userSpaceOnUse" gradientTransform="translate(302.935 -51.2966) rotate(125.703) scale(93.2549 164.252)">
<stop offset="0.107419" stop-color="#D8D1FA" stop-opacity="0.8"/>
<stop offset="0.415285" stop-color="#5F527A" stop-opacity="0.3"/>
<stop offset="1" stop-color="#A894D1" stop-opacity="0.1"/>
</radialGradient>
<linearGradient id="paint3_linear_24117_69433" x1="328.5" y1="34.7562" x2="120.65" y2="11.2569" gradientUnits="userSpaceOnUse">
<stop stop-color="#49455B"/>
<stop offset="0.929268" stop-color="#49455B" stop-opacity="0.2"/>
</linearGradient>
<radialGradient id="paint4_radial_24117_69433" cx="0" cy="0" r="1" gradientUnits="userSpaceOnUse" gradientTransform="translate(85.0047 -46.2919) rotate(55.8284) scale(198.551 330.66)">
<stop offset="0.107419" stop-color="#D8D1FA" stop-opacity="0.8"/>
<stop offset="0.415285" stop-color="#5F527A" stop-opacity="0.3"/>
<stop offset="1" stop-color="#A894D1" stop-opacity="0.1"/>
</radialGradient>
</defs>
</svg>
