<svg width="647" height="207" viewBox="0 0 647 207" fill="none" xmlns="http://www.w3.org/2000/svg">
<g clip-path="url(#clip0_27833_20018)">
<path d="M340.985 52.009C340.985 59.4685 335.123 65.4775 327.847 65.4775C320.57 65.4775 314.709 59.4685 314.709 52.009C314.709 44.5495 320.368 38.5405 327.847 38.5405C335.325 38.7477 340.985 44.7568 340.985 52.009ZM286.816 79.1532C286.816 80.3964 286.816 82.4685 286.816 82.4685C286.816 82.4685 280.55 74.1802 267.21 74.1802C245.178 74.1802 227.997 91.3784 227.997 115.207C227.997 138.829 244.976 156.234 267.21 156.234C280.752 156.234 286.816 147.739 286.816 147.739V151.261C286.816 152.919 288.028 154.162 289.645 154.162H306.017V76.2523C306.017 76.2523 291.06 76.2523 289.645 76.2523C288.028 76.2523 286.816 77.7027 286.816 79.1532ZM286.816 129.09C283.784 133.649 277.72 137.586 270.444 137.586C257.508 137.586 247.604 129.297 247.604 115.207C247.604 101.117 257.508 92.8288 270.444 92.8288C277.518 92.8288 283.986 96.973 286.816 101.324V129.09ZM318.145 76.2523H337.549V154.162H318.145V76.2523ZM607.991 74.1802C594.651 74.1802 588.385 82.4685 588.385 82.4685V38.7477H568.981V154.162C568.981 154.162 583.938 154.162 585.353 154.162C586.97 154.162 588.183 152.712 588.183 151.261V147.739C588.183 147.739 594.449 156.234 607.789 156.234C629.821 156.234 647.001 138.829 647.001 115.207C647.001 91.5856 629.821 74.1802 607.991 74.1802ZM604.757 137.378C597.279 137.378 591.417 133.441 588.385 128.883V101.117C591.417 96.973 597.885 92.6216 604.757 92.6216C617.693 92.6216 627.597 100.91 627.597 115C627.597 129.09 617.693 137.378 604.757 137.378ZM558.875 107.955V154.369H539.471V110.234C539.471 97.3874 535.429 92.2072 524.514 92.2072C518.652 92.2072 512.589 95.3153 508.748 99.8739V154.162H489.344V76.2523H504.706C506.323 76.2523 507.535 77.7027 507.535 79.1532V82.4685C513.195 76.4595 520.673 74.1802 528.152 74.1802C536.641 74.1802 543.716 76.6667 549.375 81.6396C556.247 87.4414 558.875 94.9009 558.875 107.955ZM442.249 74.1802C428.909 74.1802 422.643 82.4685 422.643 82.4685V38.7477H403.239V154.162C403.239 154.162 418.196 154.162 419.611 154.162C421.228 154.162 422.441 152.712 422.441 151.261V147.739C422.441 147.739 428.707 156.234 442.047 156.234C464.079 156.234 481.259 138.829 481.259 115.207C481.461 91.5856 464.281 74.1802 442.249 74.1802ZM439.015 137.378C431.537 137.378 425.675 133.441 422.643 128.883V101.117C425.675 96.973 432.143 92.6216 439.015 92.6216C451.951 92.6216 461.855 100.91 461.855 115C461.855 129.09 451.951 137.378 439.015 137.378ZM386.463 74.1802C392.325 74.1802 395.356 75.2162 395.356 75.2162V93.6577C395.356 93.6577 379.186 88.0631 369.08 99.8739V154.369H349.676V76.2523C349.676 76.2523 364.634 76.2523 366.048 76.2523C367.665 76.2523 368.878 77.7027 368.878 79.1532V82.4685C372.516 78.1171 380.399 74.1802 386.463 74.1802ZM184.945 147.117C183.934 144.631 182.924 141.937 181.913 139.658C180.296 135.928 178.679 132.405 177.264 129.09L177.062 128.883C163.116 97.8018 148.158 66.3063 132.393 35.2252L131.786 33.982C130.169 30.8739 128.552 27.5586 126.935 24.2432C124.914 20.5135 122.893 16.5766 119.659 12.8468C113.191 4.55856 103.893 0 93.989 0C83.8828 0 74.7872 4.55856 68.1171 12.4324C65.0853 16.1622 62.8619 20.0991 60.8406 23.8288C59.2236 27.1441 57.6067 30.4595 55.9897 33.5676L55.3833 34.8108C39.8197 65.8919 24.6604 97.3874 10.7138 128.468L10.5117 128.883C9.09681 132.198 7.47982 135.721 5.86282 139.45C4.8522 141.73 3.84158 144.216 2.83096 146.91C0.203343 154.577 -0.605154 161.829 0.405467 169.288C2.62883 184.829 12.7351 197.883 26.6816 203.685C31.9369 205.964 37.3942 207 43.0537 207C44.6707 207 46.6919 206.793 48.3089 206.586C54.979 205.757 61.8513 203.477 68.5214 199.541C76.8085 194.775 84.6913 187.937 93.5848 177.991C102.478 187.937 110.563 194.775 118.648 199.541C125.318 203.477 132.191 205.757 138.861 206.586C140.478 206.793 142.499 207 144.116 207C149.775 207 155.435 205.964 160.488 203.685C174.637 197.883 184.541 184.622 186.764 169.288C188.381 162.036 187.573 154.784 184.945 147.117ZM93.7869 157.892C82.8722 143.802 75.7978 130.541 73.3724 119.351C72.3617 114.586 72.1596 110.441 72.766 106.712C73.1702 103.396 74.383 100.495 76 98.009C79.8403 92.4144 86.3083 88.8919 93.7869 88.8919C101.266 88.8919 107.936 92.2072 111.574 98.009C113.191 100.495 114.404 103.396 114.808 106.712C115.414 110.441 115.212 114.793 114.201 119.351C111.776 130.333 104.702 143.595 93.7869 157.892ZM174.435 167.631C173.02 178.405 165.945 187.73 156.041 191.874C151.19 193.946 145.935 194.568 140.68 193.946C135.627 193.324 130.574 191.667 125.318 188.559C118.042 184.414 110.765 177.991 102.276 168.459C115.616 151.676 123.701 136.342 126.733 122.667C128.148 116.243 128.35 110.441 127.744 105.054C126.935 99.8739 125.116 95.1081 122.286 90.964C116.021 81.6396 105.51 76.2523 93.7869 76.2523C82.0637 76.2523 71.5532 81.8468 65.2874 90.964C62.4576 95.1081 60.6385 99.8739 59.83 105.054C59.0215 110.441 59.2236 116.45 60.8406 122.667C63.8725 136.342 72.1596 151.883 85.2977 168.667C77.0106 178.198 69.532 184.622 62.2555 188.766C57.0003 191.874 51.9472 193.532 46.8941 194.153C41.4367 194.775 36.1815 193.946 31.5326 192.081C21.6285 187.937 14.5542 178.613 13.1393 167.838C12.5329 162.658 12.9372 157.477 14.9584 151.676C15.5648 149.604 16.5754 147.532 17.586 145.045C19.0009 141.73 20.6179 138.207 22.2349 134.685L22.437 134.27C36.3836 103.396 51.3408 71.9009 66.9044 41.2342L67.5107 39.991C69.1277 36.8829 70.7447 33.5676 72.3617 30.4595C73.9787 27.1441 75.7978 24.036 78.0212 21.3423C82.2658 16.3694 87.9253 13.6757 94.1912 13.6757C100.457 13.6757 106.116 16.3694 110.361 21.3423C112.584 24.036 114.404 27.1441 116.021 30.4595C117.638 33.5676 119.255 36.8829 120.872 39.991L121.478 41.2342C136.839 72.1081 151.797 103.604 165.743 134.477V134.685C167.36 138 168.775 141.73 170.392 145.045C171.403 147.532 172.413 149.604 173.02 151.676C174.637 157.063 175.243 162.243 174.435 167.631Z" fill="white"/>
</g>
<defs>
<clipPath id="clip0_27833_20018">
<rect width="647" height="207" fill="white"/>
</clipPath>
</defs>
</svg>
