<svg width="104" height="62" viewBox="0 0 104 62" fill="none" xmlns="http://www.w3.org/2000/svg">
<g clip-path="url(#clip0_27800_7197)">
<path d="M29.5545 22.6196C29.5545 23.88 29.6914 24.902 29.9308 25.6514C30.2045 26.4009 30.5466 27.2185 31.0256 28.1042C31.1966 28.3767 31.2651 28.6492 31.2651 28.8877C31.2651 29.2284 31.0598 29.569 30.6151 29.9097L28.4598 31.3404C28.1519 31.5448 27.844 31.647 27.5703 31.647C27.2282 31.647 26.8861 31.4767 26.544 31.1701C26.0651 30.6591 25.6545 30.1141 25.3124 29.569C24.9703 28.9899 24.6282 28.3426 24.2519 27.5591C21.5835 30.6932 18.2308 32.2602 14.194 32.2602C11.3203 32.2602 9.02821 31.4426 7.35189 29.8075C5.67558 28.1723 4.82031 25.9921 4.82031 23.2668C4.82031 20.3712 5.84663 18.0207 7.93347 16.2492C10.0203 14.4778 12.7914 13.5921 16.315 13.5921C17.4782 13.5921 18.6756 13.6943 19.9414 13.8646C21.2072 14.035 22.5072 14.3075 23.8756 14.6141V12.1273C23.8756 9.53825 23.3282 7.73275 22.2677 6.67671C21.1729 5.62067 19.3256 5.10968 16.6914 5.10968C15.494 5.10968 14.2624 5.24594 12.9966 5.55253C11.7308 5.85913 10.4993 6.23385 9.30189 6.71078C8.75452 6.94924 8.344 7.0855 8.10452 7.15363C7.86505 7.22176 7.694 7.25583 7.55715 7.25583C7.07821 7.25583 6.83873 6.91517 6.83873 6.19979V4.53056C6.83873 3.9855 6.90715 3.57671 7.07821 3.33825C7.24926 3.09979 7.55715 2.86133 8.0361 2.62286C9.23347 2.00968 10.6703 1.49869 12.3466 1.0899C14.0229 0.647039 15.8019 0.442644 17.6835 0.442644C21.7545 0.442644 24.7308 1.36242 26.6466 3.20198C28.5282 5.04154 29.4861 7.83495 29.4861 11.5822V22.6196H29.5545ZM15.665 27.7976C16.794 27.7976 17.9572 27.5932 19.1887 27.1844C20.4203 26.7756 21.515 26.0262 22.4387 25.0042C22.9861 24.3569 23.3966 23.6415 23.6019 22.824C23.8072 22.0064 23.944 21.0185 23.944 19.8602V18.4295C22.9519 18.191 21.8914 17.9866 20.7966 17.8503C19.7019 17.7141 18.6414 17.6459 17.5808 17.6459C15.2887 17.6459 13.6124 18.0888 12.4835 19.0086C11.3545 19.9284 10.8072 21.2229 10.8072 22.9262C10.8072 24.5273 11.2177 25.7196 12.0729 26.5372C12.894 27.3888 14.0914 27.7976 15.665 27.7976ZM43.1361 31.4767C42.5203 31.4767 42.1098 31.3745 41.8361 31.1361C41.5624 30.9317 41.3229 30.4547 41.1177 29.8075L33.0782 3.47451C32.8729 2.79319 32.7703 2.35034 32.7703 2.11187C32.7703 1.56682 33.044 1.26023 33.5914 1.26023H36.944C37.594 1.26023 38.0387 1.36242 38.2782 1.60089C38.5519 1.80528 38.7572 2.2822 38.9624 2.92946L44.7098 25.4811L50.0466 2.92946C50.2177 2.24814 50.4229 1.80528 50.6966 1.60089C50.9703 1.39649 51.4493 1.26023 52.065 1.26023H54.8019C55.4519 1.26023 55.8966 1.36242 56.1703 1.60089C56.444 1.80528 56.6835 2.2822 56.8203 2.92946L62.2256 25.7536L68.144 2.92946C68.3493 2.24814 68.5887 1.80528 68.8282 1.60089C69.1019 1.39649 69.5466 1.26023 70.1624 1.26023H73.344C73.8914 1.26023 74.1993 1.53275 74.1993 2.11187C74.1993 2.2822 74.165 2.45253 74.1308 2.65693C74.0966 2.86133 74.0282 3.13385 73.8914 3.50858L65.6466 29.8415C65.4414 30.5229 65.2019 30.9657 64.9282 31.1701C64.6545 31.3745 64.2098 31.5108 63.6282 31.5108H60.6861C60.0361 31.5108 59.5914 31.4086 59.3177 31.1701C59.044 30.9317 58.8045 30.4888 58.6677 29.8075L53.365 7.83495L48.0966 29.7734C47.9256 30.4547 47.7203 30.8976 47.4466 31.1361C47.1729 31.3745 46.694 31.4767 46.0782 31.4767H43.1361ZM87.0966 32.3965C85.3177 32.3965 83.5387 32.1921 81.8282 31.7833C80.1177 31.3745 78.7835 30.9317 77.894 30.4207C77.3466 30.1141 76.9703 29.7734 76.8335 29.4668C76.6966 29.1602 76.6282 28.8196 76.6282 28.513V26.7756C76.6282 26.0602 76.9019 25.7196 77.415 25.7196C77.6203 25.7196 77.8256 25.7536 78.0308 25.8218C78.2361 25.8899 78.544 26.0262 78.8861 26.1624C80.0493 26.6734 81.315 27.0822 82.6493 27.3547C84.0177 27.6273 85.3519 27.7635 86.7203 27.7635C88.8756 27.7635 90.5519 27.3888 91.715 26.6393C92.8782 25.8899 93.494 24.7998 93.494 23.4031C93.494 22.4492 93.1861 21.6657 92.5703 21.0185C91.9545 20.3712 90.7914 19.7921 89.1151 19.247L84.1545 17.7141C81.6572 16.9306 79.8098 15.7723 78.6808 14.2393C77.5519 12.7404 76.9703 11.0712 76.9703 9.29979C76.9703 7.86902 77.2782 6.60858 77.894 5.51847C78.5098 4.42836 79.3308 3.47451 80.3572 2.72506C81.3835 1.94154 82.5466 1.36242 83.915 0.953633C85.2835 0.544841 86.7203 0.374512 88.2256 0.374512C88.9782 0.374512 89.7651 0.408578 90.5177 0.510775C91.3045 0.612973 92.0229 0.749237 92.7414 0.885501C93.4256 1.05583 94.0756 1.22616 94.6914 1.43056C95.3072 1.63495 95.7861 1.83935 96.1282 2.04374C96.6072 2.31627 96.9493 2.5888 97.1545 2.89539C97.3598 3.16792 97.4624 3.54264 97.4624 4.01957V5.62067C97.4624 6.33605 97.1887 6.71078 96.6756 6.71078C96.4019 6.71078 95.9572 6.57451 95.3756 6.30198C93.4256 5.41627 91.2361 4.97341 88.8072 4.97341C86.8572 4.97341 85.3177 5.28001 84.2572 5.92726C83.1966 6.57451 82.6493 7.56242 82.6493 8.95913C82.6493 9.91297 82.9914 10.7306 83.6756 11.3778C84.3598 12.0251 85.6256 12.6723 87.4387 13.2514L92.2966 14.7844C94.7598 15.5679 96.5387 16.658 97.5993 18.0547C98.6598 19.4514 99.1729 21.0525 99.1729 22.824C99.1729 24.2888 98.865 25.6174 98.2835 26.7756C97.6677 27.9339 96.8466 28.9558 95.7861 29.7734C94.7256 30.6251 93.4598 31.2382 91.9887 31.6811C90.4493 32.158 88.8414 32.3965 87.0966 32.3965Z" fill="white"/>
<path fill-rule="evenodd" clip-rule="evenodd" d="M93.5655 48.9525C82.3102 57.2305 65.9576 61.625 51.8971 61.625C32.1918 61.625 14.4365 54.369 1.026 42.3096C-0.0345238 41.3558 0.923371 40.0613 2.18916 40.8107C16.6944 49.191 34.5865 54.2668 53.0944 54.2668C65.5813 54.2668 79.2997 51.6778 91.9234 46.3635C93.805 45.5118 95.4128 47.5899 93.5655 48.9525Z" fill="white"/>
<path fill-rule="evenodd" clip-rule="evenodd" d="M98.2556 43.638C96.8187 41.7985 88.745 42.7523 85.0845 43.1952C83.9898 43.3314 83.8187 42.3776 84.8108 41.6622C91.2424 37.1655 101.813 38.46 103.045 39.9589C104.277 41.4919 102.703 52.0183 96.6819 57.06C95.7582 57.8435 94.8687 57.4347 95.2792 56.4128C96.6477 53.0402 99.6924 45.4435 98.2556 43.638Z" fill="white"/>
</g>
<defs>
<clipPath id="clip0_27800_7197">
<rect width="104" height="62" fill="white"/>
</clipPath>
</defs>
</svg>
