<svg xmlns="http://www.w3.org/2000/svg" xmlns:xlink="http://www.w3.org/1999/xlink" width="500" zoomAndPan="magnify" viewBox="0 0 375 374.999991" height="500" preserveAspectRatio="xMidYMid meet" version="1.0"><defs><clipPath id="095ccd04b9"><path d="M 131.25 131.25 L 243.75 131.25 L 243.75 243.75 L 131.25 243.75 Z M 131.25 131.25 " clip-rule="nonzero"/></clipPath><clipPath id="2aefa27e19"><path d="M 187.5 131.25 C 156.433594 131.25 131.25 156.433594 131.25 187.5 C 131.25 218.566406 156.433594 243.75 187.5 243.75 C 218.566406 243.75 243.75 218.566406 243.75 187.5 C 243.75 156.433594 218.566406 131.25 187.5 131.25 Z M 187.5 131.25 " clip-rule="nonzero"/></clipPath></defs><g clip-path="url(#095ccd04b9)"><g clip-path="url(#2aefa27e19)"><path fill="#ff006a" d="M 131.25 131.25 L 243.75 131.25 L 243.75 243.75 L 131.25 243.75 Z M 131.25 131.25 " fill-opacity="1" fill-rule="nonzero"/></g></g><path fill="#9acdf4" d="M 187.5 0 C 84.226562 0 0 84.226562 0 187.5 C 0 290.769531 84.226562 375 187.5 375 C 290.769531 375 375 290.769531 375 187.5 C 375 84.226562 290.769531 0 187.5 0 Z M 187.5 0 " fill-opacity="1" fill-rule="evenodd"/><path fill="#f8cba4" d="M 156.738281 248.289062 C 155.273438 248.289062 153.808594 248.289062 153.074219 247.558594 C 150.144531 245.359375 148.679688 241.699219 150.878906 238.769531 L 161.863281 218.992188 C 164.0625 215.332031 167.722656 214.597656 170.652344 216.0625 C 174.316406 218.261719 175.046875 221.921875 173.582031 225.585938 L 172.117188 227.78125 C 184.570312 222.65625 202.148438 217.527344 203.613281 216.0625 C 207.273438 214.597656 210.9375 215.332031 213.132812 218.992188 L 224.121094 238.769531 C 225.585938 241.699219 224.851562 245.359375 221.921875 247.558594 C 220.457031 248.289062 219.726562 248.289062 218.261719 248.289062 C 216.0625 248.289062 186.035156 283.445312 185.300781 281.25 L 177.976562 269.53125 L 177.246094 271.726562 C 175.78125 273.925781 158.933594 248.289062 156.738281 248.289062 Z M 156.738281 248.289062 " fill-opacity="1" fill-rule="evenodd"/><path fill="#e3ba97" d="M 156.738281 227.78125 L 161.863281 218.992188 C 164.0625 215.332031 167.722656 214.597656 170.652344 216.0625 C 174.316406 218.261719 175.046875 221.921875 173.582031 225.585938 L 172.117188 227.78125 C 184.570312 222.65625 202.148438 217.527344 203.613281 216.0625 C 207.273438 214.597656 210.9375 215.332031 213.132812 218.992188 L 218.261719 228.515625 C 208.738281 234.375 198.484375 237.304688 188.230469 237.304688 C 177.976562 237.304688 166.992188 234.375 156.738281 227.78125 Z M 156.738281 227.78125 " fill-opacity="1" fill-rule="evenodd"/><path fill="#5fd3ae" d="M 62.988281 328.125 L 62.988281 307.617188 C 62.988281 306.882812 63.722656 285.644531 85.691406 273.925781 L 132.566406 247.558594 L 153.074219 235.839844 C 156.003906 234.375 159.667969 235.105469 161.863281 237.304688 L 187.5 270.261719 L 213.132812 237.304688 C 215.332031 235.105469 218.992188 234.375 221.921875 235.839844 L 242.429688 247.558594 L 289.304688 273.925781 C 311.277344 285.644531 312.011719 306.882812 312.011719 307.617188 L 312.011719 328.125 C 278.320312 357.421875 235.105469 375 187.5 375 C 139.890625 375 96.679688 357.421875 62.988281 328.125 Z M 62.988281 328.125 " fill-opacity="1" fill-rule="evenodd"/><path fill="#54b193" d="M 126.707031 250.488281 L 132.566406 247.558594 L 137.695312 244.628906 L 151.609375 236.570312 C 153.074219 235.839844 155.273438 235.105469 156.738281 235.105469 C 158.933594 235.105469 160.398438 235.839844 161.863281 237.304688 L 187.5 270.261719 L 210.203125 240.964844 L 210.9375 240.964844 L 213.132812 238.035156 C 213.867188 237.304688 214.597656 236.570312 216.0625 235.839844 C 217.527344 235.105469 219.726562 235.105469 221.191406 235.839844 L 221.921875 235.839844 L 236.570312 243.894531 L 242.429688 247.558594 L 248.289062 250.488281 L 194.089844 348.632812 C 191.160156 355.222656 183.835938 354.492188 181.640625 349.363281 Z M 126.707031 250.488281 " fill-opacity="1" fill-rule="evenodd"/><path fill="#f8cba4" d="M 188.230469 232.910156 C 161.863281 232.910156 131.835938 213.132812 127.441406 169.921875 C 125.976562 160.398438 127.441406 151.609375 128.171875 142.820312 C 128.90625 139.890625 131.835938 136.960938 135.496094 137.695312 L 186.765625 128.90625 L 239.5 137.695312 C 242.429688 136.960938 246.09375 139.160156 246.824219 142.820312 C 247.558594 151.609375 248.289062 160.398438 247.558594 169.1875 C 243.164062 213.132812 214.597656 232.175781 188.230469 232.910156 Z M 188.230469 232.910156 " fill-opacity="1" fill-rule="evenodd"/><path fill="#c75c5c" d="M 175.78125 157.46875 C 174.316406 157.46875 173.582031 157.46875 172.851562 156.738281 C 170.652344 156.738281 169.1875 155.273438 167.722656 153.808594 C 165.527344 150.144531 166.257812 145.75 167.722656 139.890625 C 147.214844 150.144531 132.566406 153.074219 123.777344 147.214844 C 120.117188 145.019531 115.722656 139.160156 117.1875 127.441406 C 119.382812 106.933594 129.636719 90.085938 147.949219 79.101562 C 162.597656 71.042969 180.90625 66.648438 197.753906 67.382812 C 218.992188 68.847656 232.175781 76.902344 232.175781 89.355469 C 232.175781 90.085938 232.175781 90.820312 232.175781 91.550781 C 252.683594 95.945312 260.007812 111.328125 258.542969 125.242188 C 256.347656 141.355469 240.964844 157.46875 218.261719 155.273438 C 216.0625 155.273438 213.867188 154.539062 212.402344 153.074219 C 209.472656 149.414062 209.472656 145.019531 210.203125 141.355469 C 210.203125 140.625 210.203125 139.890625 210.203125 139.890625 C 206.542969 141.355469 200.683594 145.019531 196.289062 147.214844 C 188.230469 153.074219 181.640625 157.46875 175.78125 157.46875 Z M 175.78125 157.46875 " fill-opacity="1" fill-rule="evenodd"/><path fill="#54b193" d="M 62.988281 307.617188 L 62.988281 328.125 C 72.507812 336.179688 82.761719 343.503906 94.480469 350.097656 C 93.75 315.671875 86.425781 284.910156 83.496094 274.65625 C 63.722656 287.109375 62.988281 306.882812 62.988281 307.617188 Z M 62.988281 307.617188 " fill-opacity="1" fill-rule="evenodd"/><path fill="#54b193" d="M 312.011719 307.617188 L 312.011719 328.125 C 302.488281 336.179688 292.234375 343.503906 280.515625 350.097656 C 281.25 315.671875 288.574219 284.910156 291.503906 274.65625 C 311.277344 287.109375 312.011719 306.882812 312.011719 307.617188 Z M 312.011719 307.617188 " fill-opacity="1" fill-rule="evenodd"/></svg>