<svg width="77" height="26" viewBox="0 0 77 26" fill="none" xmlns="http://www.w3.org/2000/svg">
<g clip-path="url(#clip0_14628_15169)">
<path fill-rule="evenodd" clip-rule="evenodd" d="M24.8434 0.8125H0.429688V25.1875H24.8434V0.8125ZM10.1545 14.5428C10.0147 14.8188 10.2092 15.1442 10.5197 15.1442C10.6405 15.1442 10.7545 15.0918 10.8334 15.0007C11.2756 14.4898 12.7257 12.7066 12.8771 11.1371C12.8866 11.0519 12.8925 10.9654 12.8925 10.8775C12.8925 10.8061 12.8884 10.7426 12.8827 10.683C12.7744 9.37419 11.5926 8.36855 10.2147 8.54738C9.15906 8.68457 8.30814 9.54837 8.18763 10.602C8.03981 11.8972 8.95005 13.0129 10.1683 13.2005C10.3567 13.2298 10.4793 13.4123 10.4267 13.5949L10.1545 14.5428ZM14.7773 10.8835C15.0877 10.8835 15.2821 11.2089 15.1424 11.4848L14.8702 12.4327C14.8175 12.6154 14.9402 12.7979 15.1286 12.8272C16.3468 13.0148 17.257 14.1304 17.1093 15.4255C16.9888 16.4793 16.1378 17.3431 15.0822 17.4803C13.7043 17.6591 12.5224 16.6534 12.4142 15.3446C12.4084 15.285 12.4044 15.2216 12.4044 15.1502C12.4044 15.0623 12.4103 14.9758 12.4196 14.8905C12.5712 13.3211 14.0211 11.5378 14.4635 11.0269C14.5425 10.9359 14.6565 10.8835 14.7773 10.8835Z" fill="url(#paint0_linear_14628_15169)"/>
</g>
<path d="M33.1016 7.55469H35.8761L38.8066 14.6928H38.9313L41.8617 7.55469H44.6363V18.1789H42.4541V11.2638H42.3657L39.6119 18.127H38.1259L35.3721 11.2379H35.2838V18.1789H33.1016V7.55469Z" fill="url(#paint1_linear_14628_15169)"/>
<path d="M48.7241 18.3293C48.2149 18.3293 47.7612 18.2412 47.3628 18.0648C46.9645 17.8849 46.6493 17.6204 46.4172 17.2711C46.1886 16.9183 46.0743 16.4791 46.0743 15.9534C46.0743 15.5107 46.1557 15.139 46.3185 14.8381C46.4813 14.5372 46.703 14.2951 46.9835 14.1118C47.2641 13.9285 47.5828 13.7902 47.9396 13.6968C48.2998 13.6034 48.6774 13.5377 49.0723 13.4997C49.5364 13.4513 49.9105 13.4063 50.1945 13.3648C50.4786 13.3198 50.6847 13.2541 50.8129 13.1677C50.941 13.0812 51.0051 12.9533 51.0051 12.7838V12.7527C51.0051 12.4241 50.9012 12.1699 50.6933 11.9901C50.489 11.8103 50.198 11.7203 49.8204 11.7203C49.4221 11.7203 49.1052 11.8085 48.8696 11.9849C48.6341 12.1578 48.4782 12.3757 48.402 12.6385L46.3548 12.4725C46.4587 11.9884 46.6631 11.5699 46.9679 11.2171C47.2728 10.8609 47.6659 10.5877 48.1474 10.3975C48.6323 10.2038 49.1935 10.107 49.8308 10.107C50.2742 10.107 50.6985 10.1589 51.1038 10.2626C51.5126 10.3664 51.8745 10.5272 52.1897 10.7451C52.5084 10.9629 52.7596 11.2431 52.9431 11.5855C53.1267 11.9244 53.2185 12.3307 53.2185 12.8045V18.1789H51.1194V17.0739H51.0571C50.9289 17.3229 50.7574 17.5426 50.5427 17.7328C50.3279 17.9195 50.0698 18.0665 49.7685 18.1737C49.4671 18.2775 49.119 18.3293 48.7241 18.3293ZM49.358 16.8042C49.6836 16.8042 49.9711 16.7402 50.2205 16.6122C50.4699 16.4808 50.6656 16.3044 50.8077 16.0831C50.9497 15.8618 51.0207 15.611 51.0207 15.3309V14.4853C50.9514 14.5303 50.8562 14.5718 50.7349 14.6098C50.6171 14.6444 50.4838 14.6773 50.3348 14.7084C50.1859 14.7361 50.0369 14.762 49.888 14.7862C49.739 14.807 49.604 14.826 49.4827 14.8433C49.2229 14.8813 48.996 14.9418 48.8021 15.0248C48.6081 15.1078 48.4574 15.2202 48.35 15.362C48.2426 15.5004 48.189 15.6733 48.189 15.8808C48.189 16.1817 48.2981 16.4117 48.5163 16.5707C48.738 16.7264 49.0186 16.8042 49.358 16.8042Z" fill="url(#paint2_linear_14628_15169)"/>
<path d="M59.1807 10.2107V11.8708H54.3746V10.2107H59.1807ZM55.4657 8.3017H57.6791V15.7304C57.6791 15.9344 57.7103 16.0935 57.7727 16.2076C57.835 16.3183 57.9216 16.3961 58.0325 16.4411C58.1468 16.486 58.2784 16.5085 58.4273 16.5085C58.5313 16.5085 58.6352 16.4998 58.7391 16.4826C58.843 16.4618 58.9227 16.4462 58.9781 16.4359L59.3262 18.0803C59.2154 18.1149 59.0595 18.1547 58.8586 18.1996C58.6577 18.2481 58.4135 18.2775 58.126 18.2878C57.5925 18.3086 57.1249 18.2377 56.7231 18.0751C56.3248 17.9126 56.0147 17.6601 55.7931 17.3178C55.5714 16.9754 55.4623 16.5431 55.4657 16.0209V8.3017Z" fill="url(#paint3_linear_14628_15169)"/>
<path d="M64.1739 18.3345C63.353 18.3345 62.6464 18.1685 62.054 17.8365C61.4652 17.5011 61.0114 17.0273 60.6927 16.4151C60.3741 15.7995 60.2147 15.0715 60.2147 14.2311C60.2147 13.4115 60.3741 12.6921 60.6927 12.0731C61.0114 11.454 61.46 10.9716 62.0384 10.6257C62.6204 10.2799 63.3028 10.107 64.0856 10.107C64.6121 10.107 65.1023 10.1917 65.556 10.3612C66.0133 10.5272 66.4116 10.7779 66.7511 11.1134C67.094 11.4488 67.3607 11.8708 67.5512 12.3792C67.7417 12.8841 67.837 13.4755 67.837 14.1533V14.7603H61.098V13.3907H65.7535C65.7535 13.0726 65.6842 12.7907 65.5456 12.5452C65.4071 12.2996 65.2148 12.1077 64.9689 11.9693C64.7264 11.8275 64.4441 11.7566 64.122 11.7566C63.786 11.7566 63.4881 11.8345 63.2283 11.9901C62.972 12.1423 62.7711 12.348 62.6256 12.6074C62.4801 12.8633 62.4056 13.1487 62.4022 13.4634V14.7655C62.4022 15.1597 62.4749 15.5004 62.6204 15.7874C62.7693 16.0745 62.9789 16.2958 63.2491 16.4514C63.5193 16.6071 63.8397 16.6849 64.2103 16.6849C64.4562 16.6849 64.6814 16.6503 64.8858 16.5811C65.0901 16.5119 65.2651 16.4082 65.4105 16.2699C65.556 16.1315 65.6669 15.9621 65.7431 15.7615L67.7902 15.8964C67.6863 16.3874 67.4733 16.8163 67.1511 17.1829C66.8325 17.546 66.4203 17.8296 65.9145 18.0336C65.4123 18.2342 64.8321 18.3345 64.1739 18.3345Z" fill="url(#paint4_linear_14628_15169)"/>
<path d="M72.8873 18.3345C72.0803 18.3345 71.3823 18.1633 70.7934 17.821C70.208 17.4751 69.756 16.9944 69.4373 16.3788C69.1186 15.7597 68.9593 15.0421 68.9593 14.2259C68.9593 13.4028 69.1186 12.6835 69.4373 12.0679C69.756 11.4488 70.208 10.9681 70.7934 10.6257C71.3823 10.2799 72.0803 10.107 72.8873 10.107C73.6944 10.107 74.3907 10.2799 74.9761 10.6257C75.5649 10.9681 76.0187 11.4488 76.3374 12.0679C76.6561 12.6835 76.8154 13.4028 76.8154 14.2259C76.8154 15.0421 76.6561 15.7597 76.3374 16.3788C76.0187 16.9944 75.5649 17.4751 74.9761 17.821C74.3907 18.1633 73.6944 18.3345 72.8873 18.3345ZM72.8977 16.6226C73.2649 16.6226 73.5715 16.5189 73.8174 16.3114C74.0633 16.1004 74.2487 15.8134 74.3734 15.4502C74.5015 15.0871 74.5656 14.6738 74.5656 14.2104C74.5656 13.747 74.5015 13.3337 74.3734 12.9705C74.2487 12.6074 74.0633 12.3204 73.8174 12.1094C73.5715 11.8984 73.2649 11.793 72.8977 11.793C72.5271 11.793 72.2154 11.8984 71.9625 12.1094C71.7131 12.3204 71.5243 12.6074 71.3961 12.9705C71.2714 13.3337 71.2091 13.747 71.2091 14.2104C71.2091 14.6738 71.2714 15.0871 71.3961 15.4502C71.5243 15.8134 71.7131 16.1004 71.9625 16.3114C72.2154 16.5189 72.5271 16.6226 72.8977 16.6226Z" fill="url(#paint5_linear_14628_15169)"/>
<defs>
<linearGradient id="paint0_linear_14628_15169" x1="12.6365" y1="0.8125" x2="12.6365" y2="25.1875" gradientUnits="userSpaceOnUse">
<stop stop-color="white"/>
<stop offset="1" stop-color="white" stop-opacity="0.8"/>
</linearGradient>
<linearGradient id="paint1_linear_14628_15169" x1="54.9585" y1="7.55469" x2="54.9585" y2="18.3345" gradientUnits="userSpaceOnUse">
<stop stop-color="white"/>
<stop offset="1" stop-color="white" stop-opacity="0.8"/>
</linearGradient>
<linearGradient id="paint2_linear_14628_15169" x1="54.9585" y1="7.55469" x2="54.9585" y2="18.3345" gradientUnits="userSpaceOnUse">
<stop stop-color="white"/>
<stop offset="1" stop-color="white" stop-opacity="0.8"/>
</linearGradient>
<linearGradient id="paint3_linear_14628_15169" x1="54.9585" y1="7.55469" x2="54.9585" y2="18.3345" gradientUnits="userSpaceOnUse">
<stop stop-color="white"/>
<stop offset="1" stop-color="white" stop-opacity="0.8"/>
</linearGradient>
<linearGradient id="paint4_linear_14628_15169" x1="54.9585" y1="7.55469" x2="54.9585" y2="18.3345" gradientUnits="userSpaceOnUse">
<stop stop-color="white"/>
<stop offset="1" stop-color="white" stop-opacity="0.8"/>
</linearGradient>
<linearGradient id="paint5_linear_14628_15169" x1="54.9585" y1="7.55469" x2="54.9585" y2="18.3345" gradientUnits="userSpaceOnUse">
<stop stop-color="white"/>
<stop offset="1" stop-color="white" stop-opacity="0.8"/>
</linearGradient>
<clipPath id="clip0_14628_15169">
<rect width="24.4137" height="24.375" fill="white" transform="translate(0.445312 0.8125)"/>
</clipPath>
</defs>
</svg>
