<svg width="77" height="26" viewBox="0 0 77 26" fill="none" xmlns="http://www.w3.org/2000/svg">
<g clip-path="url(#clip0_14628_15156)">
<mask id="mask0_14628_15156" style="mask-type:luminance" maskUnits="userSpaceOnUse" x="-1" y="2" width="78" height="23">
<path d="M76.5755 2.43848H-0.164062V24.143H76.5755V2.43848Z" fill="white"/>
</mask>
<g mask="url(#mask0_14628_15156)">
<path fill-rule="evenodd" clip-rule="evenodd" d="M62.2175 3.44856C63.0372 3.87784 63.7564 4.42323 64.3657 5.07611C64.5337 5.25654 64.472 5.54507 64.2569 5.6466L63.2599 6.11774C63.125 6.18151 62.9675 6.15215 62.8634 6.04969C62.4326 5.62758 61.9367 5.26827 61.3763 4.9749L61.3746 4.97393L61.3734 4.97327L61.3716 4.97232L61.3711 4.97225C60.3624 4.45032 59.252 4.1956 58.0631 4.1956C56.8845 4.1956 55.7888 4.45137 54.8005 4.97873L54.7949 4.98176L54.7892 4.98484C54.257 5.277 53.7861 5.63144 53.3779 6.04476C53.2734 6.15061 53.1134 6.18178 52.9762 6.1166L51.9853 5.64553C51.7727 5.54453 51.7103 5.26006 51.8744 5.07908C52.4522 4.44181 53.136 3.90384 53.9174 3.4749L53.9322 3.46681L53.9473 3.45876C55.2193 2.78 56.6127 2.46289 58.0631 2.46289C59.52 2.46289 60.9193 2.77714 62.203 3.44106L62.2042 3.44143L62.21 3.44441L62.2175 3.44856ZM8.14677 7.08882C7.42961 6.70317 6.61402 6.51034 5.69994 6.51034C5.01089 6.51034 4.35698 6.64603 3.73824 6.91741C3.24096 7.14059 2.81501 7.43622 2.46039 7.8043C2.38292 7.8847 2.2406 7.83118 2.2406 7.71867V6.82308C2.2406 6.75686 2.18774 6.70317 2.12254 6.70317H-0.0460016C-0.111205 6.70317 -0.164062 6.75686 -0.164062 6.82308V18.3883C-0.164062 18.4544 -0.111205 18.5082 -0.0460016 18.5082H2.12254C2.18774 18.5082 2.2406 18.4544 2.2406 18.3883V11.9094C2.2406 10.8524 2.50076 10.0454 3.02106 9.48836C3.55543 8.91707 4.27262 8.63139 5.17261 8.63139C6.07259 8.63139 6.78273 8.91707 7.30304 9.48836C7.82336 10.0454 8.08352 10.8524 8.08352 11.9094V18.3883C8.08352 18.4544 8.13636 18.5082 8.20159 18.5082H10.349C10.4142 18.5082 10.4671 18.4544 10.4671 18.3883V11.5451C10.4671 10.4739 10.2632 9.55981 9.85539 8.8028C9.44756 8.04578 8.87801 7.47446 8.14677 7.08882ZM31.5945 15.9977C31.5578 16.1051 31.4082 16.1051 31.3715 15.9977L28.22 6.78462C28.2035 6.73639 28.1587 6.70406 28.1084 6.70406H25.7901C25.7074 6.70406 25.6504 6.78804 25.6797 6.8665L29.9987 18.4317C30.016 18.4782 30.06 18.509 30.109 18.509H32.8149C32.8639 18.509 32.9078 18.4783 32.9253 18.4318L37.2648 6.86668C37.2944 6.78819 37.2372 6.70406 37.1546 6.70406H34.8576C34.8073 6.70406 34.7625 6.73639 34.746 6.78462L31.5945 15.9977ZM38.3281 12.5521C38.3281 11.3666 38.5672 10.3168 39.0453 9.40269C39.5374 8.48857 40.1984 7.78154 41.028 7.28163C41.8718 6.76744 42.7999 6.51035 43.8124 6.51035C44.7264 6.51035 45.5209 6.69602 46.196 7.06738C46.7663 7.36289 47.2401 7.72198 47.6177 8.14464C47.6936 8.22962 47.8413 8.17708 47.8413 8.06235V6.82308C47.8413 6.75685 47.8941 6.70316 47.9594 6.70316H50.1489C50.2142 6.70316 50.267 6.75685 50.267 6.82308V18.3882C50.267 18.4545 50.2142 18.5081 50.1489 18.5081H47.9594C47.8941 18.5081 47.8413 18.4545 47.8413 18.3882V17.1135C47.8413 16.9981 47.6917 16.9459 47.6163 17.0322C47.2367 17.4662 46.7563 17.8369 46.1749 18.144C45.4717 18.5153 44.6702 18.7009 43.7702 18.7009C42.7718 18.7009 41.8578 18.4439 41.028 17.9297C40.1984 17.4012 39.5374 16.6727 39.0453 15.7444C38.5672 14.8017 38.3281 13.7376 38.3281 12.5521ZM47.8413 12.5949C47.8413 11.7808 47.6725 11.0738 47.3351 10.4739C47.0116 9.87402 46.5827 9.41694 46.0484 9.10269C45.514 8.78851 44.9374 8.63141 44.3186 8.63141C43.6999 8.63141 43.1234 8.78851 42.589 9.10269C42.0546 9.40269 41.6187 9.85261 41.2811 10.4525C40.9578 11.0381 40.7961 11.738 40.7961 12.5521C40.7961 13.3662 40.9578 14.0804 41.2811 14.6945C41.6187 15.3087 42.0546 15.7801 42.589 16.1086C43.1374 16.4229 43.7139 16.5799 44.3186 16.5799C44.9374 16.5799 45.514 16.4229 46.0484 16.1086C46.5827 15.7944 47.0116 15.3373 47.3351 14.7375C47.6725 14.1232 47.8413 13.4091 47.8413 12.5949ZM76.4746 6.87016C76.5071 6.79116 76.4501 6.70406 76.3658 6.70406H74.1352C74.0857 6.70406 74.0421 6.73468 74.0247 6.78104L70.7702 15.4048C70.7313 15.5081 70.5865 15.5072 70.5493 15.4034L67.417 6.78246C67.3995 6.73535 67.3553 6.70406 67.3059 6.70406H64.884C64.8003 6.70406 64.7433 6.78978 64.7741 6.86855L69.2686 18.2706C69.2802 18.2999 69.2802 18.3325 69.268 18.3616L66.9926 23.8919C66.96 23.9709 67.017 24.0581 67.1013 24.0581H69.3343C69.382 24.0581 69.425 24.0289 69.4436 23.9843L76.4746 6.87016ZM18.5718 18.7009C17.4749 18.7009 16.4836 18.4511 15.5976 17.9511C14.7117 17.437 14.0156 16.7227 13.5094 15.8086C13.0031 14.8803 12.75 13.809 12.75 12.5949C12.75 11.3952 13.0102 10.3311 13.5305 9.40269C14.0508 8.47426 14.7609 7.76011 15.6609 7.2602C16.5609 6.76029 17.5664 6.51035 18.6773 6.51035C19.7882 6.51035 20.7937 6.76029 21.6937 7.2602C22.5937 7.76011 23.3038 8.47426 23.8241 9.40269C24.3444 10.3311 24.6046 11.3952 24.6046 12.5949C24.6046 13.7947 24.3374 14.8588 23.803 15.7871C23.2686 16.7157 22.5374 17.437 21.6093 17.9511C20.6953 18.4511 19.6828 18.7009 18.5718 18.7009ZM18.5718 16.5799C19.1906 16.5799 19.7671 16.4299 20.3015 16.13C20.8499 15.8301 21.2929 15.3802 21.6304 14.7802C21.9678 14.1804 22.1366 13.4519 22.1366 12.5949C22.1366 11.738 21.9749 11.0167 21.6514 10.4311C21.3281 9.83114 20.8992 9.38127 20.3648 9.08128C19.8303 8.78135 19.2539 8.63141 18.6351 8.63141C18.0164 8.63141 17.4398 8.78135 16.9054 9.08128C16.3851 9.38127 15.9702 9.83114 15.6609 10.4311C15.3516 11.0167 15.1968 11.738 15.1968 12.5949C15.1968 13.8661 15.5132 14.8517 16.146 15.5516C16.7929 16.2371 17.6014 16.5799 18.5718 16.5799ZM53.3422 9.40269C52.8641 10.3168 52.625 11.3809 52.625 12.5949C52.625 13.809 52.8641 14.8803 53.3422 15.8086C53.8344 16.7227 54.5094 17.437 55.3672 17.9511C56.225 18.4511 57.2094 18.7009 58.3204 18.7009C59.6982 18.7009 60.8516 18.351 61.7794 17.6511C62.6683 16.9675 63.2857 16.0613 63.6334 14.9327C63.6567 14.8566 63.5997 14.7802 63.5218 14.7802H61.1661C61.1161 14.7802 61.0725 14.8119 61.0539 14.8587C60.5941 16.0491 59.6831 16.6442 58.3204 16.6442C57.336 16.6442 56.5484 16.2871 55.9578 15.573C55.3812 14.8588 55.0929 13.8661 55.0929 12.5949C55.0929 11.3238 55.3812 10.3382 55.9578 9.63833C56.5484 8.92419 57.336 8.56712 58.3204 8.56712C59.0232 8.56712 59.6069 8.73137 60.0708 9.05987C60.5144 9.37359 60.8417 9.80451 61.0545 10.3526C61.0725 10.3995 61.1167 10.4311 61.1661 10.4311H63.5253C63.6026 10.4311 63.659 10.3567 63.6375 10.2812C63.3038 9.09724 62.6916 8.1831 61.801 7.53873C60.8865 6.85313 59.7267 6.51035 58.3204 6.51035C57.2094 6.51035 56.225 6.76029 55.3672 7.2602C54.5094 7.76011 53.8344 8.47426 53.3422 9.40269ZM22.6586 21.5566L22.6654 21.5531L22.6596 21.5559L22.6586 21.5566ZM24.9279 20.1352C24.3189 20.788 23.5996 21.3334 22.7801 21.7627L22.7722 21.7669L22.7664 21.7699L22.7657 21.7702C21.4817 22.4341 20.0828 22.7484 18.6256 22.7484C17.1752 22.7484 15.7818 22.4313 14.5098 21.7525L14.4948 21.7445L14.48 21.7364C13.6985 21.3075 13.0147 20.7695 12.4369 20.1322C12.2728 19.9513 12.3353 19.6667 12.5478 19.5657L13.5386 19.0947C13.6758 19.0295 13.836 19.0607 13.9404 19.1666C14.3485 19.5799 14.8195 19.9342 15.3517 20.2264L15.3574 20.2296L15.3631 20.2326C16.3513 20.76 17.4471 21.0156 18.6256 21.0156C19.8148 21.0156 20.9248 20.7609 21.9338 20.239L21.9359 20.238L21.9372 20.2373L21.939 20.2364C22.499 19.943 22.9951 19.5837 23.4257 19.1616C23.5301 19.0591 23.6875 19.0297 23.8226 19.0935L24.8196 19.5646C25.0345 19.6662 25.0961 19.9547 24.9279 20.1352Z" fill="url(#paint0_linear_14628_15156)"/>
</g>
</g>
<defs>
<linearGradient id="paint0_linear_14628_15156" x1="38.1599" y1="2.46289" x2="38.1599" y2="24.0581" gradientUnits="userSpaceOnUse">
<stop stop-color="white"/>
<stop offset="1" stop-color="white" stop-opacity="0.8"/>
</linearGradient>
<clipPath id="clip0_14628_15156">
<rect width="76.375" height="26" fill="white" transform="translate(0.203125)"/>
</clipPath>
</defs>
</svg>
