<svg width="88" height="26" viewBox="0 0 88 26" fill="none" xmlns="http://www.w3.org/2000/svg">
<path fill-rule="evenodd" clip-rule="evenodd" d="M16.9413 17.6031C17.0722 17.6817 17.2171 17.7195 17.3589 17.7195C17.6377 17.7195 17.9088 17.5748 18.0615 17.3137C18.9059 15.8806 19.3515 14.2368 19.3515 12.5615C19.3515 7.42405 15.2135 3.24609 10.1266 3.24609C8.48292 3.24609 6.86883 3.68811 5.45885 4.52496C5.06934 4.7562 4.93847 5.26271 5.1675 5.65597C5.39652 6.04922 5.8982 6.18136 6.2877 5.95012C7.44685 5.26271 8.77427 4.89934 10.1266 4.89934C14.3114 4.89934 17.7156 8.33797 17.7156 12.5631C17.7156 13.9427 17.3495 15.2939 16.6562 16.4721C16.4256 16.8638 16.5534 17.3703 16.9413 17.6031ZM0.859375 12.6183C0.859375 17.7542 4.99898 21.9322 10.0859 21.9322C11.7451 21.9322 13.3732 21.4823 14.7926 20.6313C15.1805 20.3969 15.3083 19.8904 15.0777 19.4987C14.8455 19.107 14.3439 18.978 13.9559 19.2108C12.789 19.9108 11.4507 20.2805 10.0843 20.2805C5.89795 20.2805 2.49372 16.8434 2.49372 12.6183C2.49372 11.2435 2.85829 9.89539 3.54848 8.71876C3.77907 8.32708 3.64975 7.82057 3.26181 7.58776C2.87387 7.35495 2.37219 7.48394 2.14161 7.8772C1.30341 9.30865 0.859375 10.9477 0.859375 12.6183ZM10.0759 18.5121C9.3686 18.5121 8.66282 18.3831 7.996 18.1282C7.57378 17.9662 7.36189 17.4896 7.52237 17.0633C7.68284 16.637 8.15491 16.4231 8.57713 16.5851C9.49168 16.9359 10.467 16.9579 11.3987 16.648C13.6141 15.9119 14.8216 13.4941 14.094 11.2588C14.082 11.2202 14.0684 11.1823 14.0549 11.1446L14.0549 11.1446L14.0549 11.1446L14.0379 11.0968C13.879 10.669 14.094 10.1939 14.5178 10.0335C14.9416 9.87458 15.4121 10.0901 15.571 10.518C15.599 10.5919 15.624 10.6674 15.6489 10.7429L15.6489 10.7429L15.6489 10.7429L15.6489 10.7429L15.6489 10.7429C16.66 13.8449 14.9836 17.197 11.9113 18.2179C11.3161 18.413 10.696 18.5121 10.0759 18.5121ZM4.56 14.6221C4.68153 14.9556 4.99468 15.1632 5.3281 15.1632C5.42158 15.1632 5.51661 15.1475 5.60854 15.1129C6.03231 14.9556 6.25043 14.4805 6.09463 14.0527L6.07281 13.9881L6.05101 13.9237C5.32342 11.6884 6.53243 9.27068 8.74635 8.5345C9.66868 8.22933 10.6253 8.24349 11.5165 8.57855C11.9402 8.73742 12.4108 8.52034 12.5681 8.09248C12.7255 7.66462 12.5105 7.18957 12.0867 7.03069C10.845 6.5635 9.51289 6.54148 8.23532 6.9662C5.16295 7.98709 3.48654 11.3408 4.49768 14.4412C4.51794 14.5057 4.53663 14.5592 4.56 14.6221ZM10.0881 15.1098C11.4657 15.1098 12.5825 13.9823 12.5825 12.5914C12.5825 11.2005 11.4657 10.073 10.0881 10.073C8.71051 10.073 7.59375 11.2005 7.59375 12.5914C7.59375 13.9823 8.71051 15.1098 10.0881 15.1098ZM24.399 18.5385C24.1809 18.5385 24.0703 18.4284 24.0703 18.2066V7.98194C24.0703 7.80576 24.1357 7.67206 24.3118 7.60599C25.4289 7.05386 26.8077 6.76599 28.1429 6.76599C28.8222 6.76599 29.5436 6.81004 30.3755 6.94217C30.5718 6.96419 30.6607 7.09633 30.6607 7.27408V8.86598C30.6607 9.06576 30.5298 9.17587 30.3101 9.13182C29.7632 9.04373 29.1276 9.04373 28.5371 9.04373C27.7488 9.04373 27.0258 9.17587 26.6114 9.35362V18.2082C26.6114 18.43 26.5023 18.5401 26.2827 18.5401H24.399V18.5385ZM43.8927 18.5133C43.6746 18.5133 43.564 18.4032 43.564 18.1814V8.00554C43.564 7.82936 43.6294 7.69565 43.8055 7.60756C45.0753 7.05543 46.6068 6.74554 48.1617 6.74554C51.1826 6.74554 53.2407 8.15969 53.2407 11.6974V18.1814C53.2407 18.4032 53.1317 18.5133 52.9338 18.5133H51.0284C50.8321 18.5133 50.6996 18.4032 50.6996 18.1814V11.7415C50.6996 9.66351 49.7586 9.04373 48.1601 9.04373C47.4154 9.04373 46.6052 9.15385 46.102 9.28755V18.1814C46.102 18.4032 45.9929 18.5133 45.7733 18.5133H43.8927ZM77.8104 6.75184C80.5463 6.75184 82.5171 8.36576 82.5171 11.4599V18.1893C82.5171 18.4095 82.4081 18.5212 82.2102 18.5212H80.3048C80.1085 18.5212 79.9978 18.4111 79.9978 18.1893V11.3718C79.9978 9.93564 79.3186 9.07205 77.7434 9.07205C77.0205 9.07205 76.3864 9.24823 75.8162 9.62418C76.0062 10.2015 76.1028 10.8071 76.1013 11.4143V18.1877C76.1013 18.4079 75.9922 18.5196 75.7725 18.5196H73.8905C73.6942 18.5196 73.5617 18.4095 73.5617 18.1877V11.3718C73.5617 9.75789 72.817 9.05003 71.3946 9.05003C70.6498 9.05003 70.0812 9.16014 69.6434 9.29384V18.1893C69.6434 18.4095 69.5343 18.5212 69.3146 18.5212H67.431C67.2129 18.5212 67.1023 18.4111 67.1023 18.1893V8.01183C67.1023 7.83565 67.1677 7.70194 67.3656 7.61385C68.5699 7.08374 69.9487 6.75184 71.3276 6.75184C72.6191 6.75184 73.6926 7.12779 74.5012 7.76801C75.5996 7.08374 76.5406 6.75184 77.8104 6.75184ZM61.4265 12.3219L65.4274 7.02869C65.4274 7.02869 64.6032 6.61341 62.3379 6.82105L58.7498 11.699C58.7498 11.699 58.6891 11.7934 58.6377 11.9428H58.6049V5.08758L58.6034 5.08443V3.7977C58.6034 3.75208 58.594 3.70961 58.5785 3.66871C58.5613 3.62781 58.5255 3.59792 58.4834 3.58534C58.0752 3.47208 57.653 3.41388 57.2292 3.41388C56.8366 3.41388 56.458 3.46264 56.1012 3.55073C56.0638 3.56017 56.0311 3.58219 56.0109 3.61523C55.9782 3.67028 55.961 3.73163 55.961 3.79612V5.45724L55.9605 5.46049C55.9592 5.47016 55.9579 5.47894 55.9579 5.49027V18.1877C55.9579 18.3041 55.9875 18.3906 56.0436 18.4488C56.1012 18.507 56.1869 18.5354 56.3022 18.5354H58.2793C58.3946 18.5354 58.4803 18.507 58.5379 18.4488C58.5691 18.4142 58.5925 18.3733 58.6049 18.3277V12.6758H58.6205C58.6501 12.7639 58.6906 12.8552 58.7514 12.9464C59.1627 13.5709 62.2522 17.9392 62.2522 17.9392L62.6635 18.356C62.6635 18.356 63.899 18.7713 65.753 18.356L61.4265 12.3219ZM36.2835 16.5549C37.0079 16.5549 37.843 16.4212 38.3914 16.2891V13.7817C37.7979 13.6936 36.9425 13.6055 36.2617 13.6055C34.6133 13.6055 33.9558 14.1592 33.9558 15.0684C33.9558 16.1098 34.9436 16.5549 36.2835 16.5549ZM36.3707 6.77229C39.0941 6.77229 40.9388 8.14711 40.9388 11.2743V18.0446C40.9388 18.2223 40.8515 18.3545 40.6973 18.4221C39.5553 18.776 37.9085 18.7933 36.2819 18.7933C33.7346 18.7933 31.3836 17.8637 31.3836 15.0889C31.3836 12.6727 33.3825 11.5401 36.1931 11.5401C36.9176 11.5401 37.7293 11.6298 38.3899 11.7194V11.2963C38.3899 9.72171 37.8197 9.05632 36.1931 9.05632C35.0947 9.05632 34.0851 9.34575 33.3825 9.76575C33.2282 9.87586 33.0537 9.85384 32.9431 9.67766L32.0644 8.32486C31.9538 8.14554 31.9538 8.03542 32.0644 7.94733C33.1207 7.21745 34.5915 6.77229 36.3707 6.77229ZM86.7737 3.42625C86.9856 3.43883 87.1943 3.464 87.3984 3.50333C87.6197 3.54423 87.777 3.74243 87.777 3.9658V5.39882C87.777 5.62376 87.6181 5.81882 87.3984 5.86129C87.1242 5.9132 86.8469 5.94152 86.568 5.94466H86.4434C86.1598 5.94152 85.8825 5.91163 85.613 5.86129C85.3917 5.82039 85.2344 5.62219 85.2344 5.39882V3.9658C85.2344 3.74086 85.3933 3.5458 85.613 3.50333C85.8171 3.464 86.0258 3.43883 86.2377 3.42625H86.7737ZM85.4914 6.78183C86.1536 6.9234 86.8391 6.9234 87.5028 6.78183C87.6399 6.75194 87.7677 6.85733 87.7692 6.99733V18.0321C87.7677 18.3105 87.5417 18.5355 87.266 18.5339H85.7314C85.4525 18.5339 85.2266 18.3089 85.2266 18.0321V6.99733C85.2266 6.9816 85.2281 6.96587 85.2312 6.95171C85.2562 6.83216 85.373 6.75666 85.4914 6.78183Z" fill="url(#paint0_linear_14628_15119)"/>
<defs>
<linearGradient id="paint0_linear_14628_15119" x1="44.3182" y1="3.24609" x2="44.3182" y2="21.9322" gradientUnits="userSpaceOnUse">
<stop stop-color="white"/>
<stop offset="1" stop-color="white" stop-opacity="0.8"/>
</linearGradient>
</defs>
</svg>
