<svg width="32" height="32" viewBox="0 0 32 32" fill="none" xmlns="http://www.w3.org/2000/svg">
<g clip-path="url(#clip0_19894_17397)">
<path d="M30 11H16C15.4696 11 14.9609 11.2107 14.5858 11.5858C14.2107 11.9609 14 12.4696 14 13V26C14 26.5304 14.2107 27.0391 14.5858 27.4142C14.9609 27.7893 15.4696 28 16 28H23L29 32V28H30C30.5304 28 31.0391 27.7893 31.4142 27.4142C31.7893 27.0391 32 26.5304 32 26V13C32 12.4696 31.7893 11.9609 31.4142 11.5858C31.0391 11.2107 30.5304 11 30 11ZM25.365 24L24.692 21.791H21.308L20.635 24H18.515L21.791 14.682H24.2L27.485 24H25.365Z" fill="black"/>
<path d="M23.0008 16.125C22.8614 16.6657 22.4614 18.005 21.8008 20.143H24.2198C23.5978 18.143 23.2478 17.0097 23.1698 16.743C23.0918 16.4763 23.0354 16.2703 23.0008 16.125Z" fill="black"/>
<path d="M16 0H2C1.46957 0 0.960859 0.210714 0.585786 0.585786C0.210714 0.960859 0 1.46957 0 2L0 15C0 15.5304 0.210714 16.0391 0.585786 16.4142C0.960859 16.7893 1.46957 17 2 17H3V21L9 17H12V13.153C10.9617 12.7604 9.97906 12.2339 9.077 11.587C7.74505 12.508 6.2644 13.1927 4.7 13.611C4.46383 12.9056 4.10648 12.2467 3.644 11.664C5.01989 11.4144 6.3417 10.9268 7.55 10.223C6.99181 9.61547 6.51421 8.93857 6.129 8.209C5.81075 7.61023 5.55603 6.97979 5.369 6.328C4.72 6.328 4.346 6.35 3.796 6.395V4.4C4.32729 4.45798 4.86159 4.48403 5.396 4.478H7.823V3.82C7.82456 3.591 7.80244 3.36245 7.757 3.138H9.968C9.92368 3.35891 9.90157 3.58369 9.902 3.809V4.48H12.521C13.0538 4.4855 13.5864 4.45879 14.116 4.4V6.4C13.5965 6.35151 13.0748 6.32915 12.553 6.333C12.3983 7.07054 12.1468 7.7844 11.805 8.456C11.4802 9.10265 11.0695 9.70242 10.584 10.239C11.1886 10.5966 11.8312 10.8854 12.5 11.1C12.84 10.4671 13.3448 9.93781 13.9609 9.56816C14.577 9.1985 15.2815 9.0022 16 9H18V2C18 1.46957 17.7893 0.960859 17.4142 0.585786C17.0391 0.210714 16.5304 0 16 0Z" fill="black"/>
<path d="M9.02242 8.99012C9.69257 8.22886 10.1657 7.31481 10.4004 6.32812H7.48242C7.76657 7.32964 8.29586 8.24455 9.02242 8.99012Z" fill="black"/>
</g>
<defs>
<clipPath id="clip0_19894_17397">
<rect width="32" height="32" fill="white"/>
</clipPath>
</defs>
</svg>
