<svg width="30" height="30" viewBox="0 0 30 30" fill="none" xmlns="http://www.w3.org/2000/svg">
<g clip-path="url(#clip0_19893_16951)">
<path d="M1.875 4.6875H0V0.9375C0 0.42 0.419063 0 0.9375 0H4.6875V1.875H1.875V4.6875Z" fill="black"/>
<path d="M4.6875 27.1875H0.9375C0.419063 27.1875 0 26.7675 0 26.25V22.5H1.875V25.3125H4.6875V27.1875Z" fill="black"/>
<path d="M27.1875 4.6875H25.3125V1.875H22.5V0H26.25C26.7684 0 27.1875 0.42 27.1875 0.9375V4.6875Z" fill="black"/>
<path d="M12.1875 0H7.5V1.875H12.1875V0Z" fill="black"/>
<path d="M19.6875 0H15V1.875H19.6875V0Z" fill="black"/>
<path d="M12.1875 25.3125H7.5V27.1875H12.1875V25.3125Z" fill="black"/>
<path d="M1.875 7.5H0V12.1875H1.875V7.5Z" fill="black"/>
<path d="M1.875 15H0V19.6875H1.875V15Z" fill="black"/>
<path d="M27.1875 7.5H25.3125V12.1875H27.1875V7.5Z" fill="black"/>
<path d="M28.6509 26.6616L22.8281 20.8388L28.125 17.8125L14.0625 14.0625L17.8125 28.125L20.8397 22.8281L26.6625 28.6509C27.2119 29.2003 28.1016 29.2003 28.6509 28.6509C29.1994 28.1016 29.1994 27.2109 28.6509 26.6616Z" fill="black"/>
</g>
<defs>
<clipPath id="clip0_19893_16951">
<rect width="30" height="30" fill="white"/>
</clipPath>
</defs>
</svg>
