<svg xmlns="http://www.w3.org/2000/svg" width="155" height="154" fill="none" viewBox="0 0 155 154"><circle cx="77.5" cy="77" r="77" fill="black"/><g opacity=".2"><circle cx="77.5" cy="77" r="77" fill="url(#a)"/><circle cx="77.5" cy="77" r="77" fill="url(#b)"/></g><g opacity=".2"><circle cx="77.5" cy="77" r="62.176" fill="url(#c)"/><circle cx="77.5" cy="77" r="62.176" fill="url(#d)"/></g><circle cx="77.5" cy="77" r="47.353" fill="url(#e)"/><circle cx="77.5" cy="77" r="47.353" fill="url(#f)"/><path stroke="black" stroke-linecap="round" stroke-linejoin="round" stroke-width="4" d="M94.108 78.778 77 96.556 59.892 78.778A10.53 10.53 0 1 1 77 66.928a10.529 10.529 0 1 1 17.108 11.85Z"/><ellipse cx="113.323" cy="26.764" fill="url(#g)" rx="5.765" ry="6.176"/><ellipse cx="113.323" cy="26.764" fill="url(#h)" rx="5.765" ry="6.176"/><circle cx="42.089" cy="127.235" r="6.176" fill="url(#i)"/><circle cx="42.089" cy="127.235" r="6.176" fill="url(#j)"/><defs><linearGradient id="a" x1="154.5" x2=".5" y1="0" y2="154" gradientUnits="userSpaceOnUse"><stop offset=".211" stop-color="#FFBB33"/><stop offset=".552" stop-color="#E300BD"/><stop offset=".926" stop-color="#FF006A"/></linearGradient><linearGradient id="b" x1="77.5" x2="77.5" y1="0" y2="154" gradientUnits="userSpaceOnUse"><stop offset=".547" stop-opacity="0"/><stop offset="1" stop-opacity=".3"/></linearGradient><linearGradient id="c" x1="139.676" x2="15.323" y1="14.823" y2="139.176" gradientUnits="userSpaceOnUse"><stop offset=".211" stop-color="#FFBB33"/><stop offset=".552" stop-color="#E300BD"/><stop offset=".926" stop-color="#FF006A"/></linearGradient><linearGradient id="d" x1="77.5" x2="77.5" y1="14.823" y2="139.176" gradientUnits="userSpaceOnUse"><stop offset=".547" stop-opacity="0"/><stop offset="1" stop-opacity=".3"/></linearGradient><linearGradient id="e" x1="124.853" x2="30.148" y1="29.648" y2="124.353" gradientUnits="userSpaceOnUse"><stop offset=".211" stop-color="#FFBB33"/><stop offset=".552" stop-color="#E300BD"/><stop offset=".926" stop-color="#FF006A"/></linearGradient><linearGradient id="f" x1="77.5" x2="77.5" y1="29.648" y2="124.353" gradientUnits="userSpaceOnUse"><stop offset=".547" stop-opacity="0"/><stop offset="1" stop-opacity=".3"/></linearGradient><linearGradient id="g" x1="119.088" x2="106.764" y1="20.588" y2="32.09" gradientUnits="userSpaceOnUse"><stop offset=".117" stop-color="#FF006A"/><stop offset=".406" stop-color="#E300BD"/><stop offset=".754" stop-color="#FFBB33"/></linearGradient><linearGradient id="h" x1="113.323" x2="113.323" y1="20.588" y2="32.941" gradientUnits="userSpaceOnUse"><stop offset=".547" stop-opacity="0"/><stop offset="1" stop-opacity=".3"/></linearGradient><linearGradient id="i" x1="48.265" x2="35.912" y1="121.059" y2="133.412" gradientUnits="userSpaceOnUse"><stop offset=".383" stop-color="#FF006A"/><stop offset=".797" stop-color="#E300BD"/></linearGradient><linearGradient id="j" x1="42.089" x2="42.089" y1="121.059" y2="133.412" gradientUnits="userSpaceOnUse"><stop offset=".547" stop-opacity="0"/><stop offset="1" stop-opacity=".3"/></linearGradient></defs></svg>