<svg width="32" height="32" viewBox="0 0 32 32" fill="none" xmlns="http://www.w3.org/2000/svg">
<path d="M13.4766 15C17.3426 15 20.4766 11.866 20.4766 8C20.4766 4.13401 17.3426 1 13.4766 1C9.61057 1 6.47656 4.13401 6.47656 8C6.47656 11.866 9.61057 15 13.4766 15Z" fill="black"/>
<path d="M16.0008 25C16.0008 22.3 17.2018 19.88 19.0908 18.229C17.3798 17.447 15.4828 17 13.4758 17C6.20882 17 0.28982 22.692 0.000820264 29.96C-0.0101797 30.232 0.0898203 30.497 0.27882 30.693C0.46782 30.888 0.72782 31 0.99982 31H18.3118C16.8808 29.406 16.0008 27.306 16.0008 25Z" fill="black"/>
<path d="M32 26V24H29.9C29.7712 23.374 29.5226 22.7787 29.168 22.247L30.657 20.758L29.242 19.344L27.753 20.833C27.2214 20.478 26.6261 20.2291 26 20.1V18H24V20.1C23.374 20.2288 22.7787 20.4774 22.247 20.832L20.758 19.344L19.344 20.758L20.833 22.247C20.478 22.7786 20.2291 23.3739 20.1 24H18V26H20.1C20.2288 26.626 20.4774 27.2213 20.832 27.753L19.343 29.242L20.757 30.656L22.246 29.167C22.7779 29.5221 23.3735 29.771 24 29.9V32H26V29.9C26.626 29.7712 27.2213 29.5226 27.753 29.168L29.242 30.657L30.656 29.243L29.167 27.753C29.522 27.2214 29.7709 26.6261 29.9 26H32ZM25 27C24.6044 27 24.2178 26.8827 23.8889 26.6629C23.56 26.4432 23.3036 26.1308 23.1522 25.7654C23.0009 25.3999 22.9613 24.9978 23.0384 24.6098C23.1156 24.2219 23.3061 23.8655 23.5858 23.5858C23.8655 23.3061 24.2219 23.1156 24.6098 23.0384C24.9978 22.9613 25.3999 23.0009 25.7654 23.1522C26.1308 23.3036 26.4432 23.56 26.6629 23.8889C26.8827 24.2178 27 24.6044 27 25C27 25.5304 26.7893 26.0391 26.4142 26.4142C26.0391 26.7893 25.5304 27 25 27Z" fill="black"/>
</svg>
