<svg width="28" height="28" viewBox="0 0 28 28" fill="none" xmlns="http://www.w3.org/2000/svg">
<path d="M28 5.25V2.625C28 2.142 27.6089 1.75 27.125 1.75H6.125V5.25H28Z" fill="black"/>
<path d="M4.375 1.75H0.875C0.391125 1.75 0 2.142 0 2.625V5.25H4.375V1.75Z" fill="black"/>
<path d="M0 7V25.375C0 25.858 0.391125 26.25 0.875 26.25H27.125C27.6089 26.25 28 25.858 28 25.375V7H0ZM5.25 20.4872L4.01275 19.25L7.51275 15.75L4.01275 12.25L5.25 11.0128L9.98725 15.75L5.25 20.4872ZM17.5 20.125H10.5V18.375H17.5V20.125Z" fill="black"/>
</svg>
