<svg width="128" height="44" viewBox="0 0 128 44" fill="none" xmlns="http://www.w3.org/2000/svg">
<path fill-rule="evenodd" clip-rule="evenodd" d="M104.49 6.29297H103.043C102.491 6.29297 102.043 6.74068 102.043 7.29297V26.8382C102.043 27.3905 102.491 27.8382 103.043 27.8382H104.49C105.042 27.8382 105.49 27.3905 105.49 26.8382V7.29297C105.49 6.74068 105.042 6.29297 104.49 6.29297ZM46.3945 26.8381V16.0194V16.0188C46.3946 16.0096 46.4047 15.5265 47.5026 15.5265C48.8568 15.5265 48.8568 17.127 48.8568 17.127C48.8568 17.127 50.088 15.2803 53.0428 15.2803C55.6282 15.2803 57.1056 17.127 57.1056 17.127C57.1056 17.127 59.0754 15.2803 61.5377 15.2803C65.7809 15.2803 66.6057 19.3394 66.6989 19.8958C66.7061 19.9388 66.7086 19.9805 66.7086 20.0242V26.8381C66.7086 27.3903 66.2609 27.8381 65.7086 27.8381H64.2614C63.7091 27.8381 63.2614 27.3903 63.2614 26.8381V20.4511C63.2614 20.0818 62.6458 18.4813 60.9222 18.4813C58.8292 18.4813 58.3367 20.0818 58.3367 20.4511V26.8381C58.3367 27.3903 57.889 27.8381 57.3367 27.8381H55.8895C55.3372 27.8381 54.8895 27.3903 54.8895 26.8381V20.4511C54.8895 19.9587 54.1508 18.4813 52.4272 18.4813C50.7036 18.4813 49.8418 19.9587 49.8418 20.4511V26.8381C49.8418 27.3903 49.3941 27.8381 48.8418 27.8381H47.3945C46.8422 27.8381 46.3945 27.3903 46.3945 26.8381ZM78.0352 26.8381V16.0194V16.0188C78.0352 16.0096 78.0454 15.5265 79.1432 15.5265C80.4975 15.5265 80.4975 17.127 80.4975 17.127C80.4975 17.127 81.7286 15.2803 84.6834 15.2803C87.2688 15.2803 88.7462 17.127 88.7462 17.127C88.7462 17.127 90.7161 15.2803 93.1784 15.2803C97.4215 15.2803 98.2464 19.3394 98.3395 19.8958C98.3467 19.9388 98.3492 19.9805 98.3492 20.0242V26.8381C98.3492 27.3903 97.9015 27.8381 97.3492 27.8381H95.902C95.3497 27.8381 94.902 27.3903 94.902 26.8381V20.4511C94.902 20.0818 94.2864 18.4813 92.5628 18.4813C90.4698 18.4813 89.9774 20.0818 89.9774 20.4511V26.8381C89.9774 27.3903 89.5296 27.8381 88.9774 27.8381H87.5301C86.9778 27.8381 86.5301 27.3903 86.5301 26.8381V20.4511C86.5301 19.9587 85.7914 18.4813 84.0678 18.4813C82.3442 18.4813 81.4824 19.9587 81.4824 20.4511V26.8381C81.4824 27.3903 81.0347 27.8381 80.4824 27.8381H79.0352C78.4829 27.8381 78.0352 27.3903 78.0352 26.8381ZM71.4018 15.8955H72.849C73.4013 15.8955 73.849 16.3432 73.849 16.8955V32.2699C73.849 32.2699 73.849 37.5638 68.432 37.5638C66.879 37.5638 65.6688 36.9272 64.9868 36.4569C64.6047 36.1935 64.5418 35.6845 64.786 35.2899L65.4496 34.218C65.7378 33.7524 66.3478 33.6078 66.8538 33.8171C67.2372 33.9758 67.6842 34.1166 68.0626 34.1166C70.1058 34.1166 70.3698 32.5468 70.3986 32.3019C70.4012 32.2798 70.4018 32.2588 70.4018 32.2366V16.8955C70.4018 16.3432 70.8495 15.8955 71.4018 15.8955ZM72.0031 9.00195C70.8472 9.00195 69.9102 9.93901 69.9102 11.0949C69.9102 12.2508 70.8472 13.1879 72.0031 13.1879C73.159 13.1879 74.0961 12.2508 74.0961 11.0949C74.0961 9.93901 73.159 9.00195 72.0031 9.00195ZM108.814 25.1301C108.814 23.9742 109.752 23.0371 110.907 23.0371C112.063 23.0371 113 23.9742 113 25.1301C113 26.286 112.063 27.223 110.907 27.223C109.752 27.223 108.814 26.286 108.814 25.1301ZM15 13.6792C15 12.1834 16.2127 10.9707 17.7085 10.9707H29.5276C31.0235 10.9707 32.2362 12.1834 32.2362 13.6792C32.2362 15.1751 31.0235 16.3878 29.5276 16.3878H17.7085C16.2127 16.3878 15 15.1751 15 13.6792ZM15 29.9302C15 28.4343 16.2127 27.2217 17.7085 27.2217H29.5276C31.0235 27.2217 32.2362 28.4343 32.2362 29.9302C32.2362 31.4261 31.0235 32.6388 29.5276 32.6388H17.7085C16.2127 32.6388 15 31.4261 15 29.9302ZM25.3414 19.0967C23.8455 19.0967 22.6328 20.3093 22.6328 21.8052C22.6328 23.3011 23.8455 24.5138 25.3414 24.5138H37.1605C38.6563 24.5138 39.869 23.3011 39.869 21.8052C39.869 20.3093 38.6563 19.0967 37.1605 19.0967H25.3414ZM34.4531 13.6792C34.4531 12.1834 35.6658 10.9707 37.1617 10.9707C38.6576 10.9707 39.8702 12.1834 39.8702 13.6792C39.8702 15.1751 38.6576 16.3878 37.1617 16.3878C35.6658 16.3878 34.4531 15.1751 34.4531 13.6792ZM37.1617 27.2217C35.6658 27.2217 34.4531 28.4343 34.4531 29.9302C34.4531 31.4261 35.6658 32.6388 37.1617 32.6388C38.6576 32.6388 39.8702 31.4261 39.8702 29.9302C39.8702 28.4343 38.6576 27.2217 37.1617 27.2217ZM15 21.8052C15 20.3093 16.2127 19.0967 17.7085 19.0967C19.2044 19.0967 20.4171 20.3093 20.4171 21.8052C20.4171 23.3011 19.2044 24.5138 17.7085 24.5138C16.2127 24.5138 15 23.3011 15 21.8052Z" fill="url(#paint0_linear_18765_22666)"/>
<defs>
<linearGradient id="paint0_linear_18765_22666" x1="64.0654" y1="6.29297" x2="64.0654" y2="37.6396" gradientUnits="userSpaceOnUse">
<stop stop-color="white"/>
<stop offset="1" stop-color="white" stop-opacity="0.6"/>
</linearGradient>
</defs>
</svg>
