<svg width="128" height="44" viewBox="0 0 128 44" fill="none" xmlns="http://www.w3.org/2000/svg">
<g clip-path="url(#clip0_18765_22577)">
<path fill-rule="evenodd" clip-rule="evenodd" d="M33.4651 34.4842C33.4651 32.9705 33.4651 31.5837 33.2345 28.6252C32.9493 25.6531 31.4007 24.1467 28.7519 23.6174C31.8898 23.2102 34.2126 20.7674 34.2126 17.0217C34.2126 12.0139 30.9117 8.87891 24.2692 8.87891H11.9471V14.0979H23.0467C25.9808 14.0979 27.4478 15.3563 27.4478 17.4327C27.4478 19.7941 25.9808 20.686 23.0467 20.686H11.9471V26.0195H20.6627H22.7207C25.0435 26.0195 26.3068 26.6709 26.5106 29.6024C26.6647 31.6047 26.6454 32.5961 26.6268 33.547L26.6268 33.5471C26.6209 33.8529 26.615 34.1546 26.615 34.4842H33.4651ZM11.9471 30.5078V34.4838H20.6625V31.9392C20.6625 31.4045 20.3998 30.5078 19.19 30.5078H11.9471ZM109.45 25.0016L116.045 16.3701H109.246L106.152 20.6858L103.139 16.3701H95.851L102.406 25.2866L95.281 34.5287H102.08L105.704 29.6023L109.327 34.5287H116.615L109.45 25.0016ZM48.4369 28.0554C47.8262 29.4804 46.6862 30.0911 44.8948 30.0911C42.8998 30.0911 41.2712 29.0325 41.1084 26.7932H53.8519V24.9611C53.8519 20.0347 50.6355 15.8818 44.5691 15.8818C38.9098 15.8818 34.6756 19.994 34.6756 25.7347C34.6756 31.5161 38.8284 35.0175 44.6505 35.0175C49.4548 35.0175 52.7933 32.6968 53.7297 28.544L48.4369 28.0554ZM41.1898 23.6175C41.4341 21.9075 42.3705 20.6047 44.4877 20.6047C46.4419 20.6047 47.5005 21.9889 47.5819 23.6175H41.1898ZM73.2167 19.4647C72.4431 17.3475 70.7739 15.8818 67.5575 15.8818C64.8296 15.8818 62.8753 17.1033 61.8982 19.0982V16.3704H55.3025V34.5289H61.8982V25.6125C61.8982 22.8847 62.6718 21.0932 64.8296 21.0932C66.8246 21.0932 67.3132 22.3961 67.3132 24.8797V34.5289H73.9088V25.6125C73.9088 22.8847 74.6417 21.0932 76.8403 21.0932C78.8352 21.0932 79.2831 22.3961 79.2831 24.8797V34.5289H85.8788V23.1289C85.8788 19.3425 84.4131 15.8818 79.4052 15.8818C76.3517 15.8818 74.1938 17.429 73.2167 19.4647ZM88.0366 34.5288V16.3703H94.6323V34.5288H88.0366ZM94.673 14.6603H87.9959V8.87891H94.673V14.6603Z" fill="url(#paint0_linear_18765_22577)"/>
</g>
<defs>
<linearGradient id="paint0_linear_18765_22577" x1="64.3508" y1="8.87891" x2="64.3508" y2="35.0808" gradientUnits="userSpaceOnUse">
<stop stop-color="white"/>
<stop offset="1" stop-color="white" stop-opacity="0.6"/>
</linearGradient>
<clipPath id="clip0_18765_22577">
<rect width="104.807" height="26.2415" fill="white" transform="translate(11.9492 8.87891)"/>
</clipPath>
</defs>
</svg>
