<svg width="264" height="77" fill="none" xmlns="http://www.w3.org/2000/svg"><path fill="#262626" d="M0 42h264v1H0z"/><circle cx="206" cy="16" r="15.688" stroke="#333" stroke-width=".625"/><g clip-path="url(#a)"><path d="M204.249 9c-3.062.788-5.25 3.588-5.25 6.913a7.058 7.058 0 0 0 7.088 7.088c3.325 0 6.037-2.188 6.912-5.25-5.337 1.487-10.237-3.413-8.75-8.75z" fill="#fff"/></g><circle cx="164" cy="16" r="15.688" stroke="#333" stroke-width=".625"/><circle cx="162.5" cy="14.5" r="4.563" stroke="#fff" stroke-width="1.875"/><path d="m166 18 4 4" stroke="#fff" stroke-width="1.875" stroke-linecap="round"/><circle cx="248" cy="16" r="16" fill="#fff"/><g clip-path="url(#b)" fill="#000"><path d="M253.553 23.773c-.012-.028-1.195-2.878-.648-4.92l1.014-3.783a5.596 5.596 0 0 0-10.809-2.896l-1.014 3.783c-.547 2.042-2.997 3.918-3.021 3.936a.281.281 0 0 0-.106.277.277.277 0 0 0 .202.217l14.052 3.765a.279.279 0 0 0 .33-.38zM244.181 22.31a1.954 1.954 0 0 0 2.796 1.99c.424-.205.758-.556.944-.989l-3.74-1.002z"/></g><circle cx="253.375" cy="9.375" r="4.125" fill="#E300BD" stroke="#fff" stroke-width="2"/><path d="m29.098 21 3.486-9.338h2.338L38.338 21h-2.31l-.714-2.142h-3.29L31.31 21h-2.212zm3.416-3.78h2.296l-1.134-3.528-1.162 3.528zm13.672.742 1.442 1.316a4.591 4.591 0 0 1-1.008.98 5.083 5.083 0 0 1-1.358.714 4.86 4.86 0 0 1-1.624.266c-.943 0-1.778-.21-2.506-.63a4.546 4.546 0 0 1-1.694-1.722c-.402-.737-.602-1.577-.602-2.52 0-.69.116-1.335.35-1.932.233-.607.56-1.134.98-1.582.43-.448.938-.798 1.526-1.05a5.028 5.028 0 0 1 1.974-.378c.858 0 1.614.159 2.268.476a4.271 4.271 0 0 1 1.624 1.372l-1.442 1.386a3.384 3.384 0 0 0-.994-.938c-.383-.243-.84-.364-1.372-.364-.56 0-1.046.135-1.456.406a2.662 2.662 0 0 0-.938 1.064 3.39 3.39 0 0 0-.322 1.484c0 .55.107 1.045.322 1.484.224.439.536.789.938 1.05.401.252.872.378 1.414.378.448 0 .821-.06 1.12-.182.298-.121.55-.275.756-.462.214-.196.415-.401.602-.616zM48.856 21l.433-9.338h2.002l2.436 4.382 2.38-4.382h2.016L58.557 21h-2.114l-.266-6.104-1.932 3.64h-1.092l-2.044-3.598L50.871 21h-2.016zM60.5 21v-9.338h6.384v1.848h-4.27v1.82h3.318v1.792h-3.318v2.016h4.578V21H60.5zm18.196-3.038 1.442 1.316a4.587 4.587 0 0 1-1.008.98 5.082 5.082 0 0 1-1.358.714 4.86 4.86 0 0 1-1.624.266c-.942 0-1.778-.21-2.506-.63a4.547 4.547 0 0 1-1.694-1.722c-.4-.737-.602-1.577-.602-2.52 0-.69.117-1.335.35-1.932.234-.607.56-1.134.98-1.582.43-.448.938-.798 1.526-1.05a5.028 5.028 0 0 1 1.974-.378c.86 0 1.615.159 2.268.476a4.27 4.27 0 0 1 1.624 1.372l-1.442 1.386a3.383 3.383 0 0 0-.994-.938c-.382-.243-.84-.364-1.372-.364-.56 0-1.045.135-1.456.406a2.663 2.663 0 0 0-.938 1.064 3.39 3.39 0 0 0-.322 1.484c0 .55.108 1.045.322 1.484.224.439.537.789.938 1.05.402.252.873.378 1.414.378.448 0 .822-.06 1.12-.182a2.52 2.52 0 0 0 .756-.462c.215-.196.416-.401.602-.616zm7.072 3.276c-.691 0-1.33-.121-1.918-.364a4.915 4.915 0 0 1-1.554-1.05 4.798 4.798 0 0 1-1.022-1.568 5.083 5.083 0 0 1-.364-1.932c0-.7.12-1.344.364-1.932a4.798 4.798 0 0 1 1.022-1.568 4.574 4.574 0 0 1 1.54-1.036 4.919 4.919 0 0 1 1.932-.378c.69 0 1.33.126 1.918.378a4.574 4.574 0 0 1 1.54 1.036c.448.448.793.97 1.036 1.568.242.588.364 1.232.364 1.932 0 .69-.122 1.335-.364 1.932a4.69 4.69 0 0 1-1.036 1.568 4.753 4.753 0 0 1-1.54 1.05 4.978 4.978 0 0 1-1.918.364zm0-1.988c.55 0 1.022-.135 1.414-.406.4-.27.704-.63.91-1.078.214-.448.322-.938.322-1.47s-.108-1.017-.322-1.456a2.468 2.468 0 0 0-.91-1.064c-.392-.27-.864-.406-1.414-.406-.551 0-1.027.135-1.428.406a2.599 2.599 0 0 0-.91 1.064 3.267 3.267 0 0 0-.322 1.456c0 .532.107 1.022.322 1.47.214.448.518.807.91 1.078.4.27.877.406 1.428.406zm6.6 1.75v-9.338h3.472c.728 0 1.335.135 1.82.406.485.261.85.616 1.092 1.064.243.439.364.924.364 1.456 0 .597-.135 1.125-.406 1.582a2.866 2.866 0 0 1-1.12 1.092L99.662 21h-2.324l-1.736-3.43h-1.176V21h-2.058zm2.058-5.124h1.302c.392 0 .7-.117.924-.35.224-.233.336-.527.336-.882 0-.383-.117-.686-.35-.91-.224-.224-.527-.336-.91-.336h-1.302v2.478zM101.152 21v-9.338h3.402c.775 0 1.4.145 1.876.434.485.28.84.649 1.064 1.106.224.457.336.947.336 1.47 0 .663-.149 1.223-.448 1.68a2.902 2.902 0 0 1-1.176 1.022 3.603 3.603 0 0 1-1.554.336h-1.442V21h-2.058zm2.058-4.998h1.232c.383 0 .691-.121.924-.364.233-.243.35-.55.35-.924 0-.392-.117-.71-.35-.952-.233-.252-.546-.378-.938-.378h-1.218v2.618zM107.036 21v-2.226h2.282V21h-2.282zM.79 23.707l9.485-15.52a.85.85 0 0 1 1.45 0l9.485 15.52A.85.85 0 0 1 20.484 25H1.516a.85.85 0 0 1-.726-1.293z" fill="#fff"/><path d="M13.04 76.24h.02V61.62h-1.14v10.7c0 .38 0 .7.02.92-.08-.12-.26-.32-.4-.5l-9.4-11.38h-.02V76h1.16V65.28c0-.38-.02-.68-.04-.92.08.14.26.34.4.5l9.4 11.38zm8.376-10.48c-2.88 0-5.02 2.24-5.02 5.24s2.14 5.24 5.02 5.24c2.88 0 5.02-2.24 5.02-5.24s-2.14-5.24-5.02-5.24zm0 9.46c-2.28 0-3.9-1.78-3.9-4.22 0-2.44 1.62-4.22 3.9-4.22s3.9 1.78 3.9 4.22c0 2.44-1.62 4.22-3.9 4.22zm6.78-9.22v.94h1.8v6.3c0 2.28 1.28 3 2.6 3 .88 0 1.66-.22 2.12-.48v-1c-.62.32-1.38.48-1.98.48-.96 0-1.64-.58-1.64-2.22v-6.08h3.26V66h-3.26v-3h-1.1v3h-1.8zm8.566-2.92c0 .46.34.8.82.8.46 0 .82-.34.82-.8 0-.48-.36-.82-.82-.82-.48 0-.82.34-.82.82zm.26 2.92v10h1.1V66h-1.1zm3.953 0v.94h1.6V76h1.12v-9.06h2.84V66h-2.86v-1.24c0-1.58.8-2.38 2.3-2.38.48 0 .88.08 1.04.12v-1.02a5.55 5.55 0 0 0-1.14-.12c-2.06 0-3.28 1.28-3.28 3.36V66h-1.62zm7.623-2.92c0 .46.34.8.82.8.46 0 .82-.34.82-.8 0-.48-.36-.82-.82-.82-.48 0-.82.34-.82.82zm.26 2.92v10h1.1V66h-1.1zm5.748 5c0-2.42 1.62-4.2 3.96-4.2 1.46 0 2.4.46 3.16.92v-1.14c-.74-.38-1.66-.82-3.2-.82-2.94 0-5.06 2.24-5.06 5.24s2.12 5.24 5.06 5.24c1.56 0 2.52-.44 3.26-.82v-1.14c-.74.46-1.74.92-3.22.92-2.34 0-3.96-1.78-3.96-4.2zm10.316-3.38c.52-.32 1.82-.84 3.3-.84 1.76 0 2.92.72 2.92 2.82v.76c-4.12-.62-6.84.62-6.84 3.14 0 1.62 1.24 2.74 3.08 2.74 2.58 0 3.82-2.4 3.82-2.48h.04s-.08.36-.06.88V76h1.06v-6.44c0-2.5-1.26-3.8-3.92-3.8-1.56 0-2.84.46-3.4.76v1.1zm2.58 7.62c-1.26 0-2.06-.74-2.06-1.8 0-1.8 2.12-2.76 5.7-2.18 0 1.9-1.54 3.98-3.64 3.98zM74.896 66v.94h1.8v6.3c0 2.28 1.28 3 2.6 3 .88 0 1.66-.22 2.12-.48v-1c-.62.32-1.38.48-1.98.48-.96 0-1.64-.58-1.64-2.22v-6.08h3.26V66h-3.26v-3h-1.1v3h-1.8zm8.565-2.92c0 .46.34.8.82.8.46 0 .82-.34.82-.8 0-.48-.36-.82-.82-.82-.48 0-.82.34-.82.82zm.26 2.92v10h1.1V66h-1.1zm9.433-.24c-2.88 0-5.02 2.24-5.02 5.24s2.14 5.24 5.02 5.24c2.88 0 5.02-2.24 5.02-5.24s-2.14-5.24-5.02-5.24zm0 9.46c-2.28 0-3.9-1.78-3.9-4.22 0-2.44 1.62-4.22 3.9-4.22s3.9 1.78 3.9 4.22c0 2.44-1.62 4.22-3.9 4.22zm8.341-9.22v10h1.1v-4.9c0-2.42 1.72-4.28 3.98-4.28 2.1 0 2.32 1.54 2.32 3.18v6h1.1v-6.32c0-2.4-.76-3.92-3.32-3.92-2.4 0-3.78 1.78-4.14 2.72h-.04c.02-.02.08-.36.08-.82V66h-1.08zm17.063 7.58c0 1.16-1.18 1.66-2.46 1.66-.96 0-2.16-.28-3.2-.76v1.1c.86.4 2.06.66 3.26.66 1.96 0 3.48-.86 3.48-2.68 0-1.58-1.08-2.38-3.24-3.06-1.62-.52-2.46-1.04-2.46-2.06 0-1.06.94-1.68 2.46-1.68.86 0 1.88.28 2.66.68v-1.08c-.76-.36-1.82-.6-2.76-.6-2 0-3.44 1.02-3.44 2.68 0 1.62 1.36 2.48 3.08 3.02 1.78.54 2.62 1 2.62 2.12z" fill="#E6E6E6"/><defs><clipPath id="a"><path fill="#fff" transform="translate(199 9)" d="M0 0h14v14H0z"/></clipPath><clipPath id="b"><path fill="#fff" transform="rotate(15 100.375 919.711)" d="M0 0h17.904v17.904H0z"/></clipPath></defs></svg>