<svg width="292" height="194" viewBox="0 0 292 194" fill="none" xmlns="http://www.w3.org/2000/svg">
<rect width="292" height="194" rx="10" fill="url(#paint0_linear_25_360)"/>
<path d="M18.466 63.932C18.074 63.932 17.78 63.82 17.584 63.596C17.388 63.3813 17.29 63.1107 17.29 62.784V61.902C17.29 61.65 17.3133 61.4307 17.36 61.244C17.416 61.0573 17.4813 60.8893 17.556 60.74C17.6307 60.5907 17.7147 60.46 17.808 60.348C17.9013 60.2267 17.99 60.1147 18.074 60.012C18.2327 59.8253 18.34 59.6667 18.396 59.536C18.4613 59.396 18.494 59.2513 18.494 59.102C18.494 58.7473 18.3307 58.4907 18.004 58.332C17.6773 58.164 17.1967 58.08 16.562 58.08H15.47V57.212H16.562C17.1967 57.212 17.6773 57.1327 18.004 56.974C18.3307 56.806 18.494 56.5447 18.494 56.19C18.494 56.0407 18.4613 55.9007 18.396 55.77C18.34 55.63 18.2327 55.4667 18.074 55.28C17.99 55.1773 17.9013 55.07 17.808 54.958C17.7147 54.8367 17.6307 54.706 17.556 54.566C17.4813 54.4167 17.416 54.2487 17.36 54.062C17.3133 53.866 17.29 53.642 17.29 53.39V52.508C17.29 52.1813 17.388 51.9107 17.584 51.696C17.78 51.472 18.074 51.36 18.466 51.36H20.93V52.228H18.256V53.306C18.256 53.6887 18.312 53.9827 18.424 54.188C18.536 54.3933 18.6667 54.594 18.816 54.79C18.9747 54.9953 19.124 55.21 19.264 55.434C19.404 55.6487 19.474 55.9053 19.474 56.204C19.474 56.596 19.334 56.9133 19.054 57.156C18.7833 57.3987 18.41 57.5527 17.934 57.618V57.674C18.41 57.7393 18.7833 57.8933 19.054 58.136C19.334 58.3787 19.474 58.696 19.474 59.088C19.474 59.3867 19.404 59.648 19.264 59.872C19.124 60.0867 18.9747 60.2967 18.816 60.502C18.6667 60.698 18.536 60.8987 18.424 61.104C18.312 61.3093 18.256 61.6033 18.256 61.986V63.064H20.93V63.932H18.466Z" fill="white"/>
<path d="M17.934 165.36C18.326 165.36 18.62 165.472 18.816 165.696C19.012 165.911 19.11 166.181 19.11 166.508V167.39C19.11 167.642 19.082 167.866 19.026 168.062C18.9793 168.249 18.9187 168.417 18.844 168.566C18.7693 168.706 18.6853 168.837 18.592 168.958C18.4987 169.07 18.41 169.177 18.326 169.28C18.1673 169.467 18.0553 169.63 17.99 169.77C17.934 169.901 17.906 170.041 17.906 170.19C17.906 170.545 18.0693 170.806 18.396 170.974C18.7227 171.133 19.2033 171.212 19.838 171.212H20.93V172.08H19.838C19.2033 172.08 18.7227 172.164 18.396 172.332C18.0693 172.491 17.906 172.747 17.906 173.102C17.906 173.251 17.934 173.396 17.99 173.536C18.0553 173.667 18.1673 173.825 18.326 174.012C18.41 174.115 18.4987 174.227 18.592 174.348C18.6853 174.46 18.7693 174.591 18.844 174.74C18.9187 174.889 18.9793 175.057 19.026 175.244C19.082 175.431 19.11 175.65 19.11 175.902V176.784C19.11 177.111 19.012 177.381 18.816 177.596C18.62 177.82 18.326 177.932 17.934 177.932H15.47V177.064H18.144V175.986C18.144 175.603 18.088 175.309 17.976 175.104C17.864 174.899 17.7333 174.698 17.584 174.502C17.4253 174.297 17.276 174.087 17.136 173.872C16.996 173.648 16.926 173.387 16.926 173.088C16.926 172.696 17.0613 172.379 17.332 172.136C17.612 171.893 17.99 171.739 18.466 171.674V171.618C17.99 171.553 17.612 171.399 17.332 171.156C17.0613 170.913 16.926 170.596 16.926 170.204C16.926 169.905 16.996 169.649 17.136 169.434C17.276 169.21 17.4253 168.995 17.584 168.79C17.7333 168.594 17.864 168.393 17.976 168.188C18.088 167.983 18.144 167.689 18.144 167.306V166.228H15.47V165.36H17.934Z" fill="white"/>
<path d="M35.33 73.776H36.45V74.952H36.506C36.9727 74.056 37.7147 73.608 38.732 73.608C39.6187 73.608 40.3093 73.9393 40.804 74.602C41.308 75.2647 41.56 76.1933 41.56 77.388C41.56 78.5827 41.308 79.5113 40.804 80.174C40.3093 80.8367 39.6187 81.168 38.732 81.168C37.7147 81.168 36.9727 80.72 36.506 79.824H36.45V83.8H35.33V73.776ZM38.298 80.174C38.9513 80.174 39.4553 79.978 39.81 79.586C40.174 79.1847 40.356 78.6573 40.356 78.004V76.772C40.356 76.1187 40.174 75.596 39.81 75.204C39.4553 74.8027 38.9513 74.602 38.298 74.602C38.046 74.602 37.808 74.6347 37.584 74.7C37.36 74.7653 37.164 74.8633 36.996 74.994C36.828 75.1153 36.6927 75.2693 36.59 75.456C36.4967 75.6333 36.45 75.8433 36.45 76.086V78.69C36.45 78.9327 36.4967 79.1473 36.59 79.334C36.6927 79.5113 36.828 79.6653 36.996 79.796C37.164 79.9173 37.36 80.0107 37.584 80.076C37.808 80.1413 38.046 80.174 38.298 80.174ZM46.5945 81.168C46.0905 81.168 45.6332 81.0793 45.2225 80.902C44.8212 80.7247 44.4759 80.4727 44.1865 80.146C43.9065 79.81 43.6919 79.4133 43.5425 78.956C43.3932 78.4893 43.3185 77.9667 43.3185 77.388C43.3185 76.8187 43.3932 76.3007 43.5425 75.834C43.6919 75.3673 43.9065 74.9707 44.1865 74.644C44.4759 74.308 44.8212 74.0513 45.2225 73.874C45.6332 73.6967 46.0905 73.608 46.5945 73.608C47.0985 73.608 47.5512 73.6967 47.9525 73.874C48.3632 74.0513 48.7085 74.308 48.9885 74.644C49.2779 74.9707 49.4972 75.3673 49.6465 75.834C49.7959 76.3007 49.8705 76.8187 49.8705 77.388C49.8705 77.9667 49.7959 78.4893 49.6465 78.956C49.4972 79.4133 49.2779 79.81 48.9885 80.146C48.7085 80.4727 48.3632 80.7247 47.9525 80.902C47.5512 81.0793 47.0985 81.168 46.5945 81.168ZM46.5945 80.202C47.2199 80.202 47.7239 80.0153 48.1065 79.642C48.4892 79.2687 48.6805 78.69 48.6805 77.906V76.87C48.6805 76.086 48.4892 75.5073 48.1065 75.134C47.7239 74.7607 47.2199 74.574 46.5945 74.574C45.9692 74.574 45.4652 74.7607 45.0825 75.134C44.6999 75.5073 44.5085 76.086 44.5085 76.87V77.906C44.5085 78.69 44.6999 79.2687 45.0825 79.642C45.4652 80.0153 45.9692 80.202 46.5945 80.202ZM55.0731 81.168C54.3171 81.168 53.6637 81.042 53.1131 80.79C52.5717 80.5287 52.1097 80.1833 51.7271 79.754L52.4831 79.096C52.8284 79.46 53.2064 79.74 53.6171 79.936C54.0277 80.132 54.5224 80.23 55.1011 80.23C55.6611 80.23 56.1184 80.132 56.4731 79.936C56.8371 79.7307 57.0191 79.4133 57.0191 78.984C57.0191 78.7973 56.9817 78.6433 56.9071 78.522C56.8417 78.3913 56.7484 78.2887 56.6271 78.214C56.5057 78.1393 56.3704 78.0833 56.2211 78.046C56.0717 77.9993 55.9131 77.962 55.7451 77.934L54.6111 77.766C54.3591 77.7287 54.0837 77.6773 53.7851 77.612C53.4957 77.5467 53.2297 77.444 52.9871 77.304C52.7444 77.1547 52.5391 76.9587 52.3711 76.716C52.2124 76.4733 52.1331 76.156 52.1331 75.764C52.1331 75.4 52.2031 75.0873 52.3431 74.826C52.4924 74.5553 52.6977 74.3313 52.9591 74.154C53.2204 73.9673 53.5284 73.832 53.8831 73.748C54.2377 73.6547 54.6251 73.608 55.0451 73.608C55.6984 73.608 56.2631 73.7107 56.7391 73.916C57.2244 74.1213 57.6397 74.406 57.9851 74.77L57.2571 75.456C57.1731 75.3533 57.0657 75.2507 56.9351 75.148C56.8137 75.036 56.6597 74.938 56.4731 74.854C56.2957 74.7607 56.0857 74.686 55.8431 74.63C55.6004 74.574 55.3204 74.546 55.0031 74.546C54.4337 74.546 53.9951 74.644 53.6871 74.84C53.3884 75.036 53.2391 75.3207 53.2391 75.694C53.2391 75.8807 53.2717 76.0393 53.3371 76.17C53.4117 76.2913 53.5097 76.3893 53.6311 76.464C53.7524 76.5387 53.8877 76.5993 54.0371 76.646C54.1957 76.6833 54.3544 76.716 54.5131 76.744L55.6471 76.912C55.9084 76.9493 56.1837 77.0007 56.4731 77.066C56.7624 77.1313 57.0284 77.2387 57.2711 77.388C57.5137 77.528 57.7144 77.7193 57.8731 77.962C58.0411 78.2047 58.1251 78.522 58.1251 78.914C58.1251 79.6327 57.8451 80.188 57.2851 80.58C56.7344 80.972 55.9971 81.168 55.0731 81.168ZM63.7336 81C63.1829 81 62.7769 80.846 62.5156 80.538C62.2636 80.23 62.1376 79.8333 62.1376 79.348V74.728H59.7296V73.776H61.5216C61.7643 73.776 61.9323 73.7293 62.0256 73.636C62.1283 73.5333 62.1796 73.3607 62.1796 73.118V71.228H63.2576V73.776H66.5476V74.728H63.2576V80.048H66.5476V81H63.7336ZM68.4181 83.366V82.33H75.1381V83.366H68.4181ZM80.6207 72.18C80.294 72.18 80.0653 72.1147 79.9347 71.984C79.804 71.844 79.7387 71.6713 79.7387 71.466V71.242C79.7387 71.0367 79.804 70.8687 79.9347 70.738C80.0653 70.598 80.294 70.528 80.6207 70.528C80.9473 70.528 81.176 70.598 81.3067 70.738C81.4373 70.8687 81.5027 71.0367 81.5027 71.242V71.466C81.5027 71.6713 81.4373 71.844 81.3067 71.984C81.176 72.1147 80.9473 72.18 80.6207 72.18ZM77.4567 80.048H80.0607V74.728H77.4567V73.776H81.1807V80.048H83.6167V81H77.4567V80.048ZM90.3172 79.824H90.2612C89.7945 80.72 89.0525 81.168 88.0352 81.168C87.1485 81.168 86.4532 80.8367 85.9492 80.174C85.4545 79.5113 85.2072 78.5827 85.2072 77.388C85.2072 76.1933 85.4545 75.2647 85.9492 74.602C86.4532 73.9393 87.1485 73.608 88.0352 73.608C89.0525 73.608 89.7945 74.056 90.2612 74.952H90.3172V70.64H91.4372V81H90.3172V79.824ZM88.4692 80.174C88.7212 80.174 88.9592 80.1413 89.1832 80.076C89.4072 80.0107 89.6032 79.9173 89.7712 79.796C89.9392 79.6653 90.0699 79.5113 90.1632 79.334C90.2659 79.1473 90.3172 78.9327 90.3172 78.69V76.086C90.3172 75.8433 90.2659 75.6333 90.1632 75.456C90.0699 75.2693 89.9392 75.1153 89.7712 74.994C89.6032 74.8633 89.4072 74.7653 89.1832 74.7C88.9592 74.6347 88.7212 74.602 88.4692 74.602C87.8159 74.602 87.3072 74.8027 86.9432 75.204C86.5885 75.596 86.4112 76.1187 86.4112 76.772V78.004C86.4112 78.6573 86.5885 79.1847 86.9432 79.586C87.3072 79.978 87.8159 80.174 88.4692 80.174ZM40.93 100C40.4913 100 40.1787 99.888 39.992 99.664C39.8053 99.44 39.6887 99.16 39.642 98.824H39.572C39.4133 99.244 39.1567 99.5753 38.802 99.818C38.4567 100.051 37.99 100.168 37.402 100.168C36.646 100.168 36.044 99.972 35.596 99.58C35.148 99.188 34.924 98.6513 34.924 97.97C34.924 97.298 35.1667 96.78 35.652 96.416C36.1467 96.052 36.94 95.87 38.032 95.87H39.572V95.156C39.572 94.624 39.4227 94.2273 39.124 93.966C38.8253 93.6953 38.4007 93.56 37.85 93.56C37.3647 93.56 36.968 93.658 36.66 93.854C36.352 94.0407 36.1047 94.2973 35.918 94.624L35.162 94.064C35.2553 93.8773 35.3813 93.6953 35.54 93.518C35.6987 93.3407 35.8947 93.1867 36.128 93.056C36.3613 92.916 36.6273 92.8087 36.926 92.734C37.2247 92.65 37.556 92.608 37.92 92.608C38.7693 92.608 39.4413 92.8227 39.936 93.252C40.44 93.6813 40.692 94.2787 40.692 95.044V99.02H41.7V100H40.93ZM37.598 99.23C37.8873 99.23 38.1487 99.1973 38.382 99.132C38.6247 99.0573 38.8347 98.964 39.012 98.852C39.1893 98.7307 39.3247 98.5907 39.418 98.432C39.5207 98.264 39.572 98.0867 39.572 97.9V96.71H38.032C37.36 96.71 36.87 96.8033 36.562 96.99C36.254 97.1767 36.1 97.4473 36.1 97.802V98.096C36.1 98.4693 36.2307 98.754 36.492 98.95C36.7627 99.1367 37.1313 99.23 37.598 99.23ZM46.8465 100.168C46.3239 100.168 45.8572 100.079 45.4465 99.902C45.0452 99.7153 44.7045 99.4587 44.4245 99.132C44.1445 98.8053 43.9299 98.4087 43.7805 97.942C43.6405 97.4753 43.5705 96.9573 43.5705 96.388C43.5705 95.8187 43.6452 95.3007 43.7945 94.834C43.9439 94.3673 44.1585 93.9707 44.4385 93.644C44.7185 93.308 45.0592 93.0513 45.4605 92.874C45.8619 92.6967 46.3192 92.608 46.8325 92.608C47.5325 92.608 48.1019 92.762 48.5405 93.07C48.9792 93.378 49.3012 93.7793 49.5065 94.274L48.6105 94.75C48.4799 94.3767 48.2605 94.0873 47.9525 93.882C47.6539 93.6767 47.2805 93.574 46.8325 93.574C46.5059 93.574 46.2119 93.63 45.9505 93.742C45.6985 93.8447 45.4839 93.994 45.3065 94.19C45.1292 94.386 44.9939 94.6193 44.9005 94.89C44.8165 95.1607 44.7745 95.4547 44.7745 95.772V97.004C44.7745 97.3213 44.8165 97.6153 44.9005 97.886C44.9939 98.1567 45.1292 98.39 45.3065 98.586C45.4839 98.782 45.7032 98.936 45.9645 99.048C46.2259 99.1507 46.5245 99.202 46.8605 99.202C47.3459 99.202 47.7472 99.09 48.0645 98.866C48.3819 98.642 48.6339 98.334 48.8205 97.942L49.6185 98.488C49.4039 98.9733 49.0679 99.3747 48.6105 99.692C48.1625 100.009 47.5745 100.168 46.8465 100.168ZM55.3391 100C54.7884 100 54.3824 99.846 54.1211 99.538C53.8691 99.23 53.7431 98.8333 53.7431 98.348V93.728H51.3351V92.776H53.1271C53.3697 92.776 53.5377 92.7293 53.6311 92.636C53.7337 92.5333 53.7851 92.3607 53.7851 92.118V90.228H54.8631V92.776H58.1531V93.728H54.8631V99.048H58.1531V100H55.3391ZM63.3836 100.168C62.8796 100.168 62.4223 100.079 62.0116 99.902C61.6103 99.7247 61.2649 99.4727 60.9756 99.146C60.6956 98.81 60.4809 98.4133 60.3316 97.956C60.1823 97.4893 60.1076 96.9667 60.1076 96.388C60.1076 95.8187 60.1823 95.3007 60.3316 94.834C60.4809 94.3673 60.6956 93.9707 60.9756 93.644C61.2649 93.308 61.6103 93.0513 62.0116 92.874C62.4223 92.6967 62.8796 92.608 63.3836 92.608C63.8876 92.608 64.3403 92.6967 64.7416 92.874C65.1523 93.0513 65.4976 93.308 65.7776 93.644C66.0669 93.9707 66.2863 94.3673 66.4356 94.834C66.5849 95.3007 66.6596 95.8187 66.6596 96.388C66.6596 96.9667 66.5849 97.4893 66.4356 97.956C66.2863 98.4133 66.0669 98.81 65.7776 99.146C65.4976 99.4727 65.1523 99.7247 64.7416 99.902C64.3403 100.079 63.8876 100.168 63.3836 100.168ZM63.3836 99.202C64.0089 99.202 64.5129 99.0153 64.8956 98.642C65.2783 98.2687 65.4696 97.69 65.4696 96.906V95.87C65.4696 95.086 65.2783 94.5073 64.8956 94.134C64.5129 93.7607 64.0089 93.574 63.3836 93.574C62.7583 93.574 62.2543 93.7607 61.8716 94.134C61.4889 94.5073 61.2976 95.086 61.2976 95.87V96.906C61.2976 97.69 61.4889 98.2687 61.8716 98.642C62.2543 99.0153 62.7583 99.202 63.3836 99.202ZM68.6561 99.048H70.7701V93.728H68.6561V92.776H71.8901V94.596H71.9601C72.1095 94.0267 72.3895 93.5833 72.8001 93.266C73.2201 92.9393 73.7521 92.776 74.3961 92.776H75.4041V93.896H74.0461C73.4021 93.896 72.8795 94.0827 72.4781 94.456C72.0861 94.8293 71.8901 95.3193 71.8901 95.926V99.048H74.6901V100H68.6561V99.048ZM76.8127 102.366V101.33H83.5327V102.366H76.8127ZM89.0152 91.18C88.6885 91.18 88.4599 91.1147 88.3292 90.984C88.1985 90.844 88.1332 90.6713 88.1332 90.466V90.242C88.1332 90.0367 88.1985 89.8687 88.3292 89.738C88.4599 89.598 88.6885 89.528 89.0152 89.528C89.3419 89.528 89.5705 89.598 89.7012 89.738C89.8319 89.8687 89.8972 90.0367 89.8972 90.242V90.466C89.8972 90.6713 89.8319 90.844 89.7012 90.984C89.5705 91.1147 89.3419 91.18 89.0152 91.18ZM85.8512 99.048H88.4552V93.728H85.8512V92.776H89.5752V99.048H92.0112V100H85.8512V99.048ZM98.7117 98.824H98.6557C98.1891 99.72 97.4471 100.168 96.4297 100.168C95.5431 100.168 94.8477 99.8367 94.3437 99.174C93.8491 98.5113 93.6017 97.5827 93.6017 96.388C93.6017 95.1933 93.8491 94.2647 94.3437 93.602C94.8477 92.9393 95.5431 92.608 96.4297 92.608C97.4471 92.608 98.1891 93.056 98.6557 93.952H98.7117V89.64H99.8317V100H98.7117V98.824ZM96.8637 99.174C97.1157 99.174 97.3537 99.1413 97.5777 99.076C97.8017 99.0107 97.9977 98.9173 98.1657 98.796C98.3337 98.6653 98.4644 98.5113 98.5577 98.334C98.6604 98.1473 98.7117 97.9327 98.7117 97.69V95.086C98.7117 94.8433 98.6604 94.6333 98.5577 94.456C98.4644 94.2693 98.3337 94.1153 98.1657 93.994C97.9977 93.8633 97.8017 93.7653 97.5777 93.7C97.3537 93.6347 97.1157 93.602 96.8637 93.602C96.2104 93.602 95.7017 93.8027 95.3377 94.204C94.9831 94.596 94.8057 95.1187 94.8057 95.772V97.004C94.8057 97.6573 94.9831 98.1847 95.3377 98.586C95.7017 98.978 96.2104 99.174 96.8637 99.174ZM38.452 119.168C37.9293 119.168 37.4627 119.079 37.052 118.902C36.6507 118.715 36.31 118.459 36.03 118.132C35.75 117.805 35.5353 117.409 35.386 116.942C35.246 116.475 35.176 115.957 35.176 115.388C35.176 114.819 35.2507 114.301 35.4 113.834C35.5493 113.367 35.764 112.971 36.044 112.644C36.324 112.308 36.6647 112.051 37.066 111.874C37.4673 111.697 37.9247 111.608 38.438 111.608C39.138 111.608 39.7073 111.762 40.146 112.07C40.5847 112.378 40.9067 112.779 41.112 113.274L40.216 113.75C40.0853 113.377 39.866 113.087 39.558 112.882C39.2593 112.677 38.886 112.574 38.438 112.574C38.1113 112.574 37.8173 112.63 37.556 112.742C37.304 112.845 37.0893 112.994 36.912 113.19C36.7347 113.386 36.5993 113.619 36.506 113.89C36.422 114.161 36.38 114.455 36.38 114.772V116.004C36.38 116.321 36.422 116.615 36.506 116.886C36.5993 117.157 36.7347 117.39 36.912 117.586C37.0893 117.782 37.3087 117.936 37.57 118.048C37.8313 118.151 38.13 118.202 38.466 118.202C38.9513 118.202 39.3527 118.09 39.67 117.866C39.9873 117.642 40.2393 117.334 40.426 116.942L41.224 117.488C41.0093 117.973 40.6733 118.375 40.216 118.692C39.768 119.009 39.18 119.168 38.452 119.168ZM46.5945 119.168C46.0905 119.168 45.6332 119.079 45.2225 118.902C44.8212 118.725 44.4759 118.473 44.1865 118.146C43.9065 117.81 43.6919 117.413 43.5425 116.956C43.3932 116.489 43.3185 115.967 43.3185 115.388C43.3185 114.819 43.3932 114.301 43.5425 113.834C43.6919 113.367 43.9065 112.971 44.1865 112.644C44.4759 112.308 44.8212 112.051 45.2225 111.874C45.6332 111.697 46.0905 111.608 46.5945 111.608C47.0985 111.608 47.5512 111.697 47.9525 111.874C48.3632 112.051 48.7085 112.308 48.9885 112.644C49.2779 112.971 49.4972 113.367 49.6465 113.834C49.7959 114.301 49.8705 114.819 49.8705 115.388C49.8705 115.967 49.7959 116.489 49.6465 116.956C49.4972 117.413 49.2779 117.81 48.9885 118.146C48.7085 118.473 48.3632 118.725 47.9525 118.902C47.5512 119.079 47.0985 119.168 46.5945 119.168ZM46.5945 118.202C47.2199 118.202 47.7239 118.015 48.1065 117.642C48.4892 117.269 48.6805 116.69 48.6805 115.906V114.87C48.6805 114.086 48.4892 113.507 48.1065 113.134C47.7239 112.761 47.2199 112.574 46.5945 112.574C45.9692 112.574 45.4652 112.761 45.0825 113.134C44.6999 113.507 44.5085 114.086 44.5085 114.87V115.906C44.5085 116.69 44.6999 117.269 45.0825 117.642C45.4652 118.015 45.9692 118.202 46.5945 118.202ZM52.1611 119V111.776H53.2811V112.952H53.3371C53.4117 112.775 53.5051 112.607 53.6171 112.448C53.7291 112.28 53.8644 112.135 54.0231 112.014C54.1911 111.893 54.3871 111.795 54.6111 111.72C54.8351 111.645 55.0964 111.608 55.3951 111.608C56.1511 111.608 56.7577 111.851 57.2151 112.336C57.6724 112.812 57.9011 113.489 57.9011 114.366V119H56.7811V114.562C56.7811 113.899 56.6364 113.409 56.3471 113.092C56.0577 112.765 55.6331 112.602 55.0731 112.602C54.8491 112.602 54.6297 112.63 54.4151 112.686C54.2004 112.742 54.0091 112.826 53.8411 112.938C53.6731 113.05 53.5377 113.195 53.4351 113.372C53.3324 113.549 53.2811 113.755 53.2811 113.988V119H52.1611ZM63.7336 119C63.1829 119 62.7769 118.846 62.5156 118.538C62.2636 118.23 62.1376 117.833 62.1376 117.348V112.728H59.7296V111.776H61.5216C61.7643 111.776 61.9323 111.729 62.0256 111.636C62.1283 111.533 62.1796 111.361 62.1796 111.118V109.228H63.2576V111.776H66.5476V112.728H63.2576V118.048H66.5476V119H63.7336ZM71.9041 119.168C71.3815 119.168 70.9101 119.079 70.4901 118.902C70.0795 118.725 69.7248 118.473 69.4261 118.146C69.1368 117.81 68.9128 117.413 68.7541 116.956C68.5955 116.489 68.5161 115.971 68.5161 115.402C68.5161 114.823 68.5955 114.301 68.7541 113.834C68.9221 113.367 69.1508 112.971 69.4401 112.644C69.7295 112.308 70.0748 112.051 70.4761 111.874C70.8868 111.697 71.3395 111.608 71.8341 111.608C72.3195 111.608 72.7581 111.697 73.1501 111.874C73.5515 112.051 73.8921 112.299 74.1721 112.616C74.4521 112.924 74.6668 113.293 74.8161 113.722C74.9655 114.151 75.0401 114.623 75.0401 115.136V115.668H69.6921V116.004C69.6921 116.321 69.7435 116.615 69.8461 116.886C69.9488 117.157 70.0935 117.39 70.2801 117.586C70.4761 117.782 70.7095 117.936 70.9801 118.048C71.2601 118.151 71.5681 118.202 71.9041 118.202C72.3895 118.202 72.8095 118.09 73.1641 117.866C73.5188 117.642 73.7895 117.334 73.9761 116.942L74.8021 117.502C74.5875 117.987 74.2281 118.389 73.7241 118.706C73.2295 119.014 72.6228 119.168 71.9041 119.168ZM71.8341 112.532C71.5261 112.532 71.2415 112.588 70.9801 112.7C70.7188 112.812 70.4901 112.966 70.2941 113.162C70.1075 113.358 69.9581 113.591 69.8461 113.862C69.7435 114.123 69.6921 114.413 69.6921 114.73V114.828H73.8361V114.674C73.8361 114.357 73.7848 114.067 73.6821 113.806C73.5888 113.545 73.4535 113.321 73.2761 113.134C73.1081 112.938 72.8981 112.789 72.6461 112.686C72.4035 112.583 72.1328 112.532 71.8341 112.532ZM77.3447 119V111.776H78.4647V112.952H78.5207C78.5953 112.775 78.6887 112.607 78.8007 112.448C78.9127 112.28 79.048 112.135 79.2067 112.014C79.3747 111.893 79.5707 111.795 79.7947 111.72C80.0187 111.645 80.28 111.608 80.5787 111.608C81.3347 111.608 81.9413 111.851 82.3987 112.336C82.856 112.812 83.0847 113.489 83.0847 114.366V119H81.9647V114.562C81.9647 113.899 81.82 113.409 81.5307 113.092C81.2413 112.765 80.8167 112.602 80.2567 112.602C80.0327 112.602 79.8133 112.63 79.5987 112.686C79.384 112.742 79.1927 112.826 79.0247 112.938C78.8567 113.05 78.7213 113.195 78.6187 113.372C78.516 113.549 78.4647 113.755 78.4647 113.988V119H77.3447ZM88.9172 119C88.3665 119 87.9605 118.846 87.6992 118.538C87.4472 118.23 87.3212 117.833 87.3212 117.348V112.728H84.9132V111.776H86.7052C86.9479 111.776 87.1159 111.729 87.2092 111.636C87.3119 111.533 87.3632 111.361 87.3632 111.118V109.228H88.4412V111.776H91.7312V112.728H88.4412V118.048H91.7312V119H88.9172Z" fill="#FFE14D"/>
<path d="M96.9617 81.126C96.5791 81.126 96.3084 81.0467 96.1497 80.888C96.0004 80.7293 95.9257 80.5287 95.9257 80.286V80.034C95.9257 79.7913 96.0004 79.5907 96.1497 79.432C96.3084 79.2733 96.5791 79.194 96.9617 79.194C97.3444 79.194 97.6104 79.2733 97.7597 79.432C97.9184 79.5907 97.9977 79.7913 97.9977 80.034V80.286C97.9977 80.5287 97.9184 80.7293 97.7597 80.888C97.6104 81.0467 97.3444 81.126 96.9617 81.126ZM96.9617 75.582C96.5791 75.582 96.3084 75.5027 96.1497 75.344C96.0004 75.1853 95.9257 74.9847 95.9257 74.742V74.49C95.9257 74.2473 96.0004 74.0467 96.1497 73.888C96.3084 73.7293 96.5791 73.65 96.9617 73.65C97.3444 73.65 97.6104 73.7293 97.7597 73.888C97.9184 74.0467 97.9977 74.2473 97.9977 74.49V74.742C97.9977 74.9847 97.9184 75.1853 97.7597 75.344C97.6104 75.5027 97.3444 75.582 96.9617 75.582ZM121.543 79.096H123.349L121.739 82.974H120.801L121.543 79.096ZM105.356 100.126C104.974 100.126 104.703 100.047 104.544 99.888C104.395 99.7293 104.32 99.5287 104.32 99.286V99.034C104.32 98.7913 104.395 98.5907 104.544 98.432C104.703 98.2733 104.974 98.194 105.356 98.194C105.739 98.194 106.005 98.2733 106.154 98.432C106.313 98.5907 106.392 98.7913 106.392 99.034V99.286C106.392 99.5287 106.313 99.7293 106.154 99.888C106.005 100.047 105.739 100.126 105.356 100.126ZM105.356 94.582C104.974 94.582 104.703 94.5027 104.544 94.344C104.395 94.1853 104.32 93.9847 104.32 93.742V93.49C104.32 93.2473 104.395 93.0467 104.544 92.888C104.703 92.7293 104.974 92.65 105.356 92.65C105.739 92.65 106.005 92.7293 106.154 92.888C106.313 93.0467 106.392 93.2473 106.392 93.49V93.742C106.392 93.9847 106.313 94.1853 106.154 94.344C106.005 94.5027 105.739 94.582 105.356 94.582ZM138.332 98.096H140.138L138.528 101.974H137.59L138.332 98.096ZM96.9617 119.126C96.5791 119.126 96.3084 119.047 96.1497 118.888C96.0004 118.729 95.9257 118.529 95.9257 118.286V118.034C95.9257 117.791 96.0004 117.591 96.1497 117.432C96.3084 117.273 96.5791 117.194 96.9617 117.194C97.3444 117.194 97.6104 117.273 97.7597 117.432C97.9184 117.591 97.9977 117.791 97.9977 118.034V118.286C97.9977 118.529 97.9184 118.729 97.7597 118.888C97.6104 119.047 97.3444 119.126 96.9617 119.126ZM96.9617 113.582C96.5791 113.582 96.3084 113.503 96.1497 113.344C96.0004 113.185 95.9257 112.985 95.9257 112.742V112.49C95.9257 112.247 96.0004 112.047 96.1497 111.888C96.3084 111.729 96.5791 111.65 96.9617 111.65C97.3444 111.65 97.6104 111.729 97.7597 111.888C97.9184 112.047 97.9977 112.247 97.9977 112.49V112.742C97.9977 112.985 97.9184 113.185 97.7597 113.344C97.6104 113.503 97.3444 113.582 96.9617 113.582ZM112.309 108.64H113.247L112.505 112.518H110.699L112.309 108.64ZM115.655 108.64H116.593L115.851 112.518H114.045L115.655 108.64ZM162.2 146.64H164.006L162.396 150.518H161.458L162.2 146.64ZM165.546 146.64H167.352L165.742 150.518H164.804L165.546 146.64ZM171.91 155.096H173.717L172.107 158.974H171.169L171.91 155.096ZM172.513 151.582C172.13 151.582 171.859 151.503 171.701 151.344C171.551 151.185 171.477 150.985 171.477 150.742V150.49C171.477 150.247 171.551 150.047 171.701 149.888C171.859 149.729 172.13 149.65 172.513 149.65C172.895 149.65 173.161 149.729 173.311 149.888C173.469 150.047 173.549 150.247 173.549 150.49V150.742C173.549 150.985 173.469 151.185 173.311 151.344C173.161 151.503 172.895 151.582 172.513 151.582Z" fill="white"/>
<path d="M113.751 81.168C113.181 81.168 112.682 81.098 112.253 80.958C111.823 80.8087 111.464 80.608 111.175 80.356C110.895 80.104 110.68 79.8053 110.531 79.46C110.391 79.1147 110.321 78.7413 110.321 78.34C110.321 77.668 110.503 77.136 110.867 76.744C111.231 76.352 111.711 76.0767 112.309 75.918V75.806C111.786 75.6287 111.371 75.344 111.063 74.952C110.764 74.5507 110.615 74.07 110.615 73.51C110.615 72.7633 110.89 72.1707 111.441 71.732C111.991 71.284 112.761 71.06 113.751 71.06C114.74 71.06 115.51 71.284 116.061 71.732C116.611 72.1707 116.887 72.7633 116.887 73.51C116.887 74.07 116.733 74.5507 116.425 74.952C116.126 75.344 115.715 75.6287 115.193 75.806V75.918C115.79 76.0767 116.271 76.352 116.635 76.744C116.999 77.136 117.181 77.668 117.181 78.34C117.181 78.7413 117.106 79.1147 116.957 79.46C116.817 79.8053 116.602 80.104 116.313 80.356C116.023 80.608 115.664 80.8087 115.235 80.958C114.815 81.098 114.32 81.168 113.751 81.168ZM113.751 80.174C114.441 80.174 114.983 80.02 115.375 79.712C115.767 79.404 115.963 78.97 115.963 78.41V78.102C115.963 77.542 115.767 77.108 115.375 76.8C114.992 76.492 114.451 76.338 113.751 76.338C113.051 76.338 112.505 76.492 112.113 76.8C111.73 77.108 111.539 77.542 111.539 78.102V78.41C111.539 78.97 111.735 79.404 112.127 79.712C112.519 80.02 113.06 80.174 113.751 80.174ZM113.751 75.386C114.385 75.386 114.866 75.2507 115.193 74.98C115.529 74.7093 115.697 74.322 115.697 73.818V73.622C115.697 73.118 115.524 72.7307 115.179 72.46C114.843 72.1893 114.367 72.054 113.751 72.054C113.135 72.054 112.654 72.1893 112.309 72.46C111.973 72.7307 111.805 73.118 111.805 73.622V73.818C111.805 74.322 111.968 74.7093 112.295 74.98C112.631 75.2507 113.116 75.386 113.751 75.386ZM119.135 100V98.978H121.935V91.096H121.837L119.373 93.392L118.687 92.65L121.277 90.228H123.111V98.978H125.687V100H119.135ZM133.354 91.25H128.986L128.706 94.988H128.804C129.047 94.6613 129.317 94.4047 129.616 94.218C129.915 94.022 130.325 93.924 130.848 93.924C131.277 93.924 131.669 93.994 132.024 94.134C132.388 94.2647 132.701 94.4607 132.962 94.722C133.223 94.9833 133.429 95.3007 133.578 95.674C133.727 96.038 133.802 96.458 133.802 96.934C133.802 97.41 133.727 97.8487 133.578 98.25C133.429 98.642 133.209 98.9827 132.92 99.272C132.631 99.552 132.281 99.7713 131.87 99.93C131.459 100.089 130.993 100.168 130.47 100.168C130.059 100.168 129.691 100.121 129.364 100.028C129.047 99.9347 128.762 99.8087 128.51 99.65C128.267 99.4913 128.053 99.314 127.866 99.118C127.679 98.922 127.511 98.7167 127.362 98.502L128.244 97.83C128.375 98.026 128.505 98.2033 128.636 98.362C128.776 98.5207 128.935 98.6607 129.112 98.782C129.289 98.894 129.49 98.9827 129.714 99.048C129.938 99.1133 130.199 99.146 130.498 99.146C131.17 99.146 131.683 98.964 132.038 98.6C132.402 98.236 132.584 97.732 132.584 97.088V96.976C132.584 96.332 132.402 95.828 132.038 95.464C131.674 95.1 131.151 94.918 130.47 94.918C130.003 94.918 129.639 94.9973 129.378 95.156C129.126 95.3147 128.893 95.5107 128.678 95.744L127.684 95.604L128.034 90.228H133.354V91.25Z" fill="#E300BD"/>
<path d="M124.399 120.54H122.523C121.833 120.54 121.259 120.414 120.801 120.162C120.344 119.919 119.98 119.555 119.709 119.07C119.439 118.585 119.247 117.992 119.135 117.292C119.033 116.583 118.981 115.766 118.981 114.842C118.981 113.778 119.047 112.877 119.177 112.14C119.308 111.403 119.504 110.81 119.765 110.362C120.027 109.905 120.353 109.573 120.745 109.368C121.147 109.163 121.618 109.06 122.159 109.06C122.701 109.06 123.158 109.153 123.531 109.34C123.914 109.517 124.222 109.765 124.455 110.082C124.689 110.39 124.857 110.754 124.959 111.174C125.062 111.594 125.113 112.042 125.113 112.518V117.698H124.399V116.9H124.343C124.241 117.152 124.077 117.376 123.853 117.572C123.629 117.759 123.312 117.852 122.901 117.852C122.313 117.852 121.847 117.619 121.501 117.152C121.165 116.685 120.997 115.934 120.997 114.898C120.997 113.862 121.165 113.111 121.501 112.644C121.847 112.177 122.313 111.944 122.901 111.944C123.312 111.944 123.629 112.037 123.853 112.224C124.077 112.411 124.241 112.635 124.343 112.896H124.399V112.518C124.399 112.098 124.357 111.715 124.273 111.37C124.199 111.025 124.073 110.731 123.895 110.488C123.718 110.236 123.489 110.045 123.209 109.914C122.929 109.774 122.589 109.704 122.187 109.704C121.749 109.704 121.375 109.793 121.067 109.97C120.759 110.138 120.507 110.404 120.311 110.768C120.115 111.132 119.971 111.599 119.877 112.168C119.784 112.737 119.737 113.419 119.737 114.212V115.556C119.737 116.181 119.775 116.76 119.849 117.292C119.924 117.815 120.064 118.272 120.269 118.664C120.475 119.047 120.759 119.345 121.123 119.56C121.487 119.775 121.954 119.882 122.523 119.882H124.399V120.54ZM123.139 117.236C123.531 117.236 123.839 117.124 124.063 116.9C124.287 116.676 124.399 116.354 124.399 115.934V113.848C124.399 113.428 124.287 113.106 124.063 112.882C123.839 112.658 123.531 112.546 123.139 112.546C122.701 112.546 122.36 112.7 122.117 113.008C121.875 113.307 121.753 113.82 121.753 114.548V115.248C121.753 115.967 121.875 116.48 122.117 116.788C122.36 117.087 122.701 117.236 123.139 117.236ZM132.962 109.228V116.424C132.962 116.853 132.892 117.236 132.752 117.572C132.621 117.908 132.435 118.197 132.192 118.44C131.949 118.673 131.655 118.855 131.31 118.986C130.974 119.107 130.601 119.168 130.19 119.168C129.471 119.168 128.874 118.991 128.398 118.636C127.931 118.272 127.633 117.763 127.502 117.11L128.3 116.928C128.403 117.367 128.599 117.731 128.888 118.02C129.187 118.3 129.625 118.44 130.204 118.44C130.82 118.44 131.291 118.258 131.618 117.894C131.954 117.53 132.122 116.993 132.122 116.284V109.956H128.426V109.228H132.962ZM139.046 119.168C138.038 119.168 137.245 118.841 136.666 118.188C136.097 117.525 135.812 116.597 135.812 115.402C135.812 114.805 135.887 114.273 136.036 113.806C136.186 113.33 136.396 112.933 136.666 112.616C136.946 112.289 137.282 112.042 137.674 111.874C138.066 111.697 138.5 111.608 138.976 111.608C139.462 111.608 139.896 111.697 140.278 111.874C140.661 112.042 140.983 112.285 141.244 112.602C141.515 112.919 141.72 113.297 141.86 113.736C142 114.175 142.07 114.66 142.07 115.192V115.542H136.652V115.892C136.652 116.667 136.862 117.292 137.282 117.768C137.702 118.235 138.29 118.468 139.046 118.468C139.578 118.468 140.031 118.347 140.404 118.104C140.787 117.861 141.081 117.502 141.286 117.026L141.888 117.404C141.674 117.936 141.324 118.365 140.838 118.692C140.353 119.009 139.756 119.168 139.046 119.168ZM138.976 112.28C138.622 112.28 138.3 112.345 138.01 112.476C137.73 112.597 137.488 112.77 137.282 112.994C137.086 113.218 136.932 113.489 136.82 113.806C136.708 114.123 136.652 114.473 136.652 114.856V114.94H141.216V114.828C141.216 114.044 141.016 113.423 140.614 112.966C140.222 112.509 139.676 112.28 138.976 112.28ZM144.655 119V111.776H145.453V112.896H145.509C145.649 112.56 145.882 112.261 146.209 112C146.545 111.739 147.016 111.608 147.623 111.608C148.407 111.608 149.014 111.846 149.443 112.322C149.882 112.789 150.101 113.461 150.101 114.338V119H149.303V114.478C149.303 113.731 149.14 113.185 148.813 112.84C148.496 112.495 148.029 112.322 147.413 112.322C147.161 112.322 146.918 112.355 146.685 112.42C146.452 112.485 146.242 112.583 146.055 112.714C145.878 112.845 145.733 113.013 145.621 113.218C145.509 113.414 145.453 113.647 145.453 113.918V119H144.655ZM153.049 119V111.776H153.847V112.896H153.903C154.043 112.56 154.277 112.261 154.603 112C154.939 111.739 155.411 111.608 156.017 111.608C156.801 111.608 157.408 111.846 157.837 112.322C158.276 112.789 158.495 113.461 158.495 114.338V119H157.697V114.478C157.697 113.731 157.534 113.185 157.207 112.84C156.89 112.495 156.423 112.322 155.807 112.322C155.555 112.322 155.313 112.355 155.079 112.42C154.846 112.485 154.636 112.583 154.449 112.714C154.272 112.845 154.127 113.013 154.015 113.218C153.903 113.414 153.847 113.647 153.847 113.918V119H153.049ZM166.61 111.776H167.408L163.642 120.96C163.521 121.249 163.367 121.459 163.18 121.59C163.003 121.73 162.723 121.8 162.34 121.8H161.136V121.114H162.774L163.726 118.804L160.828 111.776H161.654L164.104 117.838H164.16L166.61 111.776ZM181.243 119.168C178.91 119.168 177.743 117.483 177.743 114.114C177.743 110.745 178.91 109.06 181.243 109.06C181.644 109.06 181.999 109.116 182.307 109.228C182.615 109.34 182.886 109.489 183.119 109.676C183.352 109.863 183.548 110.082 183.707 110.334C183.875 110.586 184.015 110.852 184.127 111.132L183.413 111.454C183.32 111.221 183.208 111.001 183.077 110.796C182.956 110.591 182.806 110.413 182.629 110.264C182.461 110.115 182.26 109.998 182.027 109.914C181.803 109.83 181.542 109.788 181.243 109.788C180.366 109.788 179.712 110.11 179.283 110.754C178.854 111.389 178.639 112.289 178.639 113.456V114.772C178.639 115.939 178.854 116.844 179.283 117.488C179.712 118.123 180.366 118.44 181.243 118.44C181.542 118.44 181.803 118.398 182.027 118.314C182.26 118.23 182.461 118.113 182.629 117.964C182.806 117.815 182.956 117.642 183.077 117.446C183.208 117.241 183.32 117.017 183.413 116.774L184.127 117.096C184.015 117.376 183.875 117.642 183.707 117.894C183.548 118.146 183.352 118.365 183.119 118.552C182.886 118.739 182.615 118.888 182.307 119C181.999 119.112 181.644 119.168 181.243 119.168ZM189.302 119.168C188.312 119.168 187.538 118.837 186.978 118.174C186.427 117.511 186.152 116.583 186.152 115.388C186.152 114.193 186.427 113.265 186.978 112.602C187.538 111.939 188.312 111.608 189.302 111.608C190.291 111.608 191.061 111.939 191.612 112.602C192.172 113.265 192.452 114.193 192.452 115.388C192.452 116.583 192.172 117.511 191.612 118.174C191.061 118.837 190.291 119.168 189.302 119.168ZM189.302 118.468C190.011 118.468 190.571 118.244 190.982 117.796C191.392 117.348 191.598 116.695 191.598 115.836V114.94C191.598 114.081 191.392 113.428 190.982 112.98C190.571 112.532 190.011 112.308 189.302 112.308C188.592 112.308 188.032 112.532 187.622 112.98C187.211 113.428 187.006 114.081 187.006 114.94V115.836C187.006 116.695 187.211 117.348 187.622 117.796C188.032 118.244 188.592 118.468 189.302 118.468ZM199.572 117.88H199.516C199.376 118.216 199.138 118.515 198.802 118.776C198.475 119.037 198.009 119.168 197.402 119.168C196.618 119.168 196.007 118.935 195.568 118.468C195.139 117.992 194.924 117.315 194.924 116.438V111.776H195.722V116.298C195.722 117.045 195.881 117.591 196.198 117.936C196.525 118.281 196.996 118.454 197.612 118.454C197.864 118.454 198.107 118.421 198.34 118.356C198.573 118.291 198.779 118.193 198.956 118.062C199.143 117.931 199.292 117.768 199.404 117.572C199.516 117.367 199.572 117.129 199.572 116.858V111.776H200.37V119H199.572V117.88ZM203.067 118.314H205.699V109.326H203.067V108.64H206.497V118.314H209.115V119H203.067V118.314ZM216.389 117.852H216.347C216.142 118.244 215.852 118.561 215.479 118.804C215.115 119.047 214.658 119.168 214.107 119.168C213.202 119.168 212.497 118.846 211.993 118.202C211.489 117.549 211.237 116.611 211.237 115.388C211.237 114.165 211.489 113.232 211.993 112.588C212.497 111.935 213.202 111.608 214.107 111.608C214.658 111.608 215.115 111.729 215.479 111.972C215.852 112.215 216.142 112.532 216.347 112.924H216.389V108.64H217.187V119H216.389V117.852ZM214.373 118.454C214.644 118.454 214.9 118.417 215.143 118.342C215.386 118.267 215.6 118.16 215.787 118.02C215.974 117.88 216.118 117.707 216.221 117.502C216.333 117.297 216.389 117.068 216.389 116.816V113.96C216.389 113.708 216.333 113.479 216.221 113.274C216.118 113.069 215.974 112.896 215.787 112.756C215.6 112.616 215.386 112.509 215.143 112.434C214.9 112.359 214.644 112.322 214.373 112.322C213.645 112.322 213.08 112.551 212.679 113.008C212.287 113.465 212.091 114.091 212.091 114.884V115.892C212.091 116.685 212.287 117.311 212.679 117.768C213.08 118.225 213.645 118.454 214.373 118.454ZM233.766 111.776H234.564L230.798 120.96C230.677 121.249 230.523 121.459 230.336 121.59C230.159 121.73 229.879 121.8 229.496 121.8H228.292V121.114H229.93L230.882 118.804L227.984 111.776H228.81L231.26 117.838H231.316L233.766 111.776ZM239.669 119.168C238.679 119.168 237.905 118.837 237.345 118.174C236.794 117.511 236.519 116.583 236.519 115.388C236.519 114.193 236.794 113.265 237.345 112.602C237.905 111.939 238.679 111.608 239.669 111.608C240.658 111.608 241.428 111.939 241.979 112.602C242.539 113.265 242.819 114.193 242.819 115.388C242.819 116.583 242.539 117.511 241.979 118.174C241.428 118.837 240.658 119.168 239.669 119.168ZM239.669 118.468C240.378 118.468 240.938 118.244 241.349 117.796C241.759 117.348 241.965 116.695 241.965 115.836V114.94C241.965 114.081 241.759 113.428 241.349 112.98C240.938 112.532 240.378 112.308 239.669 112.308C238.959 112.308 238.399 112.532 237.989 112.98C237.578 113.428 237.373 114.081 237.373 114.94V115.836C237.373 116.695 237.578 117.348 237.989 117.796C238.399 118.244 238.959 118.468 239.669 118.468ZM249.939 117.88H249.883C249.743 118.216 249.505 118.515 249.169 118.776C248.843 119.037 248.376 119.168 247.769 119.168C246.985 119.168 246.374 118.935 245.935 118.468C245.506 117.992 245.291 117.315 245.291 116.438V111.776H246.089V116.298C246.089 117.045 246.248 117.591 246.565 117.936C246.892 118.281 247.363 118.454 247.979 118.454C248.231 118.454 248.474 118.421 248.707 118.356C248.941 118.291 249.146 118.193 249.323 118.062C249.51 117.931 249.659 117.768 249.771 117.572C249.883 117.367 249.939 117.129 249.939 116.858V111.776H250.737V119H249.939V117.88ZM38.48 138.168C37.472 138.168 36.6927 137.837 36.142 137.174C35.5913 136.511 35.316 135.583 35.316 134.388C35.316 133.193 35.5913 132.265 36.142 131.602C36.702 130.939 37.4767 130.608 38.466 130.608C39.138 130.608 39.6887 130.762 40.118 131.07C40.5473 131.369 40.8553 131.756 41.042 132.232L40.398 132.554C40.2487 132.153 40.0107 131.845 39.684 131.63C39.3573 131.415 38.9513 131.308 38.466 131.308C37.7287 131.308 37.1593 131.546 36.758 132.022C36.366 132.489 36.17 133.109 36.17 133.884V134.892C36.17 135.667 36.366 136.292 36.758 136.768C37.1593 137.235 37.7333 137.468 38.48 137.468C38.9933 137.468 39.4227 137.351 39.768 137.118C40.1133 136.885 40.3793 136.558 40.566 136.138L41.154 136.516C40.9487 136.992 40.6267 137.389 40.188 137.706C39.7493 138.014 39.18 138.168 38.48 138.168ZM43.9205 127.64H44.7185V131.896H44.7745C44.9145 131.56 45.1479 131.261 45.4745 131C45.8105 130.739 46.2819 130.608 46.8885 130.608C47.6725 130.608 48.2792 130.846 48.7085 131.322C49.1472 131.789 49.3665 132.461 49.3665 133.338V138H48.5685V133.478C48.5685 132.731 48.4052 132.185 48.0785 131.84C47.7612 131.495 47.2945 131.322 46.6785 131.322C46.4265 131.322 46.1839 131.355 45.9505 131.42C45.7172 131.485 45.5072 131.583 45.3205 131.714C45.1432 131.845 44.9985 132.013 44.8865 132.218C44.7745 132.414 44.7185 132.647 44.7185 132.918V138H43.9205V127.64ZM55.1011 138.168C54.0931 138.168 53.2997 137.841 52.7211 137.188C52.1517 136.525 51.8671 135.597 51.8671 134.402C51.8671 133.805 51.9417 133.273 52.0911 132.806C52.2404 132.33 52.4504 131.933 52.7211 131.616C53.0011 131.289 53.3371 131.042 53.7291 130.874C54.1211 130.697 54.5551 130.608 55.0311 130.608C55.5164 130.608 55.9504 130.697 56.3331 130.874C56.7157 131.042 57.0377 131.285 57.2991 131.602C57.5697 131.919 57.7751 132.297 57.9151 132.736C58.0551 133.175 58.1251 133.66 58.1251 134.192V134.542H52.7071V134.892C52.7071 135.667 52.9171 136.292 53.3371 136.768C53.7571 137.235 54.3451 137.468 55.1011 137.468C55.6331 137.468 56.0857 137.347 56.4591 137.104C56.8417 136.861 57.1357 136.502 57.3411 136.026L57.9431 136.404C57.7284 136.936 57.3784 137.365 56.8931 137.692C56.4077 138.009 55.8104 138.168 55.1011 138.168ZM55.0311 131.28C54.6764 131.28 54.3544 131.345 54.0651 131.476C53.7851 131.597 53.5424 131.77 53.3371 131.994C53.1411 132.218 52.9871 132.489 52.8751 132.806C52.7631 133.123 52.7071 133.473 52.7071 133.856V133.94H57.2711V133.828C57.2711 133.044 57.0704 132.423 56.6691 131.966C56.2771 131.509 55.7311 131.28 55.0311 131.28ZM63.6636 138.168C62.6556 138.168 61.8763 137.837 61.3256 137.174C60.7749 136.511 60.4996 135.583 60.4996 134.388C60.4996 133.193 60.7749 132.265 61.3256 131.602C61.8856 130.939 62.6603 130.608 63.6496 130.608C64.3216 130.608 64.8723 130.762 65.3016 131.07C65.7309 131.369 66.0389 131.756 66.2256 132.232L65.5816 132.554C65.4323 132.153 65.1943 131.845 64.8676 131.63C64.5409 131.415 64.1349 131.308 63.6496 131.308C62.9123 131.308 62.3429 131.546 61.9416 132.022C61.5496 132.489 61.3536 133.109 61.3536 133.884V134.892C61.3536 135.667 61.5496 136.292 61.9416 136.768C62.3429 137.235 62.9169 137.468 63.6636 137.468C64.1769 137.468 64.6063 137.351 64.9516 137.118C65.2969 136.885 65.5629 136.558 65.7496 136.138L66.3376 136.516C66.1323 136.992 65.8103 137.389 65.3716 137.706C64.9329 138.014 64.3636 138.168 63.6636 138.168ZM69.2301 127.64H70.0281V134.472H70.0841L71.4981 133.184L74.1861 130.776H75.1801L72.0861 133.604L75.5441 138H74.5501L71.4701 134.08L70.0281 135.354V138H69.2301V127.64ZM88.5952 138C88.2032 138 87.9139 137.897 87.7272 137.692C87.5499 137.477 87.4612 137.193 87.4612 136.838V131.462H84.8992V130.776H86.9292C87.1345 130.776 87.2792 130.734 87.3632 130.65C87.4472 130.566 87.4892 130.421 87.4892 130.216V128.228H88.2592V130.776H91.7032V131.462H88.2592V137.314H91.7032V138H88.5952ZM94.2877 127.64H95.0857V131.896H95.1417C95.2817 131.56 95.5151 131.261 95.8417 131C96.1777 130.739 96.6491 130.608 97.2557 130.608C98.0397 130.608 98.6464 130.846 99.0757 131.322C99.5144 131.789 99.7337 132.461 99.7337 133.338V138H98.9357V133.478C98.9357 132.731 98.7724 132.185 98.4457 131.84C98.1284 131.495 97.6617 131.322 97.0457 131.322C96.7937 131.322 96.5511 131.355 96.3177 131.42C96.0844 131.485 95.8744 131.583 95.6877 131.714C95.5104 131.845 95.3657 132.013 95.2537 132.218C95.1417 132.414 95.0857 132.647 95.0857 132.918V138H94.2877V127.64ZM105.468 138.168C104.46 138.168 103.667 137.841 103.088 137.188C102.519 136.525 102.234 135.597 102.234 134.402C102.234 133.805 102.309 133.273 102.458 132.806C102.608 132.33 102.818 131.933 103.088 131.616C103.368 131.289 103.704 131.042 104.096 130.874C104.488 130.697 104.922 130.608 105.398 130.608C105.884 130.608 106.318 130.697 106.7 130.874C107.083 131.042 107.405 131.285 107.666 131.602C107.937 131.919 108.142 132.297 108.282 132.736C108.422 133.175 108.492 133.66 108.492 134.192V134.542H103.074V134.892C103.074 135.667 103.284 136.292 103.704 136.768C104.124 137.235 104.712 137.468 105.468 137.468C106 137.468 106.453 137.347 106.826 137.104C107.209 136.861 107.503 136.502 107.708 136.026L108.31 136.404C108.096 136.936 107.746 137.365 107.26 137.692C106.775 138.009 106.178 138.168 105.468 138.168ZM105.398 131.28C105.044 131.28 104.722 131.345 104.432 131.476C104.152 131.597 103.91 131.77 103.704 131.994C103.508 132.218 103.354 132.489 103.242 132.806C103.13 133.123 103.074 133.473 103.074 133.856V133.94H107.638V133.828C107.638 133.044 107.438 132.423 107.036 131.966C106.644 131.509 106.098 131.28 105.398 131.28ZM124.651 138C124.325 138 124.091 137.921 123.951 137.762C123.811 137.603 123.732 137.389 123.713 137.118V136.866H123.643C123.485 137.249 123.223 137.561 122.859 137.804C122.495 138.047 122.001 138.168 121.375 138.168C120.619 138.168 120.022 137.986 119.583 137.622C119.154 137.249 118.939 136.726 118.939 136.054C118.939 135.737 118.991 135.452 119.093 135.2C119.205 134.939 119.378 134.719 119.611 134.542C119.854 134.365 120.162 134.229 120.535 134.136C120.909 134.033 121.366 133.982 121.907 133.982H123.671V133.1C123.671 132.493 123.503 132.041 123.167 131.742C122.841 131.443 122.383 131.294 121.795 131.294C120.806 131.294 120.115 131.691 119.723 132.484L119.177 132.092C119.364 131.672 119.677 131.322 120.115 131.042C120.563 130.753 121.137 130.608 121.837 130.608C122.659 130.608 123.303 130.823 123.769 131.252C124.236 131.672 124.469 132.26 124.469 133.016V137.3H125.547V138H124.651ZM121.501 137.496C121.809 137.496 122.094 137.459 122.355 137.384C122.617 137.309 122.845 137.207 123.041 137.076C123.237 136.936 123.391 136.768 123.503 136.572C123.615 136.376 123.671 136.157 123.671 135.914V134.584H121.907C121.151 134.584 120.605 134.701 120.269 134.934C119.943 135.158 119.779 135.466 119.779 135.858V136.222C119.779 136.642 119.933 136.959 120.241 137.174C120.559 137.389 120.979 137.496 121.501 137.496ZM130.568 138C130.176 138 129.887 137.897 129.7 137.692C129.523 137.477 129.434 137.193 129.434 136.838V131.462H126.872V130.776H128.902C129.107 130.776 129.252 130.734 129.336 130.65C129.42 130.566 129.462 130.421 129.462 130.216V128.228H130.232V130.776H133.676V131.462H130.232V137.314H133.676V138H130.568ZM138.962 138C138.57 138 138.281 137.897 138.094 137.692C137.917 137.477 137.828 137.193 137.828 136.838V131.462H135.266V130.776H137.296C137.502 130.776 137.646 130.734 137.73 130.65C137.814 130.566 137.856 130.421 137.856 130.216V128.228H138.626V130.776H142.07V131.462H138.626V137.314H142.07V138H138.962ZM149.835 138C149.508 138 149.275 137.921 149.135 137.762C148.995 137.603 148.916 137.389 148.897 137.118V136.866H148.827C148.668 137.249 148.407 137.561 148.043 137.804C147.679 138.047 147.184 138.168 146.559 138.168C145.803 138.168 145.206 137.986 144.767 137.622C144.338 137.249 144.123 136.726 144.123 136.054C144.123 135.737 144.174 135.452 144.277 135.2C144.389 134.939 144.562 134.719 144.795 134.542C145.038 134.365 145.346 134.229 145.719 134.136C146.092 134.033 146.55 133.982 147.091 133.982H148.855V133.1C148.855 132.493 148.687 132.041 148.351 131.742C148.024 131.443 147.567 131.294 146.979 131.294C145.99 131.294 145.299 131.691 144.907 132.484L144.361 132.092C144.548 131.672 144.86 131.322 145.299 131.042C145.747 130.753 146.321 130.608 147.021 130.608C147.842 130.608 148.486 130.823 148.953 131.252C149.42 131.672 149.653 132.26 149.653 133.016V137.3H150.731V138H149.835ZM146.685 137.496C146.993 137.496 147.278 137.459 147.539 137.384C147.8 137.309 148.029 137.207 148.225 137.076C148.421 136.936 148.575 136.768 148.687 136.572C148.799 136.376 148.855 136.157 148.855 135.914V134.584H147.091C146.335 134.584 145.789 134.701 145.453 134.934C145.126 135.158 144.963 135.466 144.963 135.858V136.222C144.963 136.642 145.117 136.959 145.425 137.174C145.742 137.389 146.162 137.496 146.685 137.496ZM156.003 138.168C154.995 138.168 154.216 137.837 153.665 137.174C153.115 136.511 152.839 135.583 152.839 134.388C152.839 133.193 153.115 132.265 153.665 131.602C154.225 130.939 155 130.608 155.989 130.608C156.661 130.608 157.212 130.762 157.641 131.07C158.071 131.369 158.379 131.756 158.565 132.232L157.921 132.554C157.772 132.153 157.534 131.845 157.207 131.63C156.881 131.415 156.475 131.308 155.989 131.308C155.252 131.308 154.683 131.546 154.281 132.022C153.889 132.489 153.693 133.109 153.693 133.884V134.892C153.693 135.667 153.889 136.292 154.281 136.768C154.683 137.235 155.257 137.468 156.003 137.468C156.517 137.468 156.946 137.351 157.291 137.118C157.637 136.885 157.903 136.558 158.089 136.138L158.677 136.516C158.472 136.992 158.15 137.389 157.711 137.706C157.273 138.014 156.703 138.168 156.003 138.168ZM161.444 127.64H162.242V131.896H162.298C162.438 131.56 162.671 131.261 162.998 131C163.334 130.739 163.805 130.608 164.412 130.608C165.196 130.608 165.803 130.846 166.232 131.322C166.671 131.789 166.89 132.461 166.89 133.338V138H166.092V133.478C166.092 132.731 165.929 132.185 165.602 131.84C165.285 131.495 164.818 131.322 164.202 131.322C163.95 131.322 163.707 131.355 163.474 131.42C163.241 131.485 163.031 131.583 162.844 131.714C162.667 131.845 162.522 132.013 162.41 132.218C162.298 132.414 162.242 132.647 162.242 132.918V138H161.444V127.64ZM172.625 138.168C171.617 138.168 170.823 137.841 170.245 137.188C169.675 136.525 169.391 135.597 169.391 134.402C169.391 133.805 169.465 133.273 169.615 132.806C169.764 132.33 169.974 131.933 170.245 131.616C170.525 131.289 170.861 131.042 171.253 130.874C171.645 130.697 172.079 130.608 172.555 130.608C173.04 130.608 173.474 130.697 173.857 130.874C174.239 131.042 174.561 131.285 174.823 131.602C175.093 131.919 175.299 132.297 175.439 132.736C175.579 133.175 175.649 133.66 175.649 134.192V134.542H170.231V134.892C170.231 135.667 170.441 136.292 170.861 136.768C171.281 137.235 171.869 137.468 172.625 137.468C173.157 137.468 173.609 137.347 173.983 137.104C174.365 136.861 174.659 136.502 174.865 136.026L175.467 136.404C175.252 136.936 174.902 137.365 174.417 137.692C173.931 138.009 173.334 138.168 172.625 138.168ZM172.555 131.28C172.2 131.28 171.878 131.345 171.589 131.476C171.309 131.597 171.066 131.77 170.861 131.994C170.665 132.218 170.511 132.489 170.399 132.806C170.287 133.123 170.231 133.473 170.231 133.856V133.94H174.795V133.828C174.795 133.044 174.594 132.423 174.193 131.966C173.801 131.509 173.255 131.28 172.555 131.28ZM182.811 136.852H182.769C182.564 137.244 182.274 137.561 181.901 137.804C181.537 138.047 181.08 138.168 180.529 138.168C179.624 138.168 178.919 137.846 178.415 137.202C177.911 136.549 177.659 135.611 177.659 134.388C177.659 133.165 177.911 132.232 178.415 131.588C178.919 130.935 179.624 130.608 180.529 130.608C181.08 130.608 181.537 130.729 181.901 130.972C182.274 131.215 182.564 131.532 182.769 131.924H182.811V127.64H183.609V138H182.811V136.852ZM180.795 137.454C181.066 137.454 181.322 137.417 181.565 137.342C181.808 137.267 182.022 137.16 182.209 137.02C182.396 136.88 182.54 136.707 182.643 136.502C182.755 136.297 182.811 136.068 182.811 135.816V132.96C182.811 132.708 182.755 132.479 182.643 132.274C182.54 132.069 182.396 131.896 182.209 131.756C182.022 131.616 181.808 131.509 181.565 131.434C181.322 131.359 181.066 131.322 180.795 131.322C180.067 131.322 179.502 131.551 179.101 132.008C178.709 132.465 178.513 133.091 178.513 133.884V134.892C178.513 135.685 178.709 136.311 179.101 136.768C179.502 137.225 180.067 137.454 180.795 137.454ZM197.724 138C197.332 138 197.043 137.897 196.856 137.692C196.679 137.477 196.59 137.193 196.59 136.838V131.462H194.028V130.776H196.058C196.263 130.776 196.408 130.734 196.492 130.65C196.576 130.566 196.618 130.421 196.618 130.216V128.228H197.388V130.776H200.832V131.462H197.388V137.314H200.832V138H197.724ZM206.091 138.168C205.101 138.168 204.327 137.837 203.767 137.174C203.216 136.511 202.941 135.583 202.941 134.388C202.941 133.193 203.216 132.265 203.767 131.602C204.327 130.939 205.101 130.608 206.091 130.608C207.08 130.608 207.85 130.939 208.401 131.602C208.961 132.265 209.241 133.193 209.241 134.388C209.241 135.583 208.961 136.511 208.401 137.174C207.85 137.837 207.08 138.168 206.091 138.168ZM206.091 137.468C206.8 137.468 207.36 137.244 207.771 136.796C208.181 136.348 208.387 135.695 208.387 134.836V133.94C208.387 133.081 208.181 132.428 207.771 131.98C207.36 131.532 206.8 131.308 206.091 131.308C205.381 131.308 204.821 131.532 204.411 131.98C204 132.428 203.795 133.081 203.795 133.94V134.836C203.795 135.695 204 136.348 204.411 136.796C204.821 137.244 205.381 137.468 206.091 137.468ZM222.908 138C222.516 138 222.226 137.897 222.04 137.692C221.862 137.477 221.774 137.193 221.774 136.838V131.462H219.212V130.776H221.242C221.447 130.776 221.592 130.734 221.676 130.65C221.76 130.566 221.802 130.421 221.802 130.216V128.228H222.572V130.776H226.016V131.462H222.572V137.314H226.016V138H222.908ZM228.6 127.64H229.398V131.896H229.454C229.594 131.56 229.828 131.261 230.154 131C230.49 130.739 230.962 130.608 231.568 130.608C232.352 130.608 232.959 130.846 233.388 131.322C233.827 131.789 234.046 132.461 234.046 133.338V138H233.248V133.478C233.248 132.731 233.085 132.185 232.758 131.84C232.441 131.495 231.974 131.322 231.358 131.322C231.106 131.322 230.864 131.355 230.63 131.42C230.397 131.485 230.187 131.583 230 131.714C229.823 131.845 229.678 132.013 229.566 132.218C229.454 132.414 229.398 132.647 229.398 132.918V138H228.6V127.64ZM239.781 138.168C238.773 138.168 237.979 137.841 237.401 137.188C236.831 136.525 236.547 135.597 236.547 134.402C236.547 133.805 236.621 133.273 236.771 132.806C236.92 132.33 237.13 131.933 237.401 131.616C237.681 131.289 238.017 131.042 238.409 130.874C238.801 130.697 239.235 130.608 239.711 130.608C240.196 130.608 240.63 130.697 241.013 130.874C241.395 131.042 241.717 131.285 241.979 131.602C242.249 131.919 242.455 132.297 242.595 132.736C242.735 133.175 242.805 133.66 242.805 134.192V134.542H237.387V134.892C237.387 135.667 237.597 136.292 238.017 136.768C238.437 137.235 239.025 137.468 239.781 137.468C240.313 137.468 240.765 137.347 241.139 137.104C241.521 136.861 241.815 136.502 242.021 136.026L242.623 136.404C242.408 136.936 242.058 137.365 241.573 137.692C241.087 138.009 240.49 138.168 239.781 138.168ZM239.711 131.28C239.356 131.28 239.034 131.345 238.745 131.476C238.465 131.597 238.222 131.77 238.017 131.994C237.821 132.218 237.667 132.489 237.555 132.806C237.443 133.123 237.387 133.473 237.387 133.856V133.94H241.951V133.828C241.951 133.044 241.75 132.423 241.349 131.966C240.957 131.509 240.411 131.28 239.711 131.28ZM38.228 157C37.836 157 37.5467 156.897 37.36 156.692C37.1827 156.477 37.094 156.193 37.094 155.838V150.462H34.532V149.776H36.562C36.7673 149.776 36.912 149.734 36.996 149.65C37.08 149.566 37.122 149.421 37.122 149.216V147.228H37.892V149.776H41.336V150.462H37.892V156.314H41.336V157H38.228ZM49.1005 157C48.7739 157 48.5405 156.921 48.4005 156.762C48.2605 156.603 48.1812 156.389 48.1625 156.118V155.866H48.0925C47.9339 156.249 47.6725 156.561 47.3085 156.804C46.9445 157.047 46.4499 157.168 45.8245 157.168C45.0685 157.168 44.4712 156.986 44.0325 156.622C43.6032 156.249 43.3885 155.726 43.3885 155.054C43.3885 154.737 43.4399 154.452 43.5425 154.2C43.6545 153.939 43.8272 153.719 44.0605 153.542C44.3032 153.365 44.6112 153.229 44.9845 153.136C45.3579 153.033 45.8152 152.982 46.3565 152.982H48.1205V152.1C48.1205 151.493 47.9525 151.041 47.6165 150.742C47.2899 150.443 46.8325 150.294 46.2445 150.294C45.2552 150.294 44.5645 150.691 44.1725 151.484L43.6265 151.092C43.8132 150.672 44.1259 150.322 44.5645 150.042C45.0125 149.753 45.5865 149.608 46.2865 149.608C47.1079 149.608 47.7519 149.823 48.2185 150.252C48.6852 150.672 48.9185 151.26 48.9185 152.016V156.3H49.9965V157H49.1005ZM45.9505 156.496C46.2585 156.496 46.5432 156.459 46.8045 156.384C47.0659 156.309 47.2945 156.207 47.4905 156.076C47.6865 155.936 47.8405 155.768 47.9525 155.572C48.0645 155.376 48.1205 155.157 48.1205 154.914V153.584H46.3565C45.6005 153.584 45.0545 153.701 44.7185 153.934C44.3919 154.158 44.2285 154.466 44.2285 154.858V155.222C44.2285 155.642 44.3825 155.959 44.6905 156.174C45.0079 156.389 45.4279 156.496 45.9505 156.496ZM55.1431 157.168C54.4151 157.168 53.7804 157.047 53.2391 156.804C52.7071 156.552 52.2451 156.202 51.8531 155.754L52.3991 155.278C52.7537 155.689 53.1504 155.997 53.5891 156.202C54.0277 156.398 54.5504 156.496 55.1571 156.496C55.7917 156.496 56.3051 156.375 56.6971 156.132C57.0984 155.889 57.2991 155.516 57.2991 155.012C57.2991 154.788 57.2571 154.606 57.1731 154.466C57.0984 154.317 56.9911 154.195 56.8511 154.102C56.7111 154.009 56.5477 153.939 56.3611 153.892C56.1744 153.836 55.9691 153.794 55.7451 153.766L54.6251 153.612C54.3451 153.575 54.0604 153.523 53.7711 153.458C53.4911 153.383 53.2344 153.276 53.0011 153.136C52.7771 152.996 52.5904 152.809 52.4411 152.576C52.3011 152.343 52.2311 152.044 52.2311 151.68C52.2311 151.325 52.3011 151.017 52.4411 150.756C52.5811 150.495 52.7771 150.28 53.0291 150.112C53.2811 149.944 53.5751 149.818 53.9111 149.734C54.2564 149.65 54.6251 149.608 55.0171 149.608C55.6891 149.608 56.2537 149.72 56.7111 149.944C57.1777 150.159 57.5697 150.429 57.8871 150.756L57.3551 151.26C57.2524 151.148 57.1311 151.036 56.9911 150.924C56.8604 150.803 56.6971 150.695 56.5011 150.602C56.3144 150.509 56.0951 150.434 55.8431 150.378C55.5911 150.313 55.3017 150.28 54.9751 150.28C54.3591 150.28 53.8784 150.392 53.5331 150.616C53.1971 150.84 53.0291 151.176 53.0291 151.624C53.0291 151.848 53.0664 152.035 53.1411 152.184C53.2251 152.324 53.3371 152.441 53.4771 152.534C53.6171 152.627 53.7804 152.702 53.9671 152.758C54.1537 152.805 54.3544 152.842 54.5691 152.87L55.7031 153.038C55.9831 153.085 56.2631 153.145 56.5431 153.22C56.8324 153.285 57.0891 153.388 57.3131 153.528C57.5464 153.668 57.7331 153.855 57.8731 154.088C58.0131 154.312 58.0831 154.606 58.0831 154.97C58.0831 155.334 58.0084 155.651 57.8591 155.922C57.7191 156.193 57.5184 156.421 57.2571 156.608C57.0051 156.795 56.6971 156.935 56.3331 157.028C55.9691 157.121 55.5724 157.168 55.1431 157.168ZM60.8356 146.64H61.6336V153.472H61.6896L63.1036 152.184L65.7916 149.776H66.7856L63.6916 152.604L67.1496 157H66.1556L63.0756 153.08L61.6336 154.354V157H60.8356V146.64ZM82.0767 155.852H82.0347C81.8293 156.244 81.54 156.561 81.1667 156.804C80.8027 157.047 80.3453 157.168 79.7947 157.168C78.8893 157.168 78.1847 156.846 77.6807 156.202C77.1767 155.549 76.9247 154.611 76.9247 153.388C76.9247 152.165 77.1767 151.232 77.6807 150.588C78.1847 149.935 78.8893 149.608 79.7947 149.608C80.3453 149.608 80.8027 149.729 81.1667 149.972C81.54 150.215 81.8293 150.532 82.0347 150.924H82.0767V146.64H82.8747V157H82.0767V155.852ZM80.0607 156.454C80.3313 156.454 80.588 156.417 80.8307 156.342C81.0733 156.267 81.288 156.16 81.4747 156.02C81.6613 155.88 81.806 155.707 81.9087 155.502C82.0207 155.297 82.0767 155.068 82.0767 154.816V151.96C82.0767 151.708 82.0207 151.479 81.9087 151.274C81.806 151.069 81.6613 150.896 81.4747 150.756C81.288 150.616 81.0733 150.509 80.8307 150.434C80.588 150.359 80.3313 150.322 80.0607 150.322C79.3327 150.322 78.768 150.551 78.3667 151.008C77.9747 151.465 77.7787 152.091 77.7787 152.884V153.892C77.7787 154.685 77.9747 155.311 78.3667 155.768C78.768 156.225 79.3327 156.454 80.0607 156.454ZM88.5672 157.168C87.5779 157.168 86.8032 156.837 86.2432 156.174C85.6925 155.511 85.4172 154.583 85.4172 153.388C85.4172 152.193 85.6925 151.265 86.2432 150.602C86.8032 149.939 87.5779 149.608 88.5672 149.608C89.5565 149.608 90.3265 149.939 90.8772 150.602C91.4372 151.265 91.7172 152.193 91.7172 153.388C91.7172 154.583 91.4372 155.511 90.8772 156.174C90.3265 156.837 89.5565 157.168 88.5672 157.168ZM88.5672 156.468C89.2765 156.468 89.8365 156.244 90.2472 155.796C90.6579 155.348 90.8632 154.695 90.8632 153.836V152.94C90.8632 152.081 90.6579 151.428 90.2472 150.98C89.8365 150.532 89.2765 150.308 88.5672 150.308C87.8579 150.308 87.2979 150.532 86.8872 150.98C86.4765 151.428 86.2712 152.081 86.2712 152.94V153.836C86.2712 154.695 86.4765 155.348 86.8872 155.796C87.2979 156.244 87.8579 156.468 88.5672 156.468ZM97.2417 157.168C96.2337 157.168 95.4544 156.837 94.9037 156.174C94.3531 155.511 94.0777 154.583 94.0777 153.388C94.0777 152.193 94.3531 151.265 94.9037 150.602C95.4637 149.939 96.2384 149.608 97.2277 149.608C97.8997 149.608 98.4504 149.762 98.8797 150.07C99.3091 150.369 99.6171 150.756 99.8037 151.232L99.1597 151.554C99.0104 151.153 98.7724 150.845 98.4457 150.63C98.1191 150.415 97.7131 150.308 97.2277 150.308C96.4904 150.308 95.9211 150.546 95.5197 151.022C95.1277 151.489 94.9317 152.109 94.9317 152.884V153.892C94.9317 154.667 95.1277 155.292 95.5197 155.768C95.9211 156.235 96.4951 156.468 97.2417 156.468C97.7551 156.468 98.1844 156.351 98.5297 156.118C98.8751 155.885 99.1411 155.558 99.3277 155.138L99.9157 155.516C99.7104 155.992 99.3884 156.389 98.9497 156.706C98.5111 157.014 97.9417 157.168 97.2417 157.168ZM107.232 155.88H107.176C107.036 156.216 106.798 156.515 106.462 156.776C106.136 157.037 105.669 157.168 105.062 157.168C104.278 157.168 103.667 156.935 103.228 156.468C102.799 155.992 102.584 155.315 102.584 154.438V149.776H103.382V154.298C103.382 155.045 103.541 155.591 103.858 155.936C104.185 156.281 104.656 156.454 105.272 156.454C105.524 156.454 105.767 156.421 106 156.356C106.234 156.291 106.439 156.193 106.616 156.062C106.803 155.931 106.952 155.768 107.064 155.572C107.176 155.367 107.232 155.129 107.232 154.858V149.776H108.03V157H107.232V155.88ZM110.419 157V149.776H111.161V150.616H111.203C111.315 150.336 111.478 150.098 111.693 149.902C111.917 149.706 112.229 149.608 112.631 149.608C113.041 149.608 113.359 149.711 113.583 149.916C113.807 150.112 113.947 150.387 114.003 150.742H114.031C114.161 150.415 114.348 150.145 114.591 149.93C114.833 149.715 115.169 149.608 115.599 149.608C116.159 149.608 116.546 149.795 116.761 150.168C116.985 150.532 117.097 151.064 117.097 151.764V157H116.355V151.89C116.355 151.302 116.271 150.887 116.103 150.644C115.944 150.401 115.687 150.28 115.333 150.28C114.997 150.28 114.712 150.397 114.479 150.63C114.245 150.854 114.129 151.199 114.129 151.666V157H113.387V151.89C113.387 151.302 113.303 150.887 113.135 150.644C112.976 150.401 112.719 150.28 112.365 150.28C112.029 150.28 111.744 150.397 111.511 150.63C111.277 150.854 111.161 151.199 111.161 151.666V157H110.419ZM122.257 157.168C121.249 157.168 120.456 156.841 119.877 156.188C119.308 155.525 119.023 154.597 119.023 153.402C119.023 152.805 119.098 152.273 119.247 151.806C119.397 151.33 119.607 150.933 119.877 150.616C120.157 150.289 120.493 150.042 120.885 149.874C121.277 149.697 121.711 149.608 122.187 149.608C122.673 149.608 123.107 149.697 123.489 149.874C123.872 150.042 124.194 150.285 124.455 150.602C124.726 150.919 124.931 151.297 125.071 151.736C125.211 152.175 125.281 152.66 125.281 153.192V153.542H119.863V153.892C119.863 154.667 120.073 155.292 120.493 155.768C120.913 156.235 121.501 156.468 122.257 156.468C122.789 156.468 123.242 156.347 123.615 156.104C123.998 155.861 124.292 155.502 124.497 155.026L125.099 155.404C124.885 155.936 124.535 156.365 124.049 156.692C123.564 157.009 122.967 157.168 122.257 157.168ZM122.187 150.28C121.833 150.28 121.511 150.345 121.221 150.476C120.941 150.597 120.699 150.77 120.493 150.994C120.297 151.218 120.143 151.489 120.031 151.806C119.919 152.123 119.863 152.473 119.863 152.856V152.94H124.427V152.828C124.427 152.044 124.227 151.423 123.825 150.966C123.433 150.509 122.887 150.28 122.187 150.28ZM127.866 157V149.776H128.664V150.896H128.72C128.86 150.56 129.093 150.261 129.42 150C129.756 149.739 130.227 149.608 130.834 149.608C131.618 149.608 132.225 149.846 132.654 150.322C133.093 150.789 133.312 151.461 133.312 152.338V157H132.514V152.478C132.514 151.731 132.351 151.185 132.024 150.84C131.707 150.495 131.24 150.322 130.624 150.322C130.372 150.322 130.129 150.355 129.896 150.42C129.663 150.485 129.453 150.583 129.266 150.714C129.089 150.845 128.944 151.013 128.832 151.218C128.72 151.414 128.664 151.647 128.664 151.918V157H127.866ZM138.962 157C138.57 157 138.281 156.897 138.094 156.692C137.917 156.477 137.828 156.193 137.828 155.838V150.462H135.266V149.776H137.296C137.502 149.776 137.646 149.734 137.73 149.65C137.814 149.566 137.856 149.421 137.856 149.216V147.228H138.626V149.776H142.07V150.462H138.626V156.314H142.07V157H138.962ZM147.483 157.168C146.755 157.168 146.12 157.047 145.579 156.804C145.047 156.552 144.585 156.202 144.193 155.754L144.739 155.278C145.094 155.689 145.49 155.997 145.929 156.202C146.368 156.398 146.89 156.496 147.497 156.496C148.132 156.496 148.645 156.375 149.037 156.132C149.438 155.889 149.639 155.516 149.639 155.012C149.639 154.788 149.597 154.606 149.513 154.466C149.438 154.317 149.331 154.195 149.191 154.102C149.051 154.009 148.888 153.939 148.701 153.892C148.514 153.836 148.309 153.794 148.085 153.766L146.965 153.612C146.685 153.575 146.4 153.523 146.111 153.458C145.831 153.383 145.574 153.276 145.341 153.136C145.117 152.996 144.93 152.809 144.781 152.576C144.641 152.343 144.571 152.044 144.571 151.68C144.571 151.325 144.641 151.017 144.781 150.756C144.921 150.495 145.117 150.28 145.369 150.112C145.621 149.944 145.915 149.818 146.251 149.734C146.596 149.65 146.965 149.608 147.357 149.608C148.029 149.608 148.594 149.72 149.051 149.944C149.518 150.159 149.91 150.429 150.227 150.756L149.695 151.26C149.592 151.148 149.471 151.036 149.331 150.924C149.2 150.803 149.037 150.695 148.841 150.602C148.654 150.509 148.435 150.434 148.183 150.378C147.931 150.313 147.642 150.28 147.315 150.28C146.699 150.28 146.218 150.392 145.873 150.616C145.537 150.84 145.369 151.176 145.369 151.624C145.369 151.848 145.406 152.035 145.481 152.184C145.565 152.324 145.677 152.441 145.817 152.534C145.957 152.627 146.12 152.702 146.307 152.758C146.494 152.805 146.694 152.842 146.909 152.87L148.043 153.038C148.323 153.085 148.603 153.145 148.883 153.22C149.172 153.285 149.429 153.388 149.653 153.528C149.886 153.668 150.073 153.855 150.213 154.088C150.353 154.312 150.423 154.606 150.423 154.97C150.423 155.334 150.348 155.651 150.199 155.922C150.059 156.193 149.858 156.421 149.597 156.608C149.345 156.795 149.037 156.935 148.673 157.028C148.309 157.121 147.912 157.168 147.483 157.168ZM155.023 154.2V151.918C155.873 151.89 156.535 151.699 157.011 151.344C157.487 150.98 157.725 150.471 157.725 149.818V149.552C157.725 148.992 157.548 148.558 157.193 148.25C156.839 147.942 156.353 147.788 155.737 147.788C155.121 147.788 154.627 147.947 154.253 148.264C153.889 148.581 153.633 149.006 153.483 149.538L152.727 149.272C152.821 148.955 152.951 148.661 153.119 148.39C153.287 148.119 153.497 147.886 153.749 147.69C154.001 147.494 154.295 147.34 154.631 147.228C154.967 147.116 155.345 147.06 155.765 147.06C156.643 147.06 157.333 147.293 157.837 147.76C158.341 148.227 158.593 148.857 158.593 149.65C158.593 150.079 158.519 150.457 158.369 150.784C158.229 151.111 158.033 151.395 157.781 151.638C157.529 151.871 157.235 152.063 156.899 152.212C156.563 152.352 156.204 152.45 155.821 152.506V154.2H155.023ZM155.457 157.098C155.159 157.098 154.944 157.037 154.813 156.916C154.692 156.795 154.631 156.636 154.631 156.44V156.244C154.631 156.057 154.692 155.903 154.813 155.782C154.944 155.651 155.159 155.586 155.457 155.586C155.747 155.586 155.952 155.651 156.073 155.782C156.204 155.903 156.269 156.057 156.269 156.244V156.44C156.269 156.636 156.204 156.795 156.073 156.916C155.952 157.037 155.747 157.098 155.457 157.098Z" fill="#999999"/>
<path d="M15.08 21V12.624H20.24V13.5H16.088V16.32H20.096V17.196H16.088V20.124H20.24V21H15.08ZM24.8313 21L22.3473 12.624H23.4153L24.6033 16.812L25.5033 19.98H25.5633L26.4633 16.812L27.6513 12.624H28.6833L26.1993 21H24.8313ZM30.9106 21V12.624H36.0706V13.5H31.9186V16.32H35.9266V17.196H31.9186V20.124H36.0706V21H30.9106ZM39.7019 13.908H39.6179V21H38.7059V12.624H40.1339L42.9899 19.644H43.0739V12.624H43.9859V21H42.5579L39.7019 13.908ZM49.7653 13.5V21H48.7573V13.5H45.9613V12.624H52.5613V13.5H49.7653ZM65.5959 13.5V21H64.5879V13.5H61.7919V12.624H68.3919V13.5H65.5959ZM71.4952 21H70.4872V12.624H73.5352C74.3112 12.624 74.9032 12.836 75.3112 13.26C75.7192 13.684 75.9232 14.276 75.9232 15.036C75.9232 15.716 75.7472 16.26 75.3952 16.668C75.0432 17.076 74.5312 17.312 73.8592 17.376L75.9952 21H74.8672L72.8272 17.424H71.4952V21ZM73.5112 16.572C73.9352 16.572 74.2632 16.468 74.4952 16.26C74.7352 16.044 74.8552 15.74 74.8552 15.348V14.724C74.8552 14.332 74.7352 14.032 74.4952 13.824C74.2632 13.608 73.9352 13.5 73.5112 13.5H71.4952V16.572H73.5112ZM78.3305 21V20.196H80.4185V13.428H78.3305V12.624H83.5145V13.428H81.4265V20.196H83.5145V21H78.3305ZM90.5658 19.884H90.5058C90.4338 20.044 90.3498 20.2 90.2538 20.352C90.1578 20.504 90.0338 20.64 89.8818 20.76C89.7378 20.872 89.5618 20.964 89.3538 21.036C89.1458 21.108 88.8978 21.144 88.6098 21.144C87.6978 21.144 87.0178 20.776 86.5698 20.04C86.1298 19.304 85.9098 18.248 85.9098 16.872C85.9098 15.432 86.1538 14.34 86.6418 13.596C87.1298 12.852 87.8818 12.48 88.8978 12.48C89.2898 12.48 89.6298 12.532 89.9178 12.636C90.2058 12.74 90.4498 12.88 90.6498 13.056C90.8578 13.232 91.0298 13.432 91.1658 13.656C91.3018 13.872 91.4138 14.092 91.5018 14.316L90.6378 14.712C90.5658 14.528 90.4818 14.356 90.3858 14.196C90.2978 14.028 90.1858 13.884 90.0498 13.764C89.9218 13.636 89.7658 13.536 89.5818 13.464C89.3978 13.392 89.1818 13.356 88.9338 13.356C88.2618 13.356 87.7658 13.608 87.4458 14.112C87.1338 14.616 86.9778 15.288 86.9778 16.128V17.424C86.9778 17.848 87.0098 18.236 87.0738 18.588C87.1378 18.932 87.2418 19.232 87.3858 19.488C87.5378 19.744 87.7298 19.944 87.9618 20.088C88.2018 20.224 88.4938 20.292 88.8378 20.292C89.3818 20.292 89.8058 20.128 90.1098 19.8C90.4138 19.472 90.5658 19.048 90.5658 18.528V17.664H88.8018V16.86H91.5018V21H90.5658V19.884ZM98.4811 19.884H98.4211C98.3491 20.044 98.2651 20.2 98.1691 20.352C98.0731 20.504 97.9491 20.64 97.7971 20.76C97.6531 20.872 97.4771 20.964 97.2691 21.036C97.0611 21.108 96.8131 21.144 96.5251 21.144C95.6131 21.144 94.9331 20.776 94.4851 20.04C94.0451 19.304 93.8251 18.248 93.8251 16.872C93.8251 15.432 94.0691 14.34 94.5571 13.596C95.0451 12.852 95.7971 12.48 96.8131 12.48C97.2051 12.48 97.5451 12.532 97.8331 12.636C98.1211 12.74 98.3651 12.88 98.5651 13.056C98.7731 13.232 98.9451 13.432 99.0811 13.656C99.2171 13.872 99.3291 14.092 99.4171 14.316L98.5531 14.712C98.4811 14.528 98.3971 14.356 98.3011 14.196C98.2131 14.028 98.1011 13.884 97.9651 13.764C97.8371 13.636 97.6811 13.536 97.4971 13.464C97.3131 13.392 97.0971 13.356 96.8491 13.356C96.1771 13.356 95.6811 13.608 95.3611 14.112C95.0491 14.616 94.8931 15.288 94.8931 16.128V17.424C94.8931 17.848 94.9251 18.236 94.9891 18.588C95.0531 18.932 95.1571 19.232 95.3011 19.488C95.4531 19.744 95.6451 19.944 95.8771 20.088C96.1171 20.224 96.4091 20.292 96.7531 20.292C97.2971 20.292 97.7211 20.128 98.0251 19.8C98.3291 19.472 98.4811 19.048 98.4811 18.528V17.664H96.7171V16.86H99.4171V21H98.4811V19.884ZM102.148 21V12.624H107.308V13.5H103.156V16.32H107.164V17.196H103.156V20.124H107.308V21H102.148ZM111.072 21H110.064V12.624H113.112C113.888 12.624 114.48 12.836 114.888 13.26C115.296 13.684 115.5 14.276 115.5 15.036C115.5 15.716 115.324 16.26 114.972 16.668C114.62 17.076 114.108 17.312 113.436 17.376L115.572 21H114.444L112.404 17.424H111.072V21ZM113.088 16.572C113.512 16.572 113.84 16.468 114.072 16.26C114.312 16.044 114.432 15.74 114.432 15.348V14.724C114.432 14.332 114.312 14.032 114.072 13.824C113.84 13.608 113.512 13.5 113.088 13.5H111.072V16.572H113.088ZM126.59 18.408H125.006V17.616H126.734L127.01 16.008H125.438V15.216H127.154L127.61 12.624H128.486L127.01 21H126.134L126.59 18.408ZM129.818 12.624H130.694L130.238 15.216H131.822V16.008H130.094L129.818 17.616H131.39V18.408H129.674L129.218 21H128.342L129.818 12.624ZM133.75 21V20.124H136.15V13.368H136.066L133.954 15.336L133.366 14.7L135.586 12.624H137.158V20.124H139.366V21H133.75Z" fill="white"/>
<rect y="32" width="292" height="1" fill="#262626"/>
<defs>
<linearGradient id="paint0_linear_25_360" x1="146" y1="0" x2="146" y2="194" gradientUnits="userSpaceOnUse">
<stop stop-color="#1A1A1A"/>
<stop offset="1" stop-color="#1A1A1A" stop-opacity="0.7"/>
</linearGradient>
</defs>
</svg>
