<svg width="292" height="194" fill="none" xmlns="http://www.w3.org/2000/svg"><rect width="292" height="194" rx="10" fill="url(#a)"/><path d="M18.466 63.932c-.392 0-.686-.112-.882-.336-.196-.215-.294-.485-.294-.812v-.882c0-.252.023-.471.07-.658.056-.187.121-.355.196-.504.075-.15.159-.28.252-.392.093-.121.182-.233.266-.336.159-.187.266-.345.322-.476.065-.14.098-.285.098-.434 0-.355-.163-.611-.49-.77-.327-.168-.807-.252-1.442-.252H15.47v-.868h1.092c.635 0 1.115-.08 1.442-.238.327-.168.49-.43.49-.784 0-.15-.033-.29-.098-.42a1.887 1.887 0 0 0-.322-.49l-.266-.322a2.815 2.815 0 0 1-.252-.392 3.147 3.147 0 0 1-.196-.504 2.913 2.913 0 0 1-.07-.672v-.882c0-.327.098-.597.294-.812.196-.224.49-.336.882-.336h2.464v.868h-2.674v1.078c0 .383.056.677.168.882.112.205.243.406.392.602.159.205.308.42.448.644.14.215.21.471.21.77 0 .392-.14.71-.42.952-.27.243-.644.397-1.12.462v.056c.476.065.85.22 1.12.462.28.243.42.56.42.952 0 .299-.07.56-.21.784-.14.215-.29.425-.448.63a4.74 4.74 0 0 0-.392.602c-.112.205-.168.5-.168.882v1.078h2.674v.868h-2.464zM17.934 165.36c.392 0 .686.112.882.336.196.215.294.485.294.812v.882c0 .252-.028.476-.084.672a2.443 2.443 0 0 1-.182.504c-.075.14-.159.271-.252.392l-.266.322a2.31 2.31 0 0 0-.336.49 1.057 1.057 0 0 0-.084.42c0 .355.163.616.49.784.327.159.807.238 1.442.238h1.092v.868h-1.092c-.635 0-1.115.084-1.442.252-.327.159-.49.415-.49.77 0 .149.028.294.084.434.065.131.177.289.336.476.084.103.173.215.266.336.093.112.177.243.252.392.075.149.135.317.182.504.056.187.084.406.084.658v.882c0 .327-.098.597-.294.812-.196.224-.49.336-.882.336H15.47v-.868h2.674v-1.078c0-.383-.056-.677-.168-.882a4.762 4.762 0 0 0-.392-.602 9.474 9.474 0 0 1-.448-.63 1.447 1.447 0 0 1-.21-.784c0-.392.135-.709.406-.952.28-.243.658-.397 1.134-.462v-.056c-.476-.065-.854-.219-1.134-.462-.27-.243-.406-.56-.406-.952 0-.299.07-.555.21-.77.14-.224.29-.439.448-.644.15-.196.28-.397.392-.602.112-.205.168-.499.168-.882v-1.078H15.47v-.868h2.464z" fill="#fff"/><path d="M35.33 73.776h1.12v1.176h.056c.467-.896 1.209-1.344 2.226-1.344.887 0 1.577.331 2.072.994.504.663.756 1.591.756 2.786s-.252 2.123-.756 2.786c-.495.663-1.185.994-2.072.994-1.017 0-1.76-.448-2.226-1.344h-.056V83.8h-1.12V73.776zm2.968 6.398c.653 0 1.157-.196 1.512-.588.364-.401.546-.929.546-1.582v-1.232c0-.653-.182-1.176-.546-1.568-.355-.401-.859-.602-1.512-.602-.252 0-.49.033-.714.098a1.74 1.74 0 0 0-.588.294 1.384 1.384 0 0 0-.406.462c-.093.177-.14.387-.14.63v2.604c0 .243.047.457.14.644.103.177.238.331.406.462.168.121.364.215.588.28.224.065.462.098.714.098zm8.296.994c-.504 0-.96-.089-1.372-.266a2.973 2.973 0 0 1-1.035-.756 3.566 3.566 0 0 1-.645-1.19 5.132 5.132 0 0 1-.224-1.568c0-.57.075-1.087.224-1.554.15-.467.364-.863.645-1.19.289-.336.634-.593 1.035-.77.411-.177.868-.266 1.372-.266.505 0 .957.089 1.358.266.411.177.757.434 1.037.77.289.327.508.723.658 1.19.149.467.224.985.224 1.554 0 .579-.075 1.101-.224 1.568-.15.457-.37.854-.658 1.19a2.81 2.81 0 0 1-1.036.756 3.327 3.327 0 0 1-1.359.266zm0-.966c.626 0 1.13-.187 1.512-.56.383-.373.575-.952.575-1.736V76.87c0-.784-.192-1.363-.575-1.736-.382-.373-.886-.56-1.512-.56-.625 0-1.129.187-1.511.56-.383.373-.575.952-.575 1.736v1.036c0 .784.192 1.363.575 1.736.382.373.886.56 1.511.56zm8.48.966c-.757 0-1.41-.126-1.96-.378a4.389 4.389 0 0 1-1.387-1.036l.756-.658c.345.364.723.644 1.134.84.41.196.905.294 1.484.294.56 0 1.017-.098 1.372-.294.364-.205.546-.523.546-.952a.87.87 0 0 0-.112-.462.746.746 0 0 0-.28-.308 1.43 1.43 0 0 0-.406-.168 3.551 3.551 0 0 0-.476-.112l-1.134-.168a12.374 12.374 0 0 1-.826-.154 2.834 2.834 0 0 1-.798-.308 2.051 2.051 0 0 1-.616-.588c-.159-.243-.238-.56-.238-.952 0-.364.07-.677.21-.938.15-.27.355-.495.616-.672.261-.187.57-.322.924-.406.355-.093.742-.14 1.162-.14.653 0 1.218.103 1.694.308.485.205.9.49 1.246.854l-.728.686a2.054 2.054 0 0 0-.322-.308 1.711 1.711 0 0 0-.462-.294 2.618 2.618 0 0 0-.63-.224 3.76 3.76 0 0 0-.84-.084c-.57 0-1.008.098-1.316.294-.299.196-.448.48-.448.854 0 .187.033.345.098.476.075.121.173.22.294.294.121.075.257.135.406.182.159.037.317.07.476.098l1.134.168c.261.037.537.089.826.154.29.065.555.173.798.322.243.14.443.331.602.574.168.243.252.56.252.952 0 .719-.28 1.274-.84 1.666-.55.392-1.288.588-2.212.588zm8.66-.168c-.551 0-.957-.154-1.218-.462-.252-.308-.378-.705-.378-1.19v-4.62H59.73v-.952h1.792c.242 0 .41-.047.504-.14.102-.103.154-.275.154-.518v-1.89h1.078v2.548h3.29v.952h-3.29v5.32h3.29V81h-2.814zm4.684 2.366V82.33h6.72v1.036h-6.72zM80.621 72.18c-.327 0-.556-.065-.686-.196a.73.73 0 0 1-.196-.518v-.224c0-.205.065-.373.196-.504.13-.14.359-.21.686-.21.326 0 .555.07.686.21.13.13.196.299.196.504v.224a.73.73 0 0 1-.196.518c-.131.13-.36.196-.686.196zm-3.164 7.868h2.604v-5.32h-2.604v-.952h3.724v6.272h2.436V81h-6.16v-.952zm12.86-.224h-.056c-.466.896-1.209 1.344-2.226 1.344-.886 0-1.582-.331-2.086-.994-.495-.663-.742-1.591-.742-2.786s.248-2.123.742-2.786c.504-.663 1.2-.994 2.086-.994 1.017 0 1.76.448 2.226 1.344h.056V70.64h1.12V81h-1.12v-1.176zm-1.848.35c.252 0 .49-.033.714-.098.224-.065.42-.159.588-.28a1.42 1.42 0 0 0 .392-.462c.103-.187.154-.401.154-.644v-2.604c0-.243-.051-.453-.154-.63a1.251 1.251 0 0 0-.392-.462 1.74 1.74 0 0 0-.588-.294 2.54 2.54 0 0 0-.714-.098c-.653 0-1.162.2-1.526.602-.355.392-.532.915-.532 1.568v1.232c0 .653.177 1.18.532 1.582.364.392.873.588 1.526.588zM40.93 100c-.439 0-.751-.112-.938-.336a1.632 1.632 0 0 1-.35-.84h-.07c-.159.42-.415.751-.77.994-.345.233-.812.35-1.4.35-.756 0-1.358-.196-1.806-.588-.448-.392-.672-.929-.672-1.61 0-.672.243-1.19.728-1.554.495-.364 1.288-.546 2.38-.546h1.54v-.714c0-.532-.15-.929-.448-1.19-.299-.27-.723-.406-1.274-.406-.485 0-.882.098-1.19.294a2.1 2.1 0 0 0-.742.77l-.756-.56c.093-.187.22-.369.378-.546.159-.177.355-.331.588-.462.233-.14.5-.247.798-.322.299-.084.63-.126.994-.126.85 0 1.521.215 2.016.644.504.43.756 1.027.756 1.792v3.976H41.7v.98h-.77zm-3.332-.77c.29 0 .55-.033.784-.098.243-.075.453-.168.63-.28a1.33 1.33 0 0 0 .406-.42c.103-.168.154-.345.154-.532v-1.19h-1.54c-.672 0-1.162.093-1.47.28a.895.895 0 0 0-.462.812v.294c0 .373.13.658.392.854.27.187.64.28 1.106.28zm9.248.938c-.522 0-.989-.089-1.4-.266a2.988 2.988 0 0 1-1.021-.77 3.393 3.393 0 0 1-.644-1.19 5.396 5.396 0 0 1-.21-1.554c0-.57.074-1.087.224-1.554.149-.467.363-.863.643-1.19a2.77 2.77 0 0 1 1.023-.77 3.364 3.364 0 0 1 1.372-.266c.7 0 1.269.154 1.708.462.438.308.76.71.966 1.204l-.896.476a1.673 1.673 0 0 0-.658-.868c-.3-.205-.672-.308-1.12-.308-.327 0-.621.056-.883.168a1.743 1.743 0 0 0-.644.448c-.177.196-.312.43-.405.7-.085.27-.127.565-.127.882v1.232c0 .317.042.611.127.882a1.864 1.864 0 0 0 1.064 1.162c.26.103.56.154.896.154.485 0 .886-.112 1.204-.336.317-.224.569-.532.756-.924l.797.546a2.85 2.85 0 0 1-1.008 1.204c-.447.317-1.035.476-1.764.476zM55.34 100c-.55 0-.957-.154-1.218-.462-.252-.308-.378-.705-.378-1.19v-4.62h-2.408v-.952h1.792c.243 0 .41-.047.504-.14.103-.103.154-.275.154-.518v-1.89h1.078v2.548h3.29v.952h-3.29v5.32h3.29V100H55.34zm8.045.168c-.504 0-.962-.089-1.372-.266a2.972 2.972 0 0 1-1.036-.756 3.564 3.564 0 0 1-.644-1.19 5.132 5.132 0 0 1-.224-1.568c0-.57.074-1.087.224-1.554.149-.467.364-.863.644-1.19.289-.336.634-.593 1.036-.77.41-.177.868-.266 1.372-.266.504 0 .956.089 1.358.266.41.177.756.434 1.036.77.289.327.508.723.658 1.19.149.467.224.985.224 1.554 0 .579-.075 1.101-.224 1.568-.15.457-.37.854-.658 1.19a2.81 2.81 0 0 1-1.036.756 3.332 3.332 0 0 1-1.358.266zm0-.966c.625 0 1.129-.187 1.512-.56.382-.373.574-.952.574-1.736V95.87c0-.784-.192-1.363-.574-1.736-.383-.373-.887-.56-1.512-.56-.626 0-1.13.187-1.512.56-.383.373-.574.952-.574 1.736v1.036c0 .784.19 1.363.574 1.736.382.373.886.56 1.512.56zm5.272-.154h2.114v-5.32h-2.114v-.952h3.234v1.82h.07c.15-.57.43-1.013.84-1.33.42-.327.952-.49 1.596-.49h1.008v1.12h-1.358c-.644 0-1.167.187-1.568.56-.392.373-.588.863-.588 1.47v3.122h2.8V100h-6.034v-.952zm8.157 3.318v-1.036h6.72v1.036h-6.72zM89.015 91.18c-.326 0-.555-.065-.686-.196a.73.73 0 0 1-.196-.518v-.224c0-.205.066-.373.196-.504.13-.14.36-.21.686-.21.327 0 .555.07.686.21.13.13.196.299.196.504v.224a.73.73 0 0 1-.196.518c-.13.13-.36.196-.686.196zm-3.164 7.868h2.604v-5.32h-2.604v-.952h3.724v6.272h2.436V100h-6.16v-.952zm12.86-.224h-.055c-.467.896-1.209 1.344-2.226 1.344-.887 0-1.582-.331-2.086-.994-.495-.663-.742-1.591-.742-2.786s.247-2.123.742-2.786c.504-.663 1.2-.994 2.086-.994 1.017 0 1.76.448 2.226 1.344h.056V89.64h1.12V100h-1.12v-1.176zm-1.847.35c.252 0 .49-.033.714-.098.224-.065.42-.159.588-.28a1.42 1.42 0 0 0 .392-.462c.102-.187.154-.401.154-.644v-2.604c0-.243-.052-.453-.154-.63a1.251 1.251 0 0 0-.392-.462 1.74 1.74 0 0 0-.588-.294 2.54 2.54 0 0 0-.714-.098c-.654 0-1.162.2-1.526.602-.355.392-.532.915-.532 1.568v1.232c0 .653.177 1.18.532 1.582.364.392.872.588 1.526.588zm-58.412 19.994c-.523 0-.99-.089-1.4-.266a2.988 2.988 0 0 1-1.022-.77 3.391 3.391 0 0 1-.644-1.19 5.399 5.399 0 0 1-.21-1.554c0-.569.075-1.087.224-1.554.15-.467.364-.863.644-1.19.28-.336.62-.593 1.022-.77a3.368 3.368 0 0 1 1.372-.266c.7 0 1.27.154 1.708.462.439.308.76.709.966 1.204l-.896.476a1.674 1.674 0 0 0-.658-.868c-.299-.205-.672-.308-1.12-.308-.327 0-.62.056-.882.168a1.746 1.746 0 0 0-.644.448 1.999 1.999 0 0 0-.406.7 2.966 2.966 0 0 0-.126.882v1.232c0 .317.042.611.126.882.093.271.229.504.406.7.177.196.397.35.658.462.261.103.56.154.896.154.485 0 .887-.112 1.204-.336.317-.224.57-.532.756-.924l.798.546c-.215.485-.55.887-1.008 1.204-.448.317-1.036.476-1.764.476zm8.142 0c-.504 0-.96-.089-1.372-.266a2.965 2.965 0 0 1-1.035-.756 3.57 3.57 0 0 1-.645-1.19 5.132 5.132 0 0 1-.224-1.568c0-.569.075-1.087.224-1.554.15-.467.364-.863.645-1.19.289-.336.634-.593 1.035-.77.411-.177.868-.266 1.372-.266.505 0 .957.089 1.358.266.411.177.757.434 1.037.77.289.327.508.723.658 1.19.149.467.224.985.224 1.554 0 .579-.075 1.101-.224 1.568-.15.457-.37.854-.658 1.19-.28.327-.626.579-1.036.756a3.332 3.332 0 0 1-1.359.266zm0-.966c.626 0 1.13-.187 1.512-.56.383-.373.575-.952.575-1.736v-1.036c0-.784-.192-1.363-.575-1.736-.382-.373-.886-.56-1.512-.56-.625 0-1.129.187-1.511.56-.383.373-.575.952-.575 1.736v1.036c0 .784.192 1.363.575 1.736.382.373.886.56 1.511.56zm5.567.798v-7.224h1.12v1.176h.056c.075-.177.168-.345.28-.504a1.79 1.79 0 0 1 .406-.434c.168-.121.364-.219.588-.294.224-.075.485-.112.784-.112.756 0 1.363.243 1.82.728.457.476.686 1.153.686 2.03V119h-1.12v-4.438c0-.663-.145-1.153-.434-1.47-.29-.327-.714-.49-1.274-.49-.224 0-.443.028-.658.084-.215.056-.406.14-.574.252a1.295 1.295 0 0 0-.406.434 1.207 1.207 0 0 0-.154.616V119h-1.12zm11.573 0c-.551 0-.957-.154-1.218-.462-.252-.308-.378-.705-.378-1.19v-4.62H59.73v-.952h1.792c.242 0 .41-.047.504-.14.102-.103.154-.275.154-.518v-1.89h1.078v2.548h3.29v.952h-3.29v5.32h3.29V119h-2.814zm8.17.168c-.522 0-.994-.089-1.414-.266a3.07 3.07 0 0 1-1.064-.756 3.625 3.625 0 0 1-.672-1.19 4.81 4.81 0 0 1-.238-1.554c0-.579.08-1.101.238-1.568.168-.467.397-.863.686-1.19.29-.336.635-.593 1.036-.77.41-.177.864-.266 1.358-.266.486 0 .924.089 1.316.266.401.177.742.425 1.022.742.28.308.495.677.644 1.106.15.429.224.901.224 1.414v.532h-5.348v.336c0 .317.052.611.154.882.103.271.248.504.434.7.196.196.43.35.7.462.28.103.588.154.924.154.486 0 .906-.112 1.26-.336a2.17 2.17 0 0 0 .812-.924l.826.56c-.215.485-.574.887-1.078 1.204-.495.308-1.101.462-1.82.462zm-.07-6.636a2.145 2.145 0 0 0-1.54.63 2.248 2.248 0 0 0-.448.7 2.356 2.356 0 0 0-.154.868v.098h4.144v-.154c0-.317-.051-.607-.154-.868a1.884 1.884 0 0 0-.406-.672 1.623 1.623 0 0 0-.63-.448 2.058 2.058 0 0 0-.812-.154zm5.51 6.468v-7.224h1.12v1.176h.057c.074-.177.168-.345.28-.504a1.79 1.79 0 0 1 .406-.434c.168-.121.364-.219.588-.294.224-.075.485-.112.784-.112.756 0 1.362.243 1.82.728.457.476.686 1.153.686 2.03V119h-1.12v-4.438c0-.663-.145-1.153-.434-1.47-.29-.327-.714-.49-1.274-.49-.224 0-.444.028-.658.084-.215.056-.406.14-.574.252a1.295 1.295 0 0 0-.406.434 1.207 1.207 0 0 0-.154.616V119h-1.12zm11.573 0c-.55 0-.957-.154-1.218-.462-.252-.308-.378-.705-.378-1.19v-4.62h-2.408v-.952h1.792c.243 0 .41-.047.504-.14.103-.103.154-.275.154-.518v-1.89h1.078v2.548h3.29v.952h-3.29v5.32h3.29V119h-2.814z" fill="#FFE14D"/><path d="M96.962 81.126c-.383 0-.654-.08-.812-.238a.844.844 0 0 1-.224-.602v-.252c0-.243.074-.443.224-.602.158-.159.43-.238.812-.238.382 0 .648.08.798.238.158.159.238.36.238.602v.252c0 .243-.08.443-.238.602-.15.159-.416.238-.798.238zm0-5.544c-.383 0-.654-.08-.812-.238a.844.844 0 0 1-.224-.602v-.252c0-.243.074-.443.224-.602.158-.159.43-.238.812-.238.382 0 .648.08.798.238.158.159.238.36.238.602v.252c0 .243-.08.443-.238.602-.15.159-.416.238-.798.238zm24.581 3.514h1.806l-1.61 3.878h-.938l.742-3.878zm-16.187 21.03c-.382 0-.653-.079-.812-.238a.845.845 0 0 1-.224-.602v-.252c0-.243.075-.443.224-.602.159-.159.43-.238.812-.238.383 0 .649.08.798.238.159.159.238.36.238.602v.252a.815.815 0 0 1-.238.602c-.149.159-.415.238-.798.238zm0-5.544c-.382 0-.653-.08-.812-.238a.845.845 0 0 1-.224-.602v-.252c0-.243.075-.443.224-.602.159-.159.43-.238.812-.238.383 0 .649.08.798.238.159.159.238.36.238.602v.252a.815.815 0 0 1-.238.602c-.149.159-.415.238-.798.238zm32.976 3.514h1.806l-1.61 3.878h-.938l.742-3.878zm-41.37 21.03c-.383 0-.654-.079-.812-.238a.844.844 0 0 1-.224-.602v-.252c0-.243.074-.443.224-.602.158-.159.43-.238.812-.238.382 0 .648.079.798.238a.816.816 0 0 1 .238.602v.252c0 .243-.08.443-.238.602-.15.159-.416.238-.798.238zm0-5.544c-.383 0-.654-.079-.812-.238a.844.844 0 0 1-.224-.602v-.252c0-.243.074-.443.224-.602.158-.159.43-.238.812-.238.382 0 .648.079.798.238a.816.816 0 0 1 .238.602v.252c0 .243-.08.443-.238.602-.15.159-.416.238-.798.238zm15.347-4.942h.938l-.742 3.878h-1.806l1.61-3.878zm3.346 0h.938l-.742 3.878h-1.806l1.61-3.878zm46.545 38h1.806l-1.61 3.878h-.938l.742-3.878zm3.346 0h1.806l-1.61 3.878h-.938l.742-3.878zm6.364 8.456h1.807l-1.61 3.878h-.938l.741-3.878zm.603-3.514c-.383 0-.654-.079-.812-.238a.84.84 0 0 1-.224-.602v-.252a.84.84 0 0 1 .224-.602c.158-.159.429-.238.812-.238.382 0 .648.079.798.238a.818.818 0 0 1 .238.602v.252c0 .243-.08.443-.238.602-.15.159-.416.238-.798.238z" fill="#fff"/><path d="M113.751 81.168c-.57 0-1.069-.07-1.498-.21-.43-.15-.789-.35-1.078-.602a2.554 2.554 0 0 1-.644-.896 2.953 2.953 0 0 1-.21-1.12c0-.672.182-1.204.546-1.596.364-.392.844-.667 1.442-.826v-.112c-.523-.177-.938-.462-1.246-.854-.299-.401-.448-.882-.448-1.442 0-.747.275-1.34.826-1.778.55-.448 1.32-.672 2.31-.672.989 0 1.759.224 2.31.672.55.439.826 1.031.826 1.778 0 .56-.154 1.04-.462 1.442-.299.392-.71.677-1.232.854v.112c.597.159 1.078.434 1.442.826.364.392.546.924.546 1.596 0 .401-.075.775-.224 1.12-.14.345-.355.644-.644.896-.29.252-.649.453-1.078.602-.42.14-.915.21-1.484.21zm0-.994c.69 0 1.232-.154 1.624-.462.392-.308.588-.742.588-1.302v-.308c0-.56-.196-.994-.588-1.302-.383-.308-.924-.462-1.624-.462-.7 0-1.246.154-1.638.462-.383.308-.574.742-.574 1.302v.308c0 .56.196.994.588 1.302.392.308.933.462 1.624.462zm0-4.788c.634 0 1.115-.135 1.442-.406.336-.27.504-.658.504-1.162v-.196c0-.504-.173-.891-.518-1.162-.336-.27-.812-.406-1.428-.406-.616 0-1.097.135-1.442.406-.336.27-.504.658-.504 1.162v.196c0 .504.163.891.49 1.162.336.27.821.406 1.456.406zM119.135 100v-1.022h2.8v-7.882h-.098l-2.464 2.296-.686-.742 2.59-2.422h1.834v8.75h2.576V100h-6.552zm14.219-8.75h-4.368l-.28 3.738h.098c.243-.327.513-.583.812-.77.299-.196.709-.294 1.232-.294.429 0 .821.07 1.176.21.364.13.677.327.938.588.261.261.467.579.616.952.149.364.224.784.224 1.26s-.075.915-.224 1.316a2.874 2.874 0 0 1-.658 1.022c-.289.28-.639.5-1.05.658a3.855 3.855 0 0 1-1.4.238 4.04 4.04 0 0 1-1.106-.14 3.39 3.39 0 0 1-.854-.378 3.621 3.621 0 0 1-.644-.532 5.126 5.126 0 0 1-.504-.616l.882-.672c.131.196.261.373.392.532.14.159.299.299.476.42.177.112.378.2.602.266.224.065.485.098.784.098.672 0 1.185-.182 1.54-.546.364-.364.546-.868.546-1.512v-.112c0-.644-.182-1.148-.546-1.512-.364-.364-.887-.546-1.568-.546-.467 0-.831.08-1.092.238a3.457 3.457 0 0 0-.7.588l-.994-.14.35-5.376h5.32v1.022z" fill="#E300BD"/><path d="M124.399 120.54h-1.876c-.69 0-1.264-.126-1.722-.378a2.683 2.683 0 0 1-1.092-1.092c-.27-.485-.462-1.078-.574-1.778a17.375 17.375 0 0 1-.154-2.45c0-1.064.066-1.965.196-2.702.131-.737.327-1.33.588-1.778.262-.457.588-.789.98-.994.402-.205.873-.308 1.414-.308.542 0 .999.093 1.372.28.383.177.691.425.924.742.234.308.402.672.504 1.092.103.42.154.868.154 1.344v5.18h-.714v-.798h-.056a1.776 1.776 0 0 1-.49.672c-.224.187-.541.28-.952.28-.588 0-1.054-.233-1.4-.7-.336-.467-.504-1.218-.504-2.254s.168-1.787.504-2.254c.346-.467.812-.7 1.4-.7.411 0 .728.093.952.28.224.187.388.411.49.672h.056v-.378c0-.42-.042-.803-.126-1.148a2.282 2.282 0 0 0-.378-.882 1.708 1.708 0 0 0-.686-.574c-.28-.14-.62-.21-1.022-.21-.438 0-.812.089-1.12.266-.308.168-.56.434-.756.798-.196.364-.34.831-.434 1.4-.093.569-.14 1.251-.14 2.044v1.344c0 .625.038 1.204.112 1.736.075.523.215.98.42 1.372.206.383.49.681.854.896.364.215.831.322 1.4.322h1.876v.658zm-1.26-3.304c.392 0 .7-.112.924-.336.224-.224.336-.546.336-.966v-2.086c0-.42-.112-.742-.336-.966-.224-.224-.532-.336-.924-.336-.438 0-.779.154-1.022.462-.242.299-.364.812-.364 1.54v.7c0 .719.122 1.232.364 1.54.243.299.584.448 1.022.448zm9.823-8.008v7.196c0 .429-.07.812-.21 1.148a2.488 2.488 0 0 1-.56.868 2.58 2.58 0 0 1-.882.546 3.285 3.285 0 0 1-1.12.182c-.719 0-1.316-.177-1.792-.532-.467-.364-.765-.873-.896-1.526l.798-.182c.103.439.299.803.588 1.092.299.28.737.42 1.316.42.616 0 1.087-.182 1.414-.546.336-.364.504-.901.504-1.61v-6.328h-3.696v-.728h4.536zm6.084 9.94c-1.008 0-1.801-.327-2.38-.98-.569-.663-.854-1.591-.854-2.786 0-.597.075-1.129.224-1.596.15-.476.36-.873.63-1.19.28-.327.616-.574 1.008-.742a3.128 3.128 0 0 1 1.302-.266c.486 0 .92.089 1.302.266.383.168.705.411.966.728.271.317.476.695.616 1.134.14.439.21.924.21 1.456v.35h-5.418v.35c0 .775.21 1.4.63 1.876.42.467 1.008.7 1.764.7.532 0 .985-.121 1.358-.364.383-.243.677-.602.882-1.078l.602.378a2.768 2.768 0 0 1-1.05 1.288c-.485.317-1.082.476-1.792.476zm-.07-6.888a2.32 2.32 0 0 0-.966.196c-.28.121-.522.294-.728.518-.196.224-.35.495-.462.812a3.134 3.134 0 0 0-.168 1.05v.084h4.564v-.112c0-.784-.2-1.405-.602-1.862-.392-.457-.938-.686-1.638-.686zm5.679 6.72v-7.224h.798v1.12h.056a2.26 2.26 0 0 1 .7-.896c.336-.261.807-.392 1.414-.392.784 0 1.391.238 1.82.714.439.467.658 1.139.658 2.016V119h-.798v-4.522c0-.747-.163-1.293-.49-1.638-.317-.345-.784-.518-1.4-.518-.252 0-.495.033-.728.098a2.047 2.047 0 0 0-.63.294 1.53 1.53 0 0 0-.434.504 1.387 1.387 0 0 0-.168.7V119h-.798zm8.394 0v-7.224h.798v1.12h.056c.14-.336.374-.635.7-.896.336-.261.808-.392 1.414-.392.784 0 1.391.238 1.82.714.439.467.658 1.139.658 2.016V119h-.798v-4.522c0-.747-.163-1.293-.49-1.638-.317-.345-.784-.518-1.4-.518-.252 0-.494.033-.728.098a2.047 2.047 0 0 0-.63.294 1.53 1.53 0 0 0-.434.504 1.387 1.387 0 0 0-.168.7V119h-.798zm13.561-7.224h.798l-3.766 9.184c-.121.289-.275.499-.462.63-.177.14-.457.21-.84.21h-1.204v-.686h1.638l.952-2.31-2.898-7.028h.826l2.45 6.062h.056l2.45-6.062zm14.633 7.392c-2.333 0-3.5-1.685-3.5-5.054s1.167-5.054 3.5-5.054c.401 0 .756.056 1.064.168.308.112.579.261.812.448.233.187.429.406.588.658.168.252.308.518.42.798l-.714.322a3.915 3.915 0 0 0-.336-.658 2.058 2.058 0 0 0-.448-.532 1.834 1.834 0 0 0-.602-.35 2.227 2.227 0 0 0-.784-.126c-.877 0-1.531.322-1.96.966-.429.635-.644 1.535-.644 2.702v1.316c0 1.167.215 2.072.644 2.716.429.635 1.083.952 1.96.952.299 0 .56-.042.784-.126.233-.084.434-.201.602-.35.177-.149.327-.322.448-.518a3.7 3.7 0 0 0 .336-.672l.714.322c-.112.28-.252.546-.42.798a2.654 2.654 0 0 1-.588.658 2.83 2.83 0 0 1-.812.448 3.106 3.106 0 0 1-1.064.168zm8.059 0c-.99 0-1.764-.331-2.324-.994-.551-.663-.826-1.591-.826-2.786s.275-2.123.826-2.786c.56-.663 1.334-.994 2.324-.994.989 0 1.759.331 2.31.994.56.663.84 1.591.84 2.786s-.28 2.123-.84 2.786c-.551.663-1.321.994-2.31.994zm0-.7c.709 0 1.269-.224 1.68-.672.41-.448.616-1.101.616-1.96v-.896c0-.859-.206-1.512-.616-1.96-.411-.448-.971-.672-1.68-.672-.71 0-1.27.224-1.68.672-.411.448-.616 1.101-.616 1.96v.896c0 .859.205 1.512.616 1.96.41.448.97.672 1.68.672zm10.27-.588h-.056c-.14.336-.378.635-.714.896-.327.261-.793.392-1.4.392-.784 0-1.395-.233-1.834-.7-.429-.476-.644-1.153-.644-2.03v-4.662h.798v4.522c0 .747.159 1.293.476 1.638.327.345.798.518 1.414.518.252 0 .495-.033.728-.098a1.87 1.87 0 0 0 .616-.294 1.5 1.5 0 0 0 .448-.49c.112-.205.168-.443.168-.714v-5.082h.798V119h-.798v-1.12zm3.495.434h2.632v-8.988h-2.632v-.686h3.43v9.674h2.618V119h-6.048v-.686zm13.322-.462h-.042a2.506 2.506 0 0 1-.868.952c-.364.243-.821.364-1.372.364-.905 0-1.61-.322-2.114-.966-.504-.653-.756-1.591-.756-2.814s.252-2.156.756-2.8c.504-.653 1.209-.98 2.114-.98.551 0 1.008.121 1.372.364.373.243.663.56.868.952h.042v-4.284h.798V119h-.798v-1.148zm-2.016.602c.271 0 .527-.037.77-.112.243-.075.457-.182.644-.322s.331-.313.434-.518c.112-.205.168-.434.168-.686v-2.856c0-.252-.056-.481-.168-.686a1.454 1.454 0 0 0-.434-.518 2.092 2.092 0 0 0-.644-.322 2.593 2.593 0 0 0-.77-.112c-.728 0-1.293.229-1.694.686-.392.457-.588 1.083-.588 1.876v1.008c0 .793.196 1.419.588 1.876.401.457.966.686 1.694.686zm19.393-6.678h.798l-3.766 9.184c-.121.289-.275.499-.462.63-.177.14-.457.21-.84.21h-1.204v-.686h1.638l.952-2.31-2.898-7.028h.826l2.45 6.062h.056l2.45-6.062zm5.903 7.392c-.99 0-1.764-.331-2.324-.994-.551-.663-.826-1.591-.826-2.786s.275-2.123.826-2.786c.56-.663 1.334-.994 2.324-.994.989 0 1.759.331 2.31.994.56.663.84 1.591.84 2.786s-.28 2.123-.84 2.786c-.551.663-1.321.994-2.31.994zm0-.7c.709 0 1.269-.224 1.68-.672.41-.448.616-1.101.616-1.96v-.896c0-.859-.206-1.512-.616-1.96-.411-.448-.971-.672-1.68-.672-.71 0-1.27.224-1.68.672-.411.448-.616 1.101-.616 1.96v.896c0 .859.205 1.512.616 1.96.41.448.97.672 1.68.672zm10.27-.588h-.056c-.14.336-.378.635-.714.896-.326.261-.793.392-1.4.392-.784 0-1.395-.233-1.834-.7-.429-.476-.644-1.153-.644-2.03v-4.662h.798v4.522c0 .747.159 1.293.476 1.638.327.345.798.518 1.414.518.252 0 .495-.033.728-.098a1.86 1.86 0 0 0 .616-.294 1.5 1.5 0 0 0 .448-.49c.112-.205.168-.443.168-.714v-5.082h.798V119h-.798v-1.12zM38.48 138.168c-1.008 0-1.787-.331-2.338-.994-.55-.663-.826-1.591-.826-2.786s.275-2.123.826-2.786c.56-.663 1.335-.994 2.324-.994.672 0 1.223.154 1.652.462.43.299.737.686.924 1.162l-.644.322a1.835 1.835 0 0 0-.714-.924c-.327-.215-.733-.322-1.218-.322-.737 0-1.307.238-1.708.714-.392.467-.588 1.087-.588 1.862v1.008c0 .775.196 1.4.588 1.876.401.467.975.7 1.722.7.513 0 .943-.117 1.288-.35.345-.233.611-.56.798-.98l.588.378a2.835 2.835 0 0 1-.966 1.19c-.439.308-1.008.462-1.708.462zm5.44-10.528h.798v4.256h.056c.14-.336.374-.635.7-.896.337-.261.808-.392 1.415-.392.783 0 1.39.238 1.82.714.438.467.657 1.139.657 2.016V138h-.797v-4.522c0-.747-.164-1.293-.49-1.638-.318-.345-.785-.518-1.4-.518a2.7 2.7 0 0 0-.729.098 2.04 2.04 0 0 0-.63.294 1.526 1.526 0 0 0-.434.504 1.387 1.387 0 0 0-.168.7V138h-.798v-10.36zm11.181 10.528c-1.008 0-1.801-.327-2.38-.98-.57-.663-.854-1.591-.854-2.786 0-.597.075-1.129.224-1.596.15-.476.36-.873.63-1.19.28-.327.616-.574 1.008-.742a3.128 3.128 0 0 1 1.302-.266c.485 0 .92.089 1.302.266.383.168.705.411.966.728.27.317.476.695.616 1.134.14.439.21.924.21 1.456v.35h-5.418v.35c0 .775.21 1.4.63 1.876.42.467 1.008.7 1.764.7.532 0 .985-.121 1.358-.364.383-.243.677-.602.882-1.078l.602.378a2.777 2.777 0 0 1-1.05 1.288c-.485.317-1.083.476-1.792.476zm-.07-6.888c-.355 0-.677.065-.966.196-.28.121-.523.294-.728.518-.196.224-.35.495-.462.812a3.134 3.134 0 0 0-.168 1.05v.084h4.564v-.112c0-.784-.2-1.405-.602-1.862-.392-.457-.938-.686-1.638-.686zm8.633 6.888c-1.008 0-1.788-.331-2.338-.994-.551-.663-.826-1.591-.826-2.786s.275-2.123.826-2.786c.56-.663 1.334-.994 2.324-.994.672 0 1.222.154 1.652.462.429.299.737.686.924 1.162l-.644.322a1.835 1.835 0 0 0-.714-.924c-.327-.215-.733-.322-1.218-.322-.738 0-1.307.238-1.708.714-.392.467-.588 1.087-.588 1.862v1.008c0 .775.196 1.4.588 1.876.4.467.975.7 1.722.7.513 0 .942-.117 1.288-.35.345-.233.61-.56.798-.98l.588.378a2.835 2.835 0 0 1-.966 1.19c-.44.308-1.008.462-1.708.462zm5.566-10.528h.798v6.832h.056l1.414-1.288 2.688-2.408h.994l-3.094 2.828L75.544 138h-.994l-3.08-3.92-1.442 1.274V138h-.798v-10.36zM88.595 138c-.392 0-.681-.103-.868-.308-.177-.215-.266-.499-.266-.854v-5.376H84.9v-.686h2.03c.206 0 .35-.042.434-.126.084-.084.126-.229.126-.434v-1.988h.77v2.548h3.444v.686H88.26v5.852h3.444V138h-3.108zm5.693-10.36h.798v4.256h.056c.14-.336.373-.635.7-.896.336-.261.807-.392 1.414-.392.784 0 1.39.238 1.82.714.438.467.658 1.139.658 2.016V138h-.798v-4.522c0-.747-.164-1.293-.49-1.638-.318-.345-.784-.518-1.4-.518a2.7 2.7 0 0 0-.728.098 2.04 2.04 0 0 0-.63.294 1.526 1.526 0 0 0-.434.504 1.387 1.387 0 0 0-.168.7V138h-.798v-10.36zm11.18 10.528c-1.008 0-1.801-.327-2.38-.98-.569-.663-.854-1.591-.854-2.786 0-.597.075-1.129.224-1.596.15-.476.36-.873.63-1.19.28-.327.616-.574 1.008-.742a3.128 3.128 0 0 1 1.302-.266c.486 0 .92.089 1.302.266.383.168.705.411.966.728.271.317.476.695.616 1.134.14.439.21.924.21 1.456v.35h-5.418v.35c0 .775.21 1.4.63 1.876.42.467 1.008.7 1.764.7.532 0 .985-.121 1.358-.364.383-.243.677-.602.882-1.078l.602.378a2.768 2.768 0 0 1-1.05 1.288c-.485.317-1.082.476-1.792.476zm-.07-6.888a2.32 2.32 0 0 0-.966.196c-.28.121-.522.294-.728.518-.196.224-.35.495-.462.812a3.134 3.134 0 0 0-.168 1.05v.084h4.564v-.112c0-.784-.2-1.405-.602-1.862-.392-.457-.938-.686-1.638-.686zm19.253 6.72c-.326 0-.56-.079-.7-.238-.14-.159-.219-.373-.238-.644v-.252h-.07c-.158.383-.42.695-.784.938-.364.243-.858.364-1.484.364-.756 0-1.353-.182-1.792-.546-.429-.373-.644-.896-.644-1.568 0-.317.052-.602.154-.854.112-.261.285-.481.518-.658.243-.177.551-.313.924-.406.374-.103.831-.154 1.372-.154h1.764v-.882c0-.607-.168-1.059-.504-1.358-.326-.299-.784-.448-1.372-.448-.989 0-1.68.397-2.072 1.19l-.546-.392c.187-.42.5-.77.938-1.05.448-.289 1.022-.434 1.722-.434.822 0 1.466.215 1.932.644.467.42.7 1.008.7 1.764v4.284h1.078v.7h-.896zm-3.15-.504c.308 0 .593-.037.854-.112.262-.075.49-.177.686-.308.196-.14.35-.308.462-.504.112-.196.168-.415.168-.658v-1.33h-1.764c-.756 0-1.302.117-1.638.35-.326.224-.49.532-.49.924v.364c0 .42.154.737.462.952.318.215.738.322 1.26.322zm9.067.504c-.392 0-.681-.103-.868-.308-.177-.215-.266-.499-.266-.854v-5.376h-2.562v-.686h2.03c.205 0 .35-.042.434-.126.084-.084.126-.229.126-.434v-1.988h.77v2.548h3.444v.686h-3.444v5.852h3.444V138h-3.108zm8.394 0c-.392 0-.681-.103-.868-.308-.177-.215-.266-.499-.266-.854v-5.376h-2.562v-.686h2.03c.206 0 .35-.042.434-.126.084-.084.126-.229.126-.434v-1.988h.77v2.548h3.444v.686h-3.444v5.852h3.444V138h-3.108zm10.873 0c-.327 0-.56-.079-.7-.238-.14-.159-.219-.373-.238-.644v-.252h-.07c-.159.383-.42.695-.784.938-.364.243-.859.364-1.484.364-.756 0-1.353-.182-1.792-.546-.429-.373-.644-.896-.644-1.568 0-.317.051-.602.154-.854.112-.261.285-.481.518-.658.243-.177.551-.313.924-.406.373-.103.831-.154 1.372-.154h1.764v-.882c0-.607-.168-1.059-.504-1.358-.327-.299-.784-.448-1.372-.448-.989 0-1.68.397-2.072 1.19l-.546-.392c.187-.42.499-.77.938-1.05.448-.289 1.022-.434 1.722-.434.821 0 1.465.215 1.932.644.467.42.7 1.008.7 1.764v4.284h1.078v.7h-.896zm-3.15-.504c.308 0 .593-.037.854-.112.261-.075.49-.177.686-.308.196-.14.35-.308.462-.504.112-.196.168-.415.168-.658v-1.33h-1.764c-.756 0-1.302.117-1.638.35a1.06 1.06 0 0 0-.49.924v.364c0 .42.154.737.462.952.317.215.737.322 1.26.322zm9.318.672c-1.008 0-1.787-.331-2.338-.994-.55-.663-.826-1.591-.826-2.786s.276-2.123.826-2.786c.56-.663 1.335-.994 2.324-.994.672 0 1.223.154 1.652.462.43.299.738.686.924 1.162l-.644.322a1.832 1.832 0 0 0-.714-.924c-.326-.215-.732-.322-1.218-.322-.737 0-1.306.238-1.708.714-.392.467-.588 1.087-.588 1.862v1.008c0 .775.196 1.4.588 1.876.402.467.976.7 1.722.7.514 0 .943-.117 1.288-.35.346-.233.612-.56.798-.98l.588.378a2.83 2.83 0 0 1-.966 1.19c-.438.308-1.008.462-1.708.462zm5.441-10.528h.798v4.256h.056a2.26 2.26 0 0 1 .7-.896c.336-.261.807-.392 1.414-.392.784 0 1.391.238 1.82.714.439.467.658 1.139.658 2.016V138h-.798v-4.522c0-.747-.163-1.293-.49-1.638-.317-.345-.784-.518-1.4-.518-.252 0-.495.033-.728.098a2.047 2.047 0 0 0-.63.294 1.53 1.53 0 0 0-.434.504 1.387 1.387 0 0 0-.168.7V138h-.798v-10.36zm11.181 10.528c-1.008 0-1.802-.327-2.38-.98-.57-.663-.854-1.591-.854-2.786 0-.597.074-1.129.224-1.596.149-.476.359-.873.63-1.19.28-.327.616-.574 1.008-.742a3.128 3.128 0 0 1 1.302-.266c.485 0 .919.089 1.302.266.382.168.704.411.966.728.27.317.476.695.616 1.134.14.439.21.924.21 1.456v.35h-5.418v.35c0 .775.21 1.4.63 1.876.42.467 1.008.7 1.764.7.532 0 .984-.121 1.358-.364.382-.243.676-.602.882-1.078l.602.378a2.78 2.78 0 0 1-1.05 1.288c-.486.317-1.083.476-1.792.476zm-.07-6.888c-.355 0-.677.065-.966.196-.28.121-.523.294-.728.518-.196.224-.35.495-.462.812a3.134 3.134 0 0 0-.168 1.05v.084h4.564v-.112c0-.784-.201-1.405-.602-1.862-.392-.457-.938-.686-1.638-.686zm10.256 5.572h-.042a2.506 2.506 0 0 1-.868.952c-.364.243-.821.364-1.372.364-.905 0-1.61-.322-2.114-.966-.504-.653-.756-1.591-.756-2.814s.252-2.156.756-2.8c.504-.653 1.209-.98 2.114-.98.551 0 1.008.121 1.372.364.373.243.663.56.868.952h.042v-4.284h.798V138h-.798v-1.148zm-2.016.602c.271 0 .527-.037.77-.112.243-.075.457-.182.644-.322s.331-.313.434-.518c.112-.205.168-.434.168-.686v-2.856c0-.252-.056-.481-.168-.686a1.454 1.454 0 0 0-.434-.518 2.092 2.092 0 0 0-.644-.322 2.593 2.593 0 0 0-.77-.112c-.728 0-1.293.229-1.694.686-.392.457-.588 1.083-.588 1.876v1.008c0 .793.196 1.419.588 1.876.401.457.966.686 1.694.686zm16.929.546c-.392 0-.681-.103-.868-.308-.177-.215-.266-.499-.266-.854v-5.376h-2.562v-.686h2.03c.205 0 .35-.042.434-.126.084-.084.126-.229.126-.434v-1.988h.77v2.548h3.444v.686h-3.444v5.852h3.444V138h-3.108zm8.367.168c-.99 0-1.764-.331-2.324-.994-.551-.663-.826-1.591-.826-2.786s.275-2.123.826-2.786c.56-.663 1.334-.994 2.324-.994.989 0 1.759.331 2.31.994.56.663.84 1.591.84 2.786s-.28 2.123-.84 2.786c-.551.663-1.321.994-2.31.994zm0-.7c.709 0 1.269-.224 1.68-.672.41-.448.616-1.101.616-1.96v-.896c0-.859-.206-1.512-.616-1.96-.411-.448-.971-.672-1.68-.672-.71 0-1.27.224-1.68.672-.411.448-.616 1.101-.616 1.96v.896c0 .859.205 1.512.616 1.96.41.448.97.672 1.68.672zm16.817.532c-.392 0-.682-.103-.868-.308-.178-.215-.266-.499-.266-.854v-5.376h-2.562v-.686h2.03c.205 0 .35-.042.434-.126.084-.084.126-.229.126-.434v-1.988h.77v2.548h3.444v.686h-3.444v5.852h3.444V138h-3.108zm5.692-10.36h.798v4.256h.056c.14-.336.374-.635.7-.896.336-.261.808-.392 1.414-.392.784 0 1.391.238 1.82.714.439.467.658 1.139.658 2.016V138h-.798v-4.522c0-.747-.163-1.293-.49-1.638-.317-.345-.784-.518-1.4-.518-.252 0-.494.033-.728.098a2.047 2.047 0 0 0-.63.294 1.53 1.53 0 0 0-.434.504 1.387 1.387 0 0 0-.168.7V138h-.798v-10.36zm11.181 10.528c-1.008 0-1.802-.327-2.38-.98-.57-.663-.854-1.591-.854-2.786 0-.597.074-1.129.224-1.596.149-.476.359-.873.63-1.19.28-.327.616-.574 1.008-.742a3.128 3.128 0 0 1 1.302-.266c.485 0 .919.089 1.302.266.382.168.704.411.966.728.27.317.476.695.616 1.134.14.439.21.924.21 1.456v.35h-5.418v.35c0 .775.21 1.4.63 1.876.42.467 1.008.7 1.764.7.532 0 .984-.121 1.358-.364.382-.243.676-.602.882-1.078l.602.378a2.78 2.78 0 0 1-1.05 1.288c-.486.317-1.083.476-1.792.476zm-.07-6.888c-.355 0-.677.065-.966.196-.28.121-.523.294-.728.518-.196.224-.35.495-.462.812a3.134 3.134 0 0 0-.168 1.05v.084h4.564v-.112c0-.784-.201-1.405-.602-1.862-.392-.457-.938-.686-1.638-.686zM38.228 157c-.392 0-.681-.103-.868-.308-.177-.215-.266-.499-.266-.854v-5.376h-2.562v-.686h2.03c.205 0 .35-.042.434-.126.084-.084.126-.229.126-.434v-1.988h.77v2.548h3.444v.686h-3.444v5.852h3.444V157h-3.108zm10.872 0c-.326 0-.56-.079-.7-.238-.14-.159-.219-.373-.237-.644v-.252h-.07a2.06 2.06 0 0 1-.785.938c-.364.243-.858.364-1.483.364-.757 0-1.354-.182-1.793-.546-.429-.373-.643-.896-.643-1.568 0-.317.05-.602.153-.854.112-.261.285-.481.518-.658.243-.177.551-.313.924-.406.374-.103.831-.154 1.372-.154h1.764v-.882c0-.607-.167-1.059-.503-1.358-.327-.299-.784-.448-1.372-.448-.99 0-1.68.397-2.072 1.19l-.547-.392c.187-.42.5-.77.939-1.05.448-.289 1.022-.434 1.721-.434.822 0 1.466.215 1.932.644.467.42.7 1.008.7 1.764v4.284h1.078v.7H49.1zm-3.15-.504c.308 0 .593-.037.854-.112.262-.075.49-.177.686-.308.197-.14.35-.308.462-.504.113-.196.169-.415.169-.658v-1.33h-1.765c-.756 0-1.302.117-1.638.35-.326.224-.49.532-.49.924v.364c0 .42.154.737.462.952.318.215.738.322 1.26.322zm9.193.672c-.728 0-1.363-.121-1.904-.364a4.231 4.231 0 0 1-1.386-1.05l.546-.476c.355.411.751.719 1.19.924.439.196.961.294 1.568.294.635 0 1.148-.121 1.54-.364.401-.243.602-.616.602-1.12 0-.224-.042-.406-.126-.546a.931.931 0 0 0-.322-.364 1.572 1.572 0 0 0-.49-.21 3.777 3.777 0 0 0-.616-.126l-1.12-.154a9.693 9.693 0 0 1-.854-.154 2.991 2.991 0 0 1-.77-.322 1.785 1.785 0 0 1-.56-.56c-.14-.233-.21-.532-.21-.896 0-.355.07-.663.21-.924a1.77 1.77 0 0 1 .588-.644 2.8 2.8 0 0 1 .882-.378 4.668 4.668 0 0 1 1.106-.126c.672 0 1.237.112 1.694.336.467.215.859.485 1.176.812l-.532.504a3.232 3.232 0 0 0-.364-.336 1.94 1.94 0 0 0-.49-.322 2.874 2.874 0 0 0-.658-.224 3.488 3.488 0 0 0-.868-.098c-.616 0-1.097.112-1.442.336-.336.224-.504.56-.504 1.008 0 .224.037.411.112.56.084.14.196.257.336.35.14.093.303.168.49.224.187.047.387.084.602.112l1.134.168c.28.047.56.107.84.182.29.065.546.168.77.308.233.14.42.327.56.56.14.224.21.518.21.882a1.941 1.941 0 0 1-.826 1.638c-.252.187-.56.327-.924.42a4.8 4.8 0 0 1-1.19.14zm5.693-10.528h.798v6.832h.056l1.414-1.288 2.688-2.408h.994l-3.094 2.828L67.15 157h-.994l-3.08-3.92-1.442 1.274V157h-.798v-10.36zm21.24 9.212h-.041a2.507 2.507 0 0 1-.868.952c-.364.243-.822.364-1.372.364-.906 0-1.61-.322-2.114-.966-.504-.653-.756-1.591-.756-2.814s.252-2.156.756-2.8c.504-.653 1.208-.98 2.114-.98.55 0 1.008.121 1.372.364.373.243.662.56.868.952h.042v-4.284h.798V157h-.798v-1.148zm-2.015.602c.27 0 .527-.037.77-.112.242-.075.457-.182.644-.322.186-.14.331-.313.434-.518.112-.205.168-.434.168-.686v-2.856c0-.252-.056-.481-.168-.686a1.455 1.455 0 0 0-.434-.518 2.093 2.093 0 0 0-.644-.322 2.594 2.594 0 0 0-.77-.112c-.728 0-1.293.229-1.694.686-.392.457-.588 1.083-.588 1.876v1.008c0 .793.196 1.419.588 1.876.401.457.966.686 1.694.686zm8.506.714c-.99 0-1.764-.331-2.324-.994-.55-.663-.826-1.591-.826-2.786s.275-2.123.826-2.786c.56-.663 1.335-.994 2.324-.994.99 0 1.76.331 2.31.994.56.663.84 1.591.84 2.786s-.28 2.123-.84 2.786c-.55.663-1.32.994-2.31.994zm0-.7c.71 0 1.27-.224 1.68-.672.41-.448.616-1.101.616-1.96v-.896c0-.859-.205-1.512-.616-1.96-.41-.448-.97-.672-1.68-.672s-1.27.224-1.68.672c-.41.448-.616 1.101-.616 1.96v.896c0 .859.206 1.512.616 1.96.41.448.97.672 1.68.672zm8.675.7c-1.008 0-1.788-.331-2.338-.994s-.826-1.591-.826-2.786.275-2.123.826-2.786c.56-.663 1.334-.994 2.324-.994.672 0 1.222.154 1.652.462.43.299.737.686.924 1.162l-.644.322a1.835 1.835 0 0 0-.714-.924c-.327-.215-.733-.322-1.218-.322-.738 0-1.307.238-1.708.714-.392.467-.588 1.087-.588 1.862v1.008c0 .775.196 1.4.588 1.876.401.467.975.7 1.722.7.513 0 .942-.117 1.288-.35a2.25 2.25 0 0 0 .798-.98l.588.378a2.835 2.835 0 0 1-.966 1.19c-.439.308-1.008.462-1.708.462zm9.99-1.288h-.056c-.14.336-.378.635-.714.896-.326.261-.793.392-1.4.392-.784 0-1.395-.233-1.834-.7-.429-.476-.644-1.153-.644-2.03v-4.662h.798v4.522c0 .747.159 1.293.476 1.638.327.345.798.518 1.414.518.252 0 .495-.033.728-.098a1.86 1.86 0 0 0 .616-.294 1.5 1.5 0 0 0 .448-.49c.112-.205.168-.443.168-.714v-5.082h.798V157h-.798v-1.12zm3.187 1.12v-7.224h.742v.84h.042c.112-.28.275-.518.49-.714.224-.196.536-.294.938-.294.41 0 .728.103.952.308.224.196.364.471.42.826h.028a2.1 2.1 0 0 1 .56-.812c.242-.215.578-.322 1.008-.322.56 0 .947.187 1.162.56.224.364.336.896.336 1.596V157h-.742v-5.11c0-.588-.084-1.003-.252-1.246-.159-.243-.416-.364-.77-.364-.336 0-.621.117-.854.35-.234.224-.35.569-.35 1.036V157h-.742v-5.11c0-.588-.084-1.003-.252-1.246-.159-.243-.416-.364-.77-.364-.336 0-.621.117-.854.35-.234.224-.35.569-.35 1.036V157h-.742zm11.838.168c-1.008 0-1.801-.327-2.38-.98-.569-.663-.854-1.591-.854-2.786 0-.597.075-1.129.224-1.596.15-.476.36-.873.63-1.19.28-.327.616-.574 1.008-.742a3.128 3.128 0 0 1 1.302-.266c.486 0 .92.089 1.302.266.383.168.705.411.966.728.271.317.476.695.616 1.134.14.439.21.924.21 1.456v.35h-5.418v.35c0 .775.21 1.4.63 1.876.42.467 1.008.7 1.764.7.532 0 .985-.121 1.358-.364.383-.243.677-.602.882-1.078l.602.378a2.768 2.768 0 0 1-1.05 1.288c-.485.317-1.082.476-1.792.476zm-.07-6.888a2.32 2.32 0 0 0-.966.196c-.28.121-.522.294-.728.518-.196.224-.35.495-.462.812a3.134 3.134 0 0 0-.168 1.05v.084h4.564v-.112c0-.784-.2-1.405-.602-1.862-.392-.457-.938-.686-1.638-.686zm5.679 6.72v-7.224h.798v1.12h.056a2.26 2.26 0 0 1 .7-.896c.336-.261.807-.392 1.414-.392.784 0 1.391.238 1.82.714.439.467.658 1.139.658 2.016V157h-.798v-4.522c0-.747-.163-1.293-.49-1.638-.317-.345-.784-.518-1.4-.518-.252 0-.495.033-.728.098a2.047 2.047 0 0 0-.63.294 1.53 1.53 0 0 0-.434.504 1.387 1.387 0 0 0-.168.7V157h-.798zm11.096 0c-.392 0-.681-.103-.868-.308-.177-.215-.266-.499-.266-.854v-5.376h-2.562v-.686h2.03c.206 0 .35-.042.434-.126.084-.084.126-.229.126-.434v-1.988h.77v2.548h3.444v.686h-3.444v5.852h3.444V157h-3.108zm8.521.168c-.728 0-1.363-.121-1.904-.364a4.231 4.231 0 0 1-1.386-1.05l.546-.476c.355.411.751.719 1.19.924.439.196.961.294 1.568.294.635 0 1.148-.121 1.54-.364.401-.243.602-.616.602-1.12 0-.224-.042-.406-.126-.546a.934.934 0 0 0-.322-.364 1.568 1.568 0 0 0-.49-.21 3.783 3.783 0 0 0-.616-.126l-1.12-.154a9.673 9.673 0 0 1-.854-.154 2.987 2.987 0 0 1-.77-.322 1.782 1.782 0 0 1-.56-.56c-.14-.233-.21-.532-.21-.896 0-.355.07-.663.21-.924a1.77 1.77 0 0 1 .588-.644 2.8 2.8 0 0 1 .882-.378 4.666 4.666 0 0 1 1.106-.126c.672 0 1.237.112 1.694.336.467.215.859.485 1.176.812l-.532.504a3.259 3.259 0 0 0-.364-.336 1.945 1.945 0 0 0-.49-.322 2.88 2.88 0 0 0-.658-.224 3.486 3.486 0 0 0-.868-.098c-.616 0-1.097.112-1.442.336-.336.224-.504.56-.504 1.008 0 .224.037.411.112.56.084.14.196.257.336.35.14.093.303.168.49.224.187.047.387.084.602.112l1.134.168c.28.047.56.107.84.182.289.065.546.168.77.308.233.14.42.327.56.56.14.224.21.518.21.882a1.944 1.944 0 0 1-.826 1.638c-.252.187-.56.327-.924.42-.364.093-.761.14-1.19.14zm7.54-2.968v-2.282c.85-.028 1.512-.219 1.988-.574.476-.364.714-.873.714-1.526v-.266c0-.56-.177-.994-.532-1.302-.354-.308-.84-.462-1.456-.462s-1.11.159-1.484.476c-.364.317-.62.742-.77 1.274l-.756-.266c.094-.317.224-.611.392-.882s.378-.504.63-.7c.252-.196.546-.35.882-.462a3.575 3.575 0 0 1 1.134-.168c.878 0 1.568.233 2.072.7.504.467.756 1.097.756 1.89 0 .429-.074.807-.224 1.134-.14.327-.336.611-.588.854a3.197 3.197 0 0 1-.882.574c-.336.14-.695.238-1.078.294v1.694h-.798zm.434 2.898c-.298 0-.513-.061-.644-.182a.645.645 0 0 1-.182-.476v-.196c0-.187.061-.341.182-.462.131-.131.346-.196.644-.196.29 0 .495.065.616.196a.6.6 0 0 1 .196.462v.196a.618.618 0 0 1-.196.476c-.121.121-.326.182-.616.182z" fill="#999"/><path d="M19.46 16.8v-2.652h-.096L17.6 18.456l-1.764-4.308h-.096V21h-.924v-8.376h1.296l1.476 3.696h.072l1.476-3.696h1.248V21h-.924v-4.2zm3.535 4.2v-8.376h5.16v.876h-4.152v2.82h4.008v.876h-4.008v2.928h4.152V21h-5.16zm8.792-7.092h-.084V21h-.912v-8.376h1.428l2.856 7.02h.084v-7.02h.912V21h-1.428l-2.856-7.092zM41.85 13.5V21h-1.008v-7.5h-2.796v-.876h6.6v.876H41.85zm4.82 7.5v-.804h2.087v-6.768H46.67v-.804h5.184v.804h-2.088v6.768h2.088V21H46.67zm10.507.144c-.512 0-.952-.096-1.32-.288a2.51 2.51 0 0 1-.912-.852c-.24-.368-.416-.82-.528-1.356a9.03 9.03 0 0 1-.168-1.836c0-.68.056-1.288.168-1.824.112-.544.288-1 .528-1.368a2.41 2.41 0 0 1 .912-.84c.368-.2.808-.3 1.32-.3s.952.1 1.32.3c.368.192.672.472.912.84s.416.824.528 1.368c.112.536.168 1.144.168 1.824 0 .688-.056 1.3-.168 1.836-.112.536-.288.988-.528 1.356a2.51 2.51 0 0 1-.912.852c-.368.192-.808.288-1.32.288zm0-.876c.336 0 .62-.064.852-.192.232-.136.424-.324.576-.564.152-.24.26-.528.324-.864a5.64 5.64 0 0 0 .108-1.152v-1.368c0-.416-.036-.796-.108-1.14a2.467 2.467 0 0 0-.324-.876 1.583 1.583 0 0 0-.576-.552c-.232-.136-.516-.204-.852-.204-.336 0-.62.068-.852.204a1.583 1.583 0 0 0-.576.552c-.152.24-.264.532-.336.876a6.25 6.25 0 0 0-.096 1.14v1.368c0 .424.032.808.096 1.152.072.336.184.624.336.864.152.24.344.428.576.564.232.128.516.192.852.192zm6.27-6.36h-.083V21h-.912v-8.376h1.428l2.856 7.02h.084v-7.02h.912V21h-1.428l-2.856-7.092zM70.488 21v-8.376h5.16v.876h-4.152v2.82h4.008v.876h-4.008v2.928h4.152V21h-5.16zm7.976-8.376h2.34c1.023 0 1.788.352 2.291 1.056.505.704.757 1.748.757 3.132 0 1.384-.252 2.428-.757 3.132-.503.704-1.267 1.056-2.291 1.056h-2.34v-8.376zm2.291 7.5c.672 0 1.176-.232 1.512-.696.344-.464.516-1.12.516-1.968v-1.296c0-.848-.171-1.504-.516-1.968-.336-.464-.84-.696-1.512-.696H79.47v6.624h1.284zM94.161 21v-.804h2.088v-6.768h-2.088v-.804h5.184v.804h-2.088v6.768h2.088V21h-5.184zm8.863-7.092h-.084V21h-.912v-8.376h1.428l2.856 7.02h.084v-7.02h.912V21h-1.428l-2.856-7.092zm17.751 7.236c-1.024 0-1.788-.372-2.292-1.116-.496-.744-.744-1.816-.744-3.216 0-1.4.248-2.472.744-3.216.504-.744 1.268-1.116 2.292-1.116.384 0 .716.052.996.156.28.104.52.244.72.42.2.176.368.376.504.6.136.216.256.436.36.66l-.864.396a3.43 3.43 0 0 0-.252-.516 1.685 1.685 0 0 0-.348-.432 1.345 1.345 0 0 0-.468-.3 1.715 1.715 0 0 0-.648-.108c-.664 0-1.16.252-1.488.756-.32.504-.48 1.176-.48 2.016v1.368c0 .84.16 1.512.48 2.016.328.504.824.756 1.488.756.256 0 .472-.036.648-.108.184-.072.34-.168.468-.288.136-.128.252-.272.348-.432.096-.168.18-.344.252-.528l.864.396a5.424 5.424 0 0 1-.36.672 2.693 2.693 0 0 1-.504.588c-.2.176-.44.316-.72.42-.28.104-.612.156-.996.156zm7.639 0c-.512 0-.952-.096-1.32-.288a2.51 2.51 0 0 1-.912-.852c-.24-.368-.416-.82-.528-1.356a9.03 9.03 0 0 1-.168-1.836c0-.68.056-1.288.168-1.824.112-.544.288-1 .528-1.368a2.41 2.41 0 0 1 .912-.84c.368-.2.808-.3 1.32-.3s.952.1 1.32.3c.368.192.672.472.912.84s.416.824.528 1.368c.112.536.168 1.144.168 1.824 0 .688-.056 1.3-.168 1.836-.112.536-.288.988-.528 1.356a2.51 2.51 0 0 1-.912.852c-.368.192-.808.288-1.32.288zm0-.876c.336 0 .62-.064.852-.192.232-.136.424-.324.576-.564.152-.24.26-.528.324-.864a5.64 5.64 0 0 0 .108-1.152v-1.368c0-.416-.036-.796-.108-1.14a2.467 2.467 0 0 0-.324-.876 1.583 1.583 0 0 0-.576-.552c-.232-.136-.516-.204-.852-.204-.336 0-.62.068-.852.204a1.583 1.583 0 0 0-.576.552c-.152.24-.264.532-.336.876a6.25 6.25 0 0 0-.096 1.14v1.368c0 .424.032.808.096 1.152.072.336.184.624.336.864.152.24.344.428.576.564.232.128.516.192.852.192zm9.776-3.468v-2.652h-.096l-1.764 4.308-1.764-4.308h-.096V21h-.924v-8.376h1.296l1.476 3.696h.072l1.476-3.696h1.248V21h-.924v-4.2zm7.915 0v-2.652h-.096l-1.764 4.308-1.764-4.308h-.096V21h-.924v-8.376h1.296l1.476 3.696h.072l1.476-3.696h1.248V21h-.924v-4.2zm3.535 4.2v-8.376h5.16v.876h-4.152v2.82h4.008v.876h-4.008v2.928h4.152V21h-5.16zm8.792-7.092h-.084V21h-.912v-8.376h1.428l2.856 7.02h.084v-7.02h.912V21h-1.428l-2.856-7.092zm10.063-.408V21h-1.008v-7.5h-2.796v-.876h6.6v.876h-2.796zm13.503 4.908h-1.584v-.792h1.728l.276-1.608h-1.572v-.792h1.716l.456-2.592h.876L182.418 21h-.876l.456-2.592zm3.228-5.784h.876l-.456 2.592h1.584v.792h-1.728l-.276 1.608h1.572v.792h-1.716L184.626 21h-.876l1.476-8.376zM189.157 21v-.876h2.4v-6.756h-.084l-2.112 1.968-.588-.636 2.22-2.076h1.572v7.5h2.208V21h-5.616z" fill="#fff"/><path fill="#262626" d="M0 32h292v1H0z"/><defs><linearGradient id="a" x1="146" y1="0" x2="146" y2="194" gradientUnits="userSpaceOnUse"><stop stop-color="#1A1A1A"/><stop offset="1" stop-color="#1A1A1A" stop-opacity=".7"/></linearGradient></defs></svg>