<svg width="292" height="194" fill="none" xmlns="http://www.w3.org/2000/svg"><rect width="292" height="194" rx="10" fill="url(#a)"/><path d="M18.466 63.932c-.392 0-.686-.112-.882-.336-.196-.215-.294-.485-.294-.812v-.882c0-.252.023-.471.07-.658.056-.187.121-.355.196-.504.075-.15.159-.28.252-.392.093-.121.182-.233.266-.336.159-.187.266-.345.322-.476.065-.14.098-.285.098-.434 0-.355-.163-.611-.49-.77-.327-.168-.807-.252-1.442-.252H15.47v-.868h1.092c.635 0 1.115-.08 1.442-.238.327-.168.49-.43.49-.784 0-.15-.033-.29-.098-.42a1.887 1.887 0 0 0-.322-.49l-.266-.322a2.815 2.815 0 0 1-.252-.392 3.147 3.147 0 0 1-.196-.504 2.913 2.913 0 0 1-.07-.672v-.882c0-.327.098-.597.294-.812.196-.224.49-.336.882-.336h2.464v.868h-2.674v1.078c0 .383.056.677.168.882.112.205.243.406.392.602.159.205.308.42.448.644.14.215.21.471.21.77 0 .392-.14.71-.42.952-.27.243-.644.397-1.12.462v.056c.476.065.85.22 1.12.462.28.243.42.56.42.952 0 .299-.07.56-.21.784-.14.215-.29.425-.448.63a4.74 4.74 0 0 0-.392.602c-.112.205-.168.5-.168.882v1.078h2.674v.868h-2.464zM17.934 165.36c.392 0 .686.112.882.336.196.215.294.485.294.812v.882c0 .252-.028.476-.084.672a2.443 2.443 0 0 1-.182.504c-.075.14-.159.271-.252.392l-.266.322a2.31 2.31 0 0 0-.336.49 1.057 1.057 0 0 0-.084.42c0 .355.163.616.49.784.327.159.807.238 1.442.238h1.092v.868h-1.092c-.635 0-1.115.084-1.442.252-.327.159-.49.415-.49.77 0 .149.028.294.084.434.065.131.177.289.336.476.084.103.173.215.266.336.093.112.177.243.252.392.075.149.135.317.182.504.056.187.084.406.084.658v.882c0 .327-.098.597-.294.812-.196.224-.49.336-.882.336H15.47v-.868h2.674v-1.078c0-.383-.056-.677-.168-.882a4.762 4.762 0 0 0-.392-.602 9.474 9.474 0 0 1-.448-.63 1.447 1.447 0 0 1-.21-.784c0-.392.135-.709.406-.952.28-.243.658-.397 1.134-.462v-.056c-.476-.065-.854-.219-1.134-.462-.27-.243-.406-.56-.406-.952 0-.299.07-.555.21-.77.14-.224.29-.439.448-.644.15-.196.28-.397.392-.602.112-.205.168-.499.168-.882v-1.078H15.47v-.868h2.464z" fill="#fff"/><path d="M35.33 73.776h1.12v1.176h.056c.467-.896 1.209-1.344 2.226-1.344.887 0 1.577.331 2.072.994.504.663.756 1.591.756 2.786s-.252 2.123-.756 2.786c-.495.663-1.185.994-2.072.994-1.017 0-1.76-.448-2.226-1.344h-.056V83.8h-1.12V73.776zm2.968 6.398c.653 0 1.157-.196 1.512-.588.364-.401.546-.929.546-1.582v-1.232c0-.653-.182-1.176-.546-1.568-.355-.401-.859-.602-1.512-.602-.252 0-.49.033-.714.098a1.74 1.74 0 0 0-.588.294 1.384 1.384 0 0 0-.406.462c-.093.177-.14.387-.14.63v2.604c0 .243.047.457.14.644.103.177.238.331.406.462.168.121.364.215.588.28.224.065.462.098.714.098zm8.296.994c-.504 0-.96-.089-1.372-.266a2.973 2.973 0 0 1-1.035-.756 3.566 3.566 0 0 1-.645-1.19 5.132 5.132 0 0 1-.224-1.568c0-.57.075-1.087.224-1.554.15-.467.364-.863.645-1.19.289-.336.634-.593 1.035-.77.411-.177.868-.266 1.372-.266.505 0 .957.089 1.358.266.411.177.757.434 1.037.77.289.327.508.723.658 1.19.149.467.224.985.224 1.554 0 .579-.075 1.101-.224 1.568-.15.457-.37.854-.658 1.19a2.81 2.81 0 0 1-1.036.756 3.327 3.327 0 0 1-1.359.266zm0-.966c.626 0 1.13-.187 1.512-.56.383-.373.575-.952.575-1.736V76.87c0-.784-.192-1.363-.575-1.736-.382-.373-.886-.56-1.512-.56-.625 0-1.129.187-1.511.56-.383.373-.575.952-.575 1.736v1.036c0 .784.192 1.363.575 1.736.382.373.886.56 1.511.56zm8.48.966c-.757 0-1.41-.126-1.96-.378a4.389 4.389 0 0 1-1.387-1.036l.756-.658c.345.364.723.644 1.134.84.41.196.905.294 1.484.294.56 0 1.017-.098 1.372-.294.364-.205.546-.523.546-.952a.87.87 0 0 0-.112-.462.746.746 0 0 0-.28-.308 1.43 1.43 0 0 0-.406-.168 3.551 3.551 0 0 0-.476-.112l-1.134-.168a12.374 12.374 0 0 1-.826-.154 2.834 2.834 0 0 1-.798-.308 2.051 2.051 0 0 1-.616-.588c-.159-.243-.238-.56-.238-.952 0-.364.07-.677.21-.938.15-.27.355-.495.616-.672.261-.187.57-.322.924-.406.355-.093.742-.14 1.162-.14.653 0 1.218.103 1.694.308.485.205.9.49 1.246.854l-.728.686a2.054 2.054 0 0 0-.322-.308 1.711 1.711 0 0 0-.462-.294 2.618 2.618 0 0 0-.63-.224 3.76 3.76 0 0 0-.84-.084c-.57 0-1.008.098-1.316.294-.299.196-.448.48-.448.854 0 .187.033.345.098.476.075.121.173.22.294.294.121.075.257.135.406.182.159.037.317.07.476.098l1.134.168c.261.037.537.089.826.154.29.065.555.173.798.322.243.14.443.331.602.574.168.243.252.56.252.952 0 .719-.28 1.274-.84 1.666-.55.392-1.288.588-2.212.588zm8.66-.168c-.551 0-.957-.154-1.218-.462-.252-.308-.378-.705-.378-1.19v-4.62H59.73v-.952h1.792c.242 0 .41-.047.504-.14.102-.103.154-.275.154-.518v-1.89h1.078v2.548h3.29v.952h-3.29v5.32h3.29V81h-2.814zm4.684 2.366V82.33h6.72v1.036h-6.72zM80.621 72.18c-.327 0-.556-.065-.686-.196a.73.73 0 0 1-.196-.518v-.224c0-.205.065-.373.196-.504.13-.14.359-.21.686-.21.326 0 .555.07.686.21.13.13.196.299.196.504v.224a.73.73 0 0 1-.196.518c-.131.13-.36.196-.686.196zm-3.164 7.868h2.604v-5.32h-2.604v-.952h3.724v6.272h2.436V81h-6.16v-.952zm12.86-.224h-.056c-.466.896-1.209 1.344-2.226 1.344-.886 0-1.582-.331-2.086-.994-.495-.663-.742-1.591-.742-2.786s.248-2.123.742-2.786c.504-.663 1.2-.994 2.086-.994 1.017 0 1.76.448 2.226 1.344h.056V70.64h1.12V81h-1.12v-1.176zm-1.848.35c.252 0 .49-.033.714-.098.224-.065.42-.159.588-.28a1.42 1.42 0 0 0 .392-.462c.103-.187.154-.401.154-.644v-2.604c0-.243-.051-.453-.154-.63a1.251 1.251 0 0 0-.392-.462 1.74 1.74 0 0 0-.588-.294 2.54 2.54 0 0 0-.714-.098c-.653 0-1.162.2-1.526.602-.355.392-.532.915-.532 1.568v1.232c0 .653.177 1.18.532 1.582.364.392.873.588 1.526.588zM40.93 100c-.439 0-.751-.112-.938-.336a1.632 1.632 0 0 1-.35-.84h-.07c-.159.42-.415.751-.77.994-.345.233-.812.35-1.4.35-.756 0-1.358-.196-1.806-.588-.448-.392-.672-.929-.672-1.61 0-.672.243-1.19.728-1.554.495-.364 1.288-.546 2.38-.546h1.54v-.714c0-.532-.15-.929-.448-1.19-.299-.27-.723-.406-1.274-.406-.485 0-.882.098-1.19.294a2.1 2.1 0 0 0-.742.77l-.756-.56c.093-.187.22-.369.378-.546.159-.177.355-.331.588-.462.233-.14.5-.247.798-.322.299-.084.63-.126.994-.126.85 0 1.521.215 2.016.644.504.43.756 1.027.756 1.792v3.976H41.7v.98h-.77zm-3.332-.77c.29 0 .55-.033.784-.098.243-.075.453-.168.63-.28a1.33 1.33 0 0 0 .406-.42c.103-.168.154-.345.154-.532v-1.19h-1.54c-.672 0-1.162.093-1.47.28a.895.895 0 0 0-.462.812v.294c0 .373.13.658.392.854.27.187.64.28 1.106.28zm9.248.938c-.522 0-.989-.089-1.4-.266a2.988 2.988 0 0 1-1.021-.77 3.393 3.393 0 0 1-.644-1.19 5.396 5.396 0 0 1-.21-1.554c0-.57.074-1.087.224-1.554.149-.467.363-.863.643-1.19a2.77 2.77 0 0 1 1.023-.77 3.364 3.364 0 0 1 1.372-.266c.7 0 1.269.154 1.708.462.438.308.76.71.966 1.204l-.896.476a1.673 1.673 0 0 0-.658-.868c-.3-.205-.672-.308-1.12-.308-.327 0-.621.056-.883.168a1.743 1.743 0 0 0-.644.448c-.177.196-.312.43-.405.7-.085.27-.127.565-.127.882v1.232c0 .317.042.611.127.882a1.864 1.864 0 0 0 1.064 1.162c.26.103.56.154.896.154.485 0 .886-.112 1.204-.336.317-.224.569-.532.756-.924l.797.546a2.85 2.85 0 0 1-1.008 1.204c-.447.317-1.035.476-1.764.476zM55.34 100c-.55 0-.957-.154-1.218-.462-.252-.308-.378-.705-.378-1.19v-4.62h-2.408v-.952h1.792c.243 0 .41-.047.504-.14.103-.103.154-.275.154-.518v-1.89h1.078v2.548h3.29v.952h-3.29v5.32h3.29V100H55.34zm8.045.168c-.504 0-.962-.089-1.372-.266a2.972 2.972 0 0 1-1.036-.756 3.564 3.564 0 0 1-.644-1.19 5.132 5.132 0 0 1-.224-1.568c0-.57.074-1.087.224-1.554.149-.467.364-.863.644-1.19.289-.336.634-.593 1.036-.77.41-.177.868-.266 1.372-.266.504 0 .956.089 1.358.266.41.177.756.434 1.036.77.289.327.508.723.658 1.19.149.467.224.985.224 1.554 0 .579-.075 1.101-.224 1.568-.15.457-.37.854-.658 1.19a2.81 2.81 0 0 1-1.036.756 3.332 3.332 0 0 1-1.358.266zm0-.966c.625 0 1.129-.187 1.512-.56.382-.373.574-.952.574-1.736V95.87c0-.784-.192-1.363-.574-1.736-.383-.373-.887-.56-1.512-.56-.626 0-1.13.187-1.512.56-.383.373-.574.952-.574 1.736v1.036c0 .784.19 1.363.574 1.736.382.373.886.56 1.512.56zm5.272-.154h2.114v-5.32h-2.114v-.952h3.234v1.82h.07c.15-.57.43-1.013.84-1.33.42-.327.952-.49 1.596-.49h1.008v1.12h-1.358c-.644 0-1.167.187-1.568.56-.392.373-.588.863-.588 1.47v3.122h2.8V100h-6.034v-.952zm8.157 3.318v-1.036h6.72v1.036h-6.72zM89.015 91.18c-.326 0-.555-.065-.686-.196a.73.73 0 0 1-.196-.518v-.224c0-.205.066-.373.196-.504.13-.14.36-.21.686-.21.327 0 .555.07.686.21.13.13.196.299.196.504v.224a.73.73 0 0 1-.196.518c-.13.13-.36.196-.686.196zm-3.164 7.868h2.604v-5.32h-2.604v-.952h3.724v6.272h2.436V100h-6.16v-.952zm12.86-.224h-.055c-.467.896-1.209 1.344-2.226 1.344-.887 0-1.582-.331-2.086-.994-.495-.663-.742-1.591-.742-2.786s.247-2.123.742-2.786c.504-.663 1.2-.994 2.086-.994 1.017 0 1.76.448 2.226 1.344h.056V89.64h1.12V100h-1.12v-1.176zm-1.847.35c.252 0 .49-.033.714-.098.224-.065.42-.159.588-.28a1.42 1.42 0 0 0 .392-.462c.102-.187.154-.401.154-.644v-2.604c0-.243-.052-.453-.154-.63a1.251 1.251 0 0 0-.392-.462 1.74 1.74 0 0 0-.588-.294 2.54 2.54 0 0 0-.714-.098c-.654 0-1.162.2-1.526.602-.355.392-.532.915-.532 1.568v1.232c0 .653.177 1.18.532 1.582.364.392.872.588 1.526.588zm-58.412 19.994c-.523 0-.99-.089-1.4-.266a2.988 2.988 0 0 1-1.022-.77 3.391 3.391 0 0 1-.644-1.19 5.399 5.399 0 0 1-.21-1.554c0-.569.075-1.087.224-1.554.15-.467.364-.863.644-1.19.28-.336.62-.593 1.022-.77a3.368 3.368 0 0 1 1.372-.266c.7 0 1.27.154 1.708.462.439.308.76.709.966 1.204l-.896.476a1.674 1.674 0 0 0-.658-.868c-.299-.205-.672-.308-1.12-.308-.327 0-.62.056-.882.168a1.746 1.746 0 0 0-.644.448 1.999 1.999 0 0 0-.406.7 2.966 2.966 0 0 0-.126.882v1.232c0 .317.042.611.126.882.093.271.229.504.406.7.177.196.397.35.658.462.261.103.56.154.896.154.485 0 .887-.112 1.204-.336.317-.224.57-.532.756-.924l.798.546c-.215.485-.55.887-1.008 1.204-.448.317-1.036.476-1.764.476zm8.142 0c-.504 0-.96-.089-1.372-.266a2.965 2.965 0 0 1-1.035-.756 3.57 3.57 0 0 1-.645-1.19 5.132 5.132 0 0 1-.224-1.568c0-.569.075-1.087.224-1.554.15-.467.364-.863.645-1.19.289-.336.634-.593 1.035-.77.411-.177.868-.266 1.372-.266.505 0 .957.089 1.358.266.411.177.757.434 1.037.77.289.327.508.723.658 1.19.149.467.224.985.224 1.554 0 .579-.075 1.101-.224 1.568-.15.457-.37.854-.658 1.19-.28.327-.626.579-1.036.756a3.332 3.332 0 0 1-1.359.266zm0-.966c.626 0 1.13-.187 1.512-.56.383-.373.575-.952.575-1.736v-1.036c0-.784-.192-1.363-.575-1.736-.382-.373-.886-.56-1.512-.56-.625 0-1.129.187-1.511.56-.383.373-.575.952-.575 1.736v1.036c0 .784.192 1.363.575 1.736.382.373.886.56 1.511.56zm5.567.798v-7.224h1.12v1.176h.056c.075-.177.168-.345.28-.504a1.79 1.79 0 0 1 .406-.434c.168-.121.364-.219.588-.294.224-.075.485-.112.784-.112.756 0 1.363.243 1.82.728.457.476.686 1.153.686 2.03V119h-1.12v-4.438c0-.663-.145-1.153-.434-1.47-.29-.327-.714-.49-1.274-.49-.224 0-.443.028-.658.084-.215.056-.406.14-.574.252a1.295 1.295 0 0 0-.406.434 1.207 1.207 0 0 0-.154.616V119h-1.12zm11.573 0c-.551 0-.957-.154-1.218-.462-.252-.308-.378-.705-.378-1.19v-4.62H59.73v-.952h1.792c.242 0 .41-.047.504-.14.102-.103.154-.275.154-.518v-1.89h1.078v2.548h3.29v.952h-3.29v5.32h3.29V119h-2.814zm8.17.168c-.522 0-.994-.089-1.414-.266a3.07 3.07 0 0 1-1.064-.756 3.625 3.625 0 0 1-.672-1.19 4.81 4.81 0 0 1-.238-1.554c0-.579.08-1.101.238-1.568.168-.467.397-.863.686-1.19.29-.336.635-.593 1.036-.77.41-.177.864-.266 1.358-.266.486 0 .924.089 1.316.266.401.177.742.425 1.022.742.28.308.495.677.644 1.106.15.429.224.901.224 1.414v.532h-5.348v.336c0 .317.052.611.154.882.103.271.248.504.434.7.196.196.43.35.7.462.28.103.588.154.924.154.486 0 .906-.112 1.26-.336a2.17 2.17 0 0 0 .812-.924l.826.56c-.215.485-.574.887-1.078 1.204-.495.308-1.101.462-1.82.462zm-.07-6.636a2.145 2.145 0 0 0-1.54.63 2.248 2.248 0 0 0-.448.7 2.356 2.356 0 0 0-.154.868v.098h4.144v-.154c0-.317-.051-.607-.154-.868a1.884 1.884 0 0 0-.406-.672 1.623 1.623 0 0 0-.63-.448 2.058 2.058 0 0 0-.812-.154zm5.51 6.468v-7.224h1.12v1.176h.057c.074-.177.168-.345.28-.504a1.79 1.79 0 0 1 .406-.434c.168-.121.364-.219.588-.294.224-.075.485-.112.784-.112.756 0 1.362.243 1.82.728.457.476.686 1.153.686 2.03V119h-1.12v-4.438c0-.663-.145-1.153-.434-1.47-.29-.327-.714-.49-1.274-.49-.224 0-.444.028-.658.084-.215.056-.406.14-.574.252a1.295 1.295 0 0 0-.406.434 1.207 1.207 0 0 0-.154.616V119h-1.12zm11.573 0c-.55 0-.957-.154-1.218-.462-.252-.308-.378-.705-.378-1.19v-4.62h-2.408v-.952h1.792c.243 0 .41-.047.504-.14.103-.103.154-.275.154-.518v-1.89h1.078v2.548h3.29v.952h-3.29v5.32h3.29V119h-2.814z" fill="#FFE14D"/><path d="M96.962 81.126c-.383 0-.654-.08-.812-.238a.844.844 0 0 1-.224-.602v-.252c0-.243.074-.443.224-.602.158-.159.43-.238.812-.238.382 0 .648.08.798.238.158.159.238.36.238.602v.252c0 .243-.08.443-.238.602-.15.159-.416.238-.798.238zm0-5.544c-.383 0-.654-.08-.812-.238a.844.844 0 0 1-.224-.602v-.252c0-.243.074-.443.224-.602.158-.159.43-.238.812-.238.382 0 .648.08.798.238.158.159.238.36.238.602v.252c0 .243-.08.443-.238.602-.15.159-.416.238-.798.238zm24.581 3.514h1.806l-1.61 3.878h-.938l.742-3.878zm-16.187 21.03c-.382 0-.653-.079-.812-.238a.845.845 0 0 1-.224-.602v-.252c0-.243.075-.443.224-.602.159-.159.43-.238.812-.238.383 0 .649.08.798.238.159.159.238.36.238.602v.252a.815.815 0 0 1-.238.602c-.149.159-.415.238-.798.238zm0-5.544c-.382 0-.653-.08-.812-.238a.845.845 0 0 1-.224-.602v-.252c0-.243.075-.443.224-.602.159-.159.43-.238.812-.238.383 0 .649.08.798.238.159.159.238.36.238.602v.252a.815.815 0 0 1-.238.602c-.149.159-.415.238-.798.238zm32.976 3.514h1.806l-1.61 3.878h-.938l.742-3.878zm-41.37 21.03c-.383 0-.654-.079-.812-.238a.844.844 0 0 1-.224-.602v-.252c0-.243.074-.443.224-.602.158-.159.43-.238.812-.238.382 0 .648.079.798.238a.816.816 0 0 1 .238.602v.252c0 .243-.08.443-.238.602-.15.159-.416.238-.798.238zm0-5.544c-.383 0-.654-.079-.812-.238a.844.844 0 0 1-.224-.602v-.252c0-.243.074-.443.224-.602.158-.159.43-.238.812-.238.382 0 .648.079.798.238a.816.816 0 0 1 .238.602v.252c0 .243-.08.443-.238.602-.15.159-.416.238-.798.238zm15.347-4.942h.938l-.742 3.878h-1.806l1.61-3.878zm3.346 0h.938l-.742 3.878h-1.806l1.61-3.878zm122.096 38h1.806l-1.61 3.878h-.938l.742-3.878zm3.346 0h1.806l-1.61 3.878h-.938l.742-3.878zm6.364 8.456h1.806l-1.61 3.878h-.938l.742-3.878zm.602-3.514c-.382 0-.653-.079-.812-.238a.845.845 0 0 1-.224-.602v-.252c0-.243.075-.443.224-.602.159-.159.43-.238.812-.238.383 0 .649.079.798.238a.815.815 0 0 1 .238.602v.252a.815.815 0 0 1-.238.602c-.149.159-.415.238-.798.238z" fill="#fff"/><path d="M117.055 74.812a6.22 6.22 0 0 1-.336 2.058 7.8 7.8 0 0 1-.84 1.75c-.346.523-.728.99-1.148 1.4a7.405 7.405 0 0 1-1.218.98h-1.512a17.912 17.912 0 0 0 1.414-1.12c.42-.364.788-.742 1.106-1.134.317-.401.583-.826.798-1.274.214-.457.392-.97.532-1.54l-.07-.028a3.35 3.35 0 0 1-.938 1.008c-.374.261-.864.392-1.47.392-.43 0-.826-.07-1.19-.21a2.68 2.68 0 0 1-.924-.602 2.938 2.938 0 0 1-.602-.938 3.568 3.568 0 0 1-.21-1.26c0-.476.074-.91.224-1.302a2.85 2.85 0 0 1 .672-1.022c.289-.29.634-.513 1.036-.672.41-.159.863-.238 1.358-.238.513 0 .975.089 1.386.266.41.168.756.415 1.036.742.289.317.508.71.658 1.176.158.467.238.99.238 1.568zm-3.304 1.526c.672 0 1.19-.182 1.554-.546.373-.364.56-.877.56-1.54v-.112c0-.663-.187-1.176-.56-1.54-.364-.364-.882-.546-1.554-.546s-1.195.182-1.568.546c-.364.364-.546.877-.546 1.54v.112c0 .663.182 1.176.546 1.54.373.364.896.546 1.568.546zm7.974 18.034c.682 0 1.19-.15 1.526-.448.346-.308.518-.7.518-1.176v-.098c0-.523-.168-.915-.504-1.176-.326-.261-.756-.392-1.288-.392-.522 0-.947.117-1.274.35a2.63 2.63 0 0 0-.784.896l-.882-.672c.122-.196.271-.387.448-.574.178-.196.383-.369.616-.518.243-.15.518-.27.826-.364.318-.093.677-.14 1.078-.14.42 0 .812.056 1.176.168.364.103.682.261.952.476.271.205.481.462.63.77.159.308.238.658.238 1.05 0 .317-.051.602-.154.854a1.889 1.889 0 0 1-.406.658 2.329 2.329 0 0 1-.602.476c-.233.13-.48.229-.742.294v.056c.271.056.532.15.784.28.252.121.476.285.672.49.196.196.35.439.462.728.122.28.182.602.182.966 0 .42-.084.807-.252 1.162a2.548 2.548 0 0 1-.686.896 3.216 3.216 0 0 1-1.064.574c-.41.14-.868.21-1.372.21-.429 0-.812-.047-1.148-.14a3.611 3.611 0 0 1-.882-.378 3.837 3.837 0 0 1-.672-.532 5.325 5.325 0 0 1-.504-.616l.882-.672c.131.196.266.373.406.532.14.159.299.299.476.42.187.112.397.2.63.266.234.065.504.098.812.098.691 0 1.218-.159 1.582-.476.374-.317.56-.77.56-1.358V97.2c0-.579-.182-1.027-.546-1.344-.354-.317-.891-.476-1.61-.476h-1.162v-1.008h1.078zM133.858 100h-6.524v-1.204l3.262-2.94c.476-.43.868-.868 1.176-1.316.308-.457.462-.938.462-1.442v-.168c0-.588-.154-1.04-.462-1.358-.308-.327-.765-.49-1.372-.49-.597 0-1.059.154-1.386.462-.317.299-.555.7-.714 1.204l-1.05-.392c.093-.29.219-.57.378-.84.168-.28.378-.527.63-.742.252-.215.555-.387.91-.518a3.72 3.72 0 0 1 1.26-.196c.485 0 .915.07 1.288.21.383.14.7.336.952.588.261.252.457.55.588.896.14.345.21.723.21 1.134 0 .373-.056.723-.168 1.05a3.77 3.77 0 0 1-.448.938 5.783 5.783 0 0 1-.686.882c-.261.28-.555.56-.882.84l-2.73 2.38h5.306V100z" fill="#E300BD"/><path d="M124.399 120.54h-1.876c-.69 0-1.264-.126-1.722-.378a2.683 2.683 0 0 1-1.092-1.092c-.27-.485-.462-1.078-.574-1.778a17.375 17.375 0 0 1-.154-2.45c0-1.064.066-1.965.196-2.702.131-.737.327-1.33.588-1.778.262-.457.588-.789.98-.994.402-.205.873-.308 1.414-.308.542 0 .999.093 1.372.28.383.177.691.425.924.742.234.308.402.672.504 1.092.103.42.154.868.154 1.344v5.18h-.714v-.798h-.056a1.776 1.776 0 0 1-.49.672c-.224.187-.541.28-.952.28-.588 0-1.054-.233-1.4-.7-.336-.467-.504-1.218-.504-2.254s.168-1.787.504-2.254c.346-.467.812-.7 1.4-.7.411 0 .728.093.952.28.224.187.388.411.49.672h.056v-.378c0-.42-.042-.803-.126-1.148a2.282 2.282 0 0 0-.378-.882 1.708 1.708 0 0 0-.686-.574c-.28-.14-.62-.21-1.022-.21-.438 0-.812.089-1.12.266-.308.168-.56.434-.756.798-.196.364-.34.831-.434 1.4-.093.569-.14 1.251-.14 2.044v1.344c0 .625.038 1.204.112 1.736.075.523.215.98.42 1.372.206.383.49.681.854.896.364.215.831.322 1.4.322h1.876v.658zm-1.26-3.304c.392 0 .7-.112.924-.336.224-.224.336-.546.336-.966v-2.086c0-.42-.112-.742-.336-.966-.224-.224-.532-.336-.924-.336-.438 0-.779.154-1.022.462-.242.299-.364.812-.364 1.54v.7c0 .719.122 1.232.364 1.54.243.299.584.448 1.022.448zm7.401 1.932c-.439 0-.831-.042-1.176-.126a4.443 4.443 0 0 1-.938-.336 3.665 3.665 0 0 1-.756-.532 4.967 4.967 0 0 1-.588-.672l.616-.504c.364.467.765.826 1.204 1.078.439.243.994.364 1.666.364.784 0 1.386-.173 1.806-.518.42-.355.63-.863.63-1.526 0-.607-.177-1.055-.532-1.344-.345-.289-.84-.485-1.484-.588l-1.092-.182c-.485-.084-.891-.21-1.218-.378a2.669 2.669 0 0 1-.77-.588 2.145 2.145 0 0 1-.42-.77 3.338 3.338 0 0 1-.112-.868c0-.877.285-1.531.854-1.96.579-.439 1.353-.658 2.324-.658.793 0 1.442.131 1.946.392.513.252.924.602 1.232 1.05l-.588.518a2.93 2.93 0 0 0-1.036-.91c-.401-.215-.929-.322-1.582-.322-.728 0-1.297.159-1.708.476-.401.308-.602.77-.602 1.386 0 .569.168 1.003.504 1.302.336.289.835.485 1.498.588l1.078.182c.495.084.905.215 1.232.392.327.168.588.369.784.602.196.233.331.49.406.77.084.28.126.574.126.882 0 .896-.289 1.587-.868 2.072-.579.485-1.391.728-2.436.728zm8.674 0c-1.008 0-1.787-.331-2.338-.994-.55-.663-.826-1.591-.826-2.786s.276-2.123.826-2.786c.56-.663 1.335-.994 2.324-.994.672 0 1.223.154 1.652.462.43.299.738.686.924 1.162l-.644.322a1.832 1.832 0 0 0-.714-.924c-.326-.215-.732-.322-1.218-.322-.737 0-1.306.238-1.708.714-.392.467-.588 1.087-.588 1.862v1.008c0 .775.196 1.4.588 1.876.402.467.976.7 1.722.7.514 0 .943-.117 1.288-.35.346-.233.612-.56.798-.98l.588.378a2.83 2.83 0 0 1-.966 1.19c-.438.308-1.008.462-1.708.462zm8.115 0c-.989 0-1.764-.331-2.324-.994-.551-.663-.826-1.591-.826-2.786s.275-2.123.826-2.786c.56-.663 1.335-.994 2.324-.994.989 0 1.759.331 2.31.994.56.663.84 1.591.84 2.786s-.28 2.123-.84 2.786c-.551.663-1.321.994-2.31.994zm0-.7c.709 0 1.269-.224 1.68-.672.411-.448.616-1.101.616-1.96v-.896c0-.859-.205-1.512-.616-1.96-.411-.448-.971-.672-1.68-.672s-1.269.224-1.68.672c-.411.448-.616 1.101-.616 1.96v.896c0 .859.205 1.512.616 1.96.411.448.971.672 1.68.672zm8.422.532c-.392 0-.681-.103-.868-.308-.177-.215-.266-.499-.266-.854v-5.376h-2.562v-.686h2.03c.206 0 .35-.042.434-.126.084-.084.126-.229.126-.434v-1.988h.77v2.548h3.444v.686h-3.444v5.852h3.444V119h-3.108zm8.395 0c-.392 0-.681-.103-.868-.308-.177-.215-.266-.499-.266-.854v-5.376h-2.562v-.686h2.03c.205 0 .35-.042.434-.126.084-.084.126-.229.126-.434v-1.988h.77v2.548h3.444v.686h-3.444v5.852h3.444V119h-3.108zm19.183-9.772v7.196c0 .429-.07.812-.21 1.148a2.488 2.488 0 0 1-.56.868 2.58 2.58 0 0 1-.882.546 3.285 3.285 0 0 1-1.12.182c-.719 0-1.316-.177-1.792-.532-.467-.364-.765-.873-.896-1.526l.798-.182c.103.439.299.803.588 1.092.299.28.737.42 1.316.42.616 0 1.087-.182 1.414-.546.336-.364.504-.901.504-1.61v-6.328h-3.696v-.728h4.536zm7.849 8.652h-.056c-.14.336-.378.635-.714.896-.327.261-.794.392-1.4.392-.784 0-1.396-.233-1.834-.7-.43-.476-.644-1.153-.644-2.03v-4.662h.798v4.522c0 .747.158 1.293.476 1.638.326.345.798.518 1.414.518.252 0 .494-.033.728-.098a1.88 1.88 0 0 0 .616-.294 1.51 1.51 0 0 0 .448-.49c.112-.205.168-.443.168-.714v-5.082h.798V119h-.798v-1.12zm6.672 1.288c-.728 0-1.363-.121-1.904-.364a4.231 4.231 0 0 1-1.386-1.05l.546-.476c.355.411.751.719 1.19.924.439.196.961.294 1.568.294.635 0 1.148-.121 1.54-.364.401-.243.602-.616.602-1.12 0-.224-.042-.406-.126-.546a.934.934 0 0 0-.322-.364 1.568 1.568 0 0 0-.49-.21 3.783 3.783 0 0 0-.616-.126l-1.12-.154a9.673 9.673 0 0 1-.854-.154 2.987 2.987 0 0 1-.77-.322 1.782 1.782 0 0 1-.56-.56c-.14-.233-.21-.532-.21-.896 0-.355.07-.663.21-.924a1.77 1.77 0 0 1 .588-.644 2.8 2.8 0 0 1 .882-.378 4.666 4.666 0 0 1 1.106-.126c.672 0 1.237.112 1.694.336.467.215.859.485 1.176.812l-.532.504a3.259 3.259 0 0 0-.364-.336 1.945 1.945 0 0 0-.49-.322 2.88 2.88 0 0 0-.658-.224 3.486 3.486 0 0 0-.868-.098c-.616 0-1.097.112-1.442.336-.336.224-.504.56-.504 1.008 0 .224.037.411.112.56.084.14.196.257.336.35.14.093.303.168.49.224.187.047.387.084.602.112l1.134.168c.28.047.56.107.84.182.289.065.546.168.77.308.233.14.42.327.56.56.14.224.21.518.21.882a1.944 1.944 0 0 1-.826 1.638c-.252.187-.56.327-.924.42-.364.093-.761.14-1.19.14zm8.269-.168c-.392 0-.682-.103-.868-.308-.178-.215-.266-.499-.266-.854v-5.376h-2.562v-.686h2.03c.205 0 .35-.042.434-.126.084-.084.126-.229.126-.434v-1.988h.77v2.548h3.444v.686h-3.444v5.852h3.444V119h-3.108zM35.218 137.314h2.548v-5.852h-2.688v-.686h2.688v-1.974c0-.355.089-.635.266-.84.187-.215.476-.322.868-.322h2.66v.686h-2.996v2.45h2.996v.686h-2.996v5.852h2.674V138h-6.02v-.686zm11.824-8.47c-.252 0-.434-.051-.546-.154a.58.58 0 0 1-.154-.406v-.182c0-.159.052-.289.154-.392.112-.112.294-.168.546-.168.252 0 .43.056.532.168a.508.508 0 0 1 .169.392v.182a.553.553 0 0 1-.169.406c-.102.103-.28.154-.532.154zm-3.108 8.47h2.717v-5.852h-2.717v-.686h3.515v6.538h2.534V138h-6.048v-.686zm8.381.686v-7.224h.798v1.12h.056c.14-.336.373-.635.7-.896.336-.261.807-.392 1.414-.392.784 0 1.39.238 1.82.714.439.467.658 1.139.658 2.016V138h-.798v-4.522c0-.747-.163-1.293-.49-1.638-.317-.345-.784-.518-1.4-.518a2.7 2.7 0 0 0-.728.098 2.038 2.038 0 0 0-.63.294 1.525 1.525 0 0 0-.434.504 1.387 1.387 0 0 0-.168.7V138h-.798zm11.517-9.156c-.252 0-.434-.051-.546-.154a.579.579 0 0 1-.154-.406v-.182a.53.53 0 0 1 .154-.392c.112-.112.294-.168.546-.168.252 0 .429.056.532.168a.508.508 0 0 1 .168.392v.182a.553.553 0 0 1-.168.406c-.103.103-.28.154-.532.154zm-3.108 8.47h2.716v-5.852h-2.716v-.686h3.514v6.538h2.534V138h-6.048v-.686zm11.208.854c-.728 0-1.362-.121-1.904-.364a4.231 4.231 0 0 1-1.386-1.05l.546-.476a3.57 3.57 0 0 0 1.19.924c.439.196.962.294 1.568.294.635 0 1.148-.121 1.54-.364.401-.243.602-.616.602-1.12 0-.224-.042-.406-.126-.546a.93.93 0 0 0-.322-.364 1.57 1.57 0 0 0-.49-.21 3.774 3.774 0 0 0-.616-.126l-1.12-.154a9.7 9.7 0 0 1-.854-.154 2.993 2.993 0 0 1-.77-.322 1.786 1.786 0 0 1-.56-.56c-.14-.233-.21-.532-.21-.896 0-.355.07-.663.21-.924a1.77 1.77 0 0 1 .588-.644 2.8 2.8 0 0 1 .882-.378 4.669 4.669 0 0 1 1.106-.126c.672 0 1.237.112 1.694.336.467.215.859.485 1.176.812l-.532.504a3.224 3.224 0 0 0-.364-.336 1.938 1.938 0 0 0-.49-.322 2.873 2.873 0 0 0-.658-.224 3.488 3.488 0 0 0-.868-.098c-.616 0-1.096.112-1.442.336-.336.224-.504.56-.504 1.008 0 .224.038.411.112.56.084.14.196.257.336.35.14.093.303.168.49.224.187.047.388.084.602.112l1.134.168c.28.047.56.107.84.182.29.065.546.168.77.308.233.14.42.327.56.56.14.224.21.518.21.882s-.075.681-.224.952a1.92 1.92 0 0 1-.602.686c-.252.187-.56.327-.924.42-.364.093-.76.14-1.19.14zM77.5 127.64h.798v4.256h.056c.14-.336.373-.635.7-.896.336-.261.807-.392 1.414-.392.784 0 1.39.238 1.82.714.438.467.658 1.139.658 2.016V138h-.798v-4.522c0-.747-.164-1.293-.49-1.638-.318-.345-.784-.518-1.4-.518a2.7 2.7 0 0 0-.728.098 2.038 2.038 0 0 0-.63.294 1.525 1.525 0 0 0-.434.504 1.387 1.387 0 0 0-.168.7V138h-.798v-10.36zm11.18 10.528c-1.008 0-1.801-.327-2.38-.98-.57-.663-.854-1.591-.854-2.786 0-.597.075-1.129.224-1.596.15-.476.36-.873.63-1.19.28-.327.616-.574 1.008-.742a3.128 3.128 0 0 1 1.302-.266c.486 0 .92.089 1.302.266.383.168.705.411.966.728.27.317.476.695.616 1.134.14.439.21.924.21 1.456v.35h-5.418v.35c0 .775.21 1.4.63 1.876.42.467 1.008.7 1.764.7.532 0 .985-.121 1.358-.364.383-.243.677-.602.882-1.078l.602.378a2.777 2.777 0 0 1-1.05 1.288c-.485.317-1.083.476-1.792.476zm-.07-6.888c-.355 0-.676.065-.966.196-.28.121-.522.294-.728.518-.196.224-.35.495-.462.812a3.134 3.134 0 0 0-.168 1.05v.084h4.564v-.112c0-.784-.2-1.405-.602-1.862-.392-.457-.938-.686-1.638-.686zm10.257 5.572h-.042a2.505 2.505 0 0 1-.868.952c-.364.243-.822.364-1.372.364-.906 0-1.61-.322-2.114-.966-.504-.653-.756-1.591-.756-2.814s.252-2.156.756-2.8c.504-.653 1.208-.98 2.114-.98.55 0 1.008.121 1.372.364.373.243.662.56.868.952h.042v-4.284h.798V138h-.798v-1.148zm-2.016.602c.27 0 .527-.037.77-.112.242-.075.457-.182.644-.322.186-.14.331-.313.434-.518.112-.205.168-.434.168-.686v-2.856c0-.252-.056-.481-.168-.686a1.453 1.453 0 0 0-.434-.518 2.091 2.091 0 0 0-.644-.322 2.593 2.593 0 0 0-.77-.112c-.728 0-1.293.229-1.694.686-.392.457-.588 1.083-.588 1.876v1.008c0 .793.196 1.419.588 1.876.401.457.966.686 1.694.686zm13.163-6.678h.714l1.022 6.524h.098l1.456-6.524h.924l1.456 6.524h.098l1.008-6.524h.7L116.285 138h-1.078l-1.4-6.398h-.084L112.295 138h-1.078l-1.204-7.224zm9.024 6.538h2.268v-5.852h-2.268v-.686h3.066v1.652h.056c.159-.504.43-.905.812-1.204.392-.299.906-.448 1.54-.448h1.246v.784h-1.484c-.653 0-1.18.196-1.582.588-.392.383-.588.901-.588 1.554v3.612h2.94V138h-6.006v-.686zm11.951-8.47c-.252 0-.434-.051-.546-.154a.577.577 0 0 1-.154-.406v-.182a.53.53 0 0 1 .154-.392c.112-.112.294-.168.546-.168.252 0 .429.056.532.168a.508.508 0 0 1 .168.392v.182a.553.553 0 0 1-.168.406c-.103.103-.28.154-.532.154zm-3.108 8.47h2.716v-5.852h-2.716v-.686h3.514v6.538h2.534V138h-6.048v-.686zm11.082.686c-.392 0-.681-.103-.868-.308-.177-.215-.266-.499-.266-.854v-5.376h-2.562v-.686h2.03c.206 0 .35-.042.434-.126.084-.084.126-.229.126-.434v-1.988h.77v2.548h3.444v.686h-3.444v5.852h3.444V138h-3.108zm8.815-9.156c-.252 0-.434-.051-.546-.154a.577.577 0 0 1-.154-.406v-.182a.53.53 0 0 1 .154-.392c.112-.112.294-.168.546-.168.252 0 .429.056.532.168a.508.508 0 0 1 .168.392v.182a.553.553 0 0 1-.168.406c-.103.103-.28.154-.532.154zm-3.108 8.47h2.716v-5.852h-2.716v-.686h3.514v6.538h2.534V138h-6.048v-.686zm8.38.686v-7.224h.798v1.12h.056c.14-.336.374-.635.7-.896.336-.261.808-.392 1.414-.392.784 0 1.391.238 1.82.714.439.467.658 1.139.658 2.016V138h-.798v-4.522c0-.747-.163-1.293-.49-1.638-.317-.345-.784-.518-1.4-.518-.252 0-.494.033-.728.098a2.047 2.047 0 0 0-.63.294 1.53 1.53 0 0 0-.434.504 1.387 1.387 0 0 0-.168.7V138h-.798zm14.625.854c0 .728-.299 1.26-.896 1.596-.597.345-1.475.518-2.632.518-1.12 0-1.927-.159-2.422-.476-.495-.317-.742-.761-.742-1.33 0-.411.112-.737.336-.98.224-.233.537-.411.938-.532v-.112c-.457-.177-.686-.504-.686-.98 0-.355.121-.625.364-.812.243-.196.541-.341.896-.434v-.056a2.24 2.24 0 0 1-1.008-.84c-.233-.373-.35-.821-.35-1.344 0-.364.061-.695.182-.994a2.34 2.34 0 0 1 .532-.784c.233-.224.513-.392.84-.504a3.127 3.127 0 0 1 1.092-.182c.579 0 1.073.121 1.484.364v-.294c0-.224.051-.401.154-.532.112-.14.289-.21.532-.21h1.414v.7h-1.652v.658c.233.215.411.471.532.77.131.299.196.635.196 1.008 0 .364-.065.695-.196.994-.121.299-.299.56-.532.784a2.503 2.503 0 0 1-.84.504 3.355 3.355 0 0 1-1.092.168c-.131 0-.252-.005-.364-.014a2.843 2.843 0 0 1-.364-.056c-.299.075-.56.187-.784.336a.69.69 0 0 0-.336.602c0 .42.392.63 1.176.63h1.722c.877 0 1.512.168 1.904.504.401.327.602.77.602 1.33zm-.756.028a.997.997 0 0 0-.392-.826c-.252-.196-.705-.294-1.358-.294h-2.366c-.327.103-.583.252-.77.448-.177.205-.266.471-.266.798 0 .383.154.695.462.938.317.252.793.378 1.428.378h.938c.719 0 1.283-.121 1.694-.364.42-.233.63-.593.63-1.078zm-2.8-3.99c.607 0 1.059-.149 1.358-.448.308-.299.462-.681.462-1.148v-.462c0-.476-.154-.859-.462-1.148-.299-.299-.751-.448-1.358-.448-.597 0-1.05.149-1.358.448-.299.289-.448.672-.448 1.148v.462c0 .467.154.849.462 1.148.308.299.756.448 1.344.448zM180.935 138c-.392 0-.681-.103-.868-.308-.177-.215-.266-.499-.266-.854v-5.376h-2.562v-.686h2.03c.205 0 .35-.042.434-.126.084-.084.126-.229.126-.434v-1.988h.77v2.548h3.444v.686h-3.444v5.852h3.444V138h-3.108zm8.479.168c-1.008 0-1.802-.327-2.38-.98-.57-.663-.854-1.591-.854-2.786 0-.597.074-1.129.224-1.596.149-.476.359-.873.63-1.19.28-.327.616-.574 1.008-.742a3.128 3.128 0 0 1 1.302-.266c.485 0 .919.089 1.302.266.382.168.704.411.966.728.27.317.476.695.616 1.134.14.439.21.924.21 1.456v.35h-5.418v.35c0 .775.21 1.4.63 1.876.42.467 1.008.7 1.764.7.532 0 .984-.121 1.358-.364.382-.243.676-.602.882-1.078l.602.378a2.78 2.78 0 0 1-1.05 1.288c-.486.317-1.083.476-1.792.476zm-.07-6.888c-.355 0-.677.065-.966.196-.28.121-.523.294-.728.518-.196.224-.35.495-.462.812a3.134 3.134 0 0 0-.168 1.05v.084h4.564v-.112c0-.784-.201-1.405-.602-1.862-.392-.457-.938-.686-1.638-.686zm8.506 6.888c-.728 0-1.363-.121-1.904-.364a4.231 4.231 0 0 1-1.386-1.05l.546-.476c.355.411.751.719 1.19.924.439.196.961.294 1.568.294.635 0 1.148-.121 1.54-.364.401-.243.602-.616.602-1.12 0-.224-.042-.406-.126-.546a.934.934 0 0 0-.322-.364 1.568 1.568 0 0 0-.49-.21 3.783 3.783 0 0 0-.616-.126l-1.12-.154a9.673 9.673 0 0 1-.854-.154 2.987 2.987 0 0 1-.77-.322 1.782 1.782 0 0 1-.56-.56c-.14-.233-.21-.532-.21-.896 0-.355.07-.663.21-.924a1.77 1.77 0 0 1 .588-.644 2.8 2.8 0 0 1 .882-.378 4.666 4.666 0 0 1 1.106-.126c.672 0 1.237.112 1.694.336.467.215.859.485 1.176.812l-.532.504a3.259 3.259 0 0 0-.364-.336 1.945 1.945 0 0 0-.49-.322 2.88 2.88 0 0 0-.658-.224 3.486 3.486 0 0 0-.868-.098c-.616 0-1.097.112-1.442.336-.336.224-.504.56-.504 1.008 0 .224.037.411.112.56.084.14.196.257.336.35.14.093.303.168.49.224.187.047.387.084.602.112l1.134.168c.28.047.56.107.84.182.289.065.546.168.77.308.233.14.42.327.56.56.14.224.21.518.21.882a1.944 1.944 0 0 1-.826 1.638c-.252.187-.56.327-.924.42-.364.093-.761.14-1.19.14zm8.269-.168c-.392 0-.682-.103-.868-.308-.178-.215-.266-.499-.266-.854v-5.376h-2.562v-.686h2.03c.205 0 .35-.042.434-.126.084-.084.126-.229.126-.434v-1.988h.77v2.548h3.444v.686h-3.444v5.852h3.444V138h-3.108zm8.52.168c-.728 0-1.363-.121-1.904-.364a4.231 4.231 0 0 1-1.386-1.05l.546-.476c.355.411.751.719 1.19.924.439.196.961.294 1.568.294.635 0 1.148-.121 1.54-.364.401-.243.602-.616.602-1.12 0-.224-.042-.406-.126-.546a.934.934 0 0 0-.322-.364 1.568 1.568 0 0 0-.49-.21 3.783 3.783 0 0 0-.616-.126l-1.12-.154a9.673 9.673 0 0 1-.854-.154 2.987 2.987 0 0 1-.77-.322 1.782 1.782 0 0 1-.56-.56c-.14-.233-.21-.532-.21-.896 0-.355.07-.663.21-.924a1.77 1.77 0 0 1 .588-.644 2.8 2.8 0 0 1 .882-.378 4.666 4.666 0 0 1 1.106-.126c.672 0 1.237.112 1.694.336.467.215.859.485 1.176.812l-.532.504a3.259 3.259 0 0 0-.364-.336 1.945 1.945 0 0 0-.49-.322 2.88 2.88 0 0 0-.658-.224 3.486 3.486 0 0 0-.868-.098c-.616 0-1.097.112-1.442.336-.336.224-.504.56-.504 1.008 0 .224.037.411.112.56.084.14.196.257.336.35.14.093.303.168.49.224.187.047.387.084.602.112l1.134.168c.28.047.56.107.84.182.289.065.546.168.77.308.233.14.42.327.56.56.14.224.21.518.21.882a1.944 1.944 0 0 1-.826 1.638c-.252.187-.56.327-.924.42-.364.093-.761.14-1.19.14zm13.653-.854h2.548v-5.852h-2.688v-.686h2.688v-1.974c0-.355.089-.635.266-.84.187-.215.476-.322.868-.322h2.66v.686h-2.996v2.45h2.996v.686h-2.996v5.852h2.674V138h-6.02v-.686zm11.377.854c-.99 0-1.764-.331-2.324-.994-.551-.663-.826-1.591-.826-2.786s.275-2.123.826-2.786c.56-.663 1.334-.994 2.324-.994.989 0 1.759.331 2.31.994.56.663.84 1.591.84 2.786s-.28 2.123-.84 2.786c-.551.663-1.321.994-2.31.994zm0-.7c.709 0 1.269-.224 1.68-.672.41-.448.616-1.101.616-1.96v-.896c0-.859-.206-1.512-.616-1.96-.411-.448-.971-.672-1.68-.672-.71 0-1.27.224-1.68.672-.411.448-.616 1.101-.616 1.96v.896c0 .859.205 1.512.616 1.96.41.448.97.672 1.68.672zm5.286-.154h2.268v-5.852h-2.268v-.686h3.066v1.652h.056c.159-.504.43-.905.812-1.204.392-.299.906-.448 1.54-.448h1.246v.784h-1.484c-.653 0-1.18.196-1.582.588-.392.383-.588.901-.588 1.554v3.612h2.94V138h-6.006v-.686zm-206.307 10.53c-.252 0-.434-.051-.546-.154a.579.579 0 0 1-.154-.406v-.182a.53.53 0 0 1 .154-.392c.112-.112.294-.168.546-.168.252 0 .43.056.532.168a.508.508 0 0 1 .168.392v.182a.553.553 0 0 1-.168.406c-.103.103-.28.154-.532.154zm-3.108 8.47h2.716v-5.852H35.54v-.686h3.514v6.538h2.534V157H35.54v-.686zm11.083.686c-.392 0-.682-.103-.868-.308-.178-.215-.267-.499-.267-.854v-5.376h-2.562v-.686h2.03c.206 0 .35-.042.434-.126.084-.084.127-.229.127-.434v-1.988h.77v2.548h3.444v.686h-3.445v5.852h3.444V157h-3.107zm7.904-1.582h1.344l-1.414 3.724h-.672l.742-3.724zm17.531 1.75c-1.008 0-1.787-.331-2.338-.994-.55-.663-.826-1.591-.826-2.786s.275-2.123.826-2.786c.56-.663 1.335-.994 2.324-.994.672 0 1.223.154 1.652.462.43.299.737.686.924 1.162l-.644.322a1.835 1.835 0 0 0-.714-.924c-.326-.215-.733-.322-1.218-.322-.737 0-1.306.238-1.708.714-.392.467-.588 1.087-.588 1.862v1.008c0 .775.196 1.4.588 1.876.401.467.975.7 1.722.7.513 0 .943-.117 1.288-.35a2.25 2.25 0 0 0 .798-.98l.588.378a2.835 2.835 0 0 1-.966 1.19c-.439.308-1.008.462-1.708.462zm10.62-.168c-.326 0-.56-.079-.7-.238-.14-.159-.219-.373-.237-.644v-.252h-.07a2.06 2.06 0 0 1-.784.938c-.364.243-.859.364-1.484.364-.756 0-1.354-.182-1.792-.546-.43-.373-.644-.896-.644-1.568 0-.317.051-.602.154-.854.112-.261.284-.481.518-.658.242-.177.55-.313.924-.406.373-.103.83-.154 1.372-.154h1.764v-.882c0-.607-.168-1.059-.504-1.358-.327-.299-.784-.448-1.372-.448-.99 0-1.68.397-2.072 1.19l-.546-.392c.186-.42.499-.77.938-1.05.448-.289 1.022-.434 1.722-.434.821 0 1.465.215 1.932.644.466.42.7 1.008.7 1.764v4.284h1.078v.7h-.896zm-3.15-.504c.309 0 .593-.037.855-.112.261-.075.49-.177.686-.308.196-.14.35-.308.462-.504.112-.196.168-.415.168-.658v-1.33h-1.764c-.756 0-1.302.117-1.638.35-.327.224-.49.532-.49.924v.364c0 .42.154.737.462.952.317.215.737.322 1.26.322zm6.365.504v-7.224h.798v1.12h.056c.14-.336.374-.635.7-.896.336-.261.807-.392 1.414-.392.784 0 1.39.238 1.82.714.439.467.658 1.139.658 2.016V157h-.798v-4.522c0-.747-.163-1.293-.49-1.638-.317-.345-.784-.518-1.4-.518a2.7 2.7 0 0 0-.728.098 2.04 2.04 0 0 0-.63.294 1.526 1.526 0 0 0-.434.504 1.387 1.387 0 0 0-.168.7V157h-.798zm21.955-7.224h.798l-3.766 9.184c-.121.289-.275.499-.462.63-.177.14-.457.21-.84.21h-1.204v-.686h1.638l.952-2.31-2.898-7.028h.826l2.45 6.062h.056l2.45-6.062zm5.903 7.392c-.99 0-1.764-.331-2.324-.994-.551-.663-.826-1.591-.826-2.786s.275-2.123.826-2.786c.56-.663 1.334-.994 2.324-.994.989 0 1.759.331 2.31.994.56.663.84 1.591.84 2.786s-.28 2.123-.84 2.786c-.551.663-1.321.994-2.31.994zm0-.7c.709 0 1.269-.224 1.68-.672.41-.448.616-1.101.616-1.96v-.896c0-.859-.206-1.512-.616-1.96-.411-.448-.971-.672-1.68-.672-.71 0-1.27.224-1.68.672-.411.448-.616 1.101-.616 1.96v.896c0 .859.205 1.512.616 1.96.41.448.97.672 1.68.672zm10.27-.588h-.056c-.14.336-.378.635-.714.896-.326.261-.793.392-1.4.392-.784 0-1.395-.233-1.834-.7-.429-.476-.644-1.153-.644-2.03v-4.662h.798v4.522c0 .747.159 1.293.476 1.638.327.345.798.518 1.414.518.252 0 .495-.033.728-.098a1.86 1.86 0 0 0 .616-.294 1.5 1.5 0 0 0 .448-.49c.112-.205.168-.443.168-.714v-5.082h.798V157h-.798v-1.12zm14.941 1.12c-.392 0-.681-.103-.868-.308-.177-.215-.266-.499-.266-.854v-5.376h-2.562v-.686h2.03c.206 0 .35-.042.434-.126.084-.084.126-.229.126-.434v-1.988h.77v2.548h3.444v.686h-3.444v5.852h3.444V157h-3.108zm10.873 0c-.327 0-.56-.079-.7-.238-.14-.159-.219-.373-.238-.644v-.252h-.07c-.159.383-.42.695-.784.938-.364.243-.859.364-1.484.364-.756 0-1.353-.182-1.792-.546-.429-.373-.644-.896-.644-1.568 0-.317.051-.602.154-.854.112-.261.285-.481.518-.658.243-.177.551-.313.924-.406.373-.103.831-.154 1.372-.154h1.764v-.882c0-.607-.168-1.059-.504-1.358-.327-.299-.784-.448-1.372-.448-.989 0-1.68.397-2.072 1.19l-.546-.392c.187-.42.499-.77.938-1.05.448-.289 1.022-.434 1.722-.434.821 0 1.465.215 1.932.644.467.42.7 1.008.7 1.764v4.284h1.078v.7h-.896zm-3.15-.504c.308 0 .593-.037.854-.112.261-.075.49-.177.686-.308.196-.14.35-.308.462-.504.112-.196.168-.415.168-.658v-1.33h-1.764c-.756 0-1.302.117-1.638.35a1.06 1.06 0 0 0-.49.924v.364c0 .42.154.737.462.952.317.215.737.322 1.26.322zm6.49-9.856h.798v6.832h.056l1.414-1.288 2.688-2.408h.994l-3.094 2.828 3.458 4.396h-.994l-3.08-3.92-1.442 1.274V157h-.798v-10.36zm11.055 10.528c-1.008 0-1.801-.327-2.38-.98-.569-.663-.854-1.591-.854-2.786 0-.597.075-1.129.224-1.596.149-.476.359-.873.63-1.19.28-.327.616-.574 1.008-.742a3.128 3.128 0 0 1 1.302-.266c.485 0 .919.089 1.302.266.383.168.705.411.966.728.271.317.476.695.616 1.134.14.439.21.924.21 1.456v.35h-5.418v.35c0 .775.21 1.4.63 1.876.42.467 1.008.7 1.764.7.532 0 .985-.121 1.358-.364.383-.243.677-.602.882-1.078l.602.378a2.78 2.78 0 0 1-1.05 1.288c-.485.317-1.083.476-1.792.476zm-.07-6.888c-.355 0-.677.065-.966.196-.28.121-.523.294-.728.518-.196.224-.35.495-.462.812a3.134 3.134 0 0 0-.168 1.05v.084h4.564v-.112c0-.784-.201-1.405-.602-1.862-.392-.457-.938-.686-1.638-.686zm19.253 6.72c-.327 0-.56-.079-.7-.238-.14-.159-.219-.373-.238-.644v-.252h-.07c-.159.383-.42.695-.784.938-.364.243-.859.364-1.484.364-.756 0-1.353-.182-1.792-.546-.429-.373-.644-.896-.644-1.568 0-.317.051-.602.154-.854.112-.261.285-.481.518-.658.243-.177.551-.313.924-.406.373-.103.831-.154 1.372-.154h1.764v-.882c0-.607-.168-1.059-.504-1.358-.327-.299-.784-.448-1.372-.448-.989 0-1.68.397-2.072 1.19l-.546-.392c.187-.42.499-.77.938-1.05.448-.289 1.022-.434 1.722-.434.821 0 1.465.215 1.932.644.467.42.7 1.008.7 1.764v4.284h1.078v.7h-.896zm-3.15-.504c.308 0 .593-.037.854-.112.261-.075.49-.177.686-.308.196-.14.35-.308.462-.504.112-.196.168-.415.168-.658v-1.33h-1.764c-.756 0-1.302.117-1.638.35a1.06 1.06 0 0 0-.49.924v.364c0 .42.154.737.462.952.317.215.737.322 1.26.322zm14.409-.182h2.632v-8.988h-2.632v-.686h3.43v9.674h2.618V157h-6.048v-.686zm11.419.854c-.99 0-1.764-.331-2.324-.994-.551-.663-.826-1.591-.826-2.786s.275-2.123.826-2.786c.56-.663 1.334-.994 2.324-.994.989 0 1.759.331 2.31.994.56.663.84 1.591.84 2.786s-.28 2.123-.84 2.786c-.551.663-1.321.994-2.31.994zm0-.7c.709 0 1.269-.224 1.68-.672.41-.448.616-1.101.616-1.96v-.896c0-.859-.206-1.512-.616-1.96-.411-.448-.971-.672-1.68-.672-.71 0-1.27.224-1.68.672-.411.448-.616 1.101-.616 1.96v.896c0 .859.205 1.512.616 1.96.41.448.97.672 1.68.672zm8.394.7c-.989 0-1.764-.331-2.324-.994-.551-.663-.826-1.591-.826-2.786s.275-2.123.826-2.786c.56-.663 1.335-.994 2.324-.994.989 0 1.759.331 2.31.994.56.663.84 1.591.84 2.786s-.28 2.123-.84 2.786c-.551.663-1.321.994-2.31.994zm0-.7c.709 0 1.269-.224 1.68-.672.411-.448.616-1.101.616-1.96v-.896c0-.859-.205-1.512-.616-1.96-.411-.448-.971-.672-1.68-.672s-1.269.224-1.68.672c-.411.448-.616 1.101-.616 1.96v.896c0 .859.205 1.512.616 1.96.411.448.971.672 1.68.672zm5.847-9.828h.798v6.832h.056l1.414-1.288 2.688-2.408h.994l-3.094 2.828 3.458 4.396h-.994l-3.08-3.92-1.442 1.274V157h-.798v-10.36zm10.242 7.56v-2.282c.85-.028 1.512-.219 1.988-.574.476-.364.714-.873.714-1.526v-.266c0-.56-.177-.994-.532-1.302-.354-.308-.84-.462-1.456-.462s-1.11.159-1.484.476c-.364.317-.62.742-.77 1.274l-.756-.266c.094-.317.224-.611.392-.882s.378-.504.63-.7c.252-.196.546-.35.882-.462a3.575 3.575 0 0 1 1.134-.168c.878 0 1.568.233 2.072.7.504.467.756 1.097.756 1.89 0 .429-.074.807-.224 1.134-.14.327-.336.611-.588.854a3.197 3.197 0 0 1-.882.574c-.336.14-.695.238-1.078.294v1.694h-.798zm.434 2.898c-.298 0-.513-.061-.644-.182a.645.645 0 0 1-.182-.476v-.196c0-.187.061-.341.182-.462.131-.131.346-.196.644-.196.29 0 .495.065.616.196a.6.6 0 0 1 .196.462v.196a.618.618 0 0 1-.196.476c-.121.121-.326.182-.616.182z" fill="#999"/><path d="M19.46 16.8v-2.652h-.096L17.6 18.456l-1.764-4.308h-.096V21h-.924v-8.376h1.296l1.476 3.696h.072l1.476-3.696h1.248V21h-.924v-4.2zm3.535 4.2v-8.376h5.16v.876h-4.152v2.82h4.008v.876h-4.008v2.928h4.152V21h-5.16zm8.792-7.092h-.084V21h-.912v-8.376h1.428l2.856 7.02h.084v-7.02h.912V21h-1.428l-2.856-7.092zM41.85 13.5V21h-1.008v-7.5h-2.796v-.876h6.6v.876H41.85zm4.82 7.5v-.804h2.087v-6.768H46.67v-.804h5.184v.804h-2.088v6.768h2.088V21H46.67zm10.507.144c-.512 0-.952-.096-1.32-.288a2.51 2.51 0 0 1-.912-.852c-.24-.368-.416-.82-.528-1.356a9.03 9.03 0 0 1-.168-1.836c0-.68.056-1.288.168-1.824.112-.544.288-1 .528-1.368a2.41 2.41 0 0 1 .912-.84c.368-.2.808-.3 1.32-.3s.952.1 1.32.3c.368.192.672.472.912.84s.416.824.528 1.368c.112.536.168 1.144.168 1.824 0 .688-.056 1.3-.168 1.836-.112.536-.288.988-.528 1.356a2.51 2.51 0 0 1-.912.852c-.368.192-.808.288-1.32.288zm0-.876c.336 0 .62-.064.852-.192.232-.136.424-.324.576-.564.152-.24.26-.528.324-.864a5.64 5.64 0 0 0 .108-1.152v-1.368c0-.416-.036-.796-.108-1.14a2.467 2.467 0 0 0-.324-.876 1.583 1.583 0 0 0-.576-.552c-.232-.136-.516-.204-.852-.204-.336 0-.62.068-.852.204a1.583 1.583 0 0 0-.576.552c-.152.24-.264.532-.336.876a6.25 6.25 0 0 0-.096 1.14v1.368c0 .424.032.808.096 1.152.072.336.184.624.336.864.152.24.344.428.576.564.232.128.516.192.852.192zm6.27-6.36h-.083V21h-.912v-8.376h1.428l2.856 7.02h.084v-7.02h.912V21h-1.428l-2.856-7.092zM70.488 21v-8.376h5.16v.876h-4.152v2.82h4.008v.876h-4.008v2.928h4.152V21h-5.16zm7.976-8.376h2.34c1.023 0 1.788.352 2.291 1.056.505.704.757 1.748.757 3.132 0 1.384-.252 2.428-.757 3.132-.503.704-1.267 1.056-2.291 1.056h-2.34v-8.376zm2.291 7.5c.672 0 1.176-.232 1.512-.696.344-.464.516-1.12.516-1.968v-1.296c0-.848-.171-1.504-.516-1.968-.336-.464-.84-.696-1.512-.696H79.47v6.624h1.284zM94.161 21v-.804h2.088v-6.768h-2.088v-.804h5.184v.804h-2.088v6.768h2.088V21h-5.184zm8.863-7.092h-.084V21h-.912v-8.376h1.428l2.856 7.02h.084v-7.02h.912V21h-1.428l-2.856-7.092zm17.751 7.236c-1.024 0-1.788-.372-2.292-1.116-.496-.744-.744-1.816-.744-3.216 0-1.4.248-2.472.744-3.216.504-.744 1.268-1.116 2.292-1.116.384 0 .716.052.996.156.28.104.52.244.72.42.2.176.368.376.504.6.136.216.256.436.36.66l-.864.396a3.43 3.43 0 0 0-.252-.516 1.685 1.685 0 0 0-.348-.432 1.345 1.345 0 0 0-.468-.3 1.715 1.715 0 0 0-.648-.108c-.664 0-1.16.252-1.488.756-.32.504-.48 1.176-.48 2.016v1.368c0 .84.16 1.512.48 2.016.328.504.824.756 1.488.756.256 0 .472-.036.648-.108.184-.072.34-.168.468-.288.136-.128.252-.272.348-.432.096-.168.18-.344.252-.528l.864.396a5.424 5.424 0 0 1-.36.672 2.693 2.693 0 0 1-.504.588c-.2.176-.44.316-.72.42-.28.104-.612.156-.996.156zm7.639 0c-.512 0-.952-.096-1.32-.288a2.51 2.51 0 0 1-.912-.852c-.24-.368-.416-.82-.528-1.356a9.03 9.03 0 0 1-.168-1.836c0-.68.056-1.288.168-1.824.112-.544.288-1 .528-1.368a2.41 2.41 0 0 1 .912-.84c.368-.2.808-.3 1.32-.3s.952.1 1.32.3c.368.192.672.472.912.84s.416.824.528 1.368c.112.536.168 1.144.168 1.824 0 .688-.056 1.3-.168 1.836-.112.536-.288.988-.528 1.356a2.51 2.51 0 0 1-.912.852c-.368.192-.808.288-1.32.288zm0-.876c.336 0 .62-.064.852-.192.232-.136.424-.324.576-.564.152-.24.26-.528.324-.864a5.64 5.64 0 0 0 .108-1.152v-1.368c0-.416-.036-.796-.108-1.14a2.467 2.467 0 0 0-.324-.876 1.583 1.583 0 0 0-.576-.552c-.232-.136-.516-.204-.852-.204-.336 0-.62.068-.852.204a1.583 1.583 0 0 0-.576.552c-.152.24-.264.532-.336.876a6.25 6.25 0 0 0-.096 1.14v1.368c0 .424.032.808.096 1.152.072.336.184.624.336.864.152.24.344.428.576.564.232.128.516.192.852.192zm9.776-3.468v-2.652h-.096l-1.764 4.308-1.764-4.308h-.096V21h-.924v-8.376h1.296l1.476 3.696h.072l1.476-3.696h1.248V21h-.924v-4.2zm7.915 0v-2.652h-.096l-1.764 4.308-1.764-4.308h-.096V21h-.924v-8.376h1.296l1.476 3.696h.072l1.476-3.696h1.248V21h-.924v-4.2zm3.535 4.2v-8.376h5.16v.876h-4.152v2.82h4.008v.876h-4.008v2.928h4.152V21h-5.16zm8.792-7.092h-.084V21h-.912v-8.376h1.428l2.856 7.02h.084v-7.02h.912V21h-1.428l-2.856-7.092zm10.063-.408V21h-1.008v-7.5h-2.796v-.876h6.6v.876h-2.796zm13.503 4.908h-1.584v-.792h1.728l.276-1.608h-1.572v-.792h1.716l.456-2.592h.876L182.418 21h-.876l.456-2.592zm3.228-5.784h.876l-.456 2.592h1.584v.792h-1.728l-.276 1.608h1.572v.792h-1.716L184.626 21h-.876l1.476-8.376zM194.581 21h-5.592v-1.032l2.796-2.52a6.474 6.474 0 0 0 1.008-1.128c.264-.392.396-.804.396-1.236v-.144c0-.504-.132-.892-.396-1.164-.264-.28-.656-.42-1.176-.42-.512 0-.908.132-1.188.396-.272.256-.476.6-.612 1.032l-.9-.336c.08-.248.188-.488.324-.72.144-.24.324-.452.54-.636.216-.184.476-.332.78-.444a3.19 3.19 0 0 1 1.08-.168c.416 0 .784.06 1.104.18.328.12.6.288.816.504.224.216.392.472.504.768.12.296.18.62.18.972 0 .32-.048.62-.144.9-.088.28-.216.548-.384.804a4.96 4.96 0 0 1-.588.756c-.224.24-.476.48-.756.72l-2.34 2.04h4.548V21z" fill="#fff"/><path fill="#262626" d="M0 32h292v1H0z"/><defs><linearGradient id="a" x1="146" y1="0" x2="146" y2="194" gradientUnits="userSpaceOnUse"><stop stop-color="#1A1A1A"/><stop offset="1" stop-color="#1A1A1A" stop-opacity=".7"/></linearGradient></defs></svg>