<?xml version="1.0" encoding="utf-8"?>
<!-- Generator: Adobe Illustrator 24.2.1, SVG Export Plug-In . SVG Version: 6.00 Build 0)  -->
<!DOCTYPE svg PUBLIC "-//W3C//DTD SVG 1.1//EN" "http://www.w3.org/Graphics/SVG/1.1/DTD/svg11.dtd" [
	<!ENTITY ns_extend "http://ns.adobe.com/Extensibility/1.0/">
	<!ENTITY ns_ai "http://ns.adobe.com/AdobeIllustrator/10.0/">
	<!ENTITY ns_graphs "http://ns.adobe.com/Graphs/1.0/">
	<!ENTITY ns_vars "http://ns.adobe.com/Variables/1.0/">
	<!ENTITY ns_imrep "http://ns.adobe.com/ImageReplacement/1.0/">
	<!ENTITY ns_sfw "http://ns.adobe.com/SaveForWeb/1.0/">
	<!ENTITY ns_custom "http://ns.adobe.com/GenericCustomNamespace/1.0/">
	<!ENTITY ns_adobe_xpath "http://ns.adobe.com/XPath/1.0/">
]>
<svg version="1.1" id="Layer_1" xmlns:x="&ns_extend;" xmlns:i="&ns_ai;" xmlns:graph="&ns_graphs;"
	 xmlns="http://www.w3.org/2000/svg" xmlns:xlink="http://www.w3.org/1999/xlink" x="0px" y="0px" width="292px" height="194px"
	 viewBox="0 0 292 194" style="enable-background:new 0 0 292 194;" xml:space="preserve">
<style type="text/css">
	.st0{fill:url(#SVGID_1_);}
	.st1{fill:#FFFFFF;}
	.st2{fill:#FFE14D;}
	.st3{fill:#E300BD;}
	.st4{fill:#999999;}
	.st5{fill:#262626;}
</style>
<metadata>
	<sfw  xmlns="&ns_sfw;">
		<slices></slices>
		<sliceSourceBounds  bottomLeftOrigin="true" height="194" width="292" x="0" y="0"></sliceSourceBounds>
	</sfw>
</metadata>
<linearGradient id="SVGID_1_" gradientUnits="userSpaceOnUse" x1="146" y1="196" x2="146" y2="2" gradientTransform="matrix(1 0 0 -1 0 196)">
	<stop  offset="0" style="stop-color:#1A1A1A"/>
	<stop  offset="1" style="stop-color:#1A1A1A;stop-opacity:0.7"/>
</linearGradient>
<path class="st0" d="M10,0h272c5.5,0,10,4.5,10,10v174c0,5.5-4.5,10-10,10H10c-5.5,0-10-4.5-10-10V10C0,4.5,4.5,0,10,0z"/>
<path class="st1" d="M18.5,63.9c-0.4,0-0.7-0.1-0.9-0.3c-0.2-0.2-0.3-0.5-0.3-0.8v-0.9c0-0.3,0-0.5,0.1-0.7c0.1-0.2,0.1-0.4,0.2-0.5
	c0.1-0.1,0.2-0.3,0.3-0.4c0.1-0.1,0.2-0.2,0.3-0.3c0.2-0.2,0.3-0.3,0.3-0.5c0.1-0.1,0.1-0.3,0.1-0.4c0-0.4-0.2-0.6-0.5-0.8
	c-0.3-0.2-0.8-0.3-1.4-0.3h-1.1v-0.9h1.1c0.6,0,1.1-0.1,1.4-0.2c0.3-0.2,0.5-0.4,0.5-0.8c0-0.1,0-0.3-0.1-0.4
	c-0.1-0.1-0.2-0.3-0.3-0.5c-0.1-0.1-0.2-0.2-0.3-0.3c-0.1-0.1-0.2-0.3-0.3-0.4c-0.1-0.1-0.1-0.3-0.2-0.5c0-0.2-0.1-0.4-0.1-0.7v-0.9
	c0-0.3,0.1-0.6,0.3-0.8c0.2-0.2,0.5-0.3,0.9-0.3h2.5v0.9h-2.7v1.1c0,0.4,0.1,0.7,0.2,0.9s0.2,0.4,0.4,0.6c0.2,0.2,0.3,0.4,0.4,0.6
	c0.1,0.2,0.2,0.5,0.2,0.8c0,0.4-0.1,0.7-0.4,1c-0.3,0.2-0.6,0.4-1.1,0.5v0.1c0.5,0.1,0.8,0.2,1.1,0.5c0.3,0.2,0.4,0.6,0.4,1
	c0,0.3-0.1,0.6-0.2,0.8c-0.1,0.2-0.3,0.4-0.4,0.6c-0.1,0.2-0.3,0.4-0.4,0.6s-0.2,0.5-0.2,0.9v1.1h2.7v0.9H18.5z"/>
<path class="st1" d="M17.9,165.4c0.4,0,0.7,0.1,0.9,0.3c0.2,0.2,0.3,0.5,0.3,0.8v0.9c0,0.3,0,0.5-0.1,0.7c0,0.2-0.1,0.4-0.2,0.5
	c-0.1,0.1-0.2,0.3-0.3,0.4c-0.1,0.1-0.2,0.2-0.3,0.3c-0.2,0.2-0.3,0.4-0.3,0.5c-0.1,0.1-0.1,0.3-0.1,0.4c0,0.4,0.2,0.6,0.5,0.8
	c0.3,0.2,0.8,0.2,1.4,0.2h1.1v0.9h-1.1c-0.6,0-1.1,0.1-1.4,0.3c-0.3,0.2-0.5,0.4-0.5,0.8c0,0.1,0,0.3,0.1,0.4
	c0.1,0.1,0.2,0.3,0.3,0.5c0.1,0.1,0.2,0.2,0.3,0.3c0.1,0.1,0.2,0.2,0.3,0.4s0.1,0.3,0.2,0.5c0.1,0.2,0.1,0.4,0.1,0.7v0.9
	c0,0.3-0.1,0.6-0.3,0.8c-0.2,0.2-0.5,0.3-0.9,0.3h-2.5v-0.9h2.7V176c0-0.4-0.1-0.7-0.2-0.9s-0.2-0.4-0.4-0.6
	c-0.2-0.2-0.3-0.4-0.4-0.6c-0.1-0.2-0.2-0.5-0.2-0.8c0-0.4,0.1-0.7,0.4-1c0.3-0.2,0.7-0.4,1.1-0.5v-0.1c-0.5-0.1-0.9-0.2-1.1-0.5
	c-0.3-0.2-0.4-0.6-0.4-1c0-0.3,0.1-0.6,0.2-0.8c0.1-0.2,0.3-0.4,0.4-0.6c0.1-0.2,0.3-0.4,0.4-0.6s0.2-0.5,0.2-0.9v-1.1h-2.7v-0.9
	H17.9z"/>
<path class="st2" d="M35.3,73.8h1.1V75h0.1c0.5-0.9,1.2-1.3,2.2-1.3c0.9,0,1.6,0.3,2.1,1c0.5,0.7,0.8,1.6,0.8,2.8s-0.3,2.1-0.8,2.8
	c-0.5,0.7-1.2,1-2.1,1c-1,0-1.8-0.4-2.2-1.3h-0.1v4h-1.1V73.8z M38.3,80.2c0.7,0,1.2-0.2,1.5-0.6c0.4-0.4,0.5-0.9,0.5-1.6v-1.2
	c0-0.7-0.2-1.2-0.5-1.6c-0.4-0.4-0.9-0.6-1.5-0.6c-0.3,0-0.5,0-0.7,0.1S37.2,74.9,37,75c-0.2,0.1-0.3,0.3-0.4,0.5
	c-0.1,0.2-0.1,0.4-0.1,0.6v2.6c0,0.2,0,0.5,0.1,0.6c0.1,0.2,0.2,0.3,0.4,0.5c0.2,0.1,0.4,0.2,0.6,0.3S38,80.2,38.3,80.2z M46.6,81.2
	c-0.5,0-1-0.1-1.4-0.3c-0.4-0.2-0.7-0.4-1-0.8c-0.3-0.3-0.5-0.7-0.6-1.2c-0.1-0.5-0.2-1-0.2-1.6c0-0.6,0.1-1.1,0.2-1.6
	c0.1-0.5,0.4-0.9,0.6-1.2c0.3-0.3,0.6-0.6,1-0.8c0.4-0.2,0.9-0.3,1.4-0.3c0.5,0,1,0.1,1.4,0.3c0.4,0.2,0.8,0.4,1,0.8
	c0.3,0.3,0.5,0.7,0.7,1.2c0.1,0.5,0.2,1,0.2,1.6c0,0.6-0.1,1.1-0.2,1.6c-0.1,0.5-0.4,0.9-0.7,1.2c-0.3,0.3-0.6,0.6-1,0.8
	C47.6,81.1,47.1,81.2,46.6,81.2z M46.6,80.2c0.6,0,1.1-0.2,1.5-0.6c0.4-0.4,0.6-1,0.6-1.7v-1c0-0.8-0.2-1.4-0.6-1.7
	c-0.4-0.4-0.9-0.6-1.5-0.6c-0.6,0-1.1,0.2-1.5,0.6c-0.4,0.4-0.6,1-0.6,1.7v1c0,0.8,0.2,1.4,0.6,1.7C45.5,80,46,80.2,46.6,80.2z
	 M55.1,81.2c-0.8,0-1.4-0.1-2-0.4c-0.5-0.3-1-0.6-1.4-1l0.8-0.7c0.3,0.4,0.7,0.6,1.1,0.8c0.4,0.2,0.9,0.3,1.5,0.3
	c0.6,0,1-0.1,1.4-0.3c0.4-0.2,0.5-0.5,0.5-1c0-0.2,0-0.3-0.1-0.5c-0.1-0.1-0.2-0.2-0.3-0.3c-0.1-0.1-0.3-0.1-0.4-0.2
	c-0.1,0-0.3-0.1-0.5-0.1l-1.1-0.2c-0.3,0-0.5-0.1-0.8-0.2c-0.3-0.1-0.6-0.2-0.8-0.3c-0.2-0.1-0.4-0.3-0.6-0.6
	c-0.2-0.2-0.2-0.6-0.2-1c0-0.4,0.1-0.7,0.2-0.9c0.1-0.3,0.4-0.5,0.6-0.7c0.3-0.2,0.6-0.3,0.9-0.4c0.4-0.1,0.7-0.1,1.2-0.1
	c0.7,0,1.2,0.1,1.7,0.3c0.5,0.2,0.9,0.5,1.2,0.9l-0.7,0.7c-0.1-0.1-0.2-0.2-0.3-0.3c-0.1-0.1-0.3-0.2-0.5-0.3
	c-0.2-0.1-0.4-0.2-0.6-0.2c-0.2-0.1-0.5-0.1-0.8-0.1c-0.6,0-1,0.1-1.3,0.3c-0.3,0.2-0.4,0.5-0.4,0.9c0,0.2,0,0.3,0.1,0.5
	c0.1,0.1,0.2,0.2,0.3,0.3c0.1,0.1,0.3,0.1,0.4,0.2c0.2,0,0.3,0.1,0.5,0.1l1.1,0.2c0.3,0,0.5,0.1,0.8,0.2c0.3,0.1,0.6,0.2,0.8,0.3
	c0.2,0.1,0.4,0.3,0.6,0.6c0.2,0.2,0.3,0.6,0.3,1c0,0.7-0.3,1.3-0.8,1.7C56.7,81,56,81.2,55.1,81.2z M63.7,81c-0.6,0-1-0.2-1.2-0.5
	c-0.3-0.3-0.4-0.7-0.4-1.2v-4.6h-2.4v-1h1.8c0.2,0,0.4,0,0.5-0.1c0.1-0.1,0.2-0.3,0.2-0.5v-1.9h1.1v2.5h3.3v1h-3.3V80h3.3v1H63.7z
	 M68.4,83.4v-1h6.7v1H68.4z M80.6,72.2c-0.3,0-0.6-0.1-0.7-0.2c-0.1-0.1-0.2-0.3-0.2-0.5v-0.2c0-0.2,0.1-0.4,0.2-0.5
	c0.1-0.1,0.4-0.2,0.7-0.2c0.3,0,0.6,0.1,0.7,0.2c0.1,0.1,0.2,0.3,0.2,0.5v0.2c0,0.2-0.1,0.4-0.2,0.5C81.2,72.1,80.9,72.2,80.6,72.2z
	 M77.5,80h2.6v-5.3h-2.6v-1h3.7V80h2.4v1h-6.2V80z M90.3,79.8L90.3,79.8c-0.5,0.9-1.3,1.3-2.3,1.3c-0.9,0-1.6-0.3-2.1-1
	c-0.5-0.7-0.7-1.6-0.7-2.8s0.2-2.1,0.7-2.8c0.5-0.7,1.2-1,2.1-1c1,0,1.8,0.4,2.2,1.3h0.1v-4.3h1.1V81h-1.1V79.8z M88.5,80.2
	c0.3,0,0.5,0,0.7-0.1c0.2-0.1,0.4-0.2,0.6-0.3c0.2-0.1,0.3-0.3,0.4-0.5c0.1-0.2,0.2-0.4,0.2-0.6v-2.6c0-0.2-0.1-0.5-0.2-0.6
	c-0.1-0.2-0.2-0.3-0.4-0.5c-0.2-0.1-0.4-0.2-0.6-0.3c-0.2-0.1-0.5-0.1-0.7-0.1c-0.7,0-1.2,0.2-1.5,0.6c-0.4,0.4-0.5,0.9-0.5,1.6V78
	c0,0.7,0.2,1.2,0.5,1.6C87.3,80,87.8,80.2,88.5,80.2z M40.9,100c-0.4,0-0.8-0.1-0.9-0.3s-0.3-0.5-0.4-0.8h-0.1
	c-0.2,0.4-0.4,0.8-0.8,1c-0.3,0.2-0.8,0.3-1.4,0.3c-0.8,0-1.4-0.2-1.8-0.6c-0.4-0.4-0.7-0.9-0.7-1.6c0-0.7,0.2-1.2,0.7-1.6
	c0.5-0.4,1.3-0.5,2.4-0.5h1.5v-0.7c0-0.5-0.1-0.9-0.4-1.2c-0.3-0.3-0.7-0.4-1.3-0.4c-0.5,0-0.9,0.1-1.2,0.3
	c-0.3,0.2-0.6,0.4-0.7,0.8l-0.8-0.6c0.1-0.2,0.2-0.4,0.4-0.5s0.4-0.3,0.6-0.5c0.2-0.1,0.5-0.2,0.8-0.3c0.3-0.1,0.6-0.1,1-0.1
	c0.8,0,1.5,0.2,2,0.6c0.5,0.4,0.8,1,0.8,1.8v4h1v1H40.9z M37.6,99.2c0.3,0,0.6,0,0.8-0.1c0.2-0.1,0.5-0.2,0.6-0.3
	c0.2-0.1,0.3-0.3,0.4-0.4c0.1-0.2,0.2-0.3,0.2-0.5v-1.2H38c-0.7,0-1.2,0.1-1.5,0.3s-0.5,0.5-0.5,0.8v0.3c0,0.4,0.1,0.7,0.4,0.9
	C36.8,99.1,37.1,99.2,37.6,99.2z M46.8,100.2c-0.5,0-1-0.1-1.4-0.3c-0.4-0.2-0.7-0.4-1-0.8c-0.3-0.3-0.5-0.7-0.6-1.2
	c-0.1-0.5-0.2-1-0.2-1.6s0.1-1.1,0.2-1.6c0.1-0.5,0.4-0.9,0.6-1.2c0.3-0.3,0.6-0.6,1-0.8c0.4-0.2,0.9-0.3,1.4-0.3
	c0.7,0,1.3,0.2,1.7,0.5c0.4,0.3,0.8,0.7,1,1.2l-0.9,0.5c-0.1-0.4-0.3-0.7-0.7-0.9c-0.3-0.2-0.7-0.3-1.1-0.3c-0.3,0-0.6,0.1-0.9,0.2
	c-0.3,0.1-0.5,0.3-0.6,0.4c-0.2,0.2-0.3,0.4-0.4,0.7c-0.1,0.3-0.1,0.6-0.1,0.9V97c0,0.3,0,0.6,0.1,0.9c0.1,0.3,0.2,0.5,0.4,0.7
	c0.2,0.2,0.4,0.3,0.7,0.5c0.3,0.1,0.6,0.2,0.9,0.2c0.5,0,0.9-0.1,1.2-0.3c0.3-0.2,0.6-0.5,0.8-0.9l0.8,0.5c-0.2,0.5-0.6,0.9-1,1.2
	C48.2,100,47.6,100.2,46.8,100.2z M55.3,100c-0.6,0-1-0.2-1.2-0.5c-0.3-0.3-0.4-0.7-0.4-1.2v-4.6h-2.4v-1h1.8c0.2,0,0.4,0,0.5-0.1
	c0.1-0.1,0.2-0.3,0.2-0.5v-1.9h1.1v2.5h3.3v1h-3.3V99h3.3v1H55.3z M63.4,100.2c-0.5,0-1-0.1-1.4-0.3c-0.4-0.2-0.7-0.4-1-0.8
	c-0.3-0.3-0.5-0.7-0.6-1.2c-0.1-0.5-0.2-1-0.2-1.6c0-0.6,0.1-1.1,0.2-1.6s0.4-0.9,0.6-1.2c0.3-0.3,0.6-0.6,1-0.8
	c0.4-0.2,0.9-0.3,1.4-0.3c0.5,0,1,0.1,1.4,0.3c0.4,0.2,0.8,0.4,1,0.8c0.3,0.3,0.5,0.7,0.7,1.2s0.2,1,0.2,1.6c0,0.6-0.1,1.1-0.2,1.6
	c-0.1,0.5-0.4,0.9-0.7,1.2c-0.3,0.3-0.6,0.6-1,0.8C64.3,100.1,63.9,100.2,63.4,100.2z M63.4,99.2c0.6,0,1.1-0.2,1.5-0.6
	s0.6-1,0.6-1.7v-1c0-0.8-0.2-1.4-0.6-1.7c-0.4-0.4-0.9-0.6-1.5-0.6c-0.6,0-1.1,0.2-1.5,0.6c-0.4,0.4-0.6,1-0.6,1.7v1
	c0,0.8,0.2,1.4,0.6,1.7C62.3,99,62.8,99.2,63.4,99.2z M68.7,99h2.1v-5.3h-2.1v-1h3.2v1.8H72c0.1-0.6,0.4-1,0.8-1.3
	c0.4-0.3,1-0.5,1.6-0.5h1v1.1H74c-0.6,0-1.2,0.2-1.6,0.6c-0.4,0.4-0.6,0.9-0.6,1.5V99h2.8v1h-6V99z M76.8,102.4v-1h6.7v1H76.8z
	 M89,91.2c-0.3,0-0.6-0.1-0.7-0.2c-0.1-0.1-0.2-0.3-0.2-0.5v-0.2c0-0.2,0.1-0.4,0.2-0.5c0.1-0.1,0.4-0.2,0.7-0.2
	c0.3,0,0.6,0.1,0.7,0.2c0.1,0.1,0.2,0.3,0.2,0.5v0.2c0,0.2-0.1,0.4-0.2,0.5C89.6,91.1,89.3,91.2,89,91.2z M85.9,99h2.6v-5.3h-2.6v-1
	h3.7V99H92v1h-6.2V99z M98.7,98.8L98.7,98.8c-0.5,0.9-1.3,1.3-2.3,1.3c-0.9,0-1.6-0.3-2.1-1c-0.5-0.7-0.7-1.6-0.7-2.8
	s0.2-2.1,0.7-2.8c0.5-0.7,1.2-1,2.1-1c1,0,1.8,0.4,2.2,1.3h0.1v-4.3h1.1V100h-1.1V98.8z M96.9,99.2c0.3,0,0.5,0,0.7-0.1
	s0.4-0.2,0.6-0.3c0.2-0.1,0.3-0.3,0.4-0.5c0.1-0.2,0.2-0.4,0.2-0.6v-2.6c0-0.2-0.1-0.5-0.2-0.6c-0.1-0.2-0.2-0.3-0.4-0.5
	c-0.2-0.1-0.4-0.2-0.6-0.3s-0.5-0.1-0.7-0.1c-0.7,0-1.2,0.2-1.5,0.6c-0.4,0.4-0.5,0.9-0.5,1.6V97c0,0.7,0.2,1.2,0.5,1.6
	C95.7,99,96.2,99.2,96.9,99.2z M38.5,119.2c-0.5,0-1-0.1-1.4-0.3c-0.4-0.2-0.7-0.4-1-0.8c-0.3-0.3-0.5-0.7-0.6-1.2
	c-0.1-0.5-0.2-1-0.2-1.6s0.1-1.1,0.2-1.6s0.4-0.9,0.6-1.2c0.3-0.3,0.6-0.6,1-0.8c0.4-0.2,0.9-0.3,1.4-0.3c0.7,0,1.3,0.2,1.7,0.5
	s0.8,0.7,1,1.2l-0.9,0.5c-0.1-0.4-0.3-0.7-0.7-0.9c-0.3-0.2-0.7-0.3-1.1-0.3c-0.3,0-0.6,0.1-0.9,0.2c-0.3,0.1-0.5,0.3-0.6,0.4
	s-0.3,0.4-0.4,0.7c-0.1,0.3-0.1,0.6-0.1,0.9v1.2c0,0.3,0,0.6,0.1,0.9c0.1,0.3,0.2,0.5,0.4,0.7s0.4,0.3,0.7,0.5
	c0.3,0.1,0.6,0.2,0.9,0.2c0.5,0,0.9-0.1,1.2-0.3c0.3-0.2,0.6-0.5,0.8-0.9l0.8,0.5c-0.2,0.5-0.6,0.9-1,1.2
	C39.8,119,39.2,119.2,38.5,119.2z M46.6,119.2c-0.5,0-1-0.1-1.4-0.3c-0.4-0.2-0.7-0.4-1-0.8c-0.3-0.3-0.5-0.7-0.6-1.2
	c-0.1-0.5-0.2-1-0.2-1.6c0-0.6,0.1-1.1,0.2-1.6c0.1-0.5,0.4-0.9,0.6-1.2c0.3-0.3,0.6-0.6,1-0.8c0.4-0.2,0.9-0.3,1.4-0.3
	c0.5,0,1,0.1,1.4,0.3c0.4,0.2,0.8,0.4,1,0.8c0.3,0.3,0.5,0.7,0.7,1.2c0.1,0.5,0.2,1,0.2,1.6c0,0.6-0.1,1.1-0.2,1.6
	c-0.1,0.5-0.4,0.9-0.7,1.2c-0.3,0.3-0.6,0.6-1,0.8C47.6,119.1,47.1,119.2,46.6,119.2z M46.6,118.2c0.6,0,1.1-0.2,1.5-0.6
	c0.4-0.4,0.6-1,0.6-1.7v-1c0-0.8-0.2-1.4-0.6-1.7c-0.4-0.4-0.9-0.6-1.5-0.6c-0.6,0-1.1,0.2-1.5,0.6c-0.4,0.4-0.6,1-0.6,1.7v1
	c0,0.8,0.2,1.4,0.6,1.7C45.5,118,46,118.2,46.6,118.2z M52.2,119v-7.2h1.1v1.2h0.1c0.1-0.2,0.2-0.3,0.3-0.5c0.1-0.2,0.2-0.3,0.4-0.4
	c0.2-0.1,0.4-0.2,0.6-0.3c0.2-0.1,0.5-0.1,0.8-0.1c0.8,0,1.4,0.2,1.8,0.7c0.5,0.5,0.7,1.2,0.7,2v4.6h-1.1v-4.4
	c0-0.7-0.1-1.2-0.4-1.5c-0.3-0.3-0.7-0.5-1.3-0.5c-0.2,0-0.4,0-0.7,0.1c-0.2,0.1-0.4,0.1-0.6,0.3c-0.2,0.1-0.3,0.3-0.4,0.4
	c-0.1,0.2-0.2,0.4-0.2,0.6v5H52.2z M63.7,119c-0.6,0-1-0.2-1.2-0.5c-0.3-0.3-0.4-0.7-0.4-1.2v-4.6h-2.4v-1h1.8c0.2,0,0.4,0,0.5-0.1
	c0.1-0.1,0.2-0.3,0.2-0.5v-1.9h1.1v2.5h3.3v1h-3.3v5.3h3.3v1H63.7z M71.9,119.2c-0.5,0-1-0.1-1.4-0.3c-0.4-0.2-0.8-0.4-1.1-0.8
	c-0.3-0.3-0.5-0.7-0.7-1.2c-0.2-0.5-0.2-1-0.2-1.6c0-0.6,0.1-1.1,0.2-1.6c0.2-0.5,0.4-0.9,0.7-1.2c0.3-0.3,0.6-0.6,1-0.8
	c0.4-0.2,0.9-0.3,1.4-0.3c0.5,0,0.9,0.1,1.3,0.3c0.4,0.2,0.7,0.4,1,0.7c0.3,0.3,0.5,0.7,0.6,1.1c0.1,0.4,0.2,0.9,0.2,1.4v0.5h-5.3
	v0.3c0,0.3,0.1,0.6,0.2,0.9c0.1,0.3,0.2,0.5,0.4,0.7c0.2,0.2,0.4,0.3,0.7,0.5c0.3,0.1,0.6,0.2,0.9,0.2c0.5,0,0.9-0.1,1.3-0.3
	c0.4-0.2,0.6-0.5,0.8-0.9l0.8,0.6c-0.2,0.5-0.6,0.9-1.1,1.2C73.2,119,72.6,119.2,71.9,119.2z M71.8,112.5c-0.3,0-0.6,0.1-0.9,0.2
	c-0.3,0.1-0.5,0.3-0.7,0.5c-0.2,0.2-0.3,0.4-0.4,0.7c-0.1,0.3-0.2,0.6-0.2,0.9v0.1h4.1v-0.2c0-0.3-0.1-0.6-0.2-0.9
	c-0.1-0.3-0.2-0.5-0.4-0.7c-0.2-0.2-0.4-0.3-0.6-0.4C72.4,112.6,72.1,112.5,71.8,112.5z M77.3,119v-7.2h1.1v1.2h0.1
	c0.1-0.2,0.2-0.3,0.3-0.5c0.1-0.2,0.2-0.3,0.4-0.4c0.2-0.1,0.4-0.2,0.6-0.3c0.2-0.1,0.5-0.1,0.8-0.1c0.8,0,1.4,0.2,1.8,0.7
	c0.5,0.5,0.7,1.2,0.7,2v4.6H82v-4.4c0-0.7-0.1-1.2-0.4-1.5c-0.3-0.3-0.7-0.5-1.3-0.5c-0.2,0-0.4,0-0.7,0.1c-0.2,0.1-0.4,0.1-0.6,0.3
	c-0.2,0.1-0.3,0.3-0.4,0.4c-0.1,0.2-0.2,0.4-0.2,0.6v5H77.3z M88.9,119c-0.6,0-1-0.2-1.2-0.5c-0.3-0.3-0.4-0.7-0.4-1.2v-4.6h-2.4v-1
	h1.8c0.2,0,0.4,0,0.5-0.1c0.1-0.1,0.2-0.3,0.2-0.5v-1.9h1.1v2.5h3.3v1h-3.3v5.3h3.3v1H88.9z"/>
<path class="st1" d="M97,81.1c-0.4,0-0.7-0.1-0.8-0.2c-0.1-0.2-0.2-0.4-0.2-0.6V80c0-0.2,0.1-0.4,0.2-0.6c0.2-0.2,0.4-0.2,0.8-0.2
	c0.4,0,0.6,0.1,0.8,0.2c0.2,0.2,0.2,0.4,0.2,0.6v0.3c0,0.2-0.1,0.4-0.2,0.6C97.6,81,97.3,81.1,97,81.1z M97,75.6
	c-0.4,0-0.7-0.1-0.8-0.2c-0.1-0.2-0.2-0.4-0.2-0.6v-0.3c0-0.2,0.1-0.4,0.2-0.6c0.2-0.2,0.4-0.2,0.8-0.2c0.4,0,0.6,0.1,0.8,0.2
	c0.2,0.2,0.2,0.4,0.2,0.6v0.3c0,0.2-0.1,0.4-0.2,0.6C97.6,75.5,97.3,75.6,97,75.6z M121.5,79.1h1.8l-1.6,3.9h-0.9L121.5,79.1z
	 M105.4,100.1c-0.4,0-0.7-0.1-0.8-0.2c-0.1-0.2-0.2-0.4-0.2-0.6V99c0-0.2,0.1-0.4,0.2-0.6c0.2-0.2,0.4-0.2,0.8-0.2
	c0.4,0,0.6,0.1,0.8,0.2c0.2,0.2,0.2,0.4,0.2,0.6v0.3c0,0.2-0.1,0.4-0.2,0.6C106,100,105.7,100.1,105.4,100.1z M105.4,94.6
	c-0.4,0-0.7-0.1-0.8-0.2c-0.1-0.2-0.2-0.4-0.2-0.6v-0.3c0-0.2,0.1-0.4,0.2-0.6c0.2-0.2,0.4-0.2,0.8-0.2c0.4,0,0.6,0.1,0.8,0.2
	c0.2,0.2,0.2,0.4,0.2,0.6v0.3c0,0.2-0.1,0.4-0.2,0.6C106,94.5,105.7,94.6,105.4,94.6z M138.3,98.1h1.8l-1.6,3.9h-0.9L138.3,98.1z
	 M97,119.1c-0.4,0-0.7-0.1-0.8-0.2c-0.1-0.2-0.2-0.4-0.2-0.6V118c0-0.2,0.1-0.4,0.2-0.6c0.2-0.2,0.4-0.2,0.8-0.2
	c0.4,0,0.6,0.1,0.8,0.2c0.2,0.2,0.2,0.4,0.2,0.6v0.3c0,0.2-0.1,0.4-0.2,0.6C97.6,119,97.3,119.1,97,119.1z M97,113.6
	c-0.4,0-0.7-0.1-0.8-0.2c-0.1-0.2-0.2-0.4-0.2-0.6v-0.3c0-0.2,0.1-0.4,0.2-0.6c0.2-0.2,0.4-0.2,0.8-0.2c0.4,0,0.6,0.1,0.8,0.2
	c0.2,0.2,0.2,0.4,0.2,0.6v0.3c0,0.2-0.1,0.4-0.2,0.6C97.6,113.5,97.3,113.6,97,113.6z M112.3,108.6h0.9l-0.7,3.9h-1.8L112.3,108.6z
	 M115.7,108.6h0.9l-0.7,3.9H114L115.7,108.6z M162.2,146.6h1.8l-1.6,3.9h-0.9L162.2,146.6z M165.5,146.6h1.8l-1.6,3.9h-0.9
	L165.5,146.6z M171.9,155.1h1.8l-1.6,3.9h-0.9L171.9,155.1z M172.5,151.6c-0.4,0-0.7-0.1-0.8-0.2c-0.2-0.2-0.2-0.4-0.2-0.6v-0.3
	c0-0.2,0.1-0.4,0.2-0.6c0.2-0.2,0.4-0.2,0.8-0.2c0.4,0,0.6,0.1,0.8,0.2c0.2,0.2,0.2,0.4,0.2,0.6v0.3c0,0.2-0.1,0.4-0.2,0.6
	C173.2,151.5,172.9,151.6,172.5,151.6z"/>
<path class="st3" d="M113.8,81.2c-0.6,0-1.1-0.1-1.5-0.2c-0.4-0.1-0.8-0.3-1.1-0.6c-0.3-0.3-0.5-0.6-0.6-0.9
	c-0.1-0.3-0.2-0.7-0.2-1.1c0-0.7,0.2-1.2,0.5-1.6c0.4-0.4,0.8-0.7,1.4-0.8v-0.1c-0.5-0.2-0.9-0.5-1.2-0.9c-0.3-0.4-0.4-0.9-0.4-1.4
	c0-0.7,0.3-1.3,0.8-1.8c0.5-0.4,1.3-0.7,2.3-0.7c1,0,1.8,0.2,2.3,0.7c0.6,0.4,0.8,1,0.8,1.8c0,0.6-0.2,1-0.5,1.4
	c-0.3,0.4-0.7,0.7-1.2,0.9v0.1c0.6,0.2,1.1,0.4,1.4,0.8c0.4,0.4,0.5,0.9,0.5,1.6c0,0.4-0.1,0.8-0.2,1.1c-0.1,0.3-0.4,0.6-0.6,0.9
	c-0.3,0.3-0.6,0.5-1.1,0.6C114.8,81.1,114.3,81.2,113.8,81.2z M113.8,80.2c0.7,0,1.2-0.2,1.6-0.5s0.6-0.7,0.6-1.3v-0.3
	c0-0.6-0.2-1-0.6-1.3c-0.4-0.3-0.9-0.5-1.6-0.5s-1.2,0.2-1.6,0.5c-0.4,0.3-0.6,0.7-0.6,1.3v0.3c0,0.6,0.2,1,0.6,1.3
	S113.1,80.2,113.8,80.2z M113.8,75.4c0.6,0,1.1-0.1,1.4-0.4c0.3-0.3,0.5-0.7,0.5-1.2v-0.2c0-0.5-0.2-0.9-0.5-1.2
	c-0.3-0.3-0.8-0.4-1.4-0.4s-1.1,0.1-1.4,0.4c-0.3,0.3-0.5,0.7-0.5,1.2v0.2c0,0.5,0.2,0.9,0.5,1.2C112.6,75.3,113.1,75.4,113.8,75.4z
	 M119.1,100v-1h2.8v-7.9h-0.1l-2.5,2.3l-0.7-0.7l2.6-2.4h1.8V99h2.6v1H119.1z M133.4,91.3H129l-0.3,3.7h0.1c0.2-0.3,0.5-0.6,0.8-0.8
	c0.3-0.2,0.7-0.3,1.2-0.3c0.4,0,0.8,0.1,1.2,0.2c0.4,0.1,0.7,0.3,0.9,0.6s0.5,0.6,0.6,1c0.1,0.4,0.2,0.8,0.2,1.3
	c0,0.5-0.1,0.9-0.2,1.3c-0.1,0.4-0.4,0.7-0.7,1c-0.3,0.3-0.6,0.5-1.1,0.7c-0.4,0.2-0.9,0.2-1.4,0.2c-0.4,0-0.8,0-1.1-0.1
	c-0.3-0.1-0.6-0.2-0.9-0.4c-0.2-0.2-0.5-0.3-0.6-0.5c-0.2-0.2-0.4-0.4-0.5-0.6l0.9-0.7c0.1,0.2,0.3,0.4,0.4,0.5
	c0.1,0.2,0.3,0.3,0.5,0.4c0.2,0.1,0.4,0.2,0.6,0.3s0.5,0.1,0.8,0.1c0.7,0,1.2-0.2,1.5-0.5c0.4-0.4,0.5-0.9,0.5-1.5V97
	c0-0.6-0.2-1.1-0.5-1.5c-0.4-0.4-0.9-0.5-1.6-0.5c-0.5,0-0.8,0.1-1.1,0.2c-0.3,0.2-0.5,0.4-0.7,0.6l-1-0.1l0.3-5.4h5.3V91.3z"/>
<path class="st4" d="M124.4,120.5h-1.9c-0.7,0-1.3-0.1-1.7-0.4c-0.5-0.2-0.8-0.6-1.1-1.1c-0.3-0.5-0.5-1.1-0.6-1.8
	c-0.1-0.7-0.2-1.5-0.2-2.4c0-1.1,0.1-2,0.2-2.7c0.1-0.7,0.3-1.3,0.6-1.8c0.3-0.5,0.6-0.8,1-1c0.4-0.2,0.9-0.3,1.4-0.3
	c0.5,0,1,0.1,1.4,0.3c0.4,0.2,0.7,0.4,0.9,0.7c0.2,0.3,0.4,0.7,0.5,1.1c0.1,0.4,0.2,0.9,0.2,1.3v5.2h-0.7v-0.8h-0.1
	c-0.1,0.3-0.3,0.5-0.5,0.7c-0.2,0.2-0.5,0.3-1,0.3c-0.6,0-1.1-0.2-1.4-0.7c-0.3-0.5-0.5-1.2-0.5-2.3c0-1,0.2-1.8,0.5-2.3
	c0.3-0.5,0.8-0.7,1.4-0.7c0.4,0,0.7,0.1,1,0.3c0.2,0.2,0.4,0.4,0.5,0.7h0.1v-0.4c0-0.4,0-0.8-0.1-1.1c-0.1-0.3-0.2-0.6-0.4-0.9
	c-0.2-0.3-0.4-0.4-0.7-0.6c-0.3-0.1-0.6-0.2-1-0.2c-0.4,0-0.8,0.1-1.1,0.3c-0.3,0.2-0.6,0.4-0.8,0.8c-0.2,0.4-0.3,0.8-0.4,1.4
	c-0.1,0.6-0.1,1.3-0.1,2v1.3c0,0.6,0,1.2,0.1,1.7c0.1,0.5,0.2,1,0.4,1.4c0.2,0.4,0.5,0.7,0.9,0.9c0.4,0.2,0.8,0.3,1.4,0.3h1.9V120.5
	z M123.1,117.2c0.4,0,0.7-0.1,0.9-0.3c0.2-0.2,0.3-0.5,0.3-1v-2.1c0-0.4-0.1-0.7-0.3-1c-0.2-0.2-0.5-0.3-0.9-0.3
	c-0.4,0-0.8,0.2-1,0.5c-0.2,0.3-0.4,0.8-0.4,1.5v0.7c0,0.7,0.1,1.2,0.4,1.5C122.4,117.1,122.7,117.2,123.1,117.2z M133,109.2v7.2
	c0,0.4-0.1,0.8-0.2,1.1c-0.1,0.3-0.3,0.6-0.6,0.9c-0.2,0.2-0.5,0.4-0.9,0.5c-0.3,0.1-0.7,0.2-1.1,0.2c-0.7,0-1.3-0.2-1.8-0.5
	c-0.5-0.4-0.8-0.9-0.9-1.5l0.8-0.2c0.1,0.4,0.3,0.8,0.6,1.1c0.3,0.3,0.7,0.4,1.3,0.4c0.6,0,1.1-0.2,1.4-0.5c0.3-0.4,0.5-0.9,0.5-1.6
	V110h-3.7v-0.7H133z M139,119.2c-1,0-1.8-0.3-2.4-1c-0.6-0.7-0.9-1.6-0.9-2.8c0-0.6,0.1-1.1,0.2-1.6c0.2-0.5,0.4-0.9,0.6-1.2
	c0.3-0.3,0.6-0.6,1-0.7c0.4-0.2,0.8-0.3,1.3-0.3c0.5,0,0.9,0.1,1.3,0.3c0.4,0.2,0.7,0.4,1,0.7c0.3,0.3,0.5,0.7,0.6,1.1
	s0.2,0.9,0.2,1.5v0.3h-5.4v0.3c0,0.8,0.2,1.4,0.6,1.9c0.4,0.5,1,0.7,1.8,0.7c0.5,0,1-0.1,1.4-0.4c0.4-0.2,0.7-0.6,0.9-1.1l0.6,0.4
	c-0.2,0.5-0.6,1-1.1,1.3C140.4,119,139.8,119.2,139,119.2z M139,112.3c-0.4,0-0.7,0.1-1,0.2c-0.3,0.1-0.5,0.3-0.7,0.5
	c-0.2,0.2-0.3,0.5-0.5,0.8c-0.1,0.3-0.2,0.7-0.2,1.1v0.1h4.6v-0.1c0-0.8-0.2-1.4-0.6-1.9C140.2,112.5,139.7,112.3,139,112.3z
	 M144.7,119v-7.2h0.8v1.1h0.1c0.1-0.3,0.4-0.6,0.7-0.9c0.3-0.3,0.8-0.4,1.4-0.4c0.8,0,1.4,0.2,1.8,0.7c0.4,0.5,0.7,1.1,0.7,2v4.7
	h-0.8v-4.5c0-0.7-0.2-1.3-0.5-1.6c-0.3-0.3-0.8-0.5-1.4-0.5c-0.3,0-0.5,0-0.7,0.1c-0.2,0.1-0.4,0.2-0.6,0.3
	c-0.2,0.1-0.3,0.3-0.4,0.5c-0.1,0.2-0.2,0.4-0.2,0.7v5.1H144.7z M153,119v-7.2h0.8v1.1h0.1c0.1-0.3,0.4-0.6,0.7-0.9
	c0.3-0.3,0.8-0.4,1.4-0.4c0.8,0,1.4,0.2,1.8,0.7c0.4,0.5,0.7,1.1,0.7,2v4.7h-0.8v-4.5c0-0.7-0.2-1.3-0.5-1.6
	c-0.3-0.3-0.8-0.5-1.4-0.5c-0.3,0-0.5,0-0.7,0.1c-0.2,0.1-0.4,0.2-0.6,0.3c-0.2,0.1-0.3,0.3-0.4,0.5c-0.1,0.2-0.2,0.4-0.2,0.7v5.1
	H153z M166.6,111.8h0.8l-3.8,9.2c-0.1,0.3-0.3,0.5-0.5,0.6c-0.2,0.1-0.5,0.2-0.8,0.2h-1.2v-0.7h1.6l1-2.3l-2.9-7h0.8l2.4,6.1h0.1
	L166.6,111.8z M181.2,119.2c-2.3,0-3.5-1.7-3.5-5.1c0-3.4,1.2-5.1,3.5-5.1c0.4,0,0.8,0.1,1.1,0.2c0.3,0.1,0.6,0.3,0.8,0.4
	c0.2,0.2,0.4,0.4,0.6,0.7c0.2,0.3,0.3,0.5,0.4,0.8l-0.7,0.3c-0.1-0.2-0.2-0.5-0.3-0.7c-0.1-0.2-0.3-0.4-0.4-0.5
	c-0.2-0.1-0.4-0.3-0.6-0.3c-0.2-0.1-0.5-0.1-0.8-0.1c-0.9,0-1.5,0.3-2,1c-0.4,0.6-0.6,1.5-0.6,2.7v1.3c0,1.2,0.2,2.1,0.6,2.7
	c0.4,0.6,1.1,1,2,1c0.3,0,0.6,0,0.8-0.1c0.2-0.1,0.4-0.2,0.6-0.4c0.2-0.1,0.3-0.3,0.4-0.5c0.1-0.2,0.2-0.4,0.3-0.7l0.7,0.3
	c-0.1,0.3-0.3,0.5-0.4,0.8c-0.2,0.3-0.4,0.5-0.6,0.7c-0.2,0.2-0.5,0.3-0.8,0.4C182,119.1,181.6,119.2,181.2,119.2z M189.3,119.2
	c-1,0-1.8-0.3-2.3-1c-0.6-0.7-0.8-1.6-0.8-2.8s0.3-2.1,0.8-2.8c0.6-0.7,1.3-1,2.3-1c1,0,1.8,0.3,2.3,1c0.6,0.7,0.8,1.6,0.8,2.8
	s-0.3,2.1-0.8,2.8C191.1,118.8,190.3,119.2,189.3,119.2z M189.3,118.5c0.7,0,1.3-0.2,1.7-0.7c0.4-0.4,0.6-1.1,0.6-2v-0.9
	c0-0.9-0.2-1.5-0.6-2c-0.4-0.4-1-0.7-1.7-0.7c-0.7,0-1.3,0.2-1.7,0.7c-0.4,0.4-0.6,1.1-0.6,2v0.9c0,0.9,0.2,1.5,0.6,2
	C188,118.2,188.6,118.5,189.3,118.5z M199.6,117.9L199.6,117.9c-0.2,0.3-0.4,0.6-0.8,0.9c-0.3,0.3-0.8,0.4-1.4,0.4
	c-0.8,0-1.4-0.2-1.8-0.7c-0.4-0.5-0.6-1.2-0.6-2v-4.7h0.8v4.5c0,0.7,0.2,1.3,0.5,1.6c0.3,0.3,0.8,0.5,1.4,0.5c0.3,0,0.5,0,0.7-0.1
	c0.2-0.1,0.4-0.2,0.6-0.3c0.2-0.1,0.3-0.3,0.4-0.5c0.1-0.2,0.2-0.4,0.2-0.7v-5.1h0.8v7.2h-0.8V117.9z M203.1,118.3h2.6v-9h-2.6v-0.7
	h3.4v9.7h2.6v0.7h-6V118.3z M216.4,117.9L216.4,117.9c-0.2,0.4-0.5,0.7-0.9,1c-0.4,0.2-0.8,0.4-1.4,0.4c-0.9,0-1.6-0.3-2.1-1
	c-0.5-0.7-0.8-1.6-0.8-2.8s0.3-2.2,0.8-2.8c0.5-0.7,1.2-1,2.1-1c0.6,0,1,0.1,1.4,0.4c0.4,0.2,0.7,0.6,0.9,1h0v-4.3h0.8V119h-0.8
	V117.9z M214.4,118.5c0.3,0,0.5,0,0.8-0.1c0.2-0.1,0.5-0.2,0.6-0.3c0.2-0.1,0.3-0.3,0.4-0.5c0.1-0.2,0.2-0.4,0.2-0.7V114
	c0-0.3-0.1-0.5-0.2-0.7c-0.1-0.2-0.2-0.4-0.4-0.5c-0.2-0.1-0.4-0.2-0.6-0.3c-0.2-0.1-0.5-0.1-0.8-0.1c-0.7,0-1.3,0.2-1.7,0.7
	c-0.4,0.5-0.6,1.1-0.6,1.9v1c0,0.8,0.2,1.4,0.6,1.9C213.1,118.2,213.6,118.5,214.4,118.5z M233.8,111.8h0.8l-3.8,9.2
	c-0.1,0.3-0.3,0.5-0.5,0.6c-0.2,0.1-0.5,0.2-0.8,0.2h-1.2v-0.7h1.6l1-2.3l-2.9-7h0.8l2.4,6.1h0.1L233.8,111.8z M239.7,119.2
	c-1,0-1.8-0.3-2.3-1c-0.6-0.7-0.8-1.6-0.8-2.8s0.3-2.1,0.8-2.8c0.6-0.7,1.3-1,2.3-1c1,0,1.8,0.3,2.3,1c0.6,0.7,0.8,1.6,0.8,2.8
	s-0.3,2.1-0.8,2.8C241.4,118.8,240.7,119.2,239.7,119.2z M239.7,118.5c0.7,0,1.3-0.2,1.7-0.7c0.4-0.4,0.6-1.1,0.6-2v-0.9
	c0-0.9-0.2-1.5-0.6-2c-0.4-0.4-1-0.7-1.7-0.7c-0.7,0-1.3,0.2-1.7,0.7c-0.4,0.4-0.6,1.1-0.6,2v0.9c0,0.9,0.2,1.5,0.6,2
	C238.4,118.2,239,118.5,239.7,118.5z M249.9,117.9L249.9,117.9c-0.2,0.3-0.4,0.6-0.8,0.9c-0.3,0.3-0.8,0.4-1.4,0.4
	c-0.8,0-1.4-0.2-1.8-0.7c-0.4-0.5-0.6-1.2-0.6-2v-4.7h0.8v4.5c0,0.7,0.2,1.3,0.5,1.6c0.3,0.3,0.8,0.5,1.4,0.5c0.3,0,0.5,0,0.7-0.1
	c0.2-0.1,0.4-0.2,0.6-0.3c0.2-0.1,0.3-0.3,0.4-0.5c0.1-0.2,0.2-0.4,0.2-0.7v-5.1h0.8v7.2h-0.8V117.9z M38.5,138.2
	c-1,0-1.8-0.3-2.3-1c-0.6-0.7-0.8-1.6-0.8-2.8c0-1.2,0.3-2.1,0.8-2.8c0.6-0.7,1.3-1,2.3-1c0.7,0,1.2,0.2,1.7,0.5
	c0.4,0.3,0.7,0.7,0.9,1.2l-0.6,0.3c-0.1-0.4-0.4-0.7-0.7-0.9c-0.3-0.2-0.7-0.3-1.2-0.3c-0.7,0-1.3,0.2-1.7,0.7
	c-0.4,0.5-0.6,1.1-0.6,1.9v1c0,0.8,0.2,1.4,0.6,1.9c0.4,0.5,1,0.7,1.7,0.7c0.5,0,0.9-0.1,1.3-0.4c0.3-0.2,0.6-0.6,0.8-1l0.6,0.4
	c-0.2,0.5-0.5,0.9-1,1.2C39.7,138,39.2,138.2,38.5,138.2z M43.9,127.6h0.8v4.3h0.1c0.1-0.3,0.4-0.6,0.7-0.9c0.3-0.3,0.8-0.4,1.4-0.4
	c0.8,0,1.4,0.2,1.8,0.7c0.4,0.5,0.7,1.1,0.7,2v4.7h-0.8v-4.5c0-0.7-0.2-1.3-0.5-1.6c-0.3-0.3-0.8-0.5-1.4-0.5c-0.3,0-0.5,0-0.7,0.1
	c-0.2,0.1-0.4,0.2-0.6,0.3c-0.2,0.1-0.3,0.3-0.4,0.5c-0.1,0.2-0.2,0.4-0.2,0.7v5.1h-0.8V127.6z M55.1,138.2c-1,0-1.8-0.3-2.4-1
	c-0.6-0.7-0.9-1.6-0.9-2.8c0-0.6,0.1-1.1,0.2-1.6c0.1-0.5,0.4-0.9,0.6-1.2c0.3-0.3,0.6-0.6,1-0.7c0.4-0.2,0.8-0.3,1.3-0.3
	c0.5,0,0.9,0.1,1.3,0.3c0.4,0.2,0.7,0.4,1,0.7c0.3,0.3,0.5,0.7,0.6,1.1c0.1,0.4,0.2,0.9,0.2,1.5v0.4h-5.4v0.3c0,0.8,0.2,1.4,0.6,1.9
	c0.4,0.5,1,0.7,1.8,0.7c0.5,0,1-0.1,1.4-0.4c0.4-0.2,0.7-0.6,0.9-1.1l0.6,0.4c-0.2,0.5-0.6,1-1,1.3C56.4,138,55.8,138.2,55.1,138.2z
	 M55,131.3c-0.4,0-0.7,0.1-1,0.2c-0.3,0.1-0.5,0.3-0.7,0.5c-0.2,0.2-0.4,0.5-0.5,0.8s-0.2,0.7-0.2,1.1v0.1h4.6v-0.1
	c0-0.8-0.2-1.4-0.6-1.9C56.3,131.5,55.7,131.3,55,131.3z M63.7,138.2c-1,0-1.8-0.3-2.3-1c-0.6-0.7-0.8-1.6-0.8-2.8
	c0-1.2,0.3-2.1,0.8-2.8c0.6-0.7,1.3-1,2.3-1c0.7,0,1.2,0.2,1.7,0.5c0.4,0.3,0.7,0.7,0.9,1.2l-0.6,0.3c-0.1-0.4-0.4-0.7-0.7-0.9
	c-0.3-0.2-0.7-0.3-1.2-0.3c-0.7,0-1.3,0.2-1.7,0.7c-0.4,0.5-0.6,1.1-0.6,1.9v1c0,0.8,0.2,1.4,0.6,1.9c0.4,0.5,1,0.7,1.7,0.7
	c0.5,0,0.9-0.1,1.3-0.4s0.6-0.6,0.8-1l0.6,0.4c-0.2,0.5-0.5,0.9-1,1.2C64.9,138,64.4,138.2,63.7,138.2z M69.2,127.6H70v6.8h0.1
	l1.4-1.3l2.7-2.4h1l-3.1,2.8l3.5,4.4h-1l-3.1-3.9l-1.4,1.3v2.6h-0.8V127.6z M88.6,138c-0.4,0-0.7-0.1-0.9-0.3
	c-0.2-0.2-0.3-0.5-0.3-0.9v-5.4h-2.6v-0.7h2c0.2,0,0.3,0,0.4-0.1s0.1-0.2,0.1-0.4v-2h0.8v2.5h3.4v0.7h-3.4v5.9h3.4v0.7H88.6z
	 M94.3,127.6h0.8v4.3h0.1c0.1-0.3,0.4-0.6,0.7-0.9c0.3-0.3,0.8-0.4,1.4-0.4c0.8,0,1.4,0.2,1.8,0.7c0.4,0.5,0.7,1.1,0.7,2v4.7h-0.8
	v-4.5c0-0.7-0.2-1.3-0.5-1.6c-0.3-0.3-0.8-0.5-1.4-0.5c-0.3,0-0.5,0-0.7,0.1c-0.2,0.1-0.4,0.2-0.6,0.3c-0.2,0.1-0.3,0.3-0.4,0.5
	c-0.1,0.2-0.2,0.4-0.2,0.7v5.1h-0.8V127.6z M105.5,138.2c-1,0-1.8-0.3-2.4-1c-0.6-0.7-0.9-1.6-0.9-2.8c0-0.6,0.1-1.1,0.2-1.6
	c0.2-0.5,0.4-0.9,0.6-1.2c0.3-0.3,0.6-0.6,1-0.7c0.4-0.2,0.8-0.3,1.3-0.3c0.5,0,0.9,0.1,1.3,0.3c0.4,0.2,0.7,0.4,1,0.7
	c0.3,0.3,0.5,0.7,0.6,1.1c0.1,0.4,0.2,0.9,0.2,1.5v0.4h-5.4v0.3c0,0.8,0.2,1.4,0.6,1.9c0.4,0.5,1,0.7,1.8,0.7c0.5,0,1-0.1,1.4-0.4
	c0.4-0.2,0.7-0.6,0.9-1.1l0.6,0.4c-0.2,0.5-0.6,1-1,1.3C106.8,138,106.2,138.2,105.5,138.2z M105.4,131.3c-0.4,0-0.7,0.1-1,0.2
	c-0.3,0.1-0.5,0.3-0.7,0.5c-0.2,0.2-0.4,0.5-0.5,0.8s-0.2,0.7-0.2,1.1v0.1h4.6v-0.1c0-0.8-0.2-1.4-0.6-1.9
	C106.6,131.5,106.1,131.3,105.4,131.3z M124.7,138c-0.3,0-0.6-0.1-0.7-0.2c-0.1-0.2-0.2-0.4-0.2-0.6v-0.3h-0.1
	c-0.2,0.4-0.4,0.7-0.8,0.9s-0.9,0.4-1.5,0.4c-0.8,0-1.4-0.2-1.8-0.5c-0.4-0.4-0.6-0.9-0.6-1.6c0-0.3,0.1-0.6,0.2-0.9
	c0.1-0.3,0.3-0.5,0.5-0.7c0.2-0.2,0.6-0.3,0.9-0.4c0.4-0.1,0.8-0.2,1.4-0.2h1.8v-0.9c0-0.6-0.2-1.1-0.5-1.4
	c-0.3-0.3-0.8-0.4-1.4-0.4c-1,0-1.7,0.4-2.1,1.2l-0.5-0.4c0.2-0.4,0.5-0.8,0.9-1c0.4-0.3,1-0.4,1.7-0.4c0.8,0,1.5,0.2,1.9,0.6
	c0.5,0.4,0.7,1,0.7,1.8v4.3h1.1v0.7H124.7z M121.5,137.5c0.3,0,0.6,0,0.9-0.1c0.3-0.1,0.5-0.2,0.7-0.3c0.2-0.1,0.3-0.3,0.5-0.5
	s0.2-0.4,0.2-0.7v-1.3h-1.8c-0.8,0-1.3,0.1-1.6,0.4c-0.3,0.2-0.5,0.5-0.5,0.9v0.4c0,0.4,0.2,0.7,0.5,1
	C120.6,137.4,121,137.5,121.5,137.5z M130.6,138c-0.4,0-0.7-0.1-0.9-0.3c-0.2-0.2-0.3-0.5-0.3-0.9v-5.4h-2.6v-0.7h2
	c0.2,0,0.4,0,0.4-0.1s0.1-0.2,0.1-0.4v-2h0.8v2.5h3.4v0.7h-3.4v5.9h3.4v0.7H130.6z M139,138c-0.4,0-0.7-0.1-0.9-0.3
	c-0.2-0.2-0.3-0.5-0.3-0.9v-5.4h-2.6v-0.7h2c0.2,0,0.3,0,0.4-0.1s0.1-0.2,0.1-0.4v-2h0.8v2.5h3.4v0.7h-3.4v5.9h3.4v0.7H139z
	 M149.8,138c-0.3,0-0.6-0.1-0.7-0.2c-0.1-0.2-0.2-0.4-0.2-0.6v-0.3h-0.1c-0.2,0.4-0.4,0.7-0.8,0.9s-0.9,0.4-1.5,0.4
	c-0.8,0-1.4-0.2-1.8-0.5c-0.4-0.4-0.6-0.9-0.6-1.6c0-0.3,0.1-0.6,0.2-0.9c0.1-0.3,0.3-0.5,0.5-0.7c0.2-0.2,0.6-0.3,0.9-0.4
	c0.4-0.1,0.8-0.2,1.4-0.2h1.8v-0.9c0-0.6-0.2-1.1-0.5-1.4c-0.3-0.3-0.8-0.4-1.4-0.4c-1,0-1.7,0.4-2.1,1.2l-0.5-0.4
	c0.2-0.4,0.5-0.8,0.9-1c0.4-0.3,1-0.4,1.7-0.4c0.8,0,1.5,0.2,1.9,0.6c0.5,0.4,0.7,1,0.7,1.8v4.3h1.1v0.7H149.8z M146.7,137.5
	c0.3,0,0.6,0,0.9-0.1s0.5-0.2,0.7-0.3c0.2-0.1,0.3-0.3,0.5-0.5s0.2-0.4,0.2-0.7v-1.3h-1.8c-0.8,0-1.3,0.1-1.6,0.4
	c-0.3,0.2-0.5,0.5-0.5,0.9v0.4c0,0.4,0.2,0.7,0.5,1C145.7,137.4,146.2,137.5,146.7,137.5z M156,138.2c-1,0-1.8-0.3-2.3-1
	c-0.5-0.7-0.8-1.6-0.8-2.8c0-1.2,0.3-2.1,0.8-2.8c0.6-0.7,1.3-1,2.3-1c0.7,0,1.2,0.2,1.7,0.5c0.4,0.3,0.7,0.7,0.9,1.2l-0.6,0.3
	c-0.1-0.4-0.4-0.7-0.7-0.9c-0.3-0.2-0.7-0.3-1.2-0.3c-0.7,0-1.3,0.2-1.7,0.7c-0.4,0.5-0.6,1.1-0.6,1.9v1c0,0.8,0.2,1.4,0.6,1.9
	c0.4,0.5,1,0.7,1.7,0.7c0.5,0,0.9-0.1,1.3-0.4c0.3-0.2,0.6-0.6,0.8-1l0.6,0.4c-0.2,0.5-0.5,0.9-1,1.2
	C157.3,138,156.7,138.2,156,138.2z M161.4,127.6h0.8v4.3h0.1c0.1-0.3,0.4-0.6,0.7-0.9c0.3-0.3,0.8-0.4,1.4-0.4
	c0.8,0,1.4,0.2,1.8,0.7c0.4,0.5,0.7,1.1,0.7,2v4.7h-0.8v-4.5c0-0.7-0.2-1.3-0.5-1.6c-0.3-0.3-0.8-0.5-1.4-0.5c-0.3,0-0.5,0-0.7,0.1
	s-0.4,0.2-0.6,0.3c-0.2,0.1-0.3,0.3-0.4,0.5c-0.1,0.2-0.2,0.4-0.2,0.7v5.1h-0.8V127.6z M172.6,138.2c-1,0-1.8-0.3-2.4-1
	c-0.6-0.7-0.9-1.6-0.9-2.8c0-0.6,0.1-1.1,0.2-1.6c0.1-0.5,0.4-0.9,0.6-1.2c0.3-0.3,0.6-0.6,1-0.7c0.4-0.2,0.8-0.3,1.3-0.3
	c0.5,0,0.9,0.1,1.3,0.3c0.4,0.2,0.7,0.4,1,0.7c0.3,0.3,0.5,0.7,0.6,1.1c0.1,0.4,0.2,0.9,0.2,1.5v0.4h-5.4v0.3c0,0.8,0.2,1.4,0.6,1.9
	c0.4,0.5,1,0.7,1.8,0.7c0.5,0,1-0.1,1.4-0.4c0.4-0.2,0.7-0.6,0.9-1.1l0.6,0.4c-0.2,0.5-0.6,1-1,1.3
	C173.9,138,173.3,138.2,172.6,138.2z M172.6,131.3c-0.4,0-0.7,0.1-1,0.2c-0.3,0.1-0.5,0.3-0.7,0.5c-0.2,0.2-0.3,0.5-0.5,0.8
	s-0.2,0.7-0.2,1.1v0.1h4.6v-0.1c0-0.8-0.2-1.4-0.6-1.9C173.8,131.5,173.3,131.3,172.6,131.3z M182.8,136.9L182.8,136.9
	c-0.2,0.4-0.5,0.7-0.9,1c-0.4,0.2-0.8,0.4-1.4,0.4c-0.9,0-1.6-0.3-2.1-1c-0.5-0.7-0.8-1.6-0.8-2.8c0-1.2,0.3-2.2,0.8-2.8
	c0.5-0.7,1.2-1,2.1-1c0.6,0,1,0.1,1.4,0.4c0.4,0.2,0.7,0.6,0.9,1h0v-4.3h0.8V138h-0.8V136.9z M180.8,137.5c0.3,0,0.5,0,0.8-0.1
	c0.2-0.1,0.5-0.2,0.6-0.3s0.3-0.3,0.4-0.5c0.1-0.2,0.2-0.4,0.2-0.7V133c0-0.3-0.1-0.5-0.2-0.7c-0.1-0.2-0.2-0.4-0.4-0.5
	s-0.4-0.2-0.6-0.3c-0.2-0.1-0.5-0.1-0.8-0.1c-0.7,0-1.3,0.2-1.7,0.7c-0.4,0.5-0.6,1.1-0.6,1.9v1c0,0.8,0.2,1.4,0.6,1.9
	C179.5,137.2,180.1,137.5,180.8,137.5z M197.7,138c-0.4,0-0.7-0.1-0.9-0.3c-0.2-0.2-0.3-0.5-0.3-0.9v-5.4H194v-0.7h2
	c0.2,0,0.4,0,0.4-0.1s0.1-0.2,0.1-0.4v-2h0.8v2.5h3.4v0.7h-3.4v5.9h3.4v0.7H197.7z M206.1,138.2c-1,0-1.8-0.3-2.3-1
	c-0.6-0.7-0.8-1.6-0.8-2.8c0-1.2,0.3-2.1,0.8-2.8c0.6-0.7,1.3-1,2.3-1c1,0,1.8,0.3,2.3,1c0.6,0.7,0.8,1.6,0.8,2.8
	c0,1.2-0.3,2.1-0.8,2.8C207.9,137.8,207.1,138.2,206.1,138.2z M206.1,137.5c0.7,0,1.3-0.2,1.7-0.7c0.4-0.4,0.6-1.1,0.6-2v-0.9
	c0-0.9-0.2-1.5-0.6-2c-0.4-0.4-1-0.7-1.7-0.7c-0.7,0-1.3,0.2-1.7,0.7c-0.4,0.4-0.6,1.1-0.6,2v0.9c0,0.9,0.2,1.5,0.6,2
	C204.8,137.2,205.4,137.5,206.1,137.5z M222.9,138c-0.4,0-0.7-0.1-0.9-0.3c-0.2-0.2-0.3-0.5-0.3-0.9v-5.4h-2.6v-0.7h2
	c0.2,0,0.3,0,0.4-0.1s0.1-0.2,0.1-0.4v-2h0.8v2.5h3.4v0.7h-3.4v5.9h3.4v0.7H222.9z M228.6,127.6h0.8v4.3h0.1
	c0.1-0.3,0.4-0.6,0.7-0.9c0.3-0.3,0.8-0.4,1.4-0.4c0.8,0,1.4,0.2,1.8,0.7c0.4,0.5,0.7,1.1,0.7,2v4.7h-0.8v-4.5
	c0-0.7-0.2-1.3-0.5-1.6c-0.3-0.3-0.8-0.5-1.4-0.5c-0.3,0-0.5,0-0.7,0.1c-0.2,0.1-0.4,0.2-0.6,0.3c-0.2,0.1-0.3,0.3-0.4,0.5
	c-0.1,0.2-0.2,0.4-0.2,0.7v5.1h-0.8V127.6z M239.8,138.2c-1,0-1.8-0.3-2.4-1c-0.6-0.7-0.9-1.6-0.9-2.8c0-0.6,0.1-1.1,0.2-1.6
	c0.1-0.5,0.4-0.9,0.6-1.2c0.3-0.3,0.6-0.6,1-0.7c0.4-0.2,0.8-0.3,1.3-0.3c0.5,0,0.9,0.1,1.3,0.3c0.4,0.2,0.7,0.4,1,0.7
	c0.3,0.3,0.5,0.7,0.6,1.1c0.1,0.4,0.2,0.9,0.2,1.5v0.4h-5.4v0.3c0,0.8,0.2,1.4,0.6,1.9c0.4,0.5,1,0.7,1.8,0.7c0.5,0,1-0.1,1.4-0.4
	c0.4-0.2,0.7-0.6,0.9-1.1l0.6,0.4c-0.2,0.5-0.6,1-1.1,1.3C241.1,138,240.5,138.2,239.8,138.2z M239.7,131.3c-0.4,0-0.7,0.1-1,0.2
	c-0.3,0.1-0.5,0.3-0.7,0.5c-0.2,0.2-0.3,0.5-0.5,0.8c-0.1,0.3-0.2,0.7-0.2,1.1v0.1h4.6v-0.1c0-0.8-0.2-1.4-0.6-1.9
	C241,131.5,240.4,131.3,239.7,131.3z M38.2,157c-0.4,0-0.7-0.1-0.9-0.3c-0.2-0.2-0.3-0.5-0.3-0.9v-5.4h-2.6v-0.7h2
	c0.2,0,0.3,0,0.4-0.1c0.1-0.1,0.1-0.2,0.1-0.4v-2h0.8v2.5h3.4v0.7h-3.4v5.9h3.4v0.7H38.2z M49.1,157c-0.3,0-0.6-0.1-0.7-0.2
	c-0.1-0.2-0.2-0.4-0.2-0.6v-0.3h-0.1c-0.2,0.4-0.4,0.7-0.8,0.9c-0.4,0.2-0.9,0.4-1.5,0.4c-0.8,0-1.4-0.2-1.8-0.5
	c-0.4-0.4-0.6-0.9-0.6-1.6c0-0.3,0.1-0.6,0.2-0.9c0.1-0.3,0.3-0.5,0.5-0.7c0.2-0.2,0.6-0.3,0.9-0.4c0.4-0.1,0.8-0.2,1.4-0.2h1.8
	v-0.9c0-0.6-0.2-1.1-0.5-1.4c-0.3-0.3-0.8-0.4-1.4-0.4c-1,0-1.7,0.4-2.1,1.2l-0.5-0.4c0.2-0.4,0.5-0.8,0.9-1c0.4-0.3,1-0.4,1.7-0.4
	c0.8,0,1.5,0.2,1.9,0.6c0.5,0.4,0.7,1,0.7,1.8v4.3H50v0.7H49.1z M46,156.5c0.3,0,0.6,0,0.9-0.1c0.3-0.1,0.5-0.2,0.7-0.3
	c0.2-0.1,0.3-0.3,0.5-0.5s0.2-0.4,0.2-0.7v-1.3h-1.8c-0.8,0-1.3,0.1-1.6,0.4c-0.3,0.2-0.5,0.5-0.5,0.9v0.4c0,0.4,0.2,0.7,0.5,1
	C45,156.4,45.4,156.5,46,156.5z M55.1,157.2c-0.7,0-1.4-0.1-1.9-0.4c-0.5-0.3-1-0.6-1.4-1.1l0.5-0.5c0.4,0.4,0.8,0.7,1.2,0.9
	c0.4,0.2,1,0.3,1.6,0.3c0.6,0,1.1-0.1,1.5-0.4c0.4-0.2,0.6-0.6,0.6-1.1c0-0.2,0-0.4-0.1-0.5c-0.1-0.1-0.2-0.3-0.3-0.4
	s-0.3-0.2-0.5-0.2c-0.2-0.1-0.4-0.1-0.6-0.1l-1.1-0.2c-0.3,0-0.6-0.1-0.9-0.2c-0.3-0.1-0.5-0.2-0.8-0.3c-0.2-0.1-0.4-0.3-0.6-0.6
	c-0.1-0.2-0.2-0.5-0.2-0.9c0-0.4,0.1-0.7,0.2-0.9s0.3-0.5,0.6-0.6c0.3-0.2,0.5-0.3,0.9-0.4c0.3-0.1,0.7-0.1,1.1-0.1
	c0.7,0,1.2,0.1,1.7,0.3c0.5,0.2,0.9,0.5,1.2,0.8l-0.5,0.5c-0.1-0.1-0.2-0.2-0.4-0.3c-0.1-0.1-0.3-0.2-0.5-0.3
	c-0.2-0.1-0.4-0.2-0.7-0.2c-0.3-0.1-0.5-0.1-0.9-0.1c-0.6,0-1.1,0.1-1.4,0.3c-0.3,0.2-0.5,0.6-0.5,1c0,0.2,0,0.4,0.1,0.6
	c0.1,0.1,0.2,0.3,0.3,0.3s0.3,0.2,0.5,0.2c0.2,0,0.4,0.1,0.6,0.1l1.1,0.2c0.3,0,0.6,0.1,0.8,0.2c0.3,0.1,0.5,0.2,0.8,0.3
	c0.2,0.1,0.4,0.3,0.6,0.6c0.1,0.2,0.2,0.5,0.2,0.9s-0.1,0.7-0.2,1c-0.1,0.3-0.3,0.5-0.6,0.7c-0.3,0.2-0.6,0.3-0.9,0.4
	C56,157.1,55.6,157.2,55.1,157.2z M60.8,146.6h0.8v6.8h0.1l1.4-1.3l2.7-2.4h1l-3.1,2.8l3.5,4.4h-1l-3.1-3.9l-1.4,1.3v2.6h-0.8V146.6
	z M82.1,155.9L82.1,155.9c-0.2,0.4-0.5,0.7-0.9,1c-0.4,0.2-0.8,0.4-1.4,0.4c-0.9,0-1.6-0.3-2.1-1c-0.5-0.7-0.8-1.6-0.8-2.8
	c0-1.2,0.3-2.2,0.8-2.8c0.5-0.7,1.2-1,2.1-1c0.6,0,1,0.1,1.4,0.4c0.4,0.2,0.7,0.6,0.9,1h0v-4.3h0.8V157h-0.8V155.9z M80.1,156.5
	c0.3,0,0.5,0,0.8-0.1c0.2-0.1,0.5-0.2,0.6-0.3c0.2-0.1,0.3-0.3,0.4-0.5c0.1-0.2,0.2-0.4,0.2-0.7V152c0-0.3-0.1-0.5-0.2-0.7
	c-0.1-0.2-0.2-0.4-0.4-0.5c-0.2-0.1-0.4-0.2-0.6-0.3c-0.2-0.1-0.5-0.1-0.8-0.1c-0.7,0-1.3,0.2-1.7,0.7c-0.4,0.5-0.6,1.1-0.6,1.9v1
	c0,0.8,0.2,1.4,0.6,1.9C78.8,156.2,79.3,156.5,80.1,156.5z M88.6,157.2c-1,0-1.8-0.3-2.3-1c-0.6-0.7-0.8-1.6-0.8-2.8
	c0-1.2,0.3-2.1,0.8-2.8c0.6-0.7,1.3-1,2.3-1c1,0,1.8,0.3,2.3,1c0.6,0.7,0.8,1.6,0.8,2.8c0,1.2-0.3,2.1-0.8,2.8
	C90.3,156.8,89.6,157.2,88.6,157.2z M88.6,156.5c0.7,0,1.3-0.2,1.7-0.7s0.6-1.1,0.6-2v-0.9c0-0.9-0.2-1.5-0.6-2s-1-0.7-1.7-0.7
	s-1.3,0.2-1.7,0.7s-0.6,1.1-0.6,2v0.9c0,0.9,0.2,1.5,0.6,2S87.9,156.5,88.6,156.5z M97.2,157.2c-1,0-1.8-0.3-2.3-1
	c-0.6-0.7-0.8-1.6-0.8-2.8c0-1.2,0.3-2.1,0.8-2.8c0.6-0.7,1.3-1,2.3-1c0.7,0,1.2,0.2,1.7,0.5c0.4,0.3,0.7,0.7,0.9,1.2l-0.6,0.3
	c-0.1-0.4-0.4-0.7-0.7-0.9c-0.3-0.2-0.7-0.3-1.2-0.3c-0.7,0-1.3,0.2-1.7,0.7c-0.4,0.5-0.6,1.1-0.6,1.9v1c0,0.8,0.2,1.4,0.6,1.9
	c0.4,0.5,1,0.7,1.7,0.7c0.5,0,0.9-0.1,1.3-0.4c0.3-0.2,0.6-0.6,0.8-1l0.6,0.4c-0.2,0.5-0.5,0.9-1,1.2
	C98.5,157,97.9,157.2,97.2,157.2z M107.2,155.9L107.2,155.9c-0.2,0.3-0.4,0.6-0.8,0.9c-0.3,0.3-0.8,0.4-1.4,0.4
	c-0.8,0-1.4-0.2-1.8-0.7c-0.4-0.5-0.6-1.2-0.6-2v-4.7h0.8v4.5c0,0.7,0.2,1.3,0.5,1.6c0.3,0.3,0.8,0.5,1.4,0.5c0.3,0,0.5,0,0.7-0.1
	c0.2-0.1,0.4-0.2,0.6-0.3c0.2-0.1,0.3-0.3,0.4-0.5c0.1-0.2,0.2-0.4,0.2-0.7v-5.1h0.8v7.2h-0.8V155.9z M110.4,157v-7.2h0.7v0.8h0
	c0.1-0.3,0.3-0.5,0.5-0.7c0.2-0.2,0.5-0.3,0.9-0.3c0.4,0,0.7,0.1,1,0.3c0.2,0.2,0.4,0.5,0.4,0.8h0c0.1-0.3,0.3-0.6,0.6-0.8
	c0.2-0.2,0.6-0.3,1-0.3c0.6,0,0.9,0.2,1.2,0.6c0.2,0.4,0.3,0.9,0.3,1.6v5.2h-0.7v-5.1c0-0.6-0.1-1-0.3-1.2c-0.2-0.2-0.4-0.4-0.8-0.4
	c-0.3,0-0.6,0.1-0.9,0.4c-0.2,0.2-0.3,0.6-0.3,1v5.3h-0.7v-5.1c0-0.6-0.1-1-0.3-1.2c-0.2-0.2-0.4-0.4-0.8-0.4
	c-0.3,0-0.6,0.1-0.9,0.4c-0.2,0.2-0.3,0.6-0.3,1v5.3H110.4z M122.3,157.2c-1,0-1.8-0.3-2.4-1c-0.6-0.7-0.9-1.6-0.9-2.8
	c0-0.6,0.1-1.1,0.2-1.6c0.2-0.5,0.4-0.9,0.6-1.2c0.3-0.3,0.6-0.6,1-0.7c0.4-0.2,0.8-0.3,1.3-0.3c0.5,0,0.9,0.1,1.3,0.3
	c0.4,0.2,0.7,0.4,1,0.7c0.3,0.3,0.5,0.7,0.6,1.1c0.1,0.4,0.2,0.9,0.2,1.5v0.4h-5.4v0.3c0,0.8,0.2,1.4,0.6,1.9c0.4,0.5,1,0.7,1.8,0.7
	c0.5,0,1-0.1,1.4-0.4c0.4-0.2,0.7-0.6,0.9-1.1l0.6,0.4c-0.2,0.5-0.6,1-1,1.3C123.6,157,123,157.2,122.3,157.2z M122.2,150.3
	c-0.4,0-0.7,0.1-1,0.2c-0.3,0.1-0.5,0.3-0.7,0.5c-0.2,0.2-0.3,0.5-0.5,0.8s-0.2,0.7-0.2,1.1v0.1h4.6v-0.1c0-0.8-0.2-1.4-0.6-1.9
	C123.4,150.5,122.9,150.3,122.2,150.3z M127.9,157v-7.2h0.8v1.1h0.1c0.1-0.3,0.4-0.6,0.7-0.9c0.3-0.3,0.8-0.4,1.4-0.4
	c0.8,0,1.4,0.2,1.8,0.7c0.4,0.5,0.7,1.1,0.7,2v4.7h-0.8v-4.5c0-0.7-0.2-1.3-0.5-1.6c-0.3-0.3-0.8-0.5-1.4-0.5c-0.3,0-0.5,0-0.7,0.1
	s-0.4,0.2-0.6,0.3c-0.2,0.1-0.3,0.3-0.4,0.5c-0.1,0.2-0.2,0.4-0.2,0.7v5.1H127.9z M139,157c-0.4,0-0.7-0.1-0.9-0.3
	c-0.2-0.2-0.3-0.5-0.3-0.9v-5.4h-2.6v-0.7h2c0.2,0,0.3,0,0.4-0.1s0.1-0.2,0.1-0.4v-2h0.8v2.5h3.4v0.7h-3.4v5.9h3.4v0.7H139z
	 M147.5,157.2c-0.7,0-1.4-0.1-1.9-0.4c-0.5-0.3-1-0.6-1.4-1.1l0.5-0.5c0.4,0.4,0.8,0.7,1.2,0.9c0.4,0.2,1,0.3,1.6,0.3
	c0.6,0,1.1-0.1,1.5-0.4c0.4-0.2,0.6-0.6,0.6-1.1c0-0.2,0-0.4-0.1-0.5c-0.1-0.1-0.2-0.3-0.3-0.4s-0.3-0.2-0.5-0.2
	c-0.2-0.1-0.4-0.1-0.6-0.1l-1.1-0.2c-0.3,0-0.6-0.1-0.9-0.2c-0.3-0.1-0.5-0.2-0.8-0.3c-0.2-0.1-0.4-0.3-0.6-0.6
	c-0.1-0.2-0.2-0.5-0.2-0.9c0-0.4,0.1-0.7,0.2-0.9s0.3-0.5,0.6-0.6s0.5-0.3,0.9-0.4c0.3-0.1,0.7-0.1,1.1-0.1c0.7,0,1.2,0.1,1.7,0.3
	c0.5,0.2,0.9,0.5,1.2,0.8l-0.5,0.5c-0.1-0.1-0.2-0.2-0.4-0.3c-0.1-0.1-0.3-0.2-0.5-0.3c-0.2-0.1-0.4-0.2-0.7-0.2
	c-0.3-0.1-0.5-0.1-0.9-0.1c-0.6,0-1.1,0.1-1.4,0.3c-0.3,0.2-0.5,0.6-0.5,1c0,0.2,0,0.4,0.1,0.6c0.1,0.1,0.2,0.3,0.3,0.3
	s0.3,0.2,0.5,0.2c0.2,0,0.4,0.1,0.6,0.1l1.1,0.2c0.3,0,0.6,0.1,0.8,0.2c0.3,0.1,0.5,0.2,0.8,0.3c0.2,0.1,0.4,0.3,0.6,0.6
	c0.1,0.2,0.2,0.5,0.2,0.9s-0.1,0.7-0.2,1c-0.1,0.3-0.3,0.5-0.6,0.7c-0.3,0.2-0.6,0.3-0.9,0.4S147.9,157.2,147.5,157.2z M155,154.2
	v-2.3c0.9,0,1.5-0.2,2-0.6c0.5-0.4,0.7-0.9,0.7-1.5v-0.3c0-0.6-0.2-1-0.5-1.3c-0.4-0.3-0.8-0.5-1.5-0.5s-1.1,0.2-1.5,0.5
	c-0.4,0.3-0.6,0.7-0.8,1.3l-0.8-0.3c0.1-0.3,0.2-0.6,0.4-0.9s0.4-0.5,0.6-0.7c0.3-0.2,0.5-0.4,0.9-0.5s0.7-0.2,1.1-0.2
	c0.9,0,1.6,0.2,2.1,0.7c0.5,0.5,0.8,1.1,0.8,1.9c0,0.4-0.1,0.8-0.2,1.1c-0.1,0.3-0.3,0.6-0.6,0.9c-0.3,0.2-0.5,0.4-0.9,0.6
	c-0.3,0.1-0.7,0.2-1.1,0.3v1.7H155z M155.5,157.1c-0.3,0-0.5-0.1-0.6-0.2c-0.1-0.1-0.2-0.3-0.2-0.5v-0.2c0-0.2,0.1-0.3,0.2-0.5
	c0.1-0.1,0.3-0.2,0.6-0.2c0.3,0,0.5,0.1,0.6,0.2c0.1,0.1,0.2,0.3,0.2,0.5v0.2c0,0.2-0.1,0.4-0.2,0.5
	C156,157,155.7,157.1,155.5,157.1z"/>
<path class="st1" d="M19.5,16.8v-2.7h-0.1l-1.8,4.3l-1.8-4.3h-0.1v2.7V21h-0.9v-8.4h1.3l1.5,3.7h0.1l1.5-3.7h1.2V21h-0.9V16.8z
	 M23,21v-8.4h5.2v0.9H24v2.8h4v0.9h-4v2.9h4.2V21H23z M31.8,13.9L31.8,13.9L31.7,21h-0.9v-8.4h1.4l2.9,7h0.1v-7h0.9V21h-1.4
	L31.8,13.9z M41.8,13.5V21h-1v-7.5H38v-0.9h6.6v0.9H41.8z M46.7,21v-0.8h2.1v-6.8h-2.1v-0.8h5.2v0.8h-2.1v6.8h2.1V21H46.7z
	 M57.2,21.1c-0.5,0-1-0.1-1.3-0.3c-0.4-0.2-0.7-0.5-0.9-0.9c-0.2-0.4-0.4-0.8-0.5-1.4c-0.1-0.5-0.2-1.1-0.2-1.8
	c0-0.7,0.1-1.3,0.2-1.8c0.1-0.5,0.3-1,0.5-1.4c0.2-0.4,0.5-0.6,0.9-0.8c0.4-0.2,0.8-0.3,1.3-0.3c0.5,0,1,0.1,1.3,0.3
	c0.4,0.2,0.7,0.5,0.9,0.8s0.4,0.8,0.5,1.4c0.1,0.5,0.2,1.1,0.2,1.8c0,0.7-0.1,1.3-0.2,1.8c-0.1,0.5-0.3,1-0.5,1.4s-0.5,0.7-0.9,0.9
	C58.1,21,57.7,21.1,57.2,21.1z M57.2,20.3c0.3,0,0.6-0.1,0.9-0.2c0.2-0.1,0.4-0.3,0.6-0.6c0.2-0.2,0.3-0.5,0.3-0.9
	c0.1-0.3,0.1-0.7,0.1-1.2v-1.4c0-0.4,0-0.8-0.1-1.1c-0.1-0.3-0.2-0.6-0.3-0.9c-0.2-0.2-0.3-0.4-0.6-0.6c-0.2-0.1-0.5-0.2-0.9-0.2
	c-0.3,0-0.6,0.1-0.9,0.2c-0.2,0.1-0.4,0.3-0.6,0.6c-0.2,0.2-0.3,0.5-0.3,0.9c-0.1,0.3-0.1,0.7-0.1,1.1v1.4c0,0.4,0,0.8,0.1,1.2
	c0.1,0.3,0.2,0.6,0.3,0.9c0.2,0.2,0.3,0.4,0.6,0.6C56.6,20.2,56.8,20.3,57.2,20.3z M63.4,13.9L63.4,13.9L63.4,21h-0.9v-8.4h1.4
	l2.9,7h0.1v-7h0.9V21h-1.4L63.4,13.9z M70.5,21v-8.4h5.2v0.9h-4.2v2.8h4v0.9h-4v2.9h4.2V21H70.5z M78.5,12.6h2.3
	c1,0,1.8,0.4,2.3,1.1c0.5,0.7,0.8,1.7,0.8,3.1s-0.3,2.4-0.8,3.1c-0.5,0.7-1.3,1.1-2.3,1.1h-2.3V12.6z M80.8,20.1
	c0.7,0,1.2-0.2,1.5-0.7c0.3-0.5,0.5-1.1,0.5-2v-1.3c0-0.8-0.2-1.5-0.5-2c-0.3-0.5-0.8-0.7-1.5-0.7h-1.3v6.6H80.8z M94.2,21v-0.8h2.1
	v-6.8h-2.1v-0.8h5.2v0.8h-2.1v6.8h2.1V21H94.2z M103,13.9L103,13.9l-0.1,7.1H102v-8.4h1.4l2.9,7h0.1v-7h0.9V21h-1.4L103,13.9z
	 M120.8,21.1c-1,0-1.8-0.4-2.3-1.1c-0.5-0.7-0.7-1.8-0.7-3.2s0.2-2.5,0.7-3.2c0.5-0.7,1.3-1.1,2.3-1.1c0.4,0,0.7,0.1,1,0.2
	c0.3,0.1,0.5,0.2,0.7,0.4c0.2,0.2,0.4,0.4,0.5,0.6c0.1,0.2,0.3,0.4,0.4,0.7l-0.9,0.4c-0.1-0.2-0.2-0.4-0.3-0.5
	c-0.1-0.2-0.2-0.3-0.3-0.4c-0.1-0.1-0.3-0.2-0.5-0.3c-0.2-0.1-0.4-0.1-0.6-0.1c-0.7,0-1.2,0.3-1.5,0.8c-0.3,0.5-0.5,1.2-0.5,2v1.4
	c0,0.8,0.2,1.5,0.5,2c0.3,0.5,0.8,0.8,1.5,0.8c0.3,0,0.5,0,0.6-0.1c0.2-0.1,0.3-0.2,0.5-0.3c0.1-0.1,0.3-0.3,0.3-0.4
	c0.1-0.2,0.2-0.3,0.3-0.5l0.9,0.4c-0.1,0.2-0.2,0.5-0.4,0.7c-0.1,0.2-0.3,0.4-0.5,0.6c-0.2,0.2-0.4,0.3-0.7,0.4
	C121.5,21.1,121.2,21.1,120.8,21.1z M128.4,21.1c-0.5,0-1-0.1-1.3-0.3c-0.4-0.2-0.7-0.5-0.9-0.9s-0.4-0.8-0.5-1.4
	c-0.1-0.5-0.2-1.1-0.2-1.8c0-0.7,0.1-1.3,0.2-1.8c0.1-0.5,0.3-1,0.5-1.4s0.5-0.6,0.9-0.8c0.4-0.2,0.8-0.3,1.3-0.3
	c0.5,0,1,0.1,1.3,0.3c0.4,0.2,0.7,0.5,0.9,0.8c0.2,0.4,0.4,0.8,0.5,1.4c0.1,0.5,0.2,1.1,0.2,1.8c0,0.7-0.1,1.3-0.2,1.8
	c-0.1,0.5-0.3,1-0.5,1.4c-0.2,0.4-0.5,0.7-0.9,0.9C129.4,21,128.9,21.1,128.4,21.1z M128.4,20.3c0.3,0,0.6-0.1,0.9-0.2
	c0.2-0.1,0.4-0.3,0.6-0.6c0.2-0.2,0.3-0.5,0.3-0.9c0.1-0.3,0.1-0.7,0.1-1.2v-1.4c0-0.4,0-0.8-0.1-1.1c-0.1-0.3-0.2-0.6-0.3-0.9
	c-0.2-0.2-0.3-0.4-0.6-0.6c-0.2-0.1-0.5-0.2-0.9-0.2s-0.6,0.1-0.9,0.2c-0.2,0.1-0.4,0.3-0.6,0.6c-0.2,0.2-0.3,0.5-0.3,0.9
	c-0.1,0.3-0.1,0.7-0.1,1.1v1.4c0,0.4,0,0.8,0.1,1.2c0.1,0.3,0.2,0.6,0.3,0.9c0.2,0.2,0.3,0.4,0.6,0.6
	C127.8,20.2,128.1,20.3,128.4,20.3z M138.2,16.8v-2.7h-0.1l-1.8,4.3l-1.8-4.3h-0.1v2.7V21h-0.9v-8.4h1.3l1.5,3.7h0.1l1.5-3.7h1.2V21
	h-0.9V16.8z M146.1,16.8v-2.7H146l-1.8,4.3l-1.8-4.3h-0.1v2.7V21h-0.9v-8.4h1.3l1.5,3.7h0.1l1.5-3.7h1.2V21h-0.9V16.8z M149.6,21
	v-8.4h5.2v0.9h-4.2v2.8h4v0.9h-4v2.9h4.2V21H149.6z M158.4,13.9L158.4,13.9l-0.1,7.1h-0.9v-8.4h1.4l2.9,7h0.1v-7h0.9V21h-1.4
	L158.4,13.9z M168.5,13.5V21h-1v-7.5h-2.8v-0.9h6.6v0.9H168.5z M182,18.4h-1.6v-0.8h1.7l0.3-1.6h-1.6v-0.8h1.7l0.5-2.6h0.9l-1.5,8.4
	h-0.9L182,18.4z M185.2,12.6h0.9l-0.5,2.6h1.6V16h-1.7l-0.3,1.6h1.6v0.8h-1.7l-0.5,2.6h-0.9L185.2,12.6z M189.2,21v-0.9h2.4v-6.8
	h-0.1l-2.1,2l-0.6-0.6l2.2-2.1h1.6v7.5h2.2V21H189.2z"/>
<rect y="32" class="st5" width="292" height="1"/>
</svg>
