<svg width="292" height="194" viewBox="0 0 292 194" fill="none" xmlns="http://www.w3.org/2000/svg">
<rect width="292" height="194" rx="10" fill="url(#paint0_linear_35_194)"/>
<path d="M18.466 63.932C18.074 63.932 17.78 63.82 17.584 63.596C17.388 63.3813 17.29 63.1107 17.29 62.784V61.902C17.29 61.65 17.3133 61.4307 17.36 61.244C17.416 61.0573 17.4813 60.8893 17.556 60.74C17.6307 60.5907 17.7147 60.46 17.808 60.348C17.9013 60.2267 17.99 60.1147 18.074 60.012C18.2327 59.8253 18.34 59.6667 18.396 59.536C18.4613 59.396 18.494 59.2513 18.494 59.102C18.494 58.7473 18.3307 58.4907 18.004 58.332C17.6773 58.164 17.1967 58.08 16.562 58.08H15.47V57.212H16.562C17.1967 57.212 17.6773 57.1327 18.004 56.974C18.3307 56.806 18.494 56.5447 18.494 56.19C18.494 56.0407 18.4613 55.9007 18.396 55.77C18.34 55.63 18.2327 55.4667 18.074 55.28C17.99 55.1773 17.9013 55.07 17.808 54.958C17.7147 54.8367 17.6307 54.706 17.556 54.566C17.4813 54.4167 17.416 54.2487 17.36 54.062C17.3133 53.866 17.29 53.642 17.29 53.39V52.508C17.29 52.1813 17.388 51.9107 17.584 51.696C17.78 51.472 18.074 51.36 18.466 51.36H20.93V52.228H18.256V53.306C18.256 53.6887 18.312 53.9827 18.424 54.188C18.536 54.3933 18.6667 54.594 18.816 54.79C18.9747 54.9953 19.124 55.21 19.264 55.434C19.404 55.6487 19.474 55.9053 19.474 56.204C19.474 56.596 19.334 56.9133 19.054 57.156C18.7833 57.3987 18.41 57.5527 17.934 57.618V57.674C18.41 57.7393 18.7833 57.8933 19.054 58.136C19.334 58.3787 19.474 58.696 19.474 59.088C19.474 59.3867 19.404 59.648 19.264 59.872C19.124 60.0867 18.9747 60.2967 18.816 60.502C18.6667 60.698 18.536 60.8987 18.424 61.104C18.312 61.3093 18.256 61.6033 18.256 61.986V63.064H20.93V63.932H18.466Z" fill="white"/>
<path d="M17.934 165.36C18.326 165.36 18.62 165.472 18.816 165.696C19.012 165.911 19.11 166.181 19.11 166.508V167.39C19.11 167.642 19.082 167.866 19.026 168.062C18.9793 168.249 18.9187 168.417 18.844 168.566C18.7693 168.706 18.6853 168.837 18.592 168.958C18.4987 169.07 18.41 169.177 18.326 169.28C18.1673 169.467 18.0553 169.63 17.99 169.77C17.934 169.901 17.906 170.041 17.906 170.19C17.906 170.545 18.0693 170.806 18.396 170.974C18.7227 171.133 19.2033 171.212 19.838 171.212H20.93V172.08H19.838C19.2033 172.08 18.7227 172.164 18.396 172.332C18.0693 172.491 17.906 172.747 17.906 173.102C17.906 173.251 17.934 173.396 17.99 173.536C18.0553 173.667 18.1673 173.825 18.326 174.012C18.41 174.115 18.4987 174.227 18.592 174.348C18.6853 174.46 18.7693 174.591 18.844 174.74C18.9187 174.889 18.9793 175.057 19.026 175.244C19.082 175.431 19.11 175.65 19.11 175.902V176.784C19.11 177.111 19.012 177.381 18.816 177.596C18.62 177.82 18.326 177.932 17.934 177.932H15.47V177.064H18.144V175.986C18.144 175.603 18.088 175.309 17.976 175.104C17.864 174.899 17.7333 174.698 17.584 174.502C17.4253 174.297 17.276 174.087 17.136 173.872C16.996 173.648 16.926 173.387 16.926 173.088C16.926 172.696 17.0613 172.379 17.332 172.136C17.612 171.893 17.99 171.739 18.466 171.674V171.618C17.99 171.553 17.612 171.399 17.332 171.156C17.0613 170.913 16.926 170.596 16.926 170.204C16.926 169.905 16.996 169.649 17.136 169.434C17.276 169.21 17.4253 168.995 17.584 168.79C17.7333 168.594 17.864 168.393 17.976 168.188C18.088 167.983 18.144 167.689 18.144 167.306V166.228H15.47V165.36H17.934Z" fill="white"/>
<path d="M35.33 73.776H36.45V74.952H36.506C36.9727 74.056 37.7147 73.608 38.732 73.608C39.6187 73.608 40.3093 73.9393 40.804 74.602C41.308 75.2647 41.56 76.1933 41.56 77.388C41.56 78.5827 41.308 79.5113 40.804 80.174C40.3093 80.8367 39.6187 81.168 38.732 81.168C37.7147 81.168 36.9727 80.72 36.506 79.824H36.45V83.8H35.33V73.776ZM38.298 80.174C38.9513 80.174 39.4553 79.978 39.81 79.586C40.174 79.1847 40.356 78.6573 40.356 78.004V76.772C40.356 76.1187 40.174 75.596 39.81 75.204C39.4553 74.8027 38.9513 74.602 38.298 74.602C38.046 74.602 37.808 74.6347 37.584 74.7C37.36 74.7653 37.164 74.8633 36.996 74.994C36.828 75.1153 36.6927 75.2693 36.59 75.456C36.4967 75.6333 36.45 75.8433 36.45 76.086V78.69C36.45 78.9327 36.4967 79.1473 36.59 79.334C36.6927 79.5113 36.828 79.6653 36.996 79.796C37.164 79.9173 37.36 80.0107 37.584 80.076C37.808 80.1413 38.046 80.174 38.298 80.174ZM46.5945 81.168C46.0905 81.168 45.6332 81.0793 45.2225 80.902C44.8212 80.7247 44.4759 80.4727 44.1865 80.146C43.9065 79.81 43.6919 79.4133 43.5425 78.956C43.3932 78.4893 43.3185 77.9667 43.3185 77.388C43.3185 76.8187 43.3932 76.3007 43.5425 75.834C43.6919 75.3673 43.9065 74.9707 44.1865 74.644C44.4759 74.308 44.8212 74.0513 45.2225 73.874C45.6332 73.6967 46.0905 73.608 46.5945 73.608C47.0985 73.608 47.5512 73.6967 47.9525 73.874C48.3632 74.0513 48.7085 74.308 48.9885 74.644C49.2779 74.9707 49.4972 75.3673 49.6465 75.834C49.7959 76.3007 49.8705 76.8187 49.8705 77.388C49.8705 77.9667 49.7959 78.4893 49.6465 78.956C49.4972 79.4133 49.2779 79.81 48.9885 80.146C48.7085 80.4727 48.3632 80.7247 47.9525 80.902C47.5512 81.0793 47.0985 81.168 46.5945 81.168ZM46.5945 80.202C47.2199 80.202 47.7239 80.0153 48.1065 79.642C48.4892 79.2687 48.6805 78.69 48.6805 77.906V76.87C48.6805 76.086 48.4892 75.5073 48.1065 75.134C47.7239 74.7607 47.2199 74.574 46.5945 74.574C45.9692 74.574 45.4652 74.7607 45.0825 75.134C44.6999 75.5073 44.5085 76.086 44.5085 76.87V77.906C44.5085 78.69 44.6999 79.2687 45.0825 79.642C45.4652 80.0153 45.9692 80.202 46.5945 80.202ZM55.0731 81.168C54.3171 81.168 53.6637 81.042 53.1131 80.79C52.5717 80.5287 52.1097 80.1833 51.7271 79.754L52.4831 79.096C52.8284 79.46 53.2064 79.74 53.6171 79.936C54.0277 80.132 54.5224 80.23 55.1011 80.23C55.6611 80.23 56.1184 80.132 56.4731 79.936C56.8371 79.7307 57.0191 79.4133 57.0191 78.984C57.0191 78.7973 56.9817 78.6433 56.9071 78.522C56.8417 78.3913 56.7484 78.2887 56.6271 78.214C56.5057 78.1393 56.3704 78.0833 56.2211 78.046C56.0717 77.9993 55.9131 77.962 55.7451 77.934L54.6111 77.766C54.3591 77.7287 54.0837 77.6773 53.7851 77.612C53.4957 77.5467 53.2297 77.444 52.9871 77.304C52.7444 77.1547 52.5391 76.9587 52.3711 76.716C52.2124 76.4733 52.1331 76.156 52.1331 75.764C52.1331 75.4 52.2031 75.0873 52.3431 74.826C52.4924 74.5553 52.6977 74.3313 52.9591 74.154C53.2204 73.9673 53.5284 73.832 53.8831 73.748C54.2377 73.6547 54.6251 73.608 55.0451 73.608C55.6984 73.608 56.2631 73.7107 56.7391 73.916C57.2244 74.1213 57.6397 74.406 57.9851 74.77L57.2571 75.456C57.1731 75.3533 57.0657 75.2507 56.9351 75.148C56.8137 75.036 56.6597 74.938 56.4731 74.854C56.2957 74.7607 56.0857 74.686 55.8431 74.63C55.6004 74.574 55.3204 74.546 55.0031 74.546C54.4337 74.546 53.9951 74.644 53.6871 74.84C53.3884 75.036 53.2391 75.3207 53.2391 75.694C53.2391 75.8807 53.2717 76.0393 53.3371 76.17C53.4117 76.2913 53.5097 76.3893 53.6311 76.464C53.7524 76.5387 53.8877 76.5993 54.0371 76.646C54.1957 76.6833 54.3544 76.716 54.5131 76.744L55.6471 76.912C55.9084 76.9493 56.1837 77.0007 56.4731 77.066C56.7624 77.1313 57.0284 77.2387 57.2711 77.388C57.5137 77.528 57.7144 77.7193 57.8731 77.962C58.0411 78.2047 58.1251 78.522 58.1251 78.914C58.1251 79.6327 57.8451 80.188 57.2851 80.58C56.7344 80.972 55.9971 81.168 55.0731 81.168ZM63.7336 81C63.1829 81 62.7769 80.846 62.5156 80.538C62.2636 80.23 62.1376 79.8333 62.1376 79.348V74.728H59.7296V73.776H61.5216C61.7643 73.776 61.9323 73.7293 62.0256 73.636C62.1283 73.5333 62.1796 73.3607 62.1796 73.118V71.228H63.2576V73.776H66.5476V74.728H63.2576V80.048H66.5476V81H63.7336ZM68.4181 83.366V82.33H75.1381V83.366H68.4181ZM80.6207 72.18C80.294 72.18 80.0653 72.1147 79.9347 71.984C79.804 71.844 79.7387 71.6713 79.7387 71.466V71.242C79.7387 71.0367 79.804 70.8687 79.9347 70.738C80.0653 70.598 80.294 70.528 80.6207 70.528C80.9473 70.528 81.176 70.598 81.3067 70.738C81.4373 70.8687 81.5027 71.0367 81.5027 71.242V71.466C81.5027 71.6713 81.4373 71.844 81.3067 71.984C81.176 72.1147 80.9473 72.18 80.6207 72.18ZM77.4567 80.048H80.0607V74.728H77.4567V73.776H81.1807V80.048H83.6167V81H77.4567V80.048ZM90.3172 79.824H90.2612C89.7945 80.72 89.0525 81.168 88.0352 81.168C87.1485 81.168 86.4532 80.8367 85.9492 80.174C85.4545 79.5113 85.2072 78.5827 85.2072 77.388C85.2072 76.1933 85.4545 75.2647 85.9492 74.602C86.4532 73.9393 87.1485 73.608 88.0352 73.608C89.0525 73.608 89.7945 74.056 90.2612 74.952H90.3172V70.64H91.4372V81H90.3172V79.824ZM88.4692 80.174C88.7212 80.174 88.9592 80.1413 89.1832 80.076C89.4072 80.0107 89.6032 79.9173 89.7712 79.796C89.9392 79.6653 90.0699 79.5113 90.1632 79.334C90.2659 79.1473 90.3172 78.9327 90.3172 78.69V76.086C90.3172 75.8433 90.2659 75.6333 90.1632 75.456C90.0699 75.2693 89.9392 75.1153 89.7712 74.994C89.6032 74.8633 89.4072 74.7653 89.1832 74.7C88.9592 74.6347 88.7212 74.602 88.4692 74.602C87.8159 74.602 87.3072 74.8027 86.9432 75.204C86.5885 75.596 86.4112 76.1187 86.4112 76.772V78.004C86.4112 78.6573 86.5885 79.1847 86.9432 79.586C87.3072 79.978 87.8159 80.174 88.4692 80.174ZM40.93 100C40.4913 100 40.1787 99.888 39.992 99.664C39.8053 99.44 39.6887 99.16 39.642 98.824H39.572C39.4133 99.244 39.1567 99.5753 38.802 99.818C38.4567 100.051 37.99 100.168 37.402 100.168C36.646 100.168 36.044 99.972 35.596 99.58C35.148 99.188 34.924 98.6513 34.924 97.97C34.924 97.298 35.1667 96.78 35.652 96.416C36.1467 96.052 36.94 95.87 38.032 95.87H39.572V95.156C39.572 94.624 39.4227 94.2273 39.124 93.966C38.8253 93.6953 38.4007 93.56 37.85 93.56C37.3647 93.56 36.968 93.658 36.66 93.854C36.352 94.0407 36.1047 94.2973 35.918 94.624L35.162 94.064C35.2553 93.8773 35.3813 93.6953 35.54 93.518C35.6987 93.3407 35.8947 93.1867 36.128 93.056C36.3613 92.916 36.6273 92.8087 36.926 92.734C37.2247 92.65 37.556 92.608 37.92 92.608C38.7693 92.608 39.4413 92.8227 39.936 93.252C40.44 93.6813 40.692 94.2787 40.692 95.044V99.02H41.7V100H40.93ZM37.598 99.23C37.8873 99.23 38.1487 99.1973 38.382 99.132C38.6247 99.0573 38.8347 98.964 39.012 98.852C39.1893 98.7307 39.3247 98.5907 39.418 98.432C39.5207 98.264 39.572 98.0867 39.572 97.9V96.71H38.032C37.36 96.71 36.87 96.8033 36.562 96.99C36.254 97.1767 36.1 97.4473 36.1 97.802V98.096C36.1 98.4693 36.2307 98.754 36.492 98.95C36.7627 99.1367 37.1313 99.23 37.598 99.23ZM46.8465 100.168C46.3239 100.168 45.8572 100.079 45.4465 99.902C45.0452 99.7153 44.7045 99.4587 44.4245 99.132C44.1445 98.8053 43.9299 98.4087 43.7805 97.942C43.6405 97.4753 43.5705 96.9573 43.5705 96.388C43.5705 95.8187 43.6452 95.3007 43.7945 94.834C43.9439 94.3673 44.1585 93.9707 44.4385 93.644C44.7185 93.308 45.0592 93.0513 45.4605 92.874C45.8619 92.6967 46.3192 92.608 46.8325 92.608C47.5325 92.608 48.1019 92.762 48.5405 93.07C48.9792 93.378 49.3012 93.7793 49.5065 94.274L48.6105 94.75C48.4799 94.3767 48.2605 94.0873 47.9525 93.882C47.6539 93.6767 47.2805 93.574 46.8325 93.574C46.5059 93.574 46.2119 93.63 45.9505 93.742C45.6985 93.8447 45.4839 93.994 45.3065 94.19C45.1292 94.386 44.9939 94.6193 44.9005 94.89C44.8165 95.1607 44.7745 95.4547 44.7745 95.772V97.004C44.7745 97.3213 44.8165 97.6153 44.9005 97.886C44.9939 98.1567 45.1292 98.39 45.3065 98.586C45.4839 98.782 45.7032 98.936 45.9645 99.048C46.2259 99.1507 46.5245 99.202 46.8605 99.202C47.3459 99.202 47.7472 99.09 48.0645 98.866C48.3819 98.642 48.6339 98.334 48.8205 97.942L49.6185 98.488C49.4039 98.9733 49.0679 99.3747 48.6105 99.692C48.1625 100.009 47.5745 100.168 46.8465 100.168ZM55.3391 100C54.7884 100 54.3824 99.846 54.1211 99.538C53.8691 99.23 53.7431 98.8333 53.7431 98.348V93.728H51.3351V92.776H53.1271C53.3697 92.776 53.5377 92.7293 53.6311 92.636C53.7337 92.5333 53.7851 92.3607 53.7851 92.118V90.228H54.8631V92.776H58.1531V93.728H54.8631V99.048H58.1531V100H55.3391ZM63.3836 100.168C62.8796 100.168 62.4223 100.079 62.0116 99.902C61.6103 99.7247 61.2649 99.4727 60.9756 99.146C60.6956 98.81 60.4809 98.4133 60.3316 97.956C60.1823 97.4893 60.1076 96.9667 60.1076 96.388C60.1076 95.8187 60.1823 95.3007 60.3316 94.834C60.4809 94.3673 60.6956 93.9707 60.9756 93.644C61.2649 93.308 61.6103 93.0513 62.0116 92.874C62.4223 92.6967 62.8796 92.608 63.3836 92.608C63.8876 92.608 64.3403 92.6967 64.7416 92.874C65.1523 93.0513 65.4976 93.308 65.7776 93.644C66.0669 93.9707 66.2863 94.3673 66.4356 94.834C66.5849 95.3007 66.6596 95.8187 66.6596 96.388C66.6596 96.9667 66.5849 97.4893 66.4356 97.956C66.2863 98.4133 66.0669 98.81 65.7776 99.146C65.4976 99.4727 65.1523 99.7247 64.7416 99.902C64.3403 100.079 63.8876 100.168 63.3836 100.168ZM63.3836 99.202C64.0089 99.202 64.5129 99.0153 64.8956 98.642C65.2783 98.2687 65.4696 97.69 65.4696 96.906V95.87C65.4696 95.086 65.2783 94.5073 64.8956 94.134C64.5129 93.7607 64.0089 93.574 63.3836 93.574C62.7583 93.574 62.2543 93.7607 61.8716 94.134C61.4889 94.5073 61.2976 95.086 61.2976 95.87V96.906C61.2976 97.69 61.4889 98.2687 61.8716 98.642C62.2543 99.0153 62.7583 99.202 63.3836 99.202ZM68.6561 99.048H70.7701V93.728H68.6561V92.776H71.8901V94.596H71.9601C72.1095 94.0267 72.3895 93.5833 72.8001 93.266C73.2201 92.9393 73.7521 92.776 74.3961 92.776H75.4041V93.896H74.0461C73.4021 93.896 72.8795 94.0827 72.4781 94.456C72.0861 94.8293 71.8901 95.3193 71.8901 95.926V99.048H74.6901V100H68.6561V99.048ZM76.8127 102.366V101.33H83.5327V102.366H76.8127ZM89.0152 91.18C88.6885 91.18 88.4599 91.1147 88.3292 90.984C88.1985 90.844 88.1332 90.6713 88.1332 90.466V90.242C88.1332 90.0367 88.1985 89.8687 88.3292 89.738C88.4599 89.598 88.6885 89.528 89.0152 89.528C89.3419 89.528 89.5705 89.598 89.7012 89.738C89.8319 89.8687 89.8972 90.0367 89.8972 90.242V90.466C89.8972 90.6713 89.8319 90.844 89.7012 90.984C89.5705 91.1147 89.3419 91.18 89.0152 91.18ZM85.8512 99.048H88.4552V93.728H85.8512V92.776H89.5752V99.048H92.0112V100H85.8512V99.048ZM98.7117 98.824H98.6557C98.1891 99.72 97.4471 100.168 96.4297 100.168C95.5431 100.168 94.8477 99.8367 94.3437 99.174C93.8491 98.5113 93.6017 97.5827 93.6017 96.388C93.6017 95.1933 93.8491 94.2647 94.3437 93.602C94.8477 92.9393 95.5431 92.608 96.4297 92.608C97.4471 92.608 98.1891 93.056 98.6557 93.952H98.7117V89.64H99.8317V100H98.7117V98.824ZM96.8637 99.174C97.1157 99.174 97.3537 99.1413 97.5777 99.076C97.8017 99.0107 97.9977 98.9173 98.1657 98.796C98.3337 98.6653 98.4644 98.5113 98.5577 98.334C98.6604 98.1473 98.7117 97.9327 98.7117 97.69V95.086C98.7117 94.8433 98.6604 94.6333 98.5577 94.456C98.4644 94.2693 98.3337 94.1153 98.1657 93.994C97.9977 93.8633 97.8017 93.7653 97.5777 93.7C97.3537 93.6347 97.1157 93.602 96.8637 93.602C96.2104 93.602 95.7017 93.8027 95.3377 94.204C94.9831 94.596 94.8057 95.1187 94.8057 95.772V97.004C94.8057 97.6573 94.9831 98.1847 95.3377 98.586C95.7017 98.978 96.2104 99.174 96.8637 99.174ZM38.452 119.168C37.9293 119.168 37.4627 119.079 37.052 118.902C36.6507 118.715 36.31 118.459 36.03 118.132C35.75 117.805 35.5353 117.409 35.386 116.942C35.246 116.475 35.176 115.957 35.176 115.388C35.176 114.819 35.2507 114.301 35.4 113.834C35.5493 113.367 35.764 112.971 36.044 112.644C36.324 112.308 36.6647 112.051 37.066 111.874C37.4673 111.697 37.9247 111.608 38.438 111.608C39.138 111.608 39.7073 111.762 40.146 112.07C40.5847 112.378 40.9067 112.779 41.112 113.274L40.216 113.75C40.0853 113.377 39.866 113.087 39.558 112.882C39.2593 112.677 38.886 112.574 38.438 112.574C38.1113 112.574 37.8173 112.63 37.556 112.742C37.304 112.845 37.0893 112.994 36.912 113.19C36.7347 113.386 36.5993 113.619 36.506 113.89C36.422 114.161 36.38 114.455 36.38 114.772V116.004C36.38 116.321 36.422 116.615 36.506 116.886C36.5993 117.157 36.7347 117.39 36.912 117.586C37.0893 117.782 37.3087 117.936 37.57 118.048C37.8313 118.151 38.13 118.202 38.466 118.202C38.9513 118.202 39.3527 118.09 39.67 117.866C39.9873 117.642 40.2393 117.334 40.426 116.942L41.224 117.488C41.0093 117.973 40.6733 118.375 40.216 118.692C39.768 119.009 39.18 119.168 38.452 119.168ZM46.5945 119.168C46.0905 119.168 45.6332 119.079 45.2225 118.902C44.8212 118.725 44.4759 118.473 44.1865 118.146C43.9065 117.81 43.6919 117.413 43.5425 116.956C43.3932 116.489 43.3185 115.967 43.3185 115.388C43.3185 114.819 43.3932 114.301 43.5425 113.834C43.6919 113.367 43.9065 112.971 44.1865 112.644C44.4759 112.308 44.8212 112.051 45.2225 111.874C45.6332 111.697 46.0905 111.608 46.5945 111.608C47.0985 111.608 47.5512 111.697 47.9525 111.874C48.3632 112.051 48.7085 112.308 48.9885 112.644C49.2779 112.971 49.4972 113.367 49.6465 113.834C49.7959 114.301 49.8705 114.819 49.8705 115.388C49.8705 115.967 49.7959 116.489 49.6465 116.956C49.4972 117.413 49.2779 117.81 48.9885 118.146C48.7085 118.473 48.3632 118.725 47.9525 118.902C47.5512 119.079 47.0985 119.168 46.5945 119.168ZM46.5945 118.202C47.2199 118.202 47.7239 118.015 48.1065 117.642C48.4892 117.269 48.6805 116.69 48.6805 115.906V114.87C48.6805 114.086 48.4892 113.507 48.1065 113.134C47.7239 112.761 47.2199 112.574 46.5945 112.574C45.9692 112.574 45.4652 112.761 45.0825 113.134C44.6999 113.507 44.5085 114.086 44.5085 114.87V115.906C44.5085 116.69 44.6999 117.269 45.0825 117.642C45.4652 118.015 45.9692 118.202 46.5945 118.202ZM52.1611 119V111.776H53.2811V112.952H53.3371C53.4117 112.775 53.5051 112.607 53.6171 112.448C53.7291 112.28 53.8644 112.135 54.0231 112.014C54.1911 111.893 54.3871 111.795 54.6111 111.72C54.8351 111.645 55.0964 111.608 55.3951 111.608C56.1511 111.608 56.7577 111.851 57.2151 112.336C57.6724 112.812 57.9011 113.489 57.9011 114.366V119H56.7811V114.562C56.7811 113.899 56.6364 113.409 56.3471 113.092C56.0577 112.765 55.6331 112.602 55.0731 112.602C54.8491 112.602 54.6297 112.63 54.4151 112.686C54.2004 112.742 54.0091 112.826 53.8411 112.938C53.6731 113.05 53.5377 113.195 53.4351 113.372C53.3324 113.549 53.2811 113.755 53.2811 113.988V119H52.1611ZM63.7336 119C63.1829 119 62.7769 118.846 62.5156 118.538C62.2636 118.23 62.1376 117.833 62.1376 117.348V112.728H59.7296V111.776H61.5216C61.7643 111.776 61.9323 111.729 62.0256 111.636C62.1283 111.533 62.1796 111.361 62.1796 111.118V109.228H63.2576V111.776H66.5476V112.728H63.2576V118.048H66.5476V119H63.7336ZM71.9041 119.168C71.3815 119.168 70.9101 119.079 70.4901 118.902C70.0795 118.725 69.7248 118.473 69.4261 118.146C69.1368 117.81 68.9128 117.413 68.7541 116.956C68.5955 116.489 68.5161 115.971 68.5161 115.402C68.5161 114.823 68.5955 114.301 68.7541 113.834C68.9221 113.367 69.1508 112.971 69.4401 112.644C69.7295 112.308 70.0748 112.051 70.4761 111.874C70.8868 111.697 71.3395 111.608 71.8341 111.608C72.3195 111.608 72.7581 111.697 73.1501 111.874C73.5515 112.051 73.8921 112.299 74.1721 112.616C74.4521 112.924 74.6668 113.293 74.8161 113.722C74.9655 114.151 75.0401 114.623 75.0401 115.136V115.668H69.6921V116.004C69.6921 116.321 69.7435 116.615 69.8461 116.886C69.9488 117.157 70.0935 117.39 70.2801 117.586C70.4761 117.782 70.7095 117.936 70.9801 118.048C71.2601 118.151 71.5681 118.202 71.9041 118.202C72.3895 118.202 72.8095 118.09 73.1641 117.866C73.5188 117.642 73.7895 117.334 73.9761 116.942L74.8021 117.502C74.5875 117.987 74.2281 118.389 73.7241 118.706C73.2295 119.014 72.6228 119.168 71.9041 119.168ZM71.8341 112.532C71.5261 112.532 71.2415 112.588 70.9801 112.7C70.7188 112.812 70.4901 112.966 70.2941 113.162C70.1075 113.358 69.9581 113.591 69.8461 113.862C69.7435 114.123 69.6921 114.413 69.6921 114.73V114.828H73.8361V114.674C73.8361 114.357 73.7848 114.067 73.6821 113.806C73.5888 113.545 73.4535 113.321 73.2761 113.134C73.1081 112.938 72.8981 112.789 72.6461 112.686C72.4035 112.583 72.1328 112.532 71.8341 112.532ZM77.3447 119V111.776H78.4647V112.952H78.5207C78.5953 112.775 78.6887 112.607 78.8007 112.448C78.9127 112.28 79.048 112.135 79.2067 112.014C79.3747 111.893 79.5707 111.795 79.7947 111.72C80.0187 111.645 80.28 111.608 80.5787 111.608C81.3347 111.608 81.9413 111.851 82.3987 112.336C82.856 112.812 83.0847 113.489 83.0847 114.366V119H81.9647V114.562C81.9647 113.899 81.82 113.409 81.5307 113.092C81.2413 112.765 80.8167 112.602 80.2567 112.602C80.0327 112.602 79.8133 112.63 79.5987 112.686C79.384 112.742 79.1927 112.826 79.0247 112.938C78.8567 113.05 78.7213 113.195 78.6187 113.372C78.516 113.549 78.4647 113.755 78.4647 113.988V119H77.3447ZM88.9172 119C88.3665 119 87.9605 118.846 87.6992 118.538C87.4472 118.23 87.3212 117.833 87.3212 117.348V112.728H84.9132V111.776H86.7052C86.9479 111.776 87.1159 111.729 87.2092 111.636C87.3119 111.533 87.3632 111.361 87.3632 111.118V109.228H88.4412V111.776H91.7312V112.728H88.4412V118.048H91.7312V119H88.9172Z" fill="#FFE14D"/>
<path d="M96.9617 81.126C96.5791 81.126 96.3084 81.0467 96.1497 80.888C96.0004 80.7293 95.9257 80.5287 95.9257 80.286V80.034C95.9257 79.7913 96.0004 79.5907 96.1497 79.432C96.3084 79.2733 96.5791 79.194 96.9617 79.194C97.3444 79.194 97.6104 79.2733 97.7597 79.432C97.9184 79.5907 97.9977 79.7913 97.9977 80.034V80.286C97.9977 80.5287 97.9184 80.7293 97.7597 80.888C97.6104 81.0467 97.3444 81.126 96.9617 81.126ZM96.9617 75.582C96.5791 75.582 96.3084 75.5027 96.1497 75.344C96.0004 75.1853 95.9257 74.9847 95.9257 74.742V74.49C95.9257 74.2473 96.0004 74.0467 96.1497 73.888C96.3084 73.7293 96.5791 73.65 96.9617 73.65C97.3444 73.65 97.6104 73.7293 97.7597 73.888C97.9184 74.0467 97.9977 74.2473 97.9977 74.49V74.742C97.9977 74.9847 97.9184 75.1853 97.7597 75.344C97.6104 75.5027 97.3444 75.582 96.9617 75.582ZM121.543 79.096H123.349L121.739 82.974H120.801L121.543 79.096ZM105.356 100.126C104.974 100.126 104.703 100.047 104.544 99.888C104.395 99.7293 104.32 99.5287 104.32 99.286V99.034C104.32 98.7913 104.395 98.5907 104.544 98.432C104.703 98.2733 104.974 98.194 105.356 98.194C105.739 98.194 106.005 98.2733 106.154 98.432C106.313 98.5907 106.392 98.7913 106.392 99.034V99.286C106.392 99.5287 106.313 99.7293 106.154 99.888C106.005 100.047 105.739 100.126 105.356 100.126ZM105.356 94.582C104.974 94.582 104.703 94.5027 104.544 94.344C104.395 94.1853 104.32 93.9847 104.32 93.742V93.49C104.32 93.2473 104.395 93.0467 104.544 92.888C104.703 92.7293 104.974 92.65 105.356 92.65C105.739 92.65 106.005 92.7293 106.154 92.888C106.313 93.0467 106.392 93.2473 106.392 93.49V93.742C106.392 93.9847 106.313 94.1853 106.154 94.344C106.005 94.5027 105.739 94.582 105.356 94.582ZM138.332 98.096H140.138L138.528 101.974H137.59L138.332 98.096ZM96.9617 119.126C96.5791 119.126 96.3084 119.047 96.1497 118.888C96.0004 118.729 95.9257 118.529 95.9257 118.286V118.034C95.9257 117.791 96.0004 117.591 96.1497 117.432C96.3084 117.273 96.5791 117.194 96.9617 117.194C97.3444 117.194 97.6104 117.273 97.7597 117.432C97.9184 117.591 97.9977 117.791 97.9977 118.034V118.286C97.9977 118.529 97.9184 118.729 97.7597 118.888C97.6104 119.047 97.3444 119.126 96.9617 119.126ZM96.9617 113.582C96.5791 113.582 96.3084 113.503 96.1497 113.344C96.0004 113.185 95.9257 112.985 95.9257 112.742V112.49C95.9257 112.247 96.0004 112.047 96.1497 111.888C96.3084 111.729 96.5791 111.65 96.9617 111.65C97.3444 111.65 97.6104 111.729 97.7597 111.888C97.9184 112.047 97.9977 112.247 97.9977 112.49V112.742C97.9977 112.985 97.9184 113.185 97.7597 113.344C97.6104 113.503 97.3444 113.582 96.9617 113.582ZM112.309 108.64H113.247L112.505 112.518H110.699L112.309 108.64ZM115.655 108.64H116.593L115.851 112.518H114.045L115.655 108.64ZM237.751 146.64H239.557L237.947 150.518H237.009L237.751 146.64ZM241.097 146.64H242.903L241.293 150.518H240.355L241.097 146.64ZM247.461 155.096H249.267L247.657 158.974H246.719L247.461 155.096ZM248.063 151.582C247.681 151.582 247.41 151.503 247.251 151.344C247.102 151.185 247.027 150.985 247.027 150.742V150.49C247.027 150.247 247.102 150.047 247.251 149.888C247.41 149.729 247.681 149.65 248.063 149.65C248.446 149.65 248.712 149.729 248.861 149.888C249.02 150.047 249.099 150.247 249.099 150.49V150.742C249.099 150.985 249.02 151.185 248.861 151.344C248.712 151.503 248.446 151.582 248.063 151.582Z" fill="white"/>
<path d="M117.055 74.812C117.055 75.54 116.943 76.226 116.719 76.87C116.504 77.5047 116.224 78.088 115.879 78.62C115.533 79.1427 115.151 79.6093 114.731 80.02C114.32 80.4213 113.914 80.748 113.513 81H112.001C112.533 80.6173 113.004 80.244 113.415 79.88C113.835 79.516 114.203 79.138 114.521 78.746C114.838 78.3447 115.104 77.92 115.319 77.472C115.533 77.0147 115.711 76.5013 115.851 75.932L115.781 75.904C115.538 76.3053 115.225 76.6413 114.843 76.912C114.469 77.1733 113.979 77.304 113.373 77.304C112.943 77.304 112.547 77.234 112.183 77.094C111.828 76.954 111.52 76.7533 111.259 76.492C111.007 76.2307 110.806 75.918 110.657 75.554C110.517 75.1807 110.447 74.7607 110.447 74.294C110.447 73.818 110.521 73.384 110.671 72.992C110.829 72.5907 111.053 72.25 111.343 71.97C111.632 71.6807 111.977 71.4567 112.379 71.298C112.789 71.1393 113.242 71.06 113.737 71.06C114.25 71.06 114.712 71.1487 115.123 71.326C115.533 71.494 115.879 71.7413 116.159 72.068C116.448 72.3853 116.667 72.7773 116.817 73.244C116.975 73.7107 117.055 74.2333 117.055 74.812ZM113.751 76.338C114.423 76.338 114.941 76.156 115.305 75.792C115.678 75.428 115.865 74.9147 115.865 74.252V74.14C115.865 73.4773 115.678 72.964 115.305 72.6C114.941 72.236 114.423 72.054 113.751 72.054C113.079 72.054 112.556 72.236 112.183 72.6C111.819 72.964 111.637 73.4773 111.637 74.14V74.252C111.637 74.9147 111.819 75.428 112.183 75.792C112.556 76.156 113.079 76.338 113.751 76.338ZM121.725 94.372C122.407 94.372 122.915 94.2227 123.251 93.924C123.597 93.616 123.769 93.224 123.769 92.748V92.65C123.769 92.1273 123.601 91.7353 123.265 91.474C122.939 91.2127 122.509 91.082 121.977 91.082C121.455 91.082 121.03 91.1987 120.703 91.432C120.386 91.656 120.125 91.9547 119.919 92.328L119.037 91.656C119.159 91.46 119.308 91.2687 119.485 91.082C119.663 90.886 119.868 90.7133 120.101 90.564C120.344 90.4147 120.619 90.2933 120.927 90.2C121.245 90.1067 121.604 90.06 122.005 90.06C122.425 90.06 122.817 90.116 123.181 90.228C123.545 90.3307 123.863 90.4893 124.133 90.704C124.404 90.9093 124.614 91.166 124.763 91.474C124.922 91.782 125.001 92.132 125.001 92.524C125.001 92.8413 124.95 93.126 124.847 93.378C124.754 93.63 124.619 93.8493 124.441 94.036C124.273 94.2227 124.073 94.3813 123.839 94.512C123.606 94.6427 123.359 94.7407 123.097 94.806V94.862C123.368 94.918 123.629 95.0113 123.881 95.142C124.133 95.2633 124.357 95.4267 124.553 95.632C124.749 95.828 124.903 96.0707 125.015 96.36C125.137 96.64 125.197 96.962 125.197 97.326C125.197 97.746 125.113 98.1333 124.945 98.488C124.787 98.8333 124.558 99.132 124.259 99.384C123.97 99.6267 123.615 99.818 123.195 99.958C122.785 100.098 122.327 100.168 121.823 100.168C121.394 100.168 121.011 100.121 120.675 100.028C120.349 99.9347 120.055 99.8087 119.793 99.65C119.541 99.4913 119.317 99.314 119.121 99.118C118.935 98.922 118.767 98.7167 118.617 98.502L119.499 97.83C119.63 98.026 119.765 98.2033 119.905 98.362C120.045 98.5207 120.204 98.6607 120.381 98.782C120.568 98.894 120.778 98.9827 121.011 99.048C121.245 99.1133 121.515 99.146 121.823 99.146C122.514 99.146 123.041 98.9873 123.405 98.67C123.779 98.3527 123.965 97.9 123.965 97.312V97.2C123.965 96.6213 123.783 96.1733 123.419 95.856C123.065 95.5387 122.528 95.38 121.809 95.38H120.647V94.372H121.725ZM133.858 100H127.334V98.796L130.596 95.856C131.072 95.4267 131.464 94.988 131.772 94.54C132.08 94.0827 132.234 93.602 132.234 93.098V92.93C132.234 92.342 132.08 91.8893 131.772 91.572C131.464 91.2453 131.007 91.082 130.4 91.082C129.803 91.082 129.341 91.236 129.014 91.544C128.697 91.8427 128.459 92.244 128.3 92.748L127.25 92.356C127.343 92.0667 127.469 91.7867 127.628 91.516C127.796 91.236 128.006 90.9887 128.258 90.774C128.51 90.5593 128.813 90.3867 129.168 90.256C129.532 90.1253 129.952 90.06 130.428 90.06C130.913 90.06 131.343 90.13 131.716 90.27C132.099 90.41 132.416 90.606 132.668 90.858C132.929 91.11 133.125 91.4087 133.256 91.754C133.396 92.0993 133.466 92.4773 133.466 92.888C133.466 93.2613 133.41 93.6113 133.298 93.938C133.195 94.2647 133.046 94.5773 132.85 94.876C132.663 95.1747 132.435 95.4687 132.164 95.758C131.903 96.038 131.609 96.318 131.282 96.598L128.552 98.978H133.858V100Z" fill="#E300BD"/>
<path d="M124.399 120.54H122.523C121.833 120.54 121.259 120.414 120.801 120.162C120.344 119.919 119.98 119.555 119.709 119.07C119.439 118.585 119.247 117.992 119.135 117.292C119.033 116.583 118.981 115.766 118.981 114.842C118.981 113.778 119.047 112.877 119.177 112.14C119.308 111.403 119.504 110.81 119.765 110.362C120.027 109.905 120.353 109.573 120.745 109.368C121.147 109.163 121.618 109.06 122.159 109.06C122.701 109.06 123.158 109.153 123.531 109.34C123.914 109.517 124.222 109.765 124.455 110.082C124.689 110.39 124.857 110.754 124.959 111.174C125.062 111.594 125.113 112.042 125.113 112.518V117.698H124.399V116.9H124.343C124.241 117.152 124.077 117.376 123.853 117.572C123.629 117.759 123.312 117.852 122.901 117.852C122.313 117.852 121.847 117.619 121.501 117.152C121.165 116.685 120.997 115.934 120.997 114.898C120.997 113.862 121.165 113.111 121.501 112.644C121.847 112.177 122.313 111.944 122.901 111.944C123.312 111.944 123.629 112.037 123.853 112.224C124.077 112.411 124.241 112.635 124.343 112.896H124.399V112.518C124.399 112.098 124.357 111.715 124.273 111.37C124.199 111.025 124.073 110.731 123.895 110.488C123.718 110.236 123.489 110.045 123.209 109.914C122.929 109.774 122.589 109.704 122.187 109.704C121.749 109.704 121.375 109.793 121.067 109.97C120.759 110.138 120.507 110.404 120.311 110.768C120.115 111.132 119.971 111.599 119.877 112.168C119.784 112.737 119.737 113.419 119.737 114.212V115.556C119.737 116.181 119.775 116.76 119.849 117.292C119.924 117.815 120.064 118.272 120.269 118.664C120.475 119.047 120.759 119.345 121.123 119.56C121.487 119.775 121.954 119.882 122.523 119.882H124.399V120.54ZM123.139 117.236C123.531 117.236 123.839 117.124 124.063 116.9C124.287 116.676 124.399 116.354 124.399 115.934V113.848C124.399 113.428 124.287 113.106 124.063 112.882C123.839 112.658 123.531 112.546 123.139 112.546C122.701 112.546 122.36 112.7 122.117 113.008C121.875 113.307 121.753 113.82 121.753 114.548V115.248C121.753 115.967 121.875 116.48 122.117 116.788C122.36 117.087 122.701 117.236 123.139 117.236ZM130.54 119.168C130.101 119.168 129.709 119.126 129.364 119.042C129.019 118.958 128.706 118.846 128.426 118.706C128.146 118.557 127.894 118.379 127.67 118.174C127.455 117.969 127.259 117.745 127.082 117.502L127.698 116.998C128.062 117.465 128.463 117.824 128.902 118.076C129.341 118.319 129.896 118.44 130.568 118.44C131.352 118.44 131.954 118.267 132.374 117.922C132.794 117.567 133.004 117.059 133.004 116.396C133.004 115.789 132.827 115.341 132.472 115.052C132.127 114.763 131.632 114.567 130.988 114.464L129.896 114.282C129.411 114.198 129.005 114.072 128.678 113.904C128.361 113.736 128.104 113.54 127.908 113.316C127.712 113.083 127.572 112.826 127.488 112.546C127.413 112.266 127.376 111.977 127.376 111.678C127.376 110.801 127.661 110.147 128.23 109.718C128.809 109.279 129.583 109.06 130.554 109.06C131.347 109.06 131.996 109.191 132.5 109.452C133.013 109.704 133.424 110.054 133.732 110.502L133.144 111.02C132.864 110.628 132.519 110.325 132.108 110.11C131.707 109.895 131.179 109.788 130.526 109.788C129.798 109.788 129.229 109.947 128.818 110.264C128.417 110.572 128.216 111.034 128.216 111.65C128.216 112.219 128.384 112.653 128.72 112.952C129.056 113.241 129.555 113.437 130.218 113.54L131.296 113.722C131.791 113.806 132.201 113.937 132.528 114.114C132.855 114.282 133.116 114.483 133.312 114.716C133.508 114.949 133.643 115.206 133.718 115.486C133.802 115.766 133.844 116.06 133.844 116.368C133.844 117.264 133.555 117.955 132.976 118.44C132.397 118.925 131.585 119.168 130.54 119.168ZM139.214 119.168C138.206 119.168 137.427 118.837 136.876 118.174C136.326 117.511 136.05 116.583 136.05 115.388C136.05 114.193 136.326 113.265 136.876 112.602C137.436 111.939 138.211 111.608 139.2 111.608C139.872 111.608 140.423 111.762 140.852 112.07C141.282 112.369 141.59 112.756 141.776 113.232L141.132 113.554C140.983 113.153 140.745 112.845 140.418 112.63C140.092 112.415 139.686 112.308 139.2 112.308C138.463 112.308 137.894 112.546 137.492 113.022C137.1 113.489 136.904 114.109 136.904 114.884V115.892C136.904 116.667 137.1 117.292 137.492 117.768C137.894 118.235 138.468 118.468 139.214 118.468C139.728 118.468 140.157 118.351 140.502 118.118C140.848 117.885 141.114 117.558 141.3 117.138L141.888 117.516C141.683 117.992 141.361 118.389 140.922 118.706C140.484 119.014 139.914 119.168 139.214 119.168ZM147.329 119.168C146.34 119.168 145.565 118.837 145.005 118.174C144.454 117.511 144.179 116.583 144.179 115.388C144.179 114.193 144.454 113.265 145.005 112.602C145.565 111.939 146.34 111.608 147.329 111.608C148.318 111.608 149.088 111.939 149.639 112.602C150.199 113.265 150.479 114.193 150.479 115.388C150.479 116.583 150.199 117.511 149.639 118.174C149.088 118.837 148.318 119.168 147.329 119.168ZM147.329 118.468C148.038 118.468 148.598 118.244 149.009 117.796C149.42 117.348 149.625 116.695 149.625 115.836V114.94C149.625 114.081 149.42 113.428 149.009 112.98C148.598 112.532 148.038 112.308 147.329 112.308C146.62 112.308 146.06 112.532 145.649 112.98C145.238 113.428 145.033 114.081 145.033 114.94V115.836C145.033 116.695 145.238 117.348 145.649 117.796C146.06 118.244 146.62 118.468 147.329 118.468ZM155.751 119C155.359 119 155.07 118.897 154.883 118.692C154.706 118.477 154.617 118.193 154.617 117.838V112.462H152.055V111.776H154.085C154.291 111.776 154.435 111.734 154.519 111.65C154.603 111.566 154.645 111.421 154.645 111.216V109.228H155.415V111.776H158.859V112.462H155.415V118.314H158.859V119H155.751ZM164.146 119C163.754 119 163.465 118.897 163.278 118.692C163.101 118.477 163.012 118.193 163.012 117.838V112.462H160.45V111.776H162.48C162.685 111.776 162.83 111.734 162.914 111.65C162.998 111.566 163.04 111.421 163.04 111.216V109.228H163.81V111.776H167.254V112.462H163.81V118.314H167.254V119H164.146ZM183.329 109.228V116.424C183.329 116.853 183.259 117.236 183.119 117.572C182.988 117.908 182.802 118.197 182.559 118.44C182.316 118.673 182.022 118.855 181.677 118.986C181.341 119.107 180.968 119.168 180.557 119.168C179.838 119.168 179.241 118.991 178.765 118.636C178.298 118.272 178 117.763 177.869 117.11L178.667 116.928C178.77 117.367 178.966 117.731 179.255 118.02C179.554 118.3 179.992 118.44 180.571 118.44C181.187 118.44 181.658 118.258 181.985 117.894C182.321 117.53 182.489 116.993 182.489 116.284V109.956H178.793V109.228H183.329ZM191.178 117.88H191.122C190.982 118.216 190.744 118.515 190.408 118.776C190.081 119.037 189.614 119.168 189.008 119.168C188.224 119.168 187.612 118.935 187.174 118.468C186.744 117.992 186.53 117.315 186.53 116.438V111.776H187.328V116.298C187.328 117.045 187.486 117.591 187.804 117.936C188.13 118.281 188.602 118.454 189.218 118.454C189.47 118.454 189.712 118.421 189.946 118.356C190.179 118.291 190.384 118.193 190.562 118.062C190.748 117.931 190.898 117.768 191.01 117.572C191.122 117.367 191.178 117.129 191.178 116.858V111.776H191.976V119H191.178V117.88ZM197.85 119.168C197.122 119.168 196.487 119.047 195.946 118.804C195.414 118.552 194.952 118.202 194.56 117.754L195.106 117.278C195.461 117.689 195.857 117.997 196.296 118.202C196.735 118.398 197.257 118.496 197.864 118.496C198.499 118.496 199.012 118.375 199.404 118.132C199.805 117.889 200.006 117.516 200.006 117.012C200.006 116.788 199.964 116.606 199.88 116.466C199.805 116.317 199.698 116.195 199.558 116.102C199.418 116.009 199.255 115.939 199.068 115.892C198.881 115.836 198.676 115.794 198.452 115.766L197.332 115.612C197.052 115.575 196.767 115.523 196.478 115.458C196.198 115.383 195.941 115.276 195.708 115.136C195.484 114.996 195.297 114.809 195.148 114.576C195.008 114.343 194.938 114.044 194.938 113.68C194.938 113.325 195.008 113.017 195.148 112.756C195.288 112.495 195.484 112.28 195.736 112.112C195.988 111.944 196.282 111.818 196.618 111.734C196.963 111.65 197.332 111.608 197.724 111.608C198.396 111.608 198.961 111.72 199.418 111.944C199.885 112.159 200.277 112.429 200.594 112.756L200.062 113.26C199.959 113.148 199.838 113.036 199.698 112.924C199.567 112.803 199.404 112.695 199.208 112.602C199.021 112.509 198.802 112.434 198.55 112.378C198.298 112.313 198.009 112.28 197.682 112.28C197.066 112.28 196.585 112.392 196.24 112.616C195.904 112.84 195.736 113.176 195.736 113.624C195.736 113.848 195.773 114.035 195.848 114.184C195.932 114.324 196.044 114.441 196.184 114.534C196.324 114.627 196.487 114.702 196.674 114.758C196.861 114.805 197.061 114.842 197.276 114.87L198.41 115.038C198.69 115.085 198.97 115.145 199.25 115.22C199.539 115.285 199.796 115.388 200.02 115.528C200.253 115.668 200.44 115.855 200.58 116.088C200.72 116.312 200.79 116.606 200.79 116.97C200.79 117.334 200.715 117.651 200.566 117.922C200.426 118.193 200.225 118.421 199.964 118.608C199.712 118.795 199.404 118.935 199.04 119.028C198.676 119.121 198.279 119.168 197.85 119.168ZM206.119 119C205.727 119 205.437 118.897 205.251 118.692C205.073 118.477 204.985 118.193 204.985 117.838V112.462H202.423V111.776H204.453C204.658 111.776 204.803 111.734 204.887 111.65C204.971 111.566 205.013 111.421 205.013 111.216V109.228H205.783V111.776H209.227V112.462H205.783V118.314H209.227V119H206.119ZM35.218 137.314H37.766V131.462H35.078V130.776H37.766V128.802C37.766 128.447 37.8547 128.167 38.032 127.962C38.2187 127.747 38.508 127.64 38.9 127.64H41.56V128.326H38.564V130.776H41.56V131.462H38.564V137.314H41.238V138H35.218V137.314ZM47.0425 128.844C46.7905 128.844 46.6085 128.793 46.4965 128.69C46.3939 128.578 46.3425 128.443 46.3425 128.284V128.102C46.3425 127.943 46.3939 127.813 46.4965 127.71C46.6085 127.598 46.7905 127.542 47.0425 127.542C47.2945 127.542 47.4719 127.598 47.5745 127.71C47.6865 127.813 47.7425 127.943 47.7425 128.102V128.284C47.7425 128.443 47.6865 128.578 47.5745 128.69C47.4719 128.793 47.2945 128.844 47.0425 128.844ZM43.9345 137.314H46.6505V131.462H43.9345V130.776H47.4485V137.314H49.9825V138H43.9345V137.314ZM52.3151 138V130.776H53.1131V131.896H53.1691C53.3091 131.56 53.5424 131.261 53.8691 131C54.2051 130.739 54.6764 130.608 55.2831 130.608C56.0671 130.608 56.6737 130.846 57.1031 131.322C57.5417 131.789 57.7611 132.461 57.7611 133.338V138H56.9631V133.478C56.9631 132.731 56.7997 132.185 56.4731 131.84C56.1557 131.495 55.6891 131.322 55.0731 131.322C54.8211 131.322 54.5784 131.355 54.3451 131.42C54.1117 131.485 53.9017 131.583 53.7151 131.714C53.5377 131.845 53.3931 132.013 53.2811 132.218C53.1691 132.414 53.1131 132.647 53.1131 132.918V138H52.3151ZM63.8316 128.844C63.5796 128.844 63.3976 128.793 63.2856 128.69C63.1829 128.578 63.1316 128.443 63.1316 128.284V128.102C63.1316 127.943 63.1829 127.813 63.2856 127.71C63.3976 127.598 63.5796 127.542 63.8316 127.542C64.0836 127.542 64.2609 127.598 64.3636 127.71C64.4756 127.813 64.5316 127.943 64.5316 128.102V128.284C64.5316 128.443 64.4756 128.578 64.3636 128.69C64.2609 128.793 64.0836 128.844 63.8316 128.844ZM60.7236 137.314H63.4396V131.462H60.7236V130.776H64.2376V137.314H66.7716V138H60.7236V137.314ZM71.9321 138.168C71.2041 138.168 70.5695 138.047 70.0281 137.804C69.4961 137.552 69.0341 137.202 68.6421 136.754L69.1881 136.278C69.5428 136.689 69.9395 136.997 70.3781 137.202C70.8168 137.398 71.3395 137.496 71.9461 137.496C72.5808 137.496 73.0941 137.375 73.4861 137.132C73.8875 136.889 74.0881 136.516 74.0881 136.012C74.0881 135.788 74.0461 135.606 73.9621 135.466C73.8875 135.317 73.7801 135.195 73.6401 135.102C73.5001 135.009 73.3368 134.939 73.1501 134.892C72.9635 134.836 72.7581 134.794 72.5341 134.766L71.4141 134.612C71.1341 134.575 70.8495 134.523 70.5601 134.458C70.2801 134.383 70.0235 134.276 69.7901 134.136C69.5661 133.996 69.3795 133.809 69.2301 133.576C69.0901 133.343 69.0201 133.044 69.0201 132.68C69.0201 132.325 69.0901 132.017 69.2301 131.756C69.3701 131.495 69.5661 131.28 69.8181 131.112C70.0701 130.944 70.3641 130.818 70.7001 130.734C71.0455 130.65 71.4141 130.608 71.8061 130.608C72.4781 130.608 73.0428 130.72 73.5001 130.944C73.9668 131.159 74.3588 131.429 74.6761 131.756L74.1441 132.26C74.0415 132.148 73.9201 132.036 73.7801 131.924C73.6495 131.803 73.4861 131.695 73.2901 131.602C73.1035 131.509 72.8841 131.434 72.6321 131.378C72.3801 131.313 72.0908 131.28 71.7641 131.28C71.1481 131.28 70.6675 131.392 70.3221 131.616C69.9861 131.84 69.8181 132.176 69.8181 132.624C69.8181 132.848 69.8555 133.035 69.9301 133.184C70.0141 133.324 70.1261 133.441 70.2661 133.534C70.4061 133.627 70.5695 133.702 70.7561 133.758C70.9428 133.805 71.1435 133.842 71.3581 133.87L72.4921 134.038C72.7721 134.085 73.0521 134.145 73.3321 134.22C73.6215 134.285 73.8781 134.388 74.1021 134.528C74.3355 134.668 74.5221 134.855 74.6621 135.088C74.8021 135.312 74.8721 135.606 74.8721 135.97C74.8721 136.334 74.7975 136.651 74.6481 136.922C74.5081 137.193 74.3075 137.421 74.0461 137.608C73.7941 137.795 73.4861 137.935 73.1221 138.028C72.7581 138.121 72.3615 138.168 71.9321 138.168ZM77.4987 127.64H78.2967V131.896H78.3527C78.4927 131.56 78.726 131.261 79.0527 131C79.3887 130.739 79.86 130.608 80.4667 130.608C81.2507 130.608 81.8573 130.846 82.2867 131.322C82.7253 131.789 82.9447 132.461 82.9447 133.338V138H82.1467V133.478C82.1467 132.731 81.9833 132.185 81.6567 131.84C81.3393 131.495 80.8727 131.322 80.2567 131.322C80.0047 131.322 79.762 131.355 79.5287 131.42C79.2953 131.485 79.0853 131.583 78.8987 131.714C78.7213 131.845 78.5767 132.013 78.4647 132.218C78.3527 132.414 78.2967 132.647 78.2967 132.918V138H77.4987V127.64ZM88.6792 138.168C87.6712 138.168 86.8779 137.841 86.2992 137.188C85.7299 136.525 85.4452 135.597 85.4452 134.402C85.4452 133.805 85.5199 133.273 85.6692 132.806C85.8185 132.33 86.0285 131.933 86.2992 131.616C86.5792 131.289 86.9152 131.042 87.3072 130.874C87.6992 130.697 88.1332 130.608 88.6092 130.608C89.0945 130.608 89.5285 130.697 89.9112 130.874C90.2939 131.042 90.6159 131.285 90.8772 131.602C91.1479 131.919 91.3532 132.297 91.4932 132.736C91.6332 133.175 91.7032 133.66 91.7032 134.192V134.542H86.2852V134.892C86.2852 135.667 86.4952 136.292 86.9152 136.768C87.3352 137.235 87.9232 137.468 88.6792 137.468C89.2112 137.468 89.6639 137.347 90.0372 137.104C90.4199 136.861 90.7139 136.502 90.9192 136.026L91.5212 136.404C91.3065 136.936 90.9565 137.365 90.4712 137.692C89.9859 138.009 89.3885 138.168 88.6792 138.168ZM88.6092 131.28C88.2545 131.28 87.9325 131.345 87.6432 131.476C87.3632 131.597 87.1205 131.77 86.9152 131.994C86.7192 132.218 86.5652 132.489 86.4532 132.806C86.3412 133.123 86.2852 133.473 86.2852 133.856V133.94H90.8492V133.828C90.8492 133.044 90.6485 132.423 90.2472 131.966C89.8552 131.509 89.3092 131.28 88.6092 131.28ZM98.8657 136.852H98.8237C98.6184 137.244 98.3291 137.561 97.9557 137.804C97.5917 138.047 97.1344 138.168 96.5837 138.168C95.6784 138.168 94.9737 137.846 94.4697 137.202C93.9657 136.549 93.7137 135.611 93.7137 134.388C93.7137 133.165 93.9657 132.232 94.4697 131.588C94.9737 130.935 95.6784 130.608 96.5837 130.608C97.1344 130.608 97.5917 130.729 97.9557 130.972C98.3291 131.215 98.6184 131.532 98.8237 131.924H98.8657V127.64H99.6637V138H98.8657V136.852ZM96.8497 137.454C97.1204 137.454 97.3771 137.417 97.6197 137.342C97.8624 137.267 98.0771 137.16 98.2637 137.02C98.4504 136.88 98.5951 136.707 98.6977 136.502C98.8097 136.297 98.8657 136.068 98.8657 135.816V132.96C98.8657 132.708 98.8097 132.479 98.6977 132.274C98.5951 132.069 98.4504 131.896 98.2637 131.756C98.0771 131.616 97.8624 131.509 97.6197 131.434C97.3771 131.359 97.1204 131.322 96.8497 131.322C96.1217 131.322 95.5571 131.551 95.1557 132.008C94.7637 132.465 94.5677 133.091 94.5677 133.884V134.892C94.5677 135.685 94.7637 136.311 95.1557 136.768C95.5571 137.225 96.1217 137.454 96.8497 137.454ZM110.013 130.776H110.727L111.749 137.3H111.847L113.303 130.776H114.227L115.683 137.3H115.781L116.789 130.776H117.489L116.285 138H115.207L113.807 131.602H113.723L112.295 138H111.217L110.013 130.776ZM119.037 137.314H121.305V131.462H119.037V130.776H122.103V132.428H122.159C122.318 131.924 122.589 131.523 122.971 131.224C123.363 130.925 123.877 130.776 124.511 130.776H125.757V131.56H124.273C123.62 131.56 123.093 131.756 122.691 132.148C122.299 132.531 122.103 133.049 122.103 133.702V137.314H125.043V138H119.037V137.314ZM130.988 128.844C130.736 128.844 130.554 128.793 130.442 128.69C130.339 128.578 130.288 128.443 130.288 128.284V128.102C130.288 127.943 130.339 127.813 130.442 127.71C130.554 127.598 130.736 127.542 130.988 127.542C131.24 127.542 131.417 127.598 131.52 127.71C131.632 127.813 131.688 127.943 131.688 128.102V128.284C131.688 128.443 131.632 128.578 131.52 128.69C131.417 128.793 131.24 128.844 130.988 128.844ZM127.88 137.314H130.596V131.462H127.88V130.776H131.394V137.314H133.928V138H127.88V137.314ZM138.962 138C138.57 138 138.281 137.897 138.094 137.692C137.917 137.477 137.828 137.193 137.828 136.838V131.462H135.266V130.776H137.296C137.502 130.776 137.646 130.734 137.73 130.65C137.814 130.566 137.856 130.421 137.856 130.216V128.228H138.626V130.776H142.07V131.462H138.626V137.314H142.07V138H138.962ZM147.777 128.844C147.525 128.844 147.343 128.793 147.231 128.69C147.128 128.578 147.077 128.443 147.077 128.284V128.102C147.077 127.943 147.128 127.813 147.231 127.71C147.343 127.598 147.525 127.542 147.777 127.542C148.029 127.542 148.206 127.598 148.309 127.71C148.421 127.813 148.477 127.943 148.477 128.102V128.284C148.477 128.443 148.421 128.578 148.309 128.69C148.206 128.793 148.029 128.844 147.777 128.844ZM144.669 137.314H147.385V131.462H144.669V130.776H148.183V137.314H150.717V138H144.669V137.314ZM153.049 138V130.776H153.847V131.896H153.903C154.043 131.56 154.277 131.261 154.603 131C154.939 130.739 155.411 130.608 156.017 130.608C156.801 130.608 157.408 130.846 157.837 131.322C158.276 131.789 158.495 132.461 158.495 133.338V138H157.697V133.478C157.697 132.731 157.534 132.185 157.207 131.84C156.89 131.495 156.423 131.322 155.807 131.322C155.555 131.322 155.313 131.355 155.079 131.42C154.846 131.485 154.636 131.583 154.449 131.714C154.272 131.845 154.127 132.013 154.015 132.218C153.903 132.414 153.847 132.647 153.847 132.918V138H153.049ZM167.674 138.854C167.674 139.582 167.375 140.114 166.778 140.45C166.181 140.795 165.303 140.968 164.146 140.968C163.026 140.968 162.219 140.809 161.724 140.492C161.229 140.175 160.982 139.731 160.982 139.162C160.982 138.751 161.094 138.425 161.318 138.182C161.542 137.949 161.855 137.771 162.256 137.65V137.538C161.799 137.361 161.57 137.034 161.57 136.558C161.57 136.203 161.691 135.933 161.934 135.746C162.177 135.55 162.475 135.405 162.83 135.312V135.256C162.401 135.069 162.065 134.789 161.822 134.416C161.589 134.043 161.472 133.595 161.472 133.072C161.472 132.708 161.533 132.377 161.654 132.078C161.785 131.77 161.962 131.509 162.186 131.294C162.419 131.07 162.699 130.902 163.026 130.79C163.353 130.669 163.717 130.608 164.118 130.608C164.697 130.608 165.191 130.729 165.602 130.972V130.678C165.602 130.454 165.653 130.277 165.756 130.146C165.868 130.006 166.045 129.936 166.288 129.936H167.702V130.636H166.05V131.294C166.283 131.509 166.461 131.765 166.582 132.064C166.713 132.363 166.778 132.699 166.778 133.072C166.778 133.436 166.713 133.767 166.582 134.066C166.461 134.365 166.283 134.626 166.05 134.85C165.817 135.065 165.537 135.233 165.21 135.354C164.883 135.466 164.519 135.522 164.118 135.522C163.987 135.522 163.866 135.517 163.754 135.508C163.642 135.499 163.521 135.48 163.39 135.452C163.091 135.527 162.83 135.639 162.606 135.788C162.382 135.937 162.27 136.138 162.27 136.39C162.27 136.81 162.662 137.02 163.446 137.02H165.168C166.045 137.02 166.68 137.188 167.072 137.524C167.473 137.851 167.674 138.294 167.674 138.854ZM166.918 138.882C166.918 138.537 166.787 138.261 166.526 138.056C166.274 137.86 165.821 137.762 165.168 137.762H162.802C162.475 137.865 162.219 138.014 162.032 138.21C161.855 138.415 161.766 138.681 161.766 139.008C161.766 139.391 161.92 139.703 162.228 139.946C162.545 140.198 163.021 140.324 163.656 140.324H164.594C165.313 140.324 165.877 140.203 166.288 139.96C166.708 139.727 166.918 139.367 166.918 138.882ZM164.118 134.892C164.725 134.892 165.177 134.743 165.476 134.444C165.784 134.145 165.938 133.763 165.938 133.296V132.834C165.938 132.358 165.784 131.975 165.476 131.686C165.177 131.387 164.725 131.238 164.118 131.238C163.521 131.238 163.068 131.387 162.76 131.686C162.461 131.975 162.312 132.358 162.312 132.834V133.296C162.312 133.763 162.466 134.145 162.774 134.444C163.082 134.743 163.53 134.892 164.118 134.892ZM180.935 138C180.543 138 180.254 137.897 180.067 137.692C179.89 137.477 179.801 137.193 179.801 136.838V131.462H177.239V130.776H179.269C179.474 130.776 179.619 130.734 179.703 130.65C179.787 130.566 179.829 130.421 179.829 130.216V128.228H180.599V130.776H184.043V131.462H180.599V137.314H184.043V138H180.935ZM189.414 138.168C188.406 138.168 187.612 137.841 187.034 137.188C186.464 136.525 186.18 135.597 186.18 134.402C186.18 133.805 186.254 133.273 186.404 132.806C186.553 132.33 186.763 131.933 187.034 131.616C187.314 131.289 187.65 131.042 188.042 130.874C188.434 130.697 188.868 130.608 189.344 130.608C189.829 130.608 190.263 130.697 190.646 130.874C191.028 131.042 191.35 131.285 191.612 131.602C191.882 131.919 192.088 132.297 192.228 132.736C192.368 133.175 192.438 133.66 192.438 134.192V134.542H187.02V134.892C187.02 135.667 187.23 136.292 187.65 136.768C188.07 137.235 188.658 137.468 189.414 137.468C189.946 137.468 190.398 137.347 190.772 137.104C191.154 136.861 191.448 136.502 191.654 136.026L192.256 136.404C192.041 136.936 191.691 137.365 191.206 137.692C190.72 138.009 190.123 138.168 189.414 138.168ZM189.344 131.28C188.989 131.28 188.667 131.345 188.378 131.476C188.098 131.597 187.855 131.77 187.65 131.994C187.454 132.218 187.3 132.489 187.188 132.806C187.076 133.123 187.02 133.473 187.02 133.856V133.94H191.584V133.828C191.584 133.044 191.383 132.423 190.982 131.966C190.59 131.509 190.044 131.28 189.344 131.28ZM197.85 138.168C197.122 138.168 196.487 138.047 195.946 137.804C195.414 137.552 194.952 137.202 194.56 136.754L195.106 136.278C195.461 136.689 195.857 136.997 196.296 137.202C196.735 137.398 197.257 137.496 197.864 137.496C198.499 137.496 199.012 137.375 199.404 137.132C199.805 136.889 200.006 136.516 200.006 136.012C200.006 135.788 199.964 135.606 199.88 135.466C199.805 135.317 199.698 135.195 199.558 135.102C199.418 135.009 199.255 134.939 199.068 134.892C198.881 134.836 198.676 134.794 198.452 134.766L197.332 134.612C197.052 134.575 196.767 134.523 196.478 134.458C196.198 134.383 195.941 134.276 195.708 134.136C195.484 133.996 195.297 133.809 195.148 133.576C195.008 133.343 194.938 133.044 194.938 132.68C194.938 132.325 195.008 132.017 195.148 131.756C195.288 131.495 195.484 131.28 195.736 131.112C195.988 130.944 196.282 130.818 196.618 130.734C196.963 130.65 197.332 130.608 197.724 130.608C198.396 130.608 198.961 130.72 199.418 130.944C199.885 131.159 200.277 131.429 200.594 131.756L200.062 132.26C199.959 132.148 199.838 132.036 199.698 131.924C199.567 131.803 199.404 131.695 199.208 131.602C199.021 131.509 198.802 131.434 198.55 131.378C198.298 131.313 198.009 131.28 197.682 131.28C197.066 131.28 196.585 131.392 196.24 131.616C195.904 131.84 195.736 132.176 195.736 132.624C195.736 132.848 195.773 133.035 195.848 133.184C195.932 133.324 196.044 133.441 196.184 133.534C196.324 133.627 196.487 133.702 196.674 133.758C196.861 133.805 197.061 133.842 197.276 133.87L198.41 134.038C198.69 134.085 198.97 134.145 199.25 134.22C199.539 134.285 199.796 134.388 200.02 134.528C200.253 134.668 200.44 134.855 200.58 135.088C200.72 135.312 200.79 135.606 200.79 135.97C200.79 136.334 200.715 136.651 200.566 136.922C200.426 137.193 200.225 137.421 199.964 137.608C199.712 137.795 199.404 137.935 199.04 138.028C198.676 138.121 198.279 138.168 197.85 138.168ZM206.119 138C205.727 138 205.437 137.897 205.251 137.692C205.073 137.477 204.985 137.193 204.985 136.838V131.462H202.423V130.776H204.453C204.658 130.776 204.803 130.734 204.887 130.65C204.971 130.566 205.013 130.421 205.013 130.216V128.228H205.783V130.776H209.227V131.462H205.783V137.314H209.227V138H206.119ZM214.639 138.168C213.911 138.168 213.276 138.047 212.735 137.804C212.203 137.552 211.741 137.202 211.349 136.754L211.895 136.278C212.25 136.689 212.646 136.997 213.085 137.202C213.524 137.398 214.046 137.496 214.653 137.496C215.288 137.496 215.801 137.375 216.193 137.132C216.594 136.889 216.795 136.516 216.795 136.012C216.795 135.788 216.753 135.606 216.669 135.466C216.594 135.317 216.487 135.195 216.347 135.102C216.207 135.009 216.044 134.939 215.857 134.892C215.67 134.836 215.465 134.794 215.241 134.766L214.121 134.612C213.841 134.575 213.556 134.523 213.267 134.458C212.987 134.383 212.73 134.276 212.497 134.136C212.273 133.996 212.086 133.809 211.937 133.576C211.797 133.343 211.727 133.044 211.727 132.68C211.727 132.325 211.797 132.017 211.937 131.756C212.077 131.495 212.273 131.28 212.525 131.112C212.777 130.944 213.071 130.818 213.407 130.734C213.752 130.65 214.121 130.608 214.513 130.608C215.185 130.608 215.75 130.72 216.207 130.944C216.674 131.159 217.066 131.429 217.383 131.756L216.851 132.26C216.748 132.148 216.627 132.036 216.487 131.924C216.356 131.803 216.193 131.695 215.997 131.602C215.81 131.509 215.591 131.434 215.339 131.378C215.087 131.313 214.798 131.28 214.471 131.28C213.855 131.28 213.374 131.392 213.029 131.616C212.693 131.84 212.525 132.176 212.525 132.624C212.525 132.848 212.562 133.035 212.637 133.184C212.721 133.324 212.833 133.441 212.973 133.534C213.113 133.627 213.276 133.702 213.463 133.758C213.65 133.805 213.85 133.842 214.065 133.87L215.199 134.038C215.479 134.085 215.759 134.145 216.039 134.22C216.328 134.285 216.585 134.388 216.809 134.528C217.042 134.668 217.229 134.855 217.369 135.088C217.509 135.312 217.579 135.606 217.579 135.97C217.579 136.334 217.504 136.651 217.355 136.922C217.215 137.193 217.014 137.421 216.753 137.608C216.501 137.795 216.193 137.935 215.829 138.028C215.465 138.121 215.068 138.168 214.639 138.168ZM228.292 137.314H230.84V131.462H228.152V130.776H230.84V128.802C230.84 128.447 230.929 128.167 231.106 127.962C231.293 127.747 231.582 127.64 231.974 127.64H234.634V128.326H231.638V130.776H234.634V131.462H231.638V137.314H234.312V138H228.292V137.314ZM239.669 138.168C238.679 138.168 237.905 137.837 237.345 137.174C236.794 136.511 236.519 135.583 236.519 134.388C236.519 133.193 236.794 132.265 237.345 131.602C237.905 130.939 238.679 130.608 239.669 130.608C240.658 130.608 241.428 130.939 241.979 131.602C242.539 132.265 242.819 133.193 242.819 134.388C242.819 135.583 242.539 136.511 241.979 137.174C241.428 137.837 240.658 138.168 239.669 138.168ZM239.669 137.468C240.378 137.468 240.938 137.244 241.349 136.796C241.759 136.348 241.965 135.695 241.965 134.836V133.94C241.965 133.081 241.759 132.428 241.349 131.98C240.938 131.532 240.378 131.308 239.669 131.308C238.959 131.308 238.399 131.532 237.989 131.98C237.578 132.428 237.373 133.081 237.373 133.94V134.836C237.373 135.695 237.578 136.348 237.989 136.796C238.399 137.244 238.959 137.468 239.669 137.468ZM244.955 137.314H247.223V131.462H244.955V130.776H248.021V132.428H248.077C248.236 131.924 248.507 131.523 248.889 131.224C249.281 130.925 249.795 130.776 250.429 130.776H251.675V131.56H250.191C249.538 131.56 249.011 131.756 248.609 132.148C248.217 132.531 248.021 133.049 248.021 133.702V137.314H250.961V138H244.955V137.314ZM38.648 147.844C38.396 147.844 38.214 147.793 38.102 147.69C37.9993 147.578 37.948 147.443 37.948 147.284V147.102C37.948 146.943 37.9993 146.813 38.102 146.71C38.214 146.598 38.396 146.542 38.648 146.542C38.9 146.542 39.0773 146.598 39.18 146.71C39.292 146.813 39.348 146.943 39.348 147.102V147.284C39.348 147.443 39.292 147.578 39.18 147.69C39.0773 147.793 38.9 147.844 38.648 147.844ZM35.54 156.314H38.256V150.462H35.54V149.776H39.054V156.314H41.588V157H35.54V156.314ZM46.6225 157C46.2305 157 45.9412 156.897 45.7545 156.692C45.5772 156.477 45.4885 156.193 45.4885 155.838V150.462H42.9265V149.776H44.9565C45.1619 149.776 45.3065 149.734 45.3905 149.65C45.4745 149.566 45.5165 149.421 45.5165 149.216V147.228H46.2865V149.776H49.7305V150.462H46.2865V156.314H49.7305V157H46.6225ZM54.5271 155.418H55.8711L54.4571 159.142H53.7851L54.5271 155.418ZM72.0581 157.168C71.0501 157.168 70.2708 156.837 69.7201 156.174C69.1695 155.511 68.8941 154.583 68.8941 153.388C68.8941 152.193 69.1695 151.265 69.7201 150.602C70.2801 149.939 71.0548 149.608 72.0441 149.608C72.7161 149.608 73.2668 149.762 73.6961 150.07C74.1255 150.369 74.4335 150.756 74.6201 151.232L73.9761 151.554C73.8268 151.153 73.5888 150.845 73.2621 150.63C72.9355 150.415 72.5295 150.308 72.0441 150.308C71.3068 150.308 70.7375 150.546 70.3361 151.022C69.9441 151.489 69.7481 152.109 69.7481 152.884V153.892C69.7481 154.667 69.9441 155.292 70.3361 155.768C70.7375 156.235 71.3115 156.468 72.0581 156.468C72.5715 156.468 73.0008 156.351 73.3461 156.118C73.6915 155.885 73.9575 155.558 74.1441 155.138L74.7321 155.516C74.5268 155.992 74.2048 156.389 73.7661 156.706C73.3275 157.014 72.7581 157.168 72.0581 157.168ZM82.6787 157C82.352 157 82.1187 156.921 81.9787 156.762C81.8387 156.603 81.7593 156.389 81.7407 156.118V155.866H81.6707C81.512 156.249 81.2507 156.561 80.8867 156.804C80.5227 157.047 80.028 157.168 79.4027 157.168C78.6467 157.168 78.0493 156.986 77.6107 156.622C77.1813 156.249 76.9667 155.726 76.9667 155.054C76.9667 154.737 77.018 154.452 77.1207 154.2C77.2327 153.939 77.4053 153.719 77.6387 153.542C77.8813 153.365 78.1893 153.229 78.5627 153.136C78.936 153.033 79.3933 152.982 79.9347 152.982H81.6987V152.1C81.6987 151.493 81.5307 151.041 81.1947 150.742C80.868 150.443 80.4107 150.294 79.8227 150.294C78.8333 150.294 78.1427 150.691 77.7507 151.484L77.2047 151.092C77.3913 150.672 77.704 150.322 78.1427 150.042C78.5907 149.753 79.1647 149.608 79.8647 149.608C80.686 149.608 81.33 149.823 81.7967 150.252C82.2633 150.672 82.4967 151.26 82.4967 152.016V156.3H83.5747V157H82.6787ZM79.5287 156.496C79.8367 156.496 80.1213 156.459 80.3827 156.384C80.644 156.309 80.8727 156.207 81.0687 156.076C81.2647 155.936 81.4187 155.768 81.5307 155.572C81.6427 155.376 81.6987 155.157 81.6987 154.914V153.584H79.9347C79.1787 153.584 78.6327 153.701 78.2967 153.934C77.97 154.158 77.8067 154.466 77.8067 154.858V155.222C77.8067 155.642 77.9607 155.959 78.2687 156.174C78.586 156.389 79.006 156.496 79.5287 156.496ZM85.8932 157V149.776H86.6912V150.896H86.7472C86.8872 150.56 87.1205 150.261 87.4472 150C87.7832 149.739 88.2545 149.608 88.8612 149.608C89.6452 149.608 90.2519 149.846 90.6812 150.322C91.1199 150.789 91.3392 151.461 91.3392 152.338V157H90.5412V152.478C90.5412 151.731 90.3779 151.185 90.0512 150.84C89.7339 150.495 89.2672 150.322 88.6512 150.322C88.3992 150.322 88.1565 150.355 87.9232 150.42C87.6899 150.485 87.4799 150.583 87.2932 150.714C87.1159 150.845 86.9712 151.013 86.8592 151.218C86.7472 151.414 86.6912 151.647 86.6912 151.918V157H85.8932ZM107.848 149.776H108.646L104.88 158.96C104.759 159.249 104.605 159.459 104.418 159.59C104.241 159.73 103.961 159.8 103.578 159.8H102.374V159.114H104.012L104.964 156.804L102.066 149.776H102.892L105.342 155.838H105.398L107.848 149.776ZM113.751 157.168C112.761 157.168 111.987 156.837 111.427 156.174C110.876 155.511 110.601 154.583 110.601 153.388C110.601 152.193 110.876 151.265 111.427 150.602C111.987 149.939 112.761 149.608 113.751 149.608C114.74 149.608 115.51 149.939 116.061 150.602C116.621 151.265 116.901 152.193 116.901 153.388C116.901 154.583 116.621 155.511 116.061 156.174C115.51 156.837 114.74 157.168 113.751 157.168ZM113.751 156.468C114.46 156.468 115.02 156.244 115.431 155.796C115.841 155.348 116.047 154.695 116.047 153.836V152.94C116.047 152.081 115.841 151.428 115.431 150.98C115.02 150.532 114.46 150.308 113.751 150.308C113.041 150.308 112.481 150.532 112.071 150.98C111.66 151.428 111.455 152.081 111.455 152.94V153.836C111.455 154.695 111.66 155.348 112.071 155.796C112.481 156.244 113.041 156.468 113.751 156.468ZM124.021 155.88H123.965C123.825 156.216 123.587 156.515 123.251 156.776C122.925 157.037 122.458 157.168 121.851 157.168C121.067 157.168 120.456 156.935 120.017 156.468C119.588 155.992 119.373 155.315 119.373 154.438V149.776H120.171V154.298C120.171 155.045 120.33 155.591 120.647 155.936C120.974 156.281 121.445 156.454 122.061 156.454C122.313 156.454 122.556 156.421 122.789 156.356C123.023 156.291 123.228 156.193 123.405 156.062C123.592 155.931 123.741 155.768 123.853 155.572C123.965 155.367 124.021 155.129 124.021 154.858V149.776H124.819V157H124.021V155.88ZM138.962 157C138.57 157 138.281 156.897 138.094 156.692C137.917 156.477 137.828 156.193 137.828 155.838V150.462H135.266V149.776H137.296C137.502 149.776 137.646 149.734 137.73 149.65C137.814 149.566 137.856 149.421 137.856 149.216V147.228H138.626V149.776H142.07V150.462H138.626V156.314H142.07V157H138.962ZM149.835 157C149.508 157 149.275 156.921 149.135 156.762C148.995 156.603 148.916 156.389 148.897 156.118V155.866H148.827C148.668 156.249 148.407 156.561 148.043 156.804C147.679 157.047 147.184 157.168 146.559 157.168C145.803 157.168 145.206 156.986 144.767 156.622C144.338 156.249 144.123 155.726 144.123 155.054C144.123 154.737 144.174 154.452 144.277 154.2C144.389 153.939 144.562 153.719 144.795 153.542C145.038 153.365 145.346 153.229 145.719 153.136C146.092 153.033 146.55 152.982 147.091 152.982H148.855V152.1C148.855 151.493 148.687 151.041 148.351 150.742C148.024 150.443 147.567 150.294 146.979 150.294C145.99 150.294 145.299 150.691 144.907 151.484L144.361 151.092C144.548 150.672 144.86 150.322 145.299 150.042C145.747 149.753 146.321 149.608 147.021 149.608C147.842 149.608 148.486 149.823 148.953 150.252C149.42 150.672 149.653 151.26 149.653 152.016V156.3H150.731V157H149.835ZM146.685 156.496C146.993 156.496 147.278 156.459 147.539 156.384C147.8 156.309 148.029 156.207 148.225 156.076C148.421 155.936 148.575 155.768 148.687 155.572C148.799 155.376 148.855 155.157 148.855 154.914V153.584H147.091C146.335 153.584 145.789 153.701 145.453 153.934C145.126 154.158 144.963 154.466 144.963 154.858V155.222C144.963 155.642 145.117 155.959 145.425 156.174C145.742 156.389 146.162 156.496 146.685 156.496ZM153.175 146.64H153.973V153.472H154.029L155.443 152.184L158.131 149.776H159.125L156.031 152.604L159.489 157H158.495L155.415 153.08L153.973 154.354V157H153.175V146.64ZM164.23 157.168C163.222 157.168 162.429 156.841 161.85 156.188C161.281 155.525 160.996 154.597 160.996 153.402C160.996 152.805 161.071 152.273 161.22 151.806C161.369 151.33 161.579 150.933 161.85 150.616C162.13 150.289 162.466 150.042 162.858 149.874C163.25 149.697 163.684 149.608 164.16 149.608C164.645 149.608 165.079 149.697 165.462 149.874C165.845 150.042 166.167 150.285 166.428 150.602C166.699 150.919 166.904 151.297 167.044 151.736C167.184 152.175 167.254 152.66 167.254 153.192V153.542H161.836V153.892C161.836 154.667 162.046 155.292 162.466 155.768C162.886 156.235 163.474 156.468 164.23 156.468C164.762 156.468 165.215 156.347 165.588 156.104C165.971 155.861 166.265 155.502 166.47 155.026L167.072 155.404C166.857 155.936 166.507 156.365 166.022 156.692C165.537 157.009 164.939 157.168 164.23 157.168ZM164.16 150.28C163.805 150.28 163.483 150.345 163.194 150.476C162.914 150.597 162.671 150.77 162.466 150.994C162.27 151.218 162.116 151.489 162.004 151.806C161.892 152.123 161.836 152.473 161.836 152.856V152.94H166.4V152.828C166.4 152.044 166.199 151.423 165.798 150.966C165.406 150.509 164.86 150.28 164.16 150.28ZM183.413 157C183.086 157 182.853 156.921 182.713 156.762C182.573 156.603 182.494 156.389 182.475 156.118V155.866H182.405C182.246 156.249 181.985 156.561 181.621 156.804C181.257 157.047 180.762 157.168 180.137 157.168C179.381 157.168 178.784 156.986 178.345 156.622C177.916 156.249 177.701 155.726 177.701 155.054C177.701 154.737 177.752 154.452 177.855 154.2C177.967 153.939 178.14 153.719 178.373 153.542C178.616 153.365 178.924 153.229 179.297 153.136C179.67 153.033 180.128 152.982 180.669 152.982H182.433V152.1C182.433 151.493 182.265 151.041 181.929 150.742C181.602 150.443 181.145 150.294 180.557 150.294C179.568 150.294 178.877 150.691 178.485 151.484L177.939 151.092C178.126 150.672 178.438 150.322 178.877 150.042C179.325 149.753 179.899 149.608 180.599 149.608C181.42 149.608 182.064 149.823 182.531 150.252C182.998 150.672 183.231 151.26 183.231 152.016V156.3H184.309V157H183.413ZM180.263 156.496C180.571 156.496 180.856 156.459 181.117 156.384C181.378 156.309 181.607 156.207 181.803 156.076C181.999 155.936 182.153 155.768 182.265 155.572C182.377 155.376 182.433 155.157 182.433 154.914V153.584H180.669C179.913 153.584 179.367 153.701 179.031 153.934C178.704 154.158 178.541 154.466 178.541 154.858V155.222C178.541 155.642 178.695 155.959 179.003 156.174C179.32 156.389 179.74 156.496 180.263 156.496ZM194.672 156.314H197.304V147.326H194.672V146.64H198.102V156.314H200.72V157H194.672V156.314ZM206.091 157.168C205.101 157.168 204.327 156.837 203.767 156.174C203.216 155.511 202.941 154.583 202.941 153.388C202.941 152.193 203.216 151.265 203.767 150.602C204.327 149.939 205.101 149.608 206.091 149.608C207.08 149.608 207.85 149.939 208.401 150.602C208.961 151.265 209.241 152.193 209.241 153.388C209.241 154.583 208.961 155.511 208.401 156.174C207.85 156.837 207.08 157.168 206.091 157.168ZM206.091 156.468C206.8 156.468 207.36 156.244 207.771 155.796C208.181 155.348 208.387 154.695 208.387 153.836V152.94C208.387 152.081 208.181 151.428 207.771 150.98C207.36 150.532 206.8 150.308 206.091 150.308C205.381 150.308 204.821 150.532 204.411 150.98C204 151.428 203.795 152.081 203.795 152.94V153.836C203.795 154.695 204 155.348 204.411 155.796C204.821 156.244 205.381 156.468 206.091 156.468ZM214.485 157.168C213.496 157.168 212.721 156.837 212.161 156.174C211.61 155.511 211.335 154.583 211.335 153.388C211.335 152.193 211.61 151.265 212.161 150.602C212.721 149.939 213.496 149.608 214.485 149.608C215.474 149.608 216.244 149.939 216.795 150.602C217.355 151.265 217.635 152.193 217.635 153.388C217.635 154.583 217.355 155.511 216.795 156.174C216.244 156.837 215.474 157.168 214.485 157.168ZM214.485 156.468C215.194 156.468 215.754 156.244 216.165 155.796C216.576 155.348 216.781 154.695 216.781 153.836V152.94C216.781 152.081 216.576 151.428 216.165 150.98C215.754 150.532 215.194 150.308 214.485 150.308C213.776 150.308 213.216 150.532 212.805 150.98C212.394 151.428 212.189 152.081 212.189 152.94V153.836C212.189 154.695 212.394 155.348 212.805 155.796C213.216 156.244 213.776 156.468 214.485 156.468ZM220.332 146.64H221.13V153.472H221.186L222.6 152.184L225.288 149.776H226.282L223.188 152.604L226.646 157H225.652L222.572 153.08L221.13 154.354V157H220.332V146.64ZM230.574 154.2V151.918C231.424 151.89 232.086 151.699 232.562 151.344C233.038 150.98 233.276 150.471 233.276 149.818V149.552C233.276 148.992 233.099 148.558 232.744 148.25C232.39 147.942 231.904 147.788 231.288 147.788C230.672 147.788 230.178 147.947 229.804 148.264C229.44 148.581 229.184 149.006 229.034 149.538L228.278 149.272C228.372 148.955 228.502 148.661 228.67 148.39C228.838 148.119 229.048 147.886 229.3 147.69C229.552 147.494 229.846 147.34 230.182 147.228C230.518 147.116 230.896 147.06 231.316 147.06C232.194 147.06 232.884 147.293 233.388 147.76C233.892 148.227 234.144 148.857 234.144 149.65C234.144 150.079 234.07 150.457 233.92 150.784C233.78 151.111 233.584 151.395 233.332 151.638C233.08 151.871 232.786 152.063 232.45 152.212C232.114 152.352 231.755 152.45 231.372 152.506V154.2H230.574ZM231.008 157.098C230.71 157.098 230.495 157.037 230.364 156.916C230.243 156.795 230.182 156.636 230.182 156.44V156.244C230.182 156.057 230.243 155.903 230.364 155.782C230.495 155.651 230.71 155.586 231.008 155.586C231.298 155.586 231.503 155.651 231.624 155.782C231.755 155.903 231.82 156.057 231.82 156.244V156.44C231.82 156.636 231.755 156.795 231.624 156.916C231.503 157.037 231.298 157.098 231.008 157.098Z" fill="#999999"/>
<path d="M19.46 16.8V14.148H19.364L17.6 18.456L15.836 14.148H15.74V16.8V21H14.816V12.624H16.112L17.588 16.32H17.66L19.136 12.624H20.384V21H19.46V16.8ZM22.9953 21V12.624H28.1553V13.5H24.0033V16.32H28.0113V17.196H24.0033V20.124H28.1553V21H22.9953ZM31.7866 13.908H31.7026V21H30.7906V12.624H32.2186L35.0746 19.644H35.1586V12.624H36.0706V21H34.6426L31.7866 13.908ZM41.8499 13.5V21H40.8419V13.5H38.0459V12.624H44.6459V13.5H41.8499ZM46.6693 21V20.196H48.7573V13.428H46.6693V12.624H51.8533V13.428H49.7653V20.196H51.8533V21H46.6693ZM57.1766 21.144C56.6646 21.144 56.2246 21.048 55.8566 20.856C55.4886 20.656 55.1846 20.372 54.9446 20.004C54.7046 19.636 54.5286 19.184 54.4166 18.648C54.3046 18.112 54.2486 17.5 54.2486 16.812C54.2486 16.132 54.3046 15.524 54.4166 14.988C54.5286 14.444 54.7046 13.988 54.9446 13.62C55.1846 13.252 55.4886 12.972 55.8566 12.78C56.2246 12.58 56.6646 12.48 57.1766 12.48C57.6886 12.48 58.1286 12.58 58.4966 12.78C58.8646 12.972 59.1686 13.252 59.4086 13.62C59.6486 13.988 59.8246 14.444 59.9366 14.988C60.0486 15.524 60.1046 16.132 60.1046 16.812C60.1046 17.5 60.0486 18.112 59.9366 18.648C59.8246 19.184 59.6486 19.636 59.4086 20.004C59.1686 20.372 58.8646 20.656 58.4966 20.856C58.1286 21.048 57.6886 21.144 57.1766 21.144ZM57.1766 20.268C57.5126 20.268 57.7966 20.204 58.0286 20.076C58.2606 19.94 58.4526 19.752 58.6046 19.512C58.7566 19.272 58.8646 18.984 58.9286 18.648C59.0006 18.304 59.0366 17.92 59.0366 17.496V16.128C59.0366 15.712 59.0006 15.332 58.9286 14.988C58.8646 14.644 58.7566 14.352 58.6046 14.112C58.4526 13.872 58.2606 13.688 58.0286 13.56C57.7966 13.424 57.5126 13.356 57.1766 13.356C56.8406 13.356 56.5566 13.424 56.3246 13.56C56.0926 13.688 55.9006 13.872 55.7486 14.112C55.5966 14.352 55.4846 14.644 55.4126 14.988C55.3486 15.332 55.3166 15.712 55.3166 16.128V17.496C55.3166 17.92 55.3486 18.304 55.4126 18.648C55.4846 18.984 55.5966 19.272 55.7486 19.512C55.9006 19.752 56.0926 19.94 56.3246 20.076C56.5566 20.204 56.8406 20.268 57.1766 20.268ZM63.4479 13.908H63.3639V21H62.4519V12.624H63.8799L66.7359 19.644H66.8199V12.624H67.7319V21H66.3039L63.4479 13.908ZM70.4872 21V12.624H75.6472V13.5H71.4952V16.32H75.5032V17.196H71.4952V20.124H75.6472V21H70.4872ZM78.4625 12.624H80.8025C81.8265 12.624 82.5905 12.976 83.0945 13.68C83.5985 14.384 83.8505 15.428 83.8505 16.812C83.8505 18.196 83.5985 19.24 83.0945 19.944C82.5905 20.648 81.8265 21 80.8025 21H78.4625V12.624ZM80.7545 20.124C81.4265 20.124 81.9305 19.892 82.2665 19.428C82.6105 18.964 82.7825 18.308 82.7825 17.46V16.164C82.7825 15.316 82.6105 14.66 82.2665 14.196C81.9305 13.732 81.4265 13.5 80.7545 13.5H79.4705V20.124H80.7545ZM94.1611 21V20.196H96.2491V13.428H94.1611V12.624H99.3451V13.428H97.2571V20.196H99.3451V21H94.1611ZM103.024 13.908H102.94V21H102.028V12.624H103.456L106.312 19.644H106.396V12.624H107.308V21H105.88L103.024 13.908ZM120.775 21.144C119.751 21.144 118.987 20.772 118.483 20.028C117.987 19.284 117.739 18.212 117.739 16.812C117.739 15.412 117.987 14.34 118.483 13.596C118.987 12.852 119.751 12.48 120.775 12.48C121.159 12.48 121.491 12.532 121.771 12.636C122.051 12.74 122.291 12.88 122.491 13.056C122.691 13.232 122.859 13.432 122.995 13.656C123.131 13.872 123.251 14.092 123.355 14.316L122.491 14.712C122.419 14.528 122.335 14.356 122.239 14.196C122.143 14.028 122.027 13.884 121.891 13.764C121.763 13.636 121.607 13.536 121.423 13.464C121.247 13.392 121.031 13.356 120.775 13.356C120.111 13.356 119.615 13.608 119.287 14.112C118.967 14.616 118.807 15.288 118.807 16.128V17.496C118.807 18.336 118.967 19.008 119.287 19.512C119.615 20.016 120.111 20.268 120.775 20.268C121.031 20.268 121.247 20.232 121.423 20.16C121.607 20.088 121.763 19.992 121.891 19.872C122.027 19.744 122.143 19.6 122.239 19.44C122.335 19.272 122.419 19.096 122.491 18.912L123.355 19.308C123.251 19.54 123.131 19.764 122.995 19.98C122.859 20.196 122.691 20.392 122.491 20.568C122.291 20.744 122.051 20.884 121.771 20.988C121.491 21.092 121.159 21.144 120.775 21.144ZM128.414 21.144C127.902 21.144 127.462 21.048 127.094 20.856C126.726 20.656 126.422 20.372 126.182 20.004C125.942 19.636 125.766 19.184 125.654 18.648C125.542 18.112 125.486 17.5 125.486 16.812C125.486 16.132 125.542 15.524 125.654 14.988C125.766 14.444 125.942 13.988 126.182 13.62C126.422 13.252 126.726 12.972 127.094 12.78C127.462 12.58 127.902 12.48 128.414 12.48C128.926 12.48 129.366 12.58 129.734 12.78C130.102 12.972 130.406 13.252 130.646 13.62C130.886 13.988 131.062 14.444 131.174 14.988C131.286 15.524 131.342 16.132 131.342 16.812C131.342 17.5 131.286 18.112 131.174 18.648C131.062 19.184 130.886 19.636 130.646 20.004C130.406 20.372 130.102 20.656 129.734 20.856C129.366 21.048 128.926 21.144 128.414 21.144ZM128.414 20.268C128.75 20.268 129.034 20.204 129.266 20.076C129.498 19.94 129.69 19.752 129.842 19.512C129.994 19.272 130.102 18.984 130.166 18.648C130.238 18.304 130.274 17.92 130.274 17.496V16.128C130.274 15.712 130.238 15.332 130.166 14.988C130.102 14.644 129.994 14.352 129.842 14.112C129.69 13.872 129.498 13.688 129.266 13.56C129.034 13.424 128.75 13.356 128.414 13.356C128.078 13.356 127.794 13.424 127.562 13.56C127.33 13.688 127.138 13.872 126.986 14.112C126.834 14.352 126.722 14.644 126.65 14.988C126.586 15.332 126.554 15.712 126.554 16.128V17.496C126.554 17.92 126.586 18.304 126.65 18.648C126.722 18.984 126.834 19.272 126.986 19.512C127.138 19.752 127.33 19.94 127.562 20.076C127.794 20.204 128.078 20.268 128.414 20.268ZM138.19 16.8V14.148H138.094L136.33 18.456L134.566 14.148H134.47V16.8V21H133.546V12.624H134.842L136.318 16.32H136.39L137.866 12.624H139.114V21H138.19V16.8ZM146.105 16.8V14.148H146.009L144.245 18.456L142.481 14.148H142.385V16.8V21H141.461V12.624H142.757L144.233 16.32H144.305L145.781 12.624H147.029V21H146.105V16.8ZM149.64 21V12.624H154.8V13.5H150.648V16.32H154.656V17.196H150.648V20.124H154.8V21H149.64ZM158.432 13.908H158.348V21H157.436V12.624H158.864L161.72 19.644H161.804V12.624H162.716V21H161.288L158.432 13.908ZM168.495 13.5V21H167.487V13.5H164.691V12.624H171.291V13.5H168.495ZM181.998 18.408H180.414V17.616H182.142L182.418 16.008H180.846V15.216H182.562L183.018 12.624H183.894L182.418 21H181.542L181.998 18.408ZM185.226 12.624H186.102L185.646 15.216H187.23V16.008H185.502L185.226 17.616H186.798V18.408H185.082L184.626 21H183.75L185.226 12.624ZM194.581 21H188.989V19.968L191.785 17.448C192.193 17.08 192.529 16.704 192.793 16.32C193.057 15.928 193.189 15.516 193.189 15.084V14.94C193.189 14.436 193.057 14.048 192.793 13.776C192.529 13.496 192.137 13.356 191.617 13.356C191.105 13.356 190.709 13.488 190.429 13.752C190.157 14.008 189.953 14.352 189.817 14.784L188.917 14.448C188.997 14.2 189.105 13.96 189.241 13.728C189.385 13.488 189.565 13.276 189.781 13.092C189.997 12.908 190.257 12.76 190.561 12.648C190.873 12.536 191.233 12.48 191.641 12.48C192.057 12.48 192.425 12.54 192.745 12.66C193.073 12.78 193.345 12.948 193.561 13.164C193.785 13.38 193.953 13.636 194.065 13.932C194.185 14.228 194.245 14.552 194.245 14.904C194.245 15.224 194.197 15.524 194.101 15.804C194.013 16.084 193.885 16.352 193.717 16.608C193.557 16.864 193.361 17.116 193.129 17.364C192.905 17.604 192.653 17.844 192.373 18.084L190.033 20.124H194.581V21Z" fill="white"/>
<rect y="32" width="292" height="1" fill="#262626"/>
<defs>
<linearGradient id="paint0_linear_35_194" x1="146" y1="0" x2="146" y2="194" gradientUnits="userSpaceOnUse">
<stop stop-color="#1A1A1A"/>
<stop offset="1" stop-color="#1A1A1A" stop-opacity="0.7"/>
</linearGradient>
</defs>
</svg>
