<svg width="64" height="64" fill="none" xmlns="http://www.w3.org/2000/svg"><circle cx="32" cy="32" r="32" fill="url(#a)"/><circle cx="32" cy="32" r="32" fill="url(#b)"/><path d="M13.373 37c3.792 0 6.24-2.336 6.24-5.76 0-3.408-2.48-5.76-6.288-5.76H9.821V37h3.552zm-.064-9.824c2.624 0 4.272 1.696 4.272 4.064 0 2.384-1.648 4.064-4.224 4.064h-1.52v-8.128h1.472zM21.475 29v8h1.952v-8h-1.952zm-.16-2.304c0 .656.448 1.088 1.136 1.088.672 0 1.136-.432 1.136-1.088 0-.672-.464-1.104-1.136-1.104-.688 0-1.136.432-1.136 1.104zm6.676 8.368c0-.272.544-.528 1.248-.592 1.632-.176 2.848-1.232 2.848-2.8 0-.528-.208-.976-.528-1.328.064.016.096.064.448.064h1.024V29h-2.944a3.92 3.92 0 0 0-1.328-.208c-1.872 0-3.36 1.152-3.36 2.88 0 1.216.752 2.16 1.888 2.592-.768.24-1.184.72-1.184 1.2 0 .576.48.96 1.184 1.056-1.184.24-2.112.992-2.112 1.92 0 1.408 1.568 2.128 3.76 2.128 2.384 0 4.016-.944 4.016-2.56 0-1.44-1.088-2.08-3.184-2.32-1.232-.144-1.776-.272-1.776-.624zm.768-1.856c-.928 0-1.568-.624-1.568-1.488s.64-1.52 1.568-1.52c.96 0 1.584.656 1.584 1.52s-.624 1.488-1.584 1.488zm.208 6.08c-1.12 0-1.92-.368-1.92-1.104 0-.64.752-1.168 1.824-1.168 1.552 0 2.144.464 2.144 1.136 0 .688-.816 1.136-2.048 1.136zm8.962-10.496c-2.256 0-4 1.792-4 4.208 0 2.464 1.712 4.208 4.368 4.208 1.344 0 2.416-.32 2.976-.624v-1.712c-.544.336-1.712.672-2.832.672-1.472 0-2.432-.8-2.48-2.144h5.584c0-.144.048-.496.048-.864 0-1.984-1.264-3.744-3.664-3.744zm1.776 3.472h-3.744c.096-1.008.784-1.904 1.936-1.904 1.2 0 1.824.896 1.808 1.904zm7.242 2.544c0 .608-.656.832-1.36.832-.768 0-1.856-.304-2.624-.704v1.744c.608.272 1.536.528 2.672.528 1.872 0 3.104-.848 3.104-2.352 0-1.392-.848-2.016-2.608-2.56-.976-.288-1.456-.56-1.456-1.072 0-.416.336-.64.736-.752.24-.048.512-.064.784-.064.72.032 1.52.288 2.064.576v-1.712c-.512-.224-1.408-.48-2.416-.48-1.776 0-2.96.944-2.96 2.352 0 1.504 1.024 2.112 2.48 2.56 1.04.32 1.584.544 1.584 1.104zM49.668 29v1.552h1.216v3.536c0 .272.016.544.016.8.096 1.728 1.312 2.32 2.528 2.32.864 0 1.552-.176 1.92-.368v-1.632c-.4.176-.944.336-1.44.336-.592 0-1.104-.336-1.104-1.328v-3.664h2.272V29h-2.272v-2.4h-1.888V29h-1.248z" fill="#000"/><defs><linearGradient id="a" x1="32" y1="0" x2="32" y2="64" gradientUnits="userSpaceOnUse"><stop stop-color="#1A1A1A"/><stop offset="1" stop-color="#1A1A1A" stop-opacity=".8"/></linearGradient><linearGradient id="b" x1="64" y1="0" x2="0" y2="64" gradientUnits="userSpaceOnUse"><stop offset=".211" stop-color="#FB3"/><stop offset=".552" stop-color="#E300BD"/><stop offset=".926" stop-color="#FF006A"/></linearGradient></defs></svg>