<svg width="247" height="22" viewBox="0 0 247 22" fill="none" xmlns="http://www.w3.org/2000/svg">
<path d="M0.176025 20.711V18.7623H5.0674V2.35784H0.176025V0.40909H12.3201V2.35784H7.42875V18.7623H12.3201V20.711H0.176025Z" fill="white"/>
<path d="M18.325 20.711V0.40909H30.6939V2.53236H20.6863V9.36754H29.8506V11.4908H20.6863V20.711H18.325Z" fill="white"/>
<path d="M56.3657 0.40909V12.5961C56.3657 13.585 56.3938 14.4673 56.4501 15.2429C56.5063 16.0185 56.6562 16.6875 56.8998 17.2498C57.1435 17.7927 57.5183 18.2096 58.0243 18.5005C58.549 18.7914 59.2706 18.9368 60.1889 18.9368C61.1072 18.9368 61.8193 18.7914 62.3253 18.5005C62.8501 18.2096 63.2343 17.7927 63.4779 17.2498C63.7215 16.6875 63.8715 16.0185 63.9277 15.2429C63.9839 14.4673 64.012 13.585 64.012 12.5961V0.40909H66.3734V12.0144C66.3734 13.5268 66.2984 14.8454 66.1485 15.97C66.0173 17.0947 65.7268 18.0351 65.277 18.7914C64.846 19.5476 64.2182 20.1196 63.3936 20.5074C62.5877 20.8759 61.5195 21.0601 60.1889 21.0601C58.8583 21.0601 57.7807 20.8759 56.9561 20.5074C56.1502 20.1196 55.5224 19.5476 55.0726 18.7914C54.6416 18.0351 54.3511 17.0947 54.2012 15.97C54.07 14.8454 54.0044 13.5268 54.0044 12.0144V0.40909H56.3657Z" fill="white"/>
<path d="M78.1129 21.0601C76.3513 21.0601 74.9082 20.7304 73.7838 20.0711C72.6593 19.3925 71.7316 18.5296 71.0008 17.4825L72.7155 16.0282C73.4839 17.0171 74.2898 17.754 75.1331 18.2387C75.9952 18.7235 77.0166 18.9659 78.1973 18.9659C79.6216 18.9659 80.7085 18.6265 81.4582 17.9479C82.2078 17.2692 82.5826 16.3191 82.5826 15.0975C82.5826 14.1085 82.3109 13.3426 81.7674 12.7997C81.2239 12.2373 80.2775 11.8398 78.9281 11.6072L76.7355 11.229C75.7797 11.0545 74.9738 10.7927 74.3179 10.4437C73.6807 10.0947 73.1653 9.67779 72.7718 9.19302C72.3782 8.68887 72.0971 8.14593 71.9284 7.56421C71.7598 6.96311 71.6754 6.34261 71.6754 5.70272C71.6754 3.84122 72.2658 2.4354 73.4464 1.48527C74.6271 0.535128 76.2201 0.0600586 78.2254 0.0600586C79.7996 0.0600586 81.1208 0.331527 82.1891 0.874463C83.276 1.4174 84.1475 2.18333 84.8034 3.17225L83.1448 4.65563C82.6014 3.91878 81.9454 3.31768 81.1771 2.8523C80.4087 2.38693 79.4154 2.15424 78.1973 2.15424C76.8667 2.15424 75.8453 2.4451 75.1331 3.02682C74.421 3.60854 74.0649 4.48111 74.0649 5.64455C74.0649 6.5559 74.3273 7.30244 74.852 7.88416C75.3955 8.44649 76.3606 8.85369 77.7475 9.10577L79.8558 9.48388C80.8116 9.6584 81.6175 9.92017 82.2734 10.2692C82.9293 10.6182 83.4541 11.0351 83.8476 11.5199C84.2599 12.0047 84.5504 12.5476 84.7191 13.1487C84.8877 13.7498 84.9721 14.38 84.9721 15.0393C84.9721 16.9202 84.3724 18.3939 83.173 19.4603C81.9923 20.5268 80.3056 21.0601 78.1129 21.0601Z" fill="white"/>
<path d="M90.246 20.711V0.40909H102.334V2.53236H92.6074V9.36754H101.997V11.4908H92.6074V18.5878H102.334V20.711H90.246Z" fill="white"/>
<path d="M110.588 20.711H108.226V0.40909H115.367C117.184 0.40909 118.571 0.92294 119.527 1.95064C120.483 2.97834 120.961 4.41325 120.961 6.25535C120.961 7.90355 120.548 9.22211 119.724 10.211C118.899 11.1999 117.7 11.772 116.126 11.9271L121.129 20.711H118.487L113.708 12.0434H110.588V20.711ZM115.31 9.97834C116.304 9.97834 117.072 9.72626 117.615 9.22211C118.178 8.69856 118.459 7.96172 118.459 7.01158V5.49912C118.459 4.54898 118.178 3.82183 117.615 3.31768C117.072 2.79413 116.304 2.53236 115.31 2.53236H110.588V9.97834H115.31Z" fill="white"/>
<path d="M150.09 21.0601C148.891 21.0601 147.86 20.8274 146.998 20.362C146.136 19.8772 145.424 19.1889 144.862 18.2969C144.299 17.4049 143.887 16.3094 143.625 15.0102C143.362 13.711 143.231 12.2276 143.231 10.5601C143.231 8.91186 143.362 7.43817 143.625 6.13901C143.887 4.82045 144.299 3.71518 144.862 2.82322C145.424 1.93125 146.136 1.25258 146.998 0.787205C147.86 0.302441 148.891 0.0600586 150.09 0.0600586C151.29 0.0600586 152.32 0.302441 153.182 0.787205C154.045 1.25258 154.757 1.93125 155.319 2.82322C155.881 3.71518 156.293 4.82045 156.556 6.13901C156.818 7.43817 156.949 8.91186 156.949 10.5601C156.949 12.2276 156.818 13.711 156.556 15.0102C156.293 16.3094 155.881 17.4049 155.319 18.2969C154.757 19.1889 154.045 19.8772 153.182 20.362C152.32 20.8274 151.29 21.0601 150.09 21.0601ZM150.09 18.9368C150.877 18.9368 151.543 18.7817 152.086 18.4714C152.63 18.1418 153.079 17.6861 153.435 17.1044C153.792 16.5227 154.045 15.8246 154.194 15.0102C154.363 14.1764 154.447 13.2457 154.447 12.218V8.90216C154.447 7.89385 154.363 6.9728 154.194 6.13901C154.045 5.30521 153.792 4.59746 153.435 4.01574C153.079 3.43402 152.63 2.98804 152.086 2.67779C151.543 2.34815 150.877 2.18333 150.09 2.18333C149.303 2.18333 148.638 2.34815 148.094 2.67779C147.551 2.98804 147.101 3.43402 146.745 4.01574C146.389 4.59746 146.127 5.30521 145.958 6.13901C145.808 6.9728 145.733 7.89385 145.733 8.90216V12.218C145.733 13.2457 145.808 14.1764 145.958 15.0102C146.127 15.8246 146.389 16.5227 146.745 17.1044C147.101 17.6861 147.551 18.1418 148.094 18.4714C148.638 18.7817 149.303 18.9368 150.09 18.9368Z" fill="white"/>
<path d="M164.219 3.52128H164.022V20.711H161.886V0.40909H165.231L171.922 17.4243H172.119V0.40909H174.255V20.711H170.91L164.219 3.52128Z" fill="white"/>
<path d="M180.991 20.711V0.40909H183.352V18.5878H192.657V20.711H180.991Z" fill="white"/>
<path d="M197.959 20.711V18.7623H202.85V2.35784H197.959V0.40909H210.103V2.35784H205.212V18.7623H210.103V20.711H197.959Z" fill="white"/>
<path d="M218.16 3.52128H217.963V20.711H215.827V0.40909H219.172L225.863 17.4243H226.059V0.40909H228.196V20.711H224.851L218.16 3.52128Z" fill="white"/>
<path d="M234.088 20.711V0.40909H246.176V2.53236H236.45V9.36754H245.839V11.4908H236.45V18.5878H246.176V20.711H234.088Z" fill="white"/>
</svg>
