<svg width="185" height="48" fill="none" xmlns="http://www.w3.org/2000/svg"><rect width="185" height="48" rx="6" fill="url(#a)"/><path d="M21.176 29v-.938h2.436v-7.896h-2.436v-.938h6.048v.938h-2.436v7.896h2.436V29h-6.048zm9.039 0v-9.772h6.16v1.022H31.39v3.29h4.565v1.022H31.39V29h-1.176zm18.945-9.772v5.866c0 .476.014.9.042 1.274.028.373.102.695.224.966.12.261.308.462.56.602.26.14.62.21 1.078.21.457 0 .812-.07 1.064-.21.26-.14.452-.34.574-.602.12-.27.196-.593.224-.966.028-.373.042-.798.042-1.274v-5.866h1.176v5.586c0 .728-.038 1.363-.112 1.904-.066.541-.21.994-.434 1.358-.215.364-.528.64-.938.826-.402.177-.934.266-1.596.266-.663 0-1.2-.089-1.61-.266a2.128 2.128 0 0 1-.938-.826c-.215-.364-.36-.817-.434-1.358a16.126 16.126 0 0 1-.098-1.904v-5.586h1.176zm10.83 9.94c-.877 0-1.596-.159-2.156-.476a4.453 4.453 0 0 1-1.386-1.246l.854-.7c.383.476.784.83 1.204 1.064.43.233.938.35 1.526.35.71 0 1.25-.163 1.624-.49.373-.327.56-.784.56-1.372 0-.476-.135-.845-.406-1.106-.27-.27-.742-.462-1.414-.574l-1.092-.182c-.476-.084-.877-.21-1.204-.378a2.543 2.543 0 0 1-.77-.602 2.288 2.288 0 0 1-.42-.784 3.197 3.197 0 0 1-.126-.896c0-.896.294-1.573.882-2.03.588-.457 1.382-.686 2.38-.686.784 0 1.442.13 1.974.392.541.261.975.63 1.302 1.106l-.826.714a3.35 3.35 0 0 0-.98-.868c-.383-.224-.877-.336-1.484-.336-.662 0-1.171.14-1.526.42-.355.28-.532.7-.532 1.26 0 .439.13.798.392 1.078.27.27.752.467 1.442.588l1.05.182c.476.084.878.21 1.204.378.327.168.588.369.784.602.206.233.35.495.434.784.084.29.126.593.126.91 0 .905-.298 1.615-.896 2.128-.588.513-1.428.77-2.52.77zM66.033 29v-9.772h6.02v1.022h-4.844v3.29h4.676v1.022h-4.676v3.416h4.844V29h-6.02zm10.13 0h-1.176v-9.772h3.556c.905 0 1.596.247 2.072.742s.714 1.185.714 2.072c0 .793-.205 1.428-.616 1.904-.41.476-1.008.751-1.792.826L81.413 29h-1.316l-2.38-4.172h-1.554V29zm2.352-5.166c.495 0 .877-.121 1.148-.364.28-.252.42-.607.42-1.064v-.728c0-.457-.14-.807-.42-1.05-.27-.252-.653-.378-1.148-.378h-2.352v3.584h2.352zm17.321 5.334c-.597 0-1.11-.112-1.54-.336a2.928 2.928 0 0 1-1.064-.994c-.28-.43-.485-.957-.616-1.582-.13-.625-.196-1.34-.196-2.142 0-.793.066-1.503.196-2.128.13-.635.336-1.167.616-1.596.28-.43.635-.756 1.064-.98.43-.233.943-.35 1.54-.35.598 0 1.11.117 1.54.35.43.224.784.55 1.064.98.28.43.486.961.616 1.596.13.625.196 1.335.196 2.128 0 .803-.065 1.517-.196 2.142-.13.625-.336 1.153-.616 1.582-.28.43-.634.76-1.064.994-.43.224-.942.336-1.54.336zm0-1.022c.392 0 .724-.075.994-.224a1.97 1.97 0 0 0 .672-.658c.178-.28.304-.616.378-1.008a6.58 6.58 0 0 0 .126-1.344v-1.596c0-.485-.042-.929-.126-1.33a2.88 2.88 0 0 0-.378-1.022 1.847 1.847 0 0 0-.672-.644c-.27-.159-.602-.238-.994-.238s-.723.08-.994.238c-.27.15-.494.364-.672.644-.177.28-.308.62-.392 1.022a7.289 7.289 0 0 0-.112 1.33v1.596c0 .495.038.943.112 1.344.084.392.215.728.392 1.008.178.28.402.5.672.658.27.15.602.224.994.224zm7.037-7.42h-.098V29h-1.064v-9.772h1.666l3.332 8.19h.098v-8.19h1.064V29h-1.666l-3.332-8.274zM111.225 29v-9.772h1.176v8.75h4.634V29h-5.81zm8.451 0v-.938h2.436v-7.896h-2.436v-.938h6.048v.938h-2.436v7.896h2.436V29h-6.048zm10.06-8.274h-.098V29h-1.064v-9.772h1.666l3.332 8.19h.098v-8.19h1.064V29h-1.666l-3.332-8.274zM137.669 29v-9.772h6.02v1.022h-4.844v3.29h4.676v1.022h-4.676v3.416h4.844V29h-6.02z" fill="#fff"/><circle cx="161" cy="24" r="5" fill="url(#b)" stroke="#000" stroke-width="2"/><circle cx="161" cy="24" r="3.5" stroke="url(#c)" stroke-opacity=".6"/><g filter="url(#d)"><circle cx="161" cy="24" r="4" fill="url(#e)"/></g><defs><linearGradient id="a" x1="92.5" y1="0" x2="92.5" y2="48" gradientUnits="userSpaceOnUse"><stop stop-color="#1A1A1A"/><stop offset="1" stop-color="#1A1A1A" stop-opacity=".8"/></linearGradient><linearGradient id="b" x1="161" y1="20" x2="161" y2="28" gradientUnits="userSpaceOnUse"><stop offset=".398" stop-color="#F69"/><stop offset="1" stop-color="#903"/></linearGradient><linearGradient id="c" x1="161" y1="20" x2="161" y2="28" gradientUnits="userSpaceOnUse"><stop stop-color="#fff"/><stop offset=".379" stop-color="#fff" stop-opacity="0"/></linearGradient><linearGradient id="e" x1="161" y1="20" x2="161" y2="28" gradientUnits="userSpaceOnUse"><stop offset=".398" stop-color="#F69"/><stop offset="1" stop-color="#903"/></linearGradient><filter id="d" x="142" y="5" width="38" height="38" filterUnits="userSpaceOnUse" color-interpolation-filters="sRGB"><feFlood flood-opacity="0" result="BackgroundImageFix"/><feBlend in="SourceGraphic" in2="BackgroundImageFix" result="shape"/><feGaussianBlur stdDeviation="7.5" result="effect1_foregroundBlur_35_225"/></filter></defs></svg>