<svg width="52" height="10" fill="none" xmlns="http://www.w3.org/2000/svg"><path d="M.176 10v-.938h2.436V1.166H.176V.228h6.048v.938H3.788v7.896h2.436V10H.176zm10.06-8.274h-.098V10H9.075V.228h1.666l3.332 8.19h.098V.228h1.064V10h-1.666l-3.333-8.274zM32.599 10l-.826-2.786h-3.43L27.516 10h-1.218L29.294.228h1.554L33.844 10h-1.246zM30.12 1.474h-.126l-1.372 4.718h2.87L30.12 1.474zM36.078 10V.228h3.556c.905 0 1.596.247 2.072.742s.714 1.185.714 2.072-.238 1.577-.714 2.072c-.476.495-1.167.742-2.072.742h-2.38V10h-1.176zm1.176-5.166h2.352c.495 0 .877-.121 1.148-.364.28-.252.42-.607.42-1.064v-.728c0-.457-.14-.807-.42-1.05-.27-.252-.653-.378-1.148-.378h-2.352v3.584zM45.033 10V.228h3.556c.905 0 1.596.247 2.072.742s.714 1.185.714 2.072-.238 1.577-.714 2.072c-.476.495-1.167.742-2.072.742h-2.38V10h-1.176zm1.176-5.166h2.352c.494 0 .877-.121 1.148-.364.28-.252.42-.607.42-1.064v-.728c0-.457-.14-.807-.42-1.05-.271-.252-.654-.378-1.148-.378h-2.352v3.584z" fill="#fff"/></svg>