<svg width="240" height="71" viewBox="0 0 240 71" fill="none" xmlns="http://www.w3.org/2000/svg">
<path d="M39.313 58.64V68H40.301V64.191H42.433L44.5 68H45.605L43.408 64.048C44.578 63.762 45.462 62.839 45.462 61.422C45.462 59.68 44.253 58.64 42.277 58.64H39.313ZM42.238 59.472C43.629 59.472 44.461 60.213 44.461 61.422C44.461 62.644 43.655 63.372 42.303 63.372H40.301V59.472H42.238ZM50.1674 61.344C48.2694 61.344 46.8654 62.787 46.8654 64.75C46.8654 66.713 48.2694 68.156 50.1674 68.156C52.0784 68.156 53.4824 66.713 53.4824 64.75C53.4824 62.787 52.0784 61.344 50.1674 61.344ZM50.1674 67.298C48.8024 67.298 47.8014 66.232 47.8014 64.75C47.8014 63.268 48.8024 62.202 50.1674 62.202C51.5454 62.202 52.5334 63.268 52.5334 64.75C52.5334 66.232 51.5454 67.298 50.1674 67.298ZM55.4732 68H56.3702L56.3962 67.181C56.3962 66.882 56.3572 66.687 56.3572 66.687H56.3832C56.7212 67.441 57.6572 68.156 58.7492 68.156C60.4652 68.156 61.7522 66.726 61.7522 64.75C61.7522 62.748 60.4652 61.344 58.7622 61.344C57.6702 61.344 56.7732 61.994 56.4222 62.683H56.3962C56.3962 62.683 56.4352 62.475 56.4352 62.15V58.64H55.4732V68ZM58.6452 62.202C59.9582 62.202 60.8162 63.268 60.8162 64.75C60.8162 66.206 59.9582 67.298 58.6452 67.298C57.5922 67.298 56.4352 66.531 56.4352 64.75C56.4352 62.969 57.5922 62.202 58.6452 62.202ZM66.5153 61.344C64.7473 61.344 63.3693 62.787 63.3693 64.75C63.3693 66.765 64.7603 68.156 66.7493 68.156C67.7633 68.156 68.6343 67.883 69.1803 67.558V66.648C68.5693 67.051 67.6593 67.298 66.7883 67.298C65.3453 67.298 64.3963 66.362 64.3703 64.945V64.893H69.4013C69.4013 64.776 69.4143 64.581 69.4143 64.373C69.4143 62.774 68.3873 61.344 66.5153 61.344ZM68.4523 64.191H64.3963C64.5133 63.151 65.2673 62.176 66.5023 62.176C67.7893 62.176 68.4653 63.151 68.4523 64.191ZM71.2638 68H72.2258V65.14C72.2258 63.853 72.9018 62.28 74.2668 62.28C74.4228 62.28 74.5528 62.306 74.5918 62.319V61.383C74.5528 61.37 74.3838 61.344 74.2018 61.344C73.2268 61.344 72.5248 62.046 72.1738 62.995H72.1478C72.1478 62.969 72.1868 62.761 72.1738 62.501V61.5H71.2638V68ZM75.6867 61.5V62.293H76.8047V66.206C76.8047 67.688 77.7147 68.156 78.6117 68.156C79.2097 68.156 79.7297 68.013 80.0157 67.857V67.012C79.6387 67.194 79.1577 67.311 78.7677 67.311C78.1827 67.311 77.7537 66.96 77.7537 65.959V62.293H79.7947V61.5H77.7537V59.55H76.8047V61.5H75.6867ZM90.2833 59.472V58.64H84.9273V68H85.9153V63.723H89.6073V62.891H85.9153V59.472H90.2833ZM94.5248 61.344C92.6268 61.344 91.2228 62.787 91.2228 64.75C91.2228 66.713 92.6268 68.156 94.5248 68.156C96.4358 68.156 97.8398 66.713 97.8398 64.75C97.8398 62.787 96.4358 61.344 94.5248 61.344ZM94.5248 67.298C93.1598 67.298 92.1588 66.232 92.1588 64.75C92.1588 63.268 93.1598 62.202 94.5248 62.202C95.9028 62.202 96.8908 63.268 96.8908 64.75C96.8908 66.232 95.9028 67.298 94.5248 67.298ZM104.771 61.5H103.653L101.898 64.022L100.156 61.5H99.0506L101.339 64.698L98.9466 68H100.039L101.911 65.361L103.796 68H104.901L102.47 64.646L104.771 61.5Z" fill="white"/>
<path d="M183.365 59.36V60.164H184.421V68H185.333V59.36H183.365ZM191.067 68H191.955V65.06C191.955 63.716 192.891 62.684 194.163 62.684C195.291 62.684 195.435 63.512 195.435 64.424V68H196.311V64.22C196.311 62.756 195.795 61.856 194.283 61.856C192.927 61.856 192.159 62.84 191.919 63.392H191.907C191.907 63.332 191.943 63.116 191.943 62.84V59.36H191.067V68ZM200.993 61.856C199.241 61.856 197.945 63.188 197.945 65C197.945 66.812 199.241 68.144 200.993 68.144C202.757 68.144 204.053 66.812 204.053 65C204.053 63.188 202.757 61.856 200.993 61.856ZM200.993 67.352C199.733 67.352 198.809 66.368 198.809 65C198.809 63.632 199.733 62.648 200.993 62.648C202.265 62.648 203.177 63.632 203.177 65C203.177 66.368 202.265 67.352 200.993 67.352ZM205.711 65.78C205.711 67.292 206.263 68.144 207.739 68.144C209.059 68.144 209.839 67.16 210.067 66.608H210.091C210.091 66.62 210.043 66.812 210.043 67.076L210.055 68H210.895V62H210.007V64.94C210.007 66.236 209.143 67.316 207.859 67.316C206.731 67.316 206.587 66.488 206.587 65.576V62H205.711V65.78ZM213.154 68H214.042V65.36C214.042 64.172 214.666 62.72 215.926 62.72C216.07 62.72 216.19 62.744 216.226 62.756V61.892C216.19 61.88 216.034 61.856 215.866 61.856C214.966 61.856 214.318 62.504 213.994 63.38H213.97C213.97 63.356 214.006 63.164 213.994 62.924V62H213.154V68ZM220.675 63.152C221.023 62.936 221.791 62.648 222.655 62.648C223.651 62.648 224.323 63.044 224.323 64.196V64.568C221.827 64.22 220.303 64.952 220.303 66.44C220.303 67.472 221.071 68.144 222.175 68.144C223.627 68.144 224.335 66.836 224.371 66.728H224.395C224.395 66.728 224.347 66.932 224.359 67.232V68H225.187V64.148C225.187 62.648 224.395 61.856 222.751 61.856C221.803 61.856 221.011 62.12 220.675 62.312V63.152ZM222.307 67.4C221.623 67.4 221.191 66.992 221.191 66.404C221.191 65.456 222.247 64.904 224.299 65.228C224.299 66.272 223.447 67.4 222.307 67.4ZM228.356 66.548C228.356 66.308 228.788 66.092 229.328 66.044H229.376C230.66 66.008 231.608 65.144 231.608 63.968C231.608 63.416 231.368 62.948 230.996 62.624L231.056 62.636C231.056 62.636 231.26 62.684 231.44 62.684H232.316V62H230.156C229.88 61.904 229.556 61.856 229.232 61.856C227.888 61.856 226.856 62.732 226.856 63.968C226.856 64.88 227.42 65.6 228.272 65.912C227.792 66.068 227.48 66.368 227.48 66.704C227.48 67.1 227.828 67.388 228.428 67.46C227.48 67.64 226.724 68.24 226.724 68.96C226.724 70.04 227.804 70.592 229.424 70.592C231.08 70.592 232.22 69.908 232.22 68.792C232.22 67.7 231.32 67.244 229.832 67.088C228.716 66.98 228.356 66.872 228.356 66.548ZM229.232 65.384C228.332 65.384 227.696 64.784 227.696 63.98C227.696 63.176 228.332 62.564 229.232 62.564C230.144 62.564 230.78 63.176 230.78 63.98C230.78 64.784 230.144 65.384 229.232 65.384ZM229.424 69.92C228.344 69.92 227.588 69.56 227.588 68.876C227.588 68.288 228.308 67.772 229.34 67.772C230.84 67.772 231.32 68.264 231.32 68.852C231.32 69.476 230.612 69.92 229.424 69.92ZM236.278 61.856C234.526 61.856 233.23 63.188 233.23 65C233.23 66.812 234.526 68.144 236.278 68.144C238.042 68.144 239.338 66.812 239.338 65C239.338 63.188 238.042 61.856 236.278 61.856ZM236.278 67.352C235.018 67.352 234.094 66.368 234.094 65C234.094 63.632 235.018 62.648 236.278 62.648C237.55 62.648 238.462 63.632 238.462 65C238.462 66.368 237.55 67.352 236.278 67.352Z" fill="#999999"/>
<path d="M11.06 15.182C9.94 15.714 8.512 16.05 7.224 16.05C4.41 16.05 2.38 14.076 2.38 11.388C2.38 8.854 4.256 7.006 7.07 7.006C8.512 7.006 9.366 7.608 9.366 8.672V9.036C6.608 8.588 4.592 9.554 4.592 11.472C4.592 12.956 5.782 13.88 7.336 13.88C8.652 13.88 9.884 13.376 10.654 12.998V8.672C10.654 6.95 9.366 5.872 7.14 5.872C3.486 5.872 1.092 8.266 1.092 11.486C1.092 14.804 3.682 17.17 7.21 17.17C8.694 17.17 10.108 16.806 11.06 16.316V15.182ZM7.476 12.858C6.412 12.858 5.852 12.242 5.852 11.374C5.852 10.184 7.168 9.498 9.338 9.876V12.41C8.988 12.564 8.274 12.858 7.476 12.858ZM16.2972 15.168C18.4112 15.168 19.7412 14.146 19.7412 12.424C19.7412 10.912 18.8032 10.128 16.8712 9.428C15.1492 8.826 14.6592 8.238 14.6592 7.412C14.6592 6.516 15.5272 5.956 16.7732 5.956C17.6832 5.956 18.6492 6.25 19.2092 6.544V5.27C18.6492 5.018 17.7112 4.752 16.7032 4.752C14.7712 4.752 13.3432 5.746 13.3432 7.454C13.3432 8.994 14.2532 9.82 16.1852 10.492C17.8792 11.08 18.4252 11.584 18.4252 12.522C18.4252 13.446 17.4872 13.964 16.2272 13.964C15.1352 13.964 14.0992 13.6 13.3852 13.25V14.58C14.0572 14.874 15.1352 15.168 16.2972 15.168ZM22.2504 11.5C22.2504 10.03 23.2444 8.994 24.6444 8.994C25.5544 8.994 26.2404 9.302 26.7304 9.61V8.378C26.3104 8.154 25.6524 7.832 24.5744 7.832C22.4184 7.832 20.9204 9.386 20.9204 11.5C20.9204 13.614 22.4184 15.168 24.5744 15.168C25.6664 15.168 26.3524 14.832 26.7724 14.608V13.39C26.3384 13.656 25.6104 14.006 24.6444 14.006C23.2304 14.006 22.2504 12.97 22.2504 11.5ZM31.6414 7.832C29.5694 7.832 28.0434 9.386 28.0434 11.5C28.0434 13.614 29.5694 15.168 31.6414 15.168C33.7274 15.168 35.2534 13.614 35.2534 11.5C35.2534 9.386 33.7274 7.832 31.6414 7.832ZM31.6414 14.034C30.2974 14.034 29.3034 12.984 29.3034 11.5C29.3034 10.016 30.2974 8.966 31.6414 8.966C32.9994 8.966 33.9934 10.016 33.9934 11.5C33.9934 12.984 32.9994 14.034 31.6414 14.034ZM36.1954 8V9.064H37.3434V13.082C37.3434 14.65 38.4074 15.168 39.4154 15.168C40.1014 15.168 40.6754 15.014 40.9834 14.846V13.712C40.5914 13.894 40.1014 14.02 39.6674 14.02C39.0794 14.02 38.6314 13.684 38.6314 12.69V9.064H40.7454V8H38.6314V5.9H37.3574V8H36.1954ZM41.4727 8V9.064H42.6207V13.082C42.6207 14.65 43.6847 15.168 44.6927 15.168C45.3787 15.168 45.9527 15.014 46.2607 14.846V13.712C45.8687 13.894 45.3787 14.02 44.9447 14.02C44.3567 14.02 43.9087 13.684 43.9087 12.69V9.064H46.0227V8H43.9087V5.9H42.6347V8H41.4727Z" fill="#00D5FF"/>
<path d="M53.5778 4.92H52.7798V12.9C52.7798 13.852 52.2898 14.426 51.4358 14.426C50.9458 14.426 50.4978 14.23 50.2178 14.048V14.832C50.4978 15.014 50.9178 15.168 51.4638 15.168C52.8358 15.168 53.5778 14.314 53.5778 12.83V4.92ZM56.3303 12.424C56.3303 14.202 56.9323 15.168 58.6543 15.168C60.2783 15.168 61.2303 13.922 61.4683 13.264H61.4963C61.4963 13.278 61.4403 13.516 61.4403 13.838L61.4543 15H62.2103V8H61.4263V11.43C61.4263 13.012 60.3483 14.426 58.7103 14.426C57.2543 14.426 57.1003 13.362 57.1003 12.2V8H56.3303V12.424ZM68.4576 13.306C68.4576 14.118 67.6316 14.468 66.7356 14.468C66.0636 14.468 65.2236 14.272 64.4956 13.936V14.706C65.0976 14.986 65.9376 15.168 66.7776 15.168C68.1496 15.168 69.2136 14.566 69.2136 13.292C69.2136 12.186 68.4576 11.626 66.9456 11.15C65.8116 10.786 65.2236 10.422 65.2236 9.708C65.2236 8.966 65.8816 8.532 66.9456 8.532C67.5476 8.532 68.2616 8.728 68.8076 9.008V8.252C68.2756 8 67.5336 7.832 66.8756 7.832C65.4756 7.832 64.4676 8.546 64.4676 9.708C64.4676 10.842 65.4196 11.444 66.6236 11.822C67.8696 12.2 68.4576 12.522 68.4576 13.306ZM70.6241 8V8.658H71.8841V13.068C71.8841 14.664 72.7801 15.168 73.7041 15.168C74.3201 15.168 74.8661 15.014 75.1881 14.832V14.132C74.7541 14.356 74.2221 14.468 73.8021 14.468C73.1301 14.468 72.6541 14.062 72.6541 12.914V8.658H74.9361V8H72.6541V5.9H71.8841V8H70.6241ZM79.6101 8V8.658H80.7301V15H81.5141V8.658H83.5021V8H81.5001V7.132C81.5001 6.026 82.0601 5.466 83.1101 5.466C83.4461 5.466 83.7261 5.522 83.8381 5.55V4.836C83.7261 4.808 83.3901 4.752 83.0401 4.752C81.5981 4.752 80.7441 5.648 80.7441 7.104V8H79.6101ZM84.9462 5.956C84.9462 6.278 85.1842 6.516 85.5202 6.516C85.8422 6.516 86.0942 6.278 86.0942 5.956C86.0942 5.62 85.8422 5.382 85.5202 5.382C85.1842 5.382 84.9462 5.62 84.9462 5.956ZM85.1282 8V15H85.8982V8H85.1282ZM88.8333 8V15H89.6033V11.57C89.6033 9.876 90.8073 8.574 92.3893 8.574C93.8593 8.574 94.0133 9.652 94.0133 10.8V15H94.7833V10.576C94.7833 8.896 94.2513 7.832 92.4593 7.832C90.7793 7.832 89.8133 9.078 89.5613 9.736H89.5333C89.5473 9.722 89.5893 9.484 89.5893 9.162V8H88.8333ZM97.2919 5.956C97.2919 6.278 97.5299 6.516 97.8659 6.516C98.1879 6.516 98.4399 6.278 98.4399 5.956C98.4399 5.62 98.1879 5.382 97.8659 5.382C97.5299 5.382 97.2919 5.62 97.2919 5.956ZM97.4739 8V15H98.2439V8H97.4739ZM104.483 13.306C104.483 14.118 103.657 14.468 102.761 14.468C102.089 14.468 101.249 14.272 100.521 13.936V14.706C101.123 14.986 101.963 15.168 102.803 15.168C104.175 15.168 105.239 14.566 105.239 13.292C105.239 12.186 104.483 11.626 102.971 11.15C101.837 10.786 101.249 10.422 101.249 9.708C101.249 8.966 101.907 8.532 102.971 8.532C103.573 8.532 104.287 8.728 104.833 9.008V8.252C104.301 8 103.559 7.832 102.901 7.832C101.501 7.832 100.493 8.546 100.493 9.708C100.493 10.842 101.445 11.444 102.649 11.822C103.895 12.2 104.483 12.522 104.483 13.306ZM107.386 15H108.156V11.57C108.156 9.876 109.36 8.574 110.942 8.574C112.412 8.574 112.566 9.652 112.566 10.8V15H113.336V10.576C113.336 8.896 112.804 7.832 111.012 7.832C109.332 7.832 108.38 9.078 108.128 9.736H108.1C108.1 9.694 108.156 9.442 108.156 9.12V4.92H107.386V15ZM118.757 7.832C116.867 7.832 115.411 9.386 115.411 11.5C115.411 13.684 116.895 15.168 118.967 15.168C120.031 15.168 120.969 14.86 121.585 14.496V13.712C120.871 14.174 119.919 14.454 118.981 14.454C117.343 14.454 116.223 13.306 116.223 11.626V11.528H121.837C121.837 11.416 121.851 11.262 121.851 11.108C121.851 9.386 120.745 7.832 118.757 7.832ZM121.039 10.926H116.251C116.405 9.708 117.287 8.546 118.743 8.546C120.241 8.546 121.039 9.708 121.039 10.926ZM130.358 4.92H129.574V8.868C129.574 9.19 129.616 9.428 129.616 9.428H129.588C129.21 8.616 128.202 7.832 126.998 7.832C125.136 7.832 123.764 9.372 123.764 11.5C123.764 13.586 125.136 15.168 126.998 15.168C128.202 15.168 129.224 14.356 129.616 13.516H129.644C129.644 13.516 129.602 13.74 129.602 14.062V15H130.358V4.92ZM127.04 8.546C128.244 8.546 129.588 9.442 129.588 11.5C129.588 13.558 128.244 14.454 127.04 14.454C125.528 14.454 124.548 13.166 124.548 11.5C124.548 9.792 125.528 8.546 127.04 8.546ZM141.03 8.126H140.82L138.72 13.516L136.522 8H135.668L138.622 15.168H138.832L140.918 9.834L143.018 15.168H143.228L146.168 8H145.328L143.116 13.516L141.03 8.126ZM147.606 15H148.376V11.892C148.376 10.478 149.062 8.602 150.63 8.602C150.798 8.602 150.952 8.63 150.966 8.63V7.874C150.952 7.874 150.756 7.832 150.56 7.832C149.482 7.832 148.698 8.658 148.334 9.722H148.32C148.306 9.708 148.362 9.47 148.362 9.162V8H147.606V15ZM152.649 5.956C152.649 6.278 152.887 6.516 153.223 6.516C153.545 6.516 153.797 6.278 153.797 5.956C153.797 5.62 153.545 5.382 153.223 5.382C152.887 5.382 152.649 5.62 152.649 5.956ZM152.831 8V15H153.601V8H152.831ZM155.444 8V8.658H156.704V13.068C156.704 14.664 157.6 15.168 158.524 15.168C159.14 15.168 159.686 15.014 160.008 14.832V14.132C159.574 14.356 159.042 14.468 158.622 14.468C157.95 14.468 157.474 14.062 157.474 12.914V8.658H159.756V8H157.474V5.9H156.704V8H155.444ZM161.44 5.956C161.44 6.278 161.678 6.516 162.014 6.516C162.336 6.516 162.588 6.278 162.588 5.956C162.588 5.62 162.336 5.382 162.014 5.382C161.678 5.382 161.44 5.62 161.44 5.956ZM161.622 8V15H162.392V8H161.622ZM165.327 8V15H166.097V11.57C166.097 9.876 167.301 8.574 168.883 8.574C170.353 8.574 170.507 9.652 170.507 10.8V15H171.277V10.576C171.277 8.896 170.745 7.832 168.953 7.832C167.273 7.832 166.307 9.078 166.055 9.736H166.027C166.041 9.722 166.083 9.484 166.083 9.162V8H165.327ZM174.976 13.32C174.976 13.026 175.48 12.746 176.11 12.704H176.194C177.706 12.676 178.84 11.668 178.84 10.282C178.84 9.568 178.532 8.966 178.028 8.56H178.084C178.084 8.56 178.364 8.644 178.602 8.644H179.68V8H177.16C176.852 7.888 176.488 7.832 176.124 7.832C174.57 7.832 173.408 8.854 173.408 10.282C173.408 11.346 174.066 12.2 175.06 12.55C174.542 12.718 174.192 13.054 174.192 13.432C174.192 13.88 174.584 14.216 175.312 14.286C174.192 14.496 173.268 15.21 173.268 16.078C173.268 17.324 174.5 17.996 176.362 17.996C178.238 17.996 179.526 17.198 179.526 15.938C179.526 14.664 178.448 14.132 176.74 13.964C175.368 13.838 174.976 13.698 174.976 13.32ZM176.124 12.046C174.976 12.046 174.178 11.304 174.178 10.282C174.178 9.274 174.976 8.518 176.124 8.518C177.272 8.518 178.084 9.274 178.084 10.282C178.084 11.304 177.272 12.046 176.124 12.046ZM176.376 17.324C174.99 17.324 174.052 16.876 174.052 16.008C174.052 15.28 174.948 14.622 176.264 14.622C178.154 14.622 178.742 15.266 178.742 15.98C178.742 16.778 177.874 17.324 176.376 17.324ZM184.114 8V8.658H185.374V13.068C185.374 14.664 186.27 15.168 187.194 15.168C187.81 15.168 188.356 15.014 188.678 14.832V14.132C188.244 14.356 187.712 14.468 187.292 14.468C186.62 14.468 186.144 14.062 186.144 12.914V8.658H188.426V8H186.144V5.9H185.374V8H184.114ZM193.022 7.832C191.132 7.832 189.676 9.386 189.676 11.5C189.676 13.684 191.16 15.168 193.232 15.168C194.296 15.168 195.234 14.86 195.85 14.496V13.712C195.136 14.174 194.184 14.454 193.246 14.454C191.608 14.454 190.488 13.306 190.488 11.626V11.528H196.102C196.102 11.416 196.116 11.262 196.116 11.108C196.116 9.386 195.01 7.832 193.022 7.832ZM195.304 10.926H190.516C190.67 9.708 191.552 8.546 193.008 8.546C194.506 8.546 195.304 9.708 195.304 10.926ZM201.676 13.306C201.676 14.118 200.85 14.468 199.954 14.468C199.282 14.468 198.442 14.272 197.714 13.936V14.706C198.316 14.986 199.156 15.168 199.996 15.168C201.368 15.168 202.432 14.566 202.432 13.292C202.432 12.186 201.676 11.626 200.164 11.15C199.03 10.786 198.442 10.422 198.442 9.708C198.442 8.966 199.1 8.532 200.164 8.532C200.766 8.532 201.48 8.728 202.026 9.008V8.252C201.494 8 200.752 7.832 200.094 7.832C198.694 7.832 197.686 8.546 197.686 9.708C197.686 10.842 198.638 11.444 199.842 11.822C201.088 12.2 201.676 12.522 201.676 13.306ZM203.843 8V8.658H205.103V13.068C205.103 14.664 205.999 15.168 206.923 15.168C207.539 15.168 208.085 15.014 208.407 14.832V14.132C207.973 14.356 207.441 14.468 207.021 14.468C206.349 14.468 205.873 14.062 205.873 12.914V8.658H208.155V8H205.873V5.9H205.103V8H203.843ZM213.325 13.306C213.325 14.118 212.499 14.468 211.603 14.468C210.931 14.468 210.091 14.272 209.363 13.936V14.706C209.965 14.986 210.805 15.168 211.645 15.168C213.017 15.168 214.081 14.566 214.081 13.292C214.081 12.186 213.325 11.626 211.813 11.15C210.679 10.786 210.091 10.422 210.091 9.708C210.091 8.966 210.749 8.532 211.813 8.532C212.415 8.532 213.129 8.728 213.675 9.008V8.252C213.143 8 212.401 7.832 211.743 7.832C210.343 7.832 209.335 8.546 209.335 9.708C209.335 10.842 210.287 11.444 211.491 11.822C212.737 12.2 213.325 12.522 213.325 13.306ZM219.036 8V8.658H220.156V15H220.94V8.658H222.928V8H220.926V7.132C220.926 6.026 221.486 5.466 222.536 5.466C222.872 5.466 223.152 5.522 223.264 5.55V4.836C223.152 4.808 222.816 4.752 222.466 4.752C221.024 4.752 220.17 5.648 220.17 7.104V8H219.036ZM227.452 7.832C225.436 7.832 223.938 9.4 223.938 11.5C223.938 13.6 225.436 15.168 227.452 15.168C229.468 15.168 230.966 13.6 230.966 11.5C230.966 9.4 229.468 7.832 227.452 7.832ZM227.452 14.454C225.856 14.454 224.722 13.208 224.722 11.5C224.722 9.792 225.856 8.546 227.452 8.546C229.048 8.546 230.182 9.792 230.182 11.5C230.182 13.208 229.048 14.454 227.452 14.454ZM233.164 15H233.934V11.892C233.934 10.478 234.62 8.602 236.188 8.602C236.356 8.602 236.51 8.63 236.524 8.63V7.874C236.51 7.874 236.314 7.832 236.118 7.832C235.04 7.832 234.256 8.658 233.892 9.722H233.878C233.864 9.708 233.92 9.47 233.92 9.162V8H233.164V15ZM1.288 24.956C1.288 25.278 1.526 25.516 1.862 25.516C2.184 25.516 2.436 25.278 2.436 24.956C2.436 24.62 2.184 24.382 1.862 24.382C1.526 24.382 1.288 24.62 1.288 24.956ZM1.47 27V34H2.24V27H1.47ZM4.08308 27V27.658H5.34308V32.068C5.34308 33.664 6.23908 34.168 7.16308 34.168C7.77908 34.168 8.32508 34.014 8.64708 33.832V33.132C8.21308 33.356 7.68108 33.468 7.26108 33.468C6.58908 33.468 6.11308 33.062 6.11308 31.914V27.658H8.39508V27H6.11308V24.9H5.34308V27H4.08308ZM11.3099 33.188H10.4139L9.54592 36.1H10.2039L11.3099 33.188ZM17.3883 30.5C17.3883 28.806 18.5223 27.56 20.1603 27.56C21.1823 27.56 21.8403 27.882 22.3723 28.204V27.406C21.8543 27.14 21.2103 26.832 20.1323 26.832C18.0743 26.832 16.5903 28.4 16.5903 30.5C16.5903 32.6 18.0743 34.168 20.1323 34.168C21.2243 34.168 21.8963 33.86 22.4143 33.594V32.796C21.8963 33.118 21.1963 33.44 20.1603 33.44C18.5223 33.44 17.3883 32.194 17.3883 30.5ZM24.6093 28.134C24.9733 27.91 25.8833 27.546 26.9193 27.546C28.1513 27.546 28.9633 28.05 28.9633 29.52V30.052C26.0793 29.618 24.1753 30.486 24.1753 32.25C24.1753 33.384 25.0433 34.168 26.3313 34.168C28.1373 34.168 29.0053 32.488 29.0053 32.432H29.0333C29.0333 32.432 28.9773 32.684 28.9913 33.048V34H29.7333V29.492C29.7333 27.742 28.8513 26.832 26.9893 26.832C25.8973 26.832 25.0013 27.154 24.6093 27.364V28.134ZM26.4153 33.468C25.5333 33.468 24.9733 32.95 24.9733 32.208C24.9733 30.948 26.4573 30.276 28.9633 30.682C28.9633 32.012 27.8853 33.468 26.4153 33.468ZM32.4095 27V34H33.1795V30.57C33.1795 28.876 34.3835 27.574 35.9655 27.574C37.4355 27.574 37.5895 28.652 37.5895 29.8V34H38.3595V29.576C38.3595 27.896 37.8275 26.832 36.0355 26.832C34.3555 26.832 33.3895 28.078 33.1375 28.736H33.1095C33.1235 28.722 33.1655 28.484 33.1655 28.162V27H32.4095ZM43.1862 37.136C43.3262 37.192 43.6202 37.248 43.9422 37.248C45.8322 37.248 46.4902 35.722 47.4142 33.496L50.2002 27H49.3182L48.2402 29.59C47.7782 30.682 47.2742 31.9 46.8122 32.978C46.3502 31.844 45.8742 30.724 45.3982 29.59L44.3062 27H43.4382L46.3922 33.86C45.7482 35.442 45.1602 36.548 43.9142 36.548C43.5782 36.548 43.3542 36.506 43.1862 36.464V37.136ZM54.6805 26.832C52.6645 26.832 51.1665 28.4 51.1665 30.5C51.1665 32.6 52.6645 34.168 54.6805 34.168C56.6965 34.168 58.1945 32.6 58.1945 30.5C58.1945 28.4 56.6965 26.832 54.6805 26.832ZM54.6805 33.454C53.0845 33.454 51.9505 32.208 51.9505 30.5C51.9505 28.792 53.0845 27.546 54.6805 27.546C56.2765 27.546 57.4105 28.792 57.4105 30.5C57.4105 32.208 56.2765 33.454 54.6805 33.454ZM60.3088 31.424C60.3088 33.202 60.9108 34.168 62.6328 34.168C64.2568 34.168 65.2088 32.922 65.4468 32.264H65.4748C65.4748 32.278 65.4188 32.516 65.4188 32.838L65.4328 34H66.1888V27H65.4048V30.43C65.4048 32.012 64.3268 33.426 62.6888 33.426C61.2328 33.426 61.0788 32.362 61.0788 31.2V27H60.3088V31.424ZM71.7862 27V27.658H73.0462V32.068C73.0462 33.664 73.9422 34.168 74.8662 34.168C75.4822 34.168 76.0282 34.014 76.3502 33.832V33.132C75.9162 33.356 75.3842 33.468 74.9642 33.468C74.2922 33.468 73.8162 33.062 73.8162 31.914V27.658H76.0982V27H73.8162V24.9H73.0462V27H71.7862ZM78.08 28.134C78.444 27.91 79.354 27.546 80.39 27.546C81.622 27.546 82.434 28.05 82.434 29.52V30.052C79.55 29.618 77.646 30.486 77.646 32.25C77.646 33.384 78.514 34.168 79.802 34.168C81.608 34.168 82.476 32.488 82.476 32.432H82.504C82.504 32.432 82.448 32.684 82.462 33.048V34H83.204V29.492C83.204 27.742 82.322 26.832 80.46 26.832C79.368 26.832 78.472 27.154 78.08 27.364V28.134ZM79.886 33.468C79.004 33.468 78.444 32.95 78.444 32.208C78.444 30.948 79.928 30.276 82.434 30.682C82.434 32.012 81.356 33.468 79.886 33.468ZM91.3542 27H90.3742L86.6502 30.934V23.92H85.8802V34H86.6502V31.872L88.1342 30.318L90.6542 34H91.5782L88.7082 29.828L91.3542 27ZM96.0887 26.832C94.1987 26.832 92.7427 28.386 92.7427 30.5C92.7427 32.684 94.2267 34.168 96.2987 34.168C97.3627 34.168 98.3007 33.86 98.9167 33.496V32.712C98.2027 33.174 97.2507 33.454 96.3127 33.454C94.6747 33.454 93.5547 32.306 93.5547 30.626V30.528H99.1687C99.1687 30.416 99.1827 30.262 99.1827 30.108C99.1827 28.386 98.0767 26.832 96.0887 26.832ZM98.3707 29.926H93.5827C93.7367 28.708 94.6187 27.546 96.0747 27.546C97.5727 27.546 98.3707 28.708 98.3707 29.926ZM104.877 28.134C105.241 27.91 106.151 27.546 107.187 27.546C108.419 27.546 109.231 28.05 109.231 29.52V30.052C106.347 29.618 104.443 30.486 104.443 32.25C104.443 33.384 105.311 34.168 106.599 34.168C108.405 34.168 109.273 32.488 109.273 32.432H109.301C109.301 32.432 109.245 32.684 109.259 33.048V34H110.001V29.492C110.001 27.742 109.119 26.832 107.257 26.832C106.165 26.832 105.269 27.154 104.877 27.364V28.134ZM106.683 33.468C105.801 33.468 105.241 32.95 105.241 32.208C105.241 30.948 106.725 30.276 109.231 30.682C109.231 32.012 108.153 33.468 106.683 33.468ZM116.423 32.362C116.423 33.664 117.039 34.168 117.977 34.168C118.383 34.168 118.635 34.084 118.663 34.084V33.398C118.635 33.412 118.411 33.468 118.089 33.468C117.431 33.468 117.193 33.062 117.193 32.222V23.92H116.423V32.362ZM123.423 26.832C121.407 26.832 119.909 28.4 119.909 30.5C119.909 32.6 121.407 34.168 123.423 34.168C125.439 34.168 126.937 32.6 126.937 30.5C126.937 28.4 125.439 26.832 123.423 26.832ZM123.423 33.454C121.827 33.454 120.693 32.208 120.693 30.5C120.693 28.792 121.827 27.546 123.423 27.546C125.019 27.546 126.153 28.792 126.153 30.5C126.153 32.208 125.019 33.454 123.423 33.454ZM132.159 26.832C130.143 26.832 128.645 28.4 128.645 30.5C128.645 32.6 130.143 34.168 132.159 34.168C134.175 34.168 135.673 32.6 135.673 30.5C135.673 28.4 134.175 26.832 132.159 26.832ZM132.159 33.454C130.563 33.454 129.429 32.208 129.429 30.5C129.429 28.792 130.563 27.546 132.159 27.546C133.755 27.546 134.889 28.792 134.889 30.5C134.889 32.208 133.755 33.454 132.159 33.454ZM143.471 27H142.491L138.767 30.934V23.92H137.997V34H138.767V31.872L140.251 30.318L142.771 34H143.695L140.825 29.828L143.471 27ZM146.087 31.494H146.843V30.892C146.843 28.848 149.363 28.652 149.363 26.188C149.363 24.774 148.369 23.752 146.633 23.752C145.821 23.752 145.037 24.06 144.757 24.256V25.012C145.065 24.802 145.821 24.48 146.633 24.48C147.879 24.48 148.579 25.208 148.579 26.216C148.579 28.288 146.087 28.47 146.087 30.864V31.494ZM145.905 33.608C145.905 33.93 146.143 34.168 146.479 34.168C146.801 34.168 147.053 33.93 147.053 33.608C147.053 33.272 146.801 33.034 146.479 33.034C146.143 33.034 145.905 33.272 145.905 33.608Z" fill="white"/>
</svg>
