<svg width="240" height="71" viewBox="0 0 240 71" fill="none" xmlns="http://www.w3.org/2000/svg">
<path d="M46.333 58.64H45.098L40.301 64.035V58.64H39.313V68H40.301V65.244L42.225 63.125L45.293 68H46.463L42.888 62.423L46.333 58.64ZM47.6886 68H48.6506V65.14C48.6506 63.853 49.3266 62.28 50.6916 62.28C50.8476 62.28 50.9776 62.306 51.0166 62.319V61.383C50.9776 61.37 50.8086 61.344 50.6266 61.344C49.6516 61.344 48.9496 62.046 48.5986 62.995H48.5726C48.5726 62.969 48.6116 62.761 48.5986 62.501V61.5H47.6886V68ZM52.4735 59.602C52.4735 59.966 52.7205 60.226 53.1105 60.226C53.4745 60.226 53.7475 59.966 53.7475 59.602C53.7475 59.238 53.4745 58.978 53.1105 58.978C52.7205 58.978 52.4735 59.238 52.4735 59.602ZM52.6295 61.5V68H53.5915V61.5H52.6295ZM59.0974 66.375C59.0974 67.051 58.4214 67.337 57.6544 67.337C57.0434 67.337 56.2374 67.129 55.5744 66.83V67.727C56.1204 67.987 56.8874 68.156 57.6934 68.156C59.0324 68.156 60.0074 67.545 60.0074 66.375C60.0074 65.309 59.3184 64.802 57.9274 64.347C56.9524 64.035 56.4584 63.749 56.4584 63.151C56.4584 62.514 57.0564 62.176 57.9144 62.176C58.4864 62.176 59.1494 62.371 59.6304 62.631V61.734C59.1754 61.513 58.4864 61.344 57.8234 61.344C56.4974 61.344 55.5354 62.059 55.5354 63.138C55.5354 64.243 56.3934 64.763 57.5244 65.127C58.5904 65.465 59.0974 65.725 59.0974 66.375ZM61.1633 61.5V62.293H62.2813V66.206C62.2813 67.688 63.1913 68.156 64.0883 68.156C64.6863 68.156 65.2063 68.013 65.4923 67.857V67.012C65.1153 67.194 64.6343 67.311 64.2443 67.311C63.6593 67.311 63.2303 66.96 63.2303 65.959V62.293H65.2713V61.5H63.2303V59.55H62.2813V61.5H61.1633ZM66.7557 59.602C66.7557 59.966 67.0027 60.226 67.3927 60.226C67.7567 60.226 68.0297 59.966 68.0297 59.602C68.0297 59.238 67.7567 58.978 67.3927 58.978C67.0027 58.978 66.7557 59.238 66.7557 59.602ZM66.9117 61.5V68H67.8737V61.5H66.9117ZM70.4156 61.5V68H71.3776V64.815C71.3776 63.359 72.3916 62.241 73.7696 62.241C74.9916 62.241 75.1476 63.138 75.1476 64.126V68H76.0966V63.905C76.0966 62.319 75.5376 61.344 73.8996 61.344C72.4306 61.344 71.5466 62.41 71.3126 63.008H71.2866C71.2996 62.995 71.3386 62.787 71.3386 62.501L71.3256 61.5H70.4156ZM80.7875 58.64L84.3885 68.156H84.4145L86.1175 63.723C86.4165 62.891 86.7545 62.02 87.0405 61.201C87.3265 62.02 87.6515 62.891 87.9635 63.723L89.6665 68.156H89.6925L93.2935 58.64H92.2275L90.4855 63.398C90.1865 64.217 89.9135 65.023 89.6795 65.673C89.4585 65.023 89.1595 64.295 88.8475 63.489L87.0535 58.77H87.0275L85.2335 63.476C84.9215 64.295 84.6355 65.023 84.4015 65.673C84.1675 65.023 83.9075 64.217 83.5955 63.398L81.8535 58.64H80.7875ZM93.7692 62.748C94.1462 62.514 94.9782 62.202 95.9142 62.202C96.9932 62.202 97.7212 62.631 97.7212 63.879V64.282C95.0172 63.905 93.3662 64.698 93.3662 66.31C93.3662 67.428 94.1982 68.156 95.3942 68.156C96.9672 68.156 97.7342 66.739 97.7732 66.622H97.7992C97.7992 66.622 97.7472 66.843 97.7602 67.168V68H98.6572V63.827C98.6572 62.202 97.7992 61.344 96.0182 61.344C94.9912 61.344 94.1332 61.63 93.7692 61.838V62.748ZM95.5372 67.35C94.7962 67.35 94.3282 66.908 94.3282 66.271C94.3282 65.244 95.4722 64.646 97.6952 64.997C97.6952 66.128 96.7722 67.35 95.5372 67.35ZM100.189 61.5V62.293H101.307V66.206C101.307 67.688 102.217 68.156 103.114 68.156C103.712 68.156 104.232 68.013 104.518 67.857V67.012C104.141 67.194 103.66 67.311 103.27 67.311C102.685 67.311 102.256 66.96 102.256 65.959V62.293H104.297V61.5H102.256V59.55H101.307V61.5H100.189ZM108.901 66.375C108.901 67.051 108.225 67.337 107.458 67.337C106.847 67.337 106.041 67.129 105.378 66.83V67.727C105.924 67.987 106.691 68.156 107.497 68.156C108.836 68.156 109.811 67.545 109.811 66.375C109.811 65.309 109.122 64.802 107.731 64.347C106.756 64.035 106.262 63.749 106.262 63.151C106.262 62.514 106.86 62.176 107.718 62.176C108.29 62.176 108.953 62.371 109.434 62.631V61.734C108.979 61.513 108.29 61.344 107.627 61.344C106.301 61.344 105.339 62.059 105.339 63.138C105.339 64.243 106.197 64.763 107.328 65.127C108.394 65.465 108.901 65.725 108.901 66.375ZM114.431 61.344C112.533 61.344 111.129 62.787 111.129 64.75C111.129 66.713 112.533 68.156 114.431 68.156C116.342 68.156 117.746 66.713 117.746 64.75C117.746 62.787 116.342 61.344 114.431 61.344ZM114.431 67.298C113.066 67.298 112.065 66.232 112.065 64.75C112.065 63.268 113.066 62.202 114.431 62.202C115.809 62.202 116.797 63.268 116.797 64.75C116.797 66.232 115.809 67.298 114.431 67.298ZM119.737 61.5V68H120.699V64.815C120.699 63.359 121.713 62.241 123.091 62.241C124.313 62.241 124.469 63.138 124.469 64.126V68H125.418V63.905C125.418 62.319 124.859 61.344 123.221 61.344C121.752 61.344 120.868 62.41 120.634 63.008H120.608C120.621 62.995 120.66 62.787 120.66 62.501L120.647 61.5H119.737Z" fill="white"/>
<path d="M181.547 61.556C181.547 62.528 180.611 63.176 179.399 63.176H179.063V63.932H179.291C180.803 63.932 181.691 64.592 181.691 65.732C181.691 66.644 180.923 67.316 179.783 67.316C178.775 67.316 178.175 67.028 177.731 66.788V67.652C178.187 67.904 178.787 68.144 179.831 68.144C181.487 68.144 182.639 67.16 182.639 65.792C182.639 64.616 181.847 63.812 180.875 63.536C181.787 63.236 182.495 62.492 182.495 61.484C182.495 60.116 181.451 59.216 179.831 59.216C179.063 59.216 178.319 59.432 177.887 59.648V60.512C178.307 60.296 179.015 60.044 179.747 60.044C180.815 60.044 181.547 60.608 181.547 61.556ZM184.398 63.68C184.398 66.236 185.646 68.144 187.59 68.144C189.546 68.144 190.782 66.236 190.782 63.68C190.782 61.136 189.546 59.216 187.59 59.216C185.646 59.216 184.398 61.136 184.398 63.68ZM185.322 63.68C185.322 61.544 186.21 60.068 187.59 60.068C188.97 60.068 189.858 61.544 189.858 63.68C189.858 65.816 188.97 67.292 187.59 67.292C186.21 67.292 185.322 65.816 185.322 63.68ZM195.789 62V68H196.677V65.156C196.677 63.956 197.373 62.684 198.693 62.684C199.773 62.684 199.929 63.524 199.929 64.412V68H200.805V65.156C200.805 63.98 201.453 62.684 202.785 62.684C203.829 62.684 204.057 63.452 204.057 64.424V68H204.933V64.22C204.933 62.744 204.381 61.856 202.869 61.856C201.909 61.856 201.069 62.54 200.709 63.32H200.697C200.529 62.372 199.857 61.856 198.861 61.856C197.877 61.856 196.929 62.54 196.617 63.392H196.593C196.605 63.38 196.641 63.188 196.641 62.924L196.629 62H195.789ZM206.942 60.248C206.942 60.584 207.17 60.824 207.53 60.824C207.866 60.824 208.118 60.584 208.118 60.248C208.118 59.912 207.866 59.672 207.53 59.672C207.17 59.672 206.942 59.912 206.942 60.248ZM207.086 62V68H207.974V62H207.086ZM210.321 62V68H211.209V65.06C211.209 63.716 212.145 62.684 213.417 62.684C214.545 62.684 214.689 63.512 214.689 64.424V68H215.565V64.22C215.565 62.756 215.049 61.856 213.537 61.856C212.181 61.856 211.365 62.84 211.149 63.392H211.125C211.137 63.38 211.173 63.188 211.173 62.924L211.161 62H210.321ZM220.675 63.152C221.023 62.936 221.791 62.648 222.655 62.648C223.651 62.648 224.323 63.044 224.323 64.196V64.568C221.827 64.22 220.303 64.952 220.303 66.44C220.303 67.472 221.071 68.144 222.175 68.144C223.627 68.144 224.335 66.836 224.371 66.728H224.395C224.395 66.728 224.347 66.932 224.359 67.232V68H225.187V64.148C225.187 62.648 224.395 61.856 222.751 61.856C221.803 61.856 221.011 62.12 220.675 62.312V63.152ZM222.307 67.4C221.623 67.4 221.191 66.992 221.191 66.404C221.191 65.456 222.247 64.904 224.299 65.228C224.299 66.272 223.447 67.4 222.307 67.4ZM228.356 66.548C228.356 66.308 228.788 66.092 229.328 66.044H229.376C230.66 66.008 231.608 65.144 231.608 63.968C231.608 63.416 231.368 62.948 230.996 62.624L231.056 62.636C231.056 62.636 231.26 62.684 231.44 62.684H232.316V62H230.156C229.88 61.904 229.556 61.856 229.232 61.856C227.888 61.856 226.856 62.732 226.856 63.968C226.856 64.88 227.42 65.6 228.272 65.912C227.792 66.068 227.48 66.368 227.48 66.704C227.48 67.1 227.828 67.388 228.428 67.46C227.48 67.64 226.724 68.24 226.724 68.96C226.724 70.04 227.804 70.592 229.424 70.592C231.08 70.592 232.22 69.908 232.22 68.792C232.22 67.7 231.32 67.244 229.832 67.088C228.716 66.98 228.356 66.872 228.356 66.548ZM229.232 65.384C228.332 65.384 227.696 64.784 227.696 63.98C227.696 63.176 228.332 62.564 229.232 62.564C230.144 62.564 230.78 63.176 230.78 63.98C230.78 64.784 230.144 65.384 229.232 65.384ZM229.424 69.92C228.344 69.92 227.588 69.56 227.588 68.876C227.588 68.288 228.308 67.772 229.34 67.772C230.84 67.772 231.32 68.264 231.32 68.852C231.32 69.476 230.612 69.92 229.424 69.92ZM236.278 61.856C234.526 61.856 233.23 63.188 233.23 65C233.23 66.812 234.526 68.144 236.278 68.144C238.042 68.144 239.338 66.812 239.338 65C239.338 63.188 238.042 61.856 236.278 61.856ZM236.278 67.352C235.018 67.352 234.094 66.368 234.094 65C234.094 63.632 235.018 62.648 236.278 62.648C237.55 62.648 238.462 63.632 238.462 65C238.462 66.368 237.55 67.352 236.278 67.352Z" fill="#999999"/>
<path d="M11.06 15.182C9.94 15.714 8.512 16.05 7.224 16.05C4.41 16.05 2.38 14.076 2.38 11.388C2.38 8.854 4.256 7.006 7.07 7.006C8.512 7.006 9.366 7.608 9.366 8.672V9.036C6.608 8.588 4.592 9.554 4.592 11.472C4.592 12.956 5.782 13.88 7.336 13.88C8.652 13.88 9.884 13.376 10.654 12.998V8.672C10.654 6.95 9.366 5.872 7.14 5.872C3.486 5.872 1.092 8.266 1.092 11.486C1.092 14.804 3.682 17.17 7.21 17.17C8.694 17.17 10.108 16.806 11.06 16.316V15.182ZM7.476 12.858C6.412 12.858 5.852 12.242 5.852 11.374C5.852 10.184 7.168 9.498 9.338 9.876V12.41C8.988 12.564 8.274 12.858 7.476 12.858ZM16.6892 4.92H15.3452V12.648C15.3452 13.502 14.9112 13.964 14.0992 13.964C13.6372 13.964 13.2032 13.838 12.9232 13.67V14.888C13.1892 15.042 13.6792 15.168 14.2392 15.168C15.9612 15.168 16.6892 14.188 16.6892 12.41V4.92ZM21.8621 7.832C19.9301 7.832 18.4321 9.386 18.4321 11.5C18.4321 13.67 19.9301 15.168 22.1421 15.168C23.2761 15.168 24.2141 14.874 24.7601 14.566V13.376C24.1721 13.754 23.1781 14.034 22.2261 14.034C20.7561 14.034 19.8321 13.166 19.7901 11.794V11.78H24.9981C24.9981 11.64 25.0261 11.374 25.0261 11.094C25.0261 9.372 23.9201 7.832 21.8621 7.832ZM23.7381 10.856H19.8041C19.9161 9.848 20.6441 8.924 21.8481 8.924C23.0941 8.924 23.7521 9.848 23.7381 10.856ZM26.9498 8V15H28.2518V11.556C28.2518 10.128 29.2318 9.036 30.6038 9.036C31.7658 9.036 31.9338 9.904 31.9338 10.87V15H33.2358V10.604C33.2358 8.854 32.5638 7.832 30.8418 7.832C29.3578 7.832 28.4338 8.882 28.1678 9.512H28.1398C28.1538 9.484 28.1958 9.274 28.1958 8.98L28.1678 8H26.9498ZM35.5767 8V15H36.8787V11.556C36.8787 10.128 37.8587 9.036 39.2307 9.036C40.3927 9.036 40.5607 9.904 40.5607 10.87V15H41.8627V10.604C41.8627 8.854 41.1907 7.832 39.4687 7.832C37.9847 7.832 37.0607 8.882 36.7947 9.512H36.7667C36.7807 9.484 36.8227 9.274 36.8227 8.98L36.7947 8H35.5767ZM42.9157 18.122C43.0697 18.192 43.4477 18.248 43.8117 18.248C45.6597 18.248 46.4437 16.974 47.3957 14.678L50.1537 8H48.7117L47.7457 10.534C47.4097 11.402 46.9057 12.802 46.5557 13.6C46.1917 12.578 45.7717 11.556 45.3797 10.534L44.3997 8H42.9577L45.8837 14.916C45.3517 16.19 44.7917 17.128 43.6717 17.128C43.3217 17.128 43.0697 17.086 42.9157 17.044V18.122Z" fill="#00D5FF"/>
<path d="M62.9659 5.522C62.3499 5.186 61.2719 4.752 59.8719 4.752C56.8759 4.752 54.6359 7.062 54.6359 9.96C54.6359 12.886 56.8759 15.168 59.8719 15.168C61.3139 15.168 62.4059 14.748 63.0359 14.412V13.614C62.2379 14.02 61.1459 14.412 59.8719 14.412C57.2819 14.412 55.4619 12.466 55.4619 9.96C55.4619 7.468 57.2819 5.508 59.8719 5.508C61.1039 5.508 62.1679 5.914 62.9659 6.32V5.522ZM67.9285 7.832C65.9125 7.832 64.4145 9.4 64.4145 11.5C64.4145 13.6 65.9125 15.168 67.9285 15.168C69.9445 15.168 71.4425 13.6 71.4425 11.5C71.4425 9.4 69.9445 7.832 67.9285 7.832ZM67.9285 14.454C66.3325 14.454 65.1985 13.208 65.1985 11.5C65.1985 9.792 66.3325 8.546 67.9285 8.546C69.5245 8.546 70.6585 9.792 70.6585 11.5C70.6585 13.208 69.5245 14.454 67.9285 14.454ZM73.5569 12.424C73.5569 14.202 74.1589 15.168 75.8809 15.168C77.5049 15.168 78.4569 13.922 78.6949 13.264H78.7229C78.7229 13.278 78.6669 13.516 78.6669 13.838L78.6809 15H79.4369V8H78.6529V11.43C78.6529 13.012 77.5749 14.426 75.9369 14.426C74.4809 14.426 74.3269 13.362 74.3269 12.2V8H73.5569V12.424ZM82.3802 13.362C82.3802 14.664 82.9962 15.168 83.9342 15.168C84.3402 15.168 84.5922 15.084 84.6202 15.084V14.398C84.5922 14.412 84.3682 14.468 84.0462 14.468C83.3882 14.468 83.1502 14.062 83.1502 13.222V4.92H82.3802V13.362ZM92.4597 4.92H91.6757V8.868C91.6757 9.19 91.7177 9.428 91.7177 9.428H91.6897C91.3117 8.616 90.3037 7.832 89.0997 7.832C87.2377 7.832 85.8657 9.372 85.8657 11.5C85.8657 13.586 87.2377 15.168 89.0997 15.168C90.3037 15.168 91.3257 14.356 91.7177 13.516H91.7457C91.7457 13.516 91.7037 13.74 91.7037 14.062V15H92.4597V4.92ZM89.1417 8.546C90.3457 8.546 91.6897 9.442 91.6897 11.5C91.6897 13.558 90.3457 14.454 89.1417 14.454C87.6297 14.454 86.6497 13.166 86.6497 11.5C86.6497 9.792 87.6297 8.546 89.1417 8.546ZM97.5319 18.136C97.6719 18.192 97.9659 18.248 98.2879 18.248C100.178 18.248 100.836 16.722 101.76 14.496L104.546 8H103.664L102.586 10.59C102.124 11.682 101.62 12.9 101.158 13.978C100.696 12.844 100.22 11.724 99.7439 10.59L98.6519 8H97.7839L100.738 14.86C100.094 16.442 99.5059 17.548 98.2599 17.548C97.9239 17.548 97.6999 17.506 97.5319 17.464V18.136ZM109.026 7.832C107.01 7.832 105.512 9.4 105.512 11.5C105.512 13.6 107.01 15.168 109.026 15.168C111.042 15.168 112.54 13.6 112.54 11.5C112.54 9.4 111.042 7.832 109.026 7.832ZM109.026 14.454C107.43 14.454 106.296 13.208 106.296 11.5C106.296 9.792 107.43 8.546 109.026 8.546C110.622 8.546 111.756 9.792 111.756 11.5C111.756 13.208 110.622 14.454 109.026 14.454ZM114.655 12.424C114.655 14.202 115.257 15.168 116.979 15.168C118.603 15.168 119.555 13.922 119.793 13.264H119.821C119.821 13.278 119.765 13.516 119.765 13.838L119.779 15H120.535V8H119.751V11.43C119.751 13.012 118.673 14.426 117.035 14.426C115.579 14.426 115.425 13.362 115.425 12.2V8H114.655V12.424ZM127.406 11.5C127.406 9.806 128.54 8.56 130.178 8.56C131.2 8.56 131.858 8.882 132.39 9.204V8.406C131.872 8.14 131.228 7.832 130.15 7.832C128.092 7.832 126.608 9.4 126.608 11.5C126.608 13.6 128.092 15.168 130.15 15.168C131.242 15.168 131.914 14.86 132.432 14.594V13.796C131.914 14.118 131.214 14.44 130.178 14.44C128.54 14.44 127.406 13.194 127.406 11.5ZM134.579 15H135.349V11.57C135.349 9.876 136.553 8.574 138.135 8.574C139.605 8.574 139.759 9.652 139.759 10.8V15H140.529V10.576C140.529 8.896 139.997 7.832 138.205 7.832C136.525 7.832 135.573 9.078 135.321 9.736H135.293C135.293 9.694 135.349 9.442 135.349 9.12V4.92H134.579V15ZM145.95 7.832C144.06 7.832 142.604 9.386 142.604 11.5C142.604 13.684 144.088 15.168 146.16 15.168C147.224 15.168 148.162 14.86 148.778 14.496V13.712C148.064 14.174 147.112 14.454 146.174 14.454C144.536 14.454 143.416 13.306 143.416 11.626V11.528H149.03C149.03 11.416 149.044 11.262 149.044 11.108C149.044 9.386 147.938 7.832 145.95 7.832ZM148.232 10.926H143.444C143.598 9.708 144.48 8.546 145.936 8.546C147.434 8.546 148.232 9.708 148.232 10.926ZM151.756 11.5C151.756 9.806 152.89 8.56 154.528 8.56C155.55 8.56 156.208 8.882 156.74 9.204V8.406C156.222 8.14 155.578 7.832 154.5 7.832C152.442 7.832 150.958 9.4 150.958 11.5C150.958 13.6 152.442 15.168 154.5 15.168C155.592 15.168 156.264 14.86 156.782 14.594V13.796C156.264 14.118 155.564 14.44 154.528 14.44C152.89 14.44 151.756 13.194 151.756 11.5ZM164.403 8H163.423L159.699 11.934V4.92H158.929V15H159.699V12.872L161.183 11.318L163.703 15H164.627L161.757 10.828L164.403 8ZM169.267 8V8.658H170.527V13.068C170.527 14.664 171.423 15.168 172.347 15.168C172.963 15.168 173.509 15.014 173.831 14.832V14.132C173.397 14.356 172.865 14.468 172.445 14.468C171.773 14.468 171.297 14.062 171.297 12.914V8.658H173.579V8H171.297V5.9H170.527V8H169.267ZM175.445 15H176.215V11.57C176.215 9.876 177.419 8.574 179.001 8.574C180.471 8.574 180.625 9.652 180.625 10.8V15H181.395V10.576C181.395 8.896 180.863 7.832 179.071 7.832C177.391 7.832 176.439 9.078 176.187 9.736H176.159C176.159 9.694 176.215 9.442 176.215 9.12V4.92H175.445V15ZM186.815 7.832C184.925 7.832 183.469 9.386 183.469 11.5C183.469 13.684 184.953 15.168 187.025 15.168C188.089 15.168 189.027 14.86 189.643 14.496V13.712C188.929 14.174 187.977 14.454 187.039 14.454C185.401 14.454 184.281 13.306 184.281 11.626V11.528H189.895C189.895 11.416 189.909 11.262 189.909 11.108C189.909 9.386 188.803 7.832 186.815 7.832ZM189.097 10.926H184.309C184.463 9.708 185.345 8.546 186.801 8.546C188.299 8.546 189.097 9.708 189.097 10.926ZM1.162 28.134C1.526 27.91 2.436 27.546 3.472 27.546C4.704 27.546 5.516 28.05 5.516 29.52V30.052C2.632 29.618 0.728 30.486 0.728 32.25C0.728 33.384 1.596 34.168 2.884 34.168C4.69 34.168 5.558 32.488 5.558 32.432H5.586C5.586 32.432 5.53 32.684 5.544 33.048V34H6.286V29.492C6.286 27.742 5.404 26.832 3.542 26.832C2.45 26.832 1.554 27.154 1.162 27.364V28.134ZM2.968 33.468C2.086 33.468 1.526 32.95 1.526 32.208C1.526 30.948 3.01 30.276 5.516 30.682C5.516 32.012 4.438 33.468 2.968 33.468ZM8.14363 27V27.658H9.40363V32.068C9.40363 33.664 10.2996 34.168 11.2236 34.168C11.8396 34.168 12.3856 34.014 12.7076 33.832V33.132C12.2736 33.356 11.7416 33.468 11.3216 33.468C10.6496 33.468 10.1736 33.062 10.1736 31.914V27.658H12.4556V27H10.1736V24.9H9.40363V27H8.14363ZM13.503 27V27.658H14.763V32.068C14.763 33.664 15.659 34.168 16.583 34.168C17.199 34.168 17.745 34.014 18.067 33.832V33.132C17.633 33.356 17.101 33.468 16.681 33.468C16.009 33.468 15.533 33.062 15.533 31.914V27.658H17.815V27H15.533V24.9H14.763V27H13.503ZM19.7968 28.134C20.1608 27.91 21.0708 27.546 22.1068 27.546C23.3388 27.546 24.1508 28.05 24.1508 29.52V30.052C21.2668 29.618 19.3628 30.486 19.3628 32.25C19.3628 33.384 20.2308 34.168 21.5188 34.168C23.3248 34.168 24.1928 32.488 24.1928 32.432H24.2208C24.2208 32.432 24.1648 32.684 24.1788 33.048V34H24.9208V29.492C24.9208 27.742 24.0388 26.832 22.1768 26.832C21.0848 26.832 20.1888 27.154 19.7968 27.364V28.134ZM21.6028 33.468C20.7208 33.468 20.1608 32.95 20.1608 32.208C20.1608 30.948 21.6448 30.276 24.1508 30.682C24.1508 32.012 23.0728 33.468 21.6028 33.468ZM27.779 30.5C27.779 28.806 28.913 27.56 30.551 27.56C31.573 27.56 32.231 27.882 32.763 28.204V27.406C32.245 27.14 31.601 26.832 30.523 26.832C28.465 26.832 26.981 28.4 26.981 30.5C26.981 32.6 28.465 34.168 30.523 34.168C31.615 34.168 32.287 33.86 32.805 33.594V32.796C32.287 33.118 31.587 33.44 30.551 33.44C28.913 33.44 27.779 32.194 27.779 30.5ZM34.9524 34H35.7224V30.57C35.7224 28.876 36.9264 27.574 38.5084 27.574C39.9784 27.574 40.1324 28.652 40.1324 29.8V34H40.9024V29.576C40.9024 27.896 40.3704 26.832 38.5784 26.832C36.8984 26.832 35.9464 28.078 35.6944 28.736H35.6664C35.6664 28.694 35.7224 28.442 35.7224 28.12V23.92H34.9524V34ZM46.323 26.832C44.433 26.832 42.977 28.386 42.977 30.5C42.977 32.684 44.461 34.168 46.533 34.168C47.597 34.168 48.535 33.86 49.151 33.496V32.712C48.437 33.174 47.485 33.454 46.547 33.454C44.909 33.454 43.789 32.306 43.789 30.626V30.528H49.403C49.403 30.416 49.417 30.262 49.417 30.108C49.417 28.386 48.311 26.832 46.323 26.832ZM48.605 29.926H43.817C43.971 28.708 44.853 27.546 46.309 27.546C47.807 27.546 48.605 28.708 48.605 29.926ZM57.9246 23.92H57.1406V27.868C57.1406 28.19 57.1826 28.428 57.1826 28.428H57.1546C56.7766 27.616 55.7686 26.832 54.5646 26.832C52.7026 26.832 51.3306 28.372 51.3306 30.5C51.3306 32.586 52.7026 34.168 54.5646 34.168C55.7686 34.168 56.7906 33.356 57.1826 32.516H57.2106C57.2106 32.516 57.1686 32.74 57.1686 33.062V34H57.9246V23.92ZM54.6066 27.546C55.8106 27.546 57.1546 28.442 57.1546 30.5C57.1546 32.558 55.8106 33.454 54.6066 33.454C53.0946 33.454 52.1146 32.166 52.1146 30.5C52.1146 28.792 53.0946 27.546 54.6066 27.546ZM63.5147 27V27.658H64.7747V32.068C64.7747 33.664 65.6707 34.168 66.5947 34.168C67.2107 34.168 67.7567 34.014 68.0787 33.832V33.132C67.6447 33.356 67.1127 33.468 66.6927 33.468C66.0207 33.468 65.5447 33.062 65.5447 31.914V27.658H67.8267V27H65.5447V24.9H64.7747V27H63.5147ZM72.8641 26.832C70.8481 26.832 69.3501 28.4 69.3501 30.5C69.3501 32.6 70.8481 34.168 72.8641 34.168C74.8801 34.168 76.3781 32.6 76.3781 30.5C76.3781 28.4 74.8801 26.832 72.8641 26.832ZM72.8641 33.454C71.2681 33.454 70.1341 32.208 70.1341 30.5C70.1341 28.792 71.2681 27.546 72.8641 27.546C74.4601 27.546 75.5941 28.792 75.5941 30.5C75.5941 32.208 74.4601 33.454 72.8641 33.454ZM81.3565 27V27.658H82.6165V32.068C82.6165 33.664 83.5125 34.168 84.4365 34.168C85.0525 34.168 85.5985 34.014 85.9205 33.832V33.132C85.4865 33.356 84.9545 33.468 84.5345 33.468C83.8625 33.468 83.3865 33.062 83.3865 31.914V27.658H85.6685V27H83.3865V24.9H82.6165V27H81.3565ZM87.5345 34H88.3045V30.57C88.3045 28.876 89.5085 27.574 91.0905 27.574C92.5605 27.574 92.7145 28.652 92.7145 29.8V34H93.4845V29.576C93.4845 27.896 92.9525 26.832 91.1605 26.832C89.4805 26.832 88.5285 28.078 88.2765 28.736H88.2485C88.2485 28.694 88.3045 28.442 88.3045 28.12V23.92H87.5345V34ZM98.9051 26.832C97.0151 26.832 95.5591 28.386 95.5591 30.5C95.5591 32.684 97.0431 34.168 99.1151 34.168C100.179 34.168 101.117 33.86 101.733 33.496V32.712C101.019 33.174 100.067 33.454 99.1291 33.454C97.4911 33.454 96.3711 32.306 96.3711 30.626V30.528H101.985C101.985 30.416 101.999 30.262 101.999 30.108C101.999 28.386 100.893 26.832 98.9051 26.832ZM101.187 29.926H96.3991C96.5531 28.708 97.4351 27.546 98.8911 27.546C100.389 27.546 101.187 28.708 101.187 29.926ZM106.909 27V27.658H108.169V32.068C108.169 33.664 109.065 34.168 109.989 34.168C110.605 34.168 111.151 34.014 111.473 33.832V33.132C111.039 33.356 110.507 33.468 110.087 33.468C109.415 33.468 108.939 33.062 108.939 31.914V27.658H111.221V27H108.939V24.9H108.169V27H106.909ZM113.203 28.134C113.567 27.91 114.477 27.546 115.513 27.546C116.745 27.546 117.557 28.05 117.557 29.52V30.052C114.673 29.618 112.769 30.486 112.769 32.25C112.769 33.384 113.637 34.168 114.925 34.168C116.731 34.168 117.599 32.488 117.599 32.432H117.627C117.627 32.432 117.571 32.684 117.585 33.048V34H118.327V29.492C118.327 27.742 117.445 26.832 115.583 26.832C114.491 26.832 113.595 27.154 113.203 27.364V28.134ZM115.009 33.468C114.127 33.468 113.567 32.95 113.567 32.208C113.567 30.948 115.051 30.276 117.557 30.682C117.557 32.012 116.479 33.468 115.009 33.468ZM124.307 32.306C124.307 33.118 123.481 33.468 122.585 33.468C121.913 33.468 121.073 33.272 120.345 32.936V33.706C120.947 33.986 121.787 34.168 122.627 34.168C123.999 34.168 125.063 33.566 125.063 32.292C125.063 31.186 124.307 30.626 122.795 30.15C121.661 29.786 121.073 29.422 121.073 28.708C121.073 27.966 121.731 27.532 122.795 27.532C123.397 27.532 124.111 27.728 124.657 28.008V27.252C124.125 27 123.383 26.832 122.725 26.832C121.325 26.832 120.317 27.546 120.317 28.708C120.317 29.842 121.269 30.444 122.473 30.822C123.719 31.2 124.307 31.522 124.307 32.306ZM132.684 27H131.704L127.98 30.934V23.92H127.21V34H127.98V31.872L129.464 30.318L131.984 34H132.908L130.038 29.828L132.684 27ZM144.618 23.92H143.834V27.868C143.834 28.19 143.876 28.428 143.876 28.428H143.848C143.47 27.616 142.462 26.832 141.258 26.832C139.396 26.832 138.024 28.372 138.024 30.5C138.024 32.586 139.396 34.168 141.258 34.168C142.462 34.168 143.484 33.356 143.876 32.516H143.904C143.904 32.516 143.862 32.74 143.862 33.062V34H144.618V23.92ZM141.3 27.546C142.504 27.546 143.848 28.442 143.848 30.5C143.848 32.558 142.504 33.454 141.3 33.454C139.788 33.454 138.808 32.166 138.808 30.5C138.808 28.792 139.788 27.546 141.3 27.546ZM150.452 26.832C148.436 26.832 146.938 28.4 146.938 30.5C146.938 32.6 148.436 34.168 150.452 34.168C152.468 34.168 153.966 32.6 153.966 30.5C153.966 28.4 152.468 26.832 150.452 26.832ZM150.452 33.454C148.856 33.454 147.722 32.208 147.722 30.5C147.722 28.792 148.856 27.546 150.452 27.546C152.048 27.546 153.182 28.792 153.182 30.5C153.182 32.208 152.048 33.454 150.452 33.454ZM156.896 30.5C156.896 28.806 158.03 27.56 159.668 27.56C160.69 27.56 161.348 27.882 161.88 28.204V27.406C161.362 27.14 160.718 26.832 159.64 26.832C157.582 26.832 156.098 28.4 156.098 30.5C156.098 32.6 157.582 34.168 159.64 34.168C160.732 34.168 161.404 33.86 161.922 33.594V32.796C161.404 33.118 160.704 33.44 159.668 33.44C158.03 33.44 156.896 32.194 156.896 30.5ZM163.86 31.424C163.86 33.202 164.462 34.168 166.184 34.168C167.808 34.168 168.76 32.922 168.998 32.264H169.026C169.026 32.278 168.97 32.516 168.97 32.838L168.984 34H169.74V27H168.956V30.43C168.956 32.012 167.878 33.426 166.24 33.426C164.784 33.426 164.63 32.362 164.63 31.2V27H163.86V31.424ZM172.683 27V34H173.453V30.626C173.453 29.17 174.405 27.574 175.987 27.574C177.415 27.574 177.583 28.652 177.583 29.786V34H178.353V30.626C178.353 29.198 179.235 27.574 180.831 27.574C182.217 27.574 182.469 28.554 182.469 29.8V34H183.253V29.576C183.253 27.882 182.665 26.832 180.873 26.832C179.711 26.832 178.675 27.7 178.283 28.652H178.255C178.087 27.462 177.373 26.832 176.071 26.832C174.951 26.832 173.775 27.7 173.411 28.736H173.383C173.397 28.722 173.439 28.484 173.439 28.162V27H172.683ZM188.729 26.832C186.839 26.832 185.383 28.386 185.383 30.5C185.383 32.684 186.867 34.168 188.939 34.168C190.003 34.168 190.941 33.86 191.557 33.496V32.712C190.843 33.174 189.891 33.454 188.953 33.454C187.315 33.454 186.195 32.306 186.195 30.626V30.528H191.809C191.809 30.416 191.823 30.262 191.823 30.108C191.823 28.386 190.717 26.832 188.729 26.832ZM191.011 29.926H186.223C186.377 28.708 187.259 27.546 188.715 27.546C190.213 27.546 191.011 28.708 191.011 29.926ZM194.079 27V34H194.849V30.57C194.849 28.876 196.053 27.574 197.635 27.574C199.105 27.574 199.259 28.652 199.259 29.8V34H200.029V29.576C200.029 27.896 199.497 26.832 197.705 26.832C196.025 26.832 195.059 28.078 194.807 28.736H194.779C194.793 28.722 194.835 28.484 194.835 28.162V27H194.079ZM201.628 27V27.658H202.888V32.068C202.888 33.664 203.784 34.168 204.708 34.168C205.324 34.168 205.87 34.014 206.192 33.832V33.132C205.758 33.356 205.226 33.468 204.806 33.468C204.134 33.468 203.658 33.062 203.658 31.914V27.658H205.94V27H203.658V24.9H202.888V27H201.628ZM211.11 32.306C211.11 33.118 210.284 33.468 209.388 33.468C208.716 33.468 207.876 33.272 207.148 32.936V33.706C207.75 33.986 208.59 34.168 209.43 34.168C210.802 34.168 211.866 33.566 211.866 32.292C211.866 31.186 211.11 30.626 209.598 30.15C208.464 29.786 207.876 29.422 207.876 28.708C207.876 27.966 208.534 27.532 209.598 27.532C210.2 27.532 210.914 27.728 211.46 28.008V27.252C210.928 27 210.186 26.832 209.528 26.832C208.128 26.832 207.12 27.546 207.12 28.708C207.12 29.842 208.072 30.444 209.276 30.822C210.522 31.2 211.11 31.522 211.11 32.306ZM214.419 31.494H215.175V30.892C215.175 28.848 217.695 28.652 217.695 26.188C217.695 24.774 216.701 23.752 214.965 23.752C214.153 23.752 213.369 24.06 213.089 24.256V25.012C213.397 24.802 214.153 24.48 214.965 24.48C216.211 24.48 216.911 25.208 216.911 26.216C216.911 28.288 214.419 28.47 214.419 30.864V31.494ZM214.237 33.608C214.237 33.93 214.475 34.168 214.811 34.168C215.133 34.168 215.385 33.93 215.385 33.608C215.385 33.272 215.133 33.034 214.811 33.034C214.475 33.034 214.237 33.272 214.237 33.608Z" fill="white"/>
</svg>
