<svg width="40" height="40" fill="none" xmlns="http://www.w3.org/2000/svg"><circle cx="20" cy="20" r="19" fill="#FFE14D" stroke="#000" stroke-width="2"/><path fill-rule="evenodd" clip-rule="evenodd" d="M8 18.534C8 12.724 13.382 8 20 8s12 4.724 12 10.534a9.785 9.785 0 0 1-3 6.888V31a1 1 0 0 1-1.478.878l-5.45-2.97c-.686.105-1.378.158-2.072.158-6.618 0-12-4.722-12-10.532zM14.5 20a1.5 1.5 0 1 0 0-3 1.5 1.5 0 0 0 0 3zm5 0a1.5 1.5 0 1 0 0-3 1.5 1.5 0 0 0 0 3zm6.5-1.5a1.5 1.5 0 1 1-3 0 1.5 1.5 0 0 1 3 0z" fill="#000"/></svg>