<svg width="264" height="62" fill="none" xmlns="http://www.w3.org/2000/svg"><rect x=".5" y=".5" width="263" height="61" rx="3.5" fill="#1A1A1A" stroke="#4D4D4D" stroke-dasharray="3 3"/><path d="M15.402 16.92h-.798v7.98c0 .952-.49 1.526-1.344 1.526-.49 0-.938-.196-1.218-.378v.784c.28.182.7.336 1.246.336 1.372 0 2.114-.854 2.114-2.338v-7.91zm5.86 2.912c-2.015 0-3.514 1.568-3.514 3.668s1.498 3.668 3.514 3.668c2.017 0 3.514-1.568 3.514-3.668s-1.497-3.668-3.514-3.668zm0 6.622c-1.596 0-2.73-1.246-2.73-2.954 0-1.708 1.134-2.954 2.73-2.954s2.73 1.246 2.73 2.954c0 1.708-1.134 2.954-2.73 2.954zm5.839.546h.77v-3.43c0-1.694 1.204-2.996 2.786-2.996 1.47 0 1.624 1.078 1.624 2.226V27h.77v-4.424c0-1.68-.532-2.744-2.324-2.744-1.68 0-2.632 1.246-2.884 1.904h-.028c0-.042.056-.294.056-.616v-4.2h-.77V27zm8.64-7v7h.77v-3.43c0-1.694 1.204-2.996 2.786-2.996 1.47 0 1.625 1.078 1.625 2.226V27h.77v-4.424c0-1.68-.532-2.744-2.325-2.744-1.68 0-2.645 1.246-2.898 1.904h-.028c.014-.014.056-.252.056-.574V20h-.755zm12.387 0v7h.77v-3.374c0-1.456.952-3.052 2.534-3.052 1.428 0 1.596 1.078 1.596 2.212V27h.77v-3.374c0-1.428.882-3.052 2.478-3.052 1.386 0 1.638.98 1.638 2.226V27h.784v-4.424c0-1.694-.588-2.744-2.38-2.744-1.162 0-2.198.868-2.59 1.82H53.7c-.168-1.19-.882-1.82-2.184-1.82-1.12 0-2.296.868-2.66 1.904h-.028c.014-.014.056-.252.056-.574V20h-.756zm16.047-.168c-1.89 0-3.346 1.554-3.346 3.668 0 2.184 1.484 3.668 3.556 3.668 1.064 0 2.002-.308 2.618-.672v-.784c-.714.462-1.666.742-2.604.742-1.638 0-2.758-1.148-2.758-2.828v-.098h5.614c0-.112.014-.266.014-.42 0-1.722-1.106-3.276-3.094-3.276zm2.282 3.094h-4.788c.154-1.218 1.036-2.38 2.492-2.38 1.498 0 2.296 1.162 2.296 2.38zM69.525 20v7h.77v-3.43c0-1.694 1.204-2.996 2.786-2.996 1.47 0 1.624 1.078 1.624 2.226V27h.77v-4.424c0-1.68-.532-2.744-2.324-2.744-1.68 0-2.646 1.246-2.898 1.904h-.028c.014-.014.056-.252.056-.574V20h-.756zm7.548 0v.658h1.26v4.41c0 1.596.896 2.1 1.82 2.1.616 0 1.162-.154 1.484-.336v-.7a3.199 3.199 0 0 1-1.386.336c-.672 0-1.148-.406-1.148-1.554v-4.256h2.282V20h-2.282v-2.1h-.77V20h-1.26zm5.996-2.044c0 .322.238.56.574.56a.556.556 0 0 0 .574-.56.56.56 0 0 0-.574-.574.551.551 0 0 0-.574.574zM83.251 20v7h.77v-7h-.77zm6.603-.168c-2.016 0-3.514 1.568-3.514 3.668s1.498 3.668 3.514 3.668 3.514-1.568 3.514-3.668-1.498-3.668-3.514-3.668zm0 6.622c-1.596 0-2.73-1.246-2.73-2.954 0-1.708 1.134-2.954 2.73-2.954s2.73 1.246 2.73 2.954c0 1.708-1.134 2.954-2.73 2.954zM95.693 20v7h.77v-3.43c0-1.694 1.204-2.996 2.786-2.996 1.47 0 1.624 1.078 1.624 2.226V27h.77v-4.424c0-1.68-.532-2.744-2.324-2.744-1.68 0-2.646 1.246-2.898 1.904h-.028c.014-.014.056-.252.056-.574V20h-.756zm11.37-.168c-1.89 0-3.346 1.554-3.346 3.668 0 2.184 1.484 3.668 3.556 3.668 1.064 0 2.002-.308 2.618-.672v-.784c-.714.462-1.666.742-2.604.742-1.638 0-2.758-1.148-2.758-2.828v-.098h5.614c0-.112.014-.266.014-.42 0-1.722-1.106-3.276-3.094-3.276zm2.282 3.094h-4.788c.154-1.218 1.036-2.38 2.492-2.38 1.498 0 2.296 1.162 2.296 2.38zm9.32-6.006h-.784v3.948c0 .322.042.56.042.56h-.028c-.378-.812-1.386-1.596-2.59-1.596-1.862 0-3.234 1.54-3.234 3.668 0 2.086 1.372 3.668 3.234 3.668 1.204 0 2.226-.812 2.618-1.652h.028s-.042.224-.042.546V27h.756V16.92zm-3.318 3.626c1.204 0 2.548.896 2.548 2.954 0 2.058-1.344 2.954-2.548 2.954-1.512 0-2.492-1.288-2.492-2.954 0-1.708.98-2.954 2.492-2.954zm8.39 9.59c.14.056.434.112.756.112 1.89 0 2.548-1.526 3.472-3.752L130.751 20h-.882l-1.078 2.59c-.462 1.092-.966 2.31-1.428 3.388-.462-1.134-.938-2.254-1.414-3.388L124.857 20h-.868l2.954 6.86c-.644 1.582-1.232 2.688-2.478 2.688-.336 0-.56-.042-.728-.084v.672zm11.494-10.304c-2.016 0-3.514 1.568-3.514 3.668s1.498 3.668 3.514 3.668 3.514-1.568 3.514-3.668-1.498-3.668-3.514-3.668zm0 6.622c-1.596 0-2.73-1.246-2.73-2.954 0-1.708 1.134-2.954 2.73-2.954s2.73 1.246 2.73 2.954c0 1.708-1.134 2.954-2.73 2.954zm5.629-2.03c0 1.778.602 2.744 2.324 2.744 1.624 0 2.576-1.246 2.814-1.904h.028c0 .014-.056.252-.056.574l.014 1.162h.756v-7h-.784v3.43c0 1.582-1.078 2.996-2.716 2.996-1.456 0-1.61-1.064-1.61-2.226V20h-.77v4.424zm12.387-6.468c0 .322.238.56.574.56a.556.556 0 0 0 .574-.56.56.56 0 0 0-.574-.574.551.551 0 0 0-.574.574zm.182 2.044v7h.77v-7h-.77zm3.705 0v7h.77v-3.43c0-1.694 1.204-2.996 2.786-2.996 1.47 0 1.624 1.078 1.624 2.226V27h.77v-4.424c0-1.68-.532-2.744-2.324-2.744-1.68 0-2.646 1.246-2.898 1.904h-.028c.014-.014.056-.252.056-.574V20h-.756zm11.295 0v.658h1.26v4.41c0 1.596.896 2.1 1.82 2.1.616 0 1.162-.154 1.484-.336v-.7a3.199 3.199 0 0 1-1.386.336c-.672 0-1.148-.406-1.148-1.554v-4.256h2.282V20h-2.282v-2.1h-.77V20h-1.26zm6.178 7h.77v-3.43c0-1.694 1.204-2.996 2.786-2.996 1.47 0 1.624 1.078 1.624 2.226V27h.77v-4.424c0-1.68-.532-2.744-2.324-2.744-1.68 0-2.632 1.246-2.884 1.904h-.028c0-.042.056-.294.056-.616v-4.2h-.77V27zm11.37-7.168c-1.89 0-3.346 1.554-3.346 3.668 0 2.184 1.484 3.668 3.556 3.668 1.064 0 2.002-.308 2.618-.672v-.784c-.714.462-1.666.742-2.604.742-1.638 0-2.758-1.148-2.758-2.828v-.098h5.614c0-.112.014-.266.014-.42 0-1.722-1.106-3.276-3.094-3.276zm2.282 3.094h-4.788c.154-1.218 1.036-2.38 2.492-2.38 1.498 0 2.296 1.162 2.296 2.38zM12.714 40.96c0 2.912 2.184 5.208 5.096 5.208s5.096-2.296 5.096-5.208c0-2.884-2.198-5.208-5.096-5.208-2.912 0-5.096 2.338-5.096 5.208zm.826 0c0-2.492 1.778-4.452 4.27-4.452 2.506 0 4.256 1.96 4.256 4.452 0 2.506-1.75 4.452-4.256 4.452-2.492 0-4.27-1.946-4.27-4.452zM25.091 39v7h.77v-3.43c0-1.694 1.204-2.996 2.786-2.996 1.47 0 1.624 1.078 1.624 2.226V46h.77v-4.424c0-1.68-.532-2.744-2.324-2.744-1.68 0-2.646 1.246-2.898 1.904h-.028c.014-.014.056-.252.056-.574V39h-.756zm7.857 3.388h3.934v-.7h-3.934v.7zM39.036 46h.742l.014-.938c0-.322-.042-.546-.042-.546h.028c.378.84 1.4 1.652 2.618 1.652 1.862 0 3.234-1.582 3.234-3.668 0-2.128-1.372-3.668-3.234-3.668-1.204 0-2.212.784-2.604 1.596h-.028s.042-.238.042-.56V35.92h-.77V46zm3.304-6.454c1.526 0 2.506 1.246 2.506 2.954 0 1.666-.98 2.954-2.506 2.954-1.19 0-2.534-.896-2.534-2.954 0-2.058 1.344-2.954 2.534-2.954zm8.782-.714c-2.016 0-3.514 1.568-3.514 3.668s1.498 3.668 3.514 3.668 3.514-1.568 3.514-3.668-1.498-3.668-3.514-3.668zm0 6.622c-1.596 0-2.73-1.246-2.73-2.954 0-1.708 1.134-2.954 2.73-2.954s2.73 1.246 2.73 2.954c0 1.708-1.134 2.954-2.73 2.954zm5.53-5.32c.364-.224 1.274-.588 2.31-.588 1.232 0 2.044.504 2.044 1.974v.532c-2.884-.434-4.788.434-4.788 2.198 0 1.134.868 1.918 2.156 1.918 1.806 0 2.674-1.68 2.674-1.736h.028s-.056.252-.042.616V46h.742v-4.508c0-1.75-.882-2.66-2.744-2.66-1.092 0-1.988.322-2.38.532v.77zm1.806 5.334c-.882 0-1.442-.518-1.442-1.26 0-1.26 1.484-1.932 3.99-1.526 0 1.33-1.078 2.786-2.548 2.786zm5.868.532h.77v-3.108c0-1.414.686-3.29 2.254-3.29.168 0 .322.028.336.028v-.756c-.014 0-.21-.042-.406-.042-1.078 0-1.862.826-2.226 1.89h-.014c-.014-.014.042-.252.042-.56V39h-.756v7zM75.53 35.92h-.784v3.948c0 .322.042.56.042.56h-.028c-.378-.812-1.386-1.596-2.59-1.596-1.862 0-3.234 1.54-3.234 3.668 0 2.086 1.372 3.668 3.234 3.668 1.204 0 2.226-.812 2.618-1.652h.028s-.042.224-.042.546V46h.756V35.92zm-3.318 3.626c1.204 0 2.548.896 2.548 2.954 0 2.058-1.344 2.954-2.548 2.954-1.512 0-2.492-1.288-2.492-2.954 0-1.708.98-2.954 2.492-2.954zm6.072-2.59c0 .322.238.56.574.56a.556.556 0 0 0 .574-.56.56.56 0 0 0-.574-.574.551.551 0 0 0-.574.574zM78.466 39v7h.77v-7h-.77zm3.705 0v7h.77v-3.43c0-1.694 1.204-2.996 2.786-2.996 1.47 0 1.624 1.078 1.624 2.226V46h.77v-4.424c0-1.68-.532-2.744-2.324-2.744-1.68 0-2.646 1.246-2.898 1.904h-.028c.014-.014.056-.252.056-.574V39h-.756zm9.649 5.32c0-.294.504-.574 1.134-.616h.084c1.512-.028 2.646-1.036 2.646-2.422 0-.714-.308-1.316-.812-1.722h.056s.28.084.518.084h1.078V39h-2.52a3.092 3.092 0 0 0-1.036-.168c-1.554 0-2.716 1.022-2.716 2.45 0 1.064.658 1.918 1.652 2.268-.518.168-.868.504-.868.882 0 .448.392.784 1.12.854-1.12.21-2.044.924-2.044 1.792 0 1.246 1.232 1.918 3.094 1.918 1.876 0 3.164-.798 3.164-2.058 0-1.274-1.078-1.806-2.786-1.974-1.372-.126-1.764-.266-1.764-.644zm1.148-1.274c-1.148 0-1.946-.742-1.946-1.764 0-1.008.798-1.764 1.946-1.764s1.96.756 1.96 1.764c0 1.022-.812 1.764-1.96 1.764zm.252 5.278c-1.386 0-2.324-.448-2.324-1.316 0-.728.896-1.386 2.212-1.386 1.89 0 2.478.644 2.478 1.358 0 .798-.868 1.344-2.366 1.344zm8.83.756h.784v-3.962c0-.336-.042-.574-.042-.574h.028c.378.826 1.386 1.624 2.59 1.624 1.862 0 3.234-1.54 3.234-3.668 0-2.086-1.372-3.668-3.234-3.668-1.204 0-2.226.798-2.618 1.638h-.028s.042-.238.042-.56V39h-.756v10.08zm3.318-3.626c-1.204 0-2.548-.896-2.548-2.954 0-2.058 1.344-2.954 2.548-2.954 1.512 0 2.492 1.288 2.492 2.954 0 1.708-.98 2.954-2.492 2.954zm5.47.546h.77v-3.108c0-1.414.686-3.29 2.254-3.29.168 0 .322.028.336.028v-.756c-.014 0-.21-.042-.406-.042-1.078 0-1.862.826-2.226 1.89h-.014c-.014-.014.042-.252.042-.56V39h-.756v7zm8.124-7.168c-2.016 0-3.514 1.568-3.514 3.668s1.498 3.668 3.514 3.668 3.514-1.568 3.514-3.668-1.498-3.668-3.514-3.668zm0 6.622c-1.596 0-2.73-1.246-2.73-2.954 0-1.708 1.134-2.954 2.73-2.954s2.73 1.246 2.73 2.954c0 1.708-1.134 2.954-2.73 2.954zm5.656-8.498c0 .322.238.56.574.56a.556.556 0 0 0 .574-.56.56.56 0 0 0-.574-.574.551.551 0 0 0-.574.574zM125.57 39h-.77v7.854c0 1.064-.546 1.68-1.47 1.68-.196 0-.35-.014-.462-.028v.686c.14.028.336.056.56.056 1.344 0 2.142-.868 2.142-2.338V39zm5.665-.168c-1.89 0-3.346 1.554-3.346 3.668 0 2.184 1.484 3.668 3.556 3.668 1.064 0 2.002-.308 2.618-.672v-.784c-.714.462-1.666.742-2.604.742-1.638 0-2.758-1.148-2.758-2.828v-.098h5.614c0-.112.014-.266.014-.42 0-1.722-1.106-3.276-3.094-3.276zm2.282 3.094h-4.788c.154-1.218 1.036-2.38 2.492-2.38 1.498 0 2.296 1.162 2.296 2.38zm3.524.574c0-1.694 1.134-2.94 2.772-2.94 1.022 0 1.68.322 2.212.644v-.798c-.518-.266-1.162-.574-2.24-.574-2.058 0-3.542 1.568-3.542 3.668s1.484 3.668 3.542 3.668c1.092 0 1.764-.308 2.282-.574v-.798a4.071 4.071 0 0 1-2.254.644c-1.638 0-2.772-1.246-2.772-2.94zm6.437-3.5v.658h1.26v4.41c0 1.596.896 2.1 1.82 2.1.616 0 1.162-.154 1.484-.336v-.7a3.199 3.199 0 0 1-1.386.336c-.672 0-1.148-.406-1.148-1.554v-4.256h2.282V39h-2.282v-2.1h-.77V39h-1.26z" fill="#fff"/></svg>