<svg width="264" height="43" fill="none" xmlns="http://www.w3.org/2000/svg"><rect x=".5" y=".5" width="263" height="42" rx="3.5" fill="#1A1A1A" stroke="#4D4D4D" stroke-dasharray="3 3"/><path d="M12.728 26.468c.658.462 1.484.7 2.352.7 1.988 0 3.458-1.232 3.458-3.164 0-1.932-1.47-3.248-3.318-3.248-.742 0-1.162.14-1.4.238l.154-3.346h3.892v-.728h-4.648l-.21 5.012c.238-.112.924-.448 2.072-.448 1.442 0 2.618.994 2.618 2.492s-1.12 2.45-2.66 2.45c-.938 0-1.666-.28-2.31-.77v.812zM24.271 20v7h.77v-3.43c0-1.694 1.204-2.996 2.786-2.996 1.47 0 1.624 1.078 1.624 2.226V27h.77v-4.424c0-1.68-.532-2.744-2.324-2.744-1.68 0-2.646 1.246-2.898 1.904h-.028c.014-.014.056-.252.056-.574V20h-.756zm11.37-.168c-1.89 0-3.346 1.554-3.346 3.668 0 2.184 1.484 3.668 3.556 3.668 1.064 0 2.002-.308 2.618-.672v-.784c-.714.462-1.666.742-2.604.742-1.638 0-2.758-1.148-2.758-2.828v-.098h5.614c0-.112.014-.266.014-.42 0-1.722-1.106-3.276-3.094-3.276zm2.282 3.094h-4.788c.154-1.218 1.036-2.38 2.492-2.38 1.498 0 2.296 1.162 2.296 2.38zm7.058-2.8h-.21l-2.1 5.39L40.474 20h-.854l2.954 7.168h.21l2.086-5.334 2.1 5.334h.21L50.12 20h-.84l-2.212 5.516-2.087-5.39zm10.14 1.008c.364-.224 1.274-.588 2.31-.588 1.232 0 2.044.504 2.044 1.974v.532c-2.884-.434-4.788.434-4.788 2.198 0 1.134.868 1.918 2.156 1.918 1.806 0 2.674-1.68 2.674-1.736h.028s-.056.252-.042.616V27h.742v-4.508c0-1.75-.882-2.66-2.744-2.66-1.092 0-1.988.322-2.38.532v.77zm1.806 5.334c-.882 0-1.442-.518-1.442-1.26 0-1.26 1.484-1.932 3.99-1.526 0 1.33-1.078 2.786-2.548 2.786zm6.13-1.106c0 1.302.617 1.806 1.555 1.806.406 0 .658-.084.686-.084v-.686c-.028.014-.252.07-.574.07-.658 0-.896-.406-.896-1.246V16.92h-.77v8.442zm6.832-5.53c-1.89 0-3.346 1.554-3.346 3.668 0 2.184 1.484 3.668 3.556 3.668 1.064 0 2.002-.308 2.618-.672v-.784c-.713.462-1.665.742-2.603.742-1.639 0-2.758-1.148-2.758-2.828v-.098h5.614c0-.112.014-.266.014-.42 0-1.722-1.106-3.276-3.094-3.276zm2.282 3.094h-4.788c.154-1.218 1.037-2.38 2.493-2.38 1.498 0 2.295 1.162 2.295 2.38zM75.113 27h.77v-3.108c0-1.414.687-3.29 2.255-3.29.167 0 .322.028.335.028v-.756c-.013 0-.21-.042-.406-.042-1.077 0-1.861.826-2.225 1.89h-.014c-.014-.014.041-.252.041-.56V20h-.755v7zm4.695-7v.658h1.26v4.41c0 1.596.896 2.1 1.82 2.1.616 0 1.162-.154 1.484-.336v-.7a3.199 3.199 0 0 1-1.386.336c-.672 0-1.148-.406-1.148-1.554v-4.256h2.282V20h-2.282v-2.1h-.77V20h-1.26zm9.482 5.306c0 .812-.826 1.162-1.722 1.162-.672 0-1.512-.196-2.24-.532v.77c.602.28 1.442.462 2.282.462 1.372 0 2.436-.602 2.436-1.876 0-1.106-.756-1.666-2.268-2.142-1.134-.364-1.722-.728-1.722-1.442 0-.742.658-1.176 1.722-1.176.602 0 1.316.196 1.862.476v-.756a4.82 4.82 0 0 0-1.932-.42c-1.4 0-2.408.714-2.408 1.876 0 1.134.952 1.736 2.156 2.114 1.246.378 1.834.7 1.834 1.484zM95 20v.658h1.12V27h.785v-6.342h1.988V20H96.89v-.868c0-1.106.56-1.666 1.61-1.666.336 0 .616.056.728.084v-.714a3.884 3.884 0 0 0-.798-.084c-1.442 0-2.296.896-2.296 2.352V20H95zm5.337-2.044c0 .322.238.56.574.56a.556.556 0 0 0 .574-.56.56.56 0 0 0-.574-.574.551.551 0 0 0-.574.574zm.182 2.044v7h.77v-7h-.77zm3.579 7h.77v-3.108c0-1.414.686-3.29 2.254-3.29.168 0 .322.028.336.028v-.756c-.014 0-.21-.042-.406-.042-1.078 0-1.862.826-2.226 1.89h-.014c-.014-.014.042-.252.042-.56V20h-.756v7zm7.956-7.168c-1.89 0-3.346 1.554-3.346 3.668 0 2.184 1.484 3.668 3.556 3.668 1.064 0 2.002-.308 2.618-.672v-.784c-.714.462-1.666.742-2.604.742-1.638 0-2.758-1.148-2.758-2.828v-.098h5.614c0-.112.014-.266.014-.42 0-1.722-1.106-3.276-3.094-3.276zm2.282 3.094h-4.788c.154-1.218 1.036-2.38 2.492-2.38 1.498 0 2.296 1.162 2.296 2.38zm9.319-6.006h-.784v3.948c0 .322.042.56.042.56h-.028c-.378-.812-1.386-1.596-2.59-1.596-1.862 0-3.234 1.54-3.234 3.668 0 2.086 1.372 3.668 3.234 3.668 1.204 0 2.226-.812 2.618-1.652h.028s-.042.224-.042.546V27h.756V16.92zm-3.318 3.626c1.204 0 2.548.896 2.548 2.954 0 2.058-1.344 2.954-2.548 2.954-1.512 0-2.492-1.288-2.492-2.954 0-1.708.98-2.954 2.492-2.954zM131.107 27V16.92h-.77V27h.77zm2.627-5.866c.364-.224 1.274-.588 2.31-.588 1.232 0 2.044.504 2.044 1.974v.532c-2.884-.434-4.788.434-4.788 2.198 0 1.134.868 1.918 2.156 1.918 1.806 0 2.674-1.68 2.674-1.736h.028s-.056.252-.042.616V27h.742v-4.508c0-1.75-.882-2.66-2.744-2.66-1.092 0-1.988.322-2.38.532v.77zm1.806 5.334c-.882 0-1.442-.518-1.442-1.26 0-1.26 1.484-1.932 3.99-1.526 0 1.33-1.078 2.786-2.548 2.786zm9.298-1.162c0 .812-.826 1.162-1.722 1.162-.672 0-1.512-.196-2.24-.532v.77c.602.28 1.442.462 2.282.462 1.372 0 2.436-.602 2.436-1.876 0-1.106-.756-1.666-2.268-2.142-1.134-.364-1.722-.728-1.722-1.442 0-.742.658-1.176 1.722-1.176.602 0 1.316.196 1.862.476v-.756a4.82 4.82 0 0 0-1.932-.42c-1.4 0-2.408.714-2.408 1.876 0 1.134.952 1.736 2.156 2.114 1.246.378 1.834.7 1.834 1.484zM147.005 20v.658h1.26v4.41c0 1.596.896 2.1 1.82 2.1.616 0 1.162-.154 1.484-.336v-.7a3.199 3.199 0 0 1-1.386.336c-.672 0-1.148-.406-1.148-1.554v-4.256h2.282V20h-2.282v-2.1h-.77V20h-1.26zm13.914.126h-.21l-2.1 5.39L156.411 20h-.854l2.954 7.168h.21l2.086-5.334 2.1 5.334h.21l2.94-7.168h-.84l-2.212 5.516-2.086-5.39zm9.431-.294c-1.89 0-3.346 1.554-3.346 3.668 0 2.184 1.484 3.668 3.556 3.668 1.064 0 2.002-.308 2.618-.672v-.784c-.714.462-1.666.742-2.604.742-1.638 0-2.758-1.148-2.758-2.828v-.098h5.614c0-.112.014-.266.014-.42 0-1.722-1.106-3.276-3.094-3.276zm2.282 3.094h-4.788c.154-1.218 1.036-2.38 2.492-2.38 1.498 0 2.296 1.162 2.296 2.38zm6.072-3.094c-1.89 0-3.346 1.554-3.346 3.668 0 2.184 1.484 3.668 3.556 3.668 1.064 0 2.002-.308 2.618-.672v-.784c-.714.462-1.666.742-2.604.742-1.638 0-2.758-1.148-2.758-2.828v-.098h5.614c0-.112.014-.266.014-.42 0-1.722-1.106-3.276-3.094-3.276zm2.282 3.094h-4.788c.154-1.218 1.036-2.38 2.492-2.38 1.498 0 2.296 1.162 2.296 2.38zM189.528 20h-.98l-3.724 3.934V16.92h-.77V27h.77v-2.128l1.484-1.554 2.52 3.682h.924l-2.87-4.172L189.528 20z" fill="#fff"/></svg>