<svg width="102" height="16" fill="none" xmlns="http://www.w3.org/2000/svg"><path d="M69.98 12V2.662h1.778l4.522 6.636V2.662h1.722V12h-1.736l-4.564-6.72V12H69.98zm9.504-3.29c0-.635.15-1.218.449-1.75a3.428 3.428 0 0 1 1.231-1.274c.532-.317 1.148-.476 1.849-.476.7 0 1.31.159 1.834.476a3.4 3.4 0 0 1 1.246 1.274 3.52 3.52 0 0 1 .447 1.75 3.515 3.515 0 0 1-1.694 3.038c-.522.317-1.133.476-1.834.476-.7 0-1.316-.159-1.847-.476a3.542 3.542 0 0 1-1.68-3.038zm3.529 2.086c.42 0 .765-.107 1.035-.322.28-.215.486-.48.617-.798.14-.327.21-.649.21-.966 0-.317-.07-.635-.21-.952a1.906 1.906 0 0 0-.617-.798c-.27-.215-.615-.322-1.035-.322-.42 0-.77.107-1.05.322a2.07 2.07 0 0 0-.616.798 2.479 2.479 0 0 0-.197.952c0 .317.066.64.197.966.14.317.345.583.616.798.28.215.63.322 1.05.322zM89.629 12l-2.786-6.566h1.904l1.764 4.704 1.764-4.704h1.806L91.31 12h-1.68zm5.311-2.576v-3.99h1.652V9.41c0 .41.112.733.336.966.234.233.532.35.896.35a1.45 1.45 0 0 0 1.134-.504c.299-.336.448-.747.448-1.232V5.434h1.652V12h-1.582l-.042-.742c-.168.187-.41.383-.728.588-.308.196-.723.294-1.246.294-.812 0-1.437-.247-1.876-.742-.43-.495-.644-1.153-.644-1.974z" fill="#fff"/><path d="M4.476 8.36c1.99 0 3.185-1.066 3.185-2.86 0-1.794-1.196-2.86-3.185-2.86H1.603V12h1.248V8.36h1.625zm-.039-4.667c1.222 0 1.95.676 1.95 1.807 0 1.131-.689 1.807-1.846 1.807h-1.69V3.693h1.586zm7.526 1.651c-1.924 0-3.34 1.443-3.34 3.406s1.416 3.406 3.34 3.406c1.937 0 3.354-1.443 3.354-3.406S13.9 5.344 11.963 5.344zm0 5.759c-1.248 0-2.17-.975-2.17-2.353 0-1.378.922-2.353 2.17-2.353 1.261 0 2.184.975 2.184 2.353 0 1.378-.923 2.353-2.184 2.353zm9.351-5.512h-.663L19 10.219 17.232 5.5h-1.287l2.73 6.656h.663l1.638-4.433 1.638 4.433h.663l2.73-6.656h-1.274l-1.781 4.719-1.638-4.628zm8.508-.247c-1.794 0-3.185 1.443-3.185 3.406 0 2.015 1.391 3.406 3.445 3.406 1.053 0 1.924-.273 2.431-.559v-1.105c-.546.351-1.469.611-2.353.611-1.365 0-2.223-.806-2.262-2.08V9.01h4.836c0-.13.026-.377.026-.637 0-1.599-1.027-3.029-2.938-3.029zm1.742 2.808h-3.653c.104-.936.78-1.794 1.898-1.794 1.157 0 1.768.858 1.755 1.794zM34.455 12h1.21V9.166c0-1.261.727-2.652 1.988-2.652.17 0 .286.026.338.039v-1.17a1.866 1.866 0 0 0-.39-.039c-.936 0-1.625.624-2.002 1.547h-.013c-.013-.039.026-.234.013-.481l-.013-.91h-1.13V12zm10.932-9.36h-1.21v3.354c0 .338.04.533.04.533h-.026c-.351-.611-1.21-1.183-2.262-1.183-1.69 0-2.99 1.365-2.99 3.406 0 2.015 1.3 3.406 3.016 3.406 1.053 0 1.963-.676 2.3-1.404h.027s-.04.195-.04.481l.027.767h1.118V2.64zm-3.263 3.757c.975 0 2.04.728 2.04 2.353 0 1.625-1.065 2.353-2.04 2.353-1.21 0-2.015-1.001-2.015-2.353 0-1.378.806-2.353 2.015-2.353zM51.19 12h1.118l.026-.767c0-.286-.04-.481-.04-.481h.027c.338.728 1.248 1.404 2.3 1.404 1.717 0 3.017-1.391 3.017-3.406 0-2.041-1.3-3.406-2.99-3.406-1.053 0-1.911.572-2.262 1.183h-.026s.039-.195.039-.533V2.64h-1.21V12zm3.263-5.603c1.209 0 2.015.975 2.015 2.353 0 1.352-.806 2.353-2.015 2.353-.975 0-2.041-.728-2.041-2.353 0-1.625 1.066-2.353 2.04-2.353zm3.805 8.502c.143.065.494.117.832.117 1.716 0 2.444-1.183 3.328-3.315L64.98 5.5h-1.34l-.897 2.353c-.312.806-.78 2.106-1.105 2.847-.337-.949-.727-1.898-1.091-2.847l-.91-2.353h-1.34l2.718 6.422c-.495 1.183-1.014 2.054-2.054 2.054-.325 0-.56-.039-.703-.078v1.001z" fill="#4D4D4D"/></svg>