<svg width="71" height="11" viewBox="0 0 71 11" fill="none" xmlns="http://www.w3.org/2000/svg">
<path d="M4.172 10.168C3.29467 10.168 2.576 10.0093 2.016 9.692C1.456 9.36533 0.994 8.95 0.63 8.446L1.484 7.746C1.86667 8.222 2.268 8.57667 2.688 8.81C3.11733 9.04333 3.626 9.16 4.214 9.16C4.92333 9.16 5.46467 8.99667 5.838 8.67C6.21133 8.34333 6.398 7.886 6.398 7.298C6.398 6.822 6.26267 6.45333 5.992 6.192C5.72133 5.92133 5.25 5.73 4.578 5.618L3.486 5.436C3.01 5.352 2.60867 5.226 2.282 5.058C1.96467 4.89 1.708 4.68933 1.512 4.456C1.316 4.21333 1.176 3.952 1.092 3.672C1.008 3.38267 0.966 3.084 0.966 2.776C0.966 1.88 1.26 1.20333 1.848 0.746C2.436 0.288666 3.22933 0.0599995 4.228 0.0599995C5.012 0.0599995 5.67 0.190666 6.202 0.451999C6.74333 0.713333 7.17733 1.082 7.504 1.558L6.678 2.272C6.40733 1.91733 6.08067 1.628 5.698 1.404C5.31533 1.18 4.82067 1.068 4.214 1.068C3.55133 1.068 3.04267 1.208 2.688 1.488C2.33333 1.768 2.156 2.188 2.156 2.748C2.156 3.18667 2.28667 3.546 2.548 3.826C2.81867 4.09667 3.29933 4.29267 3.99 4.414L5.04 4.596C5.516 4.68 5.91733 4.806 6.244 4.974C6.57067 5.142 6.832 5.34267 7.028 5.576C7.23333 5.80933 7.378 6.07067 7.462 6.36C7.546 6.64933 7.588 6.95267 7.588 7.27C7.588 8.17533 7.28933 8.88467 6.692 9.398C6.104 9.91133 5.264 10.168 4.172 10.168ZM10.2145 10V0.228H16.2345V1.25H11.3905V4.54H16.0665V5.562H11.3905V8.978H16.2345V10H10.2145ZM20.1911 1.726H20.0931V10H19.0291V0.228H20.6951L24.0271 8.418H24.1251V0.228H25.1891V10H23.5231L20.1911 1.726ZM28.1936 0.228H30.9236C32.1183 0.228 33.0096 0.638666 33.5976 1.46C34.1856 2.28133 34.4796 3.49933 34.4796 5.114C34.4796 6.72867 34.1856 7.94667 33.5976 8.768C33.0096 9.58933 32.1183 10 30.9236 10H28.1936V0.228ZM30.8676 8.978C31.6516 8.978 32.2396 8.70733 32.6316 8.166C33.0329 7.62467 33.2336 6.85933 33.2336 5.87V4.358C33.2336 3.36867 33.0329 2.60333 32.6316 2.062C32.2396 1.52067 31.6516 1.25 30.8676 1.25H29.3696V8.978H30.8676ZM42.0341 8.698H41.9641C41.8801 8.88467 41.7821 9.06667 41.6701 9.244C41.5581 9.42133 41.4135 9.58 41.2361 9.72C41.0681 9.85067 40.8628 9.958 40.6201 10.042C40.3775 10.126 40.0881 10.168 39.7521 10.168C38.6881 10.168 37.8948 9.73867 37.3721 8.88C36.8588 8.02133 36.6021 6.78933 36.6021 5.184C36.6021 3.504 36.8868 2.23 37.4561 1.362C38.0255 0.493999 38.9028 0.0599995 40.0881 0.0599995C40.5455 0.0599995 40.9421 0.120666 41.2781 0.242C41.6141 0.363333 41.8988 0.526666 42.1321 0.731999C42.3748 0.937333 42.5755 1.17067 42.7341 1.432C42.8928 1.684 43.0235 1.94067 43.1261 2.202L42.1181 2.664C42.0341 2.44933 41.9361 2.24867 41.8241 2.062C41.7215 1.866 41.5908 1.698 41.4321 1.558C41.2828 1.40867 41.1008 1.292 40.8861 1.208C40.6715 1.124 40.4195 1.082 40.1301 1.082C39.3461 1.082 38.7675 1.376 38.3941 1.964C38.0301 2.552 37.8481 3.336 37.8481 4.316V5.828C37.8481 6.32267 37.8855 6.77533 37.9601 7.186C38.0348 7.58733 38.1561 7.93733 38.3241 8.236C38.5015 8.53467 38.7255 8.768 38.9961 8.936C39.2761 9.09467 39.6168 9.174 40.0181 9.174C40.6528 9.174 41.1475 8.98267 41.5021 8.6C41.8568 8.21733 42.0341 7.72267 42.0341 7.116V6.108H39.9761V5.17H43.1261V10H42.0341V8.698ZM47.2087 10H46.0327V0.228H49.5887C50.494 0.228 51.1847 0.475333 51.6607 0.969999C52.1367 1.46467 52.3747 2.15533 52.3747 3.042C52.3747 3.83533 52.1693 4.47 51.7587 4.946C51.348 5.422 50.7507 5.69733 49.9667 5.772L52.4587 10H51.1427L48.7627 5.828H47.2087V10ZM49.5607 4.834C50.0553 4.834 50.438 4.71267 50.7087 4.47C50.9887 4.218 51.1287 3.86333 51.1287 3.406V2.678C51.1287 2.22067 50.9887 1.87067 50.7087 1.628C50.438 1.376 50.0553 1.25 49.5607 1.25H47.2087V4.834H49.5607ZM54.9032 10V9.062H57.3392V1.166H54.9032V0.228H60.9512V1.166H58.5152V9.062H60.9512V10H54.9032ZM64.0117 0.228H66.7417C67.9364 0.228 68.8277 0.638666 69.4157 1.46C70.0037 2.28133 70.2977 3.49933 70.2977 5.114C70.2977 6.72867 70.0037 7.94667 69.4157 8.768C68.8277 9.58933 67.9364 10 66.7417 10H64.0117V0.228ZM66.6857 8.978C67.4697 8.978 68.0577 8.70733 68.4497 8.166C68.8511 7.62467 69.0517 6.85933 69.0517 5.87V4.358C69.0517 3.36867 68.8511 2.60333 68.4497 2.062C68.0577 1.52067 67.4697 1.25 66.6857 1.25H65.1877V8.978H66.6857Z" fill="white"/>
</svg>
