<svg width="53" height="11" viewBox="0 0 53 11" fill="none" xmlns="http://www.w3.org/2000/svg">
<path d="M4.788 1.25V10H3.612V1.25H0.35V0.228H8.05V1.25H4.788ZM10.2145 10L9.44453 0.228H10.4945L10.9005 5.828L11.1105 8.782H11.2225L12.5105 2.776H13.8265L15.1145 8.782H15.2265L15.4365 5.828L15.8425 0.228H16.8645L16.0945 10H14.4005L13.2105 4.162H13.0985L11.9085 10H10.2145ZM19.0851 10V9.062H21.5211V1.166H19.0851V0.228H25.1331V1.166H22.6971V9.062H25.1331V10H19.0851ZM28.5436 10V0.228H29.7196V8.978H34.3536V10H28.5436ZM36.9941 10V9.062H39.4301V1.166H36.9941V0.228H43.0421V1.166H40.6061V9.062H43.0421V10H36.9941ZM48.9727 10.168C48.3753 10.168 47.862 10.056 47.4327 9.832C47.0033 9.59867 46.6487 9.26733 46.3687 8.838C46.0887 8.40867 45.8833 7.88133 45.7527 7.256C45.622 6.63067 45.5567 5.91667 45.5567 5.114C45.5567 4.32067 45.622 3.61133 45.7527 2.986C45.8833 2.35133 46.0887 1.81933 46.3687 1.39C46.6487 0.960666 47.0033 0.634 47.4327 0.409999C47.862 0.176666 48.3753 0.0599995 48.9727 0.0599995C49.57 0.0599995 50.0833 0.176666 50.5127 0.409999C50.942 0.634 51.2967 0.960666 51.5767 1.39C51.8567 1.81933 52.062 2.35133 52.1927 2.986C52.3233 3.61133 52.3887 4.32067 52.3887 5.114C52.3887 5.91667 52.3233 6.63067 52.1927 7.256C52.062 7.88133 51.8567 8.40867 51.5767 8.838C51.2967 9.26733 50.942 9.59867 50.5127 9.832C50.0833 10.056 49.57 10.168 48.9727 10.168ZM48.9727 9.146C49.3647 9.146 49.696 9.07133 49.9667 8.922C50.2373 8.76333 50.4613 8.544 50.6387 8.264C50.816 7.984 50.942 7.648 51.0167 7.256C51.1007 6.85467 51.1427 6.40667 51.1427 5.912V4.316C51.1427 3.83067 51.1007 3.38733 51.0167 2.986C50.942 2.58467 50.816 2.244 50.6387 1.964C50.4613 1.684 50.2373 1.46933 49.9667 1.32C49.696 1.16133 49.3647 1.082 48.9727 1.082C48.5807 1.082 48.2493 1.16133 47.9787 1.32C47.708 1.46933 47.484 1.684 47.3067 1.964C47.1293 2.244 46.9987 2.58467 46.9147 2.986C46.84 3.38733 46.8027 3.83067 46.8027 4.316V5.912C46.8027 6.40667 46.84 6.85467 46.9147 7.256C46.9987 7.648 47.1293 7.984 47.3067 8.264C47.484 8.544 47.708 8.76333 47.9787 8.922C48.2493 9.07133 48.5807 9.146 48.9727 9.146Z" fill="white"/>
</svg>
