<svg width="265" height="66" fill="none" xmlns="http://www.w3.org/2000/svg"><path d="m.98 50.6 5.26 8.64V65h1.52v-5.76l5.26-8.64h-1.7L7 57.78 2.68 50.6H.98zm16.59 4.16c-2.92 0-5.08 2.22-5.08 5.24s2.16 5.24 5.08 5.24c2.94 0 5.1-2.22 5.1-5.24s-2.16-5.24-5.1-5.24zm0 9.16c-2.1 0-3.64-1.64-3.64-3.92 0-2.28 1.54-3.92 3.64-3.92 2.12 0 3.64 1.64 3.64 3.92 0 2.28-1.52 3.92-3.64 3.92zm7.863-2.62c0 2.52.92 3.94 3.38 3.94 2.2 0 3.5-1.64 3.88-2.56h.04c0 .02-.08.34-.08.78l.02 1.54h1.4V55h-1.48v4.9c0 2.16-1.44 3.96-3.58 3.96-1.88 0-2.12-1.38-2.12-2.9V55h-1.46v6.3zM37.84 65h1.48v-4.4c0-1.98 1.04-4.4 3.14-4.4.24 0 .44.04.5.06v-1.44c-.06-.02-.32-.06-.6-.06-1.5 0-2.58 1.08-3.12 2.54h-.04c0-.04.06-.36.04-.76V55h-1.4v10zm14.394 0V50.6h-1.48V65h1.48zm3.53-8.08c.58-.36 1.86-.84 3.3-.84 1.66 0 2.78.66 2.78 2.58v.62c-4.16-.58-6.7.64-6.7 3.12 0 1.72 1.28 2.84 3.12 2.84 2.42 0 3.6-2.18 3.66-2.36h.04s-.08.34-.06.84V65h1.38v-6.42c0-2.5-1.32-3.82-4.06-3.82-1.58 0-2.9.44-3.46.76v1.4zm2.72 7.08c-1.14 0-1.86-.68-1.86-1.66 0-1.58 1.76-2.5 5.18-1.96 0 1.74-1.42 3.62-3.32 3.62zm7.157-9v1.22h1.72v6.02c0 2.28 1.4 3 2.78 3 .92 0 1.72-.22 2.16-.46v-1.3c-.58.28-1.32.46-1.92.46-.9 0-1.56-.54-1.56-2.08v-5.64h3.14V55h-3.14v-3h-1.46v3h-1.72zm12.823-.24c-2.72 0-4.84 2.22-4.84 5.24 0 3.1 2.14 5.24 5.2 5.24 1.56 0 2.9-.42 3.74-.92v-1.4c-.94.62-2.34 1-3.68 1-2.22 0-3.68-1.44-3.72-3.62v-.08h7.74c0-.18.02-.48.02-.8 0-2.46-1.58-4.66-4.46-4.66zm2.98 4.38h-6.24c.18-1.6 1.34-3.1 3.24-3.1 1.98 0 3.02 1.5 3 3.1zm9.046 3.36c0 1.04-1.04 1.48-2.22 1.48-.94 0-2.18-.32-3.2-.78v1.38c.84.4 2.02.66 3.26.66 2.06 0 3.56-.94 3.56-2.74 0-1.64-1.06-2.42-3.2-3.12-1.5-.48-2.26-.92-2.26-1.84 0-.98.92-1.5 2.24-1.5.88 0 1.9.3 2.64.7v-1.38c-.7-.34-1.76-.6-2.78-.6-2.04 0-3.52 1.1-3.52 2.76 0 1.7 1.32 2.5 3.06 3.06 1.64.52 2.42.92 2.42 1.92zm3.178-7.5v1.22h1.72v6.02c0 2.28 1.4 3 2.78 3 .92 0 1.72-.22 2.16-.46v-1.3c-.58.28-1.32.46-1.92.46-.9 0-1.56-.54-1.56-2.08v-5.64h3.14V55h-3.14v-3h-1.46v3h-1.72zm14.156 0v10h1.48v-4.74c0-2 1.16-4.12 3.36-4.12 1.8 0 2.06 1.4 2.06 2.88V65h1.46v-4.74c0-1.96 1.08-4.12 3.3-4.12 1.74 0 2.12 1.28 2.12 2.9V65h1.46v-6.3c0-2.46-.92-3.94-3.44-3.94-1.6 0-3 1.14-3.6 2.44h-.02c-.28-1.58-1.4-2.44-3.06-2.44-1.64 0-3.22 1.14-3.74 2.56h-.04c.02-.02.08-.34.08-.78l-.02-1.54h-1.4zm22.808-.24c-2.72 0-4.84 2.22-4.84 5.24 0 3.1 2.14 5.24 5.2 5.24 1.56 0 2.9-.42 3.74-.92v-1.4c-.94.62-2.34 1-3.68 1-2.22 0-3.68-1.44-3.72-3.62v-.08h7.74c0-.18.02-.48.02-.8 0-2.46-1.58-4.66-4.46-4.66zm2.98 4.38h-6.24c.18-1.6 1.34-3.1 3.24-3.1 1.98 0 3.02 1.5 3 3.1zm4.486-4.14v10h1.48v-4.9c0-2.24 1.56-3.96 3.68-3.96 1.88 0 2.12 1.38 2.12 2.9V65h1.46v-6.3c0-2.44-.86-3.94-3.38-3.94-2.26 0-3.62 1.64-3.98 2.56h-.04c.02-.02.08-.34.08-.78l-.02-1.54h-1.4zm10.824 0v1.22h1.72v6.02c0 2.28 1.4 3 2.78 3 .92 0 1.72-.22 2.16-.46v-1.3c-.58.28-1.32.46-1.92.46-.9 0-1.56-.54-1.56-2.08v-5.64h3.14V55h-3.14v-3h-1.46v3h-1.72zm8.604-2.92c0 .56.38.96.98.96.56 0 .98-.4.98-.96 0-.56-.42-.96-.98-.96-.6 0-.98.4-.98.96zm.24 2.92v10h1.48V55h-1.48zm9.61-.24c-2.92 0-5.08 2.22-5.08 5.24s2.16 5.24 5.08 5.24c2.94 0 5.1-2.22 5.1-5.24s-2.16-5.24-5.1-5.24zm0 9.16c-2.1 0-3.64-1.64-3.64-3.92 0-2.28 1.54-3.92 3.64-3.92 2.12 0 3.64 1.64 3.64 3.92 0 2.28-1.52 3.92-3.64 3.92zm8.163-8.92v10h1.48v-4.9c0-2.24 1.56-3.96 3.68-3.96 1.88 0 2.12 1.38 2.12 2.9V65h1.46v-6.3c0-2.44-.86-3.94-3.38-3.94-2.26 0-3.62 1.64-3.98 2.56h-.04c.02-.02.08-.34.08-.78l-.02-1.54h-1.4zm16.884 7.5c0 1.04-1.04 1.48-2.22 1.48-.94 0-2.18-.32-3.2-.78v1.38c.84.4 2.02.66 3.26.66 2.06 0 3.56-.94 3.56-2.74 0-1.64-1.06-2.42-3.2-3.12-1.5-.48-2.26-.92-2.26-1.84 0-.98.92-1.5 2.24-1.5.88 0 1.9.3 2.64.7v-1.38c-.7-.34-1.76-.6-2.78-.6-2.04 0-3.52 1.1-3.52 2.76 0 1.7 1.32 2.5 3.06 3.06 1.64.52 2.42.92 2.42 1.92z" fill="#E6E6E6"/><path fill="#262626" d="M1 31h264v1H1z"/><g clip-path="url(#a)" fill="#fff"><path d="M264.609 2.505 262.495.391a1.333 1.333 0 0 0-1.886 0l-1.804 1.804 4 4 1.804-1.804a1.334 1.334 0 0 0 0-1.886zM257.861 3.139l-7.528 7.528L249 16l5.333-1.333 7.528-7.528-4-4z"/></g><defs><clipPath id="a"><path fill="#fff" transform="translate(249)" d="M0 0h16v16H0z"/></clipPath></defs></svg>