<svg width="22" height="22" viewBox="0 0 22 22" fill="none" xmlns="http://www.w3.org/2000/svg">
<path d="M18.7913 13.2087C19.4954 12.8832 20.0881 12.3577 20.4956 11.6977C20.9031 11.0377 21.1074 10.2724 21.0829 9.49707C21.0743 8.91661 20.9488 8.34384 20.7138 7.81301C20.4789 7.28217 20.1393 6.80415 19.7153 6.40754C19.2914 6.01092 18.7919 5.70385 18.2466 5.50468C17.7013 5.3055 17.1215 5.21831 16.5418 5.24832C16.0298 4.21795 15.239 3.35194 14.2592 2.74879C13.2795 2.14563 12.1501 1.82955 10.9996 1.83648C9.45854 1.81581 7.96761 2.38359 6.83069 3.42411C5.69377 4.46463 4.99644 5.89955 4.88084 7.4364C4.40925 7.33271 3.92052 7.33494 3.44989 7.44293C2.97926 7.55092 2.53845 7.76197 2.15922 8.06087C1.78 8.35978 1.47181 8.73909 1.25688 9.17148C1.04194 9.60386 0.925606 10.0785 0.916259 10.5613C0.879351 11.2531 1.08957 11.9355 1.50936 12.4866C1.92915 13.0377 2.53118 13.4216 3.20793 13.5698" stroke="white" stroke-width="1.5" stroke-linecap="round" stroke-linejoin="round"/>
<path d="M5.5 17.4219L8.25 20.1719L11 17.4219" stroke="white" stroke-width="1.5" stroke-linecap="round" stroke-linejoin="round"/>
<path d="M8.25 20.1719V11.9219" stroke="white" stroke-width="1.5" stroke-linecap="round" stroke-linejoin="round"/>
<path d="M11 14.6719L13.75 11.9219L16.5 14.6719" stroke="white" stroke-width="1.5" stroke-linecap="round" stroke-linejoin="round"/>
<path d="M13.75 11.9219V20.1719" stroke="white" stroke-width="1.5" stroke-linecap="round" stroke-linejoin="round"/>
</svg>
