<svg width="22" height="22" viewBox="0 0 22 22" fill="none" xmlns="http://www.w3.org/2000/svg">
<path d="M1.83008 20.1688L4.08875 17.9102" stroke="white" stroke-width="1.5" stroke-linecap="round" stroke-linejoin="round"/>
<path d="M5.46374 10.0547L4.08874 11.4297C3.22909 12.2893 2.74614 13.4553 2.74614 14.671C2.74614 15.8868 3.22909 17.0527 4.08874 17.9124C4.9484 18.772 6.11434 19.255 7.33008 19.255C8.54581 19.255 9.71176 18.772 10.5714 17.9124L11.9464 16.5374L5.46374 10.0547Z" stroke="white" stroke-width="1.5" stroke-linecap="round" stroke-linejoin="round"/>
<path d="M20.163 1.83594L17.9043 4.0946" stroke="white" stroke-width="1.5" stroke-linecap="round" stroke-linejoin="round"/>
<path d="M16.5297 11.9542L17.9047 10.5792C18.7644 9.71952 19.2474 8.55358 19.2474 7.33784C19.2474 6.12211 18.7644 4.95617 17.9047 4.09651C17.0451 3.23686 15.8792 2.75391 14.6634 2.75391C13.4477 2.75391 12.2817 3.23686 11.4221 4.09651L10.0471 5.47151L16.5297 11.9542Z" stroke="white" stroke-width="1.5" stroke-linecap="round" stroke-linejoin="round"/>
<path d="M9.16341 10.0859L7.33008 11.9193" stroke="white" stroke-width="1.5" stroke-linecap="round" stroke-linejoin="round"/>
<path d="M11.9134 12.8359L10.0801 14.6693" stroke="white" stroke-width="1.5" stroke-linecap="round" stroke-linejoin="round"/>
</svg>
