<svg width="72" height="18" viewBox="0 0 72 18" fill="currentColor" xmlns="http://www.w3.org/2000/svg">
<path fill-rule="evenodd" clip-rule="evenodd" d="M2.32753 2.94683C2.23244 3.05134 2.23874 3.21169 2.33864 3.3116L14.6857 15.6586C14.7856 15.7585 14.9459 15.7648 15.0504 15.6697C16.8609 14.0223 17.9973 11.6471 17.9973 9.00652C17.9973 4.03236 13.9649 8.21058e-10 8.99075 5.28523e-10C6.35013 3.73226e-10 3.97493 1.13641 2.32753 2.94683ZM0.784343 5.29009C0.738717 5.39069 0.761723 5.50865 0.839827 5.58675L12.4105 17.1574C12.4886 17.2355 12.6066 17.2585 12.7072 17.2129C12.9745 17.0917 13.2348 16.9578 13.4874 16.8119C13.6375 16.7253 13.6605 16.5204 13.5379 16.3979L1.59941 4.45936C1.47683 4.33678 1.272 4.35978 1.18532 4.5099C1.0395 4.76248 0.905584 5.02279 0.784343 5.29009ZM0.0823864 8.60328C0.0282102 8.5491 -0.000615216 8.47444 0.004485 8.39799C0.0283715 8.03995 0.0731801 7.68766 0.137699 7.34229C0.176386 7.1352 0.42943 7.06334 0.578395 7.21229L10.785 17.4189C10.9339 17.5678 10.8621 17.8209 10.655 17.8596C10.3096 17.9241 9.95732 17.9689 9.59928 17.9928C9.52283 17.9979 9.44817 17.9691 9.39399 17.9149L0.0823864 8.60328ZM0.708738 11.1166C0.52278 10.9306 0.222688 11.0909 0.290791 11.3449C1.12053 14.4397 3.55761 16.8767 6.65237 17.7065C6.90639 17.7746 7.06662 17.4745 6.88067 17.2885L0.708738 11.1166ZM36.2891 4.9563C36.9348 4.9563 37.458 4.43106 37.458 3.78315C37.458 3.13524 36.9348 2.61 36.2891 2.61C35.6436 2.61 35.1204 3.13524 35.1204 3.78315C35.1204 4.43106 35.6436 4.9563 36.2891 4.9563ZM26.2773 15.1874L26.2773 2.6107L28.3545 2.6107L28.3545 13.3473L33.9552 13.3473L33.9552 15.1874L26.2773 15.1874ZM41.0618 10.0554L41.0618 15.1874L39.0519 15.1874L39.0519 6.27399L41.0366 6.27399L41.0366 7.80176L41.0618 7.78489C41.2636 7.30658 41.5888 6.90705 42.0374 6.58629C42.4858 6.25991 43.0576 6.09673 43.753 6.09673C44.3697 6.09673 44.9302 6.23461 45.4349 6.51033C45.9394 6.78044 46.343 7.17714 46.6458 7.70047C46.9485 8.2238 47.0999 8.86531 47.0999 9.62496L47.0999 15.1874L45.09 15.1874L45.09 9.90351C45.09 9.22826 44.9106 8.71618 44.5518 8.3673C44.1987 8.01279 43.7249 7.83553 43.1305 7.83553C42.7493 7.83553 42.4017 7.91431 42.0878 8.07187C41.7739 8.22944 41.5244 8.47139 41.3394 8.79777C41.1543 9.12415 41.0618 9.54337 41.0618 10.0554ZM59.2607 15.0355C59.7204 15.2324 60.2475 15.3309 60.8416 15.3309C61.3294 15.3309 61.747 15.269 62.0946 15.1452C62.4424 15.0158 62.7282 14.8442 62.9525 14.6303C63.1824 14.4165 63.3645 14.183 63.4992 13.9298L63.5328 13.9298L63.5328 15.1874L65.4586 15.1874L65.4586 9.05099C65.4586 8.6177 65.3744 8.221 65.2063 7.86085C65.0382 7.50071 64.7943 7.18841 64.4746 6.92393C64.1607 6.65944 63.7794 6.45687 63.3309 6.3162C62.8825 6.16988 62.3778 6.09673 61.8172 6.09673C61.0492 6.09673 60.3848 6.22897 59.8241 6.49345C59.269 6.7523 58.8346 7.10118 58.5205 7.54011C58.2066 7.97902 58.0356 8.47422 58.0075 9.02567L59.9503 9.02567C59.9726 8.76683 60.0624 8.53611 60.2194 8.33353C60.3763 8.13096 60.5895 7.97339 60.8586 7.86085C61.1277 7.74268 61.4387 7.68359 61.792 7.68359C62.1452 7.68359 62.4451 7.74268 62.6919 7.86085C62.944 7.97902 63.1375 8.1394 63.272 8.34198C63.4066 8.54455 63.474 8.78089 63.474 9.05099L63.474 9.11853C63.474 9.3211 63.4038 9.47021 63.2637 9.56588C63.1291 9.66154 62.8992 9.73188 62.5741 9.7769C62.2545 9.82192 61.8172 9.87538 61.2621 9.93728C60.808 9.98791 60.3708 10.0639 59.9503 10.1652C59.5298 10.2665 59.1541 10.4156 58.8233 10.6125C58.4982 10.8095 58.2403 11.0712 58.0497 11.3975C57.859 11.7239 57.7638 12.1431 57.7638 12.6552C57.7638 13.2461 57.8983 13.7412 58.1674 14.1408C58.4365 14.5347 58.801 14.8329 59.2607 15.0355ZM62.5153 13.5415C62.19 13.7159 61.7892 13.8031 61.3127 13.8031C60.8305 13.8031 60.4464 13.7019 60.1605 13.4993C59.8745 13.2911 59.7316 13.0069 59.7316 12.6468C59.7316 12.3654 59.8101 12.1375 59.967 11.9631C60.1297 11.7886 60.3427 11.6508 60.6062 11.5495C60.8697 11.4482 61.1556 11.3778 61.4639 11.3384C61.6882 11.3047 61.9069 11.2709 62.12 11.2371C62.3329 11.1978 62.532 11.1612 62.7171 11.1274C62.9021 11.088 63.0591 11.0486 63.1879 11.0093C63.3226 10.9699 63.4207 10.9277 63.4822 10.8826L63.4822 11.8787C63.4822 12.2275 63.4011 12.5483 63.2383 12.8409C63.0814 13.1279 62.8404 13.3614 62.5153 13.5415ZM67.2122 15.1874L67.2122 6.27399L69.1463 6.27399L69.1463 7.74268L69.1717 7.74268C69.3342 7.23624 69.5893 6.85078 69.9369 6.58629C70.29 6.3162 70.7526 6.18115 71.3245 6.18115C71.4647 6.18115 71.5909 6.18676 71.7028 6.19803C71.8207 6.20365 71.9188 6.20928 71.9973 6.2149L71.9973 8.02966C71.9244 8.01841 71.7954 8.00435 71.6105 7.98747C71.4255 7.97058 71.2293 7.96214 71.0217 7.96214C70.6909 7.96214 70.3883 8.0381 70.1134 8.19004C69.8388 8.34197 69.6201 8.57551 69.4575 8.89062C69.3006 9.20012 69.2221 9.59121 69.2221 10.0639L69.2221 15.1874L67.2122 15.1874ZM35.28 15.1874L35.28 6.27399L37.2899 6.27399L37.2899 15.1874L35.28 15.1874ZM50.4429 14.7907C51.0876 15.1902 51.853 15.39 52.7388 15.39C53.4228 15.39 54.045 15.2662 54.6057 15.0186C55.172 14.7654 55.6429 14.4193 56.0185 13.9804C56.3942 13.5359 56.6381 13.0238 56.7502 12.4442L54.8581 12.4442C54.7738 12.7086 54.6365 12.9422 54.4459 13.1448C54.261 13.3417 54.0283 13.4965 53.748 13.609C53.4676 13.7215 53.1425 13.7778 52.7724 13.7778C52.2735 13.7778 51.8445 13.6653 51.4858 13.4402C51.1326 13.2151 50.8635 12.9028 50.6785 12.5033C50.5105 12.1355 50.4187 11.7191 50.4033 11.254L56.868 11.254L56.868 10.7138C56.868 10.0273 56.767 9.4027 56.5652 8.83998C56.3634 8.27163 56.0774 7.78207 55.7073 7.37129C55.3374 6.95488 54.8917 6.63413 54.3703 6.40904C53.8544 6.18395 53.2798 6.07142 52.6462 6.07142C51.8222 6.07142 51.0934 6.27118 50.4598 6.67071C49.8262 7.07024 49.3301 7.62171 48.9712 8.32509C48.6124 9.02849 48.433 9.83317 48.433 10.7391C48.433 11.6395 48.6069 12.4414 48.9544 13.1448C49.302 13.8425 49.7983 14.3912 50.4429 14.7907ZM54.673 8.89062C54.488 8.50797 54.2245 8.21255 53.8825 8.00435C53.5405 7.79614 53.1369 7.69203 52.6714 7.69203C52.2117 7.69203 51.8109 7.79614 51.4689 8.00435C51.1326 8.21255 50.8691 8.50797 50.6785 8.89062C50.5424 9.16774 50.4564 9.48287 50.4204 9.83599L54.931 9.83599C54.895 9.48287 54.8089 9.16774 54.673 8.89062Z" fill="currentColor"/>
</svg>
