<svg width="24" height="25" viewBox="0 0 24 25" fill="none" xmlns="http://www.w3.org/2000/svg">
<path fill-rule="evenodd" clip-rule="evenodd" d="M3.92969 6.02891C3.92969 5.13759 4.65224 4.41504 5.54356 4.41504H18.4533C19.3446 4.41504 20.0672 5.1376 20.0672 6.02891V14.9058H20.0703V20.5548L17.65 18.134H5.54356C4.65224 18.134 3.92969 17.4115 3.92969 16.5202V6.02891ZM6.83381 7.64429C6.56639 7.64429 6.34961 7.86107 6.34961 8.12849C6.34961 8.3959 6.56639 8.61269 6.83381 8.61269H17.1617C17.4291 8.61269 17.6459 8.3959 17.6459 8.12849C17.6459 7.86107 17.4291 7.64429 17.1617 7.64429H6.83381ZM6.83381 10.8715C6.56639 10.8715 6.34961 11.0883 6.34961 11.3557C6.34961 11.6231 6.56639 11.8399 6.83381 11.8399H17.1617C17.4291 11.8399 17.6459 11.6231 17.6459 11.3557C17.6459 11.0883 17.4291 10.8715 17.1617 10.8715H6.83381ZM12.3204 14.1006C12.5878 14.1006 12.8046 14.3173 12.8046 14.5848C12.8046 14.8522 12.5878 15.069 12.3204 15.069H6.83381C6.56639 15.069 6.34961 14.8522 6.34961 14.5848C6.34961 14.3173 6.56639 14.1006 6.83381 14.1006H12.3204Z" fill="url(#gradient)"/>

<defs>
<linearGradient id="gradient" x1="12.0102" y1="2.21289" x2="12.0102" y2="21.0529" gradientUnits="userSpaceOnUse">
<stop stop-color="currentColor"/>
<stop offset="1" stop-color="currentColor" stop-opacity="0.6"/>
</linearGradient>
</defs>
</svg>
