<svg width="18" height="18" viewBox="0 0 18 18" fill="none" xmlns="http://www.w3.org/2000/svg">
<path d="M3.91025 3.7406C4.41413 4.14994 4.60315 4.11871 5.5493 4.05559L14.4694 3.51998C14.6585 3.51998 14.5012 3.33124 14.4382 3.29987L12.9567 2.22892C12.6729 2.00855 12.2946 1.75617 11.5699 1.8193L2.93257 2.44928C2.61758 2.48051 2.55466 2.638 2.68012 2.76425L3.91025 3.7406ZM4.4458 5.8194V15.2049C4.4458 15.7092 4.69786 15.898 5.26519 15.8668L15.0683 15.2996C15.6359 15.2684 15.6992 14.9213 15.6992 14.5116V5.18916C15.6992 4.78006 15.5418 4.55944 15.1943 4.59093L4.94994 5.18916C4.57189 5.22092 4.4458 5.41003 4.4458 5.8194ZM14.1234 6.32285C14.1863 6.60661 14.1234 6.8901 13.8392 6.92198L13.3668 7.01608V13.945C12.9567 14.1654 12.5786 14.2914 12.2634 14.2914C11.7589 14.2914 11.6325 14.1339 11.2546 13.6617L8.16502 8.81138V13.5042L9.14267 13.7248C9.14267 13.7248 9.14267 14.2914 8.35391 14.2914L6.17942 14.4176C6.11626 14.2914 6.17942 13.9768 6.39998 13.9137L6.96743 13.7565V7.5517L6.17956 7.48857C6.11638 7.20482 6.27374 6.79573 6.71536 6.76396L9.0481 6.60673L12.2634 11.5202V7.17357L11.4436 7.07948C11.3807 6.73261 11.6325 6.48073 11.9478 6.44949L14.1234 6.32285ZM2.20736 1.59893L11.1916 0.937335C12.2949 0.842709 12.5787 0.906094 13.2722 1.40981L16.1399 3.42548C16.6132 3.7721 16.7709 3.86647 16.7709 4.24432V15.2996C16.7709 15.9923 16.5185 16.4021 15.636 16.4648L5.20278 17.0949C4.54037 17.1264 4.2251 17.032 3.87821 16.5908L1.76627 13.8507C1.38784 13.3463 1.23047 12.9689 1.23047 12.5274V2.70088C1.23047 2.13429 1.48292 1.66168 2.20736 1.59893Z" fill="currentColor"/>
</svg>
