<svg width="24" height="24" viewBox="0 0 24 24" fill="none" xmlns="http://www.w3.org/2000/svg">
<path fill-rule="evenodd" clip-rule="evenodd" d="M17.9488 11.5888C17.9516 13.5878 18.4127 15.5586 19.2955 17.3443V17.3436C19.3251 17.4034 19.3392 17.4699 19.3364 17.5368C19.3336 17.6037 19.314 17.6688 19.2795 17.7258C19.2451 17.7829 19.1968 17.83 19.1394 17.8627C19.082 17.8954 19.0173 17.9126 18.9515 17.9127H5.06845C5.00275 17.9125 4.93818 17.8953 4.88085 17.8627C4.82353 17.83 4.77535 17.783 4.74089 17.726C4.70644 17.6691 4.68684 17.6042 4.68396 17.5374C4.68109 17.4706 4.69503 17.4041 4.72446 17.3443C5.60719 15.5586 6.0683 13.5878 6.07111 11.5888V10.9859C6.05381 9.90073 6.27705 8.82551 6.72424 7.84021C7.17143 6.85491 7.83107 5.98487 8.65413 5.29476C9.29982 4.78991 10.053 4.44653 10.853 4.29233V3.39037C10.853 3.07809 10.9749 2.77859 11.1919 2.55777C11.4089 2.33695 11.7031 2.21289 12.01 2.21289C12.3168 2.21289 12.6111 2.33695 12.828 2.55777C13.045 2.77859 13.1669 3.07809 13.1669 3.39037V4.28212C13.8079 4.39872 14.4198 4.64366 14.967 5.00274C15.9067 5.67601 16.6699 6.57348 17.1897 7.61657C17.7095 8.65965 17.9702 9.81654 17.9488 10.9859V11.5888ZM10.2857 18.698H13.7348C13.7823 18.6977 13.8281 18.7154 13.8634 18.7476C13.8988 18.7798 13.9211 18.8243 13.9261 18.8723C13.9345 18.9447 13.9386 19.0176 13.9384 19.0905C13.9384 19.611 13.7353 20.1101 13.3737 20.4782C13.0121 20.8462 12.5216 21.053 12.0102 21.053C11.4988 21.053 11.0084 20.8462 10.6468 20.4782C10.2852 20.1101 10.082 19.611 10.082 19.0905C10.0819 19.0176 10.086 18.9447 10.0944 18.8723C10.0997 18.8244 10.1221 18.7802 10.1574 18.748C10.1927 18.7159 10.2383 18.6981 10.2857 18.698Z" fill="url(#gradient)"/>
<defs>
<linearGradient id="gradient" x1="12.0102" y1="2.21289" x2="12.0102" y2="21.0529" gradientUnits="userSpaceOnUse">
<stop stop-color="var(--icon-color)"/>
<stop offset="1" stop-color="var(--icon-color)" stop-opacity="0.6"/>
</linearGradient>
</defs>
</svg>
