<svg width="18" height="19" viewBox="0 0 18 19" fill="none" xmlns="http://www.w3.org/2000/svg">
<path fill-rule="evenodd" clip-rule="evenodd" d="M13.86 7.69886C13.86 8.18279 13.2725 8.42241 12.934 8.0765L6.00506 0.994704C6.94197 0.664189 7.94999 0.484375 9 0.484375C10.7902 0.484375 12.4583 1.00703 13.86 1.90808V7.69886ZM16.38 4.33174V7.69886C16.38 10.4411 13.0506 11.799 11.1328 9.83887L3.68149 2.22322C1.4492 3.86105 0 6.50347 0 9.48438C0 11.4008 0.599003 13.1774 1.62 14.637V11.2879C1.62 8.5456 4.9494 7.18775 6.86722 9.14788L14.3082 16.753C16.5464 15.1158 18 12.4698 18 9.48438C18 7.56792 17.401 5.79137 16.38 4.33174ZM5.06598 10.9102L11.9818 17.9787C11.0486 18.3062 10.0451 18.4844 9 18.4844C7.20984 18.4844 5.54174 17.9617 4.14 17.0607V11.2879C4.14 10.804 4.72754 10.5643 5.06598 10.9102Z" fill="url(#gradient)"/>
<defs>
<linearGradient id="gradient" x1="14.85" y1="2.73437" x2="5.4" y2="18.4844" gradientUnits="userSpaceOnUse">
<stop stop-color="currentColor"/>
<stop offset="1" stop-color="currentColor" stop-opacity="0.5"/>
</linearGradient>
</defs>
</svg>
