<svg width="24" height="25" viewBox="0 0 24 25" fill="none" xmlns="http://www.w3.org/2000/svg">
<path d="M19.3114 13.8426C18.6858 13.999 18.0601 14.0772 17.4345 14.0772C13.5242 14.0772 10.3959 10.949 10.3959 7.03867C10.3959 6.41302 10.4742 5.78737 10.6306 5.16173C10.7088 4.92711 10.6306 4.61429 10.3959 4.37967C10.1613 4.14505 9.92671 4.06684 9.61389 4.14505C5.93822 5.23993 3.35742 8.68099 3.35742 12.5131C3.35742 17.2836 7.18951 21.1157 11.9601 21.1157C15.7922 21.1157 19.2332 18.5349 20.2499 14.781C20.3281 14.5464 20.2499 14.2336 20.0153 13.999C19.8589 13.8426 19.546 13.7644 19.3114 13.8426Z" fill="url(#gradient)"/>
<defs>
<linearGradient id="gradient" x1="11.8183" y1="4.11572" x2="11.8183" y2="21.1157" gradientUnits="userSpaceOnUse">
<stop stop-color="currentColor"/>
<stop offset="1" stop-color="currentColor" stop-opacity="0.6"/>
</linearGradient>
</defs>
</svg>
