<svg width="72" height="72" viewBox="0 0 72 72" fill="none" xmlns="http://www.w3.org/2000/svg">
<circle cx="36" cy="36" r="36" fill="#262626"/>
<g clip-path="url(#clip0_19903_30541)">
<path d="M54.7726 45.5582L40.4068 18.4004C39.1152 15.9672 36.0966 15.0416 33.6633 16.3332C32.7829 16.8008 32.0637 17.52 31.5961 18.4004L17.2303 45.5582C15.9516 47.9834 16.8804 50.9874 19.3072 52.2662C20.0248 52.6451 20.8262 52.8418 21.6373 52.8386H50.3656C53.1069 52.8467 55.3369 50.6311 55.345 47.8882C55.3482 47.0755 55.1515 46.2757 54.7726 45.5582ZM36.0015 48.0011C34.6663 48.0011 33.5827 46.9175 33.5827 45.5823C33.5827 44.2472 34.6663 43.1636 36.0015 43.1636C37.3366 43.1636 38.4202 44.2472 38.4202 45.5823C38.4202 46.9175 37.3366 48.0011 36.0015 48.0011ZM36.8561 39.9386H35.1452C34.7195 39.9386 34.3664 39.608 34.3406 39.1823L33.6343 27.8948C33.6053 27.4304 33.9745 27.0386 34.4389 27.0386H37.5607C38.0251 27.0386 38.3944 27.4304 38.3654 27.8948L37.6591 39.1823C37.6333 39.608 37.2818 39.9386 36.8561 39.9386Z" fill="#FFE14D"/>
</g>
<defs>
<clipPath id="clip0_19903_30541">
<rect width="38.7" height="38.7" fill="white" transform="translate(16.6504 15.75)"/>
</clipPath>
</defs>
</svg>
