<svg width="72" height="72" viewBox="0 0 72 72" fill="none" xmlns="http://www.w3.org/2000/svg">
<circle cx="36" cy="36" r="36" fill="#262626"/>
<path d="M26.4868 39.5427H21.8583C21.5514 39.5427 21.2571 39.4204 21.0401 39.2026C20.8231 38.9848 20.7012 38.6894 20.7012 38.3814V20.9621C20.7012 20.6541 20.8231 20.3587 21.0401 20.1409C21.2571 19.9231 21.5514 19.8008 21.8583 19.8008H26.4868V39.5427Z" fill="#00D5FF"/>
<path d="M28.8008 19.8008H46.4817C47.5619 19.8018 48.6078 20.182 49.4381 20.8756C50.2684 21.5691 50.8309 22.5323 51.028 23.5982L53.0808 34.685C53.0937 34.7551 53.1002 34.8263 53.1004 34.8976V36.0588C53.1004 37.2908 52.6128 38.4723 51.7448 39.3435C50.8768 40.2146 49.6995 40.704 48.4719 40.704H38.0578V51.1556C38.0578 52.3876 37.5701 53.5691 36.7021 54.4402C35.8341 55.3114 34.6568 55.8008 33.4293 55.8008C33.1642 55.8011 32.907 55.71 32.7008 55.5428C32.4946 55.3756 32.3519 55.1424 32.2965 54.8822L28.8008 39.5427V19.8008Z" fill="#00D5FF"/>
</svg>
