<svg fill="#EBEBEB" xmlns="http://www.w3.org/2000/svg"  viewBox="0 0 50 50" width="50px" height="50px"><path d="M 24.960938 2 A 1.0001 1.0001 0 0 0 24.603516 2.0546875 L 3.671875 9.3398438 A 1.0001 1.0001 0 0 0 3.0078125 10.40625 L 6.3144531 37.529297 A 1.0001 1.0001 0 0 0 6.8300781 38.287109 L 24.476562 47.878906 A 1.0001 1.0001 0 0 0 25.435547 47.876953 L 43.173828 38.154297 A 1.0001 1.0001 0 0 0 43.685547 37.398438 L 46.992188 10.277344 A 1.0001 1.0001 0 0 0 46.322266 9.2089844 L 25.253906 2.0527344 A 1.0001 1.0001 0 0 0 24.960938 2 z M 24.9375 4.0585938 L 44.908203 10.841797 L 41.761719 36.648438 L 24.953125 45.861328 L 8.2382812 36.775391 L 5.0898438 10.964844 L 24.9375 4.0585938 z M 25.035156 6 A 1.0001 1.0001 0 0 0 24.09375 6.578125 L 11.09375 34.578125 A 1.0001 1.0001 0 0 0 12 36 L 16.4375 36 A 1.0001 1.0001 0 0 0 17.34375 35.421875 L 19.857422 30.007812 L 30.142578 30.007812 L 32.65625 35.421875 A 1.0001 1.0001 0 0 0 33.5625 36 L 38 36 A 1.0001 1.0001 0 0 0 38.90625 34.578125 L 25.90625 6.578125 A 1.0001 1.0001 0 0 0 25.035156 6 z M 25 9.3730469 L 36.433594 34 L 34.201172 34 L 31.6875 28.585938 A 1.0001 1.0001 0 0 0 30.78125 28.007812 L 19.21875 28.007812 A 1.0001 1.0001 0 0 0 18.3125 28.585938 L 15.796875 34 L 13.566406 34 L 25 9.3730469 z M 25.039062 15.5 A 1.0001 1.0001 0 0 0 24.091797 16.082031 L 20.166016 24.59375 A 1.0001 1.0001 0 0 0 21.074219 26.011719 L 28.925781 26.011719 A 1.0001 1.0001 0 0 0 29.833984 24.59375 L 25.908203 16.082031 A 1.0001 1.0001 0 0 0 25.039062 15.5 z M 25 18.886719 L 27.363281 24.011719 L 22.636719 24.011719 L 25 18.886719 z"/></svg>