<svg width="128" height="44" viewBox="0 0 128 44" fill="none" xmlns="http://www.w3.org/2000/svg">
<g clip-path="url(#clip0_22557_2810)">
<path d="M19.0991 14.5312H23.2367L23.3899 14.7356L23.9518 16.0126L24.8713 18.107L25.8419 20.3035L26.7613 22.3978L27.3743 23.777L28.2938 25.8714L28.9068 27.3017L29.1111 27.0974L29.7241 26.1779L30.4903 25.0541L31.1544 24.0835L32.2271 22.5L32.3293 22.2446L31.8184 21.5294L31.3076 20.7632L30.1838 19.1286L29.4176 18.0048L28.6003 16.8299L27.8341 15.7061L27.17 14.7356L27.0678 14.5312H31.9206L32.3803 15.2975L33.2487 16.7788L34.5768 19.0264L34.7301 19.1797L35.5985 17.6983L36.0071 17.0343L36.8755 15.604L37.4885 14.5823L37.5396 14.5312H42.3413L41.9837 15.0931L41.0131 16.5234L40.2469 17.6472L38.8677 19.6905L37.795 21.274L37.1309 22.2446L37.2331 22.5L37.8461 23.4706L38.408 24.3389L39.2253 25.616L39.8893 26.6376L40.7067 27.9147L41.575 29.2428L42.2902 30.3155V30.4177H37.9993L37.5907 29.8558L36.9266 28.8341L35.3942 26.4844L34.8323 25.616L34.6279 25.4117L34.5258 25.6671L33.6063 27.0463L32.789 28.3233L31.4098 30.3666L31.3587 30.4177H26.0973L25.944 30.1623L25.3311 28.8341L24.667 27.3017L23.6454 25.003L21.7043 20.61L21.1934 19.4351L21.0402 19.6394L20.3761 21.1719L18.435 25.5649L17.4134 27.8636L16.6472 29.6004L16.3407 30.3155L16.2385 30.4177H12.0498L12.152 30.1112L12.7139 28.8852L13.6333 26.7909L14.6039 24.5943L15.319 22.9597L17.2601 18.5667L17.9753 16.9321L18.7415 15.1953L19.048 14.5823L19.0991 14.5312Z" fill="url(#paint0_linear_22557_2810)"/>
<path d="M56.4896 14.0195H57.6644L58.6861 14.1728L59.7077 14.4282L60.7804 14.8368L61.5466 15.2455L62.415 15.8585L63.028 16.4204L63.641 17.0334L64.2029 17.7996L64.6626 18.5658L65.0713 19.5364L65.3778 20.558L65.531 21.4775L65.5821 22.7034L65.4799 23.7761L65.3267 24.5424L65.0713 25.4108L64.6626 26.3302L64.2029 27.1475L63.6921 27.8116L63.2323 28.3224L62.6704 28.8843L61.8021 29.5484L60.9847 30.0081L60.2185 30.3657L59.2991 30.6722L58.022 30.9276L57.5112 30.9787H56.4385L54.9571 30.7233L53.9355 30.4168L53.1182 30.0592L52.1987 29.5484L51.5346 29.0376L50.9216 28.4757L50.4619 28.0159L49.9511 27.3519L49.3892 26.4324L48.9805 25.5129L48.6741 24.4913L48.5208 23.674L48.4697 23.2142V21.784L48.623 20.7623L48.9295 19.6896L49.287 18.8212L49.7979 17.9017L50.3087 17.2377L50.9216 16.5225L51.4835 16.0117L52.2498 15.4498L53.2203 14.8879L54.242 14.4793L55.1614 14.2239L56.4896 14.0195ZM56.4385 17.9017L55.5701 18.1061L54.7528 18.5147L54.293 18.8723L53.8844 19.2299L53.3736 19.8939L52.9649 20.7112L52.7606 21.3753L52.6584 22.0394V23.0099L52.8628 23.9294L53.1182 24.5934L53.4757 25.2064L53.8844 25.7172L54.293 26.1259L54.8039 26.4835L55.519 26.841L56.2341 27.0454L56.5917 27.0965H57.4601L58.3796 26.8921L59.1969 26.4835L59.7077 26.1259L60.1674 25.7172L60.7293 24.951L61.0869 24.1848L61.2912 23.4186L61.3423 23.1632V21.784L61.138 20.9666L60.8826 20.3537L60.5761 19.7918L60.1674 19.2809L59.7077 18.8212L58.9926 18.3615L58.4307 18.1061L57.6134 17.9017H56.4385Z" fill="url(#paint1_linear_22557_2810)"/>
<path d="M107.829 14.0723L108.748 14.1233L109.872 14.3277L110.74 14.5831L111.66 14.9917L112.477 15.4515L113.09 15.9112L113.805 16.5242L114.367 17.1372L114.929 17.9034L115.389 18.7207L115.746 19.538L116.053 20.5596L116.206 21.428L116.257 21.8878V22.9605L116.104 24.0843L115.848 25.0548L115.389 26.1786L115.082 26.6895L115.133 26.8938L116.359 28.1197L116.615 28.3241V28.4773L116.206 28.8349L115.746 29.2435L114.52 30.4695L114.469 30.5717H114.316L113.958 30.163L113.243 29.4479L113.039 29.2946V29.1925L112.835 29.1414L112.068 29.6522L110.893 30.2141L109.923 30.5206L108.697 30.7249H106.96L105.99 30.5717L104.917 30.2652L103.895 29.8054L103.129 29.3457L102.516 28.886L102.005 28.4262L101.392 27.8133L100.779 26.9959L100.32 26.1786L99.962 25.4124L99.6555 24.4419L99.4512 23.3181V21.5813L99.6555 20.4064L100.013 19.3337L100.473 18.3631L101.086 17.4437L101.546 16.8818L102.312 16.1155L102.976 15.6047L103.742 15.145L104.559 14.7363L105.377 14.4298L106.552 14.1744L107.829 14.0723ZM107.675 17.0861L106.807 17.1883L106.041 17.3926L105.223 17.7502L104.61 18.1588L103.997 18.7207L103.64 19.0783L103.282 19.5891L102.874 20.3553L102.618 21.1215L102.465 22.041V22.8583L102.618 23.7267L102.874 24.4929L103.333 25.3613L103.742 25.8721L104.151 26.3319L104.815 26.8427L105.53 27.2514L106.347 27.5578L107.062 27.7111L107.573 27.7622H108.084L109.106 27.6089L110.025 27.3024L110.587 26.9959V26.7916L109.157 25.3613V25.2592L109.565 24.9016L111.251 23.2159L111.455 23.267L112.681 24.4929L112.835 24.4419L113.09 23.6246L113.192 23.0116V21.8367L113.039 21.0194L112.732 20.2021L112.375 19.538L111.864 18.8739L111.353 18.3631L110.536 17.8012L109.77 17.4437L109.106 17.2393L108.595 17.1372L107.675 17.0861Z" fill="url(#paint2_linear_22557_2810)"/>
<path d="M72.1227 14.2246H72.94L74.217 14.3779L75.2387 14.6843L76.056 15.093L76.6179 15.5017L77.1287 15.9614L77.5884 16.5233L77.9971 17.2384L78.3036 17.9536L78.4568 18.5666V18.822L78.0992 18.9752L75.3919 19.7414L74.9322 19.8436L74.6768 18.9752L74.3703 18.4644L74.1149 18.209L73.7062 17.9025L73.1443 17.6982L72.8889 17.6471H72.1738L71.6119 17.8003L71.101 18.1068L70.7945 18.5666L70.6924 18.822V19.3839L70.8456 19.7925L71.101 20.099L71.6629 20.3544L74.5235 20.9163L75.5451 21.2228L76.3625 21.6315L76.9244 21.989L77.4863 22.4488L77.9971 23.0617L78.4057 23.7769L78.6611 24.5431L78.7633 25.105V26.2288L78.559 27.0972L78.2014 27.9145L77.7927 28.5275L77.2308 29.1405L76.7711 29.5491L76.0049 30.0089L75.1876 30.3664L74.217 30.6218L73.5019 30.724H71.7651L70.7435 30.5708L69.9772 30.3664L69.3132 30.111L68.547 29.7024L67.8829 29.1916L67.321 28.6297L66.8102 27.9145L66.3504 26.944L66.0439 25.8712V25.6158L68.2915 25.0539L69.4153 24.7985L69.5686 24.7474L69.7218 25.1561L69.9262 25.7691L70.2326 26.2799L70.6924 26.7396L71.5097 27.1483L72.1738 27.3015H73.2465L73.8595 27.0972L74.217 26.8418H74.3192L74.6257 26.2288L74.6768 25.718L74.5235 25.2583L74.217 24.9007L73.6551 24.6453L70.6413 24.0323L69.5686 23.6747L68.7002 23.215L68.1894 22.8063L67.7296 22.3977L67.2699 21.7847L66.9123 21.0696L66.708 20.3544L66.6058 19.3328L66.708 18.4644L66.9634 17.596L67.3721 16.8298L67.8318 16.2168L68.3937 15.6549L69.1088 15.1441L69.9262 14.7354L70.6413 14.48L71.2543 14.3268L72.1227 14.2246Z" fill="url(#paint3_linear_22557_2810)"/>
<path d="M84.0247 14.5312H87.2429L87.2939 14.5823V20.8143H94.6497V14.5823L94.7008 14.5312H97.9189V30.3666H94.6497V24.0325H87.2939V30.3155L87.2429 30.3666H84.0247L83.9736 29.4982V26.1268L84.0247 14.5312Z" fill="url(#paint4_linear_22557_2810)"/>
<path d="M43.3626 14.5312L47.2448 14.5823V30.3666L47.0916 30.4177H43.3115V14.5823L43.3626 14.5312Z" fill="url(#paint5_linear_22557_2810)"/>
</g>
<defs>
<linearGradient id="paint0_linear_22557_2810" x1="27.2157" y1="14.5313" x2="27.2157" y2="30.4562" gradientUnits="userSpaceOnUse">
<stop stop-color="white"/>
<stop offset="1" stop-color="white" stop-opacity="0.6"/>
</linearGradient>
<linearGradient id="paint1_linear_22557_2810" x1="57.0373" y1="14.0195" x2="57.0373" y2="31.0198" gradientUnits="userSpaceOnUse">
<stop stop-color="white"/>
<stop offset="1" stop-color="white" stop-opacity="0.6"/>
</linearGradient>
<linearGradient id="paint2_linear_22557_2810" x1="108.044" y1="14.0723" x2="108.044" y2="30.7653" gradientUnits="userSpaceOnUse">
<stop stop-color="white"/>
<stop offset="1" stop-color="white" stop-opacity="0.6"/>
</linearGradient>
<linearGradient id="paint3_linear_22557_2810" x1="72.4121" y1="14.2246" x2="72.4121" y2="30.764" gradientUnits="userSpaceOnUse">
<stop stop-color="white"/>
<stop offset="1" stop-color="white" stop-opacity="0.6"/>
</linearGradient>
<linearGradient id="paint4_linear_22557_2810" x1="90.9556" y1="14.5313" x2="90.9556" y2="30.405" gradientUnits="userSpaceOnUse">
<stop stop-color="white"/>
<stop offset="1" stop-color="white" stop-opacity="0.6"/>
</linearGradient>
<linearGradient id="paint5_linear_22557_2810" x1="45.2808" y1="14.5313" x2="45.2808" y2="30.4562" gradientUnits="userSpaceOnUse">
<stop stop-color="white"/>
<stop offset="1" stop-color="white" stop-opacity="0.6"/>
</linearGradient>
<clipPath id="clip0_22557_2810">
<rect width="104.615" height="17" fill="white" transform="translate(12 14)"/>
</clipPath>
</defs>
</svg>
