<svg width="128" height="44" viewBox="0 0 128 44" fill="none" xmlns="http://www.w3.org/2000/svg">
<path d="M48.953 8.0957H56.4858L57.1105 8.20594L57.5882 8.38967L57.9924 8.64688L58.3598 8.97759L58.617 9.27156L58.911 9.78599L59.1315 10.3739L59.8664 12.6154L60.491 14.5996L60.932 15.9225L61.4464 17.5025L62.1813 19.744L62.659 21.2506L63.5042 23.8595L64.1288 25.807L64.8638 28.0485L65.5252 30.1429L66.1866 32.1639L66.5908 33.45L67.1052 35.0301L67.4359 35.9855V36.059L67.3257 36.0957H48.953L47.7036 35.9855L46.3808 35.765L45.3519 35.5078L44.1761 35.1036L43.2575 34.6994L42.5593 34.3687L41.7876 33.9277L41.2365 33.5603L40.5383 33.0458L40.1341 32.7151L40.0239 32.6416V32.5681L39.8769 32.4947L39.5829 32.2374V32.1639L39.4359 32.0905L38.7745 31.429L38.5173 31.1351L38.1131 30.6574L37.5987 29.9592L37.1945 29.3345L36.7903 28.6364L36.4228 27.9382L36.1288 27.2401L35.8349 26.4684L35.5409 25.4763L35.3204 24.4474L35.1735 23.345L35.1367 22.8674V21.324L35.247 20.2217L35.3939 19.3398L35.6512 18.3109L36.0186 17.2086L36.4228 16.2899L36.7168 15.702L37.0475 15.0773L37.5619 14.2689L37.9294 13.7912L38.4071 13.2033L38.7378 12.8359L38.995 12.5419L39.4727 12.0642L40.0239 11.5498L40.5383 11.1456L41.2365 10.6311L41.7876 10.2637L42.596 9.78599L43.4412 9.38179L44.6538 8.9041L45.5724 8.61014L46.491 8.38967L47.6302 8.20594L48.2916 8.13245L48.953 8.0957Z" fill="url(#paint0_linear_22557_2777)"/>
<path d="M61.3003 8.0957H78.8279L79.7098 8.13245L80.9223 8.27943L81.988 8.4999L83.1638 8.83061L84.1559 9.19807L85.1848 9.67576L86.0667 10.1534L86.6914 10.5576L87.316 10.9986L87.904 11.4763L88.6389 12.1377L89.2636 12.7624L89.5208 13.0563L89.8882 13.4973L90.2557 13.975L90.6966 14.6364L91.0273 15.1876L91.3948 15.849L91.9092 16.9513L92.2399 17.8332L92.4972 18.6784L92.7544 19.9277L92.8646 20.8831L92.9014 21.471V22.7204L92.7911 24.0065L92.5706 25.1456L92.3134 26.1377L91.946 27.1298L91.5418 28.0485L91.2111 28.6731L90.6231 29.6653L90.1822 30.2899L89.8515 30.7309L89.4473 31.2086L89.1901 31.4658L88.9328 31.7597L88.4552 32.2374L88.1612 32.4947L87.5733 32.9723L87.1323 33.3031L86.5444 33.7073L85.9197 34.1115L85.0378 34.5891L84.1192 34.9933L83.1271 35.3608L82.1349 35.6548L81.0693 35.8752L79.967 36.0222L79.526 36.059L77.3213 36.0957H73.0221L72.5077 36.0222L71.736 35.8017L71.1113 35.5078L70.5969 35.1403L70.1192 34.6994L69.7885 34.2952L69.4945 33.8175L69.2373 33.2296L68.8331 31.9802L68.3554 30.4737L67.988 29.2978L67.4735 27.7912L66.9591 26.1744L66.5181 24.8516L65.8935 22.9041L65.526 21.6915L64.6441 19.0458L64.1297 17.4658L63.505 15.5183L63.0641 14.1954L62.4027 12.101L61.925 10.5944L61.484 9.27156L61.1533 8.20594V8.13245L61.3003 8.0957Z" fill="url(#paint1_linear_22557_2777)"/>
<path d="M41.8239 16.4395H45.5351L47.1152 16.4762L47.8501 16.6232L48.4013 16.8437L48.8422 17.1376L49.2097 17.4683L49.5036 17.799L49.7609 18.24L49.9078 18.7177L49.9446 18.9381V19.82L49.7609 20.3712L49.5404 20.7754L49.1362 21.2164L48.732 21.4736L48.2543 21.694L47.9971 21.8043V21.841L48.5115 21.9513L48.9525 22.135L49.3567 22.3922L49.8344 22.8332L50.0548 23.1271L50.312 23.6416L50.3855 23.9355L50.4223 24.303V24.8909L50.312 25.4788L50.1283 25.9933L49.8344 26.4342L49.4302 26.8384L48.9157 27.2059L48.438 27.4263L47.9236 27.5733L47.2254 27.6835L41.8606 27.7203L41.7871 27.6468V16.4762L41.8239 16.4395Z" fill="#FCFEFE"/>
<path d="M56.0444 16.4395H57.5143L57.845 16.5129L58.1389 16.7334L58.3594 17.0641L58.5799 17.5786L59.2045 19.4158L59.572 20.4447L59.9395 21.4368L60.1599 22.0615L60.7479 23.715L61.1521 24.8174L61.7032 26.2872L61.74 26.4342V26.9119L61.5563 27.2793L61.2623 27.5733L61.0418 27.6835L60.8581 27.7203H60.5274L60.1599 27.6101L59.866 27.3896L59.6455 26.8751L59.0943 25.3318L58.9473 24.9644H55.53L54.6481 25.0011L54.4276 25.736L54.0602 26.7649L53.8397 27.2059L53.509 27.5733L53.1783 27.7203H52.6271L52.1862 27.4998L51.929 27.1691L51.8555 26.9119L51.8922 26.5077L52.2229 25.5156L52.5904 24.4867L53.1416 22.9801L53.5458 21.841L54.2807 19.82L54.7216 18.5339L55.236 17.1009L55.4565 16.7702L55.7505 16.5129L56.0444 16.4395Z" fill="#FCFEFE"/>
<path d="M85.5145 16.4395H85.8452L86.2494 16.5864L86.4331 16.7702L86.6168 17.0641L86.6536 17.1744V17.5786L86.5433 17.8725L86.2126 18.2767L85.8452 18.6809L85.588 18.9749L85.147 19.4893L84.5958 20.0772L84.2651 20.4447L83.8609 20.8856L83.5302 21.2898L83.3832 21.4368L83.42 21.6206L83.7507 22.0248L84.0814 22.5024L84.5223 23.0904L84.8898 23.6048L85.4042 24.303L85.8819 24.9644L86.3964 25.6625L86.6536 26.03L86.874 26.4342V26.9119L86.6903 27.2793L86.5066 27.4998L86.1759 27.6835L85.9922 27.7203H85.6614L85.294 27.5733L85.0368 27.3528L84.5958 26.7282L84.1916 26.1402L83.7139 25.4788L83.273 24.8542L82.3176 23.5313L82.0237 23.0904L81.9502 22.9066L81.8767 22.8699L81.8032 23.0169L81.2153 23.6416L80.8845 24.0458L80.6641 24.303L80.6273 24.5969L80.5906 26.8751L80.4436 27.2059L80.1864 27.4998L79.8557 27.6835L79.6719 27.7203H79.3412L78.9003 27.4998L78.7166 27.3528L78.5696 27.0589L78.5328 26.9119L78.4961 17.5051L78.5328 17.1744L78.7533 16.8437L79.084 16.5497L79.3045 16.4762H79.8557L80.2231 16.6599L80.5171 16.9906L80.5906 17.1744L80.6273 17.6888L80.5906 21.694H80.6641V21.6206L80.958 21.3633L81.2887 20.9959L81.6195 20.5917L81.9502 20.2242L82.2809 19.82L82.6483 19.4158L82.979 19.0116L83.3465 18.6074L83.6037 18.3135L83.9712 17.9093L84.3019 17.5051L84.7428 16.9906L85.1103 16.6232L85.4042 16.4762L85.5145 16.4395Z" fill="#FCFEFE"/>
<path d="M71.5143 16.291H71.992L72.7636 16.3645L73.4985 16.5482L74.0865 16.8055L74.6009 17.0994L75.0418 17.5036L75.2991 17.7976L75.593 18.2753L75.7033 18.5692V18.9367L75.4828 19.2674L75.1888 19.4879L74.9316 19.5614H74.6744L74.3069 19.4511L73.9395 19.1939L73.2413 18.4957L72.7269 18.2018L72.139 18.0548H71.1836L70.5589 18.2018L70.1547 18.4222L69.971 18.606L69.7873 18.8264L69.677 19.0102L69.6035 19.3041V19.7451L69.7505 20.0758L70.0812 20.4432L70.6691 20.7372L71.6245 21.0312L73.2046 21.4354L73.866 21.6558L74.4539 21.9498L74.9316 22.2805L75.2991 22.6112L75.593 22.9787L75.887 23.5666L75.9972 23.9708V25.0732L75.887 25.5509L75.74 25.8816L75.5195 26.2858L75.1153 26.7635L74.6744 27.1309L74.0497 27.4616L73.3883 27.6821L72.6166 27.8291L72.139 27.8658H70.5222L70.3384 27.7556L70.1547 27.5719L70.0077 27.2779L69.971 27.0942V26.69L70.118 26.3593L70.3752 26.1388L70.4487 26.102H71.992L72.5799 25.9918L73.0576 25.8081L73.425 25.5509L73.6823 25.2569L73.8292 24.9262L73.866 24.7792V24.3015L73.7558 24.0076L73.6088 23.7871L73.3516 23.5666L72.7636 23.2726L72.0655 23.0522L70.8896 22.7582L69.971 22.501L69.4198 22.2805L68.7216 21.9131L68.2807 21.5824L67.9867 21.2884L67.7295 20.8842L67.5458 20.4432L67.4723 20.0758L67.4355 19.4879L67.5458 18.7897L67.7295 18.2753L68.0235 17.8343L68.3542 17.4669L68.6114 17.2097L69.1626 16.8422L69.6403 16.6217L70.4119 16.4013L70.8896 16.3278L71.5143 16.291Z" fill="#FCFEFE"/>
<path d="M44.1019 22.6855H46.0862L46.9313 22.759L47.2988 22.906L47.6662 23.1632L47.8867 23.347L48.1072 23.6777L48.2542 24.0819L48.2909 24.3023V24.6331L48.1439 25.1107L47.9235 25.4415L47.5193 25.7354L47.0416 25.9191L46.6374 25.9926H43.9182L43.8447 25.7354V23.7879L43.8815 22.7223L44.1019 22.6855Z" fill="#C2C2C4"/>
<path d="M43.8815 18.166H46.5639L46.8946 18.2395L47.2253 18.4232L47.556 18.7539L47.7765 19.1949L47.85 19.5623L47.8132 20.04L47.556 20.5545L47.2253 20.8852L46.8578 21.1056L46.3802 21.2159L45.388 21.2526H44.8369L43.8815 21.2159L43.8447 21.1791V19.893L43.8815 18.166Z" fill="#D6D6D7"/>
<path d="M56.7796 18.752L56.8899 18.7887L57.3308 20.1115L57.9922 22.059L58.2495 22.7939L58.3964 23.1981V23.2716L58.029 23.3084H55.4201L55.2363 23.2716L55.3098 22.9409L55.6405 22.059L56.0815 20.7362L56.5959 19.2664L56.7796 18.752Z" fill="#D2D2D3"/>
<defs>
<linearGradient id="paint0_linear_22557_2777" x1="51.3078" y1="8.0957" x2="51.3078" y2="36.1636" gradientUnits="userSpaceOnUse">
<stop stop-color="white"/>
<stop offset="1" stop-color="white" stop-opacity="0.6"/>
</linearGradient>
<linearGradient id="paint1_linear_22557_2777" x1="77.0485" y1="8.0957" x2="77.0485" y2="36.1636" gradientUnits="userSpaceOnUse">
<stop stop-color="white"/>
<stop offset="1" stop-color="white" stop-opacity="0.6"/>
</linearGradient>
</defs>
</svg>
