<svg width="128" height="44" viewBox="0 0 128 44" fill="none" xmlns="http://www.w3.org/2000/svg">
<g clip-path="url(#clip0_22557_2702)">
<path d="M14.5916 10.9881C13.4657 9.65309 12.4963 8.29724 12.2982 8.01564C12.2774 7.99479 12.2461 7.99479 12.2252 8.01564C12.0272 8.29724 11.0577 9.65309 9.9319 10.9881C0.268578 23.3054 11.4539 31.6179 11.4539 31.6179L11.5477 31.6805C11.6311 32.9633 11.8395 34.8094 11.8395 34.8094H12.2565H12.6735C12.6735 34.8094 12.882 32.9737 12.9654 31.6805L13.0592 31.6075C13.0696 31.6179 24.2549 23.3054 14.5916 10.9881ZM12.2565 31.4301C12.2565 31.4301 11.7562 31.0025 11.6206 30.7836V30.7626L12.2252 17.3502C12.2252 17.3084 12.2878 17.3084 12.2878 17.3502L12.8924 30.7626V30.7836C12.7569 31.0025 12.2565 31.4301 12.2565 31.4301Z" fill="url(#paint0_linear_22557_2702)"/>
<path d="M33.1895 28.6942L28.5285 17.3166L28.518 17.2852H24.8916V18.0499H25.4768C25.6545 18.0499 25.8217 18.1233 25.9471 18.249C26.0725 18.3747 26.1352 18.5424 26.1352 18.7204L26.0307 30.1714C26.0307 30.5275 25.7382 30.8209 25.3828 30.8314L24.7871 30.8418V31.5961H28.3195V30.8418L27.9537 30.8314C27.5984 30.8209 27.3057 30.5275 27.3057 30.1714V19.3805L32.3849 31.5961C32.4579 31.7742 32.6251 31.8895 32.8133 31.8895C33.0014 31.8895 33.1686 31.7742 33.2418 31.5961L38.2059 19.6528L38.2791 30.1714C38.2791 30.5381 37.9864 30.8314 37.6207 30.8418H37.2444V31.5961H41.3829V30.8418H40.8185C40.4633 30.8418 40.1706 30.5381 40.1601 30.1818L40.1288 18.7309C40.1288 18.3642 40.4214 18.0709 40.7768 18.0604L41.3829 18.0499V17.2852H37.8505L33.1895 28.6942Z" fill="url(#paint1_linear_22557_2702)"/>
<path d="M65.6891 30.6421C65.5737 30.5268 65.5109 30.3693 65.5109 30.1804V24.5553C65.5109 23.4849 65.1966 22.6452 64.5678 22.0471C63.9497 21.4488 63.0905 21.1445 62.0218 21.1445C60.5234 21.1445 59.3394 21.7532 58.5116 22.9496C58.5012 22.9706 58.4698 22.9811 58.4384 22.9811C58.4068 22.9811 58.386 22.9601 58.386 22.9287L57.9982 21.4279H57.3486L55.6826 22.3829V22.9076H56.1122C56.3113 22.9076 56.4789 22.9601 56.5942 23.0651C56.7095 23.17 56.7723 23.3275 56.7723 23.5478V30.1699C56.7723 30.3588 56.7095 30.5162 56.5942 30.6317C56.4789 30.7471 56.3218 30.8101 56.1332 30.8101H55.714V31.5762H59.5489V30.8101H59.1298C58.9412 30.8101 58.784 30.7471 58.6688 30.6317C58.5536 30.5162 58.4906 30.3588 58.4906 30.1699V25.7832C58.4906 25.227 58.6164 24.6707 58.847 24.125C59.0879 23.5898 59.4441 23.1385 59.9157 22.7922C60.3872 22.4459 60.953 22.2779 61.6026 22.2779C62.3361 22.2779 62.8915 22.5088 63.2372 22.9706C63.5829 23.4324 63.7611 24.0306 63.7611 24.7442V30.1595C63.7611 30.3483 63.6982 30.5057 63.5829 30.6212C63.4677 30.7366 63.3105 30.7995 63.1219 30.7995H62.7028V31.5656H66.5377V30.7995H66.1187C65.9615 30.8206 65.8147 30.7576 65.6891 30.6421Z" fill="url(#paint2_linear_22557_2702)"/>
<path d="M100.726 18.1418C99.6663 17.5777 98.4815 17.2852 97.2032 17.2852H92.2148V18.0478H92.7033C92.8904 18.0478 93.0566 18.1209 93.2229 18.2881C93.3788 18.4447 93.4619 18.6224 93.4619 18.8104V30.0513C93.4619 30.2393 93.3788 30.4169 93.2229 30.5736C93.0671 30.7303 92.8904 30.8139 92.7033 30.8139H92.2148V31.5765H97.2032C98.4815 31.5765 99.6663 31.284 100.726 30.7199C101.786 30.1557 102.649 29.3199 103.272 28.2545C103.896 27.1889 104.218 25.9039 104.218 24.4413C104.218 22.9788 103.896 21.7042 103.272 20.6282C102.638 19.5417 101.786 18.7164 100.726 18.1418ZM102.212 24.4204C102.212 25.7576 101.973 26.8858 101.506 27.7947C101.038 28.7036 100.414 29.3826 99.6454 29.8215C98.8764 30.2603 98.0242 30.4796 97.1097 30.4796H96.1016C95.9146 30.4796 95.7483 30.4065 95.582 30.2393C95.4261 30.0826 95.343 29.9051 95.343 29.717V19.1134C95.343 18.9253 95.4157 18.7582 95.582 18.591C95.7379 18.4343 95.9146 18.3507 96.1016 18.3507H97.1097C98.0242 18.3507 98.8764 18.5701 99.6454 19.0089C100.414 19.4476 101.038 20.1267 101.506 21.0355C101.973 21.9549 102.212 23.0936 102.212 24.4204Z" fill="url(#paint3_linear_22557_2702)"/>
<path d="M116.011 25.1831C115.549 24.6502 114.659 24.201 113.612 23.9607C115.058 23.2399 115.801 22.2265 115.801 20.9207C115.801 20.2103 115.613 19.573 115.235 19.0297C114.858 18.4866 114.324 18.0478 113.643 17.7448C112.962 17.4419 112.165 17.2852 111.265 17.2852H105.618V18.0478H106.069C106.257 18.0478 106.425 18.1209 106.592 18.2881C106.75 18.4447 106.833 18.6224 106.833 18.8104V30.0513C106.833 30.2393 106.75 30.4169 106.592 30.5736C106.435 30.7303 106.257 30.8139 106.069 30.8139H105.576V31.5765H111.705C112.637 31.5765 113.507 31.4198 114.293 31.1064C115.079 30.793 115.707 30.3334 116.158 29.7274C116.618 29.1215 116.849 28.3797 116.849 27.5231C116.838 26.6038 116.566 25.8202 116.011 25.1831ZM108.981 30.2497C108.824 30.093 108.74 29.9155 108.74 29.7274V24.6815H111.653C112.679 24.6815 113.465 24.9427 114.01 25.465C114.555 25.9875 114.827 26.6664 114.827 27.5022C114.827 28.0037 114.701 28.4947 114.471 28.9439C114.23 29.4036 113.873 29.7692 113.392 30.0513C112.92 30.3334 112.333 30.4796 111.653 30.4796H109.505C109.316 30.4796 109.149 30.4065 108.981 30.2497ZM108.751 23.6055V19.1238C108.751 18.9358 108.824 18.7686 108.991 18.6014C109.149 18.4447 109.327 18.3612 109.515 18.3612H110.898C111.893 18.3612 112.627 18.612 113.088 19.0924C113.548 19.5835 113.779 20.2103 113.779 20.9834C113.779 21.7773 113.559 22.4146 113.13 22.8951C112.7 23.3652 112.051 23.6055 111.192 23.6055H108.751Z" fill="url(#paint4_linear_22557_2702)"/>
<path d="M51.0897 21.8109C50.2891 21.3736 49.3951 21.1445 48.4282 21.1445C47.4614 21.1445 46.5569 21.3632 45.7667 21.8109C44.9662 22.2481 44.332 22.8832 43.8642 23.6848C43.3964 24.4865 43.1572 25.4236 43.1572 26.4647C43.1572 27.5058 43.3964 28.4428 43.8642 29.2445C44.332 30.0462 44.9662 30.6813 45.7667 31.1185C46.5673 31.5557 47.4614 31.7848 48.4282 31.7848C49.3951 31.7848 50.2996 31.5662 51.0897 31.1185C51.8903 30.6813 52.5245 30.0462 52.9923 29.2445C53.4601 28.4428 53.6992 27.5058 53.6992 26.4647C53.6992 25.4236 53.4601 24.4865 52.9923 23.6848C52.5245 22.8832 51.8903 22.2481 51.0897 21.8109ZM51.8591 26.4647C51.8591 27.7453 51.5472 28.7863 50.9233 29.536C50.31 30.2856 49.4679 30.6708 48.4282 30.6708C47.3886 30.6708 46.5464 30.2856 45.9331 29.536C45.3093 28.7863 44.9974 27.7453 44.9974 26.4647C44.9974 25.1841 45.3093 24.143 45.9331 23.3934C46.5464 22.6438 47.3886 22.2585 48.4282 22.2585C49.4679 22.2585 50.31 22.6438 50.9233 23.3934C51.5472 24.143 51.8591 25.1841 51.8591 26.4647Z" fill="url(#paint5_linear_22557_2702)"/>
<path d="M87.9344 21.8109C87.1339 21.3736 86.2398 21.1445 85.2729 21.1445C84.3061 21.1445 83.4016 21.3632 82.6115 21.8109C81.8109 22.2481 81.1767 22.8832 80.7089 23.6848C80.2411 24.4865 80.002 25.4236 80.002 26.4647C80.002 27.5058 80.2411 28.4428 80.7089 29.2445C81.1767 30.0462 81.8109 30.6813 82.6115 31.1185C83.412 31.5557 84.3061 31.7848 85.2729 31.7848C86.2398 31.7848 87.1443 31.5662 87.9344 31.1185C88.735 30.6813 89.3692 30.0462 89.837 29.2445C90.3048 28.4428 90.5439 27.5058 90.5439 26.4647C90.5439 25.4236 90.3048 24.4865 89.837 23.6848C89.3692 22.8832 88.7246 22.2481 87.9344 21.8109ZM88.7038 26.4647C88.7038 27.7453 88.3918 28.7863 87.7681 29.536C87.1546 30.2856 86.3125 30.6708 85.2729 30.6708C84.2333 30.6708 83.3911 30.2856 82.7778 29.536C82.154 28.7863 81.8421 27.7453 81.8421 26.4647C81.8421 25.1737 82.154 24.143 82.7778 23.3934C83.3911 22.6438 84.2333 22.2585 85.2729 22.2585C86.3125 22.2585 87.1546 22.6438 87.7681 23.3934C88.3815 24.143 88.7038 25.1841 88.7038 26.4647Z" fill="url(#paint6_linear_22557_2702)"/>
<path d="M73.0754 21.1445C72.2376 21.1445 71.4734 21.3223 70.7823 21.6779C70.0913 22.0335 69.5468 22.5147 69.1594 23.1318C68.772 23.7384 68.5731 24.4183 68.5731 25.14C68.5731 25.7884 68.7196 26.3846 69.0233 26.918C69.3165 27.4305 69.7144 27.8593 70.2169 28.2149L68.7196 30.2441C68.5311 30.495 68.5103 30.8297 68.6464 31.1017C68.7929 31.384 69.0651 31.5515 69.3793 31.5515H69.8086C69.3897 31.8338 69.0547 32.1685 68.8243 32.5659C68.5521 33.0157 68.416 33.4863 68.416 33.9674C68.416 34.867 68.8139 35.6096 69.5991 36.1639C70.374 36.7183 71.4629 37.0006 72.8345 37.0006C73.7873 37.0006 74.6982 36.8438 75.5254 36.5404C76.363 36.2372 77.0435 35.7873 77.5461 35.2017C78.0592 34.616 78.321 33.9047 78.321 33.0889C78.321 32.2313 78.0068 31.6246 77.2739 31.039C76.6458 30.5473 75.6615 30.2859 74.4364 30.2859H70.2483C70.2379 30.2859 70.2274 30.2754 70.2274 30.2754C70.2274 30.2754 70.2169 30.2545 70.2274 30.2441L71.3163 28.7798C71.6095 28.9157 71.8817 28.9994 72.1225 29.0516C72.3737 29.104 72.6565 29.1249 72.9706 29.1249C73.8501 29.1249 74.6459 28.9471 75.3369 28.5915C76.028 28.2359 76.5829 27.7548 76.9808 27.1376C77.3786 26.531 77.5775 25.8512 77.5775 25.1295C77.5775 24.3555 77.2006 22.9435 76.1745 22.2218C76.1745 22.2114 76.185 22.2114 76.185 22.2114L78.4361 22.4624V21.4269H74.8343C74.2689 21.2492 73.6826 21.1445 73.0754 21.1445ZM74.3317 27.692C73.9339 27.9011 73.5046 28.0162 73.0754 28.0162C72.3739 28.0162 71.7561 27.7652 71.2325 27.2737C70.7091 26.782 70.4473 26.0603 70.4473 25.14C70.4473 24.2196 70.7091 23.4978 71.2325 23.0063C71.7561 22.5147 72.3739 22.2636 73.0754 22.2636C73.5151 22.2636 73.9339 22.3683 74.3317 22.5879C74.7296 22.7971 75.0542 23.1213 75.316 23.5502C75.5672 23.979 75.7033 24.5124 75.7033 25.14C75.7033 25.778 75.5777 26.3113 75.316 26.7297C75.0647 27.1586 74.7296 27.4828 74.3317 27.692ZM71.4943 31.5409H74.3317C75.1171 31.5409 75.6196 31.6978 75.9547 32.0326C76.2897 32.3672 76.4573 32.8169 76.4573 33.34C76.4573 34.1035 76.1536 34.731 75.5464 35.2017C74.939 35.6724 74.1224 35.9129 73.1172 35.9129C72.2376 35.9129 71.5047 35.7142 70.9707 35.3376C70.4367 34.9612 70.1645 34.3858 70.1645 33.6538C70.1645 33.1935 70.2902 32.7647 70.5415 32.3882C70.7928 32.0116 71.0964 31.7397 71.4943 31.5409Z" fill="url(#paint7_linear_22557_2702)"/>
<path d="M118.973 31.4002C118.767 31.2872 118.611 31.1229 118.487 30.9278C118.373 30.7225 118.311 30.5069 118.311 30.2708C118.311 30.0346 118.373 29.8087 118.487 29.6137C118.601 29.4083 118.767 29.2543 118.973 29.1413C119.181 29.0284 119.409 28.9668 119.667 28.9668C119.926 28.9668 120.154 29.0284 120.362 29.1413C120.568 29.2543 120.724 29.4186 120.848 29.6137C120.962 29.819 121.024 30.0346 121.024 30.2708C121.024 30.5069 120.962 30.7328 120.848 30.9278C120.734 31.1332 120.568 31.2872 120.362 31.4002C120.154 31.5131 119.926 31.5747 119.667 31.5747C119.419 31.5747 119.181 31.5234 118.973 31.4002ZM120.248 31.2564C120.423 31.164 120.548 31.0203 120.652 30.856C120.745 30.6814 120.797 30.4864 120.797 30.2708C120.797 30.0551 120.745 29.8601 120.652 29.6855C120.558 29.511 120.423 29.3775 120.248 29.2851C120.071 29.1926 119.885 29.1413 119.667 29.1413C119.45 29.1413 119.263 29.1926 119.087 29.2851C118.912 29.3775 118.786 29.5212 118.683 29.6855C118.59 29.8601 118.538 30.0551 118.538 30.2708C118.538 30.4864 118.59 30.6814 118.683 30.856C118.777 31.0305 118.912 31.164 119.087 31.2564C119.263 31.3489 119.45 31.4002 119.667 31.4002C119.885 31.4002 120.082 31.3489 120.248 31.2564ZM119.108 30.8971V30.8046L119.129 30.7944H119.191C119.211 30.7944 119.232 30.7841 119.243 30.7739C119.264 30.7533 119.264 30.7431 119.264 30.7225V29.7676C119.264 29.7471 119.253 29.7266 119.243 29.7163C119.222 29.6958 119.211 29.6958 119.191 29.6958H119.129L119.108 29.6855V29.5931L119.129 29.5829H119.667C119.823 29.5829 119.937 29.6137 120.03 29.6855C120.124 29.7574 120.164 29.8498 120.164 29.973C120.164 30.0655 120.134 30.1578 120.061 30.2194C119.989 30.2913 119.905 30.3324 119.802 30.3426L119.926 30.3837L120.164 30.7635C120.185 30.7944 120.206 30.8046 120.237 30.8046H120.299L120.309 30.815V30.9073L120.299 30.9176H119.978L119.958 30.9073L119.626 30.3529H119.543V30.7225C119.543 30.7431 119.554 30.7635 119.564 30.7739C119.585 30.7944 119.595 30.7944 119.615 30.7944H119.678L119.699 30.8046V30.8971L119.678 30.9073H119.129L119.108 30.8971ZM119.636 30.2194C119.72 30.2194 119.792 30.1989 119.833 30.1476C119.874 30.1065 119.905 30.0346 119.905 29.9525C119.905 29.8703 119.885 29.8087 119.844 29.7574C119.802 29.7061 119.739 29.6855 119.667 29.6855H119.626C119.605 29.6855 119.585 29.6958 119.575 29.7061C119.554 29.7265 119.554 29.7369 119.554 29.7574V30.2194H119.636Z" fill="url(#paint8_linear_22557_2702)"/>
</g>
<defs>
<linearGradient id="paint0_linear_22557_2702" x1="12.2699" y1="8" x2="12.2699" y2="34.8743" gradientUnits="userSpaceOnUse">
<stop stop-color="white"/>
<stop offset="1" stop-color="white" stop-opacity="0.6"/>
</linearGradient>
<linearGradient id="paint1_linear_22557_2702" x1="33.0961" y1="17.2852" x2="33.0961" y2="31.9249" gradientUnits="userSpaceOnUse">
<stop stop-color="white"/>
<stop offset="1" stop-color="white" stop-opacity="0.6"/>
</linearGradient>
<linearGradient id="paint2_linear_22557_2702" x1="61.1174" y1="21.1445" x2="61.1174" y2="31.6015" gradientUnits="userSpaceOnUse">
<stop stop-color="white"/>
<stop offset="1" stop-color="white" stop-opacity="0.6"/>
</linearGradient>
<linearGradient id="paint3_linear_22557_2702" x1="98.2245" y1="17.2852" x2="98.2245" y2="31.6112" gradientUnits="userSpaceOnUse">
<stop stop-color="white"/>
<stop offset="1" stop-color="white" stop-opacity="0.6"/>
</linearGradient>
<linearGradient id="paint4_linear_22557_2702" x1="111.22" y1="17.2852" x2="111.22" y2="31.6112" gradientUnits="userSpaceOnUse">
<stop stop-color="white"/>
<stop offset="1" stop-color="white" stop-opacity="0.6"/>
</linearGradient>
<linearGradient id="paint5_linear_22557_2702" x1="48.4352" y1="21.1445" x2="48.4352" y2="31.8106" gradientUnits="userSpaceOnUse">
<stop stop-color="white"/>
<stop offset="1" stop-color="white" stop-opacity="0.6"/>
</linearGradient>
<linearGradient id="paint6_linear_22557_2702" x1="85.28" y1="21.1445" x2="85.28" y2="31.8106" gradientUnits="userSpaceOnUse">
<stop stop-color="white"/>
<stop offset="1" stop-color="white" stop-opacity="0.6"/>
</linearGradient>
<linearGradient id="paint7_linear_22557_2702" x1="73.4327" y1="21.1445" x2="73.4327" y2="37.0391" gradientUnits="userSpaceOnUse">
<stop stop-color="white"/>
<stop offset="1" stop-color="white" stop-opacity="0.6"/>
</linearGradient>
<linearGradient id="paint8_linear_22557_2702" x1="119.669" y1="28.9668" x2="119.669" y2="31.581" gradientUnits="userSpaceOnUse">
<stop stop-color="white"/>
<stop offset="1" stop-color="white" stop-opacity="0.6"/>
</linearGradient>
<clipPath id="clip0_22557_2702">
<rect width="115.022" height="29" fill="white" transform="translate(6 8)"/>
</clipPath>
</defs>
</svg>
