<svg width="129" height="44" viewBox="0 0 129 44" fill="none" xmlns="http://www.w3.org/2000/svg">
<g clip-path="url(#clip0_22557_2761)">
<path d="M0 26.8045H5.50016V21.2489H14.3004V26.8045H19.8006V15.6934H0V26.8045Z" fill="url(#paint0_linear_22557_2761)"/>
<path d="M13.2008 22.3594H6.60059V29.026H13.2008V22.3594Z" fill="url(#paint1_linear_22557_2761)"/>
<path d="M27.5056 26.7983V18.9808C27.4946 18.8759 27.4863 18.7868 27.4808 18.7134C27.4753 18.64 27.4698 18.5692 27.4643 18.5011C27.4588 18.4329 27.4506 18.3595 27.4396 18.2808C27.4286 18.2022 27.4176 18.1052 27.4066 17.9899C27.4396 18.1052 27.4671 18.2022 27.4891 18.2808C27.5111 18.3595 27.5358 18.4355 27.5633 18.5089L27.6458 18.7291C27.6733 18.8025 27.7091 18.8917 27.7531 18.9965L31.2347 26.7983H33.8912L37.3728 18.8392C37.4608 18.64 37.5241 18.4906 37.5626 18.391C37.6011 18.2913 37.6478 18.1576 37.7028 17.9899C37.6698 18.1996 37.6423 18.3831 37.6203 18.5404C37.5983 18.6977 37.5873 18.8602 37.5873 19.028V26.7983H40.3429V15.6934H36.1683L33.1323 22.6143C33.0443 22.8031 32.9728 22.9682 32.9178 23.1098C32.8628 23.2513 32.816 23.3772 32.7775 23.4873C32.739 23.5974 32.706 23.7048 32.6785 23.8098C32.651 23.9146 32.6208 24.0247 32.5878 24.1401C32.5438 23.9827 32.5025 23.8412 32.4639 23.7153C32.4254 23.5895 32.3842 23.4663 32.3402 23.3458C32.2962 23.2251 32.2467 23.0967 32.1917 22.9603C32.1367 22.824 32.0707 22.6667 31.9937 22.4885L28.9576 15.6934H24.75V26.7983H27.5056Z" fill="url(#paint2_linear_22557_2761)"/>
<path fill-rule="evenodd" clip-rule="evenodd" d="M47.2265 27.1278C48.0075 27.1278 48.7445 27.0333 49.4376 26.8446C50.1306 26.6558 50.7356 26.3727 51.2526 25.9952C51.7696 25.6177 52.1795 25.1537 52.482 24.6032C52.7845 24.0526 52.9357 23.4156 52.9357 22.692C52.9357 22.1258 52.8147 21.5884 52.5727 21.0798C52.3307 20.5712 51.9731 20.1255 51.5001 19.7428C51.0271 19.36 50.4414 19.0533 49.7429 18.8226C49.0443 18.5919 48.2385 18.4766 47.3255 18.4766C46.4895 18.4766 45.7167 18.5762 45.0072 18.7754C44.2977 18.9747 43.6817 19.263 43.1591 19.6405C42.6366 20.018 42.2269 20.4742 41.9299 21.009C41.6329 21.5438 41.4844 22.1468 41.4844 22.8179C41.4844 23.4785 41.6246 24.0736 41.9051 24.6032C42.1856 25.1327 42.5761 25.5836 43.0766 25.9559C43.5771 26.3282 44.1795 26.6165 44.8835 26.821C45.5875 27.0255 46.3685 27.1278 47.2265 27.1278ZM45.6177 24.902C46.0082 25.1065 46.55 25.2088 47.243 25.2088C47.804 25.2088 48.2688 25.1327 48.6373 24.9807C49.0058 24.8286 49.3029 24.632 49.5284 24.3908C49.7539 24.1496 49.9106 23.8823 49.9986 23.5886C50.0866 23.295 50.1306 23.0119 50.1306 22.7392C50.1306 22.3827 50.0619 22.055 49.9244 21.7561C49.7869 21.4573 49.5861 21.203 49.322 20.9933C49.058 20.7835 48.7363 20.6236 48.3568 20.5135C47.9773 20.4034 47.551 20.3588 47.078 20.3798C46.583 20.4008 46.1595 20.4847 45.8075 20.6315C45.4555 20.7783 45.1695 20.9644 44.9495 21.1899C44.7295 21.4153 44.5672 21.6722 44.4627 21.9606C44.3582 22.249 44.306 22.5452 44.306 22.8493C44.306 22.9647 44.3307 23.1508 44.3802 23.4078C44.4297 23.6647 44.5507 23.9268 44.7432 24.1942C44.9357 24.4616 45.2272 24.6975 45.6177 24.902Z" fill="url(#paint3_linear_22557_2761)"/>
<path d="M57.0304 26.8603C57.3604 26.8603 57.6904 26.8472 58.0204 26.821C58.3505 26.7947 58.6805 26.7659 59.0105 26.7345V24.8784C58.8675 24.8994 58.741 24.9125 58.631 24.9177C58.521 24.923 58.3724 24.9256 58.1854 24.9256C57.8004 24.9256 57.5281 24.8653 57.3686 24.7447C57.2091 24.6241 57.1294 24.3698 57.1294 23.9818V20.3798H58.994V18.8383H57.1294V16.7148H54.4233V18.8383H53.0703V20.3798H54.4233V24.6425C54.4233 24.7892 54.4288 24.9518 54.4398 25.1301C54.4508 25.3083 54.4893 25.484 54.5553 25.657C54.6213 25.83 54.7203 25.9952 54.8523 26.1525C54.9843 26.3097 55.1713 26.4513 55.4133 26.5772C55.6443 26.6925 55.9001 26.7686 56.1806 26.8052C56.4611 26.842 56.7444 26.8603 57.0304 26.8603Z" fill="url(#paint4_linear_22557_2761)"/>
<path d="M62.7402 22.2211V26.7983H60.0176V15.6934H62.7402V19.8459C62.7952 19.7935 62.8722 19.7227 62.9712 19.6336C63.0702 19.5444 63.1967 19.4527 63.3507 19.3583C63.7687 19.0857 64.2252 18.8969 64.7202 18.7921C65.2152 18.6872 65.7212 18.6348 66.2382 18.6348C66.4912 18.6348 66.7662 18.6505 67.0632 18.6819C67.3602 18.7134 67.66 18.7711 67.9625 18.855C68.2651 18.9389 68.5538 19.0516 68.8288 19.1932C69.1038 19.3347 69.3513 19.5156 69.5713 19.7358C69.7473 19.9141 69.8848 20.0976 69.9838 20.2863C70.0828 20.4751 70.1543 20.6639 70.1983 20.8526C70.2423 21.0414 70.2698 21.2275 70.2808 21.411C70.2918 21.5945 70.2973 21.7806 70.2973 21.9694V26.7983H67.5582V22.4727C67.5582 22.2525 67.5445 22.0218 67.517 21.7806C67.4895 21.5395 67.3822 21.314 67.1952 21.1043L67.0467 20.9627C66.9697 20.8893 66.8542 20.8133 66.7002 20.7346C66.5462 20.656 66.351 20.5852 66.1145 20.5223C65.878 20.4594 65.5892 20.4279 65.2482 20.4279C64.8192 20.4279 64.4424 20.4751 64.1179 20.5695C63.7934 20.6639 63.5157 20.8002 63.2847 20.9784C63.0317 21.1882 62.8777 21.3874 62.8227 21.5762C62.7677 21.7649 62.7402 21.9799 62.7402 22.2211Z" fill="url(#paint5_linear_22557_2761)"/>
<path fill-rule="evenodd" clip-rule="evenodd" d="M76.6437 27.1117C77.8207 27.1117 78.896 26.902 79.8695 26.4825C80.843 26.063 81.6378 25.371 82.2538 24.4062L79.4323 24.1389C79.3663 24.2122 79.2755 24.3119 79.16 24.4377C79.0445 24.5635 78.8823 24.6841 78.6733 24.7995C78.4642 24.9148 78.2057 25.017 77.8977 25.1062C77.5897 25.1953 77.2157 25.2399 76.7757 25.2399C76.3247 25.2399 75.8846 25.1717 75.4556 25.0354C75.0266 24.8991 74.6691 24.6631 74.3831 24.3276C74.2291 24.1598 74.1136 23.971 74.0366 23.7613C73.9596 23.5516 73.9046 23.3838 73.8716 23.258H82.1548C82.1548 23.0587 82.1466 22.8307 82.1301 22.5738C82.1136 22.3168 82.0696 22.0468 81.9981 21.7637C81.9266 21.4806 81.8138 21.1948 81.6598 20.9064C81.5058 20.6181 81.2913 20.3323 81.0163 20.0492C80.6973 19.7241 80.3453 19.462 79.9603 19.2627C79.5753 19.0635 79.1875 18.9088 78.797 18.7987C78.4064 18.6886 78.0269 18.6152 77.6584 18.5785C77.2899 18.5418 76.9627 18.5234 76.6767 18.5234C75.9287 18.5234 75.2191 18.6047 74.5481 18.7672C73.8771 18.9298 73.2831 19.1841 72.766 19.5301C72.249 19.8762 71.8393 20.314 71.5368 20.8435C71.2343 21.3731 71.083 22.0049 71.083 22.7389C71.083 23.3052 71.204 23.882 71.446 24.4691C71.688 25.0564 72.0895 25.565 72.6505 25.9949C73.2116 26.4353 73.8386 26.7315 74.5316 26.8836C75.2246 27.0357 75.9287 27.1117 76.6437 27.1117ZM73.6466 21.8266H78.8443C78.8223 21.6798 78.7645 21.5042 78.671 21.2997C78.5775 21.0952 78.3878 20.9143 78.1018 20.757C77.9038 20.6417 77.648 20.5447 77.3344 20.466C77.0209 20.3874 76.6827 20.348 76.3197 20.348C76.0007 20.348 75.6734 20.3848 75.3379 20.4582C75.0024 20.5316 74.7082 20.6469 74.4551 20.8042C74.2131 20.951 74.0398 21.1109 73.9353 21.2839C73.8308 21.457 73.7346 21.6379 73.6466 21.8266Z" fill="url(#paint6_linear_22557_2761)"/>
<path d="M86.0001 22.9608C86.0001 22.6147 86.0576 22.2923 86.1734 21.9934C86.2884 21.6945 86.5551 21.4403 86.9734 21.2305C87.1384 21.1466 87.3142 21.0811 87.5017 21.0339C87.6884 20.9867 87.8667 20.9526 88.0376 20.9317C88.2084 20.9107 88.3617 20.8976 88.4992 20.8923C88.6367 20.8871 88.7334 20.8845 88.7884 20.8845C88.9317 20.8845 89.0551 20.8871 89.1592 20.8923C89.2642 20.8976 89.3767 20.9055 89.4976 20.9159V18.5723C88.8926 18.5827 88.3892 18.6457 87.9884 18.761C87.5867 18.8764 87.2542 19.0179 86.9901 19.1857C86.7259 19.3535 86.5192 19.5291 86.3709 19.7126C86.2226 19.8962 86.0984 20.0613 86.0001 20.2081V18.8397H83.2607V26.7988H86.0001V22.9608Z" fill="url(#paint7_linear_22557_2761)"/>
<path d="M96.562 26.9864C96.1161 27.0493 95.597 27.0807 95.0028 27.0807C94.0453 27.0807 93.2478 27.0021 92.6103 26.8448C91.972 26.6876 91.452 26.4804 91.0511 26.2235C90.6495 25.9666 90.347 25.6704 90.1436 25.3348C89.9395 24.9992 89.7886 24.6531 89.6895 24.2966L92.6103 24.0921C92.687 24.3543 92.8078 24.5641 92.9728 24.7213C93.1378 24.8786 93.3336 25.0019 93.5586 25.091C93.7845 25.1801 94.0295 25.2404 94.2928 25.2719C94.557 25.3033 94.8211 25.3191 95.0853 25.3191C95.3378 25.3191 95.5828 25.3112 95.8195 25.2955C96.0561 25.2797 96.2895 25.2299 96.5203 25.1461C96.5536 25.1356 96.6028 25.1172 96.6695 25.091C96.7353 25.0648 96.8036 25.0255 96.8753 24.973C96.947 24.9206 97.0078 24.8576 97.057 24.7842C97.1061 24.7109 97.1311 24.6165 97.1311 24.5011C97.1311 24.2285 96.9686 24.045 96.6445 23.9506C96.3203 23.8562 95.8445 23.7671 95.217 23.6832C94.887 23.6412 94.557 23.6098 94.227 23.5888C93.897 23.5679 93.567 23.5364 93.237 23.4945C93.017 23.4735 92.7336 23.4316 92.387 23.3686C92.0411 23.3057 91.7028 23.1956 91.3728 23.0383C91.0428 22.881 90.7561 22.6582 90.5145 22.3698C90.2728 22.0814 90.1511 21.6961 90.1511 21.2137C90.1511 20.7418 90.2728 20.3302 90.5145 19.9789C90.7561 19.6276 91.0945 19.3393 91.5295 19.1138C91.9636 18.8884 92.4778 18.7206 93.072 18.6105C93.6661 18.5004 94.3153 18.4453 95.0195 18.4453C95.2278 18.4453 95.4836 18.4532 95.7861 18.4689C96.0886 18.4846 96.4103 18.524 96.752 18.5869C97.0928 18.6498 97.4361 18.7415 97.7828 18.8621C98.1295 18.9827 98.457 19.1479 98.7645 19.3576C99.1828 19.6512 99.4661 19.9475 99.6145 20.2463C99.7628 20.5452 99.8645 20.789 99.9195 20.9777L97.0986 21.1508C96.977 20.8676 96.7378 20.6343 96.3803 20.4508C96.0228 20.2673 95.5145 20.1755 94.8545 20.1755C94.2928 20.1755 93.837 20.2437 93.4845 20.38C93.1328 20.5163 92.957 20.7103 92.957 20.962C92.957 21.1298 93.0278 21.2556 93.1711 21.3395C93.3145 21.4234 93.4795 21.4863 93.6661 21.5283C93.787 21.5597 93.9078 21.5859 94.0295 21.6069C94.1503 21.6279 94.3153 21.6515 94.5245 21.6777C94.7328 21.7039 95.0136 21.7328 95.3653 21.7642C95.7178 21.7957 96.1903 21.8376 96.7845 21.89C97.1036 21.9215 97.4286 21.9608 97.7586 22.008C98.0886 22.0552 98.3961 22.147 98.682 22.2833C99.0895 22.4615 99.4028 22.7211 99.6228 23.0619C99.8428 23.4027 99.9528 23.7881 99.9528 24.218C99.9528 24.5536 99.8811 24.876 99.7386 25.1854C99.5953 25.4947 99.397 25.7595 99.1445 25.9797C98.9903 26.116 98.7978 26.2497 98.567 26.3808C98.3361 26.5119 98.0553 26.6298 97.7253 26.7347C97.3953 26.8396 97.0078 26.9235 96.562 26.9864Z" fill="url(#paint8_linear_22557_2761)"/>
<path d="M103.66 26.7983V22.2211C103.66 21.9799 103.687 21.7649 103.742 21.5762C103.797 21.3874 103.951 21.1882 104.204 20.9784C104.435 20.8002 104.713 20.6639 105.037 20.5695C105.362 20.4751 105.738 20.4279 106.167 20.4279C106.508 20.4279 106.797 20.4594 107.034 20.5223C107.271 20.5852 107.466 20.656 107.62 20.7346C107.774 20.8133 107.889 20.8893 107.967 20.9627L108.115 21.1043C108.302 21.314 108.409 21.5395 108.437 21.7806C108.464 22.0218 108.477 22.2525 108.477 22.4727V26.7983H111.217V21.9694C111.217 21.7806 111.212 21.5945 111.2 21.411C111.189 21.2275 111.162 21.0414 111.117 20.8526C111.074 20.6639 111.002 20.4751 110.903 20.2863C110.804 20.0976 110.667 19.9141 110.491 19.7358C110.271 19.5156 110.023 19.3347 109.748 19.1932C109.473 19.0516 109.184 18.9389 108.882 18.855C108.579 18.7711 108.28 18.7134 107.982 18.6819C107.686 18.6505 107.411 18.6348 107.157 18.6348C106.641 18.6348 106.135 18.6872 105.64 18.7921C105.145 18.8969 104.688 19.0857 104.27 19.3583C104.116 19.4527 103.99 19.5444 103.891 19.6336C103.792 19.7227 103.715 19.7935 103.66 19.8459V15.6934H100.937V26.7983H103.66Z" fill="url(#paint9_linear_22557_2761)"/>
<path d="M115.573 15.6934V17.4551H112.867V15.6934H115.573Z" fill="url(#paint10_linear_22557_2761)"/>
<path d="M115.573 18.8398H112.867V26.7989H115.573V18.8398Z" fill="url(#paint11_linear_22557_2761)"/>
<path fill-rule="evenodd" clip-rule="evenodd" d="M126.407 25.9803C125.583 26.6811 124.394 26.9946 123.163 26.9946C122.262 26.9946 121.422 26.764 120.713 26.3657C120.433 26.2083 120.174 26.0249 119.939 25.8192V29.8599H117.208V18.8391H119.939V19.7699C120.768 18.9967 121.907 18.6504 123.163 18.6504C124.372 18.6504 125.587 19.0458 126.407 19.7699C127.306 20.5635 127.752 21.7392 127.752 22.9169C127.752 24.0753 127.281 25.2379 126.407 25.9803ZM122.365 25.3678C122.004 25.3678 121.66 25.3177 121.333 25.2177C121.006 25.1177 120.718 24.9648 120.467 24.7592C120.216 24.5536 120.016 24.2924 119.864 23.9756C119.712 23.6588 119.636 23.2836 119.636 22.8501C119.636 22.5389 119.689 22.2332 119.794 21.9331C119.899 21.633 120.056 21.3634 120.266 21.1245C120.476 20.8855 120.745 20.6937 121.071 20.5492C121.397 20.4047 121.782 20.3325 122.226 20.3325C122.82 20.3325 123.295 20.4214 123.651 20.5993C124.006 20.7771 124.283 20.9966 124.481 21.2579C124.68 21.5191 124.811 21.7942 124.875 22.0832C124.939 22.3722 124.971 22.6223 124.971 22.8335C124.971 23.1669 124.919 23.4865 124.814 23.7922C124.709 24.0978 124.551 24.3674 124.341 24.6008C124.131 24.8342 123.863 25.0204 123.537 25.1594C123.211 25.2983 122.82 25.3678 122.365 25.3678Z" fill="url(#paint12_linear_22557_2761)"/>
</g>
<defs>
<linearGradient id="paint0_linear_22557_2761" x1="9.91348" y1="15.6934" x2="9.91348" y2="26.8314" gradientUnits="userSpaceOnUse">
<stop stop-color="white"/>
<stop offset="1" stop-color="white" stop-opacity="0.6"/>
</linearGradient>
<linearGradient id="paint1_linear_22557_2761" x1="9.90509" y1="22.3594" x2="9.90509" y2="29.0422" gradientUnits="userSpaceOnUse">
<stop stop-color="white"/>
<stop offset="1" stop-color="white" stop-opacity="0.6"/>
</linearGradient>
<linearGradient id="paint2_linear_22557_2761" x1="32.5568" y1="15.6934" x2="32.5568" y2="26.8253" gradientUnits="userSpaceOnUse">
<stop stop-color="white"/>
<stop offset="1" stop-color="white" stop-opacity="0.6"/>
</linearGradient>
<linearGradient id="paint3_linear_22557_2761" x1="47.2177" y1="18.4766" x2="47.2177" y2="27.1487" gradientUnits="userSpaceOnUse">
<stop stop-color="white"/>
<stop offset="1" stop-color="white" stop-opacity="0.6"/>
</linearGradient>
<linearGradient id="paint4_linear_22557_2761" x1="56.0444" y1="16.7148" x2="56.0444" y2="26.8849" gradientUnits="userSpaceOnUse">
<stop stop-color="white"/>
<stop offset="1" stop-color="white" stop-opacity="0.6"/>
</linearGradient>
<linearGradient id="paint5_linear_22557_2761" x1="65.1643" y1="15.6934" x2="65.1643" y2="26.8253" gradientUnits="userSpaceOnUse">
<stop stop-color="white"/>
<stop offset="1" stop-color="white" stop-opacity="0.6"/>
</linearGradient>
<linearGradient id="paint6_linear_22557_2761" x1="76.6759" y1="18.5234" x2="76.6759" y2="27.1325" gradientUnits="userSpaceOnUse">
<stop stop-color="white"/>
<stop offset="1" stop-color="white" stop-opacity="0.6"/>
</linearGradient>
<linearGradient id="paint7_linear_22557_2761" x1="86.3833" y1="18.5723" x2="86.3833" y2="26.8187" gradientUnits="userSpaceOnUse">
<stop stop-color="white"/>
<stop offset="1" stop-color="white" stop-opacity="0.6"/>
</linearGradient>
<linearGradient id="paint8_linear_22557_2761" x1="94.828" y1="18.4453" x2="94.828" y2="27.1017" gradientUnits="userSpaceOnUse">
<stop stop-color="white"/>
<stop offset="1" stop-color="white" stop-opacity="0.6"/>
</linearGradient>
<linearGradient id="paint9_linear_22557_2761" x1="106.083" y1="15.6934" x2="106.083" y2="26.8253" gradientUnits="userSpaceOnUse">
<stop stop-color="white"/>
<stop offset="1" stop-color="white" stop-opacity="0.6"/>
</linearGradient>
<linearGradient id="paint10_linear_22557_2761" x1="114.222" y1="15.6934" x2="114.222" y2="17.4593" gradientUnits="userSpaceOnUse">
<stop stop-color="white"/>
<stop offset="1" stop-color="white" stop-opacity="0.6"/>
</linearGradient>
<linearGradient id="paint11_linear_22557_2761" x1="114.222" y1="18.8398" x2="114.222" y2="26.8182" gradientUnits="userSpaceOnUse">
<stop stop-color="white"/>
<stop offset="1" stop-color="white" stop-opacity="0.6"/>
</linearGradient>
<linearGradient id="paint12_linear_22557_2761" x1="122.487" y1="18.6504" x2="122.487" y2="29.8871" gradientUnits="userSpaceOnUse">
<stop stop-color="white"/>
<stop offset="1" stop-color="white" stop-opacity="0.6"/>
</linearGradient>
<clipPath id="clip0_22557_2761">
<rect width="128.333" height="15" fill="white" transform="translate(0 15)"/>
</clipPath>
</defs>
</svg>
