<svg width="128" height="44" viewBox="0 0 128 44" fill="none" xmlns="http://www.w3.org/2000/svg">
<path d="M76.2911 18.6518C75.8438 18.322 75.1333 18.1108 74.4492 18.124C73.6993 18.1372 72.9888 18.3747 72.4889 18.7706V14.0469H70.1602V29.4583H72.4889V21.4095C72.4889 20.8553 72.9625 20.2352 73.8308 20.1956C74.2124 20.1824 74.7518 20.3539 75.0281 20.763C75.3175 21.1852 75.3044 21.7658 75.3044 22.3859L75.2912 29.4583H77.6199V22.3068C77.6199 20.1956 77.3568 19.4435 76.2911 18.6518Z" fill="url(#paint0_linear_22557_2726)"/>
<path d="M57.3464 23.9439C57.3464 25.4481 57.2937 25.8703 57.2806 26.0022C57.2016 26.8467 56.8464 27.7307 55.8728 27.7307C54.9124 27.7307 54.5177 26.7807 54.4782 25.9627C54.4651 25.9627 54.4125 25.4481 54.4125 23.9439C54.4125 22.4397 54.4651 21.8063 54.4782 21.8063C54.4782 20.9487 54.9256 20.1042 55.8728 20.1042C56.8333 20.1042 57.2674 20.9487 57.2806 21.7931C57.2806 21.8063 57.3464 22.4397 57.3464 23.9439ZM59.5961 22.123C59.2672 18.8375 57.399 18.125 55.8728 18.125C53.702 18.125 52.3864 19.5104 52.1495 22.123C52.1232 22.3341 52.0969 22.7168 52.0838 23.9439C52.0706 24.8411 52.1364 25.58 52.1495 25.7647C52.2943 28.2057 53.6889 29.6968 55.8728 29.6968C58.0568 29.6968 59.4514 28.1794 59.6093 25.7647C59.6224 25.5932 59.6619 24.8411 59.6619 23.9439C59.6619 23.5348 59.6356 22.4397 59.5961 22.123Z" fill="url(#paint1_linear_22557_2726)"/>
<path d="M81.5148 22.5584C81.528 22.0438 81.528 21.9383 81.5411 21.7931C81.6069 20.8695 82.0148 20.1042 82.962 20.1042C84.0803 20.091 84.3435 21.1862 84.3829 21.7931C84.4092 22.123 84.4224 22.3341 84.4224 22.5584H81.5148ZM84.3961 25.646C84.3961 25.646 84.3961 25.8175 84.3698 26.0286C84.304 26.5696 84.0935 27.7307 82.962 27.7307C81.9884 27.7307 81.6201 26.8467 81.5543 25.9759C81.5411 25.7252 81.5016 25.4481 81.5016 24.498H86.6985C86.6985 24.498 86.6985 23.7196 86.6853 23.2577C86.6853 23.073 86.6722 22.7695 86.6327 22.123C86.5538 21.1334 86.1854 20.0514 85.6196 19.3653C84.975 18.5472 84.054 18.125 82.962 18.125C80.857 18.125 79.5414 19.4973 79.2914 22.123C79.2651 22.3605 79.2256 22.6904 79.2256 23.9439C79.2256 24.8411 79.2782 25.5932 79.2914 25.7647C79.4229 28.1662 80.8438 29.6968 82.962 29.6968C85.0671 29.6968 86.4748 28.2057 86.6327 25.646H84.3961Z" fill="url(#paint2_linear_22557_2726)"/>
<path d="M44.7159 6.18372H82.5803L97.0525 23.1785L82.5803 39.9358H44.7159L30.178 23.1257L44.7159 6.18372ZM83.4881 4.29688H43.7949L27.6914 23.0597L43.8081 41.7038H83.4881L99.539 23.1257L83.4881 4.29688Z" fill="url(#paint3_linear_22557_2726)"/>
<path d="M45.1881 16.1452H46.2801C47.4774 16.1452 48.1352 16.7786 48.1615 17.9133C48.1615 18.0057 48.1747 18.098 48.1747 18.2696C48.1747 18.4807 48.1747 18.5466 48.1615 18.639C48.0957 19.3119 47.7931 20.4863 46.3985 20.4863H45.1881V16.1452ZM50.7007 28.4955L50.4639 24.7218C50.3586 23.0329 49.9245 22.0301 49.043 21.5155C49.6745 21.1328 50.4902 20.196 50.477 18.23C50.477 15.248 48.622 14.1924 46.438 14.166H42.8857V29.4587H45.175L45.1881 22.4655H46.4643C47.2011 22.4655 48.0299 23.112 48.1615 24.9329L48.3983 28.5087C48.4246 29.0232 48.5167 29.4587 48.5167 29.4587H50.8191C50.8191 29.4587 50.7139 29.0364 50.7007 28.4955Z" fill="url(#paint4_linear_22557_2726)"/>
<path d="M66.3977 25.5404C66.3977 25.712 66.3846 25.8571 66.3714 25.9627C66.3056 26.8203 66.0162 27.7307 64.9637 27.7307C64.0032 27.7307 63.6217 26.7411 63.5428 26.0154C63.5033 25.58 63.5164 25.2369 63.5033 23.9439C63.4901 22.4397 63.5428 22.0438 63.5691 21.8063C63.648 20.8431 64.0164 20.1042 64.9637 20.1042C65.9504 20.091 66.3582 20.9487 66.3714 21.7931C66.3714 21.8063 66.3977 22.0042 66.4109 22.4529H68.7132C68.7132 22.2945 68.7001 22.1626 68.7001 22.0966C68.437 18.9035 66.4898 18.125 64.9637 18.125C62.7928 18.125 61.4772 19.5104 61.2404 22.123C61.2141 22.3341 61.1877 22.7168 61.1746 23.9439C61.1614 24.8411 61.2272 25.58 61.2404 25.7647C61.3851 28.2057 62.7797 29.6968 64.9637 29.6968C67.2266 29.71 68.4764 28.3245 68.7001 25.7647C68.7001 25.6724 68.7132 25.6064 68.7132 25.5404H66.3977Z" fill="url(#paint5_linear_22557_2726)"/>
<defs>
<linearGradient id="paint0_linear_22557_2726" x1="73.895" y1="14.0469" x2="73.895" y2="29.4956" gradientUnits="userSpaceOnUse">
<stop stop-color="white"/>
<stop offset="1" stop-color="white" stop-opacity="0.6"/>
</linearGradient>
<linearGradient id="paint1_linear_22557_2726" x1="55.877" y1="18.125" x2="55.877" y2="29.7248" gradientUnits="userSpaceOnUse">
<stop stop-color="white"/>
<stop offset="1" stop-color="white" stop-opacity="0.6"/>
</linearGradient>
<linearGradient id="paint2_linear_22557_2726" x1="82.967" y1="18.125" x2="82.967" y2="29.7248" gradientUnits="userSpaceOnUse">
<stop stop-color="white"/>
<stop offset="1" stop-color="white" stop-opacity="0.6"/>
</linearGradient>
<linearGradient id="paint3_linear_22557_2726" x1="63.663" y1="4.29688" x2="63.663" y2="41.7945" gradientUnits="userSpaceOnUse">
<stop stop-color="white"/>
<stop offset="1" stop-color="white" stop-opacity="0.6"/>
</linearGradient>
<linearGradient id="paint4_linear_22557_2726" x1="46.8577" y1="14.166" x2="46.8577" y2="29.4957" gradientUnits="userSpaceOnUse">
<stop stop-color="white"/>
<stop offset="1" stop-color="white" stop-opacity="0.6"/>
</linearGradient>
<linearGradient id="paint5_linear_22557_2726" x1="64.9481" y1="18.125" x2="64.9481" y2="29.7249" gradientUnits="userSpaceOnUse">
<stop stop-color="white"/>
<stop offset="1" stop-color="white" stop-opacity="0.6"/>
</linearGradient>
</defs>
</svg>
