<svg width="128" height="44" viewBox="0 0 128 44" fill="none" xmlns="http://www.w3.org/2000/svg">
<path d="M76.295 18.6518C75.8477 18.322 75.1372 18.1108 74.4531 18.124C73.7032 18.1372 72.9927 18.3747 72.4928 18.7706V14.0469H70.1641V29.4583H72.4928V21.4095C72.4928 20.8553 72.9664 20.2352 73.8347 20.1956C74.2163 20.1824 74.7557 20.3539 75.032 20.763C75.3214 21.1852 75.3083 21.7658 75.3083 22.3859L75.2951 29.4583H77.6238V22.3068C77.6238 20.1956 77.3607 19.4435 76.295 18.6518Z" fill="url(#paint0_linear_27417_53750)"/>
<path d="M57.3503 23.9439C57.3503 25.4481 57.2976 25.8703 57.2845 26.0022C57.2055 26.8467 56.8503 27.7307 55.8767 27.7307C54.9163 27.7307 54.5216 26.7807 54.4822 25.9627C54.469 25.9627 54.4164 25.4481 54.4164 23.9439C54.4164 22.4397 54.469 21.8063 54.4822 21.8063C54.4822 20.9487 54.9295 20.1042 55.8767 20.1042C56.8372 20.1042 57.2713 20.9487 57.2845 21.7931C57.2845 21.8063 57.3503 22.4397 57.3503 23.9439ZM59.6 22.123C59.2711 18.8375 57.4029 18.125 55.8767 18.125C53.7059 18.125 52.3903 19.5104 52.1534 22.123C52.1271 22.3341 52.1008 22.7168 52.0877 23.9439C52.0745 24.8411 52.1403 25.58 52.1534 25.7647C52.2982 28.2057 53.6928 29.6968 55.8767 29.6968C58.0607 29.6968 59.4553 28.1794 59.6132 25.7647C59.6263 25.5932 59.6658 24.8411 59.6658 23.9439C59.6658 23.5348 59.6395 22.4397 59.6 22.123Z" fill="url(#paint1_linear_27417_53750)"/>
<path d="M81.5197 22.5584C81.5329 22.0438 81.5329 21.9383 81.546 21.7931C81.6118 20.8695 82.0197 20.1042 82.9669 20.1042C84.0852 20.091 84.3484 21.1862 84.3878 21.7931C84.4141 22.123 84.4273 22.3341 84.4273 22.5584H81.5197ZM84.401 25.646C84.401 25.646 84.401 25.8175 84.3746 26.0286C84.3089 26.5696 84.0984 27.7307 82.9669 27.7307C81.9933 27.7307 81.625 26.8467 81.5592 25.9759C81.546 25.7252 81.5065 25.4481 81.5065 24.498H86.7034C86.7034 24.498 86.7034 23.7196 86.6902 23.2577C86.6902 23.073 86.6771 22.7695 86.6376 22.123C86.5586 21.1334 86.1902 20.0514 85.6245 19.3653C84.9798 18.5472 84.0589 18.125 82.9669 18.125C80.8619 18.125 79.5462 19.4973 79.2963 22.123C79.2699 22.3605 79.2305 22.6904 79.2305 23.9439C79.2305 24.8411 79.2831 25.5932 79.2963 25.7647C79.4278 28.1662 80.8487 29.6968 82.9669 29.6968C85.072 29.6968 86.4797 28.2057 86.6376 25.646H84.401Z" fill="url(#paint2_linear_27417_53750)"/>
<path d="M44.7198 6.18372H82.5842L97.0564 23.1785L82.5842 39.9358H44.7198L30.1819 23.1257L44.7198 6.18372ZM83.492 4.29688H43.7989L27.6953 23.0597L43.812 41.7038H83.492L99.5429 23.1257L83.492 4.29688Z" fill="url(#paint3_linear_27417_53750)"/>
<path d="M45.193 16.1433H46.285C47.4822 16.1433 48.1401 16.7766 48.1664 17.9114C48.1664 18.0037 48.1795 18.0961 48.1795 18.2676C48.1795 18.4787 48.1795 18.5447 48.1664 18.6371C48.1006 19.31 47.798 20.4843 46.4034 20.4843H45.193V16.1433ZM50.7056 28.4935L50.4688 24.7198C50.3635 23.0309 49.9293 22.0281 49.0479 21.5135C49.6794 21.1309 50.4951 20.194 50.4819 18.228C50.4819 15.246 48.6269 14.1904 46.4429 14.1641H42.8906V29.4567H45.1798L45.193 22.4635H46.4692C47.206 22.4635 48.0348 23.1101 48.1664 24.9309L48.4032 28.5067C48.4295 29.0213 48.5216 29.4567 48.5216 29.4567H50.824C50.824 29.4567 50.7187 29.0345 50.7056 28.4935Z" fill="url(#paint4_linear_27417_53750)"/>
<path d="M66.4006 25.5404C66.4006 25.712 66.3875 25.8571 66.3743 25.9627C66.3085 26.8203 66.0191 27.7307 64.9666 27.7307C64.0062 27.7307 63.6246 26.7411 63.5457 26.0154C63.5062 25.58 63.5194 25.2369 63.5062 23.9439C63.493 22.4397 63.5457 22.0438 63.572 21.8063C63.6509 20.8431 64.0193 20.1042 64.9666 20.1042C65.9533 20.091 66.3612 20.9487 66.3743 21.7931C66.3743 21.8063 66.4006 22.0042 66.4138 22.4529H68.7162C68.7162 22.2945 68.703 22.1626 68.703 22.0966C68.4399 18.9035 66.4927 18.125 64.9666 18.125C62.7958 18.125 61.4801 19.5104 61.2433 22.123C61.217 22.3341 61.1907 22.7168 61.1775 23.9439C61.1644 24.8411 61.2301 25.58 61.2433 25.7647C61.388 28.2057 62.7826 29.6968 64.9666 29.6968C67.2295 29.71 68.4794 28.3245 68.703 25.7647C68.703 25.6724 68.7162 25.6064 68.7162 25.5404H66.4006Z" fill="url(#paint5_linear_27417_53750)"/>
<defs>
<linearGradient id="paint0_linear_27417_53750" x1="73.8989" y1="14.0469" x2="73.8989" y2="29.4956" gradientUnits="userSpaceOnUse">
<stop stop-color="white"/>
<stop offset="1" stop-color="white" stop-opacity="0.6"/>
</linearGradient>
<linearGradient id="paint1_linear_27417_53750" x1="55.8809" y1="18.125" x2="55.8809" y2="29.7248" gradientUnits="userSpaceOnUse">
<stop stop-color="white"/>
<stop offset="1" stop-color="white" stop-opacity="0.6"/>
</linearGradient>
<linearGradient id="paint2_linear_27417_53750" x1="82.9719" y1="18.125" x2="82.9719" y2="29.7248" gradientUnits="userSpaceOnUse">
<stop stop-color="white"/>
<stop offset="1" stop-color="white" stop-opacity="0.6"/>
</linearGradient>
<linearGradient id="paint3_linear_27417_53750" x1="63.667" y1="4.29688" x2="63.667" y2="41.7945" gradientUnits="userSpaceOnUse">
<stop stop-color="white"/>
<stop offset="1" stop-color="white" stop-opacity="0.6"/>
</linearGradient>
<linearGradient id="paint4_linear_27417_53750" x1="46.8626" y1="14.1641" x2="46.8626" y2="29.4938" gradientUnits="userSpaceOnUse">
<stop stop-color="white"/>
<stop offset="1" stop-color="white" stop-opacity="0.6"/>
</linearGradient>
<linearGradient id="paint5_linear_27417_53750" x1="64.951" y1="18.125" x2="64.951" y2="29.7249" gradientUnits="userSpaceOnUse">
<stop stop-color="white"/>
<stop offset="1" stop-color="white" stop-opacity="0.6"/>
</linearGradient>
</defs>
</svg>
