<svg width="128" height="44" viewBox="0 0 128 44" fill="none" xmlns="http://www.w3.org/2000/svg">
<g clip-path="url(#clip0_22557_2818)">
<path fill-rule="evenodd" clip-rule="evenodd" d="M59.9435 14.8818C60.1657 14.8795 60.3879 14.8941 60.6079 14.9257C60.7948 14.9549 60.9671 14.9891 61.1248 15.0283V17.749H60.1828C59.6263 17.7465 59.0728 17.8303 58.5421 17.9976C58.0432 18.1509 57.581 18.4048 57.1842 18.7435C56.7914 19.0862 56.4784 19.5107 56.2673 19.987C56.0311 20.5364 55.9159 21.13 55.9295 21.7277V29.3966H52.8301V15.0297H55.6931V16.9632C56.1806 16.3003 56.8244 15.7678 57.5673 15.4128C58.3092 15.0592 59.1215 14.8777 59.9435 14.8818ZM76.0353 23.3664C76.0493 24.2677 75.8838 25.1629 75.5484 25.9999C75.2437 26.7496 74.7918 27.4309 74.2194 28.0037C73.6488 28.5657 72.9646 28.9995 72.2125 29.2761C70.5961 29.8612 68.8252 29.8612 67.2088 29.2761C66.4592 28.9947 65.7759 28.5615 65.2019 28.0037C64.6219 27.4342 64.1647 26.7523 63.8584 25.9999C63.523 25.1629 63.3575 24.2677 63.3715 23.3664V15.0297H66.471V23.6024C66.4479 24.0466 66.5203 24.4906 66.6833 24.9045C66.8462 25.3184 67.096 25.6927 67.4159 26.0023C68.0387 26.5843 68.8654 26.899 69.7181 26.8787C70.5398 26.9036 71.3377 26.6016 71.9363 26.0392C72.535 25.4767 72.8853 24.6998 72.9103 23.8795C72.9132 23.787 72.9119 23.6945 72.9064 23.602V15.0259H76.0353V23.3664ZM86.2588 14.7084C87.0356 14.6961 87.807 14.8403 88.5268 15.1323C89.1727 15.3992 89.7559 15.7976 90.2389 16.3022C90.7226 16.8185 91.0901 17.4323 91.3164 18.1022C91.5694 18.8467 91.6943 19.6287 91.6856 20.4148V29.3951H88.5581V20.8224C88.5982 19.9399 88.2971 19.0757 87.7171 18.4086C87.4252 18.0989 87.0694 17.8562 86.6745 17.6972C86.2795 17.5381 85.8546 17.4666 85.4292 17.4874C84.5878 17.4516 83.7665 17.7511 83.1462 18.3199C82.5258 18.8886 82.1572 19.6802 82.1213 20.5203C82.1171 20.6206 82.1171 20.7208 82.1213 20.821V29.3971H79.0219V15.0297H81.8882V16.4925C82.4081 15.9209 83.0481 15.4713 83.7625 15.1757C84.5539 14.8535 85.4023 14.6943 86.2568 14.7079L86.2588 14.7084ZM101.914 14.7084C102.691 14.6961 103.462 14.8403 104.182 15.1323C104.828 15.3992 105.411 15.7976 105.895 16.3022C106.378 16.8187 106.745 17.4324 106.972 18.1022C107.225 18.8467 107.35 19.6287 107.341 20.4148V29.3951H104.212V20.8224C104.252 19.9399 103.951 19.0756 103.371 18.4086C103.079 18.099 102.723 17.8563 102.328 17.6973C101.933 17.5382 101.509 17.4666 101.083 17.4874C100.667 17.4698 100.25 17.5343 99.8586 17.6773C99.4667 17.8203 99.107 18.039 98.7998 18.3209C98.4927 18.6028 98.2442 18.9423 98.0685 19.3201C97.8928 19.6979 97.7934 20.1066 97.776 20.5228C97.7718 20.6226 97.7718 20.7225 97.776 20.8224V29.3985H94.6765V15.0297H97.5395V16.4925C98.0594 15.9209 98.6994 15.4713 99.4138 15.1757C100.206 14.8531 101.055 14.6939 101.911 14.7079L101.914 14.7084Z" fill="url(#paint0_linear_22557_2818)"/>
<path d="M46.3387 9H22.3011C22.1257 9 21.9521 9.03448 21.7901 9.10148C21.6281 9.16848 21.4809 9.26668 21.3569 9.39047C21.2329 9.51426 21.1346 9.66123 21.0675 9.82297C21.0004 9.98472 20.9658 10.1581 20.9658 10.3331V33.6664C20.9658 33.8414 21.0004 34.0148 21.0675 34.1765C21.1346 34.3383 21.2329 34.4853 21.3569 34.6091C21.4809 34.7328 21.6281 34.831 21.7901 34.898C21.9521 34.965 22.1257 34.9995 22.3011 34.9995H46.3387C46.6928 34.9995 47.0324 34.8591 47.2828 34.6091C47.5332 34.359 47.6739 34.0199 47.6739 33.6664V10.3331C47.6739 9.97958 47.5332 9.64048 47.2828 9.39047C47.0324 9.14046 46.6928 9 46.3387 9ZM33.6523 29.0001H27.6425V20.3334C27.6425 19.5455 27.7979 18.7652 28.1 18.0373C28.402 17.3093 28.8447 16.6479 29.4027 16.0907C29.9608 15.5336 30.6233 15.0916 31.3525 14.7901C32.0816 14.4886 32.8631 14.3335 33.6523 14.3336V29.0001ZM40.9958 20.3334H34.3196C34.3196 18.7422 34.9528 17.2161 36.0797 16.0909C37.2067 14.9657 38.7352 14.3336 40.3289 14.3336H40.9958V20.3334Z" fill="url(#paint1_linear_22557_2818)"/>
</g>
<defs>
<linearGradient id="paint0_linear_22557_2818" x1="80.1219" y1="14.707" x2="80.1219" y2="29.7514" gradientUnits="userSpaceOnUse">
<stop stop-color="white"/>
<stop offset="1" stop-color="white" stop-opacity="0.6"/>
</linearGradient>
<linearGradient id="paint1_linear_22557_2818" x1="34.3377" y1="9" x2="34.3377" y2="35.0625" gradientUnits="userSpaceOnUse">
<stop stop-color="white"/>
<stop offset="1" stop-color="white" stop-opacity="0.6"/>
</linearGradient>
<clipPath id="clip0_22557_2818">
<rect width="86.3778" height="26" fill="white" transform="translate(21 9)"/>
</clipPath>
</defs>
</svg>
