<svg width="128" height="44" viewBox="0 0 128 44" fill="none" xmlns="http://www.w3.org/2000/svg">
<path fill-rule="evenodd" clip-rule="evenodd" d="M35 22.5C35 28.299 30.299 33 24.5 33C18.701 33 14 28.299 14 22.5C14 16.701 18.701 12 24.5 12C30.299 12 35 16.701 35 22.5ZM18.5189 15.6543H30.348C31.0126 15.9201 31.4778 16.5182 31.4113 17.2492C31.4113 17.5815 31.3448 17.8473 31.2119 18.1132H17.3227C16.4588 18.1132 15.7942 18.6448 15.4619 19.3758C15.4951 19.2761 15.5118 19.1931 15.5284 19.11L15.5284 19.11C15.545 19.0269 15.5616 18.9439 15.5948 18.8442C15.6112 18.7951 15.6275 18.745 15.6441 18.6942L15.6442 18.6941C15.7625 18.3319 15.8934 17.9312 16.1265 17.5815C16.791 16.5182 17.655 15.7208 18.3195 15.6543H18.5189ZM21.5763 31.1398C21.5763 31.1398 16.5256 22.3676 15.6617 20.9056C15.5953 20.1746 15.9275 19.4436 16.5256 19.1113C16.7915 18.9119 17.0573 18.8455 17.3896 18.8455C18.3199 20.3739 24.3674 30.8739 24.3674 30.8739C24.7661 31.605 25.5636 31.9372 26.2946 31.8708C26.1949 31.904 26.1119 31.9372 26.0288 31.9705L26.0287 31.9705C25.9457 32.0037 25.8626 32.0369 25.763 32.0701C25.3642 32.2031 24.8991 32.2695 24.4339 32.2695C23.2377 32.2695 22.1079 31.8708 21.7092 31.3391L21.5763 31.1398ZM27.5576 30.9404C28.4215 29.4783 33.4722 20.7062 33.4722 20.7062L33.6051 20.5068C33.8709 19.8423 33.6715 18.7125 33.007 17.6492C32.7411 17.2505 32.4753 16.8518 32.2095 16.5859L32.2095 16.5859C32.0766 16.453 31.9437 16.3201 31.8108 16.2537C32.276 16.8518 32.3424 17.7157 31.9437 18.4467C31.9437 18.4467 25.8962 28.9467 24.9658 30.4752C25.0987 30.741 25.3646 30.9404 25.5639 31.0733C26.2285 31.472 27.0259 31.4056 27.5576 30.9404Z" fill="url(#paint0_linear_22557_2823)"/>
<path d="M53.2087 16.3191C53.7403 15.8539 54.272 15.5216 54.8701 15.3223H36.5947V18.3128H41.9112V32.0026H45.4333V18.3128H51.4808C51.946 17.5153 52.5441 16.9172 53.2087 16.3191Z" fill="url(#paint1_linear_22557_2823)"/>
<path d="M65.8351 29.0121H60.1864C56.7971 29.0121 55.5345 28.0153 55.2686 25.2242H64.6389V22.2337H55.2686C55.4016 20.5723 55.468 20.24 55.9997 19.509C56.7307 18.5786 57.5946 18.3128 59.987 18.3128H64.5725V15.3223H58.5914C56.3319 15.3223 55.2022 15.6545 54.006 16.6514C52.0788 18.2463 51.2148 20.5723 51.2148 23.6292C51.2148 26.2875 52.0123 28.6134 53.4079 30.0754C54.737 31.471 56.3984 31.9362 59.987 31.9362H69.6895C68.0282 31.4045 66.699 30.4077 65.8351 29.0121Z" fill="url(#paint2_linear_22557_2823)"/>
<path d="M74.2093 17.9805C71.0859 17.9805 69.8232 19.6419 69.8232 23.5628C69.8232 27.4837 71.1523 29.2116 74.2093 29.2116C77.0669 29.2116 78.4625 27.4173 78.4625 23.5628C78.396 19.7748 77.0669 17.9805 74.2093 17.9805ZM74.3422 32.0692C68.8264 32.0692 65.9023 29.1451 65.9023 23.7622C65.9023 17.9805 68.5606 15.2559 74.1429 15.2559C79.7251 15.2559 82.3169 18.047 82.3169 24.0945C82.3169 29.278 79.5258 32.0692 74.3422 32.0692Z" fill="url(#paint3_linear_22557_2823)"/>
<path d="M97.2692 29.0121H91.7534C88.4306 29.0121 87.2344 27.4837 87.2344 23.4299C87.2344 19.7083 88.4306 18.3128 91.6204 18.3128H96.804V15.3223H91.1553C89.5603 15.3223 87.8989 15.5881 86.9685 16.0533C84.6426 17.183 83.3135 19.9077 83.3135 23.6292C83.3135 26.6197 84.0445 28.9457 85.5065 30.2748C86.7692 31.5375 88.1647 31.9362 91.0223 31.9362H101.124C99.4622 31.4045 98.1331 30.4077 97.2692 29.0121Z" fill="url(#paint4_linear_22557_2823)"/>
<path d="M105.576 17.9805C102.452 17.9805 101.189 19.6419 101.189 23.5628C101.189 27.4837 102.519 29.2116 105.576 29.2116C108.5 29.2116 109.829 27.4173 109.829 23.5628C109.829 19.7748 108.5 17.9805 105.576 17.9805ZM105.708 32.0692C100.193 32.0692 97.2686 29.1451 97.2686 23.7622C97.2686 17.9805 99.9268 15.2559 105.509 15.2559C111.091 15.2559 113.683 18.047 113.683 24.0945C113.75 29.278 110.958 32.0692 105.708 32.0692Z" fill="url(#paint5_linear_22557_2823)"/>
<defs>
<linearGradient id="paint0_linear_22557_2823" x1="24.514" y1="12" x2="24.514" y2="33.0509" gradientUnits="userSpaceOnUse">
<stop stop-color="white"/>
<stop offset="1" stop-color="white" stop-opacity="0.6"/>
</linearGradient>
<linearGradient id="paint1_linear_22557_2823" x1="45.7446" y1="15.3223" x2="45.7446" y2="32.0431" gradientUnits="userSpaceOnUse">
<stop stop-color="white"/>
<stop offset="1" stop-color="white" stop-opacity="0.6"/>
</linearGradient>
<linearGradient id="paint2_linear_22557_2823" x1="60.4645" y1="15.3223" x2="60.4645" y2="31.9765" gradientUnits="userSpaceOnUse">
<stop stop-color="white"/>
<stop offset="1" stop-color="white" stop-opacity="0.6"/>
</linearGradient>
<linearGradient id="paint3_linear_22557_2823" x1="74.1206" y1="15.2559" x2="74.1206" y2="32.1099" gradientUnits="userSpaceOnUse">
<stop stop-color="white"/>
<stop offset="1" stop-color="white" stop-opacity="0.6"/>
</linearGradient>
<linearGradient id="paint4_linear_22557_2823" x1="92.2304" y1="15.3223" x2="92.2304" y2="31.9765" gradientUnits="userSpaceOnUse">
<stop stop-color="white"/>
<stop offset="1" stop-color="white" stop-opacity="0.6"/>
</linearGradient>
<linearGradient id="paint5_linear_22557_2823" x1="105.487" y1="15.2559" x2="105.487" y2="32.1099" gradientUnits="userSpaceOnUse">
<stop stop-color="white"/>
<stop offset="1" stop-color="white" stop-opacity="0.6"/>
</linearGradient>
</defs>
</svg>
