<svg width="128" height="44" viewBox="0 0 128 44" fill="none" xmlns="http://www.w3.org/2000/svg">
<g clip-path="url(#clip0_22557_2695)">
<path d="M55.5889 23.5754V13.3754H59.8973V23.7254C59.8973 25.4504 60.8043 26.5754 62.9207 26.5754C64.886 26.5754 65.8686 25.3754 65.8686 23.6504V13.3754H70.177V23.5754C70.177 27.5504 67.7582 29.9504 62.9207 29.9504C58.0076 30.0254 55.5889 27.6254 55.5889 23.5754ZM72.1423 17.2754H75.9971V19.0004H76.0727C76.9798 17.6504 78.1891 16.9754 79.9276 16.9754C82.6487 16.9754 84.236 18.9254 84.236 21.7004V29.7254H80.23V22.4504C80.23 21.1754 79.5497 20.2754 78.2647 20.2754C76.9798 20.2754 76.0727 21.4004 76.0727 22.9004V29.7254H72.0667V17.2754H72.1423ZM86.2769 12.4004H90.2829V15.6254H86.2769V12.4004ZM86.2769 17.2754H90.2829V29.6504H86.2769V17.2754ZM93.382 26.4254V20.5004H91.7191V17.2754H93.382V13.3754H97.2369V17.2754H99.5045V20.5004H97.2369V25.6004C97.2369 26.5754 97.766 26.8004 98.5974 26.8004H99.5045V29.6504C99.1265 29.7254 98.3707 29.8754 97.3125 29.8754C95.0449 29.8754 93.382 29.1254 93.382 26.4254ZM101.999 30.7004H103.359C104.493 30.7004 105.022 30.2504 105.022 29.4254C105.022 28.9004 104.796 28.1504 104.266 26.8754L100.563 17.3504H104.72L106.383 22.6004C106.761 23.8004 107.139 25.4504 107.139 25.4504H107.214C107.214 25.4504 107.592 23.8004 107.97 22.6004L109.633 17.3504H113.639L109.331 29.8754C108.348 32.8004 107.139 33.7754 104.644 33.7754H102.074L101.999 30.7004Z" fill="url(#paint0_linear_22557_2695)"/>
<path d="M47.1232 29.2V12.4L32.4594 4V10.45L38.204 13.75C38.4308 13.9 38.4308 14.2 38.204 14.275L31.4012 18.175C31.1745 18.325 30.9477 18.25 30.7965 18.175L23.9938 14.275C23.767 14.2 23.767 13.825 23.9938 13.75L29.7383 10.45V4L14.999 12.4V29.2L20.5924 25.975V19.375C20.5924 19.15 20.8947 19 21.0459 19.075L27.8487 22.975C28.0754 23.125 28.151 23.275 28.151 23.5V31.3C28.151 31.525 27.8487 31.675 27.6975 31.6L21.953 28.3L16.3596 31.525L31.0233 40L45.687 31.6L40.0937 28.375L34.3491 31.675C34.1223 31.825 33.8956 31.675 33.8956 31.375V23.575C33.8956 23.35 34.0468 23.125 34.1979 23.05L41.0007 19.15C41.2274 19 41.4542 19.15 41.4542 19.45V26.05L47.1232 29.2Z" fill="url(#paint1_linear_22557_2695)"/>
</g>
<defs>
<linearGradient id="paint0_linear_22557_2695" x1="84.6526" y1="12.4004" x2="84.6526" y2="33.8272" gradientUnits="userSpaceOnUse">
<stop stop-color="white"/>
<stop offset="1" stop-color="white" stop-opacity="0.6"/>
</linearGradient>
<linearGradient id="paint1_linear_22557_2695" x1="31.0825" y1="4" x2="31.0825" y2="40.0873" gradientUnits="userSpaceOnUse">
<stop stop-color="white"/>
<stop offset="1" stop-color="white" stop-opacity="0.6"/>
</linearGradient>
<clipPath id="clip0_22557_2695">
<rect width="98.64" height="36" fill="white" transform="translate(15 4)"/>
</clipPath>
</defs>
</svg>
