<?xml version="1.0" encoding="iso-8859-1"?>
<!-- Generator: Adobe Illustrator 24.1.2, SVG Export Plug-In . SVG Version: 6.00 Build 0)  -->
<svg fill="#EBEBEB" version="1.1" baseProfile="basic" id="&#x421;&#x43B;&#x43E;&#x439;_1"
	 xmlns="http://www.w3.org/2000/svg" xmlns:xlink="http://www.w3.org/1999/xlink" x="0px" y="0px" viewBox="0 0 50 50"
	 xml:space="preserve">
<path marker-start="none" marker-end="none" style="fill-rule:evenodd;clip-rule:evenodd;" d="M24.135,46.505l-23.997-41
	C-0.251,4.839,0.23,3.999,1.002,3.999h18.377c0.355,0,0.683,0.189,0.863,0.496l4.757,8.129l4.756-8.129
	c0.18-0.307,0.508-0.496,0.864-0.496h18.38c0.771,0,1.252,0.84,0.863,1.505l-24,41C25.477,47.163,24.521,47.163,24.135,46.505z
	 M24.999,44.021L47.254,5.999h-8.329L25.862,28.321c-0.385,0.659-1.341,0.659-1.727,0L11.071,5.999H2.745L24.999,44.021z"/>
</svg>