<svg width="40" height="40" viewBox="0 0 40 40" fill="none" xmlns="http://www.w3.org/2000/svg">
<path d="M0 8.75C0 3.91751 3.91751 0 8.75 0H31.25C36.0825 0 40 3.91751 40 8.75V31.25C40 36.0825 36.0825 40 31.25 40H8.75C3.91751 40 0 36.0825 0 31.25V8.75Z" fill="black"/>
<path d="M13.8424 26.4605C12.7374 26.4605 11.7299 26.2005 10.8199 25.6805C9.92077 25.1496 9.21119 24.4346 8.69119 23.5355C8.17119 22.6363 7.91119 21.6505 7.91119 20.578C7.91119 19.4946 8.16035 18.5034 8.65869 17.6042C9.16785 16.6942 9.87202 15.9792 10.7712 15.4592C11.6704 14.9284 12.6941 14.663 13.8424 14.663C14.7633 14.663 15.5541 14.8092 16.2149 15.1017C16.8866 15.3834 17.4824 15.833 18.0024 16.4505L16.3937 17.848C15.7112 17.133 14.8608 16.7755 13.8424 16.7755C13.1274 16.7755 12.4991 16.9488 11.9574 17.2955C11.4158 17.6313 10.9987 18.0917 10.7062 18.6767C10.4137 19.2509 10.2674 19.8846 10.2674 20.578C10.2674 21.2713 10.4137 21.9051 10.7062 22.4792C11.0095 23.0534 11.432 23.5084 11.9737 23.8442C12.5262 24.1801 13.1654 24.348 13.8912 24.348C14.9529 24.348 15.8195 23.9796 16.4912 23.243L18.1487 24.6567C17.6937 25.2092 17.0979 25.648 16.3612 25.973C15.6354 26.298 14.7958 26.4605 13.8424 26.4605Z" fill="white"/>
<path d="M22.2894 26.4605C21.5311 26.4605 20.8323 26.2655 20.1931 25.8755C19.554 25.4746 19.0448 24.9384 18.6656 24.2667C18.2973 23.5951 18.1131 22.8584 18.1131 22.0567C18.1131 21.2551 18.2973 20.5184 18.6656 19.8467C19.0448 19.1642 19.554 18.6226 20.1931 18.2217C20.8323 17.8209 21.5311 17.6205 22.2894 17.6205C22.9827 17.6205 23.5406 17.7505 23.9631 18.0105C24.3965 18.2705 24.7323 18.6442 24.9706 19.1317V17.7992H27.1481V26.2492H25.0194V24.868C24.7702 25.3771 24.429 25.7726 23.9956 26.0542C23.5731 26.3251 23.0044 26.4605 22.2894 26.4605ZM20.3069 22.0405C20.3069 22.4738 20.4044 22.8801 20.5994 23.2592C20.8052 23.6276 21.0815 23.9255 21.4281 24.153C21.7856 24.3696 22.1919 24.478 22.6469 24.478C23.1127 24.478 23.5244 24.3696 23.8819 24.153C24.2502 23.9363 24.5319 23.6438 24.7269 23.2755C24.9219 22.9071 25.0194 22.5009 25.0194 22.0567C25.0194 21.6126 24.9219 21.2063 24.7269 20.838C24.5319 20.4588 24.2502 20.1609 23.8819 19.9442C23.5244 19.7167 23.1127 19.603 22.6469 19.603C22.1919 19.603 21.7856 19.7167 21.4281 19.9442C21.0706 20.1609 20.7944 20.4534 20.5994 20.8217C20.4044 21.1901 20.3069 21.5963 20.3069 22.0405Z" fill="white"/>
<path d="M28.4516 14.3867H30.6453V26.2492H28.4516V14.3867Z" fill="white"/>
</svg>
