<svg width="40" height="40" viewBox="0 0 40 40" fill="none" xmlns="http://www.w3.org/2000/svg">
<path d="M0 8.75C0 3.91751 3.91751 0 8.75 0H31.25C36.0825 0 40 3.91751 40 8.75V31.25C40 36.0825 36.0825 40 31.25 40H8.75C3.91751 40 0 36.0825 0 31.25V8.75Z" fill="white"/>
<path d="M16.051 17.3928V15.0156L6.5 18.3071V20.9585L16.051 24.3413V21.7813L9.16327 19.5871L16.051 17.3928Z" fill="#333333"/>
<path d="M23.949 17.3928V15.0156L33.5 18.3071V20.9585L23.949 24.3413V21.7813L30.8367 19.5871L23.949 17.3928Z" fill="#333333"/>
<path d="M22.7564 12H20.3686L17.0625 28H19.5421L22.7564 12Z" fill="#4A71D0"/>
</svg>
