<svg width="40" height="40" viewBox="0 0 40 40" fill="none" xmlns="http://www.w3.org/2000/svg">
<path d="M0 8.75C0 3.91751 3.91751 0 8.75 0H31.25C36.0825 0 40 3.91751 40 8.75V31.25C40 36.0825 36.0825 40 31.25 40H8.75C3.91751 40 0 36.0825 0 31.25V8.75Z" fill="#E1EB55"/>
<path fill-rule="evenodd" clip-rule="evenodd" d="M12.5497 13C14.2542 13 15.5317 13.3496 16.8454 14.3542C17.8032 15.0866 18.7778 16.1722 20 17.6136C21.2222 16.1722 22.1968 15.0866 23.1546 14.3542C24.4683 13.3496 25.7458 13 27.4503 13C31.1731 13 34 16.2594 34 19.5497C34 22.7307 31.6009 26.2632 27.4503 26.2632C25.4903 26.2632 24.0099 25.6539 22.6819 24.5473C21.7578 23.7772 20.9017 22.7567 20 21.5968C19.0983 22.7567 18.2422 23.7772 17.3181 24.5473C15.9901 25.6539 14.5097 26.2632 12.5497 26.2632C8.39907 26.2632 6 22.7307 6 19.5497C6 16.2594 8.8269 13 12.5497 13ZM15.6409 22.5346C16.4463 21.8635 17.2237 20.9105 18.2392 19.5894C16.8846 17.9865 16.033 17.031 15.254 16.4353C14.48 15.8434 13.7926 15.6199 12.5497 15.6199C10.3778 15.6199 8.61988 17.6001 8.61988 19.5497C8.61988 21.6085 10.1506 23.6433 12.5497 23.6433C13.8646 23.6433 14.7584 23.27 15.6409 22.5346ZM24.3591 22.5346C23.5537 21.8635 22.7763 20.9105 21.7608 19.5894C23.1154 17.9865 23.967 17.031 24.746 16.4353C25.52 15.8434 26.2074 15.6199 27.4503 15.6199C29.6222 15.6199 31.3801 17.6001 31.3801 19.5497C31.3801 21.6085 29.8494 23.6433 27.4503 23.6433C26.1354 23.6433 25.2416 23.27 24.3591 22.5346Z" fill="black"/>
</svg>
