<svg width="40" height="40" viewBox="0 0 40 40" fill="none" xmlns="http://www.w3.org/2000/svg">
<path d="M0 8.75C0 3.91751 3.91751 0 8.75 0H31.25C36.0825 0 40 3.91751 40 8.75V31.25C40 36.0825 36.0825 40 31.25 40H8.75C3.91751 40 0 36.0825 0 31.25V8.75Z" fill="white"/>
<path d="M30.1532 27.4965L21.3469 32.6353C20.5134 33.1216 19.4867 33.1216 18.6533 32.6353L9.84679 27.4965C9.01337 27.0101 8.5 26.1115 8.5 25.1389V14.8612C8.5 13.8886 9.01337 12.9899 9.84679 12.5036L18.6533 7.36479C19.4867 6.8784 20.5134 6.8784 21.3469 7.36479L30.1532 12.5036C30.9866 12.9899 31.5 13.8886 31.5 14.8612V25.1389C31.5 26.1115 30.9866 27.0101 30.1532 27.4965ZM25.3227 15.665C24.6623 17.5485 23.9971 19.4366 23.3321 21.3269H23.121C22.4582 19.432 21.7932 17.5393 21.1304 15.649H19.0626C18.3907 17.56 17.7257 19.4526 17.0607 21.3476H16.8676C16.1935 19.4343 15.5194 17.521 14.8679 15.6742H12.3984C13.5992 19.1498 14.7704 22.5382 15.9416 25.9265H17.9799L19.9978 20.1935H20.2021C20.8762 22.1161 21.5481 24.0409 22.2086 25.9219H24.2514C25.4272 22.5198 26.5983 19.1292 27.7946 15.665H25.3227Z" fill="#FA5A28"/>
</svg>
