<svg width="18" height="18" viewBox="0 0 18 18" fill="none" xmlns="http://www.w3.org/2000/svg">
<path d="M12.7639 2H5C3.34315 2 2 3.34315 2 5V13C2 14.6569 3.34315 16 5 16H13C14.6569 16 16 14.6569 16 13V6.82929C15.6872 6.93985 15.3506 7 15 7C14.9328 7 14.8661 6.99779 14.8 6.99344V13C14.8 13.9941 13.9941 14.8 13 14.8H5C4.00589 14.8 3.2 13.9941 3.2 13V5C3.2 4.00589 4.00589 3.2 5 3.2H12.1078C12.2325 2.74833 12.4601 2.33938 12.7639 2Z" fill="currentColor"/>
<path d="M17 4C17 5.10457 16.1046 6 15 6C13.8954 6 13 5.10457 13 4C13 2.89543 13.8954 2 15 2C16.1046 2 17 2.89543 17 4Z" fill="currentColor"/>
</svg>
