<svg width="16" height="16" viewBox="0 0 16 16" fill="none" xmlns="http://www.w3.org/2000/svg">
<path d="M5.10851 8.00022C6.45854 8.00022 7.55295 6.9058 7.55295 5.55577C7.55295 4.20574 6.45854 3.11133 5.10851 3.11133C3.75848 3.11133 2.66406 4.20574 2.66406 5.55577C2.66406 6.9058 3.75848 8.00022 5.10851 8.00022Z" fill="currentColor"/>
<path d="M10.6632 5.77756C12.0132 5.77756 13.1076 4.68315 13.1076 3.33312C13.1076 1.98309 12.0132 0.888672 10.6632 0.888672C9.31317 0.888672 8.21875 1.98309 8.21875 3.33312C8.21875 4.68315 9.31317 5.77756 10.6632 5.77756Z" fill="currentColor"/>
<path d="M15.2842 9.86424C14.5633 7.95135 12.7073 6.66602 10.6656 6.66602C9.406 6.66602 8.21933 7.15757 7.32422 7.98157C8.97222 8.61179 10.3331 9.90957 10.9767 11.6162C11.0762 11.8793 11.1207 12.1522 11.1384 12.4251C12.2149 12.3807 13.2798 12.194 14.3073 11.8509C14.7127 11.7158 15.0487 11.418 15.2327 11.034C15.4104 10.6607 15.4291 10.2447 15.2851 9.86424H15.2842Z" fill="currentColor"/>
<path d="M9.72778 12.0869C9.00689 10.174 7.15089 8.88867 5.10912 8.88867C3.06734 8.88867 1.21134 10.174 0.490448 12.0869C0.346448 12.4682 0.365115 12.8833 0.542893 13.2567C0.726004 13.6407 1.06289 13.9384 1.46823 14.0736C2.646 14.4664 3.87178 14.6664 5.10912 14.6664C6.34645 14.6664 7.57223 14.4664 8.75 14.0736C9.15534 13.9384 9.49134 13.6407 9.67534 13.2567C9.85312 12.8833 9.87178 12.4673 9.72778 12.0869Z" fill="currentColor"/>
</svg>
