<svg width="1920" height="1480" viewBox="0 0 1920 1480" fill="none" xmlns="http://www.w3.org/2000/svg">
<g clip-path="url(#clip0_19722_3795)">
<mask id="mask0_19722_3795" style="mask-type:alpha" maskUnits="userSpaceOnUse" x="98" y="142" width="2015" height="1786">
<path fill-rule="evenodd" clip-rule="evenodd" d="M608.552 231.515L2112.73 1750.69L1933.58 1927.84L429.411 408.668C400.615 379.585 351.018 399.963 351.018 440.877L351.018 1913.88L98.9995 1913.88L98.9994 440.877C98.9994 174.937 421.382 42.4785 608.552 231.515Z" fill="#D9D9D9"/>
</mask>
<g mask="url(#mask0_19722_3795)">
<g opacity="0.2" filter="url(#filter0_f_19722_3795)">
<ellipse cx="1075.87" cy="357.289" rx="183.688" ry="271.205" transform="rotate(-43.7032 1075.87 357.289)" fill="#F17EB8"/>
</g>
<g opacity="0.03" filter="url(#filter1_f_19722_3795)">
<ellipse cx="915.928" cy="515.711" rx="53.8217" ry="118.598" transform="rotate(-43.7032 915.928 515.711)" fill="#FAD1E5"/>
</g>
<g opacity="0.24" filter="url(#filter2_f_19722_3795)">
<ellipse cx="6.13371" cy="437.283" rx="226.696" ry="395.397" transform="rotate(-23.8332 6.13371 437.283)" fill="#7EA5F1"/>
</g>
<g opacity="0.02" filter="url(#filter3_f_19722_3795)">
<ellipse cx="248.603" cy="95.1948" rx="224.975" ry="195.384" transform="rotate(-23.8332 248.603 95.1948)" fill="#F17E7E"/>
</g>
</g>
<path opacity="0.6" d="M608.018 232.043L2111.66 1750.68L1933.59 1926.78L429.943 408.14C400.677 378.582 350.267 399.292 350.267 440.877L350.267 1913.13L99.7485 1913.13L99.7484 440.877C99.7484 175.608 421.318 43.4816 608.018 232.043Z" stroke="url(#paint0_radial_19722_3795)" stroke-width="1.5"/>
<path d="M-286.352 -931.203L-286.707 -930.851L-286.355 -930.496L1217.82 588.678C1405.3 778.032 1728.23 645.352 1728.23 378.965V-1094.04V-1094.54H1727.73H1475.71H1475.21V-1094.04V378.965C1475.21 419.431 1426.15 439.588 1397.67 410.823L-106.504 -1108.35L-106.855 -1108.71L-107.21 -1108.36L-286.352 -931.203Z" fill="url(#paint1_radial_19722_3795)"/>
<path d="M-286.352 -931.203L-286.707 -930.851L-286.355 -930.496L1217.82 588.678C1405.3 778.032 1728.23 645.352 1728.23 378.965V-1094.04V-1094.54H1727.73H1475.71H1475.21V-1094.04V378.965C1475.21 419.431 1426.15 439.588 1397.67 410.823L-106.504 -1108.35L-106.855 -1108.71L-107.21 -1108.36L-286.352 -931.203Z" stroke="url(#paint2_radial_19722_3795)"/>
<path d="M-286.352 -931.203L-286.707 -930.851L-286.355 -930.496L1217.82 588.678C1405.3 778.032 1728.23 645.352 1728.23 378.965V-1094.04V-1094.54H1727.73H1475.71H1475.21V-1094.04V378.965C1475.21 419.431 1426.15 439.588 1397.67 410.823L-106.504 -1108.35L-106.855 -1108.71L-107.21 -1108.36L-286.352 -931.203Z" stroke="url(#paint3_radial_19722_3795)" stroke-opacity="0.6"/>
<path d="M-286.352 -931.203L-286.707 -930.851L-286.355 -930.496L1217.82 588.678C1405.3 778.032 1728.23 645.352 1728.23 378.965V-1094.04V-1094.54H1727.73H1475.71H1475.21V-1094.04V378.965C1475.21 419.431 1426.15 439.588 1397.67 410.823L-106.504 -1108.35L-106.855 -1108.71L-107.21 -1108.36L-286.352 -931.203Z" stroke="url(#paint4_radial_19722_3795)"/>
<path d="M-286.352 -931.203L-286.707 -930.851L-286.355 -930.496L1217.82 588.678C1405.3 778.032 1728.23 645.352 1728.23 378.965V-1094.04V-1094.54H1727.73H1475.71H1475.21V-1094.04V378.965C1475.21 419.431 1426.15 439.588 1397.67 410.823L-106.504 -1108.35L-106.855 -1108.71L-107.21 -1108.36L-286.352 -931.203Z" stroke="url(#paint5_radial_19722_3795)" stroke-opacity="0.6"/>
<mask id="mask1_19722_3795" style="mask-type:alpha" maskUnits="userSpaceOnUse" x="-286" y="-1108" width="2014" height="1786">
<path fill-rule="evenodd" clip-rule="evenodd" d="M1218.17 588.327L-286 -930.848L-106.859 -1108L1116.5 123.622C1127.8 135.032 1199 199.622 1206 199.622C1208.16 199.622 1265.39 249.011 1267 248.622C1268.07 227.975 1262.13 155.614 1284 139.122C1302.91 124.861 1348.8 165.311 1363.5 161.167C1391.98 153.139 1386.07 168.956 1406.5 161.167C1428.45 152.796 1475.71 120.913 1475.71 115.122V-1094.04H1727.73V378.965C1727.73 644.905 1405.34 777.364 1218.17 588.327Z" fill="url(#paint6_linear_19722_3795)"/>
</mask>
<g mask="url(#mask1_19722_3795)">
<mask id="mask2_19722_3795" style="mask-type:alpha" maskUnits="userSpaceOnUse" x="-287" y="-1109" width="2016" height="1787">
<path fill-rule="evenodd" clip-rule="evenodd" d="M1218.17 588.327L-286 -930.848L-106.859 -1108L1397.31 411.174C1426.11 440.257 1475.71 419.879 1475.71 378.965V-1094.04H1727.73V378.965C1727.73 644.905 1405.34 777.363 1218.17 588.327Z" fill="url(#paint7_radial_19722_3795)"/>
<path fill-rule="evenodd" clip-rule="evenodd" d="M1218.17 588.327L-286 -930.848L-106.859 -1108L1397.31 411.174C1426.11 440.257 1475.71 419.879 1475.71 378.965V-1094.04H1727.73V378.965C1727.73 644.905 1405.34 777.363 1218.17 588.327Z" fill="url(#paint8_radial_19722_3795)"/>
<path fill-rule="evenodd" clip-rule="evenodd" d="M1218.17 588.327L-286 -930.848L-106.859 -1108L1397.31 411.174C1426.11 440.257 1475.71 419.879 1475.71 378.965V-1094.04H1727.73V378.965C1727.73 644.905 1405.34 777.363 1218.17 588.327Z" stroke="url(#paint9_radial_19722_3795)"/>
</mask>
<g mask="url(#mask2_19722_3795)">
<g opacity="0.6" filter="url(#filter4_f_19722_3795)">
<ellipse cx="1730.03" cy="391.603" rx="233.615" ry="253.892" fill="#47BCEB"/>
</g>
</g>
<g style="mix-blend-mode:overlay" filter="url(#filter5_f_19722_3795)">
<path d="M820.077 12.8255C815.272 7.78795 815.365 -0.16428 820.288 -5.08719C825.211 -10.0101 833.164 -10.1038 838.201 -5.29831L1419.64 549.355C1432.54 561.665 1432.78 582.186 1420.17 594.797C1407.56 607.408 1387.04 607.167 1374.73 594.262L820.077 12.8255Z" fill="url(#paint10_linear_19722_3795)"/>
</g>
<g opacity="0.3" filter="url(#filter6_f_19722_3795)">
<ellipse cx="1050.61" cy="411.033" rx="169.173" ry="332.304" transform="rotate(-26.01 1050.61 411.033)" fill="url(#paint11_linear_19722_3795)"/>
</g>
</g>
</g>
<defs>
<filter id="filter0_f_19722_3795" x="246.19" y="-476.293" width="1659.37" height="1667.16" filterUnits="userSpaceOnUse" color-interpolation-filters="sRGB">
<feFlood flood-opacity="0" result="BackgroundImageFix"/>
<feBlend mode="normal" in="SourceGraphic" in2="BackgroundImageFix" result="shape"/>
<feGaussianBlur stdDeviation="300" result="effect1_foregroundBlur_19722_3795"/>
</filter>
<filter id="filter1_f_19722_3795" x="725.196" y="322.233" width="381.464" height="386.957" filterUnits="userSpaceOnUse" color-interpolation-filters="sRGB">
<feFlood flood-opacity="0" result="BackgroundImageFix"/>
<feBlend mode="normal" in="SourceGraphic" in2="BackgroundImageFix" result="shape"/>
<feGaussianBlur stdDeviation="50" result="effect1_foregroundBlur_19722_3795"/>
</filter>
<filter id="filter2_f_19722_3795" x="-1255.65" y="-935.906" width="2523.58" height="2746.38" filterUnits="userSpaceOnUse" color-interpolation-filters="sRGB">
<feFlood flood-opacity="0" result="BackgroundImageFix"/>
<feBlend mode="normal" in="SourceGraphic" in2="BackgroundImageFix" result="shape"/>
<feGaussianBlur stdDeviation="500" result="effect1_foregroundBlur_19722_3795"/>
</filter>
<filter id="filter3_f_19722_3795" x="-571.872" y="-705.362" width="1640.95" height="1601.11" filterUnits="userSpaceOnUse" color-interpolation-filters="sRGB">
<feFlood flood-opacity="0" result="BackgroundImageFix"/>
<feBlend mode="normal" in="SourceGraphic" in2="BackgroundImageFix" result="shape"/>
<feGaussianBlur stdDeviation="300" result="effect1_foregroundBlur_19722_3795"/>
</filter>
<filter id="filter4_f_19722_3795" x="1336.42" y="-22.2891" width="787.23" height="827.783" filterUnits="userSpaceOnUse" color-interpolation-filters="sRGB">
<feFlood flood-opacity="0" result="BackgroundImageFix"/>
<feBlend mode="normal" in="SourceGraphic" in2="BackgroundImageFix" result="shape"/>
<feGaussianBlur stdDeviation="80" result="effect1_foregroundBlur_19722_3795"/>
</filter>
<filter id="filter5_f_19722_3795" x="712.534" y="-112.842" width="820.942" height="820.942" filterUnits="userSpaceOnUse" color-interpolation-filters="sRGB">
<feFlood flood-opacity="0" result="BackgroundImageFix"/>
<feBlend mode="normal" in="SourceGraphic" in2="BackgroundImageFix" result="shape"/>
<feGaussianBlur stdDeviation="52" result="effect1_foregroundBlur_19722_3795"/>
</filter>
<filter id="filter6_f_19722_3795" x="640.013" y="-96.7637" width="821.196" height="1015.59" filterUnits="userSpaceOnUse" color-interpolation-filters="sRGB">
<feFlood flood-opacity="0" result="BackgroundImageFix"/>
<feBlend mode="normal" in="SourceGraphic" in2="BackgroundImageFix" result="shape"/>
<feGaussianBlur stdDeviation="100" result="effect1_foregroundBlur_19722_3795"/>
</filter>
<radialGradient id="paint0_radial_19722_3795" cx="0" cy="0" r="1" gradientUnits="userSpaceOnUse" gradientTransform="translate(975.422 453.237) rotate(133.172) scale(188.702 229.749)">
<stop stop-color="#A55AA2"/>
<stop offset="1" stop-color="#A55AA2" stop-opacity="0"/>
</radialGradient>
<radialGradient id="paint1_radial_19722_3795" cx="0" cy="0" r="1" gradientUnits="userSpaceOnUse" gradientTransform="translate(1473 698.622) rotate(-106.459) scale(1187.67 1339.69)">
<stop stop-color="#221F28"/>
<stop offset="1" stop-color="#221F28" stop-opacity="0"/>
</radialGradient>
<radialGradient id="paint2_radial_19722_3795" cx="0" cy="0" r="1" gradientUnits="userSpaceOnUse" gradientTransform="translate(1015.62 400.358) rotate(129.391) scale(214.936 309.443)">
<stop stop-color="#D65CC2"/>
<stop offset="1" stop-color="#252A2D"/>
</radialGradient>
<radialGradient id="paint3_radial_19722_3795" cx="0" cy="0" r="1" gradientUnits="userSpaceOnUse" gradientTransform="translate(995.976 369.886) rotate(-159.175) scale(203.412 229.448)">
<stop stop-color="white"/>
<stop offset="1" stop-color="white" stop-opacity="0"/>
</radialGradient>
<radialGradient id="paint4_radial_19722_3795" cx="0" cy="0" r="1" gradientUnits="userSpaceOnUse" gradientTransform="translate(1746.63 344.517) rotate(97.1571) scale(366.816 176.105)">
<stop stop-color="#7DC4E8"/>
<stop offset="1" stop-color="#7DC4E8" stop-opacity="0"/>
</radialGradient>
<radialGradient id="paint5_radial_19722_3795" cx="0" cy="0" r="1" gradientUnits="userSpaceOnUse" gradientTransform="translate(1751.17 371.747) rotate(-164.055) scale(132.162 180.682)">
<stop stop-color="white"/>
<stop offset="1" stop-color="white" stop-opacity="0"/>
</radialGradient>
<linearGradient id="paint6_linear_19722_3795" x1="805" y1="-154.378" x2="1342.5" y2="771.122" gradientUnits="userSpaceOnUse">
<stop stop-color="white"/>
<stop offset="0.74101" stop-color="#ACACAC"/>
<stop offset="0.991563" stop-color="#999999"/>
</linearGradient>
<radialGradient id="paint7_radial_19722_3795" cx="0" cy="0" r="1" gradientUnits="userSpaceOnUse" gradientTransform="translate(1206.48 487.122) rotate(-125.928) scale(809.5 324.854)">
<stop offset="0.27092" stop-color="#1D1D34"/>
<stop offset="1" stop-color="#1D1D34"/>
</radialGradient>
<radialGradient id="paint8_radial_19722_3795" cx="0" cy="0" r="1" gradientUnits="userSpaceOnUse" gradientTransform="translate(1602.15 330.981) rotate(-82.0248) scale(901.076 1016.39)">
<stop stop-color="#341D34"/>
<stop offset="1" stop-color="#341D34" stop-opacity="0"/>
</radialGradient>
<radialGradient id="paint9_radial_19722_3795" cx="0" cy="0" r="1" gradientUnits="userSpaceOnUse" gradientTransform="translate(1439.5 696.622) rotate(-101.864) scale(243.196 416.565)">
<stop stop-color="#815BE6"/>
<stop offset="1" stop-color="#815BE6" stop-opacity="0"/>
</radialGradient>
<linearGradient id="paint10_linear_19722_3795" x1="820.288" y1="-5.08719" x2="1420.17" y2="594.797" gradientUnits="userSpaceOnUse">
<stop stop-color="white" stop-opacity="0"/>
<stop offset="1" stop-color="white"/>
</linearGradient>
<linearGradient id="paint11_linear_19722_3795" x1="1158.13" y1="191.707" x2="931.886" y2="291.026" gradientUnits="userSpaceOnUse">
<stop stop-color="#F17EAE"/>
<stop offset="1" stop-color="#F17EDE"/>
</linearGradient>
<clipPath id="clip0_19722_3795">
<rect width="1920" height="1480" fill="white"/>
</clipPath>
</defs>
</svg>
