<svg width="1920" height="1920" viewBox="0 0 1920 1920" fill="none" xmlns="http://www.w3.org/2000/svg">
<g clip-path="url(#clip0_20712_19863)">
<mask id="mask0_20712_19863" style="mask-type:alpha" maskUnits="userSpaceOnUse" x="98" y="500" width="2015" height="1786">
<path fill-rule="evenodd" clip-rule="evenodd" d="M608.552 589.517L2112.73 2108.69L1933.58 2285.84L429.411 766.67C400.616 737.587 351.018 757.965 351.018 798.879L351.018 2271.88L98.9998 2271.88L98.9996 798.879C98.9996 532.939 421.382 400.48 608.552 589.517Z" fill="#D9D9D9"/>
</mask>
<g mask="url(#mask0_20712_19863)">
<g opacity="0.2" filter="url(#filter0_f_20712_19863)">
<ellipse cx="1075.87" cy="715.289" rx="183.688" ry="271.205" transform="rotate(-43.7032 1075.87 715.289)" fill="#F17EB8"/>
</g>
<g opacity="0.03" filter="url(#filter1_f_20712_19863)">
<ellipse cx="915.928" cy="873.711" rx="53.8217" ry="118.598" transform="rotate(-43.7032 915.928 873.711)" fill="#FAD1E5"/>
</g>
<g opacity="0.24" filter="url(#filter2_f_20712_19863)">
<ellipse cx="6.13383" cy="795.285" rx="226.696" ry="395.397" transform="rotate(-23.8332 6.13383 795.285)" fill="#7EA5F1"/>
</g>
<g opacity="0.02" filter="url(#filter3_f_20712_19863)">
<ellipse cx="248.603" cy="453.195" rx="224.975" ry="195.384" transform="rotate(-23.8332 248.603 453.195)" fill="#F17E7E"/>
</g>
</g>
<path opacity="0.6" d="M608.018 590.045L2111.66 2108.69L1933.59 2284.78L429.943 766.142C400.677 736.584 350.267 757.294 350.267 798.879L350.267 2271.13L99.7487 2271.13L99.7485 798.879C99.7485 533.61 421.319 401.484 608.018 590.045Z" stroke="url(#paint0_radial_20712_19863)" stroke-width="1.5"/>
<path d="M-286.352 -573.203L-286.707 -572.851L-286.355 -572.496L1217.82 946.678C1405.3 1136.03 1728.23 1003.35 1728.23 736.965V-736.04V-736.54H1727.73H1475.71H1475.21V-736.04V736.965C1475.21 777.431 1426.15 797.588 1397.67 768.823L-106.504 -750.352L-106.855 -750.707L-107.21 -750.356L-286.352 -573.203Z" fill="url(#paint1_radial_20712_19863)"/>
<path d="M-286.352 -573.203L-286.707 -572.851L-286.355 -572.496L1217.82 946.678C1405.3 1136.03 1728.23 1003.35 1728.23 736.965V-736.04V-736.54H1727.73H1475.71H1475.21V-736.04V736.965C1475.21 777.431 1426.15 797.588 1397.67 768.823L-106.504 -750.352L-106.855 -750.707L-107.21 -750.356L-286.352 -573.203Z" stroke="url(#paint2_radial_20712_19863)"/>
<path d="M-286.352 -573.203L-286.707 -572.851L-286.355 -572.496L1217.82 946.678C1405.3 1136.03 1728.23 1003.35 1728.23 736.965V-736.04V-736.54H1727.73H1475.71H1475.21V-736.04V736.965C1475.21 777.431 1426.15 797.588 1397.67 768.823L-106.504 -750.352L-106.855 -750.707L-107.21 -750.356L-286.352 -573.203Z" stroke="url(#paint3_radial_20712_19863)" stroke-opacity="0.6"/>
<path d="M-286.352 -573.203L-286.707 -572.851L-286.355 -572.496L1217.82 946.678C1405.3 1136.03 1728.23 1003.35 1728.23 736.965V-736.04V-736.54H1727.73H1475.71H1475.21V-736.04V736.965C1475.21 777.431 1426.15 797.588 1397.67 768.823L-106.504 -750.352L-106.855 -750.707L-107.21 -750.356L-286.352 -573.203Z" stroke="url(#paint4_radial_20712_19863)"/>
<path d="M-286.352 -573.203L-286.707 -572.851L-286.355 -572.496L1217.82 946.678C1405.3 1136.03 1728.23 1003.35 1728.23 736.965V-736.04V-736.54H1727.73H1475.71H1475.21V-736.04V736.965C1475.21 777.431 1426.15 797.588 1397.67 768.823L-106.504 -750.352L-106.855 -750.707L-107.21 -750.356L-286.352 -573.203Z" stroke="url(#paint5_radial_20712_19863)" stroke-opacity="0.6"/>
<mask id="mask1_20712_19863" style="mask-type:alpha" maskUnits="userSpaceOnUse" x="-286" y="-750" width="2014" height="1786">
<path fill-rule="evenodd" clip-rule="evenodd" d="M1218.17 946.327L-286 -572.848L-106.859 -750L1116.5 481.622C1127.8 493.032 1199 557.622 1206 557.622C1208.16 557.622 1265.39 607.011 1267 606.622C1268.07 585.976 1262.13 513.614 1284 497.122C1302.91 482.861 1348.8 523.311 1363.5 519.167C1391.98 511.139 1386.07 526.956 1406.5 519.168C1428.45 510.796 1475.71 478.913 1475.71 473.122V-736.04H1727.73V736.965C1727.73 1002.91 1405.34 1135.36 1218.17 946.327Z" fill="url(#paint6_linear_20712_19863)"/>
</mask>
<g mask="url(#mask1_20712_19863)">
<mask id="mask2_20712_19863" style="mask-type:alpha" maskUnits="userSpaceOnUse" x="-287" y="-751" width="2016" height="1787">
<path fill-rule="evenodd" clip-rule="evenodd" d="M1218.17 946.327L-286 -572.848L-106.859 -750L1397.31 769.174C1426.11 798.257 1475.71 777.879 1475.71 736.965V-736.04H1727.73V736.965C1727.73 1002.9 1405.34 1135.36 1218.17 946.327Z" fill="url(#paint7_radial_20712_19863)"/>
<path fill-rule="evenodd" clip-rule="evenodd" d="M1218.17 946.327L-286 -572.848L-106.859 -750L1397.31 769.174C1426.11 798.257 1475.71 777.879 1475.71 736.965V-736.04H1727.73V736.965C1727.73 1002.9 1405.34 1135.36 1218.17 946.327Z" fill="url(#paint8_radial_20712_19863)"/>
<path fill-rule="evenodd" clip-rule="evenodd" d="M1218.17 946.327L-286 -572.848L-106.859 -750L1397.31 769.174C1426.11 798.257 1475.71 777.879 1475.71 736.965V-736.04H1727.73V736.965C1727.73 1002.9 1405.34 1135.36 1218.17 946.327Z" stroke="url(#paint9_radial_20712_19863)"/>
</mask>
<g mask="url(#mask2_20712_19863)">
<g opacity="0.6" filter="url(#filter4_f_20712_19863)">
<ellipse cx="1730.03" cy="749.603" rx="233.615" ry="253.892" fill="#47BCEB"/>
</g>
</g>
<g style="mix-blend-mode:overlay" filter="url(#filter5_f_20712_19863)">
<path d="M820.077 370.824C815.272 365.786 815.365 357.834 820.288 352.911V352.911C825.211 347.988 833.164 347.894 838.201 352.7L1419.64 907.353C1432.54 919.663 1432.78 940.184 1420.17 952.795V952.795C1407.56 965.407 1387.04 965.165 1374.73 952.26L820.077 370.824Z" fill="url(#paint10_linear_20712_19863)"/>
</g>
<g opacity="0.3" filter="url(#filter6_f_20712_19863)">
<ellipse cx="1050.61" cy="769.031" rx="169.173" ry="332.304" transform="rotate(-26.01 1050.61 769.031)" fill="url(#paint11_linear_20712_19863)"/>
</g>
</g>
</g>
<defs>
<filter id="filter0_f_20712_19863" x="246.19" y="-118.293" width="1659.37" height="1667.16" filterUnits="userSpaceOnUse" color-interpolation-filters="sRGB">
<feFlood flood-opacity="0" result="BackgroundImageFix"/>
<feBlend mode="normal" in="SourceGraphic" in2="BackgroundImageFix" result="shape"/>
<feGaussianBlur stdDeviation="300" result="effect1_foregroundBlur_20712_19863"/>
</filter>
<filter id="filter1_f_20712_19863" x="725.196" y="680.234" width="381.464" height="386.957" filterUnits="userSpaceOnUse" color-interpolation-filters="sRGB">
<feFlood flood-opacity="0" result="BackgroundImageFix"/>
<feBlend mode="normal" in="SourceGraphic" in2="BackgroundImageFix" result="shape"/>
<feGaussianBlur stdDeviation="50" result="effect1_foregroundBlur_20712_19863"/>
</filter>
<filter id="filter2_f_20712_19863" x="-1255.65" y="-577.902" width="2523.58" height="2746.38" filterUnits="userSpaceOnUse" color-interpolation-filters="sRGB">
<feFlood flood-opacity="0" result="BackgroundImageFix"/>
<feBlend mode="normal" in="SourceGraphic" in2="BackgroundImageFix" result="shape"/>
<feGaussianBlur stdDeviation="500" result="effect1_foregroundBlur_20712_19863"/>
</filter>
<filter id="filter3_f_20712_19863" x="-571.872" y="-347.363" width="1640.95" height="1601.11" filterUnits="userSpaceOnUse" color-interpolation-filters="sRGB">
<feFlood flood-opacity="0" result="BackgroundImageFix"/>
<feBlend mode="normal" in="SourceGraphic" in2="BackgroundImageFix" result="shape"/>
<feGaussianBlur stdDeviation="300" result="effect1_foregroundBlur_20712_19863"/>
</filter>
<filter id="filter4_f_20712_19863" x="1336.42" y="335.711" width="787.23" height="827.781" filterUnits="userSpaceOnUse" color-interpolation-filters="sRGB">
<feFlood flood-opacity="0" result="BackgroundImageFix"/>
<feBlend mode="normal" in="SourceGraphic" in2="BackgroundImageFix" result="shape"/>
<feGaussianBlur stdDeviation="80" result="effect1_foregroundBlur_20712_19863"/>
</filter>
<filter id="filter5_f_20712_19863" x="712.534" y="245.156" width="820.942" height="820.941" filterUnits="userSpaceOnUse" color-interpolation-filters="sRGB">
<feFlood flood-opacity="0" result="BackgroundImageFix"/>
<feBlend mode="normal" in="SourceGraphic" in2="BackgroundImageFix" result="shape"/>
<feGaussianBlur stdDeviation="52" result="effect1_foregroundBlur_20712_19863"/>
</filter>
<filter id="filter6_f_20712_19863" x="640.013" y="261.234" width="821.196" height="1015.59" filterUnits="userSpaceOnUse" color-interpolation-filters="sRGB">
<feFlood flood-opacity="0" result="BackgroundImageFix"/>
<feBlend mode="normal" in="SourceGraphic" in2="BackgroundImageFix" result="shape"/>
<feGaussianBlur stdDeviation="100" result="effect1_foregroundBlur_20712_19863"/>
</filter>
<radialGradient id="paint0_radial_20712_19863" cx="0" cy="0" r="1" gradientUnits="userSpaceOnUse" gradientTransform="translate(975.422 811.239) rotate(133.172) scale(188.702 229.749)">
<stop stop-color="#A55AA2"/>
<stop offset="1" stop-color="#A55AA2" stop-opacity="0"/>
</radialGradient>
<radialGradient id="paint1_radial_20712_19863" cx="0" cy="0" r="1" gradientUnits="userSpaceOnUse" gradientTransform="translate(1473 1056.62) rotate(-106.459) scale(1187.67 1339.69)">
<stop stop-color="#221F28"/>
<stop offset="1" stop-color="#221F28" stop-opacity="0"/>
</radialGradient>
<radialGradient id="paint2_radial_20712_19863" cx="0" cy="0" r="1" gradientUnits="userSpaceOnUse" gradientTransform="translate(1015.62 758.358) rotate(129.391) scale(214.936 309.443)">
<stop stop-color="#D65CC2"/>
<stop offset="1" stop-color="#252A2D"/>
</radialGradient>
<radialGradient id="paint3_radial_20712_19863" cx="0" cy="0" r="1" gradientUnits="userSpaceOnUse" gradientTransform="translate(995.976 727.886) rotate(-159.175) scale(203.412 229.448)">
<stop stop-color="white"/>
<stop offset="1" stop-color="white" stop-opacity="0"/>
</radialGradient>
<radialGradient id="paint4_radial_20712_19863" cx="0" cy="0" r="1" gradientUnits="userSpaceOnUse" gradientTransform="translate(1746.63 702.517) rotate(97.1571) scale(366.816 176.105)">
<stop stop-color="#7DC4E8"/>
<stop offset="1" stop-color="#7DC4E8" stop-opacity="0"/>
</radialGradient>
<radialGradient id="paint5_radial_20712_19863" cx="0" cy="0" r="1" gradientUnits="userSpaceOnUse" gradientTransform="translate(1751.17 729.747) rotate(-164.055) scale(132.162 180.682)">
<stop stop-color="white"/>
<stop offset="1" stop-color="white" stop-opacity="0"/>
</radialGradient>
<linearGradient id="paint6_linear_20712_19863" x1="805" y1="203.622" x2="1342.5" y2="1129.12" gradientUnits="userSpaceOnUse">
<stop stop-color="white"/>
<stop offset="0.74101" stop-color="#ACACAC"/>
<stop offset="0.991563" stop-color="#999999"/>
</linearGradient>
<radialGradient id="paint7_radial_20712_19863" cx="0" cy="0" r="1" gradientUnits="userSpaceOnUse" gradientTransform="translate(1206.48 845.122) rotate(-125.928) scale(809.5 324.854)">
<stop offset="0.27092" stop-color="#1D1D34"/>
<stop offset="1" stop-color="#1D1D34"/>
</radialGradient>
<radialGradient id="paint8_radial_20712_19863" cx="0" cy="0" r="1" gradientUnits="userSpaceOnUse" gradientTransform="translate(1602.15 688.981) rotate(-82.0248) scale(901.076 1016.39)">
<stop stop-color="#341D34"/>
<stop offset="1" stop-color="#341D34" stop-opacity="0"/>
</radialGradient>
<radialGradient id="paint9_radial_20712_19863" cx="0" cy="0" r="1" gradientUnits="userSpaceOnUse" gradientTransform="translate(1439.5 1054.62) rotate(-101.864) scale(243.196 416.565)">
<stop stop-color="#815BE6"/>
<stop offset="1" stop-color="#815BE6" stop-opacity="0"/>
</radialGradient>
<linearGradient id="paint10_linear_20712_19863" x1="820.288" y1="352.911" x2="1420.17" y2="952.795" gradientUnits="userSpaceOnUse">
<stop stop-color="white" stop-opacity="0"/>
<stop offset="1" stop-color="white"/>
</linearGradient>
<linearGradient id="paint11_linear_20712_19863" x1="1158.13" y1="549.705" x2="931.886" y2="649.025" gradientUnits="userSpaceOnUse">
<stop stop-color="#F17EAE"/>
<stop offset="1" stop-color="#F17EDE"/>
</linearGradient>
<clipPath id="clip0_20712_19863">
<rect width="1920" height="1920" fill="white"/>
</clipPath>
</defs>
</svg>
