<svg width="46" height="34" viewBox="0 0 46 34" fill="none" xmlns="http://www.w3.org/2000/svg">
<path d="M38.9664 2.84749C35.9887 1.51725 32.8049 0.550485 29.4762 0C29.0674 0.705702 28.5898 1.65489 28.2605 2.40996C24.7221 1.90186 21.2162 1.90186 17.7429 2.40996C17.4137 1.65489 16.9252 0.705702 16.5128 0C13.1805 0.550485 9.99303 1.5208 7.01537 2.85454C1.0094 11.5204 -0.618721 19.971 0.19534 28.3016C4.17882 31.142 8.03928 32.8674 11.8346 33.9965C12.7717 32.7651 13.6074 31.456 14.3274 30.0764C12.9562 29.5789 11.6428 28.965 10.4019 28.2522C10.7311 28.0193 11.0531 27.7758 11.3643 27.5253C18.9332 30.9056 27.1571 30.9056 34.6356 27.5253C34.9504 27.7758 35.2723 28.0193 35.5979 28.2522C34.3533 28.9685 33.0364 29.5824 31.6652 30.08C32.3852 31.456 33.2173 32.7686 34.158 34C37.957 32.8709 41.821 31.1455 45.8045 28.3016C46.7597 18.6443 44.1728 10.2713 38.9664 2.84749ZM15.3586 23.1783C13.0865 23.1783 11.2231 21.153 11.2231 18.6866C11.2231 16.2202 13.0467 14.1914 15.3586 14.1914C17.6706 14.1914 19.5338 16.2167 19.494 18.6866C19.4976 21.153 17.6706 23.1783 15.3586 23.1783ZM30.6413 23.1783C28.3691 23.1783 26.5058 21.153 26.5058 18.6866C26.5058 16.2202 28.3293 14.1914 30.6413 14.1914C32.9532 14.1914 34.8165 16.2167 34.7767 18.6866C34.7767 21.153 32.9532 23.1783 30.6413 23.1783Z" fill="url(#paint0_linear_505_2272)"/>
<defs>
<linearGradient id="paint0_linear_505_2272" x1="23" y1="0" x2="23" y2="34" gradientUnits="userSpaceOnUse">
<stop stop-color="white"/>
<stop offset="1" stop-color="white" stop-opacity="0.6"/>
</linearGradient>
</defs>
</svg>
