<svg width="46" height="46" viewBox="0 0 46 46" fill="none" xmlns="http://www.w3.org/2000/svg">
<path fill-rule="evenodd" clip-rule="evenodd" d="M23.0292 0.584815C17.5622 0.579254 12.2719 2.52242 8.10631 6.06611C3.94073 9.6098 1.17219 14.5224 0.296851 19.9234C-0.578488 25.3245 0.496589 30.861 3.3294 35.5408C6.1622 40.2207 10.5676 43.7379 15.7561 45.4622C16.9 45.6742 17.3237 44.9533 17.3237 44.3455C17.3237 43.7377 17.3237 42.3525 17.3237 40.4302C10.9261 41.8437 9.57035 37.3489 9.57035 37.3489C9.14406 35.9558 8.23842 34.759 7.01416 33.9707C4.93813 32.5573 7.18362 32.5573 7.18362 32.5573C7.91136 32.6601 8.60616 32.9274 9.21541 33.3388C9.82467 33.7502 10.3324 34.295 10.7002 34.9319C11.0126 35.499 11.4339 35.9987 11.9398 36.4024C12.4458 36.8061 13.0264 37.1059 13.6483 37.2845C14.2703 37.4631 14.9214 37.517 15.5642 37.4432C16.207 37.3693 16.8289 37.1692 17.3943 36.8542C17.4829 35.6914 17.9838 34.5986 18.8066 33.7728C13.6942 33.1933 8.32755 31.2145 8.32755 22.3945C8.29245 20.1089 9.13689 17.8973 10.686 16.2177C9.99469 14.2306 10.0754 12.056 10.912 10.1257C10.912 10.1257 12.8468 9.50374 17.2389 12.4861C21.0105 11.4497 24.9915 11.4497 28.763 12.4861C33.1552 9.50374 35.0759 10.1257 35.0759 10.1257C35.9213 12.0532 36.007 14.2295 35.3159 16.2177C36.8651 17.8973 37.7095 20.1089 37.6744 22.3945C37.6744 31.2428 32.2937 33.1792 27.1672 33.7022C27.7169 34.2552 28.1413 34.9201 28.4118 35.6517C28.6823 36.3833 28.7924 37.1646 28.7348 37.9425C28.7348 41.0239 28.7348 43.5116 28.7348 44.2607C28.7348 45.0098 29.1443 45.5894 30.3165 45.3773C35.4887 43.6368 39.8749 40.114 42.6928 35.4373C45.5108 30.7606 46.5772 25.2341 45.7018 19.8435C44.8265 14.4529 42.0663 9.54879 37.9137 6.00588C33.761 2.46298 28.4859 0.511673 23.0292 0.5V0.584815Z" fill="url(#paint0_linear_146_582)"/>
<defs>
<linearGradient id="paint0_linear_146_582" x1="23" y1="0.5" x2="23" y2="45.5" gradientUnits="userSpaceOnUse">
<stop stop-color="white"/>
<stop offset="1" stop-color="white" stop-opacity="0.6"/>
</linearGradient>
</defs>
</svg>
