<svg width="40" height="32" viewBox="0 0 40 32" fill="none" xmlns="http://www.w3.org/2000/svg">
<path d="M40 3.71134C38.5 4.37113 36.9167 4.7835 35.25 5.03093C36.9167 4.04124 38.25 2.47423 38.8333 0.57732C37.25 1.48454 35.5 2.14433 33.5833 2.5567C32.0833 0.989691 29.9167 0 27.5833 0C23.0833 0 19.4167 3.62887 19.4167 8.08247C19.4167 8.74227 19.5 9.31959 19.6667 9.89691C12.9167 9.56701 6.83333 6.35052 2.75 1.40206C2.08333 2.63918 1.66667 3.95876 1.66667 5.4433C1.66667 8.24742 3.08333 10.7216 5.33333 12.2062C4 12.1237 2.75 11.7938 1.58333 11.2165V11.299C1.58333 15.2577 4.41667 18.5567 8.16667 19.299C7.5 19.4639 6.75 19.5464 6 19.5464C5.5 19.5464 4.91667 19.4639 4.41667 19.3814C5.5 22.5979 8.5 24.9897 12.0833 24.9897C9.25 27.134 5.75 28.4536 1.91667 28.4536C1.25 28.4536 0.583333 28.4536 0 28.3711C3.66667 30.6804 7.91667 32 12.5833 32C27.6667 32 35.9167 19.6289 35.9167 8.90722C35.9167 8.57732 35.9167 8.16495 35.9167 7.83505C37.5 6.76289 38.9167 5.36082 40 3.71134Z" fill="url(#paint0_linear_505_2275)"/>
<defs>
<linearGradient id="paint0_linear_505_2275" x1="20" y1="0" x2="20" y2="32" gradientUnits="userSpaceOnUse">
<stop stop-color="white"/>
<stop offset="1" stop-color="white" stop-opacity="0.6"/>
</linearGradient>
</defs>
</svg>
