<svg width="8" height="8" viewBox="0 0 8 8" fill="none" xmlns="http://www.w3.org/2000/svg">
<g clip-path="url(#clip0_23451_12258)">
<path d="M6.86162 2.19571L3.99962 5.05771L1.13762 2.19571C1.01189 2.07427 0.843484 2.00708 0.668686 2.0086C0.493888 2.01012 0.32668 2.08023 0.203075 2.20383C0.0794693 2.32744 0.00935665 2.49465 0.0078377 2.66945C0.00631876 2.84424 0.073515 3.01264 0.194954 3.13838L3.52829 6.47171C3.65331 6.59669 3.82284 6.6669 3.99962 6.6669C4.1764 6.6669 4.34594 6.59669 4.47095 6.47171L7.80429 3.13838C7.86796 3.07688 7.91875 3.00332 7.95369 2.92198C7.98863 2.84065 8.00702 2.75317 8.00779 2.66465C8.00856 2.57613 7.99169 2.48834 7.95817 2.40641C7.92465 2.32448 7.87515 2.25004 7.81255 2.18745C7.74996 2.12485 7.67552 2.07535 7.59359 2.04183C7.51166 2.00831 7.42387 1.99144 7.33535 1.99221C7.24683 1.99298 7.15935 2.01137 7.07802 2.04631C6.99668 2.08125 6.92312 2.13204 6.86162 2.19571Z" fill="#9F9FA7"/>
</g>
<defs>
<clipPath id="clip0_23451_12258">
<rect width="8" height="8" fill="white"/>
</clipPath>
</defs>
</svg>
