<svg width="20" height="20" viewBox="0 0 20 20" fill="currentColor" xmlns="http://www.w3.org/2000/svg">
<path fill-rule="evenodd" clip-rule="evenodd" d="M11.875 13.125C12.0408 13.125 12.1997 13.1908 12.3169 13.3081C12.4342 13.4253 12.5 13.5842 12.5 13.75V17.5C12.5 17.6658 12.4342 17.8247 12.3169 17.9419C12.1997 18.0592 12.0408 18.125 11.875 18.125H10.625C10.4592 18.125 10.3003 18.0592 10.1831 17.9419C10.0658 17.8247 10 17.6658 10 17.5V13.75C10 13.5842 10.0658 13.4253 10.1831 13.3081C10.3003 13.1908 10.4592 13.125 10.625 13.125H11.875ZM8.75 14.375V16.25H2.1875C1.93886 16.25 1.7004 16.1512 1.52459 15.9754C1.34877 15.7996 1.25 15.5611 1.25 15.3125C1.25 15.0639 1.34877 14.8254 1.52459 14.6496C1.7004 14.4738 1.93886 14.375 2.1875 14.375H8.75ZM17.8125 14.375C18.0611 14.375 18.2996 14.4738 18.4754 14.6496C18.6512 14.8254 18.75 15.0639 18.75 15.3125C18.75 15.5611 18.6512 15.7996 18.4754 15.9754C18.2996 16.1512 18.0611 16.25 17.8125 16.25H13.75V14.375H17.8125ZM6.875 7.5C7.04076 7.5 7.19973 7.56585 7.31694 7.68306C7.43415 7.80027 7.5 7.95924 7.5 8.125V11.875C7.5 12.0408 7.43415 12.1997 7.31694 12.3169C7.19973 12.4342 7.04076 12.5 6.875 12.5H5.625C5.45924 12.5 5.30027 12.4342 5.18306 12.3169C5.06585 12.1997 5 12.0408 5 11.875V8.125C5 7.95924 5.06585 7.80027 5.18306 7.68306C5.30027 7.56585 5.45924 7.5 5.625 7.5H6.875ZM3.75 9.0625V10.9375H2.1875C1.93886 10.9375 1.7004 10.8387 1.52459 10.6629C1.34877 10.4871 1.25 10.2486 1.25 10C1.25 9.75136 1.34877 9.5129 1.52459 9.33709C1.7004 9.16127 1.93886 9.0625 2.1875 9.0625H3.75ZM17.8125 9.0625C18.0611 9.0625 18.2996 9.16127 18.4754 9.33709C18.6512 9.5129 18.75 9.75136 18.75 10C18.75 10.2486 18.6512 10.4871 18.4754 10.6629C18.2996 10.8387 18.0611 10.9375 17.8125 10.9375H8.75V9.0625H17.8125ZM14.375 2.1875C14.5408 2.1875 14.6997 2.25335 14.8169 2.37056C14.9342 2.48777 15 2.64674 15 2.8125V6.5625C15 6.72826 14.9342 6.88723 14.8169 7.00444C14.6997 7.12165 14.5408 7.1875 14.375 7.1875H13.125C12.9592 7.1875 12.8003 7.12165 12.6831 7.00444C12.5658 6.88723 12.5 6.72826 12.5 6.5625V2.8125C12.5 2.64674 12.5658 2.48777 12.6831 2.37056C12.8003 2.25335 12.9592 2.1875 13.125 2.1875H14.375ZM11.25 3.75V5.625H2.1875C1.93886 5.625 1.7004 5.52623 1.52459 5.35041C1.34877 5.1746 1.25 4.93614 1.25 4.6875C1.25 4.43886 1.34877 4.2004 1.52459 4.02459C1.7004 3.84877 1.93886 3.75 2.1875 3.75H11.25ZM17.8125 3.75C18.0611 3.75 18.2996 3.84877 18.4754 4.02459C18.6512 4.2004 18.75 4.43886 18.75 4.6875C18.75 4.93614 18.6512 5.1746 18.4754 5.35041C18.2996 5.52623 18.0611 5.625 17.8125 5.625H16.25V3.75H17.8125Z" fill="currentColor"/>
</svg>
