<svg width="20" height="20" viewBox="0 0 20 20" fill="none" xmlns="http://www.w3.org/2000/svg">
<path d="M3.75 8.125C4.24728 8.125 4.72419 8.32254 5.07583 8.67417C5.42746 9.02581 5.625 9.50272 5.625 10C5.625 10.4973 5.42746 10.9742 5.07583 11.3258C4.72419 11.6775 4.24728 11.875 3.75 11.875C3.25272 11.875 2.77581 11.6775 2.42417 11.3258C2.07254 10.9742 1.875 10.4973 1.875 10C1.875 9.50272 2.07254 9.02581 2.42417 8.67417C2.77581 8.32254 3.25272 8.125 3.75 8.125ZM10 8.125C10.4973 8.125 10.9742 8.32254 11.3258 8.67417C11.6775 9.02581 11.875 9.50272 11.875 10C11.875 10.4973 11.6775 10.9742 11.3258 11.3258C10.9742 11.6775 10.4973 11.875 10 11.875C9.50272 11.875 9.02581 11.6775 8.67417 11.3258C8.32254 10.9742 8.125 10.4973 8.125 10C8.125 9.50272 8.32254 9.02581 8.67417 8.67417C9.02581 8.32254 9.50272 8.125 10 8.125ZM16.25 8.125C16.7473 8.125 17.2242 8.32254 17.5758 8.67417C17.9275 9.02581 18.125 9.50272 18.125 10C18.125 10.4973 17.9275 10.9742 17.5758 11.3258C17.2242 11.6775 16.7473 11.875 16.25 11.875C15.7527 11.875 15.2758 11.6775 14.9242 11.3258C14.5725 10.9742 14.375 10.4973 14.375 10C14.375 9.50272 14.5725 9.02581 14.9242 8.67417C15.2758 8.32254 15.7527 8.125 16.25 8.125Z" fill="#9A9AA1"/>
</svg>
