<svg width="1920" height="648" viewBox="0 0 1920 648" fill="none" xmlns="http://www.w3.org/2000/svg">
<mask id="mask0_12487_45329" style="mask-type:alpha" maskUnits="userSpaceOnUse" x="0" y="0" width="1920" height="648">
<rect width="1920" height="648" fill="#C4C4C4"/>
</mask>
<g mask="url(#mask0_12487_45329)">
<rect opacity="0.07" x="-894" y="-180" width="160" height="1600" transform="rotate(-30 -894 -180)" fill="url(#paint0_linear_12487_45329)"/>
<rect opacity="0.07" x="-709.436" y="-180" width="160" height="1600" transform="rotate(-30 -709.436 -180)" fill="url(#paint1_linear_12487_45329)"/>
<rect opacity="0.07" x="-524.871" y="-180" width="160" height="1600" transform="rotate(-30 -524.871 -180)" fill="url(#paint2_linear_12487_45329)"/>
<rect opacity="0.07" x="-340.307" y="-180" width="160" height="1600" transform="rotate(-30 -340.307 -180)" fill="url(#paint3_linear_12487_45329)"/>
<rect opacity="0.07" x="-155.742" y="-180" width="160" height="1600" transform="rotate(-30 -155.742 -180)" fill="url(#paint4_linear_12487_45329)"/>
<rect opacity="0.07" x="28.8223" y="-180" width="160" height="1600" transform="rotate(-30 28.8223 -180)" fill="url(#paint5_linear_12487_45329)"/>
<rect opacity="0.07" x="213.387" y="-180" width="160" height="1600" transform="rotate(-30 213.387 -180)" fill="url(#paint6_linear_12487_45329)"/>
<rect opacity="0.07" x="397.951" y="-180" width="160" height="1600" transform="rotate(-30 397.951 -180)" fill="url(#paint7_linear_12487_45329)"/>
<rect opacity="0.07" x="582.516" y="-180" width="160" height="1600" transform="rotate(-30 582.516 -180)" fill="url(#paint8_linear_12487_45329)"/>
<rect opacity="0.07" x="767.08" y="-180" width="160" height="1600" transform="rotate(-30 767.08 -180)" fill="url(#paint9_linear_12487_45329)"/>
<rect opacity="0.07" x="951.645" y="-180" width="160" height="1600" transform="rotate(-30 951.645 -180)" fill="url(#paint10_linear_12487_45329)"/>
<rect opacity="0.07" x="1136.21" y="-180" width="160" height="1600" transform="rotate(-30 1136.21 -180)" fill="url(#paint11_linear_12487_45329)"/>
<rect opacity="0.07" x="1320.77" y="-180" width="160" height="1600" transform="rotate(-30 1320.77 -180)" fill="url(#paint12_linear_12487_45329)"/>
<rect opacity="0.07" x="1505.34" y="-180" width="160" height="1600" transform="rotate(-30 1505.34 -180)" fill="url(#paint13_linear_12487_45329)"/>
<rect opacity="0.07" x="1689.9" y="-180" width="160" height="1600" transform="rotate(-30 1689.9 -180)" fill="url(#paint14_linear_12487_45329)"/>
<rect opacity="0.07" x="1874.47" y="-180" width="160" height="1600" transform="rotate(-30 1874.47 -180)" fill="url(#paint15_linear_12487_45329)"/>
</g>
<rect width="1920" height="648" fill="url(#paint16_radial_12487_45329)"/>
<defs>
<linearGradient id="paint0_linear_12487_45329" x1="-894" y1="532" x2="-814" y2="532" gradientUnits="userSpaceOnUse">
<stop stop-color="white"/>
<stop offset="1" stop-color="white" stop-opacity="0"/>
</linearGradient>
<linearGradient id="paint1_linear_12487_45329" x1="-709.436" y1="532" x2="-629.436" y2="532" gradientUnits="userSpaceOnUse">
<stop stop-color="white"/>
<stop offset="1" stop-color="white" stop-opacity="0"/>
</linearGradient>
<linearGradient id="paint2_linear_12487_45329" x1="-524.871" y1="532" x2="-444.871" y2="532" gradientUnits="userSpaceOnUse">
<stop stop-color="white"/>
<stop offset="1" stop-color="white" stop-opacity="0"/>
</linearGradient>
<linearGradient id="paint3_linear_12487_45329" x1="-340.307" y1="532" x2="-260.307" y2="532" gradientUnits="userSpaceOnUse">
<stop stop-color="white"/>
<stop offset="1" stop-color="white" stop-opacity="0"/>
</linearGradient>
<linearGradient id="paint4_linear_12487_45329" x1="-155.742" y1="532" x2="-75.7422" y2="532" gradientUnits="userSpaceOnUse">
<stop stop-color="white"/>
<stop offset="1" stop-color="white" stop-opacity="0"/>
</linearGradient>
<linearGradient id="paint5_linear_12487_45329" x1="28.8223" y1="532" x2="108.822" y2="532" gradientUnits="userSpaceOnUse">
<stop stop-color="white"/>
<stop offset="1" stop-color="white" stop-opacity="0"/>
</linearGradient>
<linearGradient id="paint6_linear_12487_45329" x1="213.387" y1="532" x2="293.387" y2="532" gradientUnits="userSpaceOnUse">
<stop stop-color="white"/>
<stop offset="1" stop-color="white" stop-opacity="0"/>
</linearGradient>
<linearGradient id="paint7_linear_12487_45329" x1="397.951" y1="532" x2="477.951" y2="532" gradientUnits="userSpaceOnUse">
<stop stop-color="white"/>
<stop offset="1" stop-color="white" stop-opacity="0"/>
</linearGradient>
<linearGradient id="paint8_linear_12487_45329" x1="582.516" y1="532" x2="662.516" y2="532" gradientUnits="userSpaceOnUse">
<stop stop-color="white"/>
<stop offset="1" stop-color="white" stop-opacity="0"/>
</linearGradient>
<linearGradient id="paint9_linear_12487_45329" x1="767.08" y1="532" x2="847.08" y2="532" gradientUnits="userSpaceOnUse">
<stop stop-color="white"/>
<stop offset="1" stop-color="white" stop-opacity="0"/>
</linearGradient>
<linearGradient id="paint10_linear_12487_45329" x1="951.645" y1="532" x2="1031.64" y2="532" gradientUnits="userSpaceOnUse">
<stop stop-color="white"/>
<stop offset="1" stop-color="white" stop-opacity="0"/>
</linearGradient>
<linearGradient id="paint11_linear_12487_45329" x1="1136.21" y1="532" x2="1216.21" y2="532" gradientUnits="userSpaceOnUse">
<stop stop-color="white"/>
<stop offset="1" stop-color="white" stop-opacity="0"/>
</linearGradient>
<linearGradient id="paint12_linear_12487_45329" x1="1320.77" y1="532" x2="1400.77" y2="532" gradientUnits="userSpaceOnUse">
<stop stop-color="white"/>
<stop offset="1" stop-color="white" stop-opacity="0"/>
</linearGradient>
<linearGradient id="paint13_linear_12487_45329" x1="1505.34" y1="532" x2="1585.34" y2="532" gradientUnits="userSpaceOnUse">
<stop stop-color="white"/>
<stop offset="1" stop-color="white" stop-opacity="0"/>
</linearGradient>
<linearGradient id="paint14_linear_12487_45329" x1="1689.9" y1="532" x2="1769.9" y2="532" gradientUnits="userSpaceOnUse">
<stop stop-color="white"/>
<stop offset="1" stop-color="white" stop-opacity="0"/>
</linearGradient>
<linearGradient id="paint15_linear_12487_45329" x1="1874.47" y1="532" x2="1954.47" y2="532" gradientUnits="userSpaceOnUse">
<stop stop-color="white"/>
<stop offset="1" stop-color="white" stop-opacity="0"/>
</linearGradient>
<radialGradient id="paint16_radial_12487_45329" cx="0" cy="0" r="1" gradientUnits="userSpaceOnUse" gradientTransform="translate(960 324) rotate(90) scale(324 960)">
<stop stop-opacity="0"/>
<stop offset="1"/>
</radialGradient>
</defs>
</svg>
