<svg width="40" height="40" viewBox="0 0 40 40" fill="none" xmlns="http://www.w3.org/2000/svg">
<path d="M0 8.75C0 3.91751 3.91751 0 8.75 0H31.25C36.0825 0 40 3.91751 40 8.75V31.25C40 36.0825 36.0825 40 31.25 40H8.75C3.91751 40 0 36.0825 0 31.25V8.75Z" fill="black"/>
<path d="M22.531 23.9259V23.0855H30.1263V24.7663H22.531V23.9259ZM22.531 17.2024V16.362H31.8127V18.0428H22.531V17.2024ZM32.6563 14.6808H20.8437V26.4471H31.8127V21.4043H22.531V19.7235H33.5V14.6808H32.6563ZM9.87475 23.9259V23.0855H17.4699V24.7663H9.87475V23.9259ZM8.18737 17.2024V16.362H17.469V18.0428H8.18737V17.2024ZM19.1563 13V14.6808H6.5V19.7235H17.469V21.4043H8.18737V26.4471H19.1563V14.6808H20.8437V13H19.1563Z" fill="white"/>
</svg>
