<svg width="40" height="40" viewBox="0 0 40 40" fill="none" xmlns="http://www.w3.org/2000/svg">
<path d="M0 8.75C0 3.91751 3.91751 0 8.75 0H31.25C36.0825 0 40 3.91751 40 8.75V31.25C40 36.0825 36.0825 40 31.25 40H8.75C3.91751 40 0 36.0825 0 31.25V8.75Z" fill="#0042DA"/>
<path d="M11.8013 16.8016C11.8013 18.0166 10.8163 19.0016 9.60131 19.0016C8.38628 19.0016 7.40131 18.0166 7.40131 16.8016C7.40131 15.5865 8.38628 14.6016 9.60131 14.6016C10.8163 14.6016 11.8013 15.5865 11.8013 16.8016Z" fill="#FF8E20"/>
<path d="M32.599 23.2039C32.599 24.4189 31.614 25.4039 30.399 25.4039C29.1839 25.4039 28.199 24.4189 28.199 23.2039C28.199 21.9889 29.1839 21.0039 30.399 21.0039C31.614 21.0039 32.599 21.9889 32.599 23.2039Z" fill="white"/>
<path d="M13.199 15.8016C13.199 15.1388 13.7362 14.6016 14.399 14.6016H31.399C32.0617 14.6016 32.599 15.1388 32.599 15.8016V17.8016C32.599 18.4643 32.0617 19.0016 31.399 19.0016H14.399C13.7362 19.0016 13.199 18.4643 13.199 17.8016V15.8016Z" fill="#FF8E20"/>
<path d="M7.40131 22.2039C7.40131 21.5412 7.93856 21.0039 8.60131 21.0039H25.6013C26.264 21.0039 26.8013 21.5412 26.8013 22.2039V24.2039C26.8013 24.8666 26.264 25.4039 25.6013 25.4039H8.60131C7.93856 25.4039 7.40131 24.8666 7.40131 24.2039V22.2039Z" fill="white"/>
</svg>
