<svg width="35" height="34" viewBox="0 0 35 34" fill="none" xmlns="http://www.w3.org/2000/svg">
<g clip-path="url(#clip0_19893_16970)">
<path d="M25.9335 28.5482C25.9147 28.5046 24.0798 24.0867 24.9282 20.9205L26.4999 15.0547C27.0954 12.8323 26.7837 10.4643 25.6333 8.47174C24.4829 6.47917 22.588 5.0252 20.3656 4.42971C18.1432 3.83421 15.7752 4.14596 13.7826 5.29637C11.79 6.44678 10.3361 8.34163 9.74058 10.5641L8.16886 16.4298C7.32046 19.5961 3.52251 22.5046 3.48436 22.533C3.41959 22.582 3.36989 22.6482 3.34091 22.7241C3.31193 22.8 3.30485 22.8825 3.32046 22.9622C3.33607 23.0419 3.37375 23.1157 3.42921 23.175C3.48467 23.2344 3.55568 23.277 3.63416 23.2979L25.4213 29.1358C25.4998 29.1569 25.5825 29.1555 25.6603 29.1318C25.738 29.1081 25.8075 29.0631 25.8608 29.0019C25.9142 28.9407 25.9493 28.8657 25.9622 28.7855C25.975 28.7053 25.9651 28.6231 25.9335 28.5482Z" fill="black"/>
<path d="M11.4062 26.2773C11.3195 27.0017 11.4969 27.7331 11.9057 28.3373C12.3146 28.9416 12.9276 29.3781 13.6323 29.5669C14.337 29.7558 15.0862 29.6842 15.7424 29.3654C16.3986 29.0465 16.9179 28.5018 17.205 27.8311L11.4062 26.2773Z" fill="black"/>
</g>
<circle cx="27.021" cy="8.51709" r="6.36187" fill="black" stroke="white" stroke-width="1.92784"/>
<defs>
<clipPath id="clip0_19893_16970">
<rect width="27.7609" height="27.7609" fill="white" transform="translate(7.18555) rotate(15)"/>
</clipPath>
</defs>
</svg>
