<svg width="32" height="32" viewBox="0 0 32 32" fill="none" xmlns="http://www.w3.org/2000/svg">
<g clip-path="url(#clip0_19894_17464)">
<path d="M22.6667 22.6667H21.144C21.0202 22.1893 20.8295 21.7318 20.5773 21.308L21.6573 20.228C21.7847 20.105 21.8863 19.9579 21.9561 19.7952C22.026 19.6325 22.0628 19.4576 22.0643 19.2805C22.0659 19.1035 22.0321 18.9279 21.9651 18.7641C21.8981 18.6002 21.7991 18.4513 21.6739 18.3261C21.5487 18.2009 21.3998 18.1019 21.2359 18.0349C21.0721 17.9679 20.8965 17.9341 20.7195 17.9357C20.5424 17.9372 20.3675 17.974 20.2048 18.0439C20.0421 18.1137 19.895 18.2153 19.772 18.3427L18.692 19.4227C18.2682 19.1705 17.8107 18.9798 17.3333 18.856V17.3333C17.3333 16.9797 17.1929 16.6406 16.9428 16.3905C16.6928 16.1405 16.3536 16 16 16C15.6464 16 15.3072 16.1405 15.0572 16.3905C14.8071 16.6406 14.6667 16.9797 14.6667 17.3333V18.856C14.1893 18.9798 13.7318 19.1705 13.308 19.4227L12.228 18.3427C12.105 18.2153 11.9579 18.1137 11.7952 18.0439C11.6325 17.974 11.4576 17.9372 11.2805 17.9357C11.1035 17.9341 10.9279 17.9679 10.7641 18.0349C10.6002 18.1019 10.4513 18.2009 10.3261 18.3261C10.2009 18.4513 10.1019 18.6002 10.0349 18.7641C9.96786 18.9279 9.93413 19.1035 9.93567 19.2805C9.9372 19.4576 9.97399 19.6325 10.0439 19.7952C10.1137 19.9579 10.2153 20.105 10.3427 20.228L11.4227 21.308C11.1705 21.7318 10.9798 22.1893 10.856 22.6667H9.33333C8.97971 22.6667 8.64057 22.8071 8.39052 23.0572C8.14048 23.3072 8 23.6464 8 24C8 24.3536 8.14048 24.6928 8.39052 24.9428C8.64057 25.1929 8.97971 25.3333 9.33333 25.3333H10.856C10.9798 25.8107 11.1705 26.2682 11.4227 26.692L10.3427 27.772C10.2153 27.895 10.1137 28.0421 10.0439 28.2048C9.97399 28.3675 9.9372 28.5424 9.93567 28.7195C9.93413 28.8965 9.96786 29.0721 10.0349 29.2359C10.1019 29.3998 10.2009 29.5487 10.3261 29.6739C10.4513 29.7991 10.6002 29.8981 10.7641 29.9651C10.9279 30.0321 11.1035 30.0659 11.2805 30.0643C11.4576 30.0628 11.6325 30.026 11.7952 29.9561C11.9579 29.8863 12.105 29.7847 12.228 29.6573L13.308 28.5773C13.7318 28.8295 14.1893 29.0202 14.6667 29.144V30.6667C14.6667 31.0203 14.8071 31.3594 15.0572 31.6095C15.3072 31.8595 15.6464 32 16 32C16.3536 32 16.6928 31.8595 16.9428 31.6095C17.1929 31.3594 17.3333 31.0203 17.3333 30.6667V29.144C17.8107 29.0202 18.2682 28.8295 18.692 28.5773L19.772 29.6573C19.895 29.7847 20.0421 29.8863 20.2048 29.9561C20.3675 30.026 20.5424 30.0628 20.7195 30.0643C20.8965 30.0659 21.0721 30.0321 21.2359 29.9651C21.3998 29.8981 21.5487 29.7991 21.6739 29.6739C21.7991 29.5487 21.8981 29.3998 21.9651 29.2359C22.0321 29.0721 22.0659 28.8965 22.0643 28.7195C22.0628 28.5424 22.026 28.3675 21.9561 28.2048C21.8863 28.0421 21.7847 27.895 21.6573 27.772L20.5773 26.692C20.8295 26.2682 21.0202 25.8107 21.144 25.3333H22.6667C23.0203 25.3333 23.3594 25.1929 23.6095 24.9428C23.8595 24.6928 24 24.3536 24 24C24 23.6464 23.8595 23.3072 23.6095 23.0572C23.3594 22.8071 23.0203 22.6667 22.6667 22.6667ZM16 26.6667C15.4726 26.6667 14.957 26.5103 14.5185 26.2173C14.0799 25.9242 13.7382 25.5078 13.5363 25.0205C13.3345 24.5332 13.2817 23.997 13.3846 23.4798C13.4875 22.9625 13.7414 22.4873 14.1144 22.1144C14.4873 21.7414 14.9625 21.4875 15.4798 21.3846C15.997 21.2817 16.5332 21.3345 17.0205 21.5363C17.5078 21.7382 17.9242 22.0799 18.2173 22.5185C18.5103 22.957 18.6667 23.4726 18.6667 24C18.6667 24.7072 18.3857 25.3855 17.8856 25.8856C17.3855 26.3857 16.7072 26.6667 16 26.6667Z" fill="black"/>
<path d="M20 4.00093C20.003 3.26691 19.804 2.5462 19.4248 1.91773C19.0455 1.28927 18.5007 0.777269 17.8498 0.437811C17.199 0.0983532 16.4673 -0.0554754 15.7349 -0.00683013C15.0025 0.0418152 14.2976 0.291059 13.6974 0.713607C13.0972 1.13616 12.6248 1.71571 12.332 2.38882C12.0392 3.06192 11.9373 3.80262 12.0374 4.52979C12.1374 5.25697 12.4357 5.94258 12.8995 6.51155C13.3632 7.08052 13.9746 7.51092 14.6666 7.7556V12.0009C14.6666 12.3546 14.8071 12.6937 15.0572 12.9437C15.3072 13.1938 15.6463 13.3343 16 13.3343C16.3536 13.3343 16.6927 13.1938 16.9428 12.9437C17.1928 12.6937 17.3333 12.3546 17.3333 12.0009V7.7556C18.1105 7.48082 18.7838 6.97263 19.2612 6.30053C19.7385 5.62844 19.9966 4.82528 20 4.00093Z" fill="black"/>
<path d="M8.36134 14.4756L5.33334 11.4489V7.75561C6.22296 7.44108 6.97275 6.82219 7.45018 6.0083C7.92762 5.19442 8.10196 4.23796 7.9424 3.30797C7.78284 2.37797 7.29965 1.53433 6.57822 0.926138C5.8568 0.317948 4.94359 -0.015625 4.00001 -0.015625C3.05643 -0.015625 2.14322 0.317948 1.42179 0.926138C0.70037 1.53433 0.217176 2.37797 0.057614 3.30797C-0.101948 4.23796 0.0723967 5.19442 0.549833 6.0083C1.02727 6.82219 1.77706 7.44108 2.66667 7.75561V12.0009C2.66675 12.3545 2.80728 12.6936 3.05734 12.9436L6.47601 16.3623C6.59989 16.4861 6.74694 16.5843 6.90876 16.6512C7.07059 16.7182 7.24401 16.7526 7.41915 16.7525C7.59428 16.7525 7.76768 16.7179 7.92946 16.6509C8.09123 16.5838 8.23822 16.4855 8.36201 16.3616C8.4858 16.2377 8.58398 16.0907 8.65094 15.9289C8.71791 15.767 8.75234 15.5936 8.75228 15.4185C8.75222 15.2433 8.71766 15.0699 8.65058 14.9082C8.58351 14.7464 8.48522 14.5994 8.36134 14.4756Z" fill="black"/>
<path d="M32.0003 4.00093C32.0034 3.26691 31.8044 2.5462 31.4251 1.91773C31.0459 1.28927 30.501 0.777269 29.8502 0.437811C29.1994 0.0983532 28.4677 -0.0554754 27.7353 -0.00683013C27.0028 0.0418152 26.2979 0.291059 25.6977 0.713607C25.0975 1.13616 24.6252 1.71571 24.3324 2.38882C24.0396 3.06192 23.9376 3.80262 24.0377 4.52979C24.1378 5.25697 24.4361 5.94258 24.8998 6.51155C25.3636 7.08052 25.9749 7.51092 26.667 7.7556V11.4489L23.639 14.4756C23.3888 14.7256 23.2482 15.0648 23.248 15.4185C23.2479 15.7722 23.3883 16.1114 23.6383 16.3616C23.8883 16.6118 24.2275 16.7524 24.5812 16.7525C24.9349 16.7527 25.2741 16.6123 25.5243 16.3623L28.943 12.9436C29.1931 12.6936 29.3336 12.3545 29.3337 12.0009V7.7556C30.1109 7.48082 30.7842 6.97263 31.2615 6.30053C31.7389 5.62844 31.9969 4.82528 32.0003 4.00093Z" fill="black"/>
</g>
<defs>
<clipPath id="clip0_19894_17464">
<rect width="32" height="32" fill="white"/>
</clipPath>
</defs>
</svg>
