<svg width="30" height="30" viewBox="0 0 30 30" fill="none" xmlns="http://www.w3.org/2000/svg">
<path d="M12.1875 1.875H2.8125C2.56386 1.875 2.3254 1.97377 2.14959 2.14959C1.97377 2.3254 1.875 2.56386 1.875 2.8125V12.1875C1.875 12.4361 1.97377 12.6746 2.14959 12.8504C2.3254 13.0262 2.56386 13.125 2.8125 13.125H12.1875C12.4361 13.125 12.6746 13.0262 12.8504 12.8504C13.0262 12.6746 13.125 12.4361 13.125 12.1875V2.8125C13.125 2.56386 13.0262 2.3254 12.8504 2.14959C12.6746 1.97377 12.4361 1.875 12.1875 1.875Z" fill="black"/>
<path d="M29.7193 6.83699L23.1568 0.274487C22.9809 0.0987332 22.7425 0 22.4939 0C22.2453 0 22.0069 0.0987332 21.8311 0.274487L15.2686 6.83699C15.0929 7.01279 14.9941 7.25121 14.9941 7.4998C14.9941 7.74839 15.0929 7.9868 15.2686 8.16261L21.8311 14.7251C22.0069 14.9009 22.2453 14.9996 22.4939 14.9996C22.7425 14.9996 22.9809 14.9009 23.1568 14.7251L29.7193 8.16261C29.895 7.9868 29.9937 7.74839 29.9937 7.4998C29.9937 7.25121 29.895 7.01279 29.7193 6.83699Z" fill="black"/>
<path d="M27.1875 16.875H17.8125C17.5639 16.875 17.3254 16.9738 17.1496 17.1496C16.9738 17.3254 16.875 17.5639 16.875 17.8125V27.1875C16.875 27.4361 16.9738 27.6746 17.1496 27.8504C17.3254 28.0262 17.5639 28.125 17.8125 28.125H27.1875C27.4361 28.125 27.6746 28.0262 27.8504 27.8504C28.0262 27.6746 28.125 27.4361 28.125 27.1875V17.8125C28.125 17.5639 28.0262 17.3254 27.8504 17.1496C27.6746 16.9738 27.4361 16.875 27.1875 16.875Z" fill="black"/>
<path d="M12.1875 16.875H2.8125C2.56386 16.875 2.3254 16.9738 2.14959 17.1496C1.97377 17.3254 1.875 17.5639 1.875 17.8125V27.1875C1.875 27.4361 1.97377 27.6746 2.14959 27.8504C2.3254 28.0262 2.56386 28.125 2.8125 28.125H12.1875C12.4361 28.125 12.6746 28.0262 12.8504 27.8504C13.0262 27.6746 13.125 27.4361 13.125 27.1875V17.8125C13.125 17.5639 13.0262 17.3254 12.8504 17.1496C12.6746 16.9738 12.4361 16.875 12.1875 16.875Z" fill="black"/>
</svg>
