<svg width="842" height="560" viewBox="0 0 842 560" fill="none" xmlns="http://www.w3.org/2000/svg">
<rect width="842" height="560" rx="20" fill="url(#paint0_linear_174_711)"/>
<rect x="32.5" y="112.5" width="372" height="191" rx="7.5" fill="black" stroke="#262626"/>
<path d="M404 206.048C373.75 197.256 343.373 188.193 311.25 185.08C280.333 182.085 249.417 185.08 218.5 197.062C187.583 209.044 156.667 230.012 125.75 237.5C94.6297 245.038 63.5216 238.922 33 233.007" stroke="#666666" stroke-linecap="round"/>
<path d="M33 207.697C63.2496 218.186 93.6266 228.998 125.75 232.711C156.667 236.285 187.583 232.711 218.5 218.417C249.417 204.123 280.333 179.109 311.25 170.175C342.37 161.182 373.478 168.48 404 175.535" stroke="url(#paint1_linear_174_711)" stroke-linecap="round"/>
<path d="M33 250.98C63.2496 257.767 93.6266 264.764 125.75 267.166C156.667 269.478 187.583 267.166 218.5 257.917C249.417 248.668 280.333 232.482 311.25 226.701C342.37 220.883 373.478 225.604 404 230.17" stroke="#666666" stroke-linecap="round"/>
<path d="M279 303V184H33" stroke="#666666" stroke-dasharray="3 3"/>
<circle cx="279" cy="184" r="8.5" fill="black" stroke="#FFF04D" stroke-width="3"/>
<rect x="52" y="132" width="160" height="10" rx="5" fill="#262626"/>
<rect x="32.5" y="336.5" width="372" height="191" rx="7.5" stroke="#1A1A1A"/>
<circle cx="219" cy="447" r="44" stroke="#333333"/>
<path opacity="0.4" d="M204.572 460L216.2 434.08H200.54V435.556H213.788L202.772 460H204.572ZM220.718 458.596C222.482 459.856 224.57 460.432 226.694 460.432C231.734 460.432 235.478 457.264 235.478 452.332C235.478 447.4 231.662 444.016 226.946 444.016C224.894 444.016 223.742 444.412 223.13 444.664L223.526 435.556H233.714V434.08H222.014L221.474 446.716C222.05 446.428 223.85 445.528 226.874 445.528C230.69 445.528 233.822 448.3 233.822 452.332C233.822 456.364 230.798 458.92 226.694 458.92C224.246 458.92 222.446 458.2 220.718 456.904V458.596Z" fill="white"/>
<path d="M175 447C175 471.301 194.699 491 219 491C243.301 491 263 471.301 263 447C263 422.699 243.301 403 219 403" stroke="#999999" stroke-linecap="round"/>
<circle cx="103" cy="447" r="44" stroke="#333333"/>
<path opacity="0.4" d="M85.728 437.248C87.348 435.988 89.292 435.16 91.56 435.16C95.016 435.16 97.464 437.608 97.464 441.136C97.464 445.816 93.576 450.064 84.54 460H100.308V458.524H87.888C94.692 450.964 99.12 446.392 99.12 441.172C99.12 436.744 95.952 433.648 91.56 433.648C89.436 433.648 87.528 434.332 85.728 435.592V437.248ZM105.527 458.596C107.291 459.856 109.379 460.432 111.503 460.432C116.543 460.432 120.287 457.264 120.287 452.332C120.287 447.4 116.471 444.016 111.755 444.016C109.703 444.016 108.551 444.412 107.939 444.664L108.335 435.556H118.523V434.08H106.823L106.283 446.716C106.859 446.428 108.659 445.528 111.683 445.528C115.499 445.528 118.631 448.3 118.631 452.332C118.631 456.364 115.607 458.92 111.503 458.92C109.055 458.92 107.255 458.2 105.527 456.904V458.596Z" fill="white"/>
<path d="M147 447C147 422.699 127.301 403 103 403" stroke="#999999" stroke-linecap="round"/>
<circle cx="335" cy="447" r="44" stroke="#333333"/>
<path opacity="0.4" d="M315.98 458.596C317.744 459.856 319.832 460.432 321.956 460.432C326.996 460.432 330.74 457.264 330.74 452.332C330.74 447.4 326.924 444.016 322.208 444.016C320.156 444.016 319.004 444.412 318.392 444.664L318.788 435.556H328.976V434.08H317.276L316.736 446.716C317.312 446.428 319.112 445.528 322.136 445.528C325.952 445.528 329.084 448.3 329.084 452.332C329.084 456.364 326.06 458.92 321.956 458.92C319.508 458.92 317.708 458.2 315.98 456.904V458.596ZM335.777 447.04C335.777 454.78 339.377 460.432 344.957 460.432C350.573 460.432 354.137 454.78 354.137 447.04C354.137 439.408 350.573 433.648 344.957 433.648C339.377 433.648 335.777 439.408 335.777 447.04ZM337.433 447.04C337.433 440.092 340.385 435.16 344.957 435.16C349.529 435.16 352.481 440.092 352.481 447.04C352.481 454.06 349.529 458.92 344.957 458.92C340.385 458.92 337.433 454.06 337.433 447.04Z" fill="white"/>
<path d="M335 491C359.301 491 379 471.301 379 447C379 422.699 359.301 403 335 403" stroke="#999999" stroke-linecap="round"/>
<rect x="52" y="356" width="120" height="10" rx="5" fill="#262626"/>
<rect x="437" y="112" width="373" height="416" rx="8" fill="#1A1A1A"/>
<path d="M634.05 514V503.995H637.365C637.995 503.995 638.53 504.09 638.97 504.28C639.41 504.47 639.765 504.715 640.035 505.015C640.305 505.315 640.5 505.64 640.62 505.99C640.75 506.33 640.815 506.66 640.815 506.98C640.815 507.61 640.675 508.17 640.395 508.66C640.115 509.14 639.695 509.525 639.135 509.815L641.445 514H639.315L637.29 510.055H635.865V514H634.05ZM635.865 508.495H637.38C637.86 508.495 638.23 508.355 638.49 508.075C638.76 507.795 638.895 507.455 638.895 507.055C638.895 506.625 638.755 506.275 638.475 506.005C638.195 505.735 637.83 505.6 637.38 505.6H635.865V508.495ZM647.713 511.9L648.673 512.98C648.643 513.01 648.558 513.095 648.418 513.235C648.288 513.365 648.093 513.51 647.833 513.67C647.583 513.82 647.258 513.95 646.858 514.06C646.468 514.18 645.998 514.24 645.448 514.24C644.698 514.24 644.043 514.08 643.483 513.76C642.933 513.43 642.503 512.975 642.193 512.395C641.883 511.815 641.728 511.15 641.728 510.4C641.728 509.71 641.878 509.09 642.178 508.54C642.488 507.98 642.908 507.54 643.438 507.22C643.978 506.89 644.598 506.725 645.298 506.725C645.948 506.725 646.493 506.84 646.933 507.07C647.373 507.3 647.728 507.61 647.998 508C648.268 508.38 648.463 508.81 648.583 509.29C648.703 509.77 648.763 510.26 648.763 510.76V511.015H643.513C643.513 511.355 643.608 511.655 643.798 511.915C643.998 512.165 644.248 512.365 644.548 512.515C644.848 512.655 645.153 512.725 645.463 512.725C645.923 512.725 646.303 512.675 646.603 512.575C646.903 512.465 647.143 512.345 647.323 512.215C647.503 512.085 647.633 511.98 647.713 511.9ZM643.498 509.74H646.948C646.948 509.5 646.883 509.265 646.753 509.035C646.633 508.795 646.453 508.6 646.213 508.45C645.973 508.29 645.668 508.21 645.298 508.21C644.908 508.21 644.578 508.29 644.308 508.45C644.048 508.6 643.848 508.795 643.708 509.035C643.568 509.265 643.498 509.5 643.498 509.74ZM650.13 514V503.995H651.9V514H650.13ZM657.845 514L657.8 513.34C657.61 513.57 657.315 513.775 656.915 513.955C656.525 514.135 656.095 514.225 655.625 514.225C655.245 514.225 654.865 514.145 654.485 513.985C654.115 513.825 653.805 513.575 653.555 513.235C653.315 512.895 653.195 512.465 653.195 511.945C653.195 511.145 653.48 510.525 654.05 510.085C654.62 509.645 655.365 509.425 656.285 509.425C656.455 509.425 656.655 509.43 656.885 509.44C657.125 509.45 657.43 509.465 657.8 509.485V509.32C657.8 508.97 657.66 508.695 657.38 508.495C657.1 508.295 656.735 508.195 656.285 508.195C655.785 508.195 655.385 508.26 655.085 508.39C654.785 508.52 654.52 508.66 654.29 508.81L653.48 507.61C653.67 507.47 653.895 507.335 654.155 507.205C654.415 507.065 654.735 506.95 655.115 506.86C655.495 506.77 655.965 506.725 656.525 506.725C657.425 506.725 658.145 506.965 658.685 507.445C659.225 507.915 659.495 508.525 659.495 509.275V514H657.845ZM657.8 511.51V510.82C657.57 510.8 657.32 510.785 657.05 510.775C656.78 510.765 656.575 510.76 656.435 510.76C655.865 510.76 655.465 510.875 655.235 511.105C655.005 511.325 654.89 511.58 654.89 511.87C654.89 512.17 654.995 512.405 655.205 512.575C655.425 512.745 655.745 512.83 656.165 512.83C656.445 512.83 656.705 512.77 656.945 512.65C657.195 512.53 657.4 512.37 657.56 512.17C657.72 511.97 657.8 511.75 657.8 511.51ZM660.474 516.64L661.269 515.395C661.369 515.475 661.479 515.55 661.599 515.62C661.719 515.7 661.869 515.74 662.049 515.74C662.289 515.74 662.489 515.64 662.649 515.44C662.809 515.24 662.969 514.93 663.129 514.51L663.354 513.94L660.189 506.965H662.229L664.239 511.78L666.009 506.965H667.944L665.004 514C664.864 514.34 664.719 514.695 664.569 515.065C664.429 515.445 664.259 515.79 664.059 516.1C663.869 516.42 663.624 516.68 663.324 516.88C663.024 517.08 662.639 517.18 662.169 517.18C661.769 517.18 661.434 517.13 661.164 517.03C660.904 516.93 660.674 516.8 660.474 516.64ZM674.256 511.9L675.216 512.98C675.186 513.01 675.101 513.095 674.961 513.235C674.831 513.365 674.636 513.51 674.376 513.67C674.126 513.82 673.801 513.95 673.401 514.06C673.011 514.18 672.541 514.24 671.991 514.24C671.241 514.24 670.586 514.08 670.026 513.76C669.476 513.43 669.046 512.975 668.736 512.395C668.426 511.815 668.271 511.15 668.271 510.4C668.271 509.71 668.421 509.09 668.721 508.54C669.031 507.98 669.451 507.54 669.981 507.22C670.521 506.89 671.141 506.725 671.841 506.725C672.491 506.725 673.036 506.84 673.476 507.07C673.916 507.3 674.271 507.61 674.541 508C674.811 508.38 675.006 508.81 675.126 509.29C675.246 509.77 675.306 510.26 675.306 510.76V511.015H670.056C670.056 511.355 670.151 511.655 670.341 511.915C670.541 512.165 670.791 512.365 671.091 512.515C671.391 512.655 671.696 512.725 672.006 512.725C672.466 512.725 672.846 512.675 673.146 512.575C673.446 512.465 673.686 512.345 673.866 512.215C674.046 512.085 674.176 511.98 674.256 511.9ZM670.041 509.74H673.491C673.491 509.5 673.426 509.265 673.296 509.035C673.176 508.795 672.996 508.6 672.756 508.45C672.516 508.29 672.211 508.21 671.841 508.21C671.451 508.21 671.121 508.29 670.851 508.45C670.591 508.6 670.391 508.795 670.251 509.035C670.111 509.265 670.041 509.5 670.041 509.74ZM681.578 514L681.533 513.31C681.353 513.51 681.088 513.715 680.738 513.925C680.398 514.135 679.963 514.24 679.433 514.24C678.923 514.24 678.433 514.1 677.963 513.82C677.493 513.54 677.103 513.13 676.793 512.59C676.493 512.04 676.343 511.38 676.343 510.61C676.343 510.06 676.423 509.575 676.583 509.155C676.743 508.735 676.943 508.385 677.183 508.105C677.453 507.785 677.753 507.535 678.083 507.355C678.413 507.165 678.738 507.03 679.058 506.95C679.378 506.86 679.653 506.815 679.883 506.815C680.193 506.815 680.433 506.83 680.603 506.86C680.783 506.88 680.938 506.915 681.068 506.965C681.208 507.005 681.363 507.06 681.533 507.13V503.995H683.288V514H681.578ZM681.533 510.88V508.72C681.223 508.47 680.738 508.345 680.078 508.345C679.738 508.345 679.448 508.415 679.208 508.555C678.978 508.685 678.778 508.86 678.608 509.08C678.288 509.5 678.128 510.01 678.128 510.61C678.128 511.21 678.278 511.71 678.578 512.11C678.878 512.51 679.313 512.71 679.883 512.71C680.293 512.71 680.618 512.615 680.858 512.425C681.098 512.235 681.268 512 681.368 511.72C681.478 511.43 681.533 511.15 681.533 510.88Z" fill="white"/>
<path d="M566.476 510.36C568.465 510.36 569.661 509.294 569.661 507.5C569.661 505.706 568.465 504.64 566.476 504.64H563.603V514H564.851V510.36H566.476ZM566.437 505.693C567.659 505.693 568.387 506.369 568.387 507.5C568.387 508.631 567.698 509.307 566.541 509.307H564.851V505.693H566.437ZM573.963 507.344C572.039 507.344 570.622 508.787 570.622 510.75C570.622 512.713 572.039 514.156 573.963 514.156C575.9 514.156 577.317 512.713 577.317 510.75C577.317 508.787 575.9 507.344 573.963 507.344ZM573.963 513.103C572.715 513.103 571.792 512.128 571.792 510.75C571.792 509.372 572.715 508.397 573.963 508.397C575.224 508.397 576.147 509.372 576.147 510.75C576.147 512.128 575.224 513.103 573.963 513.103ZM583.314 507.591H582.651L581 512.219L579.232 507.5H577.945L580.675 514.156H581.338L582.976 509.723L584.614 514.156H585.277L588.007 507.5H586.733L584.952 512.219L583.314 507.591ZM591.822 507.344C590.028 507.344 588.637 508.787 588.637 510.75C588.637 512.765 590.028 514.156 592.082 514.156C593.135 514.156 594.006 513.883 594.513 513.597V512.492C593.967 512.843 593.044 513.103 592.16 513.103C590.795 513.103 589.937 512.297 589.898 511.023V511.01H594.734C594.734 510.88 594.76 510.633 594.76 510.373C594.76 508.774 593.733 507.344 591.822 507.344ZM593.564 510.152H589.911C590.015 509.216 590.691 508.358 591.809 508.358C592.966 508.358 593.577 509.216 593.564 510.152ZM596.455 514H597.664V511.166C597.664 509.905 598.392 508.514 599.653 508.514C599.822 508.514 599.939 508.54 599.991 508.553V507.383C599.939 507.37 599.783 507.344 599.601 507.344C598.665 507.344 597.976 507.968 597.599 508.891H597.586C597.573 508.852 597.612 508.657 597.599 508.41L597.586 507.5H596.455V514ZM607.387 504.64H606.178V507.994C606.178 508.332 606.217 508.527 606.217 508.527H606.191C605.84 507.916 604.982 507.344 603.929 507.344C602.239 507.344 600.939 508.709 600.939 510.75C600.939 512.765 602.239 514.156 603.955 514.156C605.008 514.156 605.918 513.48 606.256 512.752H606.282C606.282 512.752 606.243 512.947 606.243 513.233L606.269 514H607.387V504.64ZM604.124 508.397C605.099 508.397 606.165 509.125 606.165 510.75C606.165 512.375 605.099 513.103 604.124 513.103C602.915 513.103 602.109 512.102 602.109 510.75C602.109 509.372 602.915 508.397 604.124 508.397ZM613.19 514H614.308L614.334 513.233C614.334 512.947 614.295 512.752 614.295 512.752H614.321C614.659 513.48 615.569 514.156 616.622 514.156C618.338 514.156 619.638 512.765 619.638 510.75C619.638 508.709 618.338 507.344 616.648 507.344C615.595 507.344 614.737 507.916 614.386 508.527H614.36C614.36 508.527 614.399 508.332 614.399 507.994V504.64H613.19V514ZM616.453 508.397C617.662 508.397 618.468 509.372 618.468 510.75C618.468 512.102 617.662 513.103 616.453 513.103C615.478 513.103 614.412 512.375 614.412 510.75C614.412 509.125 615.478 508.397 616.453 508.397ZM620.258 516.899C620.401 516.964 620.752 517.016 621.09 517.016C622.806 517.016 623.534 515.833 624.418 513.701L626.979 507.5H625.64L624.743 509.853C624.431 510.659 623.963 511.959 623.638 512.7C623.3 511.751 622.91 510.802 622.546 509.853L621.636 507.5H620.297L623.014 513.922C622.52 515.105 622 515.976 620.96 515.976C620.635 515.976 620.401 515.937 620.258 515.898V516.899Z" fill="#4D4D4D"/>
<rect x="451" y="185" width="345" height="64" rx="4" fill="#262626"/>
<path fill-rule="evenodd" clip-rule="evenodd" d="M764 217C764 218.105 763.105 219 762 219C760.895 219 760 218.105 760 217C760 215.895 760.895 215 762 215C763.105 215 764 215.895 764 217ZM772 217C772 218.105 771.105 219 770 219C768.895 219 768 218.105 768 217C768 215.895 768.895 215 770 215C771.105 215 772 215.895 772 217ZM778 219C779.105 219 780 218.105 780 217C780 215.895 779.105 215 778 215C776.895 215 776 215.895 776 217C776 218.105 776.895 219 778 219Z" fill="#4D4D4D"/>
<path d="M477.16 200.48H475.624V207.856C475.624 209.68 474.536 210.768 472.712 210.768C470.904 210.768 469.816 209.68 469.816 207.856V200.48H468.28V207.968C468.28 210.608 469.944 212.192 472.712 212.192C475.496 212.192 477.16 210.608 477.16 207.968V200.48ZM479.659 204V212H481.147V208.064C481.147 206.432 482.267 205.184 483.835 205.184C485.163 205.184 485.355 206.176 485.355 207.28V212H486.843V206.976C486.843 204.976 486.075 203.808 484.107 203.808C482.411 203.808 481.355 205.008 481.051 205.728H481.019C481.035 205.696 481.083 205.456 481.083 205.12L481.051 204H479.659ZM489.407 212H490.895V208.512C490.895 206.96 491.791 205.248 493.343 205.248C493.551 205.248 493.695 205.28 493.759 205.296V203.856C493.695 203.84 493.503 203.808 493.279 203.808C492.127 203.808 491.279 204.576 490.815 205.712H490.799C490.783 205.664 490.831 205.424 490.815 205.12L490.799 204H489.407V212ZM498.845 203.808C496.637 203.808 494.925 205.584 494.925 208C494.925 210.48 496.637 212.192 499.165 212.192C500.461 212.192 501.533 211.856 502.157 211.504V210.144C501.485 210.576 500.349 210.896 499.261 210.896C497.581 210.896 496.525 209.904 496.477 208.336V208.32H502.429C502.429 208.16 502.461 207.856 502.461 207.536C502.461 205.568 501.197 203.808 498.845 203.808ZM500.989 207.264H496.493C496.621 206.112 497.453 205.056 498.829 205.056C500.253 205.056 501.005 206.112 500.989 207.264ZM504.575 205.776C505.055 205.488 506.079 205.104 507.183 205.104C508.447 205.104 509.279 205.584 509.279 206.976V207.376C505.935 206.912 504.063 207.888 504.063 209.84C504.063 211.312 505.119 212.192 506.591 212.192C508.399 212.192 509.279 210.64 509.375 210.416H509.407C509.407 210.416 509.343 210.672 509.359 211.056L509.375 212H510.751V206.896C510.751 204.896 509.647 203.808 507.391 203.808C506.079 203.808 505.023 204.16 504.575 204.4V205.776ZM506.847 210.992C506.047 210.992 505.535 210.496 505.535 209.792C505.535 208.704 506.639 208 509.247 208.416C509.247 209.664 508.207 210.992 506.847 210.992ZM520.642 200.48H519.154V204.608C519.154 205.024 519.202 205.264 519.202 205.264H519.17C518.738 204.512 517.682 203.808 516.386 203.808C514.306 203.808 512.706 205.488 512.706 208C512.706 210.48 514.306 212.192 516.418 212.192C517.714 212.192 518.834 211.36 519.25 210.464H519.282C519.282 210.464 519.234 210.704 519.234 211.056L519.266 212H520.642V200.48ZM516.626 205.104C517.826 205.104 519.138 206 519.138 208C519.138 210 517.826 210.896 516.626 210.896C515.138 210.896 514.146 209.664 514.146 208C514.146 206.304 515.138 205.104 516.626 205.104ZM527.784 204V212H529.272V208.064C529.272 206.432 530.392 205.184 531.96 205.184C533.288 205.184 533.48 206.176 533.48 207.28V212H534.968V206.976C534.968 204.976 534.2 203.808 532.232 203.808C530.536 203.808 529.48 205.008 529.176 205.728H529.144C529.16 205.696 529.208 205.456 529.208 205.12L529.176 204H527.784ZM541.084 203.808C538.716 203.808 536.972 205.584 536.972 208C536.972 210.416 538.716 212.192 541.084 212.192C543.468 212.192 545.212 210.416 545.212 208C545.212 205.584 543.468 203.808 541.084 203.808ZM541.084 210.896C539.548 210.896 538.412 209.696 538.412 208C538.412 206.304 539.548 205.104 541.084 205.104C542.636 205.104 543.772 206.304 543.772 208C543.772 209.696 542.636 210.896 541.084 210.896ZM546.288 204V205.216H547.6V209.808C547.6 211.6 548.816 212.192 549.968 212.192C550.752 212.192 551.408 212.016 551.76 211.824V210.528C551.312 210.736 550.752 210.88 550.256 210.88C549.584 210.88 549.072 210.496 549.072 209.36V205.216H551.488V204H549.072V201.6H547.616V204H546.288ZM553.409 204V212H554.897V204H553.409ZM553.217 201.68C553.217 202.208 553.585 202.576 554.145 202.576C554.689 202.576 555.073 202.208 555.073 201.68C555.073 201.136 554.689 200.768 554.145 200.768C553.585 200.768 553.217 201.136 553.217 201.68ZM556.855 204V205.216H558.039V212H559.527V205.216H561.607V204H559.479V203.232C559.479 202.16 560.103 201.584 561.127 201.584C561.511 201.584 561.831 201.648 561.959 201.68V200.384C561.831 200.352 561.447 200.288 560.983 200.288C559.175 200.288 558.087 201.408 558.087 203.104V204H556.855ZM563.253 204V212H564.741V204H563.253ZM563.061 201.68C563.061 202.208 563.429 202.576 563.989 202.576C564.533 202.576 564.917 202.208 564.917 201.68C564.917 201.136 564.533 200.768 563.989 200.768C563.429 200.768 563.061 201.136 563.061 201.68ZM568.429 208C568.429 206.32 569.565 205.136 571.165 205.136C572.205 205.136 572.989 205.488 573.549 205.84V204.432C573.069 204.176 572.317 203.808 571.085 203.808C568.621 203.808 566.909 205.584 566.909 208C566.909 210.416 568.621 212.192 571.085 212.192C572.333 212.192 573.117 211.808 573.597 211.552V210.16C573.101 210.464 572.269 210.864 571.165 210.864C569.549 210.864 568.429 209.68 568.429 208ZM575.638 205.776C576.118 205.488 577.142 205.104 578.246 205.104C579.51 205.104 580.342 205.584 580.342 206.976V207.376C576.998 206.912 575.126 207.888 575.126 209.84C575.126 211.312 576.182 212.192 577.654 212.192C579.462 212.192 580.342 210.64 580.438 210.416H580.47C580.47 210.416 580.406 210.672 580.422 211.056L580.438 212H581.814V206.896C581.814 204.896 580.71 203.808 578.454 203.808C577.142 203.808 576.086 204.16 575.638 204.4V205.776ZM577.91 210.992C577.11 210.992 576.598 210.496 576.598 209.792C576.598 208.704 577.702 208 580.31 208.416C580.31 209.664 579.27 210.992 577.91 210.992ZM583.351 204V205.216H584.663V209.808C584.663 211.6 585.879 212.192 587.031 212.192C587.815 212.192 588.471 212.016 588.823 211.824V210.528C588.375 210.736 587.815 210.88 587.319 210.88C586.647 210.88 586.135 210.496 586.135 209.36V205.216H588.551V204H586.135V201.6H584.679V204H583.351ZM590.472 204V212H591.96V204H590.472ZM590.28 201.68C590.28 202.208 590.648 202.576 591.208 202.576C591.752 202.576 592.136 202.208 592.136 201.68C592.136 201.136 591.752 200.768 591.208 200.768C590.648 200.768 590.28 201.136 590.28 201.68ZM598.318 203.808C595.95 203.808 594.206 205.584 594.206 208C594.206 210.416 595.95 212.192 598.318 212.192C600.702 212.192 602.446 210.416 602.446 208C602.446 205.584 600.702 203.808 598.318 203.808ZM598.318 210.896C596.782 210.896 595.646 209.696 595.646 208C595.646 206.304 596.782 205.104 598.318 205.104C599.87 205.104 601.006 206.304 601.006 208C601.006 209.696 599.87 210.896 598.318 210.896ZM604.69 204V212H606.178V208.064C606.178 206.432 607.298 205.184 608.866 205.184C610.194 205.184 610.386 206.176 610.386 207.28V212H611.874V206.976C611.874 204.976 611.106 203.808 609.138 203.808C607.442 203.808 606.386 205.008 606.082 205.728H606.05C606.066 205.696 606.114 205.456 606.114 205.12L606.082 204H604.69ZM622.016 203.808C619.809 203.808 618.097 205.584 618.097 208C618.097 210.48 619.809 212.192 622.337 212.192C623.633 212.192 624.705 211.856 625.329 211.504V210.144C624.657 210.576 623.521 210.896 622.433 210.896C620.753 210.896 619.697 209.904 619.649 208.336V208.32H625.601C625.601 208.16 625.633 207.856 625.633 207.536C625.633 205.568 624.369 203.808 622.016 203.808ZM624.161 207.264H619.664C619.793 206.112 620.625 205.056 622.001 205.056C623.425 205.056 624.177 206.112 624.161 207.264ZM634.387 204H632.659L630.675 206.944L628.707 204H627.011L629.795 207.968L626.899 212H628.579L630.707 208.96L632.851 212H634.531L631.587 207.872L634.387 204ZM636.107 205.776C636.587 205.488 637.611 205.104 638.715 205.104C639.979 205.104 640.811 205.584 640.811 206.976V207.376C637.467 206.912 635.595 207.888 635.595 209.84C635.595 211.312 636.651 212.192 638.123 212.192C639.931 212.192 640.811 210.64 640.907 210.416H640.939C640.939 210.416 640.875 210.672 640.891 211.056L640.907 212H642.283V206.896C642.283 204.896 641.179 203.808 638.923 203.808C637.611 203.808 636.555 204.16 636.107 204.4V205.776ZM638.379 210.992C637.579 210.992 637.067 210.496 637.067 209.792C637.067 208.704 638.171 208 640.779 208.416C640.779 209.664 639.739 210.992 638.379 210.992ZM644.909 204V212H646.397V208.288C646.397 206.752 647.181 205.184 648.861 205.184C650.125 205.184 650.333 206.176 650.333 207.248V212H651.821V208.288C651.821 206.784 652.525 205.184 654.237 205.184C655.453 205.184 655.741 206.112 655.741 207.264V212H657.229V206.976C657.229 204.96 656.413 203.808 654.429 203.808C653.197 203.808 652.141 204.64 651.645 205.632H651.629C651.373 204.464 650.397 203.808 649.229 203.808C647.885 203.808 646.733 204.624 646.301 205.728H646.269C646.285 205.696 646.333 205.456 646.333 205.12L646.301 204H644.909ZM659.894 215.52H661.382V211.28C661.382 210.864 661.334 210.624 661.334 210.624H661.366C661.798 211.44 662.854 212.192 664.15 212.192C666.23 212.192 667.83 210.512 667.83 208C667.83 205.52 666.23 203.808 664.118 203.808C662.822 203.808 661.702 204.592 661.286 205.424H661.254C661.254 205.424 661.302 205.184 661.302 204.832L661.27 204H659.894V215.52ZM663.91 210.896C662.71 210.896 661.398 210 661.398 208C661.398 206 662.71 205.104 663.91 205.104C665.398 205.104 666.39 206.336 666.39 208C666.39 209.696 665.398 210.896 663.91 210.896ZM669.909 209.952C669.909 211.568 670.773 212.192 671.957 212.192C672.533 212.192 672.933 212.08 673.029 212.048V210.768C672.933 210.8 672.645 210.864 672.325 210.864C671.669 210.864 671.397 210.512 671.397 209.648V200.48H669.909V209.952ZM678.11 203.808C675.902 203.808 674.19 205.584 674.19 208C674.19 210.48 675.902 212.192 678.43 212.192C679.726 212.192 680.798 211.856 681.422 211.504V210.144C680.75 210.576 679.614 210.896 678.526 210.896C676.846 210.896 675.79 209.904 675.742 208.336V208.32H681.694C681.694 208.16 681.726 207.856 681.726 207.536C681.726 205.568 680.462 203.808 678.11 203.808ZM680.254 207.264H675.758C675.886 206.112 676.718 205.056 678.094 205.056C679.518 205.056 680.27 206.112 680.254 207.264Z" fill="white"/>
<path d="M467.576 225.36V226.164H468.632V234H469.544V225.36H467.576ZM472.043 229.68C472.043 232.236 473.291 234.144 475.235 234.144C477.191 234.144 478.427 232.236 478.427 229.68C478.427 227.136 477.191 225.216 475.235 225.216C473.291 225.216 472.043 227.136 472.043 229.68ZM472.967 229.68C472.967 227.544 473.855 226.068 475.235 226.068C476.615 226.068 477.503 227.544 477.503 229.68C477.503 231.816 476.615 233.292 475.235 233.292C473.855 233.292 472.967 231.816 472.967 229.68ZM483.434 228V234H484.322V231.156C484.322 229.956 485.018 228.684 486.338 228.684C487.418 228.684 487.574 229.524 487.574 230.412V234H488.45V231.156C488.45 229.98 489.098 228.684 490.43 228.684C491.474 228.684 491.702 229.452 491.702 230.424V234H492.578V230.22C492.578 228.744 492.026 227.856 490.514 227.856C489.554 227.856 488.714 228.54 488.354 229.32H488.342C488.174 228.372 487.502 227.856 486.506 227.856C485.522 227.856 484.574 228.54 484.262 229.392H484.238C484.25 229.38 484.286 229.188 484.286 228.924L484.274 228H483.434ZM494.587 226.248C494.587 226.584 494.815 226.824 495.175 226.824C495.511 226.824 495.763 226.584 495.763 226.248C495.763 225.912 495.511 225.672 495.175 225.672C494.815 225.672 494.587 225.912 494.587 226.248ZM494.731 228V234H495.619V228H494.731ZM497.965 228V234H498.853V231.06C498.853 229.716 499.789 228.684 501.061 228.684C502.189 228.684 502.333 229.512 502.333 230.424V234H503.209V230.22C503.209 228.756 502.693 227.856 501.181 227.856C499.825 227.856 499.009 228.84 498.793 229.392H498.769C498.781 229.38 498.817 229.188 498.817 228.924L498.805 228H497.965ZM508.319 229.152C508.667 228.936 509.435 228.648 510.299 228.648C511.295 228.648 511.967 229.044 511.967 230.196V230.568C509.471 230.22 507.947 230.952 507.947 232.44C507.947 233.472 508.715 234.144 509.819 234.144C511.271 234.144 511.979 232.836 512.015 232.728H512.039C512.039 232.728 511.991 232.932 512.003 233.232V234H512.831V230.148C512.831 228.648 512.039 227.856 510.395 227.856C509.447 227.856 508.655 228.12 508.319 228.312V229.152ZM509.951 233.4C509.267 233.4 508.835 232.992 508.835 232.404C508.835 231.456 509.891 230.904 511.943 231.228C511.943 232.272 511.091 233.4 509.951 233.4ZM516.001 232.548C516.001 232.308 516.433 232.092 516.973 232.044H517.021C518.305 232.008 519.253 231.144 519.253 229.968C519.253 229.416 519.013 228.948 518.641 228.624L518.701 228.636C518.701 228.636 518.905 228.684 519.085 228.684H519.961V228H517.801C517.525 227.904 517.201 227.856 516.877 227.856C515.533 227.856 514.501 228.732 514.501 229.968C514.501 230.88 515.065 231.6 515.917 231.912C515.437 232.068 515.125 232.368 515.125 232.704C515.125 233.1 515.473 233.388 516.073 233.46C515.125 233.64 514.369 234.24 514.369 234.96C514.369 236.04 515.449 236.592 517.069 236.592C518.725 236.592 519.865 235.908 519.865 234.792C519.865 233.7 518.965 233.244 517.477 233.088C516.361 232.98 516.001 232.872 516.001 232.548ZM516.877 231.384C515.977 231.384 515.341 230.784 515.341 229.98C515.341 229.176 515.977 228.564 516.877 228.564C517.789 228.564 518.425 229.176 518.425 229.98C518.425 230.784 517.789 231.384 516.877 231.384ZM517.069 235.92C515.989 235.92 515.233 235.56 515.233 234.876C515.233 234.288 515.953 233.772 516.985 233.772C518.485 233.772 518.965 234.264 518.965 234.852C518.965 235.476 518.257 235.92 517.069 235.92ZM523.779 227.856C522.147 227.856 520.875 229.188 520.875 231C520.875 232.86 522.159 234.144 523.995 234.144C524.931 234.144 525.735 233.892 526.239 233.592V232.752C525.675 233.124 524.835 233.352 524.031 233.352C522.699 233.352 521.823 232.488 521.799 231.18V231.132H526.443C526.443 231.024 526.455 230.844 526.455 230.652C526.455 229.176 525.507 227.856 523.779 227.856ZM525.567 230.484H521.823C521.931 229.524 522.627 228.624 523.767 228.624C524.955 228.624 525.579 229.524 525.567 230.484Z" fill="#999999"/>
<path d="M451 189C451 186.791 452.791 185 455 185V185V249V249C452.791 249 451 247.209 451 245V189Z" fill="#FFF04D"/>
<rect x="451" y="265" width="345" height="64" rx="4" fill="#262626"/>
<path fill-rule="evenodd" clip-rule="evenodd" d="M764 297C764 298.105 763.105 299 762 299C760.895 299 760 298.105 760 297C760 295.895 760.895 295 762 295C763.105 295 764 295.895 764 297ZM772 297C772 298.105 771.105 299 770 299C768.895 299 768 298.105 768 297C768 295.895 768.895 295 770 295C771.105 295 772 295.895 772 297ZM778 299C779.105 299 780 298.105 780 297C780 295.895 779.105 295 778 295C776.895 295 776 295.895 776 297C776 298.105 776.895 299 778 299Z" fill="#4D4D4D"/>
<path d="M477.16 280.48H475.624V287.856C475.624 289.68 474.536 290.768 472.712 290.768C470.904 290.768 469.816 289.68 469.816 287.856V280.48H468.28V287.968C468.28 290.608 469.944 292.192 472.712 292.192C475.496 292.192 477.16 290.608 477.16 287.968V280.48ZM479.659 284V292H481.147V288.064C481.147 286.432 482.267 285.184 483.835 285.184C485.163 285.184 485.355 286.176 485.355 287.28V292H486.843V286.976C486.843 284.976 486.075 283.808 484.107 283.808C482.411 283.808 481.355 285.008 481.051 285.728H481.019C481.035 285.696 481.083 285.456 481.083 285.12L481.051 284H479.659ZM489.407 292H490.895V288.512C490.895 286.96 491.791 285.248 493.343 285.248C493.551 285.248 493.695 285.28 493.759 285.296V283.856C493.695 283.84 493.503 283.808 493.279 283.808C492.127 283.808 491.279 284.576 490.815 285.712H490.799C490.783 285.664 490.831 285.424 490.815 285.12L490.799 284H489.407V292ZM498.845 283.808C496.637 283.808 494.925 285.584 494.925 288C494.925 290.48 496.637 292.192 499.165 292.192C500.461 292.192 501.533 291.856 502.157 291.504V290.144C501.485 290.576 500.349 290.896 499.261 290.896C497.581 290.896 496.525 289.904 496.477 288.336V288.32H502.429C502.429 288.16 502.461 287.856 502.461 287.536C502.461 285.568 501.197 283.808 498.845 283.808ZM500.989 287.264H496.493C496.621 286.112 497.453 285.056 498.829 285.056C500.253 285.056 501.005 286.112 500.989 287.264ZM504.575 285.776C505.055 285.488 506.079 285.104 507.183 285.104C508.447 285.104 509.279 285.584 509.279 286.976V287.376C505.935 286.912 504.063 287.888 504.063 289.84C504.063 291.312 505.119 292.192 506.591 292.192C508.399 292.192 509.279 290.64 509.375 290.416H509.407C509.407 290.416 509.343 290.672 509.359 291.056L509.375 292H510.751V286.896C510.751 284.896 509.647 283.808 507.391 283.808C506.079 283.808 505.023 284.16 504.575 284.4V285.776ZM506.847 290.992C506.047 290.992 505.535 290.496 505.535 289.792C505.535 288.704 506.639 288 509.247 288.416C509.247 289.664 508.207 290.992 506.847 290.992ZM520.642 280.48H519.154V284.608C519.154 285.024 519.202 285.264 519.202 285.264H519.17C518.738 284.512 517.682 283.808 516.386 283.808C514.306 283.808 512.706 285.488 512.706 288C512.706 290.48 514.306 292.192 516.418 292.192C517.714 292.192 518.834 291.36 519.25 290.464H519.282C519.282 290.464 519.234 290.704 519.234 291.056L519.266 292H520.642V280.48ZM516.626 285.104C517.826 285.104 519.138 286 519.138 288C519.138 290 517.826 290.896 516.626 290.896C515.138 290.896 514.146 289.664 514.146 288C514.146 286.304 515.138 285.104 516.626 285.104ZM527.784 284V292H529.272V288.064C529.272 286.432 530.392 285.184 531.96 285.184C533.288 285.184 533.48 286.176 533.48 287.28V292H534.968V286.976C534.968 284.976 534.2 283.808 532.232 283.808C530.536 283.808 529.48 285.008 529.176 285.728H529.144C529.16 285.696 529.208 285.456 529.208 285.12L529.176 284H527.784ZM541.084 283.808C538.716 283.808 536.972 285.584 536.972 288C536.972 290.416 538.716 292.192 541.084 292.192C543.468 292.192 545.212 290.416 545.212 288C545.212 285.584 543.468 283.808 541.084 283.808ZM541.084 290.896C539.548 290.896 538.412 289.696 538.412 288C538.412 286.304 539.548 285.104 541.084 285.104C542.636 285.104 543.772 286.304 543.772 288C543.772 289.696 542.636 290.896 541.084 290.896ZM546.288 284V285.216H547.6V289.808C547.6 291.6 548.816 292.192 549.968 292.192C550.752 292.192 551.408 292.016 551.76 291.824V290.528C551.312 290.736 550.752 290.88 550.256 290.88C549.584 290.88 549.072 290.496 549.072 289.36V285.216H551.488V284H549.072V281.6H547.616V284H546.288ZM553.409 284V292H554.897V284H553.409ZM553.217 281.68C553.217 282.208 553.585 282.576 554.145 282.576C554.689 282.576 555.073 282.208 555.073 281.68C555.073 281.136 554.689 280.768 554.145 280.768C553.585 280.768 553.217 281.136 553.217 281.68ZM556.855 284V285.216H558.039V292H559.527V285.216H561.607V284H559.479V283.232C559.479 282.16 560.103 281.584 561.127 281.584C561.511 281.584 561.831 281.648 561.959 281.68V280.384C561.831 280.352 561.447 280.288 560.983 280.288C559.175 280.288 558.087 281.408 558.087 283.104V284H556.855ZM563.253 284V292H564.741V284H563.253ZM563.061 281.68C563.061 282.208 563.429 282.576 563.989 282.576C564.533 282.576 564.917 282.208 564.917 281.68C564.917 281.136 564.533 280.768 563.989 280.768C563.429 280.768 563.061 281.136 563.061 281.68ZM568.429 288C568.429 286.32 569.565 285.136 571.165 285.136C572.205 285.136 572.989 285.488 573.549 285.84V284.432C573.069 284.176 572.317 283.808 571.085 283.808C568.621 283.808 566.909 285.584 566.909 288C566.909 290.416 568.621 292.192 571.085 292.192C572.333 292.192 573.117 291.808 573.597 291.552V290.16C573.101 290.464 572.269 290.864 571.165 290.864C569.549 290.864 568.429 289.68 568.429 288ZM575.638 285.776C576.118 285.488 577.142 285.104 578.246 285.104C579.51 285.104 580.342 285.584 580.342 286.976V287.376C576.998 286.912 575.126 287.888 575.126 289.84C575.126 291.312 576.182 292.192 577.654 292.192C579.462 292.192 580.342 290.64 580.438 290.416H580.47C580.47 290.416 580.406 290.672 580.422 291.056L580.438 292H581.814V286.896C581.814 284.896 580.71 283.808 578.454 283.808C577.142 283.808 576.086 284.16 575.638 284.4V285.776ZM577.91 290.992C577.11 290.992 576.598 290.496 576.598 289.792C576.598 288.704 577.702 288 580.31 288.416C580.31 289.664 579.27 290.992 577.91 290.992ZM583.351 284V285.216H584.663V289.808C584.663 291.6 585.879 292.192 587.031 292.192C587.815 292.192 588.471 292.016 588.823 291.824V290.528C588.375 290.736 587.815 290.88 587.319 290.88C586.647 290.88 586.135 290.496 586.135 289.36V285.216H588.551V284H586.135V281.6H584.679V284H583.351ZM590.472 284V292H591.96V284H590.472ZM590.28 281.68C590.28 282.208 590.648 282.576 591.208 282.576C591.752 282.576 592.136 282.208 592.136 281.68C592.136 281.136 591.752 280.768 591.208 280.768C590.648 280.768 590.28 281.136 590.28 281.68ZM598.318 283.808C595.95 283.808 594.206 285.584 594.206 288C594.206 290.416 595.95 292.192 598.318 292.192C600.702 292.192 602.446 290.416 602.446 288C602.446 285.584 600.702 283.808 598.318 283.808ZM598.318 290.896C596.782 290.896 595.646 289.696 595.646 288C595.646 286.304 596.782 285.104 598.318 285.104C599.87 285.104 601.006 286.304 601.006 288C601.006 289.696 599.87 290.896 598.318 290.896ZM604.69 284V292H606.178V288.064C606.178 286.432 607.298 285.184 608.866 285.184C610.194 285.184 610.386 286.176 610.386 287.28V292H611.874V286.976C611.874 284.976 611.106 283.808 609.138 283.808C607.442 283.808 606.386 285.008 606.082 285.728H606.05C606.066 285.696 606.114 285.456 606.114 285.12L606.082 284H604.69ZM622.016 283.808C619.809 283.808 618.097 285.584 618.097 288C618.097 290.48 619.809 292.192 622.337 292.192C623.633 292.192 624.705 291.856 625.329 291.504V290.144C624.657 290.576 623.521 290.896 622.433 290.896C620.753 290.896 619.697 289.904 619.649 288.336V288.32H625.601C625.601 288.16 625.633 287.856 625.633 287.536C625.633 285.568 624.369 283.808 622.016 283.808ZM624.161 287.264H619.664C619.793 286.112 620.625 285.056 622.001 285.056C623.425 285.056 624.177 286.112 624.161 287.264ZM634.387 284H632.659L630.675 286.944L628.707 284H627.011L629.795 287.968L626.899 292H628.579L630.707 288.96L632.851 292H634.531L631.587 287.872L634.387 284ZM636.107 285.776C636.587 285.488 637.611 285.104 638.715 285.104C639.979 285.104 640.811 285.584 640.811 286.976V287.376C637.467 286.912 635.595 287.888 635.595 289.84C635.595 291.312 636.651 292.192 638.123 292.192C639.931 292.192 640.811 290.64 640.907 290.416H640.939C640.939 290.416 640.875 290.672 640.891 291.056L640.907 292H642.283V286.896C642.283 284.896 641.179 283.808 638.923 283.808C637.611 283.808 636.555 284.16 636.107 284.4V285.776ZM638.379 290.992C637.579 290.992 637.067 290.496 637.067 289.792C637.067 288.704 638.171 288 640.779 288.416C640.779 289.664 639.739 290.992 638.379 290.992ZM644.909 284V292H646.397V288.288C646.397 286.752 647.181 285.184 648.861 285.184C650.125 285.184 650.333 286.176 650.333 287.248V292H651.821V288.288C651.821 286.784 652.525 285.184 654.237 285.184C655.453 285.184 655.741 286.112 655.741 287.264V292H657.229V286.976C657.229 284.96 656.413 283.808 654.429 283.808C653.197 283.808 652.141 284.64 651.645 285.632H651.629C651.373 284.464 650.397 283.808 649.229 283.808C647.885 283.808 646.733 284.624 646.301 285.728H646.269C646.285 285.696 646.333 285.456 646.333 285.12L646.301 284H644.909ZM659.894 295.52H661.382V291.28C661.382 290.864 661.334 290.624 661.334 290.624H661.366C661.798 291.44 662.854 292.192 664.15 292.192C666.23 292.192 667.83 290.512 667.83 288C667.83 285.52 666.23 283.808 664.118 283.808C662.822 283.808 661.702 284.592 661.286 285.424H661.254C661.254 285.424 661.302 285.184 661.302 284.832L661.27 284H659.894V295.52ZM663.91 290.896C662.71 290.896 661.398 290 661.398 288C661.398 286 662.71 285.104 663.91 285.104C665.398 285.104 666.39 286.336 666.39 288C666.39 289.696 665.398 290.896 663.91 290.896ZM669.909 289.952C669.909 291.568 670.773 292.192 671.957 292.192C672.533 292.192 672.933 292.08 673.029 292.048V290.768C672.933 290.8 672.645 290.864 672.325 290.864C671.669 290.864 671.397 290.512 671.397 289.648V280.48H669.909V289.952ZM678.11 283.808C675.902 283.808 674.19 285.584 674.19 288C674.19 290.48 675.902 292.192 678.43 292.192C679.726 292.192 680.798 291.856 681.422 291.504V290.144C680.75 290.576 679.614 290.896 678.526 290.896C676.846 290.896 675.79 289.904 675.742 288.336V288.32H681.694C681.694 288.16 681.726 287.856 681.726 287.536C681.726 285.568 680.462 283.808 678.11 283.808ZM680.254 287.264H675.758C675.886 286.112 676.718 285.056 678.094 285.056C679.518 285.056 680.27 286.112 680.254 287.264Z" fill="white"/>
<path d="M467.576 305.36V306.164H468.632V314H469.544V305.36H467.576ZM472.043 309.68C472.043 312.236 473.291 314.144 475.235 314.144C477.191 314.144 478.427 312.236 478.427 309.68C478.427 307.136 477.191 305.216 475.235 305.216C473.291 305.216 472.043 307.136 472.043 309.68ZM472.967 309.68C472.967 307.544 473.855 306.068 475.235 306.068C476.615 306.068 477.503 307.544 477.503 309.68C477.503 311.816 476.615 313.292 475.235 313.292C473.855 313.292 472.967 311.816 472.967 309.68ZM483.434 308V314H484.322V311.156C484.322 309.956 485.018 308.684 486.338 308.684C487.418 308.684 487.574 309.524 487.574 310.412V314H488.45V311.156C488.45 309.98 489.098 308.684 490.43 308.684C491.474 308.684 491.702 309.452 491.702 310.424V314H492.578V310.22C492.578 308.744 492.026 307.856 490.514 307.856C489.554 307.856 488.714 308.54 488.354 309.32H488.342C488.174 308.372 487.502 307.856 486.506 307.856C485.522 307.856 484.574 308.54 484.262 309.392H484.238C484.25 309.38 484.286 309.188 484.286 308.924L484.274 308H483.434ZM494.587 306.248C494.587 306.584 494.815 306.824 495.175 306.824C495.511 306.824 495.763 306.584 495.763 306.248C495.763 305.912 495.511 305.672 495.175 305.672C494.815 305.672 494.587 305.912 494.587 306.248ZM494.731 308V314H495.619V308H494.731ZM497.965 308V314H498.853V311.06C498.853 309.716 499.789 308.684 501.061 308.684C502.189 308.684 502.333 309.512 502.333 310.424V314H503.209V310.22C503.209 308.756 502.693 307.856 501.181 307.856C499.825 307.856 499.009 308.84 498.793 309.392H498.769C498.781 309.38 498.817 309.188 498.817 308.924L498.805 308H497.965ZM508.319 309.152C508.667 308.936 509.435 308.648 510.299 308.648C511.295 308.648 511.967 309.044 511.967 310.196V310.568C509.471 310.22 507.947 310.952 507.947 312.44C507.947 313.472 508.715 314.144 509.819 314.144C511.271 314.144 511.979 312.836 512.015 312.728H512.039C512.039 312.728 511.991 312.932 512.003 313.232V314H512.831V310.148C512.831 308.648 512.039 307.856 510.395 307.856C509.447 307.856 508.655 308.12 508.319 308.312V309.152ZM509.951 313.4C509.267 313.4 508.835 312.992 508.835 312.404C508.835 311.456 509.891 310.904 511.943 311.228C511.943 312.272 511.091 313.4 509.951 313.4ZM516.001 312.548C516.001 312.308 516.433 312.092 516.973 312.044H517.021C518.305 312.008 519.253 311.144 519.253 309.968C519.253 309.416 519.013 308.948 518.641 308.624L518.701 308.636C518.701 308.636 518.905 308.684 519.085 308.684H519.961V308H517.801C517.525 307.904 517.201 307.856 516.877 307.856C515.533 307.856 514.501 308.732 514.501 309.968C514.501 310.88 515.065 311.6 515.917 311.912C515.437 312.068 515.125 312.368 515.125 312.704C515.125 313.1 515.473 313.388 516.073 313.46C515.125 313.64 514.369 314.24 514.369 314.96C514.369 316.04 515.449 316.592 517.069 316.592C518.725 316.592 519.865 315.908 519.865 314.792C519.865 313.7 518.965 313.244 517.477 313.088C516.361 312.98 516.001 312.872 516.001 312.548ZM516.877 311.384C515.977 311.384 515.341 310.784 515.341 309.98C515.341 309.176 515.977 308.564 516.877 308.564C517.789 308.564 518.425 309.176 518.425 309.98C518.425 310.784 517.789 311.384 516.877 311.384ZM517.069 315.92C515.989 315.92 515.233 315.56 515.233 314.876C515.233 314.288 515.953 313.772 516.985 313.772C518.485 313.772 518.965 314.264 518.965 314.852C518.965 315.476 518.257 315.92 517.069 315.92ZM523.779 307.856C522.147 307.856 520.875 309.188 520.875 311C520.875 312.86 522.159 314.144 523.995 314.144C524.931 314.144 525.735 313.892 526.239 313.592V312.752C525.675 313.124 524.835 313.352 524.031 313.352C522.699 313.352 521.823 312.488 521.799 311.18V311.132H526.443C526.443 311.024 526.455 310.844 526.455 310.652C526.455 309.176 525.507 307.856 523.779 307.856ZM525.567 310.484H521.823C521.931 309.524 522.627 308.624 523.767 308.624C524.955 308.624 525.579 309.524 525.567 310.484Z" fill="#999999"/>
<path d="M451 269C451 266.791 452.791 265 455 265V265V329V329C452.791 329 451 327.209 451 325V269Z" fill="#FFF04D"/>
<rect x="451.5" y="345.5" width="344" height="63" rx="3.5" fill="#1A1A1A" stroke="#4D4D4D" stroke-dasharray="3 3"/>
<path fill-rule="evenodd" clip-rule="evenodd" d="M764 377C764 378.105 763.105 379 762 379C760.895 379 760 378.105 760 377C760 375.895 760.895 375 762 375C763.105 375 764 375.895 764 377ZM772 377C772 378.105 771.105 379 770 379C768.895 379 768 378.105 768 377C768 375.895 768.895 375 770 375C771.105 375 772 375.895 772 377ZM778 379C779.105 379 780 378.105 780 377C780 375.895 779.105 375 778 375C776.895 375 776 375.895 776 377C776 378.105 776.895 379 778 379Z" fill="#4D4D4D"/>
<path d="M477.16 360.48H475.624V367.856C475.624 369.68 474.536 370.768 472.712 370.768C470.904 370.768 469.816 369.68 469.816 367.856V360.48H468.28V367.968C468.28 370.608 469.944 372.192 472.712 372.192C475.496 372.192 477.16 370.608 477.16 367.968V360.48ZM479.659 364V372H481.147V368.064C481.147 366.432 482.267 365.184 483.835 365.184C485.163 365.184 485.355 366.176 485.355 367.28V372H486.843V366.976C486.843 364.976 486.075 363.808 484.107 363.808C482.411 363.808 481.355 365.008 481.051 365.728H481.019C481.035 365.696 481.083 365.456 481.083 365.12L481.051 364H479.659ZM489.407 372H490.895V368.512C490.895 366.96 491.791 365.248 493.343 365.248C493.551 365.248 493.695 365.28 493.759 365.296V363.856C493.695 363.84 493.503 363.808 493.279 363.808C492.127 363.808 491.279 364.576 490.815 365.712H490.799C490.783 365.664 490.831 365.424 490.815 365.12L490.799 364H489.407V372ZM498.845 363.808C496.637 363.808 494.925 365.584 494.925 368C494.925 370.48 496.637 372.192 499.165 372.192C500.461 372.192 501.533 371.856 502.157 371.504V370.144C501.485 370.576 500.349 370.896 499.261 370.896C497.581 370.896 496.525 369.904 496.477 368.336V368.32H502.429C502.429 368.16 502.461 367.856 502.461 367.536C502.461 365.568 501.197 363.808 498.845 363.808ZM500.989 367.264H496.493C496.621 366.112 497.453 365.056 498.829 365.056C500.253 365.056 501.005 366.112 500.989 367.264ZM504.575 365.776C505.055 365.488 506.079 365.104 507.183 365.104C508.447 365.104 509.279 365.584 509.279 366.976V367.376C505.935 366.912 504.063 367.888 504.063 369.84C504.063 371.312 505.119 372.192 506.591 372.192C508.399 372.192 509.279 370.64 509.375 370.416H509.407C509.407 370.416 509.343 370.672 509.359 371.056L509.375 372H510.751V366.896C510.751 364.896 509.647 363.808 507.391 363.808C506.079 363.808 505.023 364.16 504.575 364.4V365.776ZM506.847 370.992C506.047 370.992 505.535 370.496 505.535 369.792C505.535 368.704 506.639 368 509.247 368.416C509.247 369.664 508.207 370.992 506.847 370.992ZM520.642 360.48H519.154V364.608C519.154 365.024 519.202 365.264 519.202 365.264H519.17C518.738 364.512 517.682 363.808 516.386 363.808C514.306 363.808 512.706 365.488 512.706 368C512.706 370.48 514.306 372.192 516.418 372.192C517.714 372.192 518.834 371.36 519.25 370.464H519.282C519.282 370.464 519.234 370.704 519.234 371.056L519.266 372H520.642V360.48ZM516.626 365.104C517.826 365.104 519.138 366 519.138 368C519.138 370 517.826 370.896 516.626 370.896C515.138 370.896 514.146 369.664 514.146 368C514.146 366.304 515.138 365.104 516.626 365.104ZM527.784 364V372H529.272V368.064C529.272 366.432 530.392 365.184 531.96 365.184C533.288 365.184 533.48 366.176 533.48 367.28V372H534.968V366.976C534.968 364.976 534.2 363.808 532.232 363.808C530.536 363.808 529.48 365.008 529.176 365.728H529.144C529.16 365.696 529.208 365.456 529.208 365.12L529.176 364H527.784ZM541.084 363.808C538.716 363.808 536.972 365.584 536.972 368C536.972 370.416 538.716 372.192 541.084 372.192C543.468 372.192 545.212 370.416 545.212 368C545.212 365.584 543.468 363.808 541.084 363.808ZM541.084 370.896C539.548 370.896 538.412 369.696 538.412 368C538.412 366.304 539.548 365.104 541.084 365.104C542.636 365.104 543.772 366.304 543.772 368C543.772 369.696 542.636 370.896 541.084 370.896ZM546.288 364V365.216H547.6V369.808C547.6 371.6 548.816 372.192 549.968 372.192C550.752 372.192 551.408 372.016 551.76 371.824V370.528C551.312 370.736 550.752 370.88 550.256 370.88C549.584 370.88 549.072 370.496 549.072 369.36V365.216H551.488V364H549.072V361.6H547.616V364H546.288ZM553.409 364V372H554.897V364H553.409ZM553.217 361.68C553.217 362.208 553.585 362.576 554.145 362.576C554.689 362.576 555.073 362.208 555.073 361.68C555.073 361.136 554.689 360.768 554.145 360.768C553.585 360.768 553.217 361.136 553.217 361.68ZM556.855 364V365.216H558.039V372H559.527V365.216H561.607V364H559.479V363.232C559.479 362.16 560.103 361.584 561.127 361.584C561.511 361.584 561.831 361.648 561.959 361.68V360.384C561.831 360.352 561.447 360.288 560.983 360.288C559.175 360.288 558.087 361.408 558.087 363.104V364H556.855ZM563.253 364V372H564.741V364H563.253ZM563.061 361.68C563.061 362.208 563.429 362.576 563.989 362.576C564.533 362.576 564.917 362.208 564.917 361.68C564.917 361.136 564.533 360.768 563.989 360.768C563.429 360.768 563.061 361.136 563.061 361.68ZM568.429 368C568.429 366.32 569.565 365.136 571.165 365.136C572.205 365.136 572.989 365.488 573.549 365.84V364.432C573.069 364.176 572.317 363.808 571.085 363.808C568.621 363.808 566.909 365.584 566.909 368C566.909 370.416 568.621 372.192 571.085 372.192C572.333 372.192 573.117 371.808 573.597 371.552V370.16C573.101 370.464 572.269 370.864 571.165 370.864C569.549 370.864 568.429 369.68 568.429 368ZM575.638 365.776C576.118 365.488 577.142 365.104 578.246 365.104C579.51 365.104 580.342 365.584 580.342 366.976V367.376C576.998 366.912 575.126 367.888 575.126 369.84C575.126 371.312 576.182 372.192 577.654 372.192C579.462 372.192 580.342 370.64 580.438 370.416H580.47C580.47 370.416 580.406 370.672 580.422 371.056L580.438 372H581.814V366.896C581.814 364.896 580.71 363.808 578.454 363.808C577.142 363.808 576.086 364.16 575.638 364.4V365.776ZM577.91 370.992C577.11 370.992 576.598 370.496 576.598 369.792C576.598 368.704 577.702 368 580.31 368.416C580.31 369.664 579.27 370.992 577.91 370.992ZM583.351 364V365.216H584.663V369.808C584.663 371.6 585.879 372.192 587.031 372.192C587.815 372.192 588.471 372.016 588.823 371.824V370.528C588.375 370.736 587.815 370.88 587.319 370.88C586.647 370.88 586.135 370.496 586.135 369.36V365.216H588.551V364H586.135V361.6H584.679V364H583.351ZM590.472 364V372H591.96V364H590.472ZM590.28 361.68C590.28 362.208 590.648 362.576 591.208 362.576C591.752 362.576 592.136 362.208 592.136 361.68C592.136 361.136 591.752 360.768 591.208 360.768C590.648 360.768 590.28 361.136 590.28 361.68ZM598.318 363.808C595.95 363.808 594.206 365.584 594.206 368C594.206 370.416 595.95 372.192 598.318 372.192C600.702 372.192 602.446 370.416 602.446 368C602.446 365.584 600.702 363.808 598.318 363.808ZM598.318 370.896C596.782 370.896 595.646 369.696 595.646 368C595.646 366.304 596.782 365.104 598.318 365.104C599.87 365.104 601.006 366.304 601.006 368C601.006 369.696 599.87 370.896 598.318 370.896ZM604.69 364V372H606.178V368.064C606.178 366.432 607.298 365.184 608.866 365.184C610.194 365.184 610.386 366.176 610.386 367.28V372H611.874V366.976C611.874 364.976 611.106 363.808 609.138 363.808C607.442 363.808 606.386 365.008 606.082 365.728H606.05C606.066 365.696 606.114 365.456 606.114 365.12L606.082 364H604.69ZM622.016 363.808C619.809 363.808 618.097 365.584 618.097 368C618.097 370.48 619.809 372.192 622.337 372.192C623.633 372.192 624.705 371.856 625.329 371.504V370.144C624.657 370.576 623.521 370.896 622.433 370.896C620.753 370.896 619.697 369.904 619.649 368.336V368.32H625.601C625.601 368.16 625.633 367.856 625.633 367.536C625.633 365.568 624.369 363.808 622.016 363.808ZM624.161 367.264H619.664C619.793 366.112 620.625 365.056 622.001 365.056C623.425 365.056 624.177 366.112 624.161 367.264ZM634.387 364H632.659L630.675 366.944L628.707 364H627.011L629.795 367.968L626.899 372H628.579L630.707 368.96L632.851 372H634.531L631.587 367.872L634.387 364ZM636.107 365.776C636.587 365.488 637.611 365.104 638.715 365.104C639.979 365.104 640.811 365.584 640.811 366.976V367.376C637.467 366.912 635.595 367.888 635.595 369.84C635.595 371.312 636.651 372.192 638.123 372.192C639.931 372.192 640.811 370.64 640.907 370.416H640.939C640.939 370.416 640.875 370.672 640.891 371.056L640.907 372H642.283V366.896C642.283 364.896 641.179 363.808 638.923 363.808C637.611 363.808 636.555 364.16 636.107 364.4V365.776ZM638.379 370.992C637.579 370.992 637.067 370.496 637.067 369.792C637.067 368.704 638.171 368 640.779 368.416C640.779 369.664 639.739 370.992 638.379 370.992ZM644.909 364V372H646.397V368.288C646.397 366.752 647.181 365.184 648.861 365.184C650.125 365.184 650.333 366.176 650.333 367.248V372H651.821V368.288C651.821 366.784 652.525 365.184 654.237 365.184C655.453 365.184 655.741 366.112 655.741 367.264V372H657.229V366.976C657.229 364.96 656.413 363.808 654.429 363.808C653.197 363.808 652.141 364.64 651.645 365.632H651.629C651.373 364.464 650.397 363.808 649.229 363.808C647.885 363.808 646.733 364.624 646.301 365.728H646.269C646.285 365.696 646.333 365.456 646.333 365.12L646.301 364H644.909ZM659.894 375.52H661.382V371.28C661.382 370.864 661.334 370.624 661.334 370.624H661.366C661.798 371.44 662.854 372.192 664.15 372.192C666.23 372.192 667.83 370.512 667.83 368C667.83 365.52 666.23 363.808 664.118 363.808C662.822 363.808 661.702 364.592 661.286 365.424H661.254C661.254 365.424 661.302 365.184 661.302 364.832L661.27 364H659.894V375.52ZM663.91 370.896C662.71 370.896 661.398 370 661.398 368C661.398 366 662.71 365.104 663.91 365.104C665.398 365.104 666.39 366.336 666.39 368C666.39 369.696 665.398 370.896 663.91 370.896ZM669.909 369.952C669.909 371.568 670.773 372.192 671.957 372.192C672.533 372.192 672.933 372.08 673.029 372.048V370.768C672.933 370.8 672.645 370.864 672.325 370.864C671.669 370.864 671.397 370.512 671.397 369.648V360.48H669.909V369.952ZM678.11 363.808C675.902 363.808 674.19 365.584 674.19 368C674.19 370.48 675.902 372.192 678.43 372.192C679.726 372.192 680.798 371.856 681.422 371.504V370.144C680.75 370.576 679.614 370.896 678.526 370.896C676.846 370.896 675.79 369.904 675.742 368.336V368.32H681.694C681.694 368.16 681.726 367.856 681.726 367.536C681.726 365.568 680.462 363.808 678.11 363.808ZM680.254 367.264H675.758C675.886 366.112 676.718 365.056 678.094 365.056C679.518 365.056 680.27 366.112 680.254 367.264Z" fill="white"/>
<path d="M467.576 385.36V386.164H468.632V394H469.544V385.36H467.576ZM472.043 389.68C472.043 392.236 473.291 394.144 475.235 394.144C477.191 394.144 478.427 392.236 478.427 389.68C478.427 387.136 477.191 385.216 475.235 385.216C473.291 385.216 472.043 387.136 472.043 389.68ZM472.967 389.68C472.967 387.544 473.855 386.068 475.235 386.068C476.615 386.068 477.503 387.544 477.503 389.68C477.503 391.816 476.615 393.292 475.235 393.292C473.855 393.292 472.967 391.816 472.967 389.68ZM483.434 388V394H484.322V391.156C484.322 389.956 485.018 388.684 486.338 388.684C487.418 388.684 487.574 389.524 487.574 390.412V394H488.45V391.156C488.45 389.98 489.098 388.684 490.43 388.684C491.474 388.684 491.702 389.452 491.702 390.424V394H492.578V390.22C492.578 388.744 492.026 387.856 490.514 387.856C489.554 387.856 488.714 388.54 488.354 389.32H488.342C488.174 388.372 487.502 387.856 486.506 387.856C485.522 387.856 484.574 388.54 484.262 389.392H484.238C484.25 389.38 484.286 389.188 484.286 388.924L484.274 388H483.434ZM494.587 386.248C494.587 386.584 494.815 386.824 495.175 386.824C495.511 386.824 495.763 386.584 495.763 386.248C495.763 385.912 495.511 385.672 495.175 385.672C494.815 385.672 494.587 385.912 494.587 386.248ZM494.731 388V394H495.619V388H494.731ZM497.965 388V394H498.853V391.06C498.853 389.716 499.789 388.684 501.061 388.684C502.189 388.684 502.333 389.512 502.333 390.424V394H503.209V390.22C503.209 388.756 502.693 387.856 501.181 387.856C499.825 387.856 499.009 388.84 498.793 389.392H498.769C498.781 389.38 498.817 389.188 498.817 388.924L498.805 388H497.965ZM508.319 389.152C508.667 388.936 509.435 388.648 510.299 388.648C511.295 388.648 511.967 389.044 511.967 390.196V390.568C509.471 390.22 507.947 390.952 507.947 392.44C507.947 393.472 508.715 394.144 509.819 394.144C511.271 394.144 511.979 392.836 512.015 392.728H512.039C512.039 392.728 511.991 392.932 512.003 393.232V394H512.831V390.148C512.831 388.648 512.039 387.856 510.395 387.856C509.447 387.856 508.655 388.12 508.319 388.312V389.152ZM509.951 393.4C509.267 393.4 508.835 392.992 508.835 392.404C508.835 391.456 509.891 390.904 511.943 391.228C511.943 392.272 511.091 393.4 509.951 393.4ZM516.001 392.548C516.001 392.308 516.433 392.092 516.973 392.044H517.021C518.305 392.008 519.253 391.144 519.253 389.968C519.253 389.416 519.013 388.948 518.641 388.624L518.701 388.636C518.701 388.636 518.905 388.684 519.085 388.684H519.961V388H517.801C517.525 387.904 517.201 387.856 516.877 387.856C515.533 387.856 514.501 388.732 514.501 389.968C514.501 390.88 515.065 391.6 515.917 391.912C515.437 392.068 515.125 392.368 515.125 392.704C515.125 393.1 515.473 393.388 516.073 393.46C515.125 393.64 514.369 394.24 514.369 394.96C514.369 396.04 515.449 396.592 517.069 396.592C518.725 396.592 519.865 395.908 519.865 394.792C519.865 393.7 518.965 393.244 517.477 393.088C516.361 392.98 516.001 392.872 516.001 392.548ZM516.877 391.384C515.977 391.384 515.341 390.784 515.341 389.98C515.341 389.176 515.977 388.564 516.877 388.564C517.789 388.564 518.425 389.176 518.425 389.98C518.425 390.784 517.789 391.384 516.877 391.384ZM517.069 395.92C515.989 395.92 515.233 395.56 515.233 394.876C515.233 394.288 515.953 393.772 516.985 393.772C518.485 393.772 518.965 394.264 518.965 394.852C518.965 395.476 518.257 395.92 517.069 395.92ZM523.779 387.856C522.147 387.856 520.875 389.188 520.875 391C520.875 392.86 522.159 394.144 523.995 394.144C524.931 394.144 525.735 393.892 526.239 393.592V392.752C525.675 393.124 524.835 393.352 524.031 393.352C522.699 393.352 521.823 392.488 521.799 391.18V391.132H526.443C526.443 391.024 526.455 390.844 526.455 390.652C526.455 389.176 525.507 387.856 523.779 387.856ZM525.567 390.484H521.823C521.931 389.524 522.627 388.624 523.767 388.624C524.955 388.624 525.579 389.524 525.567 390.484Z" fill="#999999"/>
<rect x="451.5" y="425.5" width="344" height="63" rx="3.5" fill="#1A1A1A" stroke="#4D4D4D" stroke-dasharray="3 3"/>
<path fill-rule="evenodd" clip-rule="evenodd" d="M764 457C764 458.105 763.105 459 762 459C760.895 459 760 458.105 760 457C760 455.895 760.895 455 762 455C763.105 455 764 455.895 764 457ZM772 457C772 458.105 771.105 459 770 459C768.895 459 768 458.105 768 457C768 455.895 768.895 455 770 455C771.105 455 772 455.895 772 457ZM778 459C779.105 459 780 458.105 780 457C780 455.895 779.105 455 778 455C776.895 455 776 455.895 776 457C776 458.105 776.895 459 778 459Z" fill="#4D4D4D"/>
<path d="M477.16 440.48H475.624V447.856C475.624 449.68 474.536 450.768 472.712 450.768C470.904 450.768 469.816 449.68 469.816 447.856V440.48H468.28V447.968C468.28 450.608 469.944 452.192 472.712 452.192C475.496 452.192 477.16 450.608 477.16 447.968V440.48ZM479.659 444V452H481.147V448.064C481.147 446.432 482.267 445.184 483.835 445.184C485.163 445.184 485.355 446.176 485.355 447.28V452H486.843V446.976C486.843 444.976 486.075 443.808 484.107 443.808C482.411 443.808 481.355 445.008 481.051 445.728H481.019C481.035 445.696 481.083 445.456 481.083 445.12L481.051 444H479.659ZM489.407 452H490.895V448.512C490.895 446.96 491.791 445.248 493.343 445.248C493.551 445.248 493.695 445.28 493.759 445.296V443.856C493.695 443.84 493.503 443.808 493.279 443.808C492.127 443.808 491.279 444.576 490.815 445.712H490.799C490.783 445.664 490.831 445.424 490.815 445.12L490.799 444H489.407V452ZM498.845 443.808C496.637 443.808 494.925 445.584 494.925 448C494.925 450.48 496.637 452.192 499.165 452.192C500.461 452.192 501.533 451.856 502.157 451.504V450.144C501.485 450.576 500.349 450.896 499.261 450.896C497.581 450.896 496.525 449.904 496.477 448.336V448.32H502.429C502.429 448.16 502.461 447.856 502.461 447.536C502.461 445.568 501.197 443.808 498.845 443.808ZM500.989 447.264H496.493C496.621 446.112 497.453 445.056 498.829 445.056C500.253 445.056 501.005 446.112 500.989 447.264ZM504.575 445.776C505.055 445.488 506.079 445.104 507.183 445.104C508.447 445.104 509.279 445.584 509.279 446.976V447.376C505.935 446.912 504.063 447.888 504.063 449.84C504.063 451.312 505.119 452.192 506.591 452.192C508.399 452.192 509.279 450.64 509.375 450.416H509.407C509.407 450.416 509.343 450.672 509.359 451.056L509.375 452H510.751V446.896C510.751 444.896 509.647 443.808 507.391 443.808C506.079 443.808 505.023 444.16 504.575 444.4V445.776ZM506.847 450.992C506.047 450.992 505.535 450.496 505.535 449.792C505.535 448.704 506.639 448 509.247 448.416C509.247 449.664 508.207 450.992 506.847 450.992ZM520.642 440.48H519.154V444.608C519.154 445.024 519.202 445.264 519.202 445.264H519.17C518.738 444.512 517.682 443.808 516.386 443.808C514.306 443.808 512.706 445.488 512.706 448C512.706 450.48 514.306 452.192 516.418 452.192C517.714 452.192 518.834 451.36 519.25 450.464H519.282C519.282 450.464 519.234 450.704 519.234 451.056L519.266 452H520.642V440.48ZM516.626 445.104C517.826 445.104 519.138 446 519.138 448C519.138 450 517.826 450.896 516.626 450.896C515.138 450.896 514.146 449.664 514.146 448C514.146 446.304 515.138 445.104 516.626 445.104ZM527.784 444V452H529.272V448.064C529.272 446.432 530.392 445.184 531.96 445.184C533.288 445.184 533.48 446.176 533.48 447.28V452H534.968V446.976C534.968 444.976 534.2 443.808 532.232 443.808C530.536 443.808 529.48 445.008 529.176 445.728H529.144C529.16 445.696 529.208 445.456 529.208 445.12L529.176 444H527.784ZM541.084 443.808C538.716 443.808 536.972 445.584 536.972 448C536.972 450.416 538.716 452.192 541.084 452.192C543.468 452.192 545.212 450.416 545.212 448C545.212 445.584 543.468 443.808 541.084 443.808ZM541.084 450.896C539.548 450.896 538.412 449.696 538.412 448C538.412 446.304 539.548 445.104 541.084 445.104C542.636 445.104 543.772 446.304 543.772 448C543.772 449.696 542.636 450.896 541.084 450.896ZM546.288 444V445.216H547.6V449.808C547.6 451.6 548.816 452.192 549.968 452.192C550.752 452.192 551.408 452.016 551.76 451.824V450.528C551.312 450.736 550.752 450.88 550.256 450.88C549.584 450.88 549.072 450.496 549.072 449.36V445.216H551.488V444H549.072V441.6H547.616V444H546.288ZM553.409 444V452H554.897V444H553.409ZM553.217 441.68C553.217 442.208 553.585 442.576 554.145 442.576C554.689 442.576 555.073 442.208 555.073 441.68C555.073 441.136 554.689 440.768 554.145 440.768C553.585 440.768 553.217 441.136 553.217 441.68ZM556.855 444V445.216H558.039V452H559.527V445.216H561.607V444H559.479V443.232C559.479 442.16 560.103 441.584 561.127 441.584C561.511 441.584 561.831 441.648 561.959 441.68V440.384C561.831 440.352 561.447 440.288 560.983 440.288C559.175 440.288 558.087 441.408 558.087 443.104V444H556.855ZM563.253 444V452H564.741V444H563.253ZM563.061 441.68C563.061 442.208 563.429 442.576 563.989 442.576C564.533 442.576 564.917 442.208 564.917 441.68C564.917 441.136 564.533 440.768 563.989 440.768C563.429 440.768 563.061 441.136 563.061 441.68ZM568.429 448C568.429 446.32 569.565 445.136 571.165 445.136C572.205 445.136 572.989 445.488 573.549 445.84V444.432C573.069 444.176 572.317 443.808 571.085 443.808C568.621 443.808 566.909 445.584 566.909 448C566.909 450.416 568.621 452.192 571.085 452.192C572.333 452.192 573.117 451.808 573.597 451.552V450.16C573.101 450.464 572.269 450.864 571.165 450.864C569.549 450.864 568.429 449.68 568.429 448ZM575.638 445.776C576.118 445.488 577.142 445.104 578.246 445.104C579.51 445.104 580.342 445.584 580.342 446.976V447.376C576.998 446.912 575.126 447.888 575.126 449.84C575.126 451.312 576.182 452.192 577.654 452.192C579.462 452.192 580.342 450.64 580.438 450.416H580.47C580.47 450.416 580.406 450.672 580.422 451.056L580.438 452H581.814V446.896C581.814 444.896 580.71 443.808 578.454 443.808C577.142 443.808 576.086 444.16 575.638 444.4V445.776ZM577.91 450.992C577.11 450.992 576.598 450.496 576.598 449.792C576.598 448.704 577.702 448 580.31 448.416C580.31 449.664 579.27 450.992 577.91 450.992ZM583.351 444V445.216H584.663V449.808C584.663 451.6 585.879 452.192 587.031 452.192C587.815 452.192 588.471 452.016 588.823 451.824V450.528C588.375 450.736 587.815 450.88 587.319 450.88C586.647 450.88 586.135 450.496 586.135 449.36V445.216H588.551V444H586.135V441.6H584.679V444H583.351ZM590.472 444V452H591.96V444H590.472ZM590.28 441.68C590.28 442.208 590.648 442.576 591.208 442.576C591.752 442.576 592.136 442.208 592.136 441.68C592.136 441.136 591.752 440.768 591.208 440.768C590.648 440.768 590.28 441.136 590.28 441.68ZM598.318 443.808C595.95 443.808 594.206 445.584 594.206 448C594.206 450.416 595.95 452.192 598.318 452.192C600.702 452.192 602.446 450.416 602.446 448C602.446 445.584 600.702 443.808 598.318 443.808ZM598.318 450.896C596.782 450.896 595.646 449.696 595.646 448C595.646 446.304 596.782 445.104 598.318 445.104C599.87 445.104 601.006 446.304 601.006 448C601.006 449.696 599.87 450.896 598.318 450.896ZM604.69 444V452H606.178V448.064C606.178 446.432 607.298 445.184 608.866 445.184C610.194 445.184 610.386 446.176 610.386 447.28V452H611.874V446.976C611.874 444.976 611.106 443.808 609.138 443.808C607.442 443.808 606.386 445.008 606.082 445.728H606.05C606.066 445.696 606.114 445.456 606.114 445.12L606.082 444H604.69ZM622.016 443.808C619.809 443.808 618.097 445.584 618.097 448C618.097 450.48 619.809 452.192 622.337 452.192C623.633 452.192 624.705 451.856 625.329 451.504V450.144C624.657 450.576 623.521 450.896 622.433 450.896C620.753 450.896 619.697 449.904 619.649 448.336V448.32H625.601C625.601 448.16 625.633 447.856 625.633 447.536C625.633 445.568 624.369 443.808 622.016 443.808ZM624.161 447.264H619.664C619.793 446.112 620.625 445.056 622.001 445.056C623.425 445.056 624.177 446.112 624.161 447.264ZM634.387 444H632.659L630.675 446.944L628.707 444H627.011L629.795 447.968L626.899 452H628.579L630.707 448.96L632.851 452H634.531L631.587 447.872L634.387 444ZM636.107 445.776C636.587 445.488 637.611 445.104 638.715 445.104C639.979 445.104 640.811 445.584 640.811 446.976V447.376C637.467 446.912 635.595 447.888 635.595 449.84C635.595 451.312 636.651 452.192 638.123 452.192C639.931 452.192 640.811 450.64 640.907 450.416H640.939C640.939 450.416 640.875 450.672 640.891 451.056L640.907 452H642.283V446.896C642.283 444.896 641.179 443.808 638.923 443.808C637.611 443.808 636.555 444.16 636.107 444.4V445.776ZM638.379 450.992C637.579 450.992 637.067 450.496 637.067 449.792C637.067 448.704 638.171 448 640.779 448.416C640.779 449.664 639.739 450.992 638.379 450.992ZM644.909 444V452H646.397V448.288C646.397 446.752 647.181 445.184 648.861 445.184C650.125 445.184 650.333 446.176 650.333 447.248V452H651.821V448.288C651.821 446.784 652.525 445.184 654.237 445.184C655.453 445.184 655.741 446.112 655.741 447.264V452H657.229V446.976C657.229 444.96 656.413 443.808 654.429 443.808C653.197 443.808 652.141 444.64 651.645 445.632H651.629C651.373 444.464 650.397 443.808 649.229 443.808C647.885 443.808 646.733 444.624 646.301 445.728H646.269C646.285 445.696 646.333 445.456 646.333 445.12L646.301 444H644.909ZM659.894 455.52H661.382V451.28C661.382 450.864 661.334 450.624 661.334 450.624H661.366C661.798 451.44 662.854 452.192 664.15 452.192C666.23 452.192 667.83 450.512 667.83 448C667.83 445.52 666.23 443.808 664.118 443.808C662.822 443.808 661.702 444.592 661.286 445.424H661.254C661.254 445.424 661.302 445.184 661.302 444.832L661.27 444H659.894V455.52ZM663.91 450.896C662.71 450.896 661.398 450 661.398 448C661.398 446 662.71 445.104 663.91 445.104C665.398 445.104 666.39 446.336 666.39 448C666.39 449.696 665.398 450.896 663.91 450.896ZM669.909 449.952C669.909 451.568 670.773 452.192 671.957 452.192C672.533 452.192 672.933 452.08 673.029 452.048V450.768C672.933 450.8 672.645 450.864 672.325 450.864C671.669 450.864 671.397 450.512 671.397 449.648V440.48H669.909V449.952ZM678.11 443.808C675.902 443.808 674.19 445.584 674.19 448C674.19 450.48 675.902 452.192 678.43 452.192C679.726 452.192 680.798 451.856 681.422 451.504V450.144C680.75 450.576 679.614 450.896 678.526 450.896C676.846 450.896 675.79 449.904 675.742 448.336V448.32H681.694C681.694 448.16 681.726 447.856 681.726 447.536C681.726 445.568 680.462 443.808 678.11 443.808ZM680.254 447.264H675.758C675.886 446.112 676.718 445.056 678.094 445.056C679.518 445.056 680.27 446.112 680.254 447.264Z" fill="white"/>
<path d="M467.576 465.36V466.164H468.632V474H469.544V465.36H467.576ZM472.043 469.68C472.043 472.236 473.291 474.144 475.235 474.144C477.191 474.144 478.427 472.236 478.427 469.68C478.427 467.136 477.191 465.216 475.235 465.216C473.291 465.216 472.043 467.136 472.043 469.68ZM472.967 469.68C472.967 467.544 473.855 466.068 475.235 466.068C476.615 466.068 477.503 467.544 477.503 469.68C477.503 471.816 476.615 473.292 475.235 473.292C473.855 473.292 472.967 471.816 472.967 469.68ZM483.434 468V474H484.322V471.156C484.322 469.956 485.018 468.684 486.338 468.684C487.418 468.684 487.574 469.524 487.574 470.412V474H488.45V471.156C488.45 469.98 489.098 468.684 490.43 468.684C491.474 468.684 491.702 469.452 491.702 470.424V474H492.578V470.22C492.578 468.744 492.026 467.856 490.514 467.856C489.554 467.856 488.714 468.54 488.354 469.32H488.342C488.174 468.372 487.502 467.856 486.506 467.856C485.522 467.856 484.574 468.54 484.262 469.392H484.238C484.25 469.38 484.286 469.188 484.286 468.924L484.274 468H483.434ZM494.587 466.248C494.587 466.584 494.815 466.824 495.175 466.824C495.511 466.824 495.763 466.584 495.763 466.248C495.763 465.912 495.511 465.672 495.175 465.672C494.815 465.672 494.587 465.912 494.587 466.248ZM494.731 468V474H495.619V468H494.731ZM497.965 468V474H498.853V471.06C498.853 469.716 499.789 468.684 501.061 468.684C502.189 468.684 502.333 469.512 502.333 470.424V474H503.209V470.22C503.209 468.756 502.693 467.856 501.181 467.856C499.825 467.856 499.009 468.84 498.793 469.392H498.769C498.781 469.38 498.817 469.188 498.817 468.924L498.805 468H497.965ZM508.319 469.152C508.667 468.936 509.435 468.648 510.299 468.648C511.295 468.648 511.967 469.044 511.967 470.196V470.568C509.471 470.22 507.947 470.952 507.947 472.44C507.947 473.472 508.715 474.144 509.819 474.144C511.271 474.144 511.979 472.836 512.015 472.728H512.039C512.039 472.728 511.991 472.932 512.003 473.232V474H512.831V470.148C512.831 468.648 512.039 467.856 510.395 467.856C509.447 467.856 508.655 468.12 508.319 468.312V469.152ZM509.951 473.4C509.267 473.4 508.835 472.992 508.835 472.404C508.835 471.456 509.891 470.904 511.943 471.228C511.943 472.272 511.091 473.4 509.951 473.4ZM516.001 472.548C516.001 472.308 516.433 472.092 516.973 472.044H517.021C518.305 472.008 519.253 471.144 519.253 469.968C519.253 469.416 519.013 468.948 518.641 468.624L518.701 468.636C518.701 468.636 518.905 468.684 519.085 468.684H519.961V468H517.801C517.525 467.904 517.201 467.856 516.877 467.856C515.533 467.856 514.501 468.732 514.501 469.968C514.501 470.88 515.065 471.6 515.917 471.912C515.437 472.068 515.125 472.368 515.125 472.704C515.125 473.1 515.473 473.388 516.073 473.46C515.125 473.64 514.369 474.24 514.369 474.96C514.369 476.04 515.449 476.592 517.069 476.592C518.725 476.592 519.865 475.908 519.865 474.792C519.865 473.7 518.965 473.244 517.477 473.088C516.361 472.98 516.001 472.872 516.001 472.548ZM516.877 471.384C515.977 471.384 515.341 470.784 515.341 469.98C515.341 469.176 515.977 468.564 516.877 468.564C517.789 468.564 518.425 469.176 518.425 469.98C518.425 470.784 517.789 471.384 516.877 471.384ZM517.069 475.92C515.989 475.92 515.233 475.56 515.233 474.876C515.233 474.288 515.953 473.772 516.985 473.772C518.485 473.772 518.965 474.264 518.965 474.852C518.965 475.476 518.257 475.92 517.069 475.92ZM523.779 467.856C522.147 467.856 520.875 469.188 520.875 471C520.875 472.86 522.159 474.144 523.995 474.144C524.931 474.144 525.735 473.892 526.239 473.592V472.752C525.675 473.124 524.835 473.352 524.031 473.352C522.699 473.352 521.823 472.488 521.799 471.18V471.132H526.443C526.443 471.024 526.455 470.844 526.455 470.652C526.455 469.176 525.507 467.856 523.779 467.856ZM525.567 470.484H521.823C521.931 469.524 522.627 468.624 523.767 468.624C524.955 468.624 525.579 469.524 525.567 470.484Z" fill="#999999"/>
<rect x="437" y="168" width="373" height="1" fill="#262626"/>
<path d="M692.89 143.186L695.816 139.392C695.998 139.126 696.222 138.832 696.362 138.608C696.348 138.93 696.348 139.238 696.348 139.546V146H697.384V135.752H697.37L692.89 141.632L688.41 135.752H688.396V146H689.432V139.546C689.432 139.238 689.432 138.93 689.418 138.608L689.698 139L692.89 143.186ZM699.901 140.344C700.307 140.092 701.203 139.756 702.211 139.756C703.373 139.756 704.157 140.218 704.157 141.562V141.996C701.245 141.59 699.467 142.444 699.467 144.18C699.467 145.384 700.363 146.168 701.651 146.168C703.345 146.168 704.171 144.642 704.213 144.516H704.241C704.241 144.516 704.185 144.754 704.199 145.104V146H705.165V141.506C705.165 139.756 704.241 138.832 702.323 138.832C701.217 138.832 700.293 139.14 699.901 139.364V140.344ZM701.805 145.3C701.007 145.3 700.503 144.824 700.503 144.138C700.503 143.032 701.735 142.388 704.129 142.766C704.129 143.984 703.135 145.3 701.805 145.3ZM707.547 146H708.583V142.92C708.583 141.534 709.311 139.84 710.781 139.84C710.949 139.84 711.089 139.868 711.131 139.882V138.874C711.089 138.86 710.907 138.832 710.711 138.832C709.661 138.832 708.905 139.588 708.527 140.61H708.499C708.499 140.582 708.541 140.358 708.527 140.078V139H707.547V146ZM718.608 139H717.348L713.904 142.724V135.92H712.868V146H713.89V143.9L715.248 142.458L717.614 146H718.818L716.018 141.856L718.608 139ZM724.1 140.344C724.506 140.092 725.402 139.756 726.41 139.756C727.572 139.756 728.356 140.218 728.356 141.562V141.996C725.444 141.59 723.666 142.444 723.666 144.18C723.666 145.384 724.562 146.168 725.85 146.168C727.544 146.168 728.37 144.642 728.412 144.516H728.44C728.44 144.516 728.384 144.754 728.398 145.104V146H729.364V141.506C729.364 139.756 728.44 138.832 726.522 138.832C725.416 138.832 724.492 139.14 724.1 139.364V140.344ZM726.004 145.3C725.206 145.3 724.702 144.824 724.702 144.138C724.702 143.032 725.934 142.388 728.328 142.766C728.328 143.984 727.334 145.3 726.004 145.3ZM731.927 144.292C731.927 145.65 732.613 146.168 733.593 146.168C734.055 146.168 734.349 146.084 734.405 146.07V145.174C734.349 145.188 734.111 145.244 733.817 145.244C733.187 145.244 732.963 144.88 732.963 144.082V135.92H731.927V144.292ZM736.138 144.292C736.138 145.65 736.824 146.168 737.804 146.168C738.266 146.168 738.56 146.084 738.616 146.07V145.174C738.56 145.188 738.322 145.244 738.028 145.244C737.398 145.244 737.174 144.88 737.174 144.082V135.92H736.138V144.292ZM743.801 140.344C744.207 140.092 745.103 139.756 746.111 139.756C747.273 139.756 748.057 140.218 748.057 141.562V141.996C745.145 141.59 743.367 142.444 743.367 144.18C743.367 145.384 744.263 146.168 745.551 146.168C747.245 146.168 748.071 144.642 748.113 144.516H748.141C748.141 144.516 748.085 144.754 748.099 145.104V146H749.065V141.506C749.065 139.756 748.141 138.832 746.223 138.832C745.117 138.832 744.193 139.14 743.801 139.364V140.344ZM745.705 145.3C744.907 145.3 744.403 144.824 744.403 144.138C744.403 143.032 745.635 142.388 748.029 142.766C748.029 143.984 747.035 145.3 745.705 145.3ZM754.752 144.25C754.752 144.978 754.024 145.286 753.198 145.286C752.54 145.286 751.672 145.062 750.958 144.74V145.706C751.546 145.986 752.372 146.168 753.24 146.168C754.682 146.168 755.732 145.51 755.732 144.25C755.732 143.102 754.99 142.556 753.492 142.066C752.442 141.73 751.91 141.422 751.91 140.778C751.91 140.092 752.554 139.728 753.478 139.728C754.094 139.728 754.808 139.938 755.326 140.218V139.252C754.836 139.014 754.094 138.832 753.38 138.832C751.952 138.832 750.916 139.602 750.916 140.764C750.916 141.954 751.84 142.514 753.058 142.906C754.206 143.27 754.752 143.55 754.752 144.25ZM761.36 146H762.396V142.92C762.396 141.534 763.124 139.84 764.594 139.84C764.762 139.84 764.902 139.868 764.944 139.882V138.874C764.902 138.86 764.72 138.832 764.524 138.832C763.474 138.832 762.718 139.588 762.34 140.61H762.312C762.312 140.582 762.354 140.358 762.34 140.078V139H761.36V146ZM769.467 138.832C767.563 138.832 766.079 140.386 766.079 142.5C766.079 144.67 767.577 146.168 769.719 146.168C770.811 146.168 771.749 145.874 772.337 145.524V144.544C771.679 144.978 770.699 145.244 769.761 145.244C768.207 145.244 767.185 144.236 767.157 142.71V142.654H772.575C772.575 142.528 772.589 142.318 772.589 142.094C772.589 140.372 771.483 138.832 769.467 138.832ZM771.553 141.898H767.185C767.311 140.778 768.123 139.728 769.453 139.728C770.839 139.728 771.567 140.778 771.553 141.898ZM774.7 140.344C775.106 140.092 776.002 139.756 777.01 139.756C778.172 139.756 778.956 140.218 778.956 141.562V141.996C776.044 141.59 774.266 142.444 774.266 144.18C774.266 145.384 775.162 146.168 776.45 146.168C778.144 146.168 778.97 144.642 779.012 144.516H779.04C779.04 144.516 778.984 144.754 778.998 145.104V146H779.964V141.506C779.964 139.756 779.04 138.832 777.122 138.832C776.016 138.832 775.092 139.14 774.7 139.364V140.344ZM776.604 145.3C775.806 145.3 775.302 144.824 775.302 144.138C775.302 143.032 776.534 142.388 778.928 142.766C778.928 143.984 777.934 145.3 776.604 145.3ZM788.618 135.92H787.596V139.7C787.596 140.05 787.638 140.274 787.638 140.274H787.61C787.218 139.532 786.252 138.832 785.09 138.832C783.242 138.832 781.856 140.344 781.856 142.5C781.856 144.628 783.242 146.168 785.104 146.168C786.266 146.168 787.274 145.398 787.652 144.586H787.68C787.68 144.586 787.638 144.796 787.638 145.118L787.652 146H788.618V135.92ZM785.216 139.756C786.336 139.756 787.582 140.582 787.582 142.5C787.582 144.418 786.336 145.244 785.216 145.244C783.802 145.244 782.864 144.068 782.864 142.5C782.864 140.904 783.802 139.756 785.216 139.756Z" fill="#4D4D4D"/>
<path d="M468.916 148.216V135.04H467.188V144.004L466.774 143.554L458.728 134.824H458.71V148H460.438V139.036L460.852 139.486L468.898 148.216H468.916ZM476.131 138.784C473.467 138.784 471.505 140.782 471.505 143.5C471.505 146.218 473.467 148.216 476.131 148.216C478.813 148.216 480.775 146.218 480.775 143.5C480.775 140.782 478.813 138.784 476.131 138.784ZM476.131 146.758C474.403 146.758 473.125 145.408 473.125 143.5C473.125 141.592 474.403 140.242 476.131 140.242C477.877 140.242 479.155 141.592 479.155 143.5C479.155 145.408 477.877 146.758 476.131 146.758ZM481.986 139V140.368H483.462V145.534C483.462 147.55 484.83 148.216 486.126 148.216C487.008 148.216 487.746 148.018 488.142 147.802V146.344C487.638 146.578 487.008 146.74 486.45 146.74C485.694 146.74 485.118 146.308 485.118 145.03V140.368H487.836V139H485.118V136.3H483.48V139H481.986ZM489.997 139V148H491.671V139H489.997ZM489.781 136.39C489.781 136.984 490.195 137.398 490.825 137.398C491.437 137.398 491.869 136.984 491.869 136.39C491.869 135.778 491.437 135.364 490.825 135.364C490.195 135.364 489.781 135.778 489.781 136.39ZM493.874 139V140.368H495.206V148H496.88V140.368H499.22V139H496.826V138.136C496.826 136.93 497.528 136.282 498.68 136.282C499.112 136.282 499.472 136.354 499.616 136.39V134.932C499.472 134.896 499.04 134.824 498.518 134.824C496.484 134.824 495.26 136.084 495.26 137.992V139H493.874ZM501.072 139V148H502.746V139H501.072ZM500.856 136.39C500.856 136.984 501.27 137.398 501.9 137.398C502.512 137.398 502.944 136.984 502.944 136.39C502.944 135.778 502.512 135.364 501.9 135.364C501.27 135.364 500.856 135.778 500.856 136.39ZM506.895 143.5C506.895 141.61 508.173 140.278 509.973 140.278C511.143 140.278 512.025 140.674 512.655 141.07V139.486C512.115 139.198 511.269 138.784 509.883 138.784C507.111 138.784 505.185 140.782 505.185 143.5C505.185 146.218 507.111 148.216 509.883 148.216C511.287 148.216 512.169 147.784 512.709 147.496V145.93C512.151 146.272 511.215 146.722 509.973 146.722C508.155 146.722 506.895 145.39 506.895 143.5ZM515.005 140.998C515.545 140.674 516.697 140.242 517.939 140.242C519.361 140.242 520.297 140.782 520.297 142.348V142.798C516.535 142.276 514.429 143.374 514.429 145.57C514.429 147.226 515.617 148.216 517.273 148.216C519.307 148.216 520.297 146.47 520.405 146.218H520.441C520.441 146.218 520.369 146.506 520.387 146.938L520.405 148H521.953V142.258C521.953 140.008 520.711 138.784 518.173 138.784C516.697 138.784 515.509 139.18 515.005 139.45V140.998ZM517.561 146.866C516.661 146.866 516.085 146.308 516.085 145.516C516.085 144.292 517.327 143.5 520.261 143.968C520.261 145.372 519.091 146.866 517.561 146.866ZM523.681 139V140.368H525.157V145.534C525.157 147.55 526.525 148.216 527.821 148.216C528.703 148.216 529.441 148.018 529.837 147.802V146.344C529.333 146.578 528.703 146.74 528.145 146.74C527.389 146.74 526.813 146.308 526.813 145.03V140.368H529.531V139H526.813V136.3H525.175V139H523.681ZM531.693 139V148H533.367V139H531.693ZM531.477 136.39C531.477 136.984 531.891 137.398 532.521 137.398C533.133 137.398 533.565 136.984 533.565 136.39C533.565 135.778 533.133 135.364 532.521 135.364C531.891 135.364 531.477 135.778 531.477 136.39ZM540.52 138.784C537.856 138.784 535.894 140.782 535.894 143.5C535.894 146.218 537.856 148.216 540.52 148.216C543.202 148.216 545.164 146.218 545.164 143.5C545.164 140.782 543.202 138.784 540.52 138.784ZM540.52 146.758C538.792 146.758 537.514 145.408 537.514 143.5C537.514 141.592 538.792 140.242 540.52 140.242C542.266 140.242 543.544 141.592 543.544 143.5C543.544 145.408 542.266 146.758 540.52 146.758ZM547.689 139V148H549.363V143.572C549.363 141.736 550.623 140.332 552.387 140.332C553.881 140.332 554.097 141.448 554.097 142.69V148H555.771V142.348C555.771 140.098 554.907 138.784 552.693 138.784C550.785 138.784 549.597 140.134 549.255 140.944H549.219C549.237 140.908 549.291 140.638 549.291 140.26L549.255 139H547.689ZM562.741 145.66C562.741 146.506 561.895 146.83 560.959 146.83C560.113 146.83 558.961 146.524 558.079 146.092V147.622C558.799 147.964 559.843 148.216 561.013 148.216C562.957 148.216 564.289 147.316 564.289 145.678C564.289 144.166 563.353 143.464 561.445 142.834C560.221 142.438 559.591 142.096 559.591 141.376C559.591 140.566 560.401 140.206 561.427 140.206C562.237 140.206 563.137 140.494 563.785 140.836V139.324C563.173 139.036 562.219 138.784 561.247 138.784C559.375 138.784 558.025 139.828 558.025 141.322C558.025 142.942 559.141 143.626 560.743 144.148C562.075 144.58 562.741 144.886 562.741 145.66Z" fill="white"/>
<circle cx="586" cy="140" r="12" fill="#FFF04D"/>
<path d="M582.624 136.864C583.136 136.48 584 136.128 584.976 136.128C585.984 136.128 586.688 136.56 586.96 137.312C587.088 137.648 587.136 138.048 587.088 138.496C586.896 140.528 584.96 142.608 582.016 146H589.744V144.288H585.664C587.504 142.16 589.216 140.32 589.216 138.096C589.216 135.856 587.664 134.272 585.216 134.272C584.128 134.272 583.2 134.576 582.624 134.976V136.864Z" fill="black"/>
<rect x="203" y="51" width="72" height="10" rx="5" fill="#262626"/>
<rect x="291" y="51" width="88" height="10" rx="5" fill="#262626"/>
<rect x="395" y="51" width="96" height="10" rx="5" fill="#262626"/>
<path d="M70.112 61L74.096 50.328H76.768L80.672 61H78.032L77.216 58.552H73.456L72.64 61H70.112ZM74.016 56.68H76.64L75.344 52.648L74.016 56.68ZM89.6409 57.528L91.2889 59.032C90.9902 59.4373 90.6062 59.8107 90.1369 60.152C89.6782 60.4933 89.1609 60.7653 88.5849 60.968C88.0089 61.1707 87.3902 61.272 86.7289 61.272C85.6515 61.272 84.6969 61.032 83.8649 60.552C83.0435 60.072 82.3982 59.416 81.9289 58.584C81.4702 57.7413 81.2409 56.7813 81.2409 55.704C81.2409 54.9147 81.3742 54.1787 81.6409 53.496C81.9075 52.8027 82.2809 52.2 82.7609 51.688C83.2515 51.176 83.8329 50.776 84.5049 50.488C85.1875 50.2 85.9395 50.056 86.7609 50.056C87.7422 50.056 88.6062 50.2373 89.3529 50.6C90.0995 50.9627 90.7182 51.4853 91.2089 52.168L89.5609 53.752C89.2409 53.304 88.8622 52.9467 88.4249 52.68C87.9875 52.4027 87.4649 52.264 86.8569 52.264C86.2169 52.264 85.6622 52.4187 85.1929 52.728C84.7342 53.0267 84.3769 53.432 84.1209 53.944C83.8755 54.456 83.7529 55.0213 83.7529 55.64C83.7529 56.2693 83.8755 56.8347 84.1209 57.336C84.3769 57.8373 84.7342 58.2373 85.1929 58.536C85.6515 58.824 86.1902 58.968 86.8089 58.968C87.3209 58.968 87.7475 58.8987 88.0889 58.76C88.4302 58.6213 88.7182 58.4453 88.9529 58.232C89.1982 58.008 89.4275 57.7733 89.6409 57.528ZM92.6915 61L93.1875 50.328H95.4755L98.2595 55.336L100.979 50.328H103.283L103.78 61H101.363L101.059 54.024L98.8515 58.184H97.6035L95.2675 54.072L94.9955 61H92.6915ZM106 61V50.328H113.296V52.44H108.416V54.52H112.208V56.568H108.416V58.872H113.648V61H106ZM126.796 57.528L128.444 59.032C128.145 59.4373 127.761 59.8107 127.292 60.152C126.833 60.4933 126.316 60.7653 125.74 60.968C125.164 61.1707 124.545 61.272 123.884 61.272C122.807 61.272 121.852 61.032 121.02 60.552C120.199 60.072 119.553 59.416 119.084 58.584C118.625 57.7413 118.396 56.7813 118.396 55.704C118.396 54.9147 118.529 54.1787 118.796 53.496C119.063 52.8027 119.436 52.2 119.916 51.688C120.407 51.176 120.988 50.776 121.66 50.488C122.343 50.2 123.095 50.056 123.916 50.056C124.897 50.056 125.761 50.2373 126.508 50.6C127.255 50.9627 127.873 51.4853 128.364 52.168L126.716 53.752C126.396 53.304 126.017 52.9467 125.58 52.68C125.143 52.4027 124.62 52.264 124.012 52.264C123.372 52.264 122.817 52.4187 122.348 52.728C121.889 53.0267 121.532 53.432 121.276 53.944C121.031 54.456 120.908 55.0213 120.908 55.64C120.908 56.2693 121.031 56.8347 121.276 57.336C121.532 57.8373 121.889 58.2373 122.348 58.536C122.807 58.824 123.345 58.968 123.964 58.968C124.476 58.968 124.903 58.8987 125.244 58.76C125.585 58.6213 125.873 58.4453 126.108 58.232C126.353 58.008 126.583 57.7733 126.796 57.528ZM134.877 61.272C134.088 61.272 133.357 61.1333 132.685 60.856C132.013 60.568 131.421 60.168 130.909 59.656C130.408 59.144 130.019 58.5467 129.741 57.864C129.464 57.1813 129.325 56.4453 129.325 55.656C129.325 54.856 129.464 54.12 129.741 53.448C130.019 52.7653 130.408 52.168 130.909 51.656C131.411 51.144 131.997 50.7493 132.669 50.472C133.352 50.184 134.088 50.04 134.877 50.04C135.667 50.04 136.397 50.184 137.069 50.472C137.741 50.7493 138.328 51.144 138.829 51.656C139.341 52.168 139.736 52.7653 140.013 53.448C140.291 54.12 140.429 54.856 140.429 55.656C140.429 56.4453 140.291 57.1813 140.013 57.864C139.736 58.5467 139.341 59.144 138.829 59.656C138.328 60.168 137.741 60.568 137.069 60.856C136.397 61.1333 135.667 61.272 134.877 61.272ZM134.877 59C135.507 59 136.045 58.8453 136.493 58.536C136.952 58.2267 137.299 57.816 137.533 57.304C137.779 56.792 137.901 56.232 137.901 55.624C137.901 55.016 137.779 54.4613 137.533 53.96C137.299 53.448 136.952 53.0427 136.493 52.744C136.045 52.4347 135.507 52.28 134.877 52.28C134.248 52.28 133.704 52.4347 133.245 52.744C132.797 53.0427 132.451 53.448 132.205 53.96C131.96 54.4613 131.837 55.016 131.837 55.624C131.837 56.232 131.96 56.792 132.205 57.304C132.451 57.816 132.797 58.2267 133.245 58.536C133.704 58.8453 134.248 59 134.877 59ZM142.421 61V50.328H146.389C147.221 50.328 147.914 50.4827 148.469 50.792C149.023 51.0907 149.439 51.496 149.717 52.008C149.994 52.5093 150.133 53.064 150.133 53.672C150.133 54.3547 149.978 54.9573 149.669 55.48C149.37 56.0027 148.943 56.4187 148.389 56.728L150.757 61H148.101L146.117 57.08H144.773V61H142.421ZM144.773 55.144H146.261C146.709 55.144 147.061 55.0107 147.317 54.744C147.573 54.4773 147.701 54.1413 147.701 53.736C147.701 53.2987 147.567 52.952 147.301 52.696C147.045 52.44 146.698 52.312 146.261 52.312H144.773V55.144ZM152.459 61V50.328H156.347C157.233 50.328 157.947 50.4933 158.491 50.824C159.046 51.144 159.451 51.5653 159.707 52.088C159.963 52.6107 160.091 53.1707 160.091 53.768C160.091 54.5253 159.921 55.1653 159.579 55.688C159.238 56.2 158.79 56.5893 158.235 56.856C157.691 57.112 157.099 57.24 156.459 57.24H154.811V61H152.459ZM154.811 55.288H156.219C156.657 55.288 157.009 55.1493 157.275 54.872C157.542 54.5947 157.675 54.2427 157.675 53.816C157.675 53.368 157.542 53.0053 157.275 52.728C157.009 52.44 156.651 52.296 156.203 52.296H154.811V55.288ZM159.184 61V58.456H161.792V61H159.184Z" fill="white"/>
<path d="M33.0042 63.455L44.1616 46.2899C44.5559 45.6832 45.4441 45.6832 45.8384 46.2899L56.9958 63.455C57.4282 64.1203 56.9508 65 56.1573 65H33.8427C33.0492 65 32.5718 64.1203 33.0042 63.455Z" fill="white"/>
<circle cx="720" cy="56" r="23.5" stroke="#333333"/>
<path d="M717.5 46C713.125 47.125 710 51.125 710 55.875C710 61.5 714.5 66 720.125 66C724.875 66 728.75 62.875 730 58.5C722.375 60.625 715.375 53.625 717.5 46Z" fill="white"/>
<circle cx="654" cy="56" r="23.5" stroke="#333333"/>
<circle cx="652" cy="54" r="6.5" stroke="white" stroke-width="3"/>
<path d="M657 59L662 64" stroke="white" stroke-width="3" stroke-linecap="round"/>
<circle cx="786" cy="56" r="24" fill="white"/>
<g clip-path="url(#clip0_174_711)">
<path d="M793.371 67.8163C793.353 67.7754 791.634 63.6378 792.429 60.6724L793.901 55.1787C794.459 53.0973 794.167 50.8795 793.089 49.0133C792.012 47.1471 790.237 45.7854 788.156 45.2277C786.074 44.6699 783.857 44.9619 781.99 46.0394C780.124 47.1168 778.762 48.8915 778.205 50.9729L776.733 56.4666C775.938 59.432 772.381 62.1561 772.345 62.1827C772.285 62.2286 772.238 62.2906 772.211 62.3617C772.184 62.4327 772.177 62.51 772.192 62.5847C772.206 62.6593 772.242 62.7284 772.294 62.784C772.346 62.8396 772.412 62.8794 772.486 62.8991L792.891 68.3666C792.964 68.3864 793.042 68.3851 793.115 68.3629C793.187 68.3407 793.253 68.2986 793.303 68.2412C793.352 68.1839 793.385 68.1137 793.397 68.0385C793.409 67.9634 793.4 67.8864 793.371 67.8163V67.8163Z" fill="black"/>
<path d="M779.762 65.6904C779.68 66.3689 779.847 67.0539 780.23 67.6198C780.612 68.1857 781.187 68.5945 781.847 68.7714C782.507 68.9482 783.208 68.8812 783.823 68.5826C784.437 68.284 784.924 67.7738 785.193 67.1456L779.762 65.6904Z" fill="black"/>
</g>
<circle cx="793" cy="47" r="6" fill="#E600C0" stroke="white" stroke-width="2"/>
<defs>
<linearGradient id="paint0_linear_174_711" x1="421" y1="0" x2="421" y2="560" gradientUnits="userSpaceOnUse">
<stop stop-opacity="0.3"/>
<stop offset="1"/>
</linearGradient>
<linearGradient id="paint1_linear_174_711" x1="404" y1="166" x2="29.9715" y2="204.823" gradientUnits="userSpaceOnUse">
<stop offset="0.164679" stop-color="#FF884D"/>
<stop offset="0.538331" stop-color="white"/>
<stop offset="0.801667" stop-color="#E300BD"/>
</linearGradient>
<clipPath id="clip0_174_711">
<rect width="26" height="26" fill="white" transform="translate(775.809 41.0781) rotate(15)"/>
</clipPath>
</defs>
</svg>
