<svg width="842" height="560" viewBox="0 0 842 560" fill="none" xmlns="http://www.w3.org/2000/svg">
<rect width="842" height="560" rx="20" fill="url(#paint0_linear_505_2367)"/>
<rect x="32.5" y="112.5" width="372" height="191" rx="7.5" fill="black" stroke="#262626"/>
<path d="M404 206.048C373.75 197.256 343.373 188.193 311.25 185.08C280.333 182.085 249.417 185.08 218.5 197.062C187.583 209.044 156.667 230.012 125.75 237.5C94.6297 245.038 63.5216 238.922 33 233.007" stroke="#666666" stroke-linecap="round"/>
<path d="M33 207.697C63.2496 218.186 93.6266 228.998 125.75 232.711C156.667 236.285 187.583 232.711 218.5 218.417C249.417 204.123 280.333 179.109 311.25 170.175C342.37 161.182 373.478 168.48 404 175.535" stroke="url(#paint1_linear_505_2367)" stroke-linecap="round"/>
<path d="M33 250.98C63.2496 257.767 93.6266 264.764 125.75 267.166C156.667 269.478 187.583 267.166 218.5 257.917C249.417 248.668 280.333 232.482 311.25 226.701C342.37 220.883 373.478 225.604 404 230.17" stroke="#666666" stroke-linecap="round"/>
<path d="M279 303V184H33" stroke="#666666" stroke-dasharray="3 3"/>
<circle cx="279" cy="184" r="8.5" fill="black" stroke="#FFE14D" stroke-width="3"/>
<rect x="52" y="132" width="160" height="10" rx="5" fill="#262626"/>
<rect x="32.5" y="336.5" width="372" height="191" rx="7.5" stroke="#1A1A1A"/>
<circle cx="219" cy="447" r="44" stroke="#333333"/>
<path opacity="0.4" d="M204.572 460L216.2 434.08H200.54V435.556H213.788L202.772 460H204.572ZM220.718 458.596C222.482 459.856 224.57 460.432 226.694 460.432C231.734 460.432 235.478 457.264 235.478 452.332C235.478 447.4 231.662 444.016 226.946 444.016C224.894 444.016 223.742 444.412 223.13 444.664L223.526 435.556H233.714V434.08H222.014L221.474 446.716C222.05 446.428 223.85 445.528 226.874 445.528C230.69 445.528 233.822 448.3 233.822 452.332C233.822 456.364 230.798 458.92 226.694 458.92C224.246 458.92 222.446 458.2 220.718 456.904V458.596Z" fill="white"/>
<path d="M175 447C175 471.301 194.699 491 219 491C243.301 491 263 471.301 263 447C263 422.699 243.301 403 219 403" stroke="#999999" stroke-linecap="round"/>
<circle cx="103" cy="447" r="44" stroke="#333333"/>
<path opacity="0.4" d="M85.728 437.248C87.348 435.988 89.292 435.16 91.56 435.16C95.016 435.16 97.464 437.608 97.464 441.136C97.464 445.816 93.576 450.064 84.54 460H100.308V458.524H87.888C94.692 450.964 99.12 446.392 99.12 441.172C99.12 436.744 95.952 433.648 91.56 433.648C89.436 433.648 87.528 434.332 85.728 435.592V437.248ZM105.527 458.596C107.291 459.856 109.379 460.432 111.503 460.432C116.543 460.432 120.287 457.264 120.287 452.332C120.287 447.4 116.471 444.016 111.755 444.016C109.703 444.016 108.551 444.412 107.939 444.664L108.335 435.556H118.523V434.08H106.823L106.283 446.716C106.859 446.428 108.659 445.528 111.683 445.528C115.499 445.528 118.631 448.3 118.631 452.332C118.631 456.364 115.607 458.92 111.503 458.92C109.055 458.92 107.255 458.2 105.527 456.904V458.596Z" fill="white"/>
<path d="M147 447C147 422.699 127.301 403 103 403" stroke="#999999" stroke-linecap="round"/>
<circle cx="335" cy="447" r="44" stroke="#333333"/>
<path opacity="0.4" d="M315.98 458.596C317.744 459.856 319.832 460.432 321.956 460.432C326.996 460.432 330.74 457.264 330.74 452.332C330.74 447.4 326.924 444.016 322.208 444.016C320.156 444.016 319.004 444.412 318.392 444.664L318.788 435.556H328.976V434.08H317.276L316.736 446.716C317.312 446.428 319.112 445.528 322.136 445.528C325.952 445.528 329.084 448.3 329.084 452.332C329.084 456.364 326.06 458.92 321.956 458.92C319.508 458.92 317.708 458.2 315.98 456.904V458.596ZM335.777 447.04C335.777 454.78 339.377 460.432 344.957 460.432C350.573 460.432 354.137 454.78 354.137 447.04C354.137 439.408 350.573 433.648 344.957 433.648C339.377 433.648 335.777 439.408 335.777 447.04ZM337.433 447.04C337.433 440.092 340.385 435.16 344.957 435.16C349.529 435.16 352.481 440.092 352.481 447.04C352.481 454.06 349.529 458.92 344.957 458.92C340.385 458.92 337.433 454.06 337.433 447.04Z" fill="white"/>
<path d="M335 491C359.301 491 379 471.301 379 447C379 422.699 359.301 403 335 403" stroke="#999999" stroke-linecap="round"/>
<rect x="52" y="356" width="120" height="10" rx="5" fill="#262626"/>
<rect x="437" y="112" width="373" height="416" rx="8" fill="#1A1A1A"/>
<rect x="451" y="185" width="345" height="84" rx="4" fill="#262626"/>
<path fill-rule="evenodd" clip-rule="evenodd" d="M764 217C764 218.105 763.105 219 762 219C760.895 219 760 218.105 760 217C760 215.895 760.895 215 762 215C763.105 215 764 215.895 764 217ZM772 217C772 218.105 771.105 219 770 219C768.895 219 768 218.105 768 217C768 215.895 768.895 215 770 215C771.105 215 772 215.895 772 217ZM778 219C779.105 219 780 218.105 780 217C780 215.895 779.105 215 778 215C776.895 215 776 215.895 776 217C776 218.105 776.895 219 778 219Z" fill="#4D4D4D"/>
<path d="M471.464 200.48H469.928V209.312C469.928 210.288 469.432 210.816 468.504 210.816C467.976 210.816 467.48 210.672 467.16 210.48V211.872C467.464 212.048 468.024 212.192 468.664 212.192C470.632 212.192 471.464 211.072 471.464 209.04V200.48ZM477.88 203.808C475.512 203.808 473.768 205.584 473.768 208C473.768 210.416 475.512 212.192 477.88 212.192C480.264 212.192 482.008 210.416 482.008 208C482.008 205.584 480.264 203.808 477.88 203.808ZM477.88 210.896C476.344 210.896 475.208 209.696 475.208 208C475.208 206.304 476.344 205.104 477.88 205.104C479.432 205.104 480.568 206.304 480.568 208C480.568 209.696 479.432 210.896 477.88 210.896ZM484.253 212H485.741V208.064C485.741 206.432 486.861 205.184 488.429 205.184C489.757 205.184 489.949 206.176 489.949 207.28V212H491.437V206.976C491.437 204.976 490.669 203.808 488.701 203.808C487.005 203.808 486.029 205.008 485.693 205.728H485.677C485.677 205.6 485.725 205.296 485.725 204.928V200.48H484.253V212ZM494.112 204V212H495.6V208.064C495.6 206.432 496.72 205.184 498.288 205.184C499.616 205.184 499.808 206.176 499.808 207.28V212H501.296V206.976C501.296 204.976 500.528 203.808 498.56 203.808C496.864 203.808 495.808 205.008 495.504 205.728H495.472C495.488 205.696 495.536 205.456 495.536 205.12L495.504 204H494.112ZM508.19 204V212H509.678V208.288C509.678 206.752 510.462 205.184 512.142 205.184C513.406 205.184 513.614 206.176 513.614 207.248V212H515.102V208.288C515.102 206.784 515.806 205.184 517.518 205.184C518.734 205.184 519.022 206.112 519.022 207.264V212H520.51V206.976C520.51 204.96 519.694 203.808 517.71 203.808C516.478 203.808 515.422 204.64 514.926 205.632H514.91C514.654 204.464 513.678 203.808 512.51 203.808C511.166 203.808 510.014 204.624 509.582 205.728H509.55C509.566 205.696 509.614 205.456 509.614 205.12L509.582 204H508.19ZM526.251 203.808C524.043 203.808 522.331 205.584 522.331 208C522.331 210.48 524.043 212.192 526.571 212.192C527.867 212.192 528.939 211.856 529.563 211.504V210.144C528.891 210.576 527.755 210.896 526.667 210.896C524.987 210.896 523.931 209.904 523.883 208.336V208.32H529.835C529.835 208.16 529.867 207.856 529.867 207.536C529.867 205.568 528.603 203.808 526.251 203.808ZM528.395 207.264H523.899C524.027 206.112 524.859 205.056 526.235 205.056C527.659 205.056 528.411 206.112 528.395 207.264ZM532.065 204V212H533.553V208.064C533.553 206.432 534.673 205.184 536.241 205.184C537.569 205.184 537.761 206.176 537.761 207.28V212H539.249V206.976C539.249 204.976 538.481 203.808 536.513 203.808C534.817 203.808 533.761 205.008 533.457 205.728H533.425C533.441 205.696 533.489 205.456 533.489 205.12L533.457 204H532.065ZM540.757 204V205.216H542.069V209.808C542.069 211.6 543.285 212.192 544.437 212.192C545.221 212.192 545.877 212.016 546.229 211.824V210.528C545.781 210.736 545.221 210.88 544.725 210.88C544.053 210.88 543.541 210.496 543.541 209.36V205.216H545.957V204H543.541V201.6H542.085V204H540.757ZM547.878 204V212H549.366V204H547.878ZM547.686 201.68C547.686 202.208 548.054 202.576 548.614 202.576C549.158 202.576 549.542 202.208 549.542 201.68C549.542 201.136 549.158 200.768 548.614 200.768C548.054 200.768 547.686 201.136 547.686 201.68ZM555.724 203.808C553.356 203.808 551.612 205.584 551.612 208C551.612 210.416 553.356 212.192 555.724 212.192C558.108 212.192 559.852 210.416 559.852 208C559.852 205.584 558.108 203.808 555.724 203.808ZM555.724 210.896C554.188 210.896 553.052 209.696 553.052 208C553.052 206.304 554.188 205.104 555.724 205.104C557.276 205.104 558.412 206.304 558.412 208C558.412 209.696 557.276 210.896 555.724 210.896ZM562.097 204V212H563.585V208.064C563.585 206.432 564.705 205.184 566.273 205.184C567.601 205.184 567.793 206.176 567.793 207.28V212H569.281V206.976C569.281 204.976 568.513 203.808 566.545 203.808C564.849 203.808 563.793 205.008 563.489 205.728H563.457C563.473 205.696 563.521 205.456 563.521 205.12L563.489 204H562.097ZM575.204 203.808C572.996 203.808 571.284 205.584 571.284 208C571.284 210.48 572.996 212.192 575.524 212.192C576.82 212.192 577.892 211.856 578.516 211.504V210.144C577.844 210.576 576.708 210.896 575.62 210.896C573.94 210.896 572.884 209.904 572.836 208.336V208.32H578.788C578.788 208.16 578.82 207.856 578.82 207.536C578.82 205.568 577.556 203.808 575.204 203.808ZM577.348 207.264H572.852C572.98 206.112 573.812 205.056 575.188 205.056C576.612 205.056 577.364 206.112 577.348 207.264ZM588.361 200.48H586.873V204.608C586.873 205.024 586.921 205.264 586.921 205.264H586.889C586.457 204.512 585.401 203.808 584.105 203.808C582.025 203.808 580.425 205.488 580.425 208C580.425 210.48 582.025 212.192 584.137 212.192C585.433 212.192 586.553 211.36 586.969 210.464H587.001C587.001 210.464 586.953 210.704 586.953 211.056L586.985 212H588.361V200.48ZM584.345 205.104C585.545 205.104 586.857 206 586.857 208C586.857 210 585.545 210.896 584.345 210.896C582.857 210.896 581.865 209.664 581.865 208C581.865 206.304 582.857 205.104 584.345 205.104ZM594.031 215.568C594.207 215.648 594.639 215.712 595.055 215.712C597.167 215.712 598.063 214.256 599.151 211.632L602.303 204H600.655L599.551 206.896C599.167 207.888 598.591 209.488 598.191 210.4C597.775 209.232 597.295 208.064 596.847 206.896L595.727 204H594.079L597.423 211.904C596.815 213.36 596.175 214.432 594.895 214.432C594.495 214.432 594.207 214.384 594.031 214.336V215.568ZM606.99 203.808C604.622 203.808 602.878 205.584 602.878 208C602.878 210.416 604.622 212.192 606.99 212.192C609.374 212.192 611.118 210.416 611.118 208C611.118 205.584 609.374 203.808 606.99 203.808ZM606.99 210.896C605.454 210.896 604.318 209.696 604.318 208C604.318 206.304 605.454 205.104 606.99 205.104C608.542 205.104 609.678 206.304 609.678 208C609.678 209.696 608.542 210.896 606.99 210.896ZM620.226 212V204H618.738V207.936C618.738 209.568 617.65 210.816 616.13 210.816C614.802 210.816 614.61 209.824 614.61 208.72V204H613.122V209.024C613.122 211.024 613.89 212.192 615.858 212.192C617.506 212.192 618.53 210.992 618.834 210.272H618.866C618.866 210.304 618.802 210.544 618.802 210.88L618.834 212H620.226ZM627.362 204V212H628.85V204H627.362ZM627.17 201.68C627.17 202.208 627.538 202.576 628.098 202.576C628.642 202.576 629.026 202.208 629.026 201.68C629.026 201.136 628.642 200.768 628.098 200.768C627.538 200.768 627.17 201.136 627.17 201.68ZM631.769 204V212H633.257V208.064C633.257 206.432 634.377 205.184 635.945 205.184C637.273 205.184 637.465 206.176 637.465 207.28V212H638.953V206.976C638.953 204.976 638.185 203.808 636.217 203.808C634.521 203.808 633.465 205.008 633.161 205.728H633.129C633.145 205.696 633.193 205.456 633.193 205.12L633.161 204H631.769ZM644.679 204V205.216H645.991V209.808C645.991 211.6 647.207 212.192 648.359 212.192C649.143 212.192 649.799 212.016 650.151 211.824V210.528C649.703 210.736 649.143 210.88 648.647 210.88C647.975 210.88 647.463 210.496 647.463 209.36V205.216H649.879V204H647.463V201.6H646.007V204H644.679ZM651.8 212H653.288V208.064C653.288 206.432 654.408 205.184 655.976 205.184C657.304 205.184 657.496 206.176 657.496 207.28V212H658.984V206.976C658.984 204.976 658.216 203.808 656.248 203.808C654.552 203.808 653.576 205.008 653.24 205.728H653.224C653.224 205.6 653.272 205.296 653.272 204.928V200.48H651.8V212ZM664.907 203.808C662.699 203.808 660.987 205.584 660.987 208C660.987 210.48 662.699 212.192 665.227 212.192C666.523 212.192 667.595 211.856 668.219 211.504V210.144C667.547 210.576 666.411 210.896 665.323 210.896C663.643 210.896 662.587 209.904 662.539 208.336V208.32H668.491C668.491 208.16 668.523 207.856 668.523 207.536C668.523 205.568 667.259 203.808 664.907 203.808ZM667.051 207.264H662.555C662.683 206.112 663.515 205.056 664.891 205.056C666.315 205.056 667.067 206.112 667.051 207.264ZM467.64 226.24C467.64 229.616 470.2 232.192 473.544 232.192C476.888 232.192 479.448 229.616 479.448 226.24C479.448 222.864 476.84 220.288 473.544 220.288C470.2 220.288 467.64 222.912 467.64 226.24ZM469.192 226.24C469.192 223.632 471.048 221.712 473.544 221.712C476.04 221.712 477.88 223.632 477.88 226.24C477.88 228.848 476.04 230.768 473.544 230.768C471.048 230.768 469.192 228.848 469.192 226.24ZM481.55 224V232H483.038V228.064C483.038 226.432 484.158 225.184 485.726 225.184C487.054 225.184 487.246 226.176 487.246 227.28V232H488.734V226.976C488.734 224.976 487.966 223.808 485.998 223.808C484.302 223.808 483.246 225.008 482.942 225.728H482.91C482.926 225.696 482.974 225.456 482.974 225.12L482.942 224H481.55ZM490.673 228.096H495.441V226.864H490.673V228.096ZM497.612 232H498.988L499.02 231.056C499.02 230.704 498.972 230.464 498.972 230.464H499.004C499.42 231.36 500.54 232.192 501.836 232.192C503.948 232.192 505.548 230.48 505.548 228C505.548 225.488 503.948 223.808 501.868 223.808C500.572 223.808 499.516 224.512 499.084 225.264H499.052C499.052 225.264 499.1 225.024 499.1 224.608V220.48H497.612V232ZM501.628 225.104C503.116 225.104 504.108 226.304 504.108 228C504.108 229.664 503.116 230.896 501.628 230.896C500.428 230.896 499.116 230 499.116 228C499.116 226 500.428 225.104 501.628 225.104ZM511.302 223.808C508.934 223.808 507.19 225.584 507.19 228C507.19 230.416 508.934 232.192 511.302 232.192C513.686 232.192 515.43 230.416 515.43 228C515.43 225.584 513.686 223.808 511.302 223.808ZM511.302 230.896C509.766 230.896 508.63 229.696 508.63 228C508.63 226.304 509.766 225.104 511.302 225.104C512.854 225.104 513.99 226.304 513.99 228C513.99 229.696 512.854 230.896 511.302 230.896ZM517.435 225.776C517.915 225.488 518.939 225.104 520.043 225.104C521.307 225.104 522.139 225.584 522.139 226.976V227.376C518.795 226.912 516.923 227.888 516.923 229.84C516.923 231.312 517.979 232.192 519.451 232.192C521.259 232.192 522.139 230.64 522.235 230.416H522.267C522.267 230.416 522.203 230.672 522.219 231.056L522.235 232H523.611V226.896C523.611 224.896 522.507 223.808 520.251 223.808C518.939 223.808 517.883 224.16 517.435 224.4V225.776ZM519.707 230.992C518.907 230.992 518.395 230.496 518.395 229.792C518.395 228.704 519.499 228 522.107 228.416C522.107 229.664 521.067 230.992 519.707 230.992ZM526.125 232H527.613V228.512C527.613 226.96 528.509 225.248 530.061 225.248C530.269 225.248 530.413 225.28 530.477 225.296V223.856C530.413 223.84 530.221 223.808 529.997 223.808C528.845 223.808 527.997 224.576 527.533 225.712H527.517C527.501 225.664 527.549 225.424 527.533 225.12L527.517 224H526.125V232ZM539.579 220.48H538.091V224.608C538.091 225.024 538.139 225.264 538.139 225.264H538.107C537.675 224.512 536.619 223.808 535.323 223.808C533.243 223.808 531.643 225.488 531.643 228C531.643 230.48 533.243 232.192 535.355 232.192C536.651 232.192 537.771 231.36 538.187 230.464H538.219C538.219 230.464 538.171 230.704 538.171 231.056L538.203 232H539.579V220.48ZM535.563 225.104C536.763 225.104 538.075 226 538.075 228C538.075 230 536.763 230.896 535.563 230.896C534.075 230.896 533.083 229.664 533.083 228C533.083 226.304 534.075 225.104 535.563 225.104ZM542.503 224V232H543.991V224H542.503ZM542.311 221.68C542.311 222.208 542.679 222.576 543.239 222.576C543.783 222.576 544.167 222.208 544.167 221.68C544.167 221.136 543.783 220.768 543.239 220.768C542.679 220.768 542.311 221.136 542.311 221.68ZM546.909 224V232H548.397V228.064C548.397 226.432 549.517 225.184 551.085 225.184C552.413 225.184 552.605 226.176 552.605 227.28V232H554.093V226.976C554.093 224.976 553.325 223.808 551.357 223.808C549.661 223.808 548.605 225.008 548.301 225.728H548.269C548.285 225.696 548.333 225.456 548.333 225.12L548.301 224H546.909ZM558.385 230.064C558.385 229.76 558.961 229.488 559.681 229.424H559.697C561.377 229.328 562.625 228.208 562.625 226.64C562.625 226 562.353 225.44 561.921 225.04L562.017 225.056C562.017 225.056 562.257 225.12 562.465 225.12H563.569V224H560.657C560.289 223.872 559.841 223.808 559.393 223.808C557.569 223.808 556.145 224.96 556.145 226.64C556.145 227.856 556.897 228.816 558.033 229.232C557.345 229.456 556.929 229.888 556.929 230.352C556.929 230.896 557.393 231.28 558.161 231.376C556.929 231.616 555.953 232.4 555.953 233.344C555.953 234.768 557.441 235.504 559.617 235.504C561.889 235.504 563.457 234.576 563.457 233.04C563.457 231.584 562.305 230.976 560.273 230.752C558.897 230.592 558.385 230.464 558.385 230.064ZM559.393 228.384C558.305 228.384 557.537 227.664 557.537 226.672C557.537 225.68 558.305 224.944 559.393 224.944C560.513 224.944 561.265 225.68 561.265 226.672C561.265 227.664 560.513 228.384 559.393 228.384ZM559.633 234.448C558.321 234.448 557.393 234.016 557.393 233.168C557.393 232.448 558.273 231.824 559.521 231.824C561.329 231.824 561.969 232.4 561.969 233.136C561.969 233.92 561.073 234.448 559.633 234.448ZM569.566 235.52H571.054V231.28C571.054 230.864 571.006 230.624 571.006 230.624H571.038C571.47 231.44 572.526 232.192 573.822 232.192C575.902 232.192 577.502 230.512 577.502 228C577.502 225.52 575.902 223.808 573.79 223.808C572.494 223.808 571.374 224.592 570.958 225.424H570.926C570.926 225.424 570.974 225.184 570.974 224.832L570.942 224H569.566V235.52ZM573.582 230.896C572.382 230.896 571.07 230 571.07 228C571.07 226 572.382 225.104 573.582 225.104C575.07 225.104 576.062 226.336 576.062 228C576.062 229.696 575.07 230.896 573.582 230.896ZM579.625 232H581.113V228.512C581.113 226.96 582.009 225.248 583.561 225.248C583.769 225.248 583.913 225.28 583.977 225.296V223.856C583.913 223.84 583.721 223.808 583.497 223.808C582.345 223.808 581.497 224.576 581.033 225.712H581.017C581.001 225.664 581.049 225.424 581.033 225.12L581.017 224H579.625V232ZM589.255 223.808C586.887 223.808 585.143 225.584 585.143 228C585.143 230.416 586.887 232.192 589.255 232.192C591.639 232.192 593.383 230.416 593.383 228C593.383 225.584 591.639 223.808 589.255 223.808ZM589.255 230.896C587.719 230.896 586.583 229.696 586.583 228C586.583 226.304 587.719 225.104 589.255 225.104C590.807 225.104 591.943 226.304 591.943 228C591.943 229.696 590.807 230.896 589.255 230.896ZM597.116 224H595.628V232.72C595.628 233.776 595.068 234.368 594.156 234.368C593.932 234.368 593.724 234.336 593.612 234.304V235.6C593.772 235.664 594.092 235.712 594.444 235.712C596.14 235.712 597.116 234.704 597.116 232.928V224ZM595.436 221.68C595.436 222.208 595.804 222.576 596.364 222.576C596.908 222.576 597.292 222.208 597.292 221.68C597.292 221.136 596.908 220.768 596.364 220.768C595.804 220.768 595.436 221.136 595.436 221.68ZM603.282 223.808C601.074 223.808 599.362 225.584 599.362 228C599.362 230.48 601.074 232.192 603.602 232.192C604.898 232.192 605.97 231.856 606.594 231.504V230.144C605.922 230.576 604.786 230.896 603.698 230.896C602.018 230.896 600.962 229.904 600.914 228.336V228.32H606.866C606.866 228.16 606.898 227.856 606.898 227.536C606.898 225.568 605.634 223.808 603.282 223.808ZM605.426 227.264H600.93C601.058 226.112 601.89 225.056 603.266 225.056C604.69 225.056 605.442 226.112 605.426 227.264ZM610.023 228C610.023 226.32 611.159 225.136 612.759 225.136C613.799 225.136 614.583 225.488 615.143 225.84V224.432C614.663 224.176 613.911 223.808 612.679 223.808C610.215 223.808 608.503 225.584 608.503 228C608.503 230.416 610.215 232.192 612.679 232.192C613.927 232.192 614.711 231.808 615.191 231.552V230.16C614.695 230.464 613.863 230.864 612.759 230.864C611.143 230.864 610.023 229.68 610.023 228ZM616.304 224V225.216H617.616V229.808C617.616 231.6 618.832 232.192 619.984 232.192C620.768 232.192 621.424 232.016 621.776 231.824V230.528C621.328 230.736 620.768 230.88 620.272 230.88C619.6 230.88 619.088 230.496 619.088 229.36V225.216H621.504V224H619.088V221.6H617.632V224H616.304Z" fill="white"/>
<path d="M467.576 245.36V246.164H468.632V254H469.544V245.36H467.576ZM472.043 249.68C472.043 252.236 473.291 254.144 475.235 254.144C477.191 254.144 478.427 252.236 478.427 249.68C478.427 247.136 477.191 245.216 475.235 245.216C473.291 245.216 472.043 247.136 472.043 249.68ZM472.967 249.68C472.967 247.544 473.855 246.068 475.235 246.068C476.615 246.068 477.503 247.544 477.503 249.68C477.503 251.816 476.615 253.292 475.235 253.292C473.855 253.292 472.967 251.816 472.967 249.68ZM483.434 248V254H484.322V251.156C484.322 249.956 485.018 248.684 486.338 248.684C487.418 248.684 487.574 249.524 487.574 250.412V254H488.45V251.156C488.45 249.98 489.098 248.684 490.43 248.684C491.474 248.684 491.702 249.452 491.702 250.424V254H492.578V250.22C492.578 248.744 492.026 247.856 490.514 247.856C489.554 247.856 488.714 248.54 488.354 249.32H488.342C488.174 248.372 487.502 247.856 486.506 247.856C485.522 247.856 484.574 248.54 484.262 249.392H484.238C484.25 249.38 484.286 249.188 484.286 248.924L484.274 248H483.434ZM494.587 246.248C494.587 246.584 494.815 246.824 495.175 246.824C495.511 246.824 495.763 246.584 495.763 246.248C495.763 245.912 495.511 245.672 495.175 245.672C494.815 245.672 494.587 245.912 494.587 246.248ZM494.731 248V254H495.619V248H494.731ZM497.965 248V254H498.853V251.06C498.853 249.716 499.789 248.684 501.061 248.684C502.189 248.684 502.333 249.512 502.333 250.424V254H503.209V250.22C503.209 248.756 502.693 247.856 501.181 247.856C499.825 247.856 499.009 248.84 498.793 249.392H498.769C498.781 249.38 498.817 249.188 498.817 248.924L498.805 248H497.965ZM508.319 249.152C508.667 248.936 509.435 248.648 510.299 248.648C511.295 248.648 511.967 249.044 511.967 250.196V250.568C509.471 250.22 507.947 250.952 507.947 252.44C507.947 253.472 508.715 254.144 509.819 254.144C511.271 254.144 511.979 252.836 512.015 252.728H512.039C512.039 252.728 511.991 252.932 512.003 253.232V254H512.831V250.148C512.831 248.648 512.039 247.856 510.395 247.856C509.447 247.856 508.655 248.12 508.319 248.312V249.152ZM509.951 253.4C509.267 253.4 508.835 252.992 508.835 252.404C508.835 251.456 509.891 250.904 511.943 251.228C511.943 252.272 511.091 253.4 509.951 253.4ZM516.001 252.548C516.001 252.308 516.433 252.092 516.973 252.044H517.021C518.305 252.008 519.253 251.144 519.253 249.968C519.253 249.416 519.013 248.948 518.641 248.624L518.701 248.636C518.701 248.636 518.905 248.684 519.085 248.684H519.961V248H517.801C517.525 247.904 517.201 247.856 516.877 247.856C515.533 247.856 514.501 248.732 514.501 249.968C514.501 250.88 515.065 251.6 515.917 251.912C515.437 252.068 515.125 252.368 515.125 252.704C515.125 253.1 515.473 253.388 516.073 253.46C515.125 253.64 514.369 254.24 514.369 254.96C514.369 256.04 515.449 256.592 517.069 256.592C518.725 256.592 519.865 255.908 519.865 254.792C519.865 253.7 518.965 253.244 517.477 253.088C516.361 252.98 516.001 252.872 516.001 252.548ZM516.877 251.384C515.977 251.384 515.341 250.784 515.341 249.98C515.341 249.176 515.977 248.564 516.877 248.564C517.789 248.564 518.425 249.176 518.425 249.98C518.425 250.784 517.789 251.384 516.877 251.384ZM517.069 255.92C515.989 255.92 515.233 255.56 515.233 254.876C515.233 254.288 515.953 253.772 516.985 253.772C518.485 253.772 518.965 254.264 518.965 254.852C518.965 255.476 518.257 255.92 517.069 255.92ZM523.779 247.856C522.147 247.856 520.875 249.188 520.875 251C520.875 252.86 522.159 254.144 523.995 254.144C524.931 254.144 525.735 253.892 526.239 253.592V252.752C525.675 253.124 524.835 253.352 524.031 253.352C522.699 253.352 521.823 252.488 521.799 251.18V251.132H526.443C526.443 251.024 526.455 250.844 526.455 250.652C526.455 249.176 525.507 247.856 523.779 247.856ZM525.567 250.484H521.823C521.931 249.524 522.627 248.624 523.767 248.624C524.955 248.624 525.579 249.524 525.567 250.484Z" fill="#999999"/>
<path d="M451 189C451 186.791 452.791 185 455 185V269C452.791 269 451 267.209 451 265V189Z" fill="#FFE14D"/>
<rect x="451" y="285" width="345" height="64" rx="4" fill="#262626"/>
<path fill-rule="evenodd" clip-rule="evenodd" d="M764 317C764 318.105 763.105 319 762 319C760.895 319 760 318.105 760 317C760 315.895 760.895 315 762 315C763.105 315 764 315.895 764 317ZM772 317C772 318.105 771.105 319 770 319C768.895 319 768 318.105 768 317C768 315.895 768.895 315 770 315C771.105 315 772 315.895 772 317ZM778 319C779.105 319 780 318.105 780 317C780 315.895 779.105 315 778 315C776.895 315 776 315.895 776 317C776 318.105 776.895 319 778 319Z" fill="#4D4D4D"/>
<path d="M471.464 300.48H469.928V309.312C469.928 310.288 469.432 310.816 468.504 310.816C467.976 310.816 467.48 310.672 467.16 310.48V311.872C467.464 312.048 468.024 312.192 468.664 312.192C470.632 312.192 471.464 311.072 471.464 309.04V300.48ZM473.888 305.776C474.368 305.488 475.392 305.104 476.496 305.104C477.76 305.104 478.592 305.584 478.592 306.976V307.376C475.248 306.912 473.376 307.888 473.376 309.84C473.376 311.312 474.432 312.192 475.904 312.192C477.712 312.192 478.592 310.64 478.688 310.416H478.72C478.72 310.416 478.656 310.672 478.672 311.056L478.688 312H480.064V306.896C480.064 304.896 478.96 303.808 476.704 303.808C475.392 303.808 474.336 304.16 473.888 304.4V305.776ZM476.16 310.992C475.36 310.992 474.848 310.496 474.848 309.792C474.848 308.704 475.952 308 478.56 308.416C478.56 309.664 477.52 310.992 476.16 310.992ZM482.69 304V312H484.178V308.064C484.178 306.432 485.298 305.184 486.866 305.184C488.194 305.184 488.386 306.176 488.386 307.28V312H489.874V306.976C489.874 304.976 489.106 303.808 487.138 303.808C485.442 303.808 484.386 305.008 484.082 305.728H484.05C484.066 305.696 484.114 305.456 484.114 305.12L484.082 304H482.69ZM495.798 303.808C493.59 303.808 491.878 305.584 491.878 308C491.878 310.48 493.59 312.192 496.118 312.192C497.414 312.192 498.486 311.856 499.11 311.504V310.144C498.438 310.576 497.302 310.896 496.214 310.896C494.534 310.896 493.478 309.904 493.43 308.336V308.32H499.382C499.382 308.16 499.414 307.856 499.414 307.536C499.414 305.568 498.15 303.808 495.798 303.808ZM497.942 307.264H493.446C493.574 306.112 494.406 305.056 495.782 305.056C497.206 305.056 497.958 306.112 497.942 307.264ZM505.591 305.776C506.071 305.488 507.095 305.104 508.199 305.104C509.463 305.104 510.295 305.584 510.295 306.976V307.376C506.951 306.912 505.079 307.888 505.079 309.84C505.079 311.312 506.135 312.192 507.607 312.192C509.415 312.192 510.295 310.64 510.391 310.416H510.423C510.423 310.416 510.359 310.672 510.375 311.056L510.391 312H511.767V306.896C511.767 304.896 510.663 303.808 508.407 303.808C507.095 303.808 506.039 304.16 505.591 304.4V305.776ZM507.863 310.992C507.063 310.992 506.551 310.496 506.551 309.792C506.551 308.704 507.655 308 510.263 308.416C510.263 309.664 509.223 310.992 507.863 310.992ZM514.394 304V312H515.882V308.064C515.882 306.432 517.002 305.184 518.57 305.184C519.898 305.184 520.09 306.176 520.09 307.28V312H521.578V306.976C521.578 304.976 520.81 303.808 518.842 303.808C517.146 303.808 516.09 305.008 515.786 305.728H515.754C515.77 305.696 515.818 305.456 515.818 305.12L515.786 304H514.394ZM531.517 300.48H530.029V304.608C530.029 305.024 530.077 305.264 530.077 305.264H530.045C529.613 304.512 528.557 303.808 527.261 303.808C525.181 303.808 523.581 305.488 523.581 308C523.581 310.48 525.181 312.192 527.293 312.192C528.589 312.192 529.709 311.36 530.125 310.464H530.157C530.157 310.464 530.109 310.704 530.109 311.056L530.141 312H531.517V300.48ZM527.501 305.104C528.701 305.104 530.013 306 530.013 308C530.013 310 528.701 310.896 527.501 310.896C526.013 310.896 525.021 309.664 525.021 308C525.021 306.304 526.013 305.104 527.501 305.104ZM537.923 311.44C538.579 311.888 539.523 312.192 540.659 312.192C543.043 312.192 544.755 310.8 544.755 308.544C544.755 306.272 543.107 304.768 540.995 304.768C540.291 304.768 539.891 304.896 539.667 304.976L539.795 301.808H544.051V300.48H538.435L538.195 306.544C538.467 306.416 539.251 306.08 540.467 306.08C541.987 306.08 543.171 306.944 543.171 308.416C543.171 309.904 542.051 310.816 540.515 310.816C539.443 310.816 538.563 310.496 537.923 310.032V311.44ZM554.349 303.808C551.981 303.808 550.237 305.584 550.237 308C550.237 310.416 551.981 312.192 554.349 312.192C556.733 312.192 558.477 310.416 558.477 308C558.477 305.584 556.733 303.808 554.349 303.808ZM554.349 310.896C552.813 310.896 551.677 309.696 551.677 308C551.677 306.304 552.813 305.104 554.349 305.104C555.901 305.104 557.037 306.304 557.037 308C557.037 309.696 555.901 310.896 554.349 310.896ZM559.554 304V305.216H560.866V309.808C560.866 311.6 562.082 312.192 563.234 312.192C564.018 312.192 564.674 312.016 565.026 311.824V310.528C564.578 310.736 564.018 310.88 563.522 310.88C562.85 310.88 562.338 310.496 562.338 309.36V305.216H564.754V304H562.338V301.6H560.882V304H559.554ZM566.675 312H568.163V308.064C568.163 306.432 569.283 305.184 570.851 305.184C572.179 305.184 572.371 306.176 572.371 307.28V312H573.859V306.976C573.859 304.976 573.091 303.808 571.123 303.808C569.427 303.808 568.451 305.008 568.115 305.728H568.099C568.099 305.6 568.147 305.296 568.147 304.928V300.48H566.675V312ZM579.782 303.808C577.574 303.808 575.862 305.584 575.862 308C575.862 310.48 577.574 312.192 580.102 312.192C581.398 312.192 582.47 311.856 583.094 311.504V310.144C582.422 310.576 581.286 310.896 580.198 310.896C578.518 310.896 577.462 309.904 577.414 308.336V308.32H583.366C583.366 308.16 583.398 307.856 583.398 307.536C583.398 305.568 582.134 303.808 579.782 303.808ZM581.926 307.264H577.43C577.558 306.112 578.39 305.056 579.766 305.056C581.19 305.056 581.942 306.112 581.926 307.264ZM585.485 312H586.973V308.512C586.973 306.96 587.869 305.248 589.421 305.248C589.629 305.248 589.773 305.28 589.837 305.296V303.856C589.773 303.84 589.581 303.808 589.357 303.808C588.205 303.808 587.357 304.576 586.893 305.712H586.877C586.861 305.664 586.909 305.424 586.893 305.12L586.877 304H585.485V312ZM595.195 309.92C595.195 310.672 594.443 310.96 593.611 310.96C592.859 310.96 591.835 310.688 591.051 310.304V311.664C591.691 311.968 592.619 312.192 593.659 312.192C595.387 312.192 596.571 311.392 596.571 309.936C596.571 308.592 595.739 307.968 594.043 307.408C592.955 307.056 592.395 306.752 592.395 306.112C592.395 305.392 593.115 305.072 594.027 305.072C594.747 305.072 595.547 305.328 596.123 305.632V304.288C595.579 304.032 594.731 303.808 593.867 303.808C592.203 303.808 591.003 304.736 591.003 306.064C591.003 307.504 591.995 308.112 593.419 308.576C594.603 308.96 595.195 309.232 595.195 309.92ZM602.94 309.952C602.94 311.568 603.804 312.192 604.988 312.192C605.564 312.192 605.964 312.08 606.06 312.048V310.768C605.964 310.8 605.676 310.864 605.356 310.864C604.7 310.864 604.428 310.512 604.428 309.648V300.48H602.94V309.952ZM607.894 304V312H609.382V304H607.894ZM607.702 301.68C607.702 302.208 608.07 302.576 608.63 302.576C609.174 302.576 609.558 302.208 609.558 301.68C609.558 301.136 609.174 300.768 608.63 300.768C608.07 300.768 607.702 301.136 607.702 301.68ZM619.18 304H617.404L613.788 308.016V300.48H612.3V312H613.772V309.632L615.164 308.128L617.692 312H619.404L616.284 307.296L619.18 304ZM624.079 303.808C621.871 303.808 620.159 305.584 620.159 308C620.159 310.48 621.871 312.192 624.399 312.192C625.695 312.192 626.767 311.856 627.391 311.504V310.144C626.719 310.576 625.583 310.896 624.495 310.896C622.815 310.896 621.759 309.904 621.711 308.336V308.32H627.663C627.663 308.16 627.695 307.856 627.695 307.536C627.695 305.568 626.431 303.808 624.079 303.808ZM626.223 307.264H621.727C621.855 306.112 622.687 305.056 624.063 305.056C625.487 305.056 626.239 306.112 626.223 307.264ZM637.236 300.48H635.748V304.608C635.748 305.024 635.796 305.264 635.796 305.264H635.764C635.332 304.512 634.276 303.808 632.98 303.808C630.9 303.808 629.3 305.488 629.3 308C629.3 310.48 630.9 312.192 633.012 312.192C634.308 312.192 635.428 311.36 635.844 310.464H635.876C635.876 310.464 635.828 310.704 635.828 311.056L635.86 312H637.236V300.48ZM633.22 305.104C634.42 305.104 635.732 306 635.732 308C635.732 310 634.42 310.896 633.22 310.896C631.732 310.896 630.74 309.664 630.74 308C630.74 306.304 631.732 305.104 633.22 305.104ZM642.906 315.568C643.082 315.648 643.514 315.712 643.93 315.712C646.042 315.712 646.938 314.256 648.026 311.632L651.178 304H649.53L648.426 306.896C648.042 307.888 647.466 309.488 647.066 310.4C646.65 309.232 646.17 308.064 645.722 306.896L644.602 304H642.954L646.298 311.904C645.69 313.36 645.05 314.432 643.77 314.432C643.37 314.432 643.082 314.384 642.906 314.336V315.568ZM655.865 303.808C653.497 303.808 651.753 305.584 651.753 308C651.753 310.416 653.497 312.192 655.865 312.192C658.249 312.192 659.993 310.416 659.993 308C659.993 305.584 658.249 303.808 655.865 303.808ZM655.865 310.896C654.329 310.896 653.193 309.696 653.193 308C653.193 306.304 654.329 305.104 655.865 305.104C657.417 305.104 658.553 306.304 658.553 308C658.553 309.696 657.417 310.896 655.865 310.896ZM669.101 312V304H667.613V307.936C667.613 309.568 666.525 310.816 665.005 310.816C663.677 310.816 663.485 309.824 663.485 308.72V304H661.997V309.024C661.997 311.024 662.765 312.192 664.733 312.192C666.381 312.192 667.405 310.992 667.709 310.272H667.741C667.741 310.304 667.677 310.544 667.677 310.88L667.709 312H669.101ZM671.907 312H673.395V308.512C673.395 306.96 674.291 305.248 675.843 305.248C676.051 305.248 676.195 305.28 676.259 305.296V303.856C676.195 303.84 676.003 303.808 675.779 303.808C674.627 303.808 673.779 304.576 673.315 305.712H673.299C673.283 305.664 673.331 305.424 673.315 305.12L673.299 304H671.907V312ZM682.331 315.52H683.819V311.28C683.819 310.864 683.771 310.624 683.771 310.624H683.803C684.235 311.44 685.291 312.192 686.587 312.192C688.667 312.192 690.267 310.512 690.267 308C690.267 305.52 688.667 303.808 686.555 303.808C685.259 303.808 684.139 304.592 683.723 305.424H683.691C683.691 305.424 683.739 305.184 683.739 304.832L683.707 304H682.331V315.52ZM686.347 310.896C685.147 310.896 683.835 310 683.835 308C683.835 306 685.147 305.104 686.347 305.104C687.835 305.104 688.827 306.336 688.827 308C688.827 309.696 687.835 310.896 686.347 310.896ZM696.021 303.808C693.653 303.808 691.909 305.584 691.909 308C691.909 310.416 693.653 312.192 696.021 312.192C698.405 312.192 700.149 310.416 700.149 308C700.149 305.584 698.405 303.808 696.021 303.808ZM696.021 310.896C694.485 310.896 693.349 309.696 693.349 308C693.349 306.304 694.485 305.104 696.021 305.104C697.573 305.104 698.709 306.304 698.709 308C698.709 309.696 697.573 310.896 696.021 310.896ZM705.914 309.92C705.914 310.672 705.161 310.96 704.33 310.96C703.578 310.96 702.554 310.688 701.77 310.304V311.664C702.41 311.968 703.338 312.192 704.378 312.192C706.106 312.192 707.29 311.392 707.29 309.936C707.29 308.592 706.458 307.968 704.762 307.408C703.674 307.056 703.114 306.752 703.114 306.112C703.114 305.392 703.834 305.072 704.746 305.072C705.466 305.072 706.266 305.328 706.842 305.632V304.288C706.298 304.032 705.45 303.808 704.586 303.808C702.922 303.808 701.722 304.736 701.722 306.064C701.722 307.504 702.714 308.112 704.138 308.576C705.322 308.96 705.914 309.232 705.914 309.92ZM708.429 304V305.216H709.741V309.808C709.741 311.6 710.957 312.192 712.109 312.192C712.893 312.192 713.549 312.016 713.901 311.824V310.528C713.453 310.736 712.893 310.88 712.397 310.88C711.725 310.88 711.213 310.496 711.213 309.36V305.216H713.629V304H711.213V301.6H709.757V304H708.429Z" fill="white"/>
<path d="M467.576 325.36V326.164H468.632V334H469.544V325.36H467.576ZM472.043 329.68C472.043 332.236 473.291 334.144 475.235 334.144C477.191 334.144 478.427 332.236 478.427 329.68C478.427 327.136 477.191 325.216 475.235 325.216C473.291 325.216 472.043 327.136 472.043 329.68ZM472.967 329.68C472.967 327.544 473.855 326.068 475.235 326.068C476.615 326.068 477.503 327.544 477.503 329.68C477.503 331.816 476.615 333.292 475.235 333.292C473.855 333.292 472.967 331.816 472.967 329.68ZM483.434 328V334H484.322V331.156C484.322 329.956 485.018 328.684 486.338 328.684C487.418 328.684 487.574 329.524 487.574 330.412V334H488.45V331.156C488.45 329.98 489.098 328.684 490.43 328.684C491.474 328.684 491.702 329.452 491.702 330.424V334H492.578V330.22C492.578 328.744 492.026 327.856 490.514 327.856C489.554 327.856 488.714 328.54 488.354 329.32H488.342C488.174 328.372 487.502 327.856 486.506 327.856C485.522 327.856 484.574 328.54 484.262 329.392H484.238C484.25 329.38 484.286 329.188 484.286 328.924L484.274 328H483.434ZM494.587 326.248C494.587 326.584 494.815 326.824 495.175 326.824C495.511 326.824 495.763 326.584 495.763 326.248C495.763 325.912 495.511 325.672 495.175 325.672C494.815 325.672 494.587 325.912 494.587 326.248ZM494.731 328V334H495.619V328H494.731ZM497.965 328V334H498.853V331.06C498.853 329.716 499.789 328.684 501.061 328.684C502.189 328.684 502.333 329.512 502.333 330.424V334H503.209V330.22C503.209 328.756 502.693 327.856 501.181 327.856C499.825 327.856 499.009 328.84 498.793 329.392H498.769C498.781 329.38 498.817 329.188 498.817 328.924L498.805 328H497.965ZM508.319 329.152C508.667 328.936 509.435 328.648 510.299 328.648C511.295 328.648 511.967 329.044 511.967 330.196V330.568C509.471 330.22 507.947 330.952 507.947 332.44C507.947 333.472 508.715 334.144 509.819 334.144C511.271 334.144 511.979 332.836 512.015 332.728H512.039C512.039 332.728 511.991 332.932 512.003 333.232V334H512.831V330.148C512.831 328.648 512.039 327.856 510.395 327.856C509.447 327.856 508.655 328.12 508.319 328.312V329.152ZM509.951 333.4C509.267 333.4 508.835 332.992 508.835 332.404C508.835 331.456 509.891 330.904 511.943 331.228C511.943 332.272 511.091 333.4 509.951 333.4ZM516.001 332.548C516.001 332.308 516.433 332.092 516.973 332.044H517.021C518.305 332.008 519.253 331.144 519.253 329.968C519.253 329.416 519.013 328.948 518.641 328.624L518.701 328.636C518.701 328.636 518.905 328.684 519.085 328.684H519.961V328H517.801C517.525 327.904 517.201 327.856 516.877 327.856C515.533 327.856 514.501 328.732 514.501 329.968C514.501 330.88 515.065 331.6 515.917 331.912C515.437 332.068 515.125 332.368 515.125 332.704C515.125 333.1 515.473 333.388 516.073 333.46C515.125 333.64 514.369 334.24 514.369 334.96C514.369 336.04 515.449 336.592 517.069 336.592C518.725 336.592 519.865 335.908 519.865 334.792C519.865 333.7 518.965 333.244 517.477 333.088C516.361 332.98 516.001 332.872 516.001 332.548ZM516.877 331.384C515.977 331.384 515.341 330.784 515.341 329.98C515.341 329.176 515.977 328.564 516.877 328.564C517.789 328.564 518.425 329.176 518.425 329.98C518.425 330.784 517.789 331.384 516.877 331.384ZM517.069 335.92C515.989 335.92 515.233 335.56 515.233 334.876C515.233 334.288 515.953 333.772 516.985 333.772C518.485 333.772 518.965 334.264 518.965 334.852C518.965 335.476 518.257 335.92 517.069 335.92ZM523.779 327.856C522.147 327.856 520.875 329.188 520.875 331C520.875 332.86 522.159 334.144 523.995 334.144C524.931 334.144 525.735 333.892 526.239 333.592V332.752C525.675 333.124 524.835 333.352 524.031 333.352C522.699 333.352 521.823 332.488 521.799 331.18V331.132H526.443C526.443 331.024 526.455 330.844 526.455 330.652C526.455 329.176 525.507 327.856 523.779 327.856ZM525.567 330.484H521.823C521.931 329.524 522.627 328.624 523.767 328.624C524.955 328.624 525.579 329.524 525.567 330.484Z" fill="#999999"/>
<path d="M451 289C451 286.791 452.791 285 455 285V349C452.791 349 451 347.209 451 345V289Z" fill="#FFE14D"/>
<rect x="451.5" y="365.5" width="344" height="63" rx="3.5" fill="#1A1A1A" stroke="#4D4D4D" stroke-dasharray="3 3"/>
<path fill-rule="evenodd" clip-rule="evenodd" d="M764 397C764 398.105 763.105 399 762 399C760.895 399 760 398.105 760 397C760 395.895 760.895 395 762 395C763.105 395 764 395.895 764 397ZM772 397C772 398.105 771.105 399 770 399C768.895 399 768 398.105 768 397C768 395.895 768.895 395 770 395C771.105 395 772 395.895 772 397ZM778 399C779.105 399 780 398.105 780 397C780 395.895 779.105 395 778 395C776.895 395 776 395.895 776 397C776 398.105 776.895 399 778 399Z" fill="#4D4D4D"/>
<path d="M467.72 391.44C468.376 391.888 469.32 392.192 470.456 392.192C472.84 392.192 474.552 390.8 474.552 388.544C474.552 386.272 472.904 384.768 470.792 384.768C470.088 384.768 469.688 384.896 469.464 384.976L469.592 381.808H473.848V380.48H468.232L467.992 386.544C468.264 386.416 469.048 386.08 470.264 386.08C471.784 386.08 472.968 386.944 472.968 388.416C472.968 389.904 471.848 390.816 470.312 390.816C469.24 390.816 468.36 390.496 467.72 390.032V391.44ZM480.706 384V392H482.194V388.064C482.194 386.432 483.314 385.184 484.882 385.184C486.21 385.184 486.402 386.176 486.402 387.28V392H487.89V386.976C487.89 384.976 487.122 383.808 485.154 383.808C483.458 383.808 482.402 385.008 482.098 385.728H482.066C482.082 385.696 482.13 385.456 482.13 385.12L482.098 384H480.706ZM493.813 383.808C491.605 383.808 489.893 385.584 489.893 388C489.893 390.48 491.605 392.192 494.133 392.192C495.429 392.192 496.501 391.856 497.125 391.504V390.144C496.453 390.576 495.317 390.896 494.229 390.896C492.549 390.896 491.493 389.904 491.445 388.336V388.32H497.397C497.397 388.16 497.429 387.856 497.429 387.536C497.429 385.568 496.165 383.808 493.813 383.808ZM495.957 387.264H491.461C491.589 386.112 492.421 385.056 493.797 385.056C495.221 385.056 495.973 386.112 495.957 387.264ZM504.764 384.112H503.948L501.916 389.808L499.74 384H498.156L501.516 392.192H502.332L504.348 386.736L506.364 392.192H507.18L510.54 384H508.972L506.78 389.808L504.764 384.112ZM515.966 385.776C516.446 385.488 517.47 385.104 518.574 385.104C519.838 385.104 520.67 385.584 520.67 386.976V387.376C517.326 386.912 515.454 387.888 515.454 389.84C515.454 391.312 516.51 392.192 517.982 392.192C519.79 392.192 520.67 390.64 520.766 390.416H520.798C520.798 390.416 520.734 390.672 520.75 391.056L520.766 392H522.142V386.896C522.142 384.896 521.038 383.808 518.782 383.808C517.47 383.808 516.414 384.16 515.966 384.4V385.776ZM518.238 390.992C517.438 390.992 516.926 390.496 516.926 389.792C516.926 388.704 518.03 388 520.638 388.416C520.638 389.664 519.598 390.992 518.238 390.992ZM524.69 389.952C524.69 391.568 525.554 392.192 526.738 392.192C527.314 392.192 527.714 392.08 527.81 392.048V390.768C527.714 390.8 527.426 390.864 527.106 390.864C526.45 390.864 526.178 390.512 526.178 389.648V380.48H524.69V389.952ZM532.891 383.808C530.684 383.808 528.972 385.584 528.972 388C528.972 390.48 530.684 392.192 533.212 392.192C534.508 392.192 535.58 391.856 536.204 391.504V390.144C535.532 390.576 534.396 390.896 533.308 390.896C531.628 390.896 530.572 389.904 530.524 388.336V388.32H536.476C536.476 388.16 536.508 387.856 536.508 387.536C536.508 385.568 535.244 383.808 532.891 383.808ZM535.036 387.264H530.539C530.668 386.112 531.5 385.056 532.876 385.056C534.3 385.056 535.052 386.112 535.036 387.264ZM538.594 392H540.082V388.512C540.082 386.96 540.978 385.248 542.53 385.248C542.738 385.248 542.882 385.28 542.946 385.296V383.856C542.882 383.84 542.69 383.808 542.466 383.808C541.314 383.808 540.466 384.576 540.002 385.712H539.986C539.97 385.664 540.018 385.424 540.002 385.12L539.986 384H538.594V392ZM544.022 384V385.216H545.334V389.808C545.334 391.6 546.55 392.192 547.702 392.192C548.486 392.192 549.142 392.016 549.494 391.824V390.528C549.046 390.736 548.486 390.88 547.99 390.88C547.318 390.88 546.806 390.496 546.806 389.36V385.216H549.222V384H546.806V381.6H545.35V384H544.022ZM554.664 389.92C554.664 390.672 553.911 390.96 553.08 390.96C552.328 390.96 551.304 390.688 550.52 390.304V391.664C551.16 391.968 552.088 392.192 553.128 392.192C554.856 392.192 556.04 391.392 556.04 389.936C556.04 388.592 555.208 387.968 553.512 387.408C552.424 387.056 551.864 386.752 551.864 386.112C551.864 385.392 552.584 385.072 553.496 385.072C554.216 385.072 555.016 385.328 555.592 385.632V384.288C555.048 384.032 554.2 383.808 553.336 383.808C551.672 383.808 550.472 384.736 550.472 386.064C550.472 387.504 551.464 388.112 552.888 388.576C554.072 388.96 554.664 389.232 554.664 389.92ZM561.449 384V385.216H562.633V392H564.121V385.216H566.201V384H564.073V383.232C564.073 382.16 564.697 381.584 565.721 381.584C566.105 381.584 566.425 381.648 566.553 381.68V380.384C566.425 380.352 566.041 380.288 565.577 380.288C563.769 380.288 562.681 381.408 562.681 383.104V384H561.449ZM567.847 384V392H569.335V384H567.847ZM567.655 381.68C567.655 382.208 568.023 382.576 568.583 382.576C569.127 382.576 569.511 382.208 569.511 381.68C569.511 381.136 569.127 380.768 568.583 380.768C568.023 380.768 567.655 381.136 567.655 381.68ZM572.141 392H573.629V388.512C573.629 386.96 574.525 385.248 576.077 385.248C576.285 385.248 576.429 385.28 576.493 385.296V383.856C576.429 383.84 576.237 383.808 576.013 383.808C574.861 383.808 574.013 384.576 573.549 385.712H573.533C573.517 385.664 573.565 385.424 573.549 385.12L573.533 384H572.141V392ZM581.579 383.808C579.371 383.808 577.659 385.584 577.659 388C577.659 390.48 579.371 392.192 581.899 392.192C583.195 392.192 584.267 391.856 584.891 391.504V390.144C584.219 390.576 583.083 390.896 581.995 390.896C580.315 390.896 579.259 389.904 579.211 388.336V388.32H585.163C585.163 388.16 585.195 387.856 585.195 387.536C585.195 385.568 583.931 383.808 581.579 383.808ZM583.723 387.264H579.227C579.355 386.112 580.187 385.056 581.563 385.056C582.987 385.056 583.739 386.112 583.723 387.264ZM594.736 380.48H593.248V384.608C593.248 385.024 593.296 385.264 593.296 385.264H593.264C592.832 384.512 591.776 383.808 590.48 383.808C588.4 383.808 586.8 385.488 586.8 388C586.8 390.48 588.4 392.192 590.512 392.192C591.808 392.192 592.928 391.36 593.344 390.464H593.376C593.376 390.464 593.328 390.704 593.328 391.056L593.36 392H594.736V380.48ZM590.72 385.104C591.92 385.104 593.232 386 593.232 388C593.232 390 591.92 390.896 590.72 390.896C589.232 390.896 588.24 389.664 588.24 388C588.24 386.304 589.232 385.104 590.72 385.104ZM601.878 380.48V392H603.366V380.48H601.878ZM606.044 385.776C606.524 385.488 607.548 385.104 608.652 385.104C609.916 385.104 610.748 385.584 610.748 386.976V387.376C607.404 386.912 605.532 387.888 605.532 389.84C605.532 391.312 606.588 392.192 608.06 392.192C609.868 392.192 610.748 390.64 610.844 390.416H610.876C610.876 390.416 610.812 390.672 610.828 391.056L610.844 392H612.22V386.896C612.22 384.896 611.116 383.808 608.86 383.808C607.548 383.808 606.492 384.16 606.044 384.4V385.776ZM608.316 390.992C607.516 390.992 607.004 390.496 607.004 389.792C607.004 388.704 608.108 388 610.716 388.416C610.716 389.664 609.676 390.992 608.316 390.992ZM618.367 389.92C618.367 390.672 617.615 390.96 616.783 390.96C616.031 390.96 615.007 390.688 614.223 390.304V391.664C614.863 391.968 615.791 392.192 616.831 392.192C618.559 392.192 619.743 391.392 619.743 389.936C619.743 388.592 618.911 387.968 617.215 387.408C616.127 387.056 615.567 386.752 615.567 386.112C615.567 385.392 616.287 385.072 617.199 385.072C617.919 385.072 618.719 385.328 619.295 385.632V384.288C618.751 384.032 617.903 383.808 617.039 383.808C615.375 383.808 614.175 384.736 614.175 386.064C614.175 387.504 615.167 388.112 616.591 388.576C617.775 388.96 618.367 389.232 618.367 389.92ZM620.882 384V385.216H622.194V389.808C622.194 391.6 623.41 392.192 624.562 392.192C625.346 392.192 626.002 392.016 626.354 391.824V390.528C625.906 390.736 625.346 390.88 624.85 390.88C624.178 390.88 623.666 390.496 623.666 389.36V385.216H626.082V384H623.666V381.6H622.21V384H620.882ZM637.358 384.112H636.542L634.51 389.808L632.334 384H630.75L634.11 392.192H634.926L636.942 386.736L638.958 392.192H639.774L643.134 384H641.566L639.374 389.808L637.358 384.112ZM647.829 383.808C645.621 383.808 643.909 385.584 643.909 388C643.909 390.48 645.621 392.192 648.149 392.192C649.445 392.192 650.517 391.856 651.141 391.504V390.144C650.469 390.576 649.333 390.896 648.245 390.896C646.565 390.896 645.509 389.904 645.461 388.336V388.32H651.413C651.413 388.16 651.445 387.856 651.445 387.536C651.445 385.568 650.181 383.808 647.829 383.808ZM649.973 387.264H645.477C645.605 386.112 646.437 385.056 647.813 385.056C649.237 385.056 649.989 386.112 649.973 387.264ZM656.97 383.808C654.762 383.808 653.05 385.584 653.05 388C653.05 390.48 654.762 392.192 657.29 392.192C658.586 392.192 659.658 391.856 660.282 391.504V390.144C659.61 390.576 658.474 390.896 657.386 390.896C655.706 390.896 654.65 389.904 654.602 388.336V388.32H660.554C660.554 388.16 660.586 387.856 660.586 387.536C660.586 385.568 659.322 383.808 656.97 383.808ZM659.114 387.264H654.618C654.746 386.112 655.578 385.056 656.954 385.056C658.378 385.056 659.13 386.112 659.114 387.264ZM669.664 384H667.888L664.272 388.016V380.48H662.784V392H664.256V389.632L665.648 388.128L668.176 392H669.888L666.768 387.296L669.664 384Z" fill="white"/>
<path d="M467.576 405.36V406.164H468.632V414H469.544V405.36H467.576ZM472.043 409.68C472.043 412.236 473.291 414.144 475.235 414.144C477.191 414.144 478.427 412.236 478.427 409.68C478.427 407.136 477.191 405.216 475.235 405.216C473.291 405.216 472.043 407.136 472.043 409.68ZM472.967 409.68C472.967 407.544 473.855 406.068 475.235 406.068C476.615 406.068 477.503 407.544 477.503 409.68C477.503 411.816 476.615 413.292 475.235 413.292C473.855 413.292 472.967 411.816 472.967 409.68ZM483.434 408V414H484.322V411.156C484.322 409.956 485.018 408.684 486.338 408.684C487.418 408.684 487.574 409.524 487.574 410.412V414H488.45V411.156C488.45 409.98 489.098 408.684 490.43 408.684C491.474 408.684 491.702 409.452 491.702 410.424V414H492.578V410.22C492.578 408.744 492.026 407.856 490.514 407.856C489.554 407.856 488.714 408.54 488.354 409.32H488.342C488.174 408.372 487.502 407.856 486.506 407.856C485.522 407.856 484.574 408.54 484.262 409.392H484.238C484.25 409.38 484.286 409.188 484.286 408.924L484.274 408H483.434ZM494.587 406.248C494.587 406.584 494.815 406.824 495.175 406.824C495.511 406.824 495.763 406.584 495.763 406.248C495.763 405.912 495.511 405.672 495.175 405.672C494.815 405.672 494.587 405.912 494.587 406.248ZM494.731 408V414H495.619V408H494.731ZM497.965 408V414H498.853V411.06C498.853 409.716 499.789 408.684 501.061 408.684C502.189 408.684 502.333 409.512 502.333 410.424V414H503.209V410.22C503.209 408.756 502.693 407.856 501.181 407.856C499.825 407.856 499.009 408.84 498.793 409.392H498.769C498.781 409.38 498.817 409.188 498.817 408.924L498.805 408H497.965ZM508.319 409.152C508.667 408.936 509.435 408.648 510.299 408.648C511.295 408.648 511.967 409.044 511.967 410.196V410.568C509.471 410.22 507.947 410.952 507.947 412.44C507.947 413.472 508.715 414.144 509.819 414.144C511.271 414.144 511.979 412.836 512.015 412.728H512.039C512.039 412.728 511.991 412.932 512.003 413.232V414H512.831V410.148C512.831 408.648 512.039 407.856 510.395 407.856C509.447 407.856 508.655 408.12 508.319 408.312V409.152ZM509.951 413.4C509.267 413.4 508.835 412.992 508.835 412.404C508.835 411.456 509.891 410.904 511.943 411.228C511.943 412.272 511.091 413.4 509.951 413.4ZM516.001 412.548C516.001 412.308 516.433 412.092 516.973 412.044H517.021C518.305 412.008 519.253 411.144 519.253 409.968C519.253 409.416 519.013 408.948 518.641 408.624L518.701 408.636C518.701 408.636 518.905 408.684 519.085 408.684H519.961V408H517.801C517.525 407.904 517.201 407.856 516.877 407.856C515.533 407.856 514.501 408.732 514.501 409.968C514.501 410.88 515.065 411.6 515.917 411.912C515.437 412.068 515.125 412.368 515.125 412.704C515.125 413.1 515.473 413.388 516.073 413.46C515.125 413.64 514.369 414.24 514.369 414.96C514.369 416.04 515.449 416.592 517.069 416.592C518.725 416.592 519.865 415.908 519.865 414.792C519.865 413.7 518.965 413.244 517.477 413.088C516.361 412.98 516.001 412.872 516.001 412.548ZM516.877 411.384C515.977 411.384 515.341 410.784 515.341 409.98C515.341 409.176 515.977 408.564 516.877 408.564C517.789 408.564 518.425 409.176 518.425 409.98C518.425 410.784 517.789 411.384 516.877 411.384ZM517.069 415.92C515.989 415.92 515.233 415.56 515.233 414.876C515.233 414.288 515.953 413.772 516.985 413.772C518.485 413.772 518.965 414.264 518.965 414.852C518.965 415.476 518.257 415.92 517.069 415.92ZM523.779 407.856C522.147 407.856 520.875 409.188 520.875 411C520.875 412.86 522.159 414.144 523.995 414.144C524.931 414.144 525.735 413.892 526.239 413.592V412.752C525.675 413.124 524.835 413.352 524.031 413.352C522.699 413.352 521.823 412.488 521.799 411.18V411.132H526.443C526.443 411.024 526.455 410.844 526.455 410.652C526.455 409.176 525.507 407.856 523.779 407.856ZM525.567 410.484H521.823C521.931 409.524 522.627 408.624 523.767 408.624C524.955 408.624 525.579 409.524 525.567 410.484Z" fill="#999999"/>
<rect x="451.5" y="445.5" width="344" height="63" rx="3.5" fill="#1A1A1A" stroke="#4D4D4D" stroke-dasharray="3 3"/>
<path fill-rule="evenodd" clip-rule="evenodd" d="M764 477C764 478.105 763.105 479 762 479C760.895 479 760 478.105 760 477C760 475.895 760.895 475 762 475C763.105 475 764 475.895 764 477ZM772 477C772 478.105 771.105 479 770 479C768.895 479 768 478.105 768 477C768 475.895 768.895 475 770 475C771.105 475 772 475.895 772 477ZM778 479C779.105 479 780 478.105 780 477C780 475.895 779.105 475 778 475C776.895 475 776 475.895 776 477C776 478.105 776.895 479 778 479Z" fill="#4D4D4D"/>
<path d="M473.752 468.832L477.208 464.656L477.512 464.288V472H479V460.288H478.984L473.752 466.672L468.536 460.288H468.52V472H470.008V464.288L470.312 464.656L473.752 468.832ZM485.22 463.808C483.012 463.808 481.3 465.584 481.3 468C481.3 470.48 483.012 472.192 485.54 472.192C486.836 472.192 487.908 471.856 488.532 471.504V470.144C487.86 470.576 486.724 470.896 485.636 470.896C483.956 470.896 482.9 469.904 482.852 468.336V468.32H488.804C488.804 468.16 488.836 467.856 488.836 467.536C488.836 465.568 487.572 463.808 485.22 463.808ZM487.364 467.264H482.868C482.996 466.112 483.828 465.056 485.204 465.056C486.628 465.056 487.38 466.112 487.364 467.264ZM491.034 464V472H492.522V468.064C492.522 466.432 493.642 465.184 495.21 465.184C496.538 465.184 496.73 466.176 496.73 467.28V472H498.218V466.976C498.218 464.976 497.45 463.808 495.482 463.808C493.786 463.808 492.73 465.008 492.426 465.728H492.394C492.41 465.696 492.458 465.456 492.458 465.12L492.426 464H491.034ZM499.726 464V465.216H501.038V469.808C501.038 471.6 502.254 472.192 503.406 472.192C504.19 472.192 504.846 472.016 505.198 471.824V470.528C504.75 470.736 504.19 470.88 503.694 470.88C503.022 470.88 502.51 470.496 502.51 469.36V465.216H504.926V464H502.51V461.6H501.054V464H499.726ZM506.847 464V472H508.335V464H506.847ZM506.655 461.68C506.655 462.208 507.023 462.576 507.583 462.576C508.127 462.576 508.511 462.208 508.511 461.68C508.511 461.136 508.127 460.768 507.583 460.768C507.023 460.768 506.655 461.136 506.655 461.68ZM514.693 463.808C512.325 463.808 510.581 465.584 510.581 468C510.581 470.416 512.325 472.192 514.693 472.192C517.077 472.192 518.821 470.416 518.821 468C518.821 465.584 517.077 463.808 514.693 463.808ZM514.693 470.896C513.157 470.896 512.021 469.696 512.021 468C512.021 466.304 513.157 465.104 514.693 465.104C516.245 465.104 517.381 466.304 517.381 468C517.381 469.696 516.245 470.896 514.693 470.896ZM521.065 464V472H522.553V468.064C522.553 466.432 523.673 465.184 525.241 465.184C526.569 465.184 526.761 466.176 526.761 467.28V472H528.249V466.976C528.249 464.976 527.481 463.808 525.513 463.808C523.817 463.808 522.761 465.008 522.457 465.728H522.425C522.441 465.696 522.489 465.456 522.489 465.12L522.457 464H521.065ZM534.173 463.808C531.965 463.808 530.253 465.584 530.253 468C530.253 470.48 531.965 472.192 534.493 472.192C535.789 472.192 536.861 471.856 537.485 471.504V470.144C536.813 470.576 535.677 470.896 534.589 470.896C532.909 470.896 531.853 469.904 531.805 468.336V468.32H537.757C537.757 468.16 537.789 467.856 537.789 467.536C537.789 465.568 536.525 463.808 534.173 463.808ZM536.317 467.264H531.821C531.949 466.112 532.781 465.056 534.157 465.056C535.581 465.056 536.333 466.112 536.317 467.264ZM547.329 460.48H545.841V464.608C545.841 465.024 545.889 465.264 545.889 465.264H545.857C545.425 464.512 544.369 463.808 543.073 463.808C540.993 463.808 539.393 465.488 539.393 468C539.393 470.48 540.993 472.192 543.105 472.192C544.401 472.192 545.521 471.36 545.937 470.464H545.969C545.969 470.464 545.921 470.704 545.921 471.056L545.953 472H547.329V460.48ZM543.313 465.104C544.513 465.104 545.825 466 545.825 468C545.825 470 544.513 470.896 543.313 470.896C541.825 470.896 540.833 469.664 540.833 468C540.833 466.304 541.825 465.104 543.313 465.104ZM554.472 464V472H555.96V464H554.472ZM554.28 461.68C554.28 462.208 554.648 462.576 555.208 462.576C555.752 462.576 556.136 462.208 556.136 461.68C556.136 461.136 555.752 460.768 555.208 460.768C554.648 460.768 554.28 461.136 554.28 461.68ZM558.878 464V472H560.366V468.064C560.366 466.432 561.486 465.184 563.054 465.184C564.382 465.184 564.574 466.176 564.574 467.28V472H566.062V466.976C566.062 464.976 565.294 463.808 563.326 463.808C561.63 463.808 560.574 465.008 560.27 465.728H560.238C560.254 465.696 560.302 465.456 560.302 465.12L560.27 464H558.878ZM572.716 465.776C573.196 465.488 574.22 465.104 575.324 465.104C576.588 465.104 577.42 465.584 577.42 466.976V467.376C574.076 466.912 572.204 467.888 572.204 469.84C572.204 471.312 573.26 472.192 574.732 472.192C576.54 472.192 577.42 470.64 577.516 470.416H577.548C577.548 470.416 577.484 470.672 577.5 471.056L577.516 472H578.892V466.896C578.892 464.896 577.788 463.808 575.532 463.808C574.22 463.808 573.164 464.16 572.716 464.4V465.776ZM574.988 470.992C574.188 470.992 573.676 470.496 573.676 469.792C573.676 468.704 574.78 468 577.388 468.416C577.388 469.664 576.348 470.992 574.988 470.992ZM586.585 468C586.585 466.32 587.721 465.136 589.321 465.136C590.361 465.136 591.145 465.488 591.705 465.84V464.432C591.225 464.176 590.473 463.808 589.241 463.808C586.777 463.808 585.065 465.584 585.065 468C585.065 470.416 586.777 472.192 589.241 472.192C590.489 472.192 591.273 471.808 591.753 471.552V470.16C591.257 470.464 590.425 470.864 589.321 470.864C587.705 470.864 586.585 469.68 586.585 468ZM597.318 463.808C594.95 463.808 593.206 465.584 593.206 468C593.206 470.416 594.95 472.192 597.318 472.192C599.702 472.192 601.446 470.416 601.446 468C601.446 465.584 599.702 463.808 597.318 463.808ZM597.318 470.896C595.782 470.896 594.646 469.696 594.646 468C594.646 466.304 595.782 465.104 597.318 465.104C598.87 465.104 600.006 466.304 600.006 468C600.006 469.696 598.87 470.896 597.318 470.896ZM603.69 464V472H605.178V468.288C605.178 466.752 605.962 465.184 607.642 465.184C608.906 465.184 609.114 466.176 609.114 467.248V472H610.602V468.288C610.602 466.784 611.306 465.184 613.018 465.184C614.234 465.184 614.522 466.112 614.522 467.264V472H616.01V466.976C616.01 464.96 615.194 463.808 613.21 463.808C611.978 463.808 610.922 464.64 610.426 465.632H610.41C610.154 464.464 609.178 463.808 608.01 463.808C606.666 463.808 605.514 464.624 605.082 465.728H605.05C605.066 465.696 605.114 465.456 605.114 465.12L605.082 464H603.69ZM618.659 464V472H620.147V468.288C620.147 466.752 620.931 465.184 622.611 465.184C623.875 465.184 624.083 466.176 624.083 467.248V472H625.571V468.288C625.571 466.784 626.275 465.184 627.987 465.184C629.203 465.184 629.491 466.112 629.491 467.264V472H630.979V466.976C630.979 464.96 630.163 463.808 628.179 463.808C626.947 463.808 625.891 464.64 625.395 465.632H625.379C625.123 464.464 624.147 463.808 622.979 463.808C621.635 463.808 620.483 464.624 620.051 465.728H620.019C620.035 465.696 620.083 465.456 620.083 465.12L620.051 464H618.659ZM636.72 463.808C634.512 463.808 632.8 465.584 632.8 468C632.8 470.48 634.512 472.192 637.04 472.192C638.336 472.192 639.408 471.856 640.032 471.504V470.144C639.36 470.576 638.224 470.896 637.136 470.896C635.456 470.896 634.4 469.904 634.352 468.336V468.32H640.304C640.304 468.16 640.336 467.856 640.336 467.536C640.336 465.568 639.072 463.808 636.72 463.808ZM638.864 467.264H634.368C634.496 466.112 635.328 465.056 636.704 465.056C638.128 465.056 638.88 466.112 638.864 467.264ZM642.534 464V472H644.022V468.064C644.022 466.432 645.142 465.184 646.71 465.184C648.038 465.184 648.23 466.176 648.23 467.28V472H649.718V466.976C649.718 464.976 648.95 463.808 646.982 463.808C645.286 463.808 644.23 465.008 643.926 465.728H643.894C643.91 465.696 643.958 465.456 643.958 465.12L643.926 464H642.534ZM651.226 464V465.216H652.538V469.808C652.538 471.6 653.754 472.192 654.906 472.192C655.69 472.192 656.346 472.016 656.698 471.824V470.528C656.25 470.736 655.69 470.88 655.194 470.88C654.522 470.88 654.01 470.496 654.01 469.36V465.216H656.426V464H654.01V461.6H652.554V464H651.226ZM662.565 472H663.941L663.973 471.056C663.973 470.704 663.925 470.464 663.925 470.464H663.957C664.373 471.36 665.493 472.192 666.789 472.192C668.901 472.192 670.501 470.48 670.501 468C670.501 465.488 668.901 463.808 666.821 463.808C665.525 463.808 664.469 464.512 664.037 465.264H664.005C664.005 465.264 664.053 465.024 664.053 464.608V460.48H662.565V472ZM666.581 465.104C668.069 465.104 669.061 466.304 669.061 468C669.061 469.664 668.069 470.896 666.581 470.896C665.381 470.896 664.069 470 664.069 468C664.069 466 665.381 465.104 666.581 465.104ZM671.265 475.568C671.441 475.648 671.873 475.712 672.289 475.712C674.401 475.712 675.297 474.256 676.385 471.632L679.537 464H677.889L676.785 466.896C676.401 467.888 675.825 469.488 675.425 470.4C675.009 469.232 674.529 468.064 674.081 466.896L672.961 464H671.313L674.657 471.904C674.049 473.36 673.409 474.432 672.129 474.432C671.729 474.432 671.441 474.384 671.265 474.336V475.568ZM688.245 460.48H686.709V469.312C686.709 470.288 686.213 470.816 685.285 470.816C684.757 470.816 684.261 470.672 683.941 470.48V471.872C684.245 472.048 684.805 472.192 685.445 472.192C687.413 472.192 688.245 471.072 688.245 469.04V460.48ZM690.669 465.776C691.149 465.488 692.173 465.104 693.277 465.104C694.541 465.104 695.373 465.584 695.373 466.976V467.376C692.029 466.912 690.157 467.888 690.157 469.84C690.157 471.312 691.213 472.192 692.685 472.192C694.493 472.192 695.373 470.64 695.469 470.416H695.501C695.501 470.416 695.437 470.672 695.453 471.056L695.469 472H696.845V466.896C696.845 464.896 695.741 463.808 693.485 463.808C692.173 463.808 691.117 464.16 690.669 464.4V465.776ZM692.941 470.992C692.141 470.992 691.629 470.496 691.629 469.792C691.629 468.704 692.733 468 695.341 468.416C695.341 469.664 694.301 470.992 692.941 470.992ZM699.472 464V472H700.96V468.064C700.96 466.432 702.08 465.184 703.648 465.184C704.976 465.184 705.168 466.176 705.168 467.28V472H706.656V466.976C706.656 464.976 705.888 463.808 703.92 463.808C702.224 463.808 701.168 465.008 700.864 465.728H700.832C700.848 465.696 700.896 465.456 700.896 465.12L700.864 464H699.472ZM712.579 463.808C710.371 463.808 708.659 465.584 708.659 468C708.659 470.48 710.371 472.192 712.899 472.192C714.195 472.192 715.267 471.856 715.891 471.504V470.144C715.219 470.576 714.083 470.896 712.995 470.896C711.315 470.896 710.259 469.904 710.211 468.336V468.32H716.163C716.163 468.16 716.195 467.856 716.195 467.536C716.195 465.568 714.931 463.808 712.579 463.808ZM714.723 467.264H710.227C710.355 466.112 711.187 465.056 712.563 465.056C713.987 465.056 714.739 466.112 714.723 467.264Z" fill="white"/>
<path d="M467.576 485.36V486.164H468.632V494H469.544V485.36H467.576ZM472.043 489.68C472.043 492.236 473.291 494.144 475.235 494.144C477.191 494.144 478.427 492.236 478.427 489.68C478.427 487.136 477.191 485.216 475.235 485.216C473.291 485.216 472.043 487.136 472.043 489.68ZM472.967 489.68C472.967 487.544 473.855 486.068 475.235 486.068C476.615 486.068 477.503 487.544 477.503 489.68C477.503 491.816 476.615 493.292 475.235 493.292C473.855 493.292 472.967 491.816 472.967 489.68ZM483.434 488V494H484.322V491.156C484.322 489.956 485.018 488.684 486.338 488.684C487.418 488.684 487.574 489.524 487.574 490.412V494H488.45V491.156C488.45 489.98 489.098 488.684 490.43 488.684C491.474 488.684 491.702 489.452 491.702 490.424V494H492.578V490.22C492.578 488.744 492.026 487.856 490.514 487.856C489.554 487.856 488.714 488.54 488.354 489.32H488.342C488.174 488.372 487.502 487.856 486.506 487.856C485.522 487.856 484.574 488.54 484.262 489.392H484.238C484.25 489.38 484.286 489.188 484.286 488.924L484.274 488H483.434ZM494.587 486.248C494.587 486.584 494.815 486.824 495.175 486.824C495.511 486.824 495.763 486.584 495.763 486.248C495.763 485.912 495.511 485.672 495.175 485.672C494.815 485.672 494.587 485.912 494.587 486.248ZM494.731 488V494H495.619V488H494.731ZM497.965 488V494H498.853V491.06C498.853 489.716 499.789 488.684 501.061 488.684C502.189 488.684 502.333 489.512 502.333 490.424V494H503.209V490.22C503.209 488.756 502.693 487.856 501.181 487.856C499.825 487.856 499.009 488.84 498.793 489.392H498.769C498.781 489.38 498.817 489.188 498.817 488.924L498.805 488H497.965ZM508.319 489.152C508.667 488.936 509.435 488.648 510.299 488.648C511.295 488.648 511.967 489.044 511.967 490.196V490.568C509.471 490.22 507.947 490.952 507.947 492.44C507.947 493.472 508.715 494.144 509.819 494.144C511.271 494.144 511.979 492.836 512.015 492.728H512.039C512.039 492.728 511.991 492.932 512.003 493.232V494H512.831V490.148C512.831 488.648 512.039 487.856 510.395 487.856C509.447 487.856 508.655 488.12 508.319 488.312V489.152ZM509.951 493.4C509.267 493.4 508.835 492.992 508.835 492.404C508.835 491.456 509.891 490.904 511.943 491.228C511.943 492.272 511.091 493.4 509.951 493.4ZM516.001 492.548C516.001 492.308 516.433 492.092 516.973 492.044H517.021C518.305 492.008 519.253 491.144 519.253 489.968C519.253 489.416 519.013 488.948 518.641 488.624L518.701 488.636C518.701 488.636 518.905 488.684 519.085 488.684H519.961V488H517.801C517.525 487.904 517.201 487.856 516.877 487.856C515.533 487.856 514.501 488.732 514.501 489.968C514.501 490.88 515.065 491.6 515.917 491.912C515.437 492.068 515.125 492.368 515.125 492.704C515.125 493.1 515.473 493.388 516.073 493.46C515.125 493.64 514.369 494.24 514.369 494.96C514.369 496.04 515.449 496.592 517.069 496.592C518.725 496.592 519.865 495.908 519.865 494.792C519.865 493.7 518.965 493.244 517.477 493.088C516.361 492.98 516.001 492.872 516.001 492.548ZM516.877 491.384C515.977 491.384 515.341 490.784 515.341 489.98C515.341 489.176 515.977 488.564 516.877 488.564C517.789 488.564 518.425 489.176 518.425 489.98C518.425 490.784 517.789 491.384 516.877 491.384ZM517.069 495.92C515.989 495.92 515.233 495.56 515.233 494.876C515.233 494.288 515.953 493.772 516.985 493.772C518.485 493.772 518.965 494.264 518.965 494.852C518.965 495.476 518.257 495.92 517.069 495.92ZM523.779 487.856C522.147 487.856 520.875 489.188 520.875 491C520.875 492.86 522.159 494.144 523.995 494.144C524.931 494.144 525.735 493.892 526.239 493.592V492.752C525.675 493.124 524.835 493.352 524.031 493.352C522.699 493.352 521.823 492.488 521.799 491.18V491.132H526.443C526.443 491.024 526.455 490.844 526.455 490.652C526.455 489.176 525.507 487.856 523.779 487.856ZM525.567 490.484H521.823C521.931 489.524 522.627 488.624 523.767 488.624C524.955 488.624 525.579 489.524 525.567 490.484Z" fill="#999999"/>
<rect x="451" y="445" width="345" height="64" rx="4" fill="url(#paint2_linear_505_2367)"/>
<path d="M642.05 514V503.995H643.955L648.8 511.105V503.995H650.645V514H648.785L643.895 506.8V514H642.05ZM652.233 510.475C652.233 509.795 652.393 509.17 652.713 508.6C653.033 508.03 653.473 507.575 654.033 507.235C654.603 506.895 655.263 506.725 656.013 506.725C656.763 506.725 657.418 506.895 657.978 507.235C658.548 507.575 658.993 508.03 659.313 508.6C659.633 509.17 659.793 509.795 659.793 510.475C659.793 511.155 659.633 511.78 659.313 512.35C658.993 512.92 658.548 513.38 657.978 513.73C657.418 514.07 656.763 514.24 656.013 514.24C655.263 514.24 654.603 514.07 654.033 513.73C653.473 513.38 653.033 512.92 652.713 512.35C652.393 511.78 652.233 511.155 652.233 510.475ZM656.013 512.71C656.463 512.71 656.833 512.595 657.123 512.365C657.423 512.135 657.643 511.85 657.783 511.51C657.933 511.16 658.008 510.815 658.008 510.475C658.008 510.135 657.933 509.795 657.783 509.455C657.643 509.115 657.423 508.83 657.123 508.6C656.833 508.37 656.463 508.255 656.013 508.255C655.563 508.255 655.188 508.37 654.888 508.6C654.598 508.83 654.378 509.115 654.228 509.455C654.088 509.795 654.018 510.135 654.018 510.475C654.018 510.815 654.088 511.16 654.228 511.51C654.378 511.85 654.598 512.135 654.888 512.365C655.188 512.595 655.563 512.71 656.013 512.71ZM663.103 514L660.118 506.965H662.158L664.048 512.005L665.938 506.965H667.873L664.903 514H663.103ZM668.793 511.24V506.965H670.563V511.225C670.563 511.665 670.683 512.01 670.923 512.26C671.173 512.51 671.493 512.635 671.883 512.635C672.373 512.635 672.778 512.455 673.098 512.095C673.418 511.735 673.578 511.295 673.578 510.775V506.965H675.348V514H673.653L673.608 513.205C673.428 513.405 673.168 513.615 672.828 513.835C672.498 514.045 672.053 514.15 671.493 514.15C670.623 514.15 669.953 513.885 669.483 513.355C669.023 512.825 668.793 512.12 668.793 511.24Z" fill="white"/>
<path d="M574.476 510.36C576.465 510.36 577.661 509.294 577.661 507.5C577.661 505.706 576.465 504.64 574.476 504.64H571.603V514H572.851V510.36H574.476ZM574.437 505.693C575.659 505.693 576.387 506.369 576.387 507.5C576.387 508.631 575.698 509.307 574.541 509.307H572.851V505.693H574.437ZM581.963 507.344C580.039 507.344 578.622 508.787 578.622 510.75C578.622 512.713 580.039 514.156 581.963 514.156C583.9 514.156 585.317 512.713 585.317 510.75C585.317 508.787 583.9 507.344 581.963 507.344ZM581.963 513.103C580.715 513.103 579.792 512.128 579.792 510.75C579.792 509.372 580.715 508.397 581.963 508.397C583.224 508.397 584.147 509.372 584.147 510.75C584.147 512.128 583.224 513.103 581.963 513.103ZM591.314 507.591H590.651L589 512.219L587.232 507.5H585.945L588.675 514.156H589.338L590.976 509.723L592.614 514.156H593.277L596.007 507.5H594.733L592.952 512.219L591.314 507.591ZM599.822 507.344C598.028 507.344 596.637 508.787 596.637 510.75C596.637 512.765 598.028 514.156 600.082 514.156C601.135 514.156 602.006 513.883 602.513 513.597V512.492C601.967 512.843 601.044 513.103 600.16 513.103C598.795 513.103 597.937 512.297 597.898 511.023V511.01H602.734C602.734 510.88 602.76 510.633 602.76 510.373C602.76 508.774 601.733 507.344 599.822 507.344ZM601.564 510.152H597.911C598.015 509.216 598.691 508.358 599.809 508.358C600.966 508.358 601.577 509.216 601.564 510.152ZM604.455 514H605.664V511.166C605.664 509.905 606.392 508.514 607.653 508.514C607.822 508.514 607.939 508.54 607.991 508.553V507.383C607.939 507.37 607.783 507.344 607.601 507.344C606.665 507.344 605.976 507.968 605.599 508.891H605.586C605.573 508.852 605.612 508.657 605.599 508.41L605.586 507.5H604.455V514ZM615.387 504.64H614.178V507.994C614.178 508.332 614.217 508.527 614.217 508.527H614.191C613.84 507.916 612.982 507.344 611.929 507.344C610.239 507.344 608.939 508.709 608.939 510.75C608.939 512.765 610.239 514.156 611.955 514.156C613.008 514.156 613.918 513.48 614.256 512.752H614.282C614.282 512.752 614.243 512.947 614.243 513.233L614.269 514H615.387V504.64ZM612.124 508.397C613.099 508.397 614.165 509.125 614.165 510.75C614.165 512.375 613.099 513.103 612.124 513.103C610.915 513.103 610.109 512.102 610.109 510.75C610.109 509.372 610.915 508.397 612.124 508.397ZM621.19 514H622.308L622.334 513.233C622.334 512.947 622.295 512.752 622.295 512.752H622.321C622.659 513.48 623.569 514.156 624.622 514.156C626.338 514.156 627.638 512.765 627.638 510.75C627.638 508.709 626.338 507.344 624.648 507.344C623.595 507.344 622.737 507.916 622.386 508.527H622.36C622.36 508.527 622.399 508.332 622.399 507.994V504.64H621.19V514ZM624.453 508.397C625.662 508.397 626.468 509.372 626.468 510.75C626.468 512.102 625.662 513.103 624.453 513.103C623.478 513.103 622.412 512.375 622.412 510.75C622.412 509.125 623.478 508.397 624.453 508.397ZM628.258 516.899C628.401 516.964 628.752 517.016 629.09 517.016C630.806 517.016 631.534 515.833 632.418 513.701L634.979 507.5H633.64L632.743 509.853C632.431 510.659 631.963 511.959 631.638 512.7C631.3 511.751 630.91 510.802 630.546 509.853L629.636 507.5H628.297L631.014 513.922C630.52 515.105 630 515.976 628.96 515.976C628.635 515.976 628.401 515.937 628.258 515.898V516.899Z" fill="#4D4D4D"/>
<rect x="437" y="168" width="373" height="1" fill="#262626"/>
<path d="M692.89 143.186L695.816 139.392C695.998 139.126 696.222 138.832 696.362 138.608C696.348 138.93 696.348 139.238 696.348 139.546V146H697.384V135.752H697.37L692.89 141.632L688.41 135.752H688.396V146H689.432V139.546C689.432 139.238 689.432 138.93 689.418 138.608L689.698 139L692.89 143.186ZM699.901 140.344C700.307 140.092 701.203 139.756 702.211 139.756C703.373 139.756 704.157 140.218 704.157 141.562V141.996C701.245 141.59 699.467 142.444 699.467 144.18C699.467 145.384 700.363 146.168 701.651 146.168C703.345 146.168 704.171 144.642 704.213 144.516H704.241C704.241 144.516 704.185 144.754 704.199 145.104V146H705.165V141.506C705.165 139.756 704.241 138.832 702.323 138.832C701.217 138.832 700.293 139.14 699.901 139.364V140.344ZM701.805 145.3C701.007 145.3 700.503 144.824 700.503 144.138C700.503 143.032 701.735 142.388 704.129 142.766C704.129 143.984 703.135 145.3 701.805 145.3ZM707.547 146H708.583V142.92C708.583 141.534 709.311 139.84 710.781 139.84C710.949 139.84 711.089 139.868 711.131 139.882V138.874C711.089 138.86 710.907 138.832 710.711 138.832C709.661 138.832 708.905 139.588 708.527 140.61H708.499C708.499 140.582 708.541 140.358 708.527 140.078V139H707.547V146ZM718.608 139H717.348L713.904 142.724V135.92H712.868V146H713.89V143.9L715.248 142.458L717.614 146H718.818L716.018 141.856L718.608 139ZM724.1 140.344C724.506 140.092 725.402 139.756 726.41 139.756C727.572 139.756 728.356 140.218 728.356 141.562V141.996C725.444 141.59 723.666 142.444 723.666 144.18C723.666 145.384 724.562 146.168 725.85 146.168C727.544 146.168 728.37 144.642 728.412 144.516H728.44C728.44 144.516 728.384 144.754 728.398 145.104V146H729.364V141.506C729.364 139.756 728.44 138.832 726.522 138.832C725.416 138.832 724.492 139.14 724.1 139.364V140.344ZM726.004 145.3C725.206 145.3 724.702 144.824 724.702 144.138C724.702 143.032 725.934 142.388 728.328 142.766C728.328 143.984 727.334 145.3 726.004 145.3ZM731.927 144.292C731.927 145.65 732.613 146.168 733.593 146.168C734.055 146.168 734.349 146.084 734.405 146.07V145.174C734.349 145.188 734.111 145.244 733.817 145.244C733.187 145.244 732.963 144.88 732.963 144.082V135.92H731.927V144.292ZM736.138 144.292C736.138 145.65 736.824 146.168 737.804 146.168C738.266 146.168 738.56 146.084 738.616 146.07V145.174C738.56 145.188 738.322 145.244 738.028 145.244C737.398 145.244 737.174 144.88 737.174 144.082V135.92H736.138V144.292ZM743.801 140.344C744.207 140.092 745.103 139.756 746.111 139.756C747.273 139.756 748.057 140.218 748.057 141.562V141.996C745.145 141.59 743.367 142.444 743.367 144.18C743.367 145.384 744.263 146.168 745.551 146.168C747.245 146.168 748.071 144.642 748.113 144.516H748.141C748.141 144.516 748.085 144.754 748.099 145.104V146H749.065V141.506C749.065 139.756 748.141 138.832 746.223 138.832C745.117 138.832 744.193 139.14 743.801 139.364V140.344ZM745.705 145.3C744.907 145.3 744.403 144.824 744.403 144.138C744.403 143.032 745.635 142.388 748.029 142.766C748.029 143.984 747.035 145.3 745.705 145.3ZM754.752 144.25C754.752 144.978 754.024 145.286 753.198 145.286C752.54 145.286 751.672 145.062 750.958 144.74V145.706C751.546 145.986 752.372 146.168 753.24 146.168C754.682 146.168 755.732 145.51 755.732 144.25C755.732 143.102 754.99 142.556 753.492 142.066C752.442 141.73 751.91 141.422 751.91 140.778C751.91 140.092 752.554 139.728 753.478 139.728C754.094 139.728 754.808 139.938 755.326 140.218V139.252C754.836 139.014 754.094 138.832 753.38 138.832C751.952 138.832 750.916 139.602 750.916 140.764C750.916 141.954 751.84 142.514 753.058 142.906C754.206 143.27 754.752 143.55 754.752 144.25ZM761.36 146H762.396V142.92C762.396 141.534 763.124 139.84 764.594 139.84C764.762 139.84 764.902 139.868 764.944 139.882V138.874C764.902 138.86 764.72 138.832 764.524 138.832C763.474 138.832 762.718 139.588 762.34 140.61H762.312C762.312 140.582 762.354 140.358 762.34 140.078V139H761.36V146ZM769.467 138.832C767.563 138.832 766.079 140.386 766.079 142.5C766.079 144.67 767.577 146.168 769.719 146.168C770.811 146.168 771.749 145.874 772.337 145.524V144.544C771.679 144.978 770.699 145.244 769.761 145.244C768.207 145.244 767.185 144.236 767.157 142.71V142.654H772.575C772.575 142.528 772.589 142.318 772.589 142.094C772.589 140.372 771.483 138.832 769.467 138.832ZM771.553 141.898H767.185C767.311 140.778 768.123 139.728 769.453 139.728C770.839 139.728 771.567 140.778 771.553 141.898ZM774.7 140.344C775.106 140.092 776.002 139.756 777.01 139.756C778.172 139.756 778.956 140.218 778.956 141.562V141.996C776.044 141.59 774.266 142.444 774.266 144.18C774.266 145.384 775.162 146.168 776.45 146.168C778.144 146.168 778.97 144.642 779.012 144.516H779.04C779.04 144.516 778.984 144.754 778.998 145.104V146H779.964V141.506C779.964 139.756 779.04 138.832 777.122 138.832C776.016 138.832 775.092 139.14 774.7 139.364V140.344ZM776.604 145.3C775.806 145.3 775.302 144.824 775.302 144.138C775.302 143.032 776.534 142.388 778.928 142.766C778.928 143.984 777.934 145.3 776.604 145.3ZM788.618 135.92H787.596V139.7C787.596 140.05 787.638 140.274 787.638 140.274H787.61C787.218 139.532 786.252 138.832 785.09 138.832C783.242 138.832 781.856 140.344 781.856 142.5C781.856 144.628 783.242 146.168 785.104 146.168C786.266 146.168 787.274 145.398 787.652 144.586H787.68C787.68 144.586 787.638 144.796 787.638 145.118L787.652 146H788.618V135.92ZM785.216 139.756C786.336 139.756 787.582 140.582 787.582 142.5C787.582 144.418 786.336 145.244 785.216 145.244C783.802 145.244 782.864 144.068 782.864 142.5C782.864 140.904 783.802 139.756 785.216 139.756Z" fill="#4D4D4D"/>
<path d="M468.916 148.216V135.04H467.188V144.004L466.774 143.554L458.728 134.824H458.71V148H460.438V139.036L460.852 139.486L468.898 148.216H468.916ZM476.131 138.784C473.467 138.784 471.505 140.782 471.505 143.5C471.505 146.218 473.467 148.216 476.131 148.216C478.813 148.216 480.775 146.218 480.775 143.5C480.775 140.782 478.813 138.784 476.131 138.784ZM476.131 146.758C474.403 146.758 473.125 145.408 473.125 143.5C473.125 141.592 474.403 140.242 476.131 140.242C477.877 140.242 479.155 141.592 479.155 143.5C479.155 145.408 477.877 146.758 476.131 146.758ZM481.986 139V140.368H483.462V145.534C483.462 147.55 484.83 148.216 486.126 148.216C487.008 148.216 487.746 148.018 488.142 147.802V146.344C487.638 146.578 487.008 146.74 486.45 146.74C485.694 146.74 485.118 146.308 485.118 145.03V140.368H487.836V139H485.118V136.3H483.48V139H481.986ZM489.997 139V148H491.671V139H489.997ZM489.781 136.39C489.781 136.984 490.195 137.398 490.825 137.398C491.437 137.398 491.869 136.984 491.869 136.39C491.869 135.778 491.437 135.364 490.825 135.364C490.195 135.364 489.781 135.778 489.781 136.39ZM493.874 139V140.368H495.206V148H496.88V140.368H499.22V139H496.826V138.136C496.826 136.93 497.528 136.282 498.68 136.282C499.112 136.282 499.472 136.354 499.616 136.39V134.932C499.472 134.896 499.04 134.824 498.518 134.824C496.484 134.824 495.26 136.084 495.26 137.992V139H493.874ZM501.072 139V148H502.746V139H501.072ZM500.856 136.39C500.856 136.984 501.27 137.398 501.9 137.398C502.512 137.398 502.944 136.984 502.944 136.39C502.944 135.778 502.512 135.364 501.9 135.364C501.27 135.364 500.856 135.778 500.856 136.39ZM506.895 143.5C506.895 141.61 508.173 140.278 509.973 140.278C511.143 140.278 512.025 140.674 512.655 141.07V139.486C512.115 139.198 511.269 138.784 509.883 138.784C507.111 138.784 505.185 140.782 505.185 143.5C505.185 146.218 507.111 148.216 509.883 148.216C511.287 148.216 512.169 147.784 512.709 147.496V145.93C512.151 146.272 511.215 146.722 509.973 146.722C508.155 146.722 506.895 145.39 506.895 143.5ZM515.005 140.998C515.545 140.674 516.697 140.242 517.939 140.242C519.361 140.242 520.297 140.782 520.297 142.348V142.798C516.535 142.276 514.429 143.374 514.429 145.57C514.429 147.226 515.617 148.216 517.273 148.216C519.307 148.216 520.297 146.47 520.405 146.218H520.441C520.441 146.218 520.369 146.506 520.387 146.938L520.405 148H521.953V142.258C521.953 140.008 520.711 138.784 518.173 138.784C516.697 138.784 515.509 139.18 515.005 139.45V140.998ZM517.561 146.866C516.661 146.866 516.085 146.308 516.085 145.516C516.085 144.292 517.327 143.5 520.261 143.968C520.261 145.372 519.091 146.866 517.561 146.866ZM523.681 139V140.368H525.157V145.534C525.157 147.55 526.525 148.216 527.821 148.216C528.703 148.216 529.441 148.018 529.837 147.802V146.344C529.333 146.578 528.703 146.74 528.145 146.74C527.389 146.74 526.813 146.308 526.813 145.03V140.368H529.531V139H526.813V136.3H525.175V139H523.681ZM531.693 139V148H533.367V139H531.693ZM531.477 136.39C531.477 136.984 531.891 137.398 532.521 137.398C533.133 137.398 533.565 136.984 533.565 136.39C533.565 135.778 533.133 135.364 532.521 135.364C531.891 135.364 531.477 135.778 531.477 136.39ZM540.52 138.784C537.856 138.784 535.894 140.782 535.894 143.5C535.894 146.218 537.856 148.216 540.52 148.216C543.202 148.216 545.164 146.218 545.164 143.5C545.164 140.782 543.202 138.784 540.52 138.784ZM540.52 146.758C538.792 146.758 537.514 145.408 537.514 143.5C537.514 141.592 538.792 140.242 540.52 140.242C542.266 140.242 543.544 141.592 543.544 143.5C543.544 145.408 542.266 146.758 540.52 146.758ZM547.689 139V148H549.363V143.572C549.363 141.736 550.623 140.332 552.387 140.332C553.881 140.332 554.097 141.448 554.097 142.69V148H555.771V142.348C555.771 140.098 554.907 138.784 552.693 138.784C550.785 138.784 549.597 140.134 549.255 140.944H549.219C549.237 140.908 549.291 140.638 549.291 140.26L549.255 139H547.689ZM562.741 145.66C562.741 146.506 561.895 146.83 560.959 146.83C560.113 146.83 558.961 146.524 558.079 146.092V147.622C558.799 147.964 559.843 148.216 561.013 148.216C562.957 148.216 564.289 147.316 564.289 145.678C564.289 144.166 563.353 143.464 561.445 142.834C560.221 142.438 559.591 142.096 559.591 141.376C559.591 140.566 560.401 140.206 561.427 140.206C562.237 140.206 563.137 140.494 563.785 140.836V139.324C563.173 139.036 562.219 138.784 561.247 138.784C559.375 138.784 558.025 139.828 558.025 141.322C558.025 142.942 559.141 143.626 560.743 144.148C562.075 144.58 562.741 144.886 562.741 145.66Z" fill="white"/>
<circle cx="586" cy="140" r="12" fill="#FFE14D"/>
<path d="M582.624 136.864C583.136 136.48 584 136.128 584.976 136.128C585.984 136.128 586.688 136.56 586.96 137.312C587.088 137.648 587.136 138.048 587.088 138.496C586.896 140.528 584.96 142.608 582.016 146H589.744V144.288H585.664C587.504 142.16 589.216 140.32 589.216 138.096C589.216 135.856 587.664 134.272 585.216 134.272C584.128 134.272 583.2 134.576 582.624 134.976V136.864Z" fill="black"/>
<rect x="203" y="51" width="72" height="10" rx="5" fill="#262626"/>
<rect x="291" y="51" width="88" height="10" rx="5" fill="#262626"/>
<rect x="395" y="51" width="96" height="10" rx="5" fill="#262626"/>
<path d="M70.112 61L74.096 50.328H76.768L80.672 61H78.032L77.216 58.552H73.456L72.64 61H70.112ZM74.016 56.68H76.64L75.344 52.648L74.016 56.68ZM89.6409 57.528L91.2889 59.032C90.9902 59.4373 90.6062 59.8107 90.1369 60.152C89.6782 60.4933 89.1609 60.7653 88.5849 60.968C88.0089 61.1707 87.3902 61.272 86.7289 61.272C85.6515 61.272 84.6969 61.032 83.8649 60.552C83.0435 60.072 82.3982 59.416 81.9289 58.584C81.4702 57.7413 81.2409 56.7813 81.2409 55.704C81.2409 54.9147 81.3742 54.1787 81.6409 53.496C81.9075 52.8027 82.2809 52.2 82.7609 51.688C83.2515 51.176 83.8329 50.776 84.5049 50.488C85.1875 50.2 85.9395 50.056 86.7609 50.056C87.7422 50.056 88.6062 50.2373 89.3529 50.6C90.0995 50.9627 90.7182 51.4853 91.2089 52.168L89.5609 53.752C89.2409 53.304 88.8622 52.9467 88.4249 52.68C87.9875 52.4027 87.4649 52.264 86.8569 52.264C86.2169 52.264 85.6622 52.4187 85.1929 52.728C84.7342 53.0267 84.3769 53.432 84.1209 53.944C83.8755 54.456 83.7529 55.0213 83.7529 55.64C83.7529 56.2693 83.8755 56.8347 84.1209 57.336C84.3769 57.8373 84.7342 58.2373 85.1929 58.536C85.6515 58.824 86.1902 58.968 86.8089 58.968C87.3209 58.968 87.7475 58.8987 88.0889 58.76C88.4302 58.6213 88.7182 58.4453 88.9529 58.232C89.1982 58.008 89.4275 57.7733 89.6409 57.528ZM92.6915 61L93.1875 50.328H95.4755L98.2595 55.336L100.979 50.328H103.283L103.78 61H101.363L101.059 54.024L98.8515 58.184H97.6035L95.2675 54.072L94.9955 61H92.6915ZM106 61V50.328H113.296V52.44H108.416V54.52H112.208V56.568H108.416V58.872H113.648V61H106ZM126.796 57.528L128.444 59.032C128.145 59.4373 127.761 59.8107 127.292 60.152C126.833 60.4933 126.316 60.7653 125.74 60.968C125.164 61.1707 124.545 61.272 123.884 61.272C122.807 61.272 121.852 61.032 121.02 60.552C120.199 60.072 119.553 59.416 119.084 58.584C118.625 57.7413 118.396 56.7813 118.396 55.704C118.396 54.9147 118.529 54.1787 118.796 53.496C119.063 52.8027 119.436 52.2 119.916 51.688C120.407 51.176 120.988 50.776 121.66 50.488C122.343 50.2 123.095 50.056 123.916 50.056C124.897 50.056 125.761 50.2373 126.508 50.6C127.255 50.9627 127.873 51.4853 128.364 52.168L126.716 53.752C126.396 53.304 126.017 52.9467 125.58 52.68C125.143 52.4027 124.62 52.264 124.012 52.264C123.372 52.264 122.817 52.4187 122.348 52.728C121.889 53.0267 121.532 53.432 121.276 53.944C121.031 54.456 120.908 55.0213 120.908 55.64C120.908 56.2693 121.031 56.8347 121.276 57.336C121.532 57.8373 121.889 58.2373 122.348 58.536C122.807 58.824 123.345 58.968 123.964 58.968C124.476 58.968 124.903 58.8987 125.244 58.76C125.585 58.6213 125.873 58.4453 126.108 58.232C126.353 58.008 126.583 57.7733 126.796 57.528ZM134.877 61.272C134.088 61.272 133.357 61.1333 132.685 60.856C132.013 60.568 131.421 60.168 130.909 59.656C130.408 59.144 130.019 58.5467 129.741 57.864C129.464 57.1813 129.325 56.4453 129.325 55.656C129.325 54.856 129.464 54.12 129.741 53.448C130.019 52.7653 130.408 52.168 130.909 51.656C131.411 51.144 131.997 50.7493 132.669 50.472C133.352 50.184 134.088 50.04 134.877 50.04C135.667 50.04 136.397 50.184 137.069 50.472C137.741 50.7493 138.328 51.144 138.829 51.656C139.341 52.168 139.736 52.7653 140.013 53.448C140.291 54.12 140.429 54.856 140.429 55.656C140.429 56.4453 140.291 57.1813 140.013 57.864C139.736 58.5467 139.341 59.144 138.829 59.656C138.328 60.168 137.741 60.568 137.069 60.856C136.397 61.1333 135.667 61.272 134.877 61.272ZM134.877 59C135.507 59 136.045 58.8453 136.493 58.536C136.952 58.2267 137.299 57.816 137.533 57.304C137.779 56.792 137.901 56.232 137.901 55.624C137.901 55.016 137.779 54.4613 137.533 53.96C137.299 53.448 136.952 53.0427 136.493 52.744C136.045 52.4347 135.507 52.28 134.877 52.28C134.248 52.28 133.704 52.4347 133.245 52.744C132.797 53.0427 132.451 53.448 132.205 53.96C131.96 54.4613 131.837 55.016 131.837 55.624C131.837 56.232 131.96 56.792 132.205 57.304C132.451 57.816 132.797 58.2267 133.245 58.536C133.704 58.8453 134.248 59 134.877 59ZM142.421 61V50.328H146.389C147.221 50.328 147.914 50.4827 148.469 50.792C149.023 51.0907 149.439 51.496 149.717 52.008C149.994 52.5093 150.133 53.064 150.133 53.672C150.133 54.3547 149.978 54.9573 149.669 55.48C149.37 56.0027 148.943 56.4187 148.389 56.728L150.757 61H148.101L146.117 57.08H144.773V61H142.421ZM144.773 55.144H146.261C146.709 55.144 147.061 55.0107 147.317 54.744C147.573 54.4773 147.701 54.1413 147.701 53.736C147.701 53.2987 147.567 52.952 147.301 52.696C147.045 52.44 146.698 52.312 146.261 52.312H144.773V55.144ZM152.459 61V50.328H156.347C157.233 50.328 157.947 50.4933 158.491 50.824C159.046 51.144 159.451 51.5653 159.707 52.088C159.963 52.6107 160.091 53.1707 160.091 53.768C160.091 54.5253 159.921 55.1653 159.579 55.688C159.238 56.2 158.79 56.5893 158.235 56.856C157.691 57.112 157.099 57.24 156.459 57.24H154.811V61H152.459ZM154.811 55.288H156.219C156.657 55.288 157.009 55.1493 157.275 54.872C157.542 54.5947 157.675 54.2427 157.675 53.816C157.675 53.368 157.542 53.0053 157.275 52.728C157.009 52.44 156.651 52.296 156.203 52.296H154.811V55.288ZM159.184 61V58.456H161.792V61H159.184Z" fill="white"/>
<path d="M33.0042 63.455L44.1616 46.2899C44.5559 45.6832 45.4441 45.6832 45.8384 46.2899L56.9958 63.455C57.4282 64.1203 56.9508 65 56.1573 65H33.8427C33.0492 65 32.5718 64.1203 33.0042 63.455Z" fill="white"/>
<circle cx="720" cy="56" r="23.5" stroke="#333333"/>
<path d="M717.5 46C713.125 47.125 710 51.125 710 55.875C710 61.5 714.5 66 720.125 66C724.875 66 728.75 62.875 730 58.5C722.375 60.625 715.375 53.625 717.5 46Z" fill="white"/>
<circle cx="654" cy="56" r="23.5" stroke="#333333"/>
<circle cx="652" cy="54" r="6.5" stroke="white" stroke-width="3"/>
<path d="M657 59L662 64" stroke="white" stroke-width="3" stroke-linecap="round"/>
<circle cx="786" cy="56" r="24" fill="white"/>
<g clip-path="url(#clip0_505_2367)">
<path d="M793.371 67.8163C793.353 67.7754 791.634 63.6378 792.429 60.6724L793.901 55.1787C794.459 53.0973 794.167 50.8795 793.089 49.0133C792.012 47.1471 790.237 45.7854 788.156 45.2277C786.074 44.6699 783.857 44.9619 781.99 46.0394C780.124 47.1168 778.762 48.8915 778.205 50.9729L776.733 56.4666C775.938 59.432 772.381 62.1561 772.345 62.1827C772.285 62.2286 772.238 62.2906 772.211 62.3617C772.184 62.4327 772.177 62.51 772.192 62.5847C772.206 62.6593 772.242 62.7284 772.294 62.784C772.346 62.8396 772.412 62.8794 772.486 62.8991L792.891 68.3666C792.964 68.3864 793.042 68.3851 793.115 68.3629C793.187 68.3407 793.253 68.2986 793.303 68.2412C793.352 68.1839 793.385 68.1137 793.397 68.0385C793.409 67.9634 793.4 67.8864 793.371 67.8163Z" fill="black"/>
<path d="M779.762 65.6904C779.68 66.3689 779.847 67.0539 780.23 67.6198C780.612 68.1857 781.187 68.5945 781.847 68.7714C782.507 68.9482 783.208 68.8812 783.823 68.5826C784.437 68.284 784.924 67.7738 785.193 67.1456L779.762 65.6904Z" fill="black"/>
</g>
<circle cx="793" cy="47" r="6" fill="#E300BD" stroke="white" stroke-width="2"/>
<defs>
<linearGradient id="paint0_linear_505_2367" x1="421" y1="0" x2="421" y2="560" gradientUnits="userSpaceOnUse">
<stop stop-opacity="0.3"/>
<stop offset="1"/>
</linearGradient>
<linearGradient id="paint1_linear_505_2367" x1="404" y1="166" x2="33" y2="234" gradientUnits="userSpaceOnUse">
<stop offset="0.147222" stop-color="#FFBB33"/>
<stop offset="0.519444" stop-color="white"/>
<stop offset="0.755556" stop-color="#E300BD"/>
<stop offset="0.855556" stop-color="#FF006A"/>
</linearGradient>
<linearGradient id="paint2_linear_505_2367" x1="623.5" y1="445" x2="623.5" y2="509" gradientUnits="userSpaceOnUse">
<stop stop-color="#1A1A1A" stop-opacity="0"/>
<stop offset="0.804688" stop-color="#1A1A1A"/>
</linearGradient>
<clipPath id="clip0_505_2367">
<rect width="26" height="26" fill="white" transform="translate(775.809 41.0781) rotate(15)"/>
</clipPath>
</defs>
</svg>
