<svg width="80" height="80" viewBox="0 0 80 80" fill="none" xmlns="http://www.w3.org/2000/svg">
<path d="M40.1289 3V77.7844C44.7829 75.7783 69.2563 64.6249 69.2563 48.657C69.2563 30.9238 69.2563 14.3942 69.2563 14.3942L40.1289 3Z" fill="url(#paint0_linear_25184_17007)"/>
<path d="M40.1274 3V77.7844C35.4734 75.7783 11 64.6249 11 48.657C11 30.9238 11 14.3942 11 14.3942L40.1274 3Z" fill="url(#paint1_linear_25184_17007)"/>
<path d="M28.9748 44.8065C28.734 44.9669 28.4131 45.1274 28.0921 45.2077C27.7711 45.3681 27.4502 45.4484 27.1292 45.5286C26.8083 45.6089 26.4071 45.6891 25.9256 45.7693C25.5244 45.8496 24.9627 45.8496 24.4813 45.8496C23.8393 45.8496 23.3579 45.7693 22.7962 45.6089C22.3148 45.4484 21.8333 45.2077 21.5124 44.9669C21.1914 44.7262 20.7902 44.325 20.5495 43.9238C20.2285 43.5226 20.068 43.1214 19.8273 42.64C19.5866 42.1585 19.5063 41.6771 19.4261 41.1956C19.3459 40.7142 19.2656 40.1525 19.2656 39.6711C19.2656 39.1094 19.3459 38.5477 19.4261 38.0662C19.5063 37.5046 19.6668 37.0231 19.9076 36.5417C20.1483 36.0602 20.389 35.659 20.71 35.2578C21.0309 34.8566 21.3519 34.5356 21.7531 34.2147C22.1543 33.8937 22.6357 33.7332 23.1172 33.5728C23.5986 33.4123 24.1603 33.332 24.722 33.332C25.043 33.332 25.2837 33.332 25.5244 33.332C25.7651 33.332 26.0058 33.4123 26.1663 33.4123C26.407 33.4123 26.5675 33.4925 26.728 33.5728C26.8885 33.653 27.1292 33.7332 27.2897 33.8135C27.4502 33.8937 27.6909 34.0542 27.8514 34.2147C28.0119 34.3752 28.2526 34.5356 28.4933 34.6961L27.3699 36.2207C27.1292 35.98 26.8885 35.7393 26.6478 35.5788C26.4071 35.4183 26.1663 35.2578 26.0058 35.1776C25.7651 35.0973 25.5244 35.0171 25.2837 35.0171C25.043 35.0171 24.8022 34.9368 24.4813 34.9368C23.9998 34.9368 23.5184 35.0171 23.1172 35.2578C22.716 35.4985 22.395 35.8195 22.1543 36.2207C21.9136 36.6219 21.6728 37.1033 21.5124 37.5848C21.3519 38.0662 21.2716 38.7082 21.2716 39.3501C21.2716 39.992 21.3519 40.6339 21.4321 41.1956C21.5124 41.7573 21.7531 42.319 21.9938 42.7202C22.2345 43.1214 22.5555 43.5226 23.0369 43.7633C23.4381 44.004 23.9196 44.1645 24.5615 44.1645C24.722 44.1645 24.8825 44.1645 25.043 44.1645C25.2034 44.1645 25.4442 44.1645 25.6046 44.0843C25.7651 44.0843 26.0058 44.0041 26.1663 44.0041C26.3268 44.0041 26.4873 43.9238 26.6478 43.9238V39.8315H28.734V44.8065H28.9748Z" fill="black"/>
<path d="M34.1099 33.4922C35.2332 33.4922 36.1961 33.6527 36.9183 33.9736C37.7207 34.2946 38.2824 34.6958 38.8441 35.2575C39.3255 35.8192 39.6465 36.3809 39.8872 37.103C40.1279 37.8252 40.2082 38.5473 40.2082 39.3498C40.2082 39.9114 40.1279 40.4731 40.0477 40.9546C39.9674 41.436 39.807 41.9977 39.6465 42.4791C39.4057 42.9606 39.165 43.3618 38.8441 43.763C38.5231 44.1642 38.1219 44.4852 37.6405 44.7259C37.159 44.9666 36.6776 45.2073 36.0356 45.3678C35.3937 45.5283 34.7518 45.6085 33.9494 45.6085H30.9805V33.5724H34.1099V33.4922ZM33.2272 35.097V44.0037H33.8691C34.4308 44.0037 34.9925 43.9235 35.5542 43.6828C36.0356 43.5223 36.5171 43.2013 36.838 42.8001C37.2392 42.3989 37.48 41.9175 37.7207 41.3558C37.9614 40.7941 38.0417 40.0719 38.0417 39.2695C38.0417 38.7078 37.9614 38.2264 37.8009 37.6647C37.6404 37.1833 37.3997 36.7018 37.0788 36.3006C36.7578 35.8994 36.3566 35.5784 35.8752 35.3377C35.3937 35.097 34.7518 34.9365 34.0296 34.9365H33.2272V35.097Z" fill="black"/>
<path d="M44.4613 40.9564V45.6103H42.375V33.5742H45.8253C46.6278 33.5742 47.2697 33.6545 47.8314 33.8149C48.3931 33.9754 48.8745 34.2161 49.1955 34.5371C49.5967 34.8581 49.8374 35.2593 49.9979 35.6605C50.1584 36.0617 50.2386 36.5431 50.2386 37.1048C50.2386 37.2653 50.2386 37.506 50.1583 37.827C50.0781 38.0677 49.9979 38.3887 49.9176 38.6294C49.7571 38.9503 49.5967 39.1911 49.3559 39.4318C49.1152 39.6725 48.8745 39.9132 48.4733 40.154C48.0721 40.3947 47.6709 40.5552 47.1894 40.7156C46.708 40.8761 46.1463 40.8761 45.4241 40.8761H44.4613V40.9564ZM44.4613 39.3515H45.5044C45.9056 39.3515 46.2266 39.2713 46.5475 39.1911C46.8685 39.1108 47.1092 38.9503 47.3499 38.7899C47.5906 38.6294 47.7511 38.3887 47.9116 38.0677C48.0721 37.827 48.0721 37.506 48.0721 37.1048C48.0721 36.7838 47.9919 36.5431 47.9116 36.3024C47.8314 36.0617 47.6709 35.821 47.5104 35.6605C47.3499 35.5 47.029 35.3395 46.708 35.179C46.387 35.0988 45.9858 35.0186 45.5044 35.0186H44.4613V39.3515Z" fill="black"/>
<path d="M54.1722 45.6103H52.0859V33.5742H55.5363C56.3387 33.5742 56.9806 33.6545 57.5423 33.8149C58.104 33.9754 58.5854 34.2161 58.9064 34.4569C59.3076 34.7778 59.5483 35.0988 59.7088 35.5C59.8693 35.9012 59.9495 36.3826 59.9495 36.8641C59.9495 37.1851 59.8693 37.5863 59.789 37.9072C59.7088 38.2282 59.5483 38.6294 59.3076 38.9503C59.0669 39.2713 58.8262 39.5923 58.425 39.833C58.0238 40.0737 57.6225 40.3144 57.0609 40.4749L60.7519 45.6103H58.3447L55.1351 40.7156C54.9746 40.7156 54.8944 40.7156 54.7339 40.7156C54.5734 40.7156 54.4129 40.7156 54.1722 40.6354V45.6103ZM54.1722 39.0306C54.3327 39.0306 54.4932 39.0306 54.6536 39.0306C54.8141 39.0306 54.9746 39.0306 55.1351 39.0306C55.5363 39.0306 55.9375 38.9503 56.2585 38.8701C56.5794 38.7899 56.9004 38.6294 57.1411 38.4689C57.3818 38.3084 57.5423 38.0677 57.7028 37.827C57.8633 37.5863 57.8633 37.2653 57.8633 36.9443C57.8633 36.6234 57.783 36.3024 57.7028 36.0617C57.6225 35.821 57.4621 35.6605 57.3016 35.5C57.1411 35.3395 56.8201 35.2593 56.4992 35.179C56.1782 35.0988 55.6968 35.0988 55.2153 35.0988H54.2524V39.0306H54.1722Z" fill="black"/>
<path d="M40.1243 13.6719L41.007 16.3198H43.7352L41.5687 17.9246L42.3711 20.4923L40.1243 18.8875L37.9578 20.4923L38.7603 17.9246L36.5938 16.3198H39.3219L40.1243 13.6719Z" fill="black"/>
<path d="M49.5132 16.2383L50.3958 18.806H53.124L50.8773 20.4108L51.7599 23.0587L49.5132 21.4539L47.3467 23.0587L48.1491 20.4108L45.9023 18.806H48.7108L49.5132 16.2383Z" fill="black"/>
<path d="M57.2983 23.0586L58.1007 25.6263H60.8289L58.6624 27.2311L59.4648 29.8791L57.2983 28.2742L55.0516 29.8791L55.9342 27.2311L53.6875 25.6263H56.4157L57.2983 23.0586Z" fill="black"/>
<path d="M40.1243 56.9219L41.007 59.5698H43.7352L41.5687 61.1746L42.3711 63.7423L40.1243 62.1375L37.9578 63.7423L38.7603 61.1746L36.5938 59.5698H39.3219L40.1243 56.9219Z" fill="black"/>
<path d="M49.5132 54.6758L50.3958 57.2435H53.124L50.8773 58.8483L51.7599 61.4962L49.5132 59.8914L47.3467 61.4962L48.1491 58.8483L45.9023 57.2435H48.7108L49.5132 54.6758Z" fill="black"/>
<path d="M57.2983 49.0586L58.1007 51.7065H60.8289L58.6624 53.3113L59.4648 55.8791L57.2983 54.2742L55.0516 55.8791L55.9342 53.3113L53.6875 51.7065H56.4157L57.2983 49.0586Z" fill="black"/>
<path d="M30.8179 16.2383L29.9352 18.806H27.207L29.4538 20.4108L28.5711 23.0587L30.8179 21.4539L32.9844 23.0587L32.182 20.4108L34.3485 18.806H31.6203L30.8179 16.2383Z" fill="black"/>
<path d="M23.0345 23.0586L22.2321 25.6263H19.5039L21.6704 27.2311L20.868 29.8791L23.0345 28.2742L25.2812 29.8791L24.3986 27.2311L26.6453 25.6263H23.9171L23.0345 23.0586Z" fill="black"/>
<path d="M30.8179 54.6758L29.9352 57.2435H27.207L29.4538 58.8483L28.5711 61.4962L30.8179 59.8914L32.9844 61.4962L32.182 58.8483L34.3485 57.2435H31.6203L30.8179 54.6758Z" fill="black"/>
<path d="M23.0345 49.0586L22.2321 51.7065H19.5039L21.6704 53.3113L20.868 55.8791L23.0345 54.2742L25.2812 55.8791L24.3986 53.3113L26.6453 51.7065H23.9171L23.0345 49.0586Z" fill="black"/>
<defs>
<linearGradient id="paint0_linear_25184_17007" x1="54.6926" y1="3" x2="54.6926" y2="77.7844" gradientUnits="userSpaceOnUse">
<stop stop-color="white"/>
<stop offset="1" stop-color="white" stop-opacity="0.6"/>
</linearGradient>
<linearGradient id="paint1_linear_25184_17007" x1="25.5637" y1="3" x2="25.5637" y2="77.7844" gradientUnits="userSpaceOnUse">
<stop stop-color="white"/>
<stop offset="1" stop-color="white" stop-opacity="0.6"/>
</linearGradient>
</defs>
</svg>
