<svg width="80" height="80" viewBox="0 0 80 80" fill="none" xmlns="http://www.w3.org/2000/svg">
<path d="M42.1982 3.06719C37.0506 0.498175 32.2478 7.33567 38.1562 10.0116C38.1816 10.0233 38.2031 10.0421 38.2182 10.0656C38.2333 10.0891 38.2413 10.1164 38.2414 10.1444V32.281C38.2415 32.3114 38.2524 32.3408 38.272 32.3637C38.2917 32.3866 38.3188 32.4016 38.3484 32.4058C39.4025 32.5616 40.4586 32.5689 41.5166 32.4276C41.5424 32.4238 41.5659 32.411 41.583 32.3914C41.6 32.3717 41.6095 32.3467 41.6097 32.3207V10.1959C41.6098 10.1673 41.6176 10.1394 41.6323 10.1152C41.647 10.0911 41.668 10.0717 41.693 10.0592C42.2913 9.75283 42.7193 9.49203 42.9769 9.27679C45.1782 7.44065 44.7225 4.32694 42.1982 3.06719Z" fill="url(#paint0_linear_25184_16851)"/>
<path d="M29.8082 10.0887C21.6608 12.2061 13.4441 13.7214 5.09065 11.8139C4.99554 11.7915 4.98233 11.8146 5.05102 11.8832C10.3677 17.1599 16.79 20.0023 24.3178 20.4103C24.3469 20.4121 24.375 20.4212 24.3997 20.4367C24.4242 20.4523 24.4445 20.4739 24.4585 20.4994C25.9029 23.1021 34.1632 22.6941 36.7331 22.498C36.7671 22.4955 36.7988 22.4802 36.822 22.4552C36.8452 22.4302 36.858 22.3974 36.8579 22.3633C36.8619 19.7963 36.8619 17.2424 36.8579 14.7018C36.8539 12.6042 34.2029 9.84505 32.1522 9.7064C31.6885 9.67471 30.9072 9.80214 29.8082 10.0887ZM46.6657 9.93022C45.1578 10.5819 43.0497 12.8756 43.0497 14.5473C43.051 17.1672 43.0516 19.7837 43.0516 22.397C43.0516 22.4175 43.0593 22.4373 43.0733 22.4524C43.0873 22.4675 43.1064 22.4767 43.1269 22.4782C45.8275 22.6822 54.0007 23.1239 55.4728 20.4499C55.4867 20.424 55.5073 20.4022 55.5327 20.3866C55.558 20.3709 55.5873 20.3621 55.6175 20.3608C62.8772 20.1171 69.6376 17.0926 74.7654 11.9664C74.8962 11.8357 74.8717 11.7908 74.6921 11.8317C65.9047 13.8026 57.7692 11.9961 49.0354 9.83119C48.1953 9.62123 47.3988 9.61331 46.6657 9.93022Z" fill="url(#paint1_linear_25184_16851)"/>
<path d="M29.8859 24.4862C27.3042 24.2168 24.5224 24.9913 23.3573 27.4692C22.7709 28.721 22.7193 30.4264 23.391 31.6208C24.7364 34.0215 27.962 35.1723 30.3476 35.7843C30.3815 35.7929 30.4168 35.7938 30.4508 35.7869C30.4848 35.7801 30.5166 35.7656 30.5438 35.7447C31.8145 34.7609 33.2173 34.0314 34.7522 33.556C34.8711 33.519 34.8697 33.4867 34.7482 33.4589C32.7351 32.9994 26.7871 31.9575 26.8406 29.5093C26.8703 28.0872 28.3583 27.9069 29.4322 28.0436C29.4957 28.0514 29.5556 28.0775 29.6046 28.1189C30.9374 29.2386 32.4802 29.8646 34.2331 29.9966C36.0282 30.1333 37.7559 28.7666 36.8148 26.8195C36.1424 25.4251 34.9853 24.5833 33.3434 24.2941C32.3884 24.1257 31.0252 24.605 29.8859 24.4862ZM46.5829 24.3218C44.8789 24.4842 43.3632 25.7222 42.8817 27.3563C42.3349 29.2122 44.3935 30.0996 45.8855 29.961C47.2671 29.8329 48.4903 29.3931 49.555 28.6418C50.0358 28.3037 50.3891 28.1083 50.615 28.0555C51.7087 27.802 53.0759 28.2952 53.064 29.6044C53.0323 32.9836 40.9935 33.9462 38.6456 34.2057C36.4225 34.4513 33.8625 35.1822 32.0516 36.5291C27.7461 39.7319 31.0213 44.1925 34.5025 45.8821C34.5323 45.8963 34.5647 45.9038 34.5976 45.9042C34.6305 45.9045 34.6629 45.8977 34.6927 45.8841L37.5697 44.5431C37.6423 44.5101 37.6417 44.4778 37.5677 44.4461C36.1847 43.8697 33.6921 42.4693 33.2899 40.8906C32.5727 38.076 37.7421 37.2936 39.4876 37.157C43.7793 36.8262 56.4442 36.0893 56.9673 30.0481C57.135 28.1123 56.4831 26.6274 55.0116 25.5934C53.4028 24.4644 51.576 24.401 49.6738 24.4783C48.6396 24.5199 47.639 24.2188 46.5829 24.3218Z" fill="url(#paint2_linear_25184_16851)"/>
<path d="M34.2057 55.307C34.2374 55.3334 34.276 55.3497 34.3166 55.3539C34.3573 55.3582 34.398 55.3501 34.4335 55.3308L36.6011 54.176C36.691 54.1285 36.689 54.0849 36.5952 54.0453C35.1805 53.4649 34.487 51.9279 35.3588 50.5889C36.5813 48.7072 40.1656 47.8971 42.7374 47.0454C46.3693 45.845 52.0915 42.2659 49.0204 37.6488C48.9855 37.5968 48.9365 37.5559 48.8792 37.5309C48.822 37.506 48.7589 37.4981 48.6974 37.5081L44.9348 38.1321C44.8568 38.1453 44.8535 38.1697 44.9249 38.2054C46.187 38.8233 47.251 39.7721 46.4901 41.3032C45.0418 44.2169 39.6307 45.2687 37.2669 46.3046C34.5643 47.4871 31.2316 49.7986 32.6245 53.2807C32.9138 54.0044 33.4409 54.6798 34.2057 55.307Z" fill="url(#paint3_linear_25184_16851)"/>
<path d="M41.4065 38.6978C40.3776 38.5473 39.3545 38.5664 38.3374 38.7553C38.3119 38.7599 38.2888 38.7733 38.2721 38.7932C38.2555 38.8131 38.2463 38.8383 38.2463 38.8642V42.9267C38.2463 42.9628 38.2549 42.9983 38.2714 43.0303C38.288 43.0624 38.312 43.09 38.3414 43.1109C39.4113 43.8689 40.476 43.8735 41.5353 43.1248C41.5604 43.107 41.5809 43.0833 41.595 43.0558C41.6091 43.0282 41.6165 42.9975 41.6166 42.9663L41.6086 38.9296C41.6087 38.8733 41.5883 38.8189 41.5511 38.7764C41.514 38.7338 41.4627 38.7059 41.4065 38.6978ZM42.4983 48.8986C43.485 49.3938 44.7531 50.3861 44.868 51.5607C45.0166 53.1096 43.7327 54.0545 42.3913 54.3773C40.3802 54.8586 38.1056 55.0963 36.259 56.0293C33.6753 57.3365 33.3384 60.787 36.0271 62.2309C36.0582 62.2474 36.0927 62.2558 36.1277 62.2554C36.1627 62.2551 36.1969 62.246 36.2273 62.2289L37.8282 61.3416C37.9088 61.2967 37.9094 61.2511 37.8302 61.2049C36.7067 60.5513 35.8488 59.8065 36.4412 58.6042C36.9762 57.5188 38.6683 57.2375 39.8314 57.0256C42.8014 56.4828 46.564 56.2253 47.4596 52.6303C47.947 50.6753 46.8791 48.8907 45.288 47.7914C45.2623 47.7731 45.2325 47.7614 45.2011 47.7572C45.1696 47.7531 45.1376 47.7567 45.1077 47.7676L42.5062 48.7322C42.3768 48.7811 42.3741 48.8365 42.4983 48.8986Z" fill="url(#paint4_linear_25184_16851)"/>
<path d="M38.3392 53.0451C39.3916 53.4769 40.4473 53.4868 41.5063 53.0748C41.5372 53.0631 41.5639 53.0422 41.5826 53.015C41.6014 52.9877 41.6114 52.9554 41.6113 52.9223L41.6073 50.3057C41.6072 50.2705 41.5983 50.236 41.5813 50.2055C41.5643 50.1749 41.5398 50.1494 41.5103 50.1314C40.4196 49.4421 39.3639 49.4732 38.3431 50.2245C38.313 50.2472 38.2885 50.2766 38.2716 50.3103C38.2548 50.344 38.246 50.3811 38.2461 50.4186V52.9064C38.2462 52.9364 38.2551 52.9655 38.2717 52.9902C38.2883 53.0149 38.3118 53.034 38.3392 53.0451Z" fill="url(#paint5_linear_25184_16851)"/>
<path d="M34.9188 67.5771C35.426 72.115 42.977 73.1866 46.4028 73.3391C46.9272 73.3615 47.1583 73.1047 47.0963 72.5686C47.0861 72.4786 47.0456 72.3947 46.9816 72.3307C46.9175 72.2666 46.8336 72.2262 46.7436 72.216C43.8468 71.8813 40.95 71.4356 38.3921 69.9461C36.0561 68.5853 36.0521 65.8242 38.4971 64.6199C41.2591 63.2611 47.5639 62.2073 45.2239 57.4219C45.2144 57.4023 45.1985 57.3866 45.1789 57.3776C45.1594 57.3685 45.1374 57.3667 45.1169 57.3724L43.1474 57.9052C43.136 57.9083 43.1256 57.914 43.1168 57.9219C43.1081 57.9298 43.1014 57.9397 43.0971 57.9507C43.0929 57.9616 43.0913 57.9734 43.0924 57.9852C43.0936 57.9969 43.0975 58.0081 43.1038 58.0181C44.3818 59.9909 42.977 60.8367 41.4058 61.4864C38.7547 62.5797 34.5047 63.8989 34.9188 67.5771Z" fill="url(#paint6_linear_25184_16851)"/>
<path d="M38.3304 58.9716C37.8786 59.7025 38.9366 60.1204 39.4478 60.2927C40.1374 60.5265 42.0811 59.96 41.5838 58.9894C41.553 58.9293 41.501 58.8822 41.4371 58.8567C40.4544 58.4658 39.4703 58.4619 38.4849 58.8448C38.4207 58.8692 38.3664 58.9137 38.3304 58.9716ZM41.9543 64.9554C43.1035 65.8797 43.4793 66.9632 43.0817 68.2058C42.8855 68.8218 42.3287 69.3051 41.8889 69.8003C41.8805 69.81 41.8748 69.8218 41.8723 69.8344C41.8698 69.847 41.8706 69.86 41.8747 69.8721C41.8787 69.8841 41.8858 69.8948 41.8952 69.9031C41.9047 69.9113 41.9162 69.9168 41.9285 69.9191L43.153 70.1707C43.5361 70.2486 43.8399 70.1271 44.0644 69.8062C45.3774 67.9324 45.32 66.1267 43.892 64.3889C43.7375 64.2001 43.5473 64.1505 43.3214 64.2403L41.982 64.7692C41.9643 64.7762 41.9488 64.7878 41.937 64.8028C41.9251 64.8177 41.9174 64.8355 41.9146 64.8543C41.9118 64.8732 41.914 64.8924 41.921 64.9101C41.9279 64.9279 41.9394 64.9435 41.9543 64.9554ZM41.2152 68.2347C41.3362 68.1103 41.4315 67.9633 41.4957 67.8021C41.5598 67.6409 41.5916 67.4686 41.5892 67.2952C41.5868 67.1217 41.5502 66.9504 41.4815 66.791C41.4129 66.6317 41.3135 66.4874 41.1891 66.3665L40.8623 66.0489C40.6111 65.8047 40.2731 65.6702 39.9227 65.6751C39.5722 65.68 39.2381 65.8238 38.9937 66.0749L38.687 66.3902C38.566 66.5146 38.4707 66.6616 38.4065 66.8228C38.3424 66.984 38.3106 67.1563 38.313 67.3297C38.3155 67.5032 38.352 67.6745 38.4207 67.8339C38.4893 67.9932 38.5887 68.1375 38.7132 68.2584L39.0399 68.576C39.2911 68.8202 39.6291 68.9547 39.9796 68.9498C40.33 68.945 40.6641 68.8011 40.9085 68.55L41.2152 68.2347ZM33.1213 73.2844C33.2829 73.3818 33.4729 73.4216 33.6603 73.3973L37.1336 72.9476C37.2948 72.9278 37.3132 72.8658 37.1891 72.7615C36.6264 72.292 35.9765 71.8127 35.2038 71.9276C34.5129 72.0306 33.8492 72.1243 33.2125 72.2088C32.9655 72.2418 32.8274 72.3825 32.7984 72.6307C32.7667 72.9173 32.8743 73.1352 33.1213 73.2844ZM38.9287 76.8834C39.6816 77.9391 40.8645 77.5588 41.2113 76.3406C41.4266 75.5814 41.554 74.9297 41.5937 74.3857C41.5961 74.3555 41.5893 74.3252 41.574 74.299C41.5588 74.2728 41.5359 74.2519 41.5085 74.2391C40.457 73.7558 39.4076 73.7531 38.3601 74.2312C38.3333 74.2433 38.311 74.2635 38.2961 74.289C38.2812 74.3145 38.2745 74.3441 38.2769 74.3738C38.3284 75.1047 38.4354 76.1921 38.9287 76.8834Z" fill="url(#paint7_linear_25184_16851)"/>
<path d="M38.1562 10.0155C32.2478 7.33958 37.0506 0.502081 42.1982 3.07109C44.7225 4.33084 45.1782 7.44456 42.9769 9.2807C42.7193 9.49594 42.2913 9.75673 41.693 10.0631C41.668 10.0756 41.647 10.095 41.6323 10.1191C41.6176 10.1433 41.6098 10.1712 41.6097 10.1998V32.3246C41.6095 32.3506 41.6 32.3756 41.583 32.3953C41.5659 32.4149 41.5424 32.4277 41.5166 32.4315C40.4586 32.5728 39.4025 32.5656 38.3484 32.4097C38.3188 32.4055 38.2917 32.3905 38.272 32.3676C38.2524 32.3447 38.2415 32.3154 38.2414 32.2849V10.1483C38.2413 10.1203 38.2333 10.093 38.2182 10.0695C38.2031 10.046 38.1816 10.0273 38.1562 10.0155Z" fill="url(#paint8_linear_25184_16851)"/>
<path d="M5.08283 11.8139C13.4363 13.7214 21.653 12.2061 29.8004 10.0887C30.8994 9.80214 31.6807 9.67471 32.1443 9.7064C34.1951 9.84505 36.8461 12.6042 36.8501 14.7018C36.854 17.2424 36.854 19.7963 36.8501 22.3633C36.8502 22.3974 36.8373 22.4302 36.8142 22.4552C36.791 22.4802 36.7592 22.4955 36.7253 22.498C34.1554 22.6941 25.8951 23.1021 24.4507 20.4994C24.4367 20.4739 24.4164 20.4523 24.3918 20.4367C24.3672 20.4212 24.3391 20.4121 24.31 20.4103C16.7821 20.0023 10.3599 17.1599 5.04321 11.8832C4.97452 11.8146 4.98773 11.7915 5.08283 11.8139ZM43.0419 14.5473C43.0419 12.8756 45.15 10.5819 46.6578 9.93022C47.3909 9.61331 48.1875 9.62123 49.0276 9.83119C57.7614 11.9961 65.8969 13.8026 74.6843 11.8317C74.8639 11.7908 74.8884 11.8357 74.7576 11.9664C69.6298 17.0926 62.8694 20.1171 55.6097 20.3608C55.5795 20.3621 55.5502 20.3709 55.5249 20.3866C55.4995 20.4022 55.4789 20.424 55.465 20.4499C53.9929 23.1239 45.8197 22.6822 43.1191 22.4782C43.0986 22.4767 43.0795 22.4675 43.0655 22.4524C43.0515 22.4373 43.0438 22.4175 43.0438 22.397C43.0438 19.7837 43.0432 17.1672 43.0419 14.5473Z" fill="url(#paint9_linear_25184_16851)"/>
<path d="M29.8859 24.4901C31.0252 24.6089 32.3884 24.1296 33.3434 24.298C34.9853 24.5872 36.1424 25.429 36.8148 26.8234C37.7559 28.7705 36.0282 30.1372 34.2331 30.0005C32.4802 29.8685 30.9374 29.2425 29.6046 28.1228C29.5556 28.0814 29.4957 28.0553 29.4322 28.0475C28.3583 27.9108 26.8703 28.0911 26.8406 29.5132C26.7871 31.9614 32.7351 33.0033 34.7482 33.4628C34.8697 33.4906 34.8711 33.5229 34.7522 33.5599C33.2173 34.0353 31.8145 34.7648 30.5438 35.7486C30.5166 35.7695 30.4848 35.784 30.4508 35.7909C30.4168 35.7977 30.3815 35.7968 30.3476 35.7882C27.962 35.1762 24.7364 34.0254 23.391 31.6247C22.7193 30.4303 22.7709 28.7249 23.3573 27.4731C24.5224 24.9952 27.3042 24.2207 29.8859 24.4901ZM42.8817 27.3602C43.3632 25.7261 44.8789 24.4881 46.5829 24.3257C47.639 24.2227 48.6396 24.5238 49.6738 24.4822C51.576 24.4049 53.4028 24.4683 55.0116 25.5973C56.4831 26.6313 57.135 28.1162 56.9673 30.052C56.4442 36.0933 43.7793 36.8301 39.4876 37.1609C37.7421 37.2975 32.5727 38.0799 33.2899 40.8946C33.6921 42.4732 36.1847 43.8736 37.5677 44.45C37.6417 44.4817 37.6423 44.514 37.5697 44.547L34.6927 45.888C34.6629 45.9016 34.6305 45.9084 34.5976 45.9081C34.5647 45.9077 34.5323 45.9002 34.5025 45.886C31.0213 44.1964 27.7461 39.7358 32.0516 36.533C33.8625 35.1861 36.4225 34.4552 38.6456 34.2096C40.9935 33.9501 53.0323 32.9875 53.064 29.6083C53.0759 28.2991 51.7087 27.8059 50.615 28.0594C50.3891 28.1122 50.0358 28.3076 49.555 28.6457C48.4903 29.397 47.2671 29.8368 45.8855 29.9649C44.3935 30.1035 42.3349 29.2161 42.8817 27.3602Z" fill="url(#paint10_linear_25184_16851)"/>
<path d="M34.2057 55.307C33.4409 54.6798 32.9138 54.0044 32.6245 53.2807C31.2316 49.7986 34.5643 47.4871 37.2669 46.3046C39.6307 45.2687 45.0418 44.2169 46.4901 41.3032C47.251 39.7721 46.187 38.8233 44.9249 38.2054C44.8535 38.1697 44.8568 38.1453 44.9348 38.1321L48.6974 37.5081C48.7589 37.4981 48.822 37.506 48.8792 37.5309C48.9365 37.5559 48.9855 37.5968 49.0204 37.6488C52.0915 42.2659 46.3693 45.845 42.7374 47.0454C40.1656 47.8971 36.5813 48.7072 35.3588 50.5889C34.487 51.9279 35.1805 53.4649 36.5952 54.0453C36.689 54.0849 36.691 54.1285 36.6011 54.176L34.4335 55.3308C34.398 55.3501 34.3573 55.3582 34.3166 55.3539C34.276 55.3497 34.2374 55.3334 34.2057 55.307Z" fill="url(#paint11_linear_25184_16851)"/>
<path d="M41.4065 38.6978C41.4627 38.7059 41.514 38.7338 41.5511 38.7764C41.5883 38.8189 41.6087 38.8733 41.6086 38.9296L41.6166 42.9663C41.6165 42.9975 41.6091 43.0282 41.595 43.0558C41.5809 43.0833 41.5604 43.107 41.5353 43.1248C40.476 43.8735 39.4113 43.8689 38.3414 43.1109C38.312 43.09 38.288 43.0624 38.2714 43.0303C38.2549 42.9983 38.2463 42.9628 38.2463 42.9267V38.8642C38.2463 38.8383 38.2555 38.8131 38.2721 38.7932C38.2888 38.7733 38.3119 38.7599 38.3374 38.7553C39.3545 38.5664 40.3776 38.5473 41.4065 38.6978ZM42.4983 48.8986C42.3741 48.8365 42.3768 48.7811 42.5062 48.7322L45.1077 47.7676C45.1376 47.7567 45.1696 47.7531 45.2011 47.7572C45.2325 47.7614 45.2623 47.7731 45.288 47.7914C46.8791 48.8907 47.947 50.6753 47.4596 52.6303C46.564 56.2253 42.8014 56.4828 39.8314 57.0256C38.6683 57.2375 36.9762 57.5188 36.4412 58.6042C35.8488 59.8065 36.7067 60.5513 37.8302 61.2049C37.9094 61.2511 37.9088 61.2967 37.8282 61.3416L36.2273 62.2289C36.1969 62.246 36.1627 62.2551 36.1277 62.2554C36.0927 62.2558 36.0582 62.2474 36.0271 62.2309C33.3384 60.787 33.6753 57.3365 36.259 56.0293C38.1056 55.0963 40.3802 54.8586 42.3913 54.3773C43.7327 54.0545 45.0166 53.1096 44.868 51.5607C44.7531 50.3861 43.485 49.3938 42.4983 48.8986Z" fill="url(#paint12_linear_25184_16851)"/>
<path d="M38.3392 53.0451C38.3118 53.034 38.2883 53.0149 38.2717 52.9902C38.2551 52.9655 38.2462 52.9364 38.2461 52.9064V50.4186C38.246 50.3811 38.2548 50.344 38.2716 50.3103C38.2885 50.2766 38.313 50.2472 38.3431 50.2245C39.3639 49.4732 40.4196 49.4421 41.5103 50.1314C41.5398 50.1494 41.5643 50.1749 41.5813 50.2055C41.5983 50.236 41.6072 50.2705 41.6073 50.3057L41.6113 52.9223C41.6114 52.9554 41.6014 52.9877 41.5826 53.015C41.5639 53.0422 41.5372 53.0631 41.5063 53.0748C40.4473 53.4868 39.3916 53.4769 38.3392 53.0451Z" fill="url(#paint13_linear_25184_16851)"/>
<path d="M46.4028 73.3391C42.977 73.1866 35.426 72.115 34.9188 67.5771C34.5047 63.8989 38.7547 62.5797 41.4058 61.4864C42.977 60.8367 44.3818 59.9909 43.1038 58.0181C43.0975 58.0081 43.0936 57.9969 43.0924 57.9852C43.0913 57.9734 43.0929 57.9616 43.0971 57.9507C43.1014 57.9397 43.1081 57.9298 43.1168 57.9219C43.1256 57.914 43.136 57.9083 43.1474 57.9052L45.1169 57.3724C45.1374 57.3667 45.1594 57.3685 45.1789 57.3776C45.1985 57.3866 45.2144 57.4023 45.2239 57.4219C47.5639 62.2073 41.2591 63.2611 38.4971 64.6199C36.0521 65.8242 36.0561 68.5853 38.3921 69.9461C40.95 71.4356 43.8468 71.8813 46.7436 72.216C46.8336 72.2262 46.9175 72.2666 46.9816 72.3307C47.0456 72.3947 47.0861 72.4786 47.0963 72.5686C47.1583 73.1047 46.9272 73.3615 46.4028 73.3391Z" fill="url(#paint14_linear_25184_16851)"/>
<path d="M39.4419 60.2947C38.9307 60.1224 37.8727 59.7044 38.3244 58.9735C38.3605 58.9157 38.4148 58.8712 38.479 58.8468C39.4644 58.4638 40.4485 58.4678 41.4312 58.8586C41.495 58.8842 41.5471 58.9313 41.5778 58.9914C42.0752 59.9619 40.1314 60.5284 39.4419 60.2947ZM41.9484 64.9573C41.9335 64.9454 41.922 64.9298 41.9151 64.9121C41.9081 64.8944 41.9059 64.8751 41.9087 64.8563C41.9115 64.8374 41.9192 64.8197 41.931 64.8047C41.9429 64.7898 41.9584 64.7782 41.9761 64.7711L43.3155 64.2423C43.5414 64.1525 43.7316 64.202 43.8861 64.3908C45.314 66.1286 45.3715 67.9344 44.0585 69.8082C43.834 70.129 43.5302 70.2505 43.1471 70.1726L41.9226 69.921C41.9103 69.9188 41.8988 69.9133 41.8893 69.905C41.8799 69.8968 41.8728 69.8861 41.8687 69.874C41.8647 69.862 41.8639 69.849 41.8664 69.8364C41.8689 69.8238 41.8746 69.812 41.883 69.8022C42.3228 69.307 42.8796 68.8237 43.0758 68.2077C43.4734 66.9651 43.0976 65.8817 41.9484 64.9573Z" fill="url(#paint15_linear_25184_16851)"/>
<path d="M41.188 66.3674L40.8613 66.0498C40.3382 65.5412 39.5016 65.5529 38.9929 66.0759L38.6863 66.3911C38.1775 66.9141 38.1892 67.7504 38.7123 68.259L39.039 68.5765C39.5622 69.0851 40.3987 69.0734 40.9075 68.5504L41.2141 68.2352C41.7228 67.7122 41.7112 66.8759 41.188 66.3674Z" fill="url(#paint16_linear_25184_16851)"/>
<path d="M33.1135 73.2842C32.8665 73.135 32.7589 72.9171 32.7906 72.6306C32.8196 72.3823 32.9577 72.2417 33.2047 72.2087C33.8413 72.1242 34.5051 72.0304 35.1959 71.9274C35.9687 71.8125 36.6186 72.2919 37.1813 72.7613C37.3054 72.8656 37.2869 72.9277 37.1258 72.9475L33.6525 73.3971C33.4651 73.4214 33.2751 73.3816 33.1135 73.2842ZM38.9209 76.8832C38.4275 76.1919 38.3206 75.1045 38.269 74.3736C38.2667 74.344 38.2734 74.3144 38.2883 74.2888C38.3032 74.2633 38.3255 74.2431 38.3523 74.231C39.3997 73.753 40.4492 73.7556 41.5007 74.2389C41.5281 74.2517 41.551 74.2727 41.5662 74.2989C41.5814 74.3251 41.5883 74.3553 41.5858 74.3855C41.5462 74.9295 41.4188 75.5812 41.2034 76.3405C40.8567 77.5586 39.6738 77.9389 38.9209 76.8832Z" fill="url(#paint17_linear_25184_16851)"/>
<defs>
<linearGradient id="paint0_linear_25184_16851" x1="39.9116" y1="2.5" x2="39.9116" y2="32.5284" gradientUnits="userSpaceOnUse">
<stop stop-color="white"/>
<stop offset="1" stop-color="white" stop-opacity="0.6"/>
</linearGradient>
<linearGradient id="paint1_linear_25184_16851" x1="39.9279" y1="9.68164" x2="39.9279" y2="22.6457" gradientUnits="userSpaceOnUse">
<stop stop-color="white"/>
<stop offset="1" stop-color="white" stop-opacity="0.6"/>
</linearGradient>
<linearGradient id="paint2_linear_25184_16851" x1="39.9477" y1="24.2578" x2="39.9477" y2="45.9042" gradientUnits="userSpaceOnUse">
<stop stop-color="white"/>
<stop offset="1" stop-color="white" stop-opacity="0.6"/>
</linearGradient>
<linearGradient id="paint3_linear_25184_16851" x1="41.0959" y1="37.5039" x2="41.0959" y2="55.355" gradientUnits="userSpaceOnUse">
<stop stop-color="white"/>
<stop offset="1" stop-color="white" stop-opacity="0.6"/>
</linearGradient>
<linearGradient id="paint4_linear_25184_16851" x1="40.8693" y1="38.5977" x2="40.8693" y2="62.2554" gradientUnits="userSpaceOnUse">
<stop stop-color="white"/>
<stop offset="1" stop-color="white" stop-opacity="0.6"/>
</linearGradient>
<linearGradient id="paint5_linear_25184_16851" x1="39.9287" y1="49.6367" x2="39.9287" y2="53.3765" gradientUnits="userSpaceOnUse">
<stop stop-color="white"/>
<stop offset="1" stop-color="white" stop-opacity="0.6"/>
</linearGradient>
<linearGradient id="paint6_linear_25184_16851" x1="40.9984" y1="57.3691" x2="40.9984" y2="73.3404" gradientUnits="userSpaceOnUse">
<stop stop-color="white"/>
<stop offset="1" stop-color="white" stop-opacity="0.6"/>
</linearGradient>
<linearGradient id="paint7_linear_25184_16851" x1="38.9004" y1="58.5605" x2="38.9004" y2="77.4992" gradientUnits="userSpaceOnUse">
<stop stop-color="white"/>
<stop offset="1" stop-color="white" stop-opacity="0.6"/>
</linearGradient>
<linearGradient id="paint8_linear_25184_16851" x1="39.9116" y1="2.50391" x2="39.9116" y2="32.5323" gradientUnits="userSpaceOnUse">
<stop stop-color="white"/>
<stop offset="1" stop-color="white" stop-opacity="0.6"/>
</linearGradient>
<linearGradient id="paint9_linear_25184_16851" x1="39.9201" y1="9.68164" x2="39.9201" y2="22.6457" gradientUnits="userSpaceOnUse">
<stop stop-color="white"/>
<stop offset="1" stop-color="white" stop-opacity="0.6"/>
</linearGradient>
<linearGradient id="paint10_linear_25184_16851" x1="39.9477" y1="24.2617" x2="39.9477" y2="45.9081" gradientUnits="userSpaceOnUse">
<stop stop-color="white"/>
<stop offset="1" stop-color="white" stop-opacity="0.6"/>
</linearGradient>
<linearGradient id="paint11_linear_25184_16851" x1="41.0959" y1="37.5039" x2="41.0959" y2="55.355" gradientUnits="userSpaceOnUse">
<stop stop-color="white"/>
<stop offset="1" stop-color="white" stop-opacity="0.6"/>
</linearGradient>
<linearGradient id="paint12_linear_25184_16851" x1="40.8693" y1="38.5977" x2="40.8693" y2="62.2554" gradientUnits="userSpaceOnUse">
<stop stop-color="white"/>
<stop offset="1" stop-color="white" stop-opacity="0.6"/>
</linearGradient>
<linearGradient id="paint13_linear_25184_16851" x1="39.9287" y1="49.6367" x2="39.9287" y2="53.3765" gradientUnits="userSpaceOnUse">
<stop stop-color="white"/>
<stop offset="1" stop-color="white" stop-opacity="0.6"/>
</linearGradient>
<linearGradient id="paint14_linear_25184_16851" x1="40.9984" y1="57.3691" x2="40.9984" y2="73.3404" gradientUnits="userSpaceOnUse">
<stop stop-color="white"/>
<stop offset="1" stop-color="white" stop-opacity="0.6"/>
</linearGradient>
<linearGradient id="paint15_linear_25184_16851" x1="41.6084" y1="58.5625" x2="41.6084" y2="70.1954" gradientUnits="userSpaceOnUse">
<stop stop-color="white"/>
<stop offset="1" stop-color="white" stop-opacity="0.6"/>
</linearGradient>
<linearGradient id="paint16_linear_25184_16851" x1="41.0247" y1="66.2086" x2="38.8764" y2="68.4184" gradientUnits="userSpaceOnUse">
<stop stop-color="white"/>
<stop offset="1" stop-color="white" stop-opacity="0.6"/>
</linearGradient>
<linearGradient id="paint17_linear_25184_16851" x1="37.1857" y1="71.9102" x2="37.1857" y2="77.4991" gradientUnits="userSpaceOnUse">
<stop stop-color="white"/>
<stop offset="1" stop-color="white" stop-opacity="0.6"/>
</linearGradient>
</defs>
</svg>
