<svg width="80" height="80" viewBox="0 0 80 80" fill="none" xmlns="http://www.w3.org/2000/svg">
<g clip-path="url(#clip0_25184_16873)">
<path fill-rule="evenodd" clip-rule="evenodd" d="M64.7299 22.4324H67.0979C57.4019 7.20038 37.1859 2.70438 21.9459 12.4084C17.9139 14.9764 14.4899 18.4004 11.9219 22.4324H14.2899C15.7939 20.2884 17.5619 18.3364 19.5619 16.6324C22.8979 17.5364 26.2979 18.1764 29.7379 18.5524C29.3299 19.7764 28.9539 21.0804 28.6259 22.4324H30.6339C30.9699 21.1204 31.3379 19.8884 31.7379 18.7524C34.3379 18.9844 37.0179 19.1124 39.7299 19.1124C42.3299 19.1124 44.8659 19.0004 47.3299 18.8004C47.7219 19.9204 48.0819 21.1444 48.4179 22.4324H50.4019C50.0739 21.0964 49.7059 19.8164 49.3059 18.6084C52.7699 18.2484 56.1939 17.6164 59.5619 16.7204C61.5139 18.4084 63.2499 20.3204 64.7299 22.4324ZM30.4179 16.6644C27.4099 16.3524 24.4259 15.8324 21.4819 15.1204C25.4179 12.2404 29.9619 10.3204 34.7619 9.49638C33.2019 11.0804 31.6179 13.6004 30.4179 16.6644ZM39.7139 17.1604C37.2499 17.1604 34.8179 17.0564 32.4499 16.8564C34.4659 12.0244 37.0259 9.11238 39.5059 9.11238C41.9939 9.11238 44.5619 12.0324 46.5779 16.8884C44.3379 17.0644 42.0339 17.1604 39.7139 17.1604ZM48.6179 16.7044C47.4099 13.6244 45.8259 11.0884 44.2579 9.49638C49.1059 10.3284 53.6899 12.2804 57.6419 15.1924C54.6739 15.8964 51.6579 16.4004 48.6179 16.7044ZM46.605 34.272V25.752H39.757C37.653 25.456 35.541 25.288 33.413 25.248C25.525 25.248 20.125 28.136 20.125 34.512C20.125 42.3003 27.0888 43.1494 32.3746 43.7939C35.6077 44.1881 38.213 44.5058 38.213 46.288C38.213 47.728 36.773 48.536 33.213 48.536C30.525 48.536 28.181 47.968 27.173 47.432V45.616H20.325V54.136H27.173C29.397 54.432 31.637 54.6 33.885 54.64C44.253 54.64 47.709 50.416 47.709 45.248C47.709 37.6055 40.8627 36.7942 35.5553 36.1653C32.1959 35.7672 29.453 35.4421 29.453 33.504C29.453 32.296 30.693 31.36 33.885 31.36C36.365 31.36 38.749 31.928 39.757 32.464V34.28L46.605 34.272ZM48.3939 57.5684C48.0579 58.8804 47.6899 60.1124 47.2899 61.2484C44.6899 61.0164 42.0099 60.8884 39.3059 60.8884C36.7059 60.8884 34.1699 61.0004 31.7059 61.2004C31.3139 60.0804 30.9539 58.8564 30.6179 57.5684H28.6099C28.9379 58.9044 29.3059 60.1844 29.7059 61.3924C26.2419 61.7524 22.8099 62.3844 19.4499 63.2804C17.4979 61.6004 15.7619 59.6804 14.2819 57.5684H11.9219C21.6179 72.8004 41.8339 77.2964 57.0739 67.5924C61.1139 65.0244 64.5379 61.6004 67.1059 57.5604H64.7379C63.2339 59.7044 61.4659 61.6564 59.4659 63.3604C56.1299 62.4564 52.7299 61.8164 49.2899 61.4404C49.6979 60.2164 50.0739 58.9124 50.4019 57.5604L48.3939 57.5684ZM21.3779 64.8084C24.3459 64.1044 27.3619 63.6004 30.4019 63.2964C31.6099 66.3764 33.1939 68.9124 34.7619 70.5044C29.9219 69.6724 25.3379 67.7284 21.3779 64.8084ZM39.5139 70.8884C37.0259 70.8884 34.4579 67.9684 32.4419 63.1124C34.6899 62.9364 36.9939 62.8404 39.3139 62.8404C41.7779 62.8404 44.2099 62.9444 46.5779 63.1444C44.5539 67.9764 41.9859 70.8884 39.5139 70.8884ZM57.5379 64.8804C53.6019 67.7604 49.0579 69.6804 44.2579 70.5044C45.8179 68.9204 47.4019 66.4004 48.6019 63.3364C51.6179 63.6484 54.6019 64.1684 57.5379 64.8804ZM0 54.1925V47.1445H4.592V32.8565H0V25.8085H18.288V32.8565H13.688V47.1445H18.288V54.1925H0ZM48.9297 39.944C48.9297 30.512 55.4017 25.248 64.4657 25.248C73.5217 25.248 80.0017 30.52 80.0017 39.944C80.0017 49.368 73.5217 54.64 64.4657 54.64C55.4097 54.64 48.9297 49.376 48.9297 39.944ZM58.5937 39.944C58.5937 45.68 60.8737 47.96 64.4657 47.96C68.0577 47.96 70.3377 45.68 70.3377 39.944C70.3377 34.208 68.0577 31.928 64.4657 31.928C60.8737 31.928 58.5937 34.208 58.5937 39.944Z" fill="url(#paint0_linear_25184_16873)"/>
</g>
<defs>
<linearGradient id="paint0_linear_25184_16873" x1="40.0008" y1="7.28711" x2="40.0008" y2="72.7137" gradientUnits="userSpaceOnUse">
<stop stop-color="white"/>
<stop offset="1" stop-color="white" stop-opacity="0.6"/>
</linearGradient>
<clipPath id="clip0_25184_16873">
<rect width="80" height="80" fill="white"/>
</clipPath>
</defs>
</svg>
