<svg width="80" height="80" viewBox="0 0 80 80" fill="none" xmlns="http://www.w3.org/2000/svg">
<path fill-rule="evenodd" clip-rule="evenodd" d="M40.9061 5.95291L39.8581 5.08984L38.8101 5.95291C31.2337 12.1923 21.1742 12.1812 12.7858 12.172L12.7368 12.1719C12.433 12.1716 12.1314 12.1713 11.8322 12.1713H10.1836V42.5523C10.1836 53.9478 17.7208 62.0319 24.887 67.1506C28.4969 69.7292 32.0962 71.6183 34.7874 72.8621C36.4435 73.6276 38.1291 74.3248 39.8581 74.908C41.5871 74.3248 43.2726 73.6276 44.9288 72.8621C47.6199 71.6183 51.2193 69.7292 54.8292 67.1506C61.9954 62.0319 69.5326 53.9478 69.5326 42.5523V12.1713H67.884C67.5848 12.1713 67.283 12.1716 66.9791 12.1719L66.9305 12.172C58.542 12.1812 48.4825 12.1923 40.9061 5.95291ZM22.5937 33.5977H24.2301L24.93 31.5108H28.1117L28.8128 33.5977H30.4492L27.4657 25.1347H25.5731L22.5937 33.5977ZM27.6979 30.2794L26.5524 26.8703H26.4863L25.343 30.2794H27.6979ZM32.8642 33.5977V25.1347H31.3312V33.5977H32.8642ZM39.9901 27.9901H41.5356C41.4722 27.519 41.3372 27.1003 41.1306 26.7339C40.9268 26.3648 40.6664 26.0535 40.3496 25.8C40.0328 25.5438 39.6719 25.3496 39.2669 25.2174C38.862 25.0851 38.424 25.019 37.9529 25.019C37.2146 25.019 36.5534 25.1912 35.9694 25.5355C35.3853 25.8799 34.9239 26.3772 34.5851 27.0273C34.2462 27.6747 34.0768 28.4543 34.0768 29.3662C34.0768 30.2753 34.2448 31.0549 34.5809 31.7051C34.917 32.3552 35.3771 32.8525 35.9611 33.1968C36.5451 33.5412 37.2091 33.7134 37.9529 33.7134C38.457 33.7134 38.9157 33.639 39.3289 33.4902C39.7422 33.3387 40.103 33.1293 40.4116 32.8621C40.7201 32.5921 40.9695 32.2808 41.1595 31.9282C41.3524 31.5756 41.4777 31.1982 41.5356 30.796L39.9901 30.7877C39.9433 31.0356 39.8579 31.256 39.7339 31.4489C39.6127 31.6417 39.4625 31.8042 39.2835 31.9365C39.1072 32.0687 38.9074 32.1693 38.6843 32.2381C38.4639 32.3042 38.227 32.3373 37.9735 32.3373C37.5162 32.3373 37.1099 32.2257 36.7545 32.0026C36.4019 31.7767 36.1236 31.4434 35.9198 31.0026C35.7187 30.559 35.6181 30.0136 35.6181 29.3662C35.6181 28.7298 35.7187 28.1912 35.9198 27.7505C36.1209 27.3069 36.3991 26.9708 36.7545 26.7422C37.1099 26.5108 37.5176 26.3951 37.9777 26.3951C38.2366 26.3951 38.4777 26.4309 38.7008 26.5025C38.9267 26.5714 39.1278 26.6747 39.3041 26.8124C39.4804 26.9502 39.6278 27.1182 39.7463 27.3166C39.8648 27.5122 39.946 27.7367 39.9901 27.9901ZM45.8804 25.1347H42.7068V33.5977H44.2399V30.7381H45.8597C46.5126 30.7381 47.0622 30.6183 47.5085 30.3786C47.9548 30.1362 48.2923 29.8042 48.5209 29.3827C48.7496 28.9612 48.8639 28.4791 48.8639 27.9364C48.8639 27.3992 48.7496 26.9199 48.5209 26.4984C48.295 26.0741 47.9603 25.7408 47.5168 25.4984C47.076 25.2559 46.5305 25.1347 45.8804 25.1347ZM44.2399 29.4778H45.6531C46.0333 29.4778 46.3446 29.4116 46.587 29.2794C46.8294 29.1472 47.0085 28.9654 47.1242 28.7339C47.2427 28.5025 47.3019 28.2367 47.3019 27.9364C47.3019 27.6361 47.2427 27.3717 47.1242 27.143C47.0085 26.9144 46.8281 26.7367 46.5829 26.6099C46.3405 26.4805 46.0278 26.4157 45.6449 26.4157H44.2399V29.4778ZM48.47 33.5977H50.1064L50.8063 31.5108H53.988L54.6891 33.5977H56.3255L53.342 25.1347H51.4494L48.47 33.5977ZM53.5742 30.2794L52.4288 26.8703H52.3627L51.2193 30.2794H53.5742ZM27.8565 43.4436C27.818 43.0827 27.6554 42.8017 27.3689 42.6006C27.0852 42.3995 26.716 42.299 26.2615 42.299C25.9419 42.299 25.6678 42.3472 25.4391 42.4436C25.2105 42.54 25.0356 42.6709 24.9143 42.8362C24.7931 43.0015 24.7311 43.1902 24.7284 43.4023C24.7284 43.5786 24.7683 43.7315 24.8482 43.861C24.9309 43.9905 25.0424 44.1007 25.1829 44.1916C25.3234 44.2797 25.4791 44.3541 25.6499 44.4147C25.8207 44.4753 25.9929 44.5263 26.1664 44.5676L26.9598 44.766C27.2794 44.8403 27.5866 44.9409 27.8813 45.0676C28.1789 45.1943 28.4447 45.3541 28.6789 45.547C28.9158 45.7398 29.1031 45.9726 29.2409 46.2453C29.3786 46.518 29.4475 46.8376 29.4475 47.204C29.4475 47.6999 29.3207 48.1365 29.0673 48.5139C28.8138 48.8886 28.4475 49.182 27.9681 49.3941C27.4915 49.6035 26.9144 49.7082 26.2367 49.7082C25.5783 49.7082 25.0066 49.6063 24.5218 49.4024C24.0397 49.1985 23.6623 48.901 23.3895 48.5098C23.1195 48.1186 22.9735 47.642 22.9515 47.08H24.4598C24.4818 47.3748 24.5727 47.62 24.7325 47.8156C24.8923 48.0112 25.1003 48.1572 25.3565 48.2536C25.6154 48.35 25.9047 48.3982 26.2243 48.3982C26.5576 48.3982 26.8496 48.3487 27.1003 48.2495C27.3538 48.1475 27.5521 48.007 27.6954 47.828C27.8386 47.6462 27.9116 47.434 27.9144 47.1916C27.9116 46.9712 27.8469 46.7894 27.7202 46.6461C27.5934 46.5001 27.4158 46.3789 27.1871 46.2825C26.9612 46.1833 26.6967 46.0952 26.3937 46.018L25.4309 45.7701C24.7339 45.591 24.1829 45.3197 23.778 44.956C23.3757 44.5896 23.1746 44.1034 23.1746 43.4973C23.1746 42.9987 23.3096 42.5621 23.5796 42.1874C23.8523 41.8127 24.2229 41.5221 24.6912 41.3155C25.1595 41.1061 25.6898 41.0014 26.2821 41.0014C26.8827 41.0014 27.4089 41.1061 27.8607 41.3155C28.3152 41.5221 28.672 41.81 28.9309 42.1791C29.1899 42.5455 29.3235 42.967 29.3318 43.4436H27.8565ZM38.1436 45.3486C38.1436 46.2605 37.9728 47.0415 37.6312 47.6916C37.2923 48.339 36.8295 48.8349 36.2427 49.1792C35.6587 49.5236 34.9962 49.6958 34.2551 49.6958C33.514 49.6958 32.8501 49.5236 32.2633 49.1792C31.6793 48.8321 31.2165 48.3349 30.8749 47.6875C30.536 47.0373 30.3666 46.2577 30.3666 45.3486C30.3666 44.4367 30.536 43.6571 30.8749 43.0097C31.2165 42.3596 31.6793 41.8623 32.2633 41.518C32.8501 41.1736 33.514 41.0014 34.2551 41.0014C34.9962 41.0014 35.6587 41.1736 36.2427 41.518C36.8295 41.8623 37.2923 42.3596 37.6312 43.0097C37.9728 43.6571 38.1436 44.4367 38.1436 45.3486ZM36.6023 45.3486C36.6023 44.7067 36.5017 44.1654 36.3006 43.7246C36.1022 43.2811 35.8268 42.9464 35.4741 42.7205C35.1215 42.4918 34.7152 42.3775 34.2551 42.3775C33.795 42.3775 33.3887 42.4918 33.0361 42.7205C32.6835 42.9464 32.4066 43.2811 32.2055 43.7246C32.0071 44.1654 31.908 44.7067 31.908 45.3486C31.908 45.9905 32.0071 46.5332 32.2055 46.9767C32.4066 47.4175 32.6835 47.7522 33.0361 47.9809C33.3887 48.2068 33.795 48.3197 34.2551 48.3197C34.7152 48.3197 35.1215 48.2068 35.4741 47.9809C35.8268 47.7522 36.1022 47.4175 36.3006 46.9767C36.5017 46.5332 36.6023 45.9905 36.6023 45.3486ZM46.6042 43.9725H45.0587C45.0146 43.7191 44.9334 43.4946 44.8149 43.299C44.6964 43.1006 44.5491 42.9326 44.3727 42.7948C44.1964 42.6571 43.9953 42.5538 43.7694 42.4849C43.5463 42.4133 43.3052 42.3775 43.0463 42.3775C42.5862 42.3775 42.1785 42.4932 41.8231 42.7246C41.4677 42.9533 41.1895 43.2893 40.9884 43.7329C40.7873 44.1737 40.6867 44.7122 40.6867 45.3486C40.6867 45.996 40.7873 46.5415 40.9884 46.985C41.1923 47.4258 41.4705 47.7591 41.8231 47.985C42.1785 48.2082 42.5848 48.3197 43.0421 48.3197C43.2956 48.3197 43.5325 48.2867 43.7529 48.2206C43.976 48.1517 44.1758 48.0511 44.3521 47.9189C44.5312 47.7867 44.6813 47.6241 44.8025 47.4313C44.9265 47.2384 45.0119 47.0181 45.0587 46.7701L46.6042 46.7784C46.5463 47.1806 46.421 47.558 46.2281 47.9106C46.0381 48.2633 45.7887 48.5746 45.4802 48.8445C45.1717 49.1118 44.8108 49.3211 44.3975 49.4726C43.9843 49.6214 43.5256 49.6958 43.0215 49.6958C42.2777 49.6958 41.6138 49.5236 41.0297 49.1792C40.4457 48.8349 39.9856 48.3376 39.6495 47.6875C39.3134 47.0373 39.1454 46.2577 39.1454 45.3486C39.1454 44.4367 39.3148 43.6571 39.6537 43.0097C39.9925 42.3596 40.454 41.8623 41.038 41.518C41.622 41.1736 42.2832 41.0014 43.0215 41.0014C43.4926 41.0014 43.9306 41.0675 44.3356 41.1998C44.7405 41.332 45.1014 41.5262 45.4182 41.7824C45.735 42.0359 45.9954 42.3472 46.1992 42.7163C46.4058 43.0827 46.5408 43.5015 46.6042 43.9725ZM50.3464 49.5801V48.4726L53.2845 45.5924C53.5655 45.3087 53.7997 45.0566 53.987 44.8362C54.1743 44.6158 54.3148 44.4023 54.4085 44.1957C54.5022 43.9891 54.549 43.7687 54.549 43.5345C54.549 43.2673 54.4884 43.0387 54.3672 42.8486C54.2459 42.6557 54.0793 42.507 53.8672 42.4023C53.655 42.2976 53.414 42.2453 53.144 42.2453C52.8658 42.2453 52.622 42.3031 52.4126 42.4188C52.2032 42.5318 52.0407 42.6929 51.925 42.9023C51.812 43.1117 51.7556 43.361 51.7556 43.6502H50.2969C50.2969 43.113 50.4194 42.6461 50.6646 42.2494C50.9098 41.8527 51.2473 41.5455 51.677 41.3279C52.1096 41.1102 52.6054 41.0014 53.1647 41.0014C53.7322 41.0014 54.2308 41.1075 54.6606 41.3196C55.0903 41.5317 55.4237 41.8224 55.6606 42.1915C55.9002 42.5607 56.0201 42.9822 56.0201 43.456C56.0201 43.7728 55.9595 44.0841 55.8383 44.3899C55.717 44.6957 55.5035 45.0345 55.1978 45.4065C54.8947 45.7784 54.4691 46.2288 53.9209 46.7577L52.4622 48.2412V48.2991H56.1482V49.5801H50.3464ZM21.0938 37.4547H20.7301V38.182H21.0938H57.4574H57.821V37.4547H57.4574H21.0938Z" fill="url(#paint0_linear_25184_16842)"/>
<defs>
<linearGradient id="paint0_linear_25184_16842" x1="39.8581" y1="5.08984" x2="39.8581" y2="74.908" gradientUnits="userSpaceOnUse">
<stop stop-color="white"/>
<stop offset="1" stop-color="white" stop-opacity="0.6"/>
</linearGradient>
</defs>
</svg>
