<svg width="34" height="34" viewBox="0 0 34 34" fill="none" xmlns="http://www.w3.org/2000/svg">
<g clip-path="url(#clip0_19893_1164)">
<path d="M17 8.5C17.7563 8.4963 18.4975 8.28814 19.1452 7.89756L24.5639 13.3163C24.9773 12.7351 25.4851 12.2273 26.0663 11.8139L20.6476 6.39519C21.0381 5.74753 21.2463 5.00631 21.25 4.25C21.25 3.40943 21.0007 2.58774 20.5337 1.88883C20.0668 1.18992 19.403 0.645186 18.6264 0.323514C17.8498 0.00184144 16.9953 -0.0823227 16.1709 0.0816645C15.3464 0.245652 14.5892 0.650425 13.9948 1.2448C13.4004 1.83917 12.9957 2.59645 12.8317 3.42087C12.6677 4.24529 12.7518 5.09982 13.0735 5.87641C13.3952 6.65299 13.9399 7.31675 14.6388 7.78375C15.3377 8.25074 16.1594 8.5 17 8.5Z" fill="black"/>
<path d="M17 21.25C19.3472 21.25 21.25 19.3472 21.25 17C21.25 14.6528 19.3472 12.75 17 12.75C14.6528 12.75 12.75 14.6528 12.75 17C12.75 19.3472 14.6528 21.25 17 21.25Z" fill="black"/>
<path d="M7.89756 14.8547L13.3163 9.43597C12.7351 9.02263 12.2273 8.51481 11.8139 7.93359L6.39519 13.3523C5.74753 12.9618 5.00631 12.7536 4.25 12.7499C3.40943 12.7499 2.58774 12.9992 1.88883 13.4662C1.18992 13.9332 0.645186 14.5969 0.323514 15.3735C0.00184144 16.1501 -0.0823227 17.0046 0.0816645 17.829C0.245652 18.6535 0.650425 19.4107 1.2448 20.0051C1.83917 20.5995 2.59645 21.0043 3.42087 21.1682C4.24529 21.3322 5.09982 21.2481 5.87641 20.9264C6.65299 20.6047 7.31675 20.06 7.78375 19.3611C8.25074 18.6622 8.5 17.8405 8.5 16.9999C8.4963 16.2436 8.28814 15.5024 7.89756 14.8547Z" fill="black"/>
<path d="M16.9999 25.4999C16.2436 25.5036 15.5024 25.7118 14.8547 26.1023L9.43597 20.6836C9.02263 21.2648 8.51481 21.7726 7.93359 22.186L13.3523 27.6047C12.9618 28.2524 12.7536 28.9936 12.7499 29.7499C12.7499 30.5905 12.9992 31.4122 13.4662 32.1111C13.9332 32.81 14.5969 33.3547 15.3735 33.6764C16.1501 33.9981 17.0046 34.0822 17.829 33.9182C18.6535 33.7543 19.4107 33.3495 20.0051 32.7551C20.5995 32.1607 21.0043 31.4035 21.1682 30.579C21.3322 29.7546 21.2481 28.9001 20.9264 28.1235C20.6047 27.3469 20.06 26.6832 19.3611 26.2162C18.6622 25.7492 17.8405 25.4999 16.9999 25.4999Z" fill="black"/>
<path d="M29.7499 12.75C28.6227 12.75 27.5417 13.1978 26.7447 13.9948C25.9477 14.7918 25.4999 15.8728 25.4999 17C25.5036 17.7563 25.7118 18.4975 26.1023 19.1452L20.6836 24.5639C21.2648 24.9773 21.7726 25.4851 22.186 26.0663L27.6047 20.6476C28.2524 21.0381 28.9936 21.2463 29.7499 21.25C30.8771 21.25 31.9581 20.8022 32.7551 20.0052C33.5521 19.2082 33.9999 18.1272 33.9999 17C33.9999 15.8728 33.5521 14.7918 32.7551 13.9948C31.9581 13.1978 30.8771 12.75 29.7499 12.75Z" fill="black"/>
</g>
<defs>
<clipPath id="clip0_19893_1164">
<rect width="34" height="34" fill="white"/>
</clipPath>
</defs>
</svg>
