<svg width="26" height="26" viewBox="0 0 26 26" fill="none" xmlns="http://www.w3.org/2000/svg">
<g clip-path="url(#clip0_102_8305)">
<path d="M22.75 1.625H3.25C2.38805 1.625 1.5614 1.96741 0.951903 2.5769C0.34241 3.1864 0 4.01305 0 4.875L0 5.525L13 12.8375L26 5.6875V4.875C26 4.01305 25.6576 3.1864 25.0481 2.5769C24.4386 1.96741 23.612 1.625 22.75 1.625Z" fill="black"/>
<path d="M12.1875 16.0877L0 9.2627V21.1252C0 21.9872 0.34241 22.8138 0.951903 23.4233C1.5614 24.0328 2.38805 24.3752 3.25 24.3752H22.75C23.612 24.3752 24.4386 24.0328 25.0481 23.4233C25.6576 22.8138 26 21.9872 26 21.1252V9.2627L13.8125 16.0877C13.5564 16.2002 13.2797 16.2583 13 16.2583C12.7203 16.2583 12.4436 16.2002 12.1875 16.0877Z" fill="black"/>
</g>
<defs>
<clipPath id="clip0_102_8305">
<rect width="26" height="26" fill="white"/>
</clipPath>
</defs>
</svg>
