<svg width="32" height="32" viewBox="0 0 32 32" fill="none" xmlns="http://www.w3.org/2000/svg">
<path d="M18.7076 17.2924C18.52 17.105 18.2657 16.9996 18.0006 16.9996C17.7354 16.9996 17.4811 17.105 17.2936 17.2924L15.0006 19.5854L12.4146 16.9994L14.7076 14.7064C14.8897 14.5178 14.9905 14.2652 14.9882 14.003C14.986 13.7408 14.8808 13.49 14.6954 13.3046C14.51 13.1192 14.2592 13.014 13.997 13.0118C13.7348 13.0095 13.4822 13.1103 13.2936 13.2924L11.0006 15.5854L8.87557 13.4614C8.68804 13.274 8.43373 13.1686 8.16857 13.1686C7.90341 13.1686 7.6491 13.274 7.46157 13.4614L5.29457 15.6284C3.94743 16.9737 3.1374 18.7643 3.01644 20.6643C2.89549 22.5643 3.4719 24.4432 4.63757 25.9484L1.29357 29.2924C1.19806 29.3847 1.12188 29.495 1.06947 29.617C1.01706 29.739 0.989473 29.8702 0.988319 30.003C0.987165 30.1358 1.01247 30.2675 1.06275 30.3904C1.11303 30.5133 1.18728 30.6249 1.28117 30.7188C1.37507 30.8127 1.48672 30.887 1.60962 30.9373C1.73251 30.9875 1.86419 31.0128 1.99697 31.0117C2.12975 31.0105 2.26097 30.9829 2.38297 30.9305C2.50498 30.8781 2.61532 30.8019 2.70757 30.7064L6.05257 27.3624C7.55868 28.5256 9.43683 29.1004 11.3359 28.9795C13.235 28.8586 15.0251 28.0502 16.3716 26.7054L18.5396 24.5374C18.727 24.3499 18.8324 24.0956 18.8324 23.8304C18.8324 23.5653 18.727 23.311 18.5396 23.1234L16.4146 20.9994L18.7076 18.7064C18.895 18.5189 19.0004 18.2646 19.0004 17.9994C19.0004 17.7343 18.895 17.48 18.7076 17.2924Z" fill="black"/>
<path d="M30.7068 1.29279C30.5192 1.10532 30.2649 1 29.9998 1C29.7346 1 29.4803 1.10532 29.2928 1.29279L25.9478 4.63679C24.4409 3.47551 22.5631 2.90184 20.6646 3.02272C18.766 3.1436 16.9762 3.95078 15.6288 5.29379L13.4608 7.46179C13.2733 7.64931 13.168 7.90362 13.168 8.16879C13.168 8.43395 13.2733 8.68826 13.4608 8.87579L23.1248 18.5378C23.3123 18.7253 23.5666 18.8306 23.8318 18.8306C24.0969 18.8306 24.3512 18.7253 24.5388 18.5378L26.7058 16.3708C28.0529 15.0255 28.8629 13.2349 28.9839 11.3349C29.1048 9.43491 28.5284 7.55606 27.3628 6.05079L30.7068 2.70679C30.8942 2.51926 30.9995 2.26495 30.9995 1.99979C30.9995 1.73462 30.8942 1.48031 30.7068 1.29279Z" fill="black"/>
</svg>
