<svg width="16" height="16" viewBox="0 0 16 16" fill="none" xmlns="http://www.w3.org/2000/svg">
<path d="M4.81745 2.09651C4.78697 2.06592 4.75074 2.04165 4.71086 2.02509C4.67098 2.00853 4.62821 2 4.58503 2C4.54184 2 4.49908 2.00853 4.4592 2.02509C4.41931 2.04165 4.38309 2.06592 4.35261 2.09651L2.61135 3.82764L1.99065 3.2228C1.96017 3.19221 1.92394 3.16794 1.88406 3.15138C1.84418 3.13482 1.80141 3.12629 1.75823 3.12629C1.71504 3.12629 1.67228 3.13482 1.6324 3.15138C1.59251 3.16794 1.55629 3.19221 1.52581 3.2228L1.09651 3.65264C1.06592 3.68313 1.04165 3.71935 1.02509 3.75923C1.00853 3.79912 1 3.84188 1 3.88507C1 3.92825 1.00853 3.97101 1.02509 4.0109C1.04165 4.05078 1.06592 4.087 1.09651 4.11749L2.3978 5.41358C2.46275 5.47533 2.54894 5.50975 2.63856 5.50975C2.72818 5.50975 2.81437 5.47533 2.87932 5.41358L3.30561 4.98647L5.27983 3.01253C5.34135 2.95097 5.3761 2.86763 5.37656 2.78061C5.37702 2.69359 5.34315 2.60989 5.28229 2.54768L4.81745 2.09651ZM4.81745 6.44937C4.78697 6.41878 4.75074 6.3945 4.71086 6.37794C4.67098 6.36138 4.62821 6.35286 4.58503 6.35286C4.54184 6.35286 4.49908 6.36138 4.4592 6.37794C4.41931 6.3945 4.38309 6.41878 4.35261 6.44937L2.61135 8.19171L1.99065 7.58741C1.96017 7.55682 1.92394 7.53255 1.88406 7.51599C1.84418 7.49943 1.80141 7.4909 1.75823 7.4909C1.71504 7.4909 1.67228 7.49943 1.6324 7.51599C1.59251 7.53255 1.55629 7.55682 1.52581 7.58741L1.09651 8.01644C1.06592 8.04692 1.04165 8.08314 1.02509 8.12303C1.00853 8.16291 1 8.20567 1 8.24886C1 8.29205 1.00853 8.33481 1.02509 8.37469C1.04165 8.41458 1.06592 8.4508 1.09651 8.48128L2.39452 9.78011C2.45943 9.84184 2.54557 9.87626 2.63514 9.87626C2.72471 9.87626 2.81086 9.84184 2.87577 9.78011L3.30507 9.35109L5.27929 7.37632C5.34056 7.31519 5.3752 7.23232 5.37566 7.14577C5.37613 7.05922 5.34237 6.97599 5.28175 6.91421L4.81745 6.44937ZM2.74999 11.1883C2.02565 11.1883 1.42135 11.7762 1.42135 12.5008C1.42135 13.2254 2.0262 13.8133 2.74999 13.8133C3.09808 13.8133 3.43192 13.675 3.67807 13.4289C3.92421 13.1828 4.06249 12.8489 4.06249 12.5008C4.06249 12.1527 3.92421 11.8189 3.67807 11.5727C3.43192 11.3266 3.09808 11.1883 2.74999 11.1883ZM14.5625 11.6258H6.68749C6.57146 11.6258 6.46018 11.6719 6.37813 11.754C6.29608 11.836 6.24999 11.9473 6.24999 12.0633V12.9383C6.24999 13.0543 6.29608 13.1656 6.37813 13.2477C6.46018 13.3297 6.57146 13.3758 6.68749 13.3758H14.5625C14.6785 13.3758 14.7898 13.3297 14.8719 13.2477C14.9539 13.1656 15 13.0543 15 12.9383V12.0633C15 11.9473 14.9539 11.836 14.8719 11.754C14.7898 11.6719 14.6785 11.6258 14.5625 11.6258ZM14.5625 2.87581H6.68749C6.57146 2.87581 6.46018 2.9219 6.37813 3.00395C6.29608 3.08599 6.24999 3.19727 6.24999 3.31331V4.18831C6.24999 4.30434 6.29608 4.41562 6.37813 4.49767C6.46018 4.57971 6.57146 4.62581 6.68749 4.62581H14.5625C14.6785 4.62581 14.7898 4.57971 14.8719 4.49767C14.9539 4.41562 15 4.30434 15 4.18831V3.31331C15 3.19727 14.9539 3.08599 14.8719 3.00395C14.7898 2.9219 14.6785 2.87581 14.5625 2.87581ZM14.5625 7.25081H6.68749C6.57146 7.25081 6.46018 7.29691 6.37813 7.37895C6.29608 7.461 6.24999 7.57228 6.24999 7.68831V8.56331C6.24999 8.67935 6.29608 8.79063 6.37813 8.87267C6.46018 8.95472 6.57146 9.00081 6.68749 9.00081H14.5625C14.6785 9.00081 14.7898 8.95472 14.8719 8.87267C14.9539 8.79063 15 8.67935 15 8.56331V7.68831C15 7.57228 14.9539 7.461 14.8719 7.37895C14.7898 7.29691 14.6785 7.25081 14.5625 7.25081Z" fill="currentColor"/>
</svg>
