<svg width="14" height="14" viewBox="0 0 14 14" fill="none" xmlns="http://www.w3.org/2000/svg">
<path d="M12.3375 10.4125L10.3688 8.44375C10.7625 7.74375 10.9375 6.95625 10.9375 6.125C10.9375 3.45625 8.79375 1.3125 6.125 1.3125C3.45625 1.3125 1.3125 3.45625 1.3125 6.125C1.3125 8.79375 3.45625 10.9375 6.125 10.9375C6.95625 10.9375 7.74375 10.7188 8.44375 10.3688L10.4125 12.3375C10.675 12.6 11.025 12.7313 11.375 12.7313C11.725 12.7313 12.075 12.6 12.3375 12.3375C12.8625 11.8125 12.8625 10.9375 12.3375 10.4125ZM9.1875 6.5625H8.26875C8.225 6.825 8.09375 7.0875 7.9625 7.35L8.61875 8.00625C8.79375 8.18125 8.79375 8.44375 8.61875 8.61875C8.53125 8.70625 8.44375 8.75 8.3125 8.75C8.18125 8.75 8.09375 8.70625 8.00625 8.61875L7.35 7.9625C7 8.18125 6.5625 8.3125 6.125 8.3125C5.6875 8.3125 5.25 8.18125 4.9 7.9625L4.24375 8.61875C4.15625 8.70625 4.06875 8.75 3.9375 8.75C3.80625 8.75 3.71875 8.70625 3.63125 8.61875C3.45625 8.44375 3.45625 8.18125 3.63125 8.00625L4.2875 7.35C4.15625 7.13125 4.025 6.86875 3.98125 6.5625H3.0625C2.8 6.5625 2.625 6.3875 2.625 6.125C2.625 5.8625 2.8 5.6875 3.0625 5.6875H3.98125C4.025 5.425 4.15625 5.1625 4.2875 4.9L3.63125 4.24375C3.45625 4.06875 3.45625 3.80625 3.63125 3.63125C3.80625 3.45625 4.06875 3.45625 4.24375 3.63125L4.9 4.2875C5.03125 4.2 5.11875 4.15625 5.25 4.1125C5.25 4.06875 5.25 3.98125 5.25 3.9375C5.25 3.45625 5.64375 3.0625 6.125 3.0625C6.60625 3.0625 7 3.45625 7 3.9375C7 3.98125 7 4.06875 7 4.1125C7.13125 4.15625 7.21875 4.24375 7.35 4.2875L8.00625 3.63125C8.18125 3.45625 8.44375 3.45625 8.61875 3.63125C8.79375 3.80625 8.79375 4.06875 8.61875 4.24375L7.9625 4.9C8.09375 5.11875 8.225 5.38125 8.26875 5.6875H9.1875C9.45 5.6875 9.625 5.8625 9.625 6.125C9.625 6.3875 9.45 6.5625 9.1875 6.5625Z" fill="currentColor"/>
</svg>
