<svg width="84" height="24" viewBox="0 0 84 24" fill="none" xmlns="http://www.w3.org/2000/svg">
<path fill-rule="evenodd" clip-rule="evenodd" d="M18.48 9.61931C18.48 10.2646 17.6966 10.584 17.2454 10.1228L8.00675 0.680439C9.25596 0.239752 10.6 0 12 0C14.3869 0 16.611 0.69688 18.48 1.89828V9.61931ZM21.84 5.12982V9.61931C21.84 13.2757 17.4008 15.0862 14.8437 12.4727L4.90866 2.31846C1.93227 4.50223 0 8.02546 0 12C0 14.5553 0.798671 16.924 2.16 18.8702V14.4047C2.16 10.7483 6.59919 8.93783 9.15629 11.5513L19.0777 21.6916C22.0618 19.5086 24 15.9806 24 12C24 9.44473 23.2013 7.076 21.84 5.12982ZM6.75464 13.9012L15.9758 23.3257C14.7315 23.7625 13.3935 24 12 24C9.61311 24 7.38899 23.3031 5.52 22.1017V14.4047C5.52 13.7594 6.30339 13.44 6.75464 13.9012Z" fill="url(#paint0_linear_1318_1559)"/>
<path d="M38.9846 17.8658V11.2753C38.9846 10.1379 38.7118 9.27317 38.166 8.68111C37.6202 8.08905 36.7626 7.79302 35.593 7.79302C34.7978 7.79302 34.1662 7.87093 33.6984 8.02673C33.2306 8.16696 32.9343 8.26823 32.8096 8.33055V17.8658H30.4004V6.78808C30.4628 6.75692 30.6343 6.68681 30.915 6.57774C31.1957 6.46868 31.5699 6.35183 32.0377 6.22718C32.5055 6.10254 33.0513 5.99347 33.675 5.89999C34.2988 5.80651 34.9849 5.75977 35.7334 5.75977C36.591 5.75977 37.3707 5.87662 38.0724 6.11033C38.7741 6.32845 39.3667 6.64786 39.8501 7.06853C40.3491 7.4892 40.7311 7.99557 40.9962 8.58763C41.2613 9.17969 41.3938 9.84965 41.3938 10.5975V17.8658H38.9846Z" fill="white"/>
<path d="M57.061 11.9998C57.061 12.8879 56.905 13.7136 56.5932 14.4771C56.2969 15.2405 55.8759 15.9027 55.3301 16.4636C54.7843 17.0089 54.1294 17.4452 53.3653 17.7724C52.6012 18.084 51.7592 18.2398 50.8392 18.2398C49.9191 18.2398 49.0693 18.084 48.2896 17.7724C47.5255 17.4452 46.8706 17.0089 46.3248 16.4636C45.779 15.9027 45.3502 15.2405 45.0384 14.4771C44.7421 13.7136 44.5939 12.8879 44.5939 11.9998C44.5939 11.1117 44.7421 10.2859 45.0384 9.52246C45.3502 8.75902 45.779 8.10463 46.3248 7.55932C46.8706 6.99842 47.5255 6.56216 48.2896 6.25055C49.0693 5.92336 49.9191 5.75977 50.8392 5.75977C51.7592 5.75977 52.6012 5.92336 53.3653 6.25055C54.1294 6.56216 54.7843 6.99842 55.3301 7.55932C55.8759 8.10463 56.2969 8.75902 56.5932 9.52246C56.905 10.2859 57.061 11.1117 57.061 11.9998ZM54.5582 11.9998C54.5582 11.3765 54.4725 10.8079 54.3009 10.2937C54.1294 9.76396 53.8799 9.31213 53.5524 8.93819C53.2406 8.54868 52.8507 8.25265 52.3829 8.0501C51.9307 7.83198 51.4161 7.72291 50.8392 7.72291C50.2466 7.72291 49.7164 7.83198 49.2486 8.0501C48.7964 8.25265 48.4066 8.54868 48.0791 8.93819C47.7672 9.31213 47.5255 9.76396 47.354 10.2937C47.1825 10.8079 47.0967 11.3765 47.0967 11.9998C47.0967 12.623 47.1825 13.1995 47.354 13.7292C47.5255 14.2434 47.7672 14.6952 48.0791 15.0847C48.4066 15.4586 48.7964 15.7547 49.2486 15.9728C49.7164 16.1753 50.2466 16.2766 50.8392 16.2766C51.4161 16.2766 51.9307 16.1753 52.3829 15.9728C52.8507 15.7547 53.2406 15.4586 53.5524 15.0847C53.8799 14.6952 54.1294 14.2434 54.3009 13.7292C54.4725 13.1995 54.5582 12.623 54.5582 11.9998Z" fill="white"/>
<path d="M71.0608 6.64786C70.9673 6.99063 70.8035 7.45025 70.5696 8.02673C70.3513 8.58763 70.094 9.21864 69.7977 9.91977C69.5015 10.6209 69.174 11.361 68.8154 12.14C68.4723 12.9034 68.1214 13.6513 67.7628 14.3836C67.4197 15.1003 67.0845 15.778 66.757 16.4168C66.4451 17.0401 66.1722 17.562 65.9383 17.9827H63.4356C63.1549 17.4841 62.8586 16.9388 62.5467 16.3467C62.2505 15.7391 61.9464 15.1315 61.6345 14.5238C61.3382 13.9006 61.0498 13.2852 60.7691 12.6775C60.4884 12.0699 60.2233 11.509 59.9738 10.9948C59.7399 10.4651 59.5294 9.99767 59.3423 9.59257C59.1707 9.18748 59.0382 8.87587 58.9446 8.65774C58.8511 8.43962 58.7575 8.20591 58.664 7.95662C58.5704 7.70733 58.5236 7.47362 58.5236 7.2555C58.5236 6.97505 58.6172 6.71797 58.8043 6.48426C58.9914 6.25055 59.3111 6.1337 59.7633 6.1337C60.0752 6.1337 60.3169 6.16486 60.4884 6.22718C60.6599 6.2895 60.7535 6.32845 60.7691 6.34403C61.0342 7.07632 61.3382 7.87872 61.6813 8.75123C62.04 9.62374 62.3986 10.4885 62.7573 11.3454C63.1315 12.1867 63.4902 12.9969 63.8332 13.7759C64.1763 14.5394 64.4803 15.186 64.7454 15.7157C64.9326 15.3574 65.1743 14.851 65.4705 14.1966C65.7824 13.5267 66.1021 12.7944 66.4295 11.9998C66.7726 11.2052 67.1157 10.3872 67.4587 9.54583C67.8018 8.70448 68.1059 7.93325 68.3709 7.23213C68.4957 6.88935 68.6516 6.62448 68.8387 6.43752C69.0259 6.23497 69.3377 6.1337 69.7744 6.1337C70.1486 6.1337 70.4449 6.20381 70.6632 6.34403C70.8971 6.48426 71.0296 6.58553 71.0608 6.64786Z" fill="white"/>
<path d="M81.5112 7.23213C81.5112 6.85819 81.6203 6.58553 81.8387 6.41415C82.057 6.22718 82.3688 6.1337 82.7743 6.1337C83.0394 6.1337 83.2733 6.16486 83.476 6.22718C83.6943 6.2895 83.8424 6.33625 83.9204 6.36741V17.8658C83.8112 17.897 83.6163 17.9282 83.3356 17.9593C83.0705 17.9905 82.7431 18.0216 82.3532 18.0528C81.9634 18.0995 81.5346 18.1307 81.0668 18.1463C80.599 18.1774 80.1234 18.193 79.64 18.193C78.2209 18.193 77.067 18.0216 76.1782 17.6789C75.305 17.3361 74.611 16.8375 74.0965 16.1831C73.4571 15.3574 73.1374 14.2589 73.1374 12.8879V7.23213C73.1374 6.85819 73.2466 6.58553 73.4649 6.41415C73.6832 6.22718 73.9951 6.1337 74.4005 6.1337C74.6656 6.1337 74.8995 6.16486 75.1022 6.22718C75.3205 6.2895 75.4687 6.33625 75.5467 6.36741V12.6308C75.5467 13.8149 75.8429 14.703 76.4355 15.295C77.0436 15.8871 78.065 16.1831 79.4996 16.1831C80.0454 16.1831 80.482 16.1676 80.8095 16.1364C81.1525 16.0897 81.3864 16.0507 81.5112 16.0195V7.23213Z" fill="white"/>
<defs>
<linearGradient id="paint0_linear_1318_1559" x1="24" y1="0" x2="2.86102e-06" y2="24" gradientUnits="userSpaceOnUse">
<stop offset="0.231667" stop-color="#FF884D"/>
<stop offset="0.801667" stop-color="#E300BD"/>
</linearGradient>
</defs>
</svg>
