<svg width="32" height="32" viewBox="0 0 32 32" fill="none" xmlns="http://www.w3.org/2000/svg">
<g clip-path="url(#clip0_6_4)">
<path fill-rule="evenodd" clip-rule="evenodd" d="M24.64 12.826C24.64 13.686 23.596 14.112 22.994 13.497L10.676 0.90701C12.3863 0.304692 14.1867 -0.00202408 16 1.00515e-05C19.183 1.00515e-05 22.148 0.93001 24.64 2.53101V12.826ZM29.12 6.84001V12.826C29.12 17.701 23.201 20.115 19.792 16.63L6.545 3.09101C2.576 6.00301 0 10.701 0 16C0 19.407 1.065 22.565 2.88 25.16V19.206C2.88 14.331 8.799 11.917 12.208 15.402L25.437 28.922C29.416 26.012 32 21.308 32 16C32 12.593 30.935 9.43501 29.12 6.84001ZM9.006 18.535L21.301 31.1C19.642 31.683 17.858 32 16 32C12.818 32 9.852 31.07 7.36 29.469V19.206C7.36 18.346 8.405 17.92 9.006 18.535Z" fill="url(#paint0_radial_6_4)"/>
<path fill-rule="evenodd" clip-rule="evenodd" d="M24.64 12.826C24.64 13.686 23.596 14.112 22.994 13.497L10.676 0.90701C12.3863 0.304692 14.1867 -0.00202408 16 1.00515e-05C19.183 1.00515e-05 22.148 0.93001 24.64 2.53101V12.826ZM29.12 6.84001V12.826C29.12 17.701 23.201 20.115 19.792 16.63L6.545 3.09101C2.576 6.00301 0 10.701 0 16C0 19.407 1.065 22.565 2.88 25.16V19.206C2.88 14.331 8.799 11.917 12.208 15.402L25.437 28.922C29.416 26.012 32 21.308 32 16C32 12.593 30.935 9.43501 29.12 6.84001ZM9.006 18.535L21.301 31.1C19.642 31.683 17.858 32 16 32C12.818 32 9.852 31.07 7.36 29.469V19.206C7.36 18.346 8.405 17.92 9.006 18.535Z" fill="url(#paint1_linear_6_4)"/>
<path fill-rule="evenodd" clip-rule="evenodd" d="M24.64 12.826C24.64 13.686 23.596 14.112 22.994 13.497L10.676 0.90701C12.3863 0.304692 14.1867 -0.00202408 16 1.00515e-05C19.183 1.00515e-05 22.148 0.93001 24.64 2.53101V12.826ZM29.12 6.84001V12.826C29.12 17.701 23.201 20.115 19.792 16.63L6.545 3.09101C2.576 6.00301 0 10.701 0 16C0 19.407 1.065 22.565 2.88 25.16V19.206C2.88 14.331 8.799 11.917 12.208 15.402L25.437 28.922C29.416 26.012 32 21.308 32 16C32 12.593 30.935 9.43501 29.12 6.84001ZM9.006 18.535L21.301 31.1C19.642 31.683 17.858 32 16 32C12.818 32 9.852 31.07 7.36 29.469V19.206C7.36 18.346 8.405 17.92 9.006 18.535Z" fill="url(#paint2_linear_6_4)"/>
</g>
<defs>
<radialGradient id="paint0_radial_6_4" cx="0" cy="0" r="1" gradientUnits="userSpaceOnUse" gradientTransform="translate(15.9997 16.0007) rotate(135) scale(22.6274)">
<stop offset="0.34" stop-color="#FF006A"/>
<stop offset="0.613" stop-color="#E300BD"/>
<stop offset="0.767" stop-color="#FF4CE1"/>
</radialGradient>
<linearGradient id="paint1_linear_6_4" x1="19.733" y1="-1.06699" x2="16" y2="32" gradientUnits="userSpaceOnUse">
<stop offset="0.085" stop-color="#FFBA33"/>
<stop offset="0.553" stop-color="#FF006A" stop-opacity="0"/>
</linearGradient>
<linearGradient id="paint2_linear_6_4" x1="16" y1="1.00515e-05" x2="16" y2="32" gradientUnits="userSpaceOnUse">
<stop offset="0.547" stop-opacity="0"/>
<stop offset="1" stop-opacity="0.6"/>
</linearGradient>
<clipPath id="clip0_6_4">
<rect width="32" height="32" fill="white"/>
</clipPath>
</defs>
</svg>
