<svg width="81" height="24" viewBox="0 0 81 24" fill="none" xmlns="http://www.w3.org/2000/svg">
    <path
        d="M39.3066 19.4773V12.8785C39.3066 11.7397 39.0336 10.8739 38.4876 10.2811C37.9416 9.68828 37.0835 9.39188 35.9136 9.39188C35.118 9.39188 34.4862 9.46988 34.0182 9.62588C33.5501 9.76628 33.2538 9.86768 33.1289 9.93008V19.4773H30.7188V8.38568C30.7812 8.35448 30.9528 8.28428 31.2336 8.17508C31.5144 8.06588 31.8888 7.94888 32.3568 7.82408C32.8248 7.69928 33.3708 7.59008 33.9948 7.49648C34.6188 7.40288 35.3052 7.35608 36.054 7.35608C36.912 7.35608 37.692 7.47308 38.394 7.70708C39.096 7.92548 39.6888 8.24528 40.1724 8.66648C40.6716 9.08768 41.0538 9.59468 41.319 10.1875C41.5842 10.7803 41.7168 11.4511 41.7168 12.1999V19.4773H39.3066Z"
        fill="white" />
    <path
        d="M57.3904 13.6039C57.3904 14.4931 57.2344 15.3199 56.9224 16.0843C56.626 16.8487 56.2048 17.5117 55.6588 18.0733C55.1128 18.6193 54.4576 19.0561 53.6932 19.3837C52.9288 19.6957 52.0864 19.8517 51.166 19.8517C50.2456 19.8517 49.3954 19.6957 48.6154 19.3837C47.851 19.0561 47.1958 18.6193 46.6498 18.0733C46.1038 17.5117 45.6748 16.8487 45.3628 16.0843C45.0664 15.3199 44.9182 14.4931 44.9182 13.6039C44.9182 12.7147 45.0664 11.8879 45.3628 11.1235C45.6748 10.3591 46.1038 9.70388 46.6498 9.15788C47.1958 8.59628 47.851 8.15948 48.6154 7.84748C49.3954 7.51988 50.2456 7.35608 51.166 7.35608C52.0864 7.35608 52.9288 7.51988 53.6932 7.84748C54.4576 8.15948 55.1128 8.59628 55.6588 9.15788C56.2048 9.70388 56.626 10.3591 56.9224 11.1235C57.2344 11.8879 57.3904 12.7147 57.3904 13.6039ZM54.8866 13.6039C54.8866 12.9799 54.8008 12.4105 54.6292 11.8957C54.4576 11.3653 54.208 10.9129 53.8804 10.5385C53.5684 10.1485 53.1784 9.85208 52.7104 9.64928C52.258 9.43088 51.7432 9.32168 51.166 9.32168C50.5732 9.32168 50.0428 9.43088 49.5748 9.64928C49.1224 9.85208 48.7324 10.1485 48.4048 10.5385C48.0928 10.9129 47.851 11.3653 47.6794 11.8957C47.5078 12.4105 47.422 12.9799 47.422 13.6039C47.422 14.2279 47.5078 14.8051 47.6794 15.3355C47.851 15.8503 48.0928 16.3027 48.4048 16.6927C48.7324 17.0671 49.1224 17.3635 49.5748 17.5819C50.0428 17.7847 50.5732 17.8861 51.166 17.8861C51.7432 17.8861 52.258 17.7847 52.7104 17.5819C53.1784 17.3635 53.5684 17.0671 53.8804 16.6927C54.208 16.3027 54.4576 15.8503 54.6292 15.3355C54.8008 14.8051 54.8866 14.2279 54.8866 13.6039Z"
        fill="white" />
    <path
        d="M63.7208 9.74288V15.7801C63.7208 16.5601 63.8924 17.0983 64.2356 17.3947C64.5788 17.6755 65.0468 17.8159 65.6396 17.8159C65.8892 17.8159 66.1232 17.7925 66.3416 17.7457C66.56 17.6833 66.755 17.6131 66.9266 17.5351C67.0982 17.4571 67.2386 17.3869 67.3478 17.3245C67.457 17.2465 67.535 17.1919 67.5818 17.1607L68.5178 18.6583C68.4554 18.7051 68.3384 18.7987 68.1668 18.9391C67.9952 19.0639 67.769 19.1887 67.4882 19.3135C67.2074 19.4383 66.8642 19.5475 66.4586 19.6411C66.0686 19.7503 65.624 19.8049 65.1248 19.8049C64.454 19.8049 63.8768 19.7113 63.3932 19.5241C62.9096 19.3369 62.5118 19.0795 62.1998 18.7519C61.8878 18.4087 61.6538 18.0109 61.4978 17.5585C61.3574 17.1061 61.2872 16.6147 61.2872 16.0843V9.74288H60.2108C59.462 9.74288 59.0876 9.40748 59.0876 8.73668C59.0876 8.48708 59.1266 8.27648 59.2046 8.10488C59.2826 7.91768 59.3372 7.79288 59.3684 7.73048H61.2872V5.17988C61.2872 4.80548 61.3964 4.53248 61.6148 4.36088C61.8488 4.17368 62.1686 4.08008 62.5742 4.08008C62.8394 4.08008 63.0734 4.11128 63.2762 4.17368C63.4946 4.23608 63.6428 4.28288 63.7208 4.31408V7.73048H66.716C67.4492 7.73048 67.8158 8.06588 67.8158 8.73668C67.8158 8.98628 67.7768 9.20468 67.6988 9.39188C67.6364 9.56348 67.5896 9.68048 67.5584 9.74288H63.7208Z"
        fill="white" />
    <path
        d="M78.4229 8.83028C78.4229 8.45588 78.5321 8.18288 78.7505 8.01128C78.9689 7.82408 79.2809 7.73048 79.6865 7.73048C79.9517 7.73048 80.1857 7.76168 80.3885 7.82408C80.6069 7.88648 80.7551 7.93328 80.8331 7.96448V19.4773C80.7239 19.5085 80.5289 19.5397 80.2481 19.5709C79.9829 19.6021 79.6553 19.6333 79.2653 19.6645C78.8753 19.7113 78.4463 19.7425 77.9783 19.7581C77.5103 19.7893 77.0345 19.8049 76.5509 19.8049C75.1313 19.8049 73.9769 19.6333 73.0877 19.2901C72.2141 18.9469 71.5199 18.4477 71.0051 17.7925C70.3655 16.9657 70.0457 15.8659 70.0457 14.4931V8.83028C70.0457 8.45588 70.1549 8.18288 70.3733 8.01128C70.5917 7.82408 70.9037 7.73048 71.3093 7.73048C71.5745 7.73048 71.8085 7.76168 72.0113 7.82408C72.2297 7.88648 72.3779 7.93328 72.4559 7.96448V14.2357C72.4559 15.4213 72.7523 16.3105 73.3451 16.9033C73.9535 17.4961 74.9753 17.7925 76.4105 17.7925C76.9565 17.7925 77.3933 17.7769 77.7209 17.7457C78.0641 17.6989 78.2981 17.6599 78.4229 17.6287V8.83028Z"
        fill="white" />
    <path fill-rule="evenodd" clip-rule="evenodd"
        d="M18.48 9.61931C18.48 10.2646 17.6966 10.584 17.2454 10.1228L8.00675 0.680439C9.25596 0.239752 10.6 0 12 0C14.3869 0 16.611 0.69688 18.48 1.89828V9.61931ZM21.84 5.12982V9.61931C21.84 13.2757 17.4008 15.0862 14.8437 12.4727L4.90866 2.31846C1.93227 4.50223 0 8.02546 0 12C0 14.5553 0.798671 16.924 2.16 18.8702V14.4047C2.16 10.7483 6.59919 8.93783 9.15629 11.5513L19.0777 21.6916C22.0618 19.5086 24 15.9806 24 12C24 9.44473 23.2013 7.076 21.84 5.12982ZM6.75464 13.9012L15.9758 23.3257C14.7315 23.7625 13.3935 24 12 24C9.61311 24 7.38899 23.3031 5.52 22.1017V14.4047C5.52 13.7594 6.30339 13.44 6.75464 13.9012Z"
        fill="white" />
</svg>