<svg width="14" height="15" viewBox="0 0 14 15" fill="none" xmlns="http://www.w3.org/2000/svg">
<path d="M3.49497 3.00588C3.22161 2.73251 2.77839 2.73251 2.50503 3.00588C2.23166 3.27925 2.23166 3.72246 2.50503 3.99583L3.49497 3.00588ZM10.505 11.9958C10.7784 12.2692 11.2216 12.2692 11.495 11.9958C11.7683 11.7225 11.7683 11.2792 11.495 11.0059L10.505 11.9958ZM11.495 3.99583C11.7683 3.72246 11.7683 3.27925 11.495 3.00588C11.2216 2.73251 10.7784 2.73251 10.505 3.00588L11.495 3.99583ZM2.50503 11.0059C2.23166 11.2792 2.23166 11.7225 2.50503 11.9958C2.77839 12.2692 3.22161 12.2692 3.49497 11.9958L2.50503 11.0059ZM2.50503 3.99583L6.50503 7.99583L7.49497 7.00588L3.49497 3.00588L2.50503 3.99583ZM6.50503 7.99583L10.505 11.9958L11.495 11.0059L7.49497 7.00588L6.50503 7.99583ZM7.49497 7.99583L11.495 3.99583L10.505 3.00588L6.50503 7.00588L7.49497 7.99583ZM10.505 3.00588L2.50503 11.0059L3.49497 11.9958L11.495 3.99583L10.505 3.00588Z" fill="#333333"/>
</svg>
