<svg width="20" height="20" viewBox="0 0 20 20" fill="none" xmlns="http://www.w3.org/2000/svg">
<path d="M17.8 1H2.2C1.88174 1 1.57652 1.12643 1.35147 1.35147C1.12643 1.57652 1 1.88174 1 2.2V17.8C1 18.1183 1.12643 18.4235 1.35147 18.6485C1.57652 18.8736 1.88174 19 2.2 19H17.8C18.1183 19 18.4235 18.8736 18.6485 18.6485C18.8736 18.4235 19 18.1183 19 17.8V2.2C19 1.88174 18.8736 1.57652 18.6485 1.35147C18.4235 1.12643 18.1183 1 17.8 1ZM6.3322 16.3564H3.6244V7.75H6.3322V16.3564ZM4.978 6.5686C4.6667 6.56765 4.36266 6.47447 4.10429 6.30083C3.84591 6.1272 3.64479 5.88088 3.52632 5.59301C3.40784 5.30513 3.37734 4.9886 3.43865 4.6834C3.49996 4.3782 3.65035 4.09801 3.8708 3.87822C4.09126 3.65843 4.37191 3.5089 4.67729 3.44852C4.98268 3.38814 5.29912 3.41961 5.58663 3.53895C5.87414 3.6583 6.11984 3.86018 6.29269 4.11908C6.46555 4.37798 6.5578 4.6823 6.5578 4.9936C6.55788 5.20086 6.51704 5.40609 6.43761 5.59753C6.35819 5.78897 6.24175 5.96284 6.09497 6.10917C5.9482 6.2555 5.77397 6.37141 5.58229 6.45025C5.39062 6.52909 5.18526 6.56931 4.978 6.5686ZM16.3726 16.3564H13.72V12.1936C13.72 11.1814 13.72 9.9436 12.31 9.9436C10.9 9.9436 10.7302 11.0128 10.7302 12.1372V16.4128H8.08V7.75H10.5616V8.9314H10.618C10.8739 8.4889 11.2453 8.12429 11.6925 7.87657C12.1396 7.62885 12.6457 7.50732 13.1566 7.525C15.8644 7.525 16.372 9.325 16.372 11.6314L16.3726 16.3564Z" fill="white"/>
</svg>
