<svg width="20" height="20" viewBox="0 0 20 20" fill="none" xmlns="http://www.w3.org/2000/svg">
<path d="M19.7938 3.85567C19.0515 4.18557 18.268 4.39175 17.4433 4.51546C18.268 4.02062 18.9278 3.23711 19.2165 2.28866C18.433 2.74227 17.567 3.07216 16.6186 3.27835C15.8763 2.49485 14.8041 2 13.6495 2C11.4227 2 9.60825 3.81443 9.60825 6.04124C9.60825 6.37113 9.64948 6.65979 9.73196 6.94845C6.39175 6.7835 3.38144 5.17526 1.36082 2.70103C1.03093 3.31959 0.824742 3.97938 0.824742 4.72165C0.824742 6.12371 1.52577 7.36082 2.63918 8.10309C1.97938 8.06185 1.36082 7.89691 0.783505 7.60825V7.64948C0.783505 9.62886 2.18557 11.2783 4.04124 11.6495C3.71134 11.732 3.34021 11.7732 2.96907 11.7732C2.72165 11.7732 2.43299 11.732 2.18557 11.6907C2.72165 13.299 4.20619 14.4948 5.97938 14.4948C4.57732 15.567 2.84536 16.2268 0.948454 16.2268C0.618557 16.2268 0.28866 16.2268 0 16.1856C1.81443 17.3402 3.91753 18 6.2268 18C13.6907 18 17.7732 11.8144 17.7732 6.45361C17.7732 6.28866 17.7732 6.08247 17.7732 5.91753C18.5567 5.38144 19.2577 4.68041 19.7938 3.85567Z" fill="white"/>
</svg>
