<svg width="1920" height="1519" viewBox="0 0 1920 1519" fill="none" xmlns="http://www.w3.org/2000/svg">
<g opacity="0.12" filter="url(#filter0_f_305_3361)">
<ellipse cx="425.5" cy="972" rx="276.5" ry="197" fill="url(#paint0_radial_305_3361)"/>
<path d="M701.5 972C701.5 1026.2 670.669 1075.31 620.725 1110.89C570.782 1146.48 501.761 1168.5 425.5 1168.5C349.239 1168.5 280.218 1146.48 230.275 1110.89C180.331 1075.31 149.5 1026.2 149.5 972C149.5 917.804 180.331 868.691 230.275 833.107C280.218 797.524 349.239 775.5 425.5 775.5C501.761 775.5 570.782 797.524 620.725 833.107C670.669 868.691 701.5 917.804 701.5 972Z" stroke="white"/>
</g>
<g opacity="0.12" filter="url(#filter1_f_305_3361)">
<ellipse cx="1435" cy="460" rx="282" ry="210" fill="url(#paint1_radial_305_3361)"/>
</g>
<defs>
<filter id="filter0_f_305_3361" x="-201" y="425" width="1253" height="1094" filterUnits="userSpaceOnUse" color-interpolation-filters="sRGB">
<feFlood flood-opacity="0" result="BackgroundImageFix"/>
<feBlend mode="normal" in="SourceGraphic" in2="BackgroundImageFix" result="shape"/>
<feGaussianBlur stdDeviation="175" result="effect1_foregroundBlur_305_3361"/>
</filter>
<filter id="filter1_f_305_3361" x="903" y="0" width="1064" height="920" filterUnits="userSpaceOnUse" color-interpolation-filters="sRGB">
<feFlood flood-opacity="0" result="BackgroundImageFix"/>
<feBlend mode="normal" in="SourceGraphic" in2="BackgroundImageFix" result="shape"/>
<feGaussianBlur stdDeviation="125" result="effect1_foregroundBlur_305_3361"/>
</filter>
<radialGradient id="paint0_radial_305_3361" cx="0" cy="0" r="1" gradientUnits="userSpaceOnUse" gradientTransform="translate(496.6 818.589) rotate(101.47) scale(357.551 501.97)">
<stop offset="0.271982" stop-color="#6789FF"/>
<stop offset="0.804985" stop-color="#69B7FF"/>
<stop offset="1" stop-color="#4786FF"/>
</radialGradient>
<radialGradient id="paint1_radial_305_3361" cx="0" cy="0" r="1" gradientUnits="userSpaceOnUse" gradientTransform="translate(1507.51 296.466) rotate(100.986) scale(380.508 512.813)">
<stop offset="0.271982" stop-color="#D886FF"/>
<stop offset="0.804985" stop-color="#EA69FF"/>
<stop offset="1" stop-color="#A347FF"/>
</radialGradient>
</defs>
</svg>
