<svg width="76" height="76" viewBox="0 0 76 76" fill="none" xmlns="http://www.w3.org/2000/svg">
<circle cx="38" cy="38" r="38" fill="black"/>
<path d="M2 38C2 57.8823 18.1177 74 38 74C57.8823 74 74 57.8823 74 38C74 18.1177 57.8823 2 38 2" stroke="#FFE14D" stroke-width="4" stroke-linecap="round"/>
<path d="M40.1549 32.208C40.1549 34.512 37.7429 35.988 34.6469 35.988H33.5309V39.444H34.3949C38.3549 39.444 40.5869 41.028 40.5869 43.692C40.5869 45.96 38.6789 47.472 35.7989 47.472C32.8109 47.472 30.9029 46.644 29.6789 46.032V50.064C31.0829 50.748 32.9909 51.468 36.1589 51.468C41.4509 51.468 45.2669 48.624 45.2669 44.16C45.2669 40.776 42.9989 38.508 40.3709 37.68C42.7829 36.78 44.8349 34.62 44.8349 31.668C44.8349 27.492 41.5229 24.612 36.1589 24.612C33.6749 24.612 31.3709 25.26 30.1109 25.836V29.868C31.2989 29.292 33.2429 28.608 35.4749 28.608C38.2829 28.608 40.1549 29.904 40.1549 32.208Z" fill="url(#paint0_linear_2997_10318)"/>
<defs>
<linearGradient id="paint0_linear_2997_10318" x1="38" y1="18" x2="38" y2="54" gradientUnits="userSpaceOnUse">
<stop offset="0.402778" stop-color="white"/>
<stop offset="1" stop-color="white" stop-opacity="0.6"/>
</linearGradient>
</defs>
</svg>
