<svg width="1919" height="654" viewBox="0 0 1919 654" fill="none" xmlns="http://www.w3.org/2000/svg">
<rect x="69" y="104" width="1782" height="550" fill="url(#paint0_radial_7102_12749)"/>
<rect x="69" y="104" width="1782" height="550" fill="url(#paint1_radial_7102_12749)"/>
<rect x="69" y="104" width="1782" height="550" fill="url(#paint2_linear_7102_12749)"/>
<g clip-path="url(#clip0_7102_12749)">
<path fill-rule="evenodd" clip-rule="evenodd" d="M1389.13 373.828L1394.31 390.826C1399.05 393.18 1403.62 395.853 1408 398.826C1408 398.826 1419.68 399.826 1424.19 406.825C1424.19 406.825 1428.7 411.991 1429.2 428.823C1428.38 430.681 1427.31 432.419 1426.03 433.989C1426.03 433.989 1426.53 437.656 1427.86 442.989C1427.86 442.989 1425.69 449.322 1423.52 456.488C1421.35 463.654 1421.52 472.153 1421.85 481.819L1422.19 485.152C1419.41 490.904 1416.17 496.422 1412.5 501.651C1412.5 501.651 1405.33 510.983 1397.48 512.983C1397.48 512.983 1388.63 515.983 1378.95 505.817C1369.27 495.651 1366.76 491.485 1366.76 491.485C1366.76 491.485 1367.26 477.153 1366.76 474.486C1366.4 470.586 1365.44 466.764 1363.92 463.154C1356.41 460.154 1343.39 448.322 1340.22 439.656C1334.54 424.324 1335.04 400.992 1343.39 397.159C1343.39 397.159 1359.58 390.993 1363.59 387.493C1366.25 381.589 1367.88 375.278 1368.43 368.828C1375.09 371.379 1382.04 373.06 1389.13 373.828Z" fill="black"/>
<path fill-rule="evenodd" clip-rule="evenodd" d="M1393.14 510.147C1396.68 528.142 1401.54 545.855 1407.66 563.143C1402.49 577.142 1402.49 601.307 1412.17 609.139C1413.34 615.639 1415.85 631.137 1415.68 632.971C1415.31 636.985 1414.53 640.95 1413.34 644.803C1412.56 648.301 1412.28 651.892 1412.51 655.469C1412.51 655.469 1414.51 658.635 1420.02 658.969C1425.53 659.302 1426.36 658.802 1429.7 659.968C1434.39 661.753 1439.37 662.657 1444.39 662.635C1452.07 662.635 1455.41 662.802 1454.91 661.468C1454.41 660.135 1439.55 651.969 1439.55 651.969C1439.55 651.969 1431.87 646.469 1430.04 644.636C1428.62 643.256 1427.34 641.75 1426.2 640.137C1425.56 630.254 1425.67 620.338 1426.53 610.472C1427.2 600.807 1432.71 585.308 1423.69 565.976C1424.19 563.81 1425.19 560.81 1424.86 559.643C1424.53 558.477 1423.02 552.477 1423.02 552.477C1423.02 552.477 1433.54 511.147 1422.19 485.149C1422.19 485.149 1416.35 481.316 1407.16 487.982C1397.98 494.649 1393.14 510.147 1393.14 510.147Z" fill="black"/>
<path fill-rule="evenodd" clip-rule="evenodd" d="M1366.76 491.481C1366.76 491.481 1364.09 508.647 1362.25 522.812C1360.41 536.978 1359.08 556.809 1359.41 563.309C1359.41 563.309 1345.56 577.308 1341.38 592.806C1341.38 592.806 1339.38 600.972 1340.21 616.638C1341.05 632.303 1342.38 641.136 1342.89 650.135C1342.89 650.135 1339.05 658.634 1336.88 664.801C1334.71 670.967 1334.54 672.133 1335.21 677.133C1335.87 682.132 1337.04 687.299 1338.54 687.965C1340.05 688.632 1350.06 679.299 1353.4 667.8C1353.4 667.8 1351.23 654.801 1351.4 649.135C1351.57 643.469 1353.24 629.637 1356.07 622.471C1360.25 615.688 1363.93 608.615 1367.09 601.306C1371.43 590.64 1372.43 576.641 1372.43 573.308C1373.41 572.041 1374.2 570.637 1374.77 569.142C1374.94 567.808 1375.11 565.142 1375.11 565.142C1377.51 562.64 1379.59 559.84 1381.28 556.809C1388.96 543.81 1395.47 522.979 1399.31 508.647C1405.66 484.815 1372.6 484.149 1366.76 491.481Z" fill="black"/>
<path fill-rule="evenodd" clip-rule="evenodd" d="M1351.73 397.49C1351.73 397.49 1330.2 395.323 1319.68 402.823C1319.68 402.823 1314 407.489 1312.17 421.821C1310.33 436.153 1314 451.485 1315.34 455.485C1314.19 457.928 1313.35 460.503 1312.84 463.151C1312.05 468.925 1312.63 474.8 1314.51 480.316C1317.18 487.816 1325.52 496.982 1331.7 509.981C1331.7 509.981 1331.03 519.48 1332.87 523.813C1333.93 526.49 1335.52 528.927 1337.54 530.979L1348.56 531.479C1349.7 532.053 1350.87 532.554 1352.07 532.979C1353.31 531.924 1354.38 530.688 1355.24 529.312C1355.47 528.386 1355.58 527.434 1355.57 526.479C1356.16 526.344 1356.72 526.119 1357.24 525.813C1356.81 523.581 1356.14 521.402 1355.24 519.313C1354.07 516.974 1353.39 514.423 1353.24 511.814C1351.36 510.294 1349.21 509.161 1346.89 508.481C1345.68 508.068 1344.55 507.447 1343.55 506.647C1343.55 506.647 1340.72 499.315 1340.88 486.149C1341.05 472.984 1340.72 468.651 1336.38 461.984C1341.83 450.704 1346.19 438.929 1349.4 426.821C1354.57 407.489 1351.73 397.49 1351.73 397.49Z" fill="black"/>
<path fill-rule="evenodd" clip-rule="evenodd" d="M1406.66 398.823C1406.66 398.823 1415.84 398.49 1421.69 400.656C1423.36 401.176 1424.94 401.964 1426.36 402.989C1427.7 404.323 1435.38 419.488 1437.88 450.486C1437.88 450.486 1442.22 450.986 1449.73 457.152C1449.73 457.152 1455.74 461.985 1468.6 465.818L1468.26 477.15C1468.26 477.15 1455.74 476.65 1446.56 476.983C1437.38 477.317 1429.53 476.983 1426.36 475.484C1425.44 473.276 1424.32 471.156 1423.02 469.151C1423.09 466.363 1423.31 463.581 1423.69 460.818C1424.36 456.318 1426.03 449.986 1427.36 443.819C1423.02 450.319 1421.19 453.819 1420.02 465.651C1416.01 461.818 1401.32 447.486 1402.49 433.487C1403.66 419.488 1406.66 398.823 1406.66 398.823Z" fill="black"/>
<path fill-rule="evenodd" clip-rule="evenodd" d="M1467.43 467.817C1466.77 464.975 1466.65 462.034 1467.09 459.151C1470.41 458.091 1473.82 457.365 1477.28 456.984V457.651C1481.12 457.818 1485.96 458.484 1489.13 460.817C1489.96 462.527 1490.3 464.427 1490.13 466.317L1488.63 466.817C1488.1 468.209 1487.76 469.667 1487.63 471.15C1487.46 472.701 1487.46 474.265 1487.63 475.816C1487.29 477.87 1486.37 479.782 1484.96 481.316C1481.17 482.265 1477.2 482.208 1473.44 481.149L1472.94 480.649C1472.94 480.649 1466.59 479.982 1466.09 476.316C1465.91 473.42 1466.37 470.52 1467.43 467.817Z" fill="black"/>
<path fill-rule="evenodd" clip-rule="evenodd" d="M1343.39 403.488C1343.97 400.996 1344.99 398.626 1346.4 396.488C1347.9 386.489 1351.9 386.156 1355.91 380.156C1355.84 378.666 1356.13 377.18 1356.75 375.823C1358.58 372.49 1359.75 371.657 1361.59 367.324C1365.26 359.325 1369.43 350.492 1372.11 347.659C1377.35 346.607 1382.75 346.664 1387.97 347.826C1390.22 348.473 1392.28 349.662 1393.97 351.289C1395.66 352.916 1396.92 354.931 1397.65 357.158C1397.65 357.158 1398.32 363.324 1398.32 368.824C1398.32 374.323 1402.49 372.657 1403.66 375.49C1404.83 378.323 1403.16 380.156 1404.33 382.656C1401.15 380.99 1402.49 377.323 1399.15 375.657C1395.81 373.99 1397.15 373.157 1396.81 371.824C1396.65 373.958 1396.87 376.104 1397.48 378.156C1399.15 382.156 1402.16 381.323 1403.32 384.323C1406.16 390.822 1410.34 389.989 1411.34 387.656C1412.17 390.989 1407.5 393.655 1404.33 389.489C1403.82 398.155 1417.85 391.655 1417.35 400.155C1417.18 401.155 1415.85 396.822 1409.17 397.822C1407.33 398.155 1405.49 398.655 1404.33 403.154C1394.98 406.987 1374.28 409.654 1374.28 409.654L1343.39 403.488ZM1348.57 395.322C1350.24 394.227 1351.61 392.739 1352.57 390.989C1352.07 389.656 1353.07 387.822 1354.24 386.156C1351.9 387.656 1348.4 391.655 1348.57 395.322Z" fill="black"/>
<path fill-rule="evenodd" clip-rule="evenodd" d="M1461.92 360.993L1464.09 298.331C1459.37 305.648 1455.77 313.623 1453.41 321.996C1455.91 319.33 1457.25 317.996 1460.08 318.163C1460.08 328.169 1457.97 338.766 1455.99 348.651C1453.39 361.65 1451.04 373.418 1454.07 380.991C1456.29 375.961 1459.67 371.527 1463.94 368.051C1467.8 364.903 1472.29 362.621 1477.11 361.354L1469.93 666.802C1471.05 667.319 1472.27 667.601 1473.51 667.63C1474.74 667.658 1475.97 667.433 1477.11 666.969L1484.44 361.538C1489.24 363.014 1493.66 365.506 1497.41 368.849C1501.5 372.498 1504.67 377.057 1506.66 382.158C1510.07 374.797 1508.28 363 1506.3 349.946C1504.78 339.947 1503.15 329.21 1503.66 319.163C1506.33 319.163 1507.66 320.663 1510 323.329C1508.1 314.885 1504.89 306.789 1500.48 299.331L1499.82 361.993C1495.97 359.265 1492.63 355.88 1489.97 351.994C1486.13 345.494 1484.46 324.996 1484.79 297.998C1487.68 298.918 1490.12 300.879 1491.64 303.498C1489.97 293.165 1486.96 284.832 1482.96 274C1482.73 274.536 1482.5 275.066 1482.28 275.59C1478.1 285.477 1474.83 293.193 1472.77 303.164C1473.54 301.836 1474.58 300.679 1475.81 299.762C1477.05 298.845 1478.45 298.188 1479.95 297.831C1478.95 324.829 1476.28 345.161 1472.1 351.494C1469.31 355.244 1465.86 358.461 1461.92 360.993Z" fill="url(#paint3_linear_7102_12749)"/>
<path fill-rule="evenodd" clip-rule="evenodd" d="M1137.21 405.488C1149.9 456.818 1155.57 545.81 1217.34 596.473C1217.34 596.473 1230.37 557.976 1266.59 554.31C1295.14 551.643 1316.84 561.642 1336.21 538.144C1264.42 504.314 1274.77 426.153 1262.09 395.489C1226.86 395.156 1172.27 401.489 1137.21 405.488Z" fill="url(#paint4_linear_7102_12749)"/>
<path fill-rule="evenodd" clip-rule="evenodd" d="M1135.71 404.823L1162.59 395.157C1174.1 391.324 1175.27 388.157 1180.11 381.491L1186.12 344.994L1189.63 350.66C1189.63 350.66 1197.31 346.827 1204.82 350.66L1208.5 344.994C1208.5 344.994 1210.5 359.326 1211.33 367.992C1212.17 376.658 1212.84 378.491 1213.17 380.491C1213.57 381.727 1214.22 382.868 1215.09 383.843C1215.95 384.818 1217 385.605 1218.18 386.157C1220.85 387.157 1249.9 393.157 1262.42 393.49C1262.42 393.49 1245.56 430.487 1223.19 451.485C1221.72 464.514 1222.45 477.697 1225.36 490.482C1218.85 496.148 1211.33 503.315 1201.82 508.147C1199.31 509.481 1194.47 509.647 1190.97 509.314C1187.46 508.981 1170.43 495.648 1164.59 486.149C1166.93 472.15 1169.1 457.152 1168.09 449.986C1168.09 449.986 1154.57 434.154 1152.07 426.487C1152.15 423.866 1152.37 421.251 1152.74 418.655C1148.23 410.655 1139.05 406.822 1135.71 404.823Z" fill="black"/>
<path fill-rule="evenodd" clip-rule="evenodd" d="M1244.72 494.151C1241.55 495.571 1238.53 497.302 1235.71 499.317C1235.21 502.65 1236.38 504.15 1236.54 507.316C1237.85 507.809 1239.18 508.199 1240.55 508.483C1241.06 510.153 1241.73 511.771 1242.55 513.316C1247.42 513.292 1252.16 511.716 1256.07 508.816C1256.07 508.816 1254.91 501.983 1253.74 497.817C1260.92 477.819 1271.1 453.654 1261.75 443.988C1261.75 443.988 1263.59 431.322 1265.42 422.656C1267.26 413.991 1266.59 400.158 1262.42 393.492L1233.87 422.823C1233.87 422.823 1247.06 463.486 1244.72 494.151Z" fill="black"/>
<path fill-rule="evenodd" clip-rule="evenodd" d="M1135.71 404.822C1134.73 412.254 1134.95 419.794 1136.38 427.154C1138.55 440.153 1138.88 444.652 1138.88 444.652C1130.53 451.652 1129.53 453.985 1132.2 471.817C1133.2 478.983 1136.21 489.815 1137.04 499.148C1137.04 499.148 1136.21 510.147 1135.04 512.647C1139.77 513.514 1144.13 515.778 1147.56 519.146C1148.33 517.098 1148.89 514.976 1149.23 512.813C1150.36 512.819 1151.49 512.65 1152.57 512.313C1152.73 509.407 1153.06 506.513 1153.57 503.648C1151.65 501.942 1149.37 500.689 1146.89 499.981C1146.89 499.981 1150.57 483.316 1156.08 466.984C1161.59 450.652 1170.27 429.987 1171.1 426.32C1171.94 422.654 1163.92 406.989 1135.71 404.822Z" fill="black"/>
<path fill-rule="evenodd" clip-rule="evenodd" d="M1164.59 486.148C1159.86 496.975 1156.71 508.425 1155.24 520.146C1152.91 538.644 1152.57 554.809 1151.4 563.142C1151.4 563.142 1137.71 575.308 1134.37 582.807C1134.37 582.807 1133.04 587.64 1132.7 600.639C1132.37 613.638 1132.54 637.969 1130.7 645.802C1128.99 648.077 1126.97 650.098 1124.69 651.801C1122.19 653.468 1119.18 655.135 1118.01 657.301C1116.85 659.468 1117.18 660.634 1117.01 660.967C1116.85 661.301 1121.69 663.467 1125.19 664.467C1127.73 664.277 1130.21 663.657 1132.54 662.634C1132.54 662.634 1133.21 658.634 1140.22 656.301C1140.04 653.783 1139.7 651.278 1139.22 648.802C1141.65 638.491 1144.95 628.401 1149.07 618.638C1155.58 602.972 1159.92 596.639 1160.58 592.306C1161.25 587.973 1161.59 579.474 1161.92 573.308C1164.76 567.642 1164.93 565.142 1167.76 559.476C1170.6 553.81 1187.96 523.645 1191.97 506.813C1195.98 489.981 1164.59 486.148 1164.59 486.148Z" fill="black"/>
<path fill-rule="evenodd" clip-rule="evenodd" d="M1196.31 507.313C1196.31 507.313 1209.16 533.478 1212.84 542.977C1216.51 552.476 1220.18 566.975 1226.69 574.808C1226.69 574.808 1225.52 593.306 1226.02 596.306C1226.53 599.306 1231.2 607.305 1234.37 614.305C1239.09 623.839 1242.62 633.913 1244.89 644.302L1243.05 650.968C1242.88 652.63 1242.88 654.306 1243.05 655.968C1243.05 655.968 1251.07 658.134 1254.41 662.967C1257.01 663.306 1259.63 663.473 1262.25 663.467C1264.79 663.138 1267.24 662.287 1269.43 660.967C1269.43 659.576 1268.96 658.225 1268.1 657.134L1258.75 651.635C1256.56 649.091 1254.6 646.358 1252.9 643.469C1252.15 635.772 1251.93 628.032 1252.24 620.304C1252.74 607.305 1253.9 595.306 1251.07 588.807C1248.23 582.307 1238.55 569.808 1238.55 569.808C1237.69 563.179 1237.41 556.488 1237.71 549.81C1237.88 536.644 1237.38 528.145 1236.38 523.645C1235.37 519.146 1228.86 498.647 1225.36 490.481C1224.13 488.669 1222.27 487.376 1220.14 486.852C1218.02 486.329 1215.77 486.612 1213.84 487.648C1205.99 491.148 1196.31 507.313 1196.31 507.313Z" fill="black"/>
<path fill-rule="evenodd" clip-rule="evenodd" d="M481.952 359.658L477.111 383.99L458.747 397.155L455.074 441.318L478.447 473.149L481.952 473.316L479.448 514.146L481.786 514.979L485.792 507.813L510.834 511.812L512.504 524.645L521.352 523.312L537.545 501.313L538.38 473.149L540.884 473.316L544.056 453.484L544.39 440.652L551.068 434.152L544.223 406.654L522.186 387.823L512.17 384.49L511.168 371.991L481.952 359.658Z" fill="black"/>
<path fill-rule="evenodd" clip-rule="evenodd" d="M473.269 392.991C473.269 392.991 446.892 390.324 435.539 406.323L431.366 425.822L432.534 427.821C429.413 434.149 426.681 440.66 424.354 447.32L420.18 449.32C415.745 455.029 412.921 461.819 412 468.985C412.377 476.106 413.61 483.156 415.673 489.983L418.01 490.316V496.149L418.845 496.649V497.649L417.843 497.982L418.344 505.482L419.513 505.982L419.846 507.981L417.008 509.815C417.008 509.815 418.678 518.147 426.357 531.48C426.357 531.48 442.551 530.48 450.064 529.146C452.402 527.074 454.476 524.723 456.241 522.147C455.072 519.377 454.285 516.462 453.903 513.481C455.387 512.277 456.633 510.808 457.576 509.148C456.75 505.87 455.457 502.727 453.736 499.815C450.827 498.192 447.553 497.332 444.22 497.316L445.055 493.483L444.387 493.149L444.721 491.649H445.389L446.892 485.483L446.057 484.817L447.225 482.65H448.06C450.062 479.086 451.738 475.349 453.069 471.484C453.069 471.484 453.236 464.818 452.902 461.819L449.897 459.319C448.998 460.029 447.869 460.385 446.725 460.319L447.559 458.152C447.559 458.152 459.413 458.486 468.261 434.987L476.608 434.654L480.782 418.322C480.782 418.322 482.284 398.157 473.269 392.991Z" fill="black"/>
<path fill-rule="evenodd" clip-rule="evenodd" d="M571.102 436.653C572.5 442.359 574.228 447.979 576.277 453.485C581.118 454.652 588.965 454.485 595.142 454.318C598.481 443.986 601.986 423.821 602.654 410.489L573.439 406.822L571.102 436.653Z" fill="black"/>
<path fill-rule="evenodd" clip-rule="evenodd" d="M515.008 509.981C508.121 528.273 499.688 545.946 489.799 562.81L485.291 566.81C485.291 566.81 485.291 574.976 480.784 577.809L464.924 613.473C462.282 619.732 461.194 626.535 461.752 633.304L459.582 635.304L462.921 641.97L460.75 643.803L468.931 651.136C472.024 653.815 474.525 657.107 476.276 660.802C475.781 665.557 474.6 670.216 472.77 674.634C464.553 676.021 456.23 676.69 447.895 676.634C447.895 676.634 434.206 672.801 430.199 670.635C430.199 670.635 429.364 663.802 424.523 660.969C424.663 656.381 425.165 651.812 426.026 647.303L423.188 646.303C425.795 638.757 427.477 630.922 428.196 622.972C429.031 611.139 431.869 588.141 437.044 572.476C437.044 572.476 444.39 561.477 450.734 556.311L454.406 556.811C455.415 554.888 456.988 553.318 458.914 552.311L459.415 547.978C459.415 547.978 467.261 523.147 479.281 494.482L488.797 485.816L514.34 486.483L515.008 509.981Z" fill="black"/>
<path fill-rule="evenodd" clip-rule="evenodd" d="M532.871 486.819C540.711 504.346 545.293 523.151 546.394 542.315C546.394 542.315 547.729 544.148 548.564 550.647C548.961 554.43 547.951 558.226 545.726 561.313C545.726 561.313 543.389 594.644 557.579 614.809L553.906 620.308L564.591 629.641L562.253 632.141L565.926 633.474L567.429 631.474L587.128 644.473L584.791 657.472L575.609 659.138L548.564 660.138C548.564 660.138 539.883 652.639 519.849 656.139C519.849 656.139 518.013 641.307 522.187 631.974L518.18 631.307C520.218 624.05 520.953 616.489 520.35 608.976L517.846 596.977L508.33 572.646C508.637 567.694 509.42 562.783 510.667 557.98L513.171 555.48C513.153 551.668 513.832 547.884 515.175 544.315C515.175 544.315 508.998 536.149 503.989 509.984C498.981 483.819 532.871 486.819 532.871 486.819Z" fill="black"/>
<path fill-rule="evenodd" clip-rule="evenodd" d="M512.003 392.824C512.003 392.824 509.833 419.322 526.027 430.321L545.726 434.154L547.563 432.821C547.563 432.821 562.254 440.32 573.606 441.987C579.282 431.821 578.781 425.322 577.947 417.489C577.947 417.489 578.281 405.656 554.574 397.157L553.907 388.825L537.546 384.992C537.546 384.992 517.012 383.658 512.003 392.824Z" fill="black"/>
<path fill-rule="evenodd" clip-rule="evenodd" d="M568.432 421.82C565.289 411.325 562.835 400.636 561.086 389.823C565.088 386.017 568.773 381.893 572.104 377.49C575.61 357.659 575.276 338.827 576.946 319.495C577.598 318.944 578.33 318.495 579.116 318.162C579.283 316.995 579.283 316.329 579.45 314.995C583.123 310.662 596.145 310.996 599.817 315.495V318.162L602.155 319.662C602.155 332.827 603.49 367.824 604.325 373.657C605.276 374.736 606.116 375.909 606.829 377.157C607.625 388.666 607.233 400.225 605.66 411.654C601.337 416.928 596.468 421.732 591.136 425.986C583.404 425.723 575.753 424.319 568.432 421.82Z" fill="url(#paint5_linear_7102_12749)"/>
<path fill-rule="evenodd" clip-rule="evenodd" d="M479.109 356.824C476.605 357.824 476.605 360.491 477.105 362.824C477.606 365.157 478.775 368.49 482.782 368.823C482.68 370.21 482.68 371.603 482.782 372.99C487.79 377.989 491.797 379.156 498.975 385.822C502.558 385.778 506.131 385.444 509.66 384.822C511.663 377.156 514.835 374.656 515.837 367.99C515.67 367.157 515.503 366.324 515.336 365.157L517.172 363.99C517.281 361.068 516.943 358.146 516.171 355.324L514.501 354.824L515.503 353.325C515.503 353.325 514.668 347.992 514.167 345.492C511.518 341.568 508.043 338.27 503.984 335.826C501.28 335.372 498.524 335.315 495.803 335.659L495.469 336.993C492.191 337.6 489.103 338.97 486.454 340.992L484.117 340.492C482.024 343.656 480.341 347.072 479.109 350.658C479.109 350.658 478.942 353.825 479.109 356.824Z" fill="black"/>
<path fill-rule="evenodd" clip-rule="evenodd" d="M1047.56 416.654C1054.91 409.654 1056.41 402.488 1056.74 392.822C1056.74 389.323 1048.9 375.157 1046.39 372.657C1043.89 370.158 1033.71 368.658 1032.54 369.324C1031.01 369.953 1029.68 370.991 1028.7 372.324C1028.7 372.324 1024.52 372.324 1023.19 373.657C1021.85 374.991 1019.35 380.323 1017.34 387.823C1016.22 391.125 1014.76 394.307 1013 397.322C1005.49 412.821 1026.53 422.487 1032.2 429.986C1034.87 433.486 1044.56 419.82 1047.56 416.654Z" fill="black"/>
<path fill-rule="evenodd" clip-rule="evenodd" d="M1029.86 415.322C1022.02 416.822 1018.18 415.656 1015.67 416.655C1010.5 418.655 1008.83 423.155 1006.32 428.988C1002.82 437.32 999.979 446.82 997.475 453.319C997.475 453.319 990.964 457.985 988.126 463.152C985.288 468.318 983.452 494.482 982.116 502.815C980.395 504.844 979.039 507.156 978.109 509.648C978.458 511.538 979.018 513.382 979.779 515.147C983.118 517.647 981.949 518.647 985.956 520.814C987.458 520.147 988.293 517.981 988.794 516.647L990.797 516.981C991.928 515.177 992.772 513.209 993.301 511.148C992.733 510.287 992.336 509.325 992.133 508.315C992.02 507.382 991.689 506.489 991.167 505.708C990.645 504.926 989.947 504.278 989.128 503.815C990.131 497.92 991.639 492.121 993.635 486.483C995.973 479.984 1004.15 470.318 1003.32 460.485C1005.58 456.319 1008.21 452.36 1011.16 448.653C1014.41 444.763 1017.37 440.641 1020.01 436.321C1020.85 434.821 1029.7 415.822 1029.86 415.322Z" fill="black"/>
<path fill-rule="evenodd" clip-rule="evenodd" d="M1030.2 405.99C1030.2 405.99 1029.69 412.823 1028.53 414.823C1024.66 416.117 1021.35 418.708 1019.18 422.155C1017.34 424.822 1013.83 426.822 1012 434.154C1010.16 441.487 1011.16 448.653 1014.84 450.82C1014.84 450.82 1015.84 457.319 1017.01 461.652C1018.18 465.985 1018.84 468.152 1018.01 471.485C1017.17 474.818 1014.84 480.317 1014.17 485.484C1013.5 490.65 1013 493.983 1013 493.983L1035.54 506.482C1037.25 506.461 1038.95 506.122 1040.55 505.482C1042.55 504.649 1061.25 485.15 1061.25 485.15C1056.93 479.414 1052.24 473.959 1047.22 468.818C1047.56 464.319 1050.23 457.652 1051.4 453.32C1052.21 450.454 1053.27 447.665 1054.57 444.987C1055.92 443.223 1056.83 441.168 1057.24 438.987C1058.08 432.988 1054.4 420.156 1054.4 420.156C1051.65 419.465 1049.01 418.399 1046.56 416.989C1044.39 415.323 1042.38 412.49 1042.05 402.824C1041.71 393.158 1030.2 405.99 1030.2 405.99Z" fill="black"/>
<path fill-rule="evenodd" clip-rule="evenodd" d="M1013 493.983C1013 493.983 1010 501.815 1007.66 506.315C1000.15 520.98 1001.15 536.479 998.813 548.978C998.312 551.311 995.474 563.31 993.638 566.477C986.96 576.309 984.289 582.809 982.62 589.808C979.615 603.474 980.115 619.806 976.776 632.638C975.609 634.875 974.658 637.219 973.938 639.637C972.937 643.304 970.099 653.47 969.598 654.47C969.375 656.057 969.607 657.674 970.266 659.136C970.893 661.404 971.909 663.547 973.271 665.469C973.938 665.969 977.444 666.302 978.446 664.802C979.703 662.391 980.764 659.883 981.618 657.303C982.286 655.47 982.119 654.47 981.952 651.303C981.785 648.137 981.785 642.97 981.117 636.304C982.787 624.472 996.309 609.307 1000.48 597.474C1002.92 591.184 1004.33 584.545 1004.66 577.809C1005.66 573.476 1008.16 572.143 1010.83 568.143C1014.03 563.776 1016.41 558.863 1017.85 553.644C1023.35 536.313 1034.37 523.314 1036.21 503.982C1036.21 498.982 1021.85 478.317 1013 493.983Z" fill="black"/>
<path fill-rule="evenodd" clip-rule="evenodd" d="M1037.88 504.147C1037.88 504.147 1038.38 510.313 1039.21 517.479C1040.12 524.272 1040.51 531.125 1040.38 537.977C1040.1 544.403 1040.61 550.838 1041.88 557.143C1042.7 561.834 1043.88 566.457 1045.39 570.975C1045.39 581.641 1040.21 583.307 1044.55 606.139C1045.89 613.305 1047.06 614.138 1047.56 634.636C1047.18 635.473 1047.01 636.387 1047.06 637.303C1047.37 638.385 1047.48 639.514 1047.39 640.636C1047.22 645.135 1046.56 650.468 1046.22 653.135C1045.74 655.18 1045.86 657.319 1046.56 659.301C1047.39 661.634 1048.89 665.3 1050.23 665.467C1051.56 665.634 1053.57 665.967 1054.4 664.634C1055.24 663.3 1058.24 655.968 1057.74 653.801C1056.68 650.743 1055.78 647.627 1055.07 644.469C1054.57 641.969 1053.07 637.303 1053.07 637.303C1052.07 621.637 1057.74 612.638 1059.91 600.306C1061.58 591.473 1061.08 582.14 1057.41 570.141C1057.32 567.918 1057.38 565.692 1057.57 563.475C1060.25 550.643 1064.25 538.311 1065.75 525.312C1067.26 512.313 1067.26 495.981 1061.25 485.148L1046.56 488.481L1037.88 504.147Z" fill="black"/>
<path fill-rule="evenodd" clip-rule="evenodd" d="M1054.4 420.154C1057.08 420.988 1059.75 421.654 1061.25 423.821C1065.42 429.82 1065.59 433.153 1066.59 441.486C1067.03 443.901 1067.58 446.293 1068.26 448.652C1069.1 451.985 1070.93 457.485 1071.77 460.818L1073.44 466.817C1074.6 470.817 1070.6 474.317 1066.76 470.15C1065.31 468.386 1064.13 466.421 1063.25 464.317C1059.25 455.818 1055.07 447.319 1050.9 438.653C1046.73 429.987 1048.56 422.321 1054.4 420.154Z" fill="black"/>
<path fill-rule="evenodd" clip-rule="evenodd" d="M1067.43 582.143L1074.94 596.808L1060.25 589.642L990.966 523.647L981.618 524.147V522.814L987.461 516.815L965.591 495.65C964.866 495.732 964.132 495.656 963.44 495.425C962.748 495.195 962.114 494.817 961.584 494.316C961.095 493.902 960.697 493.392 960.414 492.818C960.131 492.244 959.969 491.618 959.939 490.979C959.909 490.339 960.01 489.701 960.238 489.102C960.465 488.504 960.814 487.959 961.261 487.501C961.709 487.042 962.246 486.681 962.839 486.439C963.433 486.197 964.07 486.079 964.711 486.093C965.352 486.107 965.983 486.252 966.565 486.52C967.147 486.788 967.668 487.173 968.095 487.65C968.654 488.138 969.072 488.766 969.307 489.469C969.542 490.172 969.584 490.925 969.431 491.65L991.3 512.815L996.81 507.149H998.646V516.481L1067.43 582.143Z" fill="url(#paint6_linear_7102_12749)"/>
<path fill-rule="evenodd" clip-rule="evenodd" d="M1126.76 493.691C1131.99 516.103 1118.02 538.498 1095.57 543.713C1073.12 548.929 1050.69 534.989 1045.46 512.578C1040.24 490.166 1054.2 467.771 1076.65 462.555C1099.1 457.34 1121.54 471.28 1126.76 493.691ZM1069.13 511.76C1064.43 502.131 1068.27 490.505 1077.67 485.924C1087.06 481.343 1098.59 485.473 1103.28 495.102C1107.07 502.87 1105.36 511.829 1099.76 517.407C1098.96 517.933 1098.37 517.542 1098.16 517.104L1095.81 512.29C1095.01 510.649 1093.94 509.815 1093.04 509.58C1096.66 507.268 1099.87 503.81 1096.61 497.136C1095.65 495.167 1094.26 493.947 1092.61 493.264C1092.6 493.222 1092.59 493.167 1092.58 493.102C1092.45 492.418 1092.1 490.543 1090.15 488.773C1090.15 488.773 1088.55 489.012 1086.36 492.923C1084.82 493.272 1083.32 493.73 1081.83 494.459C1080.33 495.187 1079 495.974 1077.83 497.088C1073.45 496.513 1072.28 497.628 1072.28 497.628C1072.49 500.503 1073.88 501.994 1074.3 502.327C1073.82 504.051 1073.98 506.005 1074.89 507.865C1078.15 514.539 1082.84 514.145 1086.9 512.709C1086.68 513.355 1086.52 514.381 1086.95 515.527C1086.1 516.485 1084.02 518.448 1081.24 516.551C1081.24 516.551 1079.48 515.379 1077.72 516.102C1077.72 516.102 1076.01 516.935 1078.15 517.248C1078.15 517.248 1079.59 517.223 1081.29 518.828C1081.29 518.828 1083.91 521.751 1088.18 518.314L1089.62 521.269C1089.89 521.816 1089.78 522.409 1088.87 522.717C1081.03 523.698 1072.92 519.528 1069.13 511.76Z" fill="url(#paint7_linear_7102_12749)"/>
<path fill-rule="evenodd" clip-rule="evenodd" d="M779.945 402.155C793.134 463.983 803.151 537.477 851.565 583.473C896.139 531.478 937.041 567.975 966.59 531.644C932.534 481.315 929.529 475.316 911.832 400.988C861.749 400.988 829.862 402.155 779.945 402.155Z" fill="url(#paint8_linear_7102_12749)"/>
<path fill-rule="evenodd" clip-rule="evenodd" d="M867.929 472.32C902.988 442.323 912.17 399.326 912.17 399.326C875.943 384.828 862.42 375.662 857.412 370.162H834.039C829.031 375.662 815.508 384.828 779.281 399.326C779.281 399.326 788.463 442.323 823.522 472.32C832.37 479.986 859.248 479.82 867.929 472.32Z" fill="black"/>
<path fill-rule="evenodd" clip-rule="evenodd" d="M859.745 361.494C862.583 361.827 862.416 369.16 859.745 369.493C860.048 371.478 860.16 373.487 860.079 375.493C858.127 379.777 855.839 383.901 853.234 387.825C848.345 388.271 843.422 388.215 838.543 387.658C836.074 383.626 833.845 379.453 831.865 375.159C831.739 373.325 831.795 371.483 832.032 369.66C829.361 369.16 828.527 361.161 831.865 361.161C831.587 356.882 831.699 352.587 832.199 348.328C832.199 348.328 833.201 345.662 834.37 344.995C841.381 341.162 850.73 340.829 857.408 344.995C858.334 345.961 859.071 347.091 859.578 348.328C859.96 352.707 860.015 357.107 859.745 361.494Z" fill="black"/>
<path fill-rule="evenodd" clip-rule="evenodd" d="M779.279 399.322C779.279 399.322 765.756 412.988 764.588 451.318C764.588 451.318 754.404 455.651 748.728 472.483C745.556 478.982 749.396 505.147 746.391 524.645C747.893 527.812 750.898 534.645 765.422 543.977C768.425 538.93 772.68 534.74 777.776 531.811C776.713 528.581 775.134 525.542 773.102 522.812C773.764 521.878 774.167 520.785 774.271 519.646C772.626 517.73 770.779 515.998 768.761 514.48C766.624 515.466 764.247 515.813 761.917 515.479C765.589 499.481 774.104 495.814 778.11 484.982C780.443 478.184 781.13 470.931 780.114 463.817C780.114 463.817 795.973 451.985 803.653 436.653L786.625 403.322L779.279 399.322Z" fill="black"/>
<path fill-rule="evenodd" clip-rule="evenodd" d="M871.6 490.48C861.75 498.813 857.242 510.812 849.73 514.811C846.963 515.23 844.149 515.23 841.383 514.811C829.363 505.479 833.202 499.479 819.68 490.48L821.516 485.98H869.93L871.6 490.48Z" fill="black"/>
<path fill-rule="evenodd" clip-rule="evenodd" d="M821.016 469.484H870.432C870.014 475.421 870.014 481.38 870.432 487.316C858.078 491.816 837.376 492.316 821.016 487.316C821.684 481.391 821.684 475.41 821.016 469.484Z" fill="black"/>
<path fill-rule="evenodd" clip-rule="evenodd" d="M822.016 485.816C822.016 485.816 800.48 515.147 793.302 568.81C793.857 572.371 793.629 576.011 792.634 579.475C790.631 585.642 787.292 589.141 786.123 596.141C782.951 615.306 788.46 626.971 781.115 651.803C777.943 656.636 766.757 665.302 765.422 671.635C767.592 674.801 772.434 677.134 781.282 676.634C789.963 672.301 787.292 668.801 795.472 661.635C795.978 657.904 795.276 654.108 793.469 650.803C793.469 641.304 802.484 621.139 812.167 608.973C815.839 602.14 813.669 591.808 810.497 581.975C807.325 572.143 818.01 565.477 820.514 561.81C834.871 541.145 841.382 527.313 846.224 506.981C848.728 492.149 833.369 492.149 822.016 485.816Z" fill="black"/>
<path fill-rule="evenodd" clip-rule="evenodd" d="M869.435 485.816C869.435 485.816 890.804 515.147 898.15 568.81C897.504 572.366 897.733 576.027 898.817 579.475C900.821 585.642 904.16 589.141 905.328 596.141C908.333 615.306 902.991 626.971 910.337 651.803C913.509 656.636 924.527 665.302 925.863 671.635C923.859 674.801 919.018 677.134 910.17 676.634C901.322 672.301 903.993 668.801 895.979 661.635C895.361 657.921 896.007 654.107 897.816 650.803C897.816 641.304 888.801 621.139 879.118 608.973C875.612 602.14 877.782 591.808 880.787 581.975C883.792 572.143 873.275 565.31 870.604 561.81C855.912 541.645 849.235 525.813 845.228 506.981C842.557 492.149 858.917 487.316 869.435 485.816Z" fill="black"/>
<path fill-rule="evenodd" clip-rule="evenodd" d="M837.208 410.656C837.208 410.656 787.124 413.323 778.109 397.991L788.794 391.658L790.797 393.324L800.981 385.658L803.652 387.991C807.492 384.992 811.832 381.825 814.504 379.492C819.011 388.991 828.861 401.99 837.208 410.656Z" fill="black"/>
<path fill-rule="evenodd" clip-rule="evenodd" d="M912.166 399.322C912.166 399.322 925.689 413.154 926.69 451.485C926.69 451.485 937.041 455.818 942.717 472.483C945.889 478.982 942.049 505.147 945.054 524.645C943.552 527.978 940.547 534.645 926.022 543.977C923.02 538.93 918.765 534.74 913.669 531.811C914.655 528.548 916.24 525.497 918.343 522.812C917.681 521.878 917.278 520.785 917.174 519.646C918.794 517.755 920.644 516.076 922.684 514.646C924.86 515.488 927.213 515.775 929.528 515.479C925.856 499.481 917.341 495.981 913.335 484.982C911.011 478.183 910.269 470.945 911.164 463.817C911.164 463.817 895.471 451.985 887.625 436.653L904.653 403.322L912.166 399.322Z" fill="black"/>
<path fill-rule="evenodd" clip-rule="evenodd" d="M854.07 410.656C854.07 410.656 907.827 413.656 913.002 397.991L902.485 391.658L900.481 393.324L890.298 385.658L887.626 387.991C883.787 384.992 879.446 381.825 876.775 379.492C872.267 388.991 862.418 401.99 854.07 410.656Z" fill="black"/>
<path fill-rule="evenodd" clip-rule="evenodd" d="M704.321 478.815C707.805 487.909 709.997 497.446 710.832 507.146C712.335 523.812 712.168 536.311 704.989 549.476C706.05 551.615 706.643 553.954 706.73 556.339C706.816 558.723 706.393 561.099 705.49 563.308C705.49 572.474 704.321 609.138 712.001 634.969C713.817 639.371 716.895 643.14 720.849 645.802C727.527 650.801 728.195 650.968 731.367 652.134C734.538 653.301 740.382 652.634 741.216 659.801C741.216 659.801 739.881 662.634 732.368 664.467C724.856 666.3 719.18 664.467 716.842 662.8C714.505 661.134 712.168 658.967 707.493 658.801C702.819 658.634 699.981 659.134 695.64 656.967C695.64 656.967 694.972 646.135 698.144 639.469C698.645 628.97 696.642 617.137 690.298 602.639C681.951 596.306 680.448 582.474 681.116 576.641C681.784 570.808 684.622 562.142 692.802 553.643C690.966 533.644 685.957 536.311 681.951 508.313C679.947 493.647 679.613 481.648 683.954 478.482C688.295 475.316 704.321 478.815 704.321 478.815Z" fill="black"/>
<path fill-rule="evenodd" clip-rule="evenodd" d="M695.471 399.154C702.817 395.821 713.668 400.821 715.004 408.654C718.343 426.486 715.839 433.652 717.341 443.651C728.526 452.817 726.523 461.816 726.69 470.315C726.857 478.815 726.523 489.48 727.191 498.813C727.03 500.022 726.692 501.201 726.189 502.313C725.355 504.146 725.521 508.645 727.024 512.812C726.05 513.687 724.917 514.366 723.685 514.812C721.401 515.968 719.405 517.619 717.842 519.645C716.84 520.978 711.665 516.978 710.496 515.645L709.829 511.145C708.891 511.325 707.928 511.325 706.99 511.145C707.871 508.232 708.155 505.171 707.825 502.146C707.825 502.146 709.495 499.313 715.505 495.647C715.171 476.981 712.667 478.481 706.156 464.982C703.652 460.149 704.82 452.483 706.323 447.484C703.485 443.317 697.308 442.651 693.468 432.985C689.628 423.319 683.785 404.487 695.471 399.154Z" fill="black"/>
<path fill-rule="evenodd" clip-rule="evenodd" d="M669.765 367.326C669.645 367.76 669.589 368.209 669.598 368.659C669.097 372.159 668.096 381.325 666.76 384.491C666.76 384.491 652.403 393.824 648.062 398.99C643.722 404.156 646.56 426.488 646.56 426.488C646.56 426.488 647.228 435.154 661.251 446.153C662.923 454.946 663.817 463.868 663.922 472.818V479.317L688.129 494.316C691.169 493.191 694.125 491.854 696.977 490.316C700.413 487.239 702.902 483.251 704.156 478.817C704.156 478.817 702.82 460.819 702.32 455.652C701.819 450.486 701.485 443.153 701.485 443.153C701.485 443.153 705.492 436.321 705.825 433.987C706.159 431.654 706.159 424.322 706.159 424.322C707.057 423.834 707.846 423.169 708.478 422.366C709.109 421.564 709.57 420.642 709.832 419.655C710.333 416.655 712.169 405.656 704.824 401.49C704.824 401.49 693.305 393.157 688.797 389.658L686.961 368.993L669.765 367.326Z" fill="black"/>
<path fill-rule="evenodd" clip-rule="evenodd" d="M652.071 398.49C647.572 398.487 643.107 399.277 638.882 400.823C624.859 406.156 627.53 426.321 627.363 439.154C627.363 440.82 626.862 443.32 624.859 448.653C621.186 458.152 620.184 459.819 621.186 466.151C623.356 481.65 628.365 488.983 630.201 496.482C630.347 497.866 630.403 499.258 630.368 500.649C630.698 500.961 631.099 501.19 631.537 501.315C631.871 502.815 630.201 509.814 630.201 512.148C630.201 514.481 635.71 517.98 636.545 519.98C637.38 521.98 646.228 521.48 652.071 518.98C652.071 518.98 652.739 514.314 653.407 511.981C653.929 510.198 654.099 508.33 653.907 506.481C652.14 505.094 650.517 503.53 649.066 501.815C647.283 499.925 645.195 498.348 642.889 497.149C641.387 492.483 639.884 486.65 641.553 476.151C643.223 465.651 643.891 462.985 643.39 459.985C642.219 455.239 640.482 450.651 638.215 446.32C639.884 443.153 644.225 441.487 647.063 437.82C649.901 434.154 651.403 427.988 651.737 419.155C653.265 412.362 653.379 405.329 652.071 398.49Z" fill="black"/>
<path fill-rule="evenodd" clip-rule="evenodd" d="M664.256 478.649C662.086 482.982 659.081 488.482 660.75 498.314C655.575 522.479 653.905 530.978 652.904 545.81C652.803 549.426 651.705 552.943 649.732 555.976C648.396 557.809 642.052 564.142 638.212 570.475C634.373 576.808 633.705 579.974 633.538 580.974C633.371 581.974 631.868 594.64 637.211 604.639C637.211 604.639 638.88 615.638 639.381 628.137C639.899 636.286 638.995 644.462 636.71 652.302C635.263 655.855 633.474 659.26 631.368 662.467C629.35 664.947 628.391 668.12 628.696 671.3C629.133 672.887 630.005 674.322 631.214 675.441C632.424 676.56 633.923 677.319 635.541 677.633C641.384 678.799 645.725 677.8 647.728 676.133C649.732 674.467 654.406 671.633 653.905 669.134C653.404 666.634 652.737 666.301 652.57 664.967C653.145 664.483 653.651 663.923 654.072 663.301C654.072 663.301 653.237 650.635 650.232 646.469C650.232 646.469 651.401 617.138 654.74 606.139C658.663 600.491 661.494 594.16 663.087 587.474C663.755 582.807 662.92 567.642 662.253 560.143C681.618 540.977 678.446 541.477 685.959 517.146C688.964 507.147 689.131 495.148 688.129 490.148C687.127 485.149 670.6 473.483 664.256 478.649Z" fill="black"/>
<path fill-rule="evenodd" clip-rule="evenodd" d="M669.093 355.494C670.429 350.661 676.773 348.661 683.117 348.995C689.461 349.328 695.137 353.161 695.972 357.994C696.806 362.827 695.972 364.327 696.305 368.16C695.973 368.895 695.522 369.571 694.97 370.159C695.447 371.438 695.673 372.796 695.638 374.159C692.989 379.327 691.025 384.817 689.795 390.491C687.02 390.794 684.221 390.794 681.447 390.491C677.441 386.491 673.601 379.825 671.431 377.659C671.548 376.208 671.945 374.794 672.599 373.493C668.092 369.826 667.424 361.327 669.093 355.494Z" fill="black"/>
<path fill-rule="evenodd" clip-rule="evenodd" d="M680.449 365.158C680.449 365.158 670.599 355.659 661.25 352.992C661.25 352.992 671.434 362.158 676.108 371.324C680.783 380.49 680.449 365.158 680.449 365.158Z" fill="black"/>
</g>
<mask id="mask0_7102_12749" style="mask-type:alpha" maskUnits="userSpaceOnUse" x="0" y="0" width="1920" height="654">
<rect width="1920" height="654" fill="#C4C4C4"/>
</mask>
<g mask="url(#mask0_7102_12749)">
<g opacity="0.7">
<rect opacity="0.07" x="-894" y="-180" width="160" height="1600" transform="rotate(-30 -894 -180)" fill="url(#paint9_linear_7102_12749)"/>
<rect opacity="0.07" x="-709.438" y="-180" width="160" height="1600" transform="rotate(-30 -709.438 -180)" fill="url(#paint10_linear_7102_12749)"/>
<rect opacity="0.07" x="-524.871" y="-180" width="160" height="1600" transform="rotate(-30 -524.871 -180)" fill="url(#paint11_linear_7102_12749)"/>
<rect opacity="0.07" x="-340.305" y="-180" width="160" height="1600" transform="rotate(-30 -340.305 -180)" fill="url(#paint12_linear_7102_12749)"/>
<rect opacity="0.07" x="-155.742" y="-180" width="160" height="1600" transform="rotate(-30 -155.742 -180)" fill="url(#paint13_linear_7102_12749)"/>
<rect opacity="0.07" x="28.8203" y="-180" width="160" height="1600" transform="rotate(-30 28.8203 -180)" fill="url(#paint14_linear_7102_12749)"/>
<rect opacity="0.07" x="213.387" y="-180" width="160" height="1600" transform="rotate(-30 213.387 -180)" fill="url(#paint15_linear_7102_12749)"/>
<rect opacity="0.07" x="397.953" y="-180" width="160" height="1600" transform="rotate(-30 397.953 -180)" fill="url(#paint16_linear_7102_12749)"/>
<rect opacity="0.07" x="582.516" y="-180" width="160" height="1600" transform="rotate(-30 582.516 -180)" fill="url(#paint17_linear_7102_12749)"/>
<rect opacity="0.07" x="767.078" y="-180" width="160" height="1600" transform="rotate(-30 767.078 -180)" fill="url(#paint18_linear_7102_12749)"/>
<rect opacity="0.07" x="951.645" y="-180" width="160" height="1600" transform="rotate(-30 951.645 -180)" fill="url(#paint19_linear_7102_12749)"/>
<rect opacity="0.07" x="1136.21" y="-180" width="160" height="1600" transform="rotate(-30 1136.21 -180)" fill="url(#paint20_linear_7102_12749)"/>
<rect opacity="0.07" x="1320.77" y="-180" width="160" height="1600" transform="rotate(-30 1320.77 -180)" fill="url(#paint21_linear_7102_12749)"/>
<rect opacity="0.07" x="1505.34" y="-180" width="160" height="1600" transform="rotate(-30 1505.34 -180)" fill="url(#paint22_linear_7102_12749)"/>
<rect opacity="0.07" x="1689.9" y="-180" width="160" height="1600" transform="rotate(-30 1689.9 -180)" fill="url(#paint23_linear_7102_12749)"/>
<rect opacity="0.07" x="1874.47" y="-180" width="160" height="1600" transform="rotate(-30 1874.47 -180)" fill="url(#paint24_linear_7102_12749)"/>
</g>
</g>
<rect width="1920" height="654" fill="url(#paint25_radial_7102_12749)"/>
<defs>
<radialGradient id="paint0_radial_7102_12749" cx="0" cy="0" r="1" gradientUnits="userSpaceOnUse" gradientTransform="translate(960 654) rotate(180) scale(891 523.81)">
<stop offset="0.175" stop-color="#FFE27D"/>
<stop offset="0.592708" stop-color="#64E3FF"/>
<stop offset="0.766666" stop-color="#9092FF"/>
</radialGradient>
<radialGradient id="paint1_radial_7102_12749" cx="0" cy="0" r="1" gradientUnits="userSpaceOnUse" gradientTransform="translate(960 654) rotate(-90) scale(607.619 1033.56)">
<stop offset="0.267746" stop-opacity="0"/>
<stop offset="0.884786"/>
</radialGradient>
<linearGradient id="paint2_linear_7102_12749" x1="960" y1="104" x2="960" y2="654" gradientUnits="userSpaceOnUse">
<stop/>
<stop offset="0.536158" stop-opacity="0"/>
</linearGradient>
<linearGradient id="paint3_linear_7102_12749" x1="1481.32" y1="274" x2="1481.32" y2="667.632" gradientUnits="userSpaceOnUse">
<stop offset="0.22864"/>
<stop offset="0.660515" stop-opacity="0.4"/>
</linearGradient>
<linearGradient id="paint4_linear_7102_12749" x1="1236.71" y1="395.477" x2="1236.71" y2="596.473" gradientUnits="userSpaceOnUse">
<stop offset="0.0822077"/>
<stop offset="0.70411" stop-opacity="0.4"/>
</linearGradient>
<linearGradient id="paint5_linear_7102_12749" x1="584.158" y1="311.926" x2="584.158" y2="425.986" gradientUnits="userSpaceOnUse">
<stop offset="0.333807" stop-opacity="0.4"/>
<stop offset="0.921214"/>
</linearGradient>
<linearGradient id="paint6_linear_7102_12749" x1="1017.44" y1="486.092" x2="1017.44" y2="596.808" gradientUnits="userSpaceOnUse">
<stop offset="0.499806"/>
<stop offset="1" stop-opacity="0.4"/>
</linearGradient>
<linearGradient id="paint7_linear_7102_12749" x1="1072.65" y1="462.557" x2="1091.51" y2="543.73" gradientUnits="userSpaceOnUse">
<stop offset="0.499806"/>
<stop offset="1" stop-opacity="0.4"/>
</linearGradient>
<linearGradient id="paint8_linear_7102_12749" x1="873.268" y1="400.988" x2="873.268" y2="583.473" gradientUnits="userSpaceOnUse">
<stop offset="0.197341"/>
<stop offset="0.843969" stop-opacity="0.4"/>
</linearGradient>
<linearGradient id="paint9_linear_7102_12749" x1="-894" y1="532" x2="-814" y2="532" gradientUnits="userSpaceOnUse">
<stop stop-color="white"/>
<stop offset="1" stop-color="white" stop-opacity="0"/>
</linearGradient>
<linearGradient id="paint10_linear_7102_12749" x1="-709.437" y1="532" x2="-629.437" y2="532" gradientUnits="userSpaceOnUse">
<stop stop-color="white"/>
<stop offset="1" stop-color="white" stop-opacity="0"/>
</linearGradient>
<linearGradient id="paint11_linear_7102_12749" x1="-524.871" y1="532" x2="-444.871" y2="532" gradientUnits="userSpaceOnUse">
<stop stop-color="white"/>
<stop offset="1" stop-color="white" stop-opacity="0"/>
</linearGradient>
<linearGradient id="paint12_linear_7102_12749" x1="-340.305" y1="532" x2="-260.305" y2="532" gradientUnits="userSpaceOnUse">
<stop stop-color="white"/>
<stop offset="1" stop-color="white" stop-opacity="0"/>
</linearGradient>
<linearGradient id="paint13_linear_7102_12749" x1="-155.742" y1="532" x2="-75.7422" y2="532" gradientUnits="userSpaceOnUse">
<stop stop-color="white"/>
<stop offset="1" stop-color="white" stop-opacity="0"/>
</linearGradient>
<linearGradient id="paint14_linear_7102_12749" x1="28.8203" y1="532" x2="108.82" y2="532" gradientUnits="userSpaceOnUse">
<stop stop-color="white"/>
<stop offset="1" stop-color="white" stop-opacity="0"/>
</linearGradient>
<linearGradient id="paint15_linear_7102_12749" x1="213.387" y1="532" x2="293.387" y2="532" gradientUnits="userSpaceOnUse">
<stop stop-color="white"/>
<stop offset="1" stop-color="white" stop-opacity="0"/>
</linearGradient>
<linearGradient id="paint16_linear_7102_12749" x1="397.953" y1="532" x2="477.953" y2="532" gradientUnits="userSpaceOnUse">
<stop stop-color="white"/>
<stop offset="1" stop-color="white" stop-opacity="0"/>
</linearGradient>
<linearGradient id="paint17_linear_7102_12749" x1="582.516" y1="532" x2="662.516" y2="532" gradientUnits="userSpaceOnUse">
<stop stop-color="white"/>
<stop offset="1" stop-color="white" stop-opacity="0"/>
</linearGradient>
<linearGradient id="paint18_linear_7102_12749" x1="767.078" y1="532" x2="847.078" y2="532" gradientUnits="userSpaceOnUse">
<stop stop-color="white"/>
<stop offset="1" stop-color="white" stop-opacity="0"/>
</linearGradient>
<linearGradient id="paint19_linear_7102_12749" x1="951.645" y1="532" x2="1031.64" y2="532" gradientUnits="userSpaceOnUse">
<stop stop-color="white"/>
<stop offset="1" stop-color="white" stop-opacity="0"/>
</linearGradient>
<linearGradient id="paint20_linear_7102_12749" x1="1136.21" y1="532" x2="1216.21" y2="532" gradientUnits="userSpaceOnUse">
<stop stop-color="white"/>
<stop offset="1" stop-color="white" stop-opacity="0"/>
</linearGradient>
<linearGradient id="paint21_linear_7102_12749" x1="1320.77" y1="532" x2="1400.77" y2="532" gradientUnits="userSpaceOnUse">
<stop stop-color="white"/>
<stop offset="1" stop-color="white" stop-opacity="0"/>
</linearGradient>
<linearGradient id="paint22_linear_7102_12749" x1="1505.34" y1="532" x2="1585.34" y2="532" gradientUnits="userSpaceOnUse">
<stop stop-color="white"/>
<stop offset="1" stop-color="white" stop-opacity="0"/>
</linearGradient>
<linearGradient id="paint23_linear_7102_12749" x1="1689.9" y1="532" x2="1769.9" y2="532" gradientUnits="userSpaceOnUse">
<stop stop-color="white"/>
<stop offset="1" stop-color="white" stop-opacity="0"/>
</linearGradient>
<linearGradient id="paint24_linear_7102_12749" x1="1874.47" y1="532" x2="1954.47" y2="532" gradientUnits="userSpaceOnUse">
<stop stop-color="white"/>
<stop offset="1" stop-color="white" stop-opacity="0"/>
</linearGradient>
<radialGradient id="paint25_radial_7102_12749" cx="0" cy="0" r="1" gradientUnits="userSpaceOnUse" gradientTransform="translate(960 327) rotate(90) scale(327 960)">
<stop offset="0.605505" stop-opacity="0"/>
<stop offset="0.954128"/>
</radialGradient>
<clipPath id="clip0_7102_12749">
<rect width="1097" height="380" fill="white" transform="translate(412 274)"/>
</clipPath>
</defs>
</svg>
