<svg width="80" height="80" viewBox="0 0 80 80" fill="none" xmlns="http://www.w3.org/2000/svg">
<circle cx="40" cy="40" r="40" fill="#262626"/>
<path d="M59.2513 19.832H20.7513C19.7384 19.832 18.918 20.6524 18.918 21.6654V28.9987H61.0846V21.6654C61.0846 20.6524 60.2642 19.832 59.2513 19.832ZM23.5013 26.2487C22.4884 26.2487 21.668 25.4283 21.668 24.4154C21.668 23.4024 22.4884 22.582 23.5013 22.582C24.5142 22.582 25.3346 23.4024 25.3346 24.4154C25.3346 25.4283 24.5142 26.2487 23.5013 26.2487ZM29.918 26.2487C28.9051 26.2487 28.0846 25.4283 28.0846 24.4154C28.0846 23.4024 28.9051 22.582 29.918 22.582C30.9309 22.582 31.7513 23.4024 31.7513 24.4154C31.7513 25.4283 30.9309 26.2487 29.918 26.2487ZM36.3346 26.2487C35.3217 26.2487 34.5013 25.4283 34.5013 24.4154C34.5013 23.4024 35.3217 22.582 36.3346 22.582C37.3476 22.582 38.168 23.4024 38.168 24.4154C38.168 25.4283 37.3476 26.2487 36.3346 26.2487Z" fill="#F53DD6"/>
<path fill-rule="evenodd" clip-rule="evenodd" d="M18.918 30.832V58.332C18.918 59.3449 19.7384 60.1654 20.7513 60.1654H59.2513C60.2642 60.1654 61.0846 59.3449 61.0846 58.332V30.832H18.918ZM36.7293 48.9159V50.4744H40.2036V49.4029C40.2036 48.6886 40.3984 48.0175 40.788 47.3898C41.1993 46.7621 41.6863 46.1993 42.2491 45.7014C42.8119 45.2035 43.3747 44.684 43.9375 44.1429C44.5003 43.6017 44.9765 42.909 45.3662 42.0648C45.7775 41.2206 45.9831 40.279 45.9831 39.24C45.9831 37.4217 45.3337 35.9714 44.0349 34.8891C42.7578 33.7852 41.1343 33.2332 39.1645 33.2332C37.303 33.2332 35.5821 33.6986 34.0019 34.6294V38.2659C35.647 37.2485 37.2705 36.7399 38.8723 36.7399C39.8464 36.7399 40.6148 37.0213 41.1776 37.5841C41.7621 38.1252 42.0543 38.8287 42.0543 39.6946C42.0543 40.344 41.8703 40.9609 41.5023 41.5453C41.1343 42.1081 40.6906 42.6168 40.1711 43.0714C39.6516 43.526 39.1321 44.0022 38.6126 44.5C38.093 44.9979 37.6493 45.6256 37.2813 46.3833C36.9133 47.1409 36.7293 47.9851 36.7293 48.9159ZM36.2098 55.2474C36.2098 55.9184 36.4155 56.4596 36.8267 56.8709C37.2597 57.2605 37.8225 57.4553 38.5151 57.4553C39.2078 57.4553 39.7598 57.2605 40.1711 56.8709C40.5824 56.4596 40.788 55.9184 40.788 55.2474C40.788 54.5764 40.5824 54.0352 40.1711 53.6239C39.7598 53.2126 39.2078 53.007 38.5151 53.007C37.8225 53.007 37.2597 53.2126 36.8267 53.6239C36.4155 54.0352 36.2098 54.5764 36.2098 55.2474Z" fill="#F53DD6"/>
</svg>
