<svg width="31" height="36" viewBox="0 0 31 36" fill="none" xmlns="http://www.w3.org/2000/svg">
<path d="M7.71391 11.2402V13.4978C7.71391 14.5623 8.57787 15.4263 9.64239 15.4263H21.2132C21.7247 15.4263 22.2152 15.2231 22.5769 14.8615C22.9385 14.4998 23.1417 14.0093 23.1417 13.4978V11.2402C21.855 10.7853 20.7705 9.89015 20.08 8.71299C19.3895 7.53583 19.1373 6.15244 19.3681 4.80734C19.5989 3.46224 20.2977 2.24203 21.3412 1.36237C22.3846 0.48271 23.7054 0.000244141 25.0702 0.000244141C26.4349 0.000244141 27.7558 0.48271 28.7992 1.36237C29.8426 2.24203 30.5415 3.46224 30.7723 4.80734C31.0031 6.15244 30.7509 7.53583 30.0604 8.71299C29.3698 9.89015 28.2854 10.7853 26.9987 11.2402V13.4978C26.9987 15.0322 26.3891 16.5038 25.3041 17.5887C24.2192 18.6737 22.7476 19.2832 21.2132 19.2832H17.3563V24.755C18.6437 25.2099 19.7288 26.1054 20.4199 27.283C21.1109 28.4607 21.3633 29.8448 21.1325 31.1906C20.9017 32.5364 20.2026 33.7572 19.1587 34.6374C18.1147 35.5175 16.7933 36.0002 15.4278 36.0002C14.0624 36.0002 12.7409 35.5175 11.697 34.6374C10.653 33.7572 9.95389 32.5364 9.72309 31.1906C9.4923 29.8448 9.74473 28.4607 10.4358 27.283C11.1268 26.1054 12.2119 25.2099 13.4993 24.755V19.2832H9.64239C8.108 19.2832 6.63645 18.6737 5.55147 17.5887C4.4665 16.5038 3.85696 15.0322 3.85696 13.4978V11.2402C2.57026 10.7853 1.4858 9.89015 0.795254 8.71299C0.104711 7.53583 -0.147453 6.15244 0.0833304 4.80734C0.314113 3.46224 1.01298 2.24203 2.05642 1.36237C3.09986 0.48271 4.42068 0.000244141 5.78544 0.000244141C7.15019 0.000244141 8.47101 0.48271 9.51445 1.36237C10.5579 2.24203 11.2568 3.46224 11.4875 4.80734C11.7183 6.15244 11.4662 7.53583 10.7756 8.71299C10.0851 9.89015 9.00062 10.7853 7.71391 11.2402ZM7.71391 5.78392C7.71391 5.27246 7.51073 4.78194 7.14907 4.42028C6.78742 4.05862 6.2969 3.85545 5.78544 3.85545C5.27397 3.85545 4.78346 4.05862 4.4218 4.42028C4.06014 4.78194 3.85696 5.27246 3.85696 5.78392C3.85696 6.29538 4.06014 6.7859 4.4218 7.14756C4.78346 7.50922 5.27397 7.7124 5.78544 7.7124C6.2969 7.7124 6.78742 7.50922 7.14907 7.14756C7.51073 6.7859 7.71391 6.29538 7.71391 5.78392ZM25.0702 7.7124C25.5816 7.7124 26.0722 7.50922 26.4338 7.14756C26.7955 6.7859 26.9987 6.29538 26.9987 5.78392C26.9987 5.27246 26.7955 4.78194 26.4338 4.42028C26.0722 4.05862 25.5816 3.85545 25.0702 3.85545C24.5587 3.85545 24.0682 4.05862 23.7065 4.42028C23.3449 4.78194 23.1417 5.27246 23.1417 5.78392C23.1417 6.29538 23.3449 6.7859 23.7065 7.14756C24.0682 7.50922 24.5587 7.7124 25.0702 7.7124ZM17.3563 30.2113C17.3563 29.6998 17.1531 29.2093 16.7914 28.8476C16.4298 28.486 15.9393 28.2828 15.4278 28.2828C14.9163 28.2828 14.4258 28.486 14.0642 28.8476C13.7025 29.2093 13.4993 29.6998 13.4993 30.2113C13.4993 30.7227 13.7025 31.2132 14.0642 31.5749C14.4258 31.9366 14.9163 32.1397 15.4278 32.1397C15.9393 32.1397 16.4298 31.9366 16.7914 31.5749C17.1531 31.2132 17.3563 30.7227 17.3563 30.2113Z" fill="url(#paint0_linear_18141_14838)"/>
<defs>
<linearGradient id="paint0_linear_18141_14838" x1="0" y1="0.000244141" x2="116.24" y2="-110.044" gradientUnits="userSpaceOnUse">
<stop offset="0.272388" stop-color="#B7E3F0"/>
<stop offset="0.836942" stop-color="white" stop-opacity="0.7"/>
</linearGradient>
</defs>
</svg>
