<svg width="34" height="36" viewBox="0 0 34 36" fill="none" xmlns="http://www.w3.org/2000/svg">
<path d="M0.0034885 6.61736C0.00380004 5.58603 0.287601 4.57464 0.823875 3.6937C1.36015 2.81277 2.12826 2.0962 3.04426 1.62231C3.96026 1.14841 4.9889 0.93543 6.01777 1.00664C7.04664 1.07784 8.03613 1.4305 8.87812 2.02606C9.7201 2.62163 10.3822 3.43718 10.792 4.38359C11.2018 5.33 11.3435 6.37085 11.2018 7.39239C11.06 8.41393 10.6402 9.37684 9.98814 10.1759C9.3361 10.9749 8.47696 11.5794 7.50462 11.9232V25.0651C8.75653 25.5075 9.81173 26.3783 10.4837 27.5235C11.1557 28.6687 11.4011 30.0146 11.1767 31.3232C10.9523 32.6319 10.2724 33.8191 9.25728 34.675C8.24214 35.5308 6.95712 36.0002 5.62934 36.0002C4.30156 36.0002 3.01653 35.5308 2.0014 34.675C0.986265 33.8191 0.306397 32.6319 0.0819698 31.3232C-0.142457 30.0146 0.103007 28.6687 0.774975 27.5235C1.44694 26.3783 2.50214 25.5075 3.75405 25.0651V11.9232C2.65692 11.5353 1.70707 10.8167 1.03536 9.86645C0.36365 8.91621 0.003137 7.78105 0.0034885 6.61736ZM14.1981 6.17479L20.189 0.18389C20.2765 0.0962436 20.3879 0.0365289 20.5093 0.0123168C20.6307 -0.0118953 20.7566 0.000485376 20.871 0.0478894C20.9853 0.0952935 21.083 0.175586 21.1517 0.278588C21.2204 0.38159 21.2569 0.502663 21.2567 0.626457V4.74208H23.7571C25.4149 4.74208 27.0049 5.40066 28.1772 6.57294C29.3494 7.74522 30.008 9.33517 30.008 10.993V25.0651C31.2599 25.5075 32.3151 26.3783 32.9871 27.5235C33.6591 28.6687 33.9045 30.0146 33.6801 31.3232C33.4557 32.6319 32.7758 33.8191 31.7607 34.675C30.7455 35.5308 29.4605 36.0002 28.1327 36.0002C26.8049 36.0002 25.5199 35.5308 24.5048 34.675C23.4897 33.8191 22.8098 32.6319 22.5854 31.3232C22.3609 30.0146 22.6064 28.6687 23.2784 27.5235C23.9503 26.3783 25.0055 25.5075 26.2574 25.0651V10.993C26.2574 10.3299 25.994 9.6939 25.5251 9.22499C25.0562 8.75608 24.4202 8.49264 23.7571 8.49264H21.2567V12.6083C21.2569 12.7321 21.2204 12.8531 21.1517 12.9561C21.083 13.0591 20.9853 13.1394 20.871 13.1868C20.7566 13.2342 20.6307 13.2466 20.5093 13.2224C20.3879 13.1982 20.2765 13.1385 20.189 13.0508L14.1981 7.05993C14.1399 7.00186 14.0937 6.93288 14.0622 6.85694C14.0307 6.781 14.0145 6.69958 14.0145 6.61736C14.0145 6.53514 14.0307 6.45373 14.0622 6.37778C14.0937 6.30184 14.1399 6.23286 14.1981 6.17479ZM5.62934 4.74208C5.13198 4.74208 4.65499 4.93965 4.30331 5.29134C3.95163 5.64302 3.75405 6.12001 3.75405 6.61736C3.75405 7.11472 3.95163 7.5917 4.30331 7.94339C4.65499 8.29507 5.13198 8.49264 5.62934 8.49264C6.12669 8.49264 6.60368 8.29507 6.95536 7.94339C7.30705 7.5917 7.50462 7.11472 7.50462 6.61736C7.50462 6.12001 7.30705 5.64302 6.95536 5.29134C6.60368 4.93965 6.12669 4.74208 5.62934 4.74208ZM5.62934 28.4957C5.13198 28.4957 4.65499 28.6932 4.30331 29.0449C3.95163 29.3966 3.75405 29.8736 3.75405 30.3709C3.75405 30.8683 3.95163 31.3453 4.30331 31.697C4.65499 32.0487 5.13198 32.2462 5.62934 32.2462C6.12669 32.2462 6.60368 32.0487 6.95536 31.697C7.30705 31.3453 7.50462 30.8683 7.50462 30.3709C7.50462 29.8736 7.30705 29.3966 6.95536 29.0449C6.60368 28.6932 6.12669 28.4957 5.62934 28.4957ZM26.2574 30.3709C26.2574 30.8683 26.455 31.3453 26.8067 31.697C27.1584 32.0487 27.6354 32.2462 28.1327 32.2462C28.6301 32.2462 29.1071 32.0487 29.4588 31.697C29.8104 31.3453 30.008 30.8683 30.008 30.3709C30.008 29.8736 29.8104 29.3966 29.4588 29.0449C29.1071 28.6932 28.6301 28.4957 28.1327 28.4957C27.6354 28.4957 27.1584 28.6932 26.8067 29.0449C26.455 29.3966 26.2574 29.8736 26.2574 30.3709Z" fill="url(#paint0_linear_18141_14852)"/>
<defs>
<linearGradient id="paint0_linear_18141_14852" x1="0.000976562" y1="0.000244141" x2="163.687" y2="-155.626" gradientUnits="userSpaceOnUse">
<stop offset="0.185607" stop-color="#FFCEE6"/>
<stop offset="0.836942" stop-color="white" stop-opacity="0.7"/>
</linearGradient>
</defs>
</svg>
