<svg width="40" height="40" viewBox="0 0 40 40" fill="none" xmlns="http://www.w3.org/2000/svg">
<path fill-rule="evenodd" clip-rule="evenodd" d="M40 20C40 31.0457 31.0457 40 20 40C8.9543 40 0 31.0457 0 20C0 8.9543 8.9543 0 20 0C31.0457 0 40 8.9543 40 20ZM17.2503 17.25V13.5833C17.2503 12.0672 18.4842 10.8333 20.0003 10.8333C21.5165 10.8333 22.7503 12.0672 22.7503 13.5833V14.5H24.5837V13.5833C24.5837 11.0561 22.5276 9 20.0003 9C17.4731 9 15.417 11.0561 15.417 13.5833V17.25H13.584C12.0678 17.25 10.834 18.4838 10.834 20V27.3333C10.834 28.8495 12.0678 30.0833 13.584 30.0833H26.4173C27.9335 30.0833 29.1673 28.8495 29.1673 27.3333V20C29.1673 18.4838 27.9335 17.25 26.4173 17.25H17.2503ZM20.9173 26.4167V24.3285C21.4627 24.0104 21.834 23.4256 21.834 22.75C21.834 21.7389 21.0117 20.9167 20.0007 20.9167C18.9896 20.9167 18.1673 21.7389 18.1673 22.75C18.1673 23.4256 18.5386 24.0104 19.084 24.3285V26.4167H20.9173Z" fill="url(#paint0_linear_23889_10020)"/>
<defs>
<linearGradient id="paint0_linear_23889_10020" x1="20" y1="0" x2="20" y2="40" gradientUnits="userSpaceOnUse">
<stop stop-color="white"/>
<stop offset="1" stop-color="white" stop-opacity="0.6"/>
</linearGradient>
</defs>
</svg>
