<svg width="40" height="40" viewBox="0 0 40 40" fill="none" xmlns="http://www.w3.org/2000/svg">
<path fill-rule="evenodd" clip-rule="evenodd" d="M20 40C31.0457 40 40 31.0457 40 20C40 8.9543 31.0457 0 20 0C8.9543 0 0 8.9543 0 20C0 31.0457 8.9543 40 20 40ZM17.9375 25.5C19.2747 25.5 20.532 25.1511 21.6231 24.5395L26.1043 29.0207C26.5065 29.4228 27.0345 29.6236 27.5625 29.6236C28.0905 29.6236 28.6185 29.4228 29.0207 29.0207C29.4098 28.6308 29.625 28.1132 29.625 27.5618C29.625 27.0104 29.4098 26.4934 29.0207 26.1043L24.5395 21.6231C25.1511 20.532 25.5 19.2747 25.5 17.9375C25.5 13.7678 22.1072 10.375 17.9375 10.375C13.7678 10.375 10.375 13.7678 10.375 17.9375C10.375 22.1072 13.7678 25.5 17.9375 25.5ZM17.9375 11.75C14.5254 11.75 11.75 14.5261 11.75 17.9375C11.75 21.3489 14.5254 24.125 17.9375 24.125C21.3496 24.125 24.125 21.3489 24.125 17.9375C24.125 14.5261 21.3496 11.75 17.9375 11.75ZM22.75 17.9375C22.75 20.5954 20.5954 22.75 17.9375 22.75C15.2796 22.75 13.125 20.5954 13.125 17.9375C13.125 15.2796 15.2796 13.125 17.9375 13.125C20.5954 13.125 22.75 15.2796 22.75 17.9375Z" fill="url(#paint0_linear_24448_18353)"/>
<defs>
<linearGradient id="paint0_linear_24448_18353" x1="20" y1="0" x2="20" y2="40" gradientUnits="userSpaceOnUse">
<stop stop-color="white"/>
<stop offset="1" stop-color="white" stop-opacity="0.6"/>
</linearGradient>
</defs>
</svg>
