<svg width="40" height="40" viewBox="0 0 40 40" fill="none" xmlns="http://www.w3.org/2000/svg">
<path fill-rule="evenodd" clip-rule="evenodd" d="M40 20C40 31.0457 31.0457 40 20 40C8.9543 40 0 31.0457 0 20C0 8.9543 8.9543 0 20 0C31.0457 0 40 8.9543 40 20ZM15.875 9H14.5V11.0625H12.4375C10.9209 11.0625 9.6875 12.2959 9.6875 13.8125V26.1277C9.6875 27.6766 10.9477 28.9375 12.4973 28.9375H19.3125V27.5625H12.4973C11.7067 27.5625 11.0625 26.919 11.0625 26.1277V17.9375H28.9375V20H30.3125V13.8125C30.3125 12.2959 29.0791 11.0625 27.5625 11.0625H25.5V9H24.125V11.0625H15.875V9ZM15.875 14.5H14.5V12.4375H15.875V14.5ZM25.5 14.5H24.125V12.4375H25.5V14.5ZM20 25.5C20 22.4626 22.4626 20 25.5 20C28.5374 20 31 22.4626 31 25.5C31 28.5374 28.5374 31 25.5 31C22.4626 31 20 28.5374 20 25.5ZM24.8125 25.8678L27.7529 27.8286L28.5161 26.6846L26.1875 25.1322V22.75H24.8125V25.8678Z" fill="url(#paint0_linear_24270_5244)"/>
<defs>
<linearGradient id="paint0_linear_24270_5244" x1="20" y1="0" x2="20" y2="40" gradientUnits="userSpaceOnUse">
<stop stop-color="white"/>
<stop offset="1" stop-color="white" stop-opacity="0.6"/>
</linearGradient>
</defs>
</svg>
