<svg width="20" height="20" viewBox="0 0 20 20" fill="none" xmlns="http://www.w3.org/2000/svg">
<path d="M0 20L5.29117 18.8242C6.6944 19.5746 8.2975 20 10 20C15.5228 20 20 15.5228 20 10C20 4.47715 15.5228 0 10 0C4.47715 0 0 4.47715 0 10C0 11.7025 0.42544 13.3056 1.17581 14.7088L0 20ZM13.4487 5L13.2737 7.00024H15V9.0002H13.0987L12.9237 11.0002H15V13.0002H12.7488L12.5738 15H10.5662L10.7411 13.0002H8.7335L8.5585 15H6.55089L6.72584 13.0002H5V11.0002H6.90082L7.0758 9.0002H5V7.00024H7.25077L7.42577 5H9.4334L9.2584 7.00024H11.2661L11.4411 5H13.4487ZM9.0834 9.0002L8.9085 11.0002H10.9161L11.0911 9.0002H9.0834Z" fill="white"/>
</svg>
