<svg width="40" height="40" viewBox="0 0 40 40" fill="none" xmlns="http://www.w3.org/2000/svg">
<path fill-rule="evenodd" clip-rule="evenodd" d="M20 40C31.0457 40 40 31.0457 40 20C40 8.9543 31.0457 0 20 0C8.9543 0 0 8.9543 0 20C0 31.0457 8.9543 40 20 40ZM11.0625 11.9023L20 9.66797L28.9375 11.9023V20.6893C28.9375 27.2968 20.5734 30.1603 20.2173 30.2792L20 30.3514L19.7827 30.2792C19.4266 30.1603 11.0625 27.2962 11.0625 20.6893V11.9023ZM14.9029 20.6886L18.3094 24.0952L18.3088 24.0938L25.0958 16.5086L24.0707 15.5922L18.2531 22.0945L15.875 19.7165L14.9029 20.6886Z" fill="url(#paint0_linear_24448_18340)"/>
<defs>
<linearGradient id="paint0_linear_24448_18340" x1="20" y1="0" x2="20" y2="38.01" gradientUnits="userSpaceOnUse">
<stop stop-color="white"/>
<stop offset="1" stop-color="white" stop-opacity="0.6"/>
</linearGradient>
</defs>
</svg>
