<svg width="40" height="40" viewBox="0 0 40 40" fill="none" xmlns="http://www.w3.org/2000/svg">
<path fill-rule="evenodd" clip-rule="evenodd" d="M40 20C40 31.0457 31.0457 40 20 40C8.9543 40 0 31.0457 0 20C0 8.9543 8.9543 0 20 0C31.0457 0 40 8.9543 40 20ZM17.2493 9.91687H11.7493C10.7368 9.91687 9.91602 10.7377 9.91602 11.7502V17.2502C9.91602 18.2627 10.7368 19.0835 11.7493 19.0835H17.2493C18.2619 19.0835 19.0827 18.2627 19.0827 17.2502V11.7502C19.0827 10.7377 18.2619 9.91687 17.2493 9.91687ZM26.7646 9.52463L30.4743 13.2335C30.8096 13.57 30.9978 14.0257 30.9978 14.5008C30.9978 14.9758 30.8096 15.4315 30.4743 15.768L26.7646 19.4769C26.4284 19.8117 25.9732 19.9997 25.4987 19.9997C25.0242 19.9997 24.569 19.8117 24.2328 19.4769L20.523 15.7671C20.188 15.4306 20 14.9751 20 14.5003C20 14.0255 20.188 13.57 20.523 13.2335L24.2328 9.52463C24.569 9.18977 25.0242 9.00177 25.4987 9.00177C25.9732 9.00177 26.4284 9.18977 26.7646 9.52463ZM28.2493 20.9169H22.7493C21.7368 20.9169 20.916 21.7377 20.916 22.7502V28.2502C20.916 29.2627 21.7368 30.0835 22.7493 30.0835H28.2493C29.2619 30.0835 30.0827 29.2627 30.0827 28.2502V22.7502C30.0827 21.7377 29.2619 20.9169 28.2493 20.9169ZM11.7493 20.9169H17.2493C18.2619 20.9169 19.0827 21.7377 19.0827 22.7502V28.2502C19.0827 29.2627 18.2619 30.0835 17.2493 30.0835H11.7493C10.7368 30.0835 9.91602 29.2627 9.91602 28.2502V22.7502C9.91602 21.7377 10.7368 20.9169 11.7493 20.9169Z" fill="url(#paint0_linear_23889_9944)"/>
<defs>
<linearGradient id="paint0_linear_23889_9944" x1="20" y1="0" x2="20" y2="38.01" gradientUnits="userSpaceOnUse">
<stop stop-color="white"/>
<stop offset="1" stop-color="white" stop-opacity="0.6"/>
</linearGradient>
</defs>
</svg>
