<svg width="40" height="40" viewBox="0 0 40 40" fill="none" xmlns="http://www.w3.org/2000/svg">
<path fill-rule="evenodd" clip-rule="evenodd" d="M20 40C31.0457 40 40 31.0457 40 20C40 8.9543 31.0457 0 20 0C8.9543 0 0 8.9543 0 20C0 31.0457 8.9543 40 20 40ZM20.4583 13.5846H30.0833C30.3264 13.5846 30.5596 13.6812 30.7315 13.8531C30.9034 14.025 31 14.2582 31 14.5013V27.3346C31 28.064 30.7103 28.7635 30.1945 29.2792C29.6788 29.7949 28.9793 30.0846 28.25 30.0846H11.75C11.0207 30.0846 10.3212 29.7949 9.80546 29.2792C9.28973 28.7635 9 28.064 9 27.3346V10.8346C9 10.5915 9.09658 10.3584 9.26849 10.1865C9.44039 10.0145 9.67355 9.91797 9.91667 9.91797H17.7083L20.4583 13.5846ZM16.2682 25.5013H19.0833V23.668H16.3168C15.8457 23.6704 15.3923 23.4888 15.053 23.162C14.7137 22.8352 14.5153 22.3889 14.5 21.9181V21.8181C14.4955 21.5845 14.5373 21.3524 14.6229 21.1349C14.7085 20.9175 14.8362 20.7192 14.9987 20.5513C15.1719 20.3735 15.3796 20.2329 15.6092 20.1384C15.8387 20.0438 16.0851 19.9971 16.3333 20.0013H19.0833V18.168H16.2169C15.2626 18.1853 14.3539 18.5793 13.6888 19.2639C13.0238 19.9485 12.6563 20.8683 12.6667 21.8227V21.952C12.6851 22.8966 13.0721 23.7966 13.745 24.4597C14.4179 25.1229 15.3235 25.4967 16.2682 25.5013ZM22.4815 21.1865C22.3096 21.0145 22.0764 20.918 21.8333 20.918H18.1667C17.9236 20.918 17.6904 21.0145 17.5185 21.1865C17.3466 21.3584 17.25 21.5915 17.25 21.8346C17.25 22.0778 17.3466 22.3109 17.5185 22.4828C17.6904 22.6547 17.9236 22.7513 18.1667 22.7513H21.8333C22.0764 22.7513 22.3096 22.6547 22.4815 22.4828C22.6534 22.3109 22.75 22.0778 22.75 21.8346C22.75 21.5915 22.6534 21.3584 22.4815 21.1865ZM26.3106 24.4049C26.9756 23.7203 27.3432 22.8008 27.3333 21.8465V21.7173C27.3091 20.7632 26.9113 19.8568 26.2256 19.193C25.5399 18.5293 24.621 18.1612 23.6667 18.168H20.9167V20.0013H23.6841C23.9183 19.9969 24.1511 20.0388 24.3691 20.1244C24.5872 20.21 24.7862 20.3378 24.9549 20.5004C25.1235 20.663 25.2585 20.8572 25.352 21.072C25.4455 21.2868 25.4958 21.5179 25.5 21.7521V21.853C25.5082 22.3228 25.3307 22.7768 25.0062 23.1166C24.6817 23.4564 24.2363 23.6545 23.7666 23.668H20.9167V25.5013H23.7831C24.7372 25.4835 25.6457 25.0894 26.3106 24.4049Z" fill="url(#paint0_linear_24270_5186)"/>
<defs>
<linearGradient id="paint0_linear_24270_5186" x1="20" y1="0" x2="20" y2="40" gradientUnits="userSpaceOnUse">
<stop stop-color="white"/>
<stop offset="1" stop-color="white" stop-opacity="0.6"/>
</linearGradient>
</defs>
</svg>
