<svg width="40" height="40" viewBox="0 0 40 40" fill="none" xmlns="http://www.w3.org/2000/svg">
<path fill-rule="evenodd" clip-rule="evenodd" d="M20 40C31.0457 40 40 31.0457 40 20C40 8.9543 31.0457 0 20 0C8.9543 0 0 8.9543 0 20C0 31.0457 8.9543 40 20 40ZM28.2539 13.9084L20.0039 18.4917L11.7539 13.9084L19.5584 9.57257C19.6947 9.4968 19.848 9.45703 20.0039 9.45703C20.1598 9.45703 20.3131 9.4968 20.4494 9.57257L28.2539 13.9084ZM19.0859 20.0794L10.8359 15.496V25.0404C10.8359 25.2038 10.8796 25.3642 10.9625 25.5051C11.0453 25.646 11.1643 25.7621 11.3071 25.8415L19.0859 30.1627V20.0794ZM20.918 30.1618V20.0785L29.168 15.4961V25.0395C29.168 25.2029 29.1243 25.3634 29.0415 25.5042C28.9586 25.6451 28.8396 25.7613 28.6968 25.8407L20.918 30.1618Z" fill="url(#paint0_linear_24878_9144)"/>
<defs>
<linearGradient id="paint0_linear_24878_9144" x1="20" y1="0" x2="20" y2="38.01" gradientUnits="userSpaceOnUse">
<stop stop-color="white"/>
<stop offset="1" stop-color="white" stop-opacity="0.6"/>
</linearGradient>
</defs>
</svg>
