<svg width="12" height="15" viewBox="0 0 12 15" fill="none" xmlns="http://www.w3.org/2000/svg">
<path d="M6.55905 0.458763L5.61621 5.02041C5.6113 5.05836 5.61517 5.09693 5.62751 5.13314C5.63985 5.16936 5.66034 5.20227 5.68739 5.22933C5.71445 5.25638 5.74736 5.27687 5.78358 5.28921C5.8198 5.30155 5.85836 5.30542 5.89631 5.30051H10.7781C10.8589 5.30769 10.9367 5.33441 11.0049 5.37838C11.073 5.42234 11.1295 5.48222 11.1694 5.55286C11.2092 5.6235 11.2313 5.70278 11.2338 5.78386C11.2362 5.86493 11.2188 5.94538 11.1832 6.01827L5.8663 14.7464C5.81897 14.8399 5.74132 14.9145 5.64608 14.958C5.55083 15.0016 5.44362 15.0116 5.34196 14.9863C5.24031 14.9611 5.15024 14.9021 5.08649 14.819C5.02273 14.7358 4.98906 14.6336 4.99098 14.5288L5.92882 9.1569C5.92882 8.96933 5.77377 9.03186 5.5862 9.03186H0.469353C0.12673 9.03186 -0.123361 8.53168 0.064207 8.21906L5.68624 0.241184C5.73568 0.151177 5.81353 0.0800643 5.90763 0.0389352C6.00173 -0.00219393 6.1068 -0.0110272 6.20644 0.013813C6.30609 0.0386532 6.39471 0.0957707 6.4585 0.176258C6.52228 0.256744 6.55764 0.356076 6.55905 0.458763Z" fill="white"/>
</svg>
