<svg width="40" height="40" viewBox="0 0 40 40" fill="none" xmlns="http://www.w3.org/2000/svg">
<path fill-rule="evenodd" clip-rule="evenodd" d="M20 40C31.0457 40 40 31.0457 40 20C40 8.9543 31.0457 0 20 0C8.9543 0 0 8.9543 0 20C0 31.0457 8.9543 40 20 40ZM10.375 13.125C10.375 11.6084 11.6084 10.375 13.125 10.375H26.875C28.3916 10.375 29.625 11.6084 29.625 13.125V26.875C29.625 28.3916 28.3916 29.625 26.875 29.625H13.125C11.6084 29.625 10.375 28.3916 10.375 26.875V13.125ZM16.5625 15.875H13.8125V17.25H16.5625V19.3125H17.9375V13.8125H16.5625V15.875ZM13.8125 24.125H20.6875V22.75H13.8125V24.125ZM23.4375 24.125H26.1875V22.75H23.4375V20.6875H22.0625V26.1875H23.4375V24.125ZM19.3125 17.25H26.1875V15.875H19.3125V17.25Z" fill="url(#paint0_linear_24270_5172)"/>
<defs>
<linearGradient id="paint0_linear_24270_5172" x1="20" y1="0" x2="20" y2="40" gradientUnits="userSpaceOnUse">
<stop stop-color="white"/>
<stop offset="1" stop-color="white" stop-opacity="0.6"/>
</linearGradient>
</defs>
</svg>
