<svg width="22" height="22" viewBox="0 0 22 22" fill="none" xmlns="http://www.w3.org/2000/svg">
<g clip-path="url(#clip0_18765_21233)">
<path d="M15.0574 8.10586C15.1218 8.10603 15.1854 8.09172 15.2435 8.06397C15.3016 8.03622 15.3527 7.99576 15.393 7.94557C15.4333 7.89539 15.4618 7.83677 15.4764 7.77407C15.491 7.71137 15.4913 7.64619 15.4773 7.58336C15.2537 6.56655 14.6906 5.65617 13.8806 5.00203C13.0707 4.3479 12.0622 3.98901 11.0211 3.98442C9.97998 3.97983 8.96835 4.32982 8.15267 4.97679C7.337 5.62376 6.76589 6.52915 6.53334 7.54395C6.51773 7.61123 6.51753 7.68116 6.53275 7.74853C6.54797 7.8159 6.57822 7.87896 6.62124 7.93299C6.66425 7.98703 6.71892 8.03064 6.78117 8.06058C6.84341 8.09051 6.91161 8.10599 6.98068 8.10586H15.0574Z" stroke="white" stroke-width="1.5" stroke-linecap="round" stroke-linejoin="round"/>
<path d="M7.33594 0.773438C7.33594 0.773438 7.33594 1.18594 7.33594 1.6901C7.34144 2.7296 8.1756 3.72144 8.8026 4.54185" stroke="white" stroke-width="1.5" stroke-linecap="round" stroke-linejoin="round"/>
<path d="M14.6762 0.773438C14.6762 0.773438 14.6762 1.18594 14.6762 1.6901C14.668 2.73144 13.8274 3.72144 13.2013 4.5446" stroke="white" stroke-width="1.5" stroke-linecap="round" stroke-linejoin="round"/>
<path d="M6.41797 9.9375V15.4375C6.41797 17.3817 9.12305 20.1253 10.3761 21.2932C10.5458 21.4512 10.769 21.539 11.0008 21.539C11.2327 21.539 11.4559 21.4512 11.6256 21.2932C12.8786 20.1281 15.5846 17.3836 15.5846 15.4393V9.93933L6.41797 9.9375Z" stroke="white" stroke-width="1.5" stroke-linecap="round" stroke-linejoin="round"/>
<path d="M6.41797 9.94141H5.27214C4.00255 9.94141 3.17664 10.8911 2.29297 11.7747" stroke="white" stroke-width="1.5" stroke-linecap="round" stroke-linejoin="round"/>
<path d="M6.41797 13.6094H5.27214C4.00255 13.6094 3.17664 14.559 2.29297 15.4427" stroke="white" stroke-width="1.5" stroke-linecap="round" stroke-linejoin="round"/>
<path d="M6.99692 17.2734H5.72917C4.45958 17.2734 3.63367 18.224 2.75 19.1068" stroke="white" stroke-width="1.5" stroke-linecap="round" stroke-linejoin="round"/>
<path d="M15.5859 9.94141H16.7318C18.0014 9.94141 18.8273 10.8911 19.7109 11.7747" stroke="white" stroke-width="1.5" stroke-linecap="round" stroke-linejoin="round"/>
<path d="M15.5859 13.6094H16.7318C18.0014 13.6094 18.8273 14.559 19.7109 15.4427" stroke="white" stroke-width="1.5" stroke-linecap="round" stroke-linejoin="round"/>
<path d="M15.0039 17.2734H16.2717C17.5412 17.2734 18.3672 18.224 19.2508 19.1068" stroke="white" stroke-width="1.5" stroke-linecap="round" stroke-linejoin="round"/>
</g>
<defs>
<clipPath id="clip0_18765_21233">
<rect width="22" height="22" fill="white"/>
</clipPath>
</defs>
</svg>
