<svg width="40" height="40" viewBox="0 0 40 40" fill="none" xmlns="http://www.w3.org/2000/svg">
<path fill-rule="evenodd" clip-rule="evenodd" d="M40 20C40 31.0457 31.0457 40 20 40C8.9543 40 0 31.0457 0 20C0 8.9543 8.9543 0 20 0C31.0457 0 40 8.9543 40 20ZM21.832 12.6641H30.082V14.4974H21.832V12.6641ZM30.082 21.832H21.832V23.6654H30.082V21.832ZM21.832 16.332H25.4987V18.1654H21.832V16.332ZM25.4987 25.5H21.832V27.3333H25.4987V25.5ZM10.832 22.7474C10.832 21.7348 11.6528 20.9141 12.6654 20.9141H17.2487C18.2612 20.9141 19.082 21.7348 19.082 22.7474V27.3307C19.082 28.3433 18.2612 29.1641 17.2487 29.1641H12.6654C11.6528 29.1641 10.832 28.3433 10.832 27.3307V22.7474ZM12.6654 10.832C11.6528 10.832 10.832 11.6528 10.832 12.6654V17.2487C10.832 18.2612 11.6528 19.082 12.6654 19.082H17.2487C18.2612 19.082 19.082 18.2612 19.082 17.2487V12.6654C19.082 11.6528 18.2612 10.832 17.2487 10.832H12.6654Z" fill="url(#paint0_linear_24270_5227)"/>
<defs>
<linearGradient id="paint0_linear_24270_5227" x1="20" y1="0" x2="20" y2="40" gradientUnits="userSpaceOnUse">
<stop stop-color="white"/>
<stop offset="1" stop-color="white" stop-opacity="0.6"/>
</linearGradient>
</defs>
</svg>
