<svg width="40" height="40" viewBox="0 0 40 40" fill="none" xmlns="http://www.w3.org/2000/svg">
<path fill-rule="evenodd" clip-rule="evenodd" d="M40 20C40 31.0457 31.0457 40 20 40C8.9543 40 0 31.0457 0 20C0 8.9543 8.9543 0 20 0C31.0457 0 40 8.9543 40 20ZM14.5026 25.5002H13.1276C11.8644 25.5002 10.8359 24.4717 10.8359 23.2085V13.1252C10.8359 11.862 11.8644 10.8335 13.1276 10.8335H23.2109C24.4741 10.8335 25.5026 11.862 25.5026 13.1252V14.5002H26.8776C28.1408 14.5002 29.1693 15.5287 29.1693 16.7918V26.8752C29.1693 28.1383 28.1408 29.1668 26.8776 29.1668H16.7943C15.5311 29.1668 14.5026 28.1383 14.5026 26.8752V25.5002ZM14.5026 23.6668H13.1276C12.8746 23.6668 12.6693 23.4615 12.6693 23.2085V13.1252C12.6693 12.8722 12.8746 12.6668 13.1276 12.6668H23.2109C23.4639 12.6668 23.6693 12.8722 23.6693 13.1252V14.5002H16.7943C15.5311 14.5002 14.5026 15.5287 14.5026 16.7918V23.6668ZM22.7526 22.7502H25.5026V20.9168H22.7526V18.1668H20.9193V20.9168H18.1693V22.7502H20.9193V25.5002H22.7526V22.7502Z" fill="url(#paint0_linear_25222_109579)"/>
<defs>
<linearGradient id="paint0_linear_25222_109579" x1="20" y1="0" x2="20" y2="40" gradientUnits="userSpaceOnUse">
<stop stop-color="white"/>
<stop offset="1" stop-color="white" stop-opacity="0.6"/>
</linearGradient>
</defs>
</svg>
