<svg width="20" height="20" viewBox="0 0 20 20" fill="none" xmlns="http://www.w3.org/2000/svg">
<path d="M8.41406 3.75H5.625H4.21094H3.75V4.09375V5.625V7.20312V10.6797L0.0078125 7.91016C0.0703125 7.20312 0.433594 6.54687 1.01172 6.12109L1.875 5.48047V3.75C1.875 2.71484 2.71484 1.875 3.75 1.875H6.74219L8.69141 0.433594C9.07031 0.152344 9.52734 0 10 0C10.4727 0 10.9297 0.152344 11.3086 0.429688L13.2578 1.875H16.25C17.2852 1.875 18.125 2.71484 18.125 3.75V5.48047L18.9883 6.12109C19.5664 6.54687 19.9297 7.20312 19.9922 7.91016L16.25 10.6797V7.20312V5.625V4.09375V3.75H15.7891H14.375H11.5859H8.41016H8.41406ZM0 17.5V9.45703L8.5 15.7539C8.93359 16.0742 9.46094 16.25 10 16.25C10.5391 16.25 11.0664 16.0781 11.5 15.7539L20 9.45703V17.5C20 18.8789 18.8789 20 17.5 20H2.5C1.12109 20 0 18.8789 0 17.5ZM6.875 6.25H13.125C13.4688 6.25 13.75 6.53125 13.75 6.875C13.75 7.21875 13.4688 7.5 13.125 7.5H6.875C6.53125 7.5 6.25 7.21875 6.25 6.875C6.25 6.53125 6.53125 6.25 6.875 6.25ZM6.875 8.75H13.125C13.4688 8.75 13.75 9.03125 13.75 9.375C13.75 9.71875 13.4688 10 13.125 10H6.875C6.53125 10 6.25 9.71875 6.25 9.375C6.25 9.03125 6.53125 8.75 6.875 8.75Z" fill="white"/>
</svg>
