<svg width="40" height="40" viewBox="0 0 40 40" fill="none" xmlns="http://www.w3.org/2000/svg">
<path fill-rule="evenodd" clip-rule="evenodd" d="M20 40C31.0457 40 40 31.0457 40 20C40 8.9543 31.0457 0 20 0C8.9543 0 0 8.9543 0 20C0 31.0457 8.9543 40 20 40ZM15.1875 17.5938C14.618 17.5938 14.1562 18.0555 14.1562 18.625C14.1562 19.1945 14.618 19.6562 15.1875 19.6562C15.757 19.6562 16.2188 19.1945 16.2188 18.625C16.2188 18.0555 15.757 17.5938 15.1875 17.5938ZM18.9688 18.625C18.9688 18.0555 19.4305 17.5938 20 17.5938C20.5695 17.5938 21.0312 18.0555 21.0312 18.625C21.0312 19.1945 20.5695 19.6562 20 19.6562C19.4305 19.6562 18.9688 19.1945 18.9688 18.625ZM12.4375 12.4375C10.9187 12.4375 9.6875 13.6687 9.6875 15.1875V22.0625C9.6875 23.5813 10.9187 24.8125 12.4375 24.8125H20V23.4375H12.4375C11.6781 23.4375 11.0625 22.8219 11.0625 22.0625V15.1875C11.0625 14.4281 11.6781 13.8125 12.4375 13.8125H27.5625C28.3219 13.8125 28.9375 14.4281 28.9375 15.1875V17.25H30.3125V15.1875C30.3125 13.6687 29.0813 12.4375 27.5625 12.4375H12.4375ZM21.375 23.0938C21.375 22.1445 22.1445 21.375 23.0938 21.375H23.4375V20C23.4375 18.4812 24.6687 17.25 26.1875 17.25C27.7063 17.25 28.9375 18.4812 28.9375 20V21.375H29.2812C30.2304 21.375 30.9999 22.1445 30.9999 23.0938V25.8438C30.9999 26.793 30.2304 27.5625 29.2812 27.5625H23.0938C22.1445 27.5625 21.375 26.793 21.375 25.8438V23.0938ZM27.5625 21.375V20C27.5625 19.2406 26.9469 18.625 26.1875 18.625C25.4281 18.625 24.8125 19.2406 24.8125 20V21.375H27.5625Z" fill="url(#paint0_linear_24448_18395)"/>
<defs>
<linearGradient id="paint0_linear_24448_18395" x1="20" y1="0" x2="20" y2="40" gradientUnits="userSpaceOnUse">
<stop stop-color="white"/>
<stop offset="1" stop-color="white" stop-opacity="0.6"/>
</linearGradient>
</defs>
</svg>
