<svg width="40" height="40" viewBox="0 0 40 40" fill="none" xmlns="http://www.w3.org/2000/svg">
<path fill-rule="evenodd" clip-rule="evenodd" d="M40 20C40 31.0457 31.0457 40 20 40C8.9543 40 0 31.0457 0 20C0 8.9543 8.9543 0 20 0C31.0457 0 40 8.9543 40 20ZM20 9.66797L11.0625 11.9023V20.6893C11.0625 27.2962 19.4266 30.1603 19.7827 30.2792L20 30.3514L20.2173 30.2792C20.5734 30.1603 28.9375 27.2968 28.9375 20.6893V11.9023L20 9.66797ZM24.125 22.7518C24.125 23.5101 23.5083 24.1268 22.75 24.1268H17.25C16.4917 24.1268 15.875 23.5101 15.875 22.7518V20.0018C15.875 19.2435 16.4917 18.6268 17.25 18.6268V16.5643C17.25 15.0477 18.4834 13.8143 20 13.8143C21.5166 13.8143 22.75 15.0477 22.75 16.5643V18.6268C23.5083 18.6268 24.125 19.2435 24.125 20.0018V22.7518ZM20 15.1875C20.7583 15.1875 21.375 15.8042 21.375 16.5625V18.625H18.625V16.5625C18.625 15.8042 19.2417 15.1875 20 15.1875Z" fill="url(#paint0_linear_24878_9186)"/>
<defs>
<linearGradient id="paint0_linear_24878_9186" x1="20" y1="0" x2="20" y2="40" gradientUnits="userSpaceOnUse">
<stop stop-color="white"/>
<stop offset="1" stop-color="white" stop-opacity="0.6"/>
</linearGradient>
</defs>
</svg>
