<svg width="40" height="40" viewBox="0 0 40 40" fill="none" xmlns="http://www.w3.org/2000/svg">
<circle cx="20" cy="20" r="20" fill="url(#paint0_linear_18141_15305)"/>
<path fill-rule="evenodd" clip-rule="evenodd" d="M23.5 24.7483C26.4485 23.4143 28.5 20.4467 28.5 17C28.5 12.3056 24.6944 8.5 20 8.5C15.3056 8.5 11.5 12.3056 11.5 17C11.5 20.4467 13.5515 23.4143 16.5 24.7483V27.5H23.5V24.7483ZM23.5 29V30C23.5 31.1046 22.6046 32 21.5 32H18.5C17.3954 32 16.5 31.1046 16.5 30V29H23.5ZM17.5303 16.4697C17.2374 16.1768 16.7626 16.1768 16.4697 16.4697C16.1768 16.7626 16.1768 17.2374 16.4697 17.5303L19.4697 20.5303C19.7626 20.8232 20.2374 20.8232 20.5303 20.5303L23.5303 17.5303C23.8232 17.2374 23.8232 16.7626 23.5303 16.4697C23.2374 16.1768 22.7626 16.1768 22.4697 16.4697L20 18.9393L17.5303 16.4697Z" fill="black"/>
<defs>
<linearGradient id="paint0_linear_18141_15305" x1="20" y1="0" x2="20" y2="40" gradientUnits="userSpaceOnUse">
<stop stop-color="white"/>
<stop offset="1" stop-color="white" stop-opacity="0.6"/>
</linearGradient>
</defs>
</svg>
