<svg width="18" height="20" viewBox="0 0 18 20" fill="none" xmlns="http://www.w3.org/2000/svg">
<path d="M8.74925 0C8.05785 0 7.49925 0.558594 7.49925 1.25V2C4.64769 2.57813 2.49925 5.10156 2.49925 8.125V8.85938C2.49925 10.6953 1.82347 12.4687 0.604721 13.8437L0.315659 14.168C-0.0124665 14.5352 -0.0905915 15.0625 0.108627 15.5117C0.307846 15.9609 0.757065 16.25 1.24925 16.25H16.2493C16.7414 16.25 17.1868 15.9609 17.3899 15.5117C17.593 15.0625 17.511 14.5352 17.1828 14.168L16.8938 13.8437C15.675 12.4687 14.9993 10.6992 14.9993 8.85938V8.125C14.9993 5.10156 12.8508 2.57813 9.99925 2V1.25C9.99925 0.558594 9.44066 0 8.74925 0ZM10.5188 19.2695C10.9875 18.8008 11.2493 18.1641 11.2493 17.5H8.74925H6.24925C6.24925 18.1641 6.51097 18.8008 6.97972 19.2695C7.44847 19.7383 8.08519 20 8.74925 20C9.41331 20 10.05 19.7383 10.5188 19.2695Z" fill="white"/>
</svg>
