<svg width="40" height="40" viewBox="0 0 40 40" fill="none" xmlns="http://www.w3.org/2000/svg">
<path fill-rule="evenodd" clip-rule="evenodd" d="M40 20C40 31.0457 31.0457 40 20 40C8.9543 40 0 31.0457 0 20C0 8.9543 8.9543 0 20 0C31.0457 0 40 8.9543 40 20ZM20.3792 23.6669L22.2125 21.8335L20.9164 20.5374L19.083 22.3707L17.6292 20.9169L19.4625 19.0835L18.1664 17.7874L16.333 19.6207L15.1148 18.4034C14.9429 18.2315 14.7098 18.135 14.4667 18.135C14.2236 18.135 13.9905 18.2315 13.8186 18.4034L12.4436 19.7784C11.5242 20.6966 10.9602 21.9113 10.8521 23.2062C10.744 24.5012 11.0988 25.7925 11.8533 26.8505L9.26829 29.4355C9.18074 29.52 9.11091 29.6212 9.06287 29.733C9.01482 29.8448 8.98954 29.9651 8.98848 30.0868C8.98742 30.2086 9.01061 30.3293 9.05671 30.4419C9.1028 30.5546 9.17086 30.6569 9.25693 30.743C9.343 30.8291 9.44534 30.8971 9.558 30.9432C9.67066 30.9893 9.79136 31.0125 9.91308 31.0114C10.0348 31.0104 10.1551 30.9851 10.2669 30.937C10.3787 30.889 10.4799 30.8192 10.5645 30.7316L13.1495 28.1466C14.2076 28.9012 15.4992 29.256 16.7944 29.1477C18.0895 29.0395 19.3043 28.4752 20.2225 27.5554L21.5975 26.1804C21.7693 26.0085 21.8658 25.7754 21.8658 25.5323C21.8658 25.2892 21.7693 25.0561 21.5975 24.8842L20.3792 23.6669ZM25.533 21.8653C25.2899 21.8653 25.0568 21.7688 24.8849 21.5969L18.4023 15.1161C18.2304 14.9442 18.1339 14.7111 18.1339 14.468C18.1339 14.2249 18.2304 13.9918 18.4023 13.8199L19.7773 12.4449C20.6954 11.5251 21.9102 10.9608 23.2054 10.8526C24.5005 10.7443 25.7921 11.099 26.8503 11.8537L29.4353 9.26866C29.5198 9.18111 29.621 9.11127 29.7328 9.06323C29.8446 9.01519 29.9649 8.9899 30.0866 8.98884C30.2084 8.98779 30.3291 9.01098 30.4417 9.05707C30.5544 9.10316 30.6567 9.17123 30.7428 9.2573C30.8289 9.34336 30.8969 9.44571 30.943 9.55837C30.9891 9.67102 31.0123 9.79173 31.0112 9.91344C31.0102 10.0352 30.9849 10.1554 30.9368 10.2673C30.8888 10.3791 30.819 10.4803 30.7314 10.5648L28.1464 13.1498C28.9009 14.2078 29.2557 15.4991 29.1476 16.7941C29.0395 18.089 28.4755 19.3037 27.5561 20.2219L26.1811 21.5969C26.0092 21.7688 25.7761 21.8653 25.533 21.8653Z" fill="url(#paint0_linear_23889_9982)"/>
<defs>
<linearGradient id="paint0_linear_23889_9982" x1="20" y1="0" x2="20" y2="40" gradientUnits="userSpaceOnUse">
<stop stop-color="white"/>
<stop offset="1" stop-color="white" stop-opacity="0.6"/>
</linearGradient>
</defs>
</svg>
