<svg width="40" height="40" viewBox="0 0 40 40" fill="none" xmlns="http://www.w3.org/2000/svg">
<path fill-rule="evenodd" clip-rule="evenodd" d="M20 40C31.0457 40 40 31.0457 40 20C40 8.9543 31.0457 0 20 0C8.9543 0 0 8.9543 0 20C0 31.0457 8.9543 40 20 40ZM29.1679 19.9987C29.1679 22.1959 28.3887 24.2144 27.0944 25.7957L29.5474 28.2487L28.2512 29.5449L25.7982 27.0919C24.2179 28.3862 22.1985 29.1654 20.0012 29.1654C17.804 29.1654 15.7855 28.3862 14.2042 27.0919L11.7512 29.5449L10.4551 28.2487L12.9081 25.7957C11.6137 24.2154 10.8346 22.1969 10.8346 19.9987C10.8346 14.9442 14.9467 10.832 20.0012 10.832C25.0557 10.832 29.1679 14.9442 29.1679 19.9987ZM19.0846 20.3782L22.7512 24.0449L24.0474 22.7487L20.9179 19.6192V14.4987H19.0846V20.3782ZM26.8764 9.07864L25.5801 10.375L29.626 14.4209L30.9224 13.1246L26.8764 9.07864ZM9.08008 13.125L13.126 9.07905L14.4224 10.3754L10.3764 14.4214L9.08008 13.125Z" fill="url(#paint0_linear_24270_5199)"/>
<defs>
<linearGradient id="paint0_linear_24270_5199" x1="20" y1="0" x2="20" y2="40" gradientUnits="userSpaceOnUse">
<stop stop-color="white"/>
<stop offset="1" stop-color="white" stop-opacity="0.6"/>
</linearGradient>
</defs>
</svg>
