<svg width="40" height="40" viewBox="0 0 40 40" fill="none" xmlns="http://www.w3.org/2000/svg">
<path fill-rule="evenodd" clip-rule="evenodd" d="M20 40C31.0457 40 40 31.0457 40 20C40 8.9543 31.0457 0 20 0C8.9543 0 0 8.9543 0 20C0 31.0457 8.9543 40 20 40ZM27.3563 16.15C28.3531 17.4906 29.35 18.8312 29.9 19.5875C30.5875 20.4125 31 21.5125 31 22.75C31 25.775 28.525 28.25 25.5 28.25C22.475 28.25 20 25.775 20 22.75C20 25.775 17.525 28.25 14.5 28.25C11.475 28.25 9 25.775 9 22.75C9 21.5125 9.4125 20.4125 10.1 19.5875C11.2 17.9375 14.0875 14.0875 15.1875 12.7125C15.7375 12.1625 16.425 11.75 17.25 11.75C18.7625 11.75 20 12.9875 20 14.5C20 12.9875 21.2375 11.75 22.75 11.75C23.575 11.75 24.2625 12.1625 24.8125 12.7125C25.3625 13.4688 26.3594 14.8094 27.3563 16.15ZM11.75 22.75C11.75 24.2625 12.9875 25.5 14.5 25.5C16.0125 25.5 17.25 24.2625 17.25 22.75C17.25 21.2375 16.0125 20 14.5 20C12.9875 20 11.75 21.2375 11.75 22.75ZM22.75 22.75C22.75 24.2625 23.9875 25.5 25.5 25.5C27.0125 25.5 28.25 24.2625 28.25 22.75C28.25 21.2375 27.0125 20 25.5 20C23.9875 20 22.75 21.2375 22.75 22.75Z" fill="url(#paint0_linear_23889_9996)"/>
<defs>
<linearGradient id="paint0_linear_23889_9996" x1="20" y1="0" x2="20" y2="40" gradientUnits="userSpaceOnUse">
<stop stop-color="white"/>
<stop offset="1" stop-color="white" stop-opacity="0.6"/>
</linearGradient>
</defs>
</svg>
