<svg width="40" height="40" viewBox="0 0 40 40" fill="none" xmlns="http://www.w3.org/2000/svg">
<path fill-rule="evenodd" clip-rule="evenodd" d="M20 40C31.0457 40 40 31.0457 40 20C40 8.9543 31.0457 0 20 0C8.9543 0 0 8.9543 0 20C0 31.0457 8.9543 40 20 40ZM31 20.2782C31 14.0489 26.0753 9 20 9C13.9258 9 9 14.0489 9 20.2782C9 25.2612 12.1515 29.4896 16.5229 30.9801C17.0718 31.0846 17.2742 30.7357 17.2742 30.4376C17.2742 30.3064 17.2718 30.027 17.2688 29.6656C17.2656 29.2876 17.2616 28.8199 17.2588 28.3381C14.1986 29.0201 13.5529 27.0071 13.5529 27.0071C13.0524 25.7036 12.3319 25.3571 12.3319 25.3571C11.3342 24.6575 12.4067 24.6718 12.4067 24.6718C13.5111 24.751 14.093 25.8346 14.093 25.8346C15.0742 27.5583 16.667 27.0595 17.294 26.7713C17.393 26.042 17.6779 25.5453 17.9925 25.2637C15.5494 24.9788 12.9809 24.0104 12.9809 19.6896C12.9809 18.4576 13.411 17.4522 14.1139 16.6624C14.0006 16.3775 13.6233 15.2303 14.2206 13.6771C14.2206 13.6771 15.1446 13.3749 17.2467 14.8335C18.1245 14.5838 19.065 14.4582 20 14.4538C20.935 14.4582 21.8766 14.5838 22.7555 14.8335C24.8554 13.3749 25.7772 13.6771 25.7772 13.6771C26.3767 15.2303 25.9994 16.3775 25.885 16.6624C26.5912 17.4522 27.018 18.4576 27.018 19.6896C27.018 24.0214 24.444 24.9751 21.9943 25.2545C22.3892 25.6043 22.7412 26.2907 22.7412 27.3423C22.7412 28.3509 22.7353 29.2278 22.7314 29.8095C22.7295 30.0983 22.728 30.3143 22.728 30.4376C22.728 30.7379 22.926 31.0902 23.4837 30.9791C27.8518 29.4864 31 25.2601 31 20.2782Z" fill="url(#paint0_linear_24448_18412)"/>
<defs>
<linearGradient id="paint0_linear_24448_18412" x1="20" y1="0" x2="20" y2="40" gradientUnits="userSpaceOnUse">
<stop stop-color="white"/>
<stop offset="1" stop-color="white" stop-opacity="0.6"/>
</linearGradient>
</defs>
</svg>
