<svg width="40" height="40" viewBox="0 0 40 40" fill="none" xmlns="http://www.w3.org/2000/svg">
<circle cx="20" cy="20" r="20" fill="url(#paint0_linear_23889_10009)"/>
<path d="M30.6027 23.5033L28.1169 21.5717C28.2121 21.0535 28.2603 20.5273 28.2609 20C28.2593 19.4726 28.2101 18.9464 28.1139 18.4283L30.6012 16.4975C30.6741 16.441 30.7243 16.3592 30.7424 16.2674C30.7604 16.1755 30.7451 16.0801 30.6992 15.9991L28.7279 12.4997C28.6823 12.4188 28.6094 12.3577 28.523 12.328C28.4366 12.2983 28.3426 12.302 28.2586 12.3383L25.3794 13.5857C24.5992 12.8964 23.7009 12.3616 22.7302 12.0086L22.3432 8.8358C22.3319 8.74311 22.288 8.65783 22.2197 8.596C22.1514 8.53416 22.0634 8.50003 21.9723 8.5H18.0289C17.9378 8.50003 17.8498 8.53416 17.7815 8.596C17.7132 8.65783 17.6693 8.74311 17.658 8.8358L17.271 12.0086C16.3002 12.3612 15.4017 12.8957 14.6214 13.5849L11.7422 12.3375C11.6583 12.3012 11.5642 12.2975 11.4778 12.3272C11.3914 12.357 11.3186 12.418 11.273 12.4989L9.30055 16.0003C9.25468 16.0813 9.23932 16.1767 9.25737 16.2685C9.27542 16.3603 9.32563 16.4422 9.39852 16.4986L11.8866 18.4283C11.6944 19.4669 11.6944 20.5331 11.8866 21.5717L9.39852 23.5025C9.32563 23.559 9.27542 23.6408 9.25737 23.7326C9.23932 23.8244 9.25468 23.9199 9.30055 24.0008L11.2719 27.5014C11.3174 27.5824 11.3903 27.6434 11.4767 27.6731C11.5631 27.7029 11.6572 27.6992 11.7411 27.6628L14.6203 26.4155C15.4009 27.1048 16.2997 27.6391 17.271 27.9914L17.6576 31.1642C17.6689 31.2569 17.7129 31.3422 17.7812 31.404C17.8495 31.4658 17.9374 31.5 18.0286 31.5H21.9723C22.0634 31.5 22.1514 31.4658 22.2197 31.404C22.288 31.3422 22.3319 31.2569 22.3432 31.1642L22.7302 27.9914C23.7011 27.6388 24.5995 27.1043 25.3798 26.4151L28.259 27.6624C28.343 27.6988 28.437 27.7025 28.5234 27.6728C28.6098 27.643 28.6827 27.582 28.7283 27.5011L30.6996 24.0005C30.7452 23.9197 30.7606 23.8247 30.7428 23.7331C30.7249 23.6416 30.6751 23.5599 30.6027 23.5033ZM20.0006 24.2167C19.1871 24.2167 18.3919 23.9694 17.7155 23.506C17.0391 23.0427 16.5119 22.3841 16.2006 21.6136C15.8893 20.8432 15.8078 19.9953 15.9665 19.1774C16.1252 18.3594 16.517 17.6081 17.0922 17.0184C17.6674 16.4287 18.4003 16.0271 19.1982 15.8644C19.9961 15.7017 20.8231 15.7852 21.5746 16.1043C22.3262 16.4235 22.9686 16.9639 23.4205 17.6573C23.8725 18.3508 24.1137 19.166 24.1137 20C24.1137 21.1183 23.6804 22.1909 22.909 22.9816C22.1377 23.7724 21.0915 24.2167 20.0006 24.2167Z" fill="black"/>
<defs>
<linearGradient id="paint0_linear_23889_10009" x1="20" y1="0" x2="20" y2="40" gradientUnits="userSpaceOnUse">
<stop stop-color="white"/>
<stop offset="1" stop-color="white" stop-opacity="0.6"/>
</linearGradient>
</defs>
</svg>
