<svg width="20" height="20" viewBox="0 0 20 20" fill="none" xmlns="http://www.w3.org/2000/svg">
<path d="M10 20C5.28595 20 2.92893 20 1.46447 18.5355C-1.14441e-07 17.0711 0 14.714 0 10C0 5.28595 -1.14441e-07 2.92893 1.46447 1.46447C2.92893 -1.14441e-07 5.28595 0 10 0C11.3988 0 12.59 -1.78814e-08 13.612 0.03826C12.9196 0.82967 12.5 1.86584 12.5 3C12.5 5.48528 14.5147 7.5 17 7.5C18.1342 7.5 19.1703 7.08042 19.9617 6.38802C20 7.40999 20 8.6012 20 10C20 14.714 20 17.0711 18.5355 18.5355C17.0711 20 14.714 20 10 20Z" fill="white"/>
<path d="M20 3C20 4.65685 18.6569 6 17 6C15.3431 6 14 4.65685 14 3C14 1.34315 15.3431 0 17 0C18.6569 0 20 1.34315 20 3Z" fill="#FF8585"/>
</svg>
