<svg width="40" height="40" viewBox="0 0 40 40" fill="none" xmlns="http://www.w3.org/2000/svg">
<path fill-rule="evenodd" clip-rule="evenodd" d="M40 20C40 31.0457 31.0457 40 20 40C8.9543 40 0 31.0457 0 20C0 8.9543 8.9543 0 20 0C31.0457 0 40 8.9543 40 20ZM29.4616 16.5865C29.188 17.0957 28.8821 17.5869 28.5458 18.0571C28.9031 19.2131 29.0208 20.4299 28.8918 21.633C28.7629 22.8362 28.3899 24.0003 27.7958 25.0544L26.6119 23.5461C26.5395 23.4548 26.4448 23.3837 26.3369 23.3398L23.8867 22.3031C23.7627 22.2503 23.6258 22.2354 23.4934 22.2604L20.5949 22.7994C20.479 22.8209 20.3706 22.8719 20.28 22.9474C20.1895 23.0229 20.1199 23.1204 20.0779 23.2305L19.0728 25.8732C19.0201 26.0121 19.0138 26.1643 19.0549 26.3071L19.6853 28.5071L19.2041 29.5885C17.4991 29.4345 15.8749 28.7911 14.527 27.7357L15.099 27.4854C15.2214 27.4326 15.3256 27.3451 15.3988 27.2338L16.573 25.4518C16.6684 25.3071 16.7055 25.1317 16.6771 24.9608C16.6487 24.7898 16.5568 24.6359 16.4197 24.5299L14.7374 23.2278L14.0643 22.0246L13.4738 20.7919L14.7113 19.3234L16.8666 18.9247C17.0177 18.8967 17.1551 18.8188 17.2568 18.7035C17.3585 18.5882 17.4186 18.4422 17.4276 18.2887L17.5479 16.2304C17.5579 16.0608 17.5047 15.8935 17.3987 15.7608L16.188 14.2442L15.2393 13.1373C16.1456 12.5605 17.1491 12.1528 18.201 11.9342C18.3606 11.4042 18.5961 10.9 18.9002 10.4375C16.737 10.6682 14.702 11.5763 13.0857 13.0323C11.4694 14.4883 10.3543 16.4177 9.89976 18.5451C9.44519 20.6725 9.67433 22.8891 10.5545 24.8786C11.4346 26.868 12.9208 28.5285 14.8008 29.6231C16.6808 30.7177 18.8585 31.1903 21.0231 30.9736C23.1877 30.7569 25.2285 29.8618 26.8542 28.4163C28.4799 26.9707 29.6073 25.0485 30.0755 22.924C30.5438 20.7996 30.3289 18.5815 29.4616 16.5865ZM22.3121 9.33516C22.8912 9.10513 23.5098 8.99141 24.1328 9.00051C24.7558 8.99141 25.3745 9.10513 25.9535 9.33516C26.5325 9.56519 27.0605 9.90703 27.5074 10.3412C27.9543 10.7753 28.3113 11.2932 28.558 11.8653C28.8048 12.4374 28.9363 13.0525 28.9453 13.6755C28.9453 16.2252 25.4018 19.7073 24.6993 20.3977C24.663 20.4333 24.6343 20.4615 24.6141 20.4818C24.552 20.5469 24.4773 20.5988 24.3946 20.6342C24.3119 20.6696 24.2228 20.6879 24.1328 20.6879C24.0428 20.6879 23.9538 20.6696 23.871 20.6342C23.7883 20.5988 23.7136 20.5469 23.6516 20.4818C23.6313 20.4615 23.6026 20.4333 23.5664 20.3977C22.8638 19.7073 19.3203 16.2252 19.3203 13.6755C19.3293 13.0525 19.4609 12.4374 19.7076 11.8653C19.9543 11.2932 20.3113 10.7753 20.7582 10.3412C21.2051 9.90703 21.7331 9.56519 22.3121 9.33516ZM23.3689 14.9563C23.595 15.1074 23.8609 15.188 24.1328 15.188C24.4972 15.1869 24.8463 15.0417 25.1039 14.7841C25.3615 14.5264 25.5067 14.1773 25.5078 13.813C25.5078 13.5411 25.4272 13.2752 25.2761 13.0491C25.125 12.823 24.9103 12.6467 24.659 12.5427C24.4078 12.4386 24.1313 12.4114 23.8646 12.4644C23.5978 12.5175 23.3528 12.6484 23.1605 12.8407C22.9682 13.033 22.8373 13.278 22.7842 13.5448C22.7312 13.8115 22.7584 14.0879 22.8625 14.3392C22.9665 14.5904 23.1428 14.8052 23.3689 14.9563Z" fill="url(#paint0_linear_24448_18368)"/>
<defs>
<linearGradient id="paint0_linear_24448_18368" x1="20" y1="0" x2="20" y2="40" gradientUnits="userSpaceOnUse">
<stop stop-color="white"/>
<stop offset="1" stop-color="white" stop-opacity="0.6"/>
</linearGradient>
</defs>
</svg>
