<svg width="40" height="40" viewBox="0 0 40 40" fill="none" xmlns="http://www.w3.org/2000/svg">
<path fill-rule="evenodd" clip-rule="evenodd" d="M20 40C31.0457 40 40 31.0457 40 20C40 8.9543 31.0457 0 20 0C8.9543 0 0 8.9543 0 20C0 31.0457 8.9543 40 20 40ZM19.0833 25.4987C19.0833 27.5237 17.4417 29.1654 15.4167 29.1654C13.3916 29.1654 11.75 27.5237 11.75 25.4987V12.207C11.75 11.4476 12.3656 10.832 13.125 10.832H17.7083C18.4677 10.832 19.0833 11.4476 19.0833 12.207V25.4987ZM15.4167 24.1237C14.6573 24.1237 14.0417 24.7393 14.0417 25.4987C14.0417 26.2581 14.6573 26.8737 15.4167 26.8737C16.1761 26.8737 16.7917 26.2581 16.7917 25.4987C16.7917 24.7393 16.1761 24.1237 15.4167 24.1237ZM13.5833 15.4154V13.582H17.25V15.4154H13.5833ZM25.9572 20.9141L20.897 25.9742C20.8263 26.797 20.5745 27.5681 20.1816 28.2474H27.7924C28.5518 28.2474 29.1674 27.6318 29.1674 26.8724V22.2891C29.1674 21.5297 28.5518 20.9141 27.7924 20.9141H25.9572ZM27.3341 22.7474H25.5008V26.4141H27.3341V22.7474ZM20.916 23.3628L27.3547 16.9241C27.8917 16.3871 27.8917 15.5165 27.3547 14.9796L24.1137 11.7387C23.5768 11.2017 22.7062 11.2017 22.1692 11.7387L20.916 12.9919V23.3628ZM21.2632 15.2259L22.5595 13.9295L25.1522 16.5222L23.8559 17.8186L21.2632 15.2259Z" fill="url(#paint0_linear_24270_5259)"/>
<defs>
<linearGradient id="paint0_linear_24270_5259" x1="20" y1="0" x2="20" y2="40" gradientUnits="userSpaceOnUse">
<stop stop-color="white"/>
<stop offset="1" stop-color="white" stop-opacity="0.6"/>
</linearGradient>
</defs>
</svg>
