<svg width="20" height="20" viewBox="0 0 20 20" fill="none" xmlns="http://www.w3.org/2000/svg">
<path d="M10.001 18.5673C15.5239 18.5673 20 14.412 20 9.28364C20 4.15532 15.5239 0 10.001 0C4.47814 0 0.00202924 4.15532 0.00202924 9.28364C0.00202924 11.2966 0.693365 13.1578 1.86512 14.6798C1.79091 15.7733 1.41985 16.7463 1.02927 17.4872C0.814447 17.8978 0.595719 18.2281 0.435579 18.4512C0.353556 18.5628 0.291062 18.6476 0.244192 18.7056C0.220757 18.7324 0.205134 18.7547 0.193416 18.7681L0.181699 18.7815C0.00202924 18.9868 -0.0487469 19.2903 0.0488995 19.5581C0.146546 19.8259 0.373085 20 0.626966 20C1.74795 20 2.87674 19.6028 3.81414 19.1386C4.70858 18.6923 5.47022 18.1611 5.93502 17.7728C7.17708 18.2861 8.55194 18.5717 10.001 18.5717V18.5673ZM3.75165 8.06963C3.75165 7.16358 4.39611 6.42714 5.189 6.42714H5.93893C6.28264 6.42714 6.56386 6.74849 6.56386 7.14126C6.56386 7.53403 6.28264 7.85539 5.93893 7.85539H5.189C5.08355 7.85539 5.00152 7.95358 5.00152 8.06963C5.00152 8.14104 5.03277 8.20799 5.08745 8.24816L6.23577 9.12296C6.63807 9.42647 6.87633 9.93975 6.87633 10.4932C6.87633 11.3992 6.23187 12.1357 5.43898 12.1357L4.37659 12.1401C4.03287 12.1401 3.75165 11.8188 3.75165 11.426C3.75165 11.0333 4.03287 10.7119 4.37659 10.7119H5.43898C5.54444 10.7119 5.62646 10.6137 5.62646 10.4977C5.62646 10.4262 5.59521 10.3593 5.54053 10.3191L4.39221 9.44432C3.99381 9.13635 3.75165 8.62308 3.75165 8.06963ZM14.5631 6.42714H15.313C15.6567 6.42714 15.9379 6.74849 15.9379 7.14126C15.9379 7.53403 15.6567 7.85539 15.313 7.85539H14.5631C14.4576 7.85539 14.3756 7.95358 14.3756 8.06963C14.3756 8.14104 14.4068 8.20799 14.4615 8.24816L15.6098 9.12296C16.0082 9.42647 16.2504 9.93975 16.2504 10.4932C16.2504 11.3992 15.6059 12.1357 14.813 12.1357L13.7506 12.1401C13.4069 12.1401 13.1257 11.8188 13.1257 11.426C13.1257 11.0333 13.4069 10.7119 13.7506 10.7119H14.813C14.9185 10.7119 15.0005 10.6137 15.0005 10.4977C15.0005 10.4262 14.9693 10.3593 14.9146 10.3191L13.7663 9.44432C13.3679 9.14082 13.1257 8.62754 13.1257 8.07409C13.1257 7.16804 13.7702 6.4316 14.5631 6.4316V6.42714ZM8.62615 6.71279L10.001 8.80607L11.3759 6.71279C11.536 6.46731 11.8172 6.36465 12.075 6.46284C12.3328 6.56104 12.5008 6.8333 12.5008 7.14126V11.426C12.5008 11.8188 12.2195 12.1401 11.8758 12.1401C11.5321 12.1401 11.2509 11.8188 11.2509 11.426V9.28364L10.501 10.4262C10.3838 10.6048 10.1963 10.7119 10.001 10.7119C9.80572 10.7119 9.61824 10.6048 9.50107 10.4262L8.75114 9.28364V11.426C8.75114 11.8188 8.46992 12.1401 8.1262 12.1401C7.78249 12.1401 7.50127 11.8188 7.50127 11.426V7.14126C7.50127 6.8333 7.67313 6.56104 7.92701 6.46284C8.18089 6.36465 8.46211 6.46731 8.62615 6.71279Z" fill="white"/>
</svg>
