<svg width="40" height="40" viewBox="0 0 40 40" fill="none" xmlns="http://www.w3.org/2000/svg">
<path fill-rule="evenodd" clip-rule="evenodd" d="M20 40C31.0457 40 40 31.0457 40 20C40 8.9543 31.0457 0 20 0C8.9543 0 0 8.9543 0 20C0 31.0457 8.9543 40 20 40ZM28 20V22H28.002H30.944C30.666 25.096 29.12 27.9 26.583 29.801L26.316 30H13.686L13.419 29.801C10.882 27.9 9.336 25.096 9.058 22H12V20H9.051C9.258 17.717 10.161 15.633 11.552 13.966L18.074 20.488C18.03 20.652 17.999 20.821 17.999 20.999C17.999 22.102 18.896 22.999 19.999 22.999C21.102 22.999 21.999 22.102 21.999 20.999C21.999 19.896 21.102 18.999 19.999 18.999C19.822 18.999 19.652 19.03 19.488 19.074L12.966 12.552C14.634 11.162 16.717 10.258 19 10.051V13H21V10.051C23.283 10.258 25.367 11.161 27.034 12.552L24.95 14.636L26.364 16.05L28.448 13.966C29.838 15.634 30.742 17.717 30.949 20H28Z" fill="url(#paint0_linear_25222_109600)"/>
<defs>
<linearGradient id="paint0_linear_25222_109600" x1="20" y1="0" x2="20" y2="40" gradientUnits="userSpaceOnUse">
<stop stop-color="white"/>
<stop offset="1" stop-color="white" stop-opacity="0.6"/>
</linearGradient>
</defs>
</svg>
