<svg width="40" height="40" viewBox="0 0 40 40" fill="none" xmlns="http://www.w3.org/2000/svg">
<path fill-rule="evenodd" clip-rule="evenodd" d="M20 40C31.0457 40 40 31.0457 40 20C40 8.9543 31.0457 0 20 0C8.9543 0 0 8.9543 0 20C0 31.0457 8.9543 40 20 40ZM23.2109 14.043C23.2109 16.3211 21.3641 18.168 19.0859 18.168C16.8078 18.168 14.9609 16.3211 14.9609 14.043C14.9609 11.7648 16.8078 9.91797 19.0859 9.91797C21.3641 9.91797 23.2109 11.7648 23.2109 14.043ZM22.7539 30.0865L28.7122 24.1281C29.4716 23.3688 29.4716 22.1375 28.7122 21.3781C27.9529 20.6188 26.7216 20.6188 25.9622 21.3781L20.0039 27.3365V30.0865H22.7539ZM19.086 20C20.697 20 22.2 20.4685 23.4713 21.271L18.7054 26.037C18.3615 26.3808 18.1684 26.8471 18.1684 27.3333V30.0594C15.9497 29.9933 13.733 29.6895 11.5299 29.1392L10.8359 28.9659V28.25C10.8359 23.7015 14.5374 20 19.086 20Z" fill="url(#paint0_linear_24878_9200)"/>
<defs>
<linearGradient id="paint0_linear_24878_9200" x1="20" y1="0" x2="20" y2="40" gradientUnits="userSpaceOnUse">
<stop stop-color="white"/>
<stop offset="1" stop-color="white" stop-opacity="0.6"/>
</linearGradient>
</defs>
</svg>
