<svg width="40" height="40" viewBox="0 0 40 40" fill="none" xmlns="http://www.w3.org/2000/svg">
<path fill-rule="evenodd" clip-rule="evenodd" d="M20 40C31.0457 40 40 31.0457 40 20C40 8.9543 31.0457 0 20 0C8.9543 0 0 8.9543 0 20C0 31.0457 8.9543 40 20 40ZM20 16C17.7909 16 16 17.7909 16 20C16 22.2091 17.7909 24 20 24C22.2091 24 24 22.2091 24 20C24 17.7909 22.2091 16 20 16ZM23.5857 15L26.5857 12L23.5 12V10L29.9999 9.99996L30 16.5L28 16.5L27.9999 13.4141L24.9999 16.4142L23.5857 15ZM26.5857 28L23.5857 25L24.9999 23.5858L27.9999 26.5858L28 23.5H30L29.9999 30H23.5V28H26.5857ZM15.0001 16.4142L12 13.4141L12 16.5L10 16.5L9.99996 10.0001L16.5 9.99998L16.5 12L13.4144 12L16.4143 15L15.0001 16.4142ZM12 26.5859L15.0001 23.5858L16.4143 25L13.4142 28.0001H16.5L16.5 30.0001L9.99996 30L10 23.5001H12L12 26.5859Z" fill="url(#paint0_linear_23889_9961)"/>
<defs>
<linearGradient id="paint0_linear_23889_9961" x1="20" y1="0" x2="20" y2="40" gradientUnits="userSpaceOnUse">
<stop stop-color="white"/>
<stop offset="1" stop-color="white" stop-opacity="0.6"/>
</linearGradient>
</defs>
</svg>
