<svg width="1024" height="674" viewBox="0 0 1024 674" fill="none" xmlns="http://www.w3.org/2000/svg">
<g clip-path="url(#clip0_20750_4631)">
<path d="M1062 0H0V674H1062V0Z" fill="url(#paint0_radial_20750_4631)"/>
<path d="M1062 0H0V674H1062V0Z" fill="url(#paint1_radial_20750_4631)"/>
<g opacity="0.3" filter="url(#filter0_f_20750_4631)">
<path d="M724.66 359.545C670.316 399.433 703.558 454.073 637.383 466.955C589.587 476.259 494.415 441.24 494.415 441.24L425.261 483.782L526.919 544.068C526.919 544.068 703.874 592.019 807.601 561.631C887.229 538.303 915.732 511.259 951.812 436.561C984.773 368.319 972.018 274.099 972.018 274.099C972.018 274.099 899.945 178.017 847.111 194.901C803.265 208.913 761.764 332.31 724.66 359.545Z" fill="url(#paint2_radial_20750_4631)"/>
<path d="M724.66 359.545C670.316 399.433 703.558 454.073 637.383 466.955C589.587 476.259 494.415 441.24 494.415 441.24L425.261 483.782L526.919 544.068C526.919 544.068 703.874 592.019 807.601 561.631C887.229 538.303 915.732 511.259 951.812 436.561C984.773 368.319 972.018 274.099 972.018 274.099C972.018 274.099 899.945 178.017 847.111 194.901C803.265 208.913 761.764 332.31 724.66 359.545Z" fill="url(#paint3_radial_20750_4631)" fill-opacity="0.15"/>
</g>
<g opacity="0.3" filter="url(#filter1_f_20750_4631)">
<path d="M553.955 189.373C559.187 85.6452 245.035 111.135 245.035 111.135L278.223 147.351C278.223 147.351 192.889 183.578 155.981 226.97C104.035 288.043 72.2045 347.229 96.797 423.53C133.223 536.548 390.784 501.534 390.784 501.534H481.548L536.858 460.936C536.858 460.936 463.811 456.101 429.589 428.902C376.025 386.331 373.726 350.995 390.784 284.749C408.534 215.812 550.368 260.466 553.955 189.373Z" fill="url(#paint4_radial_20750_4631)"/>
<path d="M553.955 189.373C559.187 85.6452 245.035 111.135 245.035 111.135L278.223 147.351C278.223 147.351 192.889 183.578 155.981 226.97C104.035 288.043 72.2045 347.229 96.797 423.53C133.223 536.548 390.784 501.534 390.784 501.534H481.548L536.858 460.936C536.858 460.936 463.811 456.101 429.589 428.902C376.025 386.331 373.726 350.995 390.784 284.749C408.534 215.812 550.368 260.466 553.955 189.373Z" fill="url(#paint5_radial_20750_4631)" fill-opacity="0.2"/>
<path d="M553.955 189.373C559.187 85.6452 245.035 111.135 245.035 111.135L278.223 147.351C278.223 147.351 192.889 183.578 155.981 226.97C104.035 288.043 72.2045 347.229 96.797 423.53C133.223 536.548 390.784 501.534 390.784 501.534H481.548L536.858 460.936C536.858 460.936 463.811 456.101 429.589 428.902C376.025 386.331 373.726 350.995 390.784 284.749C408.534 215.812 550.368 260.466 553.955 189.373Z" fill="url(#paint6_radial_20750_4631)" fill-opacity="0.15"/>
</g>
<path d="M1062 0H0V674H1062V0Z" fill="black" fill-opacity="0.01"/>
<path d="M498 220L654.076 243.314" stroke="white" stroke-opacity="0.08" stroke-width="0.915901" stroke-dasharray="2.75 2.75"/>
<path d="M335.902 245.301L429 222.5" stroke="white" stroke-opacity="0.08" stroke-width="0.915901" stroke-dasharray="2.75 2.75"/>
<path d="M211 160L355 111.5" stroke="white" stroke-opacity="0.08" stroke-width="0.915901" stroke-dasharray="2.75 2.75"/>
<path d="M493.5 195.5L565.902 149.301" stroke="white" stroke-opacity="0.08" stroke-width="0.915901" stroke-dasharray="2.75 2.75"/>
<path d="M398.5 126.5L441.5 185.5" stroke="white" stroke-opacity="0.08" stroke-width="0.915901" stroke-dasharray="2.75 2.75"/>
<path d="M786 500L737 456.5" stroke="white" stroke-opacity="0.08" stroke-width="0.915901" stroke-dasharray="2.75 2.75"/>
<path d="M800 366L733.5 427.5" stroke="white" stroke-opacity="0.08" stroke-width="0.915901" stroke-dasharray="2.75 2.75"/>
<path d="M810.5 331.5L728.5 262.5" stroke="white" stroke-opacity="0.08" stroke-width="0.915901" stroke-dasharray="2.75 2.75"/>
<path d="M814 198L732 239.5" stroke="white" stroke-opacity="0.08" stroke-width="0.915901" stroke-dasharray="2.75 2.75"/>
<path d="M607.5 150L670 209" stroke="white" stroke-opacity="0.08" stroke-width="0.915901" stroke-dasharray="2.75 2.75"/>
<path d="M590 589H678" stroke="white" stroke-opacity="0.08" stroke-width="0.915901" stroke-dasharray="2.75 2.75"/>
<path d="M733 575.5L776.5 551" stroke="white" stroke-opacity="0.08" stroke-width="0.915901" stroke-dasharray="2.75 2.75"/>
<path d="M450.902 552.801L531.5 584" stroke="white" stroke-opacity="0.08" stroke-width="0.915901" stroke-dasharray="2.75 2.75"/>
<path d="M209.902 181.301L286.902 233.301" stroke="white" stroke-opacity="0.08" stroke-width="0.915901" stroke-dasharray="2.75 2.75"/>
<path d="M278 416L238.902 387.301" stroke="white" stroke-opacity="0.08" stroke-width="0.915901" stroke-dasharray="2.75 2.75"/>
<path d="M389.402 505.301L328.5 450.5" stroke="white" stroke-opacity="0.08" stroke-width="0.915901" stroke-dasharray="2.75 2.75"/>
<path d="M274.5 447L207.5 485" stroke="white" stroke-opacity="0.08" stroke-width="0.915901" stroke-dasharray="2.75 2.75"/>
<path d="M285.902 265.301L225.402 341.301" stroke="white" stroke-opacity="0.08" stroke-width="0.915901" stroke-dasharray="2.75 2.75"/>
<path d="M190.5 216L201 336" stroke="white" stroke-opacity="0.08" stroke-width="0.915901" stroke-dasharray="2.75 2.75"/>
<path d="M257.902 557.801L206.402 510.801" stroke="white" stroke-opacity="0.08" stroke-width="0.915901" stroke-dasharray="2.75 2.75"/>
<path d="M377.402 547.803L305.902 568.902" stroke="white" stroke-opacity="0.08" stroke-width="0.915901" stroke-dasharray="2.75 2.75"/>
<path d="M585 571L690 463" stroke="white" stroke-opacity="0.08" stroke-width="0.915901" stroke-dasharray="2.75 2.75"/>
</g>
<defs>
<filter id="filter0_f_20750_4631" x="297.261" y="64.9102" width="805.185" height="634.809" filterUnits="userSpaceOnUse" color-interpolation-filters="sRGB">
<feFlood flood-opacity="0" result="BackgroundImageFix"/>
<feBlend mode="normal" in="SourceGraphic" in2="BackgroundImageFix" result="shape"/>
<feGaussianBlur stdDeviation="64" result="effect1_foregroundBlur_20750_4631"/>
</filter>
<filter id="filter1_f_20750_4631" x="-39.6641" y="-19.6328" width="721.684" height="654.293" filterUnits="userSpaceOnUse" color-interpolation-filters="sRGB">
<feFlood flood-opacity="0" result="BackgroundImageFix"/>
<feBlend mode="normal" in="SourceGraphic" in2="BackgroundImageFix" result="shape"/>
<feGaussianBlur stdDeviation="64" result="effect1_foregroundBlur_20750_4631"/>
</filter>
<radialGradient id="paint0_radial_20750_4631" cx="0" cy="0" r="1" gradientUnits="userSpaceOnUse" gradientTransform="translate(350.128 256.551) rotate(76.7187) scale(252.808 498.617)">
<stop offset="0.487384" stop-color="#00D1FF" stop-opacity="0.04"/>
<stop offset="0.764713" stop-color="#00D1FF" stop-opacity="0"/>
</radialGradient>
<radialGradient id="paint1_radial_20750_4631" cx="0" cy="0" r="1" gradientUnits="userSpaceOnUse" gradientTransform="translate(703.852 427.401) rotate(-97.9888) scale(232.824 543.88)">
<stop offset="0.605554" stop-color="#F675D5" stop-opacity="0.04"/>
<stop offset="0.911395" stop-color="#F675D5" stop-opacity="0"/>
</radialGradient>
<radialGradient id="paint2_radial_20750_4631" cx="0" cy="0" r="1" gradientUnits="userSpaceOnUse" gradientTransform="translate(864.258 393.673) rotate(-142.171) scale(320.038 568.858)">
<stop stop-color="#F675D5" stop-opacity="0.35"/>
<stop offset="0.845067" stop-color="#F675D5" stop-opacity="0"/>
</radialGradient>
<radialGradient id="paint3_radial_20750_4631" cx="0" cy="0" r="1" gradientUnits="userSpaceOnUse" gradientTransform="translate(802.308 439.565) rotate(-126.314) scale(156.448 196.026)">
<stop stop-color="white"/>
<stop offset="1" stop-color="white" stop-opacity="0"/>
</radialGradient>
<radialGradient id="paint4_radial_20750_4631" cx="0" cy="0" r="1" gradientUnits="userSpaceOnUse" gradientTransform="translate(191.381 102.84) rotate(63.1598) scale(265.841 472.678)">
<stop stop-color="#00D1FF" stop-opacity="0"/>
<stop offset="0.724262" stop-color="#00D1FF" stop-opacity="0.25"/>
</radialGradient>
<radialGradient id="paint5_radial_20750_4631" cx="0" cy="0" r="1" gradientUnits="userSpaceOnUse" gradientTransform="translate(321.366 319.858) rotate(-120.795) scale(243.628 244.709)">
<stop offset="0.29042" stop-color="#00D1FF" stop-opacity="0.5"/>
<stop offset="1"/>
</radialGradient>
<radialGradient id="paint6_radial_20750_4631" cx="0" cy="0" r="1" gradientUnits="userSpaceOnUse" gradientTransform="translate(308.091 281.985) rotate(66.01) scale(249.641 271.589)">
<stop stop-color="white"/>
<stop offset="1" stop-color="white" stop-opacity="0"/>
</radialGradient>
<clipPath id="clip0_20750_4631">
<rect width="1024" height="674" fill="white"/>
</clipPath>
</defs>
</svg>
