<svg width="1920" height="1219" viewBox="0 0 1920 1219" fill="none" xmlns="http://www.w3.org/2000/svg">
<rect width="1920" height="1219" fill="url(#paint0_radial_19711_17888)"/>
<rect width="1920" height="1219" fill="url(#paint1_radial_19711_17888)"/>
<g opacity="0.3" filter="url(#filter0_f_19711_17888)">
<path d="M1310.12 650.275C1211.87 722.418 1271.97 821.24 1152.33 844.538C1065.92 861.366 893.857 798.03 893.857 798.03L768.833 874.971L952.622 984.006C952.622 984.006 1272.54 1070.73 1460.07 1015.77C1604.03 973.578 1655.56 924.666 1720.79 789.567C1780.38 666.144 1757.32 495.737 1757.32 495.737C1757.32 495.737 1627.02 321.963 1531.5 352.499C1452.23 377.842 1377.2 601.018 1310.12 650.275Z" fill="url(#paint2_radial_19711_17888)"/>
<path d="M1310.12 650.275C1211.87 722.418 1271.97 821.24 1152.33 844.538C1065.92 861.366 893.857 798.03 893.857 798.03L768.833 874.971L952.622 984.006C952.622 984.006 1272.54 1070.73 1460.07 1015.77C1604.03 973.578 1655.56 924.666 1720.79 789.567C1780.38 666.144 1757.32 495.737 1757.32 495.737C1757.32 495.737 1627.02 321.963 1531.5 352.499C1452.23 377.842 1377.2 601.018 1310.12 650.275Z" fill="url(#paint3_radial_19711_17888)" fill-opacity="0.15"/>
</g>
<g opacity="0.3" filter="url(#filter1_f_19711_17888)">
<path d="M1001.5 342.501C1010.96 154.899 443 201 443 201L503.001 266.5C503.001 266.5 348.725 332.021 281.999 410.5C188.086 520.956 130.539 628.001 175 765.999C240.855 970.404 706.501 907.078 706.501 907.078L870.595 907.078L970.591 833.652C970.591 833.652 838.528 824.908 776.657 775.715C679.819 698.72 675.662 634.812 706.501 515C738.592 390.32 995.015 471.081 1001.5 342.501Z" fill="url(#paint4_radial_19711_17888)"/>
<path d="M1001.5 342.501C1010.96 154.899 443 201 443 201L503.001 266.5C503.001 266.5 348.725 332.021 281.999 410.5C188.086 520.956 130.539 628.001 175 765.999C240.855 970.404 706.501 907.078 706.501 907.078L870.595 907.078L970.591 833.652C970.591 833.652 838.528 824.908 776.657 775.715C679.819 698.72 675.662 634.812 706.501 515C738.592 390.32 995.015 471.081 1001.5 342.501Z" fill="url(#paint5_radial_19711_17888)" fill-opacity="0.2"/>
<path d="M1001.5 342.501C1010.96 154.899 443 201 443 201L503.001 266.5C503.001 266.5 348.725 332.021 281.999 410.5C188.086 520.956 130.539 628.001 175 765.999C240.855 970.404 706.501 907.078 706.501 907.078L870.595 907.078L970.591 833.652C970.591 833.652 838.528 824.908 776.657 775.715C679.819 698.72 675.662 634.812 706.501 515C738.592 390.32 995.015 471.081 1001.5 342.501Z" fill="url(#paint6_radial_19711_17888)" fill-opacity="0.15"/>
</g>
<g filter="url(#filter2_b_19711_17888)">
<rect width="1920" height="1219" fill="black" fill-opacity="0.01"/>
</g>
<path d="M1101 337L1201 406" stroke="white" stroke-opacity="0.08" stroke-dasharray="3 3"/>
<path d="M946 438L1194 440" stroke="white" stroke-opacity="0.08" stroke-dasharray="3 3"/>
<path d="M700 460L851 444" stroke="white" stroke-opacity="0.08" stroke-dasharray="3 3"/>
<path d="M937 409L1045 335" stroke="white" stroke-opacity="0.08" stroke-dasharray="3 3"/>
<path d="M705 286L859 409" stroke="white" stroke-opacity="0.08" stroke-dasharray="3 3"/>
<path d="M304 459L424 356" stroke="white" stroke-opacity="0.08" stroke-dasharray="3 3"/>
<path d="M1286 481L1367 593" stroke="white" stroke-opacity="0.08" stroke-dasharray="3 3"/>
<path d="M1273 805L1387 862" stroke="white" stroke-opacity="0.08" stroke-dasharray="3 3"/>
<path d="M1439 655L1578 708" stroke="white" stroke-opacity="0.08" stroke-dasharray="3 3"/>
<path d="M1441 615L1625 545" stroke="white" stroke-opacity="0.08" stroke-dasharray="3 3"/>
<path d="M1266 757L1361 666" stroke="white" stroke-opacity="0.08" stroke-dasharray="3 3"/>
<path d="M1075 943L1213 958" stroke="white" stroke-opacity="0.08" stroke-dasharray="3 3"/>
<path d="M1387 913L1289 952" stroke="white" stroke-opacity="0.08" stroke-dasharray="3 3"/>
<path d="M1587 908L1498 898" stroke="white" stroke-opacity="0.08" stroke-dasharray="3 3"/>
<path d="M883 906L996 929" stroke="white" stroke-opacity="0.08" stroke-dasharray="3 3"/>
<path d="M269 789L378 880" stroke="white" stroke-opacity="0.08" stroke-dasharray="3 3"/>
<path d="M322 489L620 468" stroke="white" stroke-opacity="0.08" stroke-dasharray="3 3"/>
<path d="M489 349L627 441" stroke="white" stroke-opacity="0.08" stroke-dasharray="3 3"/>
<path d="M507 668L597 713" stroke="white" stroke-opacity="0.08" stroke-dasharray="3 3"/>
<path d="M310 525L410 602" stroke="white" stroke-opacity="0.08" stroke-dasharray="3 3"/>
<path d="M656 943L771 911" stroke="white" stroke-opacity="0.08" stroke-dasharray="3 3"/>
<path d="M460 921L578 945" stroke="white" stroke-opacity="0.08" stroke-dasharray="3 3"/>
<path d="M453 873L601 751" stroke="white" stroke-opacity="0.08" stroke-dasharray="3 3"/>
<path d="M781 856L662 759" stroke="white" stroke-opacity="0.08" stroke-dasharray="3 3"/>
<path d="M492 316L635 273" stroke="white" stroke-opacity="0.08" stroke-dasharray="3 3"/>
<path d="M272 744L406 668" stroke="white" stroke-opacity="0.08" stroke-dasharray="3 3"/>
<path d="M501 599L627 486" stroke="white" stroke-opacity="0.08" stroke-dasharray="3 3"/>
<path d="M1068 915L1205 807" stroke="white" stroke-opacity="0.08" stroke-dasharray="3 3"/>
<path d="M1305 411L1445 373" stroke="white" stroke-opacity="0.08" stroke-dasharray="3 3"/>
<path d="M1109 317L1443 353" stroke="white" stroke-opacity="0.08" stroke-dasharray="3 3"/>
<path d="M1512 388L1630 492" stroke="white" stroke-opacity="0.08" stroke-dasharray="3 3"/>
<path d="M1480 846L1586 752" stroke="white" stroke-opacity="0.08" stroke-dasharray="3 3"/>
<defs>
<filter id="filter0_f_19711_17888" x="640.832" y="220.9" width="1248.88" height="941.113" filterUnits="userSpaceOnUse" color-interpolation-filters="sRGB">
<feFlood flood-opacity="0" result="BackgroundImageFix"/>
<feBlend mode="normal" in="SourceGraphic" in2="BackgroundImageFix" result="shape"/>
<feGaussianBlur stdDeviation="64" result="effect1_foregroundBlur_19711_17888"/>
</filter>
<filter id="filter1_f_19711_17888" x="31.7031" y="67.9941" width="1097.91" height="976.352" filterUnits="userSpaceOnUse" color-interpolation-filters="sRGB">
<feFlood flood-opacity="0" result="BackgroundImageFix"/>
<feBlend mode="normal" in="SourceGraphic" in2="BackgroundImageFix" result="shape"/>
<feGaussianBlur stdDeviation="64" result="effect1_foregroundBlur_19711_17888"/>
</filter>
<filter id="filter2_b_19711_17888" x="-128" y="-128" width="2176" height="1475" filterUnits="userSpaceOnUse" color-interpolation-filters="sRGB">
<feFlood flood-opacity="0" result="BackgroundImageFix"/>
<feGaussianBlur in="BackgroundImageFix" stdDeviation="64"/>
<feComposite in2="SourceAlpha" operator="in" result="effect1_backgroundBlur_19711_17888"/>
<feBlend mode="normal" in="SourceGraphic" in2="effect1_backgroundBlur_19711_17888" result="shape"/>
</filter>
<radialGradient id="paint0_radial_19711_17888" cx="0" cy="0" r="1" gradientUnits="userSpaceOnUse" gradientTransform="translate(633 464) rotate(76.7236) scale(457.22 901.472)">
<stop offset="0.487384" stop-color="#00D1FF" stop-opacity="0.04"/>
<stop offset="0.764713" stop-color="#00D1FF" stop-opacity="0"/>
</radialGradient>
<radialGradient id="paint1_radial_19711_17888" cx="0" cy="0" r="1" gradientUnits="userSpaceOnUse" gradientTransform="translate(1272.5 773) rotate(-97.9858) scale(421.083 983.294)">
<stop offset="0.605554" stop-color="#F675D5" stop-opacity="0.04"/>
<stop offset="0.911395" stop-color="#F675D5" stop-opacity="0"/>
</radialGradient>
<radialGradient id="paint2_radial_19711_17888" cx="0" cy="0" r="1" gradientUnits="userSpaceOnUse" gradientTransform="translate(1562.5 712) rotate(-142.16) scale(578.683 1028.69)">
<stop stop-color="#F675D5" stop-opacity="0.35"/>
<stop offset="0.845067" stop-color="#F675D5" stop-opacity="0"/>
</radialGradient>
<radialGradient id="paint3_radial_19711_17888" cx="0" cy="0" r="1" gradientUnits="userSpaceOnUse" gradientTransform="translate(1450.5 795) rotate(-126.303) scale(282.914 354.445)">
<stop stop-color="white"/>
<stop offset="1" stop-color="white" stop-opacity="0"/>
</radialGradient>
<radialGradient id="paint4_radial_19711_17888" cx="0" cy="0" r="1" gradientUnits="userSpaceOnUse" gradientTransform="translate(346 185.998) rotate(63.1687) scale(480.763 854.626)">
<stop stop-color="#00D1FF" stop-opacity="0"/>
<stop offset="0.724262" stop-color="#00D1FF" stop-opacity="0.25"/>
</radialGradient>
<radialGradient id="paint5_radial_19711_17888" cx="0" cy="0" r="1" gradientUnits="userSpaceOnUse" gradientTransform="translate(581 578.498) rotate(-120.785) scale(440.582 442.456)">
<stop offset="0.29042" stop-color="#00D1FF" stop-opacity="0.5"/>
<stop offset="1"/>
</radialGradient>
<radialGradient id="paint6_radial_19711_17888" cx="0" cy="0" r="1" gradientUnits="userSpaceOnUse" gradientTransform="translate(557 510) rotate(66.0182) scale(451.474 491.039)">
<stop stop-color="white"/>
<stop offset="1" stop-color="white" stop-opacity="0"/>
</radialGradient>
</defs>
</svg>
