<svg width="134" height="160" viewBox="0 0 134 160" fill="none" xmlns="http://www.w3.org/2000/svg">
<mask id="mask0_659_2440" style="mask-type:alpha" maskUnits="userSpaceOnUse" x="0" y="2" width="134" height="156">
<path d="M59.4682 4.28248C64.1383 1.6271 69.8617 1.6271 74.5318 4.28248L126.294 33.7136C131.057 36.4222 134 41.4801 134 46.9601V113.04C134 118.52 131.057 123.578 126.294 126.286L74.5318 155.718C69.8617 158.373 64.1383 158.373 59.4682 155.718L7.70629 126.286C2.9425 123.578 0 118.52 0 113.04V46.9601C0 41.4801 2.94251 36.4222 7.70629 33.7136L59.4682 4.28248Z" fill="#262626"/>
</mask>
<g mask="url(#mask0_659_2440)">
<g filter="url(#filter0_d_659_2440)">
<path d="M59.4682 4.28248C64.1383 1.6271 69.8617 1.6271 74.5318 4.28248L126.294 33.7136C131.057 36.4222 134 41.4801 134 46.9601V113.04C134 118.52 131.057 123.578 126.294 126.286L74.5318 155.718C69.8617 158.373 64.1383 158.373 59.4682 155.718L7.70629 126.286C2.9425 123.578 0 118.52 0 113.04V46.9601C0 41.4801 2.94251 36.4222 7.70629 33.7136L59.4682 4.28248Z" fill="#262626"/>
</g>
<g filter="url(#filter1_d_659_2440)">
<path d="M59.4682 4.28248C64.1383 1.6271 69.8617 1.6271 74.5318 4.28248L126.294 33.7136C131.057 36.4222 134 41.4801 134 46.9601V113.04C134 118.52 131.057 123.578 126.294 126.286L74.5318 155.718C69.8617 158.373 64.1383 158.373 59.4682 155.718L7.70629 126.286C2.9425 123.578 0 118.52 0 113.04V46.9601C0 41.4801 2.94251 36.4222 7.70629 33.7136L59.4682 4.28248Z" fill="url(#paint0_linear_659_2440)"/>
</g>
<mask id="mask1_659_2440" style="mask-type:alpha" maskUnits="userSpaceOnUse" x="0" y="2" width="134" height="156">
<path d="M59.4682 4.28248C64.1383 1.6271 69.8617 1.6271 74.5318 4.28248L126.294 33.7136C131.057 36.4222 134 41.4801 134 46.9601V113.04C134 118.52 131.057 123.578 126.294 126.286L74.5318 155.718C69.8617 158.373 64.1383 158.373 59.4682 155.718L7.70629 126.286C2.9425 123.578 0 118.52 0 113.04V46.9601C0 41.4801 2.94251 36.4222 7.70629 33.7136L59.4682 4.28248Z" fill="#262626"/>
</mask>
<g mask="url(#mask1_659_2440)">
<g filter="url(#filter2_dd_659_2440)">
<path fill-rule="evenodd" clip-rule="evenodd" d="M102.024 23.42L124.787 36.3628C128.598 38.5297 130.952 42.5761 130.952 46.9601V113.04C130.952 117.424 128.598 121.47 124.787 123.637L102.024 136.58L102.024 23.42ZM98.9765 21.6872L73.0254 6.93174C69.2893 4.80744 64.7107 4.80744 60.9746 6.93174L9.21265 36.3628C5.40162 38.5297 3.04762 42.5761 3.04762 46.9601V113.04C3.04762 117.424 5.40162 121.47 9.21265 123.637L60.9746 153.068C62.3857 153.87 63.9169 154.37 65.4776 154.566V154.55V154.508V154.465V154.421V154.376V154.331V154.285V154.239V154.191V154.143V154.095V154.046V153.996V153.946V153.895V153.843V153.79V153.738V153.684V153.63V153.575V153.519V153.463V153.406V153.349V153.291V153.233V153.173V153.114V153.053V152.992V152.93V152.868V152.805V152.742V152.678V152.613V152.548V152.482V152.416V152.349V152.281V152.213V152.144V152.075V152.005V151.935V151.864V151.792V151.72V151.647V151.574V151.5V151.426V151.351V151.275V151.199V151.122V151.045V150.968V150.889V150.811V150.731V150.651V150.571V150.49V150.408V150.326V150.244V150.161V150.077V149.993V149.908V149.823V149.738V149.651V149.565V149.478V149.39V149.302V149.213V149.124V149.034V148.944V148.853V148.762V148.67V148.578V148.486V148.392V148.299V148.205V148.11V148.015V147.92V147.824V147.727V147.63V147.533V147.435V147.337V147.238V147.139V147.039V146.939V146.838V146.737V146.636V146.534V146.432V146.329V146.226V146.122V146.018V145.913V145.808V145.703V145.597V145.491V145.384V145.277V145.17V145.062V144.953V144.845V144.736V144.626V144.516V144.406V144.295V144.184V144.072V143.96V143.848V143.735V143.622V143.509V143.395V143.281V143.166V143.051V142.936V142.82V142.704V142.587V142.47V142.353V142.236V142.118V141.999V141.881V141.762V141.642V141.523V141.403V141.282V141.162V141.04V140.919V140.797V140.675V140.553V140.43V140.307V140.184V140.06V139.936V139.811V139.687V139.562V139.436V139.311V139.185V139.059V138.932V138.805V138.678V138.551V138.423V138.295V138.166V138.038V137.909V137.78V137.65V137.52V137.39V137.26V137.129V136.999V136.867V136.736V136.604V136.472V136.34V136.208V136.075V135.942V135.809V135.675V135.541V135.407V135.273V135.139V135.004V134.869V134.734V134.598V134.463V134.327V134.191V134.054V133.918V133.781V133.644V133.507V133.369V133.231V133.093V132.955V132.817V132.678V132.54V132.401V132.262V132.122V131.983V131.843V131.703V131.563V131.423V131.282V131.142V131.001V130.86V130.718V130.577V130.436V130.294V130.152V130.01V129.868V129.725V129.583V129.44V129.297V129.154V129.011V128.868V128.724V128.581V128.437V128.293V128.149V128.005V127.86V127.716V127.571V127.427V127.282V127.137V126.992V126.846V126.701V126.556V126.41V126.264V126.119V125.973V125.827V125.681V125.535V125.388V125.242V125.095V124.949V124.802V124.655V124.508V124.362V124.215V124.067V123.92V123.773V123.626V123.478V123.331V123.183V123.036V122.888V122.74V122.592V122.445V122.297V122.149V122.001V121.853V121.704V121.556V121.408V121.26V121.112V120.963V120.815V120.666V120.518V120.37V120.221V120.073V119.924V119.776V119.627V119.478V119.33V119.181V119.033V118.884V118.735V118.587V118.438V118.29V118.141V117.992V117.844V117.695V117.546V117.398V117.249V117.101V116.952V116.804V116.655V116.507V116.358V116.21V116.062V115.913V115.765V115.617V115.468V115.32V115.172V115.024V114.876V114.728V114.58V114.432V114.284V114.137V113.989V113.841V113.694V113.546V113.399V113.251V113.104V112.957V112.81V112.663V112.516V112.369V112.222V112.075V111.929V111.782V111.636V111.49V111.343V111.197V111.051V110.905V110.759V110.614V110.468V110.323V110.177V110.032V109.887V109.742V109.597V109.452V109.308V109.163V109.019V108.874V108.73V108.586V108.443V108.299V108.155V108.012V107.869V107.726V107.583V107.44V107.297V107.155V107.013V106.871V106.729V106.587V106.445V106.304V106.163V106.021V105.881V105.74V105.599V105.459V105.319V105.179V105.039V104.899V104.76V104.621V104.482V104.343V104.204V104.066V103.928V103.79V103.652V103.514V103.377V103.24V103.103V102.966V102.83V102.694V102.558V102.422V102.286V102.151V102.016V101.881V101.747V101.612V101.478V101.344V101.211V101.077V100.944V100.811V100.679V100.547V100.415V100.283V100.151V100.02V99.889V99.7583V99.6279V99.4978V99.3679V99.2383V99.1087V98.9788V98.8487V98.7183V98.5876V98.4566V98.3253V98.1938V98.062V97.93V97.7977V97.6651V97.5323V97.3992V97.2659V97.1323V96.9984V96.8643V96.73V96.5954V96.4606V96.3255V96.1902V96.0547V95.919V95.783V95.6467V95.5103V95.3736V95.2367V95.0996V94.9622V94.8247V94.6869V94.5489V94.4107V94.2723V94.1337V93.9949V93.8559V93.7167V93.5773V93.4377V93.2979V93.1579V93.0177V92.8773V92.7368V92.5961V92.4552V92.3141V92.1728V92.0313V91.8897V91.7479V91.606V91.4639V91.3216V91.1791V91.0365V90.8938V90.7508V90.6078V90.4645V90.3212V90.1776V90.034V89.8902V89.7462V89.6021V89.4579V89.3135V89.169V89.0244V88.8796V88.7347V88.5897V88.4446V88.2994V88.154V88.0085V87.8629V87.7172V87.5714V87.4255V87.2794V87.1333V86.9871V86.8407V86.6943V86.5478V86.4012V86.2545V86.1077V85.9608V85.8138V85.6668V85.5196V85.3724V85.2251V85.0778V84.9303V84.7828V84.6353V84.4876V84.3399V84.1922V84.0444V83.8965V83.7485V83.6006V83.4525V83.3044V83.1563V83.0081V82.8599V82.7117V82.5634V82.415V82.2667V82.1183V81.9698V81.8214V81.6729V81.5244V81.3758V81.2273V81.0787V80.9302V80.7816V80.6329V80.4843V80.3357V80.1871V80.0385V79.8898V79.7412V79.5926V79.444V79.2953V79.1467V78.9982V78.8496V78.701V78.5525V78.404V78.2554V78.107V77.9585V77.8101V77.6617V77.5134V77.365V77.2168V77.0685V76.9203V76.7722V76.624V76.476V76.328V76.18V76.0321V75.8842V75.7364V75.5887V75.441V75.2934V75.1459V74.9984V74.851V74.7036V74.5564V74.4092V74.2621V74.1151V73.9681V73.8213V73.6745V73.5278V73.3812V73.2348V73.0884V72.9421V72.7959V72.6498V72.5038V72.3579V72.2121V72.0664V71.9209V71.7754V71.6301V71.4849V71.3398V71.1949V71.05V70.9053V70.7607V70.6163V70.472V70.3278V70.1838V70.0399V69.8961V69.7525V69.609V69.4657V69.3225V69.1795V69.0366V68.8939V68.7514V68.609V68.4667V68.3247V68.1828V68.0411V67.8995V67.7581V67.6169V67.4759V67.335V67.1944V67.0539V66.9136V66.7735V66.6336V66.4938V66.3543V66.2149V66.0758V65.9369V65.7981V65.6596V65.5213V65.3832V65.2452V65.1076V64.9701V64.8328V64.6958V64.559V64.4224V64.286V64.1498V64.0139V63.8782V63.7428V63.6076V63.4726V63.3379V63.2034V63.0691V62.9351V62.8014V62.6679V62.5346V62.4016V62.2689V62.1364V62.0042V61.8723V61.7406V61.6092V61.478V61.3471V61.2165V61.0862V60.9562V60.8264V60.6969V60.5677V60.4388V60.3101V60.1818V60.0538V59.926V59.7986V59.6714V59.5445V59.418V59.2917V59.1658V59.0402V58.9149V58.7899V58.6652V58.5408V58.4167V58.293V58.1696V58.0465V57.9238V57.8014V57.6793V57.5575V57.4361V57.315V57.1943V57.0739V56.9538V56.8341V56.7148V56.5958V56.4771V56.3588V56.2409V56.1233V56.0061V55.8893V55.7728V55.6567V55.5409V55.4256V55.3106V55.1959V55.0817V54.9678V54.8543V54.7412V54.6285V54.5162V54.4043V54.2928V54.1816V54.0709V53.9605V53.8506V53.741V53.6319V53.5232V53.4149V53.307V53.1995V53.0924V52.9858V52.8795V52.7737V52.6683V52.5634V52.4588V52.3547V52.2511V52.1478V52.045V51.9427V51.8408V51.7393V51.6383V51.5377V51.4376V51.3379V51.2387V51.1399V51.0416V50.9438V50.8464V50.7495V50.653V50.557V50.4615V50.3665V50.2719V50.1778V50.0842V49.9911V49.8984V49.8063V49.7146V49.6234V49.5327V49.4425V49.3528V49.2636V49.1749V49.0867V48.999V48.9118V48.8251V48.7389V48.6533V48.5681V48.4835V48.3994V48.3158V48.2327V48.1502V48.0682V47.9867V47.9058V47.8253V47.7454V47.6661V47.5873V47.509V47.4313V47.3541V47.2775V47.2014V47.1259V47.0509V46.9765V46.9027V46.8294V46.7567V46.6845V46.6129V46.5419V46.4714V46.4015V46.3322V46.2635V46.1953V46.1278V46.0608V45.9944V45.9286V45.8634V45.7987V45.7347V45.6713V45.6084V45.5844L41.605 62.2032C40.9143 62.684 39.9646 62.5139 39.4838 61.8232C39.0029 61.1325 39.1731 60.1828 39.8638 59.702L66.1308 41.4163C66.5966 41.092 67.2039 41.0535 67.7069 41.3162C68.2099 41.5789 68.5252 42.0994 68.5252 42.6669H67.0014C68.5252 42.6669 68.5252 42.667 68.5252 42.6673V42.6684V42.6704V42.6732V42.6767V42.681V42.6861V42.6919V42.6986V42.706V42.7141V42.7231V42.7328V42.7432V42.7545V42.7665V42.7792V42.7927V42.8069V42.8219V42.8376V42.8541V42.8714V42.8893V42.908V42.9275V42.9476V42.9686V42.9902V43.0126V43.0357V43.0595V43.084V43.1093V43.1353V43.162V43.1894V43.2175V43.2463V43.2759V43.3061V43.337V43.3687V43.401V43.4341V43.4678V43.5022V43.5374V43.5732V43.6097V43.6469V43.6847V43.7233V43.7625V43.8024V43.843V43.8842V43.9261V43.9687V44.0119V44.0558V44.1004V44.1456V44.1915V44.2381V44.2853V44.3331V44.3816V44.4308V44.4805V44.531V44.582V44.6338V44.6861V44.7391V44.7927V44.8469V44.9018V44.9573V45.0134V45.0701V45.1275V45.1855V45.2441V45.3033V45.3631V45.4235V45.4845V45.5462V45.6084V45.6713V45.7347V45.7987V45.8634V45.9286V45.9944V46.0608V46.1278V46.1953V46.2635V46.3322V46.4015V46.4714V46.5419V46.6129V46.6845V46.7567V46.8294V46.9027V46.9765V47.0509V47.1259V47.2014V47.2775V47.3541V47.4313V47.509V47.5873V47.6661V47.7454V47.8253V47.9058V47.9867V48.0682V48.1502V48.2327V48.3158V48.3994V48.4835V48.5681V48.6533V48.7389V48.8251V48.9118V48.999V49.0867V49.1749V49.2636V49.3528V49.4425V49.5327V49.6234V49.7146V49.8063V49.8984V49.9911V50.0842V50.1778V50.2719V50.3665V50.4615V50.557V50.653V50.7495V50.8464V50.9438V51.0416V51.1399V51.2387V51.3379V51.4376V51.5377V51.6383V51.7393V51.8408V51.9427V52.045V52.1478V52.2511V52.3547V52.4588V52.5634V52.6683V52.7737V52.8795V52.9858V53.0924V53.1995V53.307V53.4149V53.5232V53.6319V53.741V53.8506V53.9605V54.0709V54.1816V54.2928V54.4043V54.5162V54.6285V54.7412V54.8543V54.9678V55.0817V55.1959V55.3106V55.4256V55.5409V55.6567V55.7728V55.8893V56.0061V56.1233V56.2409V56.3588V56.4771V56.5958V56.7148V56.8341V56.9538V57.0739V57.1943V57.315V57.4361V57.5575V57.6793V57.8014V57.9238V58.0465V58.1696V58.293V58.4167V58.5408V58.6652V58.7899V58.9149V59.0402V59.1658V59.2917V59.418V59.5445V59.6714V59.7986V59.926V60.0538V60.1818V60.3101V60.4388V60.5677V60.6969V60.8264V60.9562V61.0862V61.2165V61.3471V61.478V61.6092V61.7406V61.8723V62.0042V62.1364V62.2689V62.4016V62.5346V62.6679V62.8014V62.9351V63.0691V63.2034V63.3379V63.4726V63.6076V63.7428V63.8782V64.0139V64.1498V64.286V64.4224V64.559V64.6958V64.8328V64.9701V65.1076V65.2452V65.3832V65.5213V65.6596V65.7981V65.9369V66.0758V66.2149V66.3543V66.4938V66.6336V66.7735V66.9136V67.0539V67.1944V67.335V67.4759V67.6169V67.7581V67.8995V68.0411V68.1828V68.3247V68.4667V68.609V68.7514V68.8939V69.0366V69.1795V69.3225V69.4657V69.609V69.7525V69.8961V70.0399V70.1838V70.3278V70.472V70.6163V70.7607V70.9053V71.05V71.1949V71.3398V71.4849V71.6301V71.7754V71.9209V72.0664V72.2121V72.3579V72.5038V72.6498V72.7959V72.9421V73.0884V73.2348V73.3812V73.5278V73.6745V73.8213V73.9681V74.1151V74.2621V74.4092V74.5564V74.7036V74.851V74.9984V75.1459V75.2934V75.441V75.5887V75.7364V75.8842V76.0321V76.18V76.328V76.476V76.624V76.7722V76.9203V77.0685V77.2168V77.365V77.5134V77.6617V77.8101V77.9585V78.107V78.2554V78.404V78.5525V78.701V78.8496V78.9982V79.1467V79.2953V79.444V79.5926V79.7412V79.8898V80.0385V80.1871V80.3357V80.4843V80.6329V80.7816V80.9302V81.0787V81.2273V81.3758V81.5244V81.6729V81.8214V81.9698V82.1183V82.2667V82.415V82.5634V82.7117V82.8599V83.0081V83.1563V83.3044V83.4525V83.6006V83.7485V83.8965V84.0444V84.1922V84.3399V84.4876V84.6353V84.7828V84.9303V85.0778V85.2251V85.3724V85.5196V85.6668V85.8138V85.9608V86.1077V86.2545V86.4012V86.5478V86.6943V86.8407V86.9871V87.1333V87.2794V87.4255V87.5714V87.7172V87.8629V88.0085V88.154V88.2994V88.4446V88.5897V88.7347V88.8796V89.0244V89.169V89.3135V89.4579V89.6021V89.7462V89.8902V90.034V90.1776V90.3212V90.4645V90.6078V90.7508V90.8938V91.0365V91.1791V91.3216V91.4639V91.606V91.7479V91.8897V92.0313V92.1728V92.3141V92.4552V92.5961V92.7368V92.8773V93.0177V93.1579V93.2979V93.4377V93.5773V93.7167V93.8559V93.9949V94.1337V94.2723V94.4107V94.5489V94.6869V94.8247V94.9622V95.0996V95.2367V95.3736V95.5103V95.6467V95.783V95.919V96.0547V96.1902V96.3255V96.4606V96.5954V96.73V96.8643V96.9984V97.1323V97.2659V97.3992V97.5323V97.6651V97.7977V97.93V98.062V98.1938V98.3253V98.4566V98.5876V98.7183V98.8487V98.9788V99.1087V99.2383V99.3679V99.4978V99.6279V99.7583V99.889V100.02V100.151V100.283V100.415V100.547V100.679V100.811V100.944V101.077V101.211V101.344V101.478V101.612V101.747V101.881V102.016V102.151V102.286V102.422V102.558V102.694V102.83V102.966V103.103V103.24V103.377V103.514V103.652V103.79V103.928V104.066V104.204V104.343V104.482V104.621V104.76V104.899V105.039V105.179V105.319V105.459V105.599V105.74V105.881V106.021V106.163V106.304V106.445V106.587V106.729V106.871V107.013V107.155V107.297V107.44V107.583V107.726V107.869V108.012V108.155V108.299V108.443V108.586V108.73V108.874V109.019V109.163V109.308V109.452V109.597V109.742V109.887V110.032V110.177V110.323V110.468V110.614V110.759V110.905V111.051V111.197V111.343V111.49V111.636V111.782V111.929V112.075V112.222V112.369V112.516V112.663V112.81V112.957V113.104V113.251V113.399V113.546V113.694V113.841V113.989V114.137V114.284V114.432V114.58V114.728V114.876V115.024V115.172V115.32V115.468V115.617V115.765V115.913V116.062V116.21V116.358V116.507V116.655V116.804V116.952V117.101V117.249V117.398V117.546V117.695V117.844V117.992V118.141V118.29V118.438V118.587V118.735V118.884V119.033V119.181V119.33V119.478V119.627V119.776V119.924V120.073V120.221V120.37V120.518V120.666V120.815V120.963V121.112V121.26V121.408V121.556V121.704V121.853V122.001V122.149V122.297V122.445V122.592V122.74V122.888V123.036V123.183V123.331V123.478V123.626V123.773V123.92V124.067V124.215V124.362V124.508V124.655V124.802V124.949V125.095V125.242V125.388V125.535V125.681V125.827V125.973V126.119V126.264V126.41V126.556V126.701V126.846V126.992V127.137V127.282V127.427V127.571V127.716V127.86V128.005V128.149V128.293V128.437V128.581V128.724V128.868V129.011V129.154V129.297V129.44V129.583V129.725V129.868V130.01V130.152V130.294V130.436V130.577V130.718V130.86V131.001V131.142V131.282V131.423V131.563V131.703V131.843V131.983V132.122V132.262V132.401V132.54V132.678V132.817V132.955V133.093V133.231V133.369V133.507V133.644V133.781V133.918V134.054V134.191V134.327V134.463V134.598V134.734V134.869V135.004V135.139V135.273V135.407V135.541V135.675V135.809V135.942V136.075V136.208V136.34V136.472V136.604V136.736V136.867V136.999V137.129V137.26V137.39V137.52V137.65V137.78V137.909V138.038V138.166V138.295V138.423V138.551V138.678V138.805V138.932V139.059V139.185V139.311V139.436V139.562V139.687V139.811V139.936V140.06V140.184V140.307V140.43V140.553V140.675V140.797V140.919V141.04V141.162V141.282V141.403V141.523V141.642V141.762V141.881V141.999V142.118V142.236V142.353V142.47V142.587V142.704V142.82V142.936V143.051V143.166V143.281V143.395V143.509V143.622V143.735V143.848V143.96V144.072V144.184V144.295V144.406V144.516V144.626V144.736V144.845V144.953V145.062V145.17V145.277V145.384V145.491V145.597V145.703V145.808V145.913V146.018V146.122V146.226V146.329V146.432V146.534V146.636V146.737V146.838V146.939V147.039V147.139V147.238V147.337V147.435V147.533V147.63V147.727V147.824V147.92V148.015V148.11V148.205V148.299V148.392V148.486V148.578V148.67V148.762V148.853V148.944V149.034V149.124V149.213V149.302V149.39V149.478V149.565V149.651V149.738V149.823V149.908V149.993V150.077V150.161V150.244V150.326V150.408V150.49V150.571V150.651V150.731V150.811V150.889V150.968V151.045V151.122V151.199V151.275V151.351V151.426V151.5V151.574V151.647V151.72V151.792V151.864V151.935V152.005V152.075V152.144V152.213V152.281V152.349V152.416V152.482V152.548V152.613V152.678V152.742V152.805V152.868V152.93V152.992V153.053V153.114V153.173V153.233V153.291V153.349V153.406V153.463V153.519V153.575V153.63V153.684V153.738V153.79V153.843V153.895V153.946V153.996V154.046V154.095V154.143V154.191V154.239V154.285V154.331V154.376V154.421V154.465V154.508V154.55V154.566C70.0849 154.369 71.6152 153.87 73.0254 153.068L98.9765 138.313L98.9765 21.6872ZM59.4682 4.28243C64.1383 1.62705 69.8617 1.62705 74.5318 4.28243L126.294 33.7135C131.057 36.4221 134 41.4801 134 46.9601V113.04C134 118.52 131.057 123.578 126.294 126.286L74.5318 155.717C69.8617 158.373 64.1383 158.373 59.4682 155.717L7.70629 126.286C2.9425 123.578 0 118.52 0 113.04V46.9601C0 41.4801 2.94251 36.4221 7.70629 33.7135L59.4682 4.28243ZM114.561 44.3629H111.917V42.5389H119.453V45.4936C119.453 46.3896 119.229 47.0723 118.782 47.5416C118.341 48.0109 117.744 48.2456 116.991 48.2456C116.522 48.2456 116.103 48.1389 115.733 47.9256C115.371 47.7194 115.083 47.4101 114.87 46.9976C114.664 46.5852 114.561 46.0838 114.561 45.4936V44.3629ZM116.021 45.2909C116.021 46.0234 116.344 46.3896 116.991 46.3896C117.652 46.3896 117.982 46.0234 117.982 45.2909V44.3629H116.021V45.2909ZM119.453 51.1271H115.104C114.607 51.1271 114.227 51.2373 113.964 51.4578C113.701 51.6853 113.569 52.0124 113.569 52.4391C113.569 52.8658 113.701 53.1893 113.964 53.4098C114.227 53.6373 114.607 53.7511 115.104 53.7511H119.453V55.5751H115.104C114.394 55.5751 113.793 55.4364 113.303 55.1591C112.82 54.8818 112.454 54.5013 112.205 54.0178C111.963 53.5413 111.842 53.0009 111.842 52.3964C111.842 51.792 111.963 51.2587 112.205 50.7964C112.446 50.3342 112.812 49.9716 113.303 49.7084C113.793 49.4453 114.394 49.3138 115.104 49.3138H119.453V51.1271ZM113.313 61.2633V58.8313H119.453V57.0073H111.917V61.2633H113.313ZM113.313 64.1384V66.5704H111.917V62.3144H119.453V64.1384H113.313ZM114.763 72.2102L111.917 73.8422V75.8582L114.88 74.0662C115.022 74.6422 115.285 75.0795 115.669 75.3782C116.053 75.684 116.518 75.8369 117.065 75.8369C117.527 75.8369 117.936 75.7337 118.291 75.5275C118.654 75.3213 118.938 75.012 119.144 74.5995C119.35 74.1871 119.453 73.6822 119.453 73.0849V69.9702H111.917V71.7942H114.763V72.2102ZM116.01 72.9249V71.7942H117.918V72.9249C117.918 73.2804 117.833 73.5435 117.662 73.7142C117.492 73.892 117.257 73.9809 116.959 73.9809C116.646 73.9809 116.408 73.8955 116.245 73.7249C116.088 73.5542 116.01 73.2875 116.01 72.9249ZM118.003 78.7888H116.426V81.3381H115.051V78.7888H113.377V81.6581H111.917V76.9648H119.453V81.6581H118.003V78.7888ZM111.928 87.3126L110.595 88.2939V90.4806L112.589 88.7953C112.937 89.2646 113.381 89.6308 113.921 89.8939C114.461 90.1642 115.058 90.2993 115.712 90.2993C116.451 90.2993 117.112 90.1322 117.694 89.7979C118.284 89.4637 118.742 89.0051 119.069 88.4219C119.403 87.8459 119.57 87.2024 119.57 86.4913C119.57 85.7873 119.403 85.1437 119.069 84.5606C118.742 83.9846 118.284 83.5259 117.694 83.1846C117.112 82.8504 116.451 82.6833 115.712 82.6833C114.973 82.6833 114.308 82.8504 113.718 83.1846C113.129 83.5259 112.667 83.9846 112.333 84.5606C112.006 85.1437 111.842 85.7873 111.842 86.4913C111.842 86.7544 111.871 87.0282 111.928 87.3126ZM114.134 85.0619C114.525 84.7135 115.051 84.5393 115.712 84.5393C116.38 84.5393 116.906 84.7135 117.289 85.0619C117.68 85.4175 117.876 85.8939 117.876 86.4913C117.876 87.0886 117.68 87.5615 117.289 87.9099C116.898 88.2655 116.373 88.4433 115.712 88.4433C115.051 88.4433 114.525 88.2655 114.134 87.9099C113.743 87.5544 113.548 87.0815 113.548 86.4913C113.548 85.8939 113.743 85.4175 114.134 85.0619ZM119.453 93.3079H115.104C114.607 93.3079 114.227 93.4182 113.964 93.6386C113.701 93.8662 113.569 94.1933 113.569 94.6199C113.569 95.0466 113.701 95.3702 113.964 95.5906C114.227 95.8182 114.607 95.9319 115.104 95.9319H119.453V97.7559H115.104C114.394 97.7559 113.793 97.6173 113.303 97.3399C112.82 97.0626 112.454 96.6822 112.205 96.1986C111.963 95.7222 111.842 95.1817 111.842 94.5773C111.842 93.9728 111.963 93.4395 112.205 92.9773C112.446 92.5151 112.812 92.1524 113.303 91.8893C113.793 91.6262 114.394 91.4946 115.104 91.4946H119.453V93.3079ZM116.426 101.012H118.003V103.881H119.453V99.1881H111.917V103.881H113.377L113.377 101.012H115.051V103.561H116.426V101.012ZM114.038 110.549C113.64 110.549 113.274 110.446 112.94 110.24C112.606 110.041 112.34 109.742 112.141 109.344C111.942 108.953 111.842 108.476 111.842 107.915C111.842 107.068 112.049 106.372 112.461 105.824C112.873 105.276 113.448 104.978 114.187 104.928V106.869C113.903 106.898 113.679 106.997 113.516 107.168C113.353 107.346 113.271 107.57 113.271 107.84C113.271 108.075 113.335 108.26 113.463 108.395C113.591 108.53 113.761 108.597 113.974 108.597C114.166 108.597 114.326 108.533 114.454 108.405C114.582 108.284 114.685 108.132 114.763 107.947C114.848 107.762 114.948 107.506 115.062 107.179C115.225 106.702 115.381 106.311 115.531 106.005C115.687 105.707 115.914 105.447 116.213 105.227C116.518 105.013 116.913 104.907 117.396 104.907C117.844 104.907 118.231 105.02 118.558 105.248C118.885 105.476 119.133 105.788 119.304 106.187C119.481 106.592 119.57 107.054 119.57 107.573C119.57 108.412 119.371 109.077 118.973 109.568C118.575 110.066 118.028 110.347 117.332 110.411V108.437C117.581 108.402 117.776 108.309 117.918 108.16C118.067 108.018 118.142 107.822 118.142 107.573C118.142 107.36 118.085 107.186 117.971 107.051C117.858 106.923 117.691 106.859 117.47 106.859C117.293 106.859 117.14 106.916 117.012 107.029C116.891 107.15 116.792 107.299 116.714 107.477C116.636 107.655 116.536 107.911 116.415 108.245C116.252 108.729 116.088 109.124 115.925 109.429C115.769 109.735 115.538 109.998 115.232 110.219C114.926 110.439 114.529 110.549 114.038 110.549ZM118.003 117.19H119.453V111.28H118.003V113.307H111.917V115.142H118.003V117.19Z" fill="#4D4D4D"/>
</g>
</g>
</g>
<defs>
<filter id="filter0_d_659_2440" x="-15.2381" y="-9.13768" width="164.476" height="185.894" filterUnits="userSpaceOnUse" color-interpolation-filters="sRGB">
<feFlood flood-opacity="0" result="BackgroundImageFix"/>
<feColorMatrix in="SourceAlpha" type="matrix" values="0 0 0 0 0 0 0 0 0 0 0 0 0 0 0 0 0 0 127 0" result="hardAlpha"/>
<feOffset dy="3.80952"/>
<feGaussianBlur stdDeviation="7.61905"/>
<feComposite in2="hardAlpha" operator="out"/>
<feColorMatrix type="matrix" values="0 0 0 0 0 0 0 0 0 0 0 0 0 0 0 0 0 0 1 0"/>
<feBlend mode="normal" in2="BackgroundImageFix" result="effect1_dropShadow_659_2440"/>
<feBlend mode="normal" in="SourceGraphic" in2="effect1_dropShadow_659_2440" result="shape"/>
</filter>
<filter id="filter1_d_659_2440" x="-6.09524" y="-0.756726" width="146.19" height="167.609" filterUnits="userSpaceOnUse" color-interpolation-filters="sRGB">
<feFlood flood-opacity="0" result="BackgroundImageFix"/>
<feColorMatrix in="SourceAlpha" type="matrix" values="0 0 0 0 0 0 0 0 0 0 0 0 0 0 0 0 0 0 127 0" result="hardAlpha"/>
<feOffset dy="3.04762"/>
<feGaussianBlur stdDeviation="3.04762"/>
<feComposite in2="hardAlpha" operator="out"/>
<feColorMatrix type="matrix" values="0 0 0 0 0 0 0 0 0 0 0 0 0 0 0 0 0 0 0.2 0"/>
<feBlend mode="normal" in2="BackgroundImageFix" result="effect1_dropShadow_659_2440"/>
<feBlend mode="normal" in="SourceGraphic" in2="effect1_dropShadow_659_2440" result="shape"/>
</filter>
<filter id="filter2_dd_659_2440" x="-6" y="-3.70911" width="146" height="167.418" filterUnits="userSpaceOnUse" color-interpolation-filters="sRGB">
<feFlood flood-opacity="0" result="BackgroundImageFix"/>
<feColorMatrix in="SourceAlpha" type="matrix" values="0 0 0 0 0 0 0 0 0 0 0 0 0 0 0 0 0 0 127 0" result="hardAlpha"/>
<feOffset/>
<feGaussianBlur stdDeviation="3"/>
<feComposite in2="hardAlpha" operator="out"/>
<feColorMatrix type="matrix" values="0 0 0 0 0 0 0 0 0 0 0 0 0 0 0 0 0 0 0.6 0"/>
<feBlend mode="normal" in2="BackgroundImageFix" result="effect1_dropShadow_659_2440"/>
<feColorMatrix in="SourceAlpha" type="matrix" values="0 0 0 0 0 0 0 0 0 0 0 0 0 0 0 0 0 0 127 0" result="hardAlpha"/>
<feOffset/>
<feGaussianBlur stdDeviation="1"/>
<feComposite in2="hardAlpha" operator="out"/>
<feColorMatrix type="matrix" values="0 0 0 0 0 0 0 0 0 0 0 0 0 0 0 0 0 0 0.6 0"/>
<feBlend mode="normal" in2="effect1_dropShadow_659_2440" result="effect2_dropShadow_659_2440"/>
<feBlend mode="normal" in="SourceGraphic" in2="effect2_dropShadow_659_2440" result="shape"/>
</filter>
<linearGradient id="paint0_linear_659_2440" x1="67" y1="0" x2="67" y2="160" gradientUnits="userSpaceOnUse">
<stop stop-color="#333333"/>
<stop offset="1" stop-color="#1A1A1A"/>
</linearGradient>
</defs>
</svg>
