<svg width="160" height="160" viewBox="0 0 160 160" fill="none" xmlns="http://www.w3.org/2000/svg">
<circle cx="80" cy="80" r="80" fill="url(#paint0_linear_659_2653)"/>
<mask id="mask0_659_2653" style="mask-type:alpha" maskUnits="userSpaceOnUse" x="0" y="0" width="160" height="160">
<circle cx="80" cy="80" r="80" fill="url(#paint1_linear_659_2653)"/>
</mask>
<g mask="url(#mask0_659_2653)">
<g filter="url(#filter0_dd_659_2653)">
<path fill-rule="evenodd" clip-rule="evenodd" d="M156.364 80C156.364 122.174 122.174 156.364 80 156.364C37.8255 156.364 3.63636 122.174 3.63636 80C3.63636 37.8255 37.8255 3.63636 80 3.63636C122.174 3.63636 156.364 37.8255 156.364 80ZM160 80C160 124.183 124.183 160 80 160C35.8172 160 0 124.183 0 80C0 35.8172 35.8172 0 80 0C124.183 0 160 35.8172 160 80ZM138.18 79.9998C138.18 112.133 112.131 138.182 79.9979 138.182C47.8649 138.182 21.8161 112.133 21.8161 79.9998C21.8161 74.6951 22.526 69.5562 23.856 64.673L40.3462 69.1703L58.5919 86.9555L54.1612 112.789C54.0442 113.471 54.3246 114.16 54.8845 114.567C55.4444 114.974 56.1867 115.027 56.7992 114.705L79.9989 102.509L103.199 114.705C103.811 115.027 104.553 114.974 105.113 114.567C105.673 114.16 105.954 113.471 105.837 112.789L101.406 86.9555L119.496 69.3225L136.141 64.6772C137.47 69.5592 138.18 74.6967 138.18 79.9998ZM40.8922 65.5501L24.9222 61.1946C28.351 51.1498 34.4505 42.3421 42.374 35.6184L64.7312 62.0861L40.8922 65.5501ZM67.6805 59.9424L78.1779 38.6723V21.8459C65.8395 22.225 54.4682 26.4457 45.2197 33.3521L67.6805 59.9424ZM135.075 61.1994L119.336 65.5917C119.281 65.5782 119.224 65.5673 119.167 65.559L95.1217 62.065L117.425 35.4523C125.446 42.1978 131.618 51.0696 135.075 61.1994ZM114.569 33.1985L92.2576 59.8213L81.8143 38.6608V21.8458C94.0623 22.2214 105.358 26.3825 114.569 33.1985ZM141.816 79.9998C141.816 114.141 114.139 141.818 79.9979 141.818C45.8566 141.818 18.1797 114.141 18.1797 79.9998C18.1797 45.8586 45.8566 18.1816 79.9979 18.1816C114.139 18.1816 141.816 45.8586 141.816 79.9998ZM69.6065 64.2565L79.9989 43.1991L90.3914 64.2565C90.6562 64.7931 91.1682 65.1651 91.7604 65.2511L114.999 68.6278L98.1833 85.0187C97.7547 85.4364 97.5592 86.0383 97.6604 86.6281L101.63 109.772L80.845 98.8451C80.3153 98.5667 79.6825 98.5667 79.1529 98.8451L58.368 109.772L62.3375 86.6281C62.4387 86.0383 62.2431 85.4364 61.8146 85.0187L44.9993 68.6278L68.2375 65.2511C68.8297 65.1651 69.3416 64.7931 69.6065 64.2565Z" fill="#4D4D4D"/>
</g>
</g>
<defs>
<filter id="filter0_dd_659_2653" x="-9.09091" y="-9.09091" width="178.182" height="178.182" filterUnits="userSpaceOnUse" color-interpolation-filters="sRGB">
<feFlood flood-opacity="0" result="BackgroundImageFix"/>
<feColorMatrix in="SourceAlpha" type="matrix" values="0 0 0 0 0 0 0 0 0 0 0 0 0 0 0 0 0 0 127 0" result="hardAlpha"/>
<feOffset/>
<feGaussianBlur stdDeviation="4.54545"/>
<feComposite in2="hardAlpha" operator="out"/>
<feColorMatrix type="matrix" values="0 0 0 0 0 0 0 0 0 0 0 0 0 0 0 0 0 0 0.6 0"/>
<feBlend mode="normal" in2="BackgroundImageFix" result="effect1_dropShadow_659_2653"/>
<feColorMatrix in="SourceAlpha" type="matrix" values="0 0 0 0 0 0 0 0 0 0 0 0 0 0 0 0 0 0 127 0" result="hardAlpha"/>
<feOffset/>
<feGaussianBlur stdDeviation="1.81818"/>
<feComposite in2="hardAlpha" operator="out"/>
<feColorMatrix type="matrix" values="0 0 0 0 0 0 0 0 0 0 0 0 0 0 0 0 0 0 0.6 0"/>
<feBlend mode="normal" in2="effect1_dropShadow_659_2653" result="effect2_dropShadow_659_2653"/>
<feBlend mode="normal" in="SourceGraphic" in2="effect2_dropShadow_659_2653" result="shape"/>
</filter>
<linearGradient id="paint0_linear_659_2653" x1="80" y1="0" x2="80" y2="160" gradientUnits="userSpaceOnUse">
<stop stop-color="#333333"/>
<stop offset="1" stop-color="#1A1A1A"/>
</linearGradient>
<linearGradient id="paint1_linear_659_2653" x1="80" y1="0" x2="80" y2="160" gradientUnits="userSpaceOnUse">
<stop stop-color="#333333"/>
<stop offset="1" stop-color="#1A1A1A"/>
</linearGradient>
</defs>
</svg>
