<svg width="160" height="160" viewBox="0 0 160 160" fill="none" xmlns="http://www.w3.org/2000/svg">
<circle cx="80" cy="80" r="80" fill="url(#paint0_linear_659_2606)"/>
<mask id="mask0_659_2606" style="mask-type:alpha" maskUnits="userSpaceOnUse" x="0" y="0" width="160" height="160">
<circle cx="80" cy="80" r="80" fill="url(#paint1_linear_659_2606)"/>
</mask>
<g mask="url(#mask0_659_2606)">
<g filter="url(#filter0_dd_659_2606)">
<path fill-rule="evenodd" clip-rule="evenodd" d="M80 156.364C122.174 156.364 156.364 122.174 156.364 80C156.364 37.8255 122.174 3.63636 80 3.63636C37.8255 3.63636 3.63636 37.8255 3.63636 80C3.63636 122.174 37.8255 156.364 80 156.364ZM80 160C124.183 160 160 124.183 160 80C160 35.8172 124.183 0 80 0C35.8172 0 0 35.8172 0 80C0 124.183 35.8172 160 80 160Z" fill="#4D4D4D"/>
<path fill-rule="evenodd" clip-rule="evenodd" d="M125.066 116.801L122.095 114.056L109.484 116.906C108.809 117.058 108.105 116.814 107.67 116.276C107.234 115.738 107.142 115 107.431 114.371L112.841 102.628L106.234 91.5148C105.88 90.9199 105.895 90.1758 106.272 89.5954C106.649 89.0149 107.322 88.6989 108.01 88.78L120.85 90.2957L129.377 80.5777C129.834 80.0575 130.546 79.8416 131.215 80.0207C131.883 80.1998 132.392 80.7429 132.527 81.4216L135.053 94.1016L136.321 94.6467C137.535 89.9675 138.18 85.0595 138.18 80.0008C138.18 74.695 137.47 69.5551 136.139 64.671L114.997 70.3361L114.986 70.3464L98.8112 86.1132L102.63 108.376C102.747 109.059 102.466 109.748 101.906 110.155C101.346 110.562 100.604 110.615 99.9916 110.293L79.998 99.7818L60.0044 110.293C59.3918 110.615 58.6495 110.562 58.0896 110.155C57.5297 109.748 57.2493 109.059 57.3663 108.376L61.1848 86.1132L45.0096 70.3464L44.9988 70.3357L23.8573 64.6709C22.5268 69.555 21.8165 74.695 21.8165 80.0008C21.8165 85.0645 22.4634 89.9771 23.6791 94.6605L24.9815 94.1005L27.5077 81.4206C27.643 80.7418 28.1518 80.1987 28.8203 80.0196C29.4888 79.8405 30.201 80.0564 30.6575 80.5766L39.1852 90.2946L52.0252 88.7789C52.7125 88.6978 53.3863 89.0139 53.7632 89.5943C54.1402 90.1747 54.1549 90.9188 53.8012 91.5137L47.1941 102.627L52.6034 114.37C52.8929 114.999 52.8005 115.737 52.3649 116.275C51.9294 116.813 51.2263 117.057 50.5512 116.904L37.94 114.055L34.9466 116.82C45.6163 129.86 61.8354 138.183 79.9984 138.183C98.1703 138.183 114.397 129.852 125.066 116.801ZM32.271 119.292C43.6091 133.049 60.7795 141.819 79.9984 141.819C99.2262 141.819 116.404 133.04 127.742 119.273L131.592 122.829C132.1 123.299 132.831 123.439 133.477 123.191C134.123 122.943 134.572 122.35 134.636 121.661L135.823 108.786L147.102 102.465C147.705 102.127 148.065 101.475 148.028 100.784C147.992 100.093 147.567 99.4823 146.931 99.2089L139.699 96.0994C141.08 90.9666 141.817 85.5697 141.817 80.0008C141.817 45.8596 114.14 18.1826 79.9984 18.1826C45.8571 18.1826 18.1802 45.8596 18.1802 80.0008C18.1802 85.5746 18.9179 90.9762 20.3009 96.1131L13.1039 99.2079C12.4681 99.4812 12.0426 100.092 12.0064 100.783C11.9702 101.474 12.3295 102.126 12.9332 102.464L24.2119 108.785L25.3989 121.66C25.4624 122.349 25.9117 122.942 26.5578 123.19C27.2039 123.438 27.9348 123.298 28.4432 122.828L32.271 119.292ZM24.9239 61.192L46.9348 67.0898L46.9287 67.1127L66.4161 64.281L42.3696 35.6235C34.4495 42.3459 28.3522 51.1507 24.9239 61.192ZM78.1784 44.1245L69.3166 62.0805L45.2148 33.3571C54.4643 26.4483 65.8376 22.2261 78.1784 21.8469V44.1245ZM113.062 67.0898L135.073 61.1921C131.616 51.066 125.444 42.1974 117.426 35.4537L93.2745 64.2366L113.068 67.1128L113.062 67.0898ZM90.5525 61.8233L114.57 33.1998C105.358 26.3836 94.063 22.2224 81.8148 21.8468V44.1188L90.5525 61.8233ZM79.998 48.6542L71.2086 66.4634C70.9438 67.0001 70.4318 67.372 69.8396 67.4581L50.1859 70.3139L64.4075 84.1765C64.836 84.5942 65.0315 85.196 64.9304 85.7858L61.5731 105.36L79.1519 96.1184C79.6816 95.8399 80.3144 95.8399 80.8441 96.1184L98.4229 105.36L95.0656 85.7858C94.9645 85.196 95.16 84.5942 95.5885 84.1765L109.81 70.3139L90.1564 67.4581C89.5642 67.372 89.0522 67.0001 88.7874 66.4634L79.998 48.6542ZM30.3542 85.7441L28.361 95.7485C28.244 96.3353 27.8458 96.8271 27.2961 97.0635L17.9247 101.093L26.8235 106.08C27.3455 106.373 27.6902 106.904 27.7451 107.499L28.6817 117.657L36.1746 110.735C36.6142 110.329 37.2254 110.165 37.8091 110.297L47.7592 112.546L43.4913 103.28C43.241 102.737 43.2741 102.105 43.5799 101.59L48.7929 92.8221L38.6623 94.0179C38.068 94.0881 37.4772 93.8613 37.0825 93.4115L30.3542 85.7441ZM129.681 85.7452L122.952 93.4126C122.558 93.8624 121.967 94.0892 121.373 94.019L111.242 92.8232L116.455 101.592C116.761 102.106 116.794 102.738 116.544 103.281L112.276 112.547L122.226 110.298C122.809 110.166 123.421 110.33 123.86 110.736L131.353 117.658L132.29 107.501C132.345 106.905 132.689 106.374 133.211 106.081L142.11 101.094L132.739 97.0646C132.189 96.8282 131.791 96.3364 131.674 95.7495L129.681 85.7452Z" fill="#4D4D4D"/>
</g>
</g>
<defs>
<filter id="filter0_dd_659_2606" x="-9.09091" y="-9.09091" width="178.182" height="178.182" filterUnits="userSpaceOnUse" color-interpolation-filters="sRGB">
<feFlood flood-opacity="0" result="BackgroundImageFix"/>
<feColorMatrix in="SourceAlpha" type="matrix" values="0 0 0 0 0 0 0 0 0 0 0 0 0 0 0 0 0 0 127 0" result="hardAlpha"/>
<feOffset/>
<feGaussianBlur stdDeviation="4.54545"/>
<feComposite in2="hardAlpha" operator="out"/>
<feColorMatrix type="matrix" values="0 0 0 0 0 0 0 0 0 0 0 0 0 0 0 0 0 0 0.6 0"/>
<feBlend mode="normal" in2="BackgroundImageFix" result="effect1_dropShadow_659_2606"/>
<feColorMatrix in="SourceAlpha" type="matrix" values="0 0 0 0 0 0 0 0 0 0 0 0 0 0 0 0 0 0 127 0" result="hardAlpha"/>
<feOffset/>
<feGaussianBlur stdDeviation="1.81818"/>
<feComposite in2="hardAlpha" operator="out"/>
<feColorMatrix type="matrix" values="0 0 0 0 0 0 0 0 0 0 0 0 0 0 0 0 0 0 0.6 0"/>
<feBlend mode="normal" in2="effect1_dropShadow_659_2606" result="effect2_dropShadow_659_2606"/>
<feBlend mode="normal" in="SourceGraphic" in2="effect2_dropShadow_659_2606" result="shape"/>
</filter>
<linearGradient id="paint0_linear_659_2606" x1="80" y1="0" x2="80" y2="160" gradientUnits="userSpaceOnUse">
<stop stop-color="#333333"/>
<stop offset="1" stop-color="#1A1A1A"/>
</linearGradient>
<linearGradient id="paint1_linear_659_2606" x1="80" y1="0" x2="80" y2="160" gradientUnits="userSpaceOnUse">
<stop stop-color="#333333"/>
<stop offset="1" stop-color="#1A1A1A"/>
</linearGradient>
</defs>
</svg>
