<svg width="38" height="38" viewBox="0 0 38 38" fill="none" xmlns="http://www.w3.org/2000/svg">
<mask id="mask0_664_2686" style="mask-type:alpha" maskUnits="userSpaceOnUse" x="0" y="0" width="38" height="38">
<circle cx="19" cy="19" r="19" fill="#333333"/>
</mask>
<g mask="url(#mask0_664_2686)">
<circle cx="19" cy="19" r="19" fill="#00D5FF"/>
<g filter="url(#filter0_dd_664_2686)">
<path fill-rule="evenodd" clip-rule="evenodd" d="M19 34.6C27.6156 34.6 34.6 27.6156 34.6 19C34.6 10.3844 27.6156 3.4 19 3.4C10.3844 3.4 3.4 10.3844 3.4 19C3.4 27.6156 10.3844 34.6 19 34.6ZM19 38C29.4934 38 38 29.4934 38 19C38 8.50659 29.4934 0 19 0C8.50659 0 0 8.50659 0 19C0 29.4934 8.50659 38 19 38Z" fill="#989481"/>
</g>
<circle opacity="0.3" cx="19" cy="19" r="16" stroke="url(#paint0_linear_664_2686)"/>
</g>
<defs>
<filter id="filter0_dd_664_2686" x="-8" y="-8" width="54" height="54" filterUnits="userSpaceOnUse" color-interpolation-filters="sRGB">
<feFlood flood-opacity="0" result="BackgroundImageFix"/>
<feColorMatrix in="SourceAlpha" type="matrix" values="0 0 0 0 0 0 0 0 0 0 0 0 0 0 0 0 0 0 127 0" result="hardAlpha"/>
<feOffset/>
<feGaussianBlur stdDeviation="4"/>
<feComposite in2="hardAlpha" operator="out"/>
<feColorMatrix type="matrix" values="0 0 0 0 0 0 0 0 0 0 0 0 0 0 0 0 0 0 0.8 0"/>
<feBlend mode="normal" in2="BackgroundImageFix" result="effect1_dropShadow_664_2686"/>
<feColorMatrix in="SourceAlpha" type="matrix" values="0 0 0 0 0 0 0 0 0 0 0 0 0 0 0 0 0 0 127 0" result="hardAlpha"/>
<feOffset/>
<feGaussianBlur stdDeviation="2"/>
<feComposite in2="hardAlpha" operator="out"/>
<feColorMatrix type="matrix" values="0 0 0 0 0 0 0 0 0 0 0 0 0 0 0 0 0 0 0.8 0"/>
<feBlend mode="normal" in2="effect1_dropShadow_664_2686" result="effect2_dropShadow_664_2686"/>
<feBlend mode="normal" in="SourceGraphic" in2="effect2_dropShadow_664_2686" result="shape"/>
</filter>
<linearGradient id="paint0_linear_664_2686" x1="35.5" y1="2.5" x2="2.5" y2="35.5" gradientUnits="userSpaceOnUse">
<stop offset="0.102941" stop-color="white" stop-opacity="0"/>
<stop offset="0.847059" stop-color="white"/>
</linearGradient>
</defs>
</svg>
