<svg width="134" height="160" viewBox="0 0 134 160" fill="none" xmlns="http://www.w3.org/2000/svg">
<mask id="mask0_659_2630" style="mask-type:alpha" maskUnits="userSpaceOnUse" x="0" y="2" width="134" height="156">
<path d="M59.4682 4.28248C64.1383 1.6271 69.8617 1.6271 74.5318 4.28248L126.294 33.7136C131.057 36.4222 134 41.4801 134 46.9601V113.04C134 118.52 131.057 123.578 126.294 126.286L74.5318 155.718C69.8617 158.373 64.1383 158.373 59.4682 155.718L7.70629 126.286C2.9425 123.578 0 118.52 0 113.04V46.9601C0 41.4801 2.94251 36.4222 7.70629 33.7136L59.4682 4.28248Z" fill="#262626"/>
</mask>
<g mask="url(#mask0_659_2630)">
<g filter="url(#filter0_d_659_2630)">
<path d="M59.4682 4.28248C64.1383 1.6271 69.8617 1.6271 74.5318 4.28248L126.294 33.7136C131.057 36.4222 134 41.4801 134 46.9601V113.04C134 118.52 131.057 123.578 126.294 126.286L74.5318 155.718C69.8617 158.373 64.1383 158.373 59.4682 155.718L7.70629 126.286C2.9425 123.578 0 118.52 0 113.04V46.9601C0 41.4801 2.94251 36.4222 7.70629 33.7136L59.4682 4.28248Z" fill="#262626"/>
</g>
<g filter="url(#filter1_d_659_2630)">
<path d="M59.4682 4.28248C64.1383 1.6271 69.8617 1.6271 74.5318 4.28248L126.294 33.7136C131.057 36.4222 134 41.4801 134 46.9601V113.04C134 118.52 131.057 123.578 126.294 126.286L74.5318 155.718C69.8617 158.373 64.1383 158.373 59.4682 155.718L7.70629 126.286C2.9425 123.578 0 118.52 0 113.04V46.9601C0 41.4801 2.94251 36.4222 7.70629 33.7136L59.4682 4.28248Z" fill="url(#paint0_linear_659_2630)"/>
</g>
<g filter="url(#filter2_dd_659_2630)">
<path fill-rule="evenodd" clip-rule="evenodd" d="M102.024 23.4201L124.787 36.3629C128.598 38.5298 130.952 42.5762 130.952 46.9602V113.04C130.952 117.424 128.598 121.47 124.787 123.637L102.024 136.58L102.024 23.4201ZM98.9765 21.6873L73.0254 6.93186C69.2893 4.80756 64.7107 4.80756 60.9746 6.93186L9.21265 36.3629C5.40162 38.5298 3.04762 42.5762 3.04762 46.9602V113.04C3.04762 117.424 5.40162 121.47 9.21265 123.637L54.0584 149.136L54.2507 148.601C54.5678 147.719 55.0306 146.437 55.6136 144.832C56.7795 141.622 58.4261 137.122 60.3495 131.962C64.1946 121.645 69.1519 108.67 73.5866 98.0786C78.0204 87.4896 84.4063 73.3739 89.6778 61.9176C92.3148 56.1868 94.6751 51.1168 96.3762 47.4794C97.0666 46.0031 97.6484 44.7628 98.0961 43.8099H33.1172C32.2756 43.8099 31.5934 43.1277 31.5934 42.2861C31.5934 41.4446 32.2756 40.7623 33.1172 40.7623H98.9765V21.6873ZM56.7564 150.641L56.7477 150.665L60.9746 153.068C64.7107 155.193 69.2893 155.193 73.0254 153.068L98.9765 138.313L98.9765 49.1133C97.2909 52.719 94.9983 57.6456 92.4464 63.1915C87.1765 74.6443 80.8096 88.7191 76.3978 99.2556C71.9869 109.79 67.0465 122.719 63.2052 133.026C61.2854 138.177 59.6418 142.669 58.4781 145.872C57.8963 147.474 57.4346 148.754 57.1184 149.633C57.0185 149.91 56.9331 150.148 56.863 150.343L56.7564 150.641ZM59.4682 4.28255C64.1383 1.62717 69.8617 1.62717 74.5318 4.28255L126.294 33.7136C131.057 36.4222 134 41.4802 134 46.9602V113.04C134 118.52 131.057 123.578 126.294 126.287L74.5318 155.718C69.8617 158.373 64.1383 158.373 59.4682 155.718L7.70629 126.287C2.9425 123.578 0 118.52 0 113.04V46.9602C0 41.4802 2.94251 36.4222 7.70629 33.7136L59.4682 4.28255ZM111.921 40.6619H114.564V41.7926C114.564 42.3828 114.667 42.8841 114.874 43.2966C115.087 43.709 115.375 44.0183 115.737 44.2246C116.106 44.4379 116.526 44.5446 116.995 44.5446C117.748 44.5446 118.345 44.3099 118.785 43.8406C119.233 43.3712 119.457 42.6886 119.457 41.7926V38.8379H111.921V40.6619ZM116.995 42.6886C116.348 42.6886 116.025 42.3223 116.025 41.5899V40.6619H117.986V41.5899C117.986 42.3223 117.656 42.6886 116.995 42.6886ZM115.108 47.4261H119.457V45.6127H115.108C114.397 45.6127 113.797 45.7443 113.307 46.0074C112.816 46.2705 112.45 46.6332 112.209 47.0954C111.967 47.5576 111.846 48.0909 111.846 48.6954C111.846 49.2998 111.967 49.8403 112.209 50.3167C112.457 50.8003 112.823 51.1807 113.307 51.4581C113.797 51.7354 114.397 51.8741 115.108 51.8741H119.457V50.0501H115.108C114.611 50.0501 114.23 49.9363 113.968 49.7087C113.705 49.4883 113.573 49.1647 113.573 48.7381C113.573 48.3114 113.705 47.9843 113.968 47.7567C114.23 47.5363 114.611 47.4261 115.108 47.4261ZM113.317 55.1302V57.5622H111.921V53.3062H119.457V55.1302H113.317ZM113.317 62.8693V60.4373H119.457V58.6133H111.921V62.8693H113.317ZM111.921 70.1411L114.767 68.5091V68.0931H111.921V66.2691H119.457V69.3838C119.457 69.9811 119.354 70.486 119.148 70.8985C118.942 71.3109 118.658 71.6203 118.295 71.8265C117.94 72.0327 117.531 72.1358 117.069 72.1358C116.522 72.1358 116.057 71.9829 115.673 71.6771C115.289 71.3785 115.026 70.9411 114.884 70.3651L111.921 72.1571V70.1411ZM116.014 68.0931V69.2238C116.014 69.5865 116.092 69.8531 116.249 70.0238C116.412 70.1945 116.65 70.2798 116.963 70.2798C117.261 70.2798 117.496 70.1909 117.666 70.0131C117.837 69.8425 117.922 69.5794 117.922 69.2238V68.0931H116.014ZM116.43 75.0877H118.007V77.9571H119.457V73.2637H111.921V77.9571H113.381V75.0877H115.055V77.6371H116.43V75.0877ZM110.599 84.5929L111.932 83.6116C111.875 83.3271 111.846 83.0533 111.846 82.7902C111.846 82.0862 112.01 81.4427 112.337 80.8596C112.671 80.2836 113.133 79.8249 113.722 79.4836C114.312 79.1493 114.977 78.9822 115.716 78.9822C116.455 78.9822 117.116 79.1493 117.698 79.4836C118.288 79.8249 118.746 80.2836 119.073 80.8596C119.407 81.4427 119.574 82.0862 119.574 82.7902C119.574 83.5013 119.407 84.1449 119.073 84.7209C118.746 85.304 118.288 85.7627 117.698 86.0969C117.116 86.4311 116.455 86.5982 115.716 86.5982C115.062 86.5982 114.465 86.4631 113.925 86.1929C113.385 85.9298 112.941 85.5636 112.593 85.0942L110.599 86.7796V84.5929ZM115.716 80.8382C115.055 80.8382 114.529 81.0124 114.138 81.3609C113.747 81.7164 113.552 82.1929 113.552 82.7902C113.552 83.3804 113.747 83.8533 114.138 84.2089C114.529 84.5644 115.055 84.7422 115.716 84.7422C116.376 84.7422 116.902 84.5644 117.293 84.2089C117.684 83.8604 117.879 83.3876 117.879 82.7902C117.879 82.1929 117.684 81.7164 117.293 81.3609C116.909 81.0124 116.384 80.8382 115.716 80.8382ZM115.108 89.6069H119.457V87.7936H115.108C114.397 87.7936 113.797 87.9251 113.307 88.1882C112.816 88.4513 112.45 88.814 112.209 89.2762C111.967 89.7384 111.846 90.2718 111.846 90.8762C111.846 91.4807 111.967 92.0211 112.209 92.4976C112.457 92.9811 112.823 93.3616 113.307 93.6389C113.797 93.9162 114.397 94.0549 115.108 94.0549H119.457V92.2309H115.108C114.611 92.2309 114.23 92.1171 113.968 91.8896C113.705 91.6691 113.573 91.3456 113.573 90.9189C113.573 90.4922 113.705 90.1651 113.968 89.9376C114.23 89.7171 114.611 89.6069 115.108 89.6069ZM118.007 97.3111H116.43V99.8604H115.055V97.3111H113.381V100.18H111.921V95.4871H119.457V100.18H118.007V97.3111ZM112.944 106.539C113.278 106.745 113.644 106.848 114.042 106.848C114.532 106.848 114.93 106.738 115.236 106.518C115.542 106.297 115.772 106.034 115.929 105.728C116.092 105.422 116.256 105.028 116.419 104.544C116.54 104.21 116.639 103.954 116.718 103.776C116.796 103.598 116.895 103.449 117.016 103.328C117.144 103.214 117.297 103.158 117.474 103.158C117.695 103.158 117.862 103.222 117.975 103.35C118.089 103.485 118.146 103.659 118.146 103.872C118.146 104.121 118.071 104.317 117.922 104.459C117.78 104.608 117.585 104.701 117.336 104.736V106.71C118.032 106.646 118.579 106.365 118.977 105.867C119.375 105.376 119.574 104.711 119.574 103.872C119.574 103.353 119.485 102.891 119.308 102.486C119.137 102.087 118.888 101.774 118.562 101.547C118.235 101.319 117.847 101.206 117.4 101.206C116.917 101.206 116.522 101.312 116.217 101.526C115.918 101.746 115.691 102.006 115.534 102.304C115.385 102.61 115.229 103.001 115.065 103.478C114.952 103.805 114.852 104.061 114.767 104.246C114.689 104.43 114.586 104.583 114.458 104.704C114.33 104.832 114.17 104.896 113.978 104.896C113.765 104.896 113.594 104.829 113.467 104.694C113.339 104.558 113.275 104.374 113.275 104.139C113.275 103.869 113.356 103.645 113.52 103.467C113.683 103.296 113.907 103.197 114.191 103.168V101.227C113.452 101.277 112.877 101.575 112.465 102.123C112.052 102.67 111.846 103.367 111.846 104.214C111.846 104.775 111.946 105.252 112.145 105.643C112.344 106.041 112.61 106.34 112.944 106.539ZM119.457 113.489H118.007V111.441H111.921V109.606H118.007V107.579H119.457V113.489ZM112.944 119.58C113.278 119.786 113.644 119.889 114.042 119.889C114.532 119.889 114.93 119.779 115.236 119.559C115.542 119.338 115.772 119.075 115.929 118.769C116.092 118.464 116.256 118.069 116.419 117.585C116.54 117.251 116.639 116.995 116.718 116.817C116.796 116.64 116.895 116.49 117.016 116.369C117.144 116.256 117.297 116.199 117.474 116.199C117.695 116.199 117.862 116.263 117.975 116.391C118.089 116.526 118.146 116.7 118.146 116.913C118.146 117.162 118.071 117.358 117.922 117.5C117.78 117.649 117.585 117.742 117.336 117.777V119.751C118.032 119.687 118.579 119.406 118.977 118.908C119.375 118.417 119.574 117.753 119.574 116.913C119.574 116.394 119.485 115.932 119.308 115.527C119.137 115.129 118.888 114.816 118.562 114.588C118.235 114.361 117.847 114.247 117.4 114.247C116.917 114.247 116.522 114.353 116.217 114.567C115.918 114.787 115.691 115.047 115.534 115.345C115.385 115.651 115.229 116.042 115.065 116.519C114.952 116.846 114.852 117.102 114.767 117.287C114.689 117.472 114.586 117.625 114.458 117.745C114.33 117.873 114.17 117.937 113.978 117.937C113.765 117.937 113.594 117.87 113.467 117.735C113.339 117.6 113.275 117.415 113.275 117.18C113.275 116.91 113.356 116.686 113.52 116.508C113.683 116.337 113.907 116.238 114.191 116.209V114.268C113.452 114.318 112.877 114.617 112.465 115.164C112.052 115.712 111.846 116.409 111.846 117.255C111.846 117.817 111.946 118.293 112.145 118.684C112.344 119.082 112.61 119.381 112.944 119.58Z" fill="#4D4D4D"/>
</g>
</g>
<defs>
<filter id="filter0_d_659_2630" x="-15.2381" y="-9.13768" width="164.476" height="185.894" filterUnits="userSpaceOnUse" color-interpolation-filters="sRGB">
<feFlood flood-opacity="0" result="BackgroundImageFix"/>
<feColorMatrix in="SourceAlpha" type="matrix" values="0 0 0 0 0 0 0 0 0 0 0 0 0 0 0 0 0 0 127 0" result="hardAlpha"/>
<feOffset dy="3.80952"/>
<feGaussianBlur stdDeviation="7.61905"/>
<feComposite in2="hardAlpha" operator="out"/>
<feColorMatrix type="matrix" values="0 0 0 0 0 0 0 0 0 0 0 0 0 0 0 0 0 0 1 0"/>
<feBlend mode="normal" in2="BackgroundImageFix" result="effect1_dropShadow_659_2630"/>
<feBlend mode="normal" in="SourceGraphic" in2="effect1_dropShadow_659_2630" result="shape"/>
</filter>
<filter id="filter1_d_659_2630" x="-6.09524" y="-0.756726" width="146.19" height="167.609" filterUnits="userSpaceOnUse" color-interpolation-filters="sRGB">
<feFlood flood-opacity="0" result="BackgroundImageFix"/>
<feColorMatrix in="SourceAlpha" type="matrix" values="0 0 0 0 0 0 0 0 0 0 0 0 0 0 0 0 0 0 127 0" result="hardAlpha"/>
<feOffset dy="3.04762"/>
<feGaussianBlur stdDeviation="3.04762"/>
<feComposite in2="hardAlpha" operator="out"/>
<feColorMatrix type="matrix" values="0 0 0 0 0 0 0 0 0 0 0 0 0 0 0 0 0 0 0.2 0"/>
<feBlend mode="normal" in2="BackgroundImageFix" result="effect1_dropShadow_659_2630"/>
<feBlend mode="normal" in="SourceGraphic" in2="effect1_dropShadow_659_2630" result="shape"/>
</filter>
<filter id="filter2_dd_659_2630" x="-6" y="-3.70898" width="146" height="167.418" filterUnits="userSpaceOnUse" color-interpolation-filters="sRGB">
<feFlood flood-opacity="0" result="BackgroundImageFix"/>
<feColorMatrix in="SourceAlpha" type="matrix" values="0 0 0 0 0 0 0 0 0 0 0 0 0 0 0 0 0 0 127 0" result="hardAlpha"/>
<feOffset/>
<feGaussianBlur stdDeviation="3"/>
<feComposite in2="hardAlpha" operator="out"/>
<feColorMatrix type="matrix" values="0 0 0 0 0 0 0 0 0 0 0 0 0 0 0 0 0 0 0.6 0"/>
<feBlend mode="normal" in2="BackgroundImageFix" result="effect1_dropShadow_659_2630"/>
<feColorMatrix in="SourceAlpha" type="matrix" values="0 0 0 0 0 0 0 0 0 0 0 0 0 0 0 0 0 0 127 0" result="hardAlpha"/>
<feOffset/>
<feGaussianBlur stdDeviation="1"/>
<feComposite in2="hardAlpha" operator="out"/>
<feColorMatrix type="matrix" values="0 0 0 0 0 0 0 0 0 0 0 0 0 0 0 0 0 0 0.6 0"/>
<feBlend mode="normal" in2="effect1_dropShadow_659_2630" result="effect2_dropShadow_659_2630"/>
<feBlend mode="normal" in="SourceGraphic" in2="effect2_dropShadow_659_2630" result="shape"/>
</filter>
<linearGradient id="paint0_linear_659_2630" x1="67" y1="0" x2="67" y2="160" gradientUnits="userSpaceOnUse">
<stop stop-color="#333333"/>
<stop offset="1" stop-color="#1A1A1A"/>
</linearGradient>
</defs>
</svg>
