<svg width="160" height="160" viewBox="0 0 160 160" fill="none" xmlns="http://www.w3.org/2000/svg">
<circle cx="80" cy="80" r="80" fill="url(#paint0_linear_659_2583)"/>
<mask id="mask0_659_2583" style="mask-type:alpha" maskUnits="userSpaceOnUse" x="0" y="0" width="160" height="160">
<circle cx="80" cy="80" r="80" fill="url(#paint1_linear_659_2583)"/>
</mask>
<g mask="url(#mask0_659_2583)">
<g filter="url(#filter0_dd_659_2583)">
<path fill-rule="evenodd" clip-rule="evenodd" d="M78.1232 145.879V156.341C62.6913 155.969 48.3938 151.019 36.5369 142.797L68.1025 126.209L70.3342 144.283C70.4467 145.194 71.2207 145.879 72.1386 145.879H78.1232ZM35.8309 123.252L32.9334 140.139C15.0973 126.16 3.63636 104.418 3.63636 80C3.63636 72.4396 4.73507 65.1358 6.78151 58.2396L18.9663 70.1113C18.4487 73.3311 18.1797 76.6341 18.1797 79.9998C18.1797 96.8378 24.9117 112.104 35.8309 123.252ZM36.6023 118.757L41.2278 91.8008L22.2018 73.2637C21.947 75.4737 21.8161 77.7215 21.8161 79.9998C21.8161 94.8836 27.4048 108.465 36.6023 118.757ZM25.5686 50.6669L8.49129 53.1473C19.0305 25.0947 45.6038 4.88815 77.0466 3.69243L69.4498 19.078C50.4519 22.344 34.4182 34.2803 25.5686 50.6669ZM30.1343 50.0038L56.0376 46.2416L67.4243 23.1802C51.6275 26.6601 38.2392 36.5596 30.1343 50.0038ZM81.7596 156.344C97.2362 155.994 111.576 151.039 123.463 142.797L92.0579 126.294L89.8366 144.283C89.7241 145.194 88.9501 145.879 88.0321 145.879H81.7596V156.344ZM156.364 80C156.364 104.419 144.902 126.16 127.066 140.139L124.168 123.249C135.085 112.101 141.816 96.8363 141.816 79.9998C141.816 76.6351 141.547 73.3332 141.03 70.1143L153.218 58.239C155.265 65.1354 156.364 72.4394 156.364 80ZM137.794 73.2668C138.049 75.4758 138.18 77.7225 138.18 79.9998C138.18 94.882 132.592 108.462 123.396 118.753L118.772 91.8008L137.794 73.2668ZM134.427 50.6664L151.509 53.1474C140.969 25.0945 114.396 4.88784 82.9527 3.6924L90.5498 19.0786C109.546 22.3456 125.578 34.2811 134.427 50.6664ZM129.861 50.0032L103.962 46.2416L92.5754 23.1811C108.37 26.6617 121.757 36.5605 129.861 50.0032ZM80 160H79.9929C79.9758 160 79.9587 160.001 79.9414 160.001C79.9232 160.001 79.9052 160 79.8872 160C35.7563 159.939 0 124.145 0 80C0 35.8172 35.8172 0 80 0C124.183 0 160 35.8172 160 80C160 124.183 124.183 160 80 160ZM123.094 138.495L92.5342 122.436L96.2048 92.7088C96.5717 92.3835 96.9312 92.0452 97.2825 91.6938C101.815 87.1612 104.182 81.2834 104.384 75.3455H106.914C107.918 75.3455 108.732 74.5315 108.732 73.5273C108.732 72.5232 107.918 71.7092 106.914 71.7092H104.237C103.63 66.4568 101.312 61.3646 97.2825 57.3355C87.7948 47.8477 72.412 47.8477 62.9242 57.3355C58.8951 61.3646 56.5771 66.4568 55.97 71.7092H53.2734C52.2693 71.7092 51.4553 72.5232 51.4553 73.5273C51.4553 74.5315 52.2693 75.3455 53.2734 75.3455H55.8225C56.0245 81.2834 58.3917 87.1612 62.9242 91.6938C63.2627 92.0322 63.6087 92.3586 63.9616 92.6729L67.6262 122.352L36.9048 138.495L44.9735 91.4734C45.0747 90.8834 44.879 90.2814 44.4503 89.8636L10.2718 56.5632L57.5061 49.7028C58.0982 49.6168 58.6101 49.245 58.875 48.7085L79.9996 5.9251L101.124 48.7085C101.389 49.245 101.901 49.6168 102.493 49.7028L149.728 56.5632L115.549 89.8636C115.12 90.2814 114.925 90.8834 115.026 91.4734L123.094 138.495ZM94.7112 59.9068C98.0298 63.2254 99.9833 67.3921 100.572 71.7092H59.635C60.2235 67.3921 62.177 63.2254 65.4955 59.9068C73.5632 51.8391 86.6435 51.8391 94.7112 59.9068ZM100.745 75.3455H59.4614C59.6617 80.3522 61.6731 85.3 65.4955 89.1225C73.0926 96.7195 85.1345 97.1627 93.2502 90.452C93.2967 90.4089 93.3454 90.3682 93.3962 90.3302C93.8474 89.95 94.2863 89.5474 94.7112 89.1225C98.5337 85.3 100.545 80.3522 100.745 75.3455ZM67.9843 95.578L73.7461 142.242H86.4247L92.1838 95.6003C84.7124 99.8868 75.4494 99.8794 67.9843 95.578Z" fill="#4D4D4D"/>
</g>
</g>
<defs>
<filter id="filter0_dd_659_2583" x="-9.09091" y="-9.09091" width="178.182" height="178.183" filterUnits="userSpaceOnUse" color-interpolation-filters="sRGB">
<feFlood flood-opacity="0" result="BackgroundImageFix"/>
<feColorMatrix in="SourceAlpha" type="matrix" values="0 0 0 0 0 0 0 0 0 0 0 0 0 0 0 0 0 0 127 0" result="hardAlpha"/>
<feOffset/>
<feGaussianBlur stdDeviation="4.54545"/>
<feComposite in2="hardAlpha" operator="out"/>
<feColorMatrix type="matrix" values="0 0 0 0 0 0 0 0 0 0 0 0 0 0 0 0 0 0 0.6 0"/>
<feBlend mode="normal" in2="BackgroundImageFix" result="effect1_dropShadow_659_2583"/>
<feColorMatrix in="SourceAlpha" type="matrix" values="0 0 0 0 0 0 0 0 0 0 0 0 0 0 0 0 0 0 127 0" result="hardAlpha"/>
<feOffset/>
<feGaussianBlur stdDeviation="1.81818"/>
<feComposite in2="hardAlpha" operator="out"/>
<feColorMatrix type="matrix" values="0 0 0 0 0 0 0 0 0 0 0 0 0 0 0 0 0 0 0.6 0"/>
<feBlend mode="normal" in2="effect1_dropShadow_659_2583" result="effect2_dropShadow_659_2583"/>
<feBlend mode="normal" in="SourceGraphic" in2="effect2_dropShadow_659_2583" result="shape"/>
</filter>
<linearGradient id="paint0_linear_659_2583" x1="80" y1="0" x2="80" y2="160" gradientUnits="userSpaceOnUse">
<stop stop-color="#333333"/>
<stop offset="1" stop-color="#1A1A1A"/>
</linearGradient>
<linearGradient id="paint1_linear_659_2583" x1="80" y1="0" x2="80" y2="160" gradientUnits="userSpaceOnUse">
<stop stop-color="#333333"/>
<stop offset="1" stop-color="#1A1A1A"/>
</linearGradient>
</defs>
</svg>
