<svg width="160" height="160" viewBox="0 0 160 160" fill="none" xmlns="http://www.w3.org/2000/svg">
<circle cx="80" cy="80" r="80" fill="url(#paint0_linear_659_2641)"/>
<mask id="mask0_659_2641" style="mask-type:alpha" maskUnits="userSpaceOnUse" x="0" y="0" width="160" height="160">
<circle cx="80" cy="80" r="80" fill="url(#paint1_linear_659_2641)"/>
</mask>
<g mask="url(#mask0_659_2641)">
<g filter="url(#filter0_dd_659_2641)">
<mask id="mask1_659_2641" style="mask-type:alpha" maskUnits="userSpaceOnUse" x="0" y="0" width="160" height="160">
<circle cx="80" cy="80" r="80" fill="#262626"/>
</mask>
<g mask="url(#mask1_659_2641)">
<path fill-rule="evenodd" clip-rule="evenodd" d="M71.4652 165.42C71.6335 165.454 71.8056 165.463 71.9765 165.448L96.522 163.293C96.6709 163.28 96.8177 163.249 96.959 163.199L117.141 156.196C117.292 156.143 117.436 156.071 117.569 155.981L122.291 152.761C122.66 152.509 122.924 152.13 123.031 151.697L141.764 76.1942C141.899 75.6514 141.776 75.0768 141.431 74.6362C141.087 74.1957 140.559 73.9382 139.999 73.9382H111.58V43.8645C111.58 39.8638 108.837 36.5031 105.129 35.5641L114.663 -10.5406C114.831 -11.3514 114.429 -12.1731 113.687 -12.5394C112.944 -12.9057 112.048 -12.724 111.507 -12.0974L68.5004 37.6807C66.9634 36.2079 64.8782 35.3029 62.5814 35.3029C57.854 35.3029 54.0231 39.1369 54.0231 43.8645V54.4376L13.169 101.725C12.7039 102.263 12.5955 103.023 12.8914 103.67C13.1874 104.317 13.8334 104.732 14.5448 104.732H45.6119C45.899 106.051 46.331 107.167 46.8583 108.125C47.8896 110 49.2745 111.186 50.1334 111.922L50.1339 111.923C50.3005 112.065 50.4473 112.191 50.5679 112.302C50.5857 112.318 50.6034 112.334 50.6211 112.351L31.4659 150.442C31.0218 151.325 31.3646 152.401 32.2376 152.865L46.4194 160.394C46.5766 160.478 46.7451 160.537 46.9197 160.572L71.4652 165.42ZM53.2585 115.2C55.8662 118.85 56.7191 123.725 56.7191 128.771V153.637C56.7191 154.642 57.5331 155.456 58.5373 155.456C59.5414 155.456 60.3555 154.642 60.3555 153.637V128.771C60.3555 122.572 59.1646 115.683 54.3616 110.896C53.937 110.473 53.4926 110.05 53.0253 109.621C52.8094 109.423 52.5942 109.236 52.3811 109.052C51.5386 108.32 50.7294 107.618 50.0444 106.373C49.2221 104.878 48.5485 102.459 49.0114 98.2351C49.2354 96.1919 49.9038 94.1671 50.7594 92.1007L52.9421 86.829C53.85 84.6363 54.784 82.7493 56.2176 81.3813C56.4604 81.1496 56.7087 80.9322 56.9576 80.7386C58.1343 79.8234 59.5647 79.2278 61.2455 78.6183L69.9414 75.4648L75.4935 73.4514C77.4647 72.7366 78.8265 72.2816 80.0667 72.5927C80.6711 72.7443 81.2395 73.0098 81.742 73.3703C82.7351 74.0825 83.4634 75.1589 83.7092 76.4535C84.0053 78.0135 83.2256 79.4632 81.6264 80.8184C80.9075 81.4275 80.0841 81.9586 79.27 82.3964L79.2233 82.4216L79.1781 82.4494L69.8848 88.1714L69.8486 88.1937L69.8135 88.2177C69.6515 88.3282 69.4981 88.4322 69.3505 88.5323L69.2363 88.6097C68.7847 88.916 68.36 89.2052 68.0135 89.4711C67.6819 89.7256 67.2913 90.0547 66.994 90.4714C66.6534 90.9489 66.4237 91.5586 66.4895 92.2717C66.5472 92.896 66.8176 93.4071 67.0434 93.7645C67.9186 95.1496 69.0606 96.3033 70.0456 97.2984L70.0456 97.2985L70.1335 97.3872C71.1889 98.454 72.0673 99.3577 72.7051 100.391C74.0011 102.49 74.4964 104.989 74.1252 107.406C73.9728 108.398 74.6537 109.326 75.6463 109.479C76.6388 109.631 77.567 108.95 77.7194 107.958C78.2205 104.696 77.5538 101.322 75.7992 98.4805C74.9173 97.052 73.7514 95.8736 72.7483 94.8599L72.7185 94.8297C72.5569 94.6664 72.3994 94.507 72.2461 94.3506C73.3944 94.9238 74.6901 95.2467 76.0617 95.2467C78.7988 95.2467 81.2353 93.9615 82.8018 91.9618C84.3683 93.9615 86.8048 95.2467 89.5419 95.2467C94.2694 95.2467 98.1002 91.4127 98.1002 86.6851V66.9607V66.7921V43.8645C98.1002 41.1435 100.305 38.9392 103.022 38.9392C105.74 38.9392 107.944 41.1435 107.944 43.8645V93.4286C107.944 95.1423 107.82 99.1791 107.227 103.216C106.931 105.236 106.524 107.204 105.978 108.862C105.416 110.565 104.774 111.73 104.131 112.347C102.079 114.315 100.578 116.924 99.605 119.367C98.6492 121.767 98.119 124.223 98.1796 125.998L98.1709 149.904V149.905V154.092C98.1709 155.096 98.9849 155.91 99.989 155.91C100.993 155.91 101.807 155.096 101.807 154.092V149.905V149.905L101.816 125.966L101.816 125.93L101.815 125.894C101.772 124.807 102.127 122.863 102.983 120.712C103.83 118.587 105.081 116.474 106.648 114.971C107.939 113.733 108.81 111.885 109.431 110C110.067 108.07 110.512 105.876 110.825 103.745C111.452 99.4789 111.58 95.255 111.58 93.4286V77.5746H137.675L119.669 150.147L115.72 152.84L95.9796 159.69L71.9161 161.803L47.8876 157.056L35.5136 150.487L53.2585 115.2ZM45.2258 101.095C45.2142 100.098 45.2677 99.016 45.3967 97.8389C45.6753 95.297 46.4906 92.9049 47.3996 90.7096L49.5824 85.4379C50.5061 83.207 51.677 80.6879 53.7072 78.7506C53.8097 78.6527 53.9151 78.5548 54.0231 78.4576V59.9999L18.5184 101.095H45.2258ZM57.6595 55.7909V76.1362C58.4557 75.774 59.2507 75.4736 60.0058 75.1997L67.5034 72.4809V66.7921V43.8645C67.5034 41.1435 65.2989 38.9392 62.5814 38.9392C59.8639 38.9392 57.6595 41.1435 57.6595 43.8645V55.6922L57.7083 55.7344L57.6595 55.7909ZM70.5861 40.8288L109.685 -4.42724L101.439 35.449C97.4683 36.1919 94.4638 39.6778 94.4638 43.8645V59.7871C93.0718 58.8064 91.3742 58.2305 89.5419 58.2305C86.8048 58.2305 84.3683 59.5157 82.8018 61.5154C81.2353 59.5157 78.7988 58.2305 76.0617 58.2305C74.2294 58.2305 72.5318 58.8064 71.1397 59.7871V43.8645C71.1397 42.7956 70.9439 41.7723 70.5861 40.8288ZM74.2538 70.0329L71.1397 71.1622V66.7921C71.1397 64.0711 73.3442 61.8668 76.0617 61.8668C78.7791 61.8668 80.9836 64.0711 80.9836 66.7921V69.0737L80.9515 69.0656C78.5516 68.4636 76.1825 69.3288 74.5118 69.9389C74.4239 69.971 74.3378 70.0025 74.2538 70.0329ZM84.62 71.0275V66.7921C84.62 64.0711 86.8244 61.8668 89.5419 61.8668C92.2594 61.8668 94.4638 64.0711 94.4638 66.7921V66.9607V86.6851C94.4638 89.4061 92.2594 91.6104 89.5419 91.6104C86.8244 91.6104 84.62 89.4061 84.62 86.6851V83.0108C86.3866 81.2996 87.8659 78.8522 87.2817 75.7753C86.9204 73.8721 85.9531 72.2344 84.62 71.0275ZM80.9836 85.6081V86.6851C80.9836 89.4061 78.7791 91.6104 76.0617 91.6104C74.8995 91.6104 73.8304 91.2077 72.987 90.5317L80.9836 85.6081Z" fill="#4D4D4D"/>
<path fill-rule="evenodd" clip-rule="evenodd" d="M80 156.365C122.174 156.365 156.364 122.175 156.364 80.001C156.364 37.8265 122.174 3.63734 80 3.63734C37.8255 3.63734 3.63636 37.8265 3.63636 80.001C3.63636 122.175 37.8255 156.365 80 156.365ZM80 160.001C124.183 160.001 160 124.184 160 80.001C160 35.8182 124.183 0.000976562 80 0.000976562C35.8172 0.000976562 0 35.8182 0 80.001C0 124.184 35.8172 160.001 80 160.001Z" fill="#4D4D4D"/>
</g>
</g>
</g>
<defs>
<filter id="filter0_dd_659_2641" x="-9.09091" y="-9.09091" width="178.182" height="178.182" filterUnits="userSpaceOnUse" color-interpolation-filters="sRGB">
<feFlood flood-opacity="0" result="BackgroundImageFix"/>
<feColorMatrix in="SourceAlpha" type="matrix" values="0 0 0 0 0 0 0 0 0 0 0 0 0 0 0 0 0 0 127 0" result="hardAlpha"/>
<feOffset/>
<feGaussianBlur stdDeviation="4.54545"/>
<feComposite in2="hardAlpha" operator="out"/>
<feColorMatrix type="matrix" values="0 0 0 0 0 0 0 0 0 0 0 0 0 0 0 0 0 0 0.6 0"/>
<feBlend mode="normal" in2="BackgroundImageFix" result="effect1_dropShadow_659_2641"/>
<feColorMatrix in="SourceAlpha" type="matrix" values="0 0 0 0 0 0 0 0 0 0 0 0 0 0 0 0 0 0 127 0" result="hardAlpha"/>
<feOffset/>
<feGaussianBlur stdDeviation="1.81818"/>
<feComposite in2="hardAlpha" operator="out"/>
<feColorMatrix type="matrix" values="0 0 0 0 0 0 0 0 0 0 0 0 0 0 0 0 0 0 0.6 0"/>
<feBlend mode="normal" in2="effect1_dropShadow_659_2641" result="effect2_dropShadow_659_2641"/>
<feBlend mode="normal" in="SourceGraphic" in2="effect2_dropShadow_659_2641" result="shape"/>
</filter>
<linearGradient id="paint0_linear_659_2641" x1="80" y1="0" x2="80" y2="160" gradientUnits="userSpaceOnUse">
<stop stop-color="#333333"/>
<stop offset="1" stop-color="#1A1A1A"/>
</linearGradient>
<linearGradient id="paint1_linear_659_2641" x1="80" y1="0" x2="80" y2="160" gradientUnits="userSpaceOnUse">
<stop stop-color="#333333"/>
<stop offset="1" stop-color="#1A1A1A"/>
</linearGradient>
</defs>
</svg>
