<svg width="134" height="160" viewBox="0 0 134 160" fill="none" xmlns="http://www.w3.org/2000/svg">
<mask id="mask0_659_2412" style="mask-type:alpha" maskUnits="userSpaceOnUse" x="0" y="2" width="134" height="156">
<path d="M59.4682 4.28248C64.1383 1.6271 69.8617 1.6271 74.5318 4.28248L126.294 33.7136C131.057 36.4222 134 41.4801 134 46.9601V113.04C134 118.52 131.057 123.578 126.294 126.286L74.5318 155.718C69.8617 158.373 64.1383 158.373 59.4682 155.718L7.70629 126.286C2.9425 123.578 0 118.52 0 113.04V46.9601C0 41.4801 2.94251 36.4222 7.70629 33.7136L59.4682 4.28248Z" fill="#262626"/>
</mask>
<g mask="url(#mask0_659_2412)">
<g filter="url(#filter0_d_659_2412)">
<path d="M59.4682 4.28248C64.1383 1.6271 69.8617 1.6271 74.5318 4.28248L126.294 33.7136C131.057 36.4222 134 41.4801 134 46.9601V113.04C134 118.52 131.057 123.578 126.294 126.286L74.5318 155.718C69.8617 158.373 64.1383 158.373 59.4682 155.718L7.70629 126.286C2.9425 123.578 0 118.52 0 113.04V46.9601C0 41.4801 2.94251 36.4222 7.70629 33.7136L59.4682 4.28248Z" fill="#262626"/>
</g>
<g filter="url(#filter1_d_659_2412)">
<path d="M59.4682 4.28248C64.1383 1.6271 69.8617 1.6271 74.5318 4.28248L126.294 33.7136C131.057 36.4222 134 41.4801 134 46.9601V113.04C134 118.52 131.057 123.578 126.294 126.286L74.5318 155.718C69.8617 158.373 64.1383 158.373 59.4682 155.718L7.70629 126.286C2.9425 123.578 0 118.52 0 113.04V46.9601C0 41.4801 2.94251 36.4222 7.70629 33.7136L59.4682 4.28248Z" fill="url(#paint0_linear_659_2412)"/>
</g>
<g filter="url(#filter2_dd_659_2412)">
<mask id="mask1_659_2412" style="mask-type:alpha" maskUnits="userSpaceOnUse" x="0" y="0" width="134" height="160">
<path d="M67 0L134 38.0952V121.905L67 160L0 121.905V38.0952L67 0Z" fill="#4D4D4D"/>
</mask>
<g mask="url(#mask1_659_2412)">
<path fill-rule="evenodd" clip-rule="evenodd" d="M102.024 23.4201L124.787 36.3629C128.598 38.5298 130.952 42.5762 130.952 46.9602V113.04C130.952 117.424 128.598 121.47 124.787 123.637L102.024 136.58V99.5575C102.026 99.3877 102.027 99.2176 102.027 99.0472C102.027 98.8768 102.026 98.7067 102.024 98.5369L102.024 23.4201ZM62.4354 135.619C82.4535 135.619 98.714 119.511 98.9765 99.5381V98.5563C98.714 78.5837 82.4535 62.4758 62.4354 62.4758C61.201 62.4758 59.9813 62.537 58.7792 62.6564C58.1411 62.7198 57.5316 62.3769 57.2544 61.7987C56.9773 61.2204 57.0918 60.5305 57.5409 60.0728L85.8338 31.2377H37.6911C36.8495 31.2377 36.1672 30.5554 36.1672 29.7139C36.1672 28.8723 36.8495 28.1901 37.6911 28.1901H89.4638C90.0775 28.1901 90.6313 28.5582 90.8688 29.1241C91.1063 29.6899 90.9813 30.343 90.5515 30.7811L62.4431 59.4282C78.8952 59.4313 93.0015 69.4758 98.9765 83.7697L98.9765 21.6873L73.0254 6.93186C69.2893 4.80756 64.7107 4.80756 60.9746 6.93186L9.21265 36.3629C5.40162 38.5298 3.04762 42.5762 3.04762 46.9602V113.04C3.04762 117.424 5.40162 121.47 9.21265 123.637L60.9746 153.068C64.7107 155.193 69.2893 155.193 73.0254 153.068L98.9765 138.313V114.325C93.0006 128.621 78.8908 138.666 62.4354 138.666C40.5683 138.666 22.8434 120.927 22.8434 99.0472C22.8434 97.4396 22.9391 95.8536 23.1254 94.295C23.2253 93.4593 23.9837 92.8629 24.8193 92.9627C25.6549 93.0626 26.2514 93.821 26.1515 94.6566C25.9795 96.0955 25.891 97.5607 25.891 99.0472C25.891 119.246 42.2535 135.619 62.4354 135.619ZM59.4682 4.28255C64.1383 1.62717 69.8617 1.62717 74.5318 4.28255L126.294 33.7136C131.057 36.4222 134 41.4802 134 46.9602V113.04C134 118.52 131.057 123.578 126.294 126.287L74.5318 155.718C69.8617 158.373 64.1383 158.373 59.4682 155.718L7.70629 126.287C2.9425 123.578 0 118.52 0 113.04V46.9602C0 41.4802 2.94251 36.4222 7.70629 33.7136L59.4682 4.28255ZM111.917 40.6619H114.561V41.7926C114.561 42.3828 114.664 42.8841 114.87 43.2966C115.083 43.709 115.371 44.0183 115.733 44.2246C116.103 44.4379 116.522 44.5446 116.991 44.5446C117.744 44.5446 118.341 44.3099 118.782 43.8406C119.229 43.3712 119.453 42.6886 119.453 41.7926V38.8379H111.917V40.6619ZM116.991 42.6886C116.344 42.6886 116.021 42.3223 116.021 41.5899V40.6619H117.982V41.5899C117.982 42.3223 117.652 42.6886 116.991 42.6886ZM115.104 47.4261H119.453V45.6127H115.104C114.394 45.6127 113.793 45.7443 113.303 46.0074C112.812 46.2705 112.446 46.6332 112.205 47.0954C111.963 47.5576 111.842 48.0909 111.842 48.6954C111.842 49.2998 111.963 49.8403 112.205 50.3167C112.454 50.8003 112.82 51.1807 113.303 51.4581C113.793 51.7354 114.394 51.8741 115.104 51.8741H119.453V50.0501H115.104C114.607 50.0501 114.227 49.9363 113.964 49.7087C113.701 49.4883 113.569 49.1647 113.569 48.7381C113.569 48.3114 113.701 47.9843 113.964 47.7567C114.227 47.5363 114.607 47.4261 115.104 47.4261ZM113.313 55.1302V57.5622H111.917V53.3062H119.453V55.1302H113.313ZM113.313 62.8693V60.4373H119.453V58.6133H111.917V62.8693H113.313ZM111.917 70.1411L114.763 68.5091V68.0931H111.917V66.2691H119.453V69.3838C119.453 69.9811 119.35 70.486 119.144 70.8985C118.938 71.3109 118.654 71.6203 118.291 71.8265C117.936 72.0327 117.527 72.1358 117.065 72.1358C116.518 72.1358 116.053 71.9829 115.669 71.6771C115.285 71.3785 115.022 70.9411 114.88 70.3651L111.917 72.1571V70.1411ZM116.01 68.0931V69.2238C116.01 69.5865 116.088 69.8531 116.245 70.0238C116.408 70.1945 116.646 70.2798 116.959 70.2798C117.257 70.2798 117.492 70.1909 117.662 70.0131C117.833 69.8425 117.918 69.5794 117.918 69.2238V68.0931H116.01ZM116.426 75.0877H118.003V77.9571H119.453V73.2637H111.917V77.9571H113.377V75.0877H115.051V77.6371H116.426V75.0877ZM110.595 84.5929L111.928 83.6116C111.871 83.3271 111.842 83.0533 111.842 82.7902C111.842 82.0862 112.006 81.4427 112.333 80.8596C112.667 80.2836 113.129 79.8249 113.718 79.4836C114.308 79.1493 114.973 78.9822 115.712 78.9822C116.451 78.9822 117.112 79.1493 117.694 79.4836C118.284 79.8249 118.742 80.2836 119.069 80.8596C119.403 81.4427 119.57 82.0862 119.57 82.7902C119.57 83.5013 119.403 84.1449 119.069 84.7209C118.742 85.304 118.284 85.7627 117.694 86.0969C117.112 86.4311 116.451 86.5982 115.712 86.5982C115.058 86.5982 114.461 86.4631 113.921 86.1929C113.381 85.9298 112.937 85.5636 112.589 85.0942L110.595 86.7796V84.5929ZM115.712 80.8382C115.051 80.8382 114.525 81.0124 114.134 81.3609C113.743 81.7164 113.548 82.1929 113.548 82.7902C113.548 83.3804 113.743 83.8533 114.134 84.2089C114.525 84.5644 115.051 84.7422 115.712 84.7422C116.373 84.7422 116.898 84.5644 117.289 84.2089C117.68 83.8604 117.876 83.3876 117.876 82.7902C117.876 82.1929 117.68 81.7164 117.289 81.3609C116.906 81.0124 116.38 80.8382 115.712 80.8382ZM115.104 89.6069H119.453V87.7936H115.104C114.394 87.7936 113.793 87.9251 113.303 88.1882C112.812 88.4513 112.446 88.814 112.205 89.2762C111.963 89.7384 111.842 90.2718 111.842 90.8762C111.842 91.4807 111.963 92.0211 112.205 92.4976C112.454 92.9811 112.82 93.3616 113.303 93.6389C113.793 93.9162 114.394 94.0549 115.104 94.0549H119.453V92.2309H115.104C114.607 92.2309 114.227 92.1171 113.964 91.8896C113.701 91.6691 113.569 91.3456 113.569 90.9189C113.569 90.4922 113.701 90.1651 113.964 89.9376C114.227 89.7171 114.607 89.6069 115.104 89.6069ZM118.003 97.3111H116.426V99.8604H115.051V97.3111H113.377V100.18H111.917V95.4871H119.453V100.18H118.003V97.3111ZM112.94 106.539C113.274 106.745 113.64 106.848 114.038 106.848C114.529 106.848 114.926 106.738 115.232 106.518C115.538 106.297 115.769 106.034 115.925 105.728C116.088 105.422 116.252 105.028 116.415 104.544C116.536 104.21 116.636 103.954 116.714 103.776C116.792 103.598 116.891 103.449 117.012 103.328C117.14 103.214 117.293 103.158 117.47 103.158C117.691 103.158 117.858 103.222 117.971 103.35C118.085 103.485 118.142 103.659 118.142 103.872C118.142 104.121 118.067 104.317 117.918 104.459C117.776 104.608 117.581 104.701 117.332 104.736V106.71C118.028 106.646 118.575 106.365 118.973 105.867C119.371 105.376 119.57 104.711 119.57 103.872C119.57 103.353 119.481 102.891 119.304 102.486C119.133 102.087 118.885 101.774 118.558 101.547C118.231 101.319 117.844 101.206 117.396 101.206C116.913 101.206 116.518 101.312 116.213 101.526C115.914 101.746 115.687 102.006 115.531 102.304C115.381 102.61 115.225 103.001 115.062 103.478C114.948 103.805 114.848 104.061 114.763 104.246C114.685 104.43 114.582 104.583 114.454 104.704C114.326 104.832 114.166 104.896 113.974 104.896C113.761 104.896 113.591 104.829 113.463 104.694C113.335 104.558 113.271 104.374 113.271 104.139C113.271 103.869 113.353 103.645 113.516 103.467C113.679 103.296 113.903 103.197 114.187 103.168V101.227C113.448 101.277 112.873 101.575 112.461 102.123C112.049 102.67 111.842 103.367 111.842 104.214C111.842 104.775 111.942 105.252 112.141 105.643C112.34 106.041 112.606 106.34 112.94 106.539ZM119.453 113.489H118.003V111.441H111.917V109.606H118.003V107.579H119.453V113.489ZM112.94 119.58C113.274 119.786 113.64 119.889 114.038 119.889C114.529 119.889 114.926 119.779 115.232 119.559C115.538 119.338 115.769 119.075 115.925 118.769C116.088 118.464 116.252 118.069 116.415 117.585C116.536 117.251 116.636 116.995 116.714 116.817C116.792 116.64 116.891 116.49 117.012 116.369C117.14 116.256 117.293 116.199 117.47 116.199C117.691 116.199 117.858 116.263 117.971 116.391C118.085 116.526 118.142 116.7 118.142 116.913C118.142 117.162 118.067 117.358 117.918 117.5C117.776 117.649 117.581 117.742 117.332 117.777V119.751C118.028 119.687 118.575 119.406 118.973 118.908C119.371 118.417 119.57 117.753 119.57 116.913C119.57 116.394 119.481 115.932 119.304 115.527C119.133 115.129 118.885 114.816 118.558 114.588C118.231 114.361 117.844 114.247 117.396 114.247C116.913 114.247 116.518 114.353 116.213 114.567C115.914 114.787 115.687 115.047 115.531 115.345C115.381 115.651 115.225 116.042 115.062 116.519C114.948 116.846 114.848 117.102 114.763 117.287C114.685 117.472 114.582 117.625 114.454 117.745C114.326 117.873 114.166 117.937 113.974 117.937C113.761 117.937 113.591 117.87 113.463 117.735C113.335 117.6 113.271 117.415 113.271 117.18C113.271 116.91 113.353 116.686 113.516 116.508C113.679 116.337 113.903 116.238 114.187 116.209V114.268C113.448 114.318 112.873 114.617 112.461 115.164C112.049 115.712 111.842 116.409 111.842 117.255C111.842 117.817 111.942 118.293 112.141 118.684C112.34 119.082 112.606 119.381 112.94 119.58Z" fill="#4D4D4D"/>
</g>
</g>
</g>
<defs>
<filter id="filter0_d_659_2412" x="-15.2381" y="-9.13768" width="164.476" height="185.894" filterUnits="userSpaceOnUse" color-interpolation-filters="sRGB">
<feFlood flood-opacity="0" result="BackgroundImageFix"/>
<feColorMatrix in="SourceAlpha" type="matrix" values="0 0 0 0 0 0 0 0 0 0 0 0 0 0 0 0 0 0 127 0" result="hardAlpha"/>
<feOffset dy="3.80952"/>
<feGaussianBlur stdDeviation="7.61905"/>
<feComposite in2="hardAlpha" operator="out"/>
<feColorMatrix type="matrix" values="0 0 0 0 0 0 0 0 0 0 0 0 0 0 0 0 0 0 1 0"/>
<feBlend mode="normal" in2="BackgroundImageFix" result="effect1_dropShadow_659_2412"/>
<feBlend mode="normal" in="SourceGraphic" in2="effect1_dropShadow_659_2412" result="shape"/>
</filter>
<filter id="filter1_d_659_2412" x="-6.09524" y="-0.756726" width="146.19" height="167.609" filterUnits="userSpaceOnUse" color-interpolation-filters="sRGB">
<feFlood flood-opacity="0" result="BackgroundImageFix"/>
<feColorMatrix in="SourceAlpha" type="matrix" values="0 0 0 0 0 0 0 0 0 0 0 0 0 0 0 0 0 0 127 0" result="hardAlpha"/>
<feOffset dy="3.04762"/>
<feGaussianBlur stdDeviation="3.04762"/>
<feComposite in2="hardAlpha" operator="out"/>
<feColorMatrix type="matrix" values="0 0 0 0 0 0 0 0 0 0 0 0 0 0 0 0 0 0 0.2 0"/>
<feBlend mode="normal" in2="BackgroundImageFix" result="effect1_dropShadow_659_2412"/>
<feBlend mode="normal" in="SourceGraphic" in2="effect1_dropShadow_659_2412" result="shape"/>
</filter>
<filter id="filter2_dd_659_2412" x="-6" y="-3.70898" width="146" height="167.418" filterUnits="userSpaceOnUse" color-interpolation-filters="sRGB">
<feFlood flood-opacity="0" result="BackgroundImageFix"/>
<feColorMatrix in="SourceAlpha" type="matrix" values="0 0 0 0 0 0 0 0 0 0 0 0 0 0 0 0 0 0 127 0" result="hardAlpha"/>
<feOffset/>
<feGaussianBlur stdDeviation="3"/>
<feComposite in2="hardAlpha" operator="out"/>
<feColorMatrix type="matrix" values="0 0 0 0 0 0 0 0 0 0 0 0 0 0 0 0 0 0 0.6 0"/>
<feBlend mode="normal" in2="BackgroundImageFix" result="effect1_dropShadow_659_2412"/>
<feColorMatrix in="SourceAlpha" type="matrix" values="0 0 0 0 0 0 0 0 0 0 0 0 0 0 0 0 0 0 127 0" result="hardAlpha"/>
<feOffset/>
<feGaussianBlur stdDeviation="1"/>
<feComposite in2="hardAlpha" operator="out"/>
<feColorMatrix type="matrix" values="0 0 0 0 0 0 0 0 0 0 0 0 0 0 0 0 0 0 0.6 0"/>
<feBlend mode="normal" in2="effect1_dropShadow_659_2412" result="effect2_dropShadow_659_2412"/>
<feBlend mode="normal" in="SourceGraphic" in2="effect2_dropShadow_659_2412" result="shape"/>
</filter>
<linearGradient id="paint0_linear_659_2412" x1="67" y1="0" x2="67" y2="160" gradientUnits="userSpaceOnUse">
<stop stop-color="#333333"/>
<stop offset="1" stop-color="#1A1A1A"/>
</linearGradient>
</defs>
</svg>
