<svg width="160" height="160" viewBox="0 0 160 160" fill="none" xmlns="http://www.w3.org/2000/svg">
<circle cx="80" cy="80" r="80" fill="url(#paint0_linear_659_2667)"/>
<mask id="mask0_659_2667" style="mask-type:alpha" maskUnits="userSpaceOnUse" x="0" y="0" width="160" height="160">
<circle cx="80" cy="80" r="80" fill="url(#paint1_linear_659_2667)"/>
</mask>
<g mask="url(#mask0_659_2667)">
<g filter="url(#filter0_dd_659_2667)">
<path fill-rule="evenodd" clip-rule="evenodd" d="M156.364 80C156.364 122.174 122.174 156.364 80 156.364C37.8255 156.364 3.63636 122.174 3.63636 80C3.63636 59.0557 12.0682 40.0807 25.7225 26.2844L26.1792 26.7411L34.7214 35.2833C23.3714 46.7745 16.3615 62.5703 16.3615 80.0005C16.3615 115.146 44.8525 143.637 79.9979 143.637C115.143 143.637 143.634 115.146 143.634 80.0005C143.634 62.5508 136.609 46.7392 125.236 35.2448L133.74 26.7411L134.237 26.2438C147.915 40.0435 156.364 59.0351 156.364 80ZM28.3414 23.7607L28.7505 24.1698L57.9055 53.3248H65.8582L48.5226 10.5091L48.4871 10.4213C41.0608 13.79 34.2692 18.3128 28.3414 23.7607ZM51.8342 8.99858L51.8932 9.14437L69.7814 53.3248H78.1414V4.0918V3.65854C68.8685 3.88003 60.005 5.75449 51.8342 8.99858ZM81.7778 3.65665V4.0918V53.3248H90.1378L107.769 9.77316L108.094 8.97005C99.9193 5.73411 91.0528 3.86853 81.7778 3.65665ZM111.442 10.3893L111.139 11.1377L94.0608 53.3248H102.014L131.169 24.1698L131.616 23.722C125.68 18.2742 118.879 13.7535 111.442 10.3893ZM160 80C160 124.183 124.183 160 80 160C35.8172 160 0 124.183 0 80C0 35.8172 35.8172 0 80 0C124.183 0 160 35.8172 160 80ZM104.585 55.896L122.665 37.8161C133.383 48.6562 139.998 63.5544 139.998 80.0005C139.998 113.138 113.135 140 79.9979 140C46.8608 140 19.9979 113.138 19.9979 80.0005C19.9979 63.5739 26.5968 48.6915 37.2927 37.8546L55.3342 55.896V59.841H45.7578C44.7537 59.841 43.9396 60.655 43.9396 61.6592V70.1464C43.9396 75.3137 45.2298 79.8351 47.8778 83.1022C50.3512 86.1538 53.8849 87.9536 58.215 88.2208C59.3505 90.3573 60.8046 92.3336 62.5468 94.0757C66.7376 98.2666 72.2834 100.791 78.1545 101.222V110.685H71.8292C68.7546 110.685 65.806 111.906 63.6319 114.08C61.4579 116.254 60.2365 119.203 60.2365 122.277C60.2365 123.282 61.0505 124.096 62.0547 124.096H97.8947C98.3769 124.096 98.8393 123.904 99.1803 123.563C99.5213 123.222 99.7129 122.76 99.7129 122.277C99.7129 119.203 98.4915 116.254 96.3174 114.08C94.1434 111.906 91.1947 110.685 88.1201 110.685H81.7908V101.22C87.6522 100.783 93.1878 98.2603 97.3724 94.0757C99.1142 92.3339 100.568 90.358 101.704 88.222C106.042 87.959 109.583 86.1584 112.06 83.1022C114.708 79.8351 115.998 75.3137 115.998 70.1464V61.6592C115.998 60.655 115.184 59.841 114.18 59.841H104.585V55.896ZM104.585 76.6629V63.4774H112.362V70.1464C112.362 74.7537 111.208 78.3778 109.235 80.8125C107.797 82.5867 105.847 83.8269 103.356 84.3465C104.163 81.8891 104.585 79.2978 104.585 76.6629ZM55.3342 76.6629C55.3342 79.2963 55.756 81.8862 56.5621 84.3423C54.0801 83.8203 52.1369 82.5819 50.7028 80.8125C48.7294 78.3778 47.576 74.7537 47.576 70.1464V63.4774H55.3342V76.6629ZM68.556 56.9611H58.9705V76.6629C58.9705 82.2296 61.1819 87.5682 65.1181 91.5044C69.0543 95.4407 74.393 97.652 79.9596 97.652C85.5262 97.652 90.8649 95.4407 94.8011 91.5044C98.7373 87.5682 100.949 82.2296 100.949 76.6629V56.9611H91.3632H79.9596H68.556ZM66.2032 116.651C67.6953 115.159 69.7191 114.321 71.8292 114.321H88.1201C90.2303 114.321 92.254 115.159 93.7461 116.651C94.8018 117.707 95.5302 119.029 95.866 120.459H64.0834C64.4191 119.029 65.1475 117.707 66.2032 116.651Z" fill="#4D4D4D"/>
</g>
</g>
<defs>
<filter id="filter0_dd_659_2667" x="-9.09091" y="-9.09091" width="178.182" height="178.182" filterUnits="userSpaceOnUse" color-interpolation-filters="sRGB">
<feFlood flood-opacity="0" result="BackgroundImageFix"/>
<feColorMatrix in="SourceAlpha" type="matrix" values="0 0 0 0 0 0 0 0 0 0 0 0 0 0 0 0 0 0 127 0" result="hardAlpha"/>
<feOffset/>
<feGaussianBlur stdDeviation="4.54545"/>
<feComposite in2="hardAlpha" operator="out"/>
<feColorMatrix type="matrix" values="0 0 0 0 0 0 0 0 0 0 0 0 0 0 0 0 0 0 0.6 0"/>
<feBlend mode="normal" in2="BackgroundImageFix" result="effect1_dropShadow_659_2667"/>
<feColorMatrix in="SourceAlpha" type="matrix" values="0 0 0 0 0 0 0 0 0 0 0 0 0 0 0 0 0 0 127 0" result="hardAlpha"/>
<feOffset/>
<feGaussianBlur stdDeviation="1.81818"/>
<feComposite in2="hardAlpha" operator="out"/>
<feColorMatrix type="matrix" values="0 0 0 0 0 0 0 0 0 0 0 0 0 0 0 0 0 0 0.6 0"/>
<feBlend mode="normal" in2="effect1_dropShadow_659_2667" result="effect2_dropShadow_659_2667"/>
<feBlend mode="normal" in="SourceGraphic" in2="effect2_dropShadow_659_2667" result="shape"/>
</filter>
<linearGradient id="paint0_linear_659_2667" x1="80" y1="0" x2="80" y2="160" gradientUnits="userSpaceOnUse">
<stop stop-color="#333333"/>
<stop offset="1" stop-color="#1A1A1A"/>
</linearGradient>
<linearGradient id="paint1_linear_659_2667" x1="80" y1="0" x2="80" y2="160" gradientUnits="userSpaceOnUse">
<stop stop-color="#333333"/>
<stop offset="1" stop-color="#1A1A1A"/>
</linearGradient>
</defs>
</svg>
