<svg width="270" height="261" viewBox="0 0 270 261" fill="none" xmlns="http://www.w3.org/2000/svg">
<rect width="270" height="261" rx="14" fill="black"/>
<rect x="20" y="26" width="140" height="16" rx="8" fill="#333333"/>
<rect x="20.5" y="110.5" width="123" height="39" rx="19.5" fill="#0D0D0D"/>
<path d="M37.984 135.464C37.984 137.096 38.912 138.072 40.464 138.072H41.008V136.776H40.672C39.936 136.776 39.504 136.232 39.504 135.304V133.32C39.504 132.248 39.024 131.496 38.24 131.256V131.224C39.024 130.984 39.504 130.232 39.504 129.16V127.176C39.504 126.248 39.936 125.704 40.672 125.704H41.008V124.408H40.464C38.912 124.408 37.984 125.384 37.984 127.016V129C37.984 129.976 37.504 130.6 36.72 130.664V131.816C37.504 131.88 37.984 132.504 37.984 133.48V135.464ZM44.0309 135.464C44.0309 137.096 44.9589 138.072 46.5109 138.072H47.0549V136.776H46.7189C45.9829 136.776 45.5509 136.232 45.5509 135.304V133.32C45.5509 132.248 45.0709 131.496 44.2869 131.256V131.224C45.0709 130.984 45.5509 130.232 45.5509 129.16V127.176C45.5509 126.248 45.9829 125.704 46.7189 125.704H47.0549V124.408H46.5109C44.9589 124.408 44.0309 125.384 44.0309 127.016V129C44.0309 129.976 43.5509 130.6 42.7669 130.664V131.816C43.5509 131.88 44.0309 132.504 44.0309 133.48V135.464ZM58.6698 125.48H57.0218L55.4378 129.08C54.6378 130.904 53.9978 132.264 53.3418 133.912C52.6858 132.264 52.0458 130.904 51.2458 129.08L49.6618 125.48H48.0137L53.3258 137.192H53.3578L58.6698 125.48ZM58.5285 130.776C59.0085 130.488 60.0325 130.104 61.1365 130.104C62.4005 130.104 63.2325 130.584 63.2325 131.976V132.376C59.8885 131.912 58.0165 132.888 58.0165 134.84C58.0165 136.312 59.0725 137.192 60.5445 137.192C62.3525 137.192 63.2325 135.64 63.3285 135.416H63.3605C63.3605 135.416 63.2965 135.672 63.3125 136.056L63.3285 137H64.7045V131.896C64.7045 129.896 63.6005 128.808 61.3445 128.808C60.0325 128.808 58.9765 129.16 58.5285 129.4V130.776ZM60.8005 135.992C60.0005 135.992 59.4885 135.496 59.4885 134.792C59.4885 133.704 60.5925 133 63.2005 133.416C63.2005 134.664 62.1605 135.992 60.8005 135.992ZM67.219 137H68.707V133.512C68.707 131.96 69.603 130.248 71.155 130.248C71.363 130.248 71.507 130.28 71.571 130.296V128.856C71.507 128.84 71.315 128.808 71.091 128.808C69.939 128.808 69.091 129.576 68.627 130.712H68.611C68.595 130.664 68.643 130.424 68.627 130.12L68.611 129H67.219V137ZM73.4091 129V137H74.8971V129H73.4091ZM73.2171 126.68C73.2171 127.208 73.5851 127.576 74.1451 127.576C74.6891 127.576 75.0731 127.208 75.0731 126.68C75.0731 126.136 74.6891 125.768 74.1451 125.768C73.5851 125.768 73.2171 126.136 73.2171 126.68ZM77.5754 130.776C78.0554 130.488 79.0794 130.104 80.1834 130.104C81.4474 130.104 82.2794 130.584 82.2794 131.976V132.376C78.9354 131.912 77.0634 132.888 77.0634 134.84C77.0634 136.312 78.1194 137.192 79.5914 137.192C81.3994 137.192 82.2794 135.64 82.3754 135.416H82.4074C82.4074 135.416 82.3434 135.672 82.3594 136.056L82.3754 137H83.7514V131.896C83.7514 129.896 82.6474 128.808 80.3914 128.808C79.0794 128.808 78.0234 129.16 77.5754 129.4V130.776ZM79.8474 135.992C79.0474 135.992 78.5354 135.496 78.5354 134.792C78.5354 133.704 79.6394 133 82.2474 133.416C82.2474 134.664 81.2074 135.992 79.8474 135.992ZM86.3779 137H87.7539L87.7859 136.056C87.7859 135.704 87.7379 135.464 87.7379 135.464H87.7699C88.1859 136.36 89.3059 137.192 90.6019 137.192C92.7139 137.192 94.3139 135.48 94.3139 133C94.3139 130.488 92.7139 128.808 90.6339 128.808C89.3379 128.808 88.2819 129.512 87.8499 130.264H87.8179C87.8179 130.264 87.8659 130.024 87.8659 129.608V125.48H86.3779V137ZM90.3939 130.104C91.8819 130.104 92.8739 131.304 92.8739 133C92.8739 134.664 91.8819 135.896 90.3939 135.896C89.1939 135.896 87.8819 135 87.8819 133C87.8819 131 89.1939 130.104 90.3939 130.104ZM96.3935 134.952C96.3935 136.568 97.2575 137.192 98.4415 137.192C99.0175 137.192 99.4175 137.08 99.5135 137.048V135.768C99.4175 135.8 99.1295 135.864 98.8095 135.864C98.1535 135.864 97.8815 135.512 97.8815 134.648V125.48H96.3935V134.952ZM104.595 128.808C102.387 128.808 100.675 130.584 100.675 133C100.675 135.48 102.387 137.192 104.915 137.192C106.211 137.192 107.283 136.856 107.907 136.504V135.144C107.235 135.576 106.099 135.896 105.011 135.896C103.331 135.896 102.275 134.904 102.227 133.336V133.32H108.179C108.179 133.16 108.211 132.856 108.211 132.536C108.211 130.568 106.947 128.808 104.595 128.808ZM106.739 132.264H102.243C102.371 131.112 103.203 130.056 104.579 130.056C106.003 130.056 106.755 131.112 106.739 132.264ZM113.929 134.92C113.929 135.672 113.177 135.96 112.345 135.96C111.593 135.96 110.569 135.688 109.785 135.304V136.664C110.425 136.968 111.353 137.192 112.393 137.192C114.121 137.192 115.305 136.392 115.305 134.936C115.305 133.592 114.473 132.968 112.777 132.408C111.689 132.056 111.129 131.752 111.129 131.112C111.129 130.392 111.849 130.072 112.761 130.072C113.481 130.072 114.281 130.328 114.857 130.632V129.288C114.313 129.032 113.465 128.808 112.601 128.808C110.937 128.808 109.737 129.736 109.737 131.064C109.737 132.504 110.729 133.112 112.153 133.576C113.337 133.96 113.929 134.232 113.929 134.92ZM119.424 127.016C119.424 125.384 118.496 124.408 116.944 124.408H116.4V125.704H116.736C117.472 125.704 117.904 126.248 117.904 127.176V129.16C117.904 130.232 118.384 130.984 119.168 131.224V131.256C118.384 131.496 117.904 132.248 117.904 133.32V135.304C117.904 136.232 117.472 136.776 116.736 136.776H116.4V138.072H116.944C118.496 138.072 119.424 137.096 119.424 135.464V133.48C119.424 132.504 119.904 131.88 120.688 131.816V130.664C119.904 130.6 119.424 129.976 119.424 129V127.016ZM125.471 127.016C125.471 125.384 124.543 124.408 122.991 124.408H122.447V125.704H122.783C123.519 125.704 123.951 126.248 123.951 127.176V129.16C123.951 130.232 124.431 130.984 125.215 131.224V131.256C124.431 131.496 123.951 132.248 123.951 133.32V135.304C123.951 136.232 123.519 136.776 122.783 136.776H122.447V138.072H122.991C124.543 138.072 125.471 137.096 125.471 135.464V133.48C125.471 132.504 125.951 131.88 126.735 131.816V130.664C125.951 130.6 125.471 129.976 125.471 129V127.016Z" fill="#FFE14D"/>
<rect x="20.5" y="110.5" width="123" height="39" rx="19.5" stroke="white" stroke-dasharray="3 3"/>
<rect x="122" y="66" width="128" height="8" rx="4" fill="#333333"/>
<rect x="20" y="66" width="90" height="8" rx="4" fill="#333333"/>
<rect x="20" y="88" width="178" height="8" rx="4" fill="#333333"/>
<rect x="20" y="164" width="58" height="8" rx="4" fill="#333333"/>
<rect x="90" y="164" width="110" height="8" rx="4" fill="#333333"/>
<rect x="20" y="186" width="230" height="8" rx="4" fill="#333333"/>
<path d="M54.893 220.796C54.263 220.436 52.841 219.824 50.969 219.824C47.081 219.824 44.201 222.74 44.201 226.52C44.201 230.318 47.081 233.216 50.969 233.216C52.913 233.216 54.353 232.622 54.983 232.262V230.948C54.047 231.416 52.661 231.938 50.969 231.938C47.819 231.938 45.587 229.598 45.587 226.52C45.587 223.442 47.819 221.102 50.969 221.102C52.589 221.102 53.957 221.624 54.893 222.11V220.796ZM61.1343 223.784C58.5063 223.784 56.5623 225.782 56.5623 228.5C56.5623 231.218 58.5063 233.216 61.1343 233.216C63.7803 233.216 65.7243 231.218 65.7243 228.5C65.7243 225.782 63.7803 223.784 61.1343 223.784ZM61.1343 232.028C59.2443 232.028 57.8583 230.552 57.8583 228.5C57.8583 226.448 59.2443 224.972 61.1343 224.972C63.0423 224.972 64.4103 226.448 64.4103 228.5C64.4103 230.552 63.0423 232.028 61.1343 232.028ZM68.4808 224V233H69.8128V228.59C69.8128 226.574 71.2168 225.026 73.1248 225.026C74.8168 225.026 75.0328 226.268 75.0328 227.636V233H76.3468V227.33C76.3468 225.134 75.5728 223.784 73.3048 223.784C71.2708 223.784 70.0468 225.26 69.7228 226.088H69.6868C69.7048 226.07 69.7588 225.782 69.7588 225.386L69.7408 224H68.4808ZM78.2226 224V225.098H79.7706V230.516C79.7706 232.568 81.0306 233.216 82.2726 233.216C83.1006 233.216 83.8206 233.018 84.2166 232.802V231.632C83.6946 231.884 83.0286 232.046 82.4886 232.046C81.6786 232.046 81.0846 231.56 81.0846 230.174V225.098H83.9106V224H81.0846V221.3H79.7706V224H78.2226ZM89.764 223.784C87.316 223.784 85.408 225.782 85.408 228.5C85.408 231.29 87.334 233.216 90.088 233.216C91.492 233.216 92.698 232.838 93.454 232.388V231.128C92.608 231.686 91.348 232.028 90.142 232.028C88.144 232.028 86.83 230.732 86.794 228.77V228.698H93.76C93.76 228.536 93.778 228.266 93.778 227.978C93.778 225.764 92.356 223.784 89.764 223.784ZM92.446 227.726H86.83C86.992 226.286 88.036 224.936 89.746 224.936C91.528 224.936 92.464 226.286 92.446 227.726ZM96.4828 224V233H97.8148V228.59C97.8148 226.574 99.2188 225.026 101.127 225.026C102.819 225.026 103.035 226.268 103.035 227.636V233H104.349V227.33C104.349 225.134 103.575 223.784 101.307 223.784C99.2728 223.784 98.0488 225.26 97.7248 226.088H97.6888C97.7068 226.07 97.7608 225.782 97.7608 225.386L97.7428 224H96.4828ZM106.225 224V225.098H107.773V230.516C107.773 232.568 109.033 233.216 110.275 233.216C111.103 233.216 111.823 233.018 112.219 232.802V231.632C111.697 231.884 111.031 232.046 110.491 232.046C109.681 232.046 109.087 231.56 109.087 230.174V225.098H111.913V224H109.087V221.3H107.773V224H106.225ZM124.797 229.382L128.559 224.504C128.793 224.162 129.081 223.784 129.261 223.496C129.243 223.91 129.243 224.306 129.243 224.702V233H130.575V219.824H130.557L124.797 227.384L119.037 219.824H119.019V233H120.351V224.702C120.351 224.306 120.351 223.91 120.333 223.496L120.693 224L124.797 229.382ZM133.811 225.728C134.333 225.404 135.485 224.972 136.781 224.972C138.275 224.972 139.283 225.566 139.283 227.294V227.852C135.539 227.33 133.253 228.428 133.253 230.66C133.253 232.208 134.405 233.216 136.061 233.216C138.239 233.216 139.301 231.254 139.355 231.092H139.391C139.391 231.092 139.319 231.398 139.337 231.848V233H140.579V227.222C140.579 224.972 139.391 223.784 136.925 223.784C135.503 223.784 134.315 224.18 133.811 224.468V225.728ZM136.259 232.1C135.233 232.1 134.585 231.488 134.585 230.606C134.585 229.184 136.169 228.356 139.247 228.842C139.247 230.408 137.969 232.1 136.259 232.1ZM143.785 224V233H145.117V228.59C145.117 226.574 146.521 225.026 148.429 225.026C150.121 225.026 150.337 226.268 150.337 227.636V233H151.651V227.33C151.651 225.134 150.877 223.784 148.609 223.784C146.575 223.784 145.351 225.26 145.027 226.088H144.991C145.009 226.07 145.063 225.782 145.063 225.386L145.045 224H143.785ZM154.535 225.728C155.057 225.404 156.209 224.972 157.505 224.972C158.999 224.972 160.007 225.566 160.007 227.294V227.852C156.263 227.33 153.977 228.428 153.977 230.66C153.977 232.208 155.129 233.216 156.785 233.216C158.963 233.216 160.025 231.254 160.079 231.092H160.115C160.115 231.092 160.043 231.398 160.061 231.848V233H161.303V227.222C161.303 224.972 160.115 223.784 157.649 223.784C156.227 223.784 155.039 224.18 154.535 224.468V225.728ZM156.983 232.1C155.957 232.1 155.309 231.488 155.309 230.606C155.309 229.184 156.893 228.356 159.971 228.842C159.971 230.408 158.693 232.1 156.983 232.1ZM166.058 230.822C166.058 230.462 166.706 230.138 167.516 230.066H167.588C169.514 230.012 170.936 228.716 170.936 226.952C170.936 226.124 170.576 225.422 170.018 224.936L170.108 224.954C170.108 224.954 170.414 225.026 170.684 225.026H171.998V224H168.758C168.344 223.856 167.858 223.784 167.372 223.784C165.356 223.784 163.808 225.098 163.808 226.952C163.808 228.32 164.654 229.4 165.932 229.868C165.212 230.102 164.744 230.552 164.744 231.056C164.744 231.65 165.266 232.082 166.166 232.19C164.744 232.46 163.61 233.36 163.61 234.44C163.61 236.06 165.23 236.888 167.66 236.888C170.144 236.888 171.854 235.862 171.854 234.188C171.854 232.55 170.504 231.866 168.272 231.632C166.598 231.47 166.058 231.308 166.058 230.822ZM167.372 229.076C166.022 229.076 165.068 228.176 165.068 226.97C165.068 225.764 166.022 224.846 167.372 224.846C168.74 224.846 169.694 225.764 169.694 226.97C169.694 228.176 168.74 229.076 167.372 229.076ZM167.66 235.88C166.04 235.88 164.906 235.34 164.906 234.314C164.906 233.432 165.986 232.658 167.534 232.658C169.784 232.658 170.504 233.396 170.504 234.278C170.504 235.214 169.442 235.88 167.66 235.88ZM177.725 223.784C175.277 223.784 173.369 225.782 173.369 228.5C173.369 231.29 175.295 233.216 178.049 233.216C179.453 233.216 180.659 232.838 181.415 232.388V231.128C180.569 231.686 179.309 232.028 178.103 232.028C176.105 232.028 174.791 230.732 174.755 228.77V228.698H181.721C181.721 228.536 181.739 228.266 181.739 227.978C181.739 225.764 180.317 223.784 177.725 223.784ZM180.407 227.726H174.791C174.953 226.286 175.997 224.936 177.707 224.936C179.489 224.936 180.425 226.286 180.407 227.726ZM184.444 224V233H185.776V228.734C185.776 226.934 186.82 225.026 188.8 225.026C190.42 225.026 190.654 226.286 190.654 227.618V233H191.968V228.734C191.968 226.97 192.94 225.026 194.938 225.026C196.504 225.026 196.846 226.178 196.846 227.636V233H198.16V227.33C198.16 225.116 197.332 223.784 195.064 223.784C193.624 223.784 192.364 224.81 191.824 225.98H191.806C191.554 224.558 190.546 223.784 189.052 223.784C187.576 223.784 186.154 224.81 185.686 226.088H185.65C185.668 226.07 185.722 225.782 185.722 225.386L185.704 224H184.444ZM204.971 223.784C202.523 223.784 200.615 225.782 200.615 228.5C200.615 231.29 202.541 233.216 205.295 233.216C206.699 233.216 207.905 232.838 208.661 232.388V231.128C207.815 231.686 206.555 232.028 205.349 232.028C203.351 232.028 202.037 230.732 202.001 228.77V228.698H208.967C208.967 228.536 208.985 228.266 208.985 227.978C208.985 225.764 207.563 223.784 204.971 223.784ZM207.653 227.726H202.037C202.199 226.286 203.243 224.936 204.953 224.936C206.735 224.936 207.671 226.286 207.653 227.726ZM211.69 224V233H213.022V228.59C213.022 226.574 214.426 225.026 216.334 225.026C218.026 225.026 218.242 226.268 218.242 227.636V233H219.556V227.33C219.556 225.134 218.782 223.784 216.514 223.784C214.48 223.784 213.256 225.26 212.932 226.088H212.896C212.914 226.07 212.968 225.782 212.968 225.386L212.95 224H211.69ZM221.432 224V225.098H222.98V230.516C222.98 232.568 224.24 233.216 225.482 233.216C226.31 233.216 227.03 233.018 227.426 232.802V231.632C226.904 231.884 226.238 232.046 225.698 232.046C224.888 232.046 224.294 231.56 224.294 230.174V225.098H227.12V224H224.294V221.3H222.98V224H221.432Z" fill="white"/>
</svg>
