<svg width="124" height="40" viewBox="0 0 124 40" fill="none" xmlns="http://www.w3.org/2000/svg">
<rect width="124" height="40" rx="20" fill="white"/>
<path d="M34.6219 14.7972L32.5736 12.6964C32.3314 12.4481 32.0029 12.3086 31.6605 12.3086C31.318 12.3086 30.9896 12.4481 30.7474 12.6964L29 14.4886L32.8745 18.4624L34.6219 16.6702C34.864 16.4218 35 16.085 35 15.7337C35 15.3825 34.864 15.0457 34.6219 14.7972Z" fill="black"/>
<path d="M28.2679 15.3848L21.244 22.5887L20 27.6925L24.9762 26.4165L32 19.2126L28.2679 15.3848Z" fill="black"/>
<path d="M53.048 16.088C52.568 15.816 51.336 15.272 49.672 15.272C46.152 15.272 43.576 17.848 43.576 21.24C43.576 24.648 46.152 27.208 49.624 27.208C51.336 27.208 52.648 26.68 53.128 26.408V24.536C52.408 24.904 51.24 25.352 49.704 25.352C47.272 25.352 45.608 23.56 45.608 21.24C45.608 18.92 47.272 17.128 49.752 17.128C51.192 17.128 52.328 17.592 53.048 17.96V16.088ZM58.457 18.792C56.041 18.792 54.265 20.584 54.265 23C54.265 25.416 56.041 27.208 58.457 27.208C60.889 27.208 62.649 25.416 62.649 23C62.649 20.584 60.889 18.792 58.457 18.792ZM58.457 25.544C57.129 25.544 56.121 24.504 56.121 23C56.121 21.496 57.129 20.456 58.457 20.456C59.801 20.456 60.793 21.496 60.793 23C60.793 24.504 59.801 25.544 58.457 25.544ZM64.5613 19V27H66.5133V23.032C66.5133 21.624 67.4573 20.568 68.7853 20.568C69.8733 20.568 70.0973 21.4 70.0973 22.328V27H72.0493V21.992C72.0493 19.928 71.1693 18.792 69.2813 18.792C67.7613 18.792 66.7053 19.864 66.3853 20.6H66.3533C66.3533 20.536 66.4173 20.328 66.4173 20.024L66.3693 19H64.5613ZM73.301 19V20.552H74.517V24.088C74.517 24.36 74.533 24.632 74.533 24.888C74.629 26.616 75.845 27.208 77.061 27.208C77.925 27.208 78.613 27.032 78.981 26.84V25.208C78.581 25.384 78.037 25.544 77.541 25.544C76.949 25.544 76.437 25.208 76.437 24.216V20.552H78.709V19H76.437V16.6H74.549V19H73.301ZM83.8275 18.792C81.5715 18.792 79.8275 20.584 79.8275 23C79.8275 25.464 81.5395 27.208 84.1955 27.208C85.5395 27.208 86.6115 26.888 87.1715 26.584V24.872C86.6275 25.208 85.4595 25.544 84.3395 25.544C82.8675 25.544 81.9075 24.744 81.8595 23.4H87.4435C87.4435 23.256 87.4915 22.904 87.4915 22.536C87.4915 20.552 86.2275 18.792 83.8275 18.792ZM85.6035 22.264H81.8595C81.9555 21.256 82.6435 20.36 83.7955 20.36C84.9955 20.36 85.6195 21.256 85.6035 22.264ZM89.3738 19V27H91.3258V23.032C91.3258 21.624 92.2698 20.568 93.5978 20.568C94.6858 20.568 94.9098 21.4 94.9098 22.328V27H96.8618V21.992C96.8618 19.928 95.9818 18.792 94.0938 18.792C92.5738 18.792 91.5178 19.864 91.1978 20.6H91.1658C91.1658 20.536 91.2298 20.328 91.2298 20.024L91.1818 19H89.3738ZM98.1135 19V20.552H99.3295V24.088C99.3295 24.36 99.3455 24.632 99.3455 24.888C99.4415 26.616 100.658 27.208 101.874 27.208C102.738 27.208 103.426 27.032 103.794 26.84V25.208C103.394 25.384 102.85 25.544 102.354 25.544C101.762 25.544 101.25 25.208 101.25 24.216V20.552H103.522V19H101.25V16.6H99.3615V19H98.1135Z" fill="black"/>
</svg>
