<svg width="270" height="210" viewBox="0 0 270 210" fill="none" xmlns="http://www.w3.org/2000/svg">
<rect width="270" height="210" rx="14" fill="black"/>
<path d="M73.0279 94C85.3939 94 93.6019 86.224 93.6019 74.56C93.6019 62.896 85.2859 55.12 72.8119 55.12H61.6339V94H73.0279ZM72.7579 59.494C82.0999 59.494 88.3099 65.542 88.3099 74.56C88.3099 83.578 82.1539 89.626 72.9739 89.626H66.8179V59.494H72.7579ZM100.652 67V94H105.674V67H100.652ZM100.004 59.17C100.004 60.952 101.246 62.194 103.136 62.194C104.972 62.194 106.268 60.952 106.268 59.17C106.268 57.334 104.972 56.092 103.136 56.092C101.246 56.092 100.004 57.334 100.004 59.17ZM120.977 87.466C120.977 86.44 122.921 85.522 125.351 85.306H125.405C131.075 84.982 135.287 81.202 135.287 75.91C135.287 73.75 134.369 71.86 132.911 70.51L133.235 70.564C133.235 70.564 134.045 70.78 134.747 70.78H138.473V67H128.645C127.403 66.568 125.891 66.352 124.379 66.352C118.223 66.352 113.417 70.24 113.417 75.91C113.417 80.014 115.955 83.254 119.789 84.658C117.467 85.414 116.063 86.872 116.063 88.438C116.063 90.274 117.629 91.57 120.221 91.894C116.063 92.704 112.769 95.35 112.769 98.536C112.769 103.342 117.791 105.826 125.135 105.826C132.803 105.826 138.095 102.694 138.095 97.51C138.095 92.596 134.207 90.544 127.349 89.788C122.705 89.248 120.977 88.816 120.977 87.466ZM124.379 81.796C120.707 81.796 118.115 79.366 118.115 76.018C118.115 72.67 120.707 70.186 124.379 70.186C128.159 70.186 130.697 72.67 130.697 76.018C130.697 79.366 128.159 81.796 124.379 81.796ZM125.189 102.262C120.761 102.262 117.629 100.804 117.629 97.942C117.629 95.512 120.599 93.406 124.811 93.406C130.913 93.406 133.073 95.35 133.073 97.834C133.073 100.48 130.049 102.262 125.189 102.262ZM155.384 66.352C147.932 66.352 142.154 72.346 142.154 80.5C142.154 88.87 147.932 94.648 156.464 94.648C160.838 94.648 164.456 93.514 166.562 92.326V87.736C164.294 89.194 160.46 90.274 156.788 90.274C151.118 90.274 147.554 86.926 147.392 81.634V81.58H167.48C167.48 81.04 167.588 80.014 167.588 78.934C167.588 72.292 163.322 66.352 155.384 66.352ZM162.62 78.016H147.446C147.878 74.128 150.686 70.564 155.33 70.564C160.136 70.564 162.674 74.128 162.62 78.016ZM186.888 86.98C186.888 89.518 184.35 90.49 181.542 90.49C179.004 90.49 175.548 89.572 172.902 88.276V92.866C175.062 93.892 178.194 94.648 181.704 94.648C187.536 94.648 191.532 91.948 191.532 87.034C191.532 82.498 188.724 80.392 183 78.502C179.328 77.314 177.438 76.288 177.438 74.128C177.438 71.698 179.868 70.618 182.946 70.618C185.376 70.618 188.076 71.482 190.02 72.508V67.972C188.184 67.108 185.322 66.352 182.406 66.352C176.79 66.352 172.74 69.484 172.74 73.966C172.74 78.826 176.088 80.878 180.894 82.444C184.89 83.74 186.888 84.658 186.888 86.98ZM195.376 67V71.104H199.804V86.602C199.804 92.65 203.908 94.648 207.796 94.648C210.442 94.648 212.656 94.054 213.844 93.406V89.032C212.332 89.734 210.442 90.22 208.768 90.22C206.5 90.22 204.772 88.924 204.772 85.09V71.104H212.926V67H204.772V58.9H199.858V67H195.376ZM78.8764 155V150.626H59.3824V137.504H75.1504V133.13H59.3824V120.494H78.0664V116.12H54.1984V155H78.8764ZM85.9394 128V155H90.9614V141.716C90.9614 136.208 94.7414 131.996 100.033 131.996C104.515 131.996 105.163 135.344 105.163 139.07V155H110.185V138.044C110.185 131.294 107.593 127.352 100.951 127.352C95.2274 127.352 91.6634 131.402 90.6374 133.832H90.5294C90.5834 133.724 90.7454 132.914 90.7454 131.78L90.6374 128H85.9394ZM124.669 148.466C124.669 147.44 126.613 146.522 129.043 146.306H129.097C134.767 145.982 138.979 142.202 138.979 136.91C138.979 134.75 138.061 132.86 136.603 131.51L136.927 131.564C136.927 131.564 137.737 131.78 138.439 131.78H142.165V128H132.337C131.095 127.568 129.583 127.352 128.071 127.352C121.915 127.352 117.109 131.24 117.109 136.91C117.109 141.014 119.647 144.254 123.481 145.658C121.159 146.414 119.755 147.872 119.755 149.438C119.755 151.274 121.321 152.57 123.913 152.894C119.755 153.704 116.461 156.35 116.461 159.536C116.461 164.342 121.483 166.826 128.827 166.826C136.495 166.826 141.787 163.694 141.787 158.51C141.787 153.596 137.899 151.544 131.041 150.788C126.397 150.248 124.669 149.816 124.669 148.466ZM128.071 142.796C124.399 142.796 121.807 140.366 121.807 137.018C121.807 133.67 124.399 131.186 128.071 131.186C131.851 131.186 134.389 133.67 134.389 137.018C134.389 140.366 131.851 142.796 128.071 142.796ZM128.881 163.262C124.453 163.262 121.321 161.804 121.321 158.942C121.321 156.512 124.291 154.406 128.503 154.406C134.605 154.406 136.765 156.35 136.765 158.834C136.765 161.48 133.741 163.262 128.881 163.262ZM148.113 128V155H153.135V128H148.113ZM147.465 120.17C147.465 121.952 148.707 123.194 150.597 123.194C152.433 123.194 153.729 121.952 153.729 120.17C153.729 118.334 152.433 117.092 150.597 117.092C148.707 117.092 147.465 118.334 147.465 120.17ZM162.984 128V155H168.006V141.716C168.006 136.208 171.786 131.996 177.078 131.996C181.56 131.996 182.208 135.344 182.208 139.07V155H187.23V138.044C187.23 131.294 184.638 127.352 177.996 127.352C172.272 127.352 168.708 131.402 167.682 133.832H167.574C167.628 133.724 167.79 132.914 167.79 131.78L167.682 128H162.984ZM207.222 127.352C199.77 127.352 193.992 133.346 193.992 141.5C193.992 149.87 199.77 155.648 208.302 155.648C212.676 155.648 216.294 154.514 218.4 153.326V148.736C216.132 150.194 212.298 151.274 208.626 151.274C202.956 151.274 199.392 147.926 199.23 142.634V142.58H219.318C219.318 142.04 219.426 141.014 219.426 139.934C219.426 133.292 215.16 127.352 207.222 127.352ZM214.458 139.016H199.284C199.716 135.128 202.524 131.564 207.168 131.564C211.974 131.564 214.512 135.128 214.458 139.016Z" fill="url(#paint0_linear_127_9496)"/>
<defs>
<linearGradient id="paint0_linear_127_9496" x1="222" y1="40" x2="44.0922" y2="158.673" gradientUnits="userSpaceOnUse">
<stop offset="0.33334" stop-color="white"/>
<stop offset="0.866361" stop-color="#FFEE2E"/>
</linearGradient>
</defs>
</svg>
