<svg width="270" height="289" viewBox="0 0 270 289" fill="none" xmlns="http://www.w3.org/2000/svg">
<rect width="270" height="289" rx="14" fill="black"/>
<rect x="20.5" y="20.5" width="69" height="59" rx="5.5" fill="#1A1A1A" stroke="white" stroke-dasharray="3 3"/>
<rect x="100.5" y="20.5" width="69" height="59" rx="5.5" fill="#1A1A1A" stroke="white" stroke-dasharray="3 3"/>
<rect x="100.5" y="90.5" width="69" height="59" rx="5.5" fill="#1A1A1A" stroke="white" stroke-dasharray="3 3"/>
<rect x="180.5" y="90.5" width="69" height="59" rx="5.5" fill="#1A1A1A" stroke="white" stroke-dasharray="3 3"/>
<rect x="180.5" y="20.5" width="69" height="59" rx="5.5" fill="#1A1A1A" stroke="white" stroke-dasharray="3 3"/>
<rect x="180.5" y="160.5" width="69" height="59" rx="5.5" fill="#1A1A1A" stroke="white" stroke-dasharray="3 3"/>
<rect x="20.5" y="160.5" width="69" height="59" rx="5.5" fill="#1A1A1A" stroke="white" stroke-dasharray="3 3"/>
<rect x="20.5" y="90.5" width="69" height="59" rx="5.5" fill="#1A1A1A" stroke="white" stroke-dasharray="3 3"/>
<rect x="100.5" y="160.5" width="69" height="59" rx="5.5" fill="#1A1A1A" stroke="white" stroke-dasharray="3 3"/>
<path d="M44.5045 249.188V248.036H37.0885V260.996H38.4565V255.074H43.5685V253.922H38.4565V249.188H44.5045ZM46.0663 260.996H47.3983V257.036C47.3983 255.254 48.3343 253.076 50.2243 253.076C50.4403 253.076 50.6203 253.112 50.6743 253.13V251.834C50.6203 251.816 50.3863 251.78 50.1343 251.78C48.7843 251.78 47.8123 252.752 47.3263 254.066H47.2903C47.2903 254.03 47.3443 253.742 47.3263 253.382V251.996H46.0663V260.996ZM56.7056 251.78C54.0776 251.78 52.1336 253.778 52.1336 256.496C52.1336 259.214 54.0776 261.212 56.7056 261.212C59.3516 261.212 61.2956 259.214 61.2956 256.496C61.2956 253.778 59.3516 251.78 56.7056 251.78ZM56.7056 260.024C54.8156 260.024 53.4296 258.548 53.4296 256.496C53.4296 254.444 54.8156 252.968 56.7056 252.968C58.6136 252.968 59.9816 254.444 59.9816 256.496C59.9816 258.548 58.6136 260.024 56.7056 260.024ZM64.0521 251.996V260.996H65.3841V256.586C65.3841 254.57 66.7881 253.022 68.6961 253.022C70.3881 253.022 70.6041 254.264 70.6041 255.632V260.996H71.9181V255.326C71.9181 253.13 71.1441 251.78 68.8761 251.78C66.8421 251.78 65.6181 253.256 65.2941 254.084H65.2581C65.2761 254.066 65.3301 253.778 65.3301 253.382L65.3121 251.996H64.0521ZM73.7939 251.996V253.094H75.3419V258.512C75.3419 260.564 76.6019 261.212 77.8439 261.212C78.6719 261.212 79.3919 261.014 79.7879 260.798V259.628C79.2659 259.88 78.5999 260.042 78.0599 260.042C77.2499 260.042 76.6559 259.556 76.6559 258.17V253.094H79.4819V251.996H76.6559V249.296H75.3419V251.996H73.7939ZM80.8353 256.478H86.0373V255.344H80.8353V256.478ZM92.2259 251.78C89.7779 251.78 87.8699 253.778 87.8699 256.496C87.8699 259.286 89.7959 261.212 92.5499 261.212C93.9539 261.212 95.1599 260.834 95.9159 260.384V259.124C95.0699 259.682 93.8099 260.024 92.6039 260.024C90.6059 260.024 89.2919 258.728 89.2559 256.766V256.694H96.2219C96.2219 256.532 96.2399 256.262 96.2399 255.974C96.2399 253.76 94.8179 251.78 92.2259 251.78ZM94.9079 255.722H89.2919C89.4539 254.282 90.4979 252.932 92.2079 252.932C93.9899 252.932 94.9259 254.282 94.9079 255.722ZM98.9447 251.996V260.996H100.277V256.586C100.277 254.57 101.681 253.022 103.589 253.022C105.281 253.022 105.497 254.264 105.497 255.632V260.996H106.811V255.326C106.811 253.13 106.037 251.78 103.769 251.78C101.735 251.78 100.511 253.256 100.187 254.084H100.151C100.169 254.066 100.223 253.778 100.223 253.382L100.205 251.996H98.9447ZM117.956 248.036H116.642V252.896C116.642 253.346 116.696 253.634 116.696 253.634H116.66C116.156 252.68 114.914 251.78 113.42 251.78C111.044 251.78 109.262 253.724 109.262 256.496C109.262 259.232 111.044 261.212 113.438 261.212C114.932 261.212 116.228 260.222 116.714 259.178H116.75C116.75 259.178 116.696 259.448 116.696 259.862L116.714 260.996H117.956V248.036ZM113.582 252.968C115.022 252.968 116.624 254.03 116.624 256.496C116.624 258.962 115.022 260.024 113.582 260.024C111.764 260.024 110.558 258.512 110.558 256.496C110.558 254.444 111.764 252.968 113.582 252.968ZM136.035 248.792C135.405 248.432 133.983 247.82 132.111 247.82C128.223 247.82 125.343 250.736 125.343 254.516C125.343 258.314 128.223 261.212 132.111 261.212C134.055 261.212 135.495 260.618 136.125 260.258V258.944C135.189 259.412 133.803 259.934 132.111 259.934C128.961 259.934 126.729 257.594 126.729 254.516C126.729 251.438 128.961 249.098 132.111 249.098C133.731 249.098 135.099 249.62 136.035 250.106V248.792ZM142.276 251.78C139.648 251.78 137.704 253.778 137.704 256.496C137.704 259.214 139.648 261.212 142.276 261.212C144.922 261.212 146.866 259.214 146.866 256.496C146.866 253.778 144.922 251.78 142.276 251.78ZM142.276 260.024C140.386 260.024 139 258.548 139 256.496C139 254.444 140.386 252.968 142.276 252.968C144.184 252.968 145.552 254.444 145.552 256.496C145.552 258.548 144.184 260.024 142.276 260.024ZM149.622 251.996V260.996H150.954V256.73C150.954 254.93 151.998 253.022 153.978 253.022C155.598 253.022 155.832 254.282 155.832 255.614V260.996H157.146V256.73C157.146 254.966 158.118 253.022 160.116 253.022C161.682 253.022 162.024 254.174 162.024 255.632V260.996H163.338V255.326C163.338 253.112 162.51 251.78 160.242 251.78C158.802 251.78 157.542 252.806 157.002 253.976H156.984C156.732 252.554 155.724 251.78 154.23 251.78C152.754 251.78 151.332 252.806 150.864 254.084H150.828C150.846 254.066 150.9 253.778 150.9 253.382L150.882 251.996H149.622ZM166.586 264.956H167.9V260.006C167.9 259.574 167.846 259.286 167.846 259.286H167.882C168.386 260.276 169.628 261.212 171.122 261.212C173.498 261.212 175.28 259.268 175.28 256.496C175.28 253.76 173.498 251.78 171.104 251.78C169.61 251.78 168.314 252.734 167.828 253.742H167.792C167.792 253.742 167.846 253.454 167.846 253.058L167.828 251.996H166.586V264.956ZM170.96 260.024C169.52 260.024 167.918 258.962 167.918 256.496C167.918 254.03 169.52 252.968 170.96 252.968C172.778 252.968 173.984 254.48 173.984 256.496C173.984 258.548 172.778 260.024 170.96 260.024ZM182.09 251.78C179.462 251.78 177.518 253.778 177.518 256.496C177.518 259.214 179.462 261.212 182.09 261.212C184.736 261.212 186.68 259.214 186.68 256.496C186.68 253.778 184.736 251.78 182.09 251.78ZM182.09 260.024C180.2 260.024 178.814 258.548 178.814 256.496C178.814 254.444 180.2 252.968 182.09 252.968C183.998 252.968 185.366 254.444 185.366 256.496C185.366 258.548 183.998 260.024 182.09 260.024ZM189.437 251.996V260.996H190.769V256.586C190.769 254.57 192.173 253.022 194.081 253.022C195.773 253.022 195.989 254.264 195.989 255.632V260.996H197.303V255.326C197.303 253.13 196.529 251.78 194.261 251.78C192.227 251.78 191.003 253.256 190.679 254.084H190.643C190.661 254.066 190.715 253.778 190.715 253.382L190.697 251.996H189.437ZM204.111 251.78C201.663 251.78 199.755 253.778 199.755 256.496C199.755 259.286 201.681 261.212 204.435 261.212C205.839 261.212 207.045 260.834 207.801 260.384V259.124C206.955 259.682 205.695 260.024 204.489 260.024C202.491 260.024 201.177 258.728 201.141 256.766V256.694H208.107C208.107 256.532 208.125 256.262 208.125 255.974C208.125 253.76 206.703 251.78 204.111 251.78ZM206.793 255.722H201.177C201.339 254.282 202.383 252.932 204.093 252.932C205.875 252.932 206.811 254.282 206.793 255.722ZM210.829 251.996V260.996H212.161V256.586C212.161 254.57 213.565 253.022 215.473 253.022C217.165 253.022 217.381 254.264 217.381 255.632V260.996H218.695V255.326C218.695 253.13 217.921 251.78 215.653 251.78C213.619 251.78 212.395 253.256 212.071 254.084H212.035C212.053 254.066 212.107 253.778 212.107 253.382L212.089 251.996H210.829ZM220.571 251.996V253.094H222.119V258.512C222.119 260.564 223.379 261.212 224.621 261.212C225.449 261.212 226.169 261.014 226.565 260.798V259.628C226.043 259.88 225.377 260.042 224.837 260.042C224.027 260.042 223.433 259.556 223.433 258.17V253.094H226.259V251.996H223.433V249.296H222.119V251.996H220.571ZM232.635 258.746C232.635 259.682 231.699 260.078 230.637 260.078C229.791 260.078 228.675 259.79 227.757 259.376V260.618C228.513 260.978 229.575 261.212 230.691 261.212C232.545 261.212 233.895 260.366 233.895 258.746C233.895 257.27 232.941 256.568 231.015 255.938C229.665 255.506 228.981 255.11 228.981 254.282C228.981 253.4 229.809 252.932 230.997 252.932C231.789 252.932 232.707 253.202 233.373 253.562V252.32C232.743 252.014 231.789 251.78 230.871 251.78C229.035 251.78 227.703 252.77 227.703 254.264C227.703 255.794 228.891 256.514 230.457 257.018C231.933 257.486 232.635 257.846 232.635 258.746Z" fill="white"/>
</svg>
