<svg width="270" height="275" viewBox="0 0 270 275" fill="none" xmlns="http://www.w3.org/2000/svg">
<rect width="270" height="275" rx="14" fill="black"/>
<path d="M56.2631 247.216H56.2811V234.04H54.9131V242.644C54.9131 243.076 54.9311 243.436 54.9311 243.796L54.5531 243.346L46.2911 233.824H46.2731V247H47.6411V238.396C47.6411 237.982 47.6231 237.604 47.6231 237.244C47.7311 237.388 47.8751 237.55 48.0011 237.694L56.2631 247.216ZM63.6577 237.784C61.0297 237.784 59.0857 239.782 59.0857 242.5C59.0857 245.218 61.0297 247.216 63.6577 247.216C66.3037 247.216 68.2477 245.218 68.2477 242.5C68.2477 239.782 66.3037 237.784 63.6577 237.784ZM63.6577 246.028C61.7677 246.028 60.3817 244.552 60.3817 242.5C60.3817 240.448 61.7677 238.972 63.6577 238.972C65.5657 238.972 66.9337 240.448 66.9337 242.5C66.9337 244.552 65.5657 246.028 63.6577 246.028ZM69.6542 238V239.098H71.2022V244.516C71.2022 246.568 72.4622 247.216 73.7042 247.216C74.5322 247.216 75.2522 247.018 75.6482 246.802V245.632C75.1262 245.884 74.4602 246.046 73.9202 246.046C73.1102 246.046 72.5162 245.56 72.5162 244.174V239.098H75.3422V238H72.5162V235.3H71.2022V238H69.6542ZM77.3976 235.372C77.3976 235.876 77.7396 236.236 78.2796 236.236C78.7836 236.236 79.1616 235.876 79.1616 235.372C79.1616 234.868 78.7836 234.508 78.2796 234.508C77.7396 234.508 77.3976 234.868 77.3976 235.372ZM77.6136 238V247H78.9456V238H77.6136ZM81.3132 238V239.098H82.7172V247H84.0312V239.098H86.4972V238H83.9952V237.01C83.9952 235.696 84.7152 234.994 85.9752 234.994C86.4072 234.994 86.7672 235.066 86.9112 235.102V233.932C86.7672 233.896 86.3352 233.824 85.8492 233.824C83.9052 233.824 82.7532 235.03 82.7532 236.92V238H81.3132ZM88.2433 235.372C88.2433 235.876 88.5853 236.236 89.1253 236.236C89.6293 236.236 90.0073 235.876 90.0073 235.372C90.0073 234.868 89.6293 234.508 89.1253 234.508C88.5853 234.508 88.2433 234.868 88.2433 235.372ZM88.4593 238V247H89.7913V238H88.4593ZM93.9928 242.5C93.9928 240.466 95.3608 238.99 97.3048 238.99C98.5648 238.99 99.4108 239.386 100.077 239.8V238.504C99.4828 238.18 98.6368 237.784 97.2508 237.784C94.5508 237.784 92.6248 239.782 92.6248 242.5C92.6248 245.218 94.5508 247.216 97.2508 247.216C98.6548 247.216 99.5368 246.802 100.131 246.478V245.2C99.5188 245.578 98.6008 246.01 97.3048 246.01C95.3428 246.01 93.9928 244.534 93.9928 242.5ZM102.707 239.728C103.229 239.404 104.381 238.972 105.677 238.972C107.171 238.972 108.179 239.566 108.179 241.294V241.852C104.435 241.33 102.149 242.428 102.149 244.66C102.149 246.208 103.301 247.216 104.957 247.216C107.135 247.216 108.197 245.254 108.251 245.092H108.287C108.287 245.092 108.215 245.398 108.233 245.848V247H109.475V241.222C109.475 238.972 108.287 237.784 105.821 237.784C104.399 237.784 103.211 238.18 102.707 238.468V239.728ZM105.155 246.1C104.129 246.1 103.481 245.488 103.481 244.606C103.481 243.184 105.065 242.356 108.143 242.842C108.143 244.408 106.865 246.1 105.155 246.1ZM111.596 238V239.098H113.144V244.516C113.144 246.568 114.404 247.216 115.646 247.216C116.474 247.216 117.194 247.018 117.59 246.802V245.632C117.068 245.884 116.402 246.046 115.862 246.046C115.052 246.046 114.458 245.56 114.458 244.174V239.098H117.284V238H114.458V235.3H113.144V238H111.596ZM119.339 235.372C119.339 235.876 119.681 236.236 120.221 236.236C120.725 236.236 121.103 235.876 121.103 235.372C121.103 234.868 120.725 234.508 120.221 234.508C119.681 234.508 119.339 234.868 119.339 235.372ZM119.555 238V247H120.887V238H119.555ZM128.205 237.784C125.577 237.784 123.633 239.782 123.633 242.5C123.633 245.218 125.577 247.216 128.205 247.216C130.851 247.216 132.795 245.218 132.795 242.5C132.795 239.782 130.851 237.784 128.205 237.784ZM128.205 246.028C126.315 246.028 124.929 244.552 124.929 242.5C124.929 240.448 126.315 238.972 128.205 238.972C130.113 238.972 131.481 240.448 131.481 242.5C131.481 244.552 130.113 246.028 128.205 246.028ZM135.551 238V247H136.883V242.59C136.883 240.574 138.287 239.026 140.195 239.026C141.887 239.026 142.103 240.268 142.103 241.636V247H143.417V241.33C143.417 239.134 142.643 237.784 140.375 237.784C138.341 237.784 137.117 239.26 136.793 240.088H136.757C136.775 240.07 136.829 239.782 136.829 239.386L136.811 238H135.551ZM158.894 235.192V234.04H151.478V247H152.846V241.078H157.958V239.926H152.846V235.192H158.894ZM164.551 237.784C162.103 237.784 160.195 239.782 160.195 242.5C160.195 245.29 162.121 247.216 164.875 247.216C166.279 247.216 167.485 246.838 168.241 246.388V245.128C167.395 245.686 166.135 246.028 164.929 246.028C162.931 246.028 161.617 244.732 161.581 242.77V242.698H168.547C168.547 242.536 168.565 242.266 168.565 241.978C168.565 239.764 167.143 237.784 164.551 237.784ZM167.233 241.726H161.617C161.779 240.286 162.823 238.936 164.533 238.936C166.315 238.936 167.251 240.286 167.233 241.726ZM175.116 237.784C172.668 237.784 170.76 239.782 170.76 242.5C170.76 245.29 172.686 247.216 175.44 247.216C176.844 247.216 178.05 246.838 178.806 246.388V245.128C177.96 245.686 176.7 246.028 175.494 246.028C173.496 246.028 172.182 244.732 172.146 242.77V242.698H179.112C179.112 242.536 179.13 242.266 179.13 241.978C179.13 239.764 177.708 237.784 175.116 237.784ZM177.798 241.726H172.182C172.344 240.286 173.388 238.936 175.098 238.936C176.88 238.936 177.816 240.286 177.798 241.726ZM190.018 234.04H188.704V238.9C188.704 239.35 188.758 239.638 188.758 239.638H188.722C188.218 238.684 186.976 237.784 185.482 237.784C183.106 237.784 181.324 239.728 181.324 242.5C181.324 245.236 183.106 247.216 185.5 247.216C186.994 247.216 188.29 246.226 188.776 245.182H188.812C188.812 245.182 188.758 245.452 188.758 245.866L188.776 247H190.018V234.04ZM185.644 238.972C187.084 238.972 188.686 240.034 188.686 242.5C188.686 244.966 187.084 246.028 185.644 246.028C183.826 246.028 182.62 244.516 182.62 242.5C182.62 240.448 183.826 238.972 185.644 238.972ZM196.648 247H198.106L199.456 243.868H205.63L207.016 247H208.456L202.57 233.824H202.534L196.648 247ZM199.978 242.734C200.914 240.592 201.724 238.72 202.552 236.686C203.38 238.72 204.19 240.592 205.126 242.734H199.978ZM214.83 241.744C217.512 241.744 219.15 240.304 219.15 237.892C219.15 235.48 217.512 234.04 214.83 234.04H211.068V247H212.436V241.744H214.83ZM214.776 235.192C216.648 235.192 217.746 236.218 217.746 237.892C217.746 239.584 216.684 240.592 214.866 240.592H212.436V235.192H214.776ZM223.721 247V234.04H222.353V247H223.721Z" fill="white"/>
</svg>
