<svg width="80" height="80" viewBox="0 0 80 80" fill="none" xmlns="http://www.w3.org/2000/svg">
<circle cx="40" cy="40" r="40" fill="white"/>
<g clip-path="url(#clip0_130_9565)">
<path d="M49.59 54.9771C49.5656 54.9205 47.1862 49.1915 48.2863 45.0855L50.3245 37.4788C51.0968 34.5968 50.6925 31.5261 49.2007 28.9421C47.7088 26.3582 45.2516 24.4727 42.3696 23.7004C39.4876 22.9282 36.4168 23.3325 33.8329 24.8243C31.2489 26.3162 29.3634 28.7734 28.5912 31.6554L26.553 39.2621C25.4528 43.368 20.5277 47.1398 20.4782 47.1766C20.3942 47.2402 20.3298 47.326 20.2922 47.4245C20.2546 47.5229 20.2454 47.6298 20.2657 47.7332C20.2859 47.8366 20.3348 47.9322 20.4067 48.0092C20.4786 48.0861 20.5707 48.1414 20.6725 48.1685L48.9258 55.739C49.0275 55.7663 49.1349 55.7646 49.2357 55.7339C49.3364 55.7032 49.4266 55.6448 49.4958 55.5654C49.565 55.486 49.6105 55.3888 49.6272 55.2847C49.6438 55.1807 49.631 55.0741 49.59 54.9771V54.9771Z" fill="black"/>
<path d="M30.748 52.0332C30.6356 52.9726 30.8655 53.921 31.3958 54.7046C31.926 55.4881 32.721 56.0543 33.6348 56.2991C34.5487 56.544 35.5202 56.4512 36.3711 56.0377C37.2221 55.6243 37.8955 54.9179 38.2678 54.0481L30.748 52.0332Z" fill="black"/>
</g>
<circle cx="51" cy="29" r="8" fill="#E300BD" stroke="white" stroke-width="2"/>
<defs>
<clipPath id="clip0_130_9565">
<rect width="36" height="36" fill="white" transform="translate(25.2734 17.9551) rotate(15)"/>
</clipPath>
</defs>
</svg>
