<svg width="270" height="326" viewBox="0 0 270 326" fill="none" xmlns="http://www.w3.org/2000/svg">
<rect width="270" height="326" rx="14" fill="black"/>
<path d="M135 207V199C135 183.536 122.464 171 107 171H63" stroke="#4D4D4D" stroke-width="2" stroke-linecap="round"/>
<path d="M135 212V121C135 105.536 122.464 93 107 93H74" stroke="#4D4D4D" stroke-width="2" stroke-linecap="round"/>
<path d="M187 51C174.501 51 168.395 51 162.998 51C147.534 51 135 63.536 135 79V221C135 236.464 122.464 249 107 249H48" stroke="#4D4D4D" stroke-width="2" stroke-linecap="round"/>
<circle cx="48" cy="249" r="6.5" fill="black" stroke="#4D4D4D" stroke-width="3"/>
<circle cx="63" cy="171" r="6.5" fill="black" stroke="#4D4D4D" stroke-width="3"/>
<circle cx="74" cy="93" r="6.5" fill="black" stroke="#4D4D4D" stroke-width="3"/>
<circle cx="187" cy="51" r="6.5" fill="black" stroke="#4D4D4D" stroke-width="3"/>
<path d="M207 144H163C147.536 144 135 156.536 135 172V221C135 236.464 147.536 249 163 249H222" stroke="#4D4D4D" stroke-width="2" stroke-linecap="round"/>
<circle cx="222" cy="249" r="6.5" fill="black" stroke="#4D4D4D" stroke-width="3"/>
<circle cx="206" cy="145" r="6.5" fill="black" stroke="#4D4D4D" stroke-width="3"/>
<path d="M61.3644 285.036H59.9964V293.46C59.9964 295.638 58.6824 296.934 56.5044 296.934C54.3264 296.934 53.0304 295.638 53.0304 293.46V285.036H51.6624V293.532C51.6624 296.466 53.4804 298.212 56.5044 298.212C59.5464 298.212 61.3644 296.466 61.3644 293.532V285.036ZM64.5531 288.996V297.996H65.8851V293.586C65.8851 291.57 67.2891 290.022 69.1971 290.022C70.8891 290.022 71.1051 291.264 71.1051 292.632V297.996H72.4191V292.326C72.4191 290.13 71.6451 288.78 69.3771 288.78C67.3431 288.78 66.1191 290.256 65.7951 291.084H65.7591C65.7771 291.066 65.8311 290.778 65.8311 290.382L65.8131 288.996H64.5531ZM75.4289 286.368C75.4289 286.872 75.7709 287.232 76.3109 287.232C76.8149 287.232 77.1929 286.872 77.1929 286.368C77.1929 285.864 76.8149 285.504 76.3109 285.504C75.7709 285.504 75.4289 285.864 75.4289 286.368ZM75.6449 288.996V297.996H76.9769V288.996H75.6449ZM79.3444 288.996V290.094H80.7484V297.996H82.0624V290.094H84.5284V288.996H82.0264V288.006C82.0264 286.692 82.7464 285.99 84.0064 285.99C84.4384 285.99 84.7984 286.062 84.9424 286.098V284.928C84.7984 284.892 84.3664 284.82 83.8804 284.82C81.9364 284.82 80.7844 286.026 80.7844 287.916V288.996H79.3444ZM86.2746 286.368C86.2746 286.872 86.6166 287.232 87.1566 287.232C87.6606 287.232 88.0386 286.872 88.0386 286.368C88.0386 285.864 87.6606 285.504 87.1566 285.504C86.6166 285.504 86.2746 285.864 86.2746 286.368ZM86.4906 288.996V297.996H87.8226V288.996H86.4906ZM94.9241 288.78C92.4761 288.78 90.5681 290.778 90.5681 293.496C90.5681 296.286 92.4941 298.212 95.2481 298.212C96.6521 298.212 97.8581 297.834 98.6141 297.384V296.124C97.7681 296.682 96.5081 297.024 95.3021 297.024C93.3041 297.024 91.9901 295.728 91.9541 293.766V293.694H98.9201C98.9201 293.532 98.9381 293.262 98.9381 292.974C98.9381 290.76 97.5161 288.78 94.9241 288.78ZM97.6061 292.722H91.9901C92.1521 291.282 93.1961 289.932 94.9061 289.932C96.6881 289.932 97.6241 291.282 97.6061 292.722ZM109.827 285.036H108.513V289.896C108.513 290.346 108.567 290.634 108.567 290.634H108.531C108.027 289.68 106.785 288.78 105.291 288.78C102.915 288.78 101.133 290.724 101.133 293.496C101.133 296.232 102.915 298.212 105.309 298.212C106.803 298.212 108.099 297.222 108.585 296.178H108.621C108.621 296.178 108.567 296.448 108.567 296.862L108.585 297.996H109.827V285.036ZM105.453 289.968C106.893 289.968 108.495 291.03 108.495 293.496C108.495 295.962 106.893 297.024 105.453 297.024C103.635 297.024 102.429 295.512 102.429 293.496C102.429 291.444 103.635 289.968 105.453 289.968ZM121.857 297.996C125.691 297.996 128.625 295.512 128.625 291.516C128.625 287.52 125.655 285.036 121.785 285.036H118.203V297.996H121.857ZM121.767 286.188C124.881 286.188 127.221 288.258 127.221 291.516C127.221 294.774 124.899 296.844 121.857 296.844H119.571V286.188H121.767ZM135.037 288.78C132.589 288.78 130.681 290.778 130.681 293.496C130.681 296.286 132.607 298.212 135.361 298.212C136.765 298.212 137.971 297.834 138.727 297.384V296.124C137.881 296.682 136.621 297.024 135.415 297.024C133.417 297.024 132.103 295.728 132.067 293.766V293.694H139.033C139.033 293.532 139.051 293.262 139.051 292.974C139.051 290.76 137.629 288.78 135.037 288.78ZM137.719 292.722H132.103C132.265 291.282 133.309 289.932 135.019 289.932C136.801 289.932 137.737 291.282 137.719 292.722ZM141.756 295.8C141.756 297.546 142.638 298.212 143.898 298.212C144.492 298.212 144.87 298.104 144.942 298.086V296.934C144.87 296.952 144.564 297.024 144.186 297.024C143.376 297.024 143.088 296.556 143.088 295.53V285.036H141.756V295.8ZM146.954 286.368C146.954 286.872 147.296 287.232 147.836 287.232C148.34 287.232 148.718 286.872 148.718 286.368C148.718 285.864 148.34 285.504 147.836 285.504C147.296 285.504 146.954 285.864 146.954 286.368ZM147.17 288.996V297.996H148.502V288.996H147.17ZM157.584 288.996C156.594 291.318 155.568 293.712 154.668 295.926C153.75 293.712 152.724 291.318 151.734 288.996H150.312L154.38 298.212H154.938L159.024 288.996H157.584ZM164.41 288.78C161.962 288.78 160.054 290.778 160.054 293.496C160.054 296.286 161.98 298.212 164.734 298.212C166.138 298.212 167.344 297.834 168.1 297.384V296.124C167.254 296.682 165.994 297.024 164.788 297.024C162.79 297.024 161.476 295.728 161.44 293.766V293.694H168.406C168.406 293.532 168.424 293.262 168.424 292.974C168.424 290.76 167.002 288.78 164.41 288.78ZM167.092 292.722H161.476C161.638 291.282 162.682 289.932 164.392 289.932C166.174 289.932 167.11 291.282 167.092 292.722ZM170.985 297.996H172.317V294.036C172.317 292.254 173.253 290.076 175.143 290.076C175.359 290.076 175.539 290.112 175.593 290.13V288.834C175.539 288.816 175.305 288.78 175.053 288.78C173.703 288.78 172.731 289.752 172.245 291.066H172.209C172.209 291.03 172.263 290.742 172.245 290.382V288.996H170.985V297.996ZM176.851 302.01C177.049 302.1 177.481 302.172 177.913 302.172C180.325 302.172 181.225 300.372 182.449 297.456L186.013 288.996H184.537L183.205 292.29C182.701 293.55 182.053 295.242 181.531 296.448C180.991 295.062 180.415 293.676 179.857 292.29L178.525 288.996H177.049L180.829 297.852C180.055 299.688 179.353 301.02 177.805 301.02C177.373 301.02 177.067 300.966 176.851 300.894V302.01ZM190.953 297.996H192.411L193.761 294.864H199.935L201.321 297.996H202.761L196.875 284.82H196.839L190.953 297.996ZM194.283 293.73C195.219 291.588 196.029 289.716 196.857 287.682C197.685 289.716 198.495 291.588 199.431 293.73H194.283ZM209.135 292.74C211.817 292.74 213.455 291.3 213.455 288.888C213.455 286.476 211.817 285.036 209.135 285.036H205.373V297.996H206.741V292.74H209.135ZM209.081 286.188C210.953 286.188 212.051 287.214 212.051 288.888C212.051 290.58 210.989 291.588 209.171 291.588H206.741V286.188H209.081ZM218.026 297.996V285.036H216.658V297.996H218.026Z" fill="white"/>
</svg>
