<svg width="270" height="247" viewBox="0 0 270 247" fill="none" xmlns="http://www.w3.org/2000/svg">
<rect width="270" height="247" rx="14" fill="black"/>
<path d="M76.1897 68.08H73.4537V84.928C73.4537 89.284 70.8257 91.876 66.4697 91.876C62.1137 91.876 59.5217 89.284 59.5217 84.928V68.08H56.7857V85.072C56.7857 90.94 60.4217 94.432 66.4697 94.432C72.5537 94.432 76.1897 90.94 76.1897 85.072V68.08ZM90.5993 89.5C90.5993 91.372 88.7273 92.164 86.6033 92.164C84.9113 92.164 82.6793 91.588 80.8433 90.76V93.244C82.3553 93.964 84.4793 94.432 86.7113 94.432C90.4193 94.432 93.1193 92.74 93.1193 89.5C93.1193 86.548 91.2113 85.144 87.3593 83.884C84.6593 83.02 83.2913 82.228 83.2913 80.572C83.2913 78.808 84.9473 77.872 87.3233 77.872C88.9073 77.872 90.7433 78.412 92.0753 79.132V76.648C90.8153 76.036 88.9073 75.568 87.0713 75.568C83.3993 75.568 80.7353 77.548 80.7353 80.536C80.7353 83.596 83.1113 85.036 86.2433 86.044C89.1953 86.98 90.5993 87.7 90.5993 89.5ZM105.481 75.568C100.585 75.568 96.7691 79.564 96.7691 85C96.7691 90.58 100.621 94.432 106.129 94.432C108.937 94.432 111.349 93.676 112.861 92.776V90.256C111.169 91.372 108.649 92.056 106.237 92.056C102.241 92.056 99.6131 89.464 99.5411 85.54V85.396H113.473C113.473 85.072 113.509 84.532 113.509 83.956C113.509 79.528 110.665 75.568 105.481 75.568ZM110.845 83.452H99.6131C99.9371 80.572 102.025 77.872 105.445 77.872C109.009 77.872 110.881 80.572 110.845 83.452ZM135.645 75.568C130.749 75.568 126.933 79.564 126.933 85C126.933 90.58 130.785 94.432 136.293 94.432C139.101 94.432 141.513 93.676 143.025 92.776V90.256C141.333 91.372 138.813 92.056 136.401 92.056C132.405 92.056 129.777 89.464 129.705 85.54V85.396H143.637C143.637 85.072 143.673 84.532 143.673 83.956C143.673 79.528 140.829 75.568 135.645 75.568ZM141.009 83.452H129.777C130.101 80.572 132.189 77.872 135.609 77.872C139.173 77.872 141.045 80.572 141.009 83.452ZM160.207 76C158.227 80.644 156.175 85.432 154.375 89.86C152.539 85.432 150.487 80.644 148.507 76H145.663L153.799 94.432H154.915L163.087 76H160.207ZM173.86 75.568C168.964 75.568 165.148 79.564 165.148 85C165.148 90.58 169 94.432 174.508 94.432C177.316 94.432 179.728 93.676 181.24 92.776V90.256C179.548 91.372 177.028 92.056 174.616 92.056C170.62 92.056 167.992 89.464 167.92 85.54V85.396H181.852C181.852 85.072 181.888 84.532 181.888 83.956C181.888 79.528 179.044 75.568 173.86 75.568ZM179.224 83.452H167.992C168.316 80.572 170.404 77.872 173.824 77.872C177.388 77.872 179.26 80.572 179.224 83.452ZM187.01 94H189.674V86.08C189.674 82.516 191.546 78.16 195.326 78.16C195.758 78.16 196.118 78.232 196.226 78.268V75.676C196.118 75.64 195.65 75.568 195.146 75.568C192.446 75.568 190.502 77.512 189.53 80.14H189.458C189.458 80.068 189.566 79.492 189.53 78.772V76H187.01V94ZM198.741 102.028C199.137 102.208 200.001 102.352 200.865 102.352C205.689 102.352 207.489 98.752 209.937 92.92L217.065 76H214.113L211.449 82.588C210.441 85.108 209.145 88.492 208.101 90.904C207.021 88.132 205.869 85.36 204.753 82.588L202.089 76H199.137L206.697 93.712C205.149 97.384 203.745 100.048 200.649 100.048C199.785 100.048 199.173 99.94 198.741 99.796V102.028ZM72.4596 121V139H75.1236V130.468C75.1236 126.868 77.2116 123.052 81.1716 123.052C84.4116 123.052 84.8796 125.572 84.8796 128.236V139H87.5076V130.468C87.5076 126.94 89.4516 123.052 93.4476 123.052C96.5796 123.052 97.2636 125.356 97.2636 128.272V139H99.8916V127.66C99.8916 123.232 98.2356 120.568 93.6996 120.568C90.8196 120.568 88.2996 122.62 87.2196 124.96H87.1836C86.6796 122.116 84.6636 120.568 81.6756 120.568C78.7236 120.568 75.8796 122.62 74.9436 125.176H74.8716C74.9076 125.14 75.0156 124.564 75.0156 123.772L74.9796 121H72.4596ZM113.946 120.568C108.69 120.568 104.802 124.564 104.802 130C104.802 135.436 108.69 139.432 113.946 139.432C119.238 139.432 123.126 135.436 123.126 130C123.126 124.564 119.238 120.568 113.946 120.568ZM113.946 137.056C110.166 137.056 107.394 134.104 107.394 130C107.394 125.896 110.166 122.944 113.946 122.944C117.762 122.944 120.498 125.896 120.498 130C120.498 134.104 117.762 137.056 113.946 137.056ZM145.007 113.08H142.379V122.8C142.379 123.7 142.487 124.276 142.487 124.276H142.415C141.407 122.368 138.923 120.568 135.935 120.568C131.183 120.568 127.619 124.456 127.619 130C127.619 135.472 131.183 139.432 135.971 139.432C138.959 139.432 141.551 137.452 142.523 135.364H142.595C142.595 135.364 142.487 135.904 142.487 136.732L142.523 139H145.007V113.08ZM136.259 122.944C139.139 122.944 142.343 125.068 142.343 130C142.343 134.932 139.139 137.056 136.259 137.056C132.623 137.056 130.211 134.032 130.211 130C130.211 125.896 132.623 122.944 136.259 122.944ZM151.549 132.34C151.549 136.876 153.205 139.432 157.633 139.432C161.593 139.432 163.933 136.48 164.617 134.824H164.689C164.689 134.86 164.545 135.436 164.545 136.228L164.581 139H167.101V121H164.437V129.82C164.437 133.708 161.845 136.948 157.993 136.948C154.609 136.948 154.177 134.464 154.177 131.728V121H151.549V132.34ZM174.167 134.608C174.167 138.1 175.931 139.432 178.451 139.432C179.639 139.432 180.395 139.216 180.539 139.18V136.876C180.395 136.912 179.783 137.056 179.027 137.056C177.407 137.056 176.831 136.12 176.831 134.068V113.08H174.167V134.608ZM192.159 120.568C187.263 120.568 183.447 124.564 183.447 130C183.447 135.58 187.299 139.432 192.807 139.432C195.615 139.432 198.027 138.676 199.539 137.776V135.256C197.847 136.372 195.327 137.056 192.915 137.056C188.919 137.056 186.291 134.464 186.219 130.54V130.396H200.151C200.151 130.072 200.187 129.532 200.187 128.956C200.187 124.528 197.343 120.568 192.159 120.568ZM197.523 128.452H186.291C186.615 125.572 188.703 122.872 192.123 122.872C195.687 122.872 197.559 125.572 197.523 128.452ZM59.9958 179.5C59.9958 181.372 58.1238 182.164 55.9998 182.164C54.3078 182.164 52.0758 181.588 50.2398 180.76V183.244C51.7518 183.964 53.8758 184.432 56.1078 184.432C59.8158 184.432 62.5158 182.74 62.5158 179.5C62.5158 176.548 60.6078 175.144 56.7558 173.884C54.0558 173.02 52.6878 172.228 52.6878 170.572C52.6878 168.808 54.3438 167.872 56.7198 167.872C58.3038 167.872 60.1398 168.412 61.4718 169.132V166.648C60.2118 166.036 58.3038 165.568 56.4678 165.568C52.7958 165.568 50.1318 167.548 50.1318 170.536C50.1318 173.596 52.5078 175.036 55.6398 176.044C58.5918 176.98 59.9958 177.7 59.9958 179.5ZM74.8775 165.568C69.9815 165.568 66.1655 169.564 66.1655 175C66.1655 180.58 70.0175 184.432 75.5255 184.432C78.3335 184.432 80.7455 183.676 82.2575 182.776V180.256C80.5655 181.372 78.0455 182.056 75.6335 182.056C71.6375 182.056 69.0095 179.464 68.9375 175.54V175.396H82.8695C82.8695 175.072 82.9055 174.532 82.9055 173.956C82.9055 169.528 80.0615 165.568 74.8775 165.568ZM80.2415 173.452H69.0095C69.3335 170.572 71.4215 167.872 74.8415 167.872C78.4055 167.872 80.2775 170.572 80.2415 173.452ZM88.3511 191.92H90.9791V182.02C90.9791 181.156 90.8711 180.58 90.8711 180.58H90.9431C91.9511 182.56 94.4351 184.432 97.4231 184.432C102.175 184.432 105.739 180.544 105.739 175C105.739 169.528 102.175 165.568 97.3871 165.568C94.3991 165.568 91.8071 167.476 90.8351 169.492H90.7631C90.7631 169.492 90.8711 168.916 90.8711 168.124L90.8351 166H88.3511V191.92ZM97.0991 182.056C94.2191 182.056 91.0151 179.932 91.0151 175C91.0151 170.068 94.2191 167.944 97.0991 167.944C100.735 167.944 103.147 170.968 103.147 175C103.147 179.104 100.735 182.056 97.0991 182.056ZM110.553 169.456C111.597 168.808 113.901 167.944 116.493 167.944C119.481 167.944 121.497 169.132 121.497 172.588V173.704C114.009 172.66 109.437 174.856 109.437 179.32C109.437 182.416 111.741 184.432 115.053 184.432C119.409 184.432 121.533 180.508 121.641 180.184H121.713C121.713 180.184 121.569 180.796 121.605 181.696V184H124.089V172.444C124.089 167.944 121.713 165.568 116.781 165.568C113.937 165.568 111.561 166.36 110.553 166.936V169.456ZM115.449 182.2C113.397 182.2 112.101 180.976 112.101 179.212C112.101 176.368 115.269 174.712 121.425 175.684C121.425 178.816 118.869 182.2 115.449 182.2ZM130.215 184H132.879V176.08C132.879 172.516 134.751 168.16 138.531 168.16C138.963 168.16 139.323 168.232 139.431 168.268V165.676C139.323 165.64 138.855 165.568 138.351 165.568C135.651 165.568 133.707 167.512 132.735 170.14H132.663C132.663 170.068 132.771 169.492 132.735 168.772V166H130.215V184ZM143.213 169.456C144.257 168.808 146.561 167.944 149.153 167.944C152.141 167.944 154.157 169.132 154.157 172.588V173.704C146.669 172.66 142.097 174.856 142.097 179.32C142.097 182.416 144.401 184.432 147.713 184.432C152.069 184.432 154.193 180.508 154.301 180.184H154.373C154.373 180.184 154.229 180.796 154.265 181.696V184H156.749V172.444C156.749 167.944 154.373 165.568 149.441 165.568C146.597 165.568 144.221 166.36 143.213 166.936V169.456ZM148.109 182.2C146.057 182.2 144.761 180.976 144.761 179.212C144.761 176.368 147.929 174.712 154.085 175.684C154.085 178.816 151.529 182.2 148.109 182.2ZM160.99 166V168.196H164.086V179.032C164.086 183.136 166.606 184.432 169.09 184.432C170.746 184.432 172.186 184.036 172.978 183.604V181.264C171.934 181.768 170.602 182.092 169.522 182.092C167.902 182.092 166.714 181.12 166.714 178.348V168.196H172.366V166H166.714V160.6H164.086V166H160.99ZM184.073 165.568C179.177 165.568 175.361 169.564 175.361 175C175.361 180.58 179.213 184.432 184.721 184.432C187.529 184.432 189.941 183.676 191.453 182.776V180.256C189.761 181.372 187.241 182.056 184.829 182.056C180.833 182.056 178.205 179.464 178.133 175.54V175.396H192.065C192.065 175.072 192.101 174.532 192.101 173.956C192.101 169.528 189.257 165.568 184.073 165.568ZM189.437 173.452H178.205C178.529 170.572 180.617 167.872 184.037 167.872C187.601 167.872 189.473 170.572 189.437 173.452ZM197.51 179.608C197.51 183.1 199.274 184.432 201.794 184.432C202.982 184.432 203.738 184.216 203.882 184.18V181.876C203.738 181.912 203.126 182.056 202.37 182.056C200.75 182.056 200.174 181.12 200.174 179.068V158.08H197.51V179.608ZM204.243 192.028C204.639 192.208 205.503 192.352 206.367 192.352C211.191 192.352 212.991 188.752 215.439 182.92L222.567 166H219.615L216.951 172.588C215.943 175.108 214.647 178.492 213.603 180.904C212.523 178.132 211.371 175.36 210.255 172.588L207.591 166H204.639L212.199 183.712C210.651 187.384 209.247 190.048 206.151 190.048C205.287 190.048 204.675 189.94 204.243 189.796V192.028Z" fill="url(#paint0_linear_127_9498)"/>
<defs>
<linearGradient id="paint0_linear_127_9498" x1="223" y1="56" x2="48" y2="191" gradientUnits="userSpaceOnUse">
<stop offset="0.421392" stop-color="white"/>
<stop offset="1" stop-color="white" stop-opacity="0.6"/>
</linearGradient>
</defs>
</svg>
