<svg width="40" height="40" viewBox="0 0 40 40" fill="none" xmlns="http://www.w3.org/2000/svg">
<path d="M0 8.75C0 3.91751 3.91751 0 8.75 0H31.25C36.0825 0 40 3.91751 40 8.75V31.25C40 36.0825 36.0825 40 31.25 40H8.75C3.91751 40 0 36.0825 0 31.25V8.75Z" fill="white"/>
<path d="M21.7922 9.11927C21.9067 9.14573 21.9957 9.2361 22.0204 9.35109L22.6428 12.2551C22.6787 12.4225 22.569 12.5864 22.4005 12.617L16.3242 13.7179C16.1228 13.7544 15.944 13.585 15.9694 13.3819L16.6106 8.26554C16.6329 8.08727 16.8045 7.96744 16.9795 8.00787L21.7922 9.11927Z" fill="#E94F2E"/>
<path fill-rule="evenodd" clip-rule="evenodd" d="M8.01483 21.1846C7.83429 21.2173 7.72394 21.4017 7.78051 21.5763L11.7364 33.7902C11.777 33.9152 11.8934 33.9999 12.0248 33.9999H15.5513C15.683 33.9999 15.7997 33.9148 15.84 33.7894L18.0399 26.9308C18.4632 25.5594 18.7489 24.5834 18.9495 23.8545C19.0384 23.5315 19.5922 23.5425 19.6717 23.8681C19.8678 24.6727 20.1428 25.6786 20.5075 26.864L22.7079 33.7886C22.7478 33.9145 22.8647 33.9999 22.9967 33.9999H26.3605C26.4896 33.9999 26.6047 33.918 26.647 33.796L32.1391 17.9296C32.2073 17.7327 32.0611 17.5273 31.8527 17.5273H28.2C28.0673 17.5273 27.95 17.6137 27.9105 17.7404L25.7761 24.5966C25.5803 25.2711 25.285 26.3432 25.0294 27.3496C24.9477 27.6711 24.4222 27.6669 24.3429 27.3449C24.0731 26.2505 23.74 25.0347 23.6087 24.5966L21.4741 17.7404C21.4347 17.6137 21.3174 17.5273 21.1847 17.5273H17.4941C17.3624 17.5273 17.2457 17.6124 17.2054 17.7379L15.0055 24.5966C14.662 25.6485 14.4153 26.4517 14.2029 27.3175C14.1234 27.6421 13.6217 27.6418 13.5496 27.3156C13.3378 26.3582 13.1117 25.4487 12.8714 24.5966L11.7037 20.788C11.6587 20.6411 11.5109 20.5512 11.3598 20.5785L8.01483 21.1846Z" fill="black"/>
</svg>
