<svg width="40" height="40" viewBox="0 0 40 40" fill="none" xmlns="http://www.w3.org/2000/svg">
<path d="M0 8.75C0 3.91751 3.91751 0 8.75 0H31.25C36.0825 0 40 3.91751 40 8.75V31.25C40 36.0825 36.0825 40 31.25 40H8.75C3.91751 40 0 36.0825 0 31.25V8.75Z" fill="#A2E771"/>
<path fill-rule="evenodd" clip-rule="evenodd" d="M18.4445 9.55892C17.9764 10.1033 17.3618 10.8182 16.4479 11.2301C15.409 11.6984 14.3696 11.615 13.6132 11.5544C13.4867 11.5442 13.3681 11.5347 13.2587 11.5285C12.8417 11.5049 12.5557 11.5198 12.3271 11.5991C12.1294 11.6677 11.9217 11.8033 11.7109 12.1448C11.4102 12.6318 11.3828 13.0827 11.4153 13.6933C11.4198 13.7775 11.4258 13.8663 11.432 13.9592C11.4698 14.5205 11.5177 15.2343 11.3119 16.0084C11.0139 17.1288 10.1897 17.8259 9.58202 18.3398C9.52118 18.3913 9.4625 18.4409 9.40674 18.4889C8.73832 19.0647 8.41108 19.4456 8.44663 20.0796C8.48071 20.6876 8.80035 21.0408 9.3962 21.5295C9.45933 21.5813 9.52644 21.635 9.59648 21.691C10.1481 22.1323 10.8813 22.7189 11.2794 23.6584C11.6818 24.608 11.5815 25.5537 11.5063 26.2625C11.4966 26.354 11.4873 26.4416 11.4795 26.5247C11.4073 27.3015 11.4383 27.7725 11.8599 28.2137C12.2957 28.6697 12.7779 28.7384 13.5499 28.7162C13.6525 28.7133 13.762 28.7082 13.8774 28.7029C14.5815 28.6702 15.5048 28.6274 16.4212 28.997C17.331 29.364 17.9576 30.0231 18.4364 30.5267C18.5143 30.6087 18.5883 30.6865 18.659 30.7583C19.1924 31.3002 19.5865 31.5857 20.2201 31.5682C20.8266 31.5513 21.1954 31.2635 21.692 30.7336C21.7544 30.667 21.8196 30.5953 21.888 30.5199C22.3364 30.0263 22.9258 29.3775 23.8056 29.0025C24.8257 28.5677 25.8014 28.6749 26.5071 28.7524C26.6146 28.7642 26.7158 28.7753 26.81 28.7838C27.1955 28.8182 27.4635 28.8157 27.6875 28.7516C27.8849 28.6952 28.0968 28.5765 28.3289 28.2733C28.7548 27.7169 28.8317 27.1536 28.8494 26.4041C28.8518 26.3018 28.8528 26.1945 28.854 26.0828C28.8607 25.4043 28.8692 24.5629 29.1881 23.6915C29.555 22.6888 30.1685 22.1223 30.6305 21.6956C30.684 21.6462 30.7354 21.5988 30.7842 21.5527C31.0245 21.3257 31.1953 21.1426 31.3194 20.9299C31.437 20.7281 31.5298 20.4686 31.5526 20.078C31.5748 19.6993 31.4868 19.4413 31.3477 19.2234C31.1938 18.9823 30.9615 18.7638 30.6335 18.4904C30.5763 18.4426 30.5159 18.3933 30.4532 18.3421C29.8485 17.8481 29.0269 17.1771 28.6917 16.0242C28.4617 15.2329 28.517 14.5003 28.5601 13.9303C28.5665 13.8451 28.5727 13.7636 28.5776 13.686C28.6165 13.0689 28.5939 12.626 28.2932 12.1526C28.0885 11.8305 27.8905 11.7024 27.7038 11.637C27.488 11.5614 27.2194 11.5451 26.8243 11.5631C26.7244 11.5677 26.6163 11.575 26.501 11.5828C25.7806 11.6318 24.7816 11.6996 23.7792 11.2242C22.894 10.8044 22.317 10.0999 21.8797 9.5659C21.8104 9.48127 21.7446 9.40092 21.6816 9.32667C21.1931 8.75057 20.8324 8.4494 20.2194 8.43187C19.581 8.41362 19.1956 8.7115 18.6696 9.30019C18.5983 9.38007 18.5235 9.46707 18.4445 9.55892ZM17.5886 8.35148C18.1745 7.69574 18.9447 6.96376 20.2611 7.00139C21.527 7.03758 22.2439 7.76543 22.787 8.40595C22.8716 8.50564 22.9518 8.60232 23.0293 8.69571C23.4756 9.23358 23.8316 9.66261 24.4025 9.93334C25.0376 10.2345 25.6249 10.1994 26.3497 10.156C26.4809 10.1481 26.6166 10.14 26.7579 10.1336C27.1858 10.1141 27.6913 10.1147 28.1851 10.2877C28.7079 10.4709 29.1548 10.823 29.5151 11.3901C30.0657 12.2567 30.0626 13.0804 30.0187 13.7752C30.0126 13.8732 30.0059 13.9675 29.9994 14.059C29.9585 14.6361 29.9257 15.0997 30.0792 15.6279C30.2853 16.3368 30.7636 16.7328 31.3992 17.2592C31.4528 17.3036 31.5075 17.3489 31.5632 17.3954C31.8986 17.675 32.2847 18.0146 32.568 18.4584C32.8661 18.9253 33.034 19.4791 32.9942 20.1606C32.9593 20.7585 32.8077 21.2375 32.5697 21.6458C32.3381 22.043 32.0422 22.3414 31.7804 22.5886C31.7253 22.6407 31.6712 22.6911 31.6183 22.7404C31.1596 23.1681 30.7893 23.5134 30.5455 24.1794C30.3168 24.8044 30.3088 25.3808 30.2994 26.062C30.2977 26.1835 30.296 26.3084 30.2929 26.4375C30.2735 27.2642 30.1895 28.2104 29.4793 29.1382C29.0764 29.6647 28.6104 29.9772 28.0879 30.1266C27.592 30.2684 27.098 30.2464 26.6803 30.2091C26.5515 30.1975 26.4277 30.1849 26.3078 30.1727C25.5954 30.1 25.0225 30.0416 24.3761 30.3171C23.8072 30.5596 23.443 30.9557 22.9845 31.4541C22.9093 31.5359 22.8316 31.6205 22.75 31.7075C22.1964 32.2982 21.4781 32.9649 20.2605 32.9987C18.9917 33.0339 18.2215 32.3631 17.6255 31.7577C17.5301 31.6609 17.4396 31.5668 17.3521 31.4759C16.8663 30.9711 16.4739 30.5634 15.8768 30.3225C15.2769 30.0805 14.7037 30.1036 13.9937 30.1321C13.8646 30.1373 13.7309 30.1427 13.5917 30.1467C12.7304 30.1714 11.6938 30.1211 10.8115 29.1977C9.92617 28.2712 9.96422 27.2255 10.0417 26.3933C10.0507 26.296 10.06 26.2018 10.0691 26.1102C10.1424 25.371 10.1986 24.8038 9.94804 24.2125C9.69893 23.6247 9.25996 23.2687 8.68823 22.8052C8.61925 22.7492 8.54833 22.6917 8.47558 22.632C7.83547 22.1071 7.07505 21.411 7.00487 20.159C6.92763 18.7811 7.78528 17.9896 8.45949 17.4088C8.50758 17.3674 8.55483 17.3269 8.60119 17.2871C9.25856 16.7233 9.73772 16.3124 9.91556 15.6437C10.0569 15.1122 10.0278 14.6502 9.99243 14.0884C9.98595 13.9856 9.97926 13.8793 9.97337 13.7687C9.93628 13.0724 9.94594 12.2616 10.4792 11.3979C10.8456 10.8044 11.3067 10.4369 11.8501 10.2483C12.3628 10.0705 12.8906 10.0743 13.341 10.0998C13.4974 10.1086 13.6478 10.1195 13.7932 10.1301C14.5515 10.185 15.178 10.2304 15.8501 9.92745C16.4485 9.65769 16.8328 9.21643 17.3067 8.67223C17.3968 8.56887 17.49 8.46179 17.5886 8.35148Z" fill="black"/>
<path fill-rule="evenodd" clip-rule="evenodd" d="M19.227 13.7544C18.9476 14.0852 18.5132 14.5994 17.8203 14.8323C17.1194 15.0678 16.5214 14.995 16.1292 14.9473C16.0699 14.9401 16.0154 14.9334 15.9659 14.9285C15.7668 14.9087 15.6522 14.9115 15.5561 14.9352C15.4724 14.9557 15.3562 15.0039 15.1931 15.1548C15.0292 15.3064 14.9873 15.4138 14.9706 15.4897C14.9487 15.5886 14.9516 15.7152 14.9869 15.9479C14.9941 15.9955 15.003 16.0472 15.0125 16.1029C15.0879 16.5451 15.205 17.2315 14.8877 18.0026C14.6014 18.6981 14.0982 19.0941 13.7721 19.3507C13.7303 19.3836 13.6914 19.4141 13.6563 19.4428C13.487 19.5808 13.3985 19.6701 13.3432 19.7579C13.2985 19.8289 13.2565 19.9294 13.2565 20.1175C13.2565 20.3016 13.2984 20.3988 13.3432 20.4682C13.3998 20.5557 13.4902 20.6445 13.6639 20.7838C13.6969 20.8103 13.733 20.8383 13.7716 20.8684C14.1041 21.1269 14.6208 21.5286 14.8949 22.2506C15.1467 22.9141 15.0834 23.4759 15.0428 23.8361C15.0373 23.8853 15.0322 23.9307 15.0283 23.9721C15.0116 24.1521 15.0152 24.2481 15.0352 24.3269C15.0521 24.3935 15.0925 24.4931 15.2295 24.6393C15.3692 24.7884 15.4636 24.8235 15.5236 24.8375C15.605 24.8565 15.7129 24.8569 15.9258 24.828C15.9698 24.822 16.018 24.8145 16.07 24.8065C16.48 24.7429 17.1295 24.6421 17.8633 24.9416C18.6349 25.2565 19.0272 25.8522 19.2751 26.2286C19.3027 26.2704 19.3285 26.3096 19.3528 26.3454C19.4893 26.5459 19.5749 26.6462 19.6585 26.7071C19.7188 26.7509 19.8067 26.7958 19.9951 26.7958C20.1835 26.7958 20.2713 26.7509 20.3316 26.7071C20.4152 26.6462 20.5009 26.5459 20.6373 26.3454C20.6616 26.3096 20.6874 26.2704 20.715 26.2286C20.9629 25.8522 21.3552 25.2565 22.1268 24.9416C22.8605 24.6422 23.4957 24.7425 23.8982 24.806C23.9495 24.8141 23.9971 24.8216 24.0405 24.8276C24.246 24.856 24.354 24.8562 24.4406 24.8363C24.5105 24.8203 24.619 24.7789 24.7791 24.6203C24.9552 24.4458 25.0028 24.3354 25.0198 24.2767C25.0381 24.2135 25.0431 24.1361 25.0224 23.9757C25.0169 23.9331 25.0089 23.8843 25 23.8297C24.9446 23.4908 24.8529 22.9292 25.0903 22.264C25.3551 21.5221 25.9672 21.0984 26.3505 20.833C26.3908 20.8051 26.4286 20.7789 26.4632 20.7543C26.8937 20.4482 26.9743 20.3233 26.9743 20.1175C26.9743 19.9054 26.8911 19.7772 26.4704 19.4743C26.434 19.4481 26.3939 19.4201 26.3511 19.3901C25.9722 19.1252 25.3739 18.7069 25.0966 17.9878C24.8027 17.2258 24.9147 16.5502 24.9872 16.1128C24.9971 16.0535 25.0062 15.9986 25.0134 15.9484C25.0466 15.7191 25.048 15.5934 25.0252 15.495C25.0074 15.418 24.9633 15.3085 24.797 15.1548C24.6339 15.0039 24.5177 14.9557 24.434 14.9352C24.3379 14.9115 24.2234 14.9087 24.0243 14.9285C23.9748 14.9334 23.9202 14.9401 23.8609 14.9473C23.4688 14.995 22.8707 15.0678 22.1698 14.8323C21.4769 14.5994 21.0425 14.0852 20.7631 13.7544C20.7313 13.7168 20.7016 13.6816 20.6737 13.6494C20.3631 13.2913 20.2219 13.2006 19.9951 13.2006C19.7682 13.2006 19.6271 13.2913 19.3165 13.6494C19.2885 13.6816 19.2588 13.7168 19.227 13.7544ZM18.2214 12.7165C18.5557 12.3311 19.0747 11.7695 19.9951 11.7695C20.9155 11.7695 21.4344 12.3311 21.7687 12.7165C21.795 12.7469 21.8204 12.7762 21.8449 12.8046C22.1661 13.1763 22.3412 13.3788 22.6336 13.477C23.0048 13.6018 23.2712 13.5719 23.6555 13.5288C23.726 13.5209 23.8004 13.5125 23.8802 13.5046C24.1271 13.48 24.4408 13.4624 24.7817 13.5462C25.135 13.633 25.4645 13.8146 25.7823 14.1086C26.1314 14.4315 26.3422 14.7848 26.4325 15.1746C26.518 15.543 26.4809 15.8882 26.4427 16.1518C26.432 16.2256 26.4213 16.2953 26.4111 16.3615C26.3429 16.8029 26.2979 17.0945 26.4454 17.4769C26.5586 17.7705 26.7902 17.9368 27.2262 18.2497C27.2562 18.2713 27.2872 18.2935 27.3191 18.3165C27.7537 18.6294 28.4183 19.1367 28.4183 20.1175C28.4183 21.1045 27.737 21.6099 27.3051 21.917C27.2846 21.9315 27.2646 21.9458 27.245 21.9597C26.7862 22.2856 26.5559 22.4492 26.4516 22.7412C26.3442 23.0421 26.3726 23.2319 26.4204 23.5526C26.4313 23.6253 26.4431 23.7048 26.4547 23.7938C26.4848 24.0273 26.5061 24.3322 26.4076 24.6719C26.3078 25.0163 26.1054 25.3297 25.8002 25.6322C25.4789 25.9506 25.1379 26.1453 24.7662 26.2305C24.4112 26.312 24.0855 26.2787 23.8413 26.245C23.7787 26.2364 23.7198 26.2278 23.6639 26.2196C23.2613 26.1608 23.0186 26.1253 22.6766 26.2649C22.3357 26.404 22.1816 26.6321 21.9108 27.0328C21.8864 27.0689 21.8611 27.1064 21.8345 27.1454C21.6891 27.3592 21.4866 27.6419 21.1864 27.8604C20.8629 28.096 20.4712 28.2269 19.9951 28.2269C19.5189 28.2269 19.1273 28.096 18.8037 27.8604C18.5035 27.6419 18.301 27.3592 18.1556 27.1454C18.1291 27.1064 18.1037 27.0689 18.0793 27.0328C17.8085 26.6321 17.6544 26.404 17.3135 26.2649C16.97 26.1247 16.7145 26.1613 16.299 26.2209C16.2431 26.2289 16.1843 26.2373 16.122 26.2458C15.877 26.2791 15.547 26.3131 15.1931 26.2306C14.8178 26.1432 14.4794 25.9418 14.1714 25.6131C13.8927 25.3157 13.7189 25.0072 13.6348 24.6758C13.5538 24.3565 13.5697 24.0645 13.5904 23.8412C13.5963 23.778 13.6023 23.7189 13.6081 23.6628C13.6443 23.3096 13.6677 23.082 13.5434 22.7545C13.4174 22.4225 13.2137 22.2607 12.8694 21.987C12.8331 21.9582 12.7953 21.9281 12.7558 21.8964C12.564 21.7427 12.3167 21.5334 12.127 21.2396C11.9255 20.9275 11.8125 20.5599 11.8125 20.1175C11.8125 19.6789 11.9214 19.313 12.1179 19.0007C12.3039 18.7051 12.547 18.494 12.7392 18.3374C12.7874 18.2982 12.8332 18.2613 12.8769 18.2261C13.2082 17.9596 13.414 17.7941 13.5506 17.4621C13.7056 17.0854 13.6597 16.7969 13.5879 16.3455C13.5786 16.2868 13.5688 16.2255 13.559 16.1608C13.5193 15.8993 13.4783 15.5529 13.5601 15.1832C13.647 14.7904 13.8564 14.4337 14.2078 14.1086C14.5256 13.8146 14.8552 13.633 15.2085 13.5462C15.5493 13.4624 15.863 13.48 16.1099 13.5046C16.1897 13.5125 16.2641 13.5209 16.3346 13.5288C16.7189 13.5719 16.9853 13.6018 17.3566 13.477C17.649 13.3788 17.824 13.1763 18.1452 12.8046C18.1697 12.7762 18.1951 12.7469 18.2214 12.7165Z" fill="black"/>
</svg>
