<svg width="40" height="40" viewBox="0 0 40 40" fill="none" xmlns="http://www.w3.org/2000/svg">
<path d="M0 8.75C0 3.91751 3.91751 0 8.75 0H31.25C36.0825 0 40 3.91751 40 8.75V31.25C40 36.0825 36.0825 40 31.25 40H8.75C3.91751 40 0 36.0825 0 31.25V8.75Z" fill="#5629B6"/>
<path d="M21.0258 20.2196C24.0797 15.7108 26.9551 10.9374 29.5 6C26.6036 9.29163 23.1877 14.0809 20.0603 18.7749C18.4022 16.367 16.4188 13.7845 14.1468 11.3661C16.3978 15.5574 17.5365 17.8647 19.0949 20.2355C14.3567 27.4379 10.5 34 10.5 34C13.748 30.2268 16.9855 26.0726 20.0603 21.6379C21.3774 23.4689 23.0827 25.5434 25.806 28.6551C25.8007 28.6498 24.1007 24.9242 21.0258 20.2196Z" fill="white"/>
</svg>
