<svg width="22" height="22" viewBox="0 0 22 22" fill="none" xmlns="http://www.w3.org/2000/svg">
<path d="M6.73047 10.8828L8.90438 13.0567L6.73047 15.2306" stroke="white" stroke-width="1.5" stroke-linecap="round" stroke-linejoin="round"/>
<path d="M11.9492 13.4922H15.4275" stroke="white" stroke-width="1.5" stroke-linecap="round" stroke-linejoin="round"/>
<path d="M3.34289 4.59766C3.46015 4.59766 3.57477 4.63243 3.67227 4.69757C3.76977 4.76272 3.84576 4.85532 3.89064 4.96365C3.93551 5.07199 3.94726 5.1912 3.92438 5.30621C3.9015 5.42122 3.84504 5.52686 3.76212 5.60978C3.6792 5.69269 3.57356 5.74916 3.45855 5.77203C3.34354 5.79491 3.22433 5.78317 3.116 5.7383C3.00766 5.69342 2.91507 5.61743 2.84992 5.51993C2.78477 5.42243 2.75 5.3078 2.75 5.19054C2.75 5.0333 2.81246 4.8825 2.92365 4.77131C3.03484 4.66012 3.18564 4.59766 3.34289 4.59766Z" fill="white"/>
<path d="M5.39367 4.59766C5.51093 4.59766 5.62556 4.63243 5.72306 4.69757C5.82056 4.76272 5.89655 4.85532 5.94142 4.96365C5.9863 5.07199 5.99803 5.1912 5.97516 5.30621C5.95228 5.42122 5.89582 5.52686 5.8129 5.60978C5.72998 5.69269 5.62434 5.74916 5.50933 5.77203C5.39432 5.79491 5.27512 5.78317 5.16678 5.7383C5.05844 5.69342 4.96585 5.61743 4.9007 5.51993C4.83556 5.42243 4.80078 5.3078 4.80078 5.19054C4.80078 5.0333 4.86325 4.8825 4.97443 4.77131C5.08562 4.66012 5.23642 4.59766 5.39367 4.59766Z" fill="white"/>
<path d="M7.43273 4.59766C7.54999 4.59766 7.66462 4.63243 7.76212 4.69757C7.85962 4.76272 7.93561 4.85532 7.98048 4.96365C8.02536 5.07199 8.0371 5.1912 8.01422 5.30621C7.99134 5.42122 7.93488 5.52686 7.85196 5.60978C7.76905 5.69269 7.6634 5.74916 7.5484 5.77203C7.43339 5.79491 7.31418 5.78317 7.20584 5.7383C7.09751 5.69342 7.00491 5.61743 6.93976 5.51993C6.87462 5.42243 6.83984 5.3078 6.83984 5.19054C6.83984 5.0333 6.90231 4.8825 7.0135 4.77131C7.12468 4.66012 7.27549 4.59766 7.43273 4.59766Z" fill="white"/>
<path d="M20.1304 2.97656H1.86957C1.38932 2.97656 1 3.36588 1 3.84613V18.6287C1 19.109 1.38932 19.4983 1.86957 19.4983H20.1304C20.6107 19.4983 21 19.109 21 18.6287V3.84613C21 3.36588 20.6107 2.97656 20.1304 2.97656Z" stroke="white" stroke-width="1.5" stroke-linecap="round" stroke-linejoin="round"/>
<path d="M1 7.32422H21" stroke="white" stroke-width="1.5" stroke-linecap="round" stroke-linejoin="round"/>
</svg>
