<svg width="22" height="22" viewBox="0 0 22 22" fill="none" xmlns="http://www.w3.org/2000/svg">
<g clip-path="url(#clip0_18765_21207)">
<path d="M10.998 4.8125C12.1371 4.8125 13.0605 3.88909 13.0605 2.75C13.0605 1.61091 12.1371 0.6875 10.998 0.6875C9.85896 0.6875 8.93555 1.61091 8.93555 2.75C8.93555 3.88909 9.85896 4.8125 10.998 4.8125Z" stroke="white" stroke-width="1.5" stroke-linecap="round" stroke-linejoin="round"/>
<path d="M2.95979 18.7344C4.09888 18.7344 5.02229 17.811 5.02229 16.6719C5.02229 15.5328 4.09888 14.6094 2.95979 14.6094C1.82071 14.6094 0.897293 15.5328 0.897293 16.6719C0.897293 17.811 1.82071 18.7344 2.95979 18.7344Z" stroke="white" stroke-width="1.5" stroke-linecap="round" stroke-linejoin="round"/>
<path d="M19.0363 18.7344C20.1754 18.7344 21.0988 17.811 21.0988 16.6719C21.0988 15.5328 20.1754 14.6094 19.0363 14.6094C17.8972 14.6094 16.9738 15.5328 16.9738 16.6719C16.9738 17.811 17.8972 18.7344 19.0363 18.7344Z" stroke="white" stroke-width="1.5" stroke-linecap="round" stroke-linejoin="round"/>
<path d="M6.35742 4.00781C4.53391 5.05938 3.12245 6.70008 2.35505 8.6602C1.58764 10.6203 1.50997 12.7832 2.13479 14.7933" stroke="white" stroke-width="1.5" stroke-linecap="round" stroke-linejoin="round"/>
<path d="M17.8112 18.3203C16.3882 19.8721 14.4783 20.8919 12.3972 21.2112C10.3161 21.5305 8.18837 21.1301 6.36566 20.0762" stroke="white" stroke-width="1.5" stroke-linecap="round" stroke-linejoin="round"/>
<path d="M20.2793 12.0293C20.2788 9.92292 19.5614 7.87937 18.2452 6.2348C16.929 4.59022 15.0923 3.44253 13.0372 2.98047" stroke="white" stroke-width="1.5" stroke-linecap="round" stroke-linejoin="round"/>
</g>
<defs>
<clipPath id="clip0_18765_21207">
<rect width="22" height="22" fill="white" transform="translate(-0.00195312)"/>
</clipPath>
</defs>
</svg>
