<svg width="345" height="84" viewBox="0 0 345 84" fill="none" xmlns="http://www.w3.org/2000/svg">
<rect x="0.5" y="0.5" width="344" height="83" rx="3.5" fill="#1A1A1A" stroke="#4D4D4D" stroke-dasharray="3 3"/>
<path fill-rule="evenodd" clip-rule="evenodd" d="M313 32C313 33.1046 312.105 34 311 34C309.895 34 309 33.1046 309 32C309 30.8954 309.895 30 311 30C312.105 30 313 30.8954 313 32ZM321 32C321 33.1046 320.105 34 319 34C317.895 34 317 33.1046 317 32C317 30.8954 317.895 30 319 30C320.105 30 321 30.8954 321 32ZM327 34C328.105 34 329 33.1046 329 32C329 30.8954 328.105 30 327 30C325.895 30 325 30.8954 325 32C325 33.1046 325.895 34 327 34Z" fill="#4D4D4D"/>
<path d="M20.464 15.48H18.928V24.312C18.928 25.288 18.432 25.816 17.504 25.816C16.976 25.816 16.48 25.672 16.16 25.48V26.872C16.464 27.048 17.024 27.192 17.664 27.192C19.632 27.192 20.464 26.072 20.464 24.04V15.48ZM26.8804 18.808C24.5124 18.808 22.7684 20.584 22.7684 23C22.7684 25.416 24.5124 27.192 26.8804 27.192C29.2644 27.192 31.0084 25.416 31.0084 23C31.0084 20.584 29.2644 18.808 26.8804 18.808ZM26.8804 25.896C25.3444 25.896 24.2084 24.696 24.2084 23C24.2084 21.304 25.3444 20.104 26.8804 20.104C28.4324 20.104 29.5684 21.304 29.5684 23C29.5684 24.696 28.4324 25.896 26.8804 25.896ZM33.2529 27H34.7409V23.064C34.7409 21.432 35.8609 20.184 37.4289 20.184C38.7569 20.184 38.9489 21.176 38.9489 22.28V27H40.4369V21.976C40.4369 19.976 39.6689 18.808 37.7009 18.808C36.0049 18.808 35.0289 20.008 34.6929 20.728H34.6769C34.6769 20.6 34.7249 20.296 34.7249 19.928V15.48H33.2529V27ZM43.1123 19V27H44.6003V23.064C44.6003 21.432 45.7203 20.184 47.2883 20.184C48.6163 20.184 48.8083 21.176 48.8083 22.28V27H50.2963V21.976C50.2963 19.976 49.5283 18.808 47.5603 18.808C45.8643 18.808 44.8083 20.008 44.5043 20.728H44.4723C44.4883 20.696 44.5363 20.456 44.5363 20.12L44.5043 19H43.1123ZM57.1904 19V27H58.6784V23.288C58.6784 21.752 59.4624 20.184 61.1424 20.184C62.4064 20.184 62.6144 21.176 62.6144 22.248V27H64.1024V23.288C64.1024 21.784 64.8064 20.184 66.5184 20.184C67.7344 20.184 68.0224 21.112 68.0224 22.264V27H69.5104V21.976C69.5104 19.96 68.6944 18.808 66.7104 18.808C65.4784 18.808 64.4224 19.64 63.9264 20.632H63.9104C63.6544 19.464 62.6784 18.808 61.5104 18.808C60.1664 18.808 59.0144 19.624 58.5824 20.728H58.5504C58.5664 20.696 58.6144 20.456 58.6144 20.12L58.5824 19H57.1904ZM75.2509 18.808C73.0429 18.808 71.3309 20.584 71.3309 23C71.3309 25.48 73.0429 27.192 75.5709 27.192C76.8669 27.192 77.9389 26.856 78.5629 26.504V25.144C77.8909 25.576 76.7549 25.896 75.6669 25.896C73.9869 25.896 72.9309 24.904 72.8829 23.336V23.32H78.8349C78.8349 23.16 78.8669 22.856 78.8669 22.536C78.8669 20.568 77.6029 18.808 75.2509 18.808ZM77.3949 22.264H72.8989C73.0269 21.112 73.8589 20.056 75.2349 20.056C76.6589 20.056 77.4109 21.112 77.3949 22.264ZM81.0654 19V27H82.5534V23.064C82.5534 21.432 83.6734 20.184 85.2414 20.184C86.5694 20.184 86.7614 21.176 86.7614 22.28V27H88.2494V21.976C88.2494 19.976 87.4814 18.808 85.5134 18.808C83.8174 18.808 82.7614 20.008 82.4574 20.728H82.4254C82.4414 20.696 82.4894 20.456 82.4894 20.12L82.4574 19H81.0654ZM89.7568 19V20.216H91.0688V24.808C91.0688 26.6 92.2848 27.192 93.4368 27.192C94.2208 27.192 94.8768 27.016 95.2288 26.824V25.528C94.7808 25.736 94.2208 25.88 93.7248 25.88C93.0528 25.88 92.5408 25.496 92.5408 24.36V20.216H94.9568V19H92.5408V16.6H91.0848V19H89.7568ZM96.8779 19V27H98.3659V19H96.8779ZM96.6859 16.68C96.6859 17.208 97.0539 17.576 97.6139 17.576C98.1579 17.576 98.5419 17.208 98.5419 16.68C98.5419 16.136 98.1579 15.768 97.6139 15.768C97.0539 15.768 96.6859 16.136 96.6859 16.68ZM104.724 18.808C102.356 18.808 100.612 20.584 100.612 23C100.612 25.416 102.356 27.192 104.724 27.192C107.108 27.192 108.852 25.416 108.852 23C108.852 20.584 107.108 18.808 104.724 18.808ZM104.724 25.896C103.188 25.896 102.052 24.696 102.052 23C102.052 21.304 103.188 20.104 104.724 20.104C106.276 20.104 107.412 21.304 107.412 23C107.412 24.696 106.276 25.896 104.724 25.896ZM111.097 19V27H112.585V23.064C112.585 21.432 113.705 20.184 115.273 20.184C116.601 20.184 116.793 21.176 116.793 22.28V27H118.281V21.976C118.281 19.976 117.513 18.808 115.545 18.808C113.849 18.808 112.793 20.008 112.489 20.728H112.457C112.473 20.696 112.521 20.456 112.521 20.12L112.489 19H111.097ZM124.204 18.808C121.996 18.808 120.284 20.584 120.284 23C120.284 25.48 121.996 27.192 124.524 27.192C125.82 27.192 126.892 26.856 127.516 26.504V25.144C126.844 25.576 125.708 25.896 124.62 25.896C122.94 25.896 121.884 24.904 121.836 23.336V23.32H127.788C127.788 23.16 127.82 22.856 127.82 22.536C127.82 20.568 126.556 18.808 124.204 18.808ZM126.348 22.264H121.852C121.98 21.112 122.812 20.056 124.188 20.056C125.612 20.056 126.364 21.112 126.348 22.264ZM137.361 15.48H135.873V19.608C135.873 20.024 135.921 20.264 135.921 20.264H135.889C135.457 19.512 134.401 18.808 133.105 18.808C131.025 18.808 129.425 20.488 129.425 23C129.425 25.48 131.025 27.192 133.137 27.192C134.433 27.192 135.553 26.36 135.969 25.464H136.001C136.001 25.464 135.953 25.704 135.953 26.056L135.985 27H137.361V15.48ZM133.345 20.104C134.545 20.104 135.857 21 135.857 23C135.857 25 134.545 25.896 133.345 25.896C131.857 25.896 130.865 24.664 130.865 23C130.865 21.304 131.857 20.104 133.345 20.104ZM143.031 30.568C143.207 30.648 143.639 30.712 144.055 30.712C146.167 30.712 147.063 29.256 148.151 26.632L151.303 19H149.655L148.551 21.896C148.167 22.888 147.591 24.488 147.191 25.4C146.775 24.232 146.295 23.064 145.847 21.896L144.727 19H143.079L146.423 26.904C145.815 28.36 145.175 29.432 143.895 29.432C143.495 29.432 143.207 29.384 143.031 29.336V30.568ZM155.99 18.808C153.622 18.808 151.878 20.584 151.878 23C151.878 25.416 153.622 27.192 155.99 27.192C158.374 27.192 160.118 25.416 160.118 23C160.118 20.584 158.374 18.808 155.99 18.808ZM155.99 25.896C154.454 25.896 153.318 24.696 153.318 23C153.318 21.304 154.454 20.104 155.99 20.104C157.542 20.104 158.678 21.304 158.678 23C158.678 24.696 157.542 25.896 155.99 25.896ZM169.226 27V19H167.738V22.936C167.738 24.568 166.65 25.816 165.13 25.816C163.802 25.816 163.61 24.824 163.61 23.72V19H162.122V24.024C162.122 26.024 162.89 27.192 164.858 27.192C166.506 27.192 167.53 25.992 167.834 25.272H167.866C167.866 25.304 167.802 25.544 167.802 25.88L167.834 27H169.226ZM176.362 19V27H177.85V19H176.362ZM176.17 16.68C176.17 17.208 176.538 17.576 177.098 17.576C177.642 17.576 178.026 17.208 178.026 16.68C178.026 16.136 177.642 15.768 177.098 15.768C176.538 15.768 176.17 16.136 176.17 16.68ZM180.769 19V27H182.257V23.064C182.257 21.432 183.377 20.184 184.945 20.184C186.273 20.184 186.465 21.176 186.465 22.28V27H187.953V21.976C187.953 19.976 187.185 18.808 185.217 18.808C183.521 18.808 182.465 20.008 182.161 20.728H182.129C182.145 20.696 182.193 20.456 182.193 20.12L182.161 19H180.769ZM193.679 19V20.216H194.991V24.808C194.991 26.6 196.207 27.192 197.359 27.192C198.143 27.192 198.799 27.016 199.151 26.824V25.528C198.703 25.736 198.143 25.88 197.647 25.88C196.975 25.88 196.463 25.496 196.463 24.36V20.216H198.879V19H196.463V16.6H195.007V19H193.679ZM200.8 27H202.288V23.064C202.288 21.432 203.408 20.184 204.976 20.184C206.304 20.184 206.496 21.176 206.496 22.28V27H207.984V21.976C207.984 19.976 207.216 18.808 205.248 18.808C203.552 18.808 202.576 20.008 202.24 20.728H202.224C202.224 20.6 202.272 20.296 202.272 19.928V15.48H200.8V27ZM213.907 18.808C211.699 18.808 209.987 20.584 209.987 23C209.987 25.48 211.699 27.192 214.227 27.192C215.523 27.192 216.595 26.856 217.219 26.504V25.144C216.547 25.576 215.411 25.896 214.323 25.896C212.643 25.896 211.587 24.904 211.539 23.336V23.32H217.491C217.491 23.16 217.523 22.856 217.523 22.536C217.523 20.568 216.259 18.808 213.907 18.808ZM216.051 22.264H211.555C211.683 21.112 212.515 20.056 213.891 20.056C215.315 20.056 216.067 21.112 216.051 22.264ZM16.64 41.24C16.64 44.616 19.2 47.192 22.544 47.192C25.888 47.192 28.448 44.616 28.448 41.24C28.448 37.864 25.84 35.288 22.544 35.288C19.2 35.288 16.64 37.912 16.64 41.24ZM18.192 41.24C18.192 38.632 20.048 36.712 22.544 36.712C25.04 36.712 26.88 38.632 26.88 41.24C26.88 43.848 25.04 45.768 22.544 45.768C20.048 45.768 18.192 43.848 18.192 41.24ZM30.5498 39V47H32.0378V43.064C32.0378 41.432 33.1578 40.184 34.7258 40.184C36.0538 40.184 36.2458 41.176 36.2458 42.28V47H37.7338V41.976C37.7338 39.976 36.9658 38.808 34.9978 38.808C33.3018 38.808 32.2458 40.008 31.9418 40.728H31.9098C31.9258 40.696 31.9738 40.456 31.9738 40.12L31.9418 39H30.5498ZM39.6731 43.096H44.4411V41.864H39.6731V43.096ZM46.6123 47H47.9883L48.0203 46.056C48.0203 45.704 47.9723 45.464 47.9723 45.464H48.0043C48.4203 46.36 49.5403 47.192 50.8363 47.192C52.9483 47.192 54.5483 45.48 54.5483 43C54.5483 40.488 52.9483 38.808 50.8683 38.808C49.5723 38.808 48.5163 39.512 48.0843 40.264H48.0523C48.0523 40.264 48.1003 40.024 48.1003 39.608V35.48H46.6123V47ZM50.6283 40.104C52.1163 40.104 53.1083 41.304 53.1083 43C53.1083 44.664 52.1163 45.896 50.6283 45.896C49.4283 45.896 48.1163 45 48.1163 43C48.1163 41 49.4283 40.104 50.6283 40.104ZM60.3023 38.808C57.9343 38.808 56.1903 40.584 56.1903 43C56.1903 45.416 57.9343 47.192 60.3023 47.192C62.6863 47.192 64.4303 45.416 64.4303 43C64.4303 40.584 62.6863 38.808 60.3023 38.808ZM60.3023 45.896C58.7663 45.896 57.6303 44.696 57.6303 43C57.6303 41.304 58.7663 40.104 60.3023 40.104C61.8543 40.104 62.9903 41.304 62.9903 43C62.9903 44.696 61.8543 45.896 60.3023 45.896ZM66.4348 40.776C66.9148 40.488 67.9388 40.104 69.0428 40.104C70.3068 40.104 71.1388 40.584 71.1388 41.976V42.376C67.7948 41.912 65.9228 42.888 65.9228 44.84C65.9228 46.312 66.9788 47.192 68.4508 47.192C70.2588 47.192 71.1388 45.64 71.2348 45.416H71.2668C71.2668 45.416 71.2028 45.672 71.2188 46.056L71.2348 47H72.6108V41.896C72.6108 39.896 71.5068 38.808 69.2508 38.808C67.9388 38.808 66.8828 39.16 66.4348 39.4V40.776ZM68.7068 45.992C67.9068 45.992 67.3948 45.496 67.3948 44.792C67.3948 43.704 68.4988 43 71.1068 43.416C71.1068 44.664 70.0668 45.992 68.7068 45.992ZM75.1253 47H76.6133V43.512C76.6133 41.96 77.5093 40.248 79.0613 40.248C79.2693 40.248 79.4133 40.28 79.4773 40.296V38.856C79.4133 38.84 79.2213 38.808 78.9973 38.808C77.8453 38.808 76.9973 39.576 76.5333 40.712H76.5173C76.5013 40.664 76.5493 40.424 76.5333 40.12L76.5173 39H75.1253V47ZM88.5794 35.48H87.0914V39.608C87.0914 40.024 87.1394 40.264 87.1394 40.264H87.1074C86.6754 39.512 85.6194 38.808 84.3234 38.808C82.2434 38.808 80.6434 40.488 80.6434 43C80.6434 45.48 82.2434 47.192 84.3554 47.192C85.6514 47.192 86.7714 46.36 87.1874 45.464H87.2194C87.2194 45.464 87.1714 45.704 87.1714 46.056L87.2034 47H88.5794V35.48ZM84.5634 40.104C85.7634 40.104 87.0754 41 87.0754 43C87.0754 45 85.7634 45.896 84.5634 45.896C83.0754 45.896 82.0834 44.664 82.0834 43C82.0834 41.304 83.0754 40.104 84.5634 40.104ZM91.5029 39V47H92.9909V39H91.5029ZM91.3109 36.68C91.3109 37.208 91.6789 37.576 92.2389 37.576C92.7829 37.576 93.1669 37.208 93.1669 36.68C93.1669 36.136 92.7829 35.768 92.2389 35.768C91.6789 35.768 91.3109 36.136 91.3109 36.68ZM95.9091 39V47H97.3971V43.064C97.3971 41.432 98.5171 40.184 100.085 40.184C101.413 40.184 101.605 41.176 101.605 42.28V47H103.093V41.976C103.093 39.976 102.325 38.808 100.357 38.808C98.6611 38.808 97.6051 40.008 97.3011 40.728H97.2691C97.2851 40.696 97.3331 40.456 97.3331 40.12L97.3011 39H95.9091ZM107.385 45.064C107.385 44.76 107.961 44.488 108.681 44.424H108.697C110.377 44.328 111.625 43.208 111.625 41.64C111.625 41 111.353 40.44 110.921 40.04L111.017 40.056C111.017 40.056 111.257 40.12 111.465 40.12H112.569V39H109.657C109.289 38.872 108.841 38.808 108.393 38.808C106.569 38.808 105.145 39.96 105.145 41.64C105.145 42.856 105.897 43.816 107.033 44.232C106.345 44.456 105.929 44.888 105.929 45.352C105.929 45.896 106.393 46.28 107.161 46.376C105.929 46.616 104.953 47.4 104.953 48.344C104.953 49.768 106.441 50.504 108.617 50.504C110.889 50.504 112.457 49.576 112.457 48.04C112.457 46.584 111.305 45.976 109.273 45.752C107.897 45.592 107.385 45.464 107.385 45.064ZM108.393 43.384C107.305 43.384 106.537 42.664 106.537 41.672C106.537 40.68 107.305 39.944 108.393 39.944C109.513 39.944 110.265 40.68 110.265 41.672C110.265 42.664 109.513 43.384 108.393 43.384ZM108.633 49.448C107.321 49.448 106.393 49.016 106.393 48.168C106.393 47.448 107.273 46.824 108.521 46.824C110.329 46.824 110.969 47.4 110.969 48.136C110.969 48.92 110.073 49.448 108.633 49.448ZM118.566 50.52H120.054V46.28C120.054 45.864 120.006 45.624 120.006 45.624H120.038C120.47 46.44 121.526 47.192 122.822 47.192C124.902 47.192 126.502 45.512 126.502 43C126.502 40.52 124.902 38.808 122.79 38.808C121.494 38.808 120.374 39.592 119.958 40.424H119.926C119.926 40.424 119.974 40.184 119.974 39.832L119.942 39H118.566V50.52ZM122.582 45.896C121.382 45.896 120.07 45 120.07 43C120.07 41 121.382 40.104 122.582 40.104C124.07 40.104 125.062 41.336 125.062 43C125.062 44.696 124.07 45.896 122.582 45.896ZM128.625 47H130.113V43.512C130.113 41.96 131.009 40.248 132.561 40.248C132.769 40.248 132.913 40.28 132.977 40.296V38.856C132.913 38.84 132.721 38.808 132.497 38.808C131.345 38.808 130.497 39.576 130.033 40.712H130.017C130.001 40.664 130.049 40.424 130.033 40.12L130.017 39H128.625V47ZM138.255 38.808C135.887 38.808 134.143 40.584 134.143 43C134.143 45.416 135.887 47.192 138.255 47.192C140.639 47.192 142.383 45.416 142.383 43C142.383 40.584 140.639 38.808 138.255 38.808ZM138.255 45.896C136.719 45.896 135.583 44.696 135.583 43C135.583 41.304 136.719 40.104 138.255 40.104C139.807 40.104 140.943 41.304 140.943 43C140.943 44.696 139.807 45.896 138.255 45.896ZM146.116 39H144.628V47.72C144.628 48.776 144.068 49.368 143.156 49.368C142.932 49.368 142.724 49.336 142.612 49.304V50.6C142.772 50.664 143.092 50.712 143.444 50.712C145.14 50.712 146.116 49.704 146.116 47.928V39ZM144.436 36.68C144.436 37.208 144.804 37.576 145.364 37.576C145.908 37.576 146.292 37.208 146.292 36.68C146.292 36.136 145.908 35.768 145.364 35.768C144.804 35.768 144.436 36.136 144.436 36.68ZM152.282 38.808C150.074 38.808 148.362 40.584 148.362 43C148.362 45.48 150.074 47.192 152.602 47.192C153.898 47.192 154.97 46.856 155.594 46.504V45.144C154.922 45.576 153.786 45.896 152.698 45.896C151.018 45.896 149.962 44.904 149.914 43.336V43.32H155.866C155.866 43.16 155.898 42.856 155.898 42.536C155.898 40.568 154.634 38.808 152.282 38.808ZM154.426 42.264H149.93C150.058 41.112 150.89 40.056 152.266 40.056C153.69 40.056 154.442 41.112 154.426 42.264ZM159.023 43C159.023 41.32 160.159 40.136 161.759 40.136C162.799 40.136 163.583 40.488 164.143 40.84V39.432C163.663 39.176 162.911 38.808 161.679 38.808C159.215 38.808 157.503 40.584 157.503 43C157.503 45.416 159.215 47.192 161.679 47.192C162.927 47.192 163.711 46.808 164.191 46.552V45.16C163.695 45.464 162.863 45.864 161.759 45.864C160.143 45.864 159.023 44.68 159.023 43ZM165.304 39V40.216H166.616V44.808C166.616 46.6 167.832 47.192 168.984 47.192C169.768 47.192 170.424 47.016 170.776 46.824V45.528C170.328 45.736 169.768 45.88 169.272 45.88C168.6 45.88 168.088 45.496 168.088 44.36V40.216H170.504V39H168.088V36.6H166.632V39H165.304Z" fill="white"/>
<path d="M16.576 60.36V61.164H17.632V69H18.544V60.36H16.576ZM21.0425 64.68C21.0425 67.236 22.2905 69.144 24.2345 69.144C26.1905 69.144 27.4265 67.236 27.4265 64.68C27.4265 62.136 26.1905 60.216 24.2345 60.216C22.2905 60.216 21.0425 62.136 21.0425 64.68ZM21.9665 64.68C21.9665 62.544 22.8545 61.068 24.2345 61.068C25.6145 61.068 26.5025 62.544 26.5025 64.68C26.5025 66.816 25.6145 68.292 24.2345 68.292C22.8545 68.292 21.9665 66.816 21.9665 64.68ZM32.4338 63V69H33.3218V66.156C33.3218 64.956 34.0178 63.684 35.3378 63.684C36.4178 63.684 36.5738 64.524 36.5738 65.412V69H37.4498V66.156C37.4498 64.98 38.0978 63.684 39.4298 63.684C40.4738 63.684 40.7018 64.452 40.7018 65.424V69H41.5778V65.22C41.5778 63.744 41.0258 62.856 39.5138 62.856C38.5538 62.856 37.7138 63.54 37.3538 64.32H37.3418C37.1738 63.372 36.5018 62.856 35.5058 62.856C34.5218 62.856 33.5738 63.54 33.2618 64.392H33.2378C33.2498 64.38 33.2858 64.188 33.2858 63.924L33.2738 63H32.4338ZM43.5867 61.248C43.5867 61.584 43.8147 61.824 44.1747 61.824C44.5107 61.824 44.7627 61.584 44.7627 61.248C44.7627 60.912 44.5107 60.672 44.1747 60.672C43.8147 60.672 43.5867 60.912 43.5867 61.248ZM43.7307 63V69H44.6187V63H43.7307ZM46.9651 63V69H47.8531V66.06C47.8531 64.716 48.7891 63.684 50.0611 63.684C51.1891 63.684 51.3331 64.512 51.3331 65.424V69H52.2091V65.22C52.2091 63.756 51.6931 62.856 50.1811 62.856C48.8251 62.856 48.0091 63.84 47.7931 64.392H47.7691C47.7811 64.38 47.8171 64.188 47.8171 63.924L47.8051 63H46.9651ZM57.3191 64.152C57.6671 63.936 58.4351 63.648 59.2991 63.648C60.2951 63.648 60.9671 64.044 60.9671 65.196V65.568C58.4711 65.22 56.9471 65.952 56.9471 67.44C56.9471 68.472 57.7151 69.144 58.8191 69.144C60.2711 69.144 60.9791 67.836 61.0151 67.728H61.0391C61.0391 67.728 60.9911 67.932 61.0031 68.232V69H61.8311V65.148C61.8311 63.648 61.0391 62.856 59.3951 62.856C58.4471 62.856 57.6551 63.12 57.3191 63.312V64.152ZM58.9511 68.4C58.2671 68.4 57.8351 67.992 57.8351 67.404C57.8351 66.456 58.8911 65.904 60.9431 66.228C60.9431 67.272 60.0911 68.4 58.9511 68.4ZM65.001 67.548C65.001 67.308 65.433 67.092 65.973 67.044H66.021C67.305 67.008 68.253 66.144 68.253 64.968C68.253 64.416 68.013 63.948 67.641 63.624L67.701 63.636C67.701 63.636 67.905 63.684 68.085 63.684H68.961V63H66.801C66.525 62.904 66.201 62.856 65.877 62.856C64.533 62.856 63.501 63.732 63.501 64.968C63.501 65.88 64.065 66.6 64.917 66.912C64.437 67.068 64.125 67.368 64.125 67.704C64.125 68.1 64.473 68.388 65.073 68.46C64.125 68.64 63.369 69.24 63.369 69.96C63.369 71.04 64.449 71.592 66.069 71.592C67.725 71.592 68.865 70.908 68.865 69.792C68.865 68.7 67.965 68.244 66.477 68.088C65.361 67.98 65.001 67.872 65.001 67.548ZM65.877 66.384C64.977 66.384 64.341 65.784 64.341 64.98C64.341 64.176 64.977 63.564 65.877 63.564C66.789 63.564 67.425 64.176 67.425 64.98C67.425 65.784 66.789 66.384 65.877 66.384ZM66.069 70.92C64.989 70.92 64.233 70.56 64.233 69.876C64.233 69.288 64.953 68.772 65.985 68.772C67.485 68.772 67.965 69.264 67.965 69.852C67.965 70.476 67.257 70.92 66.069 70.92ZM72.7788 62.856C71.1468 62.856 69.8748 64.188 69.8748 66C69.8748 67.86 71.1588 69.144 72.9948 69.144C73.9308 69.144 74.7348 68.892 75.2388 68.592V67.752C74.6748 68.124 73.8348 68.352 73.0308 68.352C71.6988 68.352 70.8228 67.488 70.7988 66.18V66.132H75.4428C75.4428 66.024 75.4548 65.844 75.4548 65.652C75.4548 64.176 74.5068 62.856 72.7788 62.856ZM74.5668 65.484H70.8228C70.9308 64.524 71.6268 63.624 72.7668 63.624C73.9548 63.624 74.5788 64.524 74.5668 65.484Z" fill="#999999"/>
</svg>
