<svg width="345" height="64" viewBox="0 0 345 64" fill="none" xmlns="http://www.w3.org/2000/svg">
<rect width="345" height="64" rx="4" fill="#262626"/>
<path fill-rule="evenodd" clip-rule="evenodd" d="M313 32C313 33.1046 312.105 34 311 34C309.895 34 309 33.1046 309 32C309 30.8954 309.895 30 311 30C312.105 30 313 30.8954 313 32ZM321 32C321 33.1046 320.105 34 319 34C317.895 34 317 33.1046 317 32C317 30.8954 317.895 30 319 30C320.105 30 321 30.8954 321 32ZM327 34C328.105 34 329 33.1046 329 32C329 30.8954 328.105 30 327 30C325.895 30 325 30.8954 325 32C325 33.1046 325.895 34 327 34Z" fill="#4D4D4D"/>
<path d="M20.464 15.48H18.928V24.312C18.928 25.288 18.432 25.816 17.504 25.816C16.976 25.816 16.48 25.672 16.16 25.48V26.872C16.464 27.048 17.024 27.192 17.664 27.192C19.632 27.192 20.464 26.072 20.464 24.04V15.48ZM22.8879 20.776C23.3679 20.488 24.3919 20.104 25.4959 20.104C26.7599 20.104 27.5919 20.584 27.5919 21.976V22.376C24.2479 21.912 22.3759 22.888 22.3759 24.84C22.3759 26.312 23.4319 27.192 24.9039 27.192C26.7119 27.192 27.5919 25.64 27.6879 25.416H27.7199C27.7199 25.416 27.6559 25.672 27.6719 26.056L27.6879 27H29.0639V21.896C29.0639 19.896 27.9599 18.808 25.7039 18.808C24.3919 18.808 23.3359 19.16 22.8879 19.4V20.776ZM25.1599 25.992C24.3599 25.992 23.8479 25.496 23.8479 24.792C23.8479 23.704 24.9519 23 27.5599 23.416C27.5599 24.664 26.5199 25.992 25.1599 25.992ZM31.6904 19V27H33.1784V23.064C33.1784 21.432 34.2984 20.184 35.8664 20.184C37.1944 20.184 37.3864 21.176 37.3864 22.28V27H38.8744V21.976C38.8744 19.976 38.1064 18.808 36.1384 18.808C34.4424 18.808 33.3864 20.008 33.0824 20.728H33.0504C33.0664 20.696 33.1144 20.456 33.1144 20.12L33.0824 19H31.6904ZM44.7977 18.808C42.5898 18.808 40.8778 20.584 40.8778 23C40.8778 25.48 42.5898 27.192 45.1178 27.192C46.4138 27.192 47.4858 26.856 48.1098 26.504V25.144C47.4378 25.576 46.3018 25.896 45.2138 25.896C43.5338 25.896 42.4778 24.904 42.4298 23.336V23.32H48.3818C48.3818 23.16 48.4138 22.856 48.4138 22.536C48.4138 20.568 47.1498 18.808 44.7977 18.808ZM46.9418 22.264H42.4457C42.5738 21.112 43.4058 20.056 44.7818 20.056C46.2058 20.056 46.9578 21.112 46.9418 22.264ZM54.591 20.776C55.071 20.488 56.095 20.104 57.199 20.104C58.463 20.104 59.295 20.584 59.295 21.976V22.376C55.951 21.912 54.079 22.888 54.079 24.84C54.079 26.312 55.135 27.192 56.607 27.192C58.415 27.192 59.295 25.64 59.391 25.416H59.423C59.423 25.416 59.359 25.672 59.375 26.056L59.391 27H60.767V21.896C60.767 19.896 59.663 18.808 57.407 18.808C56.095 18.808 55.039 19.16 54.591 19.4V20.776ZM56.863 25.992C56.063 25.992 55.551 25.496 55.551 24.792C55.551 23.704 56.655 23 59.263 23.416C59.263 24.664 58.223 25.992 56.863 25.992ZM63.3935 19V27H64.8815V23.064C64.8815 21.432 66.0015 20.184 67.5695 20.184C68.8975 20.184 69.0895 21.176 69.0895 22.28V27H70.5775V21.976C70.5775 19.976 69.8095 18.808 67.8415 18.808C66.1455 18.808 65.0895 20.008 64.7855 20.728H64.7535C64.7695 20.696 64.8175 20.456 64.8175 20.12L64.7855 19H63.3935ZM80.5169 15.48H79.0289V19.608C79.0289 20.024 79.0769 20.264 79.0769 20.264H79.0449C78.6129 19.512 77.5569 18.808 76.2609 18.808C74.1809 18.808 72.5809 20.488 72.5809 23C72.5809 25.48 74.1809 27.192 76.2929 27.192C77.5889 27.192 78.7089 26.36 79.1249 25.464H79.1569C79.1569 25.464 79.1089 25.704 79.1089 26.056L79.1409 27H80.5169V15.48ZM76.5009 20.104C77.7009 20.104 79.0129 21 79.0129 23C79.0129 25 77.7009 25.896 76.5009 25.896C75.0129 25.896 74.0209 24.664 74.0209 23C74.0209 21.304 75.0129 20.104 76.5009 20.104ZM86.9231 26.44C87.5791 26.888 88.5231 27.192 89.6591 27.192C92.0431 27.192 93.7551 25.8 93.7551 23.544C93.7551 21.272 92.1071 19.768 89.9951 19.768C89.2911 19.768 88.8911 19.896 88.6671 19.976L88.7951 16.808H93.0511V15.48H87.4351L87.1951 21.544C87.4671 21.416 88.2511 21.08 89.4671 21.08C90.9871 21.08 92.1711 21.944 92.1711 23.416C92.1711 24.904 91.0511 25.816 89.5151 25.816C88.4431 25.816 87.5631 25.496 86.9231 25.032V26.44ZM103.349 18.808C100.981 18.808 99.2371 20.584 99.2371 23C99.2371 25.416 100.981 27.192 103.349 27.192C105.733 27.192 107.477 25.416 107.477 23C107.477 20.584 105.733 18.808 103.349 18.808ZM103.349 25.896C101.813 25.896 100.677 24.696 100.677 23C100.677 21.304 101.813 20.104 103.349 20.104C104.901 20.104 106.037 21.304 106.037 23C106.037 24.696 104.901 25.896 103.349 25.896ZM108.554 19V20.216H109.866V24.808C109.866 26.6 111.082 27.192 112.234 27.192C113.018 27.192 113.674 27.016 114.026 26.824V25.528C113.578 25.736 113.018 25.88 112.522 25.88C111.85 25.88 111.338 25.496 111.338 24.36V20.216H113.754V19H111.338V16.6H109.882V19H108.554ZM115.675 27H117.163V23.064C117.163 21.432 118.283 20.184 119.851 20.184C121.179 20.184 121.371 21.176 121.371 22.28V27H122.859V21.976C122.859 19.976 122.091 18.808 120.123 18.808C118.427 18.808 117.451 20.008 117.115 20.728H117.099C117.099 20.6 117.147 20.296 117.147 19.928V15.48H115.675V27ZM128.782 18.808C126.574 18.808 124.862 20.584 124.862 23C124.862 25.48 126.574 27.192 129.102 27.192C130.398 27.192 131.47 26.856 132.094 26.504V25.144C131.422 25.576 130.286 25.896 129.198 25.896C127.518 25.896 126.462 24.904 126.414 23.336V23.32H132.366C132.366 23.16 132.398 22.856 132.398 22.536C132.398 20.568 131.134 18.808 128.782 18.808ZM130.926 22.264H126.43C126.558 21.112 127.39 20.056 128.766 20.056C130.19 20.056 130.942 21.112 130.926 22.264ZM134.485 27H135.973V23.512C135.973 21.96 136.869 20.248 138.421 20.248C138.629 20.248 138.773 20.28 138.837 20.296V18.856C138.773 18.84 138.581 18.808 138.357 18.808C137.205 18.808 136.357 19.576 135.893 20.712H135.877C135.861 20.664 135.909 20.424 135.893 20.12L135.877 19H134.485V27ZM144.195 24.92C144.195 25.672 143.443 25.96 142.611 25.96C141.859 25.96 140.835 25.688 140.051 25.304V26.664C140.691 26.968 141.619 27.192 142.659 27.192C144.387 27.192 145.571 26.392 145.571 24.936C145.571 23.592 144.739 22.968 143.043 22.408C141.955 22.056 141.395 21.752 141.395 21.112C141.395 20.392 142.115 20.072 143.027 20.072C143.747 20.072 144.547 20.328 145.123 20.632V19.288C144.579 19.032 143.731 18.808 142.867 18.808C141.203 18.808 140.003 19.736 140.003 21.064C140.003 22.504 140.995 23.112 142.419 23.576C143.603 23.96 144.195 24.232 144.195 24.92ZM151.94 24.952C151.94 26.568 152.804 27.192 153.988 27.192C154.564 27.192 154.964 27.08 155.06 27.048V25.768C154.964 25.8 154.676 25.864 154.356 25.864C153.7 25.864 153.428 25.512 153.428 24.648V15.48H151.94V24.952ZM156.894 19V27H158.382V19H156.894ZM156.702 16.68C156.702 17.208 157.07 17.576 157.63 17.576C158.174 17.576 158.558 17.208 158.558 16.68C158.558 16.136 158.174 15.768 157.63 15.768C157.07 15.768 156.702 16.136 156.702 16.68ZM168.18 19H166.404L162.788 23.016V15.48H161.3V27H162.772V24.632L164.164 23.128L166.692 27H168.404L165.284 22.296L168.18 19ZM173.079 18.808C170.871 18.808 169.159 20.584 169.159 23C169.159 25.48 170.871 27.192 173.399 27.192C174.695 27.192 175.767 26.856 176.391 26.504V25.144C175.719 25.576 174.583 25.896 173.495 25.896C171.815 25.896 170.759 24.904 170.711 23.336V23.32H176.663C176.663 23.16 176.695 22.856 176.695 22.536C176.695 20.568 175.431 18.808 173.079 18.808ZM175.223 22.264H170.727C170.855 21.112 171.687 20.056 173.063 20.056C174.487 20.056 175.239 21.112 175.223 22.264ZM186.236 15.48H184.748V19.608C184.748 20.024 184.796 20.264 184.796 20.264H184.764C184.332 19.512 183.276 18.808 181.98 18.808C179.9 18.808 178.3 20.488 178.3 23C178.3 25.48 179.9 27.192 182.012 27.192C183.308 27.192 184.428 26.36 184.844 25.464H184.876C184.876 25.464 184.828 25.704 184.828 26.056L184.86 27H186.236V15.48ZM182.22 20.104C183.42 20.104 184.732 21 184.732 23C184.732 25 183.42 25.896 182.22 25.896C180.732 25.896 179.74 24.664 179.74 23C179.74 21.304 180.732 20.104 182.22 20.104ZM191.906 30.568C192.082 30.648 192.514 30.712 192.93 30.712C195.042 30.712 195.938 29.256 197.026 26.632L200.178 19H198.53L197.426 21.896C197.042 22.888 196.466 24.488 196.066 25.4C195.65 24.232 195.17 23.064 194.722 21.896L193.602 19H191.954L195.298 26.904C194.69 28.36 194.05 29.432 192.77 29.432C192.37 29.432 192.082 29.384 191.906 29.336V30.568ZM204.865 18.808C202.497 18.808 200.753 20.584 200.753 23C200.753 25.416 202.497 27.192 204.865 27.192C207.249 27.192 208.993 25.416 208.993 23C208.993 20.584 207.249 18.808 204.865 18.808ZM204.865 25.896C203.329 25.896 202.193 24.696 202.193 23C202.193 21.304 203.329 20.104 204.865 20.104C206.417 20.104 207.553 21.304 207.553 23C207.553 24.696 206.417 25.896 204.865 25.896ZM218.101 27V19H216.613V22.936C216.613 24.568 215.525 25.816 214.005 25.816C212.677 25.816 212.485 24.824 212.485 23.72V19H210.997V24.024C210.997 26.024 211.765 27.192 213.733 27.192C215.381 27.192 216.405 25.992 216.709 25.272H216.741C216.741 25.304 216.677 25.544 216.677 25.88L216.709 27H218.101ZM220.907 27H222.395V23.512C222.395 21.96 223.291 20.248 224.843 20.248C225.051 20.248 225.195 20.28 225.259 20.296V18.856C225.195 18.84 225.003 18.808 224.779 18.808C223.627 18.808 222.779 19.576 222.315 20.712H222.299C222.283 20.664 222.331 20.424 222.315 20.12L222.299 19H220.907V27ZM231.331 30.52H232.819V26.28C232.819 25.864 232.771 25.624 232.771 25.624H232.803C233.235 26.44 234.291 27.192 235.587 27.192C237.667 27.192 239.267 25.512 239.267 23C239.267 20.52 237.667 18.808 235.555 18.808C234.259 18.808 233.139 19.592 232.723 20.424H232.691C232.691 20.424 232.739 20.184 232.739 19.832L232.707 19H231.331V30.52ZM235.347 25.896C234.147 25.896 232.835 25 232.835 23C232.835 21 234.147 20.104 235.347 20.104C236.835 20.104 237.827 21.336 237.827 23C237.827 24.696 236.835 25.896 235.347 25.896ZM245.021 18.808C242.653 18.808 240.909 20.584 240.909 23C240.909 25.416 242.653 27.192 245.021 27.192C247.405 27.192 249.149 25.416 249.149 23C249.149 20.584 247.405 18.808 245.021 18.808ZM245.021 25.896C243.485 25.896 242.349 24.696 242.349 23C242.349 21.304 243.485 20.104 245.021 20.104C246.573 20.104 247.709 21.304 247.709 23C247.709 24.696 246.573 25.896 245.021 25.896ZM254.914 24.92C254.914 25.672 254.161 25.96 253.33 25.96C252.578 25.96 251.554 25.688 250.77 25.304V26.664C251.41 26.968 252.338 27.192 253.378 27.192C255.106 27.192 256.29 26.392 256.29 24.936C256.29 23.592 255.458 22.968 253.762 22.408C252.674 22.056 252.114 21.752 252.114 21.112C252.114 20.392 252.834 20.072 253.746 20.072C254.466 20.072 255.266 20.328 255.842 20.632V19.288C255.298 19.032 254.45 18.808 253.586 18.808C251.922 18.808 250.722 19.736 250.722 21.064C250.722 22.504 251.714 23.112 253.138 23.576C254.322 23.96 254.914 24.232 254.914 24.92ZM257.429 19V20.216H258.741V24.808C258.741 26.6 259.957 27.192 261.109 27.192C261.893 27.192 262.549 27.016 262.901 26.824V25.528C262.453 25.736 261.893 25.88 261.397 25.88C260.725 25.88 260.213 25.496 260.213 24.36V20.216H262.629V19H260.213V16.6H258.757V19H257.429Z" fill="white"/>
<path d="M16.576 40.36V41.164H17.632V49H18.544V40.36H16.576ZM21.0425 44.68C21.0425 47.236 22.2905 49.144 24.2345 49.144C26.1905 49.144 27.4265 47.236 27.4265 44.68C27.4265 42.136 26.1905 40.216 24.2345 40.216C22.2905 40.216 21.0425 42.136 21.0425 44.68ZM21.9665 44.68C21.9665 42.544 22.8545 41.068 24.2345 41.068C25.6145 41.068 26.5025 42.544 26.5025 44.68C26.5025 46.816 25.6145 48.292 24.2345 48.292C22.8545 48.292 21.9665 46.816 21.9665 44.68ZM32.4338 43V49H33.3218V46.156C33.3218 44.956 34.0178 43.684 35.3378 43.684C36.4178 43.684 36.5738 44.524 36.5738 45.412V49H37.4498V46.156C37.4498 44.98 38.0978 43.684 39.4298 43.684C40.4738 43.684 40.7018 44.452 40.7018 45.424V49H41.5778V45.22C41.5778 43.744 41.0258 42.856 39.5138 42.856C38.5538 42.856 37.7138 43.54 37.3538 44.32H37.3418C37.1738 43.372 36.5018 42.856 35.5058 42.856C34.5218 42.856 33.5738 43.54 33.2618 44.392H33.2378C33.2498 44.38 33.2858 44.188 33.2858 43.924L33.2738 43H32.4338ZM43.5867 41.248C43.5867 41.584 43.8147 41.824 44.1747 41.824C44.5107 41.824 44.7627 41.584 44.7627 41.248C44.7627 40.912 44.5107 40.672 44.1747 40.672C43.8147 40.672 43.5867 40.912 43.5867 41.248ZM43.7307 43V49H44.6187V43H43.7307ZM46.9651 43V49H47.8531V46.06C47.8531 44.716 48.7891 43.684 50.0611 43.684C51.1891 43.684 51.3331 44.512 51.3331 45.424V49H52.2091V45.22C52.2091 43.756 51.6931 42.856 50.1811 42.856C48.8251 42.856 48.0091 43.84 47.7931 44.392H47.7691C47.7811 44.38 47.8171 44.188 47.8171 43.924L47.8051 43H46.9651ZM57.3191 44.152C57.6671 43.936 58.4351 43.648 59.2991 43.648C60.2951 43.648 60.9671 44.044 60.9671 45.196V45.568C58.4711 45.22 56.9471 45.952 56.9471 47.44C56.9471 48.472 57.7151 49.144 58.8191 49.144C60.2711 49.144 60.9791 47.836 61.0151 47.728H61.0391C61.0391 47.728 60.9911 47.932 61.0031 48.232V49H61.8311V45.148C61.8311 43.648 61.0391 42.856 59.3951 42.856C58.4471 42.856 57.6551 43.12 57.3191 43.312V44.152ZM58.9511 48.4C58.2671 48.4 57.8351 47.992 57.8351 47.404C57.8351 46.456 58.8911 45.904 60.9431 46.228C60.9431 47.272 60.0911 48.4 58.9511 48.4ZM65.001 47.548C65.001 47.308 65.433 47.092 65.973 47.044H66.021C67.305 47.008 68.253 46.144 68.253 44.968C68.253 44.416 68.013 43.948 67.641 43.624L67.701 43.636C67.701 43.636 67.905 43.684 68.085 43.684H68.961V43H66.801C66.525 42.904 66.201 42.856 65.877 42.856C64.533 42.856 63.501 43.732 63.501 44.968C63.501 45.88 64.065 46.6 64.917 46.912C64.437 47.068 64.125 47.368 64.125 47.704C64.125 48.1 64.473 48.388 65.073 48.46C64.125 48.64 63.369 49.24 63.369 49.96C63.369 51.04 64.449 51.592 66.069 51.592C67.725 51.592 68.865 50.908 68.865 49.792C68.865 48.7 67.965 48.244 66.477 48.088C65.361 47.98 65.001 47.872 65.001 47.548ZM65.877 46.384C64.977 46.384 64.341 45.784 64.341 44.98C64.341 44.176 64.977 43.564 65.877 43.564C66.789 43.564 67.425 44.176 67.425 44.98C67.425 45.784 66.789 46.384 65.877 46.384ZM66.069 50.92C64.989 50.92 64.233 50.56 64.233 49.876C64.233 49.288 64.953 48.772 65.985 48.772C67.485 48.772 67.965 49.264 67.965 49.852C67.965 50.476 67.257 50.92 66.069 50.92ZM72.7788 42.856C71.1468 42.856 69.8748 44.188 69.8748 46C69.8748 47.86 71.1588 49.144 72.9948 49.144C73.9308 49.144 74.7348 48.892 75.2388 48.592V47.752C74.6748 48.124 73.8348 48.352 73.0308 48.352C71.6988 48.352 70.8228 47.488 70.7988 46.18V46.132H75.4428C75.4428 46.024 75.4548 45.844 75.4548 45.652C75.4548 44.176 74.5068 42.856 72.7788 42.856ZM74.5668 45.484H70.8228C70.9308 44.524 71.6268 43.624 72.7668 43.624C73.9548 43.624 74.5788 44.524 74.5668 45.484Z" fill="#999999"/>
<path d="M0 4C0 1.79086 1.79086 0 4 0V0V64V64C1.79086 64 0 62.2091 0 60V4Z" fill="#FFE14D"/>
</svg>
