<svg width="345" height="64" viewBox="0 0 345 64" fill="none" xmlns="http://www.w3.org/2000/svg">
<rect x="0.5" y="0.5" width="344" height="63" rx="3.5" fill="#1A1A1A" stroke="#4D4D4D" stroke-dasharray="3 3"/>
<path fill-rule="evenodd" clip-rule="evenodd" d="M313 32C313 33.1046 312.105 34 311 34C309.895 34 309 33.1046 309 32C309 30.8954 309.895 30 311 30C312.105 30 313 30.8954 313 32ZM321 32C321 33.1046 320.105 34 319 34C317.895 34 317 33.1046 317 32C317 30.8954 317.895 30 319 30C320.105 30 321 30.8954 321 32ZM327 34C328.105 34 329 33.1046 329 32C329 30.8954 328.105 30 327 30C325.895 30 325 30.8954 325 32C325 33.1046 325.895 34 327 34Z" fill="#4D4D4D"/>
<path d="M16.72 26.44C17.376 26.888 18.32 27.192 19.456 27.192C21.84 27.192 23.552 25.8 23.552 23.544C23.552 21.272 21.904 19.768 19.792 19.768C19.088 19.768 18.688 19.896 18.464 19.976L18.592 16.808H22.848V15.48H17.232L16.992 21.544C17.264 21.416 18.048 21.08 19.264 21.08C20.784 21.08 21.968 21.944 21.968 23.416C21.968 24.904 20.848 25.816 19.312 25.816C18.24 25.816 17.36 25.496 16.72 25.032V26.44ZM29.706 19V27H31.194V23.064C31.194 21.432 32.314 20.184 33.882 20.184C35.21 20.184 35.402 21.176 35.402 22.28V27H36.89V21.976C36.89 19.976 36.122 18.808 34.154 18.808C32.458 18.808 31.402 20.008 31.098 20.728H31.066C31.082 20.696 31.13 20.456 31.13 20.12L31.098 19H29.706ZM42.8134 18.808C40.6054 18.808 38.8934 20.584 38.8934 23C38.8934 25.48 40.6054 27.192 43.1334 27.192C44.4294 27.192 45.5014 26.856 46.1254 26.504V25.144C45.4534 25.576 44.3174 25.896 43.2294 25.896C41.5494 25.896 40.4934 24.904 40.4454 23.336V23.32H46.3974C46.3974 23.16 46.4294 22.856 46.4294 22.536C46.4294 20.568 45.1654 18.808 42.8134 18.808ZM44.9574 22.264H40.4614C40.5894 21.112 41.4214 20.056 42.7974 20.056C44.2214 20.056 44.9734 21.112 44.9574 22.264ZM53.7639 19.112H52.9479L50.9159 24.808L48.7399 19H47.1559L50.5159 27.192H51.3319L53.3479 21.736L55.3639 27.192H56.1799L59.5399 19H57.9719L55.7799 24.808L53.7639 19.112ZM64.966 20.776C65.446 20.488 66.47 20.104 67.574 20.104C68.838 20.104 69.67 20.584 69.67 21.976V22.376C66.326 21.912 64.454 22.888 64.454 24.84C64.454 26.312 65.51 27.192 66.982 27.192C68.79 27.192 69.67 25.64 69.766 25.416H69.798C69.798 25.416 69.734 25.672 69.75 26.056L69.766 27H71.142V21.896C71.142 19.896 70.038 18.808 67.782 18.808C66.47 18.808 65.414 19.16 64.966 19.4V20.776ZM67.238 25.992C66.438 25.992 65.926 25.496 65.926 24.792C65.926 23.704 67.03 23 69.638 23.416C69.638 24.664 68.598 25.992 67.238 25.992ZM73.6904 24.952C73.6904 26.568 74.5544 27.192 75.7384 27.192C76.3144 27.192 76.7144 27.08 76.8104 27.048V25.768C76.7144 25.8 76.4264 25.864 76.1064 25.864C75.4504 25.864 75.1784 25.512 75.1784 24.648V15.48H73.6904V24.952ZM81.8915 18.808C79.6835 18.808 77.9715 20.584 77.9715 23C77.9715 25.48 79.6835 27.192 82.2115 27.192C83.5075 27.192 84.5795 26.856 85.2035 26.504V25.144C84.5315 25.576 83.3955 25.896 82.3075 25.896C80.6275 25.896 79.5715 24.904 79.5235 23.336V23.32H85.4755C85.4755 23.16 85.5075 22.856 85.5075 22.536C85.5075 20.568 84.2435 18.808 81.8915 18.808ZM84.0355 22.264H79.5395C79.6675 21.112 80.4995 20.056 81.8755 20.056C83.2995 20.056 84.0515 21.112 84.0355 22.264ZM87.594 27H89.082V23.512C89.082 21.96 89.978 20.248 91.53 20.248C91.738 20.248 91.882 20.28 91.946 20.296V18.856C91.882 18.84 91.69 18.808 91.466 18.808C90.314 18.808 89.466 19.576 89.002 20.712H88.986C88.97 20.664 89.018 20.424 89.002 20.12L88.986 19H87.594V27ZM93.0224 19V20.216H94.3344V24.808C94.3344 26.6 95.5504 27.192 96.7024 27.192C97.4864 27.192 98.1424 27.016 98.4944 26.824V25.528C98.0464 25.736 97.4864 25.88 96.9904 25.88C96.3184 25.88 95.8064 25.496 95.8064 24.36V20.216H98.2224V19H95.8064V16.6H94.3504V19H93.0224ZM103.664 24.92C103.664 25.672 102.911 25.96 102.08 25.96C101.328 25.96 100.304 25.688 99.5195 25.304V26.664C100.16 26.968 101.088 27.192 102.128 27.192C103.856 27.192 105.04 26.392 105.04 24.936C105.04 23.592 104.208 22.968 102.512 22.408C101.424 22.056 100.864 21.752 100.864 21.112C100.864 20.392 101.584 20.072 102.496 20.072C103.216 20.072 104.016 20.328 104.592 20.632V19.288C104.048 19.032 103.2 18.808 102.336 18.808C100.672 18.808 99.4715 19.736 99.4715 21.064C99.4715 22.504 100.464 23.112 101.888 23.576C103.072 23.96 103.664 24.232 103.664 24.92ZM110.449 19V20.216H111.633V27H113.121V20.216H115.201V19H113.073V18.232C113.073 17.16 113.697 16.584 114.721 16.584C115.105 16.584 115.425 16.648 115.553 16.68V15.384C115.425 15.352 115.041 15.288 114.577 15.288C112.769 15.288 111.681 16.408 111.681 18.104V19H110.449ZM116.847 19V27H118.335V19H116.847ZM116.655 16.68C116.655 17.208 117.023 17.576 117.583 17.576C118.127 17.576 118.511 17.208 118.511 16.68C118.511 16.136 118.127 15.768 117.583 15.768C117.023 15.768 116.655 16.136 116.655 16.68ZM121.141 27H122.629V23.512C122.629 21.96 123.525 20.248 125.077 20.248C125.285 20.248 125.429 20.28 125.493 20.296V18.856C125.429 18.84 125.237 18.808 125.013 18.808C123.861 18.808 123.013 19.576 122.549 20.712H122.533C122.517 20.664 122.565 20.424 122.549 20.12L122.533 19H121.141V27ZM130.579 18.808C128.371 18.808 126.659 20.584 126.659 23C126.659 25.48 128.371 27.192 130.899 27.192C132.195 27.192 133.267 26.856 133.891 26.504V25.144C133.219 25.576 132.083 25.896 130.995 25.896C129.315 25.896 128.259 24.904 128.211 23.336V23.32H134.163C134.163 23.16 134.195 22.856 134.195 22.536C134.195 20.568 132.931 18.808 130.579 18.808ZM132.723 22.264H128.227C128.355 21.112 129.187 20.056 130.563 20.056C131.987 20.056 132.739 21.112 132.723 22.264ZM143.736 15.48H142.248V19.608C142.248 20.024 142.296 20.264 142.296 20.264H142.264C141.832 19.512 140.776 18.808 139.48 18.808C137.4 18.808 135.8 20.488 135.8 23C135.8 25.48 137.4 27.192 139.512 27.192C140.808 27.192 141.928 26.36 142.344 25.464H142.376C142.376 25.464 142.328 25.704 142.328 26.056L142.36 27H143.736V15.48ZM139.72 20.104C140.92 20.104 142.232 21 142.232 23C142.232 25 140.92 25.896 139.72 25.896C138.232 25.896 137.24 24.664 137.24 23C137.24 21.304 138.232 20.104 139.72 20.104ZM150.878 15.48V27H152.366V15.48H150.878ZM155.044 20.776C155.524 20.488 156.548 20.104 157.652 20.104C158.916 20.104 159.748 20.584 159.748 21.976V22.376C156.404 21.912 154.532 22.888 154.532 24.84C154.532 26.312 155.588 27.192 157.06 27.192C158.868 27.192 159.748 25.64 159.844 25.416H159.876C159.876 25.416 159.812 25.672 159.828 26.056L159.844 27H161.22V21.896C161.22 19.896 160.116 18.808 157.86 18.808C156.548 18.808 155.492 19.16 155.044 19.4V20.776ZM157.316 25.992C156.516 25.992 156.004 25.496 156.004 24.792C156.004 23.704 157.108 23 159.716 23.416C159.716 24.664 158.676 25.992 157.316 25.992ZM167.367 24.92C167.367 25.672 166.615 25.96 165.783 25.96C165.031 25.96 164.007 25.688 163.223 25.304V26.664C163.863 26.968 164.791 27.192 165.831 27.192C167.559 27.192 168.743 26.392 168.743 24.936C168.743 23.592 167.911 22.968 166.215 22.408C165.127 22.056 164.567 21.752 164.567 21.112C164.567 20.392 165.287 20.072 166.199 20.072C166.919 20.072 167.719 20.328 168.295 20.632V19.288C167.751 19.032 166.903 18.808 166.039 18.808C164.375 18.808 163.175 19.736 163.175 21.064C163.175 22.504 164.167 23.112 165.591 23.576C166.775 23.96 167.367 24.232 167.367 24.92ZM169.882 19V20.216H171.194V24.808C171.194 26.6 172.41 27.192 173.562 27.192C174.346 27.192 175.002 27.016 175.354 26.824V25.528C174.906 25.736 174.346 25.88 173.85 25.88C173.178 25.88 172.666 25.496 172.666 24.36V20.216H175.082V19H172.666V16.6H171.21V19H169.882ZM186.358 19.112H185.542L183.51 24.808L181.334 19H179.75L183.11 27.192H183.926L185.942 21.736L187.958 27.192H188.774L192.134 19H190.566L188.374 24.808L186.358 19.112ZM196.829 18.808C194.621 18.808 192.909 20.584 192.909 23C192.909 25.48 194.621 27.192 197.149 27.192C198.445 27.192 199.517 26.856 200.141 26.504V25.144C199.469 25.576 198.333 25.896 197.245 25.896C195.565 25.896 194.509 24.904 194.461 23.336V23.32H200.413C200.413 23.16 200.445 22.856 200.445 22.536C200.445 20.568 199.181 18.808 196.829 18.808ZM198.973 22.264H194.477C194.605 21.112 195.437 20.056 196.813 20.056C198.237 20.056 198.989 21.112 198.973 22.264ZM205.97 18.808C203.762 18.808 202.05 20.584 202.05 23C202.05 25.48 203.762 27.192 206.29 27.192C207.586 27.192 208.658 26.856 209.282 26.504V25.144C208.61 25.576 207.474 25.896 206.386 25.896C204.706 25.896 203.65 24.904 203.602 23.336V23.32H209.554C209.554 23.16 209.586 22.856 209.586 22.536C209.586 20.568 208.322 18.808 205.97 18.808ZM208.114 22.264H203.618C203.746 21.112 204.578 20.056 205.954 20.056C207.378 20.056 208.13 21.112 208.114 22.264ZM218.664 19H216.888L213.272 23.016V15.48H211.784V27H213.256V24.632L214.648 23.128L217.176 27H218.888L215.768 22.296L218.664 19Z" fill="white"/>
<path d="M16.576 40.36V41.164H17.632V49H18.544V40.36H16.576ZM21.0425 44.68C21.0425 47.236 22.2905 49.144 24.2345 49.144C26.1905 49.144 27.4265 47.236 27.4265 44.68C27.4265 42.136 26.1905 40.216 24.2345 40.216C22.2905 40.216 21.0425 42.136 21.0425 44.68ZM21.9665 44.68C21.9665 42.544 22.8545 41.068 24.2345 41.068C25.6145 41.068 26.5025 42.544 26.5025 44.68C26.5025 46.816 25.6145 48.292 24.2345 48.292C22.8545 48.292 21.9665 46.816 21.9665 44.68ZM32.4338 43V49H33.3218V46.156C33.3218 44.956 34.0178 43.684 35.3378 43.684C36.4178 43.684 36.5738 44.524 36.5738 45.412V49H37.4498V46.156C37.4498 44.98 38.0978 43.684 39.4298 43.684C40.4738 43.684 40.7018 44.452 40.7018 45.424V49H41.5778V45.22C41.5778 43.744 41.0258 42.856 39.5138 42.856C38.5538 42.856 37.7138 43.54 37.3538 44.32H37.3418C37.1738 43.372 36.5018 42.856 35.5058 42.856C34.5218 42.856 33.5738 43.54 33.2618 44.392H33.2378C33.2498 44.38 33.2858 44.188 33.2858 43.924L33.2738 43H32.4338ZM43.5867 41.248C43.5867 41.584 43.8147 41.824 44.1747 41.824C44.5107 41.824 44.7627 41.584 44.7627 41.248C44.7627 40.912 44.5107 40.672 44.1747 40.672C43.8147 40.672 43.5867 40.912 43.5867 41.248ZM43.7307 43V49H44.6187V43H43.7307ZM46.9651 43V49H47.8531V46.06C47.8531 44.716 48.7891 43.684 50.0611 43.684C51.1891 43.684 51.3331 44.512 51.3331 45.424V49H52.2091V45.22C52.2091 43.756 51.6931 42.856 50.1811 42.856C48.8251 42.856 48.0091 43.84 47.7931 44.392H47.7691C47.7811 44.38 47.8171 44.188 47.8171 43.924L47.8051 43H46.9651ZM57.3191 44.152C57.6671 43.936 58.4351 43.648 59.2991 43.648C60.2951 43.648 60.9671 44.044 60.9671 45.196V45.568C58.4711 45.22 56.9471 45.952 56.9471 47.44C56.9471 48.472 57.7151 49.144 58.8191 49.144C60.2711 49.144 60.9791 47.836 61.0151 47.728H61.0391C61.0391 47.728 60.9911 47.932 61.0031 48.232V49H61.8311V45.148C61.8311 43.648 61.0391 42.856 59.3951 42.856C58.4471 42.856 57.6551 43.12 57.3191 43.312V44.152ZM58.9511 48.4C58.2671 48.4 57.8351 47.992 57.8351 47.404C57.8351 46.456 58.8911 45.904 60.9431 46.228C60.9431 47.272 60.0911 48.4 58.9511 48.4ZM65.001 47.548C65.001 47.308 65.433 47.092 65.973 47.044H66.021C67.305 47.008 68.253 46.144 68.253 44.968C68.253 44.416 68.013 43.948 67.641 43.624L67.701 43.636C67.701 43.636 67.905 43.684 68.085 43.684H68.961V43H66.801C66.525 42.904 66.201 42.856 65.877 42.856C64.533 42.856 63.501 43.732 63.501 44.968C63.501 45.88 64.065 46.6 64.917 46.912C64.437 47.068 64.125 47.368 64.125 47.704C64.125 48.1 64.473 48.388 65.073 48.46C64.125 48.64 63.369 49.24 63.369 49.96C63.369 51.04 64.449 51.592 66.069 51.592C67.725 51.592 68.865 50.908 68.865 49.792C68.865 48.7 67.965 48.244 66.477 48.088C65.361 47.98 65.001 47.872 65.001 47.548ZM65.877 46.384C64.977 46.384 64.341 45.784 64.341 44.98C64.341 44.176 64.977 43.564 65.877 43.564C66.789 43.564 67.425 44.176 67.425 44.98C67.425 45.784 66.789 46.384 65.877 46.384ZM66.069 50.92C64.989 50.92 64.233 50.56 64.233 49.876C64.233 49.288 64.953 48.772 65.985 48.772C67.485 48.772 67.965 49.264 67.965 49.852C67.965 50.476 67.257 50.92 66.069 50.92ZM72.7788 42.856C71.1468 42.856 69.8748 44.188 69.8748 46C69.8748 47.86 71.1588 49.144 72.9948 49.144C73.9308 49.144 74.7348 48.892 75.2388 48.592V47.752C74.6748 48.124 73.8348 48.352 73.0308 48.352C71.6988 48.352 70.8228 47.488 70.7988 46.18V46.132H75.4428C75.4428 46.024 75.4548 45.844 75.4548 45.652C75.4548 44.176 74.5068 42.856 72.7788 42.856ZM74.5668 45.484H70.8228C70.9308 44.524 71.6268 43.624 72.7668 43.624C73.9548 43.624 74.5788 44.524 74.5668 45.484Z" fill="#999999"/>
</svg>
