<svg width="345" height="64" viewBox="0 0 345 64" fill="none" xmlns="http://www.w3.org/2000/svg">
<rect width="345" height="64" rx="4" fill="#262626"/>
<path d="M0 4C0 1.79086 1.79086 0 4 0V0V64V64C1.79086 64 0 62.2091 0 60V4Z" fill="#FFE14D"/>
<path fill-rule="evenodd" clip-rule="evenodd" d="M313 32C313 33.1046 312.105 34 311 34C309.895 34 309 33.1046 309 32C309 30.8954 309.895 30 311 30C312.105 30 313 30.8954 313 32ZM321 32C321 33.1046 320.105 34 319 34C317.895 34 317 33.1046 317 32C317 30.8954 317.895 30 319 30C320.105 30 321 30.8954 321 32ZM327 34C328.105 34 329 33.1046 329 32C329 30.8954 328.105 30 327 30C325.895 30 325 30.8954 325 32C325 33.1046 325.895 34 327 34Z" fill="#4D4D4D"/>
<path d="M22.752 23.832L26.208 19.656L26.512 19.288V27H28V15.288H27.984L22.752 21.672L17.536 15.288H17.52V27H19.008V19.288L19.312 19.656L22.752 23.832ZM34.2196 18.808C32.0116 18.808 30.2996 20.584 30.2996 23C30.2996 25.48 32.0116 27.192 34.5396 27.192C35.8356 27.192 36.9076 26.856 37.5316 26.504V25.144C36.8596 25.576 35.7236 25.896 34.6356 25.896C32.9556 25.896 31.8996 24.904 31.8516 23.336V23.32H37.8036C37.8036 23.16 37.8356 22.856 37.8356 22.536C37.8356 20.568 36.5716 18.808 34.2196 18.808ZM36.3636 22.264H31.8676C31.9956 21.112 32.8276 20.056 34.2036 20.056C35.6276 20.056 36.3796 21.112 36.3636 22.264ZM40.0341 19V27H41.5221V23.064C41.5221 21.432 42.6421 20.184 44.2101 20.184C45.5381 20.184 45.7301 21.176 45.7301 22.28V27H47.2181V21.976C47.2181 19.976 46.4501 18.808 44.4821 18.808C42.7861 18.808 41.7301 20.008 41.4261 20.728H41.3941C41.4101 20.696 41.4581 20.456 41.4581 20.12L41.4261 19H40.0341ZM48.7255 19V20.216H50.0375V24.808C50.0375 26.6 51.2535 27.192 52.4055 27.192C53.1895 27.192 53.8455 27.016 54.1975 26.824V25.528C53.7495 25.736 53.1895 25.88 52.6935 25.88C52.0215 25.88 51.5095 25.496 51.5095 24.36V20.216H53.9255V19H51.5095V16.6H50.0535V19H48.7255ZM55.8466 19V27H57.3346V19H55.8466ZM55.6546 16.68C55.6546 17.208 56.0226 17.576 56.5826 17.576C57.1266 17.576 57.5106 17.208 57.5106 16.68C57.5106 16.136 57.1266 15.768 56.5826 15.768C56.0226 15.768 55.6546 16.136 55.6546 16.68ZM63.6929 18.808C61.3249 18.808 59.5809 20.584 59.5809 23C59.5809 25.416 61.3249 27.192 63.6929 27.192C66.0769 27.192 67.8209 25.416 67.8209 23C67.8209 20.584 66.0769 18.808 63.6929 18.808ZM63.6929 25.896C62.1569 25.896 61.0209 24.696 61.0209 23C61.0209 21.304 62.1569 20.104 63.6929 20.104C65.2449 20.104 66.3809 21.304 66.3809 23C66.3809 24.696 65.2449 25.896 63.6929 25.896ZM70.0654 19V27H71.5534V23.064C71.5534 21.432 72.6734 20.184 74.2414 20.184C75.5694 20.184 75.7614 21.176 75.7614 22.28V27H77.2494V21.976C77.2494 19.976 76.4814 18.808 74.5134 18.808C72.8174 18.808 71.7614 20.008 71.4574 20.728H71.4254C71.4414 20.696 71.4894 20.456 71.4894 20.12L71.4574 19H70.0654ZM83.1727 18.808C80.9648 18.808 79.2528 20.584 79.2528 23C79.2528 25.48 80.9648 27.192 83.4928 27.192C84.7888 27.192 85.8608 26.856 86.4848 26.504V25.144C85.8128 25.576 84.6768 25.896 83.5888 25.896C81.9088 25.896 80.8528 24.904 80.8048 23.336V23.32H86.7568C86.7568 23.16 86.7888 22.856 86.7888 22.536C86.7888 20.568 85.5248 18.808 83.1727 18.808ZM85.3168 22.264H80.8207C80.9488 21.112 81.7808 20.056 83.1568 20.056C84.5808 20.056 85.3328 21.112 85.3168 22.264ZM96.3294 15.48H94.8414V19.608C94.8414 20.024 94.8894 20.264 94.8894 20.264H94.8574C94.4254 19.512 93.3694 18.808 92.0734 18.808C89.9934 18.808 88.3934 20.488 88.3934 23C88.3934 25.48 89.9934 27.192 92.1054 27.192C93.4014 27.192 94.5214 26.36 94.9374 25.464H94.9694C94.9694 25.464 94.9214 25.704 94.9214 26.056L94.9534 27H96.3294V15.48ZM92.3134 20.104C93.5134 20.104 94.8254 21 94.8254 23C94.8254 25 93.5134 25.896 92.3134 25.896C90.8254 25.896 89.8334 24.664 89.8334 23C89.8334 21.304 90.8254 20.104 92.3134 20.104ZM103.472 19V27H104.96V19H103.472ZM103.28 16.68C103.28 17.208 103.648 17.576 104.208 17.576C104.752 17.576 105.136 17.208 105.136 16.68C105.136 16.136 104.752 15.768 104.208 15.768C103.648 15.768 103.28 16.136 103.28 16.68ZM107.878 19V27H109.366V23.064C109.366 21.432 110.486 20.184 112.054 20.184C113.382 20.184 113.574 21.176 113.574 22.28V27H115.062V21.976C115.062 19.976 114.294 18.808 112.326 18.808C110.63 18.808 109.574 20.008 109.27 20.728H109.238C109.254 20.696 109.302 20.456 109.302 20.12L109.27 19H107.878ZM121.716 20.776C122.196 20.488 123.22 20.104 124.324 20.104C125.588 20.104 126.42 20.584 126.42 21.976V22.376C123.076 21.912 121.204 22.888 121.204 24.84C121.204 26.312 122.26 27.192 123.732 27.192C125.54 27.192 126.42 25.64 126.516 25.416H126.548C126.548 25.416 126.484 25.672 126.5 26.056L126.516 27H127.892V21.896C127.892 19.896 126.788 18.808 124.532 18.808C123.22 18.808 122.164 19.16 121.716 19.4V20.776ZM123.988 25.992C123.188 25.992 122.676 25.496 122.676 24.792C122.676 23.704 123.78 23 126.388 23.416C126.388 24.664 125.348 25.992 123.988 25.992ZM135.585 23C135.585 21.32 136.721 20.136 138.321 20.136C139.361 20.136 140.145 20.488 140.705 20.84V19.432C140.225 19.176 139.473 18.808 138.241 18.808C135.777 18.808 134.065 20.584 134.065 23C134.065 25.416 135.777 27.192 138.241 27.192C139.489 27.192 140.273 26.808 140.753 26.552V25.16C140.257 25.464 139.425 25.864 138.321 25.864C136.705 25.864 135.585 24.68 135.585 23ZM146.318 18.808C143.95 18.808 142.206 20.584 142.206 23C142.206 25.416 143.95 27.192 146.318 27.192C148.702 27.192 150.446 25.416 150.446 23C150.446 20.584 148.702 18.808 146.318 18.808ZM146.318 25.896C144.782 25.896 143.646 24.696 143.646 23C143.646 21.304 144.782 20.104 146.318 20.104C147.87 20.104 149.006 21.304 149.006 23C149.006 24.696 147.87 25.896 146.318 25.896ZM152.69 19V27H154.178V23.288C154.178 21.752 154.962 20.184 156.642 20.184C157.906 20.184 158.114 21.176 158.114 22.248V27H159.602V23.288C159.602 21.784 160.306 20.184 162.018 20.184C163.234 20.184 163.522 21.112 163.522 22.264V27H165.01V21.976C165.01 19.96 164.194 18.808 162.21 18.808C160.978 18.808 159.922 19.64 159.426 20.632H159.41C159.154 19.464 158.178 18.808 157.01 18.808C155.666 18.808 154.514 19.624 154.082 20.728H154.05C154.066 20.696 154.114 20.456 154.114 20.12L154.082 19H152.69ZM167.659 19V27H169.147V23.288C169.147 21.752 169.931 20.184 171.611 20.184C172.875 20.184 173.083 21.176 173.083 22.248V27H174.571V23.288C174.571 21.784 175.275 20.184 176.987 20.184C178.203 20.184 178.491 21.112 178.491 22.264V27H179.979V21.976C179.979 19.96 179.163 18.808 177.179 18.808C175.947 18.808 174.891 19.64 174.395 20.632H174.379C174.123 19.464 173.147 18.808 171.979 18.808C170.635 18.808 169.483 19.624 169.051 20.728H169.019C169.035 20.696 169.083 20.456 169.083 20.12L169.051 19H167.659ZM185.72 18.808C183.512 18.808 181.8 20.584 181.8 23C181.8 25.48 183.512 27.192 186.04 27.192C187.336 27.192 188.408 26.856 189.032 26.504V25.144C188.36 25.576 187.224 25.896 186.136 25.896C184.456 25.896 183.4 24.904 183.352 23.336V23.32H189.304C189.304 23.16 189.336 22.856 189.336 22.536C189.336 20.568 188.072 18.808 185.72 18.808ZM187.864 22.264H183.368C183.496 21.112 184.328 20.056 185.704 20.056C187.128 20.056 187.88 21.112 187.864 22.264ZM191.534 19V27H193.022V23.064C193.022 21.432 194.142 20.184 195.71 20.184C197.038 20.184 197.23 21.176 197.23 22.28V27H198.718V21.976C198.718 19.976 197.95 18.808 195.982 18.808C194.286 18.808 193.23 20.008 192.926 20.728H192.894C192.91 20.696 192.958 20.456 192.958 20.12L192.926 19H191.534ZM200.226 19V20.216H201.538V24.808C201.538 26.6 202.754 27.192 203.906 27.192C204.69 27.192 205.346 27.016 205.698 26.824V25.528C205.25 25.736 204.69 25.88 204.194 25.88C203.522 25.88 203.01 25.496 203.01 24.36V20.216H205.426V19H203.01V16.6H201.554V19H200.226ZM211.565 27H212.941L212.973 26.056C212.973 25.704 212.925 25.464 212.925 25.464H212.957C213.373 26.36 214.493 27.192 215.789 27.192C217.901 27.192 219.501 25.48 219.501 23C219.501 20.488 217.901 18.808 215.821 18.808C214.525 18.808 213.469 19.512 213.037 20.264H213.005C213.005 20.264 213.053 20.024 213.053 19.608V15.48H211.565V27ZM215.581 20.104C217.069 20.104 218.061 21.304 218.061 23C218.061 24.664 217.069 25.896 215.581 25.896C214.381 25.896 213.069 25 213.069 23C213.069 21 214.381 20.104 215.581 20.104ZM220.265 30.568C220.441 30.648 220.873 30.712 221.289 30.712C223.401 30.712 224.297 29.256 225.385 26.632L228.537 19H226.889L225.785 21.896C225.401 22.888 224.825 24.488 224.425 25.4C224.009 24.232 223.529 23.064 223.081 21.896L221.961 19H220.313L223.657 26.904C223.049 28.36 222.409 29.432 221.129 29.432C220.729 29.432 220.441 29.384 220.265 29.336V30.568ZM237.245 15.48H235.709V24.312C235.709 25.288 235.213 25.816 234.285 25.816C233.757 25.816 233.261 25.672 232.941 25.48V26.872C233.245 27.048 233.805 27.192 234.445 27.192C236.413 27.192 237.245 26.072 237.245 24.04V15.48ZM239.669 20.776C240.149 20.488 241.173 20.104 242.277 20.104C243.541 20.104 244.373 20.584 244.373 21.976V22.376C241.029 21.912 239.157 22.888 239.157 24.84C239.157 26.312 240.213 27.192 241.685 27.192C243.493 27.192 244.373 25.64 244.469 25.416H244.501C244.501 25.416 244.437 25.672 244.453 26.056L244.469 27H245.845V21.896C245.845 19.896 244.741 18.808 242.485 18.808C241.173 18.808 240.117 19.16 239.669 19.4V20.776ZM241.941 25.992C241.141 25.992 240.629 25.496 240.629 24.792C240.629 23.704 241.733 23 244.341 23.416C244.341 24.664 243.301 25.992 241.941 25.992ZM248.472 19V27H249.96V23.064C249.96 21.432 251.08 20.184 252.648 20.184C253.976 20.184 254.168 21.176 254.168 22.28V27H255.656V21.976C255.656 19.976 254.888 18.808 252.92 18.808C251.224 18.808 250.168 20.008 249.864 20.728H249.832C249.848 20.696 249.896 20.456 249.896 20.12L249.864 19H248.472ZM261.579 18.808C259.371 18.808 257.659 20.584 257.659 23C257.659 25.48 259.371 27.192 261.899 27.192C263.195 27.192 264.267 26.856 264.891 26.504V25.144C264.219 25.576 263.083 25.896 261.995 25.896C260.315 25.896 259.259 24.904 259.211 23.336V23.32H265.163C265.163 23.16 265.195 22.856 265.195 22.536C265.195 20.568 263.931 18.808 261.579 18.808ZM263.723 22.264H259.227C259.355 21.112 260.187 20.056 261.563 20.056C262.987 20.056 263.739 21.112 263.723 22.264Z" fill="white"/>
<path d="M16.576 40.36V41.164H17.632V49H18.544V40.36H16.576ZM21.0425 44.68C21.0425 47.236 22.2905 49.144 24.2345 49.144C26.1905 49.144 27.4265 47.236 27.4265 44.68C27.4265 42.136 26.1905 40.216 24.2345 40.216C22.2905 40.216 21.0425 42.136 21.0425 44.68ZM21.9665 44.68C21.9665 42.544 22.8545 41.068 24.2345 41.068C25.6145 41.068 26.5025 42.544 26.5025 44.68C26.5025 46.816 25.6145 48.292 24.2345 48.292C22.8545 48.292 21.9665 46.816 21.9665 44.68ZM32.4338 43V49H33.3218V46.156C33.3218 44.956 34.0178 43.684 35.3378 43.684C36.4178 43.684 36.5738 44.524 36.5738 45.412V49H37.4498V46.156C37.4498 44.98 38.0978 43.684 39.4298 43.684C40.4738 43.684 40.7018 44.452 40.7018 45.424V49H41.5778V45.22C41.5778 43.744 41.0258 42.856 39.5138 42.856C38.5538 42.856 37.7138 43.54 37.3538 44.32H37.3418C37.1738 43.372 36.5018 42.856 35.5058 42.856C34.5218 42.856 33.5738 43.54 33.2618 44.392H33.2378C33.2498 44.38 33.2858 44.188 33.2858 43.924L33.2738 43H32.4338ZM43.5867 41.248C43.5867 41.584 43.8147 41.824 44.1747 41.824C44.5107 41.824 44.7627 41.584 44.7627 41.248C44.7627 40.912 44.5107 40.672 44.1747 40.672C43.8147 40.672 43.5867 40.912 43.5867 41.248ZM43.7307 43V49H44.6187V43H43.7307ZM46.9651 43V49H47.8531V46.06C47.8531 44.716 48.7891 43.684 50.0611 43.684C51.1891 43.684 51.3331 44.512 51.3331 45.424V49H52.2091V45.22C52.2091 43.756 51.6931 42.856 50.1811 42.856C48.8251 42.856 48.0091 43.84 47.7931 44.392H47.7691C47.7811 44.38 47.8171 44.188 47.8171 43.924L47.8051 43H46.9651ZM57.3191 44.152C57.6671 43.936 58.4351 43.648 59.2991 43.648C60.2951 43.648 60.9671 44.044 60.9671 45.196V45.568C58.4711 45.22 56.9471 45.952 56.9471 47.44C56.9471 48.472 57.7151 49.144 58.8191 49.144C60.2711 49.144 60.9791 47.836 61.0151 47.728H61.0391C61.0391 47.728 60.9911 47.932 61.0031 48.232V49H61.8311V45.148C61.8311 43.648 61.0391 42.856 59.3951 42.856C58.4471 42.856 57.6551 43.12 57.3191 43.312V44.152ZM58.9511 48.4C58.2671 48.4 57.8351 47.992 57.8351 47.404C57.8351 46.456 58.8911 45.904 60.9431 46.228C60.9431 47.272 60.0911 48.4 58.9511 48.4ZM65.001 47.548C65.001 47.308 65.433 47.092 65.973 47.044H66.021C67.305 47.008 68.253 46.144 68.253 44.968C68.253 44.416 68.013 43.948 67.641 43.624L67.701 43.636C67.701 43.636 67.905 43.684 68.085 43.684H68.961V43H66.801C66.525 42.904 66.201 42.856 65.877 42.856C64.533 42.856 63.501 43.732 63.501 44.968C63.501 45.88 64.065 46.6 64.917 46.912C64.437 47.068 64.125 47.368 64.125 47.704C64.125 48.1 64.473 48.388 65.073 48.46C64.125 48.64 63.369 49.24 63.369 49.96C63.369 51.04 64.449 51.592 66.069 51.592C67.725 51.592 68.865 50.908 68.865 49.792C68.865 48.7 67.965 48.244 66.477 48.088C65.361 47.98 65.001 47.872 65.001 47.548ZM65.877 46.384C64.977 46.384 64.341 45.784 64.341 44.98C64.341 44.176 64.977 43.564 65.877 43.564C66.789 43.564 67.425 44.176 67.425 44.98C67.425 45.784 66.789 46.384 65.877 46.384ZM66.069 50.92C64.989 50.92 64.233 50.56 64.233 49.876C64.233 49.288 64.953 48.772 65.985 48.772C67.485 48.772 67.965 49.264 67.965 49.852C67.965 50.476 67.257 50.92 66.069 50.92ZM72.7788 42.856C71.1468 42.856 69.8748 44.188 69.8748 46C69.8748 47.86 71.1588 49.144 72.9948 49.144C73.9308 49.144 74.7348 48.892 75.2388 48.592V47.752C74.6748 48.124 73.8348 48.352 73.0308 48.352C71.6988 48.352 70.8228 47.488 70.7988 46.18V46.132H75.4428C75.4428 46.024 75.4548 45.844 75.4548 45.652C75.4548 44.176 74.5068 42.856 72.7788 42.856ZM74.5668 45.484H70.8228C70.9308 44.524 71.6268 43.624 72.7668 43.624C73.9548 43.624 74.5788 44.524 74.5668 45.484Z" fill="#999999"/>
</svg>
