<svg width="842" height="560" viewBox="0 0 842 560" fill="none" xmlns="http://www.w3.org/2000/svg">
<rect width="842" height="560" rx="20" fill="url(#paint0_linear_135_9980)"/>
<rect x="32.5" y="336.5" width="372" height="191" rx="7.5" stroke="#1A1A1A"/>
<circle cx="219" cy="447" r="44" stroke="#333333"/>
<path opacity="0.4" d="M204.572 460L216.2 434.08H200.54V435.556H213.788L202.772 460H204.572ZM220.718 458.596C222.482 459.856 224.57 460.432 226.694 460.432C231.734 460.432 235.478 457.264 235.478 452.332C235.478 447.4 231.662 444.016 226.946 444.016C224.894 444.016 223.742 444.412 223.13 444.664L223.526 435.556H233.714V434.08H222.014L221.474 446.716C222.05 446.428 223.85 445.528 226.874 445.528C230.69 445.528 233.822 448.3 233.822 452.332C233.822 456.364 230.798 458.92 226.694 458.92C224.246 458.92 222.446 458.2 220.718 456.904V458.596Z" fill="white"/>
<path d="M175 447C175 471.301 194.699 491 219 491C243.301 491 263 471.301 263 447C263 422.699 243.301 403 219 403" stroke="#999999" stroke-linecap="round"/>
<circle cx="103" cy="447" r="44" stroke="#333333"/>
<path opacity="0.4" d="M85.728 437.248C87.348 435.988 89.292 435.16 91.56 435.16C95.016 435.16 97.464 437.608 97.464 441.136C97.464 445.816 93.576 450.064 84.54 460H100.308V458.524H87.888C94.692 450.964 99.12 446.392 99.12 441.172C99.12 436.744 95.952 433.648 91.56 433.648C89.436 433.648 87.528 434.332 85.728 435.592V437.248ZM105.527 458.596C107.291 459.856 109.379 460.432 111.503 460.432C116.543 460.432 120.287 457.264 120.287 452.332C120.287 447.4 116.471 444.016 111.755 444.016C109.703 444.016 108.551 444.412 107.939 444.664L108.335 435.556H118.523V434.08H106.823L106.283 446.716C106.859 446.428 108.659 445.528 111.683 445.528C115.499 445.528 118.631 448.3 118.631 452.332C118.631 456.364 115.607 458.92 111.503 458.92C109.055 458.92 107.255 458.2 105.527 456.904V458.596Z" fill="white"/>
<path d="M147 447C147 422.699 127.301 403 103 403" stroke="#999999" stroke-linecap="round"/>
<circle cx="335" cy="447" r="44" stroke="#333333"/>
<path opacity="0.4" d="M315.98 458.596C317.744 459.856 319.832 460.432 321.956 460.432C326.996 460.432 330.74 457.264 330.74 452.332C330.74 447.4 326.924 444.016 322.208 444.016C320.156 444.016 319.004 444.412 318.392 444.664L318.788 435.556H328.976V434.08H317.276L316.736 446.716C317.312 446.428 319.112 445.528 322.136 445.528C325.952 445.528 329.084 448.3 329.084 452.332C329.084 456.364 326.06 458.92 321.956 458.92C319.508 458.92 317.708 458.2 315.98 456.904V458.596ZM335.777 447.04C335.777 454.78 339.377 460.432 344.957 460.432C350.573 460.432 354.137 454.78 354.137 447.04C354.137 439.408 350.573 433.648 344.957 433.648C339.377 433.648 335.777 439.408 335.777 447.04ZM337.433 447.04C337.433 440.092 340.385 435.16 344.957 435.16C349.529 435.16 352.481 440.092 352.481 447.04C352.481 454.06 349.529 458.92 344.957 458.92C340.385 458.92 337.433 454.06 337.433 447.04Z" fill="white"/>
<path d="M335 491C359.301 491 379 471.301 379 447C379 422.699 359.301 403 335 403" stroke="#999999" stroke-linecap="round"/>
<rect x="52" y="356" width="120" height="10" rx="5" fill="#262626"/>
<rect x="203" y="51" width="72" height="10" rx="5" fill="#262626"/>
<rect x="291" y="51" width="88" height="10" rx="5" fill="#262626"/>
<rect x="395" y="51" width="96" height="10" rx="5" fill="#262626"/>
<path d="M70.112 61L74.096 50.328H76.768L80.672 61H78.032L77.216 58.552H73.456L72.64 61H70.112ZM74.016 56.68H76.64L75.344 52.648L74.016 56.68ZM89.6409 57.528L91.2889 59.032C90.9902 59.4373 90.6062 59.8107 90.1369 60.152C89.6782 60.4933 89.1609 60.7653 88.5849 60.968C88.0089 61.1707 87.3902 61.272 86.7289 61.272C85.6515 61.272 84.6969 61.032 83.8649 60.552C83.0435 60.072 82.3982 59.416 81.9289 58.584C81.4702 57.7413 81.2409 56.7813 81.2409 55.704C81.2409 54.9147 81.3742 54.1787 81.6409 53.496C81.9075 52.8027 82.2809 52.2 82.7609 51.688C83.2515 51.176 83.8329 50.776 84.5049 50.488C85.1875 50.2 85.9395 50.056 86.7609 50.056C87.7422 50.056 88.6062 50.2373 89.3529 50.6C90.0995 50.9627 90.7182 51.4853 91.2089 52.168L89.5609 53.752C89.2409 53.304 88.8622 52.9467 88.4249 52.68C87.9875 52.4027 87.4649 52.264 86.8569 52.264C86.2169 52.264 85.6622 52.4187 85.1929 52.728C84.7342 53.0267 84.3769 53.432 84.1209 53.944C83.8755 54.456 83.7529 55.0213 83.7529 55.64C83.7529 56.2693 83.8755 56.8347 84.1209 57.336C84.3769 57.8373 84.7342 58.2373 85.1929 58.536C85.6515 58.824 86.1902 58.968 86.8089 58.968C87.3209 58.968 87.7475 58.8987 88.0889 58.76C88.4302 58.6213 88.7182 58.4453 88.9529 58.232C89.1982 58.008 89.4275 57.7733 89.6409 57.528ZM92.6915 61L93.1875 50.328H95.4755L98.2595 55.336L100.979 50.328H103.283L103.78 61H101.363L101.059 54.024L98.8515 58.184H97.6035L95.2675 54.072L94.9955 61H92.6915ZM106 61V50.328H113.296V52.44H108.416V54.52H112.208V56.568H108.416V58.872H113.648V61H106ZM126.796 57.528L128.444 59.032C128.145 59.4373 127.761 59.8107 127.292 60.152C126.833 60.4933 126.316 60.7653 125.74 60.968C125.164 61.1707 124.545 61.272 123.884 61.272C122.807 61.272 121.852 61.032 121.02 60.552C120.199 60.072 119.553 59.416 119.084 58.584C118.625 57.7413 118.396 56.7813 118.396 55.704C118.396 54.9147 118.529 54.1787 118.796 53.496C119.063 52.8027 119.436 52.2 119.916 51.688C120.407 51.176 120.988 50.776 121.66 50.488C122.343 50.2 123.095 50.056 123.916 50.056C124.897 50.056 125.761 50.2373 126.508 50.6C127.255 50.9627 127.873 51.4853 128.364 52.168L126.716 53.752C126.396 53.304 126.017 52.9467 125.58 52.68C125.143 52.4027 124.62 52.264 124.012 52.264C123.372 52.264 122.817 52.4187 122.348 52.728C121.889 53.0267 121.532 53.432 121.276 53.944C121.031 54.456 120.908 55.0213 120.908 55.64C120.908 56.2693 121.031 56.8347 121.276 57.336C121.532 57.8373 121.889 58.2373 122.348 58.536C122.807 58.824 123.345 58.968 123.964 58.968C124.476 58.968 124.903 58.8987 125.244 58.76C125.585 58.6213 125.873 58.4453 126.108 58.232C126.353 58.008 126.583 57.7733 126.796 57.528ZM134.877 61.272C134.088 61.272 133.357 61.1333 132.685 60.856C132.013 60.568 131.421 60.168 130.909 59.656C130.408 59.144 130.019 58.5467 129.741 57.864C129.464 57.1813 129.325 56.4453 129.325 55.656C129.325 54.856 129.464 54.12 129.741 53.448C130.019 52.7653 130.408 52.168 130.909 51.656C131.411 51.144 131.997 50.7493 132.669 50.472C133.352 50.184 134.088 50.04 134.877 50.04C135.667 50.04 136.397 50.184 137.069 50.472C137.741 50.7493 138.328 51.144 138.829 51.656C139.341 52.168 139.736 52.7653 140.013 53.448C140.291 54.12 140.429 54.856 140.429 55.656C140.429 56.4453 140.291 57.1813 140.013 57.864C139.736 58.5467 139.341 59.144 138.829 59.656C138.328 60.168 137.741 60.568 137.069 60.856C136.397 61.1333 135.667 61.272 134.877 61.272ZM134.877 59C135.507 59 136.045 58.8453 136.493 58.536C136.952 58.2267 137.299 57.816 137.533 57.304C137.779 56.792 137.901 56.232 137.901 55.624C137.901 55.016 137.779 54.4613 137.533 53.96C137.299 53.448 136.952 53.0427 136.493 52.744C136.045 52.4347 135.507 52.28 134.877 52.28C134.248 52.28 133.704 52.4347 133.245 52.744C132.797 53.0427 132.451 53.448 132.205 53.96C131.96 54.4613 131.837 55.016 131.837 55.624C131.837 56.232 131.96 56.792 132.205 57.304C132.451 57.816 132.797 58.2267 133.245 58.536C133.704 58.8453 134.248 59 134.877 59ZM142.421 61V50.328H146.389C147.221 50.328 147.914 50.4827 148.469 50.792C149.023 51.0907 149.439 51.496 149.717 52.008C149.994 52.5093 150.133 53.064 150.133 53.672C150.133 54.3547 149.978 54.9573 149.669 55.48C149.37 56.0027 148.943 56.4187 148.389 56.728L150.757 61H148.101L146.117 57.08H144.773V61H142.421ZM144.773 55.144H146.261C146.709 55.144 147.061 55.0107 147.317 54.744C147.573 54.4773 147.701 54.1413 147.701 53.736C147.701 53.2987 147.567 52.952 147.301 52.696C147.045 52.44 146.698 52.312 146.261 52.312H144.773V55.144ZM152.459 61V50.328H156.347C157.233 50.328 157.947 50.4933 158.491 50.824C159.046 51.144 159.451 51.5653 159.707 52.088C159.963 52.6107 160.091 53.1707 160.091 53.768C160.091 54.5253 159.921 55.1653 159.579 55.688C159.238 56.2 158.79 56.5893 158.235 56.856C157.691 57.112 157.099 57.24 156.459 57.24H154.811V61H152.459ZM154.811 55.288H156.219C156.657 55.288 157.009 55.1493 157.275 54.872C157.542 54.5947 157.675 54.2427 157.675 53.816C157.675 53.368 157.542 53.0053 157.275 52.728C157.009 52.44 156.651 52.296 156.203 52.296H154.811V55.288ZM159.184 61V58.456H161.792V61H159.184Z" fill="white"/>
<path d="M33.0042 63.455L44.1616 46.2899C44.5559 45.6832 45.4441 45.6832 45.8384 46.2899L56.9958 63.455C57.4282 64.1203 56.9508 65 56.1573 65H33.8427C33.0492 65 32.5718 64.1203 33.0042 63.455Z" fill="white"/>
<circle cx="720" cy="56" r="23.5" stroke="#333333"/>
<path d="M717.5 46C713.125 47.125 710 51.125 710 55.875C710 61.5 714.5 66 720.125 66C724.875 66 728.75 62.875 730 58.5C722.375 60.625 715.375 53.625 717.5 46Z" fill="white"/>
<circle cx="654" cy="56" r="23.5" stroke="#333333"/>
<circle cx="652" cy="54" r="6.5" stroke="white" stroke-width="3"/>
<path d="M657 59L662 64" stroke="white" stroke-width="3" stroke-linecap="round"/>
<circle cx="786" cy="56" r="24" fill="white"/>
<g clip-path="url(#clip0_135_9980)">
<path d="M793.371 67.8163C793.353 67.7754 791.634 63.6378 792.429 60.6724L793.901 55.1787C794.459 53.0973 794.167 50.8795 793.089 49.0133C792.012 47.1471 790.237 45.7854 788.156 45.2277C786.074 44.6699 783.857 44.9619 781.99 46.0394C780.124 47.1168 778.762 48.8915 778.205 50.9729L776.733 56.4666C775.938 59.432 772.381 62.1561 772.345 62.1827C772.285 62.2286 772.238 62.2906 772.211 62.3617C772.184 62.4327 772.177 62.51 772.192 62.5847C772.206 62.6593 772.242 62.7284 772.294 62.784C772.346 62.8396 772.412 62.8794 772.486 62.8991L792.891 68.3666C792.964 68.3864 793.042 68.3851 793.115 68.3629C793.187 68.3407 793.253 68.2986 793.303 68.2412C793.352 68.1839 793.385 68.1137 793.397 68.0385C793.409 67.9634 793.4 67.8864 793.371 67.8163V67.8163Z" fill="black"/>
<path d="M779.762 65.6904C779.68 66.3689 779.847 67.0539 780.23 67.6198C780.612 68.1857 781.187 68.5945 781.847 68.7714C782.507 68.9482 783.208 68.8812 783.823 68.5826C784.437 68.284 784.924 67.7738 785.193 67.1456L779.762 65.6904Z" fill="black"/>
</g>
<circle cx="793" cy="47" r="6" fill="#E300BD" stroke="white" stroke-width="2"/>
<defs>
<linearGradient id="paint0_linear_135_9980" x1="421" y1="0" x2="421" y2="560" gradientUnits="userSpaceOnUse">
<stop stop-opacity="0.3"/>
<stop offset="1"/>
</linearGradient>
<clipPath id="clip0_135_9980">
<rect width="26" height="26" fill="white" transform="translate(775.809 41.0781) rotate(15)"/>
</clipPath>
</defs>
</svg>
