<svg width="373" height="416" viewBox="0 0 373 416" fill="none" xmlns="http://www.w3.org/2000/svg">
<rect width="373" height="416" rx="8" fill="#1A1A1A"/>
<rect y="56" width="373" height="1" fill="#262626"/>
<path d="M255.89 31.186L258.816 27.392C258.998 27.126 259.222 26.832 259.362 26.608C259.348 26.93 259.348 27.238 259.348 27.546V34H260.384V23.752H260.37L255.89 29.632L251.41 23.752H251.396V34H252.432V27.546C252.432 27.238 252.432 26.93 252.418 26.608L252.698 27L255.89 31.186ZM262.901 28.344C263.307 28.092 264.203 27.756 265.211 27.756C266.373 27.756 267.157 28.218 267.157 29.562V29.996C264.245 29.59 262.467 30.444 262.467 32.18C262.467 33.384 263.363 34.168 264.651 34.168C266.345 34.168 267.171 32.642 267.213 32.516H267.241C267.241 32.516 267.185 32.754 267.199 33.104V34H268.165V29.506C268.165 27.756 267.241 26.832 265.323 26.832C264.217 26.832 263.293 27.14 262.901 27.364V28.344ZM264.805 33.3C264.007 33.3 263.503 32.824 263.503 32.138C263.503 31.032 264.735 30.388 267.129 30.766C267.129 31.984 266.135 33.3 264.805 33.3ZM270.547 34H271.583V30.92C271.583 29.534 272.311 27.84 273.781 27.84C273.949 27.84 274.089 27.868 274.131 27.882V26.874C274.089 26.86 273.907 26.832 273.711 26.832C272.661 26.832 271.905 27.588 271.527 28.61H271.499C271.499 28.582 271.541 28.358 271.527 28.078V27H270.547V34ZM281.608 27H280.348L276.904 30.724V23.92H275.868V34H276.89V31.9L278.248 30.458L280.614 34H281.818L279.018 29.856L281.608 27ZM287.1 28.344C287.506 28.092 288.402 27.756 289.41 27.756C290.572 27.756 291.356 28.218 291.356 29.562V29.996C288.444 29.59 286.666 30.444 286.666 32.18C286.666 33.384 287.562 34.168 288.85 34.168C290.544 34.168 291.37 32.642 291.412 32.516H291.44C291.44 32.516 291.384 32.754 291.398 33.104V34H292.364V29.506C292.364 27.756 291.44 26.832 289.522 26.832C288.416 26.832 287.492 27.14 287.1 27.364V28.344ZM289.004 33.3C288.206 33.3 287.702 32.824 287.702 32.138C287.702 31.032 288.934 30.388 291.328 30.766C291.328 31.984 290.334 33.3 289.004 33.3ZM294.927 32.292C294.927 33.65 295.613 34.168 296.593 34.168C297.055 34.168 297.349 34.084 297.405 34.07V33.174C297.349 33.188 297.111 33.244 296.817 33.244C296.187 33.244 295.963 32.88 295.963 32.082V23.92H294.927V32.292ZM299.138 32.292C299.138 33.65 299.824 34.168 300.804 34.168C301.266 34.168 301.56 34.084 301.616 34.07V33.174C301.56 33.188 301.322 33.244 301.028 33.244C300.398 33.244 300.174 32.88 300.174 32.082V23.92H299.138V32.292ZM306.801 28.344C307.207 28.092 308.103 27.756 309.111 27.756C310.273 27.756 311.057 28.218 311.057 29.562V29.996C308.145 29.59 306.367 30.444 306.367 32.18C306.367 33.384 307.263 34.168 308.551 34.168C310.245 34.168 311.071 32.642 311.113 32.516H311.141C311.141 32.516 311.085 32.754 311.099 33.104V34H312.065V29.506C312.065 27.756 311.141 26.832 309.223 26.832C308.117 26.832 307.193 27.14 306.801 27.364V28.344ZM308.705 33.3C307.907 33.3 307.403 32.824 307.403 32.138C307.403 31.032 308.635 30.388 311.029 30.766C311.029 31.984 310.035 33.3 308.705 33.3ZM317.752 32.25C317.752 32.978 317.024 33.286 316.198 33.286C315.54 33.286 314.672 33.062 313.958 32.74V33.706C314.546 33.986 315.372 34.168 316.24 34.168C317.682 34.168 318.732 33.51 318.732 32.25C318.732 31.102 317.99 30.556 316.492 30.066C315.442 29.73 314.91 29.422 314.91 28.778C314.91 28.092 315.554 27.728 316.478 27.728C317.094 27.728 317.808 27.938 318.326 28.218V27.252C317.836 27.014 317.094 26.832 316.38 26.832C314.952 26.832 313.916 27.602 313.916 28.764C313.916 29.954 314.84 30.514 316.058 30.906C317.206 31.27 317.752 31.55 317.752 32.25ZM324.36 34H325.396V30.92C325.396 29.534 326.124 27.84 327.594 27.84C327.762 27.84 327.902 27.868 327.944 27.882V26.874C327.902 26.86 327.72 26.832 327.524 26.832C326.474 26.832 325.718 27.588 325.34 28.61H325.312C325.312 28.582 325.354 28.358 325.34 28.078V27H324.36V34ZM332.467 26.832C330.563 26.832 329.079 28.386 329.079 30.5C329.079 32.67 330.577 34.168 332.719 34.168C333.811 34.168 334.749 33.874 335.337 33.524V32.544C334.679 32.978 333.699 33.244 332.761 33.244C331.207 33.244 330.185 32.236 330.157 30.71V30.654H335.575C335.575 30.528 335.589 30.318 335.589 30.094C335.589 28.372 334.483 26.832 332.467 26.832ZM334.553 29.898H330.185C330.311 28.778 331.123 27.728 332.453 27.728C333.839 27.728 334.567 28.778 334.553 29.898ZM337.7 28.344C338.106 28.092 339.002 27.756 340.01 27.756C341.172 27.756 341.956 28.218 341.956 29.562V29.996C339.044 29.59 337.266 30.444 337.266 32.18C337.266 33.384 338.162 34.168 339.45 34.168C341.144 34.168 341.97 32.642 342.012 32.516H342.04C342.04 32.516 341.984 32.754 341.998 33.104V34H342.964V29.506C342.964 27.756 342.04 26.832 340.122 26.832C339.016 26.832 338.092 27.14 337.7 27.364V28.344ZM339.604 33.3C338.806 33.3 338.302 32.824 338.302 32.138C338.302 31.032 339.534 30.388 341.928 30.766C341.928 31.984 340.934 33.3 339.604 33.3ZM351.618 23.92H350.596V27.7C350.596 28.05 350.638 28.274 350.638 28.274H350.61C350.218 27.532 349.252 26.832 348.09 26.832C346.242 26.832 344.856 28.344 344.856 30.5C344.856 32.628 346.242 34.168 348.104 34.168C349.266 34.168 350.274 33.398 350.652 32.586H350.68C350.68 32.586 350.638 32.796 350.638 33.118L350.652 34H351.618V23.92ZM348.216 27.756C349.336 27.756 350.582 28.582 350.582 30.5C350.582 32.418 349.336 33.244 348.216 33.244C346.802 33.244 345.864 32.068 345.864 30.5C345.864 28.904 346.802 27.756 348.216 27.756Z" fill="#4D4D4D"/>
<path d="M31.916 36.216V23.04H30.188V32.004L29.774 31.554L21.728 22.824H21.71V36H23.438V27.036L23.852 27.486L31.898 36.216H31.916ZM39.131 26.784C36.467 26.784 34.505 28.782 34.505 31.5C34.505 34.218 36.467 36.216 39.131 36.216C41.813 36.216 43.775 34.218 43.775 31.5C43.775 28.782 41.813 26.784 39.131 26.784ZM39.131 34.758C37.403 34.758 36.125 33.408 36.125 31.5C36.125 29.592 37.403 28.242 39.131 28.242C40.877 28.242 42.155 29.592 42.155 31.5C42.155 33.408 40.877 34.758 39.131 34.758ZM44.9861 27V28.368H46.4621V33.534C46.4621 35.55 47.8301 36.216 49.1261 36.216C50.0081 36.216 50.7461 36.018 51.1421 35.802V34.344C50.6381 34.578 50.0081 34.74 49.4501 34.74C48.6941 34.74 48.1181 34.308 48.1181 33.03V28.368H50.8361V27H48.1181V24.3H46.4801V27H44.9861ZM52.9974 27V36H54.6714V27H52.9974ZM52.7814 24.39C52.7814 24.984 53.1954 25.398 53.8254 25.398C54.4374 25.398 54.8694 24.984 54.8694 24.39C54.8694 23.778 54.4374 23.364 53.8254 23.364C53.1954 23.364 52.7814 23.778 52.7814 24.39ZM56.8744 27V28.368H58.2064V36H59.8804V28.368H62.2204V27H59.8264V26.136C59.8264 24.93 60.5284 24.282 61.6804 24.282C62.1124 24.282 62.4724 24.354 62.6164 24.39V22.932C62.4724 22.896 62.0404 22.824 61.5184 22.824C59.4844 22.824 58.2604 24.084 58.2604 25.992V27H56.8744ZM64.0716 27V36H65.7456V27H64.0716ZM63.8556 24.39C63.8556 24.984 64.2696 25.398 64.8996 25.398C65.5116 25.398 65.9436 24.984 65.9436 24.39C65.9436 23.778 65.5116 23.364 64.8996 23.364C64.2696 23.364 63.8556 23.778 63.8556 24.39ZM69.8947 31.5C69.8947 29.61 71.1727 28.278 72.9727 28.278C74.1427 28.278 75.0247 28.674 75.6547 29.07V27.486C75.1147 27.198 74.2687 26.784 72.8827 26.784C70.1107 26.784 68.1847 28.782 68.1847 31.5C68.1847 34.218 70.1107 36.216 72.8827 36.216C74.2867 36.216 75.1687 35.784 75.7087 35.496V33.93C75.1507 34.272 74.2147 34.722 72.9727 34.722C71.1547 34.722 69.8947 33.39 69.8947 31.5ZM78.0047 28.998C78.5447 28.674 79.6967 28.242 80.9387 28.242C82.3607 28.242 83.2967 28.782 83.2967 30.348V30.798C79.5347 30.276 77.4287 31.374 77.4287 33.57C77.4287 35.226 78.6167 36.216 80.2727 36.216C82.3067 36.216 83.2967 34.47 83.4047 34.218H83.4407C83.4407 34.218 83.3687 34.506 83.3867 34.938L83.4047 36H84.9527V30.258C84.9527 28.008 83.7107 26.784 81.1727 26.784C79.6967 26.784 78.5087 27.18 78.0047 27.45V28.998ZM80.5607 34.866C79.6607 34.866 79.0847 34.308 79.0847 33.516C79.0847 32.292 80.3267 31.5 83.2607 31.968C83.2607 33.372 82.0907 34.866 80.5607 34.866ZM86.6814 27V28.368H88.1574V33.534C88.1574 35.55 89.5254 36.216 90.8214 36.216C91.7034 36.216 92.4414 36.018 92.8374 35.802V34.344C92.3334 34.578 91.7034 34.74 91.1454 34.74C90.3894 34.74 89.8134 34.308 89.8134 33.03V28.368H92.5314V27H89.8134V24.3H88.1754V27H86.6814ZM94.6927 27V36H96.3667V27H94.6927ZM94.4767 24.39C94.4767 24.984 94.8907 25.398 95.5207 25.398C96.1327 25.398 96.5647 24.984 96.5647 24.39C96.5647 23.778 96.1327 23.364 95.5207 23.364C94.8907 23.364 94.4767 23.778 94.4767 24.39ZM103.52 26.784C100.856 26.784 98.8937 28.782 98.8937 31.5C98.8937 34.218 100.856 36.216 103.52 36.216C106.202 36.216 108.164 34.218 108.164 31.5C108.164 28.782 106.202 26.784 103.52 26.784ZM103.52 34.758C101.792 34.758 100.514 33.408 100.514 31.5C100.514 29.592 101.792 28.242 103.52 28.242C105.266 28.242 106.544 29.592 106.544 31.5C106.544 33.408 105.266 34.758 103.52 34.758ZM110.689 27V36H112.363V31.572C112.363 29.736 113.623 28.332 115.387 28.332C116.881 28.332 117.097 29.448 117.097 30.69V36H118.771V30.348C118.771 28.098 117.907 26.784 115.693 26.784C113.785 26.784 112.597 28.134 112.255 28.944H112.219C112.237 28.908 112.291 28.638 112.291 28.26L112.255 27H110.689ZM125.741 33.66C125.741 34.506 124.895 34.83 123.959 34.83C123.113 34.83 121.961 34.524 121.079 34.092V35.622C121.799 35.964 122.843 36.216 124.013 36.216C125.957 36.216 127.289 35.316 127.289 33.678C127.289 32.166 126.353 31.464 124.445 30.834C123.221 30.438 122.591 30.096 122.591 29.376C122.591 28.566 123.401 28.206 124.427 28.206C125.237 28.206 126.137 28.494 126.785 28.836V27.324C126.173 27.036 125.219 26.784 124.247 26.784C122.375 26.784 121.025 27.828 121.025 29.322C121.025 30.942 122.141 31.626 123.743 32.148C125.075 32.58 125.741 32.886 125.741 33.66Z" fill="white"/>
<circle cx="149" cy="28" r="12" fill="#FFE14D"/>
<path d="M145.624 24.864C146.136 24.48 147 24.128 147.976 24.128C148.984 24.128 149.688 24.56 149.96 25.312C150.088 25.648 150.136 26.048 150.088 26.496C149.896 28.528 147.96 30.608 145.016 34H152.744V32.288H148.664C150.504 30.16 152.216 28.32 152.216 26.096C152.216 23.856 150.664 22.272 148.216 22.272C147.128 22.272 146.2 22.576 145.624 22.976V24.864Z" fill="black"/>
</svg>
