<svg width="115" height="17" viewBox="0 0 115 17" fill="none" xmlns="http://www.w3.org/2000/svg">
<path d="M80.05 13V2.995H81.955L86.8 10.105V2.995H88.645V13H86.785L81.895 5.8V13H80.05ZM90.2334 9.475C90.2334 8.795 90.3934 8.17 90.7134 7.6C91.0334 7.03 91.4734 6.575 92.0334 6.235C92.6034 5.895 93.2634 5.725 94.0134 5.725C94.7634 5.725 95.4184 5.895 95.9784 6.235C96.5484 6.575 96.9934 7.03 97.3134 7.6C97.6334 8.17 97.7934 8.795 97.7934 9.475C97.7934 10.155 97.6334 10.78 97.3134 11.35C96.9934 11.92 96.5484 12.38 95.9784 12.73C95.4184 13.07 94.7634 13.24 94.0134 13.24C93.2634 13.24 92.6034 13.07 92.0334 12.73C91.4734 12.38 91.0334 11.92 90.7134 11.35C90.3934 10.78 90.2334 10.155 90.2334 9.475ZM94.0134 11.71C94.4634 11.71 94.8334 11.595 95.1234 11.365C95.4234 11.135 95.6434 10.85 95.7834 10.51C95.9334 10.16 96.0084 9.815 96.0084 9.475C96.0084 9.135 95.9334 8.795 95.7834 8.455C95.6434 8.115 95.4234 7.83 95.1234 7.6C94.8334 7.37 94.4634 7.255 94.0134 7.255C93.5634 7.255 93.1884 7.37 92.8884 7.6C92.5984 7.83 92.3784 8.115 92.2284 8.455C92.0884 8.795 92.0184 9.135 92.0184 9.475C92.0184 9.815 92.0884 10.16 92.2284 10.51C92.3784 10.85 92.5984 11.135 92.8884 11.365C93.1884 11.595 93.5634 11.71 94.0134 11.71ZM101.103 13L98.118 5.965H100.158L102.048 11.005L103.938 5.965H105.873L102.903 13H101.103ZM106.793 10.24V5.965H108.563V10.225C108.563 10.665 108.683 11.01 108.923 11.26C109.173 11.51 109.493 11.635 109.883 11.635C110.373 11.635 110.778 11.455 111.098 11.095C111.418 10.735 111.578 10.295 111.578 9.775V5.965H113.348V13H111.653L111.608 12.205C111.428 12.405 111.168 12.615 110.828 12.835C110.498 13.045 110.053 13.15 109.493 13.15C108.623 13.15 107.953 12.885 107.483 12.355C107.023 11.825 106.793 11.12 106.793 10.24Z" fill="white"/>
<path d="M5.04941 9.36H3.42441V13H2.17641V3.64H5.04941C6.04607 3.64 6.82607 3.89567 7.38941 4.407C7.95274 4.90967 8.23441 5.60733 8.23441 6.5C8.23441 7.39267 7.95274 8.09467 7.38941 8.606C6.82607 9.10867 6.04607 9.36 5.04941 9.36ZM5.01041 4.693H3.42441V8.307H5.11441C5.69507 8.307 6.14574 8.14667 6.46641 7.826C6.79574 7.50533 6.96041 7.06333 6.96041 6.5C6.96041 5.93667 6.78707 5.49467 6.44041 5.174C6.09374 4.85333 5.61707 4.693 5.01041 4.693ZM12.5366 6.344C13.5073 6.344 14.3089 6.669 14.9416 7.319C15.5743 7.96033 15.8906 8.77067 15.8906 9.75C15.8906 10.7293 15.5743 11.544 14.9416 12.194C14.3089 12.8353 13.5073 13.156 12.5366 13.156C11.5746 13.156 10.7773 12.8353 10.1446 12.194C9.51193 11.544 9.19559 10.7293 9.19559 9.75C9.19559 8.77067 9.51193 7.96033 10.1446 7.319C10.7773 6.669 11.5746 6.344 12.5366 6.344ZM12.5366 12.103C13.1693 12.103 13.6893 11.882 14.0966 11.44C14.5126 10.998 14.7206 10.4347 14.7206 9.75C14.7206 9.06533 14.5126 8.502 14.0966 8.06C13.6893 7.618 13.1693 7.397 12.5366 7.397C11.9126 7.397 11.3926 7.618 10.9766 8.06C10.5693 8.502 10.3656 9.06533 10.3656 9.75C10.3656 10.4347 10.5693 10.998 10.9766 11.44C11.3926 11.882 11.9126 12.103 12.5366 12.103ZM21.8873 6.591L23.5253 11.219L25.3063 6.5H26.5803L23.8503 13.156H23.1873L21.5493 8.723L19.9113 13.156H19.2483L16.5182 6.5H17.8053L19.5733 11.219L21.2243 6.591H21.8873ZM30.3952 6.344C31.3139 6.344 32.0332 6.63867 32.5532 7.228C33.0732 7.80867 33.3332 8.52367 33.3332 9.373C33.3332 9.46833 33.3289 9.58967 33.3202 9.737C33.3116 9.88433 33.3072 9.97533 33.3072 10.01H28.4712V10.023C28.4886 10.6643 28.7009 11.1713 29.1082 11.544C29.5156 11.9167 30.0572 12.103 30.7332 12.103C31.6692 12.103 32.4536 11.8993 33.0862 11.492V12.597C32.4276 12.9697 31.6172 13.156 30.6552 13.156C29.6326 13.156 28.8006 12.8397 28.1592 12.207C27.5266 11.5743 27.2102 10.7553 27.2102 9.75C27.2102 8.77067 27.5136 7.96033 28.1202 7.319C28.7356 6.669 29.4939 6.344 30.3952 6.344ZM32.1372 9.152C32.1459 8.658 31.9942 8.23767 31.6822 7.891C31.3702 7.53567 30.9369 7.358 30.3822 7.358C29.8536 7.358 29.4159 7.53133 29.0692 7.878C28.7312 8.22467 28.5362 8.64933 28.4842 9.152H32.1372ZM35.0285 13V6.5H36.1595L36.1725 7.41C36.1725 7.47933 36.1682 7.553 36.1595 7.631C36.1595 7.709 36.1595 7.76967 36.1595 7.813C36.1595 7.85633 36.1595 7.88233 36.1595 7.891H36.1725C36.5972 6.85967 37.2645 6.344 38.1745 6.344C38.3305 6.344 38.4605 6.357 38.5645 6.383V7.553C38.4605 7.527 38.3479 7.514 38.2265 7.514C37.6285 7.514 37.1475 7.787 36.7835 8.333C36.4195 8.87033 36.2375 9.48133 36.2375 10.166V13H35.0285ZM42.697 6.344C43.6157 6.344 44.335 6.63867 44.855 7.228C45.375 7.80867 45.635 8.52367 45.635 9.373C45.635 9.46833 45.6307 9.58967 45.622 9.737C45.6133 9.88433 45.609 9.97533 45.609 10.01H40.773V10.023C40.7903 10.6643 41.0027 11.1713 41.41 11.544C41.8173 11.9167 42.359 12.103 43.035 12.103C43.971 12.103 44.7553 11.8993 45.388 11.492V12.597C44.7293 12.9697 43.919 13.156 42.957 13.156C41.9343 13.156 41.1023 12.8397 40.461 12.207C39.8283 11.5743 39.512 10.7553 39.512 9.75C39.512 8.77067 39.8153 7.96033 40.422 7.319C41.0373 6.669 41.7957 6.344 42.697 6.344ZM44.439 9.152C44.4477 8.658 44.296 8.23767 43.984 7.891C43.672 7.53567 43.2387 7.358 42.684 7.358C42.1553 7.358 41.7177 7.53133 41.371 7.878C41.033 8.22467 40.838 8.64933 40.786 9.152H44.439ZM53.3868 3.64V13H52.2688L52.2428 12.233L52.2818 11.752H52.2558C52.0738 12.1333 51.7704 12.4627 51.3458 12.74C50.9211 13.0173 50.4574 13.156 49.9548 13.156C49.0881 13.156 48.3688 12.8397 47.7968 12.207C47.2248 11.5657 46.9388 10.7467 46.9388 9.75C46.9388 8.74467 47.2204 7.92567 47.7838 7.293C48.3558 6.66033 49.0708 6.344 49.9288 6.344C50.4314 6.344 50.8864 6.461 51.2938 6.695C51.7011 6.92033 52.0001 7.19767 52.1908 7.527H52.2168C52.1908 7.397 52.1778 7.21933 52.1778 6.994V3.64H53.3868ZM50.1238 7.397C49.5258 7.397 49.0404 7.618 48.6678 8.06C48.2951 8.49333 48.1088 9.05667 48.1088 9.75C48.1088 10.4347 48.2951 10.998 48.6678 11.44C49.0404 11.882 49.5258 12.103 50.1238 12.103C50.6698 12.103 51.1464 11.8993 51.5538 11.492C51.9611 11.0847 52.1648 10.504 52.1648 9.75C52.1648 8.996 51.9611 8.41533 51.5538 8.008C51.1464 7.60067 50.6698 7.397 50.1238 7.397ZM59.1898 13V3.64H60.3988V6.994L60.3598 7.527H60.3858C60.5765 7.19767 60.8755 6.92033 61.2828 6.695C61.6902 6.461 62.1452 6.344 62.6478 6.344C63.5058 6.344 64.2165 6.66033 64.7798 7.293C65.3518 7.92567 65.6378 8.74467 65.6378 9.75C65.6378 10.7467 65.3518 11.5657 64.7798 12.207C64.2078 12.8397 63.4885 13.156 62.6218 13.156C62.1192 13.156 61.6555 13.0173 61.2308 12.74C60.8062 12.4627 60.5028 12.1333 60.3208 11.752H60.2948C60.3208 11.882 60.3338 12.0423 60.3338 12.233L60.3078 13H59.1898ZM62.4528 7.397C61.9068 7.397 61.4302 7.60067 61.0228 8.008C60.6155 8.41533 60.4118 8.996 60.4118 9.75C60.4118 10.504 60.6155 11.0847 61.0228 11.492C61.4302 11.8993 61.9068 12.103 62.4528 12.103C63.0508 12.103 63.5362 11.882 63.9088 11.44C64.2815 10.998 64.4678 10.4347 64.4678 9.75C64.4678 9.05667 64.2815 8.49333 63.9088 8.06C63.5362 7.618 63.0508 7.397 62.4528 7.397ZM66.2585 15.899V14.898C66.4492 14.95 66.6832 14.976 66.9605 14.976C67.4372 14.976 67.8272 14.8027 68.1305 14.456C68.4338 14.118 68.7285 13.6067 69.0145 12.922L66.2975 6.5H67.6365L68.5465 8.853C68.6245 9.061 68.7372 9.36 68.8845 9.75C69.0405 10.14 69.1792 10.4953 69.3005 10.816C69.4218 11.128 69.5345 11.4227 69.6385 11.7C69.6558 11.6653 70.0242 10.7163 70.7435 8.853L71.6405 6.5H72.9795L70.4185 12.701C70.1758 13.2903 69.9548 13.767 69.7555 14.131C69.5648 14.495 69.3395 14.833 69.0795 15.145C68.8195 15.457 68.5248 15.678 68.1955 15.808C67.8748 15.9467 67.5065 16.016 67.0905 16.016C66.7092 16.016 66.4318 15.977 66.2585 15.899Z" fill="#4D4D4D"/>
</svg>
