<svg width="107" height="17" viewBox="0 0 107 17" fill="none" xmlns="http://www.w3.org/2000/svg">
<path d="M72.05 13V2.995H73.955L78.8 10.105V2.995H80.645V13H78.785L73.895 5.8V13H72.05ZM82.2334 9.475C82.2334 8.795 82.3934 8.17 82.7134 7.6C83.0334 7.03 83.4734 6.575 84.0334 6.235C84.6034 5.895 85.2634 5.725 86.0134 5.725C86.7634 5.725 87.4184 5.895 87.9784 6.235C88.5484 6.575 88.9934 7.03 89.3134 7.6C89.6334 8.17 89.7934 8.795 89.7934 9.475C89.7934 10.155 89.6334 10.78 89.3134 11.35C88.9934 11.92 88.5484 12.38 87.9784 12.73C87.4184 13.07 86.7634 13.24 86.0134 13.24C85.2634 13.24 84.6034 13.07 84.0334 12.73C83.4734 12.38 83.0334 11.92 82.7134 11.35C82.3934 10.78 82.2334 10.155 82.2334 9.475ZM86.0134 11.71C86.4634 11.71 86.8334 11.595 87.1234 11.365C87.4234 11.135 87.6434 10.85 87.7834 10.51C87.9334 10.16 88.0084 9.815 88.0084 9.475C88.0084 9.135 87.9334 8.795 87.7834 8.455C87.6434 8.115 87.4234 7.83 87.1234 7.6C86.8334 7.37 86.4634 7.255 86.0134 7.255C85.5634 7.255 85.1884 7.37 84.8884 7.6C84.5984 7.83 84.3784 8.115 84.2284 8.455C84.0884 8.795 84.0184 9.135 84.0184 9.475C84.0184 9.815 84.0884 10.16 84.2284 10.51C84.3784 10.85 84.5984 11.135 84.8884 11.365C85.1884 11.595 85.5634 11.71 86.0134 11.71ZM93.103 13L90.118 5.965H92.158L94.048 11.005L95.938 5.965H97.873L94.903 13H93.103ZM98.7931 10.24V5.965H100.563V10.225C100.563 10.665 100.683 11.01 100.923 11.26C101.173 11.51 101.493 11.635 101.883 11.635C102.373 11.635 102.778 11.455 103.098 11.095C103.418 10.735 103.578 10.295 103.578 9.775V5.965H105.348V13H103.653L103.608 12.205C103.428 12.405 103.168 12.615 102.828 12.835C102.498 13.045 102.053 13.15 101.493 13.15C100.623 13.15 99.9531 12.885 99.4831 12.355C99.0231 11.825 98.7931 11.12 98.7931 10.24Z" fill="white"/>
<path d="M4.47616 9.36C6.46516 9.36 7.66116 8.294 7.66116 6.5C7.66116 4.706 6.46516 3.64 4.47616 3.64H1.60316V13H2.85116V9.36H4.47616ZM4.43716 4.693C5.65916 4.693 6.38716 5.369 6.38716 6.5C6.38716 7.631 5.69816 8.307 4.54116 8.307H2.85116V4.693H4.43716ZM11.9634 6.344C10.0394 6.344 8.62235 7.787 8.62235 9.75C8.62235 11.713 10.0394 13.156 11.9634 13.156C13.9004 13.156 15.3174 11.713 15.3174 9.75C15.3174 7.787 13.9004 6.344 11.9634 6.344ZM11.9634 12.103C10.7154 12.103 9.79235 11.128 9.79235 9.75C9.79235 8.372 10.7154 7.397 11.9634 7.397C13.2244 7.397 14.1474 8.372 14.1474 9.75C14.1474 11.128 13.2244 12.103 11.9634 12.103ZM21.314 6.591H20.651L19 11.219L17.232 6.5H15.945L18.675 13.156H19.338L20.976 8.723L22.614 13.156H23.277L26.007 6.5H24.733L22.952 11.219L21.314 6.591ZM29.822 6.344C28.028 6.344 26.637 7.787 26.637 9.75C26.637 11.765 28.028 13.156 30.082 13.156C31.135 13.156 32.006 12.883 32.513 12.597V11.492C31.967 11.843 31.044 12.103 30.16 12.103C28.795 12.103 27.937 11.297 27.898 10.023V10.01H32.734C32.734 9.88 32.76 9.633 32.76 9.373C32.76 7.774 31.733 6.344 29.822 6.344ZM31.564 9.152H27.911C28.015 8.216 28.691 7.358 29.809 7.358C30.966 7.358 31.577 8.216 31.564 9.152ZM34.4553 13H35.6643V10.166C35.6643 8.905 36.3923 7.514 37.6533 7.514C37.8223 7.514 37.9393 7.54 37.9913 7.553V6.383C37.9393 6.37 37.7833 6.344 37.6013 6.344C36.6653 6.344 35.9763 6.968 35.5993 7.891H35.5863C35.5733 7.852 35.6123 7.657 35.5993 7.41L35.5863 6.5H34.4553V13ZM45.3868 3.64H44.1778V6.994C44.1778 7.332 44.2168 7.527 44.2168 7.527H44.1908C43.8398 6.916 42.9818 6.344 41.9288 6.344C40.2388 6.344 38.9388 7.709 38.9388 9.75C38.9388 11.765 40.2388 13.156 41.9548 13.156C43.0078 13.156 43.9178 12.48 44.2558 11.752H44.2818C44.2818 11.752 44.2428 11.947 44.2428 12.233L44.2688 13H45.3868V3.64ZM42.1238 7.397C43.0988 7.397 44.1648 8.125 44.1648 9.75C44.1648 11.375 43.0988 12.103 42.1238 12.103C40.9148 12.103 40.1088 11.102 40.1088 9.75C40.1088 8.372 40.9148 7.397 42.1238 7.397ZM51.1898 13H52.3078L52.3338 12.233C52.3338 11.947 52.2948 11.752 52.2948 11.752H52.3208C52.6588 12.48 53.5688 13.156 54.6218 13.156C56.3378 13.156 57.6378 11.765 57.6378 9.75C57.6378 7.709 56.3378 6.344 54.6478 6.344C53.5948 6.344 52.7368 6.916 52.3858 7.527H52.3598C52.3598 7.527 52.3988 7.332 52.3988 6.994V3.64H51.1898V13ZM54.4528 7.397C55.6618 7.397 56.4678 8.372 56.4678 9.75C56.4678 11.102 55.6618 12.103 54.4528 12.103C53.4778 12.103 52.4118 11.375 52.4118 9.75C52.4118 8.125 53.4778 7.397 54.4528 7.397ZM58.2585 15.899C58.4015 15.964 58.7525 16.016 59.0905 16.016C60.8065 16.016 61.5345 14.833 62.4185 12.701L64.9795 6.5H63.6405L62.7435 8.853C62.4315 9.659 61.9635 10.959 61.6385 11.7C61.3005 10.751 60.9105 9.802 60.5465 8.853L59.6365 6.5H58.2975L61.0145 12.922C60.5205 14.105 60.0005 14.976 58.9605 14.976C58.6355 14.976 58.4015 14.937 58.2585 14.898V15.899Z" fill="#4D4D4D"/>
</svg>
