<svg width="84" height="26" viewBox="0 0 84 26" fill="none" xmlns="http://www.w3.org/2000/svg">
<g clip-path="url(#clip0_14628_15105)">
<mask id="mask0_14628_15105" style="mask-type:luminance" maskUnits="userSpaceOnUse" x="0" y="1" width="84" height="24">
<path d="M83.0234 1.625H0.960938V24.375H83.0234V1.625Z" fill="white"/>
</mask>
<g mask="url(#mask0_14628_15105)">
<path fill-rule="evenodd" clip-rule="evenodd" d="M23.5884 9.49786C23.5884 9.98092 23.1973 10.3738 22.7165 10.3738C22.2357 10.3738 21.8446 9.98092 21.845 9.49786V6.45065C21.845 4.75595 20.4722 3.37724 18.7852 3.37724H5.76459C4.07718 3.37724 2.70477 4.75595 2.70477 6.45065V12.1144H8.40769C8.75984 12.1144 9.0753 12.3252 9.21164 12.6512L10.6024 15.9749L12.9079 7.05778C13.0019 6.6941 13.3156 6.43133 13.6887 6.40428C14.0649 6.37981 14.4115 6.59449 14.5555 6.93885L16.7212 12.1149H22.7169C23.1977 12.1149 23.5888 12.5078 23.5888 12.9907V19.5309C23.5888 22.1912 21.4338 24.3561 18.7852 24.3561H5.76459C3.11593 24.3561 0.960938 22.1917 0.960938 19.5309V16.4961C0.960938 16.0131 1.35202 15.6202 1.83285 15.6202C2.31369 15.6202 2.70477 16.0131 2.70477 16.4961V19.5309C2.70477 21.226 4.07761 22.6047 5.76459 22.6047H18.7852C20.4726 22.6047 21.845 21.2256 21.845 19.5309V13.8662H16.1421C15.7899 13.8662 15.4745 13.6554 15.3381 13.33L13.9469 10.0054L11.6414 18.9229C11.5474 19.287 11.2333 19.5498 10.8601 19.5764C10.4887 19.6082 10.1408 19.3939 9.99384 19.0422L7.82812 13.8662H1.83285C1.35202 13.8662 0.960938 13.4738 0.960938 12.9907V6.45065C0.960938 3.78987 3.11593 1.625 5.76459 1.625H18.7852C21.4338 1.625 23.5884 3.78987 23.5884 6.45065V9.49786ZM55.4234 7.02181C55.4234 7.44424 55.3267 7.78404 55.1335 8.04123C54.9402 8.29673 54.6807 8.42447 54.3552 8.42447C54.0076 8.42447 53.7389 8.30099 53.549 8.05401L53.5261 8.37338H53.0938V4.449H53.5643V5.91298C53.7542 5.67622 54.0161 5.55784 54.3502 5.55784C54.6841 5.55784 54.9461 5.68474 55.136 5.93853C55.3276 6.19232 55.4234 6.53979 55.4234 6.98094V7.02181ZM54.9529 6.96816C54.9529 6.64624 54.891 6.39756 54.7672 6.22212C54.6434 6.04669 54.4654 5.95896 54.2332 5.95896C53.9228 5.95896 53.6999 6.10374 53.5643 6.39331V7.58901C53.7084 7.87857 53.933 8.02335 54.2382 8.02335C54.4637 8.02335 54.6392 7.93563 54.7647 7.7602C54.8901 7.58475 54.9529 7.32074 54.9529 6.96816ZM56.8884 7.68099L57.5292 5.60894H58.0328L56.9265 8.80005C56.7552 9.25994 56.4831 9.48987 56.1101 9.48987L56.0211 9.48221L55.8456 9.449V9.06576L55.9728 9.07598C56.1321 9.07598 56.2559 9.04362 56.3441 8.9789C56.4339 8.91417 56.5077 8.79579 56.5653 8.62376L56.6696 8.34272L55.6879 5.60894H56.2016L56.8884 7.68099ZM59.7673 8.37338V4.65339H60.861C61.1882 4.65339 61.4781 4.72663 61.7307 4.87312C61.985 5.0196 62.1818 5.2274 62.3207 5.49653C62.4598 5.76564 62.5293 6.07394 62.5293 6.42141V6.60792C62.5293 6.9605 62.459 7.27049 62.3182 7.53791C62.1792 7.80533 61.98 8.01143 61.7205 8.1562C61.4628 8.30099 61.167 8.37338 60.833 8.37338H59.7673ZM60.4108 5.17461V7.85728H60.8304C61.1678 7.85728 61.4264 7.75168 61.6061 7.54047C61.7875 7.32756 61.88 7.02267 61.8834 6.6258V6.41886C61.8834 6.01517 61.796 5.70688 61.6213 5.49397C61.4467 5.28106 61.1933 5.17461 60.861 5.17461H60.4108ZM62.9948 6.96561C62.9948 6.69478 63.0481 6.45121 63.155 6.2349C63.2618 6.01688 63.4118 5.84995 63.6052 5.73413C63.7984 5.61661 64.0206 5.55784 64.2715 5.55784C64.6428 5.55784 64.9438 5.67793 65.1743 5.91809C65.4066 6.15825 65.5321 6.47676 65.5508 6.87363L65.5533 7.01927C65.5533 7.29179 65.5007 7.53536 65.3956 7.74997C65.2922 7.96459 65.143 8.13066 64.948 8.24818C64.7547 8.36571 64.5309 8.42447 64.2765 8.42447C63.8883 8.42447 63.5772 8.29502 63.3431 8.03612C63.1109 7.77552 62.9948 7.4289 62.9948 6.99627V6.96561ZM63.6128 7.01927C63.6128 7.30371 63.6713 7.52684 63.7882 7.68865C63.9052 7.84876 64.068 7.92882 64.2765 7.92882C64.4851 7.92882 64.647 7.84706 64.7623 7.68354C64.8793 7.52003 64.9378 7.28072 64.9378 6.96561C64.9378 6.68627 64.8777 6.46484 64.7573 6.30133C64.6386 6.13781 64.4767 6.05605 64.2715 6.05605C64.0697 6.05605 63.9095 6.13696 63.7908 6.29877C63.6721 6.45888 63.6128 6.69904 63.6128 7.01927ZM67.2064 7.92882C67.3607 7.92882 67.4887 7.88368 67.5904 7.79341C67.6922 7.70313 67.7464 7.59156 67.7532 7.45871H68.3357C68.3289 7.63074 68.2754 7.7917 68.1754 7.9416C68.0754 8.08978 67.9397 8.20731 67.7684 8.29418C67.5972 8.38104 67.4125 8.42447 67.2141 8.42447C66.8292 8.42447 66.524 8.29928 66.2985 8.0489C66.0729 7.79851 65.9602 7.45275 65.9602 7.0116V6.94772C65.9602 6.52701 66.0721 6.19061 66.2959 5.93853C66.5197 5.68474 66.8249 5.55784 67.2115 5.55784C67.5387 5.55784 67.8049 5.65408 68.0101 5.84655C68.2169 6.03732 68.3255 6.28855 68.3357 6.60026H67.7532C67.7464 6.44185 67.6922 6.31154 67.5904 6.20935C67.4904 6.10715 67.3624 6.05605 67.2064 6.05605C67.0063 6.05605 66.852 6.12929 66.7436 6.27578C66.635 6.42055 66.5799 6.64113 66.5782 6.9375V7.03715C66.5782 7.33692 66.6316 7.5609 66.7384 7.70909C66.847 7.85558 67.0029 7.92882 67.2064 7.92882ZM69.5768 4.937V5.60894H70.0625V6.06883H69.5768V7.61201C69.5768 7.71761 69.5971 7.79426 69.6378 7.84195C69.6802 7.88794 69.7548 7.91094 69.8616 7.91094C69.9328 7.91094 70.0048 7.90242 70.0778 7.88538V8.36571C69.9371 8.40488 69.8014 8.42447 69.6709 8.42447C69.1961 8.42447 68.9587 8.16132 68.9587 7.635V6.06883H68.506V5.60894H68.9587V4.937H69.5768ZM70.3448 6.96561C70.3448 6.69478 70.3982 6.45121 70.505 6.2349C70.6118 6.01688 70.7619 5.84995 70.9552 5.73413C71.1485 5.61661 71.3706 5.55784 71.6216 5.55784C71.9929 5.55784 72.2939 5.67793 72.5244 5.91809C72.7567 6.15825 72.8822 6.47676 72.9008 6.87363L72.9033 7.01927C72.9033 7.29179 72.8508 7.53536 72.7457 7.74997C72.6422 7.96459 72.4931 8.13066 72.2981 8.24818C72.1048 8.36571 71.8809 8.42447 71.6266 8.42447C71.2384 8.42447 70.9272 8.29502 70.6933 8.03612C70.4609 7.77552 70.3448 7.4289 70.3448 6.99627V6.96561ZM70.9629 7.01927C70.9629 7.30371 71.0214 7.52684 71.1384 7.68865C71.2553 7.84876 71.4181 7.92882 71.6266 7.92882C71.8352 7.92882 71.9971 7.84706 72.1124 7.68354C72.2294 7.52003 72.2879 7.28072 72.2879 6.96561C72.2879 6.68627 72.2277 6.46484 72.1073 6.30133C71.9887 6.13781 71.8267 6.05605 71.6216 6.05605C71.4198 6.05605 71.2596 6.13696 71.1409 6.29877C71.0222 6.45888 70.9629 6.69904 70.9629 7.01927ZM74.8668 6.17614C74.7854 6.16251 74.7015 6.1557 74.615 6.1557C74.3319 6.1557 74.1411 6.26471 74.0427 6.48273V8.37338H73.4247V5.60894H74.0148L74.0301 5.91809C74.1792 5.67793 74.3861 5.55784 74.6506 5.55784C74.7387 5.55784 74.8117 5.56976 74.8693 5.59361L74.8668 6.17614ZM76.825 8.37338C76.7978 8.32057 76.7744 8.23456 76.754 8.11533C76.557 8.32142 76.3164 8.42447 76.0316 8.42447C75.7553 8.42447 75.5297 8.34527 75.3551 8.18686C75.1804 8.02846 75.0932 7.83259 75.0932 7.59923C75.0932 7.30457 75.2016 7.07888 75.4187 6.92218C75.6374 6.76377 75.9493 6.68457 76.3546 6.68457H76.7337V6.50317C76.7337 6.36009 76.6936 6.24597 76.6144 6.1608C76.5344 6.07394 76.4131 6.03051 76.2503 6.03051C76.1096 6.03051 75.9943 6.06628 75.9044 6.13781C75.8146 6.20764 75.7697 6.29707 75.7697 6.40608H75.1517C75.1517 6.25449 75.2016 6.11311 75.3017 5.98196C75.4017 5.8491 75.5373 5.74521 75.7086 5.67026C75.8815 5.59531 76.074 5.55784 76.2859 5.55784C76.6083 5.55784 76.865 5.6396 77.0567 5.80311C77.2485 5.96492 77.3466 6.19317 77.3519 6.48783V7.73464C77.3519 7.98332 77.3866 8.18175 77.4561 8.32994V8.37338H76.825ZM76.1461 7.92626C76.2681 7.92626 76.3826 7.89645 76.4891 7.83684C76.5978 7.77723 76.6793 7.69717 76.7337 7.59668V7.07547H76.4004C76.1715 7.07547 75.9994 7.1155 75.8841 7.19556C75.7688 7.27561 75.7112 7.38888 75.7112 7.53536C75.7112 7.65459 75.7501 7.74997 75.8281 7.82151C75.9078 7.89135 76.0138 7.92626 76.1461 7.92626ZM78.6563 8.37338H78.0381V4.449H78.6563V8.37338ZM79.9887 8.37338H79.3712V5.60894H79.9887V8.37338ZM79.3327 4.891C79.3327 4.79562 79.3621 4.71642 79.4218 4.65339C79.4829 4.59038 79.569 4.55886 79.6814 4.55886C79.7932 4.55886 79.8792 4.59038 79.9404 4.65339C80.0015 4.71642 80.0325 4.79562 80.0325 4.891C80.0325 4.98469 80.0015 5.06304 79.9404 5.12606C79.8792 5.18738 79.7932 5.21803 79.6814 5.21803C79.569 5.21803 79.4829 5.18738 79.4218 5.12606C79.3621 5.06304 79.3327 4.98469 79.3327 4.891ZM82.3084 8.37338C82.2812 8.32057 82.2578 8.23456 82.2374 8.11533C82.0404 8.32142 81.7996 8.42447 81.515 8.42447C81.2387 8.42447 81.013 8.34527 80.8387 8.18686C80.6635 8.02846 80.5767 7.83259 80.5767 7.59923C80.5767 7.30457 80.6847 7.07888 80.9021 6.92218C81.121 6.76377 81.4327 6.68457 81.8381 6.68457H82.2171V6.50317C82.2171 6.36009 82.1771 6.24597 82.097 6.1608C82.0178 6.07394 81.8962 6.03051 81.7339 6.03051C81.5928 6.03051 81.4773 6.06628 81.3875 6.13781C81.2976 6.20764 81.2531 6.29707 81.2531 6.40608H80.6348C80.6348 6.25449 80.6847 6.11311 80.7851 5.98196C80.8847 5.8491 81.0206 5.74521 81.1919 5.67026C81.3648 5.59531 81.5573 5.55784 81.7694 5.55784C82.0918 5.55784 82.3484 5.6396 82.5402 5.80311C82.7311 5.96492 82.83 6.19317 82.8346 6.48783V7.73464C82.8346 7.98332 82.8693 8.18175 82.9395 8.32994V8.37338H82.3084ZM81.629 7.92626C81.7513 7.92626 81.8661 7.89645 81.9725 7.83684C82.0812 7.77723 82.1627 7.69717 82.2171 7.59668V7.07547H81.8834C81.6547 7.07547 81.4826 7.1155 81.3671 7.19556C81.2523 7.27561 81.1942 7.38888 81.1942 7.53536C81.1942 7.65459 81.2335 7.74997 81.3112 7.82151C81.3912 7.89135 81.4969 7.92626 81.629 7.92626ZM33.8552 7.0578L33.7299 7.75853C33.6941 7.95604 33.6227 8.11791 33.4615 8.04577C33.0324 7.90194 32.5319 7.79416 32.1921 7.79416C31.2086 7.79416 30.7971 8.24328 30.7971 9.59064V10.956H32.943C33.1217 10.956 33.2115 11.0457 33.2115 11.2257V12.0341C33.2115 12.2136 33.1222 12.3034 32.943 12.3034H30.7971V19.6147C30.7971 19.7941 30.7077 19.8839 30.5291 19.8839H29.4738C29.2951 19.8839 29.2058 19.7941 29.2058 19.6147V12.3034H28.2758C28.0971 12.3034 28.0078 12.2136 28.0078 12.0341V11.3515L29.2058 11.0462V9.30384C29.2058 7.54341 30.082 6.4116 31.781 6.4116C32.3533 6.4116 32.9255 6.53741 33.6051 6.78902C33.7299 6.84226 33.8906 6.91439 33.8552 7.0578ZM42.5149 14.782V14.8001C42.5149 15.5545 42.229 16.0216 41.299 16.0216L35.9346 16.0577C36.0774 18.0517 37.2219 18.6983 38.9389 18.6627C40.0476 18.6266 41.013 18.0877 41.5674 17.6567C41.7106 17.5489 41.8358 17.6567 41.9431 17.8365L42.3184 18.4832C42.3897 18.627 42.3004 18.7348 42.1572 18.8245C41.5849 19.2737 40.4228 20.0641 38.6165 20.0641C36.6496 20.0641 34.2891 18.9683 34.2891 15.4295C34.2891 12.3218 35.9342 10.7769 38.4554 10.7769C41.6922 10.7765 42.5149 13.2015 42.5149 14.782ZM40.9233 14.782C40.816 13.0577 40.1903 12.1951 38.402 12.1951C36.8996 12.1951 36.0774 12.9315 35.9342 14.782H40.9233ZM51.7728 14.782V14.8001C51.7728 15.5545 51.4868 16.0216 50.5568 16.0216L45.1924 16.0577C45.3351 18.0517 46.4797 18.6983 48.1966 18.6627C49.3053 18.6266 50.2709 18.0877 50.8252 17.6567C50.9684 17.5489 51.0936 17.6567 51.2009 17.8365L51.5761 18.4832C51.6475 18.627 51.5582 18.7348 51.415 18.8245C50.8427 19.2737 49.6806 20.0641 47.8743 20.0641C45.9074 20.0641 43.5469 18.9683 43.5469 15.4295C43.5469 12.3218 45.192 10.7769 47.7133 10.7769C50.95 10.7765 51.7728 13.2015 51.7728 14.782ZM50.1811 14.782C50.0738 13.0577 49.4481 12.1951 47.6598 12.1951C46.1579 12.1951 45.3351 12.9315 45.192 14.782H50.1811ZM60.9367 11.2261V18.6992C60.9367 22.9749 59.6851 24.3759 56.2518 24.3759C55.3038 24.3759 54.3028 24.1243 53.7485 23.9448C53.6233 23.9087 53.4626 23.819 53.498 23.6756L53.6233 22.9568C53.6587 22.7593 53.7305 22.6154 53.8913 22.6696C54.4097 22.8134 55.3397 23.0289 56.0548 23.0289C58.5761 23.0289 59.3449 22.1488 59.3449 19.2385V18.5738C58.7906 19.1848 57.7533 20.065 56.3946 20.065C53.5514 20.065 52.8359 17.4605 52.8359 15.4305C52.8359 12.4665 54.6063 10.7779 57.2708 10.7779C58.1469 10.7779 59.5595 10.8495 60.6687 10.9573C60.8293 10.9745 60.9367 11.0461 60.9367 11.2261ZM59.3449 17.1359V12.2677C58.5936 12.2136 57.8605 12.196 57.2528 12.196C55.5004 12.196 54.4631 13.166 54.4631 15.4296C54.4631 16.7228 54.749 18.6451 56.6984 18.6451C57.6998 18.6451 58.7372 17.7649 59.3449 17.1359ZM61.9766 15.4286C61.9766 12.0516 63.8182 10.776 66.3755 10.776C68.9147 10.776 70.7564 12.1594 70.7564 15.4286C70.7564 18.4286 68.9147 20.0632 66.3755 20.0632C63.8182 20.0632 61.9766 18.4286 61.9766 15.4286ZM69.1292 15.4286C69.1292 13.0752 68.0564 12.195 66.3755 12.195C64.6765 12.195 63.6037 13.0752 63.6037 15.4286C63.6037 17.7459 64.6765 18.6622 66.3755 18.6622C68.0564 18.6622 69.1292 17.7459 69.1292 15.4286ZM83.0064 11.1207L79.9937 19.8124C79.9379 19.9609 79.8458 20.0352 79.6789 20.0352H78.5511C78.3851 20.0352 78.293 19.9609 78.2371 19.8124L76.7583 15.4852L75.2795 19.8124C75.224 19.9609 75.1316 20.0352 74.9653 20.0352H73.8379C73.6716 20.0352 73.5789 19.9609 73.5233 19.8124L70.5101 11.1207C70.4545 10.9352 70.5284 10.8051 70.7318 10.8051H71.9521C72.1184 10.8051 72.2295 10.8794 72.2663 11.0279L74.4661 18.085L76.0005 13.3491L75.2428 11.1207C75.1872 10.9352 75.2611 10.8051 75.4645 10.8051H76.5553C76.7213 10.8051 76.8331 10.8794 76.8693 11.0279L79.0509 18.0481L81.2506 11.0279C81.2883 10.8794 81.3985 10.8051 81.5646 10.8051H82.7852C82.9883 10.8047 83.0623 10.9348 83.0064 11.1207Z" fill="url(#paint0_linear_14628_15105)"/>
</g>
</g>
<defs>
<linearGradient id="paint0_linear_14628_15105" x1="41.9927" y1="1.625" x2="41.9927" y2="24.3759" gradientUnits="userSpaceOnUse">
<stop stop-color="white"/>
<stop offset="1" stop-color="white" stop-opacity="0.8"/>
</linearGradient>
<clipPath id="clip0_14628_15105">
<rect width="82.0625" height="26" fill="white" transform="translate(0.953125)"/>
</clipPath>
</defs>
</svg>
