<svg width="178" height="50" viewBox="0 0 178 50" fill="none" xmlns="http://www.w3.org/2000/svg">
<path d="M14.0576 4.59509C12.3273 2.54214 10.8374 0.457105 10.533 0.0240581C10.5009 -0.00801937 10.4528 -0.00801937 10.4208 0.0240581C10.1164 0.457105 8.6264 2.54214 6.89609 4.59509C-7.95569 23.5368 9.23522 36.3197 9.23522 36.3197L9.37941 36.416C9.50756 38.3886 9.828 41.2276 9.828 41.2276H10.4689H11.1097C11.1097 41.2276 11.4301 38.4047 11.5583 36.416L11.7025 36.3037C11.7185 36.3037 28.9095 23.5368 14.0576 4.59509ZM10.4689 36.031C10.4689 36.031 9.69984 35.3734 9.49156 35.0365V35.0046L10.4208 14.3787C10.4208 14.3146 10.5169 14.3146 10.5169 14.3787L11.4462 35.0046V35.0365C11.2379 35.3734 10.4689 36.031 10.4689 36.031Z" fill="url(#paint0_linear_14628_15028)"/>
<path d="M42.6482 31.6978L35.4846 14.3263L35.4685 14.2783H29.895V15.446H30.7944C31.0674 15.446 31.3244 15.558 31.5173 15.7499C31.7099 15.9419 31.8063 16.1979 31.8063 16.4698L31.6458 33.9532C31.6458 34.497 31.1961 34.9449 30.6499 34.9609L29.7344 34.977V36.1286H35.1634V34.977L34.6011 34.9609C34.0551 34.9449 33.6053 34.497 33.6053 33.9532V17.4775L41.4115 36.1286C41.5238 36.4005 41.7808 36.5765 42.07 36.5765C42.3591 36.5765 42.6161 36.4005 42.7286 36.1286L50.3581 17.8934L50.4705 33.9532C50.4705 34.513 50.0207 34.9609 49.4586 34.977H48.8803V36.1286H55.2409V34.977H54.3735C53.8274 34.977 53.3776 34.513 53.3616 33.9692L53.3134 16.4857C53.3134 15.9259 53.7631 15.478 54.3093 15.462L55.2409 15.446V14.2783H49.8118L42.6482 31.6978Z" fill="url(#paint1_linear_14628_15028)"/>
<path d="M92.5901 34.8028C92.4128 34.6254 92.3162 34.3836 92.3162 34.0934V25.4517C92.3162 23.8072 91.8332 22.5174 90.8669 21.5984C89.9169 20.6795 88.5963 20.2119 86.9538 20.2119C84.6508 20.2119 82.8312 21.147 81.5589 22.9849C81.5429 23.0172 81.4946 23.0334 81.4463 23.0334C81.3979 23.0334 81.3658 23.0011 81.3658 22.9527L80.7698 20.6473H79.7714L77.2109 22.1143V22.9204H77.8712C78.1771 22.9204 78.4348 23.0011 78.612 23.1623C78.7891 23.3236 78.8857 23.5655 78.8857 23.9039V34.0772C78.8857 34.3674 78.7891 34.6093 78.612 34.7866C78.4348 34.964 78.1933 35.0607 77.9035 35.0607H77.2592V36.2376H83.1531V35.0607H82.5091C82.2192 35.0607 81.9776 34.964 81.8005 34.7866C81.6234 34.6093 81.5267 34.3674 81.5267 34.0772V27.3703C81.5267 26.5157 81.72 25.6613 82.0743 24.823C82.4446 24.0007 82.9921 23.3073 83.7169 22.7754C84.4415 22.2433 85.3111 21.9853 86.3095 21.9853C87.4368 21.9853 88.2904 22.34 88.8217 23.0494C89.3531 23.7589 89.627 24.6778 89.627 25.7741V34.0934C89.627 34.3836 89.5302 34.6254 89.3531 34.8028C89.176 34.98 88.9345 35.0768 88.6446 35.0768H88.0005V36.2538H93.8944V35.0768H93.2503C93.0087 35.0768 92.7832 34.9962 92.5901 34.8028Z" fill="url(#paint2_linear_14628_15028)"/>
<path d="M146.441 15.5957C144.812 14.7281 142.991 14.2783 141.026 14.2783H133.359V15.4511H134.11C134.398 15.4511 134.653 15.5635 134.909 15.8206C135.148 16.0615 135.276 16.3347 135.276 16.6238V33.9102C135.276 34.1992 135.148 34.4724 134.909 34.7134C134.669 34.9543 134.398 35.0828 134.11 35.0828H133.359V36.2557H141.026C142.991 36.2557 144.812 35.8058 146.441 34.9383C148.07 34.0708 149.396 32.7855 150.354 31.147C151.312 29.5083 151.807 27.5323 151.807 25.283C151.807 23.034 151.312 21.074 150.354 19.4193C149.38 17.7485 148.07 16.4632 146.441 15.5957ZM148.725 25.2509C148.725 27.3073 148.358 29.0423 147.639 30.44C146.92 31.8377 145.962 32.8819 144.78 33.5566C143.598 34.2315 142.288 34.5689 140.882 34.5689H139.333C139.046 34.5689 138.79 34.4564 138.534 34.1992C138.295 33.9583 138.167 33.6853 138.167 33.396V17.1059C138.167 16.8166 138.279 16.5596 138.534 16.3025C138.774 16.0615 139.046 15.9331 139.333 15.9331H140.882C142.288 15.9331 143.598 16.2704 144.78 16.9451C145.962 17.6198 146.92 18.6642 147.639 20.0619C148.358 21.4595 148.725 23.1945 148.725 25.2509Z" fill="url(#paint3_linear_14628_15028)"/>
<path d="M169.935 26.4238C169.226 25.6043 167.858 24.9136 166.249 24.544C168.471 23.4355 169.613 21.8772 169.613 19.8691C169.613 18.7766 169.324 17.7966 168.744 16.9612C168.164 16.1259 167.343 15.4511 166.297 14.9852C165.25 14.5193 164.026 14.2783 162.641 14.2783H153.963V15.4511H154.655C154.945 15.4511 155.203 15.5635 155.46 15.8206C155.702 16.0615 155.831 16.3347 155.831 16.6238V33.9102C155.831 34.1992 155.702 34.4724 155.46 34.7134C155.219 34.9543 154.945 35.0828 154.655 35.0828H153.898V36.2557H163.318C164.751 36.2557 166.087 36.0147 167.295 35.5326C168.503 35.0507 169.469 34.3439 170.162 33.4121C170.869 32.4804 171.224 31.3396 171.224 30.0223C171.208 28.6085 170.789 27.4198 169.935 26.4238ZM159.131 34.2153C158.89 33.9743 158.761 33.7013 158.761 33.4121V25.6526H163.238C164.815 25.6526 166.023 26.0542 166.86 26.8574C167.698 27.6608 168.116 28.7049 168.116 29.9902C168.116 30.7613 167.922 31.5164 167.569 32.2072C167.199 32.9141 166.65 33.4764 165.911 33.9102C165.185 34.3439 164.284 34.5689 163.238 34.5689H159.936C159.647 34.5849 159.389 34.4724 159.131 34.2153ZM158.777 23.9978V17.1059C158.777 16.8166 158.89 16.5596 159.147 16.3025C159.389 16.0615 159.663 15.9331 159.953 15.9331H162.078C163.607 15.9331 164.735 16.3187 165.444 17.0576C166.151 17.8127 166.506 18.7766 166.506 19.9655C166.506 21.1864 166.167 22.1664 165.508 22.9055C164.847 23.6283 163.849 23.9978 162.529 23.9978H158.777Z" fill="url(#paint4_linear_14628_15028)"/>
<path d="M70.1526 21.2365C68.9221 20.5642 67.548 20.2119 66.0621 20.2119C64.5761 20.2119 63.1859 20.5482 61.9716 21.2365C60.7411 21.909 59.7664 22.8856 59.0475 24.1184C58.3285 25.3512 57.9609 26.7923 57.9609 28.3933C57.9609 29.9942 58.3285 31.4353 59.0475 32.6681C59.7664 33.9009 60.7411 34.8775 61.9716 35.55C63.202 36.2223 64.5761 36.5746 66.0621 36.5746C67.548 36.5746 68.9382 36.2384 70.1526 35.55C71.383 34.8775 72.3577 33.9009 73.0767 32.6681C73.7956 31.4353 74.1632 29.9942 74.1632 28.3933C74.1632 26.7923 73.7956 25.3512 73.0767 24.1184C72.3577 22.8697 71.383 21.909 70.1526 21.2365ZM71.335 28.3933C71.335 30.3626 70.8557 31.9635 69.8968 33.1163C68.9542 34.2691 67.66 34.8615 66.0621 34.8615C64.4643 34.8615 63.1699 34.2691 62.2273 33.1163C61.2684 31.9635 60.7891 30.3626 60.7891 28.3933C60.7891 26.424 61.2684 24.823 62.2273 23.6702C63.1699 22.5174 64.4643 21.925 66.0621 21.925C67.66 21.925 68.9542 22.5174 69.8968 23.6702C70.8557 24.823 71.335 26.4079 71.335 28.3933Z" fill="url(#paint5_linear_14628_15028)"/>
<path d="M126.785 21.2365C125.555 20.5642 124.181 20.2119 122.695 20.2119C121.209 20.2119 119.819 20.5482 118.604 21.2365C117.374 21.909 116.399 22.8856 115.68 24.1184C114.961 25.3512 114.594 26.7923 114.594 28.3933C114.594 29.9942 114.961 31.4353 115.68 32.6681C116.399 33.9009 117.374 34.8775 118.604 35.55C119.835 36.2223 121.209 36.5746 122.695 36.5746C124.181 36.5746 125.571 36.2384 126.785 35.55C128.016 34.8775 128.99 33.9009 129.709 32.6681C130.428 31.4353 130.796 29.9942 130.796 28.3933C130.796 26.7923 130.428 25.3512 129.709 24.1184C128.99 22.8697 128 21.909 126.785 21.2365ZM127.968 28.3933C127.968 30.3626 127.488 31.9635 126.53 33.1163C125.587 34.2691 124.293 34.8615 122.695 34.8615C121.097 34.8615 119.803 34.2691 118.86 33.1163C117.901 31.9635 117.422 30.3626 117.422 28.3933C117.422 26.4079 117.901 24.823 118.86 23.6702C119.803 22.5174 121.097 21.925 122.695 21.925C124.293 21.925 125.587 22.5174 126.53 23.6702C127.472 24.823 127.968 26.4079 127.968 28.3933Z" fill="url(#paint6_linear_14628_15028)"/>
<path d="M103.942 20.2119C102.655 20.2119 101.48 20.4853 100.418 21.0321C99.356 21.579 98.5192 22.319 97.9237 23.2679C97.3284 24.2007 97.0227 25.2463 97.0227 26.3561C97.0227 27.3533 97.2479 28.2701 97.7146 29.0904C98.1652 29.8786 98.7767 30.5379 99.5491 31.0848L97.2479 34.2052C96.9582 34.5912 96.9261 35.1058 97.1353 35.524C97.3605 35.9583 97.7789 36.2157 98.2617 36.2157H98.9215C98.2778 36.65 97.7628 37.1646 97.4088 37.7758C96.9904 38.4674 96.7812 39.1912 96.7812 39.931C96.7812 41.3143 97.3928 42.4563 98.5996 43.3088C99.7905 44.1613 101.464 44.5955 103.572 44.5955C105.037 44.5955 106.436 44.3543 107.708 43.8878C108.995 43.4214 110.041 42.7297 110.814 41.8291C111.602 40.9284 112.004 39.8346 112.004 38.58C112.004 37.2612 111.522 36.3282 110.395 35.4276C109.43 34.6716 107.917 34.2695 106.034 34.2695H99.5974C99.5813 34.2695 99.5651 34.2533 99.5651 34.2533C99.5651 34.2533 99.5491 34.2213 99.5651 34.2052L101.239 31.9534C101.689 32.1624 102.108 32.2911 102.478 32.3715C102.864 32.452 103.299 32.4841 103.781 32.4841C105.133 32.4841 106.356 32.2107 107.418 31.6639C108.48 31.117 109.333 30.3772 109.945 29.4281C110.556 28.4953 110.862 27.4498 110.862 26.3401C110.862 25.1498 110.283 22.9783 108.705 21.8686C108.705 21.8525 108.722 21.8525 108.722 21.8525L112.181 22.2385V20.6462H106.646C105.777 20.3566 104.876 20.2119 103.942 20.2119ZM105.873 30.2806C105.262 30.6022 104.602 30.7792 103.942 30.7792C102.864 30.7792 101.915 30.3932 101.11 29.6373C100.305 28.8812 99.9031 27.7715 99.9031 26.3561C99.9031 24.9407 100.305 23.8308 101.11 23.0749C101.915 22.319 102.864 21.9329 103.942 21.9329C104.618 21.9329 105.262 22.0938 105.873 22.4315C106.485 22.7533 106.984 23.2518 107.386 23.9113C107.772 24.5708 107.981 25.391 107.981 26.3561C107.981 27.3372 107.788 28.1574 107.386 28.8009C107 29.4604 106.485 29.9429 105.873 30.2806ZM101.512 36.1995H105.873C107.08 36.1995 107.853 36.4408 108.368 36.9556C108.883 37.4702 109.14 38.1618 109.14 38.9661C109.14 40.1402 108.673 41.1053 107.74 41.8291C106.807 42.5529 105.551 42.9228 104.007 42.9228C102.655 42.9228 101.528 42.6172 100.708 42.0381C99.8869 41.4592 99.4686 40.5745 99.4686 39.4487C99.4686 38.7409 99.6617 38.0814 100.048 37.5025C100.434 36.9233 100.901 36.5051 101.512 36.1995Z" fill="url(#paint7_linear_14628_15028)"/>
<path d="M174.48 35.9882C174.162 35.8144 173.923 35.5618 173.732 35.2618C173.557 34.9461 173.461 34.6145 173.461 34.2513C173.461 33.8881 173.557 33.5408 173.732 33.2408C173.907 32.925 174.162 32.6882 174.48 32.5145C174.799 32.3409 175.149 32.2461 175.546 32.2461C175.944 32.2461 176.294 32.3409 176.613 32.5145C176.931 32.6882 177.17 32.9409 177.361 33.2408C177.536 33.5566 177.632 33.8881 177.632 34.2513C177.632 34.6145 177.536 34.9618 177.361 35.2618C177.186 35.5777 176.931 35.8144 176.613 35.9882C176.294 36.1617 175.944 36.2566 175.546 36.2566C175.165 36.2566 174.799 36.1617 174.48 35.9882ZM176.438 35.7512C176.708 35.6093 176.9 35.3882 177.059 35.1356C177.202 34.8672 177.282 34.5672 177.282 34.2356C177.282 33.904 177.202 33.604 177.059 33.3355C176.915 33.0671 176.708 32.8619 176.438 32.7198C176.167 32.5777 175.88 32.4988 175.546 32.4988C175.213 32.4988 174.926 32.5777 174.654 32.7198C174.385 32.8619 174.192 33.083 174.034 33.3355C173.891 33.604 173.811 33.904 173.811 34.2356C173.811 34.5672 173.891 34.8672 174.034 35.1356C174.178 35.4039 174.385 35.6093 174.654 35.7512C174.926 35.8934 175.213 35.9723 175.546 35.9723C175.88 35.9723 176.183 35.9093 176.438 35.7512ZM174.687 35.1988V35.0566L174.719 35.0407H174.815C174.845 35.0407 174.877 35.025 174.893 35.0091C174.926 34.9777 174.926 34.9618 174.926 34.9302V33.4619C174.926 33.4303 174.91 33.3987 174.893 33.383C174.861 33.3514 174.845 33.3514 174.815 33.3514H174.719L174.687 33.3355V33.1935L174.719 33.1776H175.546C175.785 33.1776 175.96 33.225 176.103 33.3355C176.247 33.446 176.31 33.5882 176.31 33.7776C176.31 33.9197 176.263 34.0619 176.151 34.1565C176.04 34.267 175.912 34.3303 175.753 34.3461L175.944 34.4092L176.31 34.9934C176.342 35.0407 176.374 35.0566 176.422 35.0566H176.517L176.533 35.0723V35.2145L176.517 35.2302H176.024L175.992 35.2145L175.482 34.3619H175.355V34.9302C175.355 34.9618 175.372 34.9934 175.388 35.0091C175.42 35.0407 175.436 35.0407 175.466 35.0407H175.562L175.595 35.0566V35.1988L175.562 35.2145H174.719L174.687 35.1988ZM175.498 34.1724C175.627 34.1724 175.737 34.1408 175.801 34.0619C175.864 33.9987 175.912 33.8881 175.912 33.7619C175.912 33.6355 175.88 33.5408 175.817 33.4619C175.753 33.383 175.657 33.3514 175.546 33.3514H175.482C175.45 33.3514 175.42 33.3671 175.404 33.383C175.372 33.4144 175.372 33.4303 175.372 33.4619V34.1724H175.498Z" fill="url(#paint8_linear_14628_15028)"/>
<defs>
<linearGradient id="paint0_linear_14628_15028" x1="10.4767" y1="0" x2="10.4767" y2="41.2276" gradientUnits="userSpaceOnUse">
<stop stop-color="white"/>
<stop offset="1" stop-color="white" stop-opacity="0.8"/>
</linearGradient>
<linearGradient id="paint1_linear_14628_15028" x1="42.4876" y1="14.2783" x2="42.4876" y2="36.5765" gradientUnits="userSpaceOnUse">
<stop stop-color="white"/>
<stop offset="1" stop-color="white" stop-opacity="0.8"/>
</linearGradient>
<linearGradient id="paint2_linear_14628_15028" x1="85.5527" y1="20.2119" x2="85.5527" y2="36.2538" gradientUnits="userSpaceOnUse">
<stop stop-color="white"/>
<stop offset="1" stop-color="white" stop-opacity="0.8"/>
</linearGradient>
<linearGradient id="paint3_linear_14628_15028" x1="142.583" y1="14.2783" x2="142.583" y2="36.2557" gradientUnits="userSpaceOnUse">
<stop stop-color="white"/>
<stop offset="1" stop-color="white" stop-opacity="0.8"/>
</linearGradient>
<linearGradient id="paint4_linear_14628_15028" x1="162.561" y1="14.2783" x2="162.561" y2="36.2557" gradientUnits="userSpaceOnUse">
<stop stop-color="white"/>
<stop offset="1" stop-color="white" stop-opacity="0.8"/>
</linearGradient>
<linearGradient id="paint5_linear_14628_15028" x1="66.0621" y1="20.2119" x2="66.0621" y2="36.5746" gradientUnits="userSpaceOnUse">
<stop stop-color="white"/>
<stop offset="1" stop-color="white" stop-opacity="0.8"/>
</linearGradient>
<linearGradient id="paint6_linear_14628_15028" x1="122.695" y1="20.2119" x2="122.695" y2="36.5746" gradientUnits="userSpaceOnUse">
<stop stop-color="white"/>
<stop offset="1" stop-color="white" stop-opacity="0.8"/>
</linearGradient>
<linearGradient id="paint7_linear_14628_15028" x1="104.481" y1="20.2119" x2="104.481" y2="44.5955" gradientUnits="userSpaceOnUse">
<stop stop-color="white"/>
<stop offset="1" stop-color="white" stop-opacity="0.8"/>
</linearGradient>
<linearGradient id="paint8_linear_14628_15028" x1="175.546" y1="32.2461" x2="175.546" y2="36.2566" gradientUnits="userSpaceOnUse">
<stop stop-color="white"/>
<stop offset="1" stop-color="white" stop-opacity="0.8"/>
</linearGradient>
</defs>
</svg>
