<svg width="80" height="80" viewBox="0 0 80 80" fill="none" xmlns="http://www.w3.org/2000/svg">
<circle cx="40" cy="40" r="40" fill="#262626"/>
<g clip-path="url(#clip0_19903_30391)">
<path d="M40.424 53.1866L42.4304 51.1802C42.5944 51.0161 42.6866 50.7936 42.6866 50.5616C42.6866 50.3295 42.5944 50.107 42.4304 49.9429L39.7966 47.3092L42.2405 44.8653C42.4867 44.6191 42.625 44.2851 42.625 43.9369C42.625 43.5887 42.4867 43.2548 42.2405 43.0086C41.9943 42.7623 41.6603 42.624 41.3121 42.624C40.9639 42.624 40.63 42.7623 40.3837 43.0086L37.9399 45.4524L34.5466 42.0592L36.9905 39.6153C37.2367 39.3691 37.375 39.0351 37.375 38.6869C37.375 38.3387 37.2367 38.0048 36.9905 37.7586C36.7443 37.5123 36.4103 37.374 36.0621 37.374C35.7139 37.374 35.38 37.5123 35.1337 37.7586L32.6899 40.2024L30.0561 37.5687C29.892 37.4047 29.6695 37.3125 29.4375 37.3125C29.2055 37.3125 28.983 37.4047 28.8189 37.5687L26.8125 39.5751L40.424 53.1866Z" fill="#FFE14D"/>
<path d="M25.5747 40.8125L25.3183 41.0689C23.6235 42.7679 22.6239 45.0384 22.5152 47.4357C22.4064 49.8331 23.1963 52.1847 24.7303 54.0302L20.1304 58.631C20.0468 58.7117 19.9802 58.8083 19.9343 58.915C19.8885 59.0218 19.8643 59.1366 19.8633 59.2528C19.8623 59.369 19.8844 59.4842 19.9284 59.5917C19.9724 59.6992 20.0374 59.7969 20.1196 59.8791C20.2017 59.9613 20.2994 60.0262 20.4069 60.0702C20.5145 60.1142 20.6297 60.1364 20.7459 60.1353C20.8621 60.1343 20.9769 60.1102 21.0836 60.0643C21.1904 60.0185 21.2869 59.9518 21.3677 59.8682L25.9684 55.2684C27.8131 56.8042 30.1651 57.5954 32.5631 57.4866C34.961 57.3778 37.2317 56.377 38.9298 54.6804L39.1862 54.424L25.5747 40.8125Z" fill="#FFE14D"/>
<path d="M39.5751 26.8125L37.5687 28.8189C37.4047 28.983 37.3125 29.2055 37.3125 29.4375C37.3125 29.6695 37.4047 29.892 37.5687 30.0561L49.9429 42.4304C50.107 42.5944 50.3295 42.6866 50.5616 42.6866C50.7936 42.6866 51.0161 42.5944 51.1802 42.4304L53.1866 40.424L39.5751 26.8125Z" fill="#FFE14D"/>
<path d="M59.8682 20.1312C59.7042 19.9672 59.4816 19.875 59.2496 19.875C59.0176 19.875 58.7951 19.9672 58.631 20.1312L54.0302 24.7311C52.1847 23.1971 49.8331 22.4072 47.4357 22.5159C45.0384 22.6247 42.7679 23.6243 41.0689 25.3191L40.8125 25.5754L54.424 39.1869L54.6804 38.9306C56.3751 37.2315 57.3748 34.961 57.4835 32.5637C57.5923 30.1664 56.8023 27.8147 55.2684 25.9692L59.8682 21.3684C60.0323 21.2044 60.1244 20.9818 60.1244 20.7498C60.1244 20.5178 60.0323 20.2953 59.8682 20.1312Z" fill="#FFE14D"/>
</g>
<defs>
<clipPath id="clip0_19903_30391">
<rect width="42" height="42" fill="white" transform="translate(19 19)"/>
</clipPath>
</defs>
</svg>
