<svg width="169" height="48" viewBox="0 0 169 48" fill="none" xmlns="http://www.w3.org/2000/svg">
<g clip-path="url(#clip0_14701_14162)">
<path fill-rule="evenodd" clip-rule="evenodd" d="M14.6288 35.1999C16.8166 34.3528 18.663 32.807 19.8809 30.803L16.1961 28.5668C15.0879 30.3769 13.0912 31.5848 10.8123 31.5848C7.32898 31.5848 4.50522 28.763 4.50522 25.2821C4.50522 21.8012 7.32898 18.9793 10.8123 18.9793C13.2083 18.9793 15.2923 20.3145 16.3598 22.281L20.1541 20.2387C19.0415 18.1744 17.2774 16.5354 15.1363 15.5765C12.9952 14.6177 10.597 14.3927 8.31476 14.9366C6.03248 15.4806 3.99402 16.7629 2.5164 18.5842C1.03877 20.4055 0.2048 22.6637 0.14418 25.0075C0.0835594 27.3514 0.799688 29.6497 2.18119 31.5448C3.5627 33.4399 5.53215 34.8258 7.78327 35.4868C10.0344 36.1478 12.441 36.0469 14.6288 35.1999Z" fill="url(#paint0_linear_14701_14162)"/>
<path fill-rule="evenodd" clip-rule="evenodd" d="M31.7291 35.9182C37.6071 35.9182 42.3722 31.1564 42.3722 25.2823C42.3722 19.4083 37.6071 14.6465 31.7291 14.6465C25.851 14.6465 21.0859 19.4083 21.0859 25.2823C21.0859 31.1564 25.851 35.9182 31.7291 35.9182ZM31.7412 31.5848C35.2245 31.5848 38.0483 28.763 38.0483 25.2821C38.0483 21.8012 35.2245 18.9793 31.7412 18.9793C28.2579 18.9793 25.4341 21.8012 25.4341 25.2821C25.4341 28.763 28.2579 31.5848 31.7412 31.5848Z" fill="url(#paint1_linear_14701_14162)"/>
<path fill-rule="evenodd" clip-rule="evenodd" d="M77.9713 35.9182C83.8493 35.9182 88.6144 31.1564 88.6144 25.2823C88.6144 19.4083 83.8493 14.6465 77.9713 14.6465C72.0932 14.6465 67.3281 19.4083 67.3281 25.2823C67.3281 31.1564 72.0932 35.9182 77.9713 35.9182ZM77.9998 31.5848C81.4831 31.5848 84.3068 28.763 84.3068 25.2821C84.3068 21.8012 81.4831 18.9793 77.9998 18.9793C74.5165 18.9793 71.6927 21.8012 71.6927 25.2821C71.6927 28.763 74.5165 31.5848 77.9998 31.5848Z" fill="url(#paint2_linear_14701_14162)"/>
<path fill-rule="evenodd" clip-rule="evenodd" d="M124.604 35.9182C130.482 35.9182 135.247 31.1564 135.247 25.2823C135.247 19.4083 130.482 14.6465 124.604 14.6465C118.726 14.6465 113.961 19.4083 113.961 25.2823C113.961 31.1564 118.726 35.9182 124.604 35.9182ZM124.633 31.5848C128.116 31.5848 130.94 28.763 130.94 25.2821C130.94 21.8012 128.116 18.9793 124.633 18.9793C121.149 18.9793 118.326 21.8012 118.326 25.2821C118.326 28.763 121.149 31.5848 124.633 31.5848Z" fill="url(#paint3_linear_14701_14162)"/>
<path fill-rule="evenodd" clip-rule="evenodd" d="M111.888 25.2843C111.888 31.1583 107.123 35.9201 101.245 35.9201C98.8842 35.9201 96.7028 35.152 94.9377 33.8521V41.0422H90.6016V24.8915H90.6091C90.8158 19.1995 95.4986 14.6484 101.245 14.6484C107.123 14.6484 111.888 19.4103 111.888 25.2843ZM107.581 25.284C107.581 28.7649 104.757 31.5868 101.274 31.5868C97.7903 31.5868 94.9665 28.7649 94.9665 25.284C94.9665 21.8031 97.7903 18.9813 101.274 18.9813C104.757 18.9813 107.581 21.8031 107.581 25.284Z" fill="url(#paint4_linear_14701_14162)"/>
<path fill-rule="evenodd" clip-rule="evenodd" d="M63.404 15.24C62.6911 15.8101 62.2199 16.6699 61.9176 17.4409C60.0239 15.7067 57.5002 14.6484 54.7291 14.6484C48.851 14.6484 44.0859 19.4102 44.0859 25.2842C44.0859 31.1582 48.851 35.9201 54.7291 35.9201C60.6071 35.9201 65.3722 31.1582 65.3722 25.2842C65.3722 23.0174 64.6626 20.9162 63.4532 19.1904C64.2446 19.0554 65.1554 18.7262 65.9662 17.9971C66.588 17.438 67.3459 16.0276 66.3604 15.0426C65.5908 14.2733 64.3895 14.4518 63.404 15.24ZM54.7576 31.5867C58.2409 31.5867 61.0646 28.7649 61.0646 25.284C61.0646 21.8031 58.2409 18.9812 54.7576 18.9812C51.2743 18.9812 48.4505 21.8031 48.4505 25.284C48.4505 28.7649 51.2743 31.5867 54.7576 31.5867ZM62.8291 36.5587C63.4525 35.9651 63.9086 35.5308 64.3532 35.5308C65.3386 35.5307 65.3386 36.7079 65.3386 37.5004C65.3386 40.8441 59.6982 44 54.8926 44C50.59 44 44.8745 41.4398 45.0378 37.5004C45.0608 36.9462 45.2871 36.4504 45.8262 36.3186C46.4229 36.1727 46.9878 36.6219 47.7715 37.2451C49.1033 38.3041 51.0671 39.8656 54.8926 39.8639C59.36 39.8619 61.4839 37.8395 62.8291 36.5587Z" fill="url(#paint5_linear_14701_14162)"/>
<path fill-rule="evenodd" clip-rule="evenodd" d="M141.269 35.9211V25.2796H141.278C141.28 21.8007 144.103 18.9813 147.585 18.9813C148.847 18.9813 150.023 19.352 151.009 19.9903L153.488 16.4413C151.797 15.3089 149.762 14.6484 147.573 14.6484C141.826 14.6484 137.144 19.1993 136.937 24.8913H136.933V25.0131C136.931 25.1032 136.93 25.1936 136.93 25.2843C136.93 25.375 136.931 25.4654 136.933 25.5555V35.9211H141.269Z" fill="url(#paint6_linear_14701_14162)"/>
<path fill-rule="evenodd" clip-rule="evenodd" d="M159.977 11.1035H155.641V35.9205H159.977V20.5577L168.071 20.5577V16.2245L159.977 16.2245V11.1035Z" fill="url(#paint7_linear_14701_14162)"/>
</g>
<defs>
<linearGradient id="paint0_linear_14701_14162" x1="10.1474" y1="14.6465" x2="10.1474" y2="35.9182" gradientUnits="userSpaceOnUse">
<stop stop-color="white"/>
<stop offset="1" stop-color="white" stop-opacity="0.8"/>
</linearGradient>
<linearGradient id="paint1_linear_14701_14162" x1="31.7291" y1="14.6465" x2="31.7291" y2="35.9182" gradientUnits="userSpaceOnUse">
<stop stop-color="white"/>
<stop offset="1" stop-color="white" stop-opacity="0.8"/>
</linearGradient>
<linearGradient id="paint2_linear_14701_14162" x1="77.9713" y1="14.6465" x2="77.9713" y2="35.9182" gradientUnits="userSpaceOnUse">
<stop stop-color="white"/>
<stop offset="1" stop-color="white" stop-opacity="0.8"/>
</linearGradient>
<linearGradient id="paint3_linear_14701_14162" x1="124.604" y1="14.6465" x2="124.604" y2="35.9182" gradientUnits="userSpaceOnUse">
<stop stop-color="white"/>
<stop offset="1" stop-color="white" stop-opacity="0.8"/>
</linearGradient>
<linearGradient id="paint4_linear_14701_14162" x1="101.245" y1="14.6484" x2="101.245" y2="41.0422" gradientUnits="userSpaceOnUse">
<stop stop-color="white"/>
<stop offset="1" stop-color="white" stop-opacity="0.8"/>
</linearGradient>
<linearGradient id="paint5_linear_14701_14162" x1="55.4605" y1="14.5488" x2="55.4605" y2="44" gradientUnits="userSpaceOnUse">
<stop stop-color="white"/>
<stop offset="1" stop-color="white" stop-opacity="0.8"/>
</linearGradient>
<linearGradient id="paint6_linear_14701_14162" x1="145.209" y1="14.6484" x2="145.209" y2="35.9211" gradientUnits="userSpaceOnUse">
<stop stop-color="white"/>
<stop offset="1" stop-color="white" stop-opacity="0.8"/>
</linearGradient>
<linearGradient id="paint7_linear_14701_14162" x1="161.856" y1="11.1035" x2="161.856" y2="35.9205" gradientUnits="userSpaceOnUse">
<stop stop-color="white"/>
<stop offset="1" stop-color="white" stop-opacity="0.8"/>
</linearGradient>
<clipPath id="clip0_14701_14162">
<rect width="167.93" height="48" fill="white" transform="translate(0.140625)"/>
</clipPath>
</defs>
</svg>
