<svg width="215" height="48" viewBox="0 0 215 48" fill="none" xmlns="http://www.w3.org/2000/svg">
<g clip-path="url(#clip0_14401_14061)">
<path fill-rule="evenodd" clip-rule="evenodd" d="M30.0808 32.7649C32.5091 31.8241 34.5585 30.1072 35.9103 27.8813L31.7972 25.3836C30.5689 27.4019 28.3483 28.7498 25.8129 28.7498C21.9467 28.7498 18.8125 25.6156 18.8125 21.7494C18.8125 17.8832 21.9467 14.749 25.8129 14.749C28.4777 14.749 30.7947 16.238 31.9774 18.4294L36.2135 16.1477C34.9786 13.855 33.0206 12.0345 30.6441 10.9695C28.2677 9.90453 25.6059 9.65466 23.0727 10.2588C20.5395 10.8629 18.277 12.2872 16.6369 14.3101C14.9969 16.333 14.0712 18.8411 14.0039 21.4444C13.9367 24.0478 14.7315 26.6004 16.2649 28.7053C17.7983 30.8102 19.9842 32.3494 22.4828 33.0836C24.9813 33.8178 27.6525 33.7057 30.0808 32.7649Z" fill="url(#paint0_linear_14401_14061)"/>
<path fill-rule="evenodd" clip-rule="evenodd" d="M49.0944 33.5628C55.6186 33.5628 60.9075 28.2738 60.9075 21.7496C60.9075 15.2254 55.6186 9.93652 49.0944 9.93652C42.5702 9.93652 37.2812 15.2254 37.2812 21.7496C37.2812 28.2738 42.5702 33.5628 49.0944 33.5628ZM49.0941 28.7498C52.9603 28.7498 56.0945 25.6156 56.0945 21.7494C56.0945 17.8832 52.9603 14.749 49.0941 14.749C45.2279 14.749 42.0938 17.8832 42.0938 21.7494C42.0938 25.6156 45.2279 28.7498 49.0941 28.7498Z" fill="url(#paint1_linear_14401_14061)"/>
<path fill-rule="evenodd" clip-rule="evenodd" d="M100.407 33.5628C106.931 33.5628 112.22 28.2738 112.22 21.7496C112.22 15.2254 106.931 9.93652 100.407 9.93652C93.8827 9.93652 88.5938 15.2254 88.5938 21.7496C88.5938 28.2738 93.8827 33.5628 100.407 33.5628ZM100.407 28.7498C104.273 28.7498 107.407 25.6156 107.407 21.7494C107.407 17.8832 104.273 14.749 100.407 14.749C96.5404 14.749 93.4062 17.8832 93.4062 21.7494C93.4062 25.6156 96.5404 28.7498 100.407 28.7498Z" fill="url(#paint2_linear_14401_14061)"/>
<path fill-rule="evenodd" clip-rule="evenodd" d="M152.133 33.5628C158.658 33.5628 163.947 28.2738 163.947 21.7496C163.947 15.2254 158.658 9.93652 152.133 9.93652C145.609 9.93652 140.32 15.2254 140.32 21.7496C140.32 28.2738 145.609 33.5628 152.133 33.5628ZM152.133 28.7498C155.999 28.7498 159.134 25.6156 159.134 21.7494C159.134 17.8832 155.999 14.749 152.133 14.749C148.267 14.749 145.133 17.8832 145.133 21.7494C145.133 25.6156 148.267 28.7498 152.133 28.7498Z" fill="url(#paint3_linear_14401_14061)"/>
<path fill-rule="evenodd" clip-rule="evenodd" d="M138.04 21.7496C138.04 28.2738 132.751 33.5628 126.227 33.5628C123.607 33.5628 121.186 32.7097 119.227 31.2661V39.2509H114.414V21.7496V21.3125H114.422C114.652 14.9908 119.849 9.93652 126.227 9.93652C132.751 9.93652 138.04 15.2254 138.04 21.7496ZM119.227 21.8093V21.6895C119.259 17.8509 122.381 14.749 126.227 14.749C130.093 14.749 133.227 17.8832 133.227 21.7494C133.227 25.6156 130.093 28.7498 126.227 28.7498C122.381 28.7498 119.259 25.6479 119.227 21.8093Z" fill="url(#paint4_linear_14401_14061)"/>
<path fill-rule="evenodd" clip-rule="evenodd" d="M84.2345 10.5958C83.4439 11.2285 82.9211 12.1824 82.5856 13.0382C80.484 11.1137 77.6841 9.93949 74.61 9.93949C68.0858 9.93949 62.7969 15.2284 62.7969 21.7526C62.7969 28.2768 68.0858 33.5657 74.61 33.5657C81.1342 33.5657 86.4231 28.2768 86.4231 21.7526C86.4231 19.2343 85.6351 16.9 84.2922 14.9829C85.1699 14.8327 86.1795 14.467 87.0784 13.6581C87.7685 13.0371 88.6097 11.4705 87.5159 10.3765C86.6617 9.52214 85.3283 9.7204 84.2345 10.5958ZM74.6097 28.7527C78.4759 28.7527 81.6101 25.6185 81.6101 21.7524C81.6101 17.8862 78.4759 14.752 74.6097 14.752C70.7435 14.752 67.6094 17.8862 67.6094 21.7524C67.6094 25.6185 70.7435 28.7527 74.6097 28.7527ZM83.5867 34.2735C84.2787 33.6142 84.7849 33.1318 85.2784 33.1318C86.3722 33.1318 86.3722 34.4393 86.3722 35.3195C86.3722 39.0333 80.1116 42.5386 74.7778 42.5386C70.0023 42.5386 63.6585 39.6949 63.8397 35.3195C63.8652 34.7039 64.1164 34.1533 64.7148 34.0069C65.377 33.8449 66.004 34.3438 66.8739 35.0359C68.3521 36.2122 70.5317 37.9465 74.7778 37.9446C79.7362 37.9423 82.0937 35.6961 83.5867 34.2735Z" fill="url(#paint5_linear_14401_14061)"/>
<path fill-rule="evenodd" clip-rule="evenodd" d="M184.193 11.9224C182.316 10.6674 180.06 9.93555 177.633 9.93555C171.256 9.93555 166.058 14.9898 165.828 21.3115H165.82V21.7487V33.5622H170.633V21.75H170.633V21.6885C170.665 17.8499 173.787 14.748 177.633 14.748C179.036 14.748 180.342 15.1604 181.437 15.8705L184.193 11.9224Z" fill="url(#paint6_linear_14401_14061)"/>
<path fill-rule="evenodd" clip-rule="evenodd" d="M191.414 6H186.602V33.5639H191.414V16.5003L200.383 16.5003V11.6875L191.414 11.6875V6Z" fill="url(#paint7_linear_14401_14061)"/>
</g>
<defs>
<linearGradient id="paint0_linear_14401_14061" x1="25.1068" y1="9.93652" x2="25.1068" y2="33.5628" gradientUnits="userSpaceOnUse">
<stop stop-color="white"/>
<stop offset="1" stop-color="white" stop-opacity="0.6"/>
</linearGradient>
<linearGradient id="paint1_linear_14401_14061" x1="49.0944" y1="9.93652" x2="49.0944" y2="33.5628" gradientUnits="userSpaceOnUse">
<stop stop-color="white"/>
<stop offset="1" stop-color="white" stop-opacity="0.6"/>
</linearGradient>
<linearGradient id="paint2_linear_14401_14061" x1="100.407" y1="9.93652" x2="100.407" y2="33.5628" gradientUnits="userSpaceOnUse">
<stop stop-color="white"/>
<stop offset="1" stop-color="white" stop-opacity="0.6"/>
</linearGradient>
<linearGradient id="paint3_linear_14401_14061" x1="152.133" y1="9.93652" x2="152.133" y2="33.5628" gradientUnits="userSpaceOnUse">
<stop stop-color="white"/>
<stop offset="1" stop-color="white" stop-opacity="0.6"/>
</linearGradient>
<linearGradient id="paint4_linear_14401_14061" x1="126.227" y1="9.93652" x2="126.227" y2="39.2511" gradientUnits="userSpaceOnUse">
<stop stop-color="white"/>
<stop offset="1" stop-color="white" stop-opacity="0.6"/>
</linearGradient>
<linearGradient id="paint5_linear_14401_14061" x1="75.4198" y1="9.82812" x2="75.4198" y2="42.5386" gradientUnits="userSpaceOnUse">
<stop stop-color="white"/>
<stop offset="1" stop-color="white" stop-opacity="0.6"/>
</linearGradient>
<linearGradient id="paint6_linear_14401_14061" x1="175.006" y1="9.93555" x2="175.006" y2="33.5622" gradientUnits="userSpaceOnUse">
<stop stop-color="white"/>
<stop offset="1" stop-color="white" stop-opacity="0.6"/>
</linearGradient>
<linearGradient id="paint7_linear_14401_14061" x1="193.492" y1="6" x2="193.492" y2="33.5639" gradientUnits="userSpaceOnUse">
<stop stop-color="white"/>
<stop offset="1" stop-color="white" stop-opacity="0.6"/>
</linearGradient>
<clipPath id="clip0_14401_14061">
<rect width="214.244" height="48" fill="white"/>
</clipPath>
</defs>
</svg>
