<svg width="97" height="30" viewBox="0 0 97 30" fill="none" xmlns="http://www.w3.org/2000/svg">
<g clip-path="url(#clip0_14401_14069)">
<g clip-path="url(#clip1_14401_14069)">
<mask id="mask0_14401_14069" style="mask-type:luminance" maskUnits="userSpaceOnUse" x="0" y="1" width="96" height="28">
<path d="M95.9338 1.64453H0V28.3577H95.9338V1.64453Z" fill="white"/>
</mask>
<g mask="url(#mask0_14401_14069)">
<path fill-rule="evenodd" clip-rule="evenodd" d="M26.4523 10.8889C26.4523 11.4561 25.995 11.9175 25.433 11.9175C24.8709 11.9175 24.4137 11.4561 24.4142 10.8889V7.31085C24.4142 5.32091 22.8093 3.70203 20.8372 3.70203H5.61563C3.64299 3.70203 2.03859 5.32091 2.03859 7.31085V13.9613H8.7055C9.11718 13.9613 9.48597 14.2088 9.64534 14.5915L11.2712 18.4942L13.9664 8.02374C14.0763 7.59671 14.443 7.28816 14.8792 7.2564C15.319 7.22766 15.7242 7.47975 15.8926 7.88409L18.4243 13.9618H25.4334C25.9956 13.9618 26.4528 14.4232 26.4528 14.9903V22.6698C26.4528 25.7935 23.9335 28.3356 20.8372 28.3356H5.61563C2.51926 28.3356 0 25.7941 0 22.6698V19.1063C0 18.5391 0.457185 18.0778 1.0193 18.0778C1.58141 18.0778 2.03859 18.5391 2.03859 19.1063V22.6698C2.03859 24.6602 3.64349 26.2791 5.61563 26.2791H20.8372C22.8098 26.2791 24.4142 24.6597 24.4142 22.6698V16.0183H17.7473C17.3356 16.0183 16.9668 15.7707 16.8074 15.3886L15.181 11.4849L12.4859 21.9558C12.376 22.3834 12.0087 22.692 11.5725 22.7232C11.1383 22.7605 10.7316 22.5089 10.5598 22.096L8.02797 16.0183H1.0193C0.457185 16.0183 0 15.5575 0 14.9903V7.31085C0 4.18653 2.51926 1.64453 5.61563 1.64453H20.8372C23.9335 1.64453 26.4523 4.18653 26.4523 7.31085V10.8889ZM63.6733 7.9815C63.6733 8.47751 63.5603 8.87651 63.3344 9.17851C63.1084 9.47852 62.8051 9.62851 62.4246 9.62851C62.0182 9.62851 61.7041 9.48351 61.4821 9.19352L61.4554 9.56852H60.9499V4.96049H61.4999V6.6795C61.722 6.4015 62.0282 6.2625 62.4187 6.2625C62.8091 6.2625 63.1154 6.4115 63.3373 6.7095C63.5613 7.0075 63.6733 7.4155 63.6733 7.93351V7.9815ZM63.1233 7.9185C63.1233 7.5405 63.051 7.2485 62.9063 7.0425C62.7615 6.8365 62.5534 6.7335 62.2819 6.7335C61.9191 6.7335 61.6585 6.9035 61.4999 7.2435V8.64751C61.6684 8.98751 61.931 9.15752 62.2878 9.15752C62.5514 9.15752 62.7566 9.05451 62.9033 8.84852C63.0499 8.64251 63.1233 8.33251 63.1233 7.9185ZM65.3859 8.75551L66.1351 6.3225H66.7238L65.4305 10.0695C65.2303 10.6095 64.9121 10.8795 64.4761 10.8795L64.372 10.8705L64.1669 10.8315V10.3815L64.3156 10.3935C64.5019 10.3935 64.6466 10.3555 64.7497 10.2795C64.8547 10.2035 64.9409 10.0645 65.0083 9.86252L65.1302 9.53252L63.9825 6.3225H64.5831L65.3859 8.75551ZM68.7515 9.56852V5.20049H70.03C70.4126 5.20049 70.7515 5.28649 71.0468 5.45849C71.3441 5.63049 71.5741 5.87449 71.7366 6.1905C71.8991 6.5065 71.9804 6.8685 71.9804 7.2765V7.4955C71.9804 7.90951 71.8981 8.2735 71.7337 8.58751C71.5711 8.90151 71.3382 9.14352 71.0349 9.31351C70.7336 9.48351 70.3878 9.56852 69.9973 9.56852H68.7515ZM69.5037 5.8125V8.96251H69.9943C70.3888 8.96251 70.691 8.83852 70.9011 8.59051C71.1132 8.34051 71.2213 7.98251 71.2253 7.51651V7.2735C71.2253 6.7995 71.1232 6.4375 70.919 6.1875C70.7148 5.9375 70.4185 5.8125 70.03 5.8125H69.5037ZM72.5245 7.9155C72.5245 7.5975 72.5869 7.3115 72.7118 7.0575C72.8367 6.8015 73.0121 6.6055 73.2381 6.4695C73.464 6.3315 73.7237 6.2625 74.0171 6.2625C74.4511 6.2625 74.803 6.4035 75.0725 6.6855C75.344 6.9675 75.4907 7.3415 75.5126 7.8075L75.5155 7.97851C75.5155 8.29851 75.4541 8.58451 75.3311 8.83651C75.2103 9.08852 75.0359 9.28351 74.8079 9.42151C74.5819 9.55951 74.3203 9.62851 74.023 9.62851C73.5691 9.62851 73.2054 9.47652 72.9318 9.17251C72.6602 8.86651 72.5245 8.45951 72.5245 7.9515V7.9155ZM73.247 7.97851C73.247 8.31251 73.3154 8.57451 73.4521 8.76451C73.5889 8.95251 73.7791 9.04651 74.023 9.04651C74.2668 9.04651 74.4561 8.95051 74.5908 8.75851C74.7276 8.56651 74.796 8.28551 74.796 7.9155C74.796 7.5875 74.7257 7.3275 74.5849 7.1355C74.4462 6.9435 74.2569 6.8475 74.0171 6.8475C73.7812 6.8475 73.5938 6.9425 73.4551 7.1325C73.3164 7.3205 73.247 7.6025 73.247 7.97851ZM77.4481 9.04651C77.6285 9.04651 77.7781 8.99351 77.897 8.88752C78.016 8.78151 78.0793 8.65051 78.0873 8.49451H78.7682C78.7603 8.69651 78.6978 8.88551 78.5809 9.06152C78.4639 9.23552 78.3054 9.37352 78.1051 9.47552C77.905 9.57752 77.6889 9.62851 77.457 9.62851C77.0071 9.62851 76.6503 9.48151 76.3867 9.18751C76.123 8.89351 75.9912 8.48751 75.9912 7.96951V7.89451C75.9912 7.4005 76.122 7.0055 76.3837 6.7095C76.6453 6.4115 77.0021 6.2625 77.454 6.2625C77.8366 6.2625 78.1477 6.37549 78.3876 6.6015C78.6294 6.8255 78.7563 7.1205 78.7682 7.48651H78.0873C78.0793 7.3005 78.016 7.1475 77.897 7.0275C77.7801 6.9075 77.6304 6.8475 77.4481 6.8475C77.2142 6.8475 77.0338 6.9335 76.907 7.1055C76.7801 7.2755 76.7157 7.5345 76.7137 7.8825V7.99951C76.7137 8.35151 76.7761 8.61451 76.901 8.78851C77.0279 8.96051 77.2102 9.04651 77.4481 9.04651ZM80.2191 5.53349V6.3225H80.787V6.8625H80.2191V8.67451C80.2191 8.79851 80.2429 8.88851 80.2905 8.94451C80.34 8.99851 80.4272 9.02552 80.552 9.02552C80.6353 9.02552 80.7195 9.01552 80.8048 8.99551V9.55951C80.6403 9.60551 80.4817 9.62851 80.3291 9.62851C79.7741 9.62851 79.4966 9.31951 79.4966 8.70151V6.8625H78.9674V6.3225H79.4966V5.53349H80.2191ZM81.117 7.9155C81.117 7.5975 81.1794 7.3115 81.3043 7.0575C81.4291 6.8015 81.6046 6.6055 81.8306 6.4695C82.0565 6.3315 82.3162 6.2625 82.6095 6.2625C83.0436 6.2625 83.3955 6.4035 83.665 6.6855C83.9366 6.9675 84.0833 7.3415 84.1051 7.8075L84.108 7.97851C84.108 8.29851 84.0466 8.58451 83.9237 8.83651C83.8027 9.08852 83.6284 9.28351 83.4004 9.42151C83.1744 9.55951 82.9128 9.62851 82.6154 9.62851C82.1616 9.62851 81.7978 9.47652 81.5244 9.17251C81.2527 8.86651 81.117 8.45951 81.117 7.9515V7.9155ZM81.8395 7.97851C81.8395 8.31251 81.9079 8.57451 82.0447 8.76451C82.1814 8.95251 82.3717 9.04651 82.6154 9.04651C82.8593 9.04651 83.0486 8.95051 83.1833 8.75851C83.3201 8.56651 83.3885 8.28551 83.3885 7.9155C83.3885 7.5875 83.3182 7.3275 83.1774 7.1355C83.0387 6.9435 82.8494 6.8475 82.6095 6.8475C82.3736 6.8475 82.1864 6.9425 82.0476 7.1325C81.9089 7.3205 81.8395 7.6025 81.8395 7.97851ZM86.4033 6.9885C86.3082 6.9725 86.21 6.9645 86.109 6.9645C85.778 6.9645 85.555 7.0925 85.44 7.34851V9.56852H84.7175V6.3225H85.4073L85.4252 6.6855C85.5995 6.4035 85.8413 6.2625 86.1506 6.2625C86.2536 6.2625 86.3389 6.2765 86.4063 6.3045L86.4033 6.9885ZM88.6925 9.56852C88.6608 9.50652 88.6334 9.40551 88.6096 9.26552C88.3792 9.50751 88.098 9.62851 87.765 9.62851C87.442 9.62851 87.1783 9.53552 86.9742 9.34951C86.77 9.16352 86.6679 8.93352 86.6679 8.65951C86.6679 8.31351 86.7948 8.04851 87.0485 7.86451C87.3042 7.6785 87.6689 7.58551 88.1427 7.58551H88.5857V7.3725C88.5857 7.2045 88.539 7.0705 88.4463 6.9705C88.3528 6.8685 88.211 6.8175 88.0207 6.8175C87.8562 6.8175 87.7215 6.8595 87.6163 6.9435C87.5113 7.0255 87.4588 7.1305 87.4588 7.2585H86.7363C86.7363 7.0805 86.7948 6.9145 86.9117 6.76049C87.0287 6.6045 87.1872 6.4825 87.3874 6.3945C87.5896 6.30649 87.8146 6.2625 88.0623 6.2625C88.4393 6.2625 88.7393 6.3585 88.9634 6.55049C89.1876 6.7405 89.3023 7.0085 89.3085 7.3545V8.81851C89.3085 9.11051 89.3491 9.34351 89.4303 9.51751V9.56852H88.6925ZM87.8988 9.04351C88.0415 9.04351 88.1753 9.00851 88.2998 8.93851C88.4269 8.86851 88.5222 8.77451 88.5857 8.65651V8.04451H88.1961C87.9286 8.04451 87.7274 8.09151 87.5926 8.18551C87.4578 8.27951 87.3904 8.41251 87.3904 8.58451C87.3904 8.72451 87.436 8.83651 87.5271 8.92052C87.6203 9.00252 87.7442 9.04351 87.8988 9.04351ZM90.8334 9.56852H90.1107V4.96049H90.8334V9.56852ZM92.391 9.56852H91.6691V6.3225H92.391V9.56852ZM91.6241 5.47949C91.6241 5.36749 91.6585 5.27449 91.7282 5.20049C91.7997 5.12649 91.9003 5.08948 92.0318 5.08948C92.1624 5.08948 92.263 5.12649 92.3345 5.20049C92.406 5.27449 92.4422 5.36749 92.4422 5.47949C92.4422 5.58949 92.406 5.68149 92.3345 5.75549C92.263 5.82749 92.1624 5.86349 92.0318 5.86349C91.9003 5.86349 91.7997 5.82749 91.7282 5.75549C91.6585 5.68149 91.6241 5.58949 91.6241 5.47949ZM95.1028 9.56852C95.071 9.50652 95.0437 9.40551 95.0199 9.26552C94.7895 9.50751 94.508 9.62851 94.1753 9.62851C93.8523 9.62851 93.5885 9.53552 93.3846 9.34951C93.1799 9.16352 93.0784 8.93352 93.0784 8.65951C93.0784 8.31351 93.2046 8.04851 93.4588 7.86451C93.7147 7.6785 94.0791 7.58551 94.553 7.58551H94.996V7.3725C94.996 7.2045 94.9493 7.0705 94.8557 6.9705C94.7631 6.8685 94.621 6.8175 94.4313 6.8175C94.2662 6.8175 94.1312 6.8595 94.0262 6.9435C93.9212 7.0255 93.8691 7.1305 93.8691 7.2585H93.1464C93.1464 7.0805 93.2046 6.9145 93.322 6.76049C93.4385 6.6045 93.5973 6.4825 93.7976 6.3945C93.9997 6.30649 94.2248 6.2625 94.4727 6.2625C94.8495 6.2625 95.1496 6.3585 95.3737 6.55049C95.597 6.7405 95.7126 7.0085 95.7179 7.3545V8.81851C95.7179 9.11051 95.7585 9.34351 95.8406 9.51751V9.56852H95.1028ZM94.3086 9.04351C94.4516 9.04351 94.5857 9.00851 94.7101 8.93851C94.8372 8.86851 94.9325 8.77451 94.996 8.65651V8.04451H94.606C94.3386 8.04451 94.1374 8.09151 94.0024 8.18551C93.8682 8.27951 93.8003 8.41251 93.8003 8.58451C93.8003 8.72451 93.8462 8.83651 93.9371 8.92052C94.0306 9.00252 94.1542 9.04351 94.3086 9.04351ZM38.4541 8.02374L38.3077 8.84655C38.2658 9.07846 38.1823 9.26853 37.9939 9.18383C37.4923 9.01494 36.9072 8.88839 36.5099 8.88839C35.3602 8.88839 34.8791 9.41574 34.8791 10.9978V12.6011H37.3878C37.5967 12.6011 37.7016 12.7064 37.7016 12.9177V13.867C37.7016 14.0778 37.5972 14.1831 37.3878 14.1831H34.8791V22.7681C34.8791 22.9788 34.7746 23.0842 34.5658 23.0842H33.3321C33.1232 23.0842 33.0188 22.9788 33.0188 22.7681V14.1831H31.9316C31.7227 14.1831 31.6183 14.0778 31.6183 13.867V13.0654L33.0188 12.7069V10.6611C33.0188 8.59396 34.0431 7.26497 36.0293 7.26497C36.6983 7.26497 37.3673 7.4127 38.1618 7.70814C38.3077 7.77065 38.4956 7.85535 38.4541 8.02374ZM48.5695 17.0938V17.115C48.5695 18.0008 48.2352 18.5493 47.148 18.5493L40.8769 18.5917C41.0438 20.933 42.3818 21.6923 44.389 21.6505C45.685 21.6081 46.8137 20.9753 47.4618 20.4692C47.6292 20.3427 47.7755 20.4692 47.901 20.6804L48.3397 21.4397C48.4231 21.6086 48.3187 21.7352 48.1513 21.8405C47.4823 22.3679 46.1237 23.2961 44.0121 23.2961C41.7128 23.2961 38.9532 22.0094 38.9532 17.8541C38.9532 14.205 40.8764 12.391 43.8238 12.391C47.6077 12.3904 48.5695 15.238 48.5695 17.0938ZM46.7088 17.0938C46.5834 15.069 45.8519 14.0562 43.7613 14.0562C42.005 14.0562 41.0438 14.9209 40.8764 17.0938H46.7088ZM59.4123 17.0938V17.115C59.4123 18.0008 59.078 18.5493 57.9908 18.5493L51.7196 18.5917C51.8865 20.933 53.2246 21.6923 55.2317 21.6505C56.5278 21.6081 57.6565 20.9753 58.3045 20.4692C58.4719 20.3427 58.6183 20.4692 58.7437 20.6804L59.1824 21.4397C59.2659 21.6086 59.1615 21.7352 58.9941 21.8405C58.3251 22.3679 56.9665 23.2961 54.8549 23.2961C52.5556 23.2961 49.796 22.0094 49.796 17.8541C49.796 14.205 51.7192 12.391 54.6666 12.391C58.4505 12.3904 59.4123 15.238 59.4123 17.0938ZM57.5516 17.0938C57.4262 15.069 56.6947 14.0562 54.6041 14.0562C52.8484 14.0562 51.8865 14.9209 51.7192 17.0938H57.5516ZM70.101 12.9183V21.6933C70.101 26.7138 68.6379 28.3589 64.6243 28.3589C63.516 28.3589 62.3458 28.0634 61.6978 27.8527C61.5514 27.8103 61.3635 27.7049 61.405 27.5365L61.5514 26.6926C61.5928 26.4606 61.6768 26.2917 61.8647 26.3553C62.4708 26.5242 63.558 26.7773 64.394 26.7773C67.3414 26.7773 68.2402 25.7437 68.2402 22.3265V21.546C67.5922 22.2634 66.3795 23.297 64.7912 23.297C61.4674 23.297 60.631 20.2388 60.631 17.8551C60.631 14.3748 62.7006 12.3919 65.8154 12.3919C66.8397 12.3919 68.4911 12.4761 69.7877 12.6026C69.9755 12.6228 70.101 12.707 70.101 12.9183ZM68.2402 19.8576V14.1414C67.3619 14.0778 66.5049 14.0572 65.7944 14.0572C63.7459 14.0572 62.5332 15.1961 62.5332 17.8541C62.5332 19.3725 62.8674 21.6297 65.1464 21.6297C66.317 21.6297 67.5297 20.5962 68.2402 19.8576ZM71.326 17.8532C71.326 13.8879 73.479 12.39 76.4684 12.39C79.4369 12.39 81.5899 14.0144 81.5899 17.8532C81.5899 21.3758 79.4369 23.2951 76.4684 23.2951C73.479 23.2951 71.326 21.3758 71.326 17.8532ZM79.6877 17.8532C79.6877 15.0898 78.4335 14.0563 76.4684 14.0563C74.4823 14.0563 73.2282 15.0898 73.2282 17.8532C73.2282 20.5741 74.4823 21.65 76.4684 21.65C78.4335 21.65 79.6877 20.5741 79.6877 17.8532ZM95.9116 12.7948L92.3897 23.0007C92.3244 23.1751 92.2167 23.2623 92.0217 23.2623H90.7033C90.5091 23.2623 90.4015 23.1751 90.3362 23.0007L88.6074 17.9197L86.8786 23.0007C86.8137 23.1751 86.7058 23.2623 86.5113 23.2623H85.1933C84.9989 23.2623 84.8905 23.1751 84.8256 23.0007L81.303 12.7948C81.238 12.577 81.3244 12.4243 81.5623 12.4243H82.9888C83.1832 12.4243 83.3131 12.5115 83.3561 12.6859L85.9278 20.9725L87.7215 15.4115L86.8357 12.7948C86.7707 12.577 86.8571 12.4243 87.0949 12.4243H88.37C88.5642 12.4243 88.6948 12.5115 88.7371 12.6859L91.2875 20.9291L93.859 12.6859C93.9031 12.5115 94.032 12.4243 94.2261 12.4243H95.6531C95.8905 12.4238 95.9769 12.5766 95.9116 12.7948Z" fill="url(#paint0_linear_14401_14069)"/>
</g>
</g>
</g>
<defs>
<linearGradient id="paint0_linear_14401_14069" x1="47.9664" y1="1.64453" x2="47.9664" y2="28.3589" gradientUnits="userSpaceOnUse">
<stop stop-color="white"/>
<stop offset="1" stop-color="white" stop-opacity="0.6"/>
</linearGradient>
<clipPath id="clip0_14401_14069">
<rect width="96.0133" height="30" fill="white"/>
</clipPath>
<clipPath id="clip1_14401_14069">
<rect width="96.0133" height="26.7132" fill="white" transform="translate(0 1.64355)"/>
</clipPath>
</defs>
</svg>
