<svg width="81" height="24" viewBox="0 0 81 24" fill="none" xmlns="http://www.w3.org/2000/svg">
<g clip-path="url(#clip0_14701_14473)">
<mask id="mask0_14701_14473" style="mask-type:luminance" maskUnits="userSpaceOnUse" x="0" y="0" width="81" height="24">
<path d="M80.3504 0.97168H0.789062V23.0283H80.3504V0.97168Z" fill="white"/>
</mask>
<g mask="url(#mask0_14701_14473)">
<path fill-rule="evenodd" clip-rule="evenodd" d="M22.7269 8.60459C22.7269 9.07293 22.3477 9.45385 21.8816 9.45385C21.4154 9.45385 21.0362 9.07293 21.0366 8.60459V5.65026C21.0366 4.0072 19.7056 2.67052 18.0701 2.67052H5.4463C3.81032 2.67052 2.47974 4.0072 2.47974 5.65026V11.1414H8.00885C8.35027 11.1414 8.65612 11.3458 8.78829 11.6618L10.1367 14.8842L12.3719 6.23887C12.4631 5.88628 12.7672 5.63152 13.1289 5.6053C13.4936 5.58157 13.8297 5.78971 13.9693 6.12357L16.069 11.1418H21.8819C22.3481 11.1418 22.7273 11.5228 22.7273 11.991V18.3319C22.7273 20.9111 20.638 23.01 18.0701 23.01H5.4463C2.87838 23.01 0.789062 20.9115 0.789062 18.3319V15.3896C0.789062 14.9212 1.16822 14.5403 1.63441 14.5403C2.10058 14.5403 2.47974 14.9212 2.47974 15.3896V18.3319C2.47974 19.9753 3.81074 21.312 5.4463 21.312H18.0701C19.706 21.312 21.0366 19.9749 21.0366 18.3319V12.8398H15.5075C15.1661 12.8398 14.8602 12.6354 14.7281 12.3199L13.3792 9.09668L11.144 17.7424C11.0529 18.0954 10.7483 18.3502 10.3865 18.376C10.0265 18.4068 9.68915 18.199 9.54665 17.8581L7.44695 12.8398H1.63441C1.16822 12.8398 0.789062 12.4594 0.789062 11.991V5.65026C0.789062 3.07057 2.87838 0.97168 5.4463 0.97168H18.0701C20.638 0.97168 22.7269 3.07057 22.7269 5.65026V8.60459ZM53.5885 6.20418C53.5885 6.61373 53.4948 6.94317 53.3074 7.19253C53.12 7.44024 52.8685 7.56409 52.5529 7.56409C52.2159 7.56409 51.9553 7.44437 51.7713 7.20492L51.7491 7.51455H51.3299V3.70978H51.786V5.12914C51.9702 4.8996 52.2241 4.78483 52.548 4.78483C52.8718 4.78483 53.1258 4.90786 53.3099 5.15391C53.4956 5.39997 53.5885 5.73685 53.5885 6.16455V6.20418ZM53.1323 6.15216C53.1323 5.84006 53.0724 5.59896 52.9523 5.42886C52.8323 5.25878 52.6597 5.17373 52.4345 5.17373C52.1337 5.17373 51.9175 5.31409 51.786 5.59483V6.75409C51.9257 7.03483 52.1436 7.17519 52.4394 7.17519C52.6581 7.17519 52.8282 7.09014 52.9499 6.92006C53.0715 6.74997 53.1323 6.494 53.1323 6.15216ZM55.0088 6.84326L55.6302 4.83437H56.1184L55.0458 7.92822C54.8797 8.3741 54.6159 8.59702 54.2543 8.59702L54.168 8.58959L53.9978 8.55739V8.18584L54.1211 8.19574C54.2756 8.19574 54.3957 8.16437 54.4811 8.10162C54.5682 8.03886 54.6397 7.92409 54.6956 7.75731L54.7967 7.48483L53.8449 4.83437H54.343L55.0088 6.84326ZM57.8 7.51455V3.90795H58.8603C59.1776 3.90795 59.4586 3.97896 59.7036 4.12098C59.9502 4.26299 60.1409 4.46446 60.2756 4.72538C60.4104 4.9863 60.4778 5.28519 60.4778 5.62208V5.8029C60.4778 6.14474 60.4096 6.44528 60.2732 6.70455C60.1384 6.96382 59.9453 7.16364 59.6937 7.304C59.4439 7.44437 59.157 7.51455 58.8332 7.51455H57.8ZM58.4239 4.41327V7.01418H58.8307C59.1578 7.01418 59.4085 6.9118 59.5828 6.70703C59.7586 6.50061 59.8483 6.20501 59.8516 5.82024V5.6196C59.8516 5.22822 59.7669 4.92932 59.5976 4.7229C59.4283 4.51648 59.1825 4.41327 58.8603 4.41327H58.4239ZM60.9291 6.14969C60.9291 5.88712 60.9809 5.65097 61.0844 5.44125C61.188 5.22987 61.3335 5.06804 61.5209 4.95575C61.7083 4.8418 61.9236 4.78483 62.1669 4.78483C62.5269 4.78483 62.8187 4.90125 63.0422 5.1341C63.2674 5.36694 63.3891 5.67574 63.4072 6.06051L63.4096 6.20171C63.4096 6.46593 63.3587 6.70207 63.2567 6.91015C63.1565 7.11822 63.0119 7.27923 62.8228 7.39317C62.6354 7.50712 62.4184 7.56409 62.1718 7.56409C61.7954 7.56409 61.4938 7.43859 61.2669 7.18758C61.0417 6.93492 60.9291 6.59886 60.9291 6.17941V6.14969ZM61.5283 6.20171C61.5283 6.47749 61.585 6.69382 61.6984 6.8507C61.8118 7.00593 61.9696 7.08354 62.1718 7.08354C62.374 7.08354 62.531 7.00428 62.6428 6.84574C62.7562 6.68721 62.8129 6.45519 62.8129 6.14969C62.8129 5.87886 62.7546 5.66418 62.6379 5.50566C62.5228 5.34712 62.3658 5.26786 62.1669 5.26786C61.9713 5.26786 61.8159 5.3463 61.7009 5.50318C61.5858 5.65841 61.5283 5.89125 61.5283 6.20171ZM65.0124 7.08354C65.162 7.08354 65.2861 7.03978 65.3847 6.95226C65.4834 6.86473 65.5359 6.75657 65.5425 6.62776H66.1072C66.1006 6.79455 66.0488 6.95061 65.9519 7.09593C65.8549 7.2396 65.7234 7.35354 65.5573 7.43776C65.3913 7.52198 65.2122 7.56409 65.0198 7.56409C64.6466 7.56409 64.3507 7.44271 64.1321 7.19996C63.9134 6.95721 63.8042 6.62199 63.8042 6.19428V6.13235C63.8042 5.72446 63.9126 5.39831 64.1296 5.15391C64.3466 4.90786 64.6425 4.78483 65.0173 4.78483C65.3346 4.78483 65.5927 4.87813 65.7916 5.06474C65.9921 5.24969 66.0973 5.49327 66.1072 5.79547H65.5425C65.5359 5.64189 65.4834 5.51556 65.3847 5.41648C65.2878 5.3174 65.1636 5.26786 65.0124 5.26786C64.8184 5.26786 64.6688 5.33886 64.5636 5.48089C64.4584 5.62125 64.405 5.8351 64.4034 6.12244V6.21905C64.4034 6.50969 64.4551 6.72684 64.5587 6.87051C64.6639 7.01253 64.8151 7.08354 65.0124 7.08354ZM67.3105 4.18291V4.83437H67.7814V5.28024H67.3105V6.77639C67.3105 6.87877 67.3302 6.95308 67.3697 6.99932C67.4108 7.04391 67.4831 7.06621 67.5866 7.06621C67.6557 7.06621 67.7255 7.05795 67.7962 7.04143V7.50712C67.6598 7.5451 67.5283 7.56409 67.4018 7.56409C66.9415 7.56409 66.7113 7.30895 66.7113 6.79868V5.28024H66.2724V4.83437H66.7113V4.18291H67.3105ZM68.0552 6.14969C68.0552 5.88712 68.1069 5.65097 68.2105 5.44125C68.314 5.22987 68.4595 5.06804 68.647 4.95575C68.8343 4.8418 69.0497 4.78483 69.293 4.78483C69.653 4.78483 69.9448 4.90125 70.1683 5.1341C70.3936 5.36694 70.5152 5.67574 70.5333 6.06051L70.5357 6.20171C70.5357 6.46593 70.4847 6.70207 70.3829 6.91015C70.2825 7.11822 70.1379 7.27923 69.9489 7.39317C69.7614 7.50712 69.5444 7.56409 69.2979 7.56409C68.9215 7.56409 68.6198 7.43859 68.393 7.18758C68.1677 6.93492 68.0552 6.59886 68.0552 6.17941V6.14969ZM68.6544 6.20171C68.6544 6.47749 68.7111 6.69382 68.8245 6.8507C68.9379 7.00593 69.0957 7.08354 69.2979 7.08354C69.5001 7.08354 69.6571 7.00428 69.7688 6.84574C69.8823 6.68721 69.939 6.45519 69.939 6.14969C69.939 5.87886 69.8807 5.66418 69.7639 5.50566C69.6489 5.34712 69.4919 5.26786 69.293 5.26786C69.0973 5.26786 68.942 5.3463 68.8269 5.50318C68.7119 5.65841 68.6544 5.89125 68.6544 6.20171ZM72.4393 5.38428C72.3604 5.37107 72.279 5.36446 72.1952 5.36446C71.9207 5.36446 71.7357 5.47015 71.6404 5.68153V7.51455H71.0412V4.83437H71.6133L71.6281 5.1341C71.7727 4.90125 71.9732 4.78483 72.2297 4.78483C72.3151 4.78483 72.3858 4.79639 72.4418 4.81951L72.4393 5.38428ZM74.3378 7.51455C74.3115 7.46336 74.2888 7.37996 74.269 7.26437C74.078 7.46418 73.8448 7.56409 73.5686 7.56409C73.3007 7.56409 73.082 7.4873 72.9127 7.33372C72.7434 7.18015 72.6588 6.99024 72.6588 6.764C72.6588 6.47832 72.7639 6.25951 72.9743 6.10758C73.1864 5.954 73.4888 5.87721 73.8818 5.87721H74.2493V5.70134C74.2493 5.56263 74.2105 5.45198 74.1336 5.36941C74.056 5.28519 73.9385 5.24309 73.7806 5.24309C73.6442 5.24309 73.5325 5.27777 73.4453 5.34712C73.3582 5.41483 73.3147 5.50152 73.3147 5.60721H72.7155C72.7155 5.46024 72.7639 5.32317 72.8609 5.19602C72.9579 5.06721 73.0894 4.96648 73.2555 4.89382C73.4231 4.82116 73.6097 4.78483 73.8152 4.78483C74.1278 4.78483 74.3766 4.86409 74.5625 5.02262C74.7484 5.1795 74.8435 5.40079 74.8487 5.68648V6.89528C74.8487 7.13638 74.8823 7.32877 74.9497 7.47244V7.51455H74.3378ZM73.6796 7.08106C73.7979 7.08106 73.9089 7.05216 74.0121 6.99437C74.1175 6.93657 74.1966 6.85895 74.2493 6.76152V6.25621H73.9261C73.7042 6.25621 73.5374 6.29501 73.4256 6.37263C73.3138 6.45024 73.2579 6.56006 73.2579 6.70207C73.2579 6.81767 73.2957 6.91015 73.3713 6.97951C73.4486 7.04721 73.5513 7.08106 73.6796 7.08106ZM76.1133 7.51455H75.5139V3.70978H76.1133V7.51455ZM77.4051 7.51455H76.8064V4.83437H77.4051V7.51455ZM76.7691 4.13831C76.7691 4.04584 76.7976 3.96905 76.8554 3.90795C76.9147 3.84685 76.9982 3.8163 77.1072 3.8163C77.2155 3.8163 77.299 3.84685 77.3582 3.90795C77.4175 3.96905 77.4475 4.04584 77.4475 4.13831C77.4475 4.22914 77.4175 4.30511 77.3582 4.3662C77.299 4.42565 77.2155 4.45538 77.1072 4.45538C76.9982 4.45538 76.9147 4.42565 76.8554 4.3662C76.7976 4.30511 76.7691 4.22914 76.7691 4.13831ZM79.6541 7.51455C79.6278 7.46336 79.6051 7.37996 79.5853 7.26437C79.3943 7.46418 79.1608 7.56409 78.8849 7.56409C78.617 7.56409 78.3982 7.4873 78.2292 7.33372C78.0594 7.18015 77.9752 6.99024 77.9752 6.764C77.9752 6.47832 78.0798 6.25951 78.2906 6.10758C78.5029 5.954 78.8051 5.87721 79.1982 5.87721H79.5655V5.70134C79.5655 5.56263 79.5268 5.45198 79.4492 5.36941C79.3723 5.28519 79.2545 5.24309 79.0971 5.24309C78.9603 5.24309 78.8483 5.27777 78.7612 5.34712C78.6741 5.41483 78.631 5.50152 78.631 5.60721H78.0316C78.0316 5.46024 78.0799 5.32317 78.1772 5.19602C78.2738 5.06721 78.4055 4.96648 78.5717 4.89382C78.7393 4.82116 78.9259 4.78483 79.1315 4.78483C79.4441 4.78483 79.6929 4.86409 79.8788 5.02262C80.0639 5.1795 80.1598 5.40079 80.1642 5.68648V6.89528C80.1642 7.13638 80.1979 7.32877 80.2659 7.47244V7.51455H79.6541ZM78.9954 7.08106C79.114 7.08106 79.2252 7.05216 79.3284 6.99437C79.4338 6.93657 79.5128 6.85895 79.5655 6.76152V6.25621H79.2421C79.0203 6.25621 78.8534 6.29501 78.7415 6.37263C78.6302 6.45024 78.5739 6.56006 78.5739 6.70207C78.5739 6.81767 78.6119 6.91015 78.6873 6.97951C78.7649 7.04721 78.8673 7.08106 78.9954 7.08106ZM32.6785 6.23812L32.5571 6.91749C32.5223 7.10898 32.4531 7.26591 32.2968 7.19598C31.8808 7.05653 31.3956 6.95204 31.0661 6.95204C30.1126 6.95204 29.7136 7.38747 29.7136 8.69376V10.0175H31.7942C31.9674 10.0175 32.0544 10.1045 32.0544 10.279V11.0628C32.0544 11.2368 31.9678 11.3238 31.7942 11.3238H29.7136V18.4123C29.7136 18.5862 29.627 18.6733 29.4538 18.6733H28.4306C28.2574 18.6733 28.1708 18.5862 28.1708 18.4123V11.3238H27.2692C27.0959 11.3238 27.0094 11.2368 27.0094 11.0628V10.4009L28.1708 10.1049V8.4157C28.1708 6.70893 29.0203 5.61161 30.6675 5.61161C31.2224 5.61161 31.7772 5.73359 32.4361 5.97753C32.5571 6.02915 32.7129 6.09908 32.6785 6.23812ZM41.0769 13.7283V13.7458C41.0769 14.4771 40.7997 14.93 39.898 14.93L34.6972 14.965C34.8356 16.8982 35.9452 17.5252 37.6098 17.4906C38.6847 17.4556 39.6208 16.9332 40.1583 16.5153C40.2971 16.4108 40.4185 16.5153 40.5225 16.6896L40.8863 17.3166C40.9555 17.456 40.8689 17.5605 40.7301 17.6475C40.1753 18.083 39.0486 18.8494 37.2973 18.8494C35.3904 18.8494 33.1018 17.787 33.1018 14.356C33.1018 11.343 34.6967 9.84519 37.1412 9.84519C40.2793 9.84474 41.0769 12.1959 41.0769 13.7283ZM39.5338 13.7283C39.4298 12.0564 38.8231 11.2201 37.0893 11.2201C35.6328 11.2201 34.8356 11.9341 34.6967 13.7283H39.5338ZM50.0518 13.7283V13.7458C50.0518 14.4771 49.7745 14.93 48.8729 14.93L43.6719 14.965C43.8103 16.8982 44.9201 17.5252 46.5846 17.4906C47.6595 17.4556 48.5956 16.9332 49.1331 16.5153C49.2719 16.4108 49.3933 16.5153 49.4973 16.6896L49.8611 17.3166C49.9304 17.456 49.8438 17.5605 49.7049 17.6475C49.1501 18.083 48.0234 18.8494 46.2722 18.8494C44.3652 18.8494 42.0766 17.787 42.0766 14.356C42.0766 11.343 43.6716 9.84519 46.116 9.84519C49.2541 9.84474 50.0518 12.1959 50.0518 13.7283ZM48.5086 13.7283C48.4046 12.0564 47.798 11.2201 46.0642 11.2201C44.6081 11.2201 43.8103 11.9341 43.6716 13.7283H48.5086ZM58.938 10.2808V17.5262C58.938 21.6715 57.7247 23.0298 54.396 23.0298C53.4768 23.0298 52.5064 22.7859 51.969 22.6118C51.8475 22.5768 51.6917 22.4899 51.7261 22.3508L51.8475 21.654C51.8819 21.4625 51.9515 21.323 52.1073 21.3755C52.61 21.515 53.5117 21.7239 54.205 21.7239C56.6494 21.7239 57.3948 20.8705 57.3948 18.049V17.4046C56.8574 17.9969 55.8517 18.8503 54.5344 18.8503C51.7779 18.8503 51.0842 16.3252 51.0842 14.357C51.0842 11.4834 52.8006 9.84621 55.3838 9.84621C56.2333 9.84621 57.6029 9.91569 58.6782 10.0202C58.8339 10.0369 58.938 10.1063 58.938 10.2808ZM57.3948 16.0104V11.2907C56.6664 11.2382 55.9557 11.2211 55.3664 11.2211C53.6675 11.2211 52.6617 12.1616 52.6617 14.3562C52.6617 15.61 52.939 17.4737 54.8289 17.4737C55.7998 17.4737 56.8056 16.6203 57.3948 16.0104ZM59.9444 14.355C59.9444 11.0809 61.7299 9.84416 64.2092 9.84416C66.6711 9.84416 68.4566 11.1854 68.4566 14.355C68.4566 17.2636 66.6711 18.8483 64.2092 18.8483C61.7299 18.8483 59.9444 17.2636 59.9444 14.355ZM66.8791 14.355C66.8791 12.0733 65.8389 11.22 64.2092 11.22C62.5621 11.22 61.5219 12.0733 61.5219 14.355C61.5219 16.6016 62.5621 17.49 64.2092 17.49C65.8389 17.49 66.8791 16.6016 66.8791 14.355ZM80.3315 10.1777L77.4106 18.6045C77.3564 18.7486 77.2671 18.8205 77.1054 18.8205H76.012C75.851 18.8205 75.7617 18.7486 75.7075 18.6045L74.2738 14.4092L72.84 18.6045C72.7862 18.7486 72.6967 18.8205 72.5355 18.8205H71.4423C71.2811 18.8205 71.1912 18.7486 71.1374 18.6045L68.216 10.1777C68.1621 9.99789 68.2337 9.8718 68.431 9.8718H69.6141C69.7753 9.8718 69.883 9.94378 69.9187 10.0878L72.0515 16.9298L73.5391 12.3382L72.8044 10.1777C72.7505 9.99789 72.8222 9.8718 73.0194 9.8718H74.0769C74.2379 9.8718 74.3462 9.94378 74.3814 10.0878L76.4965 16.894L78.6291 10.0878C78.6657 9.94378 78.7726 9.8718 78.9336 9.8718H80.117C80.3139 9.87136 80.3856 9.99752 80.3315 10.1777Z" fill="url(#paint0_linear_14701_14473)"/>
</g>
</g>
<defs>
<linearGradient id="paint0_linear_14701_14473" x1="40.569" y1="0.97168" x2="40.569" y2="23.0298" gradientUnits="userSpaceOnUse">
<stop stop-color="white"/>
<stop offset="1" stop-color="white" stop-opacity="0.8"/>
</linearGradient>
<clipPath id="clip0_14701_14473">
<rect width="79.5614" height="24" fill="white" transform="translate(0.789062)"/>
</clipPath>
</defs>
</svg>
