<svg width="116" height="38" viewBox="0 0 116 38" fill="none" xmlns="http://www.w3.org/2000/svg">
    <path
        d="M14.4838 12.9675V16.8625H23.7011C23.4189 19.0475 22.6978 20.6467 21.6005 21.7708C20.2524 23.1325 18.1519 24.6208 14.4838 24.6208C8.80917 24.6208 4.37296 19.9975 4.37296 14.2658C4.37296 8.53417 8.80917 3.91083 14.4838 3.91083C17.5405 3.91083 19.7821 5.13 21.4281 6.6975L24.14 3.95833C21.8513 1.71 18.7789 0 14.4838 0C6.70863 0 0.171875 6.39667 0.171875 14.25C0.171875 22.1033 6.70863 28.5 14.4838 28.5C18.6849 28.5 21.8513 27.1067 24.3281 24.51C26.8676 21.945 27.667 18.3192 27.667 15.4058C27.667 14.5033 27.6043 13.6642 27.4632 12.9675H14.4838Z"
        fill="white" />
    <path
        d="M39.1897 9.80078C34.1578 9.80078 30.0508 13.6641 30.0508 18.9999C30.0508 24.2883 34.1578 28.1991 39.1897 28.1991C44.2216 28.1991 48.3286 24.3041 48.3286 18.9999C48.3286 13.6641 44.2216 9.80078 39.1897 9.80078ZM39.1897 24.5733C36.4308 24.5733 34.0481 22.2774 34.0481 18.9999C34.0481 15.6908 36.4308 13.4266 39.1897 13.4266C41.9486 13.4266 44.3313 15.6908 44.3313 18.9999C44.3313 22.2774 41.9486 24.5733 39.1897 24.5733Z"
        fill="white" />
    <path
        d="M83.9907 11.8591H83.8497C82.9562 10.7824 81.2318 9.80078 79.0529 9.80078C74.507 9.80078 70.541 13.8066 70.541 18.9999C70.541 24.1616 74.507 28.1991 79.0529 28.1991C81.2318 28.1991 82.9562 27.2174 83.8497 26.1091H83.9907V27.3916C83.9907 30.9066 82.1253 32.7908 79.1313 32.7908C76.6859 32.7908 75.1653 31.0174 74.5383 29.5133L71.0583 30.9699C72.0616 33.4083 74.7107 36.4008 79.1313 36.4008C83.8183 36.4008 87.7843 33.6141 87.7843 26.8216V10.2758H83.9907V11.8591ZM79.3978 24.5733C76.6389 24.5733 74.5383 22.1983 74.5383 18.9999C74.5383 15.7541 76.6389 13.4266 79.3978 13.4266C82.1253 13.4266 84.2572 15.8016 84.2572 19.0316C84.2729 22.2458 82.1253 24.5733 79.3978 24.5733Z"
        fill="white" />
    <path
        d="M59.5667 9.80078C54.5348 9.80078 50.4277 13.6641 50.4277 18.9999C50.4277 24.2883 54.5348 28.1991 59.5667 28.1991C64.5985 28.1991 68.7056 24.3041 68.7056 18.9999C68.7056 13.6641 64.5985 9.80078 59.5667 9.80078ZM59.5667 24.5733C56.8077 24.5733 54.425 22.2774 54.425 18.9999C54.425 15.6908 56.8077 13.4266 59.5667 13.4266C62.3256 13.4266 64.7083 15.6908 64.7083 18.9999C64.7083 22.2774 62.3256 24.5733 59.5667 24.5733Z"
        fill="white" />
    <path d="M90.918 0.379883H94.8525V28.199H90.918V0.379883Z" fill="white" />
    <path
        d="M107.002 24.5733C104.964 24.5733 103.522 23.6391 102.581 21.7866L114.761 16.7041L114.354 15.6591C113.601 13.6008 111.281 9.80078 106.563 9.80078C101.876 9.80078 97.9727 13.5216 97.9727 18.9999C97.9727 24.1616 101.829 28.1991 107.002 28.1991C111.172 28.1991 113.586 25.6183 114.589 24.1299L111.485 22.0399C110.451 23.5599 109.04 24.5733 107.002 24.5733ZM106.72 13.2524C108.334 13.2524 109.714 14.0916 110.168 15.2791L101.939 18.7149C101.939 14.8516 104.65 13.2524 106.72 13.2524Z"
        fill="white" />
</svg>