<svg width="92" height="24" viewBox="0 0 92 24" fill="none" xmlns="http://www.w3.org/2000/svg">
<g clip-path="url(#clip0_14701_14470)">
<path fill-rule="evenodd" clip-rule="evenodd" d="M0.512786 11.9916C0.512786 5.90119 5.50823 0.97168 11.6801 0.97168C17.7615 0.97168 22.7007 5.75773 22.8442 11.7245C22.9874 17.6801 18.0494 22.8314 12.0151 23.0066C9.50681 23.0794 7.15663 22.3313 5.2559 20.999C5.11519 20.9003 4.92379 20.9131 4.80174 21.0336L3.25773 22.5572C2.93379 22.8769 2.5246 23.0283 2.11542 23.0283C1.70624 23.0283 1.28001 22.8769 0.973117 22.5572C0.342294 21.9347 0.342294 20.9253 0.973117 20.3028L2.51692 18.7793C2.63667 18.6612 2.65544 18.4741 2.55721 18.338C1.26427 16.5461 0.512786 14.3615 0.512786 11.9916ZM3.34297 11.9916C3.34297 16.5341 7.3771 20.2186 11.6801 20.2186C16.3505 20.2186 20.1258 16.426 20.0148 11.7925C19.9103 7.42881 16.3039 3.87004 11.8819 3.76687C7.18638 3.65731 3.34297 7.38283 3.34297 11.9916ZM30.9012 10.1925H36.0819V5.30249H38.6722V17.6386H36.0819V12.6374H30.9012V17.6386H28.4235V5.30249H30.9012V10.1925ZM41.6896 9.99208C42.4882 9.19776 43.544 8.76018 44.6638 8.76018C47.3522 8.76018 48.9575 10.4215 48.9575 13.2034C48.9575 13.452 48.9379 13.7112 48.9283 13.8361C48.9253 13.8739 48.9233 13.8992 48.9233 13.9077L48.9228 13.9709L48.8587 13.9714H42.8008C42.884 15.0003 43.7704 15.7675 44.8902 15.7675C45.8386 15.7675 46.4739 15.3483 46.7789 14.5217L46.7996 14.4652L48.8517 15.0667L48.8335 15.1277C48.4407 16.4449 47.1944 17.8527 44.8726 17.8527C43.6675 17.8527 42.5538 17.4238 41.7365 16.6454C40.8536 15.8048 40.3873 14.6383 40.3873 13.2721C40.3873 11.9927 40.8496 10.8274 41.6896 9.99208ZM44.6974 10.7655C43.5982 10.7655 42.9382 11.5461 42.853 12.3044H46.5427C46.4852 11.5481 45.9745 10.7655 44.6974 10.7655ZM60.6759 8.82057C59.4773 8.82057 58.618 9.24895 57.981 10.1664C57.5247 9.3094 56.6067 8.82057 55.4437 8.82057C54.6346 8.82057 53.5685 9.17158 53.0128 9.93754V9.08098H50.6477V17.6384H53.1254V12.6287C53.1254 11.67 53.7543 11.0262 54.6902 11.0262C55.6282 11.0262 56.1662 11.5851 56.1662 12.5601V17.6384H58.5313V12.6287C58.5313 11.6851 59.1474 11.0262 60.03 11.0262C61.2735 11.0262 61.4595 11.9871 61.4595 12.5601V17.6384H63.8246V12.0964C63.8246 11.0341 63.4883 10.1686 62.8528 9.59325C62.3022 9.09496 61.5292 8.82057 60.6759 8.82057ZM68.5039 9.95691C69.0954 9.13547 70.105 8.83695 70.8884 8.83695C72.8213 8.83695 74.0223 10.1445 74.0223 12.2501V17.6374H71.5447V12.6449C71.5447 11.6154 70.9938 11.0251 70.033 11.0251C69.1184 11.0251 68.5039 11.7038 68.5039 12.7135V17.6374H66.0262V9.07994H68.5039V9.95691ZM79.9567 8.76018C78.8369 8.76018 77.7806 9.19776 76.9825 9.99208C76.143 10.8274 75.6807 11.9924 75.6807 13.2721C75.6807 14.6383 76.147 15.8048 77.0299 16.6454C77.8472 17.4238 78.9609 17.8527 80.166 17.8527C82.4873 17.8527 83.7336 16.4449 84.1264 15.1277L84.1445 15.0667L82.093 14.4652L82.0723 14.5217C81.7668 15.3483 81.1315 15.7675 80.1831 15.7675C79.0633 15.7675 78.1769 15.0003 78.0937 13.9714H84.1516L84.2156 13.9709L84.2161 13.9077C84.2161 13.8992 84.2182 13.8739 84.2212 13.8361C84.2308 13.7112 84.2504 13.452 84.2504 13.2034C84.2504 10.4215 82.6451 8.76018 79.9567 8.76018ZM78.0968 12.3044C78.1826 11.5461 78.8426 10.7655 79.9407 10.7655C81.2188 10.7655 81.7296 11.5481 81.787 12.3044H78.0968ZM91.0871 9.0818V11.1934L89.3978 11.1934V14.5989C89.3978 15.2446 89.6578 15.4963 90.3248 15.4963C90.5937 15.4963 90.8943 15.4626 91.0065 15.4314L91.0871 15.4085V17.5094L91.0471 17.5255C90.8557 17.6044 90.4269 17.7367 89.7114 17.7367C87.9894 17.7367 86.9201 16.7118 86.9201 15.0625V11.1934H85.3434V9.0818H85.8555C86.6632 9.0818 87.1453 8.61408 87.1453 7.8308V6.52568H89.3978V9.0818H91.0871ZM16.497 15.6319V9.63981C16.497 9.52636 16.4404 9.4202 16.3456 9.35596L11.7956 6.32622C11.6765 6.24551 11.5194 6.24551 11.4003 6.32622L6.85024 9.35596C6.75548 9.4202 6.69886 9.52636 6.69886 9.63981V15.6269C6.69886 15.8171 6.85511 15.9713 7.04785 15.9713H9.84116C10.0339 15.9713 10.1902 15.8171 10.1902 15.6269V12.7593C10.1902 12.5691 10.3464 12.4149 10.5391 12.4149H12.6567C12.8495 12.4149 13.0057 12.5691 13.0057 12.7593V15.6319C13.0057 15.8193 13.1597 15.9713 13.3496 15.9713H16.1531C16.343 15.9713 16.497 15.8193 16.497 15.6319Z" fill="url(#paint0_linear_14701_14470)"/>
</g>
<defs>
<linearGradient id="paint0_linear_14701_14470" x1="45.7935" y1="0.97168" x2="45.7935" y2="23.0283" gradientUnits="userSpaceOnUse">
<stop stop-color="white"/>
<stop offset="1" stop-color="white" stop-opacity="0.8"/>
</linearGradient>
<clipPath id="clip0_14701_14470">
<rect width="90.5871" height="24" fill="white" transform="translate(0.5)"/>
</clipPath>
</defs>
</svg>
