<svg width="83" height="30" viewBox="0 0 83 30" fill="none" xmlns="http://www.w3.org/2000/svg">
<g clip-path="url(#clip0_14401_14068)">
<g clip-path="url(#clip1_14401_14068)">
<path fill-rule="evenodd" clip-rule="evenodd" d="M26.4586 1.7627H-0.015625V28.2369H26.4586V1.7627ZM10.5303 16.6753C10.3786 16.975 10.5896 17.3285 10.9262 17.3285C11.0572 17.3285 11.1809 17.2716 11.2665 17.1727C11.746 16.6178 13.3185 14.6809 13.4826 12.9763C13.493 12.8837 13.4993 12.7898 13.4993 12.6943C13.4993 12.6168 13.4949 12.5478 13.4887 12.4831C13.3713 11.0616 12.0897 9.96931 10.5955 10.1635C9.45077 10.3125 8.52803 11.2507 8.39735 12.3951C8.23705 13.8019 9.22413 15.0136 10.5452 15.2174C10.7495 15.2492 10.8825 15.4474 10.8254 15.6458L10.5303 16.6753ZM15.5338 12.7008C15.8704 12.7008 16.0813 13.0542 15.9297 13.3539L15.6345 14.3835C15.5775 14.5819 15.7104 14.7801 15.9147 14.8119C17.2357 15.0157 18.2228 16.2274 18.0626 17.634C17.932 18.7785 17.0092 19.7167 15.8644 19.8657C14.3702 20.06 13.0886 18.9677 12.9713 17.5462C12.965 17.4814 12.9606 17.4125 12.9606 17.335C12.9606 17.2396 12.967 17.1456 12.9771 17.0529C13.1415 15.3483 14.7138 13.4115 15.1935 12.8566C15.2792 12.7577 15.4028 12.7008 15.5338 12.7008Z" fill="url(#paint0_linear_14401_14068)"/>
</g>
<path d="M35.4219 9.08691H38.4306L41.6084 16.8398H41.7436L44.9214 9.08691H47.9302V20.6261H45.5637V13.1155H45.468L42.4817 20.5698H40.8703L37.8841 13.0873H37.7883V20.6261H35.4219V9.08691Z" fill="url(#paint1_linear_14401_14068)"/>
<path d="M52.363 20.7895C51.8109 20.7895 51.3188 20.6937 50.8868 20.5022C50.4549 20.3068 50.113 20.0195 49.8614 19.6401C49.6135 19.257 49.4895 18.7799 49.4895 18.209C49.4895 17.7282 49.5778 17.3244 49.7543 16.9976C49.9309 16.6708 50.1713 16.4078 50.4755 16.2088C50.7798 16.0097 51.1253 15.8594 51.5122 15.758C51.9029 15.6566 52.3123 15.5852 52.7405 15.5439C53.2439 15.4913 53.6495 15.4425 53.9576 15.3974C54.2656 15.3486 54.4891 15.2772 54.628 15.1833C54.767 15.0894 54.8365 14.9504 54.8365 14.7664V14.7326C54.8365 14.3757 54.7238 14.0996 54.4985 13.9043C54.2768 13.709 53.9613 13.6113 53.5519 13.6113C53.1199 13.6113 52.7762 13.7071 52.5208 13.8987C52.2654 14.0865 52.0963 14.3231 52.0137 14.6086L49.7938 14.4283C49.9064 13.9024 50.1281 13.4479 50.4586 13.0648C50.7892 12.6779 51.2155 12.3811 51.7376 12.1746C52.2635 11.9642 52.872 11.859 53.5632 11.859C54.044 11.859 54.5041 11.9154 54.9436 12.0281C55.3868 12.1407 55.7793 12.3154 56.1212 12.5521C56.4667 12.7887 56.7391 13.093 56.9381 13.4648C57.1372 13.8329 57.2368 14.2743 57.2368 14.7889V20.6261H54.9605V19.426H54.8929C54.7539 19.6964 54.5679 19.935 54.3351 20.1416C54.1022 20.3444 53.8223 20.504 53.4955 20.6205C53.1687 20.7332 52.7912 20.7895 52.363 20.7895ZM53.0504 19.133C53.4035 19.133 53.7153 19.0635 53.9857 18.9245C54.2562 18.7818 54.4684 18.5902 54.6224 18.3498C54.7764 18.1094 54.8534 17.8371 54.8534 17.5328V16.6144C54.7783 16.6633 54.675 16.7083 54.5435 16.7497C54.4158 16.7872 54.2712 16.8229 54.1097 16.8567C53.9482 16.8868 53.7866 16.9149 53.6251 16.9412C53.4636 16.9638 53.3171 16.9844 53.1857 17.0032C52.9039 17.0445 52.6579 17.1103 52.4475 17.2004C52.2372 17.2906 52.0738 17.4126 51.9574 17.5666C51.8409 17.7169 51.7827 17.9047 51.7827 18.1301C51.7827 18.4569 51.901 18.7067 52.1377 18.8795C52.3781 19.0485 52.6823 19.133 53.0504 19.133Z" fill="url(#paint2_linear_14401_14068)"/>
<path d="M63.7022 11.9717V13.7747H58.4904V11.9717H63.7022ZM59.6736 9.89826H62.0739V17.9667C62.0739 18.1883 62.1077 18.3611 62.1753 18.4851C62.2429 18.6053 62.3368 18.6898 62.457 18.7386C62.581 18.7874 62.7237 18.8118 62.8852 18.8118C62.9979 18.8118 63.1106 18.8025 63.2233 18.7837C63.336 18.7611 63.4224 18.7442 63.4825 18.733L63.86 20.5191C63.7398 20.5566 63.5707 20.5998 63.3529 20.6487C63.135 20.7012 62.8702 20.7332 62.5584 20.7444C61.98 20.767 61.4729 20.69 61.0372 20.5134C60.6052 20.3369 60.269 20.0627 60.0286 19.6908C59.7882 19.3189 59.6699 18.8494 59.6736 18.2822V9.89826Z" fill="url(#paint3_linear_14401_14068)"/>
<path d="M69.1168 20.7951C68.2266 20.7951 67.4603 20.6148 66.818 20.2542C66.1795 19.8899 65.6874 19.3753 65.3418 18.7104C64.9962 18.0418 64.8234 17.2511 64.8234 16.3384C64.8234 15.4481 64.9962 14.6668 65.3418 13.9945C65.6874 13.3221 66.1738 12.7981 66.8011 12.4225C67.4322 12.0468 68.1721 11.859 69.0211 11.859C69.592 11.859 70.1235 11.9511 70.6156 12.1351C71.1114 12.3154 71.5434 12.5877 71.9115 12.9521C72.2834 13.3165 72.5726 13.7747 72.7792 14.3269C72.9858 14.8753 73.0891 15.5176 73.0891 16.2538V16.9131H65.7813V15.4256H70.8297C70.8297 15.08 70.7546 14.7739 70.6043 14.5072C70.4541 14.2405 70.2456 14.032 69.9789 13.8818C69.716 13.7278 69.4098 13.6508 69.0605 13.6508C68.6961 13.6508 68.3731 13.7353 68.0914 13.9043C67.8134 14.0696 67.5956 14.2931 67.4378 14.5748C67.28 14.8528 67.1993 15.1626 67.1955 15.5045V16.9187C67.1955 17.3469 67.2744 17.7169 67.4322 18.0287C67.5937 18.3404 67.8209 18.5808 68.1139 18.7499C68.4069 18.9189 68.7544 19.0034 69.1563 19.0034C69.423 19.0034 69.6671 18.9659 69.8888 18.8907C70.1104 18.8156 70.3001 18.7029 70.4578 18.5527C70.6156 18.4024 70.7358 18.2184 70.8184 18.0005L73.0384 18.147C72.9257 18.6804 72.6947 19.1462 72.3453 19.5443C71.9998 19.9387 71.5528 20.2467 71.0044 20.4683C70.4597 20.6862 69.8305 20.7951 69.1168 20.7951Z" fill="url(#paint4_linear_14401_14068)"/>
<path d="M78.5657 20.7951C77.6905 20.7951 76.9336 20.6092 76.295 20.2373C75.6602 19.8617 75.17 19.3396 74.8245 18.671C74.4789 17.9986 74.3061 17.2192 74.3061 16.3327C74.3061 15.4387 74.4789 14.6574 74.8245 13.9888C75.17 13.3165 75.6602 12.7943 76.295 12.4225C76.9336 12.0468 77.6905 11.859 78.5657 11.859C79.4409 11.859 80.1959 12.0468 80.8307 12.4225C81.4693 12.7943 81.9613 13.3165 82.3069 13.9888C82.6525 14.6574 82.8253 15.4387 82.8253 16.3327C82.8253 17.2192 82.6525 17.9986 82.3069 18.671C81.9613 19.3396 81.4693 19.8617 80.8307 20.2373C80.1959 20.6092 79.4409 20.7951 78.5657 20.7951ZM78.577 18.9358C78.9751 18.9358 79.3076 18.8231 79.5742 18.5977C79.8409 18.3686 80.0419 18.0568 80.1771 17.6624C80.3161 17.268 80.3856 16.8192 80.3856 16.3158C80.3856 15.8125 80.3161 15.3636 80.1771 14.9692C80.0419 14.5748 79.8409 14.263 79.5742 14.0339C79.3076 13.8048 78.9751 13.6902 78.577 13.6902C78.175 13.6902 77.837 13.8048 77.5628 14.0339C77.2923 14.263 77.0876 14.5748 76.9486 14.9692C76.8134 15.3636 76.7458 15.8125 76.7458 16.3158C76.7458 16.8192 76.8134 17.268 76.9486 17.6624C77.0876 18.0568 77.2923 18.3686 77.5628 18.5977C77.837 18.8231 78.175 18.9358 78.577 18.9358Z" fill="url(#paint5_linear_14401_14068)"/>
</g>
<defs>
<linearGradient id="paint0_linear_14401_14068" x1="13.2215" y1="1.7627" x2="13.2215" y2="28.2369" gradientUnits="userSpaceOnUse">
<stop stop-color="white"/>
<stop offset="1" stop-color="white" stop-opacity="0.6"/>
</linearGradient>
<linearGradient id="paint1_linear_14401_14068" x1="59.1236" y1="9.08691" x2="59.1236" y2="20.7951" gradientUnits="userSpaceOnUse">
<stop stop-color="white"/>
<stop offset="1" stop-color="white" stop-opacity="0.6"/>
</linearGradient>
<linearGradient id="paint2_linear_14401_14068" x1="59.1236" y1="9.08691" x2="59.1236" y2="20.7951" gradientUnits="userSpaceOnUse">
<stop stop-color="white"/>
<stop offset="1" stop-color="white" stop-opacity="0.6"/>
</linearGradient>
<linearGradient id="paint3_linear_14401_14068" x1="59.1236" y1="9.08691" x2="59.1236" y2="20.7951" gradientUnits="userSpaceOnUse">
<stop stop-color="white"/>
<stop offset="1" stop-color="white" stop-opacity="0.6"/>
</linearGradient>
<linearGradient id="paint4_linear_14401_14068" x1="59.1236" y1="9.08691" x2="59.1236" y2="20.7951" gradientUnits="userSpaceOnUse">
<stop stop-color="white"/>
<stop offset="1" stop-color="white" stop-opacity="0.6"/>
</linearGradient>
<linearGradient id="paint5_linear_14401_14068" x1="59.1236" y1="9.08691" x2="59.1236" y2="20.7951" gradientUnits="userSpaceOnUse">
<stop stop-color="white"/>
<stop offset="1" stop-color="white" stop-opacity="0.6"/>
</linearGradient>
<clipPath id="clip0_14401_14068">
<rect width="82.8253" height="30" fill="white"/>
</clipPath>
<clipPath id="clip1_14401_14068">
<rect width="26.4742" height="26.4742" fill="white" transform="translate(0 1.7627)"/>
</clipPath>
</defs>
</svg>
