<svg width="75" height="24" viewBox="0 0 75 24" fill="none" xmlns="http://www.w3.org/2000/svg">
<g clip-path="url(#clip0_14701_14472)">
<g clip-path="url(#clip1_14701_14472)">
<path fill-rule="evenodd" clip-rule="evenodd" d="M24.404 0.183594H0.734375V23.8157H24.404V0.183594ZM10.157 13.4943C10.0214 13.7618 10.21 14.0773 10.511 14.0773C10.6281 14.0773 10.7387 14.0265 10.8152 13.9382C11.2439 13.4429 12.6498 11.714 12.7966 10.1924C12.8058 10.1097 12.8115 10.0259 12.8115 9.9406C12.8115 9.8714 12.8076 9.80988 12.802 9.75206C12.697 8.48316 11.5512 7.50816 10.2153 7.68154C9.19185 7.81455 8.36686 8.65203 8.25003 9.67351C8.10671 10.9293 8.98921 12.0109 10.1703 12.1928C10.353 12.2212 10.4719 12.3981 10.4209 12.5752L10.157 13.4943ZM14.6386 9.94732C14.9396 9.94732 15.1281 10.2628 14.9926 10.5303L14.7287 11.4494C14.6777 11.6264 14.7965 11.8034 14.9792 11.8318C16.1603 12.0137 17.0428 13.0953 16.8995 14.3509C16.7828 15.3726 15.9577 16.21 14.9342 16.3431C13.5983 16.5164 12.4525 15.5414 12.3476 14.2725C12.342 14.2147 12.3381 14.1532 12.3381 14.084C12.3381 13.9988 12.3437 13.915 12.3528 13.8322C12.4998 12.3106 13.9055 10.5817 14.3344 10.0864C14.411 9.99812 14.5215 9.94732 14.6386 9.94732Z" fill="url(#paint0_linear_14701_14472)"/>
</g>
<path d="M32.4062 6.7207H35.0963L37.9374 13.6413H38.0583L40.8994 6.7207H43.5894V17.0211H41.4737V10.3168H41.3881L38.7182 16.9708H37.2775L34.6076 10.2916H34.522V17.0211H32.4062V6.7207Z" fill="url(#paint1_linear_14701_14472)"/>
<path d="M47.5527 17.167C47.059 17.167 46.6191 17.0815 46.2329 16.9105C45.8466 16.7361 45.541 16.4796 45.316 16.1409C45.0944 15.7989 44.9836 15.3731 44.9836 14.8635C44.9836 14.4343 45.0625 14.0738 45.2203 13.7821C45.3782 13.4904 45.5931 13.2557 45.8651 13.078C46.1371 12.9003 46.4461 12.7662 46.792 12.6756C47.1413 12.5851 47.5073 12.5214 47.8902 12.4845C48.3402 12.4376 48.7029 12.394 48.9783 12.3537C49.2537 12.3101 49.4535 12.2464 49.5777 12.1626C49.702 12.0788 49.7641 11.9547 49.7641 11.7904V11.7603C49.7641 11.4417 49.6634 11.1953 49.4619 11.0209C49.2637 10.8466 48.9816 10.7594 48.6156 10.7594C48.2294 10.7594 47.9221 10.8449 47.6937 11.0159C47.4654 11.1835 47.3142 11.3948 47.2403 11.6496L45.2556 11.4887C45.3563 11.0192 45.5545 10.6135 45.85 10.2715C46.1455 9.92617 46.5267 9.66128 46.9935 9.47687C47.4637 9.2891 48.0077 9.19521 48.6257 9.19521C49.0555 9.19521 49.4669 9.24551 49.8598 9.3461C50.2561 9.44669 50.6071 9.6026 50.9127 9.81384C51.2216 10.0251 51.4651 10.2967 51.6431 10.6286C51.8211 10.9572 51.9101 11.3512 51.9101 11.8106V17.0211H49.8749V15.9498H49.8145C49.6902 16.1912 49.524 16.4042 49.3158 16.5886C49.1076 16.7696 48.8574 16.9121 48.5652 17.0161C48.273 17.1167 47.9355 17.167 47.5527 17.167ZM48.1672 15.6883C48.4829 15.6883 48.7617 15.6263 49.0035 15.5022C49.2453 15.3748 49.435 15.2038 49.5727 14.9892C49.7104 14.7746 49.7792 14.5315 49.7792 14.2599V13.4401C49.7121 13.4837 49.6197 13.5239 49.5022 13.5608C49.388 13.5943 49.2587 13.6262 49.1143 13.6564C48.9699 13.6832 48.8255 13.7083 48.6811 13.7318C48.5367 13.7519 48.4057 13.7704 48.2881 13.7871C48.0363 13.824 47.8163 13.8827 47.6282 13.9632C47.4402 14.0436 47.2941 14.1526 47.19 14.2901C47.0859 14.4242 47.0338 14.5919 47.0338 14.793C47.0338 15.0848 47.1396 15.3077 47.3512 15.462C47.5661 15.6128 47.8381 15.6883 48.1672 15.6883Z" fill="url(#paint2_linear_14701_14472)"/>
<path d="M57.6906 9.2958V10.9052H53.0309V9.2958H57.6906ZM54.0888 7.44495H56.2348V14.6472C56.2348 14.845 56.265 14.9992 56.3254 15.1099C56.3859 15.2172 56.4698 15.2926 56.5773 15.3362C56.6881 15.3798 56.8157 15.4016 56.9601 15.4016C57.0609 15.4016 57.1616 15.3932 57.2624 15.3765C57.3631 15.3563 57.4404 15.3413 57.4941 15.3312L57.8316 16.9255C57.7242 16.9591 57.573 16.9976 57.3783 17.0412C57.1835 17.0882 56.9467 17.1167 56.668 17.1267C56.1508 17.1468 55.6974 17.0781 55.3079 16.9205C54.9217 16.7629 54.6211 16.5182 54.4062 16.1862C54.1912 15.8543 54.0854 15.4351 54.0888 14.9288V7.44495Z" fill="url(#paint3_linear_14701_14472)"/>
<path d="M62.5316 17.172C61.7357 17.172 61.0506 17.011 60.4763 16.6892C59.9054 16.3639 59.4655 15.9046 59.1565 15.3111C58.8475 14.7142 58.693 14.0084 58.693 13.1937C58.693 12.399 58.8475 11.7016 59.1565 11.1014C59.4655 10.5012 59.9004 10.0335 60.4612 9.69816C61.0254 9.36286 61.687 9.19521 62.446 9.19521C62.9564 9.19521 63.4316 9.27736 63.8716 9.44166C64.3149 9.6026 64.7011 9.8457 65.0302 10.1709C65.3627 10.4962 65.6212 10.9052 65.806 11.3981C65.9907 11.8877 66.083 12.461 66.083 13.1182V13.7067H59.5494V12.3789H64.063C64.063 12.0704 63.9958 11.7971 63.8615 11.5591C63.7272 11.321 63.5408 11.1349 63.3023 11.0008C63.0672 10.8633 62.7935 10.7946 62.4812 10.7946C62.1555 10.7946 61.8666 10.87 61.6148 11.0209C61.3663 11.1685 61.1715 11.368 61.0304 11.6194C60.8894 11.8676 60.8172 12.1442 60.8138 12.4493V13.7117C60.8138 14.0939 60.8843 14.4242 61.0254 14.7025C61.1698 14.9808 61.373 15.1954 61.6349 15.3463C61.8969 15.4972 62.2075 15.5726 62.5669 15.5726C62.8053 15.5726 63.0236 15.5391 63.2217 15.472C63.4199 15.405 63.5895 15.3044 63.7305 15.1703C63.8716 15.0361 63.979 14.8718 64.0529 14.6774L66.0377 14.8081C65.9369 15.2843 65.7304 15.7 65.4181 16.0554C65.1091 16.4075 64.7095 16.6825 64.2191 16.8803C63.7322 17.0748 63.1697 17.172 62.5316 17.172Z" fill="url(#paint4_linear_14701_14472)"/>
<path d="M70.9794 17.172C70.1969 17.172 69.5202 17.006 68.9493 16.6741C68.3818 16.3388 67.9435 15.8727 67.6346 15.2759C67.3256 14.6757 67.1711 13.9799 67.1711 13.1886C67.1711 12.3906 67.3256 11.6932 67.6346 11.0964C67.9435 10.4962 68.3818 10.0301 68.9493 9.69816C69.5202 9.36286 70.1969 9.19521 70.9794 9.19521C71.7619 9.19521 72.4369 9.36286 73.0045 9.69816C73.5754 10.0301 74.0153 10.4962 74.3243 11.0964C74.6333 11.6932 74.7878 12.3906 74.7878 13.1886C74.7878 13.9799 74.6333 14.6757 74.3243 15.2759C74.0153 15.8727 73.5754 16.3388 73.0045 16.6741C72.4369 17.006 71.7619 17.172 70.9794 17.172ZM70.9895 15.5123C71.3455 15.5123 71.6427 15.4117 71.8811 15.2105C72.1196 15.006 72.2993 14.7277 72.4202 14.3756C72.5444 14.0235 72.6065 13.6228 72.6065 13.1735C72.6065 12.7242 72.5444 12.3236 72.4202 11.9715C72.2993 11.6194 72.1196 11.3411 71.8811 11.1366C71.6427 10.9321 71.3455 10.8298 70.9895 10.8298C70.6302 10.8298 70.3279 10.9321 70.0828 11.1366C69.841 11.3411 69.6579 11.6194 69.5337 11.9715C69.4128 12.3236 69.3523 12.7242 69.3523 13.1735C69.3523 13.6228 69.4128 14.0235 69.5337 14.3756C69.6579 14.7277 69.841 15.006 70.0828 15.2105C70.3279 15.4117 70.6302 15.5123 70.9895 15.5123Z" fill="url(#paint5_linear_14701_14472)"/>
</g>
<defs>
<linearGradient id="paint0_linear_14701_14472" x1="12.5692" y1="0.183594" x2="12.5692" y2="23.8157" gradientUnits="userSpaceOnUse">
<stop stop-color="white"/>
<stop offset="1" stop-color="white" stop-opacity="0.8"/>
</linearGradient>
<linearGradient id="paint1_linear_14701_14472" x1="53.597" y1="6.7207" x2="53.597" y2="17.172" gradientUnits="userSpaceOnUse">
<stop stop-color="white"/>
<stop offset="1" stop-color="white" stop-opacity="0.8"/>
</linearGradient>
<linearGradient id="paint2_linear_14701_14472" x1="53.597" y1="6.7207" x2="53.597" y2="17.172" gradientUnits="userSpaceOnUse">
<stop stop-color="white"/>
<stop offset="1" stop-color="white" stop-opacity="0.8"/>
</linearGradient>
<linearGradient id="paint3_linear_14701_14472" x1="53.597" y1="6.7207" x2="53.597" y2="17.172" gradientUnits="userSpaceOnUse">
<stop stop-color="white"/>
<stop offset="1" stop-color="white" stop-opacity="0.8"/>
</linearGradient>
<linearGradient id="paint4_linear_14701_14472" x1="53.597" y1="6.7207" x2="53.597" y2="17.172" gradientUnits="userSpaceOnUse">
<stop stop-color="white"/>
<stop offset="1" stop-color="white" stop-opacity="0.8"/>
</linearGradient>
<linearGradient id="paint5_linear_14701_14472" x1="53.597" y1="6.7207" x2="53.597" y2="17.172" gradientUnits="userSpaceOnUse">
<stop stop-color="white"/>
<stop offset="1" stop-color="white" stop-opacity="0.8"/>
</linearGradient>
<clipPath id="clip0_14701_14472">
<rect width="74.0391" height="24" fill="white" transform="translate(0.75)"/>
</clipPath>
<clipPath id="clip1_14701_14472">
<rect width="23.6696" height="23.6321" fill="white" transform="translate(0.75 0.183594)"/>
</clipPath>
</defs>
</svg>
