<svg width="167" height="48" viewBox="0 0 167 48" fill="none" xmlns="http://www.w3.org/2000/svg">
<g clip-path="url(#clip0_14401_14060)">
<path d="M12.4373 7.32757C10.8077 5.39414 9.40445 3.43049 9.11778 3.02266C9.08759 2.99245 9.04232 2.99245 9.01215 3.02266C8.72546 3.43049 7.32222 5.39414 5.69263 7.32757C-8.29453 25.1665 7.89559 37.2052 7.89559 37.2052L8.03138 37.2959C8.15208 39.1537 8.45386 41.8273 8.45386 41.8273H9.05741H9.66095C9.66095 41.8273 9.96274 39.1688 10.0834 37.2959L10.2192 37.1901C10.2343 37.1901 26.4245 25.1665 12.4373 7.32757ZM9.05741 36.9333C9.05741 36.9333 8.33317 36.314 8.137 35.9967V35.9667L9.01215 16.5416C9.01215 16.4812 9.10269 16.4812 9.10269 16.5416L9.97781 35.9667V35.9967C9.78167 36.314 9.05741 36.9333 9.05741 36.9333Z" fill="url(#paint0_linear_14401_14060)"/>
<path d="M39.3573 32.8517L32.6107 16.4915L32.5956 16.4463H27.3465V17.546H28.1936C28.4508 17.546 28.6928 17.6514 28.8744 17.8322C29.0559 18.013 29.1467 18.2541 29.1467 18.5102L28.9954 34.9757C28.9954 35.4879 28.5719 35.9097 28.0575 35.9248L27.1953 35.9399V37.0245H32.3083V35.9399L31.7788 35.9248C31.2645 35.9097 30.8409 35.4879 30.8409 34.9757V19.4593L38.1927 37.0245C38.2984 37.2806 38.5405 37.4463 38.8128 37.4463C39.0851 37.4463 39.3271 37.2806 39.433 37.0245L46.6184 19.8509L46.7243 34.9757C46.7243 35.503 46.3006 35.9248 45.7712 35.9399H45.2266V37.0245H51.2169V35.9399H50.4C49.8857 35.9399 49.4621 35.503 49.447 34.9908L49.4017 18.5251C49.4017 17.9979 49.8252 17.5761 50.3396 17.5611L51.2169 17.546V16.4463H46.1039L39.3573 32.8517Z" fill="url(#paint1_linear_14401_14060)"/>
<path d="M86.3979 35.7775C86.2309 35.6104 86.14 35.3828 86.14 35.1095V26.9708C86.14 25.4221 85.6851 24.2074 84.775 23.3419C83.8803 22.4765 82.6366 22.0361 81.0897 22.0361C78.9208 22.0361 77.2071 22.9168 76.0089 24.6477C75.9938 24.6781 75.9483 24.6933 75.9029 24.6933C75.8572 24.6933 75.827 24.6629 75.827 24.6173L75.2658 22.4462H74.3254L71.9141 23.8278V24.587H72.5359C72.824 24.587 73.0666 24.6629 73.2336 24.8148C73.4004 24.9666 73.4913 25.1944 73.4913 25.5132V35.0942C73.4913 35.3675 73.4004 35.5953 73.2336 35.7623C73.0666 35.9294 72.8393 36.0205 72.5663 36.0205H71.9595V37.1288H77.5103V36.0205H76.9038C76.6308 36.0205 76.4032 35.9294 76.2364 35.7623C76.0696 35.5953 75.9785 35.3675 75.9785 35.0942V28.7777C75.9785 27.9729 76.1606 27.1683 76.4943 26.3788C76.843 25.6043 77.3587 24.9514 78.0412 24.4504C78.7237 23.9492 79.5427 23.7063 80.483 23.7063C81.5446 23.7063 82.3485 24.0403 82.8489 24.7084C83.3494 25.3766 83.6073 26.242 83.6073 27.2745V35.1095C83.6073 35.3828 83.5162 35.6104 83.3494 35.7775C83.1826 35.9445 82.9551 36.0356 82.6821 36.0356H82.0755V37.144H87.6263V36.0356H87.0197C86.7922 36.0356 86.5798 35.9597 86.3979 35.7775Z" fill="url(#paint2_linear_14401_14060)"/>
<path d="M137.109 17.687C135.575 16.8699 133.86 16.4463 132.009 16.4463H124.789V17.5508H125.496C125.767 17.5508 126.008 17.6567 126.248 17.8988C126.474 18.1257 126.594 18.383 126.594 18.6552V34.9352C126.594 35.2074 126.474 35.4647 126.248 35.6917C126.023 35.9186 125.767 36.0396 125.496 36.0396H124.789V37.1441H132.009C133.86 37.1441 135.575 36.7205 137.109 35.9035C138.643 35.0864 139.892 33.876 140.794 32.3329C141.697 30.7896 142.163 28.9286 142.163 26.8103C142.163 24.6922 141.697 22.8463 140.794 21.2879C139.877 19.7144 138.643 18.504 137.109 17.687ZM139.26 26.7801C139.26 28.7168 138.914 30.3507 138.237 31.6671C137.56 32.9834 136.658 33.9668 135.544 34.6022C134.431 35.2378 133.198 35.5555 131.874 35.5555H130.415C130.144 35.5555 129.904 35.4496 129.663 35.2074C129.437 34.9805 129.317 34.7234 129.317 34.451V19.1092C129.317 18.8368 129.422 18.5948 129.663 18.3526C129.888 18.1257 130.144 18.0047 130.415 18.0047H131.874C133.198 18.0047 134.431 18.3224 135.544 18.9578C136.658 19.5933 137.56 20.5768 138.237 21.8931C138.914 23.2093 139.26 24.8434 139.26 26.7801Z" fill="url(#paint3_linear_14401_14060)"/>
<path d="M159.236 27.8846C158.568 27.1129 157.28 26.4624 155.764 26.1143C157.857 25.0703 158.933 23.6028 158.933 21.7115C158.933 20.6827 158.661 19.7598 158.114 18.9729C157.568 18.1863 156.795 17.5508 155.81 17.112C154.823 16.6732 153.67 16.4463 152.367 16.4463H144.194V17.5508H144.846C145.118 17.5508 145.361 17.6567 145.604 17.8988C145.831 18.1257 145.953 18.383 145.953 18.6552V34.9352C145.953 35.2074 145.831 35.4647 145.604 35.6917C145.376 35.9186 145.118 36.0396 144.846 36.0396H144.133V37.1441H153.004C154.353 37.1441 155.612 36.9172 156.749 36.4632C157.887 36.0094 158.797 35.3437 159.449 34.4661C160.115 33.5886 160.449 32.5143 160.449 31.2736C160.434 29.9422 160.04 28.8227 159.236 27.8846ZM149.061 35.2226C148.834 34.9956 148.712 34.7385 148.712 34.4661V27.1584H152.929C154.414 27.1584 155.551 27.5366 156.34 28.293C157.129 29.0496 157.523 30.033 157.523 31.2434C157.523 31.9697 157.34 32.6808 157.008 33.3313C156.659 33.9972 156.142 34.5267 155.446 34.9352C154.763 35.3437 153.914 35.5555 152.929 35.5555H149.819C149.546 35.5706 149.304 35.4647 149.061 35.2226ZM148.728 25.5999V19.1092C148.728 18.8368 148.834 18.5948 149.076 18.3526C149.304 18.1257 149.562 18.0047 149.835 18.0047H151.836C153.276 18.0047 154.338 18.3679 155.006 19.0637C155.672 19.7749 156.006 20.6827 156.006 21.8023C156.006 22.9522 155.687 23.8752 155.066 24.5712C154.444 25.2519 153.504 25.5999 152.261 25.5999H148.728Z" fill="url(#paint4_linear_14401_14060)"/>
<path d="M65.2631 23.0011C64.1043 22.3679 62.8102 22.0361 61.4107 22.0361C60.0113 22.0361 58.702 22.3528 57.5584 23.0011C56.3996 23.6344 55.4816 24.5542 54.8045 25.7152C54.1274 26.8763 53.7812 28.2334 53.7812 29.7412C53.7812 31.2489 54.1274 32.6061 54.8045 33.7671C55.4816 34.9282 56.3996 35.8479 57.5584 36.4813C58.7172 37.1144 60.0113 37.4462 61.4107 37.4462C62.8102 37.4462 64.1194 37.1295 65.2631 36.4813C66.4219 35.8479 67.3398 34.9282 68.017 33.7671C68.6941 32.6061 69.0402 31.2489 69.0402 29.7412C69.0402 28.2334 68.6941 26.8763 68.017 25.7152C67.3398 24.5392 66.4219 23.6344 65.2631 23.0011ZM66.3767 29.7412C66.3767 31.5958 65.9253 33.1036 65.0223 34.1892C64.1346 35.2749 62.9156 35.8328 61.4107 35.8328C59.906 35.8328 58.6869 35.2749 57.7992 34.1892C56.8962 33.1036 56.4448 31.5958 56.4448 29.7412C56.4448 27.8865 56.8962 26.3788 57.7992 25.2931C58.6869 24.2074 59.906 23.6495 61.4107 23.6495C62.9156 23.6495 64.1346 24.2074 65.0223 25.2931C65.9253 26.3788 66.3767 27.8714 66.3767 29.7412Z" fill="url(#paint5_linear_14401_14060)"/>
<path d="M118.599 23.0011C117.44 22.3679 116.146 22.0361 114.747 22.0361C113.347 22.0361 112.038 22.3528 110.894 23.0011C109.736 23.6344 108.818 24.5542 108.14 25.7152C107.463 26.8763 107.117 28.2334 107.117 29.7412C107.117 31.2489 107.463 32.6061 108.14 33.7671C108.818 34.9282 109.736 35.8479 110.894 36.4813C112.053 37.1144 113.347 37.4462 114.747 37.4462C116.146 37.4462 117.455 37.1295 118.599 36.4813C119.758 35.8479 120.676 34.9282 121.353 33.7671C122.03 32.6061 122.376 31.2489 122.376 29.7412C122.376 28.2334 122.03 26.8763 121.353 25.7152C120.676 24.5392 119.743 23.6344 118.599 23.0011ZM119.713 29.7412C119.713 31.5958 119.261 33.1036 118.358 34.1892C117.47 35.2749 116.251 35.8328 114.747 35.8328C113.242 35.8328 112.023 35.2749 111.135 34.1892C110.232 33.1036 109.781 31.5958 109.781 29.7412C109.781 27.8714 110.232 26.3788 111.135 25.2931C112.023 24.2074 113.242 23.6495 114.747 23.6495C116.251 23.6495 117.47 24.2074 118.358 25.2931C119.246 26.3788 119.713 27.8714 119.713 29.7412Z" fill="url(#paint6_linear_14401_14060)"/>
<path d="M97.0879 22.0361C95.8754 22.0361 94.7692 22.2936 93.7689 22.8086C92.7686 23.3236 91.9805 24.0206 91.4197 24.9142C90.8591 25.7927 90.5711 26.7774 90.5711 27.8226C90.5711 28.7617 90.7832 29.6251 91.2227 30.3978C91.6471 31.14 92.223 31.7609 92.9505 32.276L90.7832 35.2148C90.5104 35.5783 90.4802 36.0629 90.6772 36.4568C90.8893 36.8658 91.2833 37.1082 91.7381 37.1082H92.3594C91.7532 37.5172 91.2682 38.0019 90.9348 38.5775C90.5408 39.2288 90.3438 39.9105 90.3438 40.6072C90.3438 41.91 90.9197 42.9855 92.0562 43.7884C93.1778 44.5912 94.7539 45.0002 96.7392 45.0002C98.1184 45.0002 99.4369 44.7729 100.634 44.3336C101.847 43.8944 102.832 43.243 103.559 42.3948C104.302 41.5465 104.681 40.5164 104.681 39.3348C104.681 38.0928 104.226 37.2141 103.165 36.366C102.256 35.654 100.831 35.2753 99.058 35.2753H92.9959C92.9808 35.2753 92.9656 35.2601 92.9656 35.2601C92.9656 35.2601 92.9505 35.2299 92.9656 35.2148L94.5418 33.0941C94.9662 33.2909 95.3602 33.4121 95.7087 33.4878C96.0724 33.5636 96.4816 33.5938 96.9362 33.5938C98.2094 33.5938 99.3612 33.3364 100.361 32.8214C101.362 32.3063 102.165 31.6096 102.741 30.7158C103.317 29.8373 103.605 28.8527 103.605 27.8075C103.605 26.6865 103.059 24.6415 101.574 23.5963C101.574 23.5812 101.589 23.5812 101.589 23.5812L104.847 23.9447V22.4451H99.6339C98.8155 22.1724 97.9669 22.0361 97.0879 22.0361ZM98.9065 31.5186C98.3305 31.8215 97.7092 31.9882 97.0879 31.9882C96.0725 31.9882 95.1783 31.6247 94.4205 30.9128C93.6628 30.2008 93.2839 29.1556 93.2839 27.8226C93.2839 26.4896 93.6628 25.4443 94.4205 24.7324C95.1783 24.0206 96.0725 23.6569 97.0879 23.6569C97.7244 23.6569 98.3305 23.8084 98.9065 24.1265C99.4824 24.4295 99.9522 24.8991 100.331 25.5202C100.695 26.1413 100.892 26.9137 100.892 27.8226C100.892 28.7466 100.71 29.5191 100.331 30.1251C99.9673 30.7461 99.4824 31.2006 98.9065 31.5186ZM94.7994 37.093H98.9065C100.043 37.093 100.771 37.3202 101.256 37.805C101.741 38.2897 101.983 38.941 101.983 39.6985C101.983 40.8042 101.544 41.7131 100.665 42.3948C99.7854 43.0765 98.6034 43.4249 97.1485 43.4249C95.8754 43.4249 94.8145 43.1371 94.0416 42.5917C93.2686 42.0464 92.8746 41.2132 92.8746 40.1529C92.8746 39.4864 93.0565 38.8653 93.4203 38.32C93.784 37.7746 94.2235 37.3808 94.7994 37.093Z" fill="url(#paint7_linear_14401_14060)"/>
<path d="M163.522 36.8914C163.223 36.7278 162.998 36.4898 162.818 36.2073C162.653 35.91 162.562 35.5977 162.562 35.2557C162.562 34.9136 162.653 34.5865 162.818 34.304C162.982 34.0066 163.223 33.7836 163.522 33.6199C163.822 33.4565 164.152 33.3672 164.527 33.3672C164.901 33.3672 165.231 33.4565 165.531 33.6199C165.83 33.7836 166.055 34.0215 166.235 34.304C166.4 34.6014 166.491 34.9136 166.491 35.2557C166.491 35.5977 166.4 35.9248 166.235 36.2073C166.071 36.5048 165.83 36.7278 165.531 36.8914C165.231 37.0549 164.901 37.1442 164.527 37.1442C164.167 37.1442 163.822 37.0549 163.522 36.8914ZM165.367 36.6683C165.62 36.5346 165.802 36.3264 165.951 36.0884C166.086 35.8357 166.161 35.5532 166.161 35.2409C166.161 34.9286 166.086 34.6461 165.951 34.3932C165.815 34.1404 165.62 33.9472 165.367 33.8133C165.111 33.6795 164.841 33.6051 164.527 33.6051C164.212 33.6051 163.942 33.6795 163.687 33.8133C163.433 33.9472 163.251 34.1554 163.102 34.3932C162.967 34.6461 162.892 34.9286 162.892 35.2409C162.892 35.5532 162.967 35.8357 163.102 36.0884C163.238 36.3412 163.433 36.5346 163.687 36.6683C163.942 36.8021 164.212 36.8765 164.527 36.8765C164.841 36.8765 165.126 36.8171 165.367 36.6683ZM163.717 36.148V36.0141L163.747 35.9991H163.838C163.866 35.9991 163.897 35.9843 163.912 35.9694C163.942 35.9398 163.942 35.9248 163.942 35.895V34.5122C163.942 34.4825 163.927 34.4527 163.912 34.4379C163.881 34.4081 163.866 34.4081 163.838 34.4081H163.747L163.717 34.3932V34.2595L163.747 34.2445H164.527C164.752 34.2445 164.916 34.2891 165.051 34.3932C165.187 34.4973 165.246 34.6311 165.246 34.8095C165.246 34.9434 165.202 35.0773 165.096 35.1664C164.992 35.2705 164.871 35.33 164.721 35.345L164.901 35.4043L165.246 35.9546C165.276 35.9991 165.306 36.0141 165.351 36.0141H165.441L165.456 36.0289V36.1628L165.441 36.1776H164.977L164.947 36.1628L164.466 35.3598H164.347V35.895C164.347 35.9248 164.362 35.9546 164.377 35.9694C164.407 35.9991 164.422 35.9991 164.451 35.9991H164.542L164.572 36.0141V36.148L164.542 36.1628H163.747L163.717 36.148ZM164.481 35.1813C164.602 35.1813 164.706 35.1516 164.767 35.0773C164.826 35.0177 164.871 34.9136 164.871 34.7947C164.871 34.6757 164.841 34.5865 164.782 34.5122C164.721 34.4379 164.631 34.4081 164.527 34.4081H164.466C164.436 34.4081 164.407 34.4229 164.392 34.4379C164.362 34.4675 164.362 34.4825 164.362 34.5122V35.1813H164.481Z" fill="url(#paint8_linear_14401_14060)"/>
</g>
<defs>
<linearGradient id="paint0_linear_14401_14060" x1="9.06476" y1="3" x2="9.06476" y2="41.8273" gradientUnits="userSpaceOnUse">
<stop stop-color="white"/>
<stop offset="1" stop-color="white" stop-opacity="0.6"/>
</linearGradient>
<linearGradient id="paint1_linear_14401_14060" x1="39.2061" y1="16.4463" x2="39.2061" y2="37.4463" gradientUnits="userSpaceOnUse">
<stop stop-color="white"/>
<stop offset="1" stop-color="white" stop-opacity="0.6"/>
</linearGradient>
<linearGradient id="paint2_linear_14401_14060" x1="79.7702" y1="22.0361" x2="79.7702" y2="37.144" gradientUnits="userSpaceOnUse">
<stop stop-color="white"/>
<stop offset="1" stop-color="white" stop-opacity="0.6"/>
</linearGradient>
<linearGradient id="paint3_linear_14401_14060" x1="133.476" y1="16.4463" x2="133.476" y2="37.1441" gradientUnits="userSpaceOnUse">
<stop stop-color="white"/>
<stop offset="1" stop-color="white" stop-opacity="0.6"/>
</linearGradient>
<linearGradient id="paint4_linear_14401_14060" x1="152.291" y1="16.4463" x2="152.291" y2="37.1441" gradientUnits="userSpaceOnUse">
<stop stop-color="white"/>
<stop offset="1" stop-color="white" stop-opacity="0.6"/>
</linearGradient>
<linearGradient id="paint5_linear_14401_14060" x1="61.4107" y1="22.0361" x2="61.4107" y2="37.4462" gradientUnits="userSpaceOnUse">
<stop stop-color="white"/>
<stop offset="1" stop-color="white" stop-opacity="0.6"/>
</linearGradient>
<linearGradient id="paint6_linear_14401_14060" x1="114.747" y1="22.0361" x2="114.747" y2="37.4462" gradientUnits="userSpaceOnUse">
<stop stop-color="white"/>
<stop offset="1" stop-color="white" stop-opacity="0.6"/>
</linearGradient>
<linearGradient id="paint7_linear_14401_14060" x1="97.5955" y1="22.0361" x2="97.5955" y2="45.0002" gradientUnits="userSpaceOnUse">
<stop stop-color="white"/>
<stop offset="1" stop-color="white" stop-opacity="0.6"/>
</linearGradient>
<linearGradient id="paint8_linear_14401_14060" x1="164.527" y1="33.3672" x2="164.527" y2="37.1442" gradientUnits="userSpaceOnUse">
<stop stop-color="white"/>
<stop offset="1" stop-color="white" stop-opacity="0.6"/>
</linearGradient>
<clipPath id="clip0_14401_14060">
<rect width="166.489" height="42" fill="white" transform="translate(0 3)"/>
</clipPath>
</defs>
</svg>
