<svg width="172" height="48" viewBox="0 0 172 48" fill="none" xmlns="http://www.w3.org/2000/svg">
<g clip-path="url(#clip0_14701_14129)">
<path d="M12.7489 6.83688C11.0713 4.84649 9.62675 2.82501 9.33163 2.40516C9.30056 2.37406 9.25395 2.37406 9.22289 2.40516C8.92776 2.82501 7.48319 4.84649 5.80561 6.83688C-8.59351 25.2012 8.07345 37.5946 8.07345 37.5946L8.21324 37.6879C8.33749 39.6004 8.64816 42.3528 8.64816 42.3528H9.26949H9.89081C9.89081 42.3528 10.2015 39.616 10.3257 37.6879L10.4655 37.579C10.4811 37.579 27.1481 25.2012 12.7489 6.83688ZM9.26949 37.3146C9.26949 37.3146 8.52391 36.6771 8.32197 36.3505V36.3196L9.22289 16.3223C9.22289 16.2601 9.3161 16.2601 9.3161 16.3223L10.217 36.3196V36.3505C10.0151 36.6771 9.26949 37.3146 9.26949 37.3146Z" fill="url(#paint0_linear_14701_14129)"/>
<path d="M40.4734 33.1132L33.5281 16.2711L33.5125 16.2246H28.1088V17.3567H28.9809C29.2456 17.3567 29.4947 17.4653 29.6817 17.6514C29.8685 17.8375 29.9619 18.0857 29.9619 18.3493L29.8063 35.2998C29.8063 35.827 29.3703 36.2613 28.8407 36.2768L27.9531 36.2924V37.4089H33.2167V36.2924L32.6716 36.2768C32.1421 36.2613 31.706 35.827 31.706 35.2998V19.3263L39.2744 37.4089C39.3833 37.6726 39.6324 37.8432 39.9128 37.8432C40.1931 37.8432 40.4423 37.6726 40.5513 37.4089L47.9482 19.7295L48.0573 35.2998C48.0573 35.8426 47.6211 36.2768 47.0762 36.2924H46.5155V37.4089H52.6822V36.2924H51.8413C51.3118 36.2924 50.8757 35.8426 50.8602 35.3154L50.8135 18.3647C50.8135 17.822 51.2495 17.3877 51.7791 17.3722L52.6822 17.3567V16.2246H47.4187L40.4734 33.1132Z" fill="url(#paint1_linear_14701_14129)"/>
<path d="M88.887 36.1237C88.7151 35.9517 88.6215 35.7173 88.6215 35.4359V27.0576C88.6215 25.4633 88.1532 24.2128 87.2163 23.3218C86.2952 22.4309 85.0149 21.9775 83.4225 21.9775C81.1897 21.9775 79.4255 22.8841 78.192 24.666C78.1765 24.6973 78.1297 24.713 78.0828 24.713C78.0359 24.713 78.0048 24.6817 78.0048 24.6348L77.427 22.3996H76.459L73.9766 23.822V24.6035H74.6167C74.9133 24.6035 75.1631 24.6817 75.335 24.838C75.5067 24.9943 75.6003 25.2289 75.6003 25.557V35.4202C75.6003 35.7016 75.5067 35.9361 75.335 36.108C75.1631 36.28 74.929 36.3738 74.648 36.3738H74.0234V37.5148H79.7377V36.3738H79.1132C78.8322 36.3738 78.5979 36.28 78.4262 36.108C78.2545 35.9361 78.1608 35.7016 78.1608 35.4202V28.9177C78.1608 28.0892 78.3482 27.2609 78.6917 26.4481C79.0507 25.6508 79.5815 24.9786 80.2842 24.4629C80.9867 23.947 81.8298 23.6969 82.7979 23.6969C83.8908 23.6969 84.7183 24.0408 85.2334 24.7285C85.7487 25.4164 86.0142 26.3073 86.0142 27.3702V35.4359C86.0142 35.7173 85.9204 35.9517 85.7487 36.1237C85.577 36.2956 85.3428 36.3893 85.0617 36.3893H84.4373V37.5305H90.1516V36.3893H89.5271C89.2929 36.3893 89.0742 36.3113 88.887 36.1237Z" fill="url(#paint2_linear_14701_14129)"/>
<path d="M141.105 17.5018C139.525 16.6607 137.76 16.2246 135.855 16.2246H128.422V17.3616H129.15C129.428 17.3616 129.676 17.4707 129.924 17.7199C130.156 17.9535 130.28 18.2183 130.28 18.4986V35.2581C130.28 35.5384 130.156 35.8032 129.924 36.0369C129.692 36.2705 129.428 36.395 129.15 36.395H128.422V37.5321H135.855C137.76 37.5321 139.525 37.096 141.105 36.2549C142.684 35.4138 143.969 34.1677 144.899 32.5791C145.828 30.9904 146.308 29.0746 146.308 26.8939C146.308 24.7134 145.828 22.8131 144.899 21.2089C143.954 19.589 142.684 18.3429 141.105 17.5018ZM143.319 26.8628C143.319 28.8565 142.963 30.5386 142.266 31.8937C141.569 33.2488 140.64 34.2612 139.494 34.9153C138.348 35.5696 137.078 35.8967 135.716 35.8967H134.213C133.935 35.8967 133.687 35.7877 133.439 35.5384C133.207 35.3048 133.083 35.0401 133.083 34.7596V18.966C133.083 18.6855 133.191 18.4364 133.439 18.1871C133.671 17.9535 133.935 17.8289 134.213 17.8289H135.716C137.078 17.8289 138.348 18.156 139.494 18.8101C140.64 19.4643 141.569 20.4768 142.266 21.8319C142.963 23.1869 143.319 24.8691 143.319 26.8628Z" fill="url(#paint3_linear_14701_14129)"/>
<path d="M163.876 27.9999C163.189 27.2054 161.862 26.5357 160.302 26.1774C162.456 25.1027 163.564 23.5919 163.564 21.645C163.564 20.5858 163.284 19.6357 162.721 18.8257C162.159 18.0158 161.363 17.3616 160.349 16.9099C159.333 16.4582 158.147 16.2246 156.804 16.2246H148.391V17.3616H149.062C149.343 17.3616 149.593 17.4707 149.842 17.7199C150.077 17.9535 150.201 18.2183 150.201 18.4986V35.2581C150.201 35.5384 150.077 35.8032 149.842 36.0369C149.608 36.2705 149.343 36.395 149.062 36.395H148.328V37.5321H157.461C158.85 37.5321 160.145 37.2985 161.316 36.8311C162.487 36.3639 163.424 35.6787 164.096 34.7752C164.782 33.8719 165.125 32.7659 165.125 31.4887C165.11 30.118 164.704 28.9656 163.876 27.9999ZM153.402 35.5539C153.167 35.3203 153.043 35.0556 153.043 34.7752V27.2523H157.383C158.912 27.2523 160.083 27.6415 160.895 28.4203C161.707 29.1992 162.113 30.2115 162.113 31.4576C162.113 32.2052 161.924 32.9373 161.582 33.607C161.223 34.2924 160.691 34.8376 159.974 35.2581C159.271 35.6787 158.397 35.8967 157.383 35.8967H154.182C153.901 35.9123 153.651 35.8032 153.402 35.5539ZM153.058 25.6478V18.966C153.058 18.6855 153.167 18.4364 153.417 18.1871C153.651 17.9535 153.917 17.8289 154.198 17.8289H156.259C157.741 17.8289 158.834 18.2028 159.522 18.9192C160.207 19.6512 160.551 20.5858 160.551 21.7384C160.551 22.9222 160.223 23.8723 159.584 24.5888C158.943 25.2896 157.976 25.6478 156.696 25.6478H153.058Z" fill="url(#paint4_linear_14701_14129)"/>
<path d="M67.1403 22.9709C65.9474 22.3191 64.6152 21.9775 63.1745 21.9775C61.7339 21.9775 60.386 22.3035 59.2087 22.9709C58.0158 23.6229 57.0708 24.5697 56.3737 25.765C55.6766 26.9602 55.3203 28.3573 55.3203 29.9095C55.3203 31.4617 55.6766 32.8588 56.3737 34.0541C57.0708 35.2493 58.0158 36.1962 59.2087 36.8482C60.4016 37.5 61.7339 37.8415 63.1745 37.8415C64.6152 37.8415 65.963 37.5155 67.1403 36.8482C68.3333 36.1962 69.2782 35.2493 69.9753 34.0541C70.6724 32.8588 71.0287 31.4617 71.0287 29.9095C71.0287 28.3573 70.6724 26.9602 69.9753 25.765C69.2782 24.5543 68.3333 23.6229 67.1403 22.9709ZM68.2868 29.9095C68.2868 31.8188 67.822 33.371 66.8924 34.4886C65.9785 35.6063 64.7237 36.1806 63.1745 36.1806C61.6255 36.1806 60.3705 35.6063 59.4566 34.4886C58.527 33.371 58.0623 31.8188 58.0623 29.9095C58.0623 28.0003 58.527 26.4481 59.4566 25.3304C60.3705 24.2128 61.6255 23.6384 63.1745 23.6384C64.7237 23.6384 65.9785 24.2128 66.8924 25.3304C67.822 26.4481 68.2868 27.9847 68.2868 29.9095Z" fill="url(#paint5_linear_14701_14129)"/>
<path d="M122.047 22.9709C120.854 22.3191 119.521 21.9775 118.081 21.9775C116.64 21.9775 115.292 22.3035 114.115 22.9709C112.922 23.6229 111.977 24.5697 111.28 25.765C110.583 26.9602 110.227 28.3573 110.227 29.9095C110.227 31.4617 110.583 32.8588 111.28 34.0541C111.977 35.2493 112.922 36.1962 114.115 36.8482C115.308 37.5 116.64 37.8415 118.081 37.8415C119.521 37.8415 120.869 37.5155 122.047 36.8482C123.24 36.1962 124.184 35.2493 124.882 34.0541C125.579 32.8588 125.935 31.4617 125.935 29.9095C125.935 28.3573 125.579 26.9602 124.882 25.765C124.184 24.5543 123.224 23.6229 122.047 22.9709ZM123.193 29.9095C123.193 31.8188 122.728 33.371 121.799 34.4886C120.885 35.6063 119.63 36.1806 118.081 36.1806C116.532 36.1806 115.277 35.6063 114.363 34.4886C113.433 33.371 112.969 31.8188 112.969 29.9095C112.969 27.9847 113.433 26.4481 114.363 25.3304C115.277 24.2128 116.532 23.6384 118.081 23.6384C119.63 23.6384 120.885 24.2128 121.799 25.3304C122.713 26.4481 123.193 27.9847 123.193 29.9095Z" fill="url(#paint6_linear_14701_14129)"/>
<path d="M99.8959 21.9775C98.6477 21.9775 97.5089 22.2426 96.4791 22.7728C95.4494 23.303 94.6381 24.0204 94.0608 24.9404C93.4836 25.8448 93.1872 26.8585 93.1872 27.9345C93.1872 28.9012 93.4056 29.7901 93.858 30.5855C94.2949 31.3496 94.8878 31.9888 95.6366 32.519L93.4056 35.5443C93.1247 35.9186 93.0936 36.4175 93.2964 36.823C93.5147 37.244 93.9204 37.4936 94.3885 37.4936H95.0282C94.4041 37.9146 93.9048 38.4136 93.5616 39.0061C93.1559 39.6766 92.9531 40.3784 92.9531 41.0957C92.9531 42.4368 93.546 43.544 94.716 44.3705C95.8707 45.197 97.4932 45.618 99.537 45.618C100.957 45.618 102.314 45.3841 103.547 44.9318C104.795 44.4797 105.809 43.809 106.558 42.9359C107.322 42.0626 107.712 41.0022 107.712 39.7858C107.712 38.5072 107.244 37.6026 106.152 36.7295C105.216 35.9965 103.749 35.6067 101.924 35.6067H95.6834C95.6679 35.6067 95.6522 35.591 95.6522 35.591C95.6522 35.591 95.6366 35.5599 95.6522 35.5443L97.2748 33.3612C97.7117 33.5638 98.1173 33.6886 98.4761 33.7665C98.8505 33.8446 99.2718 33.8757 99.7398 33.8757C101.05 33.8757 102.236 33.6107 103.266 33.0805C104.296 32.5503 105.122 31.833 105.715 30.9128C106.308 30.0084 106.605 28.9949 106.605 27.9189C106.605 26.7649 106.043 24.6596 104.514 23.5837C104.514 23.5681 104.53 23.5681 104.53 23.5681L107.884 23.9423V22.3986H102.517C101.674 22.1178 100.801 21.9775 99.8959 21.9775ZM101.768 31.7393C101.175 32.0512 100.535 32.2227 99.8959 32.2227C98.8506 32.2227 97.93 31.8485 97.1499 31.1157C96.3699 30.3826 95.9799 29.3067 95.9799 27.9345C95.9799 26.5622 96.3699 25.4861 97.1499 24.7533C97.93 24.0204 98.8506 23.6461 99.8959 23.6461C100.551 23.6461 101.175 23.8021 101.768 24.1294C102.361 24.4414 102.845 24.9248 103.235 25.5642C103.609 26.2036 103.812 26.9988 103.812 27.9345C103.812 28.8857 103.625 29.6809 103.235 30.3047C102.86 30.9441 102.361 31.4119 101.768 31.7393ZM97.54 37.4779H101.768C102.938 37.4779 103.687 37.7118 104.186 38.2109C104.686 38.7098 104.935 39.3803 104.935 40.1601C104.935 41.2985 104.483 42.2341 103.578 42.9359C102.673 43.6376 101.456 43.9963 99.9583 43.9963C98.6477 43.9963 97.5555 43.7 96.7599 43.1385C95.9642 42.5772 95.5585 41.7195 95.5585 40.628C95.5585 39.9418 95.7458 39.3024 96.1203 38.7411C96.4947 38.1796 96.9471 37.7742 97.54 37.4779Z" fill="url(#paint7_linear_14701_14129)"/>
<path d="M168.277 37.2735C167.969 37.1051 167.737 36.8601 167.552 36.5693C167.382 36.2632 167.289 35.9417 167.289 35.5896C167.289 35.2375 167.382 34.9008 167.552 34.6099C167.721 34.3037 167.969 34.0741 168.277 33.9057C168.586 33.7374 168.925 33.6455 169.311 33.6455C169.697 33.6455 170.036 33.7374 170.345 33.9057C170.653 34.0741 170.885 34.3191 171.07 34.6099C171.24 34.916 171.333 35.2375 171.333 35.5896C171.333 35.9417 171.24 36.2785 171.07 36.5693C170.9 36.8755 170.653 37.1051 170.345 37.2735C170.036 37.4418 169.697 37.5337 169.311 37.5337C168.941 37.5337 168.586 37.4418 168.277 37.2735ZM170.176 37.0438C170.437 36.9062 170.624 36.6919 170.778 36.4469C170.916 36.1867 170.994 35.8959 170.994 35.5744C170.994 35.2529 170.916 34.9621 170.778 34.7017C170.638 34.4415 170.437 34.2426 170.176 34.1048C169.913 33.967 169.634 33.8905 169.311 33.8905C168.987 33.8905 168.709 33.967 168.446 34.1048C168.185 34.2426 167.998 34.4569 167.844 34.7017C167.706 34.9621 167.628 35.2529 167.628 35.5744C167.628 35.8959 167.706 36.1867 167.844 36.4469C167.984 36.7071 168.185 36.9062 168.446 37.0438C168.709 37.1816 168.987 37.2581 169.311 37.2581C169.634 37.2581 169.928 37.197 170.176 37.0438ZM168.477 36.5082V36.3704L168.508 36.355H168.602C168.631 36.355 168.662 36.3397 168.678 36.3243C168.709 36.2939 168.709 36.2785 168.709 36.2478V34.8243C168.709 34.7936 168.693 34.763 168.678 34.7477C168.647 34.7171 168.631 34.7171 168.602 34.7171H168.508L168.477 34.7017V34.5641L168.508 34.5487H169.311C169.543 34.5487 169.712 34.5945 169.851 34.7017C169.991 34.8089 170.051 34.9467 170.051 35.1303C170.051 35.2681 170.006 35.4059 169.897 35.4977C169.79 35.6049 169.666 35.6661 169.512 35.6815L169.697 35.7427L170.051 36.3091C170.082 36.355 170.113 36.3704 170.16 36.3704H170.252L170.267 36.3856V36.5234L170.252 36.5387H169.774L169.743 36.5234L169.249 35.6968H169.126V36.2478C169.126 36.2785 169.141 36.3091 169.157 36.3243C169.188 36.355 169.204 36.355 169.233 36.355H169.326L169.358 36.3704V36.5082L169.326 36.5234H168.508L168.477 36.5082ZM169.264 35.5131C169.389 35.5131 169.496 35.4825 169.558 35.4059C169.619 35.3447 169.666 35.2375 169.666 35.1151C169.666 34.9925 169.634 34.9008 169.574 34.8243C169.512 34.7477 169.418 34.7171 169.311 34.7171H169.249C169.218 34.7171 169.188 34.7323 169.173 34.7477C169.141 34.7782 169.141 34.7936 169.141 34.8243V35.5131H169.264Z" fill="url(#paint8_linear_14701_14129)"/>
</g>
<defs>
<linearGradient id="paint0_linear_14701_14129" x1="9.27705" y1="2.38184" x2="9.27705" y2="42.3528" gradientUnits="userSpaceOnUse">
<stop stop-color="white"/>
<stop offset="1" stop-color="white" stop-opacity="0.8"/>
</linearGradient>
<linearGradient id="paint1_linear_14701_14129" x1="40.3177" y1="16.2246" x2="40.3177" y2="37.8432" gradientUnits="userSpaceOnUse">
<stop stop-color="white"/>
<stop offset="1" stop-color="white" stop-opacity="0.8"/>
</linearGradient>
<linearGradient id="paint2_linear_14701_14129" x1="82.0641" y1="21.9775" x2="82.0641" y2="37.5305" gradientUnits="userSpaceOnUse">
<stop stop-color="white"/>
<stop offset="1" stop-color="white" stop-opacity="0.8"/>
</linearGradient>
<linearGradient id="paint3_linear_14701_14129" x1="137.365" y1="16.2246" x2="137.365" y2="37.5321" gradientUnits="userSpaceOnUse">
<stop stop-color="white"/>
<stop offset="1" stop-color="white" stop-opacity="0.8"/>
</linearGradient>
<linearGradient id="paint4_linear_14701_14129" x1="156.727" y1="16.2246" x2="156.727" y2="37.5321" gradientUnits="userSpaceOnUse">
<stop stop-color="white"/>
<stop offset="1" stop-color="white" stop-opacity="0.8"/>
</linearGradient>
<linearGradient id="paint5_linear_14701_14129" x1="63.1745" y1="21.9775" x2="63.1745" y2="37.8415" gradientUnits="userSpaceOnUse">
<stop stop-color="white"/>
<stop offset="1" stop-color="white" stop-opacity="0.8"/>
</linearGradient>
<linearGradient id="paint6_linear_14701_14129" x1="118.081" y1="21.9775" x2="118.081" y2="37.8415" gradientUnits="userSpaceOnUse">
<stop stop-color="white"/>
<stop offset="1" stop-color="white" stop-opacity="0.8"/>
</linearGradient>
<linearGradient id="paint7_linear_14701_14129" x1="100.419" y1="21.9775" x2="100.419" y2="45.618" gradientUnits="userSpaceOnUse">
<stop stop-color="white"/>
<stop offset="1" stop-color="white" stop-opacity="0.8"/>
</linearGradient>
<linearGradient id="paint8_linear_14701_14129" x1="169.311" y1="33.6455" x2="169.311" y2="37.5337" gradientUnits="userSpaceOnUse">
<stop stop-color="white"/>
<stop offset="1" stop-color="white" stop-opacity="0.8"/>
</linearGradient>
<clipPath id="clip0_14701_14129">
<rect width="171" height="48" fill="white" transform="translate(0.140625)"/>
</clipPath>
</defs>
</svg>
