<svg width="80" height="30" viewBox="0 0 80 30" fill="none" xmlns="http://www.w3.org/2000/svg">
<g clip-path="url(#clip0_14401_14072)">
<path fill-rule="evenodd" clip-rule="evenodd" d="M76.8324 9.33441C78.3326 9.33441 79.5487 8.1184 79.5487 6.61838C79.5487 5.11835 78.3326 3.90234 76.8324 3.90234C75.3323 3.90234 74.1162 5.11835 74.1162 6.61838C74.1162 8.1184 75.3323 9.33441 76.8324 9.33441ZM59.1852 15.7474L66.8023 15.7474V15.7479C68.2989 15.7521 69.5109 17.0133 69.5109 18.5683C69.5109 20.1196 68.3049 21.3783 66.8134 21.3888V21.3879L59.1953 21.3879V25.9007L66.8023 25.9007V25.9014C70.698 25.8958 73.8544 22.6147 73.8544 18.5681C73.8544 14.5254 70.704 11.2467 66.8134 11.2349V11.2346H59.1852V15.7474ZM49.9574 11.2348C46.0573 11.2348 42.8956 14.3961 42.8953 18.2959H47.2388C47.2396 16.7965 48.4553 15.5813 49.955 15.5813C51.4546 15.5813 52.6704 16.7965 52.6712 18.2959H57.0195C57.0192 14.3961 53.8575 11.2348 49.9574 11.2348ZM42.8922 18.2964H47.2381V25.9013H42.8922V18.2964ZM52.6716 18.2964H57.0175V25.9013H52.6716V18.2964ZM-0.0625 18.2905V18.2968V25.8954H4.28343V18.2905H4.28103C4.28512 16.794 5.49963 15.5821 6.99722 15.5821C8.49689 15.5821 9.7127 16.7974 9.71343 18.2968H9.72656V25.8951H14.0966V18.297H14.1006C14.1014 16.7977 15.3171 15.5824 16.8168 15.5824C18.3164 15.5824 19.5322 16.7977 19.533 18.297H19.5346V25.8849H23.8805V18.297H23.8813C23.881 14.3973 20.7193 11.236 16.8192 11.236C14.9115 11.236 13.1805 11.9923 11.9097 13.2215C10.6388 11.992 8.90758 11.2355 6.99963 11.2355C3.10154 11.2355 -0.0589105 14.3935 -0.0625 18.2905ZM30.6535 11.2453V18.8413H30.6536V18.8424C30.6536 20.3424 31.8697 21.5584 33.3698 21.5584C34.8699 21.5584 36.086 20.3424 36.086 18.8424V18.8413H36.0879V11.2453H40.4338V18.8413H40.4343V18.8422C40.4343 22.7423 37.2725 25.9039 33.3722 25.9039C29.4745 25.9039 26.3144 22.7466 26.3101 18.8502H26.3076V11.2453H30.6535ZM74.6602 11.2355H79.0061V25.9021H74.6602V11.2355Z" fill="url(#paint0_linear_14401_14072)"/>
</g>
<defs>
<linearGradient id="paint0_linear_14401_14072" x1="39.7431" y1="3.90234" x2="39.7431" y2="25.9039" gradientUnits="userSpaceOnUse">
<stop stop-color="white"/>
<stop offset="1" stop-color="white" stop-opacity="0.6"/>
</linearGradient>
<clipPath id="clip0_14401_14072">
<rect width="80" height="30" fill="white"/>
</clipPath>
</defs>
</svg>
