<svg width="75" height="24" viewBox="0 0 75 24" fill="none" xmlns="http://www.w3.org/2000/svg">
<g clip-path="url(#clip0_14701_14474)">
<path fill-rule="evenodd" clip-rule="evenodd" d="M71.8785 6.81636C73.2737 6.81636 74.4048 5.6844 74.4048 4.28806C74.4048 2.89172 73.2737 1.75977 71.8785 1.75977C70.4832 1.75977 69.3521 2.89172 69.3521 4.28806C69.3521 5.6844 70.4832 6.81636 71.8785 6.81636ZM6.92003 8.58136C8.6909 8.58136 10.2981 9.28268 11.4794 10.4229C12.6607 9.28268 14.2679 8.58136 16.0388 8.58136C19.6616 8.58136 22.5994 11.5166 22.6072 15.1403H22.6109V22.2196H18.5688V15.1553H18.56C18.5597 13.7592 17.4287 12.6276 16.0337 12.6276C14.6399 12.6276 13.5097 13.7572 13.5074 15.1516H13.5232V22.2308H9.45863V15.1563H9.44127C9.44093 13.7602 8.30998 12.6286 6.91494 12.6286C5.52146 12.6286 4.39149 13.7577 4.38861 15.1516H4.3949V22.2308H0.352768V15.1563H0.351562V15.1549C0.351562 11.5244 3.29237 8.58136 6.92003 8.58136ZM31.4046 22.2412C35.0293 22.2412 37.9682 19.303 37.9731 15.6766H38.0101V8.59739H33.968V15.6655H33.9259V15.6666C33.9259 17.0629 32.7948 18.1949 31.3995 18.1949C30.0076 18.1949 28.8786 17.0684 28.8732 15.6766H28.9043V8.59739H24.8621V15.6655H24.8362V15.6676C24.8362 19.2981 27.777 22.2412 31.4046 22.2412ZM46.8903 8.58294C50.5177 8.58294 53.4583 11.5256 53.4587 15.1558H49.4115C49.4106 13.7602 48.2799 12.6292 46.8852 12.6292C45.4905 12.6292 44.3597 13.7602 44.3588 15.1558H40.3218C40.3222 11.5256 43.2628 8.58294 46.8903 8.58294ZM40.3058 15.1572H44.3479V22.2364H40.3058V15.1572ZM49.4035 15.1572H53.4456V22.2364H49.4035V15.1572ZM62.5422 8.58411C66.1663 8.58846 69.1029 11.6431 69.1029 15.4105C69.1029 19.1756 66.1699 22.2288 62.5489 22.2369V22.2374H55.4633V18.0366H62.5422V18.035C63.9362 18.0335 65.0659 16.8586 65.0659 15.4094C65.0659 13.9626 63.9398 12.7891 62.5489 12.7839V12.7856L55.4539 12.7856V8.58474L62.5422 8.58474V8.58411ZM69.8517 8.58711H73.8938V22.2399H69.8517V8.58711Z" fill="url(#paint0_linear_14701_14474)"/>
</g>
<defs>
<linearGradient id="paint0_linear_14701_14474" x1="37.3782" y1="1.75977" x2="37.3782" y2="22.2412" gradientUnits="userSpaceOnUse">
<stop stop-color="white"/>
<stop offset="1" stop-color="white" stop-opacity="0.8"/>
</linearGradient>
<clipPath id="clip0_14701_14474">
<rect width="74.0533" height="24" fill="white" transform="translate(0.351562)"/>
</clipPath>
</defs>
</svg>
