<svg width="75" height="24" viewBox="0 0 75 24" fill="none" xmlns="http://www.w3.org/2000/svg">
<g clip-path="url(#clip0_14701_14469)">
<mask id="mask0_14701_14469" style="mask-type:luminance" maskUnits="userSpaceOnUse" x="0" y="1" width="75" height="22">
<path d="M74.5022 1.47852H0.101562V22.5215H74.5022V1.47852Z" fill="white"/>
</mask>
<g mask="url(#mask0_14701_14469)">
<path fill-rule="evenodd" clip-rule="evenodd" d="M60.5804 2.45758C61.3751 2.87378 62.0724 3.40255 62.6631 4.03552C62.8259 4.21046 62.7662 4.49019 62.5577 4.58862L61.591 5.04541C61.4602 5.10724 61.3075 5.07877 61.2066 4.97943C60.7889 4.57019 60.3082 4.22183 59.7648 3.9374L59.7631 3.93646L59.762 3.93582L59.7603 3.9349L59.7597 3.93483C58.7818 3.42881 57.7053 3.18185 56.5526 3.18185C55.41 3.18185 54.3477 3.42982 53.3895 3.94111L53.384 3.94405L53.3785 3.94704C52.8625 4.23029 52.4059 4.57393 52.0102 4.97465C51.9089 5.07728 51.7537 5.10749 51.6207 5.04431L50.66 4.58759C50.454 4.48967 50.3934 4.21387 50.5525 4.03841C51.1127 3.42056 51.7756 2.89898 52.5333 2.48312L52.5476 2.47527L52.5623 2.46747C53.7955 1.8094 55.1464 1.50195 56.5526 1.50195C57.9651 1.50195 59.3218 1.80663 60.5663 2.45031L60.5674 2.45067L60.5731 2.45356L60.5804 2.45758ZM8.1591 5.98724C7.46379 5.61335 6.67306 5.4264 5.78684 5.4264C5.11879 5.4264 4.48481 5.55795 3.88493 5.82106C3.40281 6.03744 2.98984 6.32405 2.64603 6.68091C2.57092 6.75886 2.43293 6.70698 2.43293 6.5979V5.72961C2.43293 5.6654 2.38169 5.61335 2.31847 5.61335H0.216025C0.152809 5.61335 0.101562 5.6654 0.101562 5.72961V16.9423C0.101562 17.0064 0.152809 17.0585 0.216025 17.0585H2.31847C2.38169 17.0585 2.43293 17.0064 2.43293 16.9423V10.6609C2.43293 9.63612 2.68516 8.85372 3.18961 8.31365C3.70769 7.75977 4.40302 7.4828 5.27558 7.4828C6.14814 7.4828 6.83662 7.75977 7.34108 8.31365C7.84554 8.85372 8.09777 9.63612 8.09777 10.6609V16.9423C8.09777 17.0064 8.14901 17.0585 8.21225 17.0585H10.2942C10.3575 17.0585 10.4087 17.0064 10.4087 16.9423V10.3077C10.4087 9.26918 10.211 8.38293 9.81564 7.64898C9.42024 6.91504 8.86804 6.36113 8.1591 5.98724ZM30.893 14.6241C30.8574 14.7282 30.7124 14.7282 30.6767 14.6241L27.6213 5.69182C27.6053 5.64506 27.5619 5.61372 27.5131 5.61372H25.2655C25.1853 5.61372 25.13 5.69513 25.1584 5.7712L29.3458 16.9839C29.3626 17.029 29.4052 17.0589 29.4528 17.0589H32.0762C32.1237 17.0589 32.1663 17.0291 32.1832 16.984L36.3905 5.77137C36.4191 5.69528 36.3637 5.61372 36.2836 5.61372H34.0566C34.0079 5.61372 33.9645 5.64506 33.9485 5.69182L30.893 14.6241ZM37.4176 11.284C37.4176 10.1346 37.6493 9.11684 38.1129 8.23059C38.59 7.34434 39.2309 6.65885 40.0352 6.17418C40.8532 5.67566 41.753 5.4264 42.7347 5.4264C43.6208 5.4264 44.3912 5.60641 45.0457 5.96646C45.5985 6.25296 46.058 6.6011 46.4241 7.01088C46.4976 7.09327 46.6408 7.04233 46.6408 6.9311V5.7296C46.6408 5.66539 46.692 5.61334 46.7553 5.61334H48.8781C48.9414 5.61334 48.9926 5.66539 48.9926 5.7296V16.9423C48.9926 17.0065 48.9414 17.0585 48.8781 17.0585H46.7553C46.692 17.0585 46.6408 17.0065 46.6408 16.9423V15.7064C46.6408 15.5945 46.4958 15.5439 46.4226 15.6276C46.0546 16.0483 45.5889 16.4077 45.0252 16.7054C44.3434 17.0655 43.5664 17.2455 42.6938 17.2455C41.7258 17.2455 40.8397 16.9962 40.0352 16.4977C39.2309 15.9853 38.59 15.2791 38.1129 14.379C37.6493 13.4651 37.4176 12.4334 37.4176 11.284ZM46.6408 11.3256C46.6408 10.5362 46.4771 9.85078 46.15 9.26914C45.8364 8.68756 45.4205 8.24441 44.9025 7.93974C44.3844 7.63513 43.8254 7.48282 43.2255 7.48282C42.6256 7.48282 42.0667 7.63513 41.5486 7.93974C41.0305 8.23059 40.6078 8.6668 40.2806 9.24838C39.9671 9.81614 39.8103 10.4947 39.8103 11.284C39.8103 12.0733 39.9671 12.7657 40.2806 13.3611C40.6078 13.9566 41.0305 14.4136 41.5486 14.7321C42.0803 15.0368 42.6392 15.1891 43.2255 15.1891C43.8254 15.1891 44.3844 15.0368 44.9025 14.7321C45.4205 14.4275 45.8364 13.9843 46.15 13.4028C46.4771 12.8073 46.6408 12.1149 46.6408 11.3256ZM74.4003 5.77475C74.4319 5.69815 74.3767 5.61372 74.2949 5.61372H72.1322C72.0843 5.61372 72.0421 5.6434 72.0252 5.68835L68.8699 14.0493C68.8321 14.1494 68.6918 14.1486 68.6557 14.0479L65.6188 5.68973C65.6019 5.64405 65.5591 5.61372 65.5111 5.61372H63.163C63.0819 5.61372 63.0266 5.69682 63.0565 5.77319L67.414 16.8278C67.4253 16.8561 67.4253 16.8878 67.4134 16.9159L65.2073 22.2777C65.1758 22.3543 65.231 22.4388 65.3127 22.4388H67.4777C67.5239 22.4388 67.5656 22.4106 67.5837 22.3673L74.4003 5.77475ZM18.2665 17.2455C17.203 17.2455 16.2419 17.0032 15.3829 16.5185C14.524 16.02 13.8492 15.3275 13.3583 14.4413C12.8675 13.5412 12.6221 12.5026 12.6221 11.3256C12.6221 10.1623 12.8744 9.13066 13.3788 8.23059C13.8833 7.33046 14.5718 6.63808 15.4443 6.1534C16.3168 5.66873 17.2917 5.4264 18.3687 5.4264C19.4458 5.4264 20.4207 5.66873 21.2932 6.1534C22.1658 6.63808 22.8543 7.33046 23.3587 8.23059C23.8632 9.13066 24.1154 10.1623 24.1154 11.3256C24.1154 12.4888 23.8564 13.5204 23.3382 14.4205C22.8201 15.3207 22.1112 16.02 21.2114 16.5185C20.3252 17.0032 19.3436 17.2455 18.2665 17.2455ZM18.2665 15.1891C18.8664 15.1891 19.4253 15.0436 19.9435 14.7529C20.4752 14.4621 20.9046 14.0259 21.2319 13.4442C21.559 12.8627 21.7227 12.1564 21.7227 11.3256C21.7227 10.4947 21.5659 9.79539 21.2523 9.22762C20.9388 8.64598 20.5229 8.20983 20.0049 7.91898C19.4867 7.62819 18.9277 7.48282 18.3279 7.48282C17.728 7.48282 17.169 7.62819 16.6509 7.91898C16.1464 8.20983 15.7442 8.64598 15.4443 9.22762C15.1444 9.79539 14.9944 10.4947 14.9944 11.3256C14.9944 12.558 15.3011 13.5136 15.9146 14.1921C16.5418 14.8567 17.3257 15.1891 18.2665 15.1891ZM51.9764 8.23059C51.5128 9.11684 51.2811 10.1485 51.2811 11.3256C51.2811 12.5026 51.5128 13.5412 51.9764 14.4413C52.4536 15.3275 53.108 16.02 53.9397 16.5185C54.7714 17.0032 55.7258 17.2455 56.8028 17.2455C58.1387 17.2455 59.2569 16.9062 60.1565 16.2276C61.0183 15.5649 61.6169 14.6863 61.954 13.5921C61.9765 13.5183 61.9213 13.4442 61.8457 13.4442H59.5619C59.5134 13.4442 59.4711 13.4749 59.4531 13.5203C59.0072 14.6744 58.124 15.2514 56.8028 15.2514C55.8485 15.2514 55.0849 14.9052 54.5123 14.2129C53.9533 13.5204 53.6738 12.558 53.6738 11.3256C53.6738 10.0931 53.9533 9.13759 54.5123 8.45904C55.0849 7.76667 55.8485 7.42049 56.8028 7.42049C57.4843 7.42049 58.0502 7.57973 58.5 7.89822C58.93 8.20238 59.2474 8.62016 59.4537 9.15159C59.4711 9.19703 59.514 9.22762 59.5619 9.22762H61.8491C61.9241 9.22762 61.9788 9.15551 61.9579 9.08231C61.6344 7.93445 61.0409 7.04817 60.1774 6.42344C59.2908 5.75874 58.1663 5.4264 56.8028 5.4264C55.7258 5.4264 54.7714 5.66873 53.9397 6.1534C53.108 6.63808 52.4536 7.33046 51.9764 8.23059ZM22.2296 20.0134L22.2361 20.01L22.2305 20.0127L22.2296 20.0134ZM24.4297 18.6353C23.8393 19.2682 23.1418 19.797 22.3474 20.2132L22.3397 20.2173L22.3341 20.2202L22.3334 20.2205C21.0885 20.8641 19.7322 21.1689 18.3194 21.1689C16.9132 21.1689 15.5624 20.8615 14.3291 20.2033L14.3145 20.1955L14.3002 20.1877C13.5425 19.7719 12.8796 19.2503 12.3194 18.6324C12.1603 18.457 12.2209 18.1811 12.4269 18.0832L13.3875 17.6265C13.5206 17.5633 13.6758 17.5935 13.7771 17.6962C14.1728 18.0969 14.6294 18.4405 15.1454 18.7238L15.1508 18.7269L15.1564 18.7298C16.1145 19.241 17.1768 19.4889 18.3194 19.4889C19.4724 19.4889 20.5485 19.242 21.5269 18.736L21.5288 18.735L21.5301 18.7344L21.5318 18.7334C22.0748 18.449 22.5558 18.1006 22.9732 17.6914C23.0745 17.592 23.2271 17.5635 23.3581 17.6254L24.3247 18.0821C24.533 18.1806 24.5927 18.4603 24.4297 18.6353Z" fill="url(#paint0_linear_14701_14469)"/>
</g>
</g>
<defs>
<linearGradient id="paint0_linear_14701_14469" x1="37.2555" y1="1.50195" x2="37.2555" y2="22.4388" gradientUnits="userSpaceOnUse">
<stop stop-color="white"/>
<stop offset="1" stop-color="white" stop-opacity="0.8"/>
</linearGradient>
<clipPath id="clip0_14701_14469">
<rect width="74.4006" height="24" fill="white" transform="translate(0.101562)"/>
</clipPath>
</defs>
</svg>
