<svg width="95" height="30" viewBox="0 0 95 30" fill="none" xmlns="http://www.w3.org/2000/svg">
<g clip-path="url(#clip0_14401_14067)">
<g clip-path="url(#clip1_14401_14067)">
<mask id="mask0_14401_14067" style="mask-type:luminance" maskUnits="userSpaceOnUse" x="0" y="1" width="95" height="28">
<path d="M94.4565 1.64453H0.0078125V28.3577H94.4565V1.64453Z" fill="white"/>
</mask>
<g mask="url(#mask0_14401_14067)">
<path fill-rule="evenodd" clip-rule="evenodd" d="M76.7892 2.88696C77.7981 3.4153 78.6832 4.08656 79.433 4.8901C79.6398 5.11217 79.564 5.46727 79.2992 5.59223L78.0721 6.17211C77.9061 6.25059 77.7122 6.21445 77.5841 6.08835C77.0539 5.56883 76.4436 5.1266 75.7538 4.76553L75.7517 4.76433L75.7502 4.76353L75.7481 4.76236L75.7474 4.76227C74.506 4.1199 73.1393 3.80639 71.6761 3.80639C70.2255 3.80639 68.877 4.12118 67.6606 4.77024L67.6536 4.77397L67.6466 4.77776C66.9916 5.13734 66.412 5.57358 65.9097 6.08228C65.781 6.21256 65.5841 6.25092 65.4152 6.17071L64.1957 5.59092C63.9341 5.46661 63.8572 5.11649 64.0592 4.89376C64.7703 4.10942 65.6119 3.4473 66.5737 2.91938L66.5919 2.90942L66.6105 2.89951C68.176 2.06412 69.8909 1.67383 71.6761 1.67383C73.4692 1.67383 75.1914 2.0606 76.7713 2.87772L76.7727 2.87819L76.7799 2.88185L76.7892 2.88696ZM10.2365 7.36757C9.35386 6.89292 8.35006 6.6556 7.22505 6.6556C6.37698 6.6556 5.57218 6.82259 4.81064 7.1566C4.19861 7.43129 3.67437 7.79514 3.23791 8.24816C3.14256 8.34711 2.9674 8.28124 2.9674 8.14278V7.04051C2.9674 6.959 2.90234 6.89292 2.82209 6.89292H0.153118C0.072868 6.89292 0.0078125 6.959 0.0078125 7.04051V21.2746C0.0078125 21.356 0.0728682 21.4221 0.153118 21.4221H2.82209C2.90234 21.4221 2.9674 21.356 2.9674 21.2746V13.3005C2.9674 11.9997 3.28759 11.0064 3.92797 10.3209C4.58565 9.61772 5.46834 9.26612 6.57602 9.26612C7.6837 9.26612 8.55771 9.61772 9.1981 10.3209C9.83849 11.0064 10.1587 11.9997 10.1587 13.3005V21.2746C10.1587 21.356 10.2237 21.4221 10.304 21.4221H12.947C13.0273 21.4221 13.0923 21.356 13.0923 21.2746V12.8523C13.0923 11.5339 12.8413 10.4088 12.3394 9.47708C11.8375 8.54536 11.1365 7.8422 10.2365 7.36757ZM39.0944 18.3323C39.0493 18.4645 38.8652 18.4645 38.8199 18.3323L34.9412 6.99314C34.9209 6.93378 34.8658 6.89399 34.8039 6.89399H31.9505C31.8488 6.89399 31.7786 6.99735 31.8146 7.09391L37.1304 21.328C37.1517 21.3853 37.2058 21.4232 37.2662 21.4232H40.5965C40.6567 21.4232 40.7108 21.3854 40.7323 21.3282L46.0733 7.09413C46.1097 6.99754 46.0393 6.89399 45.9376 6.89399H43.1106C43.0487 6.89399 42.9936 6.93378 42.9732 6.99314L39.0944 18.3323ZM47.3925 14.0916C47.3925 12.6325 47.6868 11.3405 48.2753 10.2154C48.8809 9.09034 49.6944 8.22015 50.7155 7.60487C51.754 6.97202 52.8963 6.6556 54.1424 6.6556C55.2673 6.6556 56.2452 6.88412 57.0761 7.34118C57.778 7.70488 58.3612 8.14684 58.8259 8.66704C58.9193 8.77163 59.1011 8.70697 59.1011 8.56575V7.0405C59.1011 6.95899 59.1661 6.89291 59.2464 6.89291H61.9412C62.0216 6.89291 62.0865 6.95899 62.0865 7.0405V21.2745C62.0865 21.356 62.0216 21.4221 61.9412 21.4221H59.2464C59.1661 21.4221 59.1011 21.356 59.1011 21.2745V19.7057C59.1011 19.5636 58.917 19.4994 58.8241 19.6056C58.357 20.1397 57.7657 20.5959 57.0501 20.9739C56.1846 21.431 55.1982 21.6594 54.0905 21.6594C52.8617 21.6594 51.7368 21.343 50.7155 20.7102C49.6944 20.0597 48.8809 19.1632 48.2753 18.0206C47.6868 16.8604 47.3925 15.5507 47.3925 14.0916ZM59.1011 14.1443C59.1011 13.1423 58.8933 12.2722 58.478 11.5338C58.0799 10.7955 57.552 10.2329 56.8944 9.84618C56.2367 9.45949 55.527 9.26615 54.7655 9.26615C54.0039 9.26615 53.2944 9.45949 52.6367 9.84618C51.979 10.2154 51.4425 10.7692 51.027 11.5075C50.6291 12.2282 50.43 13.0896 50.43 14.0916C50.43 15.0936 50.6291 15.9726 51.027 16.7284C51.4425 17.4844 51.979 18.0645 52.6367 18.4688C53.3117 18.8556 54.0212 19.049 54.7655 19.049C55.527 19.049 56.2367 18.8556 56.8944 18.4688C57.552 18.0821 58.0799 17.5195 58.478 16.7813C58.8933 16.0253 59.1011 15.1464 59.1011 14.1443ZM94.3397 7.09842C94.3798 7.00119 94.3097 6.89399 94.2059 6.89399H91.4604C91.3996 6.89399 91.346 6.93167 91.3245 6.98874L87.319 17.6026C87.2711 17.7297 87.0929 17.7287 87.0471 17.6009L83.1919 6.99049C83.1704 6.9325 83.1161 6.89399 83.0552 6.89399H80.0744C79.9713 6.89399 79.9012 6.99949 79.9391 7.09644L85.4708 21.1298C85.4851 21.1658 85.4851 21.2059 85.4701 21.2417L82.6696 28.0482C82.6295 28.1455 82.6996 28.2528 82.8034 28.2528H85.5517C85.6104 28.2528 85.6633 28.2169 85.6862 28.162L94.3397 7.09842ZM23.0717 21.6594C21.7217 21.6594 20.5016 21.3519 19.4112 20.7366C18.3208 20.1038 17.4641 19.2247 16.841 18.0996C16.218 16.957 15.9064 15.6385 15.9064 14.1443C15.9064 12.6677 16.2267 11.358 16.867 10.2154C17.5074 9.07273 18.3814 8.19378 19.4891 7.5785C20.5967 6.96323 21.8343 6.6556 23.2015 6.6556C24.5688 6.6556 25.8064 6.96323 26.9141 7.5785C28.0218 8.19378 28.8958 9.07273 29.5361 10.2154C30.1765 11.358 30.4967 12.6677 30.4967 14.1443C30.4967 15.621 30.1679 16.9306 29.5101 18.0732C28.8524 19.216 27.9524 20.1038 26.8102 20.7366C25.6852 21.3519 24.4391 21.6594 23.0717 21.6594ZM23.0717 19.049C23.8333 19.049 24.5428 18.8643 25.2006 18.4952C25.8756 18.1261 26.4207 17.5723 26.8361 16.8339C27.2514 16.0956 27.4592 15.1991 27.4592 14.1443C27.4592 13.0896 27.2602 12.2019 26.862 11.4811C26.4641 10.7427 25.9362 10.1891 25.2785 9.81983C24.6207 9.45068 23.9112 9.26615 23.1496 9.26615C22.3881 9.26615 21.6785 9.45068 21.0208 9.81983C20.3804 10.1891 19.8698 10.7427 19.4891 11.4811C19.1084 12.2019 18.9179 13.0896 18.9179 14.1443C18.9179 15.7089 19.3073 16.9219 20.0861 17.7833C20.8823 18.627 21.8774 19.049 23.0717 19.049ZM65.8695 10.2154C65.281 11.3405 64.9868 12.6501 64.9868 14.1443C64.9868 15.6385 65.281 16.957 65.8695 18.0996C66.4753 19.2247 67.306 20.1038 68.3618 20.7366C69.4176 21.3519 70.6292 21.6594 71.9965 21.6594C73.6923 21.6594 75.1119 21.2288 76.2538 20.3673C77.3479 19.526 78.1077 18.4107 78.5356 17.0216C78.5642 16.9279 78.4941 16.8339 78.3982 16.8339H75.4989C75.4374 16.8339 75.3838 16.8729 75.3609 16.9305C74.7949 18.3956 73.6737 19.128 71.9965 19.128C70.785 19.128 69.8156 18.6885 69.0887 17.8097C68.3791 16.9306 68.0243 15.7089 68.0243 14.1443C68.0243 12.5798 68.3791 11.3668 69.0887 10.5054C69.8156 9.62649 70.785 9.18702 71.9965 9.18702C72.8615 9.18702 73.5799 9.38917 74.1509 9.79348C74.6968 10.1796 75.0997 10.71 75.3616 11.3846C75.3838 11.4423 75.4381 11.4811 75.4989 11.4811H78.4025C78.4977 11.4811 78.5671 11.3896 78.5406 11.2966C78.1299 9.83947 77.3765 8.71437 76.2803 7.9213C75.1548 7.07749 73.7273 6.6556 71.9965 6.6556C70.6292 6.6556 69.4176 6.96323 68.3618 7.5785C67.306 8.19378 66.4753 9.07273 65.8695 10.2154ZM28.1039 25.1741L28.1122 25.1698L28.105 25.1733L28.1039 25.1741ZM30.8968 23.4247C30.1473 24.2281 29.2619 24.8994 28.2534 25.4278L28.2437 25.4329L28.2365 25.4366L28.2357 25.437C26.6553 26.2541 24.9336 26.6409 23.1401 26.6409C21.355 26.6409 19.6401 26.2507 18.0745 25.4152L18.056 25.4053L18.0378 25.3954C17.076 24.8675 16.2344 24.2053 15.5233 23.421C15.3213 23.1983 15.3982 22.8481 15.6597 22.7238L16.8793 22.1441C17.0481 22.0638 17.2452 22.1022 17.3738 22.2325C17.8761 22.7412 18.4557 23.1774 19.1108 23.537L19.1177 23.5409L19.1247 23.5446C20.341 24.1936 21.6896 24.5083 23.1401 24.5083C24.6037 24.5083 25.9699 24.1948 27.2118 23.5525L27.2143 23.5512L27.2159 23.5504L27.2181 23.5493C27.9074 23.1881 28.518 22.7459 29.0479 22.2265C29.1765 22.1003 29.3702 22.0641 29.5365 22.1426L30.7635 22.7225C31.028 22.8475 31.1038 23.2026 30.8968 23.4247Z" fill="url(#paint0_linear_14401_14067)"/>
</g>
</g>
</g>
<defs>
<linearGradient id="paint0_linear_14401_14067" x1="47.1795" y1="1.67383" x2="47.1795" y2="28.2528" gradientUnits="userSpaceOnUse">
<stop stop-color="white"/>
<stop offset="1" stop-color="white" stop-opacity="0.6"/>
</linearGradient>
<clipPath id="clip0_14401_14067">
<rect width="94.4487" height="30" fill="white"/>
</clipPath>
<clipPath id="clip1_14401_14067">
<rect width="94.4487" height="26.7132" fill="white" transform="translate(0 1.64355)"/>
</clipPath>
</defs>
</svg>
