<svg width="105" height="30" viewBox="0 0 105 30" fill="none" xmlns="http://www.w3.org/2000/svg">
<g clip-path="url(#clip0_14401_14066)">
<path d="M38.0547 21.2393V6.26732H44.5535C46.1959 6.26732 47.4631 6.6779 48.3551 7.49906C49.2471 8.32022 49.6931 9.46701 49.6931 10.9394C49.6931 12.4119 49.2471 13.5657 48.3551 14.401C47.4631 15.2222 46.1959 15.6328 44.5535 15.6328H40.7731V21.2393H38.0547ZM40.7731 13.4879H44.1287C46.0826 13.4879 47.0596 12.6384 47.0596 10.9394C47.0596 9.25464 46.0826 8.41224 44.1287 8.41224H40.7731V13.4879Z" fill="url(#paint0_linear_14401_14066)"/>
<path d="M51.6593 21.2393V10.8545H54.2503V12.6809C54.76 11.4491 55.8502 10.7695 57.5209 10.6421L58.328 10.5784L58.4979 12.8295L56.9688 12.9782C55.2272 13.1481 54.3565 14.04 54.3565 15.654V21.2393H51.6593Z" fill="url(#paint1_linear_14401_14066)"/>
<path d="M65.1409 21.4517C63.9657 21.4517 62.9534 21.2322 62.1039 20.7933C61.2543 20.3544 60.596 19.7315 60.1287 18.9245C59.6757 18.1175 59.4491 17.1618 59.4491 16.0575C59.4491 14.9815 59.6686 14.04 60.1075 13.233C60.5606 12.426 61.1765 11.796 61.9552 11.3429C62.7481 10.8757 63.6472 10.6421 64.6524 10.6421C66.1249 10.6421 67.2859 11.1093 68.1355 12.0437C68.9991 12.9782 69.431 14.2524 69.431 15.8664V16.6522H61.9977C62.1959 18.5068 63.2578 19.4342 65.1834 19.4342C65.7639 19.4342 66.3444 19.3492 66.9249 19.1793C67.5054 18.9953 68.0363 18.7121 68.5177 18.3299L69.2611 20.1138C68.7655 20.5243 68.1425 20.85 67.3921 21.0907C66.6417 21.3313 65.8913 21.4517 65.1409 21.4517ZM64.7586 12.4472C63.9799 12.4472 63.3498 12.6879 62.8684 13.1693C62.387 13.6507 62.0968 14.3019 61.9977 15.1231H67.2222C67.1656 14.2595 66.9249 13.6011 66.5001 13.1481C66.0895 12.6809 65.509 12.4472 64.7586 12.4472Z" fill="url(#paint2_linear_14401_14066)"/>
<path d="M72.4051 21.2393V12.8507H70.4087V10.8545H72.4051V10.8332C72.4051 9.36082 72.7874 8.24943 73.552 7.49906C74.3307 6.74869 75.5342 6.32395 77.1624 6.22484L78.2031 6.16113L78.373 8.11493L77.396 8.17864C76.5465 8.23527 75.9448 8.44764 75.5908 8.81574C75.2368 9.16969 75.0599 9.70061 75.0599 10.4085V10.8545H77.8845V12.8507H75.0599V21.2393H72.4051ZM83.0453 21.4517C81.8135 21.4517 80.9003 21.119 80.3056 20.4536C79.7251 19.774 79.4349 18.7829 79.4349 17.4804V6.26732H82.0896V17.353C82.0896 18.6272 82.6277 19.2643 83.7037 19.2643C83.8595 19.2643 84.0152 19.2572 84.1709 19.2431C84.3267 19.2289 84.4754 19.2006 84.6169 19.1581L84.5745 21.2606C84.0648 21.388 83.555 21.4517 83.0453 21.4517Z" fill="url(#paint3_linear_14401_14066)"/>
<path d="M91.4287 21.4517C90.2535 21.4517 89.2412 21.2322 88.3917 20.7933C87.5421 20.3544 86.8838 19.7315 86.4165 18.9245C85.9635 18.1175 85.7369 17.1618 85.7369 16.0575C85.7369 14.9815 85.9564 14.04 86.3953 13.233C86.8484 12.426 87.4643 11.796 88.243 11.3429C89.0359 10.8757 89.935 10.6421 90.9402 10.6421C92.4127 10.6421 93.5737 11.1093 94.4232 12.0437C95.2869 12.9782 95.7188 14.2524 95.7188 15.8664V16.6522H88.2855C88.4837 18.5068 89.5456 19.4342 91.4712 19.4342C92.0517 19.4342 92.6322 19.3492 93.2127 19.1793C93.7932 18.9953 94.3241 18.7121 94.8055 18.3299L95.5489 20.1138C95.0533 20.5243 94.4303 20.85 93.6799 21.0907C92.9295 21.3313 92.1791 21.4517 91.4287 21.4517ZM91.0464 12.4472C90.2677 12.4472 89.6376 12.6879 89.1562 13.1693C88.6748 13.6507 88.3846 14.3019 88.2855 15.1231H93.51C93.4534 14.2595 93.2127 13.6011 92.7879 13.1481C92.3773 12.6809 91.7968 12.4472 91.0464 12.4472Z" fill="url(#paint4_linear_14401_14066)"/>
<path d="M102.749 21.4517C100.003 21.4517 98.6292 20.0925 98.6292 17.3742V12.8507H96.6328V10.8545H98.6292V7.7539H101.284V10.8545H104.427V12.8507H101.284V17.2255C101.284 17.9051 101.433 18.4148 101.73 18.7546C102.027 19.0944 102.509 19.2643 103.174 19.2643C103.372 19.2643 103.578 19.2431 103.79 19.2006C104.002 19.1439 104.222 19.0873 104.448 19.0307L104.852 20.9845C104.597 21.1261 104.271 21.2393 103.875 21.3243C103.493 21.4092 103.117 21.4517 102.749 21.4517Z" fill="url(#paint5_linear_14401_14066)"/>
<rect width="8.49508" height="8.49508" transform="matrix(0.866037 -0.499981 0.866036 0.499981 0.015625 4.25)" fill="white" fill-opacity="0.5"/>
<rect width="8.49508" height="8.49508" transform="matrix(0.866037 -0.499981 0.866036 0.499981 14.5781 4.25)" fill="white" fill-opacity="0.5"/>
<rect width="8.49508" height="8.49508" transform="matrix(0.866037 -0.499981 0.866036 0.499981 7.29688 16.9932)" fill="white" fill-opacity="0.5"/>
<path fill-rule="evenodd" clip-rule="evenodd" d="M7.29688 16.9931L14.6539 12.7457L14.6539 4.25098L7.29688 8.49835V16.9931ZM29.2069 12.7457L21.8499 16.9931V8.49835L29.2069 4.25098V12.7457ZM21.9421 25.4883L14.585 29.7357L14.585 21.241L21.9421 16.9936V25.4883Z" fill="url(#paint6_linear_14401_14066)"/>
</g>
<defs>
<linearGradient id="paint0_linear_14401_14066" x1="71.4533" y1="6.16113" x2="71.4533" y2="21.4517" gradientUnits="userSpaceOnUse">
<stop stop-color="white"/>
<stop offset="1" stop-color="white" stop-opacity="0.6"/>
</linearGradient>
<linearGradient id="paint1_linear_14401_14066" x1="71.4533" y1="6.16113" x2="71.4533" y2="21.4517" gradientUnits="userSpaceOnUse">
<stop stop-color="white"/>
<stop offset="1" stop-color="white" stop-opacity="0.6"/>
</linearGradient>
<linearGradient id="paint2_linear_14401_14066" x1="71.4533" y1="6.16113" x2="71.4533" y2="21.4517" gradientUnits="userSpaceOnUse">
<stop stop-color="white"/>
<stop offset="1" stop-color="white" stop-opacity="0.6"/>
</linearGradient>
<linearGradient id="paint3_linear_14401_14066" x1="71.4533" y1="6.16113" x2="71.4533" y2="21.4517" gradientUnits="userSpaceOnUse">
<stop stop-color="white"/>
<stop offset="1" stop-color="white" stop-opacity="0.6"/>
</linearGradient>
<linearGradient id="paint4_linear_14401_14066" x1="71.4533" y1="6.16113" x2="71.4533" y2="21.4517" gradientUnits="userSpaceOnUse">
<stop stop-color="white"/>
<stop offset="1" stop-color="white" stop-opacity="0.6"/>
</linearGradient>
<linearGradient id="paint5_linear_14401_14066" x1="71.4533" y1="6.16113" x2="71.4533" y2="21.4517" gradientUnits="userSpaceOnUse">
<stop stop-color="white"/>
<stop offset="1" stop-color="white" stop-opacity="0.6"/>
</linearGradient>
<linearGradient id="paint6_linear_14401_14066" x1="18.2519" y1="4.25098" x2="18.2519" y2="29.7357" gradientUnits="userSpaceOnUse">
<stop stop-color="white"/>
<stop offset="1" stop-color="white" stop-opacity="0.6"/>
</linearGradient>
<clipPath id="clip0_14401_14066">
<rect width="104.84" height="30" fill="white"/>
</clipPath>
</defs>
</svg>
