<svg width="112" height="30" viewBox="0 0 112 30" fill="none" xmlns="http://www.w3.org/2000/svg">
<g clip-path="url(#clip0_14401_14065)">
<path fill-rule="evenodd" clip-rule="evenodd" d="M20.6974 21.4359C20.8656 21.5369 21.0518 21.5854 21.234 21.5854C21.5924 21.5854 21.9408 21.3995 22.137 21.0641C23.2223 19.2236 23.7949 17.1123 23.7949 14.9606C23.7949 8.36215 18.4769 2.99609 11.9394 2.99609C9.82702 2.99609 7.75266 3.56381 5.9406 4.63864C5.44003 4.93563 5.27184 5.58619 5.56618 6.09127C5.86051 6.59636 6.50525 6.76607 7.00581 6.46908C8.49551 5.58619 10.2014 5.11948 11.9394 5.11948C17.3175 5.11948 21.6925 9.53597 21.6925 14.9626C21.6925 16.7345 21.222 18.47 20.331 19.9832C20.0346 20.4863 20.1988 21.1368 20.6974 21.4359ZM0.03125 15.0347C0.03125 21.6312 5.3513 26.9973 11.8887 26.9973C14.0212 26.9973 16.1135 26.4194 17.9376 25.3264C18.4362 25.0254 18.6004 24.3748 18.304 23.8718C18.0057 23.3687 17.361 23.203 16.8624 23.5021C15.3627 24.4011 13.6427 24.8759 11.8867 24.8759C6.50662 24.8759 2.13164 20.4614 2.13164 15.0347C2.13164 13.269 2.60017 11.5375 3.48718 10.0263C3.78352 9.52323 3.61733 8.87267 3.11876 8.57366C2.6202 8.27465 1.97546 8.44032 1.67913 8.94541C0.6019 10.7839 0.03125 12.8891 0.03125 15.0347ZM11.9048 22.6043C10.9957 22.6043 10.0887 22.4386 9.23172 22.1114C8.6891 21.9033 8.41679 21.2911 8.62302 20.7436C8.82926 20.1961 9.43595 19.9213 9.97857 20.1294C11.1539 20.5799 12.4073 20.6082 13.6047 20.2102C16.4519 19.2647 18.0037 16.1594 17.0686 13.2885C17.0532 13.2388 17.0357 13.1901 17.0183 13.1417C17.011 13.1212 17.0037 13.1008 16.9965 13.0804C16.7923 12.5308 17.0686 11.9207 17.6133 11.7146C18.1579 11.5106 18.7626 11.7873 18.9668 12.3369C19.0028 12.4318 19.0349 12.5288 19.0669 12.6257L19.0669 12.6257L19.0669 12.6258L19.0669 12.6258L19.0669 12.6258C20.3664 16.6099 18.2119 20.9153 14.2634 22.2265C13.4986 22.477 12.7017 22.6043 11.9048 22.6043ZM4.81537 17.6111C4.97155 18.0394 5.37401 18.3061 5.8025 18.3061C5.92263 18.3061 6.04477 18.2859 6.16291 18.2414C6.70753 18.0394 6.98785 17.4292 6.78762 16.8797L6.7596 16.7969L6.73155 16.714C5.79649 13.8431 7.35026 10.7378 10.1955 9.79232C11.3808 9.40037 12.6102 9.41855 13.7555 9.84889C14.3002 10.0529 14.9049 9.77413 15.1071 9.2246C15.3093 8.67506 15.033 8.06492 14.4884 7.86086C12.8926 7.26082 11.1806 7.23253 9.53875 7.77803C5.59026 9.08924 3.43581 13.3966 4.73528 17.3787C4.76131 17.4616 4.78534 17.5303 4.81537 17.6111ZM11.9069 18.2343C13.6774 18.2343 15.1126 16.7861 15.1126 14.9997C15.1126 13.2133 13.6774 11.7651 11.9069 11.7651C10.1365 11.7651 8.70129 13.2133 8.70129 14.9997C8.70129 16.7861 10.1365 18.2343 11.9069 18.2343ZM30.3025 22.6378C30.0221 22.6378 29.88 22.4963 29.88 22.2115V9.07918C29.88 8.8529 29.9641 8.68117 30.1903 8.59631C31.626 7.88717 33.398 7.51745 35.1139 7.51745C35.9869 7.51745 36.914 7.57402 37.9832 7.74372C38.2355 7.77201 38.3496 7.94172 38.3496 8.17002V10.2146C38.3496 10.4712 38.1814 10.6126 37.8991 10.5561C37.1963 10.4429 36.3794 10.4429 35.6205 10.4429C34.6074 10.4429 33.6783 10.6126 33.1457 10.8409V22.2135C33.1457 22.4984 33.0055 22.6398 32.7232 22.6398H30.3025V22.6378ZM55.355 22.6054C55.0746 22.6054 54.9325 22.464 54.9325 22.1791V9.10948C54.9325 8.8832 55.0166 8.71147 55.2428 8.59833C56.8747 7.88919 58.8429 7.49118 60.8412 7.49118C64.7236 7.49118 67.3686 9.30748 67.3686 13.8513V22.1791C67.3686 22.464 67.2285 22.6054 66.9742 22.6054H64.5254C64.2731 22.6054 64.1029 22.464 64.1029 22.1791V13.9078C64.1029 11.2389 62.8935 10.4429 60.8392 10.4429C59.8821 10.4429 58.8409 10.5843 58.1942 10.7561V22.1791C58.1942 22.464 58.054 22.6054 57.7717 22.6054H55.355ZM98.9445 7.49926C102.461 7.49926 104.993 9.57214 104.993 13.5462V22.1892C104.993 22.4721 104.853 22.6155 104.599 22.6155H102.15C101.898 22.6155 101.756 22.4741 101.756 22.1892V13.433C101.756 11.5885 100.883 10.4793 98.8584 10.4793C97.9294 10.4793 97.1145 10.7056 96.3816 11.1884C96.6259 11.9299 96.75 12.7077 96.748 13.4876V22.1872C96.748 22.4701 96.6079 22.6135 96.3256 22.6135H93.9068C93.6545 22.6135 93.4843 22.4721 93.4843 22.1872V13.433C93.4843 11.3602 92.5272 10.451 90.6992 10.451C89.7421 10.451 89.0112 10.5924 88.4486 10.7642V22.1892C88.4486 22.4721 88.3084 22.6155 88.0261 22.6155H85.6054C85.325 22.6155 85.1829 22.4741 85.1829 22.1892V9.11756C85.1829 8.89129 85.267 8.71956 85.5213 8.60642C87.069 7.92556 88.841 7.49926 90.6131 7.49926C92.2729 7.49926 93.6525 7.98213 94.6917 8.80441C96.1033 7.92556 97.3127 7.49926 98.9445 7.49926ZM77.8886 14.6533L83.0304 7.85484C83.0304 7.85484 81.9712 7.32147 79.0599 7.58816L74.4487 13.8533C74.4487 13.8533 74.3706 13.9745 74.3045 14.1664H74.2625V5.36173L74.2605 5.35769V3.70504C74.2605 3.64645 74.2485 3.5919 74.2284 3.53937C74.2064 3.48684 74.1603 3.44846 74.1063 3.43229C73.5817 3.28683 73.0391 3.21207 72.4945 3.21207C71.9899 3.21207 71.5033 3.27471 71.0448 3.38784C70.9967 3.39997 70.9547 3.42825 70.9287 3.47068C70.8866 3.54139 70.8646 3.62019 70.8646 3.70302V5.83651C70.8626 5.85065 70.8606 5.86278 70.8606 5.87894V22.1872C70.8606 22.3367 70.8986 22.4479 70.9707 22.5226C71.0448 22.5974 71.1549 22.6337 71.3031 22.6337H73.844C73.9922 22.6337 74.1023 22.5974 74.1764 22.5226C74.2164 22.4782 74.2464 22.4256 74.2625 22.367V15.1079H74.2825C74.3205 15.2211 74.3726 15.3382 74.4507 15.4554C74.9793 16.2575 78.9498 21.868 78.9498 21.868L79.4784 22.4034C79.4784 22.4034 81.0662 22.9368 83.4489 22.4034L77.8886 14.6533ZM45.5758 20.0901C46.5069 20.0901 47.5801 19.9184 48.2849 19.7487V16.5282C47.522 16.4151 46.4228 16.3019 45.5478 16.3019C43.4294 16.3019 42.5844 17.0131 42.5844 18.1809C42.5844 19.5183 43.8539 20.0901 45.5758 20.0901ZM45.688 7.52553C49.1879 7.52553 51.5586 9.29132 51.5586 13.3078V22.0034C51.5586 22.2317 51.4465 22.4014 51.2483 22.4883C49.7806 22.9428 47.6642 22.9651 45.5738 22.9651C42.3001 22.9651 39.2787 21.771 39.2787 18.2071C39.2787 15.1039 41.8476 13.6492 45.4597 13.6492C46.3908 13.6492 47.4339 13.7644 48.2829 13.8795V13.3361C48.2829 11.3137 47.5501 10.4591 45.4597 10.4591C44.0481 10.4591 42.7506 10.8308 41.8476 11.3703C41.6494 11.5117 41.4251 11.4834 41.283 11.2571L40.1537 9.51962C40.0115 9.2893 40.0115 9.14787 40.1537 9.03473C41.5112 8.09729 43.4014 7.52553 45.688 7.52553ZM110.471 3.22725C110.744 3.24341 111.012 3.27574 111.274 3.32624C111.558 3.37877 111.761 3.63334 111.761 3.92023V5.76077C111.761 6.04968 111.556 6.3002 111.274 6.35475C110.922 6.42142 110.565 6.45779 110.207 6.46183H110.047C109.682 6.45779 109.326 6.4194 108.98 6.35475C108.695 6.30222 108.493 6.04766 108.493 5.76077V3.92023C108.493 3.63132 108.697 3.38079 108.98 3.32624C109.242 3.27574 109.51 3.24341 109.782 3.22725H110.471ZM108.827 7.53818C109.678 7.72002 110.559 7.72002 111.412 7.53818C111.588 7.4998 111.752 7.63516 111.754 7.81497V21.9877C111.752 22.3454 111.462 22.6343 111.107 22.6322H109.135C108.777 22.6322 108.486 22.3433 108.486 21.9877V7.81497C108.486 7.79477 108.488 7.77457 108.492 7.75638C108.524 7.60284 108.675 7.50586 108.827 7.53818Z" fill="url(#paint0_linear_14401_14065)"/>
</g>
<defs>
<linearGradient id="paint0_linear_14401_14065" x1="11.9095" y1="2.99609" x2="11.9095" y2="26.9973" gradientUnits="userSpaceOnUse">
<stop stop-color="white"/>
<stop offset="1" stop-color="white" stop-opacity="0.6"/>
</linearGradient>
<clipPath id="clip0_14401_14065">
<rect width="111.735" height="30" fill="white"/>
</clipPath>
</defs>
</svg>
