<svg width="86" height="24" viewBox="0 0 86 24" fill="none" xmlns="http://www.w3.org/2000/svg">
<g clip-path="url(#clip0_14701_14468)">
<path fill-rule="evenodd" clip-rule="evenodd" d="M16.421 16.8608C16.5479 16.9371 16.6883 16.9737 16.8258 16.9737C17.0962 16.9737 17.359 16.8334 17.507 16.5802C18.3257 15.1909 18.7578 13.5971 18.7578 11.9729C18.7578 6.99202 14.7458 2.94141 9.81399 2.94141C8.2204 2.94141 6.65551 3.36995 5.28849 4.1813C4.91086 4.40548 4.78398 4.89656 5.00602 5.27783C5.22807 5.6591 5.71446 5.78721 6.09208 5.56302C7.21591 4.89656 8.50287 4.54427 9.81399 4.54427C13.8712 4.54427 17.1717 7.87809 17.1717 11.9745C17.1717 13.312 16.8167 14.622 16.1446 15.7643C15.921 16.144 16.0449 16.6351 16.421 16.8608ZM0.835938 12.028C0.835938 17.0074 4.84938 21.058 9.78121 21.058C11.3899 21.058 12.9684 20.6219 14.3445 19.7968C14.7206 19.5696 14.8445 19.0785 14.6209 18.6987C14.3958 18.319 13.9094 18.1939 13.5333 18.4197C12.402 19.0983 11.1044 19.4567 9.7797 19.4567C5.72094 19.4567 2.42047 16.1244 2.42047 12.028C2.42047 10.6951 2.77393 9.38812 3.44309 8.24736C3.66664 7.86761 3.54127 7.37654 3.16515 7.15082C2.78903 6.92511 2.30265 7.05017 2.07909 7.43144C1.26643 8.81926 0.835938 10.4084 0.835938 12.028ZM9.76511 17.7406C9.07934 17.7406 8.39508 17.6156 7.74857 17.3685C7.33923 17.2114 7.1338 16.7493 7.28938 16.336C7.44496 15.9227 7.90265 15.7153 8.312 15.8724C9.19867 16.2125 10.1443 16.2338 11.0475 15.9334C13.1955 15.2197 14.3661 12.8756 13.6607 10.7085C13.6491 10.671 13.6359 10.6343 13.6228 10.5978L13.6228 10.5977L13.6064 10.5514C13.4523 10.1366 13.6607 9.67599 14.0716 9.52044C14.4825 9.3664 14.9386 9.57534 15.0927 9.99016C15.1199 10.0618 15.1441 10.135 15.1682 10.2082C16.1486 13.2157 14.5232 16.4657 11.5445 17.4554C10.9675 17.6445 10.3663 17.7406 9.76511 17.7406ZM4.42577 13.9686C4.54359 14.292 4.8472 14.4933 5.17045 14.4933C5.26108 14.4933 5.35322 14.478 5.44234 14.4445C5.8532 14.292 6.06467 13.8314 5.91362 13.4166L5.89248 13.3541L5.87133 13.2915C5.16592 11.1244 6.33808 8.78032 8.48452 8.06658C9.37874 7.77071 10.3062 7.78444 11.1702 8.10928C11.5811 8.26331 12.0373 8.05285 12.1898 7.63803C12.3424 7.22321 12.1339 6.76263 11.7231 6.6086C10.5192 6.15565 9.22769 6.1343 7.98907 6.54607C5.01034 7.53585 3.38502 10.7873 4.36535 13.7933C4.38498 13.8558 4.40311 13.9076 4.42577 13.9686ZM9.77939 14.4438C11.115 14.4438 12.1977 13.3506 12.1977 12.0021C12.1977 10.6536 11.115 9.56045 9.77939 9.56045C8.44378 9.56045 7.36106 10.6536 7.36106 12.0021C7.36106 13.3506 8.44378 14.4438 9.77939 14.4438ZM23.6471 17.7675C23.4357 17.7675 23.3284 17.6608 23.3284 17.4458V7.53273C23.3284 7.36192 23.3919 7.23229 23.5626 7.16823C24.6456 6.63293 25.9824 6.35384 27.2769 6.35384C27.9355 6.35384 28.6349 6.39654 29.4415 6.52465C29.6318 6.546 29.7179 6.67411 29.7179 6.84644V8.38983C29.7179 8.58351 29.591 8.69027 29.378 8.64756C28.8478 8.56216 28.2316 8.56216 27.6591 8.56216C26.8947 8.56216 26.1939 8.69027 25.7921 8.8626V17.4473C25.7921 17.6623 25.6863 17.7691 25.4734 17.7691H23.6471V17.7675ZM42.5467 17.7431C42.3352 17.7431 42.228 17.6364 42.228 17.4214V7.55561C42.228 7.3848 42.2914 7.25516 42.4621 7.16976C43.6932 6.63446 45.178 6.33402 46.6855 6.33402C49.6144 6.33402 51.6098 7.70506 51.6098 11.135V17.4214C51.6098 17.6364 51.5041 17.7431 51.3122 17.7431H49.4649C49.2745 17.7431 49.1461 17.6364 49.1461 17.4214V11.1777C49.1461 9.16304 48.2338 8.56216 46.684 8.56216C45.962 8.56216 45.1765 8.66892 44.6886 8.79855V17.4214C44.6886 17.6364 44.5829 17.7431 44.3699 17.7431H42.5467ZM75.4306 6.34012C78.0831 6.34012 79.9939 7.90485 79.9939 10.9047V17.429C79.9939 17.6425 79.8881 17.7508 79.6963 17.7508H77.8489C77.6586 17.7508 77.5514 17.644 77.5514 17.429V10.8193C77.5514 9.42688 76.8928 8.58961 75.3657 8.58961C74.6648 8.58961 74.05 8.76042 73.4971 9.12491C73.6814 9.68462 73.7751 10.2718 73.7736 10.8605V17.4275C73.7736 17.641 73.6678 17.7492 73.4548 17.7492H71.6301C71.4398 17.7492 71.3114 17.6425 71.3114 17.4275V10.8193C71.3114 9.25455 70.5894 8.56826 69.2103 8.56826C68.4883 8.56826 67.9369 8.67502 67.5125 8.80465V17.429C67.5125 17.6425 67.4068 17.7508 67.1938 17.7508H65.3676C65.1561 17.7508 65.0488 17.644 65.0488 17.429V7.56171C65.0488 7.3909 65.1123 7.26126 65.3041 7.17586C66.4717 6.66191 67.8085 6.34012 69.1454 6.34012C70.3976 6.34012 71.4383 6.70461 72.2223 7.32532C73.2872 6.66191 74.1995 6.34012 75.4306 6.34012ZM59.546 11.7404L63.425 6.60853C63.425 6.60853 62.626 6.20591 60.4297 6.40722L56.951 11.1365C56.951 11.1365 56.8921 11.228 56.8422 11.3729H56.8105V4.72658L56.809 4.72353V3.47601C56.809 3.43179 56.7999 3.39061 56.7848 3.35096C56.7682 3.3113 56.7335 3.28233 56.6927 3.27013C56.2969 3.16032 55.8876 3.10389 55.4767 3.10389C55.0961 3.10389 54.729 3.15117 54.3831 3.23658C54.3468 3.24573 54.3151 3.26708 54.2955 3.2991C54.2638 3.35248 54.2471 3.41196 54.2471 3.47449V5.08497L54.2467 5.08817C54.2453 5.09753 54.2441 5.10603 54.2441 5.117V17.4275C54.2441 17.5403 54.2728 17.6242 54.3272 17.6806C54.3831 17.737 54.4662 17.7645 54.5779 17.7645H56.4948C56.6066 17.7645 56.6896 17.737 56.7455 17.6806C56.7757 17.6471 56.7984 17.6074 56.8105 17.5632V12.0836H56.8256C56.8543 12.169 56.8936 12.2574 56.9525 12.3459C57.3513 12.9513 60.3466 17.1865 60.3466 17.1865L60.7454 17.5906C60.7454 17.5906 61.9432 17.9933 63.7407 17.5906L59.546 11.7404ZM35.1693 15.8444C35.8717 15.8444 36.6814 15.7148 37.2131 15.5867V13.1557C36.6376 13.0703 35.8083 12.9849 35.1482 12.9849C33.5501 12.9849 32.9126 13.5217 32.9126 14.4032C32.9126 15.4128 33.8703 15.8444 35.1693 15.8444ZM35.2539 6.35994C37.8943 6.35994 39.6828 7.69286 39.6828 10.7247V17.2887C39.6828 17.461 39.5982 17.5891 39.4486 17.6547C38.3414 17.9978 36.7448 18.0146 35.1678 18.0146C32.6981 18.0146 30.4188 17.1133 30.4188 14.423C30.4188 12.0805 32.3568 10.9825 35.0817 10.9825C35.7841 10.9825 36.5711 11.0694 37.2116 11.1563V10.7461C37.2116 9.21947 36.6587 8.57436 35.0817 8.57436C34.0168 8.57436 33.038 8.85498 32.3568 9.26217C32.2072 9.36893 32.038 9.34758 31.9308 9.17677L31.0789 7.8652C30.9716 7.69134 30.9716 7.58458 31.0789 7.49918C32.103 6.79154 33.5289 6.35994 35.2539 6.35994ZM84.1254 3.1138C84.3308 3.126 84.5332 3.1504 84.7311 3.18853C84.9456 3.22818 85.0982 3.42034 85.0982 3.6369V5.02625C85.0982 5.24434 84.9441 5.43345 84.7311 5.47462C84.4653 5.52495 84.1964 5.5524 83.926 5.55545H83.8052C83.5303 5.5524 83.2614 5.52343 83.0001 5.47462C82.7856 5.43497 82.633 5.24281 82.633 5.02625V3.6369C82.633 3.41882 82.7871 3.22971 83.0001 3.18853C83.1979 3.1504 83.4003 3.126 83.6058 3.1138H84.1254ZM82.8797 6.36897C83.5217 6.50623 84.1863 6.50623 84.8298 6.36897C84.9627 6.33999 85.0866 6.44217 85.0881 6.57791V17.2764C85.0866 17.5463 84.8676 17.7644 84.6002 17.7629H83.1124C82.842 17.7629 82.623 17.5448 82.623 17.2764V6.57791C82.623 6.56266 82.6245 6.54741 82.6275 6.53368C82.6517 6.41777 82.7649 6.34457 82.8797 6.36897Z" fill="url(#paint0_linear_14701_14468)"/>
</g>
<defs>
<linearGradient id="paint0_linear_14701_14468" x1="42.9671" y1="2.94141" x2="42.9671" y2="21.058" gradientUnits="userSpaceOnUse">
<stop stop-color="white"/>
<stop offset="1" stop-color="white" stop-opacity="0.8"/>
</linearGradient>
<clipPath id="clip0_14701_14468">
<rect width="84.2622" height="24" fill="white" transform="translate(0.835938)"/>
</clipPath>
</defs>
</svg>
