<svg width="126" height="38" viewBox="0 0 126 38" fill="none" xmlns="http://www.w3.org/2000/svg">
    <path fill-rule="evenodd" clip-rule="evenodd"
        d="M94.7631 6.4847C95.3258 6.7582 95.788 7.25015 96.1495 7.96056C96.189 8.11409 96.1158 8.28525 95.9297 8.47406C95.6507 8.75727 90.5901 14.8907 87.4394 23.3589C87.1161 24.3474 86.863 25.2832 86.68 26.1662C86.5299 27.3854 86.872 27.7752 87.7063 27.3356C88.8991 26.707 88.9789 26.0195 90.9562 22.8695C91.204 22.3604 91.5611 21.765 92.0806 21.0879C92.8403 20.046 93.2314 19.5251 93.2537 19.5251C93.5398 19.0428 94.7984 19.3235 94.9998 19.5251C95.3353 19.7604 95.5031 20.0964 95.5031 20.5333C95.5031 20.6678 95.4359 20.903 95.3017 21.2391C94.9659 21.7559 94.5743 22.4737 94.1269 23.3923C93.7578 24.1989 93.3719 24.9327 93.1706 25.6049L92.9219 26.6131C92.9219 26.6803 92.9387 26.7996 92.9219 27.0181C92.9051 27.2365 93.07 27.4084 93.1706 27.4756C93.2042 27.5092 93.2713 27.5344 93.3719 27.5512C93.4726 27.568 93.5565 27.5596 93.6236 27.526C93.7914 27.4924 94.0262 27.3748 94.3282 27.1732C94.4289 27.1059 94.7141 26.8371 95.1838 26.3666C96.3661 24.8305 97.2771 23.655 98.1645 22.4253C99.0524 21.1729 99.6807 20.2645 100.049 19.6997C100.91 18.6398 101.282 17.7482 102.025 16.9743C102.295 16.6714 102.632 16.52 103.038 16.52C103.375 16.52 103.696 16.6378 104 16.8733C104.304 17.1762 104.456 17.5294 104.456 17.9332C104.456 18.2361 104.355 18.5221 104.152 18.7912C102.778 20.5563 102.278 22.7474 101.873 24.6654C101.744 25.1915 101.806 25.5735 101.806 26.1731C101.806 26.7543 102.092 27.0181 102.126 27.0181C102.16 27.0517 102.278 27.1022 102.48 27.1695C102.665 27.1919 103.038 27.1919 103.848 26.5638C104.186 26.3283 104.523 26.0086 104.861 25.6049C105.097 25.3357 105.418 24.9319 105.823 24.3935C106.229 23.8552 106.516 23.4514 106.685 23.1822C107.191 22.341 107.613 21.4999 107.951 20.6587C108.289 19.8175 108.643 18.7744 109.015 17.5295C109.116 16.9574 109.454 16.5873 110.028 16.4191H110.332C110.872 16.4191 111.277 16.6378 111.547 17.0752C111.648 17.2434 111.716 17.4958 111.75 17.8323C111.784 18.1688 111.817 18.4211 111.851 18.5893C112.061 19.6589 112.412 20.4554 112.906 20.9789L112.902 20.9852C112.936 20.9188 113.223 20.5369 113.763 19.8397C114.067 19.4744 114.421 19.1258 114.826 18.7938C115.67 18.1297 116.497 17.5984 117.307 17.2C117.78 16.9344 118.32 16.7352 118.927 16.6023C119.096 16.5691 119.383 16.5525 119.788 16.5525C120.159 16.5525 120.547 16.6023 120.952 16.702C121.728 16.9012 122.319 17.366 122.724 18.0965C123.095 18.6942 123.214 19.408 123.079 20.2381C122.91 21.367 122.285 22.3631 121.205 23.2264C120.8 23.5916 120.328 23.8739 119.788 24.0731C119.45 24.2391 118.944 24.3885 118.269 24.5213C117.661 24.5877 117.223 24.6209 116.953 24.6209C116.345 24.6209 115.771 24.5711 115.231 24.4715C114.961 24.4051 114.759 24.3387 114.624 24.2723C114.421 24.7703 114.32 25.2186 114.32 25.617C114.32 25.8162 114.354 25.9823 114.421 26.1151C114.455 26.2811 114.556 26.4471 114.725 26.6131C114.927 26.7459 115.096 26.8289 115.231 26.8621C115.434 26.9618 115.704 27.0116 116.041 27.0116C116.244 27.0116 116.548 26.9784 116.953 26.912C118.471 26.6131 119.838 26.0487 121.053 25.2186C122.302 24.4217 123.626 23.5133 124.556 21.5647C124.759 21.299 124.851 21.4334 125.154 21.4334C125.323 21.4334 125.475 21.4832 125.61 21.5828C125.947 21.8153 126.066 22.1639 125.964 22.6287C125.256 24.4217 124.167 25.9989 122.699 27.3602C121.231 28.7215 119.535 29.6346 117.611 30.0995C116.936 30.2323 116.413 30.2987 116.041 30.2987C115.366 30.2987 114.725 30.1825 114.117 29.95C113.544 29.7508 112.97 29.4022 112.396 28.9041C111.957 28.4393 111.603 27.8748 111.333 27.2108C111.164 26.7459 111.08 26.2313 111.08 25.6668C111.08 25.0028 111.198 24.3221 111.434 23.6248C111.548 23.3347 111.678 23.0428 111.826 22.7489C111.444 22.5045 111.097 22.1945 110.787 21.8195C110.382 22.8626 109.909 23.8552 109.369 24.7973C109.065 25.2684 108.728 25.7563 108.356 26.261C107.681 27.1358 107.309 27.6069 107.242 27.6742C106.668 28.2798 106.144 28.7761 105.672 29.1631C105.199 29.55 104.625 29.8613 103.949 30.0968C103.409 30.2314 102.97 30.2987 102.632 30.2987L101.974 30.2482L101.315 30.0968C100.91 29.9622 100.505 29.7183 100.1 29.365C99.6945 29.0117 99.3906 28.6163 99.188 28.1789C98.8503 27.4723 98.7153 26.7152 98.7828 25.9077C98.8117 25.6051 98.8468 25.3118 98.8881 25.0278C98.8097 25.1691 98.732 25.3128 98.6566 25.4592C97.952 26.669 97.4319 27.4924 97.0964 27.9293C96.526 28.6015 96.1737 28.988 96.0394 29.0888C95.5697 29.5593 95.0161 29.8954 94.3785 30.097C94.0766 30.2315 93.6907 30.2987 93.221 30.2987C92.8519 30.2987 92.4996 30.2483 92.164 30.1474C91.7949 30.013 91.4426 29.803 91.1071 29.5173C90.7716 29.2316 90.5199 28.904 90.3521 28.5343C90.3162 28.4583 90.2865 28.3573 90.2622 28.2372C90.116 28.3762 89.9638 28.5171 89.8062 28.6594C89.3282 29.0909 88.7736 29.539 88.1338 29.8442C84.5349 31.2413 83.5511 29.0617 83.5788 26.8451C83.3853 27.0129 83.1923 27.1837 83.0019 27.3602C81.5337 28.7215 79.8377 29.6346 77.9138 30.0995C77.2388 30.2323 76.7156 30.2987 76.3443 30.2987C75.6693 30.2987 75.028 30.1825 74.4205 29.95C73.8467 29.7508 73.2729 29.4022 72.6991 28.9041C72.2604 28.4393 71.906 27.8748 71.636 27.2108C71.4672 26.7459 71.3828 26.2313 71.3828 25.6668C71.3828 25.0028 71.5009 24.3221 71.7372 23.6248C72.0747 22.7615 72.5641 21.8817 73.2054 20.9852C73.2392 20.9188 73.5261 20.5369 74.0661 19.8397C74.3699 19.4744 74.7243 19.1258 75.1293 18.7938C75.9731 18.1297 76.8 17.5984 77.61 17.2C78.0826 16.9344 78.6226 16.7352 79.2301 16.6023C79.3989 16.5691 79.6858 16.5525 80.0908 16.5525C80.4621 16.5525 80.8502 16.6023 81.2553 16.702C82.0316 16.9012 82.6222 17.366 83.0272 18.0965C83.3985 18.6942 83.5166 19.408 83.3816 20.2381C83.2129 21.367 82.5885 22.3631 81.5084 23.2264C81.1034 23.5916 80.6308 23.8739 80.0908 24.0731C79.7533 24.2391 79.247 24.3885 78.572 24.5213C77.9644 24.5877 77.5257 24.6209 77.2557 24.6209C76.6481 24.6209 76.0743 24.5711 75.5343 24.4715C75.2643 24.4051 75.0618 24.3387 74.9268 24.2723C74.7243 24.7703 74.623 25.2186 74.623 25.617C74.623 25.8162 74.6568 25.9823 74.7243 26.1151C74.758 26.2811 74.8593 26.4471 75.028 26.6131C75.2305 26.7459 75.3993 26.8289 75.5343 26.8621C75.7368 26.9618 76.0068 27.0116 76.3443 27.0116C76.5469 27.0116 76.8506 26.9784 77.2557 26.912C78.7745 26.6131 80.1414 26.0487 81.3565 25.2186C82.5442 24.4607 84.0043 23.3954 84.9444 21.6169C86.1678 18.3142 88.6885 12.6704 92.5077 7.55575L92.9278 7.01759C93.5886 6.38884 94.2003 6.21121 94.7631 6.4847ZM79.7364 18.993C79.6014 18.993 79.4664 19.0262 79.3314 19.0926C79.1964 19.1258 79.0276 19.2088 78.8251 19.3416C78.2176 19.6736 77.6438 20.1717 77.1038 20.8358C76.935 21.0018 76.7156 21.284 76.4456 21.6824L75.8381 22.5291C76.6481 22.5955 77.3907 22.5291 78.0657 22.3299C78.302 22.2635 78.6226 22.1307 79.0276 21.9315C79.3651 21.6658 79.6014 21.45 79.7364 21.284C80.1414 20.786 80.3608 20.2713 80.3946 19.7401C80.3946 19.3748 80.2596 19.1424 79.9896 19.0428C79.9558 19.0096 79.8714 18.993 79.7364 18.993ZM119.433 18.993C119.298 18.993 119.163 19.0262 119.028 19.0926C118.893 19.1258 118.725 19.2088 118.522 19.3416C117.915 19.6736 117.341 20.1717 116.801 20.8358C116.632 21.0018 116.413 21.284 116.143 21.6824L115.535 22.5291C116.345 22.5955 117.088 22.5291 117.763 22.3299C117.999 22.2635 118.32 22.1307 118.725 21.9315C119.062 21.6658 119.298 21.45 119.433 21.284C119.838 20.786 120.058 20.2713 120.092 19.7401C120.092 19.3748 119.957 19.1424 119.687 19.0428C119.653 19.0096 119.568 18.993 119.433 18.993ZM96.268 14.6473C97.2183 14.7794 97.8804 15.6487 97.7469 16.5889C97.6133 17.529 96.7346 18.1841 95.7843 18.0519C94.8339 17.9198 94.1718 17.0505 94.3054 16.1104C94.4389 15.1702 95.3176 14.5152 96.268 14.6473Z"
        fill="white" />
    <path fill-rule="evenodd" clip-rule="evenodd"
        d="M44.5078 16.7947C46.0044 9.99072 63.0579 4.00989 71.1644 6.97019C79.4359 9.99072 76.124 16.5151 71.1202 19.3766C66.9289 21.7735 64.1632 21.8653 61.8914 21.7521C61.8517 23.998 62.453 25.5515 63.6949 26.4124C65.7619 27.8452 69.0342 25.9367 73.5116 20.6871L74.4131 21.8912V22.6123C70.4166 27.6252 67.0133 30.1317 64.2034 30.1317C59.9885 30.1317 59.3802 25.959 59.2249 24.4458C59.1213 23.4369 59.0696 22.9325 59.0696 22.9325C57.7088 25.8254 56.539 27.733 55.5603 28.6551C54.5815 29.5772 53.7673 30.0694 53.1177 30.1317C52.0989 29.9768 51.8257 29.3134 52.2981 28.1413C52.7705 26.9693 53.4948 25.6812 54.4709 24.277C56.418 21.4096 57.9422 18.908 59.0433 16.7721C60.6951 13.5682 61.2906 13.4891 62.2046 13.7388C62.8139 13.9053 63.0184 14.7787 62.8179 16.3589C62.4794 17.5622 62.2335 18.6654 62.0801 19.6686C66.1959 19.9755 72.1822 16.7919 72.1822 13.2147C72.1822 9.53248 65.0302 7.65609 57.3035 11.4701C49.5767 15.2841 48.2275 21.0647 48.0281 21.5532C47.8951 21.8788 47.5176 22.0082 46.8953 21.9414C44.7233 21.1487 43.9274 19.4331 44.5078 16.7947Z"
        fill="white" />
    <path fill-rule="evenodd" clip-rule="evenodd"
        d="M28.5202 0H9.13043C4.08783 0 0 4.12214 0 9.20705V28.7135C0 33.7984 4.08783 37.9206 9.13043 37.9206H28.5202C33.5628 37.9206 37.6506 33.7984 37.6506 28.7135V9.20705C37.6506 4.12214 33.5628 0 28.5202 0ZM25.4399 16.5823C25.4399 18.9393 24.0777 21.0807 21.9517 22.066L24.433 26.1938C24.6629 26.6009 24.5292 27.1184 24.1314 27.3609C23.7335 27.6034 23.2163 27.4827 22.9648 27.0888L19.9394 22.0581L18.7605 20.0965L18.3738 19.4509C18.3112 19.3459 18.2096 19.3459 18.1351 19.4693L13.5576 27.0882C13.4032 27.3615 13.1137 27.5289 12.8015 27.5252C12.4893 27.5215 12.2037 27.3474 12.0557 27.0706C11.9077 26.7937 11.9206 26.4578 12.0894 26.1933L17.5253 17.146C17.6809 16.8875 17.9592 16.7296 18.2594 16.7296C18.5595 16.7296 18.8379 16.8875 18.9935 17.146L21.0573 20.5716C21.7395 20.2911 22.339 19.8394 22.7986 19.2593C23.4017 18.4996 23.7287 17.555 23.7252 16.5823C23.7252 15.0429 22.9098 13.6205 21.5862 12.8509C20.2625 12.0812 18.6318 12.0812 17.3081 12.8509C15.9845 13.6205 15.1691 15.0429 15.1691 16.5823C15.1576 17.0513 14.7768 17.4255 14.311 17.4255C13.8451 17.4255 13.4643 17.0513 13.4528 16.5823C13.4528 13.2485 16.1362 10.5459 19.4464 10.5459C22.7565 10.5459 25.4399 13.2485 25.4399 16.5823Z"
        fill="white" />
</svg>