<svg width="90" height="38" viewBox="0 0 90 38" fill="none" xmlns="http://www.w3.org/2000/svg">
    <g clip-path="url(#clip0_508_1153)">
        <path
            d="M68.1851 21.2949C67.9726 21.3864 67.7686 21.4961 67.5752 21.6227C67.323 21.7986 67.0857 21.9946 66.8654 22.2086C66.0156 22.9734 65.3357 22.6655 64.6759 21.8114C64.3776 21.3631 64.2435 20.8266 64.296 20.2918C64.3105 19.2044 64.6594 18.1474 65.2957 17.2625C65.4652 16.9303 65.7593 16.6775 66.1146 16.5586C66.4699 16.4397 66.858 16.4642 67.1953 16.6268C67.5152 16.7262 67.8052 16.895 68.1151 17.0043C68.1648 17.0288 68.2196 17.0415 68.2751 17.0415C68.3306 17.0415 68.3853 17.0288 68.435 17.0043C68.6522 16.757 68.837 16.4833 68.9849 16.1898C69.1269 15.8477 69.2439 15.4959 69.3348 15.137L67.6252 15.0178C66.5094 14.9491 65.437 14.5629 64.5359 13.9055C64.477 13.8703 64.4302 13.8183 64.4016 13.7563C64.3731 13.6942 64.3641 13.625 64.3759 13.5578C64.5677 12.0638 64.4727 10.5473 64.096 9.08841C64.091 9.03887 64.091 8.98897 64.096 8.93943L64.9258 9.11821C66.1795 9.45377 67.4611 9.67649 68.755 9.78366H71.3944C71.5895 9.76867 71.7793 9.71319 71.9515 9.62081C72.1237 9.52842 72.2745 9.40119 72.3942 9.24733C72.6241 9.00896 72.8341 8.75072 73.064 8.53222C73.2386 8.35869 73.4514 8.22795 73.6857 8.15038C73.92 8.0728 74.1692 8.05051 74.4137 8.08528H74.6536C74.9936 8.08528 75.1535 8.20446 75.1735 8.58188C75.2308 9.19212 75.056 9.80154 74.6836 10.2902C73.5772 11.6939 72.4908 13.1175 71.4244 14.561C70.7332 15.5459 70.2253 16.6459 69.9247 17.8087C69.9247 17.8087 69.9247 17.8882 69.9247 17.9478C70.6245 18.3749 71.3044 18.8218 72.0142 19.2092C72.3627 19.413 72.7674 19.5017 73.1698 19.4624C73.5723 19.4232 73.9518 19.258 74.2537 18.9907C74.5937 18.7324 74.9536 18.4941 75.2535 18.2358C75.3351 18.1729 75.3946 18.086 75.4235 17.9875C75.7134 16.6368 76.0233 15.2959 76.2833 13.9452C76.4914 13.0992 76.5152 12.2188 76.3533 11.3629C76.2633 11.055 76.1533 10.7669 76.0333 10.469L75.9434 10.2703C76.4273 10.0739 76.941 9.95971 77.463 9.93264C78.3093 9.85172 79.1632 9.90536 79.9925 10.0915C80.1015 10.1183 80.2015 10.1731 80.2824 10.2505C80.7418 10.7 81.0921 11.2475 81.3069 11.8515C81.5217 12.4555 81.5953 13.1002 81.5221 13.7366C81.3902 14.9133 81.1424 16.0743 80.7823 17.2029C80.4824 18.3252 80.2024 19.4575 79.9325 20.5997C79.8911 20.8094 79.8643 21.0218 79.8525 21.2353H79.9125C80.1382 21.0326 80.3518 20.817 80.5523 20.5897C81.1579 19.7855 81.5808 18.8604 81.7921 17.8783C82.142 16.5076 82.4519 15.1172 82.7918 13.7465C82.9947 12.7656 83.3311 11.8166 83.7916 10.9258C84.0037 10.5103 84.3134 10.1517 84.6945 9.88027C85.0756 9.60885 85.5169 9.43262 85.9811 9.36651C86.6581 9.28437 87.3449 9.36967 87.9807 9.61481C88.3606 9.75386 88.7205 9.91277 89.1104 10.0717C87.9157 13.8164 87.1149 17.6741 86.721 21.5829C86.8391 21.6177 86.9645 21.6203 87.0841 21.5906C87.2036 21.561 87.313 21.5 87.4008 21.4141C87.6432 21.1964 87.8611 20.9533 88.0507 20.689C88.3706 20.2123 88.6605 19.6958 88.9705 19.2191C89.2175 18.7744 89.5586 18.3881 89.9702 18.0868C90.0552 18.4595 90.0552 18.8464 89.9702 19.2191C89.7812 20.1161 89.3531 20.9463 88.7305 21.6227C87.9532 22.4875 87.0209 23.2015 85.9811 23.7282C85.9147 23.7584 85.8565 23.8039 85.8113 23.8609C85.7661 23.9179 85.7352 23.9848 85.7212 24.056C85.1803 26.1299 84.2768 28.0932 83.0518 29.8563C82.0917 31.2278 80.8603 32.3903 79.4326 33.2729C79.1226 33.4392 78.783 33.5437 78.4328 33.5808C77.8843 33.6909 77.3194 33.6924 76.7703 33.585C76.2213 33.4776 75.6991 33.2635 75.2335 32.9551C74.8353 32.6919 74.4934 32.3531 74.2274 31.9581C73.9615 31.5632 73.7767 31.1199 73.6838 30.6538C73.5909 30.1877 73.5916 29.7079 73.686 29.2421C73.7804 28.7762 73.9665 28.3335 74.2337 27.9394C74.3237 27.8103 74.4237 27.6812 74.5237 27.562L74.7136 27.3435C74.1838 27.3435 73.7139 27.4031 73.214 27.4528C71.2144 27.6812 69.2149 27.86 67.2153 28.1579C64.7259 28.5354 62.2164 28.9326 59.767 29.4491C55.048 30.4423 50.3391 31.4355 45.6301 32.5082C42.0809 33.2829 38.5417 34.0973 34.9825 34.8621C31.4233 35.6268 27.8141 36.3022 24.2049 36.8485C21.1155 37.3053 18.0162 37.7026 14.8969 37.8417C13.4472 37.9211 11.9876 37.9907 10.5379 37.9708C8.39187 38.0013 6.25393 37.7031 4.1993 37.0868C3.16581 36.7862 2.21287 36.2603 1.40992 35.5474C0.876916 35.0427 0.472786 34.419 0.231091 33.728C-0.0106046 33.0371 -0.0828911 32.2988 0.0202332 31.5746C0.173963 30.4414 0.504524 29.339 1.00002 28.3069L1.28995 28.5453C2.38788 29.4476 3.64586 30.1381 4.99913 30.5814C6.9087 31.2076 8.87899 31.6337 10.8778 31.8527C14.2359 32.2329 17.618 32.3624 20.9956 32.24C23.9349 32.1804 26.8743 32.0016 29.7936 31.6739C32.2831 31.3958 34.7925 31.1078 37.242 30.7303C41.451 30.0848 45.6601 29.3696 49.8692 28.6645C53.3984 28.0685 56.8676 27.4329 60.4368 26.8568C62.9063 26.4496 65.3657 26.0921 67.8452 25.7643C69.9347 25.4961 72.0342 25.2876 74.1338 25.1088C74.8943 25.0873 75.6555 25.1105 76.4133 25.1783C77.4161 25.2847 78.4298 25.2242 79.4126 24.9995C80.004 24.8401 80.5189 24.4767 80.8652 23.9744C81.2114 23.4721 81.3663 22.8637 81.3022 22.2583C80.9729 22.3174 80.6675 22.4691 80.4224 22.6953C80.0185 23.0348 79.5014 23.2119 78.9727 23.1919C78.5481 23.1692 78.1419 23.0127 77.813 22.745C77.3131 22.3676 76.8132 21.9504 76.3333 21.573C75.9507 21.3348 75.648 20.9891 75.4635 20.5798C75.403 20.3974 75.3529 20.2117 75.3135 20.0236C75.3135 19.964 75.3135 19.9044 75.3135 19.8051C74.7099 20.2063 74.1473 20.6654 73.6339 21.1757C73.1139 21.7205 72.556 22.2283 71.9642 22.6953C71.6174 22.9447 71.2227 23.1205 70.8045 23.2118C70.462 23.2885 70.104 23.2592 69.7787 23.1278C69.4534 22.9964 69.1764 22.7692 68.9849 22.4768C68.705 22.1193 68.475 21.722 68.1751 21.2949H68.1851ZM80.1824 26.7079C79.5416 27.5452 79.0295 28.4723 78.6628 29.459C78.4427 30.028 78.3638 30.6412 78.4328 31.2468C78.483 31.6943 78.6797 32.113 78.9927 32.4386C79.0339 32.4109 79.071 32.3775 79.1027 32.3393C80.1022 31.0765 80.6445 29.5161 80.6423 27.9096C80.6506 27.6889 80.6142 27.4688 80.5351 27.2624C80.4561 27.0559 80.3362 26.8674 80.1824 26.7079Z"
            fill="white" />
        <path
            d="M12.637 11.3823C12.7442 12.4492 12.5898 13.526 12.1871 14.5208C12.0067 14.9885 11.6752 15.3835 11.2447 15.6441C10.8141 15.9047 10.3088 16.0161 9.80767 15.961C8.64984 15.9515 7.53328 15.5325 6.65837 14.7791C6.24271 14.4014 5.91205 13.9407 5.68807 13.4272C5.46409 12.9137 5.35184 12.359 5.35866 11.7994C5.31404 10.5074 5.56012 9.22182 6.07899 8.03627C6.59786 6.85072 7.37644 5.7951 8.35799 4.94633C10.4373 3.08987 12.9167 1.73089 15.6064 0.97351C17.9485 0.222365 20.4054 -0.113821 22.8648 -0.019694C24.7004 0.0463372 26.5019 0.4929 28.1536 1.29134C29.1625 1.75765 30.021 2.49356 30.633 3.41679C30.9636 3.98468 31.1668 4.61674 31.2289 5.26981C31.291 5.92287 31.2106 6.58157 30.993 7.2009C30.4794 8.78592 29.4839 10.1739 28.1436 11.1737C27.0425 12.038 25.8241 12.7435 24.5244 13.2694L24.2145 13.3985L24.5444 14.491C24.9843 15.9908 25.4142 17.4706 25.8841 19.0002C26.0355 19.464 26.2437 19.9077 26.504 20.3211C26.5456 20.4231 26.6072 20.5159 26.6852 20.5942C26.7631 20.6724 26.8559 20.7346 26.9581 20.777C27.0603 20.8195 27.17 20.8414 27.2808 20.8416C27.3916 20.8418 27.5014 20.8202 27.6037 20.778C27.7201 20.7255 27.8254 20.6514 27.9137 20.5595C28.3486 20.193 28.691 19.7304 28.9134 19.2087C29.0514 18.9481 29.1651 18.6755 29.2534 18.3943C29.2727 18.3039 29.3256 18.224 29.4016 18.1706C29.4776 18.1173 29.571 18.0943 29.6633 18.1063C29.758 18.0936 29.8541 18.1159 29.9334 18.169C30.0127 18.2221 30.0695 18.3023 30.0932 18.3943C30.1429 18.6033 30.1429 18.821 30.0932 19.03C29.7518 20.0872 29.1703 21.0523 28.3935 21.8507C27.607 22.7623 26.5615 23.4166 25.3942 23.7278C24.9438 23.8645 24.4627 23.8647 24.0121 23.7285C23.5616 23.5923 23.1622 23.3258 22.8648 22.9631C22.0207 22.0173 21.3445 20.9358 20.8652 19.7649C20.2054 18.2056 19.6155 16.6065 19.0156 15.0274C18.9356 14.8287 18.8557 14.7691 18.6457 14.7989C18.4358 14.8287 18.4558 14.8784 18.4458 15.0174C18.3558 16.0106 18.2758 17.0932 18.1458 18.1162C18.0087 19.7453 17.532 21.3282 16.7461 22.7644C16.2411 23.7358 15.3779 24.4759 14.3367 24.8303C13.7953 24.997 13.2198 25.0215 12.6661 24.9014C12.1124 24.7813 11.5995 24.5207 11.1774 24.145C11.8792 22.8428 12.3558 21.4326 12.5871 19.9735C13.0954 17.5871 13.4593 15.1726 13.6768 12.743C13.8415 10.7077 14.1118 8.68214 14.4866 6.6745C14.5966 6.21763 14.7266 5.76076 14.8765 5.31381C15.068 4.71318 15.4141 4.17266 15.8805 3.74584C16.347 3.31901 16.9177 3.0207 17.536 2.88046C18.7131 2.53155 19.9801 2.64534 21.0752 3.19829C21.4609 3.36699 21.7805 3.65653 21.985 4.02265C22.0554 4.18767 22.1155 4.35683 22.1649 4.52918C21.3974 4.92233 20.8081 5.58939 20.5153 6.39641C19.8865 7.77443 19.4363 9.22618 19.1756 10.7168C19.0256 11.4518 18.9157 12.1967 18.7757 12.9317V13.1303C19.1356 13.0509 19.4755 13.0012 19.7755 12.9019C20.911 12.6252 21.9607 12.0756 22.8323 11.3015C23.7039 10.5273 24.3708 9.55238 24.7743 8.46227C25.1617 7.46368 25.2856 6.3833 25.1343 5.32375C25.052 4.58152 24.7347 3.88441 24.228 3.33286C23.7213 2.78131 23.0514 2.40381 22.3149 2.25474C21.3357 2.00861 20.3217 1.92803 19.3156 2.01638C17.4387 2.06596 15.5998 2.55243 13.9468 3.43666C11.9749 4.42963 10.4614 6.13585 9.71769 8.20404C9.49883 8.75258 9.4132 9.34465 9.46775 9.93221C9.50172 10.349 9.6884 10.739 9.99244 11.0282C10.2965 11.3174 10.6967 11.4858 11.1174 11.5015C11.6263 11.5013 12.1344 11.4614 12.637 11.3823Z"
            fill="white" />
        <path
            d="M41.2612 1.39059C40.2161 3.15048 39.4506 5.06004 38.9917 7.05185C38.5018 9.03826 38.1119 11.0247 37.712 13.0806C37.3621 14.8386 37.0421 16.5965 36.7722 18.3644C36.6022 19.4371 36.5423 20.5296 36.4623 21.6122C36.4454 21.9071 36.4792 22.2027 36.5622 22.4862C36.7322 23.1616 37.1921 23.3106 37.662 22.7941C38.0641 22.3372 38.4191 21.8415 38.7218 21.3143C39.6732 19.5807 40.4662 17.7658 41.0912 15.8914C42.3747 12.197 43.3773 8.41223 44.0906 4.56884C44.1208 4.42471 44.1208 4.27596 44.0906 4.13183C43.9312 3.58953 43.801 3.03918 43.7007 2.48311C43.5977 2.0657 43.665 1.62478 43.8878 1.25643C44.1107 0.888077 44.4711 0.622143 44.8904 0.516566H45.1203C46.1179 0.335387 47.1476 0.476878 48.0582 0.920244C48.9688 1.36361 49.7122 2.08546 50.1792 2.97971C50.4551 3.6561 50.5381 4.39492 50.4192 5.1151C50.3887 5.55233 50.3286 5.98701 50.2392 6.4162C50.1696 6.69816 50.0862 6.97659 49.9893 7.25049C48.8278 10.9346 47.0353 14.392 44.6904 17.4706C43.3161 19.3928 41.6849 21.1203 39.8415 22.6054C38.9667 23.3612 37.9462 23.9323 36.8422 24.2839C36.3892 24.4541 35.8907 24.4619 35.4326 24.306C34.9745 24.15 34.5855 23.8402 34.3327 23.4298C33.6016 22.3982 33.0725 21.2392 32.7731 20.0132C32.0997 17.5495 31.8363 14.9931 31.9933 12.445C32.1041 9.81976 32.5235 7.21644 33.243 4.68802C33.5317 3.68119 33.9447 2.71373 34.4727 1.80773C34.6754 1.42232 34.9718 1.09328 35.335 0.850465C35.6981 0.60765 36.1165 0.458741 36.5523 0.417245C37.7695 0.257393 39.0071 0.359002 40.1814 0.715207C40.6059 0.817149 40.9852 1.05436 41.2612 1.39059Z"
            fill="white" />
        <path
            d="M55.5693 9.85254C57.0975 9.86263 58.5889 10.3185 59.8584 11.1636C60.1964 11.3869 60.482 11.6799 60.6959 12.0227C60.9099 12.3654 61.047 12.7499 61.0981 13.15C61.1817 13.8438 61.0229 14.545 60.6482 15.1364C60.0271 16.1395 59.1735 16.9806 58.1588 17.5896C56.9733 18.3359 55.7009 18.9362 54.3696 19.3774C54.0797 19.4767 53.9697 19.2781 53.8397 19.1191C53.8062 19.0859 53.7796 19.0464 53.7614 19.003C53.7432 18.9595 53.7339 18.9129 53.7339 18.8659C53.7339 18.8188 53.7432 18.7722 53.7614 18.7288C53.7796 18.6853 53.8062 18.6458 53.8397 18.6126C53.9184 18.5324 54.0095 18.4654 54.1097 18.414C54.9153 18.0323 55.5748 17.4016 55.9893 16.6163C56.7983 15.3487 57.2792 13.902 57.3889 12.4051C57.4074 12.1376 57.3804 11.869 57.309 11.6105C57.3027 11.5413 57.2827 11.4739 57.2501 11.4124C57.2175 11.3509 57.173 11.2964 57.119 11.2521C57.0651 11.2078 57.0029 11.1745 56.936 11.1542C56.869 11.1339 56.7987 11.1269 56.7291 11.1338C56.6388 11.1458 56.5529 11.1799 56.4791 11.2331C56.2039 11.3978 55.9602 11.6096 55.7593 11.8588C55.1697 12.6662 54.7202 13.5659 54.4296 14.5206C53.901 15.9567 53.591 17.4631 53.5098 18.99C53.498 19.4143 53.5417 19.8383 53.6398 20.2514C53.7142 20.7038 53.9502 21.1145 54.3046 21.4082C54.6589 21.7018 55.1079 21.8588 55.5693 21.8504C57.0167 21.9009 58.4413 21.4826 59.6284 20.6586C60.6784 20.0504 61.5051 19.1247 61.9879 18.0167C62.0679 17.828 62.2379 17.8776 62.3778 17.8876C62.4277 17.8849 62.4777 17.892 62.5248 17.9085C62.5719 17.9251 62.6153 17.9507 62.6525 17.9839C62.6896 18.0171 62.7198 18.0573 62.7413 18.1021C62.7628 18.1469 62.7752 18.1955 62.7777 18.2451C62.7996 18.489 62.7759 18.7348 62.7078 18.9702C62.4688 19.68 62.0685 20.3257 61.538 20.8572C60.0885 22.3174 58.1872 23.2513 56.1392 23.5091C54.7099 23.7684 53.2357 23.6168 51.8902 23.0721C50.66 22.5834 49.6296 21.7002 48.9629 20.5627C48.2962 19.4253 48.0315 18.0991 48.211 16.795C48.3879 15.1846 49.0685 13.6698 50.157 12.4637C51.2456 11.2576 52.6874 10.4208 54.2796 10.071C54.7395 9.97172 55.2194 9.95186 55.5693 9.9022V9.85254Z"
            fill="white" />
    </g>
    <defs>
        <clipPath id="clip0_508_1153">
            <rect width="90" height="38" fill="white" />
        </clipPath>
    </defs>
</svg>