<svg width="131" height="48" viewBox="0 0 131 48" fill="none" xmlns="http://www.w3.org/2000/svg">
<g clip-path="url(#clip0_14701_14250)">
<path fill-rule="evenodd" clip-rule="evenodd" d="M129.252 14.3413V18.23C127.236 17.4695 125.44 17.0849 123.869 17.0849C122.938 17.0849 122.197 17.2571 121.639 17.59C121.082 17.9258 120.797 18.3391 120.797 18.827C120.797 19.4756 121.427 20.0524 122.694 20.5691L126.354 22.3484C129.313 23.7576 130.781 25.6287 130.781 27.9792C130.781 29.9336 130.002 31.492 128.431 32.6457C126.871 33.811 124.771 34.3878 122.156 34.3878C120.95 34.3878 119.867 34.3361 118.904 34.2271C117.942 34.1238 116.836 33.9114 115.609 33.6071V29.5376C117.859 30.2982 119.907 30.6827 121.751 30.6827C123.952 30.6827 125.046 30.0456 125.046 28.7598C125.046 28.1198 124.598 27.6033 123.688 27.1986L119.622 25.468C118.123 24.7907 117.008 23.9699 116.278 22.997C115.56 22.0155 115.195 20.8905 115.195 19.6048C115.195 17.8053 115.954 16.356 117.453 15.2539C118.965 14.1604 120.97 13.6123 123.464 13.6123C124.274 13.6123 125.207 13.684 126.242 13.8161C127.284 13.9567 128.287 14.1289 129.252 14.3413Z" fill="url(#paint0_linear_14701_14250)"/>
<path fill-rule="evenodd" clip-rule="evenodd" d="M14.1188 14.3413V18.23C12.102 17.4695 10.3093 17.0849 8.73782 17.0849C7.80412 17.0849 7.06583 17.2571 6.50845 17.59C5.95114 17.9258 5.66671 18.3391 5.66671 18.827C5.66671 19.4756 6.3045 20.0524 7.57145 20.5691L11.2315 22.3484C14.1791 23.7576 15.6501 25.6287 15.6501 27.9792C15.6501 29.9336 14.8686 31.492 13.3086 32.6457C11.7371 33.811 9.64855 34.3878 7.02563 34.3878C5.81898 34.3878 4.73301 34.3361 3.77059 34.2271C2.80817 34.1238 1.71359 33.9114 0.478293 33.6071V29.5376C2.73638 30.2982 4.78477 30.6827 6.61764 30.6827C8.8183 30.6827 9.91288 30.0456 9.91288 28.7598C9.91288 28.1198 9.46757 27.6033 8.56545 27.1986L4.50034 25.468C2.98916 24.7907 1.87447 23.9699 1.15628 22.997C0.426536 22.0155 0.0703125 20.8905 0.0703125 19.6048C0.0703125 17.8053 0.823031 16.356 2.33127 15.2539C3.83096 14.1604 5.83908 13.6123 8.33278 13.6123C9.15155 13.6123 10.0738 13.684 11.1195 13.8161C12.1537 13.9567 13.1564 14.1289 14.1188 14.3413Z" fill="url(#paint1_linear_14701_14250)"/>
<path fill-rule="evenodd" clip-rule="evenodd" d="M18.3125 13.9756H24.2738V34.0221H18.3125V13.9756Z" fill="url(#paint2_linear_14701_14250)"/>
<path fill-rule="evenodd" clip-rule="evenodd" d="M43.4927 13.9756V17.6807H34.6355V22.1262H42.3177V25.4668H34.6355V30.1334H43.6737V34.0221H28.8984V13.9756H43.4927Z" fill="url(#paint3_linear_14701_14250)"/>
<path fill-rule="evenodd" clip-rule="evenodd" d="M71.3144 13.9756V34.0221H65.7493V20.8003L59.9751 34.2058H56.5392L50.9859 20.8003V34.0221H46.9609V13.9756H54.2379L59.2052 26.2474L64.4023 13.9756H71.3144Z" fill="url(#paint4_linear_14701_14250)"/>
<path fill-rule="evenodd" clip-rule="evenodd" d="M90.5161 13.9756V17.6807H81.7073V22.1262H89.3895V25.4668H81.7073V30.1334H90.6971V34.0221H75.9219V13.9756H90.5161Z" fill="url(#paint5_linear_14701_14250)"/>
<path fill-rule="evenodd" clip-rule="evenodd" d="M111.426 13.9756V34.0221H105.103L98.0067 21.1648V34.0221H93.9844V13.9756H100.492L107.404 26.612V13.9756H111.426Z" fill="url(#paint6_linear_14701_14250)"/>
</g>
<defs>
<linearGradient id="paint0_linear_14701_14250" x1="122.988" y1="13.6123" x2="122.988" y2="34.3878" gradientUnits="userSpaceOnUse">
<stop stop-color="white"/>
<stop offset="1" stop-color="white" stop-opacity="0.8"/>
</linearGradient>
<linearGradient id="paint1_linear_14701_14250" x1="7.86019" y1="13.6123" x2="7.86019" y2="34.3878" gradientUnits="userSpaceOnUse">
<stop stop-color="white"/>
<stop offset="1" stop-color="white" stop-opacity="0.8"/>
</linearGradient>
<linearGradient id="paint2_linear_14701_14250" x1="21.2932" y1="13.9756" x2="21.2932" y2="34.0221" gradientUnits="userSpaceOnUse">
<stop stop-color="white"/>
<stop offset="1" stop-color="white" stop-opacity="0.8"/>
</linearGradient>
<linearGradient id="paint3_linear_14701_14250" x1="36.2861" y1="13.9756" x2="36.2861" y2="34.0221" gradientUnits="userSpaceOnUse">
<stop stop-color="white"/>
<stop offset="1" stop-color="white" stop-opacity="0.8"/>
</linearGradient>
<linearGradient id="paint4_linear_14701_14250" x1="59.1377" y1="13.9756" x2="59.1377" y2="34.2058" gradientUnits="userSpaceOnUse">
<stop stop-color="white"/>
<stop offset="1" stop-color="white" stop-opacity="0.8"/>
</linearGradient>
<linearGradient id="paint5_linear_14701_14250" x1="83.3095" y1="13.9756" x2="83.3095" y2="34.0221" gradientUnits="userSpaceOnUse">
<stop stop-color="white"/>
<stop offset="1" stop-color="white" stop-opacity="0.8"/>
</linearGradient>
<linearGradient id="paint6_linear_14701_14250" x1="102.705" y1="13.9756" x2="102.705" y2="34.0221" gradientUnits="userSpaceOnUse">
<stop stop-color="white"/>
<stop offset="1" stop-color="white" stop-opacity="0.8"/>
</linearGradient>
<clipPath id="clip0_14701_14250">
<rect width="130.711" height="48" fill="white" transform="translate(0.0703125)"/>
</clipPath>
</defs>
</svg>
