<svg width="135" height="26" viewBox="0 0 135 26" fill="none" xmlns="http://www.w3.org/2000/svg">
<g clip-path="url(#clip0_14628_15139)">
<path fill-rule="evenodd" clip-rule="evenodd" d="M43.9042 10.6758V18.8672H41.1311V10.6758H36.7734V8.39746H48.2694V10.6758H43.9042ZM50.1006 18.8672V8.39746H60.4978V10.6301H52.9485V12.3598H60.1091V14.5925H52.9485V16.6346H60.6025V18.8672H50.1006ZM72.9804 18.8672L66.0514 11.674V18.8672H63.2784V8.39746H66.2906L73.2271 15.6212V8.39746H75.9852V18.8672H72.9804ZM91.779 13.6247C91.779 14.2953 91.7068 14.8909 91.5622 15.4116C91.4177 15.9323 91.2147 16.3857 90.9531 16.7718C90.6915 17.1578 90.3775 17.4855 90.0113 17.7547C89.645 18.024 89.2376 18.2399 88.7892 18.4024C88.3407 18.565 87.8573 18.6831 87.3391 18.7568C86.8209 18.8304 86.2802 18.8672 85.7171 18.8672H79.1993V8.39746H85.7022C86.2653 8.39746 86.8059 8.43429 87.3241 8.50795C87.8424 8.58161 88.327 8.69972 88.778 8.86228C89.2289 9.02484 89.6388 9.23946 90.0075 9.50616C90.3763 9.77286 90.6915 10.1005 90.9531 10.4891C91.2147 10.8778 91.4177 11.3311 91.5622 11.8493C91.7068 12.3674 91.779 12.9593 91.779 13.6247ZM88.9835 13.6247C88.9835 13.1218 88.92 12.6849 88.7929 12.3141C88.6658 11.9433 88.4615 11.6372 88.18 11.3959C87.8984 11.1546 87.5309 10.9743 87.0775 10.8549C86.624 10.7355 86.0709 10.6758 85.4181 10.6758H81.9723V16.5889H85.4181C86.0709 16.5889 86.624 16.5292 87.0775 16.4098C87.5309 16.2904 87.8984 16.1076 88.18 15.8612C88.4615 15.6148 88.6658 15.3062 88.7929 14.9354C88.92 14.5645 88.9835 14.1277 88.9835 13.6247ZM94.3054 18.8672V8.39746H104.703V10.6301H97.1532V12.3598H104.314V14.5925H97.1532V16.6346H104.807V18.8672H94.3054ZM110.256 18.8672H107.483V8.39746H114.435C115.182 8.39746 115.816 8.4762 116.337 8.63368C116.858 8.79116 117.281 9.01467 117.607 9.30423C117.934 9.59379 118.171 9.94303 118.318 10.352C118.465 10.7609 118.538 11.2168 118.538 11.7198C118.538 12.1617 118.477 12.5478 118.355 12.878C118.233 13.2082 118.068 13.4914 117.862 13.7276C117.655 13.9638 117.414 14.1632 117.14 14.3258C116.866 14.4883 116.577 14.6229 116.273 14.7296L119.637 18.8672H116.393L113.283 15.0116H110.256V18.8672ZM115.735 11.7045C115.735 11.5013 115.709 11.3286 115.657 11.1864C115.604 11.0441 115.513 10.9285 115.384 10.8396C115.254 10.7507 115.081 10.686 114.864 10.6453C114.648 10.6047 114.377 10.5844 114.053 10.5844H110.256V12.8246H114.053C114.377 12.8246 114.648 12.8043 114.864 12.7637C115.081 12.723 115.254 12.6583 115.384 12.5694C115.513 12.4805 115.604 12.3649 115.657 12.2227C115.709 12.0804 115.735 11.9077 115.735 11.7045ZM134.205 13.6247C134.205 14.2953 134.133 14.8909 133.988 15.4116C133.844 15.9323 133.641 16.3857 133.379 16.7718C133.117 17.1578 132.803 17.4855 132.437 17.7547C132.071 18.024 131.663 18.2399 131.215 18.4024C130.767 18.565 130.283 18.6831 129.765 18.7568C129.247 18.8304 128.706 18.8672 128.143 18.8672H121.625V8.39746H128.128C128.691 8.39746 129.232 8.43429 129.75 8.50795C130.268 8.58161 130.753 8.69972 131.204 8.86228C131.655 9.02484 132.065 9.23946 132.433 9.50616C132.802 9.77286 133.117 10.1005 133.379 10.4891C133.641 10.8778 133.844 11.3311 133.988 11.8493C134.133 12.3674 134.205 12.9593 134.205 13.6247ZM131.409 13.6247C131.409 13.1218 131.346 12.6849 131.219 12.3141C131.092 11.9433 130.887 11.6372 130.606 11.3959C130.324 11.1546 129.957 10.9743 129.503 10.8549C129.05 10.7355 128.497 10.6758 127.844 10.6758H124.398V16.5889H127.844C128.497 16.5889 129.05 16.5292 129.503 16.4098C129.957 16.2904 130.324 16.1076 130.606 15.8612C130.887 15.6148 131.092 15.3062 131.219 14.9354C131.346 14.5645 131.409 14.1277 131.409 13.6247Z" fill="url(#paint0_linear_14628_15139)"/>
<path fill-rule="evenodd" clip-rule="evenodd" d="M22.7392 13.3411H25.4203V20.0096C25.4203 20.1761 25.5541 20.311 25.7191 20.311H31.4638C31.6288 20.311 31.7626 20.1761 31.7626 20.0096C31.7626 19.9265 31.7286 19.8471 31.6687 19.7902C30.6817 18.8516 29.6857 17.6432 28.6808 16.165C27.509 14.4413 26.8657 11.6999 26.7508 7.94086C26.7458 7.77805 26.6136 7.64867 26.4522 7.64867H25.7191C25.5541 7.64867 25.4203 7.78365 25.4203 7.95015V12.0064H22.7005C22.5468 11.3389 21.9537 10.8415 21.2454 10.8415H13.6989C13.7023 10.78 13.6972 10.717 13.6828 10.654L12.6875 6.30381C12.6717 6.23472 12.6458 6.17064 12.6118 6.11278C12.5146 5.86477 12.276 5.68945 11.997 5.68945H4.48992C4.12468 5.68945 3.82859 5.98824 3.82859 6.35681V10.8272L3.82874 10.8415H3.64222C2.81723 10.8415 2.14844 11.5164 2.14844 12.3489V14.087C2.14844 14.1427 2.15143 14.1977 2.15726 14.2518C2.58855 14.0011 3.08881 13.8577 3.62227 13.8577H21.6229C22.018 13.8577 22.395 13.9364 22.7392 14.0791V13.3411ZM11.4966 7.03188L12.3682 10.8415H5.15111L5.15126 10.8272V7.03188H11.4966ZM21.5308 14.5481H3.79302C2.22891 14.5481 0.960938 15.8381 0.960938 17.4294C0.960938 19.0207 2.22891 20.3107 3.79302 20.3107H21.5308C23.0949 20.3107 24.3629 19.0207 24.3629 17.4294C24.3629 15.8381 23.0949 14.5481 21.5308 14.5481ZM6.64832 17.5571C6.64832 18.604 5.81413 19.4527 4.78511 19.4527C3.75608 19.4527 2.92189 18.604 2.92189 17.5571C2.92189 16.5102 3.75608 15.6615 4.78511 15.6615C5.81413 15.6615 6.64832 16.5102 6.64832 17.5571ZM12.0606 17.5571C12.0606 18.604 11.2264 19.4527 10.1973 19.4527C9.16832 19.4527 8.33413 18.604 8.33413 17.5571C8.33413 16.5102 9.16832 15.6615 10.1973 15.6615C11.2264 15.6615 12.0606 16.5102 12.0606 17.5571ZM22.6737 17.5571C22.6737 18.604 21.8395 19.4527 20.8105 19.4527C19.7815 19.4527 18.9473 18.604 18.9473 17.5571C18.9473 16.5102 19.7815 15.6615 20.8105 15.6615C21.8395 15.6615 22.6737 16.5102 22.6737 17.5571ZM17.3671 17.5571C17.3671 18.604 16.5329 19.4527 15.5039 19.4527C14.4749 19.4527 13.6407 18.604 13.6407 17.5571C13.6407 16.5102 14.4749 15.6615 15.5039 15.6615C16.5329 15.6615 17.3671 16.5102 17.3671 17.5571Z" fill="url(#paint1_linear_14628_15139)"/>
</g>
<defs>
<linearGradient id="paint0_linear_14628_15139" x1="85.4891" y1="8.39746" x2="85.4891" y2="18.8672" gradientUnits="userSpaceOnUse">
<stop stop-color="white"/>
<stop offset="1" stop-color="white" stop-opacity="0.8"/>
</linearGradient>
<linearGradient id="paint1_linear_14628_15139" x1="16.3618" y1="5.68945" x2="16.3618" y2="20.311" gradientUnits="userSpaceOnUse">
<stop stop-color="white"/>
<stop offset="1" stop-color="white" stop-opacity="0.8"/>
</linearGradient>
<clipPath id="clip0_14628_15139">
<rect width="133.25" height="26" fill="white" transform="translate(0.953125)"/>
</clipPath>
</defs>
</svg>
