<svg width="183" height="30" viewBox="0 0 183 30" fill="none" xmlns="http://www.w3.org/2000/svg">
<g clip-path="url(#clip0_14401_14064)">
<g clip-path="url(#clip1_14401_14064)">
<path fill-rule="evenodd" clip-rule="evenodd" d="M58.6645 11.8225V23.027H54.8757V11.8225H48.9219V8.70605H64.6285V11.8225H58.6645ZM67.1305 23.027V8.70605H81.336V11.7599H71.0215V14.1259H80.8049V17.1798H71.0215V19.9732H81.4789V23.027H67.1305ZM98.3906 23.027L88.9238 13.1879V23.027H85.135V8.70605H89.2506L98.7276 18.5869V8.70605H102.496V23.027H98.3906ZM124.075 15.8561C124.075 16.7733 123.976 17.5881 123.779 18.3003C123.581 19.0125 123.304 19.6327 122.946 20.1608C122.589 20.6889 122.16 21.137 121.66 21.5053C121.159 21.8736 120.603 22.1689 119.99 22.3912C119.377 22.6136 118.717 22.7752 118.009 22.8759C117.301 22.9767 116.562 23.027 115.793 23.027H106.887V8.70605H115.772C116.541 8.70605 117.28 8.75643 117.988 8.85719C118.696 8.95794 119.358 9.11949 119.975 9.34185C120.591 9.5642 121.151 9.85778 121.654 10.2226C122.158 10.5874 122.589 11.0356 122.946 11.5671C123.304 12.0987 123.581 12.7188 123.779 13.4276C123.976 14.1364 124.075 14.9459 124.075 15.8561ZM120.255 15.8561C120.255 15.1682 120.169 14.5706 119.995 14.0634C119.821 13.5561 119.542 13.1375 119.158 12.8074C118.773 12.4774 118.271 12.2307 117.651 12.0674C117.032 11.9041 116.276 11.8225 115.384 11.8225H110.676V19.9106H115.384C116.276 19.9106 117.032 19.829 117.651 19.6657C118.271 19.5024 118.773 19.2522 119.158 18.9152C119.542 18.5782 119.821 18.1561 119.995 17.6489C120.169 17.1416 120.255 16.544 120.255 15.8561ZM127.527 23.027V8.70605H141.732V11.7599H131.417V14.1259H141.201V17.1798H131.417V19.9732H141.875V23.027H127.527ZM149.32 23.027H145.531V8.70605H155.029C156.05 8.70605 156.916 8.81376 157.628 9.02916C158.339 9.24457 158.918 9.5503 159.364 9.94637C159.81 10.3424 160.133 10.8202 160.334 11.3795C160.535 11.9389 160.635 12.5625 160.635 13.2504C160.635 13.8549 160.552 14.383 160.385 14.8347C160.218 15.2863 159.993 15.6737 159.711 15.9968C159.428 16.3199 159.1 16.5927 158.725 16.815C158.351 17.0374 157.956 17.2215 157.541 17.3674L162.136 23.027H157.704L153.456 17.7531H149.32V23.027ZM156.805 13.2296C156.805 12.9516 156.77 12.7154 156.698 12.5208C156.627 12.3263 156.502 12.1682 156.325 12.0466C156.148 11.925 155.912 11.8364 155.616 11.7808C155.32 11.7252 154.95 11.6974 154.508 11.6974H149.32V14.7617H154.508C154.95 14.7617 155.32 14.7339 155.616 14.6783C155.912 14.6228 156.148 14.5342 156.325 14.4126C156.502 14.291 156.627 14.1329 156.698 13.9383C156.77 13.7438 156.805 13.5075 156.805 13.2296ZM182.04 15.8561C182.04 16.7733 181.942 17.5881 181.744 18.3003C181.547 19.0125 181.269 19.6327 180.912 20.1608C180.554 20.6889 180.125 21.137 179.625 21.5053C179.125 21.8736 178.568 22.1689 177.955 22.3912C177.343 22.6136 176.682 22.7752 175.974 22.8759C175.266 22.9767 174.527 23.027 173.758 23.027H164.853V8.70605H173.738C174.507 8.70605 175.246 8.75643 175.954 8.85719C176.662 8.95794 177.324 9.11949 177.94 9.34185C178.556 9.5642 179.116 9.85778 179.62 10.2226C180.124 10.5874 180.554 11.0356 180.912 11.5671C181.269 12.0987 181.547 12.7188 181.744 13.4276C181.942 14.1364 182.04 14.9459 182.04 15.8561ZM178.221 15.8561C178.221 15.1682 178.134 14.5706 177.96 14.0634C177.787 13.5561 177.508 13.1375 177.123 12.8074C176.738 12.4774 176.236 12.2307 175.617 12.0674C174.997 11.9041 174.241 11.8225 173.35 11.8225H168.642V19.9106H173.35C174.241 19.9106 174.997 19.829 175.617 19.6657C176.236 19.5024 176.738 19.2522 177.123 18.9152C177.508 18.5782 177.787 18.1561 177.96 17.6489C178.134 17.1416 178.221 16.544 178.221 15.8561Z" fill="url(#paint0_linear_14401_14064)"/>
<path fill-rule="evenodd" clip-rule="evenodd" d="M29.7505 15.4701H33.4136V24.5915C33.4136 24.8193 33.5964 25.0039 33.8218 25.0039H41.6708C41.8962 25.0039 42.0789 24.8193 42.0789 24.5915C42.0789 24.4779 42.0325 24.3693 41.9507 24.2914C40.6021 23.0076 39.2414 21.3547 37.8684 19.3327C36.2674 16.975 35.3885 13.2253 35.2315 8.08346C35.2247 7.86077 35.044 7.68381 34.8235 7.68381H33.8218C33.5964 7.68381 33.4136 7.86843 33.4136 8.09618V13.6444H29.6976C29.4876 12.7314 28.6773 12.0511 27.7096 12.0511H17.3989C17.4035 11.9669 17.3966 11.8808 17.3769 11.7946L16.0171 5.84424C15.9955 5.74974 15.9601 5.66209 15.9136 5.58295C15.7808 5.24372 15.4548 5.00391 15.0736 5.00391H4.81692C4.31789 5.00391 3.91335 5.4126 3.91335 5.91674V12.0315L3.91355 12.0511H3.65872C2.53155 12.0511 1.61779 12.9742 1.61779 14.1129V16.4904C1.61779 16.5666 1.62188 16.6418 1.62984 16.7158C2.21911 16.3729 2.90261 16.1768 3.63146 16.1768H28.2253C28.7652 16.1768 29.2802 16.2844 29.7505 16.4796V15.4701ZM14.39 6.84013L15.5809 12.0511H5.72028L5.72049 12.0315V6.84013H14.39ZM28.0886 17.1219H3.85379C1.71677 17.1219 -0.015625 18.8864 -0.015625 21.063C-0.015625 23.2397 1.71677 25.0042 3.85379 25.0042H28.0886C30.2256 25.0042 31.958 23.2397 31.958 21.063C31.958 18.8864 30.2256 17.1219 28.0886 17.1219ZM7.75492 21.2377C7.75492 22.6697 6.61519 23.8306 5.20926 23.8306C3.80332 23.8306 2.66359 22.6697 2.66359 21.2377C2.66359 19.8057 3.80332 18.6448 5.20926 18.6448C6.61519 18.6448 7.75492 19.8057 7.75492 21.2377ZM15.1495 21.2377C15.1495 22.6697 14.0098 23.8306 12.6039 23.8306C11.1979 23.8306 10.0582 22.6697 10.0582 21.2377C10.0582 19.8057 11.1979 18.6448 12.6039 18.6448C14.0098 18.6448 15.1495 19.8057 15.1495 21.2377ZM29.65 21.2377C29.65 22.6697 28.5103 23.8306 27.1044 23.8306C25.6984 23.8306 24.5587 22.6697 24.5587 21.2377C24.5587 19.8057 25.6984 18.6448 27.1044 18.6448C28.5103 18.6448 29.65 19.8057 29.65 21.2377ZM22.3998 21.2377C22.3998 22.6697 21.2601 23.8306 19.8541 23.8306C18.4482 23.8306 17.3085 22.6697 17.3085 21.2377C17.3085 19.8057 18.4482 18.6448 19.8541 18.6448C21.2601 18.6448 22.3998 19.8057 22.3998 21.2377Z" fill="url(#paint1_linear_14401_14064)"/>
</g>
</g>
<defs>
<linearGradient id="paint0_linear_14401_14064" x1="115.481" y1="8.70605" x2="115.481" y2="23.027" gradientUnits="userSpaceOnUse">
<stop stop-color="white"/>
<stop offset="1" stop-color="white" stop-opacity="0.6"/>
</linearGradient>
<linearGradient id="paint1_linear_14401_14064" x1="21.0317" y1="5.00391" x2="21.0317" y2="25.0042" gradientUnits="userSpaceOnUse">
<stop stop-color="white"/>
<stop offset="1" stop-color="white" stop-opacity="0.6"/>
</linearGradient>
<clipPath id="clip0_14401_14064">
<rect width="182.059" height="30" fill="white"/>
</clipPath>
<clipPath id="clip1_14401_14064">
<rect width="182.059" height="20" fill="white" transform="translate(0 5)"/>
</clipPath>
</defs>
</svg>
