<svg width="123" height="24" viewBox="0 0 123 24" fill="none" xmlns="http://www.w3.org/2000/svg">
<g clip-path="url(#clip0_14701_14471)">
<path fill-rule="evenodd" clip-rule="evenodd" d="M39.6191 9.86009V17.4009H37.0663V9.86009H33.0547V7.7627H43.6375V9.86009H39.6191ZM45.3233 17.4009V7.7627H54.8947V9.818H47.945V11.4103H54.5369V13.4656H47.945V15.3456H54.991V17.4009H45.3233ZM66.3858 17.4009L60.0072 10.779V17.4009H57.4544V7.7627H60.2274L66.6129 14.4126V7.7627H69.1519V17.4009H66.3858ZM83.6913 12.5748C83.6913 13.1921 83.6248 13.7404 83.4917 14.2197C83.3587 14.6991 83.1718 15.1164 82.9309 15.4718C82.6901 15.8273 82.4011 16.1289 82.0639 16.3767C81.7268 16.6246 81.3518 16.8233 80.9389 16.973C80.5261 17.1226 80.0811 17.2314 79.604 17.2992C79.1269 17.367 78.6292 17.4009 78.1109 17.4009H72.1107V7.7627H78.0971C78.6155 7.7627 79.1132 7.7966 79.5903 7.86441C80.0673 7.93222 80.5134 8.04094 80.9286 8.19059C81.3437 8.34024 81.721 8.53782 82.0605 8.78333C82.4 9.02885 82.6901 9.33048 82.9309 9.68823C83.1718 10.046 83.3587 10.4634 83.4917 10.9404C83.6248 11.4174 83.6913 11.9622 83.6913 12.5748ZM81.1178 12.5748C81.1178 12.1118 81.0593 11.7096 80.9424 11.3682C80.8254 11.0269 80.6373 10.7451 80.3781 10.523C80.1189 10.3008 79.7806 10.1348 79.3632 10.0249C78.9457 9.91504 78.4366 9.86009 77.8356 9.86009H74.6635V15.3035H77.8356C78.4366 15.3035 78.9457 15.2485 79.3632 15.1386C79.7806 15.0287 80.1189 14.8604 80.3781 14.6336C80.6373 14.4068 80.8254 14.1227 80.9424 13.7813C81.0593 13.4399 81.1178 13.0377 81.1178 12.5748ZM86.017 17.4009V7.7627H95.5884V9.818H88.6386V11.4103H95.2306V13.4656H88.6386V15.3456H95.6847V17.4009H86.017ZM100.701 17.4009H98.1481V7.7627H104.547C105.235 7.7627 105.819 7.83518 106.298 7.98015C106.778 8.12512 107.168 8.33088 107.468 8.59744C107.769 8.864 107.987 9.18551 108.122 9.56196C108.257 9.93842 108.325 10.3581 108.325 10.8211C108.325 11.228 108.269 11.5834 108.156 11.8873C108.044 12.1913 107.893 12.452 107.702 12.6695C107.512 12.8869 107.29 13.0705 107.038 13.2201C106.786 13.3698 106.52 13.4937 106.24 13.5919L109.336 17.4009H106.35L103.488 13.8515H100.701V17.4009ZM105.745 10.8071C105.745 10.62 105.72 10.461 105.672 10.3301C105.624 10.1991 105.54 10.0927 105.421 10.0109C105.302 9.92907 105.142 9.86944 104.943 9.83203C104.743 9.79462 104.495 9.77591 104.196 9.77591H100.701V11.8382H104.196C104.495 11.8382 104.743 11.8195 104.943 11.7821C105.142 11.7447 105.302 11.6851 105.421 11.6032C105.54 11.5214 105.624 11.415 105.672 11.2841C105.72 11.1531 105.745 10.9941 105.745 10.8071ZM122.747 12.5748C122.747 13.1921 122.681 13.7404 122.548 14.2197C122.415 14.6991 122.228 15.1164 121.987 15.4718C121.746 15.8273 121.457 16.1289 121.12 16.3767C120.783 16.6246 120.408 16.8233 119.995 16.973C119.582 17.1226 119.137 17.2314 118.66 17.2992C118.183 17.367 117.685 17.4009 117.167 17.4009H111.167V7.7627H117.153C117.671 7.7627 118.169 7.7966 118.646 7.86441C119.123 7.93222 119.569 8.04094 119.985 8.19059C120.4 8.34024 120.777 8.53782 121.117 8.78333C121.456 9.02885 121.746 9.33048 121.987 9.68823C122.228 10.046 122.415 10.4634 122.548 10.9404C122.681 11.4174 122.747 11.9622 122.747 12.5748ZM120.174 12.5748C120.174 12.1118 120.115 11.7096 119.998 11.3682C119.881 11.0269 119.693 10.7451 119.434 10.523C119.175 10.3008 118.837 10.1348 118.419 10.0249C118.002 9.91504 117.493 9.86009 116.892 9.86009H113.72V15.3035H116.892C117.493 15.3035 118.002 15.2485 118.419 15.1386C118.837 15.0287 119.175 14.8604 119.434 14.6336C119.693 14.4068 119.881 14.1227 119.998 13.7813C120.115 13.4399 120.174 13.0377 120.174 12.5748Z" fill="url(#paint0_linear_14701_14471)"/>
<path fill-rule="evenodd" clip-rule="evenodd" d="M20.1385 12.3134H22.6067V18.4522C22.6067 18.6055 22.7298 18.7298 22.8817 18.7298H28.1701C28.322 18.7298 28.4452 18.6055 28.4452 18.4522C28.4452 18.3758 28.4139 18.3027 28.3588 18.2502C27.4501 17.3862 26.5333 16.2738 25.6082 14.913C24.5295 13.3262 23.9373 10.8026 23.8315 7.34211C23.8269 7.19224 23.7052 7.07314 23.5566 7.07314H22.8817C22.7298 7.07314 22.6067 7.19739 22.6067 7.35067V11.0847H20.1029C19.9614 10.4702 19.4154 10.0123 18.7634 10.0123H11.8162C11.8194 9.95573 11.8147 9.89774 11.8014 9.83972L10.8852 5.83509C10.8707 5.77149 10.8468 5.71249 10.8155 5.65923C10.726 5.43093 10.5063 5.26953 10.2495 5.26953H3.33873C3.0025 5.26953 2.72993 5.54458 2.72993 5.88388V9.99919L2.73006 10.0123H2.55836C1.7989 10.0123 1.18323 10.6336 1.18323 11.4V13.0001C1.18323 13.0513 1.18598 13.102 1.19135 13.1518C1.58838 12.921 2.04891 12.789 2.54 12.789H19.1108C19.4746 12.789 19.8217 12.8614 20.1385 12.9928V12.3134ZM9.78893 6.50533L10.5913 10.0123H3.9474L3.94754 9.99919V6.50533H9.78893ZM19.022 13.4235H2.69308C1.25319 13.4235 0.0859375 14.611 0.0859375 16.0759C0.0859375 17.5408 1.25319 18.7284 2.69308 18.7284H19.022C20.4619 18.7284 21.6291 17.5408 21.6291 16.0759C21.6291 14.611 20.4619 13.4235 19.022 13.4235ZM5.32159 16.1935C5.32159 17.1572 4.55365 17.9385 3.60636 17.9385C2.65907 17.9385 1.89114 17.1572 1.89114 16.1935C1.89114 15.2297 2.65907 14.4484 3.60636 14.4484C4.55365 14.4484 5.32159 15.2297 5.32159 16.1935ZM10.3039 16.1935C10.3039 17.1572 9.53601 17.9385 8.58871 17.9385C7.64142 17.9385 6.87349 17.1572 6.87349 16.1935C6.87349 15.2297 7.64142 14.4484 8.58871 14.4484C9.53601 14.4484 10.3039 15.2297 10.3039 16.1935ZM20.0741 16.1935C20.0741 17.1572 19.3062 17.9385 18.3589 17.9385C17.4116 17.9385 16.6437 17.1572 16.6437 16.1935C16.6437 15.2297 17.4116 14.4484 18.3589 14.4484C19.3062 14.4484 20.0741 15.2297 20.0741 16.1935ZM15.189 16.1935C15.189 17.1572 14.4211 17.9385 13.4738 17.9385C12.5265 17.9385 11.7586 17.1572 11.7586 16.1935C11.7586 15.2297 12.5265 14.4484 13.4738 14.4484C14.4211 14.4484 15.189 15.2297 15.189 16.1935Z" fill="url(#paint1_linear_14701_14471)"/>
</g>
<defs>
<linearGradient id="paint0_linear_14701_14471" x1="77.901" y1="7.7627" x2="77.901" y2="17.4009" gradientUnits="userSpaceOnUse">
<stop stop-color="white"/>
<stop offset="1" stop-color="white" stop-opacity="0.8"/>
</linearGradient>
<linearGradient id="paint1_linear_14701_14471" x1="14.2656" y1="5.26953" x2="14.2656" y2="18.7298" gradientUnits="userSpaceOnUse">
<stop stop-color="white"/>
<stop offset="1" stop-color="white" stop-opacity="0.8"/>
</linearGradient>
<clipPath id="clip0_14701_14471">
<rect width="122.664" height="24" fill="white" transform="translate(0.0859375)"/>
</clipPath>
</defs>
</svg>
