<svg width="50" height="50" viewBox="0 0 50 50" fill="none" xmlns="http://www.w3.org/2000/svg">
    <path
        d="M25.0035 49.9998L31.9985 10.4917C38.6659 10.4917 40.7689 11.2259 41.0726 14.2229C41.0726 14.2229 45.5452 12.5481 47.8011 9.14657C38.9981 5.05 30.1531 4.86525 30.1531 4.86525L24.9919 11.1784L25.0035 11.1776L19.8423 4.86426C19.8423 4.86426 10.9971 5.04921 2.19531 9.14577C4.4492 12.5473 8.92365 14.2221 8.92365 14.2221C9.22908 11.2249 11.3296 10.4907 17.9522 10.486L25.0035 49.9998Z"
        fill="white" />
    <path
        d="M25 3.04154C32.116 2.98688 40.261 4.14706 48.5991 7.79671C49.7135 5.78229 50 4.892 50 4.892C40.8853 1.27048 32.3494 0.0310886 24.999 0C17.649 0.0310886 9.11355 1.27067 0 4.892C0 4.892 0.406571 5.98862 1.39993 7.79671C9.73642 4.14706 17.8828 2.98688 24.999 3.04154H25Z"
        fill="white" />
</svg>