<svg width="75" height="24" viewBox="0 0 75 24" fill="none" xmlns="http://www.w3.org/2000/svg">
<g clip-path="url(#clip0_14701_14442)">
<path d="M11.0627 5.69824H0V8.28351H4.06716V18.3014H7.15821V8.28351H11.0627V5.69824Z" fill="url(#paint0_linear_14701_14442)"/>
<path d="M34.4863 5.69824H31.2326L27.3281 18.3014H30.7445L34.4863 5.69824Z" fill="url(#paint1_linear_14701_14442)"/>
<path d="M34.4902 5.69824H37.744L41.6484 18.3014H38.232L34.4902 5.69824Z" fill="url(#paint2_linear_14701_14442)"/>
<path d="M40.3574 5.69824H43.6111L47.5156 18.3014H44.0992L40.3574 5.69824Z" fill="url(#paint3_linear_14701_14442)"/>
<path d="M74.5135 8.28351V5.69824H64.1016V18.3014H74.8389V15.7161H67.0299V13.1309H74.5135V10.5456H67.0299V8.28351H74.5135Z" fill="url(#paint4_linear_14701_14442)"/>
<path fill-rule="evenodd" clip-rule="evenodd" d="M13.0156 5.69922H22.1261C22.1261 5.69922 25.2257 5.89358 25.2171 8.9308C25.2121 10.7062 23.9122 11.4863 23.3531 11.7398C23.1914 11.8131 22.9799 11.9275 23.0531 12.0893C23.0638 12.113 23.0797 12.1375 23.1022 12.1624C23.1022 12.1624 23.9276 12.6872 24.241 13.1319C25.3798 14.7476 25.2171 18.3024 25.2171 18.3024H22.1261C22.1261 18.3024 22.1261 15.5555 21.8007 14.5861C21.7271 14.3667 21.6501 14.1714 21.558 13.9967C21.1691 13.2588 20.2279 13.1319 19.3938 13.1319H15.944V18.3024H13.0156V5.69922ZM15.9389 8.28484H20.6133C20.9668 8.28484 21.347 8.29594 21.6078 8.53472C21.7908 8.70232 21.9583 8.9759 21.9583 9.41589C21.9583 9.85588 21.7908 10.1295 21.6078 10.2971C21.347 10.5358 20.9668 10.5469 20.6133 10.5469H15.9389V8.28484Z" fill="url(#paint5_linear_14701_14442)"/>
<path fill-rule="evenodd" clip-rule="evenodd" d="M54.786 5.69922C51.3057 5.69922 48.4844 8.52053 48.4844 12.0008C48.4844 15.4811 51.3057 18.3024 54.786 18.3024H56.4992C59.479 18.3024 61.9757 16.2342 62.6322 13.455H59.2725C58.7065 14.7848 57.3879 15.7171 55.8515 15.7171H55.4752C53.4227 15.7171 51.7588 14.0533 51.7588 12.0008C51.7588 9.94834 53.4227 8.28449 55.4752 8.28449H55.8515C57.3879 8.28449 58.7065 9.21684 59.2725 10.5466H62.6322C61.9757 7.76741 59.479 5.69922 56.4992 5.69922H54.786Z" fill="url(#paint6_linear_14701_14442)"/>
</g>
<defs>
<linearGradient id="paint0_linear_14701_14442" x1="5.53134" y1="5.69824" x2="5.53134" y2="18.3014" gradientUnits="userSpaceOnUse">
<stop stop-color="white"/>
<stop offset="1" stop-color="white" stop-opacity="0.8"/>
</linearGradient>
<linearGradient id="paint1_linear_14701_14442" x1="30.9072" y1="5.69824" x2="30.9072" y2="18.3014" gradientUnits="userSpaceOnUse">
<stop stop-color="white"/>
<stop offset="1" stop-color="white" stop-opacity="0.8"/>
</linearGradient>
<linearGradient id="paint2_linear_14701_14442" x1="38.0693" y1="5.69824" x2="38.0693" y2="18.3014" gradientUnits="userSpaceOnUse">
<stop stop-color="white"/>
<stop offset="1" stop-color="white" stop-opacity="0.8"/>
</linearGradient>
<linearGradient id="paint3_linear_14701_14442" x1="43.9365" y1="5.69824" x2="43.9365" y2="18.3014" gradientUnits="userSpaceOnUse">
<stop stop-color="white"/>
<stop offset="1" stop-color="white" stop-opacity="0.8"/>
</linearGradient>
<linearGradient id="paint4_linear_14701_14442" x1="69.4702" y1="5.69824" x2="69.4702" y2="18.3014" gradientUnits="userSpaceOnUse">
<stop stop-color="white"/>
<stop offset="1" stop-color="white" stop-opacity="0.8"/>
</linearGradient>
<linearGradient id="paint5_linear_14701_14442" x1="19.1204" y1="5.69922" x2="19.1204" y2="18.3024" gradientUnits="userSpaceOnUse">
<stop stop-color="white"/>
<stop offset="1" stop-color="white" stop-opacity="0.8"/>
</linearGradient>
<linearGradient id="paint6_linear_14701_14442" x1="55.5583" y1="5.69922" x2="55.5583" y2="18.3024" gradientUnits="userSpaceOnUse">
<stop stop-color="white"/>
<stop offset="1" stop-color="white" stop-opacity="0.8"/>
</linearGradient>
<clipPath id="clip0_14701_14442">
<rect width="74.8386" height="24" fill="white"/>
</clipPath>
</defs>
</svg>
