<svg width="106" height="30" viewBox="0 0 106 30" fill="none" xmlns="http://www.w3.org/2000/svg">
<g clip-path="url(#clip0_14401_14059)">
<path d="M15.5521 5.99805H0V9.65732H5.71768V23.837H10.0631V9.65732H15.5521V5.99805Z" fill="url(#paint0_linear_14401_14059)"/>
<path d="M48.485 5.99805H43.9108L38.4219 23.837H43.2247L48.485 5.99805Z" fill="url(#paint1_linear_14401_14059)"/>
<path d="M48.4838 5.99805H53.0579L58.5469 23.837H53.744L48.4838 5.99805Z" fill="url(#paint2_linear_14401_14059)"/>
<path d="M56.7338 5.99805H61.3079L66.7969 23.837H61.994L56.7338 5.99805Z" fill="url(#paint3_linear_14401_14059)"/>
<path d="M104.747 9.65732V5.99805H90.1094V23.837H105.204V20.1777H94.2261V16.5185H104.747V12.8592H94.2261V9.65732H104.747Z" fill="url(#paint4_linear_14401_14059)"/>
<path fill-rule="evenodd" clip-rule="evenodd" d="M18.2969 5.99902H31.1045C31.1045 5.99902 35.462 6.27412 35.4499 10.5731C35.4427 13.1228 33.5617 14.2222 32.7957 14.5643C32.5892 14.6565 32.327 14.7924 32.3942 15.0083C32.4081 15.0527 32.4339 15.0995 32.4767 15.1472C32.4767 15.1472 33.6371 15.89 34.0777 16.5194C35.6786 18.8065 35.4499 23.838 35.4499 23.838H31.1045C31.1045 23.838 31.1045 19.95 30.6471 18.5778C30.5225 18.2041 30.391 17.8796 30.2239 17.5959C29.6833 16.6781 28.4916 16.5194 27.4264 16.5194H22.4136V23.838H18.2969V5.99902ZM22.4115 9.65866H29.0508C29.5026 9.65866 29.9828 9.67626 30.3289 9.96666C30.6055 10.1987 30.8737 10.5951 30.8737 11.2596C30.8737 11.9241 30.6055 12.3205 30.3289 12.5525C29.9828 12.8429 29.5026 12.8605 29.0508 12.8605H22.4115V9.65866Z" fill="url(#paint5_linear_14401_14059)"/>
<path fill-rule="evenodd" clip-rule="evenodd" d="M77.0679 5.99902C72.1418 5.99902 68.1484 9.99241 68.1484 14.9185C68.1484 19.8446 72.1418 23.838 77.0679 23.838H79.3552C83.5725 23.838 87.1062 20.9111 88.0358 16.9778H83.2971C82.496 18.8601 80.6295 20.1798 78.4547 20.1798H77.9972C75.0921 20.1798 72.737 17.8247 72.737 14.9196C72.737 12.0145 75.0921 9.6594 77.9972 9.6594H78.4547C80.6294 9.6594 82.4958 10.979 83.2969 12.8611H88.0362C87.1073 8.92686 83.5732 5.99902 79.3552 5.99902H77.0679Z" fill="url(#paint6_linear_14401_14059)"/>
</g>
<defs>
<linearGradient id="paint0_linear_14401_14059" x1="7.77604" y1="5.99805" x2="7.77604" y2="23.837" gradientUnits="userSpaceOnUse">
<stop stop-color="white"/>
<stop offset="1" stop-color="white" stop-opacity="0.6"/>
</linearGradient>
<linearGradient id="paint1_linear_14401_14059" x1="43.4534" y1="5.99805" x2="43.4534" y2="23.837" gradientUnits="userSpaceOnUse">
<stop stop-color="white"/>
<stop offset="1" stop-color="white" stop-opacity="0.6"/>
</linearGradient>
<linearGradient id="paint2_linear_14401_14059" x1="53.5153" y1="5.99805" x2="53.5153" y2="23.837" gradientUnits="userSpaceOnUse">
<stop stop-color="white"/>
<stop offset="1" stop-color="white" stop-opacity="0.6"/>
</linearGradient>
<linearGradient id="paint3_linear_14401_14059" x1="61.7653" y1="5.99805" x2="61.7653" y2="23.837" gradientUnits="userSpaceOnUse">
<stop stop-color="white"/>
<stop offset="1" stop-color="white" stop-opacity="0.6"/>
</linearGradient>
<linearGradient id="paint4_linear_14401_14059" x1="97.6567" y1="5.99805" x2="97.6567" y2="23.837" gradientUnits="userSpaceOnUse">
<stop stop-color="white"/>
<stop offset="1" stop-color="white" stop-opacity="0.6"/>
</linearGradient>
<linearGradient id="paint5_linear_14401_14059" x1="26.879" y1="5.99902" x2="26.879" y2="23.838" gradientUnits="userSpaceOnUse">
<stop stop-color="white"/>
<stop offset="1" stop-color="white" stop-opacity="0.6"/>
</linearGradient>
<linearGradient id="paint6_linear_14401_14059" x1="78.0923" y1="5.99902" x2="78.0923" y2="23.838" gradientUnits="userSpaceOnUse">
<stop stop-color="white"/>
<stop offset="1" stop-color="white" stop-opacity="0.6"/>
</linearGradient>
<clipPath id="clip0_14401_14059">
<rect width="105.206" height="30" fill="white"/>
</clipPath>
</defs>
</svg>
