<svg width="129" height="48" viewBox="0 0 129 48" fill="none" xmlns="http://www.w3.org/2000/svg">
<g clip-path="url(#clip0_14701_14096)">
<path d="M60.632 26.0073C60.632 28.0451 59.4989 29.4962 57.1118 29.4962C54.5813 29.4962 53.5333 28.1302 53.5333 26.0924V13.6416H48.3828V25.9177C48.3828 30.7771 51.2895 33.6256 57.1073 33.6256C62.8938 33.6256 65.7736 30.7189 65.7736 25.9177V13.6461H60.6231V26.0073H60.632Z" fill="url(#paint0_linear_14701_14096)"/>
<path d="M77.4561 17.9219C75.3914 17.9219 73.9672 18.7952 72.861 20.3941H72.7714V18.3563H68.2031V33.248H72.9461V25.0206C72.9461 23.1888 73.9941 21.8811 75.5616 21.8811C77.1023 21.8811 77.8905 22.9559 77.8905 24.528V33.2525H82.6335V23.565C82.6335 20.2508 80.7121 17.9219 77.4561 17.9219Z" fill="url(#paint1_linear_14701_14096)"/>
<path d="M89.8054 12.4551H85.0625V16.2978H89.8054V12.4551Z" fill="url(#paint2_linear_14701_14096)"/>
<path d="M89.8054 18.3564H85.0625V33.2481H89.8054V18.3564Z" fill="url(#paint3_linear_14701_14096)"/>
<path d="M98.1608 13.6455H93.5343V18.3571H91.5547V22.1998H93.5343V29.3255C93.5343 32.5233 95.5139 33.428 98.2772 33.428C99.5581 33.428 100.458 33.3115 100.866 33.1951V29.733C100.691 29.733 100.225 29.7644 99.8179 29.7644C98.8012 29.7644 98.1608 29.4733 98.1608 28.3088V22.1998H100.866V18.3571H98.1608V13.6455Z" fill="url(#paint4_linear_14701_14096)"/>
<path d="M110.966 24.6983C110.5 26.1539 110.093 28.129 110.093 28.129H110.034C110.034 28.129 109.569 26.1494 109.103 24.6983L107.096 18.3564H102.094L106.487 29.8175C107.096 31.3895 107.388 32.2628 107.388 32.8988C107.388 33.9155 106.837 34.4708 105.439 34.4708H103.809V38.1658H106.89C109.887 38.1658 111.311 36.9431 112.502 33.4542L117.653 18.3564H112.91L110.966 24.6983Z" fill="url(#paint5_linear_14701_14096)"/>
<path d="M20.8349 10.1031L27.6873 14.0578C27.9336 14.1966 27.9426 14.5818 27.6873 14.7206L19.545 19.4232C19.2987 19.5666 19.0076 19.5576 18.7792 19.4232L10.6369 14.7206C10.3861 14.5862 10.3816 14.1921 10.6369 14.0578L17.4848 10.1031V2.35938L0 12.4544V32.6444L6.70461 28.7748V20.8654C6.70013 20.5832 7.03155 20.3817 7.27788 20.534L15.4202 25.2366C15.6665 25.3799 15.8053 25.6352 15.8053 25.8995V35.3003C15.8098 35.5824 15.4784 35.784 15.232 35.6317L8.37964 31.677L1.67503 35.5466L19.1599 45.6416L36.6447 35.5466L29.9401 31.677L23.0877 35.6317C22.8458 35.7795 22.5054 35.5869 22.5144 35.3003V25.8995C22.5144 25.6173 22.6712 25.3665 22.8996 25.2366L31.0418 20.534C31.2837 20.3862 31.6241 20.5743 31.6151 20.8654V28.7748L38.3197 32.6444V12.4544L20.8349 2.35938V10.1031Z" fill="url(#paint6_linear_14701_14096)"/>
<path d="M127.847 20.6735C127.65 20.2122 127.377 19.8091 127.032 19.4642C126.683 19.1149 126.28 18.8462 125.823 18.6491C125.366 18.452 124.873 18.3535 124.345 18.3535C123.816 18.3535 123.328 18.452 122.867 18.6491C122.406 18.8462 122.002 19.1149 121.658 19.4642C121.313 19.8136 121.04 20.2167 120.842 20.6735C120.645 21.1348 120.547 21.623 120.547 22.1515C120.547 22.6755 120.645 23.1681 120.842 23.6294C121.04 24.0907 121.308 24.4938 121.658 24.8387C122.007 25.1835 122.41 25.4567 122.867 25.6538C123.328 25.8509 123.816 25.9494 124.345 25.9494C124.873 25.9494 125.361 25.8509 125.823 25.6538C126.284 25.4567 126.687 25.188 127.032 24.8387C127.381 24.4893 127.65 24.0863 127.847 23.6294C128.044 23.1681 128.143 22.6799 128.143 22.1515C128.143 21.6274 128.044 21.1348 127.847 20.6735ZM126.839 23.6026C126.58 24.0415 126.23 24.3863 125.796 24.6461C125.357 24.9059 124.873 25.0357 124.34 25.0357C123.807 25.0357 123.324 24.9059 122.889 24.6461C122.455 24.3863 122.105 24.037 121.846 23.6026C121.586 23.1681 121.456 22.6799 121.456 22.1515C121.456 21.6185 121.586 21.1348 121.846 20.7004C122.105 20.2614 122.455 19.9166 122.889 19.6568C123.324 19.3971 123.812 19.2672 124.34 19.2672C124.873 19.2672 125.357 19.3971 125.796 19.6568C126.23 19.9166 126.58 20.2659 126.839 20.7004C127.099 21.1348 127.229 21.623 127.229 22.1515C127.229 22.6844 127.099 23.1681 126.839 23.6026Z" fill="url(#paint7_linear_14701_14096)"/>
<path d="M125.668 22.129C125.794 21.9499 125.856 21.7349 125.856 21.4751C125.856 21.2243 125.798 21.0138 125.677 20.8481C125.561 20.6824 125.413 20.557 125.247 20.4764C125.081 20.3958 124.925 20.3555 124.781 20.3555H123.008V23.8578H123.778V22.671H124.54L125.153 23.8578H126L125.279 22.4918C125.426 22.4067 125.561 22.2903 125.668 22.129ZM124.826 21.9454C124.705 22.0484 124.593 22.1022 124.486 22.1022H123.774V20.9243H124.504C124.598 20.9243 124.701 20.9601 124.826 21.0407C124.947 21.1168 125.01 21.2646 125.01 21.4751C125.01 21.6856 124.952 21.8424 124.826 21.9454Z" fill="url(#paint8_linear_14701_14096)"/>
</g>
<defs>
<linearGradient id="paint0_linear_14701_14096" x1="57.0782" y1="13.6416" x2="57.0782" y2="33.6256" gradientUnits="userSpaceOnUse">
<stop stop-color="white"/>
<stop offset="1" stop-color="white" stop-opacity="0.8"/>
</linearGradient>
<linearGradient id="paint1_linear_14701_14096" x1="75.4183" y1="17.9219" x2="75.4183" y2="33.2525" gradientUnits="userSpaceOnUse">
<stop stop-color="white"/>
<stop offset="1" stop-color="white" stop-opacity="0.8"/>
</linearGradient>
<linearGradient id="paint2_linear_14701_14096" x1="87.434" y1="12.4551" x2="87.434" y2="16.2978" gradientUnits="userSpaceOnUse">
<stop stop-color="white"/>
<stop offset="1" stop-color="white" stop-opacity="0.8"/>
</linearGradient>
<linearGradient id="paint3_linear_14701_14096" x1="87.434" y1="18.3564" x2="87.434" y2="33.2481" gradientUnits="userSpaceOnUse">
<stop stop-color="white"/>
<stop offset="1" stop-color="white" stop-opacity="0.8"/>
</linearGradient>
<linearGradient id="paint4_linear_14701_14096" x1="96.2103" y1="13.6455" x2="96.2103" y2="33.428" gradientUnits="userSpaceOnUse">
<stop stop-color="white"/>
<stop offset="1" stop-color="white" stop-opacity="0.8"/>
</linearGradient>
<linearGradient id="paint5_linear_14701_14096" x1="109.873" y1="18.3564" x2="109.873" y2="38.1658" gradientUnits="userSpaceOnUse">
<stop stop-color="white"/>
<stop offset="1" stop-color="white" stop-opacity="0.8"/>
</linearGradient>
<linearGradient id="paint6_linear_14701_14096" x1="19.1599" y1="2.35937" x2="19.1599" y2="45.6416" gradientUnits="userSpaceOnUse">
<stop stop-color="white"/>
<stop offset="1" stop-color="white" stop-opacity="0.8"/>
</linearGradient>
<linearGradient id="paint7_linear_14701_14096" x1="124.345" y1="18.3535" x2="124.345" y2="25.9494" gradientUnits="userSpaceOnUse">
<stop stop-color="white"/>
<stop offset="1" stop-color="white" stop-opacity="0.8"/>
</linearGradient>
<linearGradient id="paint8_linear_14701_14096" x1="124.504" y1="20.3555" x2="124.504" y2="23.8578" gradientUnits="userSpaceOnUse">
<stop stop-color="white"/>
<stop offset="1" stop-color="white" stop-opacity="0.8"/>
</linearGradient>
<clipPath id="clip0_14701_14096">
<rect width="128.142" height="48" fill="white"/>
</clipPath>
</defs>
</svg>
