<svg width="133" height="50" viewBox="0 0 133 50" fill="none" xmlns="http://www.w3.org/2000/svg">
<path d="M62.5718 26.1763C62.5718 28.2782 61.4031 29.7749 58.9409 29.7749C56.3309 29.7749 55.2499 28.366 55.2499 26.2641V13.4219H49.9375V26.0839C49.9375 31.0961 52.9355 34.0341 58.9363 34.0341C64.9046 34.0341 67.875 31.036 67.875 26.0839V13.4265H62.5626V26.1763H62.5718Z" fill="url(#paint0_linear_14628_15016)"/>
<path d="M79.9345 17.8369C77.8049 17.8369 76.3359 18.7377 75.1949 20.3869H75.1025V18.285H70.3906V33.6448H75.2827V25.1588C75.2827 23.2694 76.3636 21.9206 77.9805 21.9206C79.5696 21.9206 80.3826 23.0292 80.3826 24.6507V33.6495H85.2746V23.6575C85.2746 20.2391 83.2929 17.8369 79.9345 17.8369Z" fill="url(#paint1_linear_14628_15016)"/>
<path d="M92.6655 12.1982H87.7734V16.1618H92.6655V12.1982Z" fill="url(#paint2_linear_14628_15016)"/>
<path d="M92.6655 18.2852H87.7734V33.645H92.6655V18.2852Z" fill="url(#paint3_linear_14628_15016)"/>
<path d="M101.29 13.4258H96.5184V18.2855H94.4766V22.249H96.5184V29.5987C96.5184 32.897 98.5602 33.8301 101.41 33.8301C102.732 33.8301 103.66 33.71 104.08 33.5899V30.019C103.9 30.019 103.42 30.0514 103 30.0514C101.951 30.0514 101.29 29.7511 101.29 28.55V22.249H104.08V18.2855H101.29V13.4258Z" fill="url(#paint4_linear_14628_15016)"/>
<path d="M114.495 24.8264C114.015 26.3277 113.594 28.3649 113.594 28.3649H113.534C113.534 28.3649 113.054 26.3231 112.573 24.8264L110.504 18.2852H105.344L109.875 30.1065C110.504 31.7279 110.804 32.6287 110.804 33.2847C110.804 34.3333 110.236 34.9061 108.795 34.9061H107.113V38.7172H110.291C113.382 38.7172 114.851 37.4561 116.079 33.8575L121.392 18.2852H116.5L114.495 24.8264Z" fill="url(#paint5_linear_14628_15016)"/>
<path d="M21.5289 9.77227L28.5968 13.8513C28.8508 13.9945 28.8601 14.3918 28.5968 14.535L20.1985 19.3855C19.9444 19.5333 19.6442 19.524 19.4086 19.3855L11.0104 14.535C10.7517 14.3964 10.747 13.9899 11.0104 13.8513L18.0736 9.77227V1.78516L0.0390625 12.1975V33.0222L6.95444 29.031V20.8729C6.94982 20.5819 7.29166 20.374 7.54573 20.5311L15.944 25.3816C16.198 25.5294 16.3412 25.7927 16.3412 26.0653V35.7616C16.3459 36.0526 16.004 36.2605 15.7499 36.1034L8.68213 32.0244L1.76675 36.0157L19.8012 46.428L37.8357 36.0157L30.9204 32.0244L23.8525 36.1034C23.6031 36.2559 23.252 36.0572 23.2612 35.7616V26.0653C23.2612 25.7742 23.4229 25.5155 23.6585 25.3816L32.0567 20.5311C32.3062 20.3786 32.6573 20.5727 32.648 20.8729V29.031L39.5634 33.0222V12.1975L21.5289 1.78516V9.77227Z" fill="url(#paint6_linear_14628_15016)"/>
<path d="M131.905 20.6751C131.702 20.1993 131.42 19.7836 131.064 19.4279C130.704 19.0675 130.288 18.7904 129.817 18.5871C129.346 18.3839 128.837 18.2822 128.292 18.2822C127.747 18.2822 127.244 18.3839 126.768 18.5871C126.292 18.7904 125.876 19.0675 125.521 19.4279C125.165 19.7882 124.883 20.2039 124.68 20.6751C124.477 21.1509 124.375 21.6545 124.375 22.1996C124.375 22.74 124.477 23.2482 124.68 23.724C124.883 24.1998 125.16 24.6156 125.521 24.9713C125.881 25.327 126.297 25.6088 126.768 25.812C127.244 26.0153 127.747 26.1169 128.292 26.1169C128.837 26.1169 129.341 26.0153 129.817 25.812C130.293 25.6088 130.708 25.3316 131.064 24.9713C131.424 24.6109 131.702 24.1952 131.905 23.724C132.108 23.2482 132.21 22.7447 132.21 22.1996C132.21 21.6591 132.108 21.1509 131.905 20.6751ZM130.865 23.6963C130.597 24.149 130.237 24.5047 129.789 24.7726C129.336 25.0406 128.837 25.1745 128.288 25.1745C127.738 25.1745 127.239 25.0406 126.791 24.7726C126.343 24.5047 125.983 24.1444 125.715 23.6963C125.447 23.2482 125.313 22.7447 125.313 22.1996C125.313 21.6498 125.447 21.1509 125.715 20.7028C125.983 20.2501 126.343 19.8944 126.791 19.6265C127.239 19.3586 127.743 19.2246 128.288 19.2246C128.837 19.2246 129.336 19.3586 129.789 19.6265C130.237 19.8944 130.597 20.2548 130.865 20.7028C131.133 21.1509 131.267 21.6545 131.267 22.1996C131.267 22.7493 131.133 23.2482 130.865 23.6963Z" fill="url(#paint7_linear_14628_15016)"/>
<path d="M129.658 22.176C129.787 21.9912 129.852 21.7695 129.852 21.5016C129.852 21.2429 129.792 21.0257 129.667 20.8548C129.547 20.6839 129.395 20.5546 129.224 20.4714C129.053 20.3883 128.891 20.3467 128.743 20.3467H126.914V23.9591H127.709V22.735H128.494L129.127 23.9591H130L129.256 22.5502C129.409 22.4624 129.547 22.3423 129.658 22.176ZM128.79 21.9866C128.665 22.0928 128.549 22.1483 128.438 22.1483H127.704V20.9334H128.457C128.554 20.9334 128.66 20.9703 128.79 21.0535C128.914 21.132 128.979 21.2844 128.979 21.5016C128.979 21.7187 128.919 21.8804 128.79 21.9866Z" fill="url(#paint8_linear_14628_15016)"/>
<defs>
<linearGradient id="paint0_linear_14628_15016" x1="58.9062" y1="13.4219" x2="58.9062" y2="34.0341" gradientUnits="userSpaceOnUse">
<stop stop-color="white"/>
<stop offset="1" stop-color="white" stop-opacity="0.8"/>
</linearGradient>
<linearGradient id="paint1_linear_14628_15016" x1="77.8326" y1="17.8369" x2="77.8326" y2="33.6495" gradientUnits="userSpaceOnUse">
<stop stop-color="white"/>
<stop offset="1" stop-color="white" stop-opacity="0.8"/>
</linearGradient>
<linearGradient id="paint2_linear_14628_15016" x1="90.2195" y1="12.1982" x2="90.2195" y2="16.1618" gradientUnits="userSpaceOnUse">
<stop stop-color="white"/>
<stop offset="1" stop-color="white" stop-opacity="0.8"/>
</linearGradient>
<linearGradient id="paint3_linear_14628_15016" x1="90.2195" y1="18.2852" x2="90.2195" y2="33.645" gradientUnits="userSpaceOnUse">
<stop stop-color="white"/>
<stop offset="1" stop-color="white" stop-opacity="0.8"/>
</linearGradient>
<linearGradient id="paint4_linear_14628_15016" x1="99.2785" y1="13.4258" x2="99.2785" y2="33.8301" gradientUnits="userSpaceOnUse">
<stop stop-color="white"/>
<stop offset="1" stop-color="white" stop-opacity="0.8"/>
</linearGradient>
<linearGradient id="paint5_linear_14628_15016" x1="113.368" y1="18.2852" x2="113.368" y2="38.7172" gradientUnits="userSpaceOnUse">
<stop stop-color="white"/>
<stop offset="1" stop-color="white" stop-opacity="0.8"/>
</linearGradient>
<linearGradient id="paint6_linear_14628_15016" x1="19.8012" y1="1.78516" x2="19.8012" y2="46.428" gradientUnits="userSpaceOnUse">
<stop stop-color="white"/>
<stop offset="1" stop-color="white" stop-opacity="0.8"/>
</linearGradient>
<linearGradient id="paint7_linear_14628_15016" x1="128.292" y1="18.2822" x2="128.292" y2="26.1169" gradientUnits="userSpaceOnUse">
<stop stop-color="white"/>
<stop offset="1" stop-color="white" stop-opacity="0.8"/>
</linearGradient>
<linearGradient id="paint8_linear_14628_15016" x1="128.457" y1="20.3467" x2="128.457" y2="23.9591" gradientUnits="userSpaceOnUse">
<stop stop-color="white"/>
<stop offset="1" stop-color="white" stop-opacity="0.8"/>
</linearGradient>
</defs>
</svg>
