<svg width="20" height="20" viewBox="0 0 20 20" fill="none" xmlns="http://www.w3.org/2000/svg">
<path fill-rule="evenodd" clip-rule="evenodd" d="M2.5 12.5H6.66667V14.1667H13.3333V12.5H17.5V15C17.5 16.3807 16.3807 17.5 15 17.5H14.1667H5.83333H5C3.61929 17.5 2.5 16.3807 2.5 15V12.5Z" fill="currentColor"/>
<path fill-rule="evenodd" clip-rule="evenodd" d="M4.16406 18.3346C2.78335 18.3346 1.66406 17.2154 1.66406 15.8346V4.16797C1.66406 2.78726 2.78335 1.66797 4.16406 1.66797H15.8307C17.2115 1.66797 18.3307 2.78725 18.3307 4.16797V15.8346C18.3307 17.2154 17.2115 18.3346 15.8307 18.3346H4.16406ZM3.33073 15.8346C3.33073 16.2949 3.70383 16.668 4.16406 16.668H15.8307C16.291 16.668 16.6641 16.2949 16.6641 15.8346V4.16797C16.6641 3.70773 16.291 3.33464 15.8307 3.33464H4.16406C3.70382 3.33464 3.33073 3.70774 3.33073 4.16797V15.8346Z" fill="currentColor"/>
<path d="M12 6L8 10" stroke="currentColor" stroke-width="1.2" stroke-miterlimit="10" stroke-linecap="round"/>
<path d="M12 10L8 6" stroke="currentColor" stroke-width="1.2" stroke-miterlimit="10" stroke-linecap="round"/>
</svg>
