<svg width="62" height="63" viewBox="0 0 62 63" fill="none" xmlns="http://www.w3.org/2000/svg">
<path d="M22.6978 47.6438H39.3049M10.0447 43.3125L9.25391 46.8563M51.5626 43.3125L52.3534 46.8563" stroke="#D5D5D5" stroke-width="1.18125"/>
<path d="M8.38408 7.17373C8.73147 5.37638 9.69673 3.75565 11.114 2.59013C12.5312 1.4246 14.3118 0.787067 16.1499 0.787109H45.853C47.691 0.787067 49.4717 1.4246 50.8889 2.59013C52.3061 3.75565 53.2714 5.37638 53.6188 7.17373L60.0323 40.4062C60.2538 41.5462 60.2195 42.7209 59.9317 43.8461C59.6439 44.9713 59.1098 46.0192 58.3677 46.9148C57.6256 47.8103 56.6937 48.5314 55.6389 49.0263C54.5841 49.5212 53.4325 49.7777 52.2665 49.7775H43.4172C42.4938 49.7782 41.5884 50.0322 40.8002 50.5114C40.0121 50.9906 39.3717 51.6767 38.9491 52.4944C38.526 53.3132 37.8843 54.0001 37.0947 54.4794C36.305 54.9587 35.3979 55.2119 34.4731 55.2112H27.5218C26.597 55.2119 25.69 54.9587 24.9003 54.4794C24.1106 54.0001 23.469 53.3132 23.0458 52.4944C22.6244 51.6752 21.9844 50.9875 21.1962 50.5069C20.408 50.0262 19.502 49.7711 18.5777 49.7696H9.72847C8.5646 49.7673 7.41558 49.5092 6.36341 49.0138C5.31125 48.5183 4.38188 47.7977 3.64162 46.9033C2.90137 46.009 2.36848 44.9629 2.08099 43.8398C1.7935 42.7168 1.75849 41.5443 1.97847 40.4062L8.39199 7.17373H8.38408Z" stroke="#5D5D5E" stroke-width="1.18125"/>
<path d="M11.47 7.11144C11.6396 6.20914 12.1205 5.39421 12.8295 4.80753C13.5385 4.22085 14.4311 3.89929 15.3529 3.89844H46.6614C47.5832 3.89929 48.4758 4.22085 49.1848 4.80753C49.8938 5.39421 50.3746 6.20914 50.5443 7.11144L56.9261 41.1472C57.0539 41.8294 57.0292 42.5313 56.8537 43.203C56.6783 43.8746 56.3564 44.4995 55.911 45.0333C55.4656 45.567 54.9076 45.9965 54.2766 46.2912C53.6457 46.5859 52.9572 46.7386 52.2603 46.7384H41.8848C41.0069 46.7373 40.1477 46.9906 39.4119 47.4675C38.6761 47.9443 38.0955 48.6241 37.7409 49.4238C37.3881 50.2238 36.8093 50.9044 36.0749 51.3826C35.3406 51.8608 34.4824 52.116 33.605 52.1171H28.4014C27.524 52.116 26.6658 51.8608 25.9314 51.3826C25.1971 50.9044 24.6182 50.2238 24.2654 49.4238C23.9097 48.6255 23.3286 47.9474 22.5929 47.4721C21.8572 46.9967 20.9986 46.7445 20.1216 46.7463H9.76186C9.06494 46.7465 8.37654 46.5938 7.74558 46.2991C7.11462 46.0044 6.5566 45.5749 6.11118 45.0411C5.66577 44.5074 5.3439 43.8825 5.16845 43.2108C4.993 42.5392 4.96828 41.8373 5.09605 41.1551L11.47 7.10356V7.11144Z" stroke="#303031" stroke-width="1.18125"/>
<path d="M2.02344 43.7852L4.55405 54.8574C5.03087 56.9462 6.20617 58.8116 7.88727 60.148C9.56837 61.4844 11.6555 62.2124 13.8066 62.2127H48.1913C50.3424 62.2124 52.4295 61.4844 54.1106 60.148C55.7917 58.8116 56.967 56.9462 57.4438 54.8574L59.9745 43.7852" stroke="#5D5D5E" stroke-width="1.18125"/>
<path d="M14.5569 8.33964C14.6328 7.93162 14.8502 7.56309 15.171 7.29829C15.4918 7.03349 15.8958 6.88922 16.3125 6.89064H45.6834C46.5454 6.89064 47.2809 7.49701 47.4391 8.33964L53.4493 40.4854C53.734 42.0604 52.524 43.5094 50.9186 43.5094H11.0694C10.6921 43.5098 10.3193 43.4276 9.97754 43.2684C9.63575 43.1093 9.33335 42.8771 9.0918 42.5885C8.85025 42.2998 8.67549 41.9618 8.57991 41.5983C8.48434 41.2348 8.4703 40.8549 8.5388 40.4854L14.549 8.33964H14.5569Z" stroke="#D5D5D5" stroke-width="1.18125"/>
<path d="M19.8081 14.9629H41.3816M19.0331 20.4754H42.1487M17.491 25.9879H43.6908M15.9727 31.5004H31.789" stroke="#5D5D5E" stroke-width="1.18125" stroke-linecap="round"/>
</svg>
