<svg width="26" height="26" viewBox="0 0 26 26" fill="currentColor" xmlns="http://www.w3.org/2000/svg">
<path d="M25.9697 9.50044C25.9393 9.37369 25.8808 9.25778 25.8093 9.15054C25.8018 9.13862 25.8007 9.12562 25.7931 9.1137C25.7877 9.10612 25.779 9.10287 25.7736 9.09529C25.7108 9.01296 25.6403 8.93713 25.5548 8.8743L13.6359 0.207991C13.2546 -0.0693305 12.7411 -0.0693305 12.3608 0.207991L0.446333 8.8743C0.36075 8.93713 0.28925 9.01296 0.226417 9.09529C0.221 9.10287 0.212333 9.10504 0.206917 9.11262C0.199333 9.12345 0.19825 9.13645 0.190667 9.14837C0.118083 9.2567 0.0595833 9.37261 0.02925 9.50044C0.0281667 9.50694 0.02925 9.51235 0.0270833 9.51885C0.0108333 9.59468 0 9.6716 0 9.75068V22.7501C0 24.5419 1.45817 26 3.25 26H22.75C24.5418 26 26 24.5419 26 22.7501V9.75068C26 9.6716 25.9892 9.59577 25.9729 9.51994C25.9718 9.51344 25.9718 9.50694 25.9697 9.50044ZM12.9989 2.42332L23.075 9.75068L13.0011 17.078L2.925 9.75068L12.9989 2.42332Z" fill="currentColor"/>
</svg>
