<svg width="77" height="33" viewBox="0 0 77 33" fill="none" xmlns="http://www.w3.org/2000/svg">
<path d="M14.8241 32.363C18.4939 33.8203 19.9861 32.4396 19.9861 31.5682C18.686 31.4558 15.5798 31.2731 14.8241 32.363ZM10.1657 31.1713C11.077 31.8584 12.1966 32.1909 13.3247 32.1096C14.4529 32.0284 15.5162 31.539 16.3251 30.7282C15.0729 30.3714 11.6536 29.9487 10.1657 31.1713ZM16.3738 28.3388C16.2346 30.152 18.0451 31.1713 20 31.3186C19.6435 29.4947 17.8182 28.6804 16.3738 28.3388ZM12.8684 26.6674C12.6614 27.4425 12.9458 29.5464 15.7581 30.3812C15.6372 28.9604 14.9007 27.1106 12.8684 26.6674ZM7.29163 28.7767C8.01274 29.5146 8.96334 29.9696 9.9779 30.0627C10.9925 30.1557 12.0067 29.8809 12.844 29.286C11.717 28.6902 9.01083 27.8857 7.29163 28.7767ZM10.2631 24.5795C9.87783 25.3429 9.79609 27.5183 12.2858 28.8276C12.4301 27.4273 11.8814 25.0326 10.2631 24.5795ZM4.10368 25.425C4.33805 25.898 4.66371 26.3172 5.0609 26.6571C5.45809 26.997 5.91851 27.2505 6.4142 27.4023C6.90526 27.5502 7.42091 27.5916 7.92842 27.5241C8.43593 27.4565 8.92419 27.2814 9.36214 27.0099C7.79254 25.4964 5.28807 24.9157 4.10368 25.425ZM7.82558 21.3696C6.709 23.3674 7.88905 25.6489 9.11692 26.5862C9.66303 24.7293 9.1613 22.7057 7.82558 21.3696ZM2.03227 21.2831C1.89748 24.386 5.05674 24.2174 6.54029 24.2379C6.0733 23.5859 3.47756 21.2224 2.03227 21.2831ZM5.92809 18.3845C5.34112 19.0471 4.4602 21.5944 6.41073 23.6725C7.02205 22.1696 7.15599 19.8623 5.92809 18.3845ZM0.37655 17.0092C0.275674 19.5154 2.33229 20.7836 4.31586 20.764C3.71932 19.5564 2.12445 17.2286 0.37655 17.0092ZM4.53759 15.2825C3.22275 16.0763 3.37235 18.6395 4.14803 19.9738C5.01935 18.7314 5.66982 17.1876 4.53759 15.2825ZM0.289588 12.9341C-0.360875 15.2165 1.55051 16.7603 2.69752 16.8923C2.40359 15.8025 2.01923 13.8715 0.289588 12.9341ZM4.29586 12.1751C2.84622 12.9199 2.15924 14.701 2.70187 16.3064C3.71321 15.4706 4.93153 13.7029 4.29586 12.1751ZM0.221759 9.41387C-0.673933 12.1903 1.38268 13.0974 2.14793 13.3203C2.05662 12.1395 1.32442 9.78578 0.221759 9.41387ZM4.23847 8.68519C3.65062 8.8591 1.97488 10.2701 2.27837 12.7968C3.38104 12.16 4.72023 10.947 4.23847 8.68519ZM0.828743 5.20684C-0.173041 8.61919 1.49834 10.0204 2.04706 10.2995C2.13402 9.22032 2.24011 6.69897 0.828743 5.20684ZM4.53674 5.29245C3.48713 5.59303 2.16271 7.56945 2.22533 9.47003C3.26537 8.98129 4.82109 6.94868 4.53674 5.29245ZM4.22366 0C1.78705 2.5829 1.44529 4.61997 2.1575 7.13152C3.26103 6.113 4.14192 3.05649 4.22366 0Z" fill="white"/>
<path d="M62.1759 32.363C58.5061 33.8203 57.0139 32.4396 57.0139 31.5682C58.314 31.4558 61.4202 31.2731 62.1759 32.363ZM66.8343 31.1713C65.923 31.8584 64.8034 32.1909 63.6753 32.1096C62.5471 32.0284 61.4838 31.539 60.6749 30.7282C61.9271 30.3714 65.3464 29.9487 66.8343 31.1713ZM60.6262 28.3388C60.7654 30.152 58.9549 31.1713 57 31.3186C57.3565 29.4947 59.1818 28.6804 60.6262 28.3388ZM64.1316 26.6674C64.3386 27.4425 64.0542 29.5464 61.2419 30.3812C61.3628 28.9604 62.0993 27.1106 64.1316 26.6674ZM69.7084 28.7767C68.9873 29.5146 68.0367 29.9696 67.0221 30.0627C66.0075 30.1557 64.9933 29.8809 64.156 29.286C65.283 28.6902 67.9892 27.8857 69.7084 28.7767ZM66.7369 24.5795C67.1222 25.3429 67.2039 27.5183 64.7142 28.8276C64.5699 27.4273 65.1186 25.0326 66.7369 24.5795ZM72.8963 25.425C72.6619 25.898 72.3363 26.3172 71.9391 26.6571C71.5419 26.997 71.0815 27.2505 70.5858 27.4023C70.0947 27.5502 69.5791 27.5916 69.0716 27.5241C68.5641 27.4565 68.0758 27.2814 67.6379 27.0099C69.2075 25.4964 71.7119 24.9157 72.8963 25.425ZM69.1744 21.3696C70.291 23.3674 69.1109 25.6489 67.8831 26.5862C67.337 24.7293 67.8387 22.7057 69.1744 21.3696ZM74.9677 21.2831C75.1025 24.386 71.9433 24.2174 70.4597 24.2379C70.9267 23.5859 73.5224 21.2224 74.9677 21.2831ZM71.0719 18.3845C71.6589 19.0471 72.5398 21.5944 70.5893 23.6725C69.978 22.1696 69.844 19.8623 71.0719 18.3845ZM76.6235 17.0092C76.7243 19.5154 74.6677 20.7836 72.6841 20.764C73.2807 19.5564 74.8756 17.2286 76.6235 17.0092ZM72.4624 15.2825C73.7772 16.0763 73.6277 18.6395 72.852 19.9738C71.9806 18.7314 71.3302 17.1876 72.4624 15.2825ZM76.7104 12.9341C77.3609 15.2165 75.4495 16.7603 74.3025 16.8923C74.5964 15.8025 74.9808 13.8715 76.7104 12.9341ZM72.7041 12.1751C74.1538 12.9199 74.8408 14.701 74.2981 16.3064C73.2868 15.4706 72.0685 13.7029 72.7041 12.1751ZM76.7782 9.41387C77.6739 12.1903 75.6173 13.0974 74.8521 13.3203C74.9434 12.1395 75.6756 9.78578 76.7782 9.41387ZM72.7615 8.68519C73.3494 8.8591 75.0251 10.2701 74.7216 12.7968C73.619 12.16 72.2798 10.947 72.7615 8.68519ZM76.1713 5.20684C77.173 8.61919 75.5017 10.0204 74.9529 10.2995C74.866 9.22032 74.7599 6.69897 76.1713 5.20684ZM72.4633 5.29245C73.5129 5.59303 74.8373 7.56945 74.7747 9.47003C73.7346 8.98129 72.1789 6.94868 72.4633 5.29245ZM72.7763 0C75.213 2.5829 75.5547 4.61997 74.8425 7.13152C73.739 6.113 72.8581 3.05649 72.7763 0Z" fill="white"/>
<path d="M18.0741 4.72727C18.0741 5.44105 17.9388 6.0483 17.6682 6.54901C17.3998 7.04972 17.0333 7.43217 16.5688 7.69638C16.1065 7.95845 15.5866 8.08949 15.0092 8.08949C14.4275 8.08949 13.9055 7.95739 13.4431 7.69318C12.9807 7.42898 12.6153 7.04652 12.3469 6.54581C12.0784 6.0451 11.9442 5.43892 11.9442 4.72727C11.9442 4.01349 12.0784 3.40625 12.3469 2.90554C12.6153 2.40483 12.9807 2.02344 13.4431 1.76136C13.9055 1.49716 14.4275 1.36506 15.0092 1.36506C15.5866 1.36506 16.1065 1.49716 16.5688 1.76136C17.0333 2.02344 17.3998 2.40483 17.6682 2.90554C17.9388 3.40625 18.0741 4.01349 18.0741 4.72727ZM16.6711 4.72727C16.6711 4.26491 16.6018 3.875 16.4633 3.55753C16.327 3.24006 16.1342 2.99929 15.8849 2.83523C15.6356 2.67116 15.3437 2.58913 15.0092 2.58913C14.6746 2.58913 14.3827 2.67116 14.1334 2.83523C13.8842 2.99929 13.6903 3.24006 13.5518 3.55753C13.4154 3.875 13.3472 4.26491 13.3472 4.72727C13.3472 5.18963 13.4154 5.57955 13.5518 5.89702C13.6903 6.21449 13.8842 6.45526 14.1334 6.61932C14.3827 6.78338 14.6746 6.86541 15.0092 6.86541C15.3437 6.86541 15.6356 6.78338 15.8849 6.61932C16.1342 6.45526 16.327 6.21449 16.4633 5.89702C16.6018 5.57955 16.6711 5.18963 16.6711 4.72727ZM22.47 3.337C22.4445 3.07919 22.3347 2.87891 22.1409 2.73615C21.947 2.59339 21.6838 2.52202 21.3514 2.52202C21.1256 2.52202 20.9349 2.55398 20.7793 2.6179C20.6238 2.67969 20.5045 2.76598 20.4214 2.87678C20.3404 2.98757 20.2999 3.11328 20.2999 3.25391C20.2957 3.37109 20.3202 3.47337 20.3735 3.56072C20.4289 3.64808 20.5045 3.72372 20.6004 3.78764C20.6963 3.84943 20.807 3.90376 20.9328 3.95064C21.0585 3.99538 21.1927 4.03374 21.3355 4.0657L21.9235 4.20632C22.209 4.27024 22.4711 4.35547 22.7097 4.462C22.9484 4.56854 23.1551 4.69957 23.3298 4.85511C23.5045 5.01065 23.6398 5.19389 23.7357 5.40483C23.8337 5.61577 23.8838 5.8576 23.8859 6.13033C23.8838 6.53089 23.7815 6.8782 23.5791 7.17223C23.3788 7.46413 23.089 7.69105 22.7097 7.85298C22.3326 8.01278 21.8777 8.09268 21.345 8.09268C20.8166 8.09268 20.3564 8.01172 19.9644 7.84979C19.5744 7.68786 19.2698 7.44815 19.0503 7.13068C18.833 6.81108 18.719 6.41584 18.7083 5.94496H20.0475C20.0624 6.16442 20.1252 6.34766 20.236 6.49467C20.349 6.63956 20.4992 6.74929 20.6867 6.82386C20.8763 6.89631 21.0904 6.93253 21.3291 6.93253C21.5634 6.93253 21.7669 6.89844 21.9395 6.83026C22.1142 6.76207 22.2495 6.66726 22.3454 6.54581C22.4413 6.42436 22.4892 6.2848 22.4892 6.12713C22.4892 5.98011 22.4455 5.85653 22.3582 5.75639C22.273 5.65625 22.1472 5.57102 21.9811 5.50071C21.817 5.4304 21.6156 5.36648 21.377 5.30895L20.6643 5.12997C20.1124 4.99574 19.6767 4.78587 19.3571 4.50036C19.0375 4.21484 18.8788 3.83026 18.8809 3.34659C18.8788 2.95028 18.9842 2.60405 19.1973 2.30788C19.4125 2.01172 19.7076 1.78054 20.0826 1.61435C20.4576 1.44815 20.8838 1.36506 21.361 1.36506C21.8468 1.36506 22.2708 1.44815 22.633 1.61435C22.9974 1.78054 23.2808 2.01172 23.4832 2.30788C23.6856 2.60405 23.79 2.94709 23.7964 3.337H22.47ZM28.1875 3.337C28.1619 3.07919 28.0522 2.87891 27.8583 2.73615C27.6644 2.59339 27.4013 2.52202 27.0689 2.52202C26.843 2.52202 26.6523 2.55398 26.4968 2.6179C26.3413 2.67969 26.222 2.76598 26.1389 2.87678C26.0579 2.98757 26.0174 3.11328 26.0174 3.25391C26.0131 3.37109 26.0376 3.47337 26.0909 3.56072C26.1463 3.64808 26.222 3.72372 26.3178 3.78764C26.4137 3.84943 26.5245 3.90376 26.6502 3.95064C26.7759 3.99538 26.9102 4.03374 27.0529 4.0657L27.641 4.20632C27.9265 4.27024 28.1886 4.35547 28.4272 4.462C28.6658 4.56854 28.8725 4.69957 29.0472 4.85511C29.222 5.01065 29.3572 5.19389 29.4531 5.40483C29.5511 5.61577 29.6012 5.8576 29.6033 6.13033C29.6012 6.53089 29.4989 6.8782 29.2965 7.17223C29.0962 7.46413 28.8065 7.69105 28.4272 7.85298C28.0501 8.01278 27.5952 8.09268 27.0625 8.09268C26.5341 8.09268 26.0739 8.01172 25.6818 7.84979C25.2919 7.68786 24.9872 7.44815 24.7678 7.13068C24.5504 6.81108 24.4364 6.41584 24.4258 5.94496H25.7649C25.7798 6.16442 25.8427 6.34766 25.9535 6.49467C26.0664 6.63956 26.2166 6.74929 26.4041 6.82386C26.5938 6.89631 26.8079 6.93253 27.0465 6.93253C27.2809 6.93253 27.4844 6.89844 27.657 6.83026C27.8317 6.76207 27.967 6.66726 28.0629 6.54581C28.1587 6.42436 28.2067 6.2848 28.2067 6.12713C28.2067 5.98011 28.163 5.85653 28.0756 5.75639C27.9904 5.65625 27.8647 5.57102 27.6985 5.50071C27.5345 5.4304 27.3331 5.36648 27.0945 5.30895L26.3818 5.12997C25.8299 4.99574 25.3942 4.78587 25.0746 4.50036C24.755 4.21484 24.5962 3.83026 24.5984 3.34659C24.5962 2.95028 24.7017 2.60405 24.9148 2.30788C25.13 2.01172 25.4251 1.78054 25.8001 1.61435C26.1751 1.44815 26.6012 1.36506 27.0785 1.36506C27.5643 1.36506 27.9883 1.44815 28.3505 1.61435C28.7148 1.78054 28.9982 2.01172 29.2006 2.30788C29.4031 2.60405 29.5075 2.94709 29.5139 3.337H28.1875ZM32.2572 8V1.45455H34.8396C35.336 1.45455 35.759 1.54936 36.1084 1.73899C36.4578 1.92649 36.7242 2.1875 36.9074 2.52202C37.0928 2.8544 37.1855 3.23793 37.1855 3.67259C37.1855 4.10724 37.0917 4.49077 36.9042 4.82315C36.7167 5.15554 36.445 5.41442 36.0892 5.59979C35.7355 5.78516 35.3073 5.87784 34.8044 5.87784H33.1585V4.76882H34.5807C34.847 4.76882 35.0665 4.72301 35.2391 4.63139C35.4138 4.53764 35.5438 4.40874 35.629 4.24467C35.7164 4.07848 35.76 3.88778 35.76 3.67259C35.76 3.45526 35.7164 3.26562 35.629 3.10369C35.5438 2.93963 35.4138 2.81285 35.2391 2.72337C35.0644 2.63175 34.8428 2.58594 34.5743 2.58594H33.6411V8H32.2572ZM37.8788 8V3.09091H39.1987V3.94744H39.2499C39.3394 3.64276 39.4896 3.41264 39.7005 3.2571C39.9114 3.09943 40.1543 3.0206 40.4292 3.0206C40.4974 3.0206 40.5709 3.02486 40.6497 3.03338C40.7286 3.0419 40.7978 3.05362 40.8575 3.06854V4.27663C40.7935 4.25746 40.7051 4.24041 40.5922 4.2255C40.4793 4.21058 40.3759 4.20312 40.2822 4.20312C40.0819 4.20312 39.9029 4.2468 39.7453 4.33416C39.5897 4.41939 39.4661 4.53871 39.3745 4.69212C39.285 4.84553 39.2403 5.02237 39.2403 5.22266V8H37.8788ZM43.3709 8.09588C42.8745 8.09588 42.4451 7.99041 42.0829 7.77947C41.7228 7.56641 41.4448 7.27024 41.2488 6.89098C41.0527 6.50959 40.9547 6.06747 40.9547 5.56463C40.9547 5.05753 41.0527 4.61435 41.2488 4.23509C41.4448 3.85369 41.7228 3.55753 42.0829 3.34659C42.4451 3.13352 42.8745 3.02699 43.3709 3.02699C43.8674 3.02699 44.2956 3.13352 44.6557 3.34659C45.0179 3.55753 45.2971 3.85369 45.4931 4.23509C45.6891 4.61435 45.7871 5.05753 45.7871 5.56463C45.7871 6.06747 45.6891 6.50959 45.4931 6.89098C45.2971 7.27024 45.0179 7.56641 44.6557 7.77947C44.2956 7.99041 43.8674 8.09588 43.3709 8.09588ZM43.3773 7.04119C43.6032 7.04119 43.7917 6.97727 43.943 6.84943C44.0943 6.71946 44.2083 6.54261 44.285 6.31889C44.3638 6.09517 44.4032 5.84055 44.4032 5.55504C44.4032 5.26953 44.3638 5.01491 44.285 4.79119C44.2083 4.56747 44.0943 4.39062 43.943 4.26065C43.7917 4.13068 43.6032 4.0657 43.3773 4.0657C43.1493 4.0657 42.9576 4.13068 42.802 4.26065C42.6486 4.39062 42.5325 4.56747 42.4537 4.79119C42.377 5.01491 42.3386 5.26953 42.3386 5.55504C42.3386 5.84055 42.377 6.09517 42.4537 6.31889C42.5325 6.54261 42.6486 6.71946 42.802 6.84943C42.9576 6.97727 43.1493 7.04119 43.3773 7.04119ZM48.3014 8.0799C47.9285 8.0799 47.5908 7.98402 47.2882 7.79226C46.9878 7.59837 46.7492 7.31392 46.5723 6.93892C46.3976 6.56179 46.3102 6.09943 46.3102 5.55185C46.3102 4.98935 46.4008 4.52166 46.5819 4.14879C46.763 3.77379 47.0038 3.49361 47.3042 3.30824C47.6068 3.12074 47.9381 3.02699 48.2982 3.02699C48.573 3.02699 48.8021 3.07386 48.9853 3.16761C49.1707 3.25923 49.3198 3.37429 49.4327 3.51278C49.5478 3.64915 49.6352 3.78338 49.6948 3.91548H49.7364V1.45455H51.0947V8H49.7523V7.21378H49.6948C49.6309 7.35014 49.5403 7.48544 49.4232 7.61967C49.3081 7.75178 49.1579 7.86151 48.9725 7.94886C48.7893 8.03622 48.5656 8.0799 48.3014 8.0799ZM48.7328 6.99645C48.9523 6.99645 49.1376 6.93679 49.2889 6.81747C49.4423 6.69602 49.5595 6.52663 49.6405 6.3093C49.7236 6.09197 49.7651 5.83736 49.7651 5.54545C49.7651 5.25355 49.7246 5 49.6437 4.7848C49.5627 4.5696 49.4455 4.40341 49.2921 4.28622C49.1387 4.16903 48.9523 4.11044 48.7328 4.11044C48.5091 4.11044 48.3205 4.17116 48.1671 4.29261C48.0137 4.41406 47.8976 4.58239 47.8188 4.79759C47.7399 5.01278 47.7005 5.26207 47.7005 5.54545C47.7005 5.83097 47.7399 6.08345 47.8188 6.30291C47.8997 6.52024 48.0158 6.6907 48.1671 6.81428C48.3205 6.93572 48.5091 6.99645 48.7328 6.99645ZM55.1822 5.9098V3.09091H56.5437V8H55.2365V7.10831H55.1854C55.0746 7.39595 54.8903 7.62713 54.6325 7.80185C54.3768 7.97656 54.0646 8.06392 53.696 8.06392C53.3679 8.06392 53.0792 7.98935 52.8299 7.8402C52.5806 7.69105 52.3856 7.47905 52.245 7.20419C52.1065 6.92933 52.0362 6.60014 52.0341 6.21662V3.09091H53.3956V5.97372C53.3977 6.26349 53.4755 6.49254 53.6289 6.66087C53.7823 6.82919 53.9879 6.91335 54.2457 6.91335C54.4098 6.91335 54.5632 6.87607 54.706 6.80149C54.8487 6.72479 54.9638 6.61186 55.0511 6.46271C55.1406 6.31357 55.1843 6.12926 55.1822 5.9098ZM59.6708 8.09588C59.1679 8.09588 58.7354 7.98935 58.3732 7.77628C58.0131 7.56108 57.7361 7.26278 57.5422 6.88139C57.3504 6.5 57.2546 6.06108 57.2546 5.56463C57.2546 5.06179 57.3515 4.62074 57.5454 4.24148C57.7414 3.86009 58.0195 3.56285 58.3796 3.34979C58.7396 3.13459 59.1679 3.02699 59.6644 3.02699C60.0926 3.02699 60.4676 3.10476 60.7894 3.2603C61.1111 3.41584 61.3657 3.63423 61.5532 3.91548C61.7407 4.19673 61.8441 4.52699 61.8632 4.90625H60.5784C60.5422 4.66122 60.4463 4.46413 60.2908 4.31499C60.1374 4.16371 59.936 4.08807 59.6867 4.08807C59.4758 4.08807 59.2915 4.1456 59.1338 4.26065C58.9783 4.37358 58.8568 4.53871 58.7695 4.75604C58.6821 4.97337 58.6384 5.23651 58.6384 5.54545C58.6384 5.85866 58.6811 6.125 58.7663 6.34446C58.8536 6.56392 58.9762 6.73118 59.1338 6.84624C59.2915 6.96129 59.4758 7.01882 59.6867 7.01882C59.8423 7.01882 59.9818 6.98686 60.1054 6.92294C60.2311 6.85902 60.3345 6.76634 60.4154 6.64489C60.4985 6.52131 60.5529 6.37322 60.5784 6.20064H61.8632C61.8419 6.57564 61.7396 6.90589 61.5564 7.19141C61.3753 7.47479 61.1249 7.69638 60.8053 7.85618C60.4857 8.01598 60.1075 8.09588 59.6708 8.09588ZM65.1661 3.09091V4.11364H62.2098V3.09091H65.1661ZM62.8809 1.91477H64.2424V6.49148C64.2424 6.61719 64.2616 6.7152 64.3 6.78551C64.3383 6.85369 64.3916 6.90163 64.4598 6.92933C64.5301 6.95703 64.6111 6.97088 64.7027 6.97088C64.7666 6.97088 64.8305 6.96555 64.8944 6.9549C64.9584 6.94212 65.0074 6.93253 65.0414 6.92614L65.2556 7.93928C65.1874 7.96058 65.0915 7.98509 64.9679 8.01278C64.8444 8.04261 64.6941 8.06072 64.5173 8.06712C64.1892 8.0799 63.9015 8.03622 63.6544 7.93608C63.4093 7.83594 63.2187 7.6804 63.0823 7.46946C62.9459 7.25852 62.8788 6.99219 62.8809 6.67045V1.91477ZM18.5847 18.0959C18.0883 18.0959 17.6589 17.9904 17.2967 17.7795C16.9366 17.5664 16.6586 17.2702 16.4625 16.891C16.2665 16.5096 16.1685 16.0675 16.1685 15.5646C16.1685 15.0575 16.2665 14.6143 16.4625 14.2351C16.6586 13.8537 16.9366 13.5575 17.2967 13.3466C17.6589 13.1335 18.0883 13.027 18.5847 13.027C19.0812 13.027 19.5094 13.1335 19.8695 13.3466C20.2317 13.5575 20.5108 13.8537 20.7069 14.2351C20.9029 14.6143 21.0009 15.0575 21.0009 15.5646C21.0009 16.0675 20.9029 16.5096 20.7069 16.891C20.5108 17.2702 20.2317 17.5664 19.8695 17.7795C19.5094 17.9904 19.0812 18.0959 18.5847 18.0959ZM18.5911 17.0412C18.8169 17.0412 19.0055 16.9773 19.1568 16.8494C19.3081 16.7195 19.4221 16.5426 19.4988 16.3189C19.5776 16.0952 19.617 15.8406 19.617 15.555C19.617 15.2695 19.5776 15.0149 19.4988 14.7912C19.4221 14.5675 19.3081 14.3906 19.1568 14.2607C19.0055 14.1307 18.8169 14.0657 18.5911 14.0657C18.3631 14.0657 18.1714 14.1307 18.0158 14.2607C17.8624 14.3906 17.7463 14.5675 17.6674 14.7912C17.5907 15.0149 17.5524 15.2695 17.5524 15.555C17.5524 15.8406 17.5907 16.0952 17.6674 16.3189C17.7463 16.5426 17.8624 16.7195 18.0158 16.8494C18.1714 16.9773 18.3631 17.0412 18.5911 17.0412ZM24.3461 13.0909V14.1136H21.3163V13.0909H24.3461ZM22.0098 18V12.7362C22.0098 12.3803 22.0791 12.0852 22.2176 11.8509C22.3582 11.6165 22.5499 11.4407 22.7928 11.3235C23.0357 11.2063 23.3117 11.1477 23.6206 11.1477C23.8294 11.1477 24.0201 11.1637 24.1927 11.1957C24.3674 11.2276 24.4974 11.2564 24.5826 11.282L24.3397 12.3047C24.2865 12.2876 24.2204 12.2717 24.1416 12.2567C24.0649 12.2418 23.986 12.2344 23.9051 12.2344C23.7048 12.2344 23.5652 12.2812 23.4864 12.375C23.4075 12.4666 23.3681 12.5955 23.3681 12.7617V18H22.0098ZM29.512 13.0909V14.1136H26.5557V13.0909H29.512ZM27.2269 11.9148H28.5884V16.4915C28.5884 16.6172 28.6076 16.7152 28.6459 16.7855C28.6843 16.8537 28.7375 16.9016 28.8057 16.9293C28.876 16.957 28.957 16.9709 29.0486 16.9709C29.1125 16.9709 29.1765 16.9656 29.2404 16.9549C29.3043 16.9421 29.3533 16.9325 29.3874 16.9261L29.6015 17.9393C29.5333 17.9606 29.4375 17.9851 29.3139 18.0128C29.1903 18.0426 29.0401 18.0607 28.8632 18.0671C28.5351 18.0799 28.2475 18.0362 28.0003 17.9361C27.7553 17.8359 27.5646 17.6804 27.4282 17.4695C27.2919 17.2585 27.2247 16.9922 27.2269 16.6705V11.9148ZM31.6859 15.1619V18H30.3244V11.4545H31.6476V13.957H31.7051C31.8159 13.6673 31.9949 13.4403 32.242 13.2763C32.4892 13.1101 32.7992 13.027 33.1721 13.027C33.513 13.027 33.8102 13.1016 34.0637 13.2507C34.3194 13.3977 34.5176 13.6097 34.6582 13.8867C34.801 14.1616 34.8713 14.4908 34.8691 14.8743V18H33.5076V15.1172C33.5098 14.8146 33.4331 14.5792 33.2775 14.4109C33.1241 14.2425 32.9089 14.1584 32.6319 14.1584C32.4466 14.1584 32.2825 14.1978 32.1397 14.2766C31.9991 14.3555 31.8883 14.4705 31.8074 14.6218C31.7285 14.771 31.688 14.951 31.6859 15.1619ZM37.9978 18.0959C37.4929 18.0959 37.0582 17.9936 36.6938 17.7891C36.3316 17.5824 36.0525 17.2905 35.8565 16.9134C35.6605 16.5341 35.5625 16.0856 35.5625 15.5678C35.5625 15.0629 35.6605 14.6197 35.8565 14.2383C36.0525 13.8569 36.3284 13.5597 36.6843 13.3466C37.0422 13.1335 37.462 13.027 37.9435 13.027C38.2674 13.027 38.5688 13.0792 38.848 13.1836C39.1292 13.2859 39.3742 13.4403 39.5831 13.647C39.794 13.8537 39.9581 14.1136 40.0752 14.4268C40.1924 14.7379 40.251 15.1023 40.251 15.5199V15.8938H36.1058V15.0501H38.9694C38.9694 14.854 38.9268 14.6804 38.8416 14.5291C38.7563 14.3778 38.6381 14.2596 38.4868 14.1744C38.3377 14.087 38.164 14.0433 37.9659 14.0433C37.7592 14.0433 37.576 14.0913 37.4161 14.1871C37.2585 14.2809 37.1349 14.4077 37.0454 14.5675C36.9559 14.7251 36.9101 14.9009 36.908 15.0948V15.897C36.908 16.1399 36.9527 16.3498 37.0422 16.5266C37.1338 16.7035 37.2627 16.8398 37.4289 16.9357C37.5951 17.0316 37.7922 17.0795 38.0202 17.0795C38.1715 17.0795 38.31 17.0582 38.4357 17.0156C38.5614 16.973 38.669 16.9091 38.7585 16.8239C38.848 16.7386 38.9161 16.6342 38.963 16.5107L40.2223 16.5938C40.1583 16.8963 40.0273 17.1605 39.8291 17.3864C39.6331 17.6101 39.3796 17.7848 39.0685 17.9105C38.7595 18.0341 38.4027 18.0959 37.9978 18.0959ZM43.7031 19.8409C43.5305 19.8409 43.3686 19.8271 43.2173 19.7994C43.0681 19.7738 42.9446 19.7408 42.8465 19.7003L43.1534 18.6839C43.3132 18.733 43.457 18.7596 43.5848 18.7638C43.7148 18.7681 43.8267 18.7383 43.9204 18.6744C44.0163 18.6104 44.0941 18.5018 44.1537 18.3484L44.2336 18.1406L42.4726 13.0909H43.9044L44.9208 16.696H44.9719L45.9978 13.0909H47.4392L45.5312 18.5305C45.4396 18.7947 45.3149 19.0249 45.1573 19.2209C45.0017 19.419 44.8046 19.5714 44.566 19.6779C44.3274 19.7866 44.0397 19.8409 43.7031 19.8409ZM50.035 18.0959C49.53 18.0959 49.0953 17.9936 48.731 17.7891C48.3688 17.5824 48.0897 17.2905 47.8936 16.9134C47.6976 16.5341 47.5996 16.0856 47.5996 15.5678C47.5996 15.0629 47.6976 14.6197 47.8936 14.2383C48.0897 13.8569 48.3656 13.5597 48.7214 13.3466C49.0794 13.1335 49.4991 13.027 49.9806 13.027C50.3045 13.027 50.606 13.0792 50.8851 13.1836C51.1664 13.2859 51.4114 13.4403 51.6202 13.647C51.8311 13.8537 51.9952 14.1136 52.1124 14.4268C52.2296 14.7379 52.2882 15.1023 52.2882 15.5199V15.8938H48.1429V15.0501H51.0066C51.0066 14.854 50.9639 14.6804 50.8787 14.5291C50.7935 14.3778 50.6752 14.2596 50.524 14.1744C50.3748 14.087 50.2012 14.0433 50.003 14.0433C49.7963 14.0433 49.6131 14.0913 49.4533 14.1871C49.2956 14.2809 49.172 14.4077 49.0826 14.5675C48.9931 14.7251 48.9473 14.9009 48.9451 15.0948V15.897C48.9451 16.1399 48.9899 16.3498 49.0794 16.5266C49.171 16.7035 49.2999 16.8398 49.4661 16.9357C49.6323 17.0316 49.8294 17.0795 50.0573 17.0795C50.2086 17.0795 50.3471 17.0582 50.4728 17.0156C50.5985 16.973 50.7061 16.9091 50.7956 16.8239C50.8851 16.7386 50.9533 16.6342 51.0002 16.5107L52.2594 16.5938C52.1955 16.8963 52.0644 17.1605 51.8663 17.3864C51.6703 17.6101 51.4167 17.7848 51.1056 17.9105C50.7967 18.0341 50.4398 18.0959 50.035 18.0959ZM54.3965 18.0927C54.0833 18.0927 53.8042 18.0384 53.5592 17.9297C53.3141 17.8189 53.1202 17.6559 52.9775 17.4407C52.8369 17.2234 52.7665 16.9528 52.7665 16.6289C52.7665 16.3562 52.8166 16.1271 52.9168 15.9418C53.0169 15.7564 53.1533 15.6072 53.3259 15.4943C53.4984 15.3814 53.6945 15.2962 53.9139 15.2386C54.1355 15.1811 54.3678 15.1406 54.6107 15.1172C54.8962 15.0874 55.1263 15.0597 55.301 15.0341C55.4757 15.0064 55.6025 14.9659 55.6813 14.9126C55.7602 14.8594 55.7996 14.7805 55.7996 14.6761V14.657C55.7996 14.4545 55.7357 14.2979 55.6078 14.1871C55.4821 14.0763 55.3031 14.021 55.0709 14.021C54.8259 14.021 54.6309 14.0753 54.486 14.1839C54.3411 14.2905 54.2452 14.4247 54.1984 14.5866L52.9391 14.4844C53.0031 14.1861 53.1288 13.9283 53.3163 13.7109C53.5038 13.4915 53.7456 13.3232 54.0418 13.206C54.3401 13.0866 54.6852 13.027 55.0773 13.027C55.35 13.027 55.611 13.0589 55.8603 13.1229C56.1117 13.1868 56.3344 13.2859 56.5283 13.4201C56.7243 13.5543 56.8788 13.7269 56.9917 13.9379C57.1046 14.1467 57.1611 14.397 57.1611 14.6889V18H55.8699V17.3192H55.8315C55.7527 17.4727 55.6472 17.608 55.5151 17.7251C55.383 17.8402 55.2243 17.9308 55.0389 17.9968C54.8536 18.0607 54.6394 18.0927 54.3965 18.0927ZM54.7864 17.1531C54.9867 17.1531 55.1636 17.1136 55.317 17.0348C55.4704 16.9538 55.5908 16.8452 55.6781 16.7088C55.7655 16.5724 55.8092 16.418 55.8092 16.2454V15.7244C55.7665 15.7521 55.708 15.7777 55.6334 15.8011C55.5609 15.8224 55.4789 15.8427 55.3873 15.8619C55.2957 15.8789 55.204 15.8949 55.1124 15.9098C55.0208 15.9226 54.9377 15.9343 54.8631 15.945C54.7033 15.9684 54.5638 16.0057 54.4445 16.0568C54.3251 16.108 54.2325 16.1772 54.1664 16.2646C54.1004 16.3498 54.0673 16.4563 54.0673 16.5842C54.0673 16.7695 54.1344 16.9112 54.2687 17.0092C54.405 17.1051 54.5776 17.1531 54.7864 17.1531ZM58.0374 18V13.0909H59.3573V13.9474H59.4085C59.4979 13.6428 59.6482 13.4126 59.8591 13.2571C60.07 13.0994 60.3129 13.0206 60.5878 13.0206C60.656 13.0206 60.7295 13.0249 60.8083 13.0334C60.8872 13.0419 60.9564 13.0536 61.0161 13.0685V14.2766C60.9521 14.2575 60.8637 14.2404 60.7508 14.2255C60.6379 14.2106 60.5345 14.2031 60.4408 14.2031C60.2405 14.2031 60.0615 14.2468 59.9038 14.3342C59.7483 14.4194 59.6247 14.5387 59.5331 14.6921C59.4436 14.8455 59.3989 15.0224 59.3989 15.2227V18H58.0374Z" fill="white"/>
<path d="M27.5671 29V28.0028L29.897 25.8455C30.0952 25.6538 30.2614 25.4812 30.3956 25.3278C30.532 25.1744 30.6353 25.0241 30.7056 24.8771C30.7759 24.728 30.8111 24.5671 30.8111 24.3945C30.8111 24.2028 30.7674 24.0376 30.6801 23.8991C30.5927 23.7585 30.4734 23.6509 30.3221 23.5763C30.1708 23.4996 29.9993 23.4613 29.8076 23.4613C29.6073 23.4613 29.4326 23.5018 29.2834 23.5827C29.1343 23.6637 29.0192 23.7798 28.9382 23.9311C28.8573 24.0824 28.8168 24.2624 28.8168 24.4712H27.5032C27.5032 24.043 27.6002 23.6712 27.7941 23.3558C27.988 23.0405 28.2596 22.7965 28.609 22.6239C28.9585 22.4513 29.3612 22.3651 29.8171 22.3651C30.2859 22.3651 30.6939 22.4482 31.0412 22.6143C31.3907 22.7784 31.6623 23.0064 31.8562 23.2983C32.0501 23.5902 32.147 23.9247 32.147 24.3018C32.147 24.549 32.098 24.793 32 25.0337C31.9041 25.2745 31.7326 25.5419 31.4855 25.8359C31.2383 26.1278 30.8899 26.4783 30.4404 26.8874L29.4848 27.8239V27.8686H32.2333V29H27.5671ZM35.6225 29.1438C35.0728 29.1417 34.5998 29.0064 34.2035 28.7379C33.8093 28.4695 33.5057 28.0806 33.2926 27.5714C33.0817 27.0621 32.9773 26.4496 32.9794 25.7337C32.9794 25.0199 33.0849 24.4116 33.2958 23.9087C33.5089 23.4059 33.8125 23.0234 34.2067 22.7614C34.603 22.4972 35.0749 22.3651 35.6225 22.3651C36.1701 22.3651 36.641 22.4972 37.0351 22.7614C37.4314 23.0256 37.7361 23.4091 37.9492 23.9119C38.1623 24.4126 38.2677 25.0199 38.2656 25.7337C38.2656 26.4517 38.1591 27.0653 37.946 27.5746C37.7351 28.0838 37.4325 28.4727 37.0383 28.7411C36.6442 29.0096 36.1722 29.1438 35.6225 29.1438ZM35.6225 27.9964C35.9975 27.9964 36.2969 27.8079 36.5206 27.4308C36.7443 27.0536 36.8551 26.4879 36.853 25.7337C36.853 25.2372 36.8018 24.8239 36.6996 24.4936C36.5994 24.1634 36.4567 23.9151 36.2713 23.7489C36.088 23.5827 35.8718 23.4996 35.6225 23.4996C35.2496 23.4996 34.9513 23.6861 34.7276 24.0589C34.5039 24.4318 34.391 24.9901 34.3888 25.7337C34.3888 26.2365 34.4389 26.6562 34.539 26.9929C34.6413 27.3274 34.7851 27.5788 34.9705 27.7472C35.1559 27.9134 35.3732 27.9964 35.6225 27.9964ZM39.0724 29V28.0028L41.4023 25.8455C41.6004 25.6538 41.7666 25.4812 41.9009 25.3278C42.0372 25.1744 42.1406 25.0241 42.2109 24.8771C42.2812 24.728 42.3163 24.5671 42.3163 24.3945C42.3163 24.2028 42.2727 24.0376 42.1853 23.8991C42.0979 23.7585 41.9786 23.6509 41.8273 23.5763C41.6761 23.4996 41.5045 23.4613 41.3128 23.4613C41.1125 23.4613 40.9378 23.5018 40.7886 23.5827C40.6395 23.6637 40.5244 23.7798 40.4435 23.9311C40.3625 24.0824 40.322 24.2624 40.322 24.4712H39.0085C39.0085 24.043 39.1054 23.6712 39.2993 23.3558C39.4932 23.0405 39.7648 22.7965 40.1143 22.6239C40.4637 22.4513 40.8664 22.3651 41.3224 22.3651C41.7911 22.3651 42.1992 22.4482 42.5465 22.6143C42.8959 22.7784 43.1675 23.0064 43.3614 23.2983C43.5553 23.5902 43.6523 23.9247 43.6523 24.3018C43.6523 24.549 43.6033 24.793 43.5053 25.0337C43.4094 25.2745 43.2379 25.5419 42.9907 25.8359C42.7435 26.1278 42.3952 26.4783 41.9456 26.8874L40.99 27.8239V27.8686H43.7386V29H39.0724ZM46.9807 29.0895C46.5034 29.0895 46.0784 29.0075 45.7055 28.8434C45.3348 28.6772 45.0418 28.4492 44.8266 28.1594C44.6135 27.8675 44.5038 27.5309 44.4974 27.1495H45.8909C45.8994 27.3093 45.9516 27.4499 46.0475 27.5714C46.1455 27.6907 46.2755 27.7834 46.4374 27.8494C46.5993 27.9155 46.7815 27.9485 46.9839 27.9485C47.1948 27.9485 47.3813 27.9112 47.5432 27.8366C47.7051 27.7621 47.8319 27.6587 47.9235 27.5266C48.0152 27.3945 48.061 27.2422 48.061 27.0696C48.061 26.8949 48.012 26.7404 47.9139 26.6062C47.8181 26.4698 47.6796 26.3633 47.4985 26.2866C47.3195 26.2099 47.1064 26.1715 46.8593 26.1715H46.2488V25.1552H46.8593C47.0681 25.1552 47.2524 25.119 47.4122 25.0465C47.5741 24.9741 47.6998 24.8739 47.7893 24.7461C47.8788 24.6161 47.9235 24.4648 47.9235 24.2923C47.9235 24.1282 47.8841 23.9844 47.8053 23.8608C47.7286 23.7351 47.6199 23.6371 47.4793 23.5668C47.3408 23.4964 47.1789 23.4613 46.9935 23.4613C46.806 23.4613 46.6345 23.4954 46.4789 23.5636C46.3234 23.6296 46.1987 23.7244 46.105 23.848C46.0112 23.9716 45.9612 24.1165 45.9548 24.2827H44.6284C44.6348 23.9055 44.7424 23.5732 44.9512 23.2855C45.16 22.9979 45.4413 22.7731 45.795 22.6112C46.1508 22.4471 46.5524 22.3651 46.9999 22.3651C47.4516 22.3651 47.8468 22.4471 48.1856 22.6112C48.5244 22.7752 48.7875 22.9968 48.975 23.2759C49.1647 23.5529 49.2584 23.864 49.2563 24.2092C49.2584 24.5756 49.1444 24.8814 48.9143 25.1264C48.6863 25.3714 48.3891 25.527 48.0226 25.593V25.6442C48.5041 25.706 48.8706 25.8732 49.122 26.146C49.3756 26.4165 49.5013 26.7553 49.4992 27.1623C49.5013 27.5352 49.3937 27.8665 49.1764 28.1562C48.9612 28.446 48.6639 28.674 48.2847 28.8402C47.9054 29.0064 47.4708 29.0895 46.9807 29.0895Z" fill="white"/>
</svg>
