<svg width="48" height="48" viewBox="0 0 48 48" fill="none" xmlns="http://www.w3.org/2000/svg">
<g clip-path="url(#clip0_14055_16720)">
<path d="M24.5027 6.95312C33.6988 6.96182 41.1461 14.3907 41.1374 23.5461C41.1287 32.7016 33.6668 40.1159 24.4707 40.1072C15.2862 40.0986 7.84273 32.6871 7.83595 23.5423C7.82722 14.3887 15.2726 6.96182 24.4668 6.95312C24.4784 6.95312 24.4901 6.95312 24.5027 6.95312ZM18.9051 32.042C22.5152 30.7645 26.4581 30.7635 30.0693 32.0401L30.5882 30.0962C30.8278 30.0962 31.047 30.0904 31.2681 30.0981C31.4961 30.0798 31.725 30.0924 31.949 30.1377C31.7929 30.9441 31.596 31.7427 31.3574 32.5287C31.9723 32.8667 32.5834 33.1728 33.1644 33.5282C33.7454 33.8826 34.2953 34.2824 34.8569 34.6619C41.6078 28.5029 41.1869 18.0274 34.8308 12.384C33.758 13.2241 32.5892 13.9358 31.3486 14.5027C31.5843 15.3341 31.8093 16.1308 31.9578 16.9526H30.5756C30.4912 16.6213 30.4146 16.3046 30.3302 15.9908C30.2574 15.6624 30.1614 15.3409 30.0411 15.027C26.4387 16.2978 22.5065 16.2959 18.9051 15.0212L18.3842 16.9709C18.1446 16.9709 17.9235 16.9719 17.7033 16.9709C17.4783 16.969 17.2532 16.9651 16.9855 16.9613L17.6131 14.4959C16.3754 13.931 15.2105 13.2212 14.1426 12.3792C7.43438 18.4696 7.71664 28.9442 14.1426 34.6754C15.2183 33.8343 16.389 33.1216 17.6305 32.5529C17.3813 31.7485 17.1747 30.9305 17.0127 30.1049H18.391L18.9051 32.042ZM29.5911 13.733C29.5833 13.679 29.5717 13.6259 29.5571 13.5727C29.1342 12.4381 28.5542 11.3681 27.8354 10.3928C27.3728 9.75258 26.7889 9.20795 26.1167 8.78982C25.1787 8.18435 23.9808 8.15151 23.0109 8.70484C22.3872 9.05344 21.8372 9.51889 21.392 10.0761C20.6762 10.9568 20.0933 11.9369 19.6597 12.9847C19.5578 13.2193 19.4647 13.4578 19.3561 13.7224C22.6646 14.9044 26.2816 14.9083 29.5911 13.733ZM19.3726 33.3273C19.3959 33.4065 19.4056 33.4529 19.4221 33.4953C19.8168 34.5479 20.3445 35.5455 20.9924 36.4657C21.4163 37.0731 21.9352 37.61 22.5298 38.0542C23.7781 38.961 25.1322 38.9726 26.3931 38.089C26.8247 37.7819 27.2147 37.4198 27.5532 37.0133C28.4145 35.952 29.0935 34.7555 29.562 33.4731C29.5755 33.4239 29.5843 33.3737 29.5891 33.3235C26.2845 32.1531 22.6763 32.155 19.3726 33.3273ZM28.3815 38.2039C30.3379 37.7134 32.1721 36.8259 33.7667 35.5957C32.8908 34.9178 31.9403 34.3413 30.9344 33.8768C30.5523 34.6522 30.2012 35.4083 29.8112 36.1442C29.4087 36.8781 28.9296 37.5685 28.3815 38.2039ZM20.6073 38.2097C20.0545 37.582 19.5724 36.8945 19.1708 36.1606C18.7732 35.419 18.423 34.6532 18.0408 33.8758C17.034 34.3413 16.0825 34.9178 15.2066 35.5957C16.8071 36.8269 18.6451 37.7172 20.6073 38.2097ZM30.884 13.1778C31.6202 12.9306 33.467 11.7911 33.724 11.428C32.1362 10.2113 30.3137 9.33349 28.3699 8.84872C29.4921 10.1282 30.2613 11.6009 30.884 13.1778ZM20.5802 8.85934C18.6345 9.34604 16.81 10.2287 15.2222 11.4502C15.7925 11.9784 17.5578 13.0329 18.0971 13.1662C18.6752 11.6018 19.5142 10.1456 20.5802 8.85934Z" fill="white"/>
<path d="M33.3561 44.7122C33.359 45.2144 33.2513 45.7107 33.0408 46.1675C32.6441 47.0491 31.7809 47.6305 30.8119 47.6691C30.4656 47.7009 30.1164 47.6729 29.7808 47.5851C28.9195 47.3717 28.2337 46.7237 27.9728 45.8787C27.7109 45.1188 27.707 44.2941 27.9612 43.5322C28.2764 42.4989 29.2047 41.7708 30.2871 41.708C30.8662 41.6453 31.4511 41.7611 31.9622 42.0393C32.6451 42.4226 33.1194 43.0899 33.2552 43.8586C33.3114 44.1376 33.324 44.4273 33.3561 44.7122ZM29.7459 44.6803L29.7944 44.6842C29.7944 44.9044 29.7798 45.1255 29.7973 45.3447C29.8002 45.7291 29.8826 46.1076 30.0388 46.4591C30.128 46.6571 30.324 46.7865 30.5412 46.7923C30.7702 46.8077 30.9845 46.6773 31.0757 46.4678C31.1533 46.3143 31.2095 46.1511 31.2425 45.9821C31.3735 45.2163 31.388 44.4351 31.2852 43.6654C31.2513 43.4202 31.1863 43.1787 31.0932 42.9489C31.0214 42.7316 30.8157 42.5858 30.5859 42.5897C30.3473 42.581 30.129 42.7191 30.0349 42.9364C29.9699 43.0542 29.9253 43.1816 29.903 43.3139C29.8409 43.7688 29.7963 44.2246 29.7459 44.6803Z" fill="white"/>
<path d="M27.2363 44.7093C27.2683 45.2192 27.1674 45.7281 26.9443 46.1877C26.5311 47.0848 25.6339 47.6623 24.6436 47.6719C24.2003 47.7048 23.7551 47.6343 23.3429 47.4672C22.6445 47.1814 22.1111 46.601 21.887 45.8835C21.629 45.1332 21.6212 44.3201 21.8637 43.564C22.1761 42.4854 23.1547 41.7331 24.2818 41.7041C25.1635 41.6607 25.9375 41.9011 26.5389 42.579C26.9511 43.0551 27.1946 43.6519 27.2324 44.2796C27.246 44.4205 27.2363 44.5654 27.2363 44.7093ZM25.2809 44.7614C25.2547 44.3558 25.2537 44.0468 25.2101 43.7456C25.1732 43.481 25.1092 43.2202 25.019 42.9692C24.9501 42.7393 24.7358 42.5829 24.4952 42.5848C24.245 42.5742 24.017 42.7297 23.9365 42.9663C23.8483 43.1575 23.791 43.3622 23.7677 43.5708C23.7319 44.1907 23.7105 44.8136 23.7192 45.4345C23.7125 45.7908 23.7939 46.1443 23.955 46.4629C24.081 46.7468 24.4147 46.8753 24.7008 46.7497C24.8202 46.6966 24.9181 46.6049 24.9773 46.488C25.0694 46.3306 25.1305 46.1578 25.1567 45.9772C25.2159 45.5407 25.2469 45.1023 25.2789 44.7614H25.2809Z" fill="white"/>
<path d="M10.8479 43.0498C10.88 43.0633 10.9139 43.0729 10.9478 43.0807C11.2835 43.0758 11.5599 43.3433 11.5647 43.6774C11.5647 43.6977 11.5647 43.718 11.5628 43.7373C11.5909 44.1284 11.3232 44.4789 10.9381 44.5572C10.8053 44.5794 10.6695 44.5861 10.5346 44.5774C10.1098 44.5678 9.7616 44.2395 9.72765 43.8175C9.64908 43.2738 9.85083 42.7282 10.264 42.3641C10.7005 41.9779 11.2553 41.75 11.8383 41.7171C12.5415 41.6206 13.2573 41.7616 13.8713 42.1169C14.5493 42.5032 14.881 43.296 14.6783 44.0473C14.5794 44.4345 14.3243 44.7638 13.9731 44.9569C13.5725 45.1887 13.1438 45.3673 12.6976 45.491C12.3756 45.5895 12.0487 45.6764 11.7335 45.7942C11.4377 45.8772 11.1835 46.0684 11.0216 46.3291C11.0846 46.3137 11.1467 46.2953 11.2078 46.2731C11.7267 46.0298 12.3155 45.9767 12.8703 46.1235C13.0468 46.1717 13.2263 46.2104 13.4067 46.2403C13.7976 46.2982 13.9537 46.1698 14.0003 45.77C14.0071 45.7131 14.01 45.6561 14.0187 45.5624C14.3184 45.5421 14.6191 45.5431 14.9188 45.5663C14.9538 46.0887 14.9538 46.5899 14.6967 47.0553C14.4571 47.4908 14.0439 47.6309 13.5852 47.6704C13.1419 47.6994 12.6967 47.6463 12.2728 47.5131C11.9954 47.4339 11.719 47.345 11.4367 47.2871C11.1583 47.2301 10.8703 47.1944 10.6966 47.4995H9.73929C9.69758 47.065 9.77905 46.6266 9.97692 46.2364C10.2252 45.7884 10.5841 45.4108 11.0196 45.1394C11.3446 44.9164 11.686 44.7165 12.0177 44.504C12.1409 44.4287 12.2602 44.3466 12.3737 44.2578C12.622 44.0656 12.7607 43.7653 12.7461 43.4524C12.752 43.1656 12.5813 42.9039 12.3155 42.7919C11.8218 42.5631 11.235 42.6654 10.8479 43.0498Z" fill="white"/>
<path d="M17.0527 41.8616C17.0644 42.046 17.0731 42.1928 17.0838 42.3763C17.1216 42.3463 17.1584 42.3125 17.1914 42.2768C17.5484 41.7911 18.0469 41.6771 18.6037 41.7737C18.885 41.8355 19.1624 41.9156 19.434 42.0122C19.5989 42.0624 19.7628 42.1194 19.9257 42.1764C20.0605 42.2304 20.2138 42.1986 20.3166 42.0972L20.4136 41.8731H21.143C21.1944 42.0315 21.1867 42.2024 21.1207 42.355C20.951 42.7403 20.7832 43.1275 20.5853 43.4984C20.3321 43.9715 20.0411 44.4254 19.7822 44.8957C19.4136 45.6064 19.2186 46.3924 19.2109 47.192C19.207 47.2857 19.2012 47.3794 19.1953 47.4894H17.3301C17.2845 47.2741 17.2777 47.052 17.3098 46.8338C17.365 46.011 17.723 45.2375 18.3166 44.662C18.7084 44.2786 19.1158 43.9117 19.5145 43.536C19.6037 43.451 19.6861 43.3593 19.821 43.2202C19.7065 43.2463 19.658 43.2521 19.6124 43.2676C19.2138 43.3863 18.7918 43.4037 18.3845 43.3197C18.1672 43.2782 17.948 43.2483 17.7278 43.2318C17.4252 43.1951 17.1507 43.4095 17.1138 43.7108C17.1138 43.7137 17.1129 43.7166 17.1129 43.7185C17.0857 43.8595 17.0682 44.0015 17.0605 44.1454C17.0517 44.2381 17.0517 44.3327 17.0459 44.4408H16.0469V41.8731C16.2127 41.8693 16.3728 41.8635 16.5328 41.8606C16.6938 41.8606 16.8587 41.8616 17.0527 41.8616Z" fill="white"/>
<path d="M34.8525 42.5983C35.3889 42.5133 35.9224 42.4332 36.1949 41.877H37.6421C37.647 41.9832 37.6538 42.0846 37.6547 42.1869C37.6557 43.4906 37.6557 44.7952 37.6547 46.0988C37.6547 46.1664 37.6528 46.2331 37.6547 46.3007C37.6644 46.5942 37.7556 46.6918 38.0563 46.7101C38.1989 46.7188 38.3424 46.712 38.5005 46.712C38.5316 46.9621 38.5393 47.2142 38.5248 47.4653C38.2949 47.5222 35.3317 47.5415 34.8574 47.4913V46.7468C35.1231 46.6618 35.4316 46.7893 35.7323 46.5933C35.7711 46.4909 35.7963 46.3847 35.8079 46.2765C35.8157 45.3659 35.8128 44.4543 35.8118 43.5437C35.806 43.4964 35.7963 43.45 35.7818 43.4046H34.8516L34.8525 42.5983Z" fill="white"/>
<path d="M24.3031 0L24.7279 1.72564L24.79 1.72467L25.2604 0.0270385H26.4224V2.96072H25.7017V0.883582C25.4399 1.55472 25.2818 2.25386 25.0674 2.95107H24.4039L23.8908 0.840127L23.8297 0.842059C23.8268 1.01298 23.8229 1.1839 23.821 1.35483C23.8191 1.52575 23.8181 1.70053 23.8161 1.87339C23.8142 2.0559 23.8171 2.23841 23.8094 2.42092C23.8016 2.59087 23.7822 2.76083 23.7657 2.95686L23.1246 2.9221C23.0615 2.71255 23.0635 0.442274 23.1255 0H24.3031Z" fill="white"/>
<path d="M39.3343 9.22611L38.7038 8.66409L38.9608 6.75497L38.9104 6.73373L37.8493 7.89059L37.2266 7.31892L39.2305 5.11914L39.8522 5.69661L39.5855 7.60862L39.633 7.63469L40.7068 6.46817L41.3392 7.03212L39.3343 9.22611Z" fill="white"/>
<path d="M11.9134 5.46754L10.9958 4.22377L11.6748 3.7168L13.445 6.10005L12.7641 6.60992L10.8668 5.95424C11.1908 6.4419 11.5216 6.84362 11.8339 7.28685L11.1559 7.79093L9.38281 5.40767L10.0637 4.90553L11.864 5.52645L11.9134 5.46754Z" fill="white"/>
<path d="M46.3141 24.6682C45.9746 25.0496 45.671 25.237 44.9688 25.4919V24.5176L45.9125 24.0367C46.06 23.9845 46.1734 23.8638 46.2171 23.7132C46.2219 23.6552 46.2229 23.5973 46.2181 23.5384H45.0425C45.0114 23.2371 45.0105 22.9339 45.0386 22.6326C46.0309 22.5978 47.0047 22.6944 47.9989 22.6818C47.9989 22.9715 48.0037 23.2284 47.9979 23.4853C47.9902 23.802 47.9727 24.1178 47.9582 24.4336C47.9552 24.4905 47.9543 24.5485 47.9455 24.6054C47.8825 25.0361 47.6516 25.2862 47.2821 25.3249C46.8747 25.4108 46.4702 25.1704 46.3519 24.7735C46.3412 24.7416 46.3296 24.7078 46.3141 24.6682ZM47.253 24.3901C47.413 24.1593 47.4353 23.9913 47.3607 23.5896L46.8175 23.5538C46.7525 23.7257 46.7389 23.9121 46.7797 24.0917C46.8408 24.3998 46.9135 24.448 47.253 24.3901Z" fill="white"/>
<path d="M19.3672 0.519343C19.8919 0.432433 20.3827 0.349386 20.8755 0.272133C21.0365 0.243163 21.1994 0.226747 21.3624 0.222884C21.7135 0.195846 22.0336 0.422776 22.1238 0.760759C22.2421 1.10936 22.1141 1.4937 21.8105 1.70325C21.7581 1.73994 21.7038 1.77277 21.6417 1.81237C22.0801 2.06151 22.2741 2.27202 22.7067 2.9644C22.5409 2.9953 22.3847 3.0262 22.2276 3.05324C22.0666 3.08125 21.9056 3.10539 21.7261 3.13436C21.504 2.85045 21.279 2.56462 21.0559 2.27782C20.956 2.10496 20.7397 2.0364 20.5573 2.12041L20.7377 3.29369L19.8512 3.44144L19.3672 0.519343ZM21.277 1.204C21.2499 0.968376 21.1441 0.84284 20.955 0.855394C20.7494 0.848634 20.5447 0.891123 20.3585 0.978998L20.4661 1.55164C20.795 1.50142 21.116 1.53136 21.277 1.204Z" fill="white"/>
<path d="M15.7891 2.53008C15.7939 1.52579 16.7163 1.1038 17.4865 1.08448C18.4458 1.06034 18.9113 1.91399 18.9385 2.76667C18.9676 3.71302 18.1441 4.17944 17.2178 4.21034C16.3313 4.24027 15.8337 3.40787 15.7891 2.53008ZM18.0539 2.89124C18.0413 2.58416 17.9404 2.28674 17.7639 2.0347C17.6029 1.81935 17.3167 1.74017 17.0675 1.84253C16.8192 1.92075 16.6552 2.15541 16.6669 2.4142C16.6795 2.73191 16.791 3.03802 16.986 3.28909C17.1431 3.49671 17.4234 3.56624 17.6601 3.45809C17.9113 3.38759 18.0762 3.15004 18.0539 2.89124Z" fill="white"/>
<path d="M37.9099 4.8405C37.876 5.4846 37.5093 6.06497 36.9409 6.37398C36.6461 6.52848 36.2998 6.55263 35.9865 6.44157C35.6247 6.33149 35.2998 6.1258 35.0457 5.84769C34.7459 5.53482 34.6325 5.08868 34.7469 4.67055C34.84 4.27463 35.0563 3.91926 35.3648 3.65274C35.7198 3.32248 36.2329 3.22302 36.6859 3.39684C37.0544 3.51755 37.3803 3.74061 37.6257 4.03997C37.8168 4.26304 37.9177 4.54791 37.9099 4.8405ZM37.068 4.72656C37.068 4.30939 36.5811 3.90091 36.1737 4.15295C35.8274 4.35767 35.5995 4.714 35.5607 5.11282C35.518 5.53385 36.0234 5.89211 36.39 5.69898C36.7508 5.49329 37.0001 5.136 37.068 4.72656Z" fill="white"/>
<path d="M2.60397 27.8621C1.84255 27.8621 1.35564 27.5 1.1888 26.798C1.12479 26.5479 1.10345 26.2891 1.12576 26.0312C1.1985 25.3775 1.53508 25.0183 2.17719 24.857C2.44683 24.7836 2.72812 24.7633 3.00553 24.7971C3.50991 24.8464 3.93475 25.1921 4.08218 25.6749C4.19275 25.9839 4.23155 26.3132 4.19469 26.6396C4.15589 27.1012 3.86394 27.5029 3.43716 27.6854C3.17721 27.81 2.89204 27.8708 2.60397 27.8621ZM2.82609 25.671C2.56517 25.6643 2.30619 25.7232 2.07437 25.8429C1.86389 25.9733 1.75623 26.2205 1.80375 26.4629C1.82994 26.7111 2.02102 26.911 2.26836 26.9486C2.5739 27.0066 2.88913 26.9689 3.17236 26.8424C3.40515 26.7516 3.5487 26.517 3.52348 26.2688C3.50603 25.8796 3.26645 25.673 2.82609 25.671Z" fill="white"/>
<path d="M47.9534 21.5242C47.741 21.5599 47.5547 21.5937 47.3675 21.6207C46.9679 21.6787 46.5673 21.7395 46.1667 21.7887C45.5886 21.8612 44.9688 21.6014 44.8253 20.8916C44.7651 20.6106 44.7351 20.3248 44.7351 20.038C44.7186 19.6083 44.9921 19.2201 45.4044 19.0907C45.707 18.998 46.0174 18.9313 46.3316 18.8918C46.7206 18.828 47.1124 18.7846 47.5033 18.7324C47.6158 19.0105 47.6624 19.3109 47.6382 19.6092C47.2269 19.6691 46.8098 19.728 46.3918 19.7889C46.2104 19.8149 46.0271 19.8285 45.8496 19.868C45.5702 19.9047 45.3733 20.1597 45.4102 20.4378C45.4179 20.4996 45.4373 20.5585 45.4674 20.6135C45.5324 20.8028 45.7215 20.9225 45.9213 20.8994C46.1706 20.8791 46.418 20.8453 46.6663 20.8115C46.9805 20.769 47.2948 20.7188 47.6091 20.6763C47.6799 20.6715 47.7507 20.6715 47.8224 20.6753L47.9534 21.5242Z" fill="white"/>
<path d="M44.5476 14.8291L43.9035 13.5438L43.3575 13.8123L44.0587 15.2279L43.4903 15.5167C43.4632 15.4838 43.4389 15.4481 43.4166 15.4124C43.0694 14.7161 42.7241 14.0199 42.3594 13.2879L45.0365 11.9746L46.1218 14.1686L45.5757 14.4438L44.8774 13.0648L44.4351 13.2783L45.0665 14.5645L44.5476 14.8291Z" fill="white"/>
<path d="M43.8253 11.5363L43.3384 10.9212C43.4985 10.5407 43.4577 10.2886 43.223 10.1525C43.093 10.0772 43.0348 10.0984 42.8806 10.2915L43.0096 10.6807C43.0882 10.9173 43.1813 11.15 43.2414 11.3905C43.3384 11.6927 43.2463 12.023 43.0077 12.2335C42.7564 12.472 42.3908 12.5473 42.0649 12.4286C41.9378 12.3851 41.8195 12.3194 41.7147 12.2354C41.3762 11.9602 41.1279 11.5913 41.0008 11.1751C40.8806 10.7773 41.0387 10.3476 41.3888 10.1197L41.8932 10.7522C41.7584 10.9463 41.6255 11.1423 41.738 11.3856C41.8001 11.5624 41.9543 11.6908 42.1405 11.7188C42.3995 11.6193 42.4655 11.515 42.4014 11.2688C42.3626 11.121 42.286 10.983 42.2501 10.8352C42.1842 10.5967 42.1386 10.3524 42.1134 10.1061C42.0784 9.61558 42.6071 9.28436 43.0484 9.40313C43.1522 9.42631 43.2502 9.46783 43.3394 9.52481C43.773 9.82223 44.0727 10.2771 44.1735 10.7918C44.223 11.0496 44.1066 11.2813 43.8253 11.5363Z" fill="white"/>
<path d="M2.39753 28.7551L2.6827 29.5257C2.4664 29.687 2.34903 29.8792 2.47222 30.1467C2.54399 30.3031 2.59734 30.334 2.81267 30.3272C2.96787 30.2085 2.92519 30.0404 2.92325 29.8792C2.90967 29.5837 2.91355 29.2872 2.93198 28.9927C2.99987 28.2868 3.84955 28.0715 4.35587 28.4568C4.46451 28.5369 4.55665 28.6364 4.6294 28.7493C4.89129 29.1569 5.00671 29.6416 4.95627 30.1235C4.90971 30.5059 4.64298 30.7135 4.28991 30.8777L3.99699 30.108C4.46548 29.7054 4.45966 29.3017 3.99214 29.0951C3.7351 29.1704 3.68563 29.2206 3.6769 29.4639C3.67011 29.6551 3.69048 29.8483 3.68175 30.0395C3.67981 30.221 3.65944 30.4026 3.61968 30.5802C3.52074 30.9829 3.11336 31.2301 2.70792 31.1326C2.61383 31.1094 2.52557 31.0689 2.44603 31.0129C2.34128 30.9443 2.25204 30.8555 2.18123 30.7521C1.91255 30.3601 1.79131 29.8859 1.83787 29.4128C1.87958 29.1037 2.09782 28.8459 2.39753 28.7551Z" fill="white"/>
<path d="M29.9237 3.61996L29.0178 3.44614C28.9887 3.25687 28.9654 3.09947 28.9402 2.93434L27.913 2.73928L27.6414 3.19024L26.7578 3.01642L28.4096 0.318359L29.3786 0.501835C29.5755 1.52447 29.7482 2.54711 29.9237 3.61996ZM28.8713 2.29121C28.8675 1.93005 28.8093 1.57179 28.6997 1.22705L28.2098 2.15409L28.8713 2.29121Z" fill="white"/>
<path d="M5.50248 14.3395C5.34438 14.3028 5.1824 14.2787 5.02817 14.2275C4.65377 14.1019 4.30459 13.9098 3.99905 13.6606C3.59846 13.3903 3.45685 12.8678 3.66733 12.4333C3.73328 12.2643 3.82252 12.104 3.93212 11.9591C4.14745 11.6501 4.53156 11.5043 4.89917 11.5912C5.42101 11.6974 5.90307 11.9418 6.29688 12.2991C6.6771 12.583 6.78573 13.1034 6.55003 13.5148C6.46856 13.6877 6.36671 13.8499 6.24644 13.9986C6.06215 14.2178 5.78959 14.3434 5.50248 14.3395ZM5.615 13.5853C5.82742 13.593 5.94381 13.5361 5.9991 13.4028C6.06409 13.256 6.02044 13.0841 5.8924 12.9866C5.53061 12.6699 5.10092 12.44 4.63534 12.3135C4.48112 12.2633 4.31332 12.33 4.23669 12.4729C4.16588 12.5926 4.17849 12.7433 4.2687 12.8485C4.29586 12.8881 4.32884 12.9229 4.36667 12.9528C4.70033 13.2116 5.07376 13.4163 5.47144 13.5592C5.518 13.5728 5.5665 13.5815 5.615 13.5853Z" fill="white"/>
<path d="M45.4083 17.5765V18.3152C44.9223 18.4398 44.417 18.2032 44.2026 17.7513C44.061 17.478 43.9776 17.1777 43.9582 16.8706C43.9136 16.3771 44.1677 15.9059 44.6051 15.6703C44.9427 15.4607 45.3355 15.3545 45.7342 15.3661C46.0669 15.3661 46.384 15.5071 46.6052 15.7543C46.9311 16.1164 47.1008 16.5915 47.0785 17.0772C47.0591 17.4577 46.8486 17.8025 46.5198 17.9966L46.1231 17.3138C46.16 17.2723 46.193 17.2385 46.223 17.2028C46.4374 16.9681 46.4199 16.606 46.1852 16.3926C46.0601 16.2786 45.8903 16.2255 45.7215 16.2477C45.448 16.2989 45.1832 16.3868 44.933 16.5085C44.7089 16.606 44.5945 16.8551 44.6672 17.0879C44.705 17.3235 44.8913 17.507 45.1279 17.5437C45.2104 17.5591 45.2967 17.563 45.4083 17.5765Z" fill="white"/>
<path d="M4.19746 16.9729C3.65525 16.916 3.13923 16.7161 2.69984 16.3945C2.40498 16.1907 2.26724 15.8277 2.35357 15.481C2.39528 15.2753 2.46027 15.0754 2.54756 14.8852C2.71536 14.4999 3.12468 14.2778 3.5408 14.3463C4.05099 14.3927 4.54082 14.5694 4.96275 14.8591C5.36625 15.087 5.54375 15.5727 5.38177 16.0053C5.34588 16.1338 5.29835 16.2603 5.2421 16.381C5.05198 16.7914 4.72026 16.9758 4.19746 16.9729ZM4.39629 16.2274C4.62908 16.2255 4.75227 16.1483 4.80562 16.0015C4.85896 15.8615 4.80756 15.7031 4.68243 15.62C4.59514 15.5447 4.49814 15.482 4.39436 15.4327C4.16545 15.3352 3.92975 15.2492 3.69405 15.1671C3.58444 15.1305 3.47193 15.1053 3.35747 15.0899C3.18094 15.0571 3.00441 15.1507 2.9336 15.3149C2.87735 15.4568 2.92002 15.5843 3.0791 15.7137C3.14408 15.7707 3.2178 15.817 3.29734 15.8518C3.5922 15.9667 3.88901 16.0758 4.18776 16.1811C4.25662 16.2014 4.32743 16.2159 4.3992 16.2255L4.39629 16.2274Z" fill="white"/>
<path d="M1.9715 21.848L1.83474 22.6003C1.24791 22.4805 0.986024 22.1648 1.00057 21.5834C1.00639 21.344 1.04034 21.1064 1.10242 20.8746C1.20814 20.4275 1.6582 20.1494 2.10729 20.2547C2.22757 20.2827 2.34008 20.3368 2.43611 20.4131C2.65435 20.5878 2.83379 20.8051 2.96376 21.0523C3.07531 21.229 3.18685 21.4058 3.31586 21.6114C3.45553 21.3951 3.39248 21.1894 3.42352 21.0002C3.45553 20.8032 3.46814 20.6033 3.49336 20.3677L4.13935 20.4024C4.06369 21.2368 3.99191 22.0354 3.9182 22.8649C3.63303 22.806 3.37211 22.664 3.16745 22.4574C2.9754 22.244 2.80857 22.0074 2.63786 21.7766C2.53504 21.6375 2.44581 21.4888 2.34881 21.3469C2.3168 21.2995 2.27994 21.2541 2.24018 21.2126C2.13542 21.0813 1.9618 21.0243 1.79885 21.0668C1.6582 21.117 1.56218 21.2464 1.55733 21.3951C1.55151 21.5641 1.65626 21.7177 1.81631 21.7737C1.85995 21.7911 1.90166 21.8133 1.9715 21.848Z" fill="white"/>
<path d="M15.0053 3.24025L15.272 3.74336L14.2497 4.29379L14.8064 5.36761L14.0111 5.79057L12.625 3.16397L14.6289 2.11719L14.9257 2.65313L13.7327 3.28854L13.9752 3.76944L15.0053 3.24025Z" fill="white"/>
<path d="M44.2491 32.4988L43.1094 32.0025L43.4683 31.1836L44.6225 31.6713L46.6652 31.3111L46.2666 32.212L45.09 32.3723L45.7719 33.3361L45.3781 34.2467L44.2491 32.4988Z" fill="white"/>
<path d="M31.5058 4.18723L30.6571 3.89946L31.369 1.80204C31.1033 1.62533 30.7851 1.59925 30.4922 1.44571L30.7211 0.789062L33.3642 1.68423L33.1353 2.35344L32.2381 2.06374L31.5058 4.18723Z" fill="white"/>
<path d="M44.4497 28.171L46.6311 28.7388L46.8852 27.8359L47.569 28.0146L46.8658 30.6943L46.1723 30.5263L46.4051 29.6157L44.2266 29.0372L44.4497 28.171Z" fill="white"/>
<path d="M1.93311 19.5159L1.28906 19.3634L1.81575 17.0352L2.33855 17.1491C2.82062 17.9342 3.58592 18.5078 4.4773 18.7521L4.30465 19.5179C3.49862 19.2678 2.79443 18.7666 2.29491 18.0877C2.13195 18.5744 2.08443 19.0399 1.93311 19.5159Z" fill="white"/>
<path d="M6.26718 10.2774C6.20995 10.5632 6.16243 10.8066 6.11102 11.0489C6.09453 11.0982 6.07222 11.1465 6.04603 11.1919L5.53196 10.8172C5.67454 10.3817 5.73371 9.95002 5.49219 9.52609L5.89278 8.98242L8.32834 10.7699L7.84918 11.4284L6.26718 10.2774Z" fill="white"/>
<path d="M10.6312 8.26305L10.0095 8.92549L7.96094 6.78075L8.5885 6.13086L10.6312 8.26305Z" fill="white"/>
<path d="M33.6507 5.10992L32.8359 4.71979L34.1056 2.04297L34.9281 2.42344L33.6507 5.10992Z" fill="white"/>
<path d="M5.45989 31.0879L5.81684 31.9155L3.08447 33.0907L2.72656 32.2641L5.45989 31.0879Z" fill="white"/>
<path d="M44.7344 26.7646L44.8634 25.8945C45.845 26.0123 46.8052 26.1591 47.7994 26.3078L47.6782 27.1818C46.6859 27.0601 45.7218 26.9191 44.7344 26.7646Z" fill="white"/>
<path d="M37.3959 23.5446C37.4047 24.3161 37.232 25.08 36.8935 25.7733C36.459 26.6202 35.7286 27.2798 34.8391 27.6274C34.1932 27.8823 33.5084 28.0243 32.8139 28.0494C32.0049 28.1131 31.1911 28.0253 30.4152 27.7916C28.7362 27.2556 27.7303 26.1287 27.4743 24.3731C27.3472 23.5735 27.3986 22.7566 27.6246 21.9792C27.9651 20.7934 28.8506 19.8403 30.0117 19.4086C31.0068 19.032 32.0796 18.9007 33.1369 19.0272C33.7441 19.0678 34.3396 19.2116 34.8983 19.4511C36.2223 19.9948 37.1467 21.2115 37.3116 22.6282C37.3562 22.9314 37.3688 23.2394 37.3959 23.5446ZM34.0981 23.5446C34.0709 23.1342 34.0574 22.7209 34.0118 22.3124C33.9778 21.8518 33.8527 21.4037 33.6432 20.9914C33.4114 20.5327 32.9322 20.2497 32.4172 20.2681C31.8924 20.242 31.3997 20.523 31.1572 20.9875C30.9865 21.311 30.8759 21.6615 30.8293 22.0237C30.6936 22.9159 30.6771 23.8217 30.7809 24.7179C30.8129 25.1292 30.9118 25.5338 31.0738 25.9133C31.3861 26.6405 32.2329 26.9785 32.9632 26.6675C33.2843 26.5304 33.5443 26.2822 33.6956 25.9694C33.7848 25.7782 33.8546 25.5792 33.9022 25.3735C34.0331 24.7719 34.0981 24.1597 34.0981 23.5446Z" fill="white"/>
<path d="M24.7917 22.1514C24.7344 21.994 24.6908 21.8675 24.6442 21.742C24.328 20.8961 23.6917 20.4654 22.813 20.3717C22.4783 20.3205 22.1359 20.3389 21.8091 20.4258C21.5947 20.4876 21.4017 20.6054 21.2494 20.7686C20.9361 21.1133 20.97 21.5015 21.3677 21.743C21.5995 21.8791 21.8498 21.9824 22.1097 22.05C22.6568 22.1997 23.2165 22.3079 23.7655 22.4547C24.4037 22.6082 25.0128 22.8612 25.5715 23.205C26.1719 23.5768 26.557 24.2131 26.6055 24.9152C26.7073 25.6278 26.5066 26.3501 26.0507 26.9093C25.7044 27.3139 25.2543 27.6171 24.748 27.7861C24.071 28.013 23.3542 28.1038 22.6413 28.0526C21.8023 28.0072 20.9807 27.7957 20.2242 27.4307C20.1912 27.4153 20.1543 27.4056 20.0981 27.3863L19.776 27.8373H18.6392V24.7075C18.8352 24.6776 19.035 24.6699 19.2329 24.6834C19.4249 24.6786 19.617 24.6824 19.8333 24.6824C19.873 24.7858 19.9079 24.8823 19.9477 24.977C20.3435 25.9156 21.0079 26.5442 22.0331 26.7403C22.3736 26.8185 22.7276 26.8108 23.0642 26.7181C23.2485 26.664 23.4202 26.5771 23.5724 26.4602C23.8663 26.2516 23.9352 25.8451 23.7267 25.5525C23.684 25.4926 23.6316 25.4405 23.5715 25.398C23.3241 25.2165 23.0496 25.0735 22.7586 24.975C22.1951 24.78 21.6141 24.6371 21.0457 24.4565C20.649 24.3377 20.2591 24.1977 19.8779 24.0374C19.1533 23.7168 18.6228 23.1953 18.4617 22.4025C18.2047 21.1365 18.7392 20.0357 19.905 19.4234C20.4046 19.1695 20.9545 19.0275 21.5142 19.0053C22.5763 18.9271 23.6423 19.1193 24.6093 19.5635C24.6442 19.5799 24.6811 19.5915 24.7441 19.6156L24.9798 19.2235H26.1768V22.1447C25.9546 22.1466 25.7277 22.1505 25.5017 22.1514C25.2689 22.1524 25.038 22.1514 24.7917 22.1514Z" fill="white"/>
<path d="M17.6267 26.6094V27.7866H12.5703V26.6094C12.7265 26.6094 12.8788 26.6123 13.0291 26.6084C13.1348 26.6084 13.2406 26.5998 13.3453 26.5824C13.5053 26.5669 13.6334 26.4414 13.6518 26.282C13.6751 26.1594 13.6906 26.0358 13.6964 25.9122C13.6993 24.3189 13.6993 22.7245 13.6964 21.1312C13.6955 20.5673 13.5606 20.4388 12.9942 20.4292C12.8603 20.4272 12.7255 20.4292 12.5703 20.4292V19.2578H17.5918C17.6577 19.6383 17.6635 20.0274 17.6083 20.4098C17.5384 20.4166 17.4647 20.4253 17.39 20.4301C17.3153 20.435 17.2358 20.4301 17.1582 20.4321C16.6422 20.4504 16.52 20.5605 16.52 21.0675C16.5151 22.6994 16.5151 24.3314 16.52 25.9634C16.5219 26.4868 16.6451 26.5998 17.1737 26.6094C17.3173 26.6113 17.4599 26.6094 17.6267 26.6094Z" fill="white"/>
</g>
<defs>
<clipPath id="clip0_14055_16720">
<rect width="48" height="48" fill="white"/>
</clipPath>
</defs>
</svg>
