<svg width="82" height="48" viewBox="0 0 82 48" fill="none" xmlns="http://www.w3.org/2000/svg">
<g clip-path="url(#clip0_27238_16433)">
<path d="M20.9996 43.8365C21.0155 45.2651 21.0314 46.306 21.0473 46.8162C21.0634 46.8775 21.0634 46.9591 21.0473 47.0203C21.0473 47.102 21.0473 47.1632 21.0473 47.1632C21.0473 47.449 21.0793 47.7347 21.143 48C21.2067 47.7347 21.2387 47.449 21.2387 47.1632C21.2387 47.0611 21.2705 45.5713 21.3183 43.1833C21.3024 43.2037 21.2864 43.2242 21.2864 43.2446C21.1748 43.4282 21.0793 43.6324 20.9996 43.8365ZM17.6848 14.0387C17.9398 13.6918 18.1788 13.2835 18.3541 12.8549C18.2266 13.2223 17.7326 14.6101 18.2107 14.7326C18.7367 14.855 19.3262 14.6509 20.3939 12.9162C20.3621 10.6915 20.3302 8.75262 20.3143 7.28314H19.7405C19.7087 7.28314 19.6928 7.28314 19.6609 7.28314C19.3422 7.28314 18.8163 7.24232 18.4657 6.56881C18.0833 5.83406 18.0672 5.07892 18.0513 4.52786C18.0354 3.73189 17.876 2.28282 17.0952 1.46645C16.5533 0.91539 15.0871 0.486789 13.7325 1.18071C13.2864 1.40521 12.3939 1.99709 11.5174 2.54814C10.7206 3.05838 9.70068 3.69108 9.38195 3.69108C9.90785 3.38494 10.6091 2.93592 11.374 2.38487C12.2505 1.77258 13.1748 1.11948 13.637 0.874568C14.5613 0.405151 16.3302 0.262287 17.2385 1.20113C18.0992 2.09914 18.2745 3.65026 18.2904 4.48704C18.3063 5.0381 18.3223 5.71162 18.6569 6.38513C18.9597 6.95659 19.4378 6.95659 19.7246 6.95659H19.7884H20.2984C20.2984 6.77291 20.2984 6.60962 20.2984 6.42594C19.7884 6.46676 19.0553 6.50758 18.7367 5.62997C18.3541 4.56869 18.7685 1.85423 17.4936 0.711295C16.2186 -0.431634 14.1788 -0.145902 12.3621 1.20113C10.5612 2.52774 8.17078 4.26254 5.22255 5.77284C2.27432 7.28314 0.441626 7.89542 0.0910252 7.95665C-0.24364 8.03828 0.361944 8.32403 1.62093 8.36484C2.8799 8.40566 3.9317 8.2832 3.9317 8.2832L13.1748 2.89511C13.1748 2.89511 5.20661 7.97706 4.53729 8.52811C3.86795 9.07917 3.32612 9.26286 3.37392 9.77309C3.42173 10.2833 3.9317 10.2221 5.33411 10.1813C6.73651 10.1405 7.03929 9.97718 7.51737 9.7935C7.99547 9.60982 13.1748 6.5484 13.1748 6.5484C13.1748 6.5484 7.62894 10.0792 6.83212 10.8956C6.03531 11.712 6.89586 11.9773 7.4377 11.9977C7.99547 12.0181 9.47756 11.9161 10.3062 11.3854C11.1349 10.8548 13.7166 8.73221 13.7166 8.73221C13.7166 8.73221 11.1668 11.0793 10.6728 11.6099C10.2744 12.0385 10.0672 12.406 10.1628 12.8549C10.3063 13.4264 11.0712 13.3651 12.0911 12.8957C12.0911 12.8957 13.143 12.4264 13.5413 11.9773C13.9398 11.5079 15.0553 10.2425 15.0553 10.2425C15.0553 10.2425 13.7326 11.9977 13.3979 12.7529C13.0792 13.508 13.0154 13.6918 13.1748 14.1203C13.3979 14.7326 15.0871 14.0999 15.5652 13.4468C15.9158 12.9366 16.2506 12.406 16.5533 11.8344C16.5533 11.8344 16.0433 12.8957 15.9317 13.508C15.8203 14.1203 15.6928 14.6101 16.1549 14.6713C16.6649 14.7734 17.143 14.7938 17.6848 14.0387ZM20.8402 27.9376C20.8881 27.8966 20.9358 27.8558 20.9836 27.815C21.0793 27.7334 21.1589 27.6722 21.2226 27.5905C21.3501 27.4885 21.4777 27.366 21.6052 27.264C21.6211 26.1006 21.653 24.9169 21.6689 23.7535C21.4139 23.6107 21.143 23.4678 20.8561 23.325C20.8402 23.325 20.8243 23.3046 20.8083 23.3046C20.7765 23.2842 20.7606 23.2842 20.7287 23.2638C20.5374 23.1821 20.3621 23.0801 20.1549 22.9984C19.9159 22.876 19.6768 22.774 19.4378 22.6514C17.8442 23.7331 17.5254 24.2434 17.5254 25.2434C17.5254 26.6518 18.4657 27.2844 20.0912 28.611C20.3462 28.3661 20.6012 28.1416 20.8402 27.9376ZM18.88 25.4272C18.88 25.4272 18.7685 24.5291 20.5693 23.4882C20.6171 23.4678 20.6649 23.427 20.7127 23.4066C20.7287 24.8149 20.7446 26.2231 20.7765 27.6313C19.884 26.8558 18.88 26.1211 18.88 25.4272ZM21.6052 42.7548C21.5254 42.8772 21.4458 42.9997 21.3661 43.1017C21.8282 43.8977 21.7964 44.6732 21.5415 45.6733C21.7805 45.3264 22.2586 44.4487 21.8601 43.3058C21.7805 43.1221 21.7007 42.9384 21.6052 42.7548ZM20.872 34.3868C21.0473 34.6114 21.2546 34.8767 21.4617 35.142C21.5892 35.3053 21.7168 35.4686 21.8601 35.6522C21.876 35.6726 21.908 35.693 21.9398 35.734C23.0235 34.5298 24.0115 33.3869 24.0115 31.9582C24.0115 30.8357 23.1669 29.8152 22.3223 28.9988C22.2426 29.06 22.1629 29.1212 22.0833 29.2028C21.8921 29.3662 21.7168 29.5091 21.5574 29.6519C21.5574 29.6519 21.5415 29.6519 21.5415 29.6723C21.5095 29.7131 21.4617 29.7335 21.4299 29.7744C21.2067 29.9784 20.9996 30.1621 20.8083 30.3458C20.8402 31.7132 20.8561 33.0806 20.872 34.3868ZM21.5574 29.8764C22.6092 30.8561 23.0235 31.4887 23.0235 32.1827C23.0235 32.897 22.4339 33.7338 21.4777 34.9584C21.4936 33.3256 21.5254 31.6316 21.5574 29.8764ZM27.3742 10.2629C27.3742 10.2629 28.4896 11.5283 28.8881 11.9977C29.2865 12.4672 30.3382 12.9162 30.3382 12.9162C31.3583 13.3855 32.1231 13.4468 32.2666 12.8753C32.3782 12.4264 32.1551 12.0385 31.7566 11.6304C31.2626 11.0997 28.7128 8.75262 28.7128 8.75262C28.7128 8.75262 31.2945 10.8752 32.1231 11.4058C32.9518 11.9365 34.4339 12.0385 34.9918 12.0181C35.5495 11.9977 36.3941 11.7324 35.5973 10.916C34.8004 10.0996 29.2546 6.56881 29.2546 6.56881C29.2546 6.56881 34.418 9.65064 34.912 9.81391C35.3901 9.9976 35.6929 10.1405 37.0953 10.2017C38.4978 10.2425 38.9918 10.3037 39.0555 9.7935C39.1193 9.30367 38.5615 9.11999 37.8921 8.54852C37.2228 7.99747 29.2546 2.91552 29.2546 2.91552L38.4978 8.30362C38.4978 8.30362 39.5495 8.42606 40.8085 8.38525C42.0674 8.34443 42.6731 8.0587 42.3384 7.97706C42.0037 7.89542 40.1551 7.30355 37.2069 5.79325C34.2586 4.28294 31.8682 2.56855 30.0674 1.22153C28.2666 -0.105083 26.2108 -0.411224 24.9359 0.731705C23.6609 1.87464 24.0753 4.56868 23.6928 5.65038C23.374 6.52799 22.641 6.48718 22.1311 6.44635C22.1311 6.60962 22.1311 6.79331 22.1151 6.97699H22.641H22.7047C22.9916 6.97699 23.4697 6.97699 23.7725 6.40553C24.1072 5.75243 24.1231 5.0585 24.139 4.50745C24.155 3.67067 24.3302 2.11955 25.1908 1.22153C26.0992 0.282697 27.8682 0.425563 28.7924 0.89498C29.2546 1.11948 30.179 1.77258 31.0554 2.40528C31.8203 2.95633 32.5216 3.40535 33.0475 3.71148C32.7128 3.71148 31.7088 3.07879 30.912 2.56855C30.0515 1.99709 29.159 1.42562 28.6969 1.20113C27.3422 0.5072 25.8761 0.935797 25.3342 1.48685C24.5375 2.30323 24.3941 3.7523 24.378 4.54828C24.3621 5.09933 24.3462 5.87489 23.9637 6.58922C23.6291 7.26274 23.1032 7.30355 22.7685 7.30355C22.7367 7.30355 22.7206 7.30355 22.6888 7.30355H22.1151C22.0833 8.77303 22.0513 10.6915 22.0195 12.8753C23.1032 14.6509 23.7247 14.8754 24.2347 14.7326C24.7128 14.6101 24.2347 13.2223 24.0912 12.8549C24.2825 13.2835 24.5055 13.6712 24.7606 14.0387C25.2865 14.7938 25.7805 14.7734 26.2586 14.6917C26.7367 14.6101 26.5933 14.1407 26.4817 13.5284C26.3702 12.9162 25.8601 11.8549 25.8601 11.8549C26.1629 12.406 26.4976 12.957 26.8482 13.4672C27.3263 14.1203 29.0156 14.7734 29.2387 14.1407C29.3821 13.7326 29.3344 13.5284 29.0156 12.7733C28.7128 12.0181 27.3742 10.2629 27.3742 10.2629ZM21.2387 4.01762C21.4936 4.01762 21.7486 3.91558 21.9558 3.73189C22.1629 3.54821 22.3382 3.28289 22.4339 2.99716C22.5294 2.69101 22.5614 2.36446 22.5135 2.03791C22.4657 1.71136 22.3382 1.42562 22.1629 1.18071C21.9876 0.956207 21.7486 0.792933 21.4936 0.731705C21.2387 0.670476 20.9836 0.690885 20.7446 0.833751C20.5055 0.956209 20.2984 1.18071 20.1709 1.44604C20.0274 1.71136 19.9478 2.03791 19.9478 2.36446C19.9478 2.58896 19.9796 2.79306 20.0433 2.99716C20.1072 3.20125 20.2027 3.38494 20.3302 3.5278C20.4577 3.69108 20.5853 3.81353 20.7446 3.89516C20.8881 3.97681 21.0634 4.01762 21.2387 4.01762ZM25.4777 16.4266C25.4777 16.4266 25.4458 15.2837 23.9956 15.1612C22.5135 15.0388 22.4498 15.8551 22.4816 16.1612C22.5932 16.1612 22.6888 16.202 22.6888 16.2428C22.6888 16.2838 22.6092 16.3246 22.5135 16.3246C22.5932 16.6307 22.8163 16.998 23.4538 17.4062C23.9797 17.7328 24.2347 17.7124 24.5375 17.6512C24.5375 17.6512 24.8881 17.9165 24.8881 18.3451C24.8881 18.7532 24.3302 19.5492 21.7168 21.2228C21.876 12.2018 22.0195 4.28294 22.0195 4.28294H22.1788C22.2426 4.28294 22.3063 4.24213 22.3541 4.18091C22.402 4.11967 22.4339 4.03804 22.4339 3.9564V3.85435C22.4339 3.81353 22.4339 3.77272 22.4179 3.73189C22.402 3.69108 22.3861 3.65026 22.3541 3.62984C22.2108 3.83394 22.0513 3.99721 21.8601 4.11967C21.6689 4.24213 21.4617 4.28294 21.2546 4.28294C21.0473 4.28294 20.8402 4.22172 20.649 4.11967C20.4577 4.01762 20.2824 3.83394 20.1549 3.62984C20.1231 3.67067 20.1072 3.69108 20.0912 3.73189C20.0753 3.77272 20.0753 3.81353 20.0753 3.85435V3.9564C20.0753 4.03804 20.1072 4.11967 20.1549 4.18091C20.2027 4.24213 20.2665 4.28294 20.3302 4.28294H20.4896C20.4896 4.28294 20.6012 11.9773 20.7127 20.835C20.9358 20.9779 21.1589 21.1207 21.4139 21.284C21.4458 21.3044 21.4936 21.3248 21.5254 21.3452C22.1151 21.7127 22.6092 22.0188 23.0235 22.3045C24.4259 21.6106 25.7964 20.8146 26.2108 19.6921C26.9438 17.6104 25.4777 16.4266 25.4777 16.4266ZM23.5334 15.9571C23.374 15.9571 23.2466 15.8551 23.2466 15.7326C23.2466 15.6102 23.374 15.5082 23.5334 15.5082C23.6928 15.5082 23.8203 15.6102 23.8203 15.7326C23.8203 15.8551 23.6928 15.9571 23.5334 15.9571ZM20.9996 41.7955C21.1271 41.5914 21.2387 41.3873 21.3661 41.2037C21.382 40.0403 21.4139 38.7341 21.4299 37.3259C21.2705 37.1218 21.0952 36.9176 20.904 36.6931C20.8402 36.6319 20.7924 36.5503 20.7287 36.4891C20.649 36.387 20.5693 36.3054 20.4896 36.2238C20.0433 36.7544 19.1669 37.9381 19.1669 38.9586C19.1669 40.1628 20.0753 41.3873 20.7606 42.265C20.8243 42.0812 20.904 41.9384 20.9996 41.7955ZM20.904 36.938C20.9358 38.6729 20.9518 40.2648 20.9677 41.6322C20.4418 40.7342 19.884 39.8158 19.884 39.1831C19.884 38.5913 20.1549 37.9177 20.904 36.938ZM21.2705 21.5494C18.1629 19.6308 17.5254 18.7532 17.5254 18.3246C17.5254 17.8961 17.876 17.6308 17.876 17.6308C18.1788 17.7124 18.4338 17.7124 18.9597 17.3858C19.5972 16.998 19.8203 16.6103 19.9 16.3042C19.8043 16.3042 19.7246 16.2632 19.7246 16.2224C19.7246 16.1816 19.8203 16.1408 19.9319 16.1408V16.1204C19.9478 15.8143 19.8681 15.0184 18.4019 15.1408C16.9518 15.2633 16.9199 16.4062 16.9199 16.4062C16.9199 16.4062 15.4537 17.6104 16.2186 19.6513C16.8879 21.4678 20.0274 22.4269 21.8442 23.4678C23.645 24.5087 23.5334 25.4068 23.5334 25.4068C23.5334 26.1823 22.3223 26.9987 21.3661 27.8558C20.41 28.7131 18.386 30.2029 18.386 31.9582C18.386 33.5705 19.645 34.8155 20.872 36.2033C22.1151 37.5912 22.5135 38.428 22.5135 39.2035C22.5135 40.2648 21.143 41.6935 20.4418 43.4692C19.7405 45.2447 21.1271 48 20.6967 46.5509C20.2506 45.1019 20.4896 44.0814 21.0634 43.0609C21.7645 41.8159 23.2626 40.5913 23.2626 38.9382C23.2626 37.5504 21.6848 35.9176 21.6848 35.9176C20.2824 34.1215 19.3901 33.101 19.3901 32.2031C19.3901 31.3051 20.0594 30.509 21.9398 28.9375C23.8044 27.3864 24.904 26.7742 24.904 25.2638C24.904 23.9372 24.378 23.4678 21.2705 21.5494ZM18.88 15.5286C19.0394 15.5286 19.1669 15.6306 19.1669 15.7531C19.1669 15.8755 19.0394 15.9775 18.88 15.9775C18.7206 15.9775 18.5932 15.8755 18.5932 15.7531C18.5932 15.6306 18.7206 15.5286 18.88 15.5286Z" fill="white"/>
<path d="M51.5848 36.9159H50.4815V33.013C50.4594 33.0059 50.4373 32.9993 50.4151 32.9921C49.8097 34.0112 49.2036 35.0302 48.5659 36.1037C47.9628 35.0368 47.3807 34.007 46.7986 32.9772C46.7758 32.9814 46.7531 32.9849 46.731 32.9891V36.9105H45.5996V30.8691C45.9959 30.8691 46.9102 30.8799 46.9102 30.8799C47.3632 31.6748 47.9216 32.6981 48.3687 33.4966C48.4314 33.6083 48.4978 33.7189 48.5844 33.8671C48.658 33.7524 48.7165 33.6669 48.7691 33.5772C49.2527 32.7536 49.9436 31.7101 50.4151 30.8799L50.5959 30.8802L51.5848 30.8794V36.9159Z" fill="white"/>
<path d="M71.6504 30.8653L72.957 30.8653C73.7011 31.9961 74.79 33.6573 75.5282 34.7917V30.8652H75.815H76.3823L76.6865 30.8652C76.6763 32.3499 76.6817 34.1358 76.6817 35.6204C76.6817 36.0465 76.6817 36.4727 76.6817 36.9323C76.3141 36.9323 75.5625 36.9323 75.5625 36.9323C74.7658 35.7053 72.7698 32.7969 72.7698 32.7969C72.7698 33.4729 72.7698 34.1489 72.7698 34.8249C72.7698 35.5009 72.7698 36.1984 72.7698 36.909H71.6504V30.8653Z" fill="white"/>
<path d="M41.465 30.7754C43.2718 30.776 44.6668 32.1477 44.665 33.9216C44.6632 35.6549 43.2336 37.0517 41.4608 37.0517C39.6773 37.0517 38.2345 35.6423 38.2363 33.9025C38.2381 32.1453 39.6528 30.7748 41.465 30.7754ZM41.4471 35.9358C42.5863 35.937 43.5019 35.0225 43.4959 33.8905C43.49 32.7842 42.5522 31.853 41.4495 31.8578C40.3515 31.8626 39.4096 32.8057 39.406 33.9031C39.4024 35.0052 40.336 35.9346 41.4477 35.9352L41.4471 35.9358Z" fill="white"/>
<path d="M37.2332 27.772H36.0641C36.0641 27.772 36.0725 25.5127 36.0564 25.1147H35.9004C35.1664 25.1003 34.4325 25.1051 33.6674 25.1051V27.7678H32.502V21.776H33.6549V24.1512H36.0564C36.0683 23.5541 36.0635 21.7539 36.0635 21.7539H37.2326V23.9121C37.2326 25.0872 37.2326 26.2622 37.2326 27.4373L37.2332 27.772Z" fill="white"/>
<path d="M70.9743 36.9193C70.5553 36.9235 69.8452 36.9229 69.8452 36.9229L69.1223 35.7191C68.3154 35.7299 67.274 35.7317 66.4672 35.7191H66.2536C66.2506 35.7287 66.0829 35.9869 66.0781 35.9959C65.9227 36.3049 65.6057 36.9229 65.6057 36.9229C65.6057 36.9229 64.8164 36.9229 64.3711 36.9229L67.2123 30.8555L68.1941 30.8555C68.9961 32.6205 70.9743 36.9193 70.9743 36.9193ZM68.6876 34.7371C68.3523 34.0128 68.0325 33.3212 67.6793 32.558C67.3177 33.332 66.9961 34.0199 66.6608 34.7371H68.6876Z" fill="white"/>
<path d="M57.6481 27.7591C57.2292 27.7633 56.5191 27.7627 56.5191 27.7627L55.7961 26.559C54.9892 26.5697 53.9479 26.5715 53.141 26.559H52.9274C52.9244 26.5685 52.7567 26.8267 52.7519 26.8357C52.5965 27.1447 52.2796 27.7627 52.2796 27.7627C52.2796 27.7627 51.4902 27.7627 51.0449 27.7627L53.8861 21.6953L54.8679 21.6954C55.67 23.4603 57.6481 27.7591 57.6481 27.7591ZM55.3614 25.577C55.0261 24.8526 54.7063 24.1611 54.3531 23.3978C53.9915 24.1718 53.6699 24.8598 53.3346 25.577H55.3614Z" fill="white"/>
<path d="M50.8864 27.7591C50.4674 27.7633 49.7573 27.7627 49.7573 27.7627L49.0344 26.559C48.2275 26.5697 47.1862 26.5715 46.3793 26.559H46.1657C46.1627 26.5685 45.995 26.8267 45.9902 26.8357C45.8348 27.1447 45.5178 27.7627 45.5178 27.7627C45.5178 27.7627 44.7285 27.7627 44.2832 27.7627L47.1244 21.6953L48.1062 21.6954C48.9083 23.4603 50.8864 27.7591 50.8864 27.7591ZM48.5997 25.577C48.2644 24.8526 47.9446 24.1611 47.5914 23.3978C47.2298 24.1718 46.9082 24.8598 46.5729 25.577H48.5997Z" fill="white"/>
<path d="M38.0269 35.8286C37.2751 36.8781 35.7695 37.3174 34.4659 36.8877C33.123 36.4448 32.2473 35.2488 32.2599 33.8748C32.2725 32.5061 33.1779 31.3185 34.5245 30.9049C35.7826 30.5188 37.3217 30.9712 37.9977 31.958C37.7185 32.1803 37.4323 32.4086 37.1334 32.6459C36.7354 32.166 36.1353 31.811 35.3601 31.8689C34.7911 31.912 34.3106 32.1612 33.9328 32.5939C33.206 33.4265 33.2801 34.6159 34.1044 35.3839C35.0092 36.2272 36.1526 36.1041 37.2039 35.0701C37.4795 35.3241 37.755 35.5776 38.0269 35.828V35.8286Z" fill="white"/>
<path d="M53.9817 36.9206H52.8281V30.8953C53.2071 30.8953 53.5812 30.8953 53.9554 30.8953C54.3032 30.8953 54.6517 30.8935 54.9995 30.8953C56.1638 30.9025 57.0322 31.7506 57.0472 32.8916C57.0615 34.0308 56.1787 34.9339 55.0222 34.9584C54.6869 34.9655 54.351 34.9596 53.9811 34.9596V36.92L53.9817 36.9206ZM54.005 31.7309V34.0523C54.3241 34.0523 54.6236 34.081 54.9158 34.0463C55.4472 33.983 55.859 33.5042 55.893 32.9603C55.9241 32.4583 55.5966 31.9389 55.1053 31.8247C54.7557 31.7434 54.3833 31.7596 54.005 31.7315V31.7309Z" fill="white"/>
<path d="M40.7578 21.7751C41.6304 21.7751 42.4911 21.7081 43.3362 21.793C44.2847 21.888 44.9589 22.7648 44.9751 23.7409C44.9912 24.7252 44.326 25.5877 43.3685 25.7521C42.9041 25.8315 42.4224 25.8148 41.9233 25.8429V27.7627H40.7584V21.7751H40.7578ZM41.9299 22.6351V24.9022C42.2556 24.9022 42.5658 24.935 42.8664 24.895C43.4097 24.8221 43.818 24.3122 43.8215 23.7612C43.8251 23.2011 43.4336 22.7188 42.8652 22.6423C42.5658 22.6017 42.2556 22.6351 41.9305 22.6351H41.9299Z" fill="white"/>
<path d="M77.4961 31.9076V30.9238H81.9996V31.9076H80.3518V36.9168H79.1588C79.1588 36.9168 79.1826 33.3421 79.1939 31.9076H77.4961Z" fill="white"/>
<path d="M61.8615 35.8155V36.9129H57.7871V30.9199H58.9514C58.9514 31.0335 58.9514 31.1488 58.9514 31.2642C58.9514 32.6681 58.9574 34.0727 58.946 35.4767V35.8155H61.8615Z" fill="white"/>
<path d="M38.4199 27.7655V21.7695H39.5645V27.7655H38.4199Z" fill="white"/>
<path d="M62.6348 30.9102H63.7656V36.9181H62.6348V30.9102Z" fill="white"/>
</g>
<defs>
<clipPath id="clip0_27238_16433">
<rect width="82" height="48" fill="white"/>
</clipPath>
</defs>
</svg>
