<svg width="50" height="48" viewBox="0 0 50 48" fill="none" xmlns="http://www.w3.org/2000/svg">
<g clip-path="url(#clip0_14055_16758)">
<path d="M24.864 0.736286C28.0862 0.736286 31.22 1.34838 34.1671 2.56299C37.0159 3.73937 39.5702 5.41306 41.7608 7.54583C43.9515 9.67858 45.6804 12.1748 46.879 14.9387C48.1265 17.808 48.7551 20.8493 48.7551 23.9958C48.7551 26.4442 48.3721 28.8351 47.6058 31.14L42.753 28.6821C43.1754 27.1614 43.3816 25.5834 43.3816 23.9958C43.3816 21.557 42.8906 19.1947 41.9276 16.9758C40.9945 14.8336 39.6586 12.9016 37.959 11.247C36.2595 9.59249 34.2751 8.29181 32.0747 7.38323C29.7955 6.44597 27.369 5.96776 24.864 5.96776C22.3589 5.96776 19.9325 6.44597 17.6534 7.38323C15.4528 8.29181 13.4684 9.59249 11.7689 11.247C10.0695 12.9016 8.73345 14.8336 7.80019 16.9758C6.83747 19.1947 6.34629 21.557 6.34629 23.9958C6.34629 25.593 6.56236 27.1709 6.97497 28.6917L2.12207 31.1497C1.35582 28.8448 0.972696 26.4442 0.972696 23.9958C0.972696 20.8588 1.60142 17.808 2.84903 14.9387C4.05735 12.1652 5.7765 9.67858 7.96715 7.54583C10.1579 5.41306 12.7218 3.7298 15.5609 2.56299C18.508 1.34838 21.6418 0.736286 24.864 0.736286ZM24.864 0.0859375C11.2974 0.0859375 0.304688 10.788 0.304688 23.9958C0.304688 26.8267 0.815519 29.5429 1.73895 32.0677L7.76087 29.0265C7.25988 27.4103 7.00449 25.7269 7.00449 24.0054C7.00449 21.6526 7.47601 19.3765 8.40928 17.2437C9.31301 15.1778 10.5999 13.3129 12.2405 11.7157C13.881 10.1185 15.7967 8.86565 17.9186 7.98575C20.1191 7.07717 22.4571 6.61811 24.864 6.61811C27.2708 6.61811 29.6186 7.07717 31.8093 7.98575C33.9313 8.86565 35.8469 10.1185 37.4875 11.7157C39.1279 13.3129 40.4148 15.1778 41.3186 17.2437C42.2519 19.386 42.7235 21.6622 42.7235 24.0054C42.7235 25.7269 42.4681 27.4103 41.967 29.0265L47.989 32.0677C48.9223 29.5429 49.4232 26.8267 49.4232 23.9958C49.4232 10.788 38.4305 0.0859375 24.864 0.0859375Z" fill="white"/>
<path d="M24.8672 47.9045C35.526 47.9045 44.5933 41.2958 47.9922 32.057L41.9704 29.0156C41.7837 29.6086 41.5773 30.1921 41.3219 30.7563C40.4181 32.8222 39.1313 34.6871 37.4906 36.2844C35.8502 37.8814 33.9344 39.1342 31.8126 40.0142C29.612 40.9228 27.274 41.3819 24.8672 41.3819C22.4603 41.3819 20.1125 40.9228 17.9218 40.0142C15.7999 39.1342 13.8843 37.8814 12.2437 36.2844C10.6031 34.6871 9.31624 32.8222 8.4125 30.7563C8.16691 30.1825 7.95077 29.6086 7.76409 29.0156L1.74219 32.057C5.14119 41.2958 14.2084 47.9045 24.8672 47.9045Z" fill="#414141"/>
<path d="M13.0667 21.2403H12.3594L15.1101 15.043H15.7389L18.4698 21.2403H17.7527L17.0551 19.6146H13.7642L13.0667 21.2403ZM14 19.031H16.8096L15.4048 15.7411L14 19.031Z" fill="white"/>
<path d="M19.2656 21.2403V15.043H19.9139V21.2403H19.2656Z" fill="white"/>
<path d="M26.7915 20.2368C26.6835 20.39 26.5558 20.5429 26.3986 20.6863C26.2413 20.8298 26.0646 20.9542 25.8682 21.0593C25.6715 21.1645 25.4457 21.2506 25.2001 21.3176C24.9544 21.3749 24.6893 21.4132 24.4044 21.4132C23.9232 21.4132 23.4809 21.3271 23.0783 21.1645C22.6656 21.002 22.3218 20.7724 22.0271 20.4855C21.7322 20.1985 21.5065 19.8543 21.3393 19.4525C21.1725 19.0606 21.0938 18.6205 21.0938 18.1519C21.0938 17.6833 21.1822 17.2433 21.3491 16.8512C21.5162 16.4591 21.752 16.1148 22.0466 15.8183C22.3414 15.5314 22.6951 15.3018 23.0977 15.1393C23.5007 14.9767 23.9426 14.8906 24.4142 14.8906C24.65 14.8906 24.876 14.9097 25.1017 14.9575C25.3278 15.0053 25.534 15.0724 25.7404 15.1584C25.9369 15.2445 26.1138 15.3497 26.2806 15.4644C26.438 15.5887 26.5754 15.7227 26.6835 15.8757L26.1431 16.2582C26.0744 16.1626 25.986 16.0574 25.878 15.9618C25.7698 15.8662 25.6324 15.7705 25.4849 15.7036C25.3376 15.627 25.1706 15.5696 24.9937 15.5218C24.8169 15.474 24.6303 15.4548 24.424 15.4548C24.0114 15.4548 23.6382 15.5314 23.3139 15.6748C22.9898 15.8184 22.7147 16.0191 22.4789 16.2677C22.2529 16.5165 22.0762 16.8034 21.9582 17.1286C21.8404 17.4537 21.7814 17.798 21.7814 18.1615C21.7814 18.5249 21.8404 18.8692 21.968 19.1944C22.0958 19.5196 22.2628 19.8065 22.4987 20.055C22.7245 20.3039 22.9995 20.4951 23.3335 20.6481C23.6578 20.7915 24.0311 20.8681 24.4338 20.8681C24.7973 20.8681 25.1509 20.7915 25.4751 20.6481C25.8091 20.5046 26.0842 20.2656 26.3004 19.9499L26.7915 20.2368Z" fill="white"/>
<path d="M27.6641 15.043H29.4619C29.7859 15.043 30.0807 15.0812 30.3458 15.1482C30.6112 15.2151 30.8372 15.3203 31.0239 15.4542C31.2104 15.5882 31.3578 15.7603 31.4561 15.9707C31.5543 16.181 31.6131 16.4201 31.6131 16.6975C31.6131 16.9749 31.564 17.2235 31.4561 17.4243C31.3478 17.6348 31.2004 17.8069 31.0139 17.9408C30.8272 18.0747 30.6014 18.18 30.3262 18.2565C30.0609 18.3234 29.7663 18.3616 29.4421 18.3616H28.3124V21.2403H27.6641V15.043ZM29.4127 17.8261C29.9233 17.8261 30.3066 17.7304 30.5718 17.5392C30.8372 17.3478 30.9647 17.0705 30.9647 16.6975C30.9647 16.315 30.8272 16.028 30.5522 15.8559C30.2771 15.6742 29.894 15.5882 29.4027 15.5882H28.3025V17.8261H29.4127Z" fill="white"/>
<path d="M31.9729 21.2403H31.2656L34.0162 15.043H34.6448L37.3759 21.2403H36.6588L35.9614 19.6146H32.6704L31.9729 21.2403ZM32.9063 19.031H35.7157L34.3108 15.7411L32.9063 19.031Z" fill="white"/>
<path d="M15.6577 28.3555C15.53 28.1929 15.3532 28.0591 15.1371 27.9632C14.921 27.8676 14.7147 27.8198 14.5182 27.8198C14.42 27.8198 14.312 27.8295 14.2039 27.8486C14.0958 27.8676 14.0074 27.8964 13.919 27.9537C13.8305 28.0015 13.7618 28.0686 13.7029 28.145C13.6439 28.2216 13.6145 28.3268 13.6145 28.4511C13.6145 28.5562 13.6341 28.6423 13.6832 28.7094C13.7323 28.7762 13.7913 28.8434 13.8797 28.8912C13.9681 28.939 14.0663 28.9963 14.1941 29.0346C14.312 29.0824 14.4495 29.1207 14.5968 29.1685C14.8129 29.2354 15.0389 29.3119 15.2747 29.398C15.5105 29.484 15.7168 29.5988 15.9132 29.7327C16.1097 29.8762 16.2668 30.0483 16.3945 30.2492C16.5222 30.4594 16.5812 30.7178 16.5812 31.0239C16.5812 31.3777 16.5124 31.6837 16.3749 31.9515C16.2374 32.2097 16.0605 32.4297 15.8346 32.5923C15.6087 32.7644 15.3434 32.8888 15.0487 32.9653C14.7541 33.0514 14.4495 33.0895 14.1449 33.0895C13.6931 33.0895 13.251 33.0132 12.8187 32.86C12.3963 32.7071 12.0426 32.487 11.7578 32.2002L12.7697 31.2056C12.9268 31.3969 13.1331 31.5498 13.3885 31.6742C13.6439 31.7984 13.8994 31.8655 14.1449 31.8655C14.2628 31.8655 14.3708 31.8559 14.4789 31.8271C14.587 31.8081 14.6852 31.7698 14.7639 31.7125C14.8424 31.6647 14.9112 31.5881 14.9603 31.502C15.0094 31.4159 15.0291 31.3107 15.0291 31.1863C15.0291 31.0717 14.9996 30.9663 14.9406 30.89C14.8817 30.8039 14.7932 30.7369 14.6852 30.6699C14.5771 30.6031 14.4397 30.5455 14.2726 30.4882C14.1056 30.4309 13.919 30.3735 13.7127 30.3065C13.5064 30.2396 13.3099 30.1631 13.1134 30.077C12.917 29.9908 12.7402 29.8762 12.5928 29.7423C12.4356 29.6084 12.3178 29.4362 12.2195 29.2448C12.1311 29.0537 12.0819 28.8146 12.0819 28.5277C12.0819 28.1833 12.1507 27.8869 12.2981 27.6479C12.4455 27.399 12.6321 27.1983 12.8679 27.0454C13.1036 26.8922 13.3689 26.7679 13.6635 26.7008C13.9582 26.6243 14.2529 26.5957 14.5576 26.5957C14.921 26.5957 15.2845 26.6626 15.6577 26.7869C16.0312 26.9114 16.365 27.1026 16.6402 27.3607L15.6577 28.3555Z" fill="white"/>
<path d="M24.0411 29.8203C24.0411 30.3078 23.9527 30.7574 23.7759 31.1687C23.5992 31.5704 23.3634 31.9242 23.049 32.211C22.7446 32.4982 22.3712 32.7276 21.9487 32.8806C21.5263 33.0336 21.0645 33.1197 20.5636 33.1197C20.0625 33.1197 19.6107 33.0431 19.1784 32.8806C18.756 32.7276 18.3925 32.4982 18.0781 32.211C17.7736 31.9242 17.528 31.5704 17.3512 31.1687C17.1744 30.7669 17.0859 30.3174 17.0859 29.8203C17.0859 29.3228 17.1744 28.8733 17.3512 28.4717C17.528 28.07 17.7638 27.7352 18.0781 27.4482C18.3827 27.1709 18.756 26.951 19.1784 26.7979C19.6008 26.6449 20.0625 26.5684 20.5636 26.5684C21.0645 26.5684 21.5263 26.6449 21.9487 26.7979C22.3712 26.951 22.7446 27.1613 23.049 27.4482C23.3534 27.7255 23.5992 28.07 23.7759 28.4717C23.9527 28.8733 24.0411 29.3228 24.0411 29.8203ZM22.3907 29.8203C22.3907 29.5524 22.3416 29.3038 22.2532 29.0646C22.1648 28.8349 22.0371 28.6342 21.8799 28.462C21.7227 28.2995 21.5263 28.1656 21.3003 28.07C21.0744 27.9743 20.8288 27.9266 20.5536 27.9266C20.2787 27.9266 20.043 27.9743 19.817 28.07C19.5911 28.1656 19.4043 28.2995 19.2374 28.462C19.0801 28.6247 18.9525 28.8255 18.864 29.0646C18.7756 29.2941 18.7364 29.5524 18.7364 29.8203C18.7364 30.0975 18.7854 30.3557 18.8738 30.5948C18.9624 30.834 19.09 31.0348 19.2472 31.207C19.4043 31.3789 19.6008 31.5128 19.817 31.6085C20.043 31.7042 20.2885 31.7522 20.5536 31.7522C20.819 31.7522 21.0646 31.7042 21.2905 31.6085C21.5165 31.5128 21.7032 31.3789 21.8701 31.207C22.0272 31.0348 22.155 30.834 22.2434 30.5948C22.3416 30.3557 22.3907 30.0975 22.3907 29.8203Z" fill="white"/>
<path d="M29.4566 32.8329C29.0439 33.0146 28.5627 33.1103 28.0224 33.1103C27.5311 33.1103 27.0793 33.0336 26.6569 32.8712C26.2442 32.718 25.8809 32.4885 25.5762 32.2016C25.2717 31.9148 25.026 31.5705 24.8591 31.1687C24.6823 30.767 24.5938 30.3272 24.5938 29.8393C24.5938 29.342 24.6823 28.8926 24.8591 28.4908C25.036 28.0891 25.2815 27.7448 25.5958 27.458C25.9102 27.1709 26.2738 26.9607 26.6962 26.8077C27.1186 26.6545 27.5704 26.5781 28.0518 26.5781C28.5037 26.5781 28.9457 26.6545 29.378 26.8077C29.8102 26.9607 30.164 27.1901 30.4391 27.4866L29.3877 28.5003C29.2404 28.3091 29.0537 28.1657 28.8179 28.0701C28.5822 27.9744 28.3464 27.9265 28.1008 27.9265C27.8357 27.9265 27.5802 27.9744 27.3544 28.0701C27.1283 28.1657 26.932 28.2996 26.7747 28.4718C26.6175 28.6439 26.4898 28.8448 26.4013 29.0743C26.3131 29.3039 26.264 29.562 26.264 29.8298C26.264 30.1072 26.3131 30.3655 26.4013 30.6046C26.4898 30.8341 26.6175 31.0348 26.7747 31.2071C26.932 31.3695 27.1283 31.5034 27.3444 31.599C27.5704 31.6947 27.8062 31.7425 28.0715 31.7425C28.376 31.7425 28.6413 31.6851 28.8671 31.5705C29.0931 31.4556 29.2798 31.3027 29.4173 31.1114L30.4882 32.0965C30.2131 32.4026 29.8693 32.6512 29.4566 32.8329Z" fill="white"/>
<path d="M33.3563 31.7141L35.8418 29.5334C35.9989 29.3899 36.1267 29.237 36.2151 29.0841C36.3133 28.9309 36.3625 28.7683 36.3625 28.5772C36.3625 28.3572 36.2935 28.1754 36.1463 28.0415C35.9989 27.9076 35.8122 27.8407 35.5667 27.8407C35.3111 27.8407 35.1049 27.9268 34.9478 28.0988C34.7905 28.2711 34.6923 28.5005 34.6629 28.7779L33.2188 28.5866C33.258 28.2711 33.3465 27.9936 33.484 27.7451C33.6216 27.4963 33.7985 27.286 34.0145 27.1138C34.2307 26.9416 34.4763 26.8077 34.7611 26.7218C35.0362 26.6261 35.3308 26.5879 35.6453 26.5879C35.94 26.5879 36.2249 26.6261 36.5 26.7025C36.7749 26.7791 37.0204 26.8938 37.2366 27.0565C37.4528 27.2094 37.6296 27.4104 37.7573 27.6495C37.8851 27.8885 37.9538 28.1658 37.9538 28.4911C37.9538 28.7111 37.9245 28.9119 37.8653 29.0936C37.8064 29.2752 37.718 29.4378 37.6198 29.591C37.5118 29.7439 37.3938 29.8873 37.2562 30.0117C37.1188 30.1457 36.9814 30.2698 36.834 30.4037L35.3602 31.6854H37.9635V32.967H33.3563V31.7141Z" fill="white"/>
<path d="M37.3705 23.8516H12.3594V24.1192H37.3705V23.8516Z" fill="white"/>
<path d="M5.2159 23.2486L5.19625 23.4877L3.05469 22.3877L3.07433 22.1773L5.37307 21.4219L5.35343 21.6704L4.75419 21.8618L4.66576 22.9807L5.2159 23.2486ZM4.44965 22.8754L4.52823 21.9192L3.31011 22.3017L4.44965 22.8754Z" fill="white"/>
<path d="M5.46436 20.9443L5.42506 21.1641L3.23438 20.839L3.27367 20.6191L5.46436 20.9443Z" fill="white"/>
<path d="M5.61136 18.5811C5.66048 18.6289 5.69977 18.6863 5.73907 18.7437C5.77836 18.8009 5.80784 18.8776 5.82748 18.9445C5.84714 19.021 5.85697 19.0976 5.86679 19.1837C5.86679 19.2696 5.85697 19.3557 5.8373 19.4513C5.79802 19.614 5.73907 19.7479 5.65066 19.8723C5.56225 19.9965 5.45419 20.0921 5.32648 20.1687C5.19876 20.2453 5.06124 20.2932 4.91388 20.3122C4.76652 20.3312 4.59953 20.3312 4.44235 20.2932C4.28516 20.2548 4.12798 20.1975 4.01009 20.1017C3.8824 20.0157 3.78416 19.9104 3.70555 19.7862C3.62698 19.6618 3.57784 19.5279 3.54838 19.3845C3.51892 19.241 3.52874 19.0881 3.56802 18.9254C3.58769 18.8489 3.61716 18.7724 3.64663 18.7053C3.68591 18.6384 3.7252 18.5715 3.76452 18.5141C3.81363 18.4568 3.86273 18.3994 3.91187 18.3612C3.9708 18.3133 4.02975 18.2847 4.08869 18.2559L4.17711 18.4663C4.1378 18.4759 4.09851 18.5046 4.0494 18.5333C4.01009 18.5619 3.96098 18.6002 3.9217 18.6384C3.8824 18.6863 3.85291 18.7341 3.81362 18.7819C3.78416 18.8393 3.76452 18.8967 3.74487 18.9637C3.71538 19.0976 3.70555 19.2315 3.73504 19.3462C3.76452 19.4705 3.8038 19.5757 3.87258 19.6714C3.94134 19.767 4.02975 19.8435 4.12798 19.9104C4.23605 19.9774 4.34411 20.0253 4.47181 20.0538C4.59953 20.0825 4.72724 20.0921 4.84511 20.0731C4.97282 20.0538 5.08089 20.0253 5.18895 19.9679C5.29701 19.9104 5.38542 19.834 5.46401 19.7384C5.5426 19.6428 5.59172 19.5279 5.63101 19.3939C5.66048 19.2696 5.66048 19.1549 5.64084 19.0306C5.61136 18.9064 5.55241 18.8009 5.46401 18.7053L5.61136 18.5811Z" fill="white"/>
<path d="M3.95312 17.7123L4.15942 17.1288C4.19871 17.0236 4.23801 16.9375 4.29695 16.8515C4.34606 16.7749 4.40502 16.708 4.47377 16.6698C4.54255 16.6219 4.62112 16.5933 4.69973 16.5837C4.7783 16.5741 4.86673 16.5837 4.96496 16.6124C5.06319 16.6411 5.14179 16.6889 5.20072 16.7462C5.25968 16.8037 5.29897 16.8706 5.32843 16.9471C5.35792 17.0236 5.36774 17.1098 5.35792 17.2053C5.34807 17.301 5.32843 17.3966 5.28915 17.5018L5.16143 17.8653L6.14381 18.1904L6.07505 18.4008L3.95312 17.7123ZM4.9748 17.8175L5.1025 17.4635C5.16143 17.301 5.17125 17.1671 5.13197 17.0524C5.09267 16.9471 5.01408 16.8706 4.88637 16.8323C4.75866 16.7845 4.64077 16.8037 4.55237 16.8706C4.46395 16.9375 4.38537 17.0524 4.33624 17.2149L4.20852 17.5688L4.9748 17.8175Z" fill="white"/>
<path d="M6.54551 17.0323L6.44726 17.2522L4.79688 15.5212L4.88527 15.3203L7.31174 15.3394L7.2135 15.5594L6.57496 15.5498L6.11325 16.5732L6.54551 17.0323ZM5.95607 16.4298L6.34902 15.5594L5.07191 15.5307L5.95607 16.4298Z" fill="white"/>
<path d="M6.79917 12.6147C6.72059 12.6242 6.64201 12.6434 6.56337 12.6816C6.4848 12.7198 6.42587 12.7869 6.3669 12.873C6.33744 12.9208 6.31783 12.9686 6.29818 13.026C6.27852 13.0833 6.27852 13.1407 6.27852 13.1885C6.28831 13.2459 6.29818 13.2937 6.32763 13.3511C6.3571 13.399 6.40621 13.4468 6.46519 13.485C6.52411 13.5233 6.58303 13.5424 6.63215 13.5424C6.68127 13.5424 6.74024 13.5329 6.78937 13.5137C6.83848 13.4946 6.8876 13.4659 6.93673 13.4277C6.98578 13.3894 7.03496 13.3511 7.08408 13.3128C7.14299 13.265 7.21178 13.2077 7.28055 13.1598C7.34927 13.112 7.41805 13.0738 7.48683 13.0451C7.55561 13.0164 7.63419 13.0068 7.72262 13.0068C7.8012 13.0068 7.88957 13.0451 7.98781 13.1024C8.08606 13.1598 8.15483 13.2267 8.20395 13.3032C8.25307 13.3798 8.28253 13.4564 8.28253 13.5424C8.29239 13.6285 8.28253 13.705 8.26287 13.7911C8.24327 13.8771 8.20395 13.9536 8.15483 14.0302C8.11551 14.0876 8.07626 14.1354 8.02713 14.1832C7.97802 14.231 7.9289 14.2788 7.86998 14.3076C7.811 14.3458 7.75208 14.3744 7.6931 14.3936C7.63419 14.4127 7.5654 14.4319 7.49663 14.4319L7.47703 14.1928C7.5654 14.1928 7.66365 14.1737 7.75208 14.1258C7.84046 14.078 7.91909 14.011 7.97802 13.9154C8.00747 13.8675 8.02713 13.8197 8.04679 13.7624C8.0664 13.705 8.0664 13.6476 8.05659 13.5903C8.04679 13.5329 8.03693 13.4755 7.99768 13.4277C7.96816 13.3798 7.91909 13.332 7.86012 13.2937C7.79134 13.2555 7.73242 13.2363 7.67344 13.2363C7.61452 13.2363 7.55561 13.2459 7.49663 13.2746C7.43771 13.3032 7.38859 13.332 7.32967 13.3702C7.28055 13.4086 7.22158 13.4564 7.16265 13.5042C7.10368 13.552 7.04475 13.5998 6.98578 13.6476C6.92686 13.6954 6.85814 13.7241 6.78937 13.7432C6.72058 13.7624 6.64201 13.7719 6.57323 13.7719C6.49466 13.7624 6.41601 13.7337 6.32763 13.6858C6.2392 13.6285 6.17048 13.5615 6.12132 13.4946C6.08204 13.4181 6.05258 13.3415 6.04275 13.2555C6.03292 13.1694 6.04274 13.0929 6.07222 13.0068C6.09186 12.9303 6.13115 12.8538 6.17048 12.7869C6.24906 12.6625 6.33744 12.5669 6.44553 12.5095C6.54377 12.4521 6.64201 12.4138 6.73038 12.4043L6.79917 12.6147Z" fill="white"/>
<path d="M8.89448 11.5807C8.90427 11.5902 8.91414 11.5998 8.93379 11.6093C8.94359 11.6189 8.96325 11.6285 8.97305 11.6475L8.24613 12.604C8.30505 12.6423 8.37383 12.6709 8.44261 12.6901C8.51132 12.7092 8.58011 12.7092 8.64888 12.6996C8.71766 12.6901 8.77658 12.6709 8.84536 12.6327C8.90427 12.5945 8.96325 12.5562 9.00257 12.4893C9.07129 12.4031 9.10075 12.317 9.11061 12.2214C9.12041 12.1258 9.11061 12.0493 9.08115 11.9728L9.27757 11.925C9.31689 12.0589 9.31689 12.1832 9.29728 12.2883C9.27757 12.3936 9.22851 12.4988 9.14993 12.5945C9.08115 12.6805 9.01238 12.7474 8.92393 12.7952C8.83555 12.8431 8.74712 12.8813 8.64888 12.8909C8.55065 12.9005 8.45241 12.9005 8.35417 12.8718C8.25593 12.8431 8.1577 12.8048 8.06932 12.7379C7.98088 12.6709 7.9121 12.5945 7.85319 12.518C7.80406 12.4319 7.76474 12.3458 7.74508 12.2501C7.72542 12.1545 7.73529 12.0684 7.75494 11.9728C7.7746 11.8772 7.82367 11.7911 7.88264 11.7145C7.95142 11.6285 8.03 11.5519 8.10857 11.5137C8.19701 11.4659 8.2756 11.4372 8.36397 11.4372C8.45241 11.4276 8.54084 11.4372 8.62922 11.4659C8.72746 11.485 8.80603 11.5232 8.89448 11.5807ZM8.7078 11.7145C8.58997 11.638 8.47207 11.6093 8.35417 11.6189C8.23627 11.6285 8.12824 11.6954 8.03 11.8198C7.99068 11.8772 7.96121 11.9345 7.94156 12.0015C7.92196 12.0684 7.92196 12.1258 7.93176 12.1927C7.94155 12.2597 7.96121 12.317 7.99068 12.3648C8.0202 12.4223 8.05945 12.4702 8.10857 12.5084L8.7078 11.7145Z" fill="white"/>
<path d="M8.7625 10.9497C8.71338 10.9114 8.66426 10.8732 8.625 10.8445L8.7527 10.701C8.78216 10.7201 8.82147 10.7489 8.86074 10.7776C8.90005 10.8062 8.92951 10.8349 8.94917 10.8541C8.90985 10.768 8.90006 10.6819 8.90985 10.5863C8.91971 10.4907 8.96883 10.4046 9.03755 10.328C9.05721 10.3089 9.07687 10.2897 9.08667 10.2707C9.10633 10.2515 9.11619 10.2419 9.13579 10.2324L9.27335 10.3854C9.26354 10.395 9.24388 10.4046 9.22423 10.4237C9.20457 10.4429 9.18497 10.462 9.16525 10.4811C9.12599 10.5194 9.09653 10.5672 9.08667 10.6245C9.06707 10.6723 9.06707 10.7298 9.07687 10.7871C9.08667 10.8445 9.10633 10.9019 9.14565 10.9688C9.18497 11.0358 9.24388 11.0932 9.3126 11.1602L9.88241 11.6383L9.74484 11.8009L8.8706 11.0741C8.85094 11.0166 8.81161 10.9879 8.7625 10.9497Z" fill="white"/>
<path d="M9.16747 9.42884C9.19699 9.45753 9.2166 9.4958 9.2166 9.53409C9.2166 9.5723 9.20679 9.61062 9.17733 9.63923C9.14787 9.66793 9.11842 9.67753 9.07909 9.68713C9.03977 9.68713 9.00052 9.67753 8.971 9.64883C8.94154 9.62012 8.92188 9.58191 8.92188 9.54362C8.92188 9.50535 8.93174 9.46713 8.9612 9.43844C8.99066 9.4097 9.02018 9.40017 9.05943 9.39062C9.09876 9.39062 9.13801 9.40017 9.16747 9.42884ZM10.6214 10.8156L10.474 10.9686L9.40327 9.98358L9.55063 9.83055L10.6214 10.8156Z" fill="white"/>
<path d="M11.4178 10.0518L11.2508 10.2144L9.79688 9.58313L9.97371 9.42053L11.1821 9.97524L10.6711 8.77019L10.8382 8.61719L11.4178 10.0518Z" fill="white"/>
<path d="M12.1159 8.01329C12.0569 7.99415 11.9784 7.99416 11.9096 8.00369C11.831 8.02283 11.7622 8.05151 11.7034 8.09933C11.6345 8.15675 11.5855 8.21411 11.556 8.28107C11.5265 8.34803 11.5068 8.41493 11.497 8.48189C11.497 8.54885 11.5068 8.62535 11.5265 8.69231C11.556 8.75927 11.5953 8.82623 11.6443 8.89313C11.6935 8.96009 11.7524 9.00791 11.8212 9.04619C11.8899 9.08441 11.9587 9.10355 12.0275 9.12269C12.0963 9.13229 12.1748 9.13229 12.2436 9.11309C12.3124 9.09401 12.3811 9.05573 12.4499 9.00791C12.5187 8.95055 12.5776 8.88359 12.5972 8.81663C12.6267 8.74967 12.6366 8.68277 12.6366 8.61581L12.8331 8.60627C12.8331 8.70185 12.8134 8.79749 12.774 8.89313C12.7348 8.98877 12.666 9.06533 12.5678 9.15137C12.4793 9.22787 12.3811 9.27575 12.2829 9.30443C12.1846 9.33311 12.0864 9.34265 11.9882 9.33311C11.89 9.32352 11.8016 9.29483 11.7132 9.24701C11.6247 9.19919 11.5461 9.13229 11.4774 9.04619C11.4086 8.96009 11.3595 8.87405 11.33 8.77841C11.3005 8.68277 11.2908 8.58713 11.3005 8.49149C11.3103 8.39585 11.3398 8.30975 11.389 8.21411C11.4381 8.12801 11.5068 8.04197 11.6051 7.96547C11.6837 7.90805 11.7721 7.86023 11.8801 7.83155C11.9882 7.80287 12.0864 7.79333 12.1945 7.82201L12.1159 8.01329Z" fill="white"/>
<path d="M13.823 7.24798C13.8328 7.25753 13.8427 7.27666 13.8525 7.2862C13.8623 7.29574 13.8722 7.31489 13.882 7.33402L12.88 8.0035C12.9193 8.06086 12.9782 8.10868 13.0372 8.14697C13.0961 8.18518 13.1551 8.20433 13.2238 8.22346C13.2925 8.23306 13.3614 8.23306 13.4301 8.22346C13.4989 8.21393 13.5677 8.18518 13.6266 8.13737C13.7149 8.08001 13.7838 8.0035 13.823 7.9174C13.8623 7.83137 13.8722 7.75481 13.8722 7.66876L14.0785 7.6783C14.0687 7.81222 14.0392 7.93654 13.9802 8.03218C13.9213 8.12782 13.8427 8.21393 13.7445 8.28082C13.6561 8.33825 13.5578 8.38606 13.4596 8.40521C13.3614 8.42428 13.2631 8.42428 13.1649 8.40521C13.0667 8.38606 12.9782 8.34778 12.8898 8.29996C12.8014 8.2426 12.7327 8.17564 12.6638 8.08961C12.6049 8.0035 12.5557 7.90786 12.5362 7.81222C12.5165 7.71658 12.5067 7.62094 12.5264 7.5253C12.546 7.42966 12.5754 7.34356 12.6246 7.26706C12.6737 7.19057 12.7425 7.11406 12.8309 7.05665C12.9291 6.98974 13.0175 6.95146 13.1157 6.93233C13.214 6.91318 13.3024 6.91318 13.3908 6.93233C13.4793 6.95146 13.5578 6.98974 13.6364 7.0471C13.7052 7.09492 13.774 7.16188 13.823 7.24798ZM13.6069 7.30534C13.5185 7.2001 13.4202 7.13321 13.3024 7.10452C13.1845 7.07578 13.0569 7.10452 12.9291 7.19057C12.8701 7.22884 12.821 7.27666 12.7916 7.33402C12.7523 7.39138 12.7327 7.44881 12.7228 7.50617C12.7129 7.56358 12.7129 7.63049 12.7228 7.6879C12.7327 7.74526 12.7523 7.80268 12.7916 7.86004L13.6069 7.30534Z" fill="white"/>
<path d="M16.7617 5.3461C16.8402 5.49912 16.8796 5.64258 16.8894 5.7956C16.8992 5.94864 16.8796 6.09211 16.8304 6.22597C16.7814 6.35989 16.7125 6.48421 16.6045 6.59899C16.5062 6.71377 16.3786 6.79981 16.2312 6.87631C16.0838 6.94327 15.9365 6.99109 15.7793 7.00069C15.6222 7.01023 15.4846 6.99109 15.3373 6.94327C15.1997 6.89545 15.072 6.82849 14.9541 6.72331C14.8362 6.62767 14.7478 6.50335 14.6692 6.35035C14.5907 6.19729 14.5513 6.05383 14.5415 5.90081C14.5317 5.74779 14.5513 5.60432 14.6005 5.47043C14.6496 5.33653 14.7183 5.2122 14.8264 5.09743C14.9246 4.98268 15.0524 4.8966 15.1997 4.82008C15.347 4.75314 15.4944 4.70533 15.6517 4.69575C15.8088 4.68618 15.9463 4.70533 16.0936 4.75314C16.2312 4.80095 16.3589 4.86791 16.4768 4.9731C16.5947 5.07831 16.6929 5.20264 16.7617 5.3461ZM16.5455 5.45131C16.4867 5.33653 16.4178 5.24089 16.3294 5.15482C16.241 5.06874 16.1428 5.00181 16.0249 4.96354C15.9169 4.91573 15.7989 4.8966 15.6712 4.90616C15.5436 4.90616 15.4158 4.94441 15.2881 5.00181C15.1604 5.05918 15.0524 5.14527 14.9737 5.23134C14.8952 5.32697 14.8362 5.43219 14.8068 5.53739C14.7773 5.65214 14.7675 5.76691 14.7773 5.88169C14.7872 6.00601 14.8264 6.12079 14.8854 6.23557C14.9443 6.35035 15.0131 6.44593 15.1015 6.53203C15.1899 6.61807 15.2881 6.67549 15.3962 6.72331C15.5043 6.76159 15.6222 6.79027 15.7499 6.78073C15.8775 6.78073 16.0052 6.74245 16.133 6.68503C16.2607 6.62767 16.3688 6.54157 16.4473 6.45553C16.5259 6.35989 16.5849 6.25471 16.6143 6.14947C16.6438 6.03469 16.6536 5.91993 16.6438 5.80519C16.6438 5.68085 16.6045 5.56608 16.5455 5.45131Z" fill="white"/>
<path d="M17.1469 5.02937C17.1272 4.972 17.0977 4.92419 17.0781 4.87636L17.2647 4.80942C17.2843 4.84767 17.304 4.88591 17.3237 4.92419C17.3434 4.972 17.3532 5.00069 17.3728 5.02937H17.3826C17.3924 4.93375 17.4219 4.84767 17.4808 4.77116C17.5398 4.69465 17.6184 4.63727 17.7166 4.599C17.7461 4.58944 17.7658 4.57987 17.7855 4.57987C17.805 4.57031 17.8246 4.57031 17.8541 4.57031L17.9032 4.7616C17.8935 4.7616 17.8738 4.7616 17.8443 4.77116C17.8148 4.78073 17.7855 4.7903 17.7559 4.79985C17.7068 4.81898 17.6577 4.84767 17.6184 4.88591C17.5791 4.92419 17.5496 4.972 17.53 5.01981C17.5103 5.07721 17.5005 5.13458 17.5005 5.2111C17.5005 5.28761 17.5201 5.36413 17.5595 5.45021L17.8246 6.13879L17.6282 6.21529L17.2058 5.16328C17.196 5.13458 17.1763 5.08677 17.1469 5.02937Z" fill="white"/>
<path d="M18.7333 6.10978C18.8119 6.1672 18.9101 6.20542 19.0182 6.22456C19.1262 6.2437 19.2441 6.2437 19.3522 6.20542C19.4503 6.17674 19.529 6.13846 19.5977 6.0907C19.6568 6.04282 19.7059 5.98546 19.7352 5.92807C19.7647 5.8707 19.7745 5.80376 19.7745 5.72723C19.7745 5.66029 19.7647 5.58378 19.7452 5.50726L19.6568 5.24905H19.6468C19.6174 5.35424 19.5585 5.44032 19.4799 5.51682C19.3915 5.59334 19.303 5.64115 19.1949 5.67943C19.0869 5.70811 18.9788 5.72723 18.8806 5.71767C18.7823 5.70811 18.694 5.67943 18.6055 5.64116C18.527 5.59334 18.4483 5.53596 18.3894 5.45944C18.3305 5.38293 18.2814 5.29687 18.2519 5.19165C18.2225 5.096 18.2126 5.00038 18.2225 4.90474C18.2323 4.80909 18.2617 4.72303 18.301 4.63695C18.3403 4.55087 18.4091 4.48393 18.4876 4.41697C18.5662 4.35003 18.6645 4.30221 18.7725 4.27351C18.8708 4.24482 18.9788 4.23526 19.0967 4.25438C19.2048 4.27351 19.303 4.32134 19.3915 4.38827H19.4012L19.3325 4.1492L19.5387 4.0918L19.9514 5.44988C19.971 5.5264 19.9908 5.6029 19.9908 5.69855C19.9908 5.78461 19.9809 5.88026 19.9416 5.96634C19.9023 6.05242 19.8434 6.13846 19.7647 6.20542C19.6763 6.28192 19.5585 6.33934 19.4012 6.38716C19.2736 6.42538 19.1361 6.43498 19.0083 6.42538C18.8708 6.4063 18.7529 6.36802 18.6449 6.31066L18.7333 6.10978ZM18.468 5.11516C18.4876 5.19165 18.527 5.24905 18.5662 5.30642C18.6055 5.3638 18.6645 5.41163 18.7235 5.44988C18.7823 5.48814 18.8512 5.50726 18.9297 5.51682C19.0083 5.5264 19.0869 5.51682 19.1655 5.4977C19.2441 5.47857 19.3128 5.44032 19.3718 5.39251C19.4308 5.34467 19.4799 5.29687 19.5094 5.22991C19.5387 5.16297 19.5683 5.10558 19.5683 5.02907C19.5782 4.95255 19.5683 4.87605 19.5387 4.79953C19.5192 4.72303 19.4799 4.66564 19.4308 4.60826C19.3817 4.55087 19.3325 4.50305 19.2638 4.47436C19.2048 4.43611 19.1361 4.41697 19.0575 4.40741C18.9788 4.39785 18.9101 4.40741 18.8315 4.42655C18.7431 4.45523 18.6743 4.48393 18.6154 4.53174C18.5564 4.57957 18.5172 4.63695 18.4876 4.69432C18.4582 4.75172 18.4386 4.81866 18.4386 4.89517C18.4386 4.97168 18.4483 5.0482 18.468 5.11516Z" fill="white"/>
<path d="M21.1058 4.27374C21.0762 4.14942 21.0271 4.0729 20.9484 4.02509C20.87 3.97725 20.7717 3.96769 20.644 3.99638C20.5555 4.01553 20.4769 4.04421 20.4081 4.09202C20.3393 4.13984 20.2903 4.18768 20.2411 4.24505L20.0938 4.13028C20.1429 4.06334 20.2117 3.99638 20.3002 3.93901C20.3885 3.88163 20.4967 3.84336 20.6242 3.81467C20.7029 3.79555 20.7815 3.79555 20.8502 3.80512C20.9191 3.81467 20.9878 3.8338 21.0466 3.86249C21.1058 3.89119 21.1549 3.93901 21.204 3.99638C21.2431 4.05378 21.2726 4.13028 21.2924 4.21636L21.42 4.82844C21.4298 4.88584 21.4496 4.93365 21.4593 4.99105C21.4788 5.04842 21.4888 5.09623 21.5085 5.13451L21.3218 5.17275C21.312 5.14407 21.2924 5.1058 21.2824 5.06755C21.2726 5.0293 21.2628 4.99105 21.253 4.95278H21.2431C21.194 5.05798 21.1352 5.14407 21.0664 5.20145C20.9878 5.25884 20.8993 5.29709 20.7816 5.32578C20.7226 5.33534 20.6636 5.3449 20.6047 5.33534C20.5457 5.33534 20.4869 5.31621 20.4278 5.29709C20.3689 5.2684 20.3197 5.23969 20.2805 5.19188C20.2411 5.14407 20.2117 5.07712 20.192 5.0006C20.1725 4.8954 20.1822 4.79975 20.2216 4.72326C20.2609 4.64673 20.3295 4.58936 20.4179 4.54153C20.5065 4.49371 20.6145 4.4459 20.7324 4.41719C20.8502 4.38851 20.978 4.35025 21.1058 4.33113V4.27374ZM21.086 4.49371C20.9976 4.51284 20.9091 4.53196 20.8306 4.55109C20.7422 4.5798 20.6636 4.60848 20.6047 4.63718C20.536 4.67542 20.4869 4.71369 20.4476 4.76151C20.4081 4.80932 20.3985 4.86671 20.4081 4.93365C20.4179 4.98148 20.4378 5.01974 20.4671 5.05798C20.4967 5.08667 20.526 5.1058 20.5653 5.12494C20.6047 5.14407 20.644 5.14407 20.6833 5.14407C20.7226 5.14407 20.7617 5.14407 20.8109 5.13451C20.8895 5.11538 20.9484 5.09623 20.9976 5.05798C21.0466 5.01974 21.0958 4.98148 21.1253 4.92409C21.1549 4.87628 21.1744 4.81888 21.1842 4.76151C21.194 4.70413 21.194 4.63718 21.1744 4.5798L21.1549 4.47458L21.086 4.49371Z" fill="white"/>
<path d="M21.9484 3.62366C21.9582 3.66192 21.9682 3.70016 21.9779 3.748C21.9877 3.79581 21.9877 3.83407 21.9975 3.86275H22.0073C22.0368 3.77669 22.0958 3.70016 22.1842 3.63322C22.2726 3.56627 22.3709 3.53758 22.469 3.51846C22.6557 3.49932 22.8031 3.53758 22.9013 3.63322C23.0093 3.72885 23.0684 3.86275 23.0879 4.04448L23.1959 4.91479L22.9799 4.94347L22.8817 4.15925C22.8719 4.08272 22.8619 4.01579 22.8423 3.9584C22.8228 3.90102 22.7933 3.85318 22.7637 3.80537C22.7245 3.76712 22.6852 3.73843 22.6262 3.71929C22.5771 3.70016 22.5084 3.70016 22.4297 3.70016C22.3709 3.70973 22.3217 3.71929 22.2726 3.748C22.2235 3.77669 22.1744 3.81493 22.1449 3.86275C22.1055 3.91058 22.086 3.97752 22.0664 4.04448C22.0466 4.12097 22.0466 4.1975 22.0564 4.29314L22.1449 5.02L21.9288 5.04869L21.7913 3.93926C21.7913 3.90102 21.7815 3.85318 21.7715 3.78625C21.7617 3.72885 21.752 3.67147 21.7422 3.62366H21.9484Z" fill="white"/>
<path d="M23.7868 2.90712C23.7868 2.94538 23.777 2.98365 23.7475 3.01233C23.7182 3.04103 23.6886 3.06015 23.6492 3.06015C23.6102 3.06015 23.5806 3.05059 23.5413 3.02189C23.5118 2.99321 23.4922 2.96452 23.4922 2.9167C23.4922 2.87844 23.502 2.84018 23.5315 2.81148C23.561 2.78279 23.5904 2.76367 23.6298 2.76367C23.6691 2.76367 23.6984 2.77323 23.7378 2.80192C23.7673 2.83063 23.7868 2.86888 23.7868 2.90712ZM23.8655 4.89644L23.6492 4.906L23.5708 3.47139L23.7868 3.46183L23.8655 4.89644Z" fill="white"/>
<path d="M25.3058 3.57685L24.4412 4.69583L25.3548 4.6767V4.85843L24.1562 4.87756V4.7341L25.0109 3.60554L24.176 3.61512V3.44296L25.296 3.42383L25.3058 3.57685Z" fill="white"/>
<path d="M26.6701 4.01558C26.6801 3.89124 26.6505 3.79561 26.5917 3.72865C26.5327 3.66172 26.4345 3.62345 26.3067 3.61388C26.2183 3.60432 26.1397 3.61388 26.0613 3.64259C25.9825 3.67127 25.9139 3.69997 25.8647 3.74778L25.7566 3.60432C25.8254 3.54694 25.9039 3.5087 26.0021 3.47042C26.1003 3.44174 26.2183 3.42261 26.3461 3.43217C26.4245 3.44174 26.5032 3.4513 26.5621 3.47999C26.631 3.5087 26.6899 3.54694 26.7389 3.58519C26.7881 3.63301 26.8274 3.69041 26.847 3.75734C26.8765 3.8243 26.8765 3.9008 26.8765 3.98688L26.8274 4.60855C26.8274 4.66593 26.8176 4.7233 26.8176 4.7807C26.8176 4.83808 26.8176 4.8859 26.8274 4.93372L26.6408 4.92415C26.6408 4.8859 26.631 4.84764 26.631 4.80938C26.631 4.77113 26.631 4.73286 26.631 4.68505H26.621C26.5425 4.7807 26.4639 4.83808 26.3754 4.87634C26.287 4.91459 26.1887 4.92415 26.0613 4.91459C26.0021 4.91459 25.9432 4.89546 25.8843 4.87634C25.8254 4.85719 25.7763 4.8285 25.7272 4.79026C25.678 4.75201 25.6388 4.70417 25.619 4.6468C25.5896 4.5894 25.5798 4.52247 25.5896 4.44594C25.5994 4.3312 25.629 4.25467 25.6977 4.18773C25.7566 4.13034 25.8352 4.08253 25.9432 4.0634C26.0414 4.0347 26.1497 4.02513 26.2773 4.02513C26.4049 4.02513 26.5327 4.02513 26.6701 4.0347V4.01558ZM26.5917 4.21643C26.5032 4.20686 26.4148 4.20686 26.3263 4.20686C26.2379 4.20686 26.1594 4.21643 26.0807 4.23555C26.0021 4.25467 25.9432 4.28336 25.894 4.31205C25.845 4.35032 25.8154 4.39814 25.8154 4.46509C25.8154 4.5129 25.8154 4.56071 25.8352 4.59899C25.8548 4.63723 25.8745 4.66593 25.9139 4.68505C25.9432 4.70417 25.9825 4.7233 26.0218 4.74244C26.0613 4.76157 26.1003 4.76157 26.1497 4.76157C26.2281 4.77113 26.2969 4.76157 26.3559 4.73286C26.4148 4.71374 26.4639 4.67548 26.5129 4.63723C26.5523 4.59899 26.5917 4.55115 26.6112 4.49378C26.6408 4.43638 26.6505 4.379 26.6505 4.31205L26.6603 4.20686L26.5917 4.21643Z" fill="white"/>
<path d="M28.1207 3.85348L27.7081 3.79608L27.5901 4.62814C27.5804 4.68554 27.5804 4.72379 27.5901 4.76204C27.6001 4.80032 27.6099 4.829 27.6197 4.84812C27.6393 4.86725 27.6591 4.88638 27.6885 4.89593C27.7179 4.9055 27.7475 4.91508 27.7768 4.91508C27.8064 4.91508 27.8359 4.91508 27.8751 4.91508C27.9045 4.91508 27.9439 4.9055 27.9735 4.89593L27.9537 5.07766C27.9143 5.08723 27.8751 5.09679 27.8359 5.09679C27.7966 5.09679 27.7475 5.09679 27.6983 5.08723C27.6591 5.07766 27.6197 5.0681 27.5804 5.05855C27.5411 5.03939 27.5019 5.02027 27.4625 4.98201C27.4331 4.95333 27.4037 4.9055 27.3839 4.85769C27.3643 4.80987 27.3643 4.74292 27.3741 4.66641L27.4919 3.77696L27.1875 3.73871L27.207 3.56656L27.5117 3.60482L27.5705 3.20312L27.7868 3.23181L27.7277 3.6335L28.1404 3.69089L28.1207 3.85348Z" fill="white"/>
<path d="M28.4408 5.1838L28.2344 5.14554L28.4899 3.73008L28.6961 3.76832L28.4408 5.1838ZM28.8337 3.24232C28.8239 3.28057 28.8041 3.31882 28.765 3.33795C28.7257 3.35707 28.6961 3.36664 28.6569 3.35707C28.6177 3.34752 28.5881 3.32838 28.5586 3.2997C28.5292 3.271 28.5193 3.23276 28.5292 3.18493C28.539 3.14667 28.5586 3.10843 28.5979 3.08928C28.6373 3.07016 28.6668 3.06059 28.7059 3.07016C28.7453 3.07972 28.7749 3.09887 28.8041 3.12755C28.8337 3.15624 28.8435 3.19449 28.8337 3.24232Z" fill="white"/>
<path d="M30.492 4.90608C30.4628 5.01128 30.4234 5.10692 30.3645 5.18343C30.3054 5.25994 30.2367 5.3269 30.1483 5.37471C30.0598 5.42252 29.9714 5.45123 29.8633 5.47036C29.7554 5.48948 29.6571 5.47991 29.5391 5.45123C29.4311 5.42252 29.3329 5.38427 29.2445 5.3269C29.156 5.2695 29.0972 5.19301 29.0383 5.11648C28.9892 5.03042 28.9498 4.94434 28.94 4.84869C28.9202 4.75307 28.93 4.64785 28.9596 4.54265C28.9892 4.43744 29.0283 4.34181 29.0874 4.26529C29.1462 4.18878 29.215 4.12184 29.3034 4.07402C29.3919 4.02618 29.4803 3.9975 29.5883 3.97837C29.6865 3.96881 29.7947 3.96881 29.9125 3.9975C30.0205 4.02618 30.1187 4.06446 30.2071 4.12184C30.2956 4.17922 30.3545 4.25573 30.4136 4.33225C30.4628 4.41831 30.5018 4.5044 30.5118 4.60002C30.5314 4.69567 30.5216 4.80087 30.492 4.90608ZM30.276 4.84869C30.2956 4.77219 30.3054 4.69567 30.2956 4.61917C30.2858 4.54265 30.2661 4.4757 30.2367 4.41831C30.2071 4.36093 30.1581 4.30355 30.0992 4.25573C30.0403 4.20792 29.9714 4.17922 29.883 4.16008C29.7947 4.14096 29.716 4.14096 29.6471 4.15052C29.5687 4.16008 29.5098 4.18878 29.4507 4.22704C29.3919 4.26529 29.3427 4.31311 29.2936 4.38006C29.2543 4.447 29.215 4.51396 29.2052 4.59046C29.1856 4.66698 29.1757 4.7435 29.1856 4.82C29.1954 4.89653 29.215 4.96346 29.2445 5.02086C29.274 5.07823 29.3231 5.13561 29.3821 5.18343C29.4409 5.23125 29.5098 5.25994 29.5981 5.27907C29.6865 5.2982 29.7651 5.2982 29.8339 5.28863C29.9125 5.27907 29.9714 5.25037 30.0305 5.21212C30.0893 5.17387 30.1385 5.12605 30.1876 5.0591C30.2269 5.00171 30.2563 4.92521 30.276 4.84869Z" fill="white"/>
<path d="M31.3223 4.40875C31.3125 4.44699 31.3026 4.48525 31.2928 4.53306C31.283 4.58089 31.2635 4.61914 31.2535 4.64784H31.2635C31.3321 4.58089 31.4205 4.54265 31.5285 4.52351C31.6365 4.50437 31.7347 4.51394 31.8332 4.54265C32.0099 4.60002 32.1279 4.69567 32.177 4.82956C32.2261 4.96346 32.2261 5.10692 32.1672 5.27906L31.8723 6.11112L31.6661 6.04417L31.9315 5.29819C31.9608 5.23126 31.9706 5.1643 31.9806 5.09736C31.9903 5.03996 31.9903 4.98258 31.9706 4.92519C31.9608 4.87738 31.9315 4.82956 31.8921 4.7913C31.8528 4.75304 31.7939 4.72436 31.725 4.69567C31.6759 4.67654 31.6171 4.66696 31.5581 4.67654C31.4993 4.67654 31.4401 4.69567 31.391 4.72436C31.3321 4.75304 31.283 4.80085 31.2339 4.85825C31.1848 4.91563 31.1454 4.99215 31.1159 5.07821L30.8704 5.77639L30.6641 5.70944L31.0374 4.64784C31.0473 4.60959 31.0668 4.56177 31.0866 4.50437C31.1061 4.44699 31.1159 4.3896 31.1357 4.3418L31.3223 4.40875Z" fill="white"/>
<path d="M34.88 7.09603C34.8208 7.12471 34.7522 7.15339 34.6835 7.17253C34.6146 7.19167 34.5359 7.20121 34.4575 7.20121C34.3789 7.20121 34.2904 7.19167 34.2119 7.17253C34.1235 7.15339 34.0351 7.12471 33.9467 7.07688C33.7993 7.00039 33.6715 6.90475 33.5732 6.78997C33.475 6.67519 33.3964 6.55087 33.3572 6.41701C33.3082 6.28309 33.2982 6.13963 33.3082 5.98661C33.318 5.83359 33.367 5.69013 33.4456 5.53711C33.5242 5.39365 33.6224 5.26932 33.7404 5.17368C33.8582 5.07802 33.9859 5.00153 34.1235 4.96327C34.2611 4.91544 34.4083 4.90587 34.5655 4.91544C34.7226 4.92501 34.87 4.97284 35.0175 5.03977C35.0862 5.07802 35.1548 5.1163 35.2238 5.1641C35.2826 5.21192 35.3415 5.26932 35.3906 5.3267C35.44 5.38409 35.479 5.44146 35.5086 5.5084C35.5382 5.57536 35.5576 5.63274 35.5674 5.69969L35.3317 5.73794C35.3317 5.69969 35.3122 5.65188 35.3024 5.60404C35.2826 5.55623 35.2532 5.5084 35.2238 5.46058C35.1942 5.41277 35.145 5.36495 35.1057 5.3267C35.0566 5.28844 35.0075 5.25019 34.9388 5.21192C34.8111 5.14498 34.6835 5.1163 34.5557 5.10673C34.4279 5.09717 34.3101 5.1163 34.2019 5.1641C34.0939 5.20236 33.9859 5.26932 33.8975 5.35538C33.8091 5.44146 33.7304 5.53711 33.6715 5.65188C33.6126 5.76663 33.5732 5.8814 33.5634 6.00571C33.544 6.13009 33.5537 6.24481 33.583 6.35959C33.6126 6.47437 33.6715 6.57955 33.7502 6.67519C33.8288 6.77083 33.927 6.84733 34.0546 6.91429C34.1727 6.97171 34.2904 7.00039 34.4181 7.00993C34.5459 7.01953 34.6735 6.98125 34.7915 6.92389L34.88 7.09603Z" fill="white"/>
<path d="M36.5876 7.7454C36.5286 7.84104 36.4501 7.908 36.3715 7.96536C36.283 8.02278 36.1946 8.061 36.1063 8.08014C36.0079 8.09928 35.9097 8.09928 35.8115 8.08014C35.7133 8.061 35.6052 8.02278 35.5168 7.95582C35.4186 7.89846 35.3399 7.8219 35.2811 7.7454C35.2221 7.65936 35.1828 7.57326 35.1632 7.47762C35.1435 7.38198 35.1435 7.28634 35.1632 7.1907C35.1828 7.09506 35.2221 6.99942 35.2811 6.90378C35.3399 6.81768 35.4088 6.74118 35.4973 6.68382C35.5857 6.62646 35.6739 6.58818 35.7623 6.56904C35.8606 6.5499 35.9588 6.5499 36.0572 6.56904C36.1555 6.58818 36.2537 6.62646 36.352 6.68382C36.4501 6.74118 36.5286 6.81768 36.5876 6.90378C36.6466 6.98988 36.6859 7.07592 36.7055 7.17156C36.7252 7.2672 36.7252 7.36284 36.7055 7.45848C36.6859 7.55412 36.6466 7.64976 36.5876 7.7454ZM36.401 7.62108C36.4501 7.55412 36.4795 7.48716 36.4894 7.41066C36.509 7.33416 36.509 7.2672 36.4992 7.20024C36.4894 7.13334 36.4599 7.06638 36.4206 6.99942C36.3812 6.93246 36.3223 6.88464 36.2537 6.83682C36.1848 6.789 36.1063 6.76032 36.0375 6.75072C35.9588 6.74118 35.8901 6.74118 35.8215 6.76032C35.7525 6.77946 35.6839 6.80814 35.6249 6.85596C35.5659 6.90378 35.5071 6.96114 35.4677 7.0281C35.4186 7.09506 35.389 7.16202 35.3793 7.23852C35.3597 7.31502 35.3597 7.38198 35.3695 7.44894C35.3793 7.5159 35.4088 7.5828 35.4481 7.64022C35.4875 7.69758 35.5463 7.755 35.615 7.80276C35.6839 7.85058 35.7623 7.87932 35.8313 7.88886C35.9097 7.89846 35.9786 7.89846 36.0473 7.87932C36.1161 7.86018 36.1848 7.8315 36.2437 7.78368C36.3028 7.7454 36.352 7.68804 36.401 7.62108Z" fill="white"/>
<path d="M37.5316 7.53643C37.5118 7.5651 37.4825 7.60339 37.4529 7.64166C37.4233 7.67989 37.4038 7.70857 37.3843 7.73731H37.394C37.4825 7.69902 37.5807 7.67989 37.6887 7.69902C37.7967 7.71817 37.8949 7.75645 37.9736 7.81381C38.1209 7.92859 38.1996 8.05291 38.1996 8.19637C38.2094 8.33982 38.1504 8.47369 38.0422 8.61715L37.4825 9.30577L37.3154 9.18145L37.8164 8.55979C37.8656 8.50243 37.9047 8.44501 37.9342 8.38765C37.9638 8.33023 37.9834 8.27286 37.9834 8.22505C37.9834 8.16769 37.9736 8.11987 37.954 8.07205C37.9245 8.02422 37.8852 7.97641 37.8262 7.92859C37.7771 7.8903 37.728 7.87117 37.6789 7.85203C37.6198 7.83294 37.5609 7.83294 37.502 7.84249C37.4431 7.85203 37.3743 7.88077 37.3154 7.91899C37.2467 7.95726 37.1876 8.01462 37.1287 8.09113L36.6669 8.67457L36.5 8.55019L37.2073 7.67035C37.2269 7.64166 37.2663 7.60339 37.2957 7.54603C37.3349 7.49821 37.3645 7.45038 37.394 7.41211L37.5316 7.53643Z" fill="white"/>
<path d="M39.1828 9.11311L38.8784 8.84532L38.3086 9.46693C38.2693 9.50521 38.2498 9.54348 38.23 9.57217C38.2104 9.60088 38.2104 9.63909 38.2104 9.65829C38.2104 9.687 38.2202 9.7156 38.24 9.7348C38.2595 9.75381 38.2791 9.78261 38.2989 9.80172C38.3184 9.82082 38.3479 9.83992 38.3774 9.84952C38.4069 9.86863 38.4364 9.87823 38.4658 9.88773L38.3479 10.0313C38.3087 10.0217 38.2693 10.0025 38.24 9.97384C38.2007 9.95474 38.1711 9.92603 38.1317 9.89733C38.1024 9.86863 38.0729 9.83992 38.0533 9.80172C38.0238 9.76341 38.014 9.7252 38.0041 9.67739C37.9942 9.62949 38.0041 9.58171 38.014 9.53388C38.0335 9.48607 38.0631 9.42871 38.1219 9.37135L38.7311 8.70187L38.5051 8.50099L38.623 8.36713L38.8488 8.56795L39.124 8.27148L39.2811 8.41495L39.0062 8.7114L39.3107 8.97919L39.1828 9.11311Z" fill="white"/>
<path d="M39.4469 9.34307C39.4861 9.29524 39.5255 9.25703 39.5648 9.21875L39.7023 9.3622C39.6728 9.39089 39.6533 9.42916 39.6139 9.45785C39.5843 9.49612 39.5548 9.52481 39.5353 9.54388C39.6237 9.51521 39.7219 9.50566 39.8201 9.52481C39.9183 9.54388 40.0068 9.59177 40.0755 9.66829C40.0952 9.68739 40.1148 9.70659 40.1245 9.7256C40.1345 9.7448 40.1542 9.7639 40.164 9.78301L39.9969 9.90733C39.9872 9.89773 39.9773 9.87872 39.9577 9.85952C39.9381 9.84042 39.9183 9.81171 39.8988 9.79261C39.8595 9.7543 39.8104 9.7256 39.7613 9.70659C39.7121 9.68739 39.6533 9.67779 39.5941 9.67779C39.5353 9.67779 39.4763 9.69699 39.4075 9.7352C39.3388 9.7639 39.2699 9.82131 39.2012 9.88822L38.6708 10.4047L38.5234 10.2613L39.329 9.46739C39.3683 9.42916 39.3977 9.39089 39.4469 9.34307Z" fill="white"/>
<path d="M40.7643 11.5522C40.6759 11.6192 40.5874 11.6765 40.4892 11.7052C40.391 11.7339 40.2927 11.753 40.1945 11.7435C40.0961 11.7339 39.9978 11.7147 39.9096 11.667C39.8212 11.6192 39.7327 11.5522 39.6541 11.4661C39.5755 11.3801 39.5263 11.2939 39.4871 11.1983C39.4577 11.1027 39.4381 11.007 39.4479 10.9114C39.4577 10.8158 39.4772 10.7202 39.5263 10.634C39.5755 10.5479 39.6345 10.4619 39.7229 10.395C39.8112 10.328 39.8996 10.2706 39.9978 10.2419C40.0961 10.2133 40.1945 10.1941 40.2927 10.2037C40.391 10.2133 40.4892 10.2324 40.5776 10.2802C40.666 10.328 40.7543 10.395 40.8232 10.4715C40.9016 10.5575 40.9509 10.6436 40.99 10.7393C41.0196 10.8349 41.0392 10.9305 41.0294 11.0262C41.0196 11.1218 41 11.2174 40.9509 11.3034C40.9214 11.3992 40.8524 11.4853 40.7643 11.5522ZM40.6168 11.3896C40.6759 11.3418 40.7249 11.2748 40.7643 11.2174C40.8034 11.1505 40.8232 11.0835 40.8329 11.0166C40.8427 10.9497 40.8329 10.8731 40.8134 10.8062C40.7936 10.7393 40.7543 10.6722 40.6954 10.6053C40.6364 10.5384 40.5776 10.5001 40.5087 10.4619C40.44 10.4332 40.3712 10.414 40.3025 10.414C40.2336 10.414 40.1552 10.4236 40.0863 10.4523C40.0176 10.481 39.9488 10.5193 39.8898 10.5671C39.831 10.6149 39.7818 10.6818 39.7425 10.7393C39.7031 10.8062 39.6836 10.8731 39.6738 10.9401C39.6639 11.007 39.6738 11.0835 39.6934 11.1505C39.7129 11.2174 39.7523 11.2844 39.8112 11.3514C39.8703 11.4183 39.9291 11.4661 39.9978 11.4948C40.0667 11.5235 40.1354 11.5426 40.2042 11.5426C40.273 11.5426 40.3516 11.5331 40.4202 11.5044C40.4892 11.4757 40.5578 11.4374 40.6168 11.3896Z" fill="white"/>
<path d="M40.5575 12.4903L40.4297 12.3278L42.3159 10.9219L42.4437 11.0845L40.5575 12.4903Z" fill="white"/>
<path d="M41.4383 13.7143L41.3203 13.5231L43.2263 12.3945L43.5701 12.9397C43.6289 13.0257 43.6683 13.1214 43.6978 13.2075C43.7271 13.2936 43.7369 13.3797 43.7369 13.4561C43.7369 13.5327 43.7076 13.6092 43.6585 13.6857C43.6093 13.7526 43.5405 13.8197 43.452 13.877C43.3834 13.9152 43.3147 13.944 43.236 13.9535C43.1672 13.9631 43.0887 13.9631 43.0198 13.944C42.9512 13.9248 42.8822 13.8962 42.8234 13.8579C42.7644 13.8197 42.7056 13.7622 42.6564 13.6952L42.0867 14.776L41.9394 14.5465L42.5092 13.504L42.3125 13.1884L41.4383 13.7143ZM42.4992 13.0927L42.7056 13.4179C42.8038 13.5709 42.902 13.6665 43.01 13.7143C43.118 13.7622 43.2263 13.7526 43.3441 13.6857C43.4029 13.6475 43.452 13.6092 43.4816 13.5614C43.5111 13.5136 43.5209 13.4657 43.5307 13.4083C43.5307 13.351 43.5209 13.2936 43.5011 13.2267C43.4816 13.1597 43.4423 13.0927 43.4029 13.0257L43.1967 12.6911L42.4992 13.0927Z" fill="white"/>
<path d="M43.5091 15.8272C43.4993 15.8367 43.4795 15.8367 43.4697 15.8463C43.4501 15.8558 43.4402 15.8558 43.4205 15.8654L42.8803 14.8038C42.8115 14.8421 42.7624 14.8804 42.7132 14.9282C42.6642 14.976 42.6346 15.0334 42.615 15.1003C42.5955 15.1672 42.5855 15.2246 42.5855 15.3011C42.5855 15.3681 42.6053 15.435 42.6446 15.502C42.6937 15.5976 42.7624 15.6741 42.841 15.722C42.9194 15.7697 43.0079 15.7985 43.0866 15.808L43.0473 15.9993C42.9097 15.9706 42.7919 15.9228 42.7034 15.8463C42.615 15.7793 42.5364 15.6837 42.4872 15.5786C42.4382 15.4829 42.4088 15.3871 42.4088 15.2916C42.399 15.196 42.4186 15.1003 42.4482 15.0142C42.4774 14.9282 42.5266 14.8421 42.5955 14.7655C42.6642 14.689 42.7429 14.6316 42.8508 14.5838C42.9491 14.536 43.0473 14.5073 43.1553 14.4977C43.2537 14.4882 43.3519 14.4977 43.4402 14.5265C43.5286 14.5552 43.6171 14.603 43.6859 14.6603C43.7643 14.7177 43.8235 14.8038 43.8726 14.8899C43.9217 14.9951 43.951 15.0907 43.951 15.1768C43.951 15.2724 43.9412 15.3585 43.9117 15.435C43.8824 15.5116 43.8332 15.5881 43.7643 15.655C43.6759 15.7315 43.5975 15.7793 43.5091 15.8272ZM43.4697 15.6072C43.5877 15.5403 43.6759 15.4541 43.7153 15.3394C43.7643 15.2246 43.7448 15.1003 43.6859 14.976C43.6564 14.9091 43.617 14.8613 43.5581 14.8229C43.509 14.7846 43.4502 14.7464 43.3911 14.7273C43.3321 14.7081 43.2635 14.6986 43.2043 14.6986C43.1455 14.6986 43.0768 14.7081 43.0179 14.7369L43.4697 15.6072Z" fill="white"/>
<path d="M42.3208 16.9368L42.2422 16.7454L44.3248 15.9707L44.4034 16.162L44.1678 16.248V16.2576C44.2757 16.2768 44.374 16.3246 44.4624 16.4011C44.5408 16.4776 44.6097 16.5637 44.6391 16.6593C44.6784 16.7645 44.6982 16.8697 44.6982 16.9654C44.6982 17.0611 44.6686 17.1567 44.6292 17.2427C44.59 17.3288 44.531 17.4053 44.4526 17.4722C44.374 17.5392 44.2855 17.5871 44.1872 17.6253C44.089 17.6636 43.981 17.6827 43.8828 17.6827C43.7844 17.6827 43.6861 17.6636 43.5979 17.6253C43.5095 17.5871 43.4309 17.5392 43.3621 17.4627C43.2933 17.3957 43.2344 17.3001 43.195 17.1949C43.1557 17.0993 43.1459 16.9941 43.1557 16.8888C43.1655 16.7836 43.2048 16.6785 43.2637 16.5924V16.5828L42.3208 16.9368ZM44.1086 17.4149C44.1872 17.3861 44.256 17.3479 44.315 17.3001C44.374 17.2523 44.423 17.1949 44.4526 17.1375C44.4819 17.0802 44.5017 17.0037 44.5115 16.9368C44.5115 16.8602 44.5017 16.7836 44.4722 16.7071C44.4426 16.6306 44.4032 16.5732 44.3444 16.5159C44.2953 16.4681 44.2266 16.4203 44.1578 16.4011C44.089 16.3724 44.0202 16.3629 43.9418 16.3629C43.863 16.3629 43.7844 16.3724 43.7059 16.4107C43.6273 16.4394 43.5585 16.4776 43.4995 16.535C43.4407 16.5828 43.4013 16.6402 43.372 16.7071C43.3423 16.7741 43.3229 16.841 43.3229 16.9176C43.3229 16.9941 43.3326 17.0611 43.3621 17.1375C43.3915 17.214 43.4407 17.281 43.4897 17.3383C43.5389 17.3861 43.6077 17.4244 43.6666 17.4531C43.7353 17.4818 43.8042 17.4914 43.8828 17.4818C43.9515 17.4531 44.0302 17.4436 44.1086 17.4149Z" fill="white"/>
<path d="M44.7127 19.4035C44.6044 19.4323 44.4965 19.4418 44.3982 19.4323C44.3 19.4228 44.2018 19.394 44.1232 19.3462C44.0346 19.2984 43.966 19.2315 43.8973 19.1549C43.8382 19.0784 43.7892 18.9827 43.7598 18.8681C43.7302 18.7629 43.7204 18.6576 43.7302 18.5619C43.74 18.4568 43.7696 18.3707 43.8186 18.2846C43.8678 18.1986 43.9267 18.1316 44.0152 18.0647C44.0938 18.0073 44.192 17.9594 44.3 17.9307C44.4081 17.902 44.5163 17.8924 44.6144 17.902C44.7127 17.9116 44.8109 17.9403 44.8893 17.9882C44.9778 18.036 45.0467 18.1029 45.1153 18.1794C45.1842 18.256 45.2233 18.3515 45.2529 18.4568C45.2825 18.5619 45.2922 18.6672 45.2825 18.7725C45.2727 18.8776 45.2431 18.9637 45.194 19.0497C45.1449 19.1358 45.086 19.2027 44.9976 19.2698C44.9189 19.3272 44.8207 19.375 44.7127 19.4035ZM44.6536 19.1932C44.7323 19.1739 44.8011 19.1358 44.8698 19.0976C44.9287 19.0497 44.9878 19.0019 45.0171 18.9445C45.0565 18.8871 45.0761 18.8203 45.0957 18.7437C45.1055 18.6672 45.1055 18.5906 45.0761 18.5141C45.0565 18.4376 45.0171 18.3611 44.968 18.3133C44.9189 18.256 44.8601 18.2177 44.8011 18.1794C44.7323 18.1507 44.6635 18.1316 44.5849 18.1221C44.5063 18.1125 44.4279 18.1221 44.3491 18.1412C44.2705 18.1603 44.2018 18.1986 44.1331 18.2368C44.074 18.2846 44.0152 18.3325 43.9856 18.3898C43.9464 18.4472 43.9267 18.5141 43.9072 18.5906C43.8973 18.6672 43.8973 18.7342 43.9267 18.8203C43.9464 18.8966 43.9856 18.9732 44.0346 19.0305C44.084 19.0881 44.1429 19.1358 44.2018 19.1644C44.2705 19.1932 44.3394 19.2123 44.4181 19.2218C44.4965 19.2218 44.5751 19.2123 44.6536 19.1932Z" fill="white"/>
<path d="M45.3454 19.6828C45.4043 19.6733 45.4632 19.6542 45.5124 19.6445L45.5516 19.836C45.5124 19.8456 45.4732 19.855 45.424 19.8741C45.3748 19.8838 45.3356 19.8933 45.3062 19.9028V19.9124C45.3946 19.9316 45.483 19.9794 45.5516 20.0558C45.6206 20.1228 45.6696 20.2089 45.6892 20.3141C45.699 20.3428 45.699 20.3619 45.699 20.3809C45.699 20.4002 45.699 20.4288 45.699 20.4481L45.4928 20.4576C45.4928 20.4481 45.4928 20.4193 45.4928 20.3906C45.4928 20.3619 45.483 20.3331 45.483 20.3046C45.4732 20.247 45.4534 20.1992 45.424 20.1514C45.3946 20.1036 45.3552 20.0655 45.2964 20.0368C45.2472 20.008 45.1784 19.9889 45.1096 19.9794C45.0408 19.9697 44.9526 19.9697 44.8541 19.9889L44.1175 20.1324L44.0781 19.9317L45.2079 19.7116C45.2374 19.7116 45.2866 19.702 45.3454 19.6828Z" fill="white"/>
<path d="M45.6637 21.5862L45.6047 21.1844L44.7501 21.2992C44.691 21.3088 44.6518 21.3184 44.6224 21.3279C44.5928 21.3469 44.5634 21.3566 44.5437 21.3852C44.5241 21.4044 44.5144 21.433 44.5144 21.4618C44.5144 21.4905 44.5144 21.5191 44.5144 21.5479C44.5144 21.5764 44.5241 21.6052 44.5437 21.634C44.5534 21.6625 44.5732 21.6913 44.5928 21.7199L44.4061 21.7581C44.3865 21.7199 44.367 21.6913 44.357 21.653C44.3472 21.6147 44.3374 21.5764 44.3277 21.5286C44.3179 21.4905 44.3179 21.4523 44.3277 21.4044C44.3277 21.3566 44.3472 21.3184 44.367 21.2801C44.3865 21.2418 44.426 21.2035 44.475 21.1748C44.5241 21.1461 44.583 21.1271 44.6616 21.1173L45.5753 20.9932L45.5359 20.6966L45.7127 20.668L45.7521 20.9644L46.1645 20.9071L46.1941 21.1173L45.7815 21.1748L45.8405 21.5764L45.6637 21.5862Z" fill="white"/>
<path d="M45.6032 22.7802C45.6622 22.7421 45.7112 22.6943 45.7406 22.6273C45.7702 22.5604 45.7899 22.4934 45.7799 22.4073C45.7799 22.369 45.7702 22.3309 45.7604 22.3021C45.7506 22.2638 45.7308 22.2352 45.7112 22.2064C45.6915 22.1777 45.6622 22.1587 45.6326 22.1396C45.6032 22.1203 45.5639 22.1203 45.5246 22.1203C45.4558 22.1299 45.4066 22.1587 45.3772 22.216C45.3478 22.2733 45.3184 22.3594 45.3084 22.4839C45.2888 22.656 45.2397 22.7802 45.1808 22.8663C45.1218 22.9524 45.0335 23.0002 44.9155 23.0098C44.8271 23.0195 44.7584 23.0098 44.6995 22.9811C44.6404 22.9524 44.5913 22.9141 44.552 22.8663C44.5128 22.8185 44.4833 22.7612 44.4637 22.7039C44.4439 22.6368 44.4341 22.5795 44.4244 22.5126C44.4146 22.4073 44.4341 22.3021 44.4637 22.197C44.5029 22.0916 44.5717 22.0057 44.6601 21.9292L44.7977 22.0821C44.7385 22.1203 44.6895 22.1777 44.6504 22.2542C44.6111 22.3309 44.5913 22.4073 44.6011 22.4934C44.6011 22.5412 44.6111 22.5795 44.6208 22.6178C44.6306 22.656 44.6504 22.6943 44.6699 22.7229C44.6895 22.7517 44.7191 22.7707 44.7584 22.7899C44.7977 22.809 44.8368 22.809 44.8859 22.809C44.9646 22.7995 45.0137 22.7612 45.053 22.6846C45.0826 22.6082 45.112 22.5029 45.1318 22.3595C45.1415 22.3116 45.1512 22.2733 45.161 22.216C45.1708 22.1682 45.1906 22.1203 45.2202 22.0821C45.2495 22.0438 45.279 22.0057 45.3282 21.977C45.3674 21.9482 45.4264 21.9292 45.495 21.9196C45.5737 21.9101 45.6326 21.9196 45.6915 21.9482C45.7506 21.977 45.7899 22.0057 45.8291 22.0535C45.8684 22.1013 45.8979 22.1491 45.9175 22.2064C45.9372 22.2638 45.9568 22.3309 45.9568 22.3978C45.9667 22.4934 45.947 22.5985 45.9077 22.6943C45.8684 22.7899 45.8094 22.8663 45.7308 22.9237L45.6032 22.7802Z" fill="white"/>
<path d="M16.1302 42.9982C16.1794 42.8833 16.1892 42.7877 16.1597 42.7016C16.1302 42.6157 16.0516 42.5487 15.9337 42.5009C15.8552 42.4626 15.7766 42.4435 15.6881 42.4435C15.6096 42.4435 15.531 42.453 15.4623 42.4722L15.4131 42.3C15.4916 42.2713 15.5899 42.2617 15.6979 42.2617C15.806 42.2713 15.9141 42.3 16.032 42.3478C16.1008 42.3764 16.1695 42.4242 16.2185 42.4722C16.2678 42.5201 16.3169 42.5775 16.3463 42.6347C16.3758 42.6921 16.3856 42.7592 16.3856 42.8355C16.3856 42.9025 16.366 42.9789 16.3267 43.065L16.0516 43.6294C16.032 43.6772 16.0025 43.7346 15.9829 43.792C15.9632 43.8493 15.9436 43.8971 15.9337 43.9354L15.7569 43.8591C15.7668 43.8208 15.7766 43.792 15.7961 43.7538C15.806 43.7154 15.8257 43.6772 15.8453 43.639H15.8355C15.7373 43.6963 15.6292 43.7251 15.5408 43.7346C15.4426 43.7346 15.3443 43.7154 15.2362 43.6675C15.1871 43.6485 15.1381 43.6102 15.0888 43.572C15.0398 43.5337 15.0005 43.4859 14.971 43.4381C14.9416 43.3902 14.9219 43.3329 14.9219 43.2661C14.9219 43.199 14.9317 43.1322 14.971 43.065C15.0202 42.9694 15.079 42.8931 15.1675 42.8643C15.2461 42.826 15.3345 42.8165 15.4426 42.826C15.5408 42.8355 15.6488 42.8643 15.7668 42.9121C15.8847 42.9599 16.0025 43.0077 16.1204 43.0555L16.1302 42.9982ZM15.9829 43.1704C15.9042 43.1321 15.8257 43.1034 15.7373 43.0747C15.6488 43.046 15.5703 43.0269 15.5014 43.0172C15.4229 43.0077 15.364 43.0077 15.2952 43.0269C15.2362 43.046 15.1871 43.0843 15.1577 43.1417C15.1381 43.1895 15.1282 43.2278 15.1282 43.2661C15.1282 43.3043 15.1479 43.3424 15.1675 43.3712C15.1871 43.4 15.2166 43.4381 15.2461 43.4573C15.2755 43.4859 15.3149 43.5051 15.3542 43.5241C15.4229 43.5529 15.4916 43.572 15.5506 43.572C15.6194 43.572 15.6784 43.5624 15.7275 43.5433C15.7864 43.5241 15.8355 43.4859 15.8749 43.4478C15.9141 43.4095 15.9534 43.3522 15.9829 43.2946L16.032 43.199L15.9829 43.1704Z" fill="white"/>
<path d="M16.6574 44.2223L16.4609 44.1459L17.011 42.8164L17.2075 42.8931L16.6574 44.2223ZM17.463 42.3957C17.4433 42.434 17.4138 42.4625 17.3745 42.4723C17.3352 42.4818 17.2959 42.4913 17.2665 42.4723C17.2271 42.4625 17.2075 42.434 17.1879 42.3957C17.1683 42.3574 17.1683 42.3191 17.1879 42.2808C17.2075 42.2427 17.237 42.2139 17.2763 42.2044C17.3156 42.1948 17.3549 42.1852 17.3844 42.2044C17.4236 42.2139 17.4433 42.2427 17.463 42.2808C17.4728 42.3191 17.4728 42.3574 17.463 42.3957Z" fill="white"/>
<path d="M18.588 43.7162C18.5683 43.6492 18.5389 43.5919 18.4898 43.5344C18.4407 43.4771 18.3718 43.4388 18.2933 43.4102C18.2147 43.3814 18.1362 43.3719 18.0575 43.3814C17.9789 43.391 17.9102 43.4102 17.8512 43.4388C17.7825 43.4771 17.7334 43.5153 17.6842 43.5824C17.6351 43.6397 17.5959 43.7066 17.5762 43.7832C17.5467 43.8598 17.5369 43.9361 17.5369 44.0127C17.5369 44.0891 17.5565 44.1561 17.586 44.223C17.6155 44.29 17.6547 44.3475 17.7138 44.3953C17.7727 44.443 17.8414 44.4814 17.92 44.5101C18.0085 44.5387 18.087 44.5482 18.1656 44.5387C18.2344 44.5291 18.3032 44.5004 18.362 44.4623L18.4799 44.6248C18.3915 44.6726 18.3032 44.7109 18.2049 44.7204C18.1067 44.7299 17.9888 44.7204 17.8709 44.6821C17.753 44.6438 17.6646 44.596 17.586 44.5291C17.5074 44.4623 17.4485 44.3858 17.3994 44.2996C17.36 44.2135 17.3306 44.1179 17.3306 44.0222C17.3208 43.9266 17.3404 43.8215 17.3797 43.7162C17.419 43.611 17.4682 43.5249 17.5369 43.4484C17.6057 43.3719 17.6744 43.3146 17.7628 43.2763C17.8512 43.238 17.9494 43.2093 18.0477 43.1997C18.1558 43.1902 18.2638 43.2093 18.3718 43.2475C18.4701 43.2763 18.5488 43.3336 18.6371 43.4007C18.7158 43.4675 18.7747 43.5536 18.8139 43.6492L18.588 43.7162Z" fill="white"/>
<path d="M18.8705 45.7145L18.6641 45.6666L19.1946 43.5625L19.4009 43.6103L19.3419 43.8493H19.3518C19.4304 43.773 19.5286 43.7252 19.6366 43.6964C19.7447 43.6773 19.8528 43.6773 19.9511 43.6964C20.059 43.7252 20.1573 43.7633 20.2458 43.8208C20.3242 43.8781 20.3931 43.9548 20.4423 44.0311C20.4913 44.1077 20.5209 44.2033 20.5307 44.2989C20.5405 44.3946 20.5405 44.4998 20.5109 44.6051C20.4815 44.7102 20.4423 44.7963 20.3833 44.8824C20.3242 44.9588 20.2555 45.0258 20.1769 45.0832C20.0985 45.131 20.01 45.1693 19.902 45.1789C19.8036 45.1979 19.6956 45.1884 19.5876 45.1598C19.4893 45.131 19.3911 45.0927 19.3027 45.0163C19.2142 44.9493 19.1553 44.8632 19.116 44.758H19.1061L18.8705 45.7145ZM20.2949 44.5573C20.3145 44.4807 20.3242 44.404 20.3145 44.3277C20.3047 44.2511 20.2851 44.1843 20.2555 44.1268C20.2261 44.0694 20.1769 44.0121 20.118 43.9643C20.059 43.9165 19.9902 43.8877 19.902 43.8686C19.8234 43.8493 19.7447 43.8493 19.6662 43.8589C19.5876 43.8686 19.5187 43.8973 19.4598 43.9355C19.4009 43.9738 19.3419 44.0216 19.3027 44.0885C19.2535 44.146 19.224 44.2224 19.2044 44.2989C19.1848 44.3755 19.175 44.4519 19.1946 44.5285C19.2142 44.6051 19.224 44.672 19.2634 44.7293C19.3027 44.7868 19.3518 44.8441 19.4108 44.8919C19.4696 44.9397 19.5384 44.9683 19.6171 44.9876C19.7054 45.0066 19.784 45.0163 19.8528 44.9971C19.9314 44.9876 19.9902 44.9588 20.0493 44.9205C20.1082 44.8824 20.1573 44.8346 20.1966 44.7676C20.2458 44.7007 20.2751 44.6337 20.2949 44.5573Z" fill="white"/>
<path d="M21.9771 44.625C21.9968 44.5006 21.9771 44.405 21.9181 44.3382C21.8593 44.2711 21.7709 44.2233 21.6431 44.2043C21.5546 44.1947 21.4761 44.1947 21.3975 44.2137C21.3189 44.233 21.2502 44.2616 21.1913 44.3094L21.0931 44.1565C21.1617 44.1086 21.2502 44.0704 21.3582 44.0513C21.4664 44.0321 21.5744 44.0225 21.7019 44.0417C21.7807 44.0513 21.8495 44.0704 21.9181 44.1086C21.9869 44.1374 22.0362 44.1852 22.0853 44.233C22.1344 44.2808 22.1638 44.3382 22.1835 44.4147C22.2031 44.4815 22.2031 44.5582 22.1933 44.6442L22.0951 45.2658C22.0853 45.3232 22.0754 45.3805 22.0754 45.4381C22.0655 45.4954 22.0655 45.5432 22.0754 45.591L21.8887 45.5622C21.8887 45.5241 21.8887 45.4859 21.8887 45.4476C21.8887 45.4093 21.8986 45.371 21.8986 45.3328H21.8887C21.8102 45.4189 21.7218 45.4763 21.6333 45.5049C21.5449 45.5337 21.4369 45.5432 21.3189 45.5241C21.26 45.5144 21.2109 45.4954 21.152 45.4763C21.0931 45.4476 21.044 45.4189 21.0046 45.3805C20.9653 45.3424 20.926 45.2849 20.9064 45.2275C20.8866 45.1702 20.8769 45.1031 20.8866 45.0172C20.9064 44.9119 20.9457 44.8258 21.0145 44.7685C21.0831 44.7112 21.1617 44.6729 21.2697 44.6633C21.368 44.6442 21.4859 44.6442 21.6037 44.6537C21.7315 44.6633 21.8593 44.6729 21.9869 44.7016L21.9771 44.625ZM21.8789 44.8258C21.7904 44.8163 21.7019 44.8068 21.6137 44.7973C21.5253 44.7877 21.4467 44.7973 21.368 44.8068C21.2895 44.8163 21.2307 44.8355 21.1815 44.8738C21.1322 44.9119 21.1029 44.9597 21.0831 45.0268C21.0733 45.0746 21.0831 45.1224 21.0931 45.1607C21.1029 45.199 21.1322 45.2275 21.1617 45.2562C21.1913 45.2849 21.2307 45.3041 21.2697 45.3137C21.3091 45.3328 21.3484 45.3424 21.3877 45.3424C21.4664 45.352 21.5351 45.352 21.5939 45.3328C21.6529 45.3137 21.7119 45.2849 21.7611 45.2562C21.8102 45.218 21.8495 45.1702 21.8789 45.1224C21.9083 45.0651 21.928 45.0075 21.9378 44.9502L21.9575 44.8451L21.8789 44.8258Z" fill="white"/>
<path d="M22.9297 45.5134C22.9297 45.5517 22.9101 45.59 22.8708 45.6282C22.8314 45.6569 22.7921 45.6761 22.743 45.6665C22.6938 45.6569 22.6548 45.6378 22.6252 45.609C22.5957 45.5709 22.5859 45.5326 22.5859 45.4943C22.5859 45.4561 22.6057 45.4178 22.6448 45.3795C22.6841 45.3414 22.7234 45.3317 22.7726 45.3414C22.8217 45.3414 22.861 45.37 22.8905 45.3987C22.9198 45.4273 22.9397 45.4656 22.9297 45.5134Z" fill="white"/>
<path d="M24.9255 45.0362C24.9255 45.1414 24.896 45.2465 24.8566 45.3325C24.8174 45.4186 24.7584 45.5048 24.6898 45.5622C24.6208 45.6292 24.5326 45.677 24.4342 45.7153C24.336 45.7534 24.2279 45.7631 24.1101 45.7631C23.9922 45.7631 23.8939 45.7344 23.7957 45.6961C23.6975 45.6578 23.6189 45.6005 23.5502 45.5336C23.4813 45.4665 23.4322 45.3804 23.393 45.2847C23.3537 45.1892 23.3438 45.0936 23.3438 44.9789C23.3438 44.8736 23.3733 44.7683 23.4127 44.6822C23.4519 44.5961 23.5109 44.5102 23.5795 44.4527C23.6485 44.3859 23.7369 44.3381 23.8351 44.2998C23.9333 44.2615 24.0413 44.252 24.1493 44.252C24.2673 44.252 24.3655 44.2808 24.4637 44.3189C24.562 44.3571 24.6406 44.4145 24.7093 44.4815C24.7782 44.5483 24.8272 44.6344 24.8666 44.73C24.9157 44.8257 24.9353 44.9214 24.9255 45.0362ZM24.6996 45.0267C24.6996 44.9501 24.6898 44.8736 24.6699 44.7971C24.6504 44.73 24.611 44.6632 24.562 44.6059C24.5128 44.5483 24.4539 44.5102 24.3851 44.472C24.3163 44.4432 24.2377 44.4241 24.1493 44.4145C24.0611 44.4145 23.9824 44.4241 23.9135 44.4527C23.8449 44.4815 23.7859 44.5198 23.7369 44.5676C23.6877 44.6154 23.6485 44.6822 23.6189 44.7493C23.5895 44.8161 23.5697 44.8928 23.5697 44.9692C23.5697 45.0457 23.5795 45.1223 23.5993 45.1987C23.6189 45.2657 23.6582 45.3326 23.7073 45.3901C23.7564 45.4474 23.8153 45.4857 23.8743 45.5144C23.9333 45.5431 24.0217 45.5622 24.1001 45.5622C24.1886 45.5622 24.2673 45.5526 24.336 45.5239C24.4048 45.4952 24.4637 45.4569 24.5128 45.4091C24.562 45.3614 24.6013 45.2945 24.6308 45.2275C24.6898 45.1796 24.6996 45.1031 24.6996 45.0267Z" fill="white"/>
<path d="M25.387 44.462C25.387 44.4045 25.3772 44.3471 25.3672 44.2992L25.5737 44.2897C25.5835 44.328 25.5835 44.3758 25.5835 44.4142C25.5835 44.462 25.5932 44.5001 25.5932 44.5289H25.603C25.6423 44.4428 25.7013 44.3758 25.7799 44.3185C25.8585 44.261 25.9567 44.2324 26.055 44.2324C26.0843 44.2324 26.1041 44.2324 26.1337 44.2324C26.1532 44.2324 26.1827 44.2324 26.2024 44.2419L26.1827 44.4428C26.1727 44.4428 26.1532 44.4332 26.1237 44.4332C26.0943 44.4332 26.0648 44.4332 26.0353 44.4332C25.9763 44.4332 25.9273 44.4428 25.8683 44.4715C25.8192 44.4906 25.7701 44.5289 25.7307 44.5767C25.6915 44.6244 25.6621 44.6818 25.6423 44.7489C25.6227 44.8157 25.6129 44.9018 25.6129 44.9974L25.6423 45.7339L25.4263 45.7434L25.387 44.6244C25.387 44.5767 25.387 44.5289 25.387 44.462Z" fill="white"/>
<path d="M26.7555 45.9548C26.8242 46.0216 26.9127 46.0791 27.0207 46.1172C27.1289 46.1555 27.2369 46.1748 27.3547 46.1555C27.4629 46.146 27.5413 46.1172 27.62 46.0791C27.6887 46.0409 27.7477 45.9931 27.7872 45.9355C27.8262 45.8782 27.8558 45.8208 27.8656 45.7442C27.8753 45.6773 27.8853 45.6008 27.8753 45.5244L27.846 45.2566H27.8362C27.7871 45.3523 27.7182 45.4288 27.62 45.4862C27.5217 45.5435 27.4236 45.5818 27.3155 45.5913C27.1975 45.6008 27.0993 45.6008 27.0011 45.5722C26.9029 45.5435 26.8144 45.5052 26.7457 45.4479C26.6768 45.3905 26.6082 45.3235 26.5689 45.2374C26.5198 45.1514 26.4902 45.0556 26.4804 44.9505C26.4706 44.8454 26.4804 44.7497 26.5 44.6541C26.5296 44.5584 26.5689 44.4818 26.6278 44.4053C26.6866 44.3289 26.7555 44.2714 26.844 44.2236C26.9325 44.1758 27.0307 44.1472 27.1485 44.1279C27.2565 44.1184 27.3647 44.1279 27.4727 44.1662C27.5807 44.2045 27.6691 44.2618 27.738 44.3479H27.7477L27.7182 44.0994L27.9344 44.0801L28.0916 45.4957C28.1013 45.5722 28.1013 45.6581 28.0916 45.7442C28.0818 45.8304 28.0522 45.9165 27.9934 46.0026C27.9442 46.0791 27.8656 46.1555 27.7673 46.2128C27.6691 46.2704 27.5413 46.3087 27.3745 46.3277C27.2369 46.3468 27.1091 46.3277 26.9815 46.2894C26.8537 46.2511 26.7358 46.1938 26.6376 46.1172L26.7555 45.9548ZM26.6768 44.9409C26.6866 45.0175 26.7065 45.0844 26.7358 45.1514C26.7653 45.2184 26.8144 45.2662 26.8635 45.314C26.9127 45.3618 26.9815 45.3905 27.0502 45.4191C27.1189 45.4383 27.1975 45.4479 27.286 45.4383C27.3647 45.4288 27.4431 45.4096 27.5022 45.3713C27.5709 45.333 27.62 45.2949 27.6691 45.2374C27.7182 45.18 27.7477 45.1226 27.7673 45.0461C27.7871 44.9793 27.7969 44.9026 27.7872 44.8166C27.7772 44.7402 27.7575 44.6732 27.7182 44.6063C27.6789 44.5392 27.6396 44.4914 27.5807 44.4436C27.5217 44.3957 27.4629 44.3672 27.3841 44.3384C27.3155 44.3194 27.2369 44.3097 27.1583 44.3192C27.0698 44.3289 26.9913 44.3479 26.9325 44.3862C26.8635 44.4245 26.8144 44.4723 26.7751 44.5296C26.7358 44.5871 26.7065 44.6446 26.6866 44.721C26.6768 44.788 26.6671 44.8644 26.6768 44.9409Z" fill="white"/>
<path d="M28.6786 45.4751L28.4922 45.4465L29.0029 43.0938L29.1895 43.1225L28.6786 45.4751Z" fill="white"/>
<path d="M30.3107 43.9556C30.2616 43.9077 30.2027 43.8694 30.1338 43.8502C30.0652 43.831 29.9865 43.831 29.9078 43.8502C29.8687 43.8598 29.8392 43.8695 29.7999 43.8885C29.7605 43.9077 29.7312 43.9268 29.7114 43.9458C29.6918 43.9746 29.672 44.0033 29.6623 44.0319C29.6526 44.0606 29.6526 44.0989 29.6623 44.1372C29.682 44.2041 29.7212 44.2424 29.7802 44.2709C29.8392 44.2902 29.9375 44.2997 30.0652 44.2997C30.2419 44.2902 30.3794 44.3092 30.4776 44.357C30.5759 44.4048 30.6349 44.4815 30.6643 44.5866C30.6841 44.6632 30.6841 44.7397 30.6643 44.7971C30.6447 44.8544 30.6151 44.9117 30.5759 44.9595C30.5367 45.0073 30.4776 45.0456 30.4187 45.0744C30.3599 45.1031 30.291 45.1318 30.2321 45.1413C30.124 45.1701 30.0161 45.1701 29.898 45.1511C29.7901 45.1318 29.682 45.0839 29.5936 45.0073L29.7312 44.8449C29.7802 44.9022 29.849 44.9405 29.9276 44.9595C30.0061 44.9883 30.0945 44.9883 30.183 44.9693C30.2321 44.9595 30.2714 44.9405 30.3107 44.931C30.3501 44.9117 30.3794 44.8927 30.4089 44.8639C30.4385 44.8354 30.4483 44.8066 30.4679 44.7683C30.4776 44.73 30.4776 44.6919 30.4679 44.6442C30.4483 44.5675 30.3991 44.5197 30.3205 44.5005C30.2419 44.4815 30.124 44.4719 29.9767 44.4719C29.9276 44.4719 29.8785 44.4719 29.8294 44.4719C29.7802 44.4719 29.7312 44.4526 29.682 44.4335C29.633 44.4145 29.5936 44.3858 29.5542 44.3475C29.515 44.3092 29.4854 44.2614 29.4756 44.1945C29.456 44.1275 29.456 44.0606 29.4756 44.0033C29.4954 43.9458 29.515 43.898 29.5542 43.8502C29.5936 43.8023 29.6428 43.7642 29.7016 43.7355C29.7606 43.7067 29.8194 43.6781 29.8883 43.6684C29.9865 43.6494 30.0945 43.6398 30.1927 43.6684C30.3009 43.6876 30.3794 43.7355 30.4483 43.8023L30.3107 43.9556Z" fill="white"/>
<path d="M32.4444 43.7059C32.4837 43.8112 32.4935 43.9069 32.4837 44.012C32.4737 44.1077 32.4542 44.2033 32.405 44.2894C32.3658 44.3755 32.2971 44.4519 32.2184 44.5189C32.1398 44.5858 32.0415 44.6336 31.9336 44.6719C31.8255 44.7102 31.7175 44.7197 31.6191 44.7197C31.5111 44.7102 31.4227 44.6911 31.3342 44.6433C31.2459 44.605 31.1673 44.538 31.0985 44.4711C31.0297 44.3945 30.9806 44.3084 30.9413 44.2033C30.902 44.0981 30.8922 44.0025 30.902 43.8972C30.912 43.8016 30.9315 43.7059 30.9806 43.6198C31.0199 43.5339 31.0887 43.4573 31.1673 43.3902C31.2459 43.3234 31.3441 43.2756 31.4522 43.2373C31.5601 43.1991 31.6682 43.1895 31.7764 43.1895C31.8844 43.1991 31.9728 43.2183 32.0613 43.2661C32.1498 43.3044 32.2282 43.3712 32.2971 43.4381C32.3658 43.5147 32.4148 43.6008 32.4444 43.7059ZM32.238 43.7729C32.2086 43.6963 32.1791 43.6295 32.13 43.572C32.0808 43.5147 32.0317 43.4669 31.9631 43.4286C31.9039 43.3902 31.8353 43.3712 31.7567 43.3617C31.6782 43.3522 31.5995 43.3617 31.5209 43.3902C31.4424 43.419 31.3735 43.4573 31.3147 43.5051C31.2557 43.5529 31.2165 43.6102 31.1869 43.6773C31.1575 43.7441 31.1377 43.8112 31.1377 43.8877C31.1377 43.9642 31.1477 44.0408 31.1771 44.1172C31.2066 44.1937 31.2359 44.2606 31.2851 44.3181C31.3342 44.3755 31.3833 44.4233 31.4522 44.4616C31.5111 44.4997 31.58 44.5189 31.6584 44.5285C31.7371 44.538 31.8058 44.5285 31.8942 44.4997C31.9728 44.4711 32.0415 44.4327 32.1006 44.3849C32.1596 44.3372 32.1988 44.2798 32.2282 44.2128C32.2577 44.1459 32.2675 44.0789 32.2773 44.0025C32.2675 43.9259 32.2577 43.8494 32.238 43.7729Z" fill="white"/>
<path d="M33.7344 42.7493C33.6755 42.711 33.6167 42.6917 33.538 42.6822C33.4593 42.6727 33.3809 42.6917 33.312 42.7205C33.2335 42.7493 33.1647 42.7971 33.1155 42.8544C33.0665 42.9118 33.0271 42.9692 32.9977 43.0362C32.978 43.1031 32.9682 43.1701 32.9682 43.2464C32.9682 43.323 32.9879 43.3996 33.0271 43.4761C33.0566 43.5526 33.1057 43.6195 33.1549 43.6673C33.2039 43.7248 33.2629 43.7629 33.3317 43.7917C33.4005 43.8204 33.4693 43.8395 33.5477 43.8395C33.6264 43.8395 33.7051 43.8204 33.7836 43.7917C33.872 43.7534 33.9409 43.7056 33.98 43.6482C34.0291 43.5909 34.0586 43.5336 34.0684 43.4664L34.2648 43.5143C34.2356 43.61 34.1962 43.696 34.1275 43.7726C34.0586 43.849 33.9702 43.916 33.8524 43.9638C33.7442 44.0117 33.6362 44.0307 33.5282 44.0402C33.4201 44.0402 33.3317 44.0307 33.2335 43.9924C33.1451 43.9543 33.0665 43.9065 32.9879 43.83C32.9191 43.7629 32.8602 43.677 32.8111 43.5717C32.7718 43.476 32.7422 43.3708 32.7422 43.2752C32.7422 43.1796 32.7522 43.084 32.7913 42.9979C32.8306 42.9118 32.8798 42.8257 32.9585 42.7588C33.0271 42.6822 33.1253 42.6249 33.2335 42.5866C33.3219 42.5483 33.4201 42.5293 33.538 42.5293C33.656 42.5293 33.7442 42.5578 33.8426 42.6056L33.7344 42.7493Z" fill="white"/>
</g>
<defs>
<clipPath id="clip0_14055_16758">
<rect width="49.92" height="48" fill="white"/>
</clipPath>
</defs>
</svg>
