<svg width="34" height="48" viewBox="0 0 34 48" fill="none" xmlns="http://www.w3.org/2000/svg">
<g clip-path="url(#clip0_14055_16823)">
<path d="M12.1052 47.9584H12.4898L11.6795 45.9947H11.2714L10.4609 47.9584H10.8339L11.0276 47.4654H11.9085L12.1052 47.9584ZM11.4681 46.3547L11.7852 47.158H11.151L11.4681 46.3547ZM14.0953 47.9584V47.6426H13.141V45.9947H12.7887V47.9584H14.0953ZM14.7641 47.9584V45.9947H14.406V47.9584H14.7641ZM17.1301 47.9584V46.9642H16.1112V47.2549H16.7983C16.7806 47.4239 16.6221 47.6953 16.2022 47.6953C15.844 47.6953 15.5152 47.4543 15.5152 46.9752C15.5152 46.4877 15.8675 46.2607 16.2051 46.2607C16.537 46.2607 16.7425 46.449 16.8129 46.6705L17.1448 46.5514C17.0332 46.2273 16.7102 45.9531 16.2051 45.9531C15.6649 45.9531 15.157 46.3299 15.157 46.9752C15.157 47.6233 15.6384 48 16.1817 48C16.5134 48 16.7277 47.8532 16.8188 47.7091L16.8452 47.9584H17.1301ZM19.3158 47.9584V45.9947H18.9634V47.3879L18.0179 45.9947H17.5687V47.9584H17.921V46.4711L18.9487 47.9584H19.3158ZM21.1256 47.9584V47.6482H20.1919V47.1275H21.0375V46.8256H20.1919V46.3049H21.1256V45.9947H19.8395V47.9584H21.1256ZM21.8952 47.6538V46.2994H22.2681C22.6292 46.2994 22.9258 46.521 22.9258 46.9807C22.9258 47.4349 22.6263 47.6538 22.2651 47.6538H21.8952ZM22.2768 47.9584C22.8407 47.9584 23.2928 47.6095 23.2928 46.9807C23.2928 46.3493 22.8465 45.9947 22.2798 45.9947H21.5428V47.9584H22.2768Z" fill="white"/>
<path d="M11.0551 42.9713V39.6124H7.6632V40.8H9.66455C9.57994 41.1545 9.11959 41.8281 8.02028 41.8281C6.93977 41.8281 6.01895 41.1457 6.01895 39.834C6.01895 38.4336 7.08067 37.8664 7.98265 37.8664C9.09134 37.8664 9.53298 38.5755 9.63637 38.9654L11.0645 38.4957C10.7733 37.6182 9.88995 36.5547 7.98265 36.5547C6.10351 36.5547 4.51562 37.8575 4.51562 39.834C4.51562 41.8193 6.03774 43.1043 7.88871 43.1043C8.83772 43.1043 9.46722 42.7321 9.75849 42.3332L9.85242 42.9713H11.0551ZM13.5173 41.6508V38.0082H14.3818C15.4059 38.0082 16.2421 38.5755 16.2421 39.834C16.2421 41.0924 15.4059 41.6508 14.3818 41.6508H13.5173ZM14.4381 42.9713C16.4489 42.9713 17.7924 41.7749 17.7924 39.834C17.7924 37.893 16.4489 36.6877 14.4476 36.6877H12.0329V42.9713H14.4381ZM20.145 39.506V37.9019H21.0094C21.5731 37.9019 21.9584 38.2031 21.9584 38.7084C21.9584 39.1958 21.5731 39.506 21.0094 39.506H20.145ZM21.1597 40.7113C22.5128 40.7113 23.4429 39.8871 23.4429 38.6994C23.4429 37.5296 22.5128 36.6877 21.1597 36.6877H18.651V42.9713H20.1356V40.7113H21.1597ZM27.3354 42.9713H28.9702L27.6173 40.4278C28.4347 40.153 28.9326 39.506 28.9326 38.6552C28.9326 37.5385 28.087 36.6877 26.7716 36.6877H24.1314V42.9713H25.6159V40.6315H26.1421L27.3354 42.9713ZM25.6159 39.4263V37.9019H26.4897C27.1005 37.9019 27.4293 38.1943 27.4293 38.664C27.4293 39.1071 27.1005 39.4263 26.4897 39.4263H25.6159Z" fill="white"/>
<path d="M16.7858 0L17.2993 1.53321H18.9617L17.617 2.48075L18.1305 4.01396L16.7858 3.06584L15.4409 4.01396L15.9547 2.48075L14.6094 1.53321H16.2718L16.7858 0Z" fill="white"/>
<path d="M16.7858 25.2305L17.2993 26.7641H18.9617L17.617 27.7116L18.1305 29.2446L16.7858 28.2971L15.4409 29.2446L15.9547 27.7116L14.6094 26.7641H16.2718L16.7858 25.2305Z" fill="white"/>
<path d="M23.6216 2.29297L24.1348 3.82616H25.7976L24.4525 4.77409L24.9663 6.30691L23.6216 5.35899L22.2762 6.30691L22.7901 4.77409L21.4453 3.82616H23.1081L23.6216 2.29297Z" fill="white"/>
<path d="M29.2154 6.64258L29.7286 8.17565H31.3914L30.0464 9.12342L30.5602 10.6566L29.2154 9.70912L27.8703 10.6566L28.3841 9.12342L27.0391 8.17565H28.7013L29.2154 6.64258Z" fill="white"/>
<path d="M29.2154 18.9238L29.729 20.4576H31.3914L30.0464 21.4051L30.5604 22.9379L29.2154 21.9906L27.8703 22.9379L28.3841 21.4051L27.0391 20.4576H28.7015L29.2154 18.9238Z" fill="white"/>
<path d="M4.34042 6.64258L4.85393 8.17565H6.51643L5.17151 9.12342L5.68501 10.6566L4.34042 9.70912L2.99524 10.6566L3.50898 9.12342L2.16406 8.17565H3.82694L4.34042 6.64258Z" fill="white"/>
<path d="M30.4575 12.6152L30.9711 14.1484H32.6335L31.2885 15.0959L31.8023 16.6291L30.4575 15.6822L29.1125 16.6291L29.6266 15.0959L28.2812 14.1484H29.9434L30.4575 12.6152Z" fill="white"/>
<path d="M3.09839 12.6152L3.61187 14.1484H5.27428L3.92915 15.0959L4.44325 16.6291L3.09839 15.6822L1.75318 16.6291L2.267 15.0959L0.921875 14.1484H2.58456L3.09839 12.6152Z" fill="white"/>
<path d="M4.34056 18.9238L4.85401 20.4576H6.51643L5.17168 21.4051L5.68507 22.9379L4.34056 21.9906L2.99545 22.9379L3.50918 21.4051L2.16406 20.4576H3.82683L4.34056 18.9238Z" fill="white"/>
<path d="M24.8638 24.084L25.3773 25.617H27.0399L25.6945 26.5651L26.2086 28.0981L24.8638 27.1506L23.5184 28.0981L24.0326 26.5651L22.6875 25.617H24.3502L24.8638 24.084Z" fill="white"/>
<path d="M9.93409 2.29297L10.4474 3.82616H12.1103L10.7651 4.77409L11.2792 6.30691L9.93409 5.35899L8.58924 6.30691L9.10297 4.77409L7.75781 3.82616H9.42025L9.93409 2.29297Z" fill="white"/>
<path d="M8.69947 24.084L9.21315 25.6178H10.8758L9.53076 26.5648L10.0445 28.0981L8.69947 27.1511L7.35472 28.0981L7.86839 26.5648L6.52344 25.6178H8.18568L8.69947 24.084Z" fill="white"/>
<path d="M12.375 13.7043C12.375 13.3983 12.6379 13.1504 12.9622 13.1504H20.5963C20.9208 13.1504 21.1835 13.3983 21.1835 13.7043V18.6426C21.1835 18.9487 20.9208 19.1965 20.5963 19.1965H12.9622C12.6379 19.1965 12.375 18.9487 12.375 18.6426V13.7043Z" fill="white"/>
<path d="M15.9833 17.5582L14.8244 16.5533C14.6939 16.4401 14.6939 16.2576 14.8244 16.1446C14.9538 16.0324 15.1643 16.0316 15.2947 16.143L15.2962 16.1443L16.2602 16.9779L18.5609 14.983C18.6902 14.8708 18.9004 14.8703 19.0305 14.9813L19.0331 14.9835C19.1638 15.0977 19.1635 15.281 19.0322 15.3946L16.537 17.5582C16.3853 17.6897 16.1383 17.6906 15.9857 17.5599L15.9833 17.5582Z" fill="white"/>
<path d="M18.855 13.2859V11.7645C18.855 10.7522 17.9851 9.93164 16.9119 9.93164C15.8387 9.93164 14.9688 10.7522 14.9688 11.7645V13.2859" stroke="white" stroke-width="2"/>
</g>
<defs>
<clipPath id="clip0_14055_16823">
<rect width="32.64" height="48" fill="white" transform="translate(0.921875)"/>
</clipPath>
</defs>
</svg>
