<svg width="52" height="52" viewBox="0 0 52 52" fill="none" xmlns="http://www.w3.org/2000/svg">
<circle cx="26" cy="26" r="26" fill="white"/>
<path d="M17.3686 23.7555C17.3686 24.2434 17.4213 24.639 17.5134 24.9291C17.6186 25.2193 17.7502 25.5357 17.9344 25.8786C18.0002 25.9841 18.0265 26.0896 18.0265 26.1819C18.0265 26.3138 17.9476 26.4456 17.7765 26.5775L16.9476 27.1313C16.8292 27.2105 16.7107 27.25 16.6055 27.25C16.4739 27.25 16.3423 27.1841 16.2107 27.0654C16.0265 26.8676 15.8686 26.6566 15.737 26.4456C15.6055 26.2215 15.4739 25.9709 15.3292 25.6676C14.3028 26.8808 13.0134 27.4874 11.4607 27.4874C10.3555 27.4874 9.47389 27.1709 8.82915 26.5379C8.18442 25.905 7.85547 25.061 7.85547 24.0061C7.85547 22.8852 8.25021 21.9753 9.05284 21.2896C9.85547 20.6039 10.9213 20.261 12.2765 20.261C12.7239 20.261 13.1844 20.3006 13.6713 20.3665C14.1581 20.4324 14.6581 20.5379 15.1844 20.6566V19.694C15.1844 18.6918 14.9739 17.9929 14.566 17.5841C14.1449 17.1753 13.4344 16.9775 12.4213 16.9775C11.9607 16.9775 11.487 17.0302 11.0002 17.1489C10.5134 17.2676 10.0397 17.4127 9.57915 17.5973C9.36863 17.6896 9.21073 17.7423 9.11863 17.7687C9.02652 17.7951 8.96073 17.8083 8.9081 17.8083C8.72389 17.8083 8.63178 17.6764 8.63178 17.3995V16.7533C8.63178 16.5423 8.6581 16.3841 8.72389 16.2918C8.78968 16.1995 8.9081 16.1072 9.09231 16.0149C9.55284 15.7775 10.1055 15.5797 10.7502 15.4215C11.3949 15.25 12.0792 15.1709 12.8028 15.1709C14.3686 15.1709 15.5134 15.5269 16.2502 16.239C16.9739 16.9511 17.3423 18.0324 17.3423 19.483V23.7555H17.3686ZM12.0265 25.7599C12.4607 25.7599 12.9081 25.6808 13.3818 25.5226C13.8555 25.3643 14.2765 25.0742 14.6318 24.6786C14.8423 24.428 15.0002 24.1511 15.0792 23.8346C15.1581 23.5182 15.2107 23.1357 15.2107 22.6874V22.1335C14.8292 22.0412 14.4213 21.9621 14.0002 21.9094C13.5792 21.8566 13.1713 21.8302 12.7634 21.8302C11.8818 21.8302 11.237 22.0017 10.8028 22.3577C10.3686 22.7138 10.1581 23.2149 10.1581 23.8742C10.1581 24.494 10.316 24.9555 10.6449 25.272C10.9607 25.6017 11.4213 25.7599 12.0265 25.7599ZM22.5923 27.1841C22.3555 27.1841 22.1976 27.1445 22.0923 27.0522C21.987 26.9731 21.8949 26.7885 21.816 26.5379L18.7239 16.3445C18.6449 16.0808 18.6055 15.9094 18.6055 15.8171C18.6055 15.6061 18.7107 15.4874 18.9213 15.4874H20.2107C20.4607 15.4874 20.6318 15.5269 20.7239 15.6193C20.8292 15.6984 20.9081 15.883 20.987 16.1335L23.1976 24.8632L25.2502 16.1335C25.316 15.8698 25.3949 15.6984 25.5002 15.6193C25.6055 15.5401 25.7897 15.4874 26.0265 15.4874H27.0791C27.3291 15.4874 27.5002 15.5269 27.6055 15.6193C27.7107 15.6984 27.8028 15.883 27.8555 16.1335L29.9344 24.9687L32.2107 16.1335C32.2897 15.8698 32.3818 15.6984 32.4739 15.6193C32.5791 15.5401 32.7502 15.4874 32.987 15.4874H34.2107C34.4213 15.4874 34.5397 15.5929 34.5397 15.8171C34.5397 15.883 34.5265 15.9489 34.5134 16.028C34.5002 16.1072 34.4739 16.2127 34.4213 16.3577L31.2502 26.5511C31.1713 26.8149 31.0791 26.9863 30.9739 27.0654C30.8686 27.1445 30.6976 27.1973 30.4739 27.1973H29.3423C29.0923 27.1973 28.9213 27.1577 28.816 27.0654C28.7107 26.9731 28.6186 26.8017 28.566 26.5379L26.5265 18.0324L24.5002 26.5248C24.4344 26.7885 24.3555 26.9599 24.2502 27.0522C24.1449 27.1445 23.9607 27.1841 23.7239 27.1841H22.5923ZM39.5002 27.5401C38.816 27.5401 38.1318 27.461 37.4739 27.3028C36.816 27.1445 36.3028 26.9731 35.9607 26.7753C35.7502 26.6566 35.6055 26.5248 35.5528 26.4061C35.5002 26.2874 35.4739 26.1555 35.4739 26.0368V25.3643C35.4739 25.0874 35.5791 24.9555 35.7765 24.9555C35.8555 24.9555 35.9344 24.9687 36.0134 24.9951C36.0923 25.0215 36.2107 25.0742 36.3423 25.127C36.7897 25.3248 37.2765 25.483 37.7897 25.5885C38.316 25.694 38.8291 25.7467 39.3555 25.7467C40.1844 25.7467 40.8291 25.6017 41.2765 25.3116C41.7239 25.0215 41.9607 24.5995 41.9607 24.0588C41.9607 23.6896 41.8423 23.3863 41.6055 23.1357C41.3686 22.8852 40.9213 22.661 40.2765 22.45L38.3686 21.8566C37.4081 21.5533 36.6976 21.105 36.2634 20.5116C35.8291 19.9313 35.6055 19.2852 35.6055 18.5995C35.6055 18.0456 35.7239 17.5577 35.9607 17.1357C36.1976 16.7138 36.5134 16.3445 36.9081 16.0544C37.3028 15.7511 37.7502 15.5269 38.2765 15.3687C38.8028 15.2105 39.3555 15.1445 39.9344 15.1445C40.2239 15.1445 40.5265 15.1577 40.816 15.1973C41.1186 15.2368 41.3949 15.2896 41.6713 15.3423C41.9344 15.4083 42.1844 15.4742 42.4212 15.5533C42.6581 15.6324 42.8423 15.7116 42.9739 15.7907C43.1581 15.8962 43.2897 16.0017 43.3686 16.1204C43.4476 16.2259 43.487 16.3709 43.487 16.5555V17.1753C43.487 17.4522 43.3818 17.5973 43.1844 17.5973C43.0791 17.5973 42.9081 17.5445 42.6844 17.439C41.9344 17.0962 41.0923 16.9248 40.1581 16.9248C39.4081 16.9248 38.816 17.0434 38.4081 17.294C38.0002 17.5445 37.7897 17.9269 37.7897 18.4676C37.7897 18.8368 37.9213 19.1533 38.1844 19.4039C38.4476 19.6544 38.9344 19.905 39.6318 20.1291L41.5002 20.7226C42.4476 21.0259 43.1318 21.4478 43.5397 21.9885C43.9476 22.5291 44.1449 23.1489 44.1449 23.8346C44.1449 24.4017 44.0265 24.916 43.8028 25.3643C43.566 25.8127 43.2502 26.2083 42.8423 26.5248C42.4344 26.8544 41.9476 27.0918 41.3818 27.2632C40.7897 27.4478 40.1713 27.5401 39.5002 27.5401Z" fill="#252F3E"/>
<path fill-rule="evenodd" clip-rule="evenodd" d="M41.9861 33.9492C37.6572 37.1536 31.3677 38.8547 25.9598 38.8547C18.3809 38.8547 11.5519 36.0459 6.39402 31.3778C5.98612 31.0086 6.35454 30.5075 6.84138 30.7976C12.4203 34.0415 19.3019 36.0064 26.4203 36.0064C31.223 36.0064 36.4993 35.0042 41.3545 32.947C42.0782 32.6174 42.6966 33.4218 41.9861 33.9492Z" fill="#FF9900"/>
<path fill-rule="evenodd" clip-rule="evenodd" d="M43.788 31.8916C43.2354 31.1796 40.1302 31.5488 38.7223 31.7202C38.3012 31.773 38.2354 31.4037 38.617 31.1268C41.0907 29.3861 45.1565 29.8872 45.6302 30.4675C46.1038 31.0609 45.4986 35.1356 43.1828 37.0873C42.8275 37.3906 42.4854 37.2323 42.6433 36.8367C43.1696 35.5312 44.3407 32.5905 43.788 31.8916Z" fill="#FF9900"/>
</svg>
