<svg width="52" height="52" viewBox="0 0 52 52" fill="none" xmlns="http://www.w3.org/2000/svg">
<circle cx="26" cy="26" r="26" fill="white"/>
<path d="M21.9434 40.9999H30.0699L26.0069 35.1016L21.9434 40.9999Z" fill="#B4B6B4"/>
<path d="M26.0106 24.944L17.8184 13V23.2528L22.4963 30.0782L26.0026 24.9542L26.0106 24.944Z" fill="#1A1918"/>
<path d="M26.0098 24.944L29.5379 30.0892L34.186 23.3384V13L26.0098 24.944Z" fill="#ED9D4A"/>
<path d="M26.0024 24.9535L22.4961 30.0775L26.014 35.2081L29.5385 30.0885L26.0104 24.9434L26.0024 24.9535Z" fill="#BB7731"/>
<path d="M12 35.2222H17.818V23.2526L12 14.7695V35.2222Z" fill="#4CB2D4"/>
<path d="M12 13V14.7697L17.818 23.2528V13H12Z" fill="#1B82AD"/>
<path d="M34.1836 23.3382V35.2222H39.9994V14.8926L34.1836 23.3382Z" fill="#C02439"/>
<path d="M39.9994 13H34.1836V23.3384L39.9994 14.8928V13Z" fill="#8F202F"/>
</svg>
