<svg width="52" height="52" viewBox="0 0 52 52" fill="none" xmlns="http://www.w3.org/2000/svg">
<circle cx="26" cy="26" r="26" fill="white"/>
<g opacity="0.5">
<path opacity="0.2" fill-rule="evenodd" clip-rule="evenodd" d="M44.5005 16.4496C42.52 19.4883 38.7164 21.5503 34.3276 21.5503C31.0642 21.5503 28.1159 20.3927 26.0003 18.5477C23.5696 16.4134 20.2161 13.447 15.8274 13.447C12.5639 13.447 9.6156 14.6046 7.5 16.4496V15.0026C9.6156 13.1576 12.5639 12 15.8274 12C20.2161 12 23.5696 14.9664 26.0003 17.1007C28.1159 18.9457 31.0642 20.1033 34.3276 20.1033C38.7164 20.1033 42.52 18.0413 44.5005 15.0026V16.4496V16.4496Z" fill="black"/>
<path opacity="0.2" fill-rule="evenodd" clip-rule="evenodd" d="M44.5005 22.599C42.52 25.6377 38.7164 27.6997 34.3276 27.6997C31.0642 27.6997 28.1159 26.5421 26.0003 24.6972C23.5696 22.5628 20.2161 19.5964 15.8274 19.5964C12.5639 19.5964 9.6156 20.754 7.5 22.599V21.152C9.6156 19.307 12.5639 18.1494 15.8274 18.1494C20.2161 18.1494 23.5696 21.1158 26.0003 23.2501C28.1159 25.0951 31.0642 26.2527 34.3276 26.2527C38.7164 26.2527 42.52 24.1907 44.5005 21.152V22.599V22.599Z" fill="black"/>
<path opacity="0.2" fill-rule="evenodd" clip-rule="evenodd" d="M44.5005 28.7494C42.52 31.7881 38.7164 33.8501 34.3276 33.8501C31.0642 33.8501 28.1159 32.6925 26.0003 30.8475C23.5696 28.7132 20.2161 25.7468 15.8274 25.7468C12.5639 25.7468 9.6156 26.9044 7.5 28.7494V27.3024C9.6156 25.4574 12.5639 24.2998 15.8274 24.2998C20.2161 24.2998 23.5696 27.2662 26.0003 29.4005C28.1159 31.2455 31.0642 32.4031 34.3276 32.4031C38.7164 32.4031 42.52 30.3411 44.5005 27.3024V28.7494V28.7494Z" fill="black"/>
<path opacity="0.2" fill-rule="evenodd" clip-rule="evenodd" d="M44.5005 34.8988C42.52 37.9375 38.7164 39.9995 34.3276 39.9995C31.0642 39.9995 28.1159 38.8419 26.0003 36.997C23.5696 34.8626 20.2161 31.8962 15.8274 31.8962C12.5639 31.8962 9.6156 33.0538 7.5 34.8988V33.4518C9.6156 31.6068 12.5639 30.4492 15.8274 30.4492C20.2161 30.4492 23.5696 33.4156 26.0003 35.5499C28.1159 37.3949 31.0642 38.5525 34.3276 38.5525C38.7164 38.5525 42.52 36.4905 44.5005 33.4518V34.8988V34.8988Z" fill="black"/>
</g>
<path fill-rule="evenodd" clip-rule="evenodd" d="M21.6954 16.3712H18.6367V13.375H29.4682C36.2333 13.375 37.6367 17.7459 37.6367 20.7773C37.6367 23.2095 36.6291 25.0777 35.5856 26.0999C33.8943 27.7566 31.5913 28.1443 28.1007 28.1443H25.3659V34.3129H28.5685V37.3091H18.6367V34.3129H21.6954V16.3712ZM28.4246 25.2539C32.9227 25.2539 33.8943 23.2095 33.8943 20.742C33.8943 17.9221 32.275 16.3712 29.5761 16.3712H25.3659V25.2539H28.4246Z" fill="black"/>
</svg>
