<svg width="52" height="52" viewBox="0 0 52 52" fill="none" xmlns="http://www.w3.org/2000/svg">
<circle cx="26" cy="26" r="26" fill="white"/>
<path d="M22.2664 12C20.72 12 19.4666 13.2537 19.4666 14.7999C19.4662 15.1672 19.5384 15.531 19.6789 15.8705C19.8194 16.21 20.0255 16.5185 20.2855 16.7785C20.5455 17.0385 20.8542 17.2449 21.1941 17.3858C21.534 17.5267 21.8983 17.5994 22.2664 17.5998H25.0667V14.7999C25.0673 14.058 24.7726 13.3463 24.2475 12.8212C23.7223 12.2961 23.0097 12.0007 22.2664 12ZM22.2664 19.4663H14.7998C13.2534 19.4663 12 20.7201 12 22.2667C12 23.8128 13.2534 25.0666 14.7998 25.0666H22.2669C23.8128 25.0666 25.0667 23.8128 25.0667 22.2667C25.0667 20.7201 23.8128 19.4663 22.2664 19.4663Z" fill="#36C5F0"/>
<path d="M40.0002 22.2667C40.0002 20.7201 38.7464 19.4663 37.2 19.4663C35.6536 19.4663 34.4002 20.7201 34.4002 22.2667V25.0666H37.2C37.9433 25.0658 38.6559 24.7704 39.1811 24.2454C39.7062 23.7203 40.0009 23.0086 40.0002 22.2667ZM32.5337 22.2667V14.7999C32.5343 14.058 32.2396 13.3463 31.7145 12.8212C31.1893 12.2961 30.4767 12.0007 29.7334 12C28.187 12 26.9336 13.2537 26.9336 14.7999V22.2662C26.9336 23.8133 28.187 25.067 29.7334 25.067C30.4767 25.0663 31.1893 24.7709 31.7145 24.2458C32.2396 23.7208 32.5343 23.009 32.5337 22.2672" fill="#2EB67D"/>
<path d="M29.7334 39.9982C30.4767 39.9975 31.1893 39.7021 31.7145 39.177C32.2396 38.6519 32.5343 37.9402 32.5337 37.1983C32.5343 36.4565 32.2396 35.7447 31.7145 35.2196C31.1893 34.6946 30.4767 34.3992 29.7334 34.3984H26.9336V37.1983C26.9336 38.7445 28.187 39.9982 29.7334 39.9982ZM29.7334 32.5319H37.2005C38.7464 32.5319 40.0003 31.2781 40.0003 29.7315C40.0009 28.9896 39.7062 28.2779 39.1811 27.7528C38.6559 27.2278 37.9433 26.9324 37.2 26.9316H29.7334C28.187 26.9316 26.9336 28.1854 26.9336 29.7315C26.9332 30.0988 27.0054 30.4626 27.1459 30.8021C27.2864 31.1416 27.4925 31.4502 27.7525 31.7102C28.0125 31.9702 28.3212 32.1765 28.6611 32.3174C29.001 32.4583 29.3653 32.531 29.7334 32.5314" fill="#ECB22E"/>
<path d="M12 29.7315C11.9996 30.0988 12.0718 30.4626 12.2123 30.8021C12.3528 31.1416 12.5589 31.4502 12.8189 31.7102C13.0789 31.9702 13.3876 32.1765 13.7275 32.3174C14.0674 32.4583 14.4318 32.531 14.7998 32.5314C15.5431 32.5307 16.2557 32.2353 16.7809 31.7102C17.306 31.1851 17.6007 30.4734 17.6001 29.7315V26.9316H14.7998C13.2534 26.9316 12 28.1854 12 29.7315ZM19.4666 29.7315V37.1979C19.4666 38.7445 20.72 39.9982 22.2664 39.9982C23.0097 39.9975 23.7223 39.7021 24.2475 39.177C24.7726 38.6519 25.0673 37.9402 25.0667 37.1983V29.7315C25.067 29.3642 24.9949 29.0003 24.8544 28.6608C24.7138 28.3213 24.5077 28.0127 24.2476 27.7527C23.9876 27.4927 23.6788 27.2864 23.3388 27.1455C22.9989 27.0046 22.6345 26.9319 22.2664 26.9316C20.72 26.9316 19.4666 28.1854 19.4666 29.7315Z" fill="#E01E5A"/>
</svg>
