<svg width="40" height="40" viewBox="0 0 40 40" fill="none" xmlns="http://www.w3.org/2000/svg">
<path d="M0 8.75C0 3.91751 3.91751 0 8.75 0H31.25C36.0825 0 40 3.91751 40 8.75V31.25C40 36.0825 36.0825 40 31.25 40H8.75C3.91751 40 0 36.0825 0 31.25V8.75Z" fill="white"/>
<path fill-rule="evenodd" clip-rule="evenodd" d="M32.7005 5.00382H14.0059C13.0914 5.0038 12.323 4.91945 11.6986 5.54471L5.69702 11.5589C5.19533 12.0616 5.02373 12.6848 5.00371 13.3597C4.99201 13.4159 5.01236 13.5269 5.00534 13.5847C4.99365 13.6774 5.00822 13.757 5.00822 13.8527V32.7503C5.00822 33.9928 6.01394 35 7.25354 35H26.1142C26.1575 35 26.2007 34.9988 26.244 34.9963C27.0872 35 27.7713 34.9651 28.3396 34.3954L34.3423 28.3812C34.9107 27.8116 35.1107 27.0123 34.9423 26.2813C34.9446 26.2383 34.9458 26.1948 34.9458 26.1511V7.25353C34.9458 6.01106 33.9401 5.00382 32.7005 5.00382Z" fill="black"/>
<path d="M12.1191 7.25299C12.1191 6.67317 12.5883 6.20312 13.167 6.20312H32.6264C33.2051 6.20312 33.6742 6.67317 33.6742 7.25299V26.7505C33.6742 27.3303 33.2051 27.8004 32.6264 27.8004H13.167C12.5883 27.8004 12.1191 27.3303 12.1191 26.7505V7.25299Z" fill="white"/>
<path fill-rule="evenodd" clip-rule="evenodd" d="M20.0003 13.9518C20.3592 14.2949 20.3726 14.8645 20.0303 15.2241L18.3014 17.0402L20.0303 18.8563C20.3726 19.2159 20.3592 19.7855 20.0003 20.1286C19.6414 20.4716 19.0729 20.4581 18.7305 20.0985L16.4103 17.6613C16.0794 17.3136 16.0794 16.7668 16.4103 16.4191L18.7305 13.9819C19.0729 13.6223 19.6414 13.6088 20.0003 13.9518Z" fill="black"/>
<path fill-rule="evenodd" clip-rule="evenodd" d="M25.8664 14.0261C25.5075 14.3691 25.4941 14.9387 25.8364 15.2983L27.5653 17.1144L25.8364 18.9305C25.4941 19.2901 25.5075 19.8597 25.8664 20.2028C26.2253 20.5458 26.7938 20.5324 27.1362 20.1727L29.4564 17.7355C29.7873 17.3879 29.7873 16.841 29.4564 16.4933L27.1362 14.0561C26.7938 13.6965 26.2253 13.683 25.8664 14.0261Z" fill="black"/>
<path fill-rule="evenodd" clip-rule="evenodd" d="M23.625 12.3614C24.1157 12.4345 24.4543 12.8922 24.3815 13.3838L23.2588 20.9578C23.1859 21.4494 22.7291 21.7887 22.2385 21.7157C21.7478 21.6427 21.4092 21.185 21.482 20.6934L22.6047 13.1194C22.6776 12.6278 23.1344 12.2884 23.625 12.3614Z" fill="black"/>
</svg>
