<svg width="842" height="560" viewBox="0 0 842 560" fill="none" xmlns="http://www.w3.org/2000/svg">
<rect width="842" height="560" rx="20" fill="url(#paint0_linear_505_2484)"/>
<rect width="842" height="560" rx="20" fill="url(#paint1_linear_505_2484)"/>
<rect x="286" y="8" width="270" height="210" rx="14" fill="black"/>
<path d="M359.028 102C371.394 102 379.602 94.224 379.602 82.56C379.602 70.896 371.286 63.12 358.812 63.12H347.634V102H359.028ZM358.758 67.494C368.1 67.494 374.31 73.542 374.31 82.56C374.31 91.578 368.154 97.626 358.974 97.626H352.818V67.494H358.758ZM386.652 75V102H391.674V75H386.652ZM386.004 67.17C386.004 68.952 387.246 70.194 389.136 70.194C390.972 70.194 392.268 68.952 392.268 67.17C392.268 65.334 390.972 64.092 389.136 64.092C387.246 64.092 386.004 65.334 386.004 67.17ZM406.977 95.466C406.977 94.44 408.921 93.522 411.351 93.306H411.405C417.075 92.982 421.287 89.202 421.287 83.91C421.287 81.75 420.369 79.86 418.911 78.51L419.235 78.564C419.235 78.564 420.045 78.78 420.747 78.78H424.473V75H414.645C413.403 74.568 411.891 74.352 410.379 74.352C404.223 74.352 399.417 78.24 399.417 83.91C399.417 88.014 401.955 91.254 405.789 92.658C403.467 93.414 402.063 94.872 402.063 96.438C402.063 98.274 403.629 99.57 406.221 99.894C402.063 100.704 398.769 103.35 398.769 106.536C398.769 111.342 403.791 113.826 411.135 113.826C418.803 113.826 424.095 110.694 424.095 105.51C424.095 100.596 420.207 98.544 413.349 97.788C408.705 97.248 406.977 96.816 406.977 95.466ZM410.379 89.796C406.707 89.796 404.115 87.366 404.115 84.018C404.115 80.67 406.707 78.186 410.379 78.186C414.159 78.186 416.697 80.67 416.697 84.018C416.697 87.366 414.159 89.796 410.379 89.796ZM411.189 110.262C406.761 110.262 403.629 108.804 403.629 105.942C403.629 103.512 406.599 101.406 410.811 101.406C416.913 101.406 419.073 103.35 419.073 105.834C419.073 108.48 416.049 110.262 411.189 110.262ZM441.384 74.352C433.932 74.352 428.154 80.346 428.154 88.5C428.154 96.87 433.932 102.648 442.464 102.648C446.838 102.648 450.456 101.514 452.562 100.326V95.736C450.294 97.194 446.46 98.274 442.788 98.274C437.118 98.274 433.554 94.926 433.392 89.634V89.58H453.48C453.48 89.04 453.588 88.014 453.588 86.934C453.588 80.292 449.322 74.352 441.384 74.352ZM448.62 86.016H433.446C433.878 82.128 436.686 78.564 441.33 78.564C446.136 78.564 448.674 82.128 448.62 86.016ZM472.888 94.98C472.888 97.518 470.35 98.49 467.542 98.49C465.004 98.49 461.548 97.572 458.902 96.276V100.866C461.062 101.892 464.194 102.648 467.704 102.648C473.536 102.648 477.532 99.948 477.532 95.034C477.532 90.498 474.724 88.392 469 86.502C465.328 85.314 463.438 84.288 463.438 82.128C463.438 79.698 465.868 78.618 468.946 78.618C471.376 78.618 474.076 79.482 476.02 80.508V75.972C474.184 75.108 471.322 74.352 468.406 74.352C462.79 74.352 458.74 77.484 458.74 81.966C458.74 86.826 462.088 88.878 466.894 90.444C470.89 91.74 472.888 92.658 472.888 94.98ZM481.376 75V79.104H485.804V94.602C485.804 100.65 489.908 102.648 493.796 102.648C496.442 102.648 498.656 102.054 499.844 101.406V97.032C498.332 97.734 496.442 98.22 494.768 98.22C492.5 98.22 490.772 96.924 490.772 93.09V79.104H498.926V75H490.772V66.9H485.858V75H481.376ZM364.876 163V158.626H345.382V145.504H361.15V141.13H345.382V128.494H364.066V124.12H340.198V163H364.876ZM371.939 136V163H376.961V149.716C376.961 144.208 380.741 139.996 386.033 139.996C390.515 139.996 391.163 143.344 391.163 147.07V163H396.185V146.044C396.185 139.294 393.593 135.352 386.951 135.352C381.227 135.352 377.663 139.402 376.637 141.832H376.529C376.583 141.724 376.745 140.914 376.745 139.78L376.637 136H371.939ZM410.669 156.466C410.669 155.44 412.613 154.522 415.043 154.306H415.097C420.767 153.982 424.979 150.202 424.979 144.91C424.979 142.75 424.061 140.86 422.603 139.51L422.927 139.564C422.927 139.564 423.737 139.78 424.439 139.78H428.165V136H418.337C417.095 135.568 415.583 135.352 414.071 135.352C407.915 135.352 403.109 139.24 403.109 144.91C403.109 149.014 405.647 152.254 409.481 153.658C407.159 154.414 405.755 155.872 405.755 157.438C405.755 159.274 407.321 160.57 409.913 160.894C405.755 161.704 402.461 164.35 402.461 167.536C402.461 172.342 407.483 174.826 414.827 174.826C422.495 174.826 427.787 171.694 427.787 166.51C427.787 161.596 423.899 159.544 417.041 158.788C412.397 158.248 410.669 157.816 410.669 156.466ZM414.071 150.796C410.399 150.796 407.807 148.366 407.807 145.018C407.807 141.67 410.399 139.186 414.071 139.186C417.851 139.186 420.389 141.67 420.389 145.018C420.389 148.366 417.851 150.796 414.071 150.796ZM414.881 171.262C410.453 171.262 407.321 169.804 407.321 166.942C407.321 164.512 410.291 162.406 414.503 162.406C420.605 162.406 422.765 164.35 422.765 166.834C422.765 169.48 419.741 171.262 414.881 171.262ZM434.113 136V163H439.135V136H434.113ZM433.465 128.17C433.465 129.952 434.707 131.194 436.597 131.194C438.433 131.194 439.729 129.952 439.729 128.17C439.729 126.334 438.433 125.092 436.597 125.092C434.707 125.092 433.465 126.334 433.465 128.17ZM448.984 136V163H454.006V149.716C454.006 144.208 457.786 139.996 463.078 139.996C467.56 139.996 468.208 143.344 468.208 147.07V163H473.23V146.044C473.23 139.294 470.638 135.352 463.996 135.352C458.272 135.352 454.708 139.402 453.682 141.832H453.574C453.628 141.724 453.79 140.914 453.79 139.78L453.682 136H448.984ZM493.222 135.352C485.77 135.352 479.992 141.346 479.992 149.5C479.992 157.87 485.77 163.648 494.302 163.648C498.676 163.648 502.294 162.514 504.4 161.326V156.736C502.132 158.194 498.298 159.274 494.626 159.274C488.956 159.274 485.392 155.926 485.23 150.634V150.58H505.318C505.318 150.04 505.426 149.014 505.426 147.934C505.426 141.292 501.16 135.352 493.222 135.352ZM500.458 147.016H485.284C485.716 143.128 488.524 139.564 493.168 139.564C497.974 139.564 500.512 143.128 500.458 147.016Z" fill="url(#paint2_linear_505_2484)"/>
<rect x="564" y="8" width="270" height="261" rx="14" fill="black"/>
<rect x="584" y="34" width="140" height="16" rx="8" fill="#333333"/>
<rect x="584.5" y="118.5" width="123" height="39" rx="19.5" fill="#0D0D0D"/>
<path d="M601.984 143.464C601.984 145.096 602.912 146.072 604.464 146.072H605.008V144.776H604.672C603.936 144.776 603.504 144.232 603.504 143.304V141.32C603.504 140.248 603.024 139.496 602.24 139.256V139.224C603.024 138.984 603.504 138.232 603.504 137.16V135.176C603.504 134.248 603.936 133.704 604.672 133.704H605.008V132.408H604.464C602.912 132.408 601.984 133.384 601.984 135.016V137C601.984 137.976 601.504 138.6 600.72 138.664V139.816C601.504 139.88 601.984 140.504 601.984 141.48V143.464ZM608.031 143.464C608.031 145.096 608.959 146.072 610.511 146.072H611.055V144.776H610.719C609.983 144.776 609.551 144.232 609.551 143.304V141.32C609.551 140.248 609.071 139.496 608.287 139.256V139.224C609.071 138.984 609.551 138.232 609.551 137.16V135.176C609.551 134.248 609.983 133.704 610.719 133.704H611.055V132.408H610.511C608.959 132.408 608.031 133.384 608.031 135.016V137C608.031 137.976 607.551 138.6 606.767 138.664V139.816C607.551 139.88 608.031 140.504 608.031 141.48V143.464ZM612.014 133.48L616.174 140.424V145H617.71V140.424L621.87 133.48H620.158L616.942 138.952L613.726 133.48H612.014ZM625.255 136.808C622.887 136.808 621.143 138.584 621.143 141C621.143 143.416 622.887 145.192 625.255 145.192C627.639 145.192 629.383 143.416 629.383 141C629.383 138.584 627.639 136.808 625.255 136.808ZM625.255 143.896C623.719 143.896 622.583 142.696 622.583 141C622.583 139.304 623.719 138.104 625.255 138.104C626.807 138.104 627.943 139.304 627.943 141C627.943 142.696 626.807 143.896 625.255 143.896ZM638.492 145V137H637.004V140.936C637.004 142.568 635.916 143.816 634.396 143.816C633.068 143.816 632.876 142.824 632.876 141.72V137H631.388V142.024C631.388 144.024 632.156 145.192 634.124 145.192C635.772 145.192 636.796 143.992 637.1 143.272H637.132C637.132 143.304 637.068 143.544 637.068 143.88L637.1 145H638.492ZM641.297 145H642.785V141.512C642.785 139.96 643.681 138.248 645.233 138.248C645.441 138.248 645.585 138.28 645.649 138.296V136.856C645.585 136.84 645.393 136.808 645.169 136.808C644.017 136.808 643.169 137.576 642.705 138.712H642.689C642.673 138.664 642.721 138.424 642.705 138.12L642.689 137H641.297V145ZM650.538 137V138.216H651.85V142.808C651.85 144.6 653.066 145.192 654.218 145.192C655.002 145.192 655.658 145.016 656.01 144.824V143.528C655.562 143.736 655.002 143.88 654.506 143.88C653.834 143.88 653.322 143.496 653.322 142.36V138.216H655.738V137H653.322V134.6H651.866V137H650.538ZM660.907 136.808C658.699 136.808 656.987 138.584 656.987 141C656.987 143.48 658.699 145.192 661.227 145.192C662.523 145.192 663.595 144.856 664.219 144.504V143.144C663.547 143.576 662.411 143.896 661.323 143.896C659.643 143.896 658.587 142.904 658.539 141.336V141.32H664.491C664.491 141.16 664.523 140.856 664.523 140.536C664.523 138.568 663.259 136.808 660.907 136.808ZM663.051 140.264H658.555C658.683 139.112 659.515 138.056 660.891 138.056C662.315 138.056 663.067 139.112 663.051 140.264ZM673.278 137H671.55L669.566 139.944L667.598 137H665.902L668.686 140.968L665.79 145H667.47L669.598 141.96L671.742 145H673.422L670.478 140.872L673.278 137ZM674.382 137V138.216H675.694V142.808C675.694 144.6 676.91 145.192 678.062 145.192C678.846 145.192 679.502 145.016 679.854 144.824V143.528C679.406 143.736 678.846 143.88 678.35 143.88C677.678 143.88 677.166 143.496 677.166 142.36V138.216H679.582V137H677.166V134.6H675.71V137H674.382ZM683.471 135.016C683.471 133.384 682.543 132.408 680.991 132.408H680.447V133.704H680.783C681.519 133.704 681.951 134.248 681.951 135.176V137.16C681.951 138.232 682.431 138.984 683.215 139.224V139.256C682.431 139.496 681.951 140.248 681.951 141.32V143.304C681.951 144.232 681.519 144.776 680.783 144.776H680.447V146.072H680.991C682.543 146.072 683.471 145.096 683.471 143.464V141.48C683.471 140.504 683.951 139.88 684.735 139.816V138.664C683.951 138.6 683.471 137.976 683.471 137V135.016ZM689.518 135.016C689.518 133.384 688.59 132.408 687.038 132.408H686.494V133.704H686.83C687.566 133.704 687.998 134.248 687.998 135.176V137.16C687.998 138.232 688.478 138.984 689.262 139.224V139.256C688.478 139.496 687.998 140.248 687.998 141.32V143.304C687.998 144.232 687.566 144.776 686.83 144.776H686.494V146.072H687.038C688.59 146.072 689.518 145.096 689.518 143.464V141.48C689.518 140.504 689.998 139.88 690.782 139.816V138.664C689.998 138.6 689.518 137.976 689.518 137V135.016Z" fill="#FFE14D"/>
<rect x="584.5" y="118.5" width="123" height="39" rx="19.5" stroke="white" stroke-dasharray="3 3"/>
<rect x="704" y="118" width="104" height="40" rx="20" fill="white"/>
<path d="M734.622 132.797L732.574 130.696C732.331 130.448 732.003 130.309 731.66 130.309C731.318 130.309 730.99 130.448 730.747 130.696L729 132.489L732.874 136.462L734.622 134.67C734.864 134.422 735 134.085 735 133.734C735 133.383 734.864 133.046 734.622 132.797Z" fill="black"/>
<path d="M728.268 133.385L721.244 140.589L720 145.692L724.976 144.417L732 137.213L728.268 133.385Z" fill="black"/>
<path d="M751.08 145V143.304H746.392V133.48H744.376V145H751.08ZM756.223 136.792C753.807 136.792 752.031 138.584 752.031 141C752.031 143.416 753.807 145.208 756.223 145.208C758.655 145.208 760.415 143.416 760.415 141C760.415 138.584 758.655 136.792 756.223 136.792ZM756.223 143.544C754.895 143.544 753.887 142.504 753.887 141C753.887 139.496 754.895 138.456 756.223 138.456C757.567 138.456 758.559 139.496 758.559 141C758.559 142.504 757.567 143.544 756.223 143.544ZM762.247 145H764.199V141.56C764.199 140.056 765.143 138.664 766.519 138.664C766.775 138.664 766.951 138.728 766.999 138.728V136.84C766.951 136.824 766.743 136.792 766.503 136.792C765.399 136.792 764.567 137.528 764.071 138.504C764.055 138.44 764.071 138.216 764.071 137.944C764.071 137.64 764.055 137.32 764.039 137H762.247V145ZM771.953 136.792C769.697 136.792 767.953 138.584 767.953 141C767.953 143.464 769.664 145.208 772.321 145.208C773.665 145.208 774.737 144.888 775.297 144.584V142.872C774.753 143.208 773.585 143.544 772.465 143.544C770.993 143.544 770.033 142.744 769.985 141.4H775.569C775.569 141.256 775.617 140.904 775.617 140.536C775.617 138.552 774.353 136.792 771.953 136.792ZM773.729 140.264H769.985C770.081 139.256 770.769 138.36 771.921 138.36C773.121 138.36 773.745 139.256 773.729 140.264ZM777.499 137V145H779.451V141.4C779.451 139.976 780.043 138.568 781.547 138.568C782.587 138.568 782.779 139.384 782.779 140.296V145H784.731V141.4C784.731 139.992 785.259 138.568 786.795 138.568C787.787 138.568 788.059 139.352 788.059 140.296V145H790.011V139.992C790.011 137.912 789.099 136.792 787.227 136.792C786.059 136.792 785.051 137.56 784.491 138.504C784.235 137.608 783.563 137.064 782.715 136.888C782.459 136.824 782.187 136.808 781.915 136.824C780.731 136.888 779.707 137.64 779.323 138.6H779.291C779.291 138.536 779.355 138.328 779.355 138.024L779.307 137H777.499Z" fill="black"/>
<rect x="686" y="74" width="128" height="8" rx="4" fill="#333333"/>
<rect x="584" y="74" width="90" height="8" rx="4" fill="#333333"/>
<rect x="584" y="96" width="178" height="8" rx="4" fill="#333333"/>
<rect x="584" y="172" width="58" height="8" rx="4" fill="#333333"/>
<rect x="654" y="172" width="110" height="8" rx="4" fill="#333333"/>
<rect x="584" y="194" width="230" height="8" rx="4" fill="#333333"/>
<path d="M618.893 228.796C618.263 228.436 616.841 227.824 614.969 227.824C611.081 227.824 608.201 230.74 608.201 234.52C608.201 238.318 611.081 241.216 614.969 241.216C616.913 241.216 618.353 240.622 618.983 240.262V238.948C618.047 239.416 616.661 239.938 614.969 239.938C611.819 239.938 609.587 237.598 609.587 234.52C609.587 231.442 611.819 229.102 614.969 229.102C616.589 229.102 617.957 229.624 618.893 230.11V228.796ZM625.134 231.784C622.506 231.784 620.562 233.782 620.562 236.5C620.562 239.218 622.506 241.216 625.134 241.216C627.78 241.216 629.724 239.218 629.724 236.5C629.724 233.782 627.78 231.784 625.134 231.784ZM625.134 240.028C623.244 240.028 621.858 238.552 621.858 236.5C621.858 234.448 623.244 232.972 625.134 232.972C627.042 232.972 628.41 234.448 628.41 236.5C628.41 238.552 627.042 240.028 625.134 240.028ZM632.481 232V241H633.813V236.59C633.813 234.574 635.217 233.026 637.125 233.026C638.817 233.026 639.033 234.268 639.033 235.636V241H640.347V235.33C640.347 233.134 639.573 231.784 637.305 231.784C635.271 231.784 634.047 233.26 633.723 234.088H633.687C633.705 234.07 633.759 233.782 633.759 233.386L633.741 232H632.481ZM642.223 232V233.098H643.771V238.516C643.771 240.568 645.031 241.216 646.273 241.216C647.101 241.216 647.821 241.018 648.217 240.802V239.632C647.695 239.884 647.029 240.046 646.489 240.046C645.679 240.046 645.085 239.56 645.085 238.174V233.098H647.911V232H645.085V229.3H643.771V232H642.223ZM653.764 231.784C651.316 231.784 649.408 233.782 649.408 236.5C649.408 239.29 651.334 241.216 654.088 241.216C655.492 241.216 656.698 240.838 657.454 240.388V239.128C656.608 239.686 655.348 240.028 654.142 240.028C652.144 240.028 650.83 238.732 650.794 236.77V236.698H657.76C657.76 236.536 657.778 236.266 657.778 235.978C657.778 233.764 656.356 231.784 653.764 231.784ZM656.446 235.726H650.83C650.992 234.286 652.036 232.936 653.746 232.936C655.528 232.936 656.464 234.286 656.446 235.726ZM660.483 232V241H661.815V236.59C661.815 234.574 663.219 233.026 665.127 233.026C666.819 233.026 667.035 234.268 667.035 235.636V241H668.349V235.33C668.349 233.134 667.575 231.784 665.307 231.784C663.273 231.784 662.049 233.26 661.725 234.088H661.689C661.707 234.07 661.761 233.782 661.761 233.386L661.743 232H660.483ZM670.225 232V233.098H671.773V238.516C671.773 240.568 673.033 241.216 674.275 241.216C675.103 241.216 675.823 241.018 676.219 240.802V239.632C675.697 239.884 675.031 240.046 674.491 240.046C673.681 240.046 673.087 239.56 673.087 238.174V233.098H675.913V232H673.087V229.3H671.773V232H670.225ZM688.797 237.382L692.559 232.504C692.793 232.162 693.081 231.784 693.261 231.496C693.243 231.91 693.243 232.306 693.243 232.702V241H694.575V227.824H694.557L688.797 235.384L683.037 227.824H683.019V241H684.351V232.702C684.351 232.306 684.351 231.91 684.333 231.496L684.693 232L688.797 237.382ZM697.811 233.728C698.333 233.404 699.485 232.972 700.781 232.972C702.275 232.972 703.283 233.566 703.283 235.294V235.852C699.539 235.33 697.253 236.428 697.253 238.66C697.253 240.208 698.405 241.216 700.061 241.216C702.239 241.216 703.301 239.254 703.355 239.092H703.391C703.391 239.092 703.319 239.398 703.337 239.848V241H704.579V235.222C704.579 232.972 703.391 231.784 700.925 231.784C699.503 231.784 698.315 232.18 697.811 232.468V233.728ZM700.259 240.1C699.233 240.1 698.585 239.488 698.585 238.606C698.585 237.184 700.169 236.356 703.247 236.842C703.247 238.408 701.969 240.1 700.259 240.1ZM707.785 232V241H709.117V236.59C709.117 234.574 710.521 233.026 712.429 233.026C714.121 233.026 714.337 234.268 714.337 235.636V241H715.651V235.33C715.651 233.134 714.877 231.784 712.609 231.784C710.575 231.784 709.351 233.26 709.027 234.088H708.991C709.009 234.07 709.063 233.782 709.063 233.386L709.045 232H707.785ZM718.535 233.728C719.057 233.404 720.209 232.972 721.505 232.972C722.999 232.972 724.007 233.566 724.007 235.294V235.852C720.263 235.33 717.977 236.428 717.977 238.66C717.977 240.208 719.129 241.216 720.785 241.216C722.963 241.216 724.025 239.254 724.079 239.092H724.115C724.115 239.092 724.043 239.398 724.061 239.848V241H725.303V235.222C725.303 232.972 724.115 231.784 721.649 231.784C720.227 231.784 719.039 232.18 718.535 232.468V233.728ZM720.983 240.1C719.957 240.1 719.309 239.488 719.309 238.606C719.309 237.184 720.893 236.356 723.971 236.842C723.971 238.408 722.693 240.1 720.983 240.1ZM730.058 238.822C730.058 238.462 730.706 238.138 731.516 238.066H731.588C733.514 238.012 734.936 236.716 734.936 234.952C734.936 234.124 734.576 233.422 734.018 232.936L734.108 232.954C734.108 232.954 734.414 233.026 734.684 233.026H735.998V232H732.758C732.344 231.856 731.858 231.784 731.372 231.784C729.356 231.784 727.808 233.098 727.808 234.952C727.808 236.32 728.654 237.4 729.932 237.868C729.212 238.102 728.744 238.552 728.744 239.056C728.744 239.65 729.266 240.082 730.166 240.19C728.744 240.46 727.61 241.36 727.61 242.44C727.61 244.06 729.23 244.888 731.66 244.888C734.144 244.888 735.854 243.862 735.854 242.188C735.854 240.55 734.504 239.866 732.272 239.632C730.598 239.47 730.058 239.308 730.058 238.822ZM731.372 237.076C730.022 237.076 729.068 236.176 729.068 234.97C729.068 233.764 730.022 232.846 731.372 232.846C732.74 232.846 733.694 233.764 733.694 234.97C733.694 236.176 732.74 237.076 731.372 237.076ZM731.66 243.88C730.04 243.88 728.906 243.34 728.906 242.314C728.906 241.432 729.986 240.658 731.534 240.658C733.784 240.658 734.504 241.396 734.504 242.278C734.504 243.214 733.442 243.88 731.66 243.88ZM741.725 231.784C739.277 231.784 737.369 233.782 737.369 236.5C737.369 239.29 739.295 241.216 742.049 241.216C743.453 241.216 744.659 240.838 745.415 240.388V239.128C744.569 239.686 743.309 240.028 742.103 240.028C740.105 240.028 738.791 238.732 738.755 236.77V236.698H745.721C745.721 236.536 745.739 236.266 745.739 235.978C745.739 233.764 744.317 231.784 741.725 231.784ZM744.407 235.726H738.791C738.953 234.286 739.997 232.936 741.707 232.936C743.489 232.936 744.425 234.286 744.407 235.726ZM748.444 232V241H749.776V236.734C749.776 234.934 750.82 233.026 752.8 233.026C754.42 233.026 754.654 234.286 754.654 235.618V241H755.968V236.734C755.968 234.97 756.94 233.026 758.938 233.026C760.504 233.026 760.846 234.178 760.846 235.636V241H762.16V235.33C762.16 233.116 761.332 231.784 759.064 231.784C757.624 231.784 756.364 232.81 755.824 233.98H755.806C755.554 232.558 754.546 231.784 753.052 231.784C751.576 231.784 750.154 232.81 749.686 234.088H749.65C749.668 234.07 749.722 233.782 749.722 233.386L749.704 232H748.444ZM768.971 231.784C766.523 231.784 764.615 233.782 764.615 236.5C764.615 239.29 766.541 241.216 769.295 241.216C770.699 241.216 771.905 240.838 772.661 240.388V239.128C771.815 239.686 770.555 240.028 769.349 240.028C767.351 240.028 766.037 238.732 766.001 236.77V236.698H772.967C772.967 236.536 772.985 236.266 772.985 235.978C772.985 233.764 771.563 231.784 768.971 231.784ZM771.653 235.726H766.037C766.199 234.286 767.243 232.936 768.953 232.936C770.735 232.936 771.671 234.286 771.653 235.726ZM775.69 232V241H777.022V236.59C777.022 234.574 778.426 233.026 780.334 233.026C782.026 233.026 782.242 234.268 782.242 235.636V241H783.556V235.33C783.556 233.134 782.782 231.784 780.514 231.784C778.48 231.784 777.256 233.26 776.932 234.088H776.896C776.914 234.07 776.968 233.782 776.968 233.386L776.95 232H775.69ZM785.432 232V233.098H786.98V238.516C786.98 240.568 788.24 241.216 789.482 241.216C790.31 241.216 791.03 241.018 791.426 240.802V239.632C790.904 239.884 790.238 240.046 789.698 240.046C788.888 240.046 788.294 239.56 788.294 238.174V233.098H791.12V232H788.294V229.3H786.98V232H785.432Z" fill="white"/>
<rect x="8" y="8" width="270" height="289" rx="14" fill="black"/>
<rect x="28.5" y="28.5" width="69" height="59" rx="5.5" fill="#1A1A1A" stroke="white" stroke-dasharray="3 3"/>
<rect x="108.5" y="28.5" width="69" height="59" rx="5.5" fill="#1A1A1A" stroke="white" stroke-dasharray="3 3"/>
<rect x="188" y="28" width="70" height="60" rx="6" fill="#FFE14D"/>
<rect x="211" y="46" width="24" height="24" rx="2" fill="black"/>
<rect x="28" y="98" width="70" height="60" rx="6" fill="#FF4CE1"/>
<circle cx="63" cy="128" r="14" fill="black"/>
<rect x="108.5" y="98.5" width="69" height="59" rx="5.5" fill="#1A1A1A" stroke="white" stroke-dasharray="3 3"/>
<rect x="188.5" y="98.5" width="69" height="59" rx="5.5" fill="#1A1A1A" stroke="white" stroke-dasharray="3 3"/>
<rect x="28.5" y="168.5" width="69" height="59" rx="5.5" fill="#1A1A1A" stroke="white" stroke-dasharray="3 3"/>
<rect x="108.5" y="168.5" width="69" height="59" rx="5.5" fill="#1A1A1A" stroke="white" stroke-dasharray="3 3"/>
<rect x="188" y="168" width="70" height="60" rx="6" fill="white"/>
<path d="M209.978 207.463L222.156 188.326C222.549 187.708 223.451 187.708 223.844 188.326L236.022 207.463C236.446 208.129 235.967 209 235.178 209H210.822C210.033 209 209.554 208.129 209.978 207.463Z" fill="black"/>
<path d="M52.5045 257.188V256.036H45.0885V268.996H46.4565V263.074H51.5685V261.922H46.4565V257.188H52.5045ZM54.0663 268.996H55.3983V265.036C55.3983 263.254 56.3343 261.076 58.2243 261.076C58.4403 261.076 58.6203 261.112 58.6743 261.13V259.834C58.6203 259.816 58.3863 259.78 58.1343 259.78C56.7843 259.78 55.8123 260.752 55.3263 262.066H55.2903C55.2903 262.03 55.3443 261.742 55.3263 261.382V259.996H54.0663V268.996ZM64.7056 259.78C62.0776 259.78 60.1336 261.778 60.1336 264.496C60.1336 267.214 62.0776 269.212 64.7056 269.212C67.3516 269.212 69.2956 267.214 69.2956 264.496C69.2956 261.778 67.3516 259.78 64.7056 259.78ZM64.7056 268.024C62.8156 268.024 61.4296 266.548 61.4296 264.496C61.4296 262.444 62.8156 260.968 64.7056 260.968C66.6136 260.968 67.9816 262.444 67.9816 264.496C67.9816 266.548 66.6136 268.024 64.7056 268.024ZM72.0521 259.996V268.996H73.3841V264.586C73.3841 262.57 74.7881 261.022 76.6961 261.022C78.3881 261.022 78.6041 262.264 78.6041 263.632V268.996H79.9181V263.326C79.9181 261.13 79.1441 259.78 76.8761 259.78C74.8421 259.78 73.6181 261.256 73.2941 262.084H73.2581C73.2761 262.066 73.3301 261.778 73.3301 261.382L73.3121 259.996H72.0521ZM81.7939 259.996V261.094H83.3419V266.512C83.3419 268.564 84.6019 269.212 85.8439 269.212C86.6719 269.212 87.3919 269.014 87.7879 268.798V267.628C87.2659 267.88 86.5999 268.042 86.0599 268.042C85.2499 268.042 84.6559 267.556 84.6559 266.17V261.094H87.4819V259.996H84.6559V257.296H83.3419V259.996H81.7939ZM88.8353 264.478H94.0373V263.344H88.8353V264.478ZM100.226 259.78C97.7779 259.78 95.8699 261.778 95.8699 264.496C95.8699 267.286 97.7959 269.212 100.55 269.212C101.954 269.212 103.16 268.834 103.916 268.384V267.124C103.07 267.682 101.81 268.024 100.604 268.024C98.6059 268.024 97.2919 266.728 97.2559 264.766V264.694H104.222C104.222 264.532 104.24 264.262 104.24 263.974C104.24 261.76 102.818 259.78 100.226 259.78ZM102.908 263.722H97.2919C97.4539 262.282 98.4979 260.932 100.208 260.932C101.99 260.932 102.926 262.282 102.908 263.722ZM106.945 259.996V268.996H108.277V264.586C108.277 262.57 109.681 261.022 111.589 261.022C113.281 261.022 113.497 262.264 113.497 263.632V268.996H114.811V263.326C114.811 261.13 114.037 259.78 111.769 259.78C109.735 259.78 108.511 261.256 108.187 262.084H108.151C108.169 262.066 108.223 261.778 108.223 261.382L108.205 259.996H106.945ZM125.956 256.036H124.642V260.896C124.642 261.346 124.696 261.634 124.696 261.634H124.66C124.156 260.68 122.914 259.78 121.42 259.78C119.044 259.78 117.262 261.724 117.262 264.496C117.262 267.232 119.044 269.212 121.438 269.212C122.932 269.212 124.228 268.222 124.714 267.178H124.75C124.75 267.178 124.696 267.448 124.696 267.862L124.714 268.996H125.956V256.036ZM121.582 260.968C123.022 260.968 124.624 262.03 124.624 264.496C124.624 266.962 123.022 268.024 121.582 268.024C119.764 268.024 118.558 266.512 118.558 264.496C118.558 262.444 119.764 260.968 121.582 260.968ZM144.035 256.792C143.405 256.432 141.983 255.82 140.111 255.82C136.223 255.82 133.343 258.736 133.343 262.516C133.343 266.314 136.223 269.212 140.111 269.212C142.055 269.212 143.495 268.618 144.125 268.258V266.944C143.189 267.412 141.803 267.934 140.111 267.934C136.961 267.934 134.729 265.594 134.729 262.516C134.729 259.438 136.961 257.098 140.111 257.098C141.731 257.098 143.099 257.62 144.035 258.106V256.792ZM150.276 259.78C147.648 259.78 145.704 261.778 145.704 264.496C145.704 267.214 147.648 269.212 150.276 269.212C152.922 269.212 154.866 267.214 154.866 264.496C154.866 261.778 152.922 259.78 150.276 259.78ZM150.276 268.024C148.386 268.024 147 266.548 147 264.496C147 262.444 148.386 260.968 150.276 260.968C152.184 260.968 153.552 262.444 153.552 264.496C153.552 266.548 152.184 268.024 150.276 268.024ZM157.622 259.996V268.996H158.954V264.73C158.954 262.93 159.998 261.022 161.978 261.022C163.598 261.022 163.832 262.282 163.832 263.614V268.996H165.146V264.73C165.146 262.966 166.118 261.022 168.116 261.022C169.682 261.022 170.024 262.174 170.024 263.632V268.996H171.338V263.326C171.338 261.112 170.51 259.78 168.242 259.78C166.802 259.78 165.542 260.806 165.002 261.976H164.984C164.732 260.554 163.724 259.78 162.23 259.78C160.754 259.78 159.332 260.806 158.864 262.084H158.828C158.846 262.066 158.9 261.778 158.9 261.382L158.882 259.996H157.622ZM174.586 272.956H175.9V268.006C175.9 267.574 175.846 267.286 175.846 267.286H175.882C176.386 268.276 177.628 269.212 179.122 269.212C181.498 269.212 183.28 267.268 183.28 264.496C183.28 261.76 181.498 259.78 179.104 259.78C177.61 259.78 176.314 260.734 175.828 261.742H175.792C175.792 261.742 175.846 261.454 175.846 261.058L175.828 259.996H174.586V272.956ZM178.96 268.024C177.52 268.024 175.918 266.962 175.918 264.496C175.918 262.03 177.52 260.968 178.96 260.968C180.778 260.968 181.984 262.48 181.984 264.496C181.984 266.548 180.778 268.024 178.96 268.024ZM190.09 259.78C187.462 259.78 185.518 261.778 185.518 264.496C185.518 267.214 187.462 269.212 190.09 269.212C192.736 269.212 194.68 267.214 194.68 264.496C194.68 261.778 192.736 259.78 190.09 259.78ZM190.09 268.024C188.2 268.024 186.814 266.548 186.814 264.496C186.814 262.444 188.2 260.968 190.09 260.968C191.998 260.968 193.366 262.444 193.366 264.496C193.366 266.548 191.998 268.024 190.09 268.024ZM197.437 259.996V268.996H198.769V264.586C198.769 262.57 200.173 261.022 202.081 261.022C203.773 261.022 203.989 262.264 203.989 263.632V268.996H205.303V263.326C205.303 261.13 204.529 259.78 202.261 259.78C200.227 259.78 199.003 261.256 198.679 262.084H198.643C198.661 262.066 198.715 261.778 198.715 261.382L198.697 259.996H197.437ZM212.111 259.78C209.663 259.78 207.755 261.778 207.755 264.496C207.755 267.286 209.681 269.212 212.435 269.212C213.839 269.212 215.045 268.834 215.801 268.384V267.124C214.955 267.682 213.695 268.024 212.489 268.024C210.491 268.024 209.177 266.728 209.141 264.766V264.694H216.107C216.107 264.532 216.125 264.262 216.125 263.974C216.125 261.76 214.703 259.78 212.111 259.78ZM214.793 263.722H209.177C209.339 262.282 210.383 260.932 212.093 260.932C213.875 260.932 214.811 262.282 214.793 263.722ZM218.829 259.996V268.996H220.161V264.586C220.161 262.57 221.565 261.022 223.473 261.022C225.165 261.022 225.381 262.264 225.381 263.632V268.996H226.695V263.326C226.695 261.13 225.921 259.78 223.653 259.78C221.619 259.78 220.395 261.256 220.071 262.084H220.035C220.053 262.066 220.107 261.778 220.107 261.382L220.089 259.996H218.829ZM228.571 259.996V261.094H230.119V266.512C230.119 268.564 231.379 269.212 232.621 269.212C233.449 269.212 234.169 269.014 234.565 268.798V267.628C234.043 267.88 233.377 268.042 232.837 268.042C232.027 268.042 231.433 267.556 231.433 266.17V261.094H234.259V259.996H231.433V257.296H230.119V259.996H228.571ZM240.635 266.746C240.635 267.682 239.699 268.078 238.637 268.078C237.791 268.078 236.675 267.79 235.757 267.376V268.618C236.513 268.978 237.575 269.212 238.691 269.212C240.545 269.212 241.895 268.366 241.895 266.746C241.895 265.27 240.941 264.568 239.015 263.938C237.665 263.506 236.981 263.11 236.981 262.282C236.981 261.4 237.809 260.932 238.997 260.932C239.789 260.932 240.707 261.202 241.373 261.562V260.32C240.743 260.014 239.789 259.78 238.871 259.78C237.035 259.78 235.703 260.77 235.703 262.264C235.703 263.794 236.891 264.514 238.457 265.018C239.933 265.486 240.635 265.846 240.635 266.746Z" fill="white"/>
<rect x="286" y="226" width="270" height="326" rx="14" fill="black"/>
<path d="M421 433V425C421 409.536 408.464 397 393 397H349" stroke="#4D4D4D" stroke-width="2" stroke-linecap="round"/>
<path d="M421 438V347C421 331.536 408.464 319 393 319H360" stroke="#4D4D4D" stroke-width="2" stroke-linecap="round"/>
<circle cx="362" cy="319" r="12" fill="#4D4D4D"/>
<circle cx="362" cy="397" r="18" fill="black" stroke="#FFE14D" stroke-width="4"/>
<path d="M473 277C460.501 277 454.395 277 448.998 277C433.534 277 421 289.536 421 305V447C421 462.464 408.464 475 393 475H334" stroke="#4D4D4D" stroke-width="2" stroke-linecap="round"/>
<circle cx="334" cy="475" r="6.5" fill="black" stroke="#4D4D4D" stroke-width="3"/>
<circle cx="472" cy="277" r="15" fill="url(#paint3_linear_505_2484)"/>
<circle cx="472" cy="277" r="15" fill="url(#paint4_linear_505_2484)"/>
<path d="M493 370H449C433.536 370 421 382.536 421 398V447C421 462.464 433.536 475 449 475H508" stroke="#4D4D4D" stroke-width="2" stroke-linecap="round"/>
<circle cx="508" cy="475" r="6.5" fill="black" stroke="#4D4D4D" stroke-width="3"/>
<circle cx="482" cy="370" r="18" fill="white"/>
<path d="M347.364 511.036H345.996V519.46C345.996 521.638 344.682 522.934 342.504 522.934C340.326 522.934 339.03 521.638 339.03 519.46V511.036H337.662V519.532C337.662 522.466 339.48 524.212 342.504 524.212C345.546 524.212 347.364 522.466 347.364 519.532V511.036ZM350.553 514.996V523.996H351.885V519.586C351.885 517.57 353.289 516.022 355.197 516.022C356.889 516.022 357.105 517.264 357.105 518.632V523.996H358.419V518.326C358.419 516.13 357.645 514.78 355.377 514.78C353.343 514.78 352.119 516.256 351.795 517.084H351.759C351.777 517.066 351.831 516.778 351.831 516.382L351.813 514.996H350.553ZM361.429 512.368C361.429 512.872 361.771 513.232 362.311 513.232C362.815 513.232 363.193 512.872 363.193 512.368C363.193 511.864 362.815 511.504 362.311 511.504C361.771 511.504 361.429 511.864 361.429 512.368ZM361.645 514.996V523.996H362.977V514.996H361.645ZM365.344 514.996V516.094H366.748V523.996H368.062V516.094H370.528V514.996H368.026V514.006C368.026 512.692 368.746 511.99 370.006 511.99C370.438 511.99 370.798 512.062 370.942 512.098V510.928C370.798 510.892 370.366 510.82 369.88 510.82C367.936 510.82 366.784 512.026 366.784 513.916V514.996H365.344ZM372.275 512.368C372.275 512.872 372.617 513.232 373.157 513.232C373.661 513.232 374.039 512.872 374.039 512.368C374.039 511.864 373.661 511.504 373.157 511.504C372.617 511.504 372.275 511.864 372.275 512.368ZM372.491 514.996V523.996H373.823V514.996H372.491ZM380.924 514.78C378.476 514.78 376.568 516.778 376.568 519.496C376.568 522.286 378.494 524.212 381.248 524.212C382.652 524.212 383.858 523.834 384.614 523.384V522.124C383.768 522.682 382.508 523.024 381.302 523.024C379.304 523.024 377.99 521.728 377.954 519.766V519.694H384.92C384.92 519.532 384.938 519.262 384.938 518.974C384.938 516.76 383.516 514.78 380.924 514.78ZM383.606 518.722H377.99C378.152 517.282 379.196 515.932 380.906 515.932C382.688 515.932 383.624 517.282 383.606 518.722ZM395.827 511.036H394.513V515.896C394.513 516.346 394.567 516.634 394.567 516.634H394.531C394.027 515.68 392.785 514.78 391.291 514.78C388.915 514.78 387.133 516.724 387.133 519.496C387.133 522.232 388.915 524.212 391.309 524.212C392.803 524.212 394.099 523.222 394.585 522.178H394.621C394.621 522.178 394.567 522.448 394.567 522.862L394.585 523.996H395.827V511.036ZM391.453 515.968C392.893 515.968 394.495 517.03 394.495 519.496C394.495 521.962 392.893 523.024 391.453 523.024C389.635 523.024 388.429 521.512 388.429 519.496C388.429 517.444 389.635 515.968 391.453 515.968ZM407.857 523.996C411.691 523.996 414.625 521.512 414.625 517.516C414.625 513.52 411.655 511.036 407.785 511.036H404.203V523.996H407.857ZM407.767 512.188C410.881 512.188 413.221 514.258 413.221 517.516C413.221 520.774 410.899 522.844 407.857 522.844H405.571V512.188H407.767ZM421.037 514.78C418.589 514.78 416.681 516.778 416.681 519.496C416.681 522.286 418.607 524.212 421.361 524.212C422.765 524.212 423.971 523.834 424.727 523.384V522.124C423.881 522.682 422.621 523.024 421.415 523.024C419.417 523.024 418.103 521.728 418.067 519.766V519.694H425.033C425.033 519.532 425.051 519.262 425.051 518.974C425.051 516.76 423.629 514.78 421.037 514.78ZM423.719 518.722H418.103C418.265 517.282 419.309 515.932 421.019 515.932C422.801 515.932 423.737 517.282 423.719 518.722ZM427.756 521.8C427.756 523.546 428.638 524.212 429.898 524.212C430.492 524.212 430.87 524.104 430.942 524.086V522.934C430.87 522.952 430.564 523.024 430.186 523.024C429.376 523.024 429.088 522.556 429.088 521.53V511.036H427.756V521.8ZM432.954 512.368C432.954 512.872 433.296 513.232 433.836 513.232C434.34 513.232 434.718 512.872 434.718 512.368C434.718 511.864 434.34 511.504 433.836 511.504C433.296 511.504 432.954 511.864 432.954 512.368ZM433.17 514.996V523.996H434.502V514.996H433.17ZM443.584 514.996C442.594 517.318 441.568 519.712 440.668 521.926C439.75 519.712 438.724 517.318 437.734 514.996H436.312L440.38 524.212H440.938L445.024 514.996H443.584ZM450.41 514.78C447.962 514.78 446.054 516.778 446.054 519.496C446.054 522.286 447.98 524.212 450.734 524.212C452.138 524.212 453.344 523.834 454.1 523.384V522.124C453.254 522.682 451.994 523.024 450.788 523.024C448.79 523.024 447.476 521.728 447.44 519.766V519.694H454.406C454.406 519.532 454.424 519.262 454.424 518.974C454.424 516.76 453.002 514.78 450.41 514.78ZM453.092 518.722H447.476C447.638 517.282 448.682 515.932 450.392 515.932C452.174 515.932 453.11 517.282 453.092 518.722ZM456.985 523.996H458.317V520.036C458.317 518.254 459.253 516.076 461.143 516.076C461.359 516.076 461.539 516.112 461.593 516.13V514.834C461.539 514.816 461.305 514.78 461.053 514.78C459.703 514.78 458.731 515.752 458.245 517.066H458.209C458.209 517.03 458.263 516.742 458.245 516.382V514.996H456.985V523.996ZM462.851 528.01C463.049 528.1 463.481 528.172 463.913 528.172C466.325 528.172 467.225 526.372 468.449 523.456L472.013 514.996H470.537L469.205 518.29C468.701 519.55 468.053 521.242 467.531 522.448C466.991 521.062 466.415 519.676 465.857 518.29L464.525 514.996H463.049L466.829 523.852C466.055 525.688 465.353 527.02 463.805 527.02C463.373 527.02 463.067 526.966 462.851 526.894V528.01ZM476.953 523.996H478.411L479.761 520.864H485.935L487.321 523.996H488.761L482.875 510.82H482.839L476.953 523.996ZM480.283 519.73C481.219 517.588 482.029 515.716 482.857 513.682C483.685 515.716 484.495 517.588 485.431 519.73H480.283ZM495.135 518.74C497.817 518.74 499.455 517.3 499.455 514.888C499.455 512.476 497.817 511.036 495.135 511.036H491.373V523.996H492.741V518.74H495.135ZM495.081 512.188C496.953 512.188 498.051 513.214 498.051 514.888C498.051 516.58 496.989 517.588 495.171 517.588H492.741V512.188H495.081ZM504.026 523.996V511.036H502.658V523.996H504.026Z" fill="white"/>
<rect x="8" y="305" width="270" height="247" rx="14" fill="black"/>
<path d="M84.1897 373.08H81.4537V389.928C81.4537 394.284 78.8257 396.876 74.4697 396.876C70.1137 396.876 67.5217 394.284 67.5217 389.928V373.08H64.7857V390.072C64.7857 395.94 68.4217 399.432 74.4697 399.432C80.5537 399.432 84.1897 395.94 84.1897 390.072V373.08ZM98.5993 394.5C98.5993 396.372 96.7273 397.164 94.6033 397.164C92.9113 397.164 90.6793 396.588 88.8433 395.76V398.244C90.3553 398.964 92.4793 399.432 94.7113 399.432C98.4193 399.432 101.119 397.74 101.119 394.5C101.119 391.548 99.2113 390.144 95.3593 388.884C92.6593 388.02 91.2913 387.228 91.2913 385.572C91.2913 383.808 92.9473 382.872 95.3233 382.872C96.9073 382.872 98.7433 383.412 100.075 384.132V381.648C98.8153 381.036 96.9073 380.568 95.0713 380.568C91.3993 380.568 88.7353 382.548 88.7353 385.536C88.7353 388.596 91.1113 390.036 94.2433 391.044C97.1953 391.98 98.5993 392.7 98.5993 394.5ZM113.481 380.568C108.585 380.568 104.769 384.564 104.769 390C104.769 395.58 108.621 399.432 114.129 399.432C116.937 399.432 119.349 398.676 120.861 397.776V395.256C119.169 396.372 116.649 397.056 114.237 397.056C110.241 397.056 107.613 394.464 107.541 390.54V390.396H121.473C121.473 390.072 121.509 389.532 121.509 388.956C121.509 384.528 118.665 380.568 113.481 380.568ZM118.845 388.452H107.613C107.937 385.572 110.025 382.872 113.445 382.872C117.009 382.872 118.881 385.572 118.845 388.452ZM143.645 380.568C138.749 380.568 134.933 384.564 134.933 390C134.933 395.58 138.785 399.432 144.293 399.432C147.101 399.432 149.513 398.676 151.025 397.776V395.256C149.333 396.372 146.813 397.056 144.401 397.056C140.405 397.056 137.777 394.464 137.705 390.54V390.396H151.637C151.637 390.072 151.673 389.532 151.673 388.956C151.673 384.528 148.829 380.568 143.645 380.568ZM149.009 388.452H137.777C138.101 385.572 140.189 382.872 143.609 382.872C147.173 382.872 149.045 385.572 149.009 388.452ZM168.207 381C166.227 385.644 164.175 390.432 162.375 394.86C160.539 390.432 158.487 385.644 156.507 381H153.663L161.799 399.432H162.915L171.087 381H168.207ZM181.86 380.568C176.964 380.568 173.148 384.564 173.148 390C173.148 395.58 177 399.432 182.508 399.432C185.316 399.432 187.728 398.676 189.24 397.776V395.256C187.548 396.372 185.028 397.056 182.616 397.056C178.62 397.056 175.992 394.464 175.92 390.54V390.396H189.852C189.852 390.072 189.888 389.532 189.888 388.956C189.888 384.528 187.044 380.568 181.86 380.568ZM187.224 388.452H175.992C176.316 385.572 178.404 382.872 181.824 382.872C185.388 382.872 187.26 385.572 187.224 388.452ZM195.01 399H197.674V391.08C197.674 387.516 199.546 383.16 203.326 383.16C203.758 383.16 204.118 383.232 204.226 383.268V380.676C204.118 380.64 203.65 380.568 203.146 380.568C200.446 380.568 198.502 382.512 197.53 385.14H197.458C197.458 385.068 197.566 384.492 197.53 383.772V381H195.01V399ZM206.741 407.028C207.137 407.208 208.001 407.352 208.865 407.352C213.689 407.352 215.489 403.752 217.937 397.92L225.065 381H222.113L219.449 387.588C218.441 390.108 217.145 393.492 216.101 395.904C215.021 393.132 213.869 390.36 212.753 387.588L210.089 381H207.137L214.697 398.712C213.149 402.384 211.745 405.048 208.649 405.048C207.785 405.048 207.173 404.94 206.741 404.796V407.028ZM80.4596 426V444H83.1236V435.468C83.1236 431.868 85.2116 428.052 89.1716 428.052C92.4116 428.052 92.8796 430.572 92.8796 433.236V444H95.5076V435.468C95.5076 431.94 97.4516 428.052 101.448 428.052C104.58 428.052 105.264 430.356 105.264 433.272V444H107.892V432.66C107.892 428.232 106.236 425.568 101.7 425.568C98.8196 425.568 96.2996 427.62 95.2196 429.96H95.1836C94.6796 427.116 92.6636 425.568 89.6756 425.568C86.7236 425.568 83.8796 427.62 82.9436 430.176H82.8716C82.9076 430.14 83.0156 429.564 83.0156 428.772L82.9796 426H80.4596ZM121.946 425.568C116.69 425.568 112.802 429.564 112.802 435C112.802 440.436 116.69 444.432 121.946 444.432C127.238 444.432 131.126 440.436 131.126 435C131.126 429.564 127.238 425.568 121.946 425.568ZM121.946 442.056C118.166 442.056 115.394 439.104 115.394 435C115.394 430.896 118.166 427.944 121.946 427.944C125.762 427.944 128.498 430.896 128.498 435C128.498 439.104 125.762 442.056 121.946 442.056ZM153.007 418.08H150.379V427.8C150.379 428.7 150.487 429.276 150.487 429.276H150.415C149.407 427.368 146.923 425.568 143.935 425.568C139.183 425.568 135.619 429.456 135.619 435C135.619 440.472 139.183 444.432 143.971 444.432C146.959 444.432 149.551 442.452 150.523 440.364H150.595C150.595 440.364 150.487 440.904 150.487 441.732L150.523 444H153.007V418.08ZM144.259 427.944C147.139 427.944 150.343 430.068 150.343 435C150.343 439.932 147.139 442.056 144.259 442.056C140.623 442.056 138.211 439.032 138.211 435C138.211 430.896 140.623 427.944 144.259 427.944ZM159.549 437.34C159.549 441.876 161.205 444.432 165.633 444.432C169.593 444.432 171.933 441.48 172.617 439.824H172.689C172.689 439.86 172.545 440.436 172.545 441.228L172.581 444H175.101V426H172.437V434.82C172.437 438.708 169.845 441.948 165.993 441.948C162.609 441.948 162.177 439.464 162.177 436.728V426H159.549V437.34ZM182.167 439.608C182.167 443.1 183.931 444.432 186.451 444.432C187.639 444.432 188.395 444.216 188.539 444.18V441.876C188.395 441.912 187.783 442.056 187.027 442.056C185.407 442.056 184.831 441.12 184.831 439.068V418.08H182.167V439.608ZM200.159 425.568C195.263 425.568 191.447 429.564 191.447 435C191.447 440.58 195.299 444.432 200.807 444.432C203.615 444.432 206.027 443.676 207.539 442.776V440.256C205.847 441.372 203.327 442.056 200.915 442.056C196.919 442.056 194.291 439.464 194.219 435.54V435.396H208.151C208.151 435.072 208.187 434.532 208.187 433.956C208.187 429.528 205.343 425.568 200.159 425.568ZM205.523 433.452H194.291C194.615 430.572 196.703 427.872 200.123 427.872C203.687 427.872 205.559 430.572 205.523 433.452ZM67.9958 484.5C67.9958 486.372 66.1238 487.164 63.9998 487.164C62.3078 487.164 60.0758 486.588 58.2398 485.76V488.244C59.7518 488.964 61.8758 489.432 64.1078 489.432C67.8158 489.432 70.5158 487.74 70.5158 484.5C70.5158 481.548 68.6078 480.144 64.7558 478.884C62.0558 478.02 60.6878 477.228 60.6878 475.572C60.6878 473.808 62.3438 472.872 64.7198 472.872C66.3038 472.872 68.1398 473.412 69.4718 474.132V471.648C68.2118 471.036 66.3038 470.568 64.4678 470.568C60.7958 470.568 58.1318 472.548 58.1318 475.536C58.1318 478.596 60.5078 480.036 63.6398 481.044C66.5918 481.98 67.9958 482.7 67.9958 484.5ZM82.8775 470.568C77.9815 470.568 74.1655 474.564 74.1655 480C74.1655 485.58 78.0175 489.432 83.5255 489.432C86.3335 489.432 88.7455 488.676 90.2575 487.776V485.256C88.5655 486.372 86.0455 487.056 83.6335 487.056C79.6375 487.056 77.0095 484.464 76.9375 480.54V480.396H90.8695C90.8695 480.072 90.9055 479.532 90.9055 478.956C90.9055 474.528 88.0615 470.568 82.8775 470.568ZM88.2415 478.452H77.0095C77.3335 475.572 79.4215 472.872 82.8415 472.872C86.4055 472.872 88.2775 475.572 88.2415 478.452ZM96.3511 496.92H98.9791V487.02C98.9791 486.156 98.8711 485.58 98.8711 485.58H98.9431C99.9511 487.56 102.435 489.432 105.423 489.432C110.175 489.432 113.739 485.544 113.739 480C113.739 474.528 110.175 470.568 105.387 470.568C102.399 470.568 99.8071 472.476 98.8351 474.492H98.7631C98.7631 474.492 98.8711 473.916 98.8711 473.124L98.8351 471H96.3511V496.92ZM105.099 487.056C102.219 487.056 99.0151 484.932 99.0151 480C99.0151 475.068 102.219 472.944 105.099 472.944C108.735 472.944 111.147 475.968 111.147 480C111.147 484.104 108.735 487.056 105.099 487.056ZM118.553 474.456C119.597 473.808 121.901 472.944 124.493 472.944C127.481 472.944 129.497 474.132 129.497 477.588V478.704C122.009 477.66 117.437 479.856 117.437 484.32C117.437 487.416 119.741 489.432 123.053 489.432C127.409 489.432 129.533 485.508 129.641 485.184H129.713C129.713 485.184 129.569 485.796 129.605 486.696V489H132.089V477.444C132.089 472.944 129.713 470.568 124.781 470.568C121.937 470.568 119.561 471.36 118.553 471.936V474.456ZM123.449 487.2C121.397 487.2 120.101 485.976 120.101 484.212C120.101 481.368 123.269 479.712 129.425 480.684C129.425 483.816 126.869 487.2 123.449 487.2ZM138.215 489H140.879V481.08C140.879 477.516 142.751 473.16 146.531 473.16C146.963 473.16 147.323 473.232 147.431 473.268V470.676C147.323 470.64 146.855 470.568 146.351 470.568C143.651 470.568 141.707 472.512 140.735 475.14H140.663C140.663 475.068 140.771 474.492 140.735 473.772V471H138.215V489ZM151.213 474.456C152.257 473.808 154.561 472.944 157.153 472.944C160.141 472.944 162.157 474.132 162.157 477.588V478.704C154.669 477.66 150.097 479.856 150.097 484.32C150.097 487.416 152.401 489.432 155.713 489.432C160.069 489.432 162.193 485.508 162.301 485.184H162.373C162.373 485.184 162.229 485.796 162.265 486.696V489H164.749V477.444C164.749 472.944 162.373 470.568 157.441 470.568C154.597 470.568 152.221 471.36 151.213 471.936V474.456ZM156.109 487.2C154.057 487.2 152.761 485.976 152.761 484.212C152.761 481.368 155.929 479.712 162.085 480.684C162.085 483.816 159.529 487.2 156.109 487.2ZM168.99 471V473.196H172.086V484.032C172.086 488.136 174.606 489.432 177.09 489.432C178.746 489.432 180.186 489.036 180.978 488.604V486.264C179.934 486.768 178.602 487.092 177.522 487.092C175.902 487.092 174.714 486.12 174.714 483.348V473.196H180.366V471H174.714V465.6H172.086V471H168.99ZM192.073 470.568C187.177 470.568 183.361 474.564 183.361 480C183.361 485.58 187.213 489.432 192.721 489.432C195.529 489.432 197.941 488.676 199.453 487.776V485.256C197.761 486.372 195.241 487.056 192.829 487.056C188.833 487.056 186.205 484.464 186.133 480.54V480.396H200.065C200.065 480.072 200.101 479.532 200.101 478.956C200.101 474.528 197.257 470.568 192.073 470.568ZM197.437 478.452H186.205C186.529 475.572 188.617 472.872 192.037 472.872C195.601 472.872 197.473 475.572 197.437 478.452ZM205.51 484.608C205.51 488.1 207.274 489.432 209.794 489.432C210.982 489.432 211.738 489.216 211.882 489.18V486.876C211.738 486.912 211.126 487.056 210.37 487.056C208.75 487.056 208.174 486.12 208.174 484.068V463.08H205.51V484.608ZM212.243 497.028C212.639 497.208 213.503 497.352 214.367 497.352C219.191 497.352 220.991 493.752 223.439 487.92L230.567 471H227.615L224.951 477.588C223.943 480.108 222.647 483.492 221.603 485.904C220.523 483.132 219.371 480.36 218.255 477.588L215.591 471H212.639L220.199 488.712C218.651 492.384 217.247 495.048 214.151 495.048C213.287 495.048 212.675 494.94 212.243 494.796V497.028Z" fill="url(#paint5_linear_505_2484)"/>
<rect x="564" y="277" width="270" height="275" rx="14" fill="black"/>
<circle cx="699" cy="394" r="74.5" fill="#1A1A1A" stroke="white" stroke-dasharray="3 3"/>
<circle cx="653" cy="452" r="5" fill="#FFE14D"/>
<circle cx="745" cy="336" r="5" fill="#FFE14D"/>
<circle cx="699" cy="394" r="40" fill="white"/>
<g clip-path="url(#clip0_505_2484)">
<path d="M708.59 408.977C708.566 408.92 706.186 403.191 707.286 399.085L709.325 391.479C710.097 388.597 709.693 385.526 708.201 382.942C706.709 380.358 704.252 378.473 701.37 377.7C698.488 376.928 695.417 377.332 692.833 378.824C690.249 380.316 688.363 382.773 687.591 385.655L685.553 393.262C684.453 397.368 679.528 401.14 679.478 401.177C679.394 401.24 679.33 401.326 679.292 401.424C679.255 401.523 679.245 401.63 679.266 401.733C679.286 401.837 679.335 401.932 679.407 402.009C679.479 402.086 679.571 402.141 679.672 402.169L707.926 409.739C708.028 409.766 708.135 409.765 708.236 409.734C708.336 409.703 708.427 409.645 708.496 409.565C708.565 409.486 708.611 409.389 708.627 409.285C708.644 409.181 708.631 409.074 708.59 408.977Z" fill="black"/>
<path d="M689.748 406.033C689.636 406.973 689.866 407.921 690.396 408.705C690.926 409.488 691.721 410.054 692.635 410.299C693.549 410.544 694.52 410.451 695.371 410.038C696.222 409.624 696.895 408.918 697.268 408.048L689.748 406.033Z" fill="black"/>
</g>
<circle cx="710" cy="383" r="8" fill="#E300BD" stroke="white" stroke-width="2"/>
<path d="M620.263 524.216H620.281V511.04H618.913V519.644C618.913 520.076 618.931 520.436 618.931 520.796L618.553 520.346L610.291 510.824H610.273V524H611.641V515.396C611.641 514.982 611.623 514.604 611.623 514.244C611.731 514.388 611.875 514.55 612.001 514.694L620.263 524.216ZM627.658 514.784C625.03 514.784 623.086 516.782 623.086 519.5C623.086 522.218 625.03 524.216 627.658 524.216C630.304 524.216 632.248 522.218 632.248 519.5C632.248 516.782 630.304 514.784 627.658 514.784ZM627.658 523.028C625.768 523.028 624.382 521.552 624.382 519.5C624.382 517.448 625.768 515.972 627.658 515.972C629.566 515.972 630.934 517.448 630.934 519.5C630.934 521.552 629.566 523.028 627.658 523.028ZM633.654 515V516.098H635.202V521.516C635.202 523.568 636.462 524.216 637.704 524.216C638.532 524.216 639.252 524.018 639.648 523.802V522.632C639.126 522.884 638.46 523.046 637.92 523.046C637.11 523.046 636.516 522.56 636.516 521.174V516.098H639.342V515H636.516V512.3H635.202V515H633.654ZM641.398 512.372C641.398 512.876 641.74 513.236 642.28 513.236C642.784 513.236 643.162 512.876 643.162 512.372C643.162 511.868 642.784 511.508 642.28 511.508C641.74 511.508 641.398 511.868 641.398 512.372ZM641.614 515V524H642.946V515H641.614ZM645.313 515V516.098H646.717V524H648.031V516.098H650.497V515H647.995V514.01C647.995 512.696 648.715 511.994 649.975 511.994C650.407 511.994 650.767 512.066 650.911 512.102V510.932C650.767 510.896 650.335 510.824 649.849 510.824C647.905 510.824 646.753 512.03 646.753 513.92V515H645.313ZM652.243 512.372C652.243 512.876 652.585 513.236 653.125 513.236C653.629 513.236 654.007 512.876 654.007 512.372C654.007 511.868 653.629 511.508 653.125 511.508C652.585 511.508 652.243 511.868 652.243 512.372ZM652.459 515V524H653.791V515H652.459ZM657.993 519.5C657.993 517.466 659.361 515.99 661.305 515.99C662.565 515.99 663.411 516.386 664.077 516.8V515.504C663.483 515.18 662.637 514.784 661.251 514.784C658.551 514.784 656.625 516.782 656.625 519.5C656.625 522.218 658.551 524.216 661.251 524.216C662.655 524.216 663.537 523.802 664.131 523.478V522.2C663.519 522.578 662.601 523.01 661.305 523.01C659.343 523.01 657.993 521.534 657.993 519.5ZM666.707 516.728C667.229 516.404 668.381 515.972 669.677 515.972C671.171 515.972 672.179 516.566 672.179 518.294V518.852C668.435 518.33 666.149 519.428 666.149 521.66C666.149 523.208 667.301 524.216 668.957 524.216C671.135 524.216 672.197 522.254 672.251 522.092H672.287C672.287 522.092 672.215 522.398 672.233 522.848V524H673.475V518.222C673.475 515.972 672.287 514.784 669.821 514.784C668.399 514.784 667.211 515.18 666.707 515.468V516.728ZM669.155 523.1C668.129 523.1 667.481 522.488 667.481 521.606C667.481 520.184 669.065 519.356 672.143 519.842C672.143 521.408 670.865 523.1 669.155 523.1ZM675.596 515V516.098H677.144V521.516C677.144 523.568 678.404 524.216 679.646 524.216C680.474 524.216 681.194 524.018 681.59 523.802V522.632C681.068 522.884 680.402 523.046 679.862 523.046C679.052 523.046 678.458 522.56 678.458 521.174V516.098H681.284V515H678.458V512.3H677.144V515H675.596ZM683.339 512.372C683.339 512.876 683.681 513.236 684.221 513.236C684.725 513.236 685.103 512.876 685.103 512.372C685.103 511.868 684.725 511.508 684.221 511.508C683.681 511.508 683.339 511.868 683.339 512.372ZM683.555 515V524H684.887V515H683.555ZM692.205 514.784C689.577 514.784 687.633 516.782 687.633 519.5C687.633 522.218 689.577 524.216 692.205 524.216C694.851 524.216 696.795 522.218 696.795 519.5C696.795 516.782 694.851 514.784 692.205 514.784ZM692.205 523.028C690.315 523.028 688.929 521.552 688.929 519.5C688.929 517.448 690.315 515.972 692.205 515.972C694.113 515.972 695.481 517.448 695.481 519.5C695.481 521.552 694.113 523.028 692.205 523.028ZM699.551 515V524H700.883V519.59C700.883 517.574 702.287 516.026 704.195 516.026C705.887 516.026 706.103 517.268 706.103 518.636V524H707.417V518.33C707.417 516.134 706.643 514.784 704.375 514.784C702.341 514.784 701.117 516.26 700.793 517.088H700.757C700.775 517.07 700.829 516.782 700.829 516.386L700.811 515H699.551ZM722.894 512.192V511.04H715.478V524H716.846V518.078H721.958V516.926H716.846V512.192H722.894ZM728.551 514.784C726.103 514.784 724.195 516.782 724.195 519.5C724.195 522.29 726.121 524.216 728.875 524.216C730.279 524.216 731.485 523.838 732.241 523.388V522.128C731.395 522.686 730.135 523.028 728.929 523.028C726.931 523.028 725.617 521.732 725.581 519.77V519.698H732.547C732.547 519.536 732.565 519.266 732.565 518.978C732.565 516.764 731.143 514.784 728.551 514.784ZM731.233 518.726H725.617C725.779 517.286 726.823 515.936 728.533 515.936C730.315 515.936 731.251 517.286 731.233 518.726ZM739.116 514.784C736.668 514.784 734.76 516.782 734.76 519.5C734.76 522.29 736.686 524.216 739.44 524.216C740.844 524.216 742.05 523.838 742.806 523.388V522.128C741.96 522.686 740.7 523.028 739.494 523.028C737.496 523.028 736.182 521.732 736.146 519.77V519.698H743.112C743.112 519.536 743.13 519.266 743.13 518.978C743.13 516.764 741.708 514.784 739.116 514.784ZM741.798 518.726H736.182C736.344 517.286 737.388 515.936 739.098 515.936C740.88 515.936 741.816 517.286 741.798 518.726ZM754.018 511.04H752.704V515.9C752.704 516.35 752.758 516.638 752.758 516.638H752.722C752.218 515.684 750.976 514.784 749.482 514.784C747.106 514.784 745.324 516.728 745.324 519.5C745.324 522.236 747.106 524.216 749.5 524.216C750.994 524.216 752.29 523.226 752.776 522.182H752.812C752.812 522.182 752.758 522.452 752.758 522.866L752.776 524H754.018V511.04ZM749.644 515.972C751.084 515.972 752.686 517.034 752.686 519.5C752.686 521.966 751.084 523.028 749.644 523.028C747.826 523.028 746.62 521.516 746.62 519.5C746.62 517.448 747.826 515.972 749.644 515.972ZM760.648 524H762.106L763.456 520.868H769.63L771.016 524H772.456L766.57 510.824H766.534L760.648 524ZM763.978 519.734C764.914 517.592 765.724 515.72 766.552 513.686C767.38 515.72 768.19 517.592 769.126 519.734H763.978ZM778.83 518.744C781.512 518.744 783.15 517.304 783.15 514.892C783.15 512.48 781.512 511.04 778.83 511.04H775.068V524H776.436V518.744H778.83ZM778.776 512.192C780.648 512.192 781.746 513.218 781.746 514.892C781.746 516.584 780.684 517.592 778.866 517.592H776.436V512.192H778.776ZM787.721 524V511.04H786.353V524H787.721Z" fill="white"/>
<defs>
<linearGradient id="paint0_linear_505_2484" x1="842" y1="-1.92854e-05" x2="325.551" y2="776.518" gradientUnits="userSpaceOnUse">
<stop offset="0.147222" stop-color="#FFBB33"/>
<stop offset="0.395453" stop-color="white"/>
<stop offset="0.825537" stop-color="#E300BD"/>
<stop offset="0.942384" stop-color="#FF006A"/>
</linearGradient>
<linearGradient id="paint1_linear_505_2484" x1="421" y1="0" x2="421" y2="560" gradientUnits="userSpaceOnUse">
<stop offset="0.546667" stop-opacity="0"/>
<stop offset="1" stop-opacity="0.3"/>
</linearGradient>
<linearGradient id="paint2_linear_505_2484" x1="508" y1="48" x2="330.092" y2="166.673" gradientUnits="userSpaceOnUse">
<stop offset="0.33334" stop-color="white"/>
<stop offset="0.866361" stop-color="#FFEE2E"/>
</linearGradient>
<linearGradient id="paint3_linear_505_2484" x1="487" y1="262" x2="457" y2="292" gradientUnits="userSpaceOnUse">
<stop offset="0.210937" stop-color="#FFBB33"/>
<stop offset="0.539062" stop-color="#E300BD"/>
<stop offset="0.789062" stop-color="#FF006A"/>
</linearGradient>
<linearGradient id="paint4_linear_505_2484" x1="472" y1="262" x2="472" y2="292" gradientUnits="userSpaceOnUse">
<stop offset="0.525" stop-opacity="0"/>
<stop offset="1" stop-opacity="0.3"/>
</linearGradient>
<linearGradient id="paint5_linear_505_2484" x1="231" y1="361" x2="56" y2="496" gradientUnits="userSpaceOnUse">
<stop offset="0.421392" stop-color="white"/>
<stop offset="1" stop-color="white" stop-opacity="0.6"/>
</linearGradient>
<clipPath id="clip0_505_2484">
<rect width="36" height="36" fill="white" transform="translate(684.273 371.955) rotate(15)"/>
</clipPath>
</defs>
</svg>
