<svg width="40" height="40" viewBox="0 0 40 40" fill="none" xmlns="http://www.w3.org/2000/svg">
<path d="M0 8.61702C0 3.85797 3.82743 0 8.54881 0H31.4512C36.1726 0 40 3.85797 40 8.61702V31.383C40 36.142 36.1726 40 31.4512 40H8.54881C3.82743 40 0 36.142 0 31.383V8.61702Z" fill="#00D47E"/>
<path d="M17.397 20.4787C18.1256 20.4787 18.7162 19.8833 18.7162 19.1489C18.7162 18.4145 18.1256 17.8191 17.397 17.8191C16.6684 17.8191 16.0777 18.4145 16.0777 19.1489C16.0777 19.8833 16.6684 20.4787 17.397 20.4787Z" fill="black"/>
<path d="M22.7796 20.4787C23.5082 20.4787 24.0988 19.8833 24.0988 19.1489C24.0988 18.4145 23.5082 17.8191 22.7796 17.8191C22.0509 17.8191 21.4603 18.4145 21.4603 19.1489C21.4603 19.8833 22.0509 20.4787 22.7796 20.4787Z" fill="black"/>
<path d="M15.6286 24.3108C15.744 24.1783 15.944 24.1651 16.0755 24.2814C18.5416 26.4628 21.8408 26.3546 24.0413 24.2878C24.1692 24.1676 24.3696 24.1747 24.4888 24.3037C24.608 24.4327 24.6009 24.6346 24.473 24.7548C22.0296 27.0497 18.3631 27.1542 15.6578 24.7612C15.5263 24.6449 15.5133 24.4432 15.6286 24.3108Z" fill="black"/>
<path fill-rule="evenodd" clip-rule="evenodd" d="M20.0997 9.59102C20.3121 9.04677 20.493 8.58347 20.6601 8.45756C21.1055 8.12206 21.7195 9.88384 21.716 11.5313C21.7409 11.5361 21.7657 11.5409 21.7905 11.5459C22.118 11.321 22.4453 11.0102 22.7195 10.7498C22.9708 10.5112 23.1775 10.3149 23.2987 10.2661C23.4512 10.2045 23.5184 10.7848 23.5977 11.4701C23.6243 11.6999 23.6522 11.9415 23.6852 12.1747C25.3199 12.9518 26.6265 14.2498 27.3583 15.8365L28.2804 15.7326C30.3079 15.5043 32.1351 16.9759 32.3616 19.0195L32.3964 19.3329C32.6218 21.3668 31.1769 23.2008 29.1645 23.4434V24.3617C29.1645 28.1219 26.1404 31.1702 22.4099 31.1702H17.6606C13.9301 31.1702 10.9059 28.1219 10.9059 24.3617V23.4365C8.92157 23.1682 7.5042 21.3487 7.72766 19.3329L7.7624 19.0195C7.98894 16.9759 9.81619 15.5043 11.8437 15.7326L12.9155 15.8533C13.9994 13.4868 16.3611 11.759 19.184 11.4371C19.5531 10.9911 19.8485 10.2345 20.0997 9.59102ZM14.778 21.4295C14.3993 20.8564 14.1778 20.1625 14.1778 19.4149C14.1778 17.4466 15.7135 15.8511 17.6078 15.8511C18.5832 15.8511 19.4635 16.274 20.0881 16.9531C20.7126 16.274 21.5929 15.8511 22.5683 15.8511C24.4627 15.8511 25.9983 17.4466 25.9983 19.4149C25.9983 20.1391 25.7904 20.8129 25.4332 21.3753C26.5082 22.1884 27.1593 23.2515 27.1593 24.4149C27.1593 26.9707 24.017 29.0425 20.1408 29.0425C16.2646 29.0425 13.1224 26.9707 13.1224 24.4149C13.1224 23.2772 13.7451 22.2353 14.778 21.4295ZM11.0427 18.5318C10.7072 18.7711 10.4838 19.1872 10.4838 19.7341C10.4838 19.9104 10.3421 20.0533 10.1672 20.0533C9.99235 20.0533 9.85059 19.9104 9.85059 19.7341C9.85059 19.0043 10.155 18.3831 10.6769 18.0108C11.1988 17.6385 11.8989 17.5426 12.6384 17.7812C12.8049 17.835 12.8967 18.0146 12.8434 18.1825C12.7901 18.3504 12.6119 18.4429 12.4454 18.3892C11.8657 18.2021 11.3784 18.2924 11.0427 18.5318ZM29.6395 19.7341C29.6395 19.1872 29.4162 18.7711 29.0806 18.5318C28.745 18.2924 28.2577 18.2021 27.678 18.3892C27.5114 18.4429 27.3332 18.3504 27.2799 18.1825C27.2266 18.0146 27.3184 17.835 27.4849 17.7812C28.2245 17.5426 28.9245 17.6385 29.4464 18.0108C29.9684 18.3831 30.2728 19.0043 30.2728 19.7341C30.2728 19.9104 30.131 20.0533 29.9561 20.0533C29.7813 20.0533 29.6395 19.9104 29.6395 19.7341Z" fill="black"/>
</svg>
