<svg width="80" height="80" viewBox="0 0 80 80" fill="none" xmlns="http://www.w3.org/2000/svg">
<circle cx="40" cy="40" r="40" fill="#262626"/>
<g clip-path="url(#clip0_19903_30252)">
<path d="M36.1719 34.4853C36.1719 36.2123 37.4451 36.5689 39.085 37.2509V32.168C37.5625 32.3971 36.1719 32.9426 36.1719 34.4853Z" fill="#FFE14D"/>
<path d="M40.918 41.834V47.0773C42.8466 46.7812 43.9466 45.9544 43.9466 44.595C43.9466 42.9725 42.5478 42.4344 40.918 41.834Z" fill="#FFE14D"/>
<path d="M40.0013 18.918C28.3752 18.918 18.918 28.3761 18.918 40.0013C18.918 51.6265 28.3752 61.0846 40.0013 61.0846C51.6274 61.0846 61.0846 51.6265 61.0846 40.0013C61.0846 28.3761 51.6274 18.918 40.0013 18.918ZM46.0834 48.2779C44.9211 49.3082 43.1097 49.8436 40.918 50.0846V53.7513H39.0846V50.2826C36.3667 50.2386 33.9192 49.8225 32.1766 49.0332V45.5655C34.1154 46.5124 36.8544 47.1852 39.0846 47.2091V41.0619L37.486 40.5513C35.6884 39.8611 34.3757 39.037 33.5489 38.0772C32.7211 37.1184 32.3077 35.9322 32.3077 34.5187C32.3077 33.0062 32.8971 31.7632 34.0751 30.787C35.253 29.8126 37.0689 29.2103 39.0846 29.0013V26.2513H40.918V29.0013C43.1427 29.0774 45.3867 29.489 47.3814 30.3112L46.1815 33.3188C44.4609 32.6396 42.6166 32.2344 40.918 32.1024V38.0855L42.3021 38.5621C44.3839 39.3624 45.8249 40.2057 46.6251 41.0931C47.4245 41.9804 47.8251 43.0657 47.8251 44.3472C47.826 45.9376 47.2448 47.2476 46.0834 48.2779Z" fill="#FFE14D"/>
</g>
<defs>
<clipPath id="clip0_19903_30252">
<rect width="44" height="44" fill="white" transform="translate(18 18)"/>
</clipPath>
</defs>
</svg>
