<svg width="13" height="14" viewBox="0 0 13 14" fill="none" xmlns="http://www.w3.org/2000/svg">
<path fill-rule="evenodd" clip-rule="evenodd" d="M8.925 2.37156C10.462 3.24956 11.5 4.93456 11.5 6.86456C11.5 9.69656 9.263 12.0021 6.5 12.0021C3.737 12.0021 1.5 9.69656 1.5 6.86456C1.5 4.58156 2.953 2.64156 4.965 1.97406C5.227 1.88706 5.369 1.60406 5.2825 1.34206C5.1955 1.08006 4.9125 0.938058 4.6505 1.02506C2.2455 1.82256 0.5 4.13556 0.5 6.86456C0.5 10.2556 3.192 13.0021 6.5 13.0021C9.808 13.0021 12.5 10.2556 12.5 6.86456C12.5 4.64906 11.35 2.70756 9.63 1.62856L10.2355 1.46656C10.502 1.39506 10.6605 1.12056 10.589 0.854058C10.5175 0.587558 10.2435 0.429058 9.977 0.500558L8.045 1.01806C7.778 1.08956 7.62 1.36406 7.6915 1.63056L8.209 3.56256C8.2805 3.82906 8.555 3.98756 8.8215 3.91606C9.088 3.84456 9.2465 3.57006 9.175 3.30356L8.925 2.37156Z" fill="currentColor"/>
</svg>
