<svg width="16" height="16" viewBox="0 0 16 16" fill="none" xmlns="http://www.w3.org/2000/svg">
<g clip-path="url(#clip0_27454_1257)">
<path d="M7.47583 0.0121142C7.44146 0.0152389 7.3321 0.0261753 7.23367 0.033987C4.96358 0.238655 2.83722 1.46354 1.49048 3.34616C0.740553 4.39294 0.260913 5.58032 0.0796805 6.83801C0.0156242 7.27703 0.0078125 7.4067 0.0078125 8.00196C0.0078125 8.59721 0.0156242 8.72689 0.0796805 9.16591C0.514013 12.1672 2.64974 14.6888 5.54633 15.6231C6.06503 15.7903 6.61186 15.9043 7.23367 15.9731C7.47583 15.9996 8.52261 15.9996 8.76477 15.9731C9.8381 15.8543 10.7474 15.5887 11.6442 15.131C11.7817 15.0606 11.8082 15.0419 11.7895 15.0263C11.777 15.0169 11.1911 14.231 10.488 13.2811L9.21004 11.5547L7.60863 9.18466C6.72747 7.88166 6.00254 6.81614 5.99629 6.81614C5.99004 6.81458 5.98379 7.8676 5.98067 9.15341C5.97598 11.4048 5.97442 11.4954 5.9463 11.5485C5.90567 11.625 5.87443 11.6563 5.80881 11.6907C5.75881 11.7157 5.71507 11.7203 5.47915 11.7203H5.20887L5.137 11.675C5.09013 11.6454 5.05576 11.6063 5.03232 11.561L4.99951 11.4907L5.00264 8.35818L5.00732 5.22411L5.05576 5.16317C5.08075 5.13036 5.13387 5.08818 5.17137 5.06787C5.23543 5.03662 5.26042 5.0335 5.53071 5.0335C5.84943 5.0335 5.90255 5.046 5.98535 5.13661C6.00879 5.16161 6.87589 6.46773 7.91329 8.04102C8.95069 9.6143 10.3693 11.7625 11.0661 12.8171L12.3316 14.7341L12.3957 14.6919C12.9628 14.3232 13.5627 13.7983 14.0377 13.2514C15.0485 12.0906 15.7 10.6751 15.9188 9.16591C15.9828 8.72689 15.9906 8.59721 15.9906 8.00196C15.9906 7.4067 15.9828 7.27703 15.9188 6.83801C15.4844 3.83674 13.3487 1.31511 10.4521 0.380828C9.94122 0.215219 9.39752 0.101168 8.78821 0.0324247C8.63822 0.0168012 7.60551 -0.000384616 7.47583 0.0121142ZM10.7474 4.84602C10.8224 4.88351 10.8833 4.95538 10.9052 5.03037C10.9177 5.071 10.9208 5.93966 10.9177 7.89728L10.913 10.7064L10.4177 9.94708L9.92091 9.18778V7.14579C9.92091 5.82561 9.92716 5.08349 9.93653 5.04756C9.96153 4.96007 10.0162 4.89132 10.0912 4.8507C10.1553 4.81789 10.1787 4.81477 10.424 4.81477C10.6552 4.81477 10.6958 4.81789 10.7474 4.84602Z" fill="#C3CEF1"/>
<path d="M12.2539 14.7672C12.1992 14.8016 12.182 14.825 12.2305 14.7984C12.2648 14.7781 12.3211 14.7359 12.3117 14.7344C12.307 14.7344 12.2805 14.75 12.2539 14.7672ZM12.1461 14.8375C12.118 14.8594 12.118 14.8609 12.1523 14.8437C12.1711 14.8344 12.1867 14.8234 12.1867 14.8203C12.1867 14.8078 12.1789 14.8109 12.1461 14.8375ZM12.068 14.8844C12.0399 14.9062 12.0399 14.9078 12.0742 14.8906C12.093 14.8812 12.1086 14.8703 12.1086 14.8672C12.1086 14.8547 12.1008 14.8578 12.068 14.8844ZM11.9899 14.9312C11.9617 14.9531 11.9617 14.9547 11.9961 14.9375C12.0149 14.9281 12.0305 14.9172 12.0305 14.914C12.0305 14.9015 12.0227 14.9047 11.9899 14.9312ZM11.8711 14.9937C11.8118 15.025 11.8149 15.0375 11.8742 15.0078C11.9008 14.9937 11.9211 14.9797 11.9211 14.9765C11.9211 14.9656 11.9196 14.9672 11.8711 14.9937Z" fill="#C3CEF1"/>
</g>
<defs>
<clipPath id="clip0_27454_1257">
<rect width="16" height="16" fill="white"/>
</clipPath>
</defs>
</svg>
