<svg width="16" height="16" viewBox="0 0 16 16" fill="none" xmlns="http://www.w3.org/2000/svg">
<g clip-path="url(#clip0_27454_1275)">
<path d="M8.00031 9.4303C8.78791 9.4303 9.42639 8.79182 9.42639 8.00421C9.42639 7.21661 8.78791 6.57812 8.00031 6.57812C7.2127 6.57812 6.57422 7.21661 6.57422 8.00421C6.57422 8.79182 7.2127 9.4303 8.00031 9.4303Z" fill="#C3CEF1"/>
<path d="M7.99983 10.9216C12.226 10.9216 15.652 9.6135 15.652 7.99986C15.652 6.38623 12.226 5.07812 7.99983 5.07812C3.77365 5.07812 0.347656 6.38623 0.347656 7.99986C0.347656 9.6135 3.77365 10.9216 7.99983 10.9216Z" stroke="#C3CEF1" stroke-width="0.635616"/>
<path d="M5.46861 9.46278C7.5817 13.1228 10.4276 15.4357 11.825 14.6289C13.2224 13.8221 12.6423 10.201 10.5292 6.54104C8.41612 2.88106 5.57027 0.568116 4.17282 1.37493C2.77538 2.18175 3.35552 5.8028 5.46861 9.46278Z" stroke="#C3CEF1" stroke-width="0.635616"/>
<path d="M5.46878 6.54118C3.35569 10.2012 2.77555 13.8222 4.17299 14.629C5.57044 15.4358 8.41629 13.1229 10.5294 9.46291C12.6425 5.80294 13.2226 2.18188 11.8252 1.37507C10.4277 0.568252 7.58187 2.8812 5.46878 6.54118Z" stroke="#C3CEF1" stroke-width="0.635616"/>
</g>
<defs>
<clipPath id="clip0_27454_1275">
<rect width="16" height="14.2355" fill="white" transform="translate(0 0.882812)"/>
</clipPath>
</defs>
</svg>
