<svg width="16" height="16" viewBox="0 0 16 16" fill="none" xmlns="http://www.w3.org/2000/svg">
<path fill-rule="evenodd" clip-rule="evenodd" d="M13.9384 12.0508C14.073 13.7799 14.073 14.5905 14.073 15.4752V15.4753H10.0724C10.0724 15.2834 10.0758 15.1078 10.0793 14.9298L10.0793 14.9275L10.0793 14.9273C10.0901 14.3716 10.1014 13.7921 10.0114 12.622C9.89238 10.9086 9.15458 10.5279 7.79798 10.5279H6.59605H1.5058V7.41063H7.98838C9.70198 7.41063 10.5588 6.88933 10.5588 5.50916C10.5588 4.29556 9.70198 3.56012 7.98838 3.56012H1.5058V0.509766H8.70239C12.5818 0.509766 14.5096 2.34206 14.5096 5.26898C14.5096 7.45821 13.153 8.88598 11.3204 9.12394C12.8674 9.43328 13.7718 10.3137 13.9384 12.0508ZM1.49023 13.1343H1.50605H5.73616C6.09391 13.1343 6.31384 13.2672 6.44381 13.4417C6.57318 13.6154 6.61197 13.8283 6.61197 13.9867V15.4739V15.4898H6.59615H1.50605H1.49023V15.4739V13.1501V13.1343Z" fill="#DEE5F7"/>
</svg>
