<svg width="131" height="48" viewBox="0 0 131 48" fill="none" xmlns="http://www.w3.org/2000/svg">
<g clip-path="url(#clip0_14401_13847)">
<path d="M61.6399 26.0395C61.6399 28.1111 60.488 29.5863 58.0613 29.5863C55.4888 29.5863 54.4234 28.1976 54.4234 26.126V13.4688H49.1875V25.9485C49.1875 30.8885 52.1424 33.7841 58.0567 33.7841C63.9392 33.7841 66.8667 30.8293 66.8667 25.9485V13.4733H61.6308V26.0395H61.6399Z" fill="url(#paint0_linear_14401_13847)"/>
<path d="M78.7424 17.8213C76.6435 17.8213 75.1956 18.7091 74.071 20.3345H73.98V18.2629H69.3359V33.4016H74.1575V25.0378C74.1575 23.1756 75.2229 21.8461 76.8165 21.8461C78.3827 21.8461 79.184 22.9388 79.184 24.5369V33.4061H84.0056V23.558C84.0056 20.1888 82.0524 17.8213 78.7424 17.8213Z" fill="url(#paint1_linear_14401_13847)"/>
<path d="M91.2982 12.2627H86.4766V16.1691H91.2982V12.2627Z" fill="url(#paint2_linear_14401_13847)"/>
<path d="M91.2982 18.2627H86.4766V33.4014H91.2982V18.2627Z" fill="url(#paint3_linear_14401_13847)"/>
<path d="M99.7938 13.4736H95.0905V18.2634H93.0781V22.1698H95.0905V29.4136C95.0905 32.6644 97.103 33.5841 99.9121 33.5841C101.214 33.5841 102.129 33.4658 102.544 33.3474V29.8279C102.366 29.8279 101.893 29.8598 101.478 29.8598C100.445 29.8598 99.7938 29.5639 99.7938 28.3801V22.1698H102.544V18.2634H99.7938V13.4736Z" fill="url(#paint4_linear_14401_13847)"/>
<path d="M112.809 24.7097C112.335 26.1894 111.921 28.1973 111.921 28.1973H111.861C111.861 28.1973 111.388 26.1849 110.914 24.7097L108.875 18.2627H103.789L108.256 29.9138C108.875 31.5119 109.171 32.3997 109.171 33.0462C109.171 34.0797 108.611 34.6443 107.19 34.6443H105.533V38.4005H108.665C111.711 38.4005 113.159 37.1576 114.37 33.6108L119.606 18.2627H114.785L112.809 24.7097Z" fill="url(#paint5_linear_14401_13847)"/>
<path d="M21.1805 9.8721L28.1465 13.8924C28.3969 14.0335 28.406 14.4251 28.1465 14.5662L19.8692 19.3469C19.6188 19.4926 19.3228 19.4834 19.0906 19.3469L10.8133 14.5662C10.5584 14.4296 10.5538 14.029 10.8133 13.8924L17.7748 9.8721V2L0 12.2624V32.7872L6.81581 28.8535V20.8129C6.81126 20.5261 7.14818 20.3212 7.39859 20.476L15.6759 25.2566C15.9263 25.4023 16.0675 25.6618 16.0675 25.9305V35.4872C16.072 35.774 15.7351 35.9789 15.4847 35.8241L8.51863 31.8038L1.70282 35.7376L19.4776 46L37.2525 35.7376L30.4367 31.8038L23.4706 35.8241C23.2248 35.9743 22.8787 35.7786 22.8878 35.4872V25.9305C22.8878 25.6436 23.0472 25.3887 23.2794 25.2566L31.5567 20.476C31.8026 20.3257 32.1486 20.517 32.1395 20.8129V28.8535L38.9553 32.7872V12.2624L21.1805 2V9.8721Z" fill="url(#paint6_linear_14401_13847)"/>
<path d="M129.96 20.6172C129.76 20.1483 129.482 19.7385 129.132 19.3879C128.777 19.0328 128.367 18.7596 127.902 18.5593C127.438 18.359 126.937 18.2588 126.4 18.2588C125.863 18.2588 125.366 18.359 124.898 18.5593C124.429 18.7596 124.019 19.0328 123.668 19.3879C123.318 19.7431 123.04 20.1528 122.84 20.6172C122.639 21.0862 122.539 21.5825 122.539 22.1197C122.539 22.6524 122.639 23.1532 122.84 23.6222C123.04 24.0912 123.313 24.5009 123.668 24.8515C124.023 25.2021 124.433 25.4798 124.898 25.6801C125.366 25.8805 125.863 25.9806 126.4 25.9806C126.937 25.9806 127.434 25.8805 127.902 25.6801C128.371 25.4798 128.781 25.2066 129.132 24.8515C129.487 24.4964 129.76 24.0866 129.96 23.6222C130.161 23.1532 130.261 22.657 130.261 22.1197C130.261 21.587 130.161 21.0862 129.96 20.6172ZM128.936 23.5949C128.672 24.0411 128.317 24.3917 127.875 24.6557C127.429 24.9198 126.937 25.0518 126.395 25.0518C125.854 25.0518 125.362 24.9198 124.92 24.6557C124.479 24.3917 124.124 24.0365 123.859 23.5949C123.595 23.1532 123.463 22.657 123.463 22.1197C123.463 21.5779 123.595 21.0862 123.859 20.6445C124.124 20.1984 124.479 19.8478 124.92 19.5837C125.362 19.3196 125.858 19.1876 126.395 19.1876C126.937 19.1876 127.429 19.3196 127.875 19.5837C128.317 19.8478 128.672 20.2029 128.936 20.6445C129.2 21.0862 129.332 21.5825 129.332 22.1197C129.332 22.6615 129.2 23.1532 128.936 23.5949Z" fill="url(#paint7_linear_14401_13847)"/>
<path d="M127.751 22.0969C127.879 21.9148 127.943 21.6963 127.943 21.4322C127.943 21.1772 127.883 20.9632 127.76 20.7948C127.642 20.6263 127.492 20.4988 127.323 20.4169C127.155 20.3349 126.996 20.2939 126.85 20.2939H125.047V23.8544H125.83V22.6478H126.604L127.228 23.8544H128.088L127.355 22.4657C127.505 22.3792 127.642 22.2608 127.751 22.0969ZM126.895 21.9103C126.772 22.015 126.659 22.0696 126.549 22.0696H125.825V20.8722H126.568C126.663 20.8722 126.768 20.9086 126.895 20.9906C127.018 21.068 127.082 21.2182 127.082 21.4322C127.082 21.6462 127.023 21.8055 126.895 21.9103Z" fill="url(#paint8_linear_14401_13847)"/>
</g>
<defs>
<linearGradient id="paint0_linear_14401_13847" x1="58.0271" y1="13.4687" x2="58.0271" y2="33.7841" gradientUnits="userSpaceOnUse">
<stop stop-color="white"/>
<stop offset="1" stop-color="white" stop-opacity="0.6"/>
</linearGradient>
<linearGradient id="paint1_linear_14401_13847" x1="76.6708" y1="17.8213" x2="76.6708" y2="33.4061" gradientUnits="userSpaceOnUse">
<stop stop-color="white"/>
<stop offset="1" stop-color="white" stop-opacity="0.6"/>
</linearGradient>
<linearGradient id="paint2_linear_14401_13847" x1="88.8874" y1="12.2627" x2="88.8874" y2="16.1691" gradientUnits="userSpaceOnUse">
<stop stop-color="white"/>
<stop offset="1" stop-color="white" stop-opacity="0.6"/>
</linearGradient>
<linearGradient id="paint3_linear_14401_13847" x1="88.8874" y1="18.2627" x2="88.8874" y2="33.4014" gradientUnits="userSpaceOnUse">
<stop stop-color="white"/>
<stop offset="1" stop-color="white" stop-opacity="0.6"/>
</linearGradient>
<linearGradient id="paint4_linear_14401_13847" x1="97.8109" y1="13.4736" x2="97.8109" y2="33.5841" gradientUnits="userSpaceOnUse">
<stop stop-color="white"/>
<stop offset="1" stop-color="white" stop-opacity="0.6"/>
</linearGradient>
<linearGradient id="paint5_linear_14401_13847" x1="111.698" y1="18.2627" x2="111.698" y2="38.4005" gradientUnits="userSpaceOnUse">
<stop stop-color="white"/>
<stop offset="1" stop-color="white" stop-opacity="0.6"/>
</linearGradient>
<linearGradient id="paint6_linear_14401_13847" x1="19.4776" y1="2" x2="19.4776" y2="46" gradientUnits="userSpaceOnUse">
<stop stop-color="white"/>
<stop offset="1" stop-color="white" stop-opacity="0.6"/>
</linearGradient>
<linearGradient id="paint7_linear_14401_13847" x1="126.4" y1="18.2588" x2="126.4" y2="25.9806" gradientUnits="userSpaceOnUse">
<stop stop-color="white"/>
<stop offset="1" stop-color="white" stop-opacity="0.6"/>
</linearGradient>
<linearGradient id="paint8_linear_14401_13847" x1="126.568" y1="20.2939" x2="126.568" y2="23.8544" gradientUnits="userSpaceOnUse">
<stop stop-color="white"/>
<stop offset="1" stop-color="white" stop-opacity="0.6"/>
</linearGradient>
<clipPath id="clip0_14401_13847">
<rect width="130.265" height="48" fill="white"/>
</clipPath>
</defs>
</svg>
