<svg width="40" height="40" viewBox="0 0 40 40" fill="none" xmlns="http://www.w3.org/2000/svg">
<path d="M0 8.75C0 3.91751 3.91751 0 8.75 0H31.25C36.0825 0 40 3.91751 40 8.75V31.25C40 36.0825 36.0825 40 31.25 40H8.75C3.91751 40 0 36.0825 0 31.25V8.75Z" fill="white"/>
<path fill-rule="evenodd" clip-rule="evenodd" d="M28.0235 28.4094L32.8915 13.0114C33.2735 11.8041 32.6292 10.5048 31.4545 10.1129C30.2798 9.72093 29.0157 10.3825 28.6343 11.5898L23.7663 26.9873C23.3844 28.1946 24.0286 29.4939 25.2033 29.8858C26.3779 30.2783 27.6421 29.6167 28.0235 28.4094Z" fill="url(#paint0_linear_12487_45547)"/>
<path fill-rule="evenodd" clip-rule="evenodd" d="M28.0235 28.4094L32.8915 13.0114C33.2735 11.8041 32.6292 10.5048 31.4545 10.1129C30.2798 9.72093 29.0157 10.3825 28.6343 11.5898L23.7663 26.9873C23.3844 28.1946 24.0286 29.4939 25.2033 29.8858C26.3779 30.2783 27.6421 29.6167 28.0235 28.4094Z" fill="url(#paint1_linear_12487_45547)"/>
<path fill-rule="evenodd" clip-rule="evenodd" d="M28.0235 28.4094L32.8915 13.0114C33.2735 11.8041 32.6292 10.5048 31.4545 10.1129C30.2798 9.72093 29.0157 10.3825 28.6343 11.5898L23.7663 26.9873C23.3844 28.1946 24.0286 29.4939 25.2033 29.8858C26.3779 30.2783 27.6421 29.6167 28.0235 28.4094Z" fill="url(#paint2_linear_12487_45547)" fill-opacity="0.8"/>
<path fill-rule="evenodd" clip-rule="evenodd" d="M28.0235 28.4094L32.8915 13.0114C33.2735 11.8041 32.6292 10.5048 31.4545 10.1129C30.2798 9.72093 29.0157 10.3825 28.6343 11.5898L23.7663 26.9873C23.3844 28.1946 24.0286 29.4939 25.2033 29.8858C26.3779 30.2783 27.6421 29.6167 28.0235 28.4094Z" fill="url(#paint3_radial_12487_45547)"/>
<path fill-rule="evenodd" clip-rule="evenodd" d="M28.0235 28.4094L32.8915 13.0114C33.2735 11.8041 32.6292 10.5048 31.4545 10.1129C30.2798 9.72093 29.0157 10.3825 28.6343 11.5898L23.7663 26.9873C23.3844 28.1946 24.0286 29.4939 25.2033 29.8858C26.3779 30.2783 27.6421 29.6167 28.0235 28.4094Z" fill="url(#paint4_radial_12487_45547)"/>
<path fill-rule="evenodd" clip-rule="evenodd" d="M28.0235 28.4094L32.8915 13.0114C33.2735 11.8041 32.6292 10.5048 31.4545 10.1129C30.2798 9.72093 29.0157 10.3825 28.6343 11.5898L23.7663 26.9873C23.3844 28.1946 24.0286 29.4939 25.2033 29.8858C26.3779 30.2783 27.6421 29.6167 28.0235 28.4094Z" fill="url(#paint5_radial_12487_45547)"/>
<path fill-rule="evenodd" clip-rule="evenodd" d="M19.9977 19.2844C20.5502 19.2844 20.9575 19.6169 21.3049 20.0339C21.6908 20.4981 21.9991 21.0734 22.2609 21.6844C23.4377 24.4268 23.6582 27.8575 23.6582 27.8575C23.7426 29.1243 24.8119 30.0817 26.0443 29.9949C27.2768 29.9082 28.2084 28.8086 28.124 27.5425C28.124 27.5425 27.8281 23.2574 26.3566 19.8277C25.0947 16.8867 22.9579 14.6836 19.9982 14.6836C17.0386 14.6836 14.9018 16.8867 13.6399 19.8277C12.1677 23.2574 11.8725 27.5425 11.8725 27.5425C11.7881 28.8091 12.7196 29.9082 13.9521 29.9949C15.1846 30.0817 16.2538 29.1243 16.3383 27.8575C16.3383 27.8575 16.5587 24.4273 17.7356 21.6844C17.9974 21.074 18.3056 20.4981 18.6915 20.0339C19.0384 19.6169 19.4457 19.2844 19.9977 19.2844Z" fill="#E63CFE"/>
<path fill-rule="evenodd" clip-rule="evenodd" d="M19.9977 19.2844C20.5502 19.2844 20.9575 19.6169 21.3049 20.0339C21.6908 20.4981 21.9991 21.0734 22.2609 21.6844C23.4377 24.4268 23.6582 27.8575 23.6582 27.8575C23.7426 29.1243 24.8119 30.0817 26.0443 29.9949C27.2768 29.9082 28.2084 28.8086 28.124 27.5425C28.124 27.5425 27.8281 23.2574 26.3566 19.8277C25.0947 16.8867 22.9579 14.6836 19.9982 14.6836C17.0386 14.6836 14.9018 16.8867 13.6399 19.8277C12.1677 23.2574 11.8725 27.5425 11.8725 27.5425C11.7881 28.8091 12.7196 29.9082 13.9521 29.9949C15.1846 30.0817 16.2538 29.1243 16.3383 27.8575C16.3383 27.8575 16.5587 24.4273 17.7356 21.6844C17.9974 21.074 18.3056 20.4981 18.6915 20.0339C19.0384 19.6169 19.4457 19.2844 19.9977 19.2844Z" fill="url(#paint6_radial_12487_45547)"/>
<path fill-rule="evenodd" clip-rule="evenodd" d="M19.9977 19.2844C20.5502 19.2844 20.9575 19.6169 21.3049 20.0339C21.6908 20.4981 21.9991 21.0734 22.2609 21.6844C23.4377 24.4268 23.6582 27.8575 23.6582 27.8575C23.7426 29.1243 24.8119 30.0817 26.0443 29.9949C27.2768 29.9082 28.2084 28.8086 28.124 27.5425C28.124 27.5425 27.8281 23.2574 26.3566 19.8277C25.0947 16.8867 22.9579 14.6836 19.9982 14.6836C17.0386 14.6836 14.9018 16.8867 13.6399 19.8277C12.1677 23.2574 11.8725 27.5425 11.8725 27.5425C11.7881 28.8091 12.7196 29.9082 13.9521 29.9949C15.1846 30.0817 16.2538 29.1243 16.3383 27.8575C16.3383 27.8575 16.5587 24.4273 17.7356 21.6844C17.9974 21.074 18.3056 20.4981 18.6915 20.0339C19.0384 19.6169 19.4457 19.2844 19.9977 19.2844Z" fill="url(#paint7_radial_12487_45547)"/>
<path fill-rule="evenodd" clip-rule="evenodd" d="M19.9977 19.2844C20.5502 19.2844 20.9575 19.6169 21.3049 20.0339C21.6908 20.4981 21.9991 21.0734 22.2609 21.6844C23.4377 24.4268 23.6582 27.8575 23.6582 27.8575C23.7426 29.1243 24.8119 30.0817 26.0443 29.9949C27.2768 29.9082 28.2084 28.8086 28.124 27.5425C28.124 27.5425 27.8281 23.2574 26.3566 19.8277C25.0947 16.8867 22.9579 14.6836 19.9982 14.6836C17.0386 14.6836 14.9018 16.8867 13.6399 19.8277C12.1677 23.2574 11.8725 27.5425 11.8725 27.5425C11.7881 28.8091 12.7196 29.9082 13.9521 29.9949C15.1846 30.0817 16.2538 29.1243 16.3383 27.8575C16.3383 27.8575 16.5587 24.4273 17.7356 21.6844C17.9974 21.074 18.3056 20.4981 18.6915 20.0339C19.0384 19.6169 19.4457 19.2844 19.9977 19.2844Z" fill="url(#paint8_radial_12487_45547)"/>
<path fill-rule="evenodd" clip-rule="evenodd" d="M19.9977 19.2844C20.5502 19.2844 20.9575 19.6169 21.3049 20.0339C21.6908 20.4981 21.9991 21.0734 22.2609 21.6844C23.4377 24.4268 23.6582 27.8575 23.6582 27.8575C23.7426 29.1243 24.8119 30.0817 26.0443 29.9949C27.2768 29.9082 28.2084 28.8086 28.124 27.5425C28.124 27.5425 27.8281 23.2574 26.3566 19.8277C25.0947 16.8867 22.9579 14.6836 19.9982 14.6836C17.0386 14.6836 14.9018 16.8867 13.6399 19.8277C12.1677 23.2574 11.8725 27.5425 11.8725 27.5425C11.7881 28.8091 12.7196 29.9082 13.9521 29.9949C15.1846 30.0817 16.2538 29.1243 16.3383 27.8575C16.3383 27.8575 16.5587 24.4273 17.7356 21.6844C17.9974 21.074 18.3056 20.4981 18.6915 20.0339C19.0384 19.6169 19.4457 19.2844 19.9977 19.2844Z" fill="url(#paint9_radial_12487_45547)"/>
<path fill-rule="evenodd" clip-rule="evenodd" d="M19.9977 19.2844C20.5502 19.2844 20.9575 19.6169 21.3049 20.0339C21.6908 20.4981 21.9991 21.0734 22.2609 21.6844C23.4377 24.4268 23.6582 27.8575 23.6582 27.8575C23.7426 29.1243 24.8119 30.0817 26.0443 29.9949C27.2768 29.9082 28.2084 28.8086 28.124 27.5425C28.124 27.5425 27.8281 23.2574 26.3566 19.8277C25.0947 16.8867 22.9579 14.6836 19.9982 14.6836C17.0386 14.6836 14.9018 16.8867 13.6399 19.8277C12.1677 23.2574 11.8725 27.5425 11.8725 27.5425C11.7881 28.8091 12.7196 29.9082 13.9521 29.9949C15.1846 30.0817 16.2538 29.1243 16.3383 27.8575C16.3383 27.8575 16.5587 24.4273 17.7356 21.6844C17.9974 21.074 18.3056 20.4981 18.6915 20.0339C19.0384 19.6169 19.4457 19.2844 19.9977 19.2844Z" fill="url(#paint10_radial_12487_45547)"/>
<path fill-rule="evenodd" clip-rule="evenodd" d="M19.9977 19.2844C20.5502 19.2844 20.9575 19.6169 21.3049 20.0339C21.6908 20.4981 21.9991 21.0734 22.2609 21.6844C23.4377 24.4268 23.6582 27.8575 23.6582 27.8575C23.7426 29.1243 24.8119 30.0817 26.0443 29.9949C27.2768 29.9082 28.2084 28.8086 28.124 27.5425C28.124 27.5425 27.8281 23.2574 26.3566 19.8277C25.0947 16.8867 22.9579 14.6836 19.9982 14.6836C17.0386 14.6836 14.9018 16.8867 13.6399 19.8277C12.1677 23.2574 11.8725 27.5425 11.8725 27.5425C11.7881 28.8091 12.7196 29.9082 13.9521 29.9949C15.1846 30.0817 16.2538 29.1243 16.3383 27.8575C16.3383 27.8575 16.5587 24.4273 17.7356 21.6844C17.9974 21.074 18.3056 20.4981 18.6915 20.0339C19.0384 19.6169 19.4457 19.2844 19.9977 19.2844Z" fill="url(#paint11_radial_12487_45547)"/>
<path fill-rule="evenodd" clip-rule="evenodd" d="M19.9977 19.2844C20.5502 19.2844 20.9575 19.6169 21.3049 20.0339C21.6908 20.4981 21.9991 21.0734 22.2609 21.6844C23.4377 24.4268 23.6582 27.8575 23.6582 27.8575C23.7426 29.1243 24.8119 30.0817 26.0443 29.9949C27.2768 29.9082 28.2084 28.8086 28.124 27.5425C28.124 27.5425 27.8281 23.2574 26.3566 19.8277C25.0947 16.8867 22.9579 14.6836 19.9982 14.6836C17.0386 14.6836 14.9018 16.8867 13.6399 19.8277C12.1677 23.2574 11.8725 27.5425 11.8725 27.5425C11.7881 28.8091 12.7196 29.9082 13.9521 29.9949C15.1846 30.0817 16.2538 29.1243 16.3383 27.8575C16.3383 27.8575 16.5587 24.4273 17.7356 21.6844C17.9974 21.074 18.3056 20.4981 18.6915 20.0339C19.0384 19.6169 19.4457 19.2844 19.9977 19.2844Z" fill="url(#paint12_radial_12487_45547)"/>
<path fill-rule="evenodd" clip-rule="evenodd" d="M19.9977 19.2844C20.5502 19.2844 20.9575 19.6169 21.3049 20.0339C21.6908 20.4981 21.9991 21.0734 22.2609 21.6844C23.4377 24.4268 23.6582 27.8575 23.6582 27.8575C23.7426 29.1243 24.8119 30.0817 26.0443 29.9949C27.2768 29.9082 28.2084 28.8086 28.124 27.5425C28.124 27.5425 27.8281 23.2574 26.3566 19.8277C25.0947 16.8867 22.9579 14.6836 19.9982 14.6836C17.0386 14.6836 14.9018 16.8867 13.6399 19.8277C12.1677 23.2574 11.8725 27.5425 11.8725 27.5425C11.7881 28.8091 12.7196 29.9082 13.9521 29.9949C15.1846 30.0817 16.2538 29.1243 16.3383 27.8575C16.3383 27.8575 16.5587 24.4273 17.7356 21.6844C17.9974 21.074 18.3056 20.4981 18.6915 20.0339C19.0384 19.6169 19.4457 19.2844 19.9977 19.2844Z" fill="url(#paint13_radial_12487_45547)"/>
<path fill-rule="evenodd" clip-rule="evenodd" d="M16.2353 26.9881L11.3673 11.59C10.9859 10.3827 9.72228 9.72057 8.54706 10.1131C7.37239 10.5056 6.72812 11.8043 7.11004 13.0116L11.9781 28.4096C12.36 29.617 13.6236 30.2791 14.7983 29.8866C15.973 29.494 16.6172 28.1954 16.2353 26.9881Z" fill="url(#paint14_linear_12487_45547)"/>
<path fill-rule="evenodd" clip-rule="evenodd" d="M16.2353 26.9881L11.3673 11.59C10.9859 10.3827 9.72228 9.72057 8.54706 10.1131C7.37239 10.5056 6.72812 11.8043 7.11004 13.0116L11.9781 28.4096C12.36 29.617 13.6236 30.2791 14.7983 29.8866C15.973 29.494 16.6172 28.1954 16.2353 26.9881Z" fill="url(#paint15_radial_12487_45547)"/>
<path fill-rule="evenodd" clip-rule="evenodd" d="M16.2353 26.9881L11.3673 11.59C10.9859 10.3827 9.72228 9.72057 8.54706 10.1131C7.37239 10.5056 6.72812 11.8043 7.11004 13.0116L11.9781 28.4096C12.36 29.617 13.6236 30.2791 14.7983 29.8866C15.973 29.494 16.6172 28.1954 16.2353 26.9881Z" fill="url(#paint16_linear_12487_45547)"/>
<path fill-rule="evenodd" clip-rule="evenodd" d="M16.2353 26.9881L11.3673 11.59C10.9859 10.3827 9.72228 9.72057 8.54706 10.1131C7.37239 10.5056 6.72812 11.8043 7.11004 13.0116L11.9781 28.4096C12.36 29.617 13.6236 30.2791 14.7983 29.8866C15.973 29.494 16.6172 28.1954 16.2353 26.9881Z" fill="url(#paint17_radial_12487_45547)"/>
<path fill-rule="evenodd" clip-rule="evenodd" d="M16.2353 26.9881L11.3673 11.59C10.9859 10.3827 9.72228 9.72057 8.54706 10.1131C7.37239 10.5056 6.72812 11.8043 7.11004 13.0116L11.9781 28.4096C12.36 29.617 13.6236 30.2791 14.7983 29.8866C15.973 29.494 16.6172 28.1954 16.2353 26.9881Z" fill="url(#paint18_radial_12487_45547)"/>
<defs>
<linearGradient id="paint0_linear_12487_45547" x1="35.4953" y1="4.95516" x2="27.862" y2="29.0215" gradientUnits="userSpaceOnUse">
<stop stop-color="#4A4EFA"/>
<stop offset="0.548576" stop-color="#E63CFE"/>
</linearGradient>
<linearGradient id="paint1_linear_12487_45547" x1="26.3397" y1="18.8915" x2="30.4887" y2="20.201" gradientUnits="userSpaceOnUse">
<stop offset="0.160046" stop-color="#4A4EFA"/>
<stop offset="0.946031" stop-color="#4A4EFA" stop-opacity="0"/>
</linearGradient>
<linearGradient id="paint2_linear_12487_45547" x1="26.9655" y1="16.8587" x2="29.5721" y2="17.6716" gradientUnits="userSpaceOnUse">
<stop stop-color="#39FBBB"/>
<stop offset="1" stop-color="#39FBBB" stop-opacity="0"/>
</linearGradient>
<radialGradient id="paint3_radial_12487_45547" cx="0" cy="0" r="1" gradientUnits="userSpaceOnUse" gradientTransform="translate(26.0067 22.4896) rotate(-64.7289) scale(13.8113 13.5937)">
<stop offset="0.832168" stop-color="#4A4EFA" stop-opacity="0"/>
<stop offset="1" stop-color="#4A4EFA" stop-opacity="0.75"/>
</radialGradient>
<radialGradient id="paint4_radial_12487_45547" cx="0" cy="0" r="1" gradientUnits="userSpaceOnUse" gradientTransform="translate(25.7444 21.5736) scale(3.01645 6.61626)">
<stop offset="0.169047" stop-color="#11417A"/>
<stop offset="0.926198" stop-color="#4069D4" stop-opacity="0"/>
</radialGradient>
<radialGradient id="paint5_radial_12487_45547" cx="0" cy="0" r="1" gradientUnits="userSpaceOnUse" gradientTransform="translate(29.2359 29.9989) rotate(-90) scale(10.2328 4.78172)">
<stop offset="0.34895" stop-color="#E63CFE"/>
<stop offset="1" stop-color="#E63CFE" stop-opacity="0"/>
</radialGradient>
<radialGradient id="paint6_radial_12487_45547" cx="0" cy="0" r="1" gradientUnits="userSpaceOnUse" gradientTransform="translate(19.2396 22.7599) rotate(-85.8728) scale(10.5414 9.12868)">
<stop stop-color="#39FBBB" stop-opacity="0.5"/>
<stop offset="0.688731" stop-color="#39FBBB"/>
<stop offset="1" stop-color="#39FBBB" stop-opacity="0"/>
</radialGradient>
<radialGradient id="paint7_radial_12487_45547" cx="0" cy="0" r="1" gradientUnits="userSpaceOnUse" gradientTransform="translate(33.8857 28.6956) rotate(-121.974) scale(25.093 6.03887)">
<stop stop-color="#E63CFE"/>
<stop offset="1" stop-color="#E63CFE" stop-opacity="0"/>
</radialGradient>
<radialGradient id="paint8_radial_12487_45547" cx="0" cy="0" r="1" gradientUnits="userSpaceOnUse" gradientTransform="translate(19.6481 26.0139) rotate(-85.1436) scale(11.371 9.54071)">
<stop offset="0.556793" stop-color="#4A4EFA"/>
<stop offset="0.934777" stop-color="#4A4EFA" stop-opacity="0"/>
</radialGradient>
<radialGradient id="paint9_radial_12487_45547" cx="0" cy="0" r="1" gradientUnits="userSpaceOnUse" gradientTransform="translate(16.6411 29.4561) rotate(-69.1238) scale(11.8384 6.93375)">
<stop offset="0.61345" stop-color="#E63CFE"/>
<stop offset="1" stop-color="#E63CFE" stop-opacity="0"/>
</radialGradient>
<radialGradient id="paint10_radial_12487_45547" cx="0" cy="0" r="1" gradientUnits="userSpaceOnUse" gradientTransform="translate(27.846 21.4127) rotate(176.137) scale(14.3804 37.2766)">
<stop offset="0.813918" stop-color="#4A98D0" stop-opacity="0"/>
<stop offset="0.972647" stop-color="#11417A"/>
</radialGradient>
<radialGradient id="paint11_radial_12487_45547" cx="0" cy="0" r="1" gradientUnits="userSpaceOnUse" gradientTransform="translate(15.7775 30.0003) rotate(-90) scale(10.5692 8.55047)">
<stop offset="0.457769" stop-color="#FFAE3C"/>
<stop offset="1" stop-color="#FFAE3C" stop-opacity="0"/>
</radialGradient>
<radialGradient id="paint12_radial_12487_45547" cx="0" cy="0" r="1" gradientUnits="userSpaceOnUse" gradientTransform="translate(28.2736 30.0003) rotate(-90) scale(9.52663 9.28869)">
<stop offset="0.191715" stop-color="#E63CFE"/>
<stop offset="1" stop-color="#E63CFE" stop-opacity="0"/>
</radialGradient>
<radialGradient id="paint13_radial_12487_45547" cx="0" cy="0" r="1" gradientUnits="userSpaceOnUse" gradientTransform="translate(22.8241 30.0003) rotate(-90) scale(7.16874 3.32025)">
<stop offset="0.173611" stop-color="#FFAE3C"/>
<stop offset="1" stop-color="#FFAE3C" stop-opacity="0"/>
</radialGradient>
<linearGradient id="paint14_linear_12487_45547" x1="6.23513" y1="10.961" x2="12.8145" y2="30.9192" gradientUnits="userSpaceOnUse">
<stop offset="0.169527" stop-color="#E63CFE"/>
<stop offset="0.708644" stop-color="#FFAE3C"/>
</linearGradient>
<radialGradient id="paint15_radial_12487_45547" cx="0" cy="0" r="1" gradientUnits="userSpaceOnUse" gradientTransform="translate(11.3804 16.1127) rotate(160.592) scale(3.14445 15.6621)">
<stop offset="0.120383" stop-color="#4A4EFA"/>
<stop offset="1" stop-color="#4A4EFA" stop-opacity="0"/>
</radialGradient>
<linearGradient id="paint16_linear_12487_45547" x1="14.1384" y1="20.3345" x2="13.254" y2="20.6168" gradientUnits="userSpaceOnUse">
<stop stop-color="#E63CFE" stop-opacity="0.33"/>
<stop offset="1" stop-color="#E63CFE" stop-opacity="0"/>
</linearGradient>
<radialGradient id="paint17_radial_12487_45547" cx="0" cy="0" r="1" gradientUnits="userSpaceOnUse" gradientTransform="translate(16.3453 29.9997) rotate(-90) scale(10.3332 11.0064)">
<stop offset="0.465389" stop-color="#FFAE3C"/>
<stop offset="0.92565" stop-color="#FFAE3C" stop-opacity="0"/>
</radialGradient>
<radialGradient id="paint18_radial_12487_45547" cx="0" cy="0" r="1" gradientUnits="userSpaceOnUse" gradientTransform="translate(16.3453 29.9997) rotate(-90) scale(22.6095 22.0447)">
<stop offset="0.843756" stop-color="#E63CFE" stop-opacity="0"/>
<stop offset="1" stop-color="#E63CFE"/>
</radialGradient>
</defs>
</svg>
