<svg width="18" height="18" viewBox="0 0 18 18" fill="none" xmlns="http://www.w3.org/2000/svg">
<path d="M10.996 15.4455C10.7931 15.8803 10.5019 16.2412 10.1515 16.4921C9.80119 16.743 9.40397 16.875 8.99966 16.875C8.59534 16.875 8.19812 16.743 7.84777 16.4921C7.49741 16.2412 7.20622 15.8803 7.00334 15.4455M13.875 5.99397C13.875 4.70264 13.3614 3.4642 12.4471 2.55109C11.5329 1.63798 10.2929 1.125 9 1.125C7.70707 1.125 6.46709 1.63798 5.55285 2.55109C4.63861 3.4642 4.125 4.70264 4.125 5.99397C4.125 11.6744 1.6875 13.2974 1.6875 13.2974H16.3125C16.3125 13.2974 13.875 11.6744 13.875 5.99397Z" stroke="url(#paint0_linear_12178_44082)" stroke-width="1.2" stroke-linecap="round" stroke-linejoin="round"/>
<defs>
<linearGradient id="paint0_linear_12178_44082" x1="1.6875" y1="9" x2="16.3125" y2="9" gradientUnits="userSpaceOnUse">
<stop stop-color="#DD2476"/>
<stop offset="1" stop-color="#FF512F"/>
</linearGradient>
</defs>
</svg>
