<svg width="660" height="420" viewBox="0 0 660 420" fill="none" xmlns="http://www.w3.org/2000/svg">
<circle cx="214" cy="98" r="88" fill="url(#paint0_linear_3077_9596)"/>
<g filter="url(#filter0_dd_3077_9596)">
<mask id="mask0_3077_9596" style="mask-type:alpha" maskUnits="userSpaceOnUse" x="126" y="10" width="176" height="176">
<circle cx="214" cy="98" r="88" fill="#262626"/>
</mask>
<g mask="url(#mask0_3077_9596)">
<path fill-rule="evenodd" clip-rule="evenodd" d="M204.612 191.962C204.798 191.999 204.987 192.009 205.175 191.992L232.175 189.622C232.339 189.608 232.5 189.573 232.656 189.519L254.856 181.815C255.022 181.757 255.181 181.678 255.327 181.578L260.521 178.037C260.927 177.76 261.217 177.343 261.335 176.866L281.941 93.8133C282.089 93.2162 281.954 92.5841 281.575 92.0995C281.196 91.6149 280.615 91.3317 280 91.3317H248.736V58.2499C248.736 53.8503 245.72 50.1542 241.642 49.1203L252.13 -1.59497C252.314 -2.48689 251.873 -3.39078 251.056 -3.79367C250.239 -4.19656 249.253 -3.9967 248.658 -3.30753L201.35 51.4496C199.659 49.8284 197.365 48.8321 194.837 48.8321C189.637 48.8321 185.423 53.0495 185.423 58.2499V69.8846L140.487 121.897C139.975 122.489 139.856 123.325 140.181 124.037C140.507 124.748 141.218 125.205 142 125.205H176.171C176.487 126.656 176.962 127.883 177.542 128.937C178.676 130.999 180.2 132.304 181.144 133.113C181.328 133.271 181.49 133.409 181.622 133.531C181.643 133.549 181.663 133.568 181.683 133.587L160.613 175.486C160.125 176.457 160.502 177.641 161.462 178.151L177.062 186.433C177.235 186.525 177.42 186.591 177.612 186.629L204.612 191.962ZM184.584 136.722C187.451 140.737 188.389 146.098 188.389 151.647V179C188.389 180.105 189.284 181 190.389 181C191.493 181 192.389 180.105 192.389 179V151.647C192.389 144.828 191.079 137.25 185.795 131.985C185.328 131.519 184.84 131.054 184.325 130.582C184.088 130.365 183.851 130.159 183.617 129.956C182.69 129.151 181.8 128.379 181.046 127.009C180.142 125.365 179.401 122.703 179.91 118.058C180.157 115.81 180.892 113.583 181.833 111.31L184.234 105.511C185.233 103.099 186.26 101.023 187.837 99.5184C188.104 99.2635 188.377 99.0244 188.651 98.8115C189.945 97.8047 191.519 97.1495 193.368 96.4791L202.933 93.0103L209.041 90.7956C211.209 90.0093 212.707 89.5087 214.071 89.8509C214.736 90.0177 215.361 90.3097 215.914 90.7063C217.006 91.4898 217.807 92.6737 218.078 94.0978C218.404 95.8139 217.546 97.4085 215.787 98.8992C214.996 99.5692 214.09 100.153 213.195 100.635L213.143 100.663L213.094 100.693L202.871 106.988L202.831 107.012L202.792 107.038C202.613 107.161 202.443 107.276 202.279 107.387L202.158 107.47C201.661 107.807 201.194 108.125 200.813 108.417C200.448 108.697 200.018 109.059 199.691 109.518C199.316 110.043 199.064 110.713 199.136 111.498C199.2 112.185 199.497 112.747 199.745 113.14C200.708 114.664 201.964 115.933 203.048 117.027L203.144 117.125C204.305 118.298 205.272 119.292 205.973 120.429C207.399 122.738 207.944 125.487 207.535 128.145C207.368 129.237 208.117 130.258 209.209 130.426C210.3 130.593 211.321 129.844 211.489 128.753C212.04 125.165 211.307 121.454 209.377 118.328C208.407 116.756 207.124 115.46 206.021 114.345L205.988 114.312C205.81 114.132 205.637 113.957 205.468 113.785C206.732 114.415 208.157 114.77 209.665 114.77C212.676 114.77 215.356 113.357 217.08 111.157C218.803 113.357 221.483 114.77 224.494 114.77C229.694 114.77 233.908 110.553 233.908 105.353V83.6557V83.4703V58.2499C233.908 55.2568 236.333 52.8321 239.322 52.8321C242.311 52.8321 244.736 55.2568 244.736 58.2499V112.77C244.736 114.656 244.6 119.096 243.948 123.537C243.621 125.758 243.174 127.924 242.573 129.747C241.956 131.62 241.25 132.902 240.542 133.58C238.284 135.746 236.633 138.615 235.563 141.303C234.512 143.943 233.928 146.644 233.995 148.597L233.986 174.893V174.894V179.5C233.986 180.605 234.881 181.5 235.986 181.5C237.09 181.5 237.986 180.605 237.986 179.5V174.895V174.894L237.995 148.562L237.995 148.522L237.994 148.483C237.947 147.286 238.337 145.148 239.279 142.782C240.21 140.444 241.587 138.121 243.311 136.467C244.73 135.106 245.689 133.072 246.372 130.999C247.072 128.876 247.561 126.463 247.905 124.118C248.594 119.426 248.736 114.78 248.736 112.77V95.3317H277.443L257.637 175.162L253.293 178.124L231.578 185.659L205.108 187.983L178.677 182.762L165.066 175.535L184.584 136.722ZM175.746 121.205C175.733 120.107 175.792 118.917 175.934 117.622C176.241 114.826 177.137 112.194 178.137 109.78L180.538 103.981C181.554 101.527 182.842 98.7556 185.076 96.6246C185.188 96.517 185.304 96.4093 185.423 96.3023V76.0031L146.371 121.205H175.746ZM189.423 71.3733V93.7488C190.299 93.3503 191.173 93.0199 192.004 92.7187L200.251 89.7279V83.4703V58.2499C200.251 55.2568 197.826 52.8321 194.837 52.8321C191.848 52.8321 189.423 55.2568 189.423 58.2499V71.2585L189.48 71.3075L189.423 71.3733ZM203.644 54.9136L246.655 5.12971L237.584 48.9923C233.214 49.8081 229.908 53.6433 229.908 58.2499V75.7648C228.377 74.686 226.509 74.0525 224.494 74.0525C221.483 74.0525 218.803 75.4662 217.08 77.666C215.356 75.4662 212.676 74.0525 209.665 74.0525C207.65 74.0525 205.783 74.686 204.251 75.7648V58.2499C204.251 57.0752 204.036 55.9507 203.644 54.9136ZM207.677 87.0352L204.251 88.2774V83.4703C204.251 80.4772 206.676 78.0525 209.665 78.0525C212.655 78.0525 215.08 80.4772 215.08 83.4703V85.98L215.044 85.9711C212.404 85.3089 209.799 86.2606 207.961 86.9318L207.961 86.9318C207.864 86.9671 207.769 87.0017 207.677 87.0352ZM219.08 88.1292V83.4703C219.08 80.4772 221.505 78.0525 224.494 78.0525C227.483 78.0525 229.908 80.4772 229.908 83.4703V83.6557V105.353C229.908 108.346 227.483 110.77 224.494 110.77C221.505 110.77 219.08 108.346 219.08 105.353V101.311C221.023 99.4285 222.65 96.7365 222.008 93.3518C221.61 91.2583 220.546 89.4568 219.08 88.1292ZM215.08 104.168V105.353C215.08 108.346 212.655 110.77 209.665 110.77C208.387 110.77 207.211 110.327 206.283 109.584L215.08 104.168Z" fill="#4D4D4D"/>
<path fill-rule="evenodd" clip-rule="evenodd" d="M214 182C260.392 182 298 144.392 298 98C298 51.6081 260.392 14 214 14C167.608 14 130 51.6081 130 98C130 144.392 167.608 182 214 182ZM214 186C262.601 186 302 146.601 302 98C302 49.3989 262.601 10 214 10C165.399 10 126 49.3989 126 98C126 146.601 165.399 186 214 186Z" fill="#4D4D4D"/>
</g>
</g>
<circle cx="446" cy="98" r="88" fill="url(#paint1_linear_3077_9596)"/>
<g filter="url(#filter1_dd_3077_9596)">
<path fill-rule="evenodd" clip-rule="evenodd" d="M446 182C492.392 182 530 144.392 530 98C530 51.6081 492.392 14 446 14C399.608 14 362 51.6081 362 98C362 144.392 399.608 182 446 182ZM446 186C494.601 186 534 146.601 534 98C534 49.3989 494.601 10 446 10C397.399 10 358 49.3989 358 98C358 146.601 397.399 186 446 186Z" fill="#4D4D4D"/>
<path fill-rule="evenodd" clip-rule="evenodd" d="M495.573 138.481L492.302 135.46L478.43 138.594C477.687 138.762 476.914 138.494 476.435 137.902C475.956 137.31 475.854 136.498 476.173 135.807L482.123 122.889L474.855 110.664C474.466 110.01 474.482 109.191 474.897 108.553C475.311 107.914 476.053 107.567 476.809 107.656L490.933 109.323L500.313 98.6335C500.815 98.0613 501.599 97.8237 502.334 98.0208C503.069 98.2178 503.629 98.8152 503.778 99.5618L506.557 113.51L507.955 114.111C509.29 108.964 510 103.565 510 98C510 92.1633 509.219 86.5091 507.755 81.1362L484.501 87.3671L484.487 87.3805L466.695 104.724L470.895 129.214C471.023 129.964 470.715 130.722 470.099 131.17C469.483 131.617 468.667 131.676 467.993 131.322L446 119.76L424.007 131.322C423.333 131.676 422.517 131.617 421.901 131.17C421.285 130.722 420.976 129.964 421.105 129.214L425.305 104.724L407.513 87.3805L407.499 87.3671L384.245 81.1362C382.781 86.5091 382 92.1633 382 98C382 103.569 382.711 108.972 384.048 114.124L385.476 113.509L388.255 99.5614C388.404 98.8148 388.964 98.2174 389.699 98.0204C390.435 97.8233 391.218 98.0609 391.72 98.6331L401.101 109.323L415.225 107.656C415.981 107.566 416.722 107.914 417.136 108.553C417.551 109.191 417.567 110.009 417.178 110.664L409.91 122.889L415.861 135.806C416.179 136.498 416.077 137.31 415.598 137.902C415.119 138.493 414.346 138.761 413.603 138.594L399.731 135.459L396.441 138.499C408.177 152.844 426.019 162 446 162C465.989 162 483.837 152.837 495.573 138.481ZM393.498 141.218C405.97 156.352 424.858 166 446 166C467.15 166 486.045 156.344 498.517 141.2L502.749 145.11C503.308 145.627 504.112 145.781 504.823 145.508C505.534 145.236 506.028 144.583 506.098 143.825L507.403 129.663L519.81 122.71C520.474 122.338 520.869 121.621 520.829 120.861C520.789 120.1 520.322 119.429 519.622 119.128L511.671 115.709C513.19 110.063 514 104.126 514 98C514 60.4446 483.555 30 446 30C408.445 30 378 60.4446 378 98C378 104.13 378.811 110.071 380.332 115.721L372.411 119.127C371.712 119.428 371.244 120.1 371.204 120.86C371.164 121.62 371.559 122.337 372.223 122.709L384.63 129.662L385.936 143.824C386.006 144.583 386.5 145.235 387.21 145.508C387.921 145.781 388.725 145.627 389.284 145.11L393.498 141.218ZM385.418 77.3095L409.632 83.7974L409.625 83.8233L431.062 80.7083L404.61 49.184C395.897 56.5786 389.19 66.2639 385.418 77.3095ZM444 58.5333L434.251 78.2865L407.739 46.6909C417.914 39.0915 430.425 34.4474 444 34.0307V58.5333ZM482.368 83.7974L506.582 77.3095C502.779 66.1714 495.99 56.4163 487.171 48.9985L460.604 80.6598L482.375 83.8233L482.368 83.7974ZM457.61 78.0051L484.03 46.5192C473.897 39.0216 461.472 34.4442 448 34.0307V58.5333L457.61 78.0051ZM446 63.5191L436.332 83.1093C436.04 83.6996 435.477 84.1087 434.826 84.2034L413.207 87.3448L428.85 102.594C429.322 103.053 429.537 103.715 429.426 104.364L425.733 125.896L445.069 115.73C445.652 115.423 446.348 115.423 446.931 115.73L466.267 125.896L462.574 104.364C462.463 103.715 462.678 103.053 463.15 102.594L478.793 87.3448L457.174 84.2034C456.523 84.1087 455.96 83.6996 455.668 83.1093L446 63.5191ZM391.386 104.317L389.194 115.322C389.065 115.968 388.627 116.509 388.023 116.769L377.714 121.201L387.503 126.687C388.077 127.009 388.456 127.593 388.517 128.248L389.547 139.422L397.789 131.808C398.272 131.361 398.945 131.181 399.587 131.326L410.532 133.799L405.837 123.607C405.562 123.009 405.598 122.314 405.935 121.748L411.669 112.103L400.525 113.419C399.872 113.496 399.222 113.246 398.788 112.751L391.386 104.317ZM500.647 104.318L493.246 112.752C492.811 113.247 492.162 113.496 491.508 113.419L480.364 112.103L486.098 121.749C486.435 122.315 486.471 123.01 486.196 123.608L481.501 133.799L492.446 131.326C493.088 131.181 493.761 131.361 494.244 131.808L502.487 139.422L503.517 128.249C503.577 127.593 503.956 127.009 504.531 126.688L514.319 121.202L504.011 116.769C503.406 116.509 502.968 115.968 502.839 115.323L500.647 104.318Z" fill="#4D4D4D"/>
</g>
<circle cx="98" cy="322" r="88" fill="url(#paint2_linear_3077_9596)"/>
<g filter="url(#filter2_dd_3077_9596)">
<path fill-rule="evenodd" clip-rule="evenodd" d="M182 322C182 368.392 144.392 406 98 406C51.6081 406 14 368.392 14 322C14 275.608 51.6081 238 98 238C144.392 238 182 275.608 182 322ZM186 322C186 370.601 146.601 410 98 410C49.3989 410 10 370.601 10 322C10 273.399 49.3989 234 98 234C146.601 234 186 273.399 186 322ZM162 322C162 357.346 133.346 386 98 386C62.6538 386 34 357.346 34 322C34 316.165 34.781 310.511 36.2442 305.14L54.3804 310.086L74.4523 329.651L69.5784 358.068C69.4498 358.818 69.7582 359.576 70.3741 360.024C70.99 360.471 71.8065 360.53 72.4803 360.176L98 346.76L123.52 360.176C124.193 360.53 125.01 360.471 125.626 360.024C126.242 359.576 126.55 358.818 126.422 358.068L121.548 329.651L141.447 310.254L159.757 305.144C161.219 310.515 162 316.166 162 322ZM54.9854 306.105L37.417 301.313C41.189 290.264 47.8988 280.575 56.615 273.179L81.2083 302.294L54.9854 306.105ZM84.4509 299.934L96 276.533V258.031C82.4276 258.447 69.9189 263.09 59.7453 270.687L84.4509 299.934ZM158.585 301.319L141.27 306.151C141.209 306.136 141.148 306.124 141.085 306.115L114.638 302.272L139.171 272.999C147.993 280.419 154.782 290.177 158.585 301.319ZM136.03 270.52L111.486 299.806L100 276.533V258.031C113.473 258.444 125.897 263.022 136.03 270.52ZM166 322C166 359.555 135.555 390 98 390C60.4446 390 30 359.555 30 322C30 284.445 60.4446 254 98 254C135.555 254 166 284.445 166 322ZM86.5683 304.682L98 281.519L109.432 304.682C109.723 305.273 110.286 305.682 110.938 305.776L136.5 309.491L118.003 327.521C117.531 327.98 117.316 328.642 117.428 329.291L121.794 354.75L98.9307 342.73C98.348 342.423 97.652 342.423 97.0693 342.73L74.2059 354.75L78.5724 329.291C78.6837 328.642 78.4686 327.98 77.9973 327.521L59.5004 309.491L85.0624 305.776C85.7139 305.682 86.277 305.273 86.5683 304.682Z" fill="#4D4D4D"/>
</g>
<circle cx="330" cy="322" r="88" fill="url(#paint3_linear_3077_9596)"/>
<g filter="url(#filter3_dd_3077_9596)">
<path fill-rule="evenodd" clip-rule="evenodd" d="M327.939 394.467V405.975C310.963 405.567 295.234 400.121 282.191 391.076L316.913 372.83L319.368 392.712C319.491 393.714 320.343 394.467 321.353 394.467H327.939ZM281.415 369.576L278.227 388.153C258.607 372.776 246 348.86 246 322C246 313.683 247.209 305.649 249.46 298.063L262.865 311.124C262.296 314.665 262 318.298 262 322C262 340.521 269.404 357.312 281.415 369.576ZM282.263 364.631L287.351 334.981L266.424 314.592C266.144 317.022 266 319.494 266 322C266 338.371 272.147 353.31 282.263 364.631ZM270.128 289.733L251.34 292.462C262.934 261.604 292.164 239.377 326.752 238.062L318.395 254.986C297.498 258.58 279.863 271.709 270.128 289.733ZM275.151 289.004L303.642 284.866L316.167 259.499C298.792 263.327 284.066 274.216 275.151 289.004ZM418 322C418 273.399 378.601 234 330 234C281.399 234 242 273.399 242 322C242 370.565 281.341 409.942 329.892 410C329.908 410 329.924 410 329.939 410C329.954 410 329.969 410 329.984 410H330C378.601 410 418 370.601 418 322ZM377.809 391.076C364.735 400.143 348.962 405.592 331.939 405.978V394.467H338.835C339.845 394.467 340.697 393.714 340.82 392.712L343.264 372.923L377.809 391.076ZM414 322C414 348.86 401.393 372.776 381.773 388.153L378.585 369.576C390.596 357.312 398 340.521 398 322C398 318.298 397.704 314.665 397.135 311.124L410.54 298.063C412.791 305.649 414 313.683 414 322ZM393.576 314.592C393.856 317.022 394 319.494 394 322C394 338.371 387.853 353.31 377.737 364.631L372.649 334.981L393.576 314.592ZM333.248 238.062C367.836 239.377 397.066 261.604 408.66 292.462L389.872 289.733C380.137 271.709 362.502 258.58 341.605 254.986L333.248 238.062ZM343.833 259.499C361.208 263.327 375.934 274.216 384.849 289.004L356.358 284.866L343.833 259.499ZM377.404 386.345L343.788 368.68L347.826 335.978C348.229 335.62 348.623 335.249 349.009 334.863C353.995 329.877 356.599 323.411 356.821 316.88H359.606C360.711 316.88 361.606 315.984 361.606 314.88C361.606 313.775 360.711 312.88 359.606 312.88H356.659C355.991 307.102 353.441 301.501 349.009 297.069C338.573 286.632 321.652 286.632 311.215 297.069C306.783 301.501 304.233 307.102 303.565 312.88H300.602C299.497 312.88 298.602 313.775 298.602 314.88C298.602 315.984 299.497 316.88 300.602 316.88H303.403C303.625 323.411 306.229 329.877 311.215 334.863C311.588 335.236 311.969 335.595 312.358 335.941L316.389 368.587L282.596 386.345L291.471 334.621C291.583 333.972 291.367 333.309 290.896 332.85L253.299 296.219L305.257 288.673C305.908 288.578 306.472 288.169 306.763 287.579L330 240.517L353.237 287.579C353.528 288.169 354.092 288.578 354.743 288.673L406.701 296.219L369.104 332.85C368.633 333.309 368.417 333.972 368.529 334.621L377.404 386.345ZM346.181 299.897C349.831 303.548 351.98 308.131 352.627 312.88H307.597C308.244 308.131 310.393 303.548 314.044 299.897C322.918 291.023 337.306 291.023 346.181 299.897ZM352.818 316.88H307.406C307.626 322.387 309.839 327.83 314.044 332.034C322.407 340.398 335.668 340.88 344.596 333.478C344.619 333.458 344.642 333.438 344.666 333.418C344.682 333.405 344.697 333.393 344.713 333.38C345.217 332.957 345.707 332.508 346.181 332.034C350.386 327.83 352.598 322.387 352.818 316.88ZM316.783 339.136L323.121 390.467L337.067 390.467L343.402 339.159C335.184 343.875 324.995 343.867 316.783 339.136Z" fill="#4D4D4D"/>
</g>
<circle cx="562" cy="322" r="88" fill="url(#paint4_linear_3077_9596)"/>
<g filter="url(#filter4_dd_3077_9596)">
<path fill-rule="evenodd" clip-rule="evenodd" d="M646 322C646 368.392 608.392 406 562 406C515.608 406 478 368.392 478 322C478 298.961 487.276 278.088 502.296 262.912L502.799 263.414L512.196 272.811C499.711 285.452 492 302.827 492 322C492 360.66 523.34 392 562 392C600.66 392 632 360.66 632 322C632 302.805 624.272 285.412 611.762 272.768L621.116 263.414L621.661 262.869C636.707 278.048 646 298.939 646 322ZM505.177 260.136L505.627 260.586L537.698 292.656H546.446L527.376 245.559L527.337 245.463C519.168 249.168 511.698 254.143 505.177 260.136ZM531.019 243.898L531.084 244.058L550.761 292.656H559.957V238.5V238.024C549.757 238.268 540.007 240.33 531.019 243.898ZM563.957 238.022V238.5V292.656H573.153L592.547 244.75L592.904 243.867C583.912 240.308 574.159 238.256 563.957 238.022ZM596.588 245.429L596.255 246.25L577.468 292.656H586.217L618.287 260.586L618.778 260.094C612.248 254.102 604.767 249.129 596.588 245.429ZM650 322C650 370.601 610.601 410 562 410C513.399 410 474 370.601 474 322C474 273.399 513.399 234 562 234C610.601 234 650 273.399 650 322ZM589.045 295.485L608.933 275.597C620.724 287.521 628 303.909 628 322C628 358.451 598.451 388 562 388C525.549 388 496 358.451 496 322C496 303.931 503.259 287.56 515.024 275.64L534.869 295.485V299.824H524.334C523.229 299.824 522.334 300.72 522.334 301.824V311.16C522.334 316.844 523.753 321.818 526.666 325.412C529.387 328.769 533.275 330.748 538.038 331.042C539.287 333.392 540.887 335.566 542.803 337.482C547.413 342.092 553.513 344.869 559.971 345.343V355.752H553.012C549.63 355.752 546.386 357.095 543.995 359.487C541.603 361.878 540.26 365.122 540.26 368.504C540.26 369.609 541.155 370.504 542.26 370.504H581.684C582.214 370.504 582.723 370.293 583.098 369.918C583.473 369.543 583.684 369.034 583.684 368.504C583.684 365.122 582.34 361.878 579.949 359.487C577.557 357.095 574.314 355.752 570.932 355.752H563.971V345.341C570.419 344.861 576.508 342.086 581.111 337.482C583.027 335.566 584.626 333.393 585.875 331.043C590.649 330.754 594.544 328.774 597.268 325.412C600.181 321.818 601.6 316.844 601.6 311.16V301.824C601.6 300.72 600.705 299.824 599.6 299.824H589.045V295.485ZM589.045 318.328V303.824H597.6V311.16C597.6 316.228 596.332 320.215 594.161 322.893C592.579 324.845 590.434 326.209 587.693 326.78C588.581 324.077 589.045 321.227 589.045 318.328ZM534.869 318.328C534.869 321.225 535.333 324.074 536.22 326.776C533.489 326.202 531.351 324.84 529.773 322.893C527.603 320.215 526.334 316.228 526.334 311.16V303.824H534.869V318.328ZM549.413 296.656H538.869V318.328C538.869 324.452 541.302 330.324 545.631 334.654C549.961 338.984 555.834 341.416 561.957 341.416C568.08 341.416 573.953 338.984 578.283 334.654C582.613 330.324 585.045 324.452 585.045 318.328V296.656H574.501H561.957H549.413ZM546.823 362.315C548.464 360.674 550.691 359.752 553.012 359.752H570.932C573.253 359.752 575.479 360.674 577.12 362.315C578.282 363.477 579.083 364.931 579.452 366.504H544.491C544.861 364.931 545.662 363.477 546.823 362.315Z" fill="#4D4D4D"/>
</g>
<defs>
<filter id="filter0_dd_3077_9596" x="116" y="0" width="196" height="196" filterUnits="userSpaceOnUse" color-interpolation-filters="sRGB">
<feFlood flood-opacity="0" result="BackgroundImageFix"/>
<feColorMatrix in="SourceAlpha" type="matrix" values="0 0 0 0 0 0 0 0 0 0 0 0 0 0 0 0 0 0 127 0" result="hardAlpha"/>
<feOffset/>
<feGaussianBlur stdDeviation="5"/>
<feComposite in2="hardAlpha" operator="out"/>
<feColorMatrix type="matrix" values="0 0 0 0 0 0 0 0 0 0 0 0 0 0 0 0 0 0 0.6 0"/>
<feBlend mode="normal" in2="BackgroundImageFix" result="effect1_dropShadow_3077_9596"/>
<feColorMatrix in="SourceAlpha" type="matrix" values="0 0 0 0 0 0 0 0 0 0 0 0 0 0 0 0 0 0 127 0" result="hardAlpha"/>
<feOffset/>
<feGaussianBlur stdDeviation="2"/>
<feComposite in2="hardAlpha" operator="out"/>
<feColorMatrix type="matrix" values="0 0 0 0 0 0 0 0 0 0 0 0 0 0 0 0 0 0 0.6 0"/>
<feBlend mode="normal" in2="effect1_dropShadow_3077_9596" result="effect2_dropShadow_3077_9596"/>
<feBlend mode="normal" in="SourceGraphic" in2="effect2_dropShadow_3077_9596" result="shape"/>
</filter>
<filter id="filter1_dd_3077_9596" x="348" y="0" width="196" height="196" filterUnits="userSpaceOnUse" color-interpolation-filters="sRGB">
<feFlood flood-opacity="0" result="BackgroundImageFix"/>
<feColorMatrix in="SourceAlpha" type="matrix" values="0 0 0 0 0 0 0 0 0 0 0 0 0 0 0 0 0 0 127 0" result="hardAlpha"/>
<feOffset/>
<feGaussianBlur stdDeviation="5"/>
<feComposite in2="hardAlpha" operator="out"/>
<feColorMatrix type="matrix" values="0 0 0 0 0 0 0 0 0 0 0 0 0 0 0 0 0 0 0.6 0"/>
<feBlend mode="normal" in2="BackgroundImageFix" result="effect1_dropShadow_3077_9596"/>
<feColorMatrix in="SourceAlpha" type="matrix" values="0 0 0 0 0 0 0 0 0 0 0 0 0 0 0 0 0 0 127 0" result="hardAlpha"/>
<feOffset/>
<feGaussianBlur stdDeviation="2"/>
<feComposite in2="hardAlpha" operator="out"/>
<feColorMatrix type="matrix" values="0 0 0 0 0 0 0 0 0 0 0 0 0 0 0 0 0 0 0.6 0"/>
<feBlend mode="normal" in2="effect1_dropShadow_3077_9596" result="effect2_dropShadow_3077_9596"/>
<feBlend mode="normal" in="SourceGraphic" in2="effect2_dropShadow_3077_9596" result="shape"/>
</filter>
<filter id="filter2_dd_3077_9596" x="0" y="224" width="196" height="196" filterUnits="userSpaceOnUse" color-interpolation-filters="sRGB">
<feFlood flood-opacity="0" result="BackgroundImageFix"/>
<feColorMatrix in="SourceAlpha" type="matrix" values="0 0 0 0 0 0 0 0 0 0 0 0 0 0 0 0 0 0 127 0" result="hardAlpha"/>
<feOffset/>
<feGaussianBlur stdDeviation="5"/>
<feComposite in2="hardAlpha" operator="out"/>
<feColorMatrix type="matrix" values="0 0 0 0 0 0 0 0 0 0 0 0 0 0 0 0 0 0 0.6 0"/>
<feBlend mode="normal" in2="BackgroundImageFix" result="effect1_dropShadow_3077_9596"/>
<feColorMatrix in="SourceAlpha" type="matrix" values="0 0 0 0 0 0 0 0 0 0 0 0 0 0 0 0 0 0 127 0" result="hardAlpha"/>
<feOffset/>
<feGaussianBlur stdDeviation="2"/>
<feComposite in2="hardAlpha" operator="out"/>
<feColorMatrix type="matrix" values="0 0 0 0 0 0 0 0 0 0 0 0 0 0 0 0 0 0 0.6 0"/>
<feBlend mode="normal" in2="effect1_dropShadow_3077_9596" result="effect2_dropShadow_3077_9596"/>
<feBlend mode="normal" in="SourceGraphic" in2="effect2_dropShadow_3077_9596" result="shape"/>
</filter>
<filter id="filter3_dd_3077_9596" x="232" y="224" width="196" height="196" filterUnits="userSpaceOnUse" color-interpolation-filters="sRGB">
<feFlood flood-opacity="0" result="BackgroundImageFix"/>
<feColorMatrix in="SourceAlpha" type="matrix" values="0 0 0 0 0 0 0 0 0 0 0 0 0 0 0 0 0 0 127 0" result="hardAlpha"/>
<feOffset/>
<feGaussianBlur stdDeviation="5"/>
<feComposite in2="hardAlpha" operator="out"/>
<feColorMatrix type="matrix" values="0 0 0 0 0 0 0 0 0 0 0 0 0 0 0 0 0 0 0.6 0"/>
<feBlend mode="normal" in2="BackgroundImageFix" result="effect1_dropShadow_3077_9596"/>
<feColorMatrix in="SourceAlpha" type="matrix" values="0 0 0 0 0 0 0 0 0 0 0 0 0 0 0 0 0 0 127 0" result="hardAlpha"/>
<feOffset/>
<feGaussianBlur stdDeviation="2"/>
<feComposite in2="hardAlpha" operator="out"/>
<feColorMatrix type="matrix" values="0 0 0 0 0 0 0 0 0 0 0 0 0 0 0 0 0 0 0.6 0"/>
<feBlend mode="normal" in2="effect1_dropShadow_3077_9596" result="effect2_dropShadow_3077_9596"/>
<feBlend mode="normal" in="SourceGraphic" in2="effect2_dropShadow_3077_9596" result="shape"/>
</filter>
<filter id="filter4_dd_3077_9596" x="464" y="224" width="196" height="196" filterUnits="userSpaceOnUse" color-interpolation-filters="sRGB">
<feFlood flood-opacity="0" result="BackgroundImageFix"/>
<feColorMatrix in="SourceAlpha" type="matrix" values="0 0 0 0 0 0 0 0 0 0 0 0 0 0 0 0 0 0 127 0" result="hardAlpha"/>
<feOffset/>
<feGaussianBlur stdDeviation="5"/>
<feComposite in2="hardAlpha" operator="out"/>
<feColorMatrix type="matrix" values="0 0 0 0 0 0 0 0 0 0 0 0 0 0 0 0 0 0 0.6 0"/>
<feBlend mode="normal" in2="BackgroundImageFix" result="effect1_dropShadow_3077_9596"/>
<feColorMatrix in="SourceAlpha" type="matrix" values="0 0 0 0 0 0 0 0 0 0 0 0 0 0 0 0 0 0 127 0" result="hardAlpha"/>
<feOffset/>
<feGaussianBlur stdDeviation="2"/>
<feComposite in2="hardAlpha" operator="out"/>
<feColorMatrix type="matrix" values="0 0 0 0 0 0 0 0 0 0 0 0 0 0 0 0 0 0 0.6 0"/>
<feBlend mode="normal" in2="effect1_dropShadow_3077_9596" result="effect2_dropShadow_3077_9596"/>
<feBlend mode="normal" in="SourceGraphic" in2="effect2_dropShadow_3077_9596" result="shape"/>
</filter>
<linearGradient id="paint0_linear_3077_9596" x1="214" y1="10" x2="214" y2="186" gradientUnits="userSpaceOnUse">
<stop stop-color="#333333"/>
<stop offset="1" stop-color="#1A1A1A"/>
</linearGradient>
<linearGradient id="paint1_linear_3077_9596" x1="446" y1="10" x2="446" y2="186" gradientUnits="userSpaceOnUse">
<stop stop-color="#333333"/>
<stop offset="1" stop-color="#1A1A1A"/>
</linearGradient>
<linearGradient id="paint2_linear_3077_9596" x1="98" y1="234" x2="98" y2="410" gradientUnits="userSpaceOnUse">
<stop stop-color="#333333"/>
<stop offset="1" stop-color="#1A1A1A"/>
</linearGradient>
<linearGradient id="paint3_linear_3077_9596" x1="330" y1="234" x2="330" y2="410" gradientUnits="userSpaceOnUse">
<stop stop-color="#333333"/>
<stop offset="1" stop-color="#1A1A1A"/>
</linearGradient>
<linearGradient id="paint4_linear_3077_9596" x1="562" y1="234" x2="562" y2="410" gradientUnits="userSpaceOnUse">
<stop stop-color="#333333"/>
<stop offset="1" stop-color="#1A1A1A"/>
</linearGradient>
</defs>
</svg>
