<svg width="464" height="224" viewBox="0 0 464 224" fill="none" xmlns="http://www.w3.org/2000/svg">
<rect x="32" y="32" width="400" height="10" rx="5" fill="#333333"/>
<rect x="132" y="60" width="150" height="10" rx="5" fill="#333333"/>
<rect x="32" y="60" width="80" height="10" rx="5" fill="#333333"/>
<rect x="32" y="154" width="180" height="10" rx="5" fill="#333333"/>
<rect x="232" y="154" width="140" height="10" rx="5" fill="#333333"/>
<rect x="32" y="182" width="150" height="10" rx="5" fill="#333333"/>
<rect x="202" y="182" width="80" height="10" rx="5" fill="url(#paint0_linear_271_443)"/>
<rect x="202" y="182" width="80" height="10" rx="5" fill="url(#paint1_linear_271_443)"/>
<rect x="32.5" y="88.5" width="154" height="47" rx="23.5" fill="#0D0D0D"/>
<path d="M54.48 119.08C54.48 121.12 55.64 122.34 57.58 122.34H58.26V120.72H57.84C56.92 120.72 56.38 120.04 56.38 118.88V116.4C56.38 115.06 55.78 114.12 54.8 113.82V113.78C55.78 113.48 56.38 112.54 56.38 111.2V108.72C56.38 107.56 56.92 106.88 57.84 106.88H58.26V105.26H57.58C55.64 105.26 54.48 106.48 54.48 108.52V111C54.48 112.22 53.88 113 52.9 113.08V114.52C53.88 114.6 54.48 115.38 54.48 116.6V119.08ZM62.0386 119.08C62.0386 121.12 63.1986 122.34 65.1386 122.34H65.8186V120.72H65.3986C64.4786 120.72 63.9386 120.04 63.9386 118.88V116.4C63.9386 115.06 63.3386 114.12 62.3586 113.82V113.78C63.3386 113.48 63.9386 112.54 63.9386 111.2V108.72C63.9386 107.56 64.4786 106.88 65.3986 106.88H65.8186V105.26H65.1386C63.1986 105.26 62.0386 106.48 62.0386 108.52V111C62.0386 112.22 61.4386 113 60.4586 113.08V114.52C61.4386 114.6 62.0386 115.38 62.0386 116.6V119.08ZM80.3372 106.6H78.2772L76.2972 111.1C75.2972 113.38 74.4972 115.08 73.6772 117.14C72.8572 115.08 72.0572 113.38 71.0572 111.1L69.0772 106.6H67.0172L73.6572 121.24H73.6972L80.3372 106.6ZM80.1606 113.22C80.7606 112.86 82.0406 112.38 83.4206 112.38C85.0006 112.38 86.0406 112.98 86.0406 114.72V115.22C81.8606 114.64 79.5206 115.86 79.5206 118.3C79.5206 120.14 80.8406 121.24 82.6806 121.24C84.9406 121.24 86.0406 119.3 86.1606 119.02H86.2006C86.2006 119.02 86.1206 119.34 86.1406 119.82L86.1606 121H87.8806V114.62C87.8806 112.12 86.5006 110.76 83.6806 110.76C82.0406 110.76 80.7206 111.2 80.1606 111.5V113.22ZM83.0006 119.74C82.0006 119.74 81.3606 119.12 81.3606 118.24C81.3606 116.88 82.7406 116 86.0006 116.52C86.0006 118.08 84.7006 119.74 83.0006 119.74ZM91.0238 121H92.8838V116.64C92.8838 114.7 94.0038 112.56 95.9438 112.56C96.2038 112.56 96.3838 112.6 96.4638 112.62V110.82C96.3838 110.8 96.1438 110.76 95.8638 110.76C94.4238 110.76 93.3638 111.72 92.7838 113.14H92.7638C92.7438 113.08 92.8038 112.78 92.7838 112.4L92.7638 111H91.0238V121ZM98.7614 111V121H100.621V111H98.7614ZM98.5214 108.1C98.5214 108.76 98.9814 109.22 99.6814 109.22C100.361 109.22 100.841 108.76 100.841 108.1C100.841 107.42 100.361 106.96 99.6814 106.96C98.9814 106.96 98.5214 107.42 98.5214 108.1ZM103.969 113.22C104.569 112.86 105.849 112.38 107.229 112.38C108.809 112.38 109.849 112.98 109.849 114.72V115.22C105.669 114.64 103.329 115.86 103.329 118.3C103.329 120.14 104.649 121.24 106.489 121.24C108.749 121.24 109.849 119.3 109.969 119.02H110.009C110.009 119.02 109.929 119.34 109.949 119.82L109.969 121H111.689V114.62C111.689 112.12 110.309 110.76 107.489 110.76C105.849 110.76 104.529 111.2 103.969 111.5V113.22ZM106.809 119.74C105.809 119.74 105.169 119.12 105.169 118.24C105.169 116.88 106.549 116 109.809 116.52C109.809 118.08 108.509 119.74 106.809 119.74ZM114.972 121H116.692L116.732 119.82C116.732 119.38 116.672 119.08 116.672 119.08H116.712C117.232 120.2 118.632 121.24 120.252 121.24C122.892 121.24 124.892 119.1 124.892 116C124.892 112.86 122.892 110.76 120.292 110.76C118.672 110.76 117.352 111.64 116.812 112.58H116.772C116.772 112.58 116.832 112.28 116.832 111.76V106.6H114.972V121ZM119.992 112.38C121.852 112.38 123.092 113.88 123.092 116C123.092 118.08 121.852 119.62 119.992 119.62C118.492 119.62 116.852 118.5 116.852 116C116.852 113.5 118.492 112.38 119.992 112.38ZM127.492 118.44C127.492 120.46 128.572 121.24 130.052 121.24C130.772 121.24 131.272 121.1 131.392 121.06V119.46C131.272 119.5 130.912 119.58 130.512 119.58C129.692 119.58 129.352 119.14 129.352 118.06V106.6H127.492V118.44ZM137.743 110.76C134.983 110.76 132.843 112.98 132.843 116C132.843 119.1 134.983 121.24 138.143 121.24C139.763 121.24 141.103 120.82 141.883 120.38V118.68C141.043 119.22 139.623 119.62 138.263 119.62C136.163 119.62 134.843 118.38 134.783 116.42V116.4H142.223C142.223 116.2 142.263 115.82 142.263 115.42C142.263 112.96 140.683 110.76 137.743 110.76ZM140.423 115.08H134.803C134.963 113.64 136.003 112.32 137.723 112.32C139.503 112.32 140.443 113.64 140.423 115.08ZM149.411 118.4C149.411 119.34 148.471 119.7 147.431 119.7C146.491 119.7 145.211 119.36 144.231 118.88V120.58C145.031 120.96 146.191 121.24 147.491 121.24C149.651 121.24 151.131 120.24 151.131 118.42C151.131 116.74 150.091 115.96 147.971 115.26C146.611 114.82 145.911 114.44 145.911 113.64C145.911 112.74 146.811 112.34 147.951 112.34C148.851 112.34 149.851 112.66 150.571 113.04V111.36C149.891 111.04 148.831 110.76 147.751 110.76C145.671 110.76 144.171 111.92 144.171 113.58C144.171 115.38 145.411 116.14 147.191 116.72C148.671 117.2 149.411 117.54 149.411 118.4ZM156.28 108.52C156.28 106.48 155.12 105.26 153.18 105.26H152.5V106.88H152.92C153.84 106.88 154.38 107.56 154.38 108.72V111.2C154.38 112.54 154.98 113.48 155.96 113.78V113.82C154.98 114.12 154.38 115.06 154.38 116.4V118.88C154.38 120.04 153.84 120.72 152.92 120.72H152.5V122.34H153.18C155.12 122.34 156.28 121.12 156.28 119.08V116.6C156.28 115.38 156.88 114.6 157.86 114.52V113.08C156.88 113 156.28 112.22 156.28 111V108.52ZM163.839 108.52C163.839 106.48 162.679 105.26 160.739 105.26H160.059V106.88H160.479C161.399 106.88 161.939 107.56 161.939 108.72V111.2C161.939 112.54 162.539 113.48 163.519 113.78V113.82C162.539 114.12 161.939 115.06 161.939 116.4V118.88C161.939 120.04 161.399 120.72 160.479 120.72H160.059V122.34H160.739C162.679 122.34 163.839 121.12 163.839 119.08V116.6C163.839 115.38 164.439 114.6 165.419 114.52V113.08C164.439 113 163.839 112.22 163.839 111V108.52Z" fill="#FFE14D"/>
<rect x="32.5" y="88.5" width="154" height="47" rx="23.5" stroke="white" stroke-dasharray="3 3"/>
<rect x="178" y="88" width="208" height="48" rx="24" fill="white"/>
<path d="M217.496 105.235L214.765 102.504C214.442 102.181 214.004 102 213.547 102C213.091 102 212.653 102.181 212.33 102.504L210 104.834L215.166 110L217.496 107.67C217.819 107.347 218 106.909 218 106.453C218 105.996 217.819 105.558 217.496 105.235Z" fill="black"/>
<path d="M209.024 106L199.659 115.365L198 122L204.635 120.341L214 110.976L209.024 106Z" fill="black"/>
<path d="M233.1 121.26C236.32 121.26 238.24 119.74 238.24 117.22C238.24 114.94 236.8 113.82 234.16 112.84C231.96 112.04 231.2 111.36 231.2 110.34C231.2 109.24 232.3 108.56 233.94 108.56C235.24 108.56 236.62 108.96 237.44 109.42V107.06C236.58 106.7 235.2 106.34 233.76 106.34C230.84 106.34 228.74 107.86 228.74 110.38C228.74 112.72 230.14 113.84 232.78 114.78C234.98 115.56 235.8 116.18 235.8 117.32C235.8 118.1 235.18 118.62 234.16 118.86C233.74 118.98 233.24 119.02 232.72 119.02C231.28 118.98 229.9 118.5 228.88 117.98V120.44C229.88 120.86 231.44 121.26 233.1 121.26ZM239.079 111V112.94H240.599V117.36C240.599 117.7 240.619 118.04 240.619 118.36C240.739 120.52 242.259 121.26 243.779 121.26C244.859 121.26 245.719 121.04 246.179 120.8V118.76C245.679 118.98 244.999 119.18 244.379 119.18C243.639 119.18 242.999 118.76 242.999 117.52V112.94H245.839V111H242.999V108H240.639V111H239.079ZM246.655 125.46C246.855 125.54 247.295 125.62 247.775 125.62C248.175 125.64 248.575 125.62 248.995 125.56C250.955 125.18 252.195 123.58 253.335 120.74L257.235 111H254.575L253.315 114.54C252.935 115.54 252.235 117.74 251.875 118.58C251.435 117.24 250.935 115.88 250.435 114.54L249.155 111H246.495L250.635 120.94C249.975 122.42 249.235 123.52 247.795 123.52C247.255 123.52 246.855 123.42 246.655 123.36V125.46ZM258.799 118.28C258.799 120.44 260.039 121.26 261.639 121.26C262.459 121.26 263.059 121.1 263.259 121.02V118.98C263.099 119.04 262.719 119.14 262.319 119.14C261.599 119.14 261.239 118.76 261.239 117.76V106.6H258.799V118.28ZM269.464 110.74C266.644 110.74 264.464 112.98 264.464 116C264.464 119.08 266.604 121.26 269.924 121.26C271.604 121.26 272.944 120.86 273.644 120.48V118.34C272.964 118.76 271.504 119.18 270.104 119.18C268.264 119.18 267.064 118.18 267.004 116.5H273.984C273.984 116.32 274.044 115.88 274.044 115.42C274.044 112.94 272.464 110.74 269.464 110.74ZM271.684 115.08H267.004C267.124 113.82 267.984 112.7 269.424 112.7C270.924 112.7 271.704 113.82 271.684 115.08ZM286.015 106.6H283.575V111.56C283.575 112.1 283.635 112.38 283.635 112.38H283.595C283.055 111.52 281.835 110.74 280.295 110.74C277.735 110.74 275.695 112.78 275.695 116C275.695 119.18 277.735 121.26 280.355 121.26C281.895 121.26 283.255 120.32 283.735 119.26H283.775C283.775 119.26 283.715 119.54 283.735 119.96L283.775 121H286.015V106.6ZM280.755 112.82C282.095 112.82 283.515 113.84 283.515 116C283.515 118.16 282.095 119.18 280.755 119.18C279.135 119.18 278.015 117.86 278.015 116C278.015 114.12 279.135 112.82 280.755 112.82ZM296.104 116C296.104 114.14 297.364 112.88 299.164 112.88C300.324 112.88 301.324 113.32 301.944 113.74V111.5C301.444 111.24 300.484 110.74 298.904 110.74C295.764 110.74 293.624 112.98 293.624 116C293.624 119.02 295.764 121.26 298.904 121.26C300.484 121.26 301.504 120.74 302.004 120.48V118.26C301.504 118.58 300.444 119.12 299.164 119.12C297.344 119.12 296.104 117.86 296.104 116ZM308.806 110.74C305.786 110.74 303.566 112.98 303.566 116C303.566 119.02 305.786 121.26 308.806 121.26C311.846 121.26 314.046 119.02 314.046 116C314.046 112.98 311.846 110.74 308.806 110.74ZM308.806 119.18C307.146 119.18 305.886 117.88 305.886 116C305.886 114.12 307.146 112.82 308.806 112.82C310.486 112.82 311.726 114.12 311.726 116C311.726 117.88 310.486 119.18 308.806 119.18ZM316.436 111V121H318.876V116.04C318.876 114.28 320.056 112.96 321.716 112.96C323.076 112.96 323.356 114 323.356 115.16V121H325.796V114.74C325.796 112.16 324.696 110.74 322.336 110.74C320.436 110.74 319.116 112.08 318.716 113H318.676C318.676 112.92 318.756 112.66 318.756 112.28L318.696 111H316.436ZM327.361 111V112.94H328.881V117.36C328.881 117.7 328.901 118.04 328.901 118.36C329.021 120.52 330.541 121.26 332.061 121.26C333.141 121.26 334.001 121.04 334.461 120.8V118.76C333.961 118.98 333.281 119.18 332.661 119.18C331.921 119.18 331.281 118.76 331.281 117.52V112.94H334.121V111H331.281V108H328.921V111H327.361ZM340.519 110.74C337.699 110.74 335.519 112.98 335.519 116C335.519 119.08 337.659 121.26 340.979 121.26C342.659 121.26 343.999 120.86 344.699 120.48V118.34C344.019 118.76 342.559 119.18 341.159 119.18C339.319 119.18 338.119 118.18 338.059 116.5H345.039C345.039 116.32 345.099 115.88 345.099 115.42C345.099 112.94 343.519 110.74 340.519 110.74ZM342.739 115.08H338.059C338.179 113.82 339.039 112.7 340.479 112.7C341.979 112.7 342.759 113.82 342.739 115.08ZM347.452 111V121H349.892V116.04C349.892 114.28 351.072 112.96 352.732 112.96C354.092 112.96 354.372 114 354.372 115.16V121H356.812V114.74C356.812 112.16 355.712 110.74 353.352 110.74C351.452 110.74 350.132 112.08 349.732 113H349.692C349.692 112.92 349.772 112.66 349.772 112.28L349.712 111H347.452ZM358.376 111V112.94H359.896V117.36C359.896 117.7 359.916 118.04 359.916 118.36C360.036 120.52 361.556 121.26 363.076 121.26C364.156 121.26 365.016 121.04 365.476 120.8V118.76C364.976 118.98 364.296 119.18 363.676 119.18C362.936 119.18 362.296 118.76 362.296 117.52V112.94H365.136V111H362.296V108H359.936V111H358.376Z" fill="black"/>
<defs>
<linearGradient id="paint0_linear_271_443" x1="282" y1="182" x2="201.795" y2="189.922" gradientUnits="userSpaceOnUse">
<stop offset="0.210937" stop-color="#FFBB33"/>
<stop offset="0.551829" stop-color="#E300BD"/>
<stop offset="0.926448" stop-color="#FF006A"/>
</linearGradient>
<linearGradient id="paint1_linear_271_443" x1="242" y1="182" x2="242" y2="192" gradientUnits="userSpaceOnUse">
<stop offset="0.546667" stop-opacity="0"/>
<stop offset="1" stop-opacity="0.3"/>
</linearGradient>
</defs>
</svg>
