<svg width="72" height="72" viewBox="0 0 72 72" fill="none" xmlns="http://www.w3.org/2000/svg">
<circle cx="36" cy="36" r="35.5" fill="#18141F"/>
<circle cx="36" cy="36" r="35.5" stroke="#18141F"/>
<circle cx="36" cy="36" r="35.5" stroke="#00D5FF" stroke-opacity="0.1"/>
<g opacity="0.2" filter="url(#filter0_f_514_2)">
<circle cx="36" cy="36" r="20" fill="#00D5FF"/>
</g>
<path d="M26.4868 39.5408H21.8583C21.5514 39.5408 21.2571 39.4184 21.0401 39.2006C20.8231 38.9828 20.7012 38.6875 20.7012 38.3795V20.9601C20.7012 20.6521 20.8231 20.3567 21.0401 20.139C21.2571 19.9212 21.5514 19.7988 21.8583 19.7988H26.4868V39.5408Z" fill="#00D5FF"/>
<path d="M28.8008 19.7988H46.4817C47.5619 19.7999 48.6078 20.1801 49.4381 20.8736C50.2684 21.5671 50.8309 22.5303 51.028 23.5962L53.0808 34.6831C53.0937 34.7532 53.1002 34.8243 53.1004 34.8956V36.0569C53.1004 37.2889 52.6128 38.4704 51.7448 39.3415C50.8768 40.2127 49.6995 40.7021 48.4719 40.7021H38.0578V51.1537C38.0578 52.3856 37.5701 53.5672 36.7021 54.4383C35.8341 55.3094 34.6568 55.7988 33.4293 55.7988C33.1642 55.7991 32.907 55.708 32.7008 55.5408C32.4946 55.3736 32.3519 55.1404 32.2965 54.8802L28.8008 39.5408V19.7988Z" fill="#00D5FF"/>
<defs>
<filter id="filter0_f_514_2" x="2" y="2" width="68" height="68" filterUnits="userSpaceOnUse" color-interpolation-filters="sRGB">
<feFlood flood-opacity="0" result="BackgroundImageFix"/>
<feBlend mode="normal" in="SourceGraphic" in2="BackgroundImageFix" result="shape"/>
<feGaussianBlur stdDeviation="7" result="effect1_foregroundBlur_514_2"/>
</filter>
</defs>
</svg>
