<svg width="72" height="72" viewBox="0 0 72 72" fill="none" xmlns="http://www.w3.org/2000/svg">
<circle cx="36" cy="36" r="35.5" fill="#18141F"/>
<circle cx="36" cy="36" r="35.5" stroke="#18141F"/>
<circle cx="36" cy="36" r="35.5" stroke="#F53DD6" stroke-opacity="0.12"/>
<g opacity="0.3" filter="url(#filter0_f_514_9)">
<circle cx="36" cy="36" r="20" fill="#F53DD6"/>
</g>
<path fill-rule="evenodd" clip-rule="evenodd" d="M52.51 47.487C52.47 47.4312 48.4989 41.8053 48.4989 37.1392V28.807C48.4989 25.4922 47.1821 22.3132 44.8382 19.9693C42.4943 17.6254 39.3153 16.3086 36.0005 16.3086C32.6857 16.3086 29.5067 17.6254 27.1628 19.9693C24.8189 22.3132 23.5021 25.4922 23.5021 28.807V37.1392C23.5021 41.8053 19.531 47.4312 19.491 47.487C19.4021 47.6116 19.3492 47.7583 19.3381 47.911C19.3271 48.0637 19.3583 48.2165 19.4284 48.3526C19.4984 48.4887 19.6046 48.6028 19.7353 48.6825C19.866 48.7622 20.0162 48.8044 20.1692 48.8044H51.8318C51.9849 48.8044 52.135 48.7622 52.2657 48.6825C52.3964 48.6028 52.5026 48.4887 52.5727 48.3526C52.6427 48.2165 52.674 48.0637 52.6629 47.911C52.6519 47.7583 52.599 47.6116 52.51 47.487ZM36.0005 54.6388C37.1808 54.6366 38.3224 54.2173 39.2235 53.4549C40.1246 52.6926 40.7272 51.6363 40.9249 50.4727H31.0762C31.2739 51.6363 31.8765 52.6926 32.7776 53.4549C33.6787 54.2173 34.8202 54.6366 36.0005 54.6388ZM33.7902 36.6437H36.6792V35.7527C36.6792 35.3927 36.7332 35.0507 36.8412 34.7267C36.9492 34.4027 37.1382 34.0787 37.4082 33.7547C37.6782 33.4307 37.9032 33.1697 38.0832 32.9717C38.2632 32.7737 38.5512 32.4947 38.9472 32.1347C39.3612 31.7567 39.6402 31.5047 39.7842 31.3787C40.9182 30.3167 41.4852 28.9577 41.4852 27.3017C41.4852 25.7897 40.9452 24.5837 39.8652 23.6837C38.8032 22.7657 37.4532 22.3067 35.8152 22.3067C34.2672 22.3067 32.8362 22.6937 31.5222 23.4677V26.4917C32.9082 25.6457 34.2582 25.2227 35.5722 25.2227C36.3642 25.2227 37.0032 25.4567 37.4892 25.9247C37.9752 26.3747 38.2182 26.9597 38.2182 27.6797C38.2182 28.0037 38.1642 28.3187 38.0562 28.6247C37.9482 28.9127 37.7772 29.2097 37.5432 29.5157C37.3092 29.8037 37.1022 30.0377 36.9222 30.2177C36.7422 30.3977 36.4632 30.6587 36.0852 31.0007C35.7252 31.3247 35.4822 31.5497 35.3562 31.6757C34.3122 32.6837 33.7902 33.9077 33.7902 35.3477V36.6437ZM33.3582 40.6127C33.3582 41.1707 33.5292 41.6207 33.8712 41.9627C34.2132 42.2867 34.6812 42.4487 35.2752 42.4487C35.8332 42.4487 36.2922 42.2867 36.6522 41.9627C36.9942 41.6207 37.1652 41.1707 37.1652 40.6127C37.1652 40.0547 36.9942 39.6047 36.6522 39.2627C36.3102 38.9207 35.8512 38.7497 35.2752 38.7497C34.6812 38.7497 34.2132 38.9207 33.8712 39.2627C33.5292 39.6047 33.3582 40.0547 33.3582 40.6127Z" fill="#F53DD6"/>
<defs>
<filter id="filter0_f_514_9" x="2" y="2" width="68" height="68" filterUnits="userSpaceOnUse" color-interpolation-filters="sRGB">
<feFlood flood-opacity="0" result="BackgroundImageFix"/>
<feBlend mode="normal" in="SourceGraphic" in2="BackgroundImageFix" result="shape"/>
<feGaussianBlur stdDeviation="7" result="effect1_foregroundBlur_514_9"/>
</filter>
</defs>
</svg>
