<svg width="88" height="88" viewBox="0 0 88 88" fill="none" xmlns="http://www.w3.org/2000/svg">
<circle cx="44" cy="44" r="35.5" fill="#18141F"/>
<circle cx="44" cy="44" r="35.5" stroke="#18141F"/>
<circle cx="44" cy="44" r="35.5" stroke="#F53DD6" stroke-opacity="0.12"/>
<g opacity="0.3" filter="url(#filter0_f_20259_85532)">
<circle cx="44" cy="44" r="20" fill="#F53DD6"/>
</g>
<path fill-rule="evenodd" clip-rule="evenodd" d="M60.51 55.487C60.47 55.4312 56.4989 49.8053 56.4989 45.1392V36.807C56.4989 33.4922 55.1821 30.3132 52.8382 27.9693C50.4943 25.6254 47.3153 24.3086 44.0005 24.3086C40.6857 24.3086 37.5067 25.6254 35.1628 27.9693C32.8189 30.3132 31.5021 33.4922 31.5021 36.807V45.1392C31.5021 49.8053 27.531 55.4312 27.491 55.487C27.4021 55.6116 27.3492 55.7583 27.3381 55.911C27.3271 56.0637 27.3583 56.2165 27.4284 56.3526C27.4984 56.4887 27.6046 56.6028 27.7353 56.6825C27.866 56.7622 28.0162 56.8044 28.1692 56.8044H59.8318C59.9849 56.8044 60.135 56.7622 60.2657 56.6825C60.3964 56.6028 60.5026 56.4887 60.5727 56.3526C60.6427 56.2165 60.674 56.0637 60.6629 55.911C60.6519 55.7583 60.599 55.6116 60.51 55.487ZM44.0005 62.6388C45.1808 62.6366 46.3224 62.2173 47.2235 61.4549C48.1246 60.6926 48.7272 59.6363 48.9249 58.4727H39.0762C39.2739 59.6363 39.8765 60.6926 40.7776 61.4549C41.6787 62.2173 42.8202 62.6366 44.0005 62.6388ZM41.7902 44.6437H44.6792V43.7527C44.6792 43.3927 44.7332 43.0507 44.8412 42.7267C44.9492 42.4027 45.1382 42.0787 45.4082 41.7547C45.6782 41.4307 45.9032 41.1697 46.0832 40.9717C46.2632 40.7737 46.5512 40.4947 46.9472 40.1347C47.3612 39.7567 47.6402 39.5047 47.7842 39.3787C48.9182 38.3167 49.4852 36.9577 49.4852 35.3017C49.4852 33.7897 48.9452 32.5837 47.8652 31.6837C46.8032 30.7657 45.4532 30.3067 43.8152 30.3067C42.2672 30.3067 40.8362 30.6937 39.5222 31.4677V34.4917C40.9082 33.6457 42.2582 33.2227 43.5722 33.2227C44.3642 33.2227 45.0032 33.4567 45.4892 33.9247C45.9752 34.3747 46.2182 34.9597 46.2182 35.6797C46.2182 36.0037 46.1642 36.3187 46.0562 36.6247C45.9482 36.9127 45.7772 37.2097 45.5432 37.5157C45.3092 37.8037 45.1022 38.0377 44.9222 38.2177C44.7422 38.3977 44.4632 38.6587 44.0852 39.0007C43.7252 39.3247 43.4822 39.5497 43.3562 39.6757C42.3122 40.6837 41.7902 41.9077 41.7902 43.3477V44.6437ZM41.3582 48.6127C41.3582 49.1707 41.5292 49.6207 41.8712 49.9627C42.2132 50.2867 42.6812 50.4487 43.2752 50.4487C43.8332 50.4487 44.2922 50.2867 44.6522 49.9627C44.9942 49.6207 45.1652 49.1707 45.1652 48.6127C45.1652 48.0547 44.9942 47.6047 44.6522 47.2627C44.3102 46.9207 43.8512 46.7497 43.2752 46.7497C42.6812 46.7497 42.2132 46.9207 41.8712 47.2627C41.5292 47.6047 41.3582 48.0547 41.3582 48.6127Z" fill="#F53DD6"/>
<defs>
<filter id="filter0_f_20259_85532" x="0" y="0" width="88" height="88" filterUnits="userSpaceOnUse" color-interpolation-filters="sRGB">
<feFlood flood-opacity="0" result="BackgroundImageFix"/>
<feBlend mode="normal" in="SourceGraphic" in2="BackgroundImageFix" result="shape"/>
<feGaussianBlur stdDeviation="12" result="effect1_foregroundBlur_20259_85532"/>
</filter>
</defs>
</svg>
