<svg width="144" height="144" viewBox="0 0 144 144" fill="none" xmlns="http://www.w3.org/2000/svg">
<path fill-rule="evenodd" clip-rule="evenodd" d="M82.0818 92.7237L82.0756 92.6111L82.0446 92.5028C82.019 92.4134 82.004 92.3213 82 92.2284C82.0005 92.1499 82.0045 92.0663 82.01 91.9573L82.0105 91.9481L82.0105 91.948C82.0158 91.8411 82.0225 91.7075 82.0225 91.5699L82.0226 91.5699L82.0224 91.5558C82.0209 91.4488 82.0137 91.3497 82.0087 91.2816L82.0087 91.2814L82.0078 91.2686C82.0022 91.1914 82 91.153 82 91.1199C82 90.648 82.031 90.1929 82.0646 89.6998L82.0646 89.699C82.0755 89.5393 82.0866 89.3755 82.0971 89.2059L82.098 89.1914L82.0985 89.1769C83.1289 57.5426 99.7441 33.8526 113.854 19.3738C113.97 19.2551 114.109 19.1608 114.263 19.0965C114.416 19.0321 114.581 18.999 114.748 18.9994L114.75 18.9994L120.773 18.9994L120.774 18.9994C121.001 18.9992 121.223 19.0605 121.417 19.1769C121.612 19.2932 121.771 19.4602 121.877 19.6599C121.984 19.8597 122.035 20.0847 122.024 20.3109C122.012 20.5358 121.941 20.7536 121.816 20.9411C113.71 32.8225 108.663 46.5216 107.123 60.8223L106.99 62.0584L108.226 61.9235C114.069 61.2856 119.969 62.4153 125.163 65.1665C130.357 67.9177 134.606 72.1638 137.361 77.3558C140.116 82.5479 141.251 88.447 140.617 94.2905C139.984 100.134 137.612 105.653 133.808 110.134C130.005 114.615 124.944 117.852 119.281 119.427C113.618 121.001 107.613 120.84 102.042 118.965C96.4718 117.09 91.5918 113.587 88.0333 108.909C84.4749 104.231 82.4016 98.5927 82.0818 92.7237ZM113.876 18.1742C113.6 18.2901 113.349 18.4601 113.139 18.6744C98.937 33.2476 82.1407 57.1629 81.099 89.1444C81.0894 89.2991 81.0789 89.4536 81.0684 89.6081L81.0684 89.6082C81.0342 90.1096 81 90.6108 81 91.1199C81 91.1968 81.0054 91.2719 81.011 91.3486C81.0161 91.42 81.0214 91.4929 81.0225 91.5699C81.0225 91.6824 81.0169 91.7949 81.0112 91.9074C81.0056 92.0199 81 92.1324 81 92.2449C81.0055 92.4254 81.0335 92.6045 81.0832 92.7781C81.414 98.847 83.5578 104.677 87.2374 109.514C90.917 114.352 95.9632 117.974 101.723 119.913C107.484 121.852 113.693 122.018 119.549 120.39C125.405 118.762 130.638 115.415 134.571 110.781C138.504 106.148 140.956 100.441 141.611 94.3983C142.266 88.3559 141.093 82.2559 138.245 76.8871C135.396 71.5183 131.002 67.1276 125.631 64.2828C120.561 61.5974 114.84 60.406 109.133 60.8357C108.794 60.8612 108.456 60.8924 108.117 60.9294C108.154 60.5898 108.192 60.2505 108.233 59.9116C109.881 46.1411 114.822 32.9646 122.645 21.5004C122.872 21.1615 123.002 20.7674 123.022 20.3602C123.042 19.953 122.951 19.548 122.759 19.1884C122.567 18.8289 122.281 18.5283 121.931 18.3189C121.581 18.1095 121.181 17.999 120.773 17.9994L114.75 17.9994C114.45 17.9988 114.153 18.0582 113.876 18.1742ZM3.27186 91.5632L3.27186 91.5556L3.27174 91.548C3.27023 91.448 3.26315 91.3521 3.25836 91.2874L3.25711 91.2704C3.25171 91.1964 3.24936 91.1558 3.24936 91.1199C3.24936 90.648 3.28035 90.1929 3.31393 89.6998C3.32483 89.5398 3.336 89.3758 3.34646 89.206L3.34735 89.1915L3.34784 89.177C4.37826 57.5427 20.9935 33.8527 35.103 19.3739C35.2196 19.2552 35.3586 19.1609 35.5121 19.0965C35.6658 19.0321 35.8309 18.9991 35.9975 18.9994L35.9994 18.9994L42.0226 18.9994L42.0234 18.9994C42.2499 18.9992 42.4722 19.0606 42.6666 19.177C42.8609 19.2933 43.02 19.4603 43.1268 19.66C43.2336 19.8598 43.2841 20.0848 43.2729 20.311C43.2618 20.536 43.1902 20.7538 43.0655 20.9414C34.9592 32.8227 29.912 46.5218 28.3721 60.8224L28.239 62.0585L29.4749 61.9235C35.3184 61.2855 41.2189 62.4153 46.4134 65.1669C51.6079 67.9184 55.8574 72.1652 58.6123 77.3578C61.3673 82.5505 62.5009 88.4503 61.8667 94.2942C61.2325 100.138 58.8597 105.657 55.0549 110.138C51.2502 114.619 46.1887 117.855 40.5248 119.428C34.861 121.002 28.8555 120.839 23.2849 118.963C17.7143 117.086 12.8349 113.581 9.27762 108.902C5.72035 104.222 3.64889 98.5825 3.33114 92.7129L3.32504 92.6L3.29388 92.4913C3.26857 92.4031 3.25366 92.3121 3.24942 92.2204C3.24997 92.1423 3.25393 92.0591 3.25937 91.9506L3.25981 91.9417C3.26516 91.8348 3.27186 91.701 3.27186 91.5632ZM35.1257 18.1742C34.849 18.2901 34.5983 18.4602 34.3884 18.6744C20.1864 33.2477 3.3901 57.1629 2.34836 89.1444C2.33882 89.2992 2.32829 89.4537 2.31775 89.6081L2.3177 89.6086C2.28352 90.1099 2.24936 90.611 2.24936 91.1199C2.24936 91.2013 2.25508 91.2794 2.26077 91.3571L2.26082 91.3576L2.26086 91.3581C2.26585 91.4262 2.27081 91.494 2.27186 91.5632C2.27186 91.6754 2.26626 91.7876 2.26066 91.8998L2.26062 91.9007C2.25499 92.0132 2.24936 92.1257 2.24936 92.2382C2.25529 92.4172 2.28325 92.5948 2.33261 92.7669C2.66118 98.8364 4.80314 104.668 8.48151 109.507C12.1599 114.346 17.2054 117.97 22.9657 119.91C28.7259 121.851 34.9359 122.019 40.7925 120.392C46.6491 118.765 51.8829 115.419 55.8172 110.785C59.7515 106.152 62.2051 100.445 62.8609 94.4021C63.5167 88.3592 62.3444 82.2586 59.4957 76.8892C56.647 71.5197 52.2528 67.1284 46.8815 64.2832C41.8112 61.5974 36.0902 60.4059 30.3825 60.8357C30.0437 60.8613 29.7049 60.8925 29.3664 60.9294C29.4029 60.5898 29.4415 60.2506 29.4821 59.9117C31.1303 46.1411 36.0719 32.9646 43.8946 21.5004C44.1213 21.1616 44.2516 20.7675 44.2717 20.3602C44.2918 19.953 44.2009 19.548 44.0086 19.1885C43.8164 18.829 43.5301 18.5284 43.1802 18.319C42.8305 18.1095 42.4303 17.9991 42.0226 17.9994L35.9994 17.9994C35.6994 17.9989 35.4023 18.0583 35.1257 18.1742Z" fill="url(#paint0_radial_18765_20915)"/>
<g style="mix-blend-mode:overlay">
<path fill-rule="evenodd" clip-rule="evenodd" d="M82.0818 92.7237L82.0756 92.6111L82.0446 92.5028C82.019 92.4134 82.004 92.3213 82 92.2284C82.0005 92.1499 82.0045 92.0663 82.01 91.9573L82.0105 91.9481L82.0105 91.948C82.0158 91.8411 82.0225 91.7075 82.0225 91.5699L82.0226 91.5699L82.0224 91.5558C82.0209 91.4488 82.0137 91.3497 82.0087 91.2816L82.0087 91.2814L82.0078 91.2686C82.0022 91.1914 82 91.153 82 91.1199C82 90.648 82.031 90.1929 82.0646 89.6998L82.0646 89.699C82.0755 89.5393 82.0866 89.3755 82.0971 89.2059L82.098 89.1914L82.0985 89.1769C83.1289 57.5426 99.7441 33.8526 113.854 19.3738C113.97 19.2551 114.109 19.1608 114.263 19.0965C114.416 19.0321 114.581 18.999 114.748 18.9994L114.75 18.9994L120.773 18.9994L120.774 18.9994C121.001 18.9992 121.223 19.0605 121.417 19.1769C121.612 19.2932 121.771 19.4602 121.877 19.6599C121.984 19.8597 122.035 20.0847 122.024 20.3109C122.012 20.5358 121.941 20.7536 121.816 20.9411C113.71 32.8225 108.663 46.5216 107.123 60.8223L106.99 62.0584L108.226 61.9235C114.069 61.2856 119.969 62.4153 125.163 65.1665C130.357 67.9177 134.606 72.1638 137.361 77.3558C140.116 82.5479 141.251 88.447 140.617 94.2905C139.984 100.134 137.612 105.653 133.808 110.134C130.005 114.615 124.944 117.852 119.281 119.427C113.618 121.001 107.613 120.84 102.042 118.965C96.4718 117.09 91.5918 113.587 88.0333 108.909C84.4749 104.231 82.4016 98.5927 82.0818 92.7237ZM113.876 18.1742C113.6 18.2901 113.349 18.4601 113.139 18.6744C98.937 33.2476 82.1407 57.1629 81.099 89.1444C81.0894 89.2991 81.0789 89.4536 81.0684 89.6081L81.0684 89.6082C81.0342 90.1096 81 90.6108 81 91.1199C81 91.1968 81.0054 91.2719 81.011 91.3486C81.0161 91.42 81.0214 91.4929 81.0225 91.5699C81.0225 91.6824 81.0169 91.7949 81.0112 91.9074C81.0056 92.0199 81 92.1324 81 92.2449C81.0055 92.4254 81.0335 92.6045 81.0832 92.7781C81.414 98.847 83.5578 104.677 87.2374 109.514C90.917 114.352 95.9632 117.974 101.723 119.913C107.484 121.852 113.693 122.018 119.549 120.39C125.405 118.762 130.638 115.415 134.571 110.781C138.504 106.148 140.956 100.441 141.611 94.3983C142.266 88.3559 141.093 82.2559 138.245 76.8871C135.396 71.5183 131.002 67.1276 125.631 64.2828C120.561 61.5974 114.84 60.406 109.133 60.8357C108.794 60.8612 108.456 60.8924 108.117 60.9294C108.154 60.5898 108.192 60.2505 108.233 59.9116C109.881 46.1411 114.822 32.9646 122.645 21.5004C122.872 21.1615 123.002 20.7674 123.022 20.3602C123.042 19.953 122.951 19.548 122.759 19.1884C122.567 18.8289 122.281 18.5283 121.931 18.3189C121.581 18.1095 121.181 17.999 120.773 17.9994L114.75 17.9994C114.45 17.9988 114.153 18.0582 113.876 18.1742ZM3.27186 91.5632L3.27186 91.5556L3.27174 91.548C3.27023 91.448 3.26315 91.3521 3.25836 91.2874L3.25711 91.2704C3.25171 91.1964 3.24936 91.1558 3.24936 91.1199C3.24936 90.648 3.28035 90.1929 3.31393 89.6998C3.32483 89.5398 3.336 89.3758 3.34646 89.206L3.34735 89.1915L3.34784 89.177C4.37826 57.5427 20.9935 33.8527 35.103 19.3739C35.2196 19.2552 35.3586 19.1609 35.5121 19.0965C35.6658 19.0321 35.8309 18.9991 35.9975 18.9994L35.9994 18.9994L42.0226 18.9994L42.0234 18.9994C42.2499 18.9992 42.4722 19.0606 42.6666 19.177C42.8609 19.2933 43.02 19.4603 43.1268 19.66C43.2336 19.8598 43.2841 20.0848 43.2729 20.311C43.2618 20.536 43.1902 20.7538 43.0655 20.9414C34.9592 32.8227 29.912 46.5218 28.3721 60.8224L28.239 62.0585L29.4749 61.9235C35.3184 61.2855 41.2189 62.4153 46.4134 65.1669C51.6079 67.9184 55.8574 72.1652 58.6123 77.3578C61.3673 82.5505 62.5009 88.4503 61.8667 94.2942C61.2325 100.138 58.8597 105.657 55.0549 110.138C51.2502 114.619 46.1887 117.855 40.5248 119.428C34.861 121.002 28.8555 120.839 23.2849 118.963C17.7143 117.086 12.8349 113.581 9.27762 108.902C5.72035 104.222 3.64889 98.5825 3.33114 92.7129L3.32504 92.6L3.29388 92.4913C3.26857 92.4031 3.25366 92.3121 3.24942 92.2204C3.24997 92.1423 3.25393 92.0591 3.25937 91.9506L3.25981 91.9417C3.26516 91.8348 3.27186 91.701 3.27186 91.5632ZM35.1257 18.1742C34.849 18.2901 34.5983 18.4602 34.3884 18.6744C20.1864 33.2477 3.3901 57.1629 2.34836 89.1444C2.33882 89.2992 2.32829 89.4537 2.31775 89.6081L2.3177 89.6086C2.28352 90.1099 2.24936 90.611 2.24936 91.1199C2.24936 91.2013 2.25508 91.2794 2.26077 91.3571L2.26082 91.3576L2.26086 91.3581C2.26585 91.4262 2.27081 91.494 2.27186 91.5632C2.27186 91.6754 2.26626 91.7876 2.26066 91.8998L2.26062 91.9007C2.25499 92.0132 2.24936 92.1257 2.24936 92.2382C2.25529 92.4172 2.28325 92.5948 2.33261 92.7669C2.66118 98.8364 4.80314 104.668 8.48151 109.507C12.1599 114.346 17.2054 117.97 22.9657 119.91C28.7259 121.851 34.9359 122.019 40.7925 120.392C46.6491 118.765 51.8829 115.419 55.8172 110.785C59.7515 106.152 62.2051 100.445 62.8609 94.4021C63.5167 88.3592 62.3444 82.2586 59.4957 76.8892C56.647 71.5197 52.2528 67.1284 46.8815 64.2832C41.8112 61.5974 36.0902 60.4059 30.3825 60.8357C30.0437 60.8613 29.7049 60.8925 29.3664 60.9294C29.4029 60.5898 29.4415 60.2506 29.4821 59.9117C31.1303 46.1411 36.0719 32.9646 43.8946 21.5004C44.1213 21.1616 44.2516 20.7675 44.2717 20.3602C44.2918 19.953 44.2009 19.548 44.0086 19.1885C43.8164 18.829 43.5301 18.5284 43.1802 18.319C42.8305 18.1095 42.4303 17.9991 42.0226 17.9994L35.9994 17.9994C35.6994 17.9989 35.4023 18.0583 35.1257 18.1742Z" fill="white" fill-opacity="0.2"/>
</g>
<defs>
<radialGradient id="paint0_radial_18765_20915" cx="0" cy="0" r="1" gradientUnits="userSpaceOnUse" gradientTransform="translate(49.9374 3.48329) rotate(26.9457) scale(156.326 314.677)">
<stop stop-color="#7CB7BF" stop-opacity="0.7"/>
<stop offset="0.415196" stop-color="#3A587B" stop-opacity="0.8"/>
<stop offset="0.607183" stop-color="#3A587B" stop-opacity="0.2"/>
<stop offset="0.703046" stop-color="#3A587B" stop-opacity="0.05"/>
</radialGradient>
</defs>
</svg>
