<svg width="40" height="40" viewBox="0 0 40 40" fill="none" xmlns="http://www.w3.org/2000/svg">
<path d="M0 8.75C0 3.91751 3.91751 0 8.75 0H31.25C36.0825 0 40 3.91751 40 8.75V31.25C40 36.0825 36.0825 40 31.25 40H8.75C3.91751 40 0 36.0825 0 31.25V8.75Z" fill="white"/>
<path d="M26.5341 13.9766V29.7158H24.3843V21.1047H15.9036V23.2348H22.2353V24.3341C22.2352 27.0841 22.2307 29.8341 22.2378 32.584C22.2382 32.7552 22.2473 32.8916 22.2671 32.9993C24.6719 32.6072 26.8568 31.5641 28.6373 30.0567V18.9872C28.6373 17.3184 28.2672 15.4878 26.5341 13.9766Z" fill="#FF2E4C"/>
<path d="M22.2724 14.6323H24.4206V9.91168C25.7131 10.1918 30.6159 13.3983 30.8158 18.4219V27.7527C32.4026 25.577 33.3414 22.8984 33.3414 19.9993C33.3414 13.4509 28.5627 8.0209 22.303 7C22.2845 7.1105 22.2763 7.25105 22.2754 7.4282L22.2724 14.6323Z" fill="#FF2E4C"/>
<path d="M13.7327 26.0227V10.2835H15.8826V18.8946H24.3632V16.7645H18.0316V15.6652C18.0317 12.9152 18.0362 10.1652 18.029 7.41535C18.0286 7.24411 18.0195 7.1077 17.9998 7C15.595 7.39213 13.41 8.43521 11.6295 9.94267V21.0121C11.6295 22.6809 11.9996 24.5116 13.7327 26.0227Z" fill="#FF2E4C"/>
<path d="M18.0689 25.3664H15.9208V30.087C14.6282 29.8069 9.72541 26.6004 9.52556 21.5768V12.2461C7.93871 14.4217 7 17.1004 7 19.9994C7 26.5479 11.7786 31.9778 18.0384 32.9987C18.0568 32.8882 18.065 32.7476 18.066 32.5705L18.0689 25.3664Z" fill="#FF2E4C"/>
</svg>
