<svg width="18" height="18" viewBox="0 0 18 18" fill="none" xmlns="http://www.w3.org/2000/svg">
<circle cx="9" cy="9" r="9" fill="currentColor"/>
<path d="M9 5C8.46957 5 7.96086 5.21071 7.58579 5.58579C7.21071 5.96086 7 6.46957 7 7V7.5C7 8.03043 7.21071 8.53914 7.58579 8.91421C7.96086 9.28929 8.46957 9.5 9 9.5C9.53043 9.5 10.0391 9.28929 10.4142 8.91421C10.7893 8.53914 11 8.03043 11 7.5V7C11 6.46957 10.7893 5.96086 10.4142 5.58579C10.0391 5.21071 9.53043 5 9 5Z" fill="#9A9AA1"/>
<path fill-rule="evenodd" clip-rule="evenodd" d="M9 16C10.8565 16 12.637 15.2625 13.9497 13.9497C15.2625 12.637 16 10.8565 16 9C16 7.14348 15.2625 5.36301 13.9497 4.05025C12.637 2.7375 10.8565 2 9 2C7.14348 2 5.36301 2.7375 4.05025 4.05025C2.7375 5.36301 2 7.14348 2 9C2 10.8565 2.7375 12.637 4.05025 13.9497C5.36301 15.2625 7.14348 16 9 16ZM6.121 11.879L5.111 12.889C4.34179 12.1198 3.81794 11.1398 3.6057 10.0729C3.39346 9.00601 3.50236 7.90013 3.91864 6.89512C4.33491 5.89012 5.03986 5.03112 5.94434 4.42676C6.84881 3.8224 7.91219 3.49983 9 3.49983C10.0878 3.49983 11.1512 3.8224 12.0557 4.42676C12.9601 5.03112 13.6651 5.89012 14.0814 6.89512C14.4976 7.90013 14.6065 9.00601 14.3943 10.0729C14.1821 11.1398 13.6582 12.1198 12.889 12.889L11.879 11.879C11.6004 11.6003 11.2696 11.3792 10.9055 11.2284C10.5414 11.0776 10.1511 11 9.757 11H8.243C7.8489 11 7.45865 11.0776 7.09455 11.2284C6.73045 11.3792 6.39963 11.6003 6.121 11.879Z" fill="#9A9AA1"/>
</svg>
