<svg width="18" height="18" viewBox="0 0 18 18" fill="none" xmlns="http://www.w3.org/2000/svg">
<circle cx="9" cy="9" r="9" fill="currentColor"/>
<g clip-path="url(#clip0_23451_11772)">
<path d="M4.6875 7.4375H12.6625L11.7688 8.33125C11.4938 8.60625 11.4938 9.01875 11.7688 9.29375C11.9062 9.43125 12.0437 9.5 12.25 9.5C12.4563 9.5 12.5938 9.43125 12.7312 9.29375L14.7937 7.23125C15.0687 6.95625 15.0687 6.54375 14.7937 6.26875L12.7312 4.20625C12.4563 3.93125 12.0437 3.93125 11.7688 4.20625C11.4938 4.48125 11.4938 4.89375 11.7688 5.16875L12.6625 6.0625H4.6875C4.275 6.0625 4 6.3375 4 6.75C4 7.1625 4.275 7.4375 4.6875 7.4375Z" fill="#9A9AA1"/>
<path d="M14.3125 11.5625H6.3375L7.23125 10.6687C7.50625 10.3937 7.50625 9.98125 7.23125 9.70625C6.95625 9.43125 6.54375 9.43125 6.26875 9.70625L4.20625 11.7687C3.93125 12.0438 3.93125 12.4562 4.20625 12.7312L6.26875 14.7937C6.40625 14.9312 6.54375 15 6.75 15C6.95625 15 7.09375 14.9312 7.23125 14.7937C7.50625 14.5187 7.50625 14.1063 7.23125 13.8313L6.3375 12.9375H14.3125C14.725 12.9375 15 12.6625 15 12.25C15 11.8375 14.725 11.5625 14.3125 11.5625Z" fill="#9A9AA1"/>
</g>
<defs>
<clipPath id="clip0_23451_11772">
<rect width="11" height="11" fill="white" transform="translate(4 4)"/>
</clipPath>
</defs>
</svg>
