<svg width="20" height="20" viewBox="0 0 20 20" fill="none" xmlns="http://www.w3.org/2000/svg">
<path fill-rule="evenodd" clip-rule="evenodd" d="M10 20C15.5228 20 20 15.5228 20 10C20 4.47715 15.5228 0 10 0C4.47715 0 0 4.47715 0 10C0 15.5228 4.47715 20 10 20ZM14.7809 7.28876C15.1259 6.8575 15.056 6.2282 14.6247 5.88319C14.1934 5.53818 13.5641 5.60811 13.2191 6.03937L8.58375 11.8336L6.70711 9.95695C6.31658 9.56643 5.68342 9.56643 5.29289 9.95695C4.90237 10.3475 4.90237 10.9806 5.29289 11.3712L7.95956 14.0378C8.16069 14.239 8.43796 14.3449 8.72197 14.3292C9.00597 14.3135 9.26985 14.1775 9.44754 13.9554L14.7809 7.28876Z" fill="#4B73EC"/>
</svg>
