<svg width="20" height="20" viewBox="0 0 20 20" fill="none" xmlns="http://www.w3.org/2000/svg">
<g clip-path="url(#clip0_23451_12304)">
<path d="M10 18.7513V9.16797" stroke="#96999F" stroke-width="2" stroke-miterlimit="10"/>
<path d="M17.918 5.20834L18.3346 5L10.4485 8.94306C10.167 9.08382 9.83562 9.08382 9.55409 8.94306L1.66797 5.00001L2.08464 5.20834" stroke="#96999F" stroke-width="2" stroke-miterlimit="10"/>
<path d="M17.739 15.3291C18.1011 15.169 18.3346 14.8104 18.3346 14.4145V5.58547C18.3346 5.18958 18.1011 4.83095 17.739 4.67087L10.4057 1.42877C10.1481 1.3149 9.85449 1.3149 9.59695 1.42877L2.26362 4.67087C1.90153 4.83095 1.66797 5.18957 1.66797 5.58547V14.4145C1.66797 14.8104 1.90153 15.169 2.26361 15.3291L9.59695 18.5712C9.85449 18.6851 10.1481 18.6851 10.4057 18.5712L17.739 15.3291Z" stroke="#96999F" stroke-width="2" stroke-miterlimit="10"/>
</g>
<defs>
<clipPath id="clip0_23451_12304">
<rect width="20" height="20" fill="white"/>
</clipPath>
</defs>
</svg>
