<svg width="16" height="16" viewBox="0 0 16 16" fill="none" xmlns="http://www.w3.org/2000/svg">
<path fill-rule="evenodd" clip-rule="evenodd" d="M12.32 6.41287C12.32 6.84304 11.7977 7.05603 11.4969 6.74856L5.33783 0.453626C6.17064 0.159835 7.06665 0 8 0C9.59126 0 11.074 0.464586 12.32 1.26552V6.41287ZM14.56 3.41988V6.41287C14.56 8.85047 11.6005 10.0574 9.8958 8.31511L3.27244 1.54564C1.28818 3.00149 0 5.35031 0 8C0 9.70351 0.532448 11.2827 1.44 12.5801V9.60313C1.44 7.16553 4.39946 5.95855 6.1042 7.70089L12.7184 14.461C14.7079 13.0057 16 10.6537 16 8C16 6.29649 15.4676 4.71733 14.56 3.41988ZM4.50309 9.26744L10.6505 15.5505C9.82101 15.8417 8.929 16 8 16C6.40874 16 4.926 15.5354 3.68 14.7345V9.60313C3.68 9.17297 4.20226 8.95997 4.50309 9.26744Z" fill="#E6E6E6"/>
</svg>
