<svg width="16" height="16" viewBox="0 0 16 16" fill="none" xmlns="http://www.w3.org/2000/svg">
<g clip-path="url(#clip0_27336_61785)">
<path fill-rule="evenodd" clip-rule="evenodd" d="M2.06935 2.61941C1.98482 2.7123 1.99042 2.85483 2.07922 2.94365L13.0544 13.9188C13.1432 14.0076 13.2857 14.0132 13.3786 13.9287C14.9879 12.4643 15.998 10.353 15.998 8.00579C15.998 3.58432 12.4137 7.29829e-10 7.99221 4.69798e-10C5.645 3.31757e-10 3.5337 1.01014 2.06935 2.61941ZM0.697628 4.7023C0.657071 4.79173 0.677521 4.89658 0.746947 4.966L11.032 15.2511C11.1014 15.3205 11.2063 15.3409 11.2957 15.3004C11.5333 15.1926 11.7647 15.0736 11.9892 14.944C12.1227 14.8669 12.1431 14.6848 12.0341 14.5759L1.42213 3.96387C1.31317 3.85491 1.1311 3.87536 1.05406 4.0088C0.924435 4.23331 0.805398 4.4647 0.697628 4.7023ZM0.0736664 7.64736C0.0255098 7.5992 -0.000112831 7.53283 0.0044207 7.46488C0.0256531 7.14663 0.065483 6.83347 0.122833 6.52648C0.157222 6.3424 0.38215 6.27853 0.514563 6.41093L9.58708 15.4834C9.71948 15.6159 9.65561 15.8408 9.47153 15.8752C9.16453 15.9325 8.85138 15.9724 8.53313 15.9936C8.46517 15.9981 8.39881 15.9725 8.35065 15.9243L0.0736664 7.64736ZM0.630423 9.88142C0.465127 9.71613 0.198379 9.85856 0.258915 10.0844C0.99646 12.8352 3.16276 15.0016 5.91365 15.7391C6.13945 15.7996 6.28188 15.5329 6.11658 15.3676L0.630423 9.88142Z" fill="#CCCCCC"/>
</g>
<defs>
<clipPath id="clip0_27336_61785">
<rect width="16" height="16" fill="white"/>
</clipPath>
</defs>
</svg>
