<svg width="18" height="18" viewBox="0 0 18 18" fill="none" xmlns="http://www.w3.org/2000/svg">
<circle cx="9" cy="9" r="9" fill="currentColor"/>
<path d="M9.35729 16C10.3934 16 11.5562 15.7872 12.3514 15.5417C12.6762 15.4415 12.8313 15.0905 12.7239 14.7679C12.6077 14.4188 12.2294 14.2321 11.8745 14.3296C11.241 14.5036 10.3265 14.6993 9.4316 14.6993C5.58432 14.6993 3.52062 12.6633 3.52062 9.01921C3.52062 5.52881 5.56145 3.27323 9.22009 3.27323C12.5643 3.27323 14.5594 5.33673 14.5537 8.12466C14.5594 10.5065 14.2393 11.5766 13.1989 11.5766C12.61 11.5766 12.2842 11.1156 12.2842 10.5394V6.14963C12.2842 5.7613 11.9694 5.44649 11.5811 5.44649H11.4926C11.1531 5.44649 10.8779 5.72168 10.8779 6.06115H10.8036C10.6321 5.5782 9.6374 5.14465 8.44263 5.28185C6.79053 5.46844 5.37281 6.78009 5.37281 8.94238C5.37281 11.198 6.5733 12.7072 8.4998 12.7785C9.80318 12.8334 10.6493 12.2517 10.9179 11.6041H10.9865C11.1237 12.4877 12.1184 12.8773 13.096 12.8444C15.537 12.8005 16 10.4955 16 8.17954C16 4.87573 13.6448 2 9.27726 2C4.69824 2 2.00572 4.68365 2 9.00823C2.00572 13.459 4.62964 16 9.35729 16ZM8.83136 11.4339C7.33932 11.4339 6.82483 10.2046 6.81911 8.87652C6.82483 7.61427 7.56227 6.60996 8.85423 6.60996C10.2548 6.60996 10.8836 7.20267 10.8893 8.87103C10.8951 10.5833 10.3177 11.4339 8.83136 11.4339Z" fill="#9A9AA1"/>
</svg>
