<svg width="16" height="16" viewBox="0 0 16 16" fill="none" xmlns="http://www.w3.org/2000/svg">
<path d="M2.64669 2.80514C3.14435 3.20943 3.33104 3.17858 4.26551 3.11624L13.0755 2.58724C13.2622 2.58724 13.1069 2.40084 13.0446 2.36986L11.5814 1.31213C11.3011 1.09448 10.9275 0.845213 10.2117 0.907566L1.68109 1.52976C1.36999 1.56061 1.30784 1.71616 1.43175 1.84085L2.64669 2.80514ZM3.17563 4.85827V14.1279C3.17563 14.626 3.42457 14.8124 3.9849 14.7816L13.667 14.2214C14.2276 14.1905 14.29 13.8478 14.29 13.4432V4.23581C14.29 3.83177 14.1347 3.61387 13.7914 3.64497L3.67354 4.23581C3.30016 4.26718 3.17563 4.45395 3.17563 4.85827ZM12.7338 5.35551C12.7959 5.63576 12.7338 5.91574 12.453 5.94724L11.9865 6.04018V12.8835C11.5814 13.1012 11.208 13.2257 10.8967 13.2257C10.3984 13.2257 10.2736 13.0701 9.90038 12.6037L6.84892 7.81331V12.4482L7.8145 12.666C7.8145 12.666 7.8145 13.2257 7.03548 13.2257L4.88785 13.3503C4.82546 13.2257 4.88785 12.9149 5.10568 12.8526L5.66612 12.6973V6.56918L4.88798 6.50683C4.82558 6.22658 4.981 5.82254 5.41716 5.79117L7.7211 5.63588L10.8967 10.4886V6.19572L10.0871 6.10279C10.0249 5.7602 10.2736 5.51143 10.585 5.48058L12.7338 5.35551ZM0.964833 0.689919L9.83809 0.0364884C10.9278 -0.0569692 11.2081 0.00563338 11.893 0.503134L14.7253 2.49391C15.1928 2.83625 15.3485 2.92945 15.3485 3.30264V14.2214C15.3485 14.9056 15.0993 15.3103 14.2277 15.3722L3.92326 15.9945C3.26903 16.0257 2.95766 15.9324 2.61505 15.4966L0.529184 12.7904C0.155425 12.2922 0 11.9195 0 11.4835V1.77826C0 1.21866 0.249339 0.751892 0.964833 0.689919Z" fill="#CCCCCC"/>
</svg>
