<svg width="18" height="18" viewBox="0 0 18 18" fill="none" xmlns="http://www.w3.org/2000/svg">
<g clip-path="url(#clip0_25702_2378)">
<circle cx="9" cy="9" r="8.5" fill="currentColor" stroke="currentColor"/>
<path d="M4.76 12.16C4.312 11.52 4.088 10.752 4.088 9.824C4.088 8.48 4.472 7.392 5.272 6.624C6.072 5.856 7.192 5.472 8.6 5.408V6.912C7.64 6.944 6.968 7.2 6.552 7.712C6.104 8.224 5.912 8.832 5.912 9.472C5.912 9.664 5.912 9.824 5.944 9.888C6.2 9.632 6.552 9.504 7.032 9.504C7.544 9.504 7.928 9.664 8.248 9.952C8.568 10.272 8.728 10.688 8.728 11.232C8.728 11.776 8.536 12.224 8.152 12.576C7.768 12.928 7.256 13.088 6.616 13.088C5.848 13.088 5.208 12.8 4.76 12.16ZM10.296 12.16C9.848 11.52 9.624 10.752 9.624 9.824C9.624 8.48 10.008 7.392 10.808 6.624C11.608 5.856 12.728 5.472 14.136 5.408V6.912C13.176 6.944 12.504 7.2 12.088 7.712C11.64 8.224 11.448 8.832 11.448 9.472C11.448 9.664 11.448 9.824 11.48 9.888C11.736 9.632 12.088 9.504 12.568 9.504C13.08 9.504 13.464 9.664 13.784 9.952C14.104 10.272 14.264 10.688 14.264 11.232C14.264 11.776 14.072 12.224 13.688 12.576C13.304 12.928 12.792 13.088 12.152 13.088C11.384 13.088 10.744 12.8 10.296 12.16Z" fill="#9A9AA1"/>
</g>
<defs>
<clipPath id="clip0_25702_2378">
<rect width="18" height="18" fill="white"/>
</clipPath>
</defs>
</svg>
