<svg width="20" height="20" viewBox="0 0 20 20" fill="none" xmlns="http://www.w3.org/2000/svg">
<path d="M9.96489 1.34444L9.9649 1.34443C9.97868 1.32766 9.98787 1.32321 9.99009 1.32217C9.99358 1.32054 9.99681 1.31989 10 1.31989C10.0032 1.31989 10.0064 1.32054 10.0099 1.32217C10.0121 1.32321 10.0213 1.32766 10.0351 1.34443L10.0351 1.34444L16.6446 9.39093L16.6446 9.39093C16.6642 9.41486 16.6801 9.45202 16.6801 9.49998C16.6801 9.54794 16.6642 9.58511 16.6446 9.60903L16.6446 9.60904L10.0351 17.6555L10.0351 17.6556C10.0213 17.6724 10.0121 17.6768 10.0099 17.6778C10.0064 17.6795 10.0032 17.6801 10 17.6801C9.99683 17.6801 9.9936 17.6795 9.99012 17.6778C9.98791 17.6768 9.97871 17.6724 9.96493 17.6556L9.96489 17.6555L3.35545 9.60904L3.35544 9.60903C3.33579 9.58511 3.31989 9.54794 3.31989 9.49998C3.31989 9.45202 3.33579 9.41486 3.35544 9.39093L3.35545 9.39093L9.96489 1.34444Z" stroke="#EAC01A" stroke-width="2.63979" stroke-linejoin="round"/>
</svg>
