<svg xmlns="http://www.w3.org/2000/svg" width="20" height="21" viewBox="0 0 20 21" fill="none">
  <path d="M16.16 12.0309C16.2947 11.5262 16.3658 11.0067 16.3715 10.4844C16.3658 9.96209 16.2947 9.44256 16.16 8.93789L17.96 7.61339C18.1086 7.50385 18.2116 7.34335 18.2492 7.16263C18.2869 6.9819 18.2565 6.79364 18.164 6.63389L17.414 5.33489C17.3217 5.17492 17.1737 5.05462 16.9982 4.99705C16.8227 4.93948 16.6321 4.94868 16.463 5.02289L14.4275 5.92289C13.6728 5.19452 12.7492 4.66471 11.7395 4.38089L11.4965 2.15189C11.4761 1.9676 11.3882 1.7974 11.2497 1.67413C11.1112 1.55086 10.9319 1.48326 10.7465 1.48439H9.24652C9.06111 1.48326 8.88185 1.55086 8.74335 1.67413C8.60484 1.7974 8.51691 1.9676 8.49652 2.15189L8.25352 4.38089C7.244 4.66231 6.31996 5.18953 5.56402 5.91539L3.52852 5.01539C3.3594 4.94118 3.16884 4.93198 2.99336 4.98955C2.81788 5.04712 2.66981 5.16742 2.57752 5.32739L1.82752 6.62639C1.73501 6.78614 1.70468 6.9744 1.74232 7.15513C1.77996 7.33585 1.88293 7.49635 2.03152 7.60589L3.83152 8.93039C3.69672 9.43755 3.62616 9.95964 3.62152 10.4844C3.62728 11.0067 3.69833 11.5262 3.83302 12.0309L2.03302 13.3554C1.88443 13.4649 1.78146 13.6254 1.74382 13.8062C1.70618 13.9869 1.73651 14.1751 1.82902 14.3349L2.57902 15.6339C2.64484 15.7479 2.73952 15.8426 2.85353 15.9084C2.96754 15.9742 3.09687 16.0089 3.22852 16.0089C3.33174 16.0083 3.43379 15.9869 3.52852 15.9459L5.56402 15.0459C6.31996 15.7718 7.244 16.299 8.25352 16.5804L8.49652 18.8169C8.51691 19.0012 8.60484 19.1714 8.74335 19.2947C8.88185 19.4179 9.06111 19.4855 9.24652 19.4844H10.7465C10.9319 19.4855 11.1112 19.4179 11.2497 19.2947C11.3882 19.1714 11.4761 19.0012 11.4965 18.8169L11.744 16.5879C12.7519 16.3058 13.6744 15.7786 14.429 15.0534L16.4645 15.9534C16.5592 15.9944 16.6613 16.0158 16.7645 16.0164C16.8962 16.0164 17.0255 15.9817 17.1395 15.9159C17.2535 15.8501 17.3482 15.7554 17.414 15.6414L18.164 14.3424C18.2565 14.1826 18.2869 13.9944 18.2492 13.8137C18.2116 13.6329 18.1086 13.4724 17.96 13.3629L16.16 12.0309ZM9.99652 13.4844C9.40317 13.4844 8.82315 13.3084 8.32981 12.9788C7.83646 12.6492 7.45194 12.1806 7.22488 11.6324C6.99782 11.0843 6.93841 10.4811 7.05416 9.89912C7.16992 9.31718 7.45564 8.78263 7.8752 8.36307C8.29475 7.94351 8.8293 7.65779 9.41125 7.54203C9.99319 7.42628 10.5964 7.48569 11.1446 7.71275C11.6927 7.93981 12.1613 8.32433 12.4909 8.81768C12.8206 9.31103 12.9965 9.89105 12.9965 10.4844C12.9965 11.28 12.6804 12.0431 12.1178 12.6057C11.5552 13.1683 10.7922 13.4844 9.99652 13.4844Z" fill="url(#gradient)"/>
  <defs>
    <linearGradient id="gradient" x1="9.99577" y1="1.48437" x2="9.99577" y2="19.4844" gradientUnits="userSpaceOnUse">
      <stop stop-color="var(--icon-color)"/>
      <stop offset="1" stop-color="var(--icon-color)" stop-opacity="0.6"/>
    </linearGradient>
  </defs>
</svg>
